%TF.GenerationSoftware,Altium Limited,Altium Designer,25.2.1 (25)*%
G04 Layer_Color=8388736*
%FSLAX45Y45*%
%MOMM*%
%TF.SameCoordinates,9B973337-7CBC-4795-9BC3-C09BD17617B4*%
%TF.FilePolarity,Negative*%
%TF.FileFunction,Soldermask,Top*%
%TF.Part,Single*%
G01*
G75*
%TA.AperFunction,ComponentPad*%
%ADD15C,1.40000*%
%ADD16R,1.85000X1.85000*%
%ADD17C,1.85000*%
%ADD26R,1.85000X1.85000*%
%ADD50R,1.55320X1.55320*%
%ADD51C,1.55320*%
%TA.AperFunction,ViaPad*%
%ADD52C,0.20320*%
%ADD53C,1.72720*%
%TA.AperFunction,ComponentPad*%
%ADD54R,1.60320X1.60320*%
%ADD55C,2.05320*%
%ADD56C,3.19320*%
%ADD57C,2.84320*%
%ADD58R,2.84320X2.84320*%
%ADD59O,1.73320X1.73319*%
%ADD60C,1.98120*%
%ADD61C,1.51120*%
%ADD62C,1.46120*%
%ADD63C,1.41120*%
%ADD64C,0.20320*%
%TA.AperFunction,ViaPad*%
%ADD65C,1.47320*%
D15*
X7166800Y14414500D02*
D03*
X7416800D02*
D03*
X7666800D02*
D03*
D16*
X9461500Y15494000D02*
D03*
D17*
X9207500D02*
D03*
X8757300Y13690601D02*
D03*
D26*
Y13436600D02*
D03*
D50*
X10218000Y10960100D02*
D03*
X9467000Y10782300D02*
D03*
X11297500Y7175500D02*
D03*
X12388000Y3111500D02*
D03*
X8960700Y10439400D02*
D03*
D51*
X11118000Y10960100D02*
D03*
X8567000Y10782300D02*
D03*
X12197500Y7175500D02*
D03*
X11488000Y3111500D02*
D03*
X9860700Y10439400D02*
D03*
D52*
X5803900Y9829800D02*
D03*
X7404100Y9499600D02*
D03*
X7569200Y8877300D02*
D03*
X5892800D02*
D03*
X7461250Y11264900D02*
D03*
X6159500D02*
D03*
X7454900Y12750800D02*
D03*
X5918200D02*
D03*
D53*
X3175000Y2667000D02*
D03*
X13906500D02*
D03*
Y21158200D02*
D03*
X3175000D02*
D03*
D54*
X6916800Y14414500D02*
D03*
D55*
X8953500Y15494000D02*
D03*
X8757300Y13944600D02*
D03*
D56*
X13385800Y5016500D02*
D03*
X12242800Y4151500D02*
D03*
Y5881500D02*
D03*
X13385800Y9385300D02*
D03*
X12242800Y8520300D02*
D03*
Y10250300D02*
D03*
X13385800Y13550900D02*
D03*
X12242800Y12685900D02*
D03*
Y14415900D02*
D03*
X3771900Y10510400D02*
D03*
X4914900Y11597400D02*
D03*
Y9423400D02*
D03*
X3771900Y18694400D02*
D03*
X4571900Y19609900D02*
D03*
Y17778900D02*
D03*
X13385800Y17818100D02*
D03*
X12585800Y16902600D02*
D03*
Y18733600D02*
D03*
X3771900Y14884399D02*
D03*
X4914900Y15749400D02*
D03*
Y14019400D02*
D03*
Y4432300D02*
D03*
Y6606300D02*
D03*
X3771900Y5519300D02*
D03*
D57*
X12775800Y4794000D02*
D03*
Y5239000D02*
D03*
X12140800D02*
D03*
X12775800Y9162800D02*
D03*
Y9607800D02*
D03*
X12140800D02*
D03*
X12775800Y13328400D02*
D03*
Y13773399D02*
D03*
X12140800D02*
D03*
X4381900Y10955400D02*
D03*
Y10065400D02*
D03*
X5016900Y10510400D02*
D03*
Y10065400D02*
D03*
X4381900Y10510400D02*
D03*
Y18421400D02*
D03*
X12775800Y18091100D02*
D03*
X4381900Y15106900D02*
D03*
Y14661900D02*
D03*
X5016900D02*
D03*
X4381900Y5519300D02*
D03*
X5016900Y5074300D02*
D03*
Y5519300D02*
D03*
X4381900Y5074300D02*
D03*
Y5964300D02*
D03*
D58*
X12140800Y4794000D02*
D03*
Y9162800D02*
D03*
Y13328400D02*
D03*
X5016900Y10955400D02*
D03*
X4381900Y18967400D02*
D03*
X12775800Y17545100D02*
D03*
X5016900Y15106900D02*
D03*
Y5964300D02*
D03*
D59*
X7594600Y6743700D02*
D03*
Y6489700D02*
D03*
Y6235700D02*
D03*
Y5981700D02*
D03*
Y5727700D02*
D03*
Y5473700D02*
D03*
Y5219700D02*
D03*
Y4965700D02*
D03*
Y4711700D02*
D03*
Y4457700D02*
D03*
Y4203700D02*
D03*
Y3949700D02*
D03*
Y3695700D02*
D03*
Y3441700D02*
D03*
X6070600Y6743700D02*
D03*
Y6489700D02*
D03*
Y6235700D02*
D03*
Y5981700D02*
D03*
Y5727700D02*
D03*
Y4711700D02*
D03*
Y3949700D02*
D03*
Y3695700D02*
D03*
Y3441700D02*
D03*
X7340600Y6743700D02*
D03*
X7086600D02*
D03*
X6832600D02*
D03*
X6578600D02*
D03*
X6324600D02*
D03*
D60*
X6070600Y5473700D02*
D03*
Y5219700D02*
D03*
Y4965700D02*
D03*
Y4457700D02*
D03*
Y4203700D02*
D03*
X10642600Y6718300D02*
D03*
Y6464300D02*
D03*
X9118600Y8750300D02*
D03*
Y9004300D02*
D03*
D61*
X10642600Y5448300D02*
D03*
Y5194300D02*
D03*
Y4940300D02*
D03*
Y4686300D02*
D03*
Y4432300D02*
D03*
Y4178300D02*
D03*
Y3924300D02*
D03*
Y3670300D02*
D03*
Y3416300D02*
D03*
X9118600D02*
D03*
Y3670300D02*
D03*
Y3924300D02*
D03*
Y4178300D02*
D03*
Y4432300D02*
D03*
Y4686300D02*
D03*
Y4940300D02*
D03*
Y5194300D02*
D03*
Y5448300D02*
D03*
X10642600Y9258300D02*
D03*
Y9004300D02*
D03*
Y8750300D02*
D03*
Y8496300D02*
D03*
Y8242300D02*
D03*
Y7988300D02*
D03*
Y7734300D02*
D03*
Y7480300D02*
D03*
Y7226300D02*
D03*
Y6972300D02*
D03*
Y6210300D02*
D03*
Y5956300D02*
D03*
X9118600Y5702300D02*
D03*
Y5956300D02*
D03*
Y6210300D02*
D03*
Y6464300D02*
D03*
Y6718300D02*
D03*
Y6972300D02*
D03*
Y7226300D02*
D03*
Y7480300D02*
D03*
Y7734300D02*
D03*
Y7988300D02*
D03*
Y8242300D02*
D03*
Y8496300D02*
D03*
X10642600Y5702300D02*
D03*
X10134600Y4686300D02*
D03*
X10388600Y9004300D02*
D03*
Y4686300D02*
D03*
X9880600D02*
D03*
X9626600D02*
D03*
X9372600D02*
D03*
X9118600Y9258300D02*
D03*
D62*
X9423600Y7607300D02*
D03*
Y7861300D02*
D03*
Y8115300D02*
D03*
Y8369300D02*
D03*
Y8623300D02*
D03*
D63*
X9997600Y7961300D02*
D03*
X10197600D02*
D03*
X9997600Y7761300D02*
D03*
X10197600D02*
D03*
X10397600Y7961300D02*
D03*
Y7761300D02*
D03*
D64*
X8305800Y10617200D02*
D03*
X8051800D02*
D03*
X7797800D02*
D03*
X7543800D02*
D03*
X7797800Y12014200D02*
D03*
X8051800D02*
D03*
X6743700Y10617200D02*
D03*
X6489700D02*
D03*
X6235700D02*
D03*
X5981700D02*
D03*
X6235700Y12014200D02*
D03*
X6489700D02*
D03*
X6769100Y8115300D02*
D03*
X6515100D02*
D03*
X6261100D02*
D03*
X6007100D02*
D03*
X6261100Y9512300D02*
D03*
X6515100D02*
D03*
X8293100Y8102600D02*
D03*
X8039100D02*
D03*
X7785100D02*
D03*
X7531100D02*
D03*
X7785100Y9499600D02*
D03*
X8039100D02*
D03*
D65*
X6261100Y7340600D02*
D03*
X5998449Y7518400D02*
D03*
X6235700Y10134600D02*
D03*
X5740400Y10160000D02*
D03*
X5511800Y3632200D02*
D03*
X11468100Y8026400D02*
D03*
X11480800Y4610100D02*
D03*
X12217400Y11887200D02*
D03*
X8750300Y12725400D02*
D03*
X8902700Y14935201D02*
D03*
%TF.MD5,4cecc17ba50624eb87049dcf3304246c*%
M02*
