%TF.GenerationSoftware,Altium Limited,Altium Designer,24.4.1 (13)*%
G04 Layer_Color=8388736*
%FSLAX45Y45*%
%MOMM*%
%TF.SameCoordinates,8A7C2A8E-E69E-4B29-94BC-9739BFB7EBFE*%
%TF.FilePolarity,Negative*%
%TF.FileFunction,Soldermask,Top*%
%TF.Part,Single*%
G01*
G75*
%TA.AperFunction,ComponentPad*%
%ADD22C,0.20320*%
%TA.AperFunction,ViaPad*%
%ADD23C,1.21920*%
D22*
X8255000Y3784600D02*
D03*
X8001000D02*
D03*
X7747000D02*
D03*
X7493000D02*
D03*
X7747000Y5181600D02*
D03*
X8001000D02*
D03*
X8458200Y8674100D02*
D03*
X8102600D02*
D03*
X7747000D02*
D03*
X9956800Y9017000D02*
D03*
X9525000D02*
D03*
X9169400D02*
D03*
X8813800D02*
D03*
X7315200Y8674100D02*
D03*
Y9385300D02*
D03*
X7747000D02*
D03*
X8102600D02*
D03*
X8458200D02*
D03*
X9956800Y8674100D02*
D03*
X9525000D02*
D03*
X8458200Y9017000D02*
D03*
X8102600D02*
D03*
X7747000D02*
D03*
X8813800Y9385300D02*
D03*
X9169400D02*
D03*
X9525000D02*
D03*
X9956800D02*
D03*
X7315200Y9017000D02*
D03*
X8813800Y8674100D02*
D03*
X9169400D02*
D03*
X10883900Y6781800D02*
D03*
Y6527800D02*
D03*
X12280900Y6273800D02*
D03*
Y6527800D02*
D03*
Y6781800D02*
D03*
Y7035800D02*
D03*
D23*
X7112000Y1524000D02*
D03*
X16510001D02*
D03*
X7112000Y12446000D02*
D03*
X16510001D02*
D03*
%TF.MD5,fd3c80ee61a8725897a4c392ff66b939*%
M02*
