%TF.GenerationSoftware,Altium Limited,Altium Designer,24.4.1 (13)*%
G04 Layer_Color=0*
%FSLAX45Y45*%
%MOMM*%
%TF.SameCoordinates,8A7C2A8E-E69E-4B29-94BC-9739BFB7EBFE*%
%TF.FilePolarity,Positive*%
%TF.FileFunction,Plated,1,2,PTH,Drill*%
%TF.Part,Single*%
G01*
G75*
%TA.AperFunction,ComponentDrill*%
%ADD28C,0.76200*%
%ADD29C,0.65000*%
%TA.AperFunction,OtherDrill,Pad Free-2 (71.12mm,15.24mm)*%
%ADD30C,4.00000*%
%TA.AperFunction,ComponentDrill*%
%ADD31C,1.02000*%
%TA.AperFunction,OtherDrill,Pad Free-2 (165.1mm,15.24mm)*%
%ADD32C,4.00000*%
%TA.AperFunction,OtherDrill,Pad Free-2 (71.12mm,124.46mm)*%
%ADD33C,4.00000*%
%TA.AperFunction,OtherDrill,Pad Free-2 (165.1mm,124.46mm)*%
%ADD34C,4.00000*%
%TA.AperFunction,ComponentDrill*%
%ADD35C,1.01600*%
%ADD36C,0.76200*%
D28*
X8255000Y3784600D02*
D03*
X8001000D02*
D03*
X7747000D02*
D03*
X7493000D02*
D03*
X7747000Y5181600D02*
D03*
X8001000D02*
D03*
D29*
X10919501Y11379200D02*
D03*
X11686499D02*
D03*
X11686499Y10820400D02*
D03*
X10919500D02*
D03*
X11688999Y10439400D02*
D03*
X10922000D02*
D03*
X8989101Y11645900D02*
D03*
X9756100D02*
D03*
X13604199Y5842000D02*
D03*
X12837201D02*
D03*
X12875301Y5232400D02*
D03*
X13642299D02*
D03*
X9629100Y11087100D02*
D03*
X8862101D02*
D03*
X8646201Y12077700D02*
D03*
X9413199D02*
D03*
D30*
X7112000Y1524000D02*
D03*
D31*
X11201400Y8242300D02*
D03*
X11455400D02*
D03*
X11709400D02*
D03*
X11963400D02*
D03*
X12217400D02*
D03*
X12471400D02*
D03*
X12725400D02*
D03*
X12979401D02*
D03*
X13233400D02*
D03*
X13487399D02*
D03*
X13741400D02*
D03*
X13995399D02*
D03*
X14249400D02*
D03*
X14503400D02*
D03*
X16789400Y9766300D02*
D03*
X16535400D02*
D03*
X16281400D02*
D03*
X16027400D02*
D03*
X15773399D02*
D03*
X15519400D02*
D03*
X15265401D02*
D03*
X15011400D02*
D03*
X14757401D02*
D03*
X10947400D02*
D03*
X11201400D02*
D03*
X11455400D02*
D03*
X14503400D02*
D03*
X14249400D02*
D03*
X13995399D02*
D03*
X13741400D02*
D03*
X13487399D02*
D03*
X13233400D02*
D03*
X12979401D02*
D03*
X12725400D02*
D03*
X12471400D02*
D03*
X12217400D02*
D03*
X11963400D02*
D03*
X11709400D02*
D03*
X10947400Y8242300D02*
D03*
X14757401D02*
D03*
X15011400D02*
D03*
X15265401D02*
D03*
X15519400D02*
D03*
X15773399D02*
D03*
X16027400D02*
D03*
X16281400D02*
D03*
X16535400D02*
D03*
X16789400D02*
D03*
X11176000Y2578100D02*
D03*
X11430000D02*
D03*
X11684000D02*
D03*
X11938000D02*
D03*
X12192000D02*
D03*
X12446000D02*
D03*
X12700000D02*
D03*
X12953999D02*
D03*
X13208000D02*
D03*
X13462000D02*
D03*
X13716000D02*
D03*
X13970000D02*
D03*
X14224001D02*
D03*
X14478000D02*
D03*
X16764000Y4102100D02*
D03*
X16510001D02*
D03*
X16256000D02*
D03*
X16002000D02*
D03*
X15748000D02*
D03*
X15494000D02*
D03*
X15239999D02*
D03*
X14986000D02*
D03*
X14732001D02*
D03*
X10922000D02*
D03*
X11176000D02*
D03*
X11430000D02*
D03*
X14478000D02*
D03*
X14224001D02*
D03*
X13970000D02*
D03*
X13716000D02*
D03*
X16764000Y2578100D02*
D03*
X16510001D02*
D03*
X16256000D02*
D03*
X16002000D02*
D03*
X10922000D02*
D03*
X15239999D02*
D03*
X12192000Y4102100D02*
D03*
X14732001Y2578100D02*
D03*
X12700000Y4102100D02*
D03*
X11938000D02*
D03*
X15494000Y2578100D02*
D03*
X13462000Y4102100D02*
D03*
X12446000D02*
D03*
X14986000Y2578100D02*
D03*
X13208000Y4102100D02*
D03*
X12953999D02*
D03*
X11684000D02*
D03*
X15748000Y2578100D02*
D03*
D32*
X16510001Y1524000D02*
D03*
D33*
X7112000Y12446000D02*
D03*
D34*
X16510001D02*
D03*
D35*
X8458200Y8674100D02*
D03*
X8102600D02*
D03*
X7747000D02*
D03*
X9956800Y9017000D02*
D03*
X9525000D02*
D03*
X9169400D02*
D03*
X8813800D02*
D03*
X7315200Y8674100D02*
D03*
Y9385300D02*
D03*
X7747000D02*
D03*
X8102600D02*
D03*
X8458200D02*
D03*
X9956800Y8674100D02*
D03*
X9525000D02*
D03*
X8458200Y9017000D02*
D03*
X8102600D02*
D03*
X7747000D02*
D03*
X8813800Y9385300D02*
D03*
X9169400D02*
D03*
X9525000D02*
D03*
X9956800D02*
D03*
X7315200Y9017000D02*
D03*
X8813800Y8674100D02*
D03*
X9169400D02*
D03*
D36*
X10883900Y6781800D02*
D03*
Y6527800D02*
D03*
X12280900Y6273800D02*
D03*
Y6527800D02*
D03*
Y6781800D02*
D03*
Y7035800D02*
D03*
%TF.MD5,0bfb75e3832156bcb4f3e69a51469cb3*%
M02*
