%TF.GenerationSoftware,Altium Limited,Altium Designer,24.4.1 (13)*%
G04 Layer_Color=16711935*
%FSLAX45Y45*%
%MOMM*%
%TF.SameCoordinates,8A7C2A8E-E69E-4B29-94BC-9739BFB7EBFE*%
%TF.FilePolarity,Negative*%
%TF.FileFunction,Soldermask,Bot*%
%TF.Part,Single*%
G01*
G75*
%TA.AperFunction,ComponentPad*%
%ADD13R,2.03200X2.03200*%
%ADD14C,2.03200*%
%ADD15R,2.03200X5.08000*%
%ADD16O,2.03200X5.08000*%
%ADD22C,0.20320*%
%TA.AperFunction,ViaPad*%
%ADD23C,1.21920*%
%TA.AperFunction,ComponentPad*%
%ADD24O,2.10820X5.28320*%
%ADD25O,2.74320X5.28320*%
%ADD26O,5.28320X2.10820*%
D13*
X10919501Y11379200D02*
D03*
X11686499Y10820400D02*
D03*
X11688999Y10439400D02*
D03*
X8989101Y11645900D02*
D03*
X12837201Y5842000D02*
D03*
X13642299Y5232400D02*
D03*
X8862101Y11087100D02*
D03*
X9413199Y12077700D02*
D03*
D14*
X11686499Y11379200D02*
D03*
X10919500Y10820400D02*
D03*
X10922000Y10439400D02*
D03*
X9756100Y11645900D02*
D03*
X13604199Y5842000D02*
D03*
X12875301Y5232400D02*
D03*
X9629100Y11087100D02*
D03*
X8646201Y12077700D02*
D03*
D15*
X11201400Y8242300D02*
D03*
X11176000Y2578100D02*
D03*
D16*
X11455400Y8242300D02*
D03*
X11709400D02*
D03*
X11963400D02*
D03*
X12217400D02*
D03*
X12471400D02*
D03*
X12725400D02*
D03*
X12979401D02*
D03*
X13233400D02*
D03*
X13487399D02*
D03*
X13741400D02*
D03*
X13995399D02*
D03*
X14249400D02*
D03*
X14503400D02*
D03*
X16789400Y9766300D02*
D03*
X16535400D02*
D03*
X16281400D02*
D03*
X16027400D02*
D03*
X15773399D02*
D03*
X15519400D02*
D03*
X15265401D02*
D03*
X15011400D02*
D03*
X14757401D02*
D03*
X10947400D02*
D03*
X11201400D02*
D03*
X11455400D02*
D03*
X14503400D02*
D03*
X14249400D02*
D03*
X13995399D02*
D03*
X13741400D02*
D03*
X13487399D02*
D03*
X13233400D02*
D03*
X12979401D02*
D03*
X12725400D02*
D03*
X12471400D02*
D03*
X12217400D02*
D03*
X11963400D02*
D03*
X11709400D02*
D03*
X10947400Y8242300D02*
D03*
X14757401D02*
D03*
X15011400D02*
D03*
X15265401D02*
D03*
X15519400D02*
D03*
X15773399D02*
D03*
X16027400D02*
D03*
X16281400D02*
D03*
X16535400D02*
D03*
X16789400D02*
D03*
X11430000Y2578100D02*
D03*
X11684000D02*
D03*
X11938000D02*
D03*
X12192000D02*
D03*
X12446000D02*
D03*
X12700000D02*
D03*
X12953999D02*
D03*
X13208000D02*
D03*
X13462000D02*
D03*
X13716000D02*
D03*
X13970000D02*
D03*
X14224001D02*
D03*
X14478000D02*
D03*
X16764000Y4102100D02*
D03*
X16510001D02*
D03*
X16256000D02*
D03*
X16002000D02*
D03*
X15748000D02*
D03*
X15494000D02*
D03*
X15239999D02*
D03*
X14986000D02*
D03*
X14732001D02*
D03*
X10922000D02*
D03*
X11176000D02*
D03*
X11430000D02*
D03*
X14478000D02*
D03*
X14224001D02*
D03*
X13970000D02*
D03*
X13716000D02*
D03*
X16764000Y2578100D02*
D03*
X16510001D02*
D03*
X16256000D02*
D03*
X16002000D02*
D03*
X10922000D02*
D03*
X15239999D02*
D03*
X12192000Y4102100D02*
D03*
X14732001Y2578100D02*
D03*
X12700000Y4102100D02*
D03*
X11938000D02*
D03*
X15494000Y2578100D02*
D03*
X13462000Y4102100D02*
D03*
X12446000D02*
D03*
X14986000Y2578100D02*
D03*
X13208000Y4102100D02*
D03*
X12953999D02*
D03*
X11684000D02*
D03*
X15748000Y2578100D02*
D03*
D22*
X9956800Y9017000D02*
D03*
X9525000D02*
D03*
X9169400D02*
D03*
X8813800D02*
D03*
X8458200D02*
D03*
X8102600D02*
D03*
X7747000D02*
D03*
X7315200D02*
D03*
D23*
X7112000Y1524000D02*
D03*
X16510001D02*
D03*
X7112000Y12446000D02*
D03*
X16510001D02*
D03*
D24*
X8255000Y3784600D02*
D03*
X8001000D02*
D03*
X7747000D02*
D03*
X7493000D02*
D03*
X7747000Y5181600D02*
D03*
X8001000D02*
D03*
D25*
X8458200Y8674100D02*
D03*
X8102600D02*
D03*
X7747000D02*
D03*
X7315200D02*
D03*
Y9385300D02*
D03*
X7747000D02*
D03*
X8102600D02*
D03*
X8458200D02*
D03*
X9956800Y8674100D02*
D03*
X9525000D02*
D03*
X8813800Y9385300D02*
D03*
X9169400D02*
D03*
X9525000D02*
D03*
X9956800D02*
D03*
X8813800Y8674100D02*
D03*
X9169400D02*
D03*
D26*
X10883900Y6781800D02*
D03*
Y6527800D02*
D03*
X12280900Y6273800D02*
D03*
Y6527800D02*
D03*
Y6781800D02*
D03*
Y7035800D02*
D03*
%TF.MD5,7420878a62f73fd5208014fcdcd36bda*%
M02*
