%TF.GenerationSoftware,Altium Limited,Altium Designer,25.1.2 (22)*%
G04 Layer_Color=0*
%FSLAX45Y45*%
%MOMM*%
%TF.SameCoordinates,757FA7A9-4291-4AF8-8684-A19F9D108C22*%
%TF.FilePolarity,Positive*%
%TF.FileFunction,Plated,1,2,PTH,Drill*%
%TF.Part,Single*%
G01*
G75*
%TA.AperFunction,ComponentDrill*%
%ADD43C,1.02000*%
%ADD44C,1.02000*%
%ADD45C,1.00000*%
%ADD46C,2.50000*%
%ADD47C,0.76200*%
%ADD48C,0.90000*%
%TA.AperFunction,OtherDrill,Pad Free-9 (137.16mm,25.908mm)*%
%ADD49C,3.00000*%
%TA.AperFunction,OtherDrill,Pad Free-9 (137.16mm,70.485mm)*%
%ADD50C,3.00000*%
%TA.AperFunction,ComponentDrill*%
%ADD51C,1.76000*%
%TA.AperFunction,OtherDrill,Pad Free-9 (28.956mm,70.612mm)*%
%ADD52C,3.00000*%
%TA.AperFunction,OtherDrill,Pad Free-9 (28.956mm,25.908mm)*%
%ADD53C,3.00000*%
%TA.AperFunction,ViaDrill,NotFilled*%
%ADD54C,0.71120*%
D43*
X11899900Y2908300D02*
D03*
Y3162300D02*
D03*
Y3416300D02*
D03*
Y3670300D02*
D03*
Y3924300D02*
D03*
Y4178300D02*
D03*
Y4432300D02*
D03*
Y4686300D02*
D03*
Y4940300D02*
D03*
Y5194300D02*
D03*
Y5448300D02*
D03*
Y5702300D02*
D03*
Y5956300D02*
D03*
Y6210300D02*
D03*
X13423900Y2908300D02*
D03*
Y3162300D02*
D03*
Y3416300D02*
D03*
Y3670300D02*
D03*
Y3924300D02*
D03*
Y4178300D02*
D03*
Y4432300D02*
D03*
Y4686300D02*
D03*
Y4940300D02*
D03*
Y5194300D02*
D03*
Y5448300D02*
D03*
Y5702300D02*
D03*
Y5956300D02*
D03*
Y6210300D02*
D03*
X12153900Y2908300D02*
D03*
X12407900D02*
D03*
X12661900D02*
D03*
X12915900D02*
D03*
X13169901D02*
D03*
D44*
X11163300Y4191000D02*
D03*
Y4445000D02*
D03*
Y4699000D02*
D03*
Y4953000D02*
D03*
Y5207000D02*
D03*
Y5461000D02*
D03*
Y5715000D02*
D03*
Y5969000D02*
D03*
Y6223000D02*
D03*
Y6477000D02*
D03*
D45*
X7594600Y3187700D02*
D03*
Y3441700D02*
D03*
Y3695700D02*
D03*
Y3949700D02*
D03*
Y4203700D02*
D03*
Y4457700D02*
D03*
X5816600Y3187700D02*
D03*
Y3441700D02*
D03*
Y3695700D02*
D03*
Y3949700D02*
D03*
Y4203700D02*
D03*
Y4457700D02*
D03*
D46*
Y2806700D02*
D03*
Y4838700D02*
D03*
X7594600Y2806700D02*
D03*
Y4838700D02*
D03*
D47*
X10287000Y3644900D02*
D03*
Y3390900D02*
D03*
Y3136900D02*
D03*
Y2882900D02*
D03*
X8890000Y3136900D02*
D03*
Y3390900D02*
D03*
D48*
X5905500Y5511800D02*
D03*
Y5761800D02*
D03*
Y6011800D02*
D03*
Y6261800D02*
D03*
D49*
X13716000Y2590800D02*
D03*
D50*
Y7048500D02*
D03*
D51*
X4940700Y4705100D02*
D03*
Y5150100D02*
D03*
X4305700Y4705100D02*
D03*
Y5150100D02*
D03*
D52*
X2895600Y7061200D02*
D03*
D53*
Y2590800D02*
D03*
D54*
X13004800Y4826000D02*
D03*
X11531600Y6667500D02*
D03*
%TF.MD5,2f42fa0bd745bc5254026a96dd950825*%
M02*
