%TF.GenerationSoftware,Altium Limited,Altium Designer,25.1.2 (22)*%
G04 Layer_Color=65535*
%FSLAX45Y45*%
%MOMM*%
%TF.SameCoordinates,757FA7A9-4291-4AF8-8684-A19F9D108C22*%
%TF.FilePolarity,Positive*%
%TF.FileFunction,Legend,Top*%
%TF.Part,Single*%
G01*
G75*
%TA.AperFunction,NonConductor*%
%ADD24C,0.25000*%
%ADD25C,0.12700*%
%ADD26C,0.20000*%
%ADD27C,0.50000*%
%ADD28C,0.15240*%
%ADD29C,0.25400*%
G36*
X8275589Y7184929D02*
X8308494D01*
Y7181273D01*
X8323118D01*
Y7177617D01*
X8334086D01*
Y7173961D01*
X8341399D01*
Y7170304D01*
X8352367D01*
Y7166648D01*
X8359679D01*
Y7162992D01*
X8366991D01*
Y7159336D01*
X8370647D01*
Y7155680D01*
X8377959D01*
Y7152024D01*
X8381615D01*
Y7148368D01*
X8388927D01*
Y7144712D01*
X8392583D01*
Y7141056D01*
X8396239D01*
Y7137400D01*
X8399896D01*
Y7130088D01*
X8403552D01*
Y7126432D01*
X8407208D01*
Y7122776D01*
X8410864D01*
Y7119120D01*
X8407208D01*
Y7115464D01*
X8403552D01*
Y7111807D01*
X8399896D01*
Y7108151D01*
X8396239D01*
Y7104495D01*
X8392583D01*
Y7100839D01*
X8388927D01*
Y7097183D01*
X8385271D01*
Y7093527D01*
X8381615D01*
Y7089871D01*
X8377959D01*
Y7086215D01*
X8374303D01*
Y7082559D01*
X8366991D01*
Y7086215D01*
X8363335D01*
Y7089871D01*
X8356023D01*
Y7093527D01*
X8352367D01*
Y7097183D01*
X8348711D01*
Y7100839D01*
X8345055D01*
Y7104495D01*
X8337743D01*
Y7108151D01*
X8330430D01*
Y7111807D01*
X8326774D01*
Y7115464D01*
X8315806D01*
Y7119120D01*
X8308494D01*
Y7122776D01*
X8290214D01*
Y7126432D01*
X8246341D01*
Y7122776D01*
X8228061D01*
Y7119120D01*
X8220749D01*
Y7115464D01*
X8213436D01*
Y7111807D01*
X8206124D01*
Y7108151D01*
X8202468D01*
Y7104495D01*
X8198812D01*
Y7100839D01*
X8191500D01*
Y7097183D01*
X8187844D01*
Y7093527D01*
X8184188D01*
Y7089871D01*
X8180532D01*
Y7086215D01*
X8176876D01*
Y7078903D01*
X8173220D01*
Y7075247D01*
X8169564D01*
Y7067935D01*
X8165908D01*
Y7060623D01*
X8162252D01*
Y7049654D01*
X8158596D01*
Y7027718D01*
X8154939D01*
Y7005782D01*
X8158596D01*
Y6983845D01*
X8162252D01*
Y6972877D01*
X8165908D01*
Y6965565D01*
X8169564D01*
Y6958253D01*
X8173220D01*
Y6950941D01*
X8176876D01*
Y6947285D01*
X8180532D01*
Y6943629D01*
X8184188D01*
Y6939973D01*
X8187844D01*
Y6936317D01*
X8191500D01*
Y6932661D01*
X8195156D01*
Y6929004D01*
X8198812D01*
Y6925348D01*
X8206124D01*
Y6921692D01*
X8209780D01*
Y6918036D01*
X8217093D01*
Y6914380D01*
X8228061D01*
Y6910724D01*
X8239029D01*
Y6907068D01*
X8297526D01*
Y6910724D01*
X8312150D01*
Y6914380D01*
X8323118D01*
Y6918036D01*
X8326774D01*
Y6921692D01*
X8334086D01*
Y6925348D01*
X8341399D01*
Y6929004D01*
X8345055D01*
Y6932661D01*
X8348711D01*
Y6936317D01*
X8352367D01*
Y6939973D01*
X8359679D01*
Y6943629D01*
X8363335D01*
Y6947285D01*
X8366991D01*
Y6950941D01*
X8370647D01*
Y6947285D01*
X8374303D01*
Y6943629D01*
X8377959D01*
Y6939973D01*
X8381615D01*
Y6936317D01*
X8385271D01*
Y6932661D01*
X8388927D01*
Y6929004D01*
X8392583D01*
Y6925348D01*
X8396239D01*
Y6921692D01*
X8399896D01*
Y6918036D01*
X8403552D01*
Y6914380D01*
X8407208D01*
Y6903412D01*
X8403552D01*
Y6899756D01*
X8399896D01*
Y6896100D01*
X8396239D01*
Y6892444D01*
X8388927D01*
Y6888788D01*
X8385271D01*
Y6885132D01*
X8381615D01*
Y6881476D01*
X8377959D01*
Y6877820D01*
X8374303D01*
Y6874164D01*
X8366991D01*
Y6870507D01*
X8363335D01*
Y6866851D01*
X8352367D01*
Y6863195D01*
X8348711D01*
Y6859539D01*
X8337743D01*
Y6855883D01*
X8326774D01*
Y6852227D01*
X8312150D01*
Y6848571D01*
X8290214D01*
Y6844915D01*
X8246341D01*
Y6848571D01*
X8224405D01*
Y6852227D01*
X8209780D01*
Y6855883D01*
X8198812D01*
Y6859539D01*
X8191500D01*
Y6863195D01*
X8184188D01*
Y6866851D01*
X8176876D01*
Y6870507D01*
X8169564D01*
Y6874164D01*
X8162252D01*
Y6877820D01*
X8158596D01*
Y6881476D01*
X8154939D01*
Y6885132D01*
X8151283D01*
Y6888788D01*
X8147627D01*
Y6892444D01*
X8143971D01*
Y6896100D01*
X8140315D01*
Y6899756D01*
X8136659D01*
Y6903412D01*
X8133003D01*
Y6907068D01*
X8129347D01*
Y6910724D01*
X8125691D01*
Y6918036D01*
X8122035D01*
Y6921692D01*
X8118379D01*
Y6925348D01*
X8114723D01*
Y6932661D01*
X8111067D01*
Y6939973D01*
X8107411D01*
Y6950941D01*
X8103755D01*
Y6961909D01*
X8100099D01*
Y6976533D01*
X8096443D01*
Y7005782D01*
X8092786D01*
Y7027718D01*
X8096443D01*
Y7056967D01*
X8100099D01*
Y7067935D01*
X8103755D01*
Y7082559D01*
X8107411D01*
Y7089871D01*
X8111067D01*
Y7097183D01*
X8114723D01*
Y7104495D01*
X8118379D01*
Y7108151D01*
X8122035D01*
Y7115464D01*
X8125691D01*
Y7119120D01*
X8129347D01*
Y7122776D01*
X8133003D01*
Y7126432D01*
X8136659D01*
Y7130088D01*
X8140315D01*
Y7137400D01*
X8143971D01*
Y7141056D01*
X8147627D01*
Y7144712D01*
X8151283D01*
Y7148368D01*
X8158596D01*
Y7152024D01*
X8162252D01*
Y7155680D01*
X8165908D01*
Y7159336D01*
X8173220D01*
Y7162992D01*
X8180532D01*
Y7166648D01*
X8187844D01*
Y7170304D01*
X8195156D01*
Y7173961D01*
X8206124D01*
Y7177617D01*
X8217093D01*
Y7181273D01*
X8228061D01*
Y7184929D01*
X8264621D01*
Y7188585D01*
X8275589D01*
Y7184929D01*
D02*
G37*
G36*
X9204229Y7188585D02*
X9200573D01*
Y7173961D01*
X9196917D01*
Y7159336D01*
X9193261D01*
Y7144712D01*
X9189605D01*
Y7130088D01*
X9185949D01*
Y7115464D01*
X9182293D01*
Y7100839D01*
X9178636D01*
Y7086215D01*
X9174980D01*
Y7067935D01*
X9171324D01*
Y7056967D01*
X9167668D01*
Y7042342D01*
X9164012D01*
Y7027718D01*
X9160356D01*
Y7013094D01*
X9156700D01*
Y6994814D01*
X9153044D01*
Y6980189D01*
X9149388D01*
Y6969221D01*
X9145732D01*
Y6954597D01*
X9142076D01*
Y6943629D01*
X9138420D01*
Y6929004D01*
X9134764D01*
Y6914380D01*
X9131108D01*
Y6899756D01*
X9127452D01*
Y6885132D01*
X9123796D01*
Y6866851D01*
X9120139D01*
Y6852227D01*
X9116483D01*
Y6841259D01*
X9112827D01*
Y6837603D01*
X9014114D01*
Y6848571D01*
X9010458D01*
Y6863195D01*
X9006802D01*
Y6877820D01*
X9003146D01*
Y6892444D01*
X8999489D01*
Y6907068D01*
X8995833D01*
Y6921692D01*
X8992177D01*
Y6936317D01*
X8988521D01*
Y6950941D01*
X8984865D01*
Y6965565D01*
X8981209D01*
Y6980189D01*
X8977553D01*
Y6994814D01*
X8973897D01*
Y7005782D01*
X8970241D01*
Y7024062D01*
X8966585D01*
Y7038686D01*
X8962929D01*
Y7045998D01*
X8959273D01*
Y7053311D01*
X8955617D01*
Y7042342D01*
X8951961D01*
Y7027718D01*
X8948305D01*
Y7016750D01*
X8944649D01*
Y6998470D01*
X8940993D01*
Y6983845D01*
X8937336D01*
Y6969221D01*
X8933680D01*
Y6954597D01*
X8930024D01*
Y6939973D01*
X8926368D01*
Y6925348D01*
X8922712D01*
Y6910724D01*
X8919056D01*
Y6896100D01*
X8915400D01*
Y6881476D01*
X8911744D01*
Y6863195D01*
X8908088D01*
Y6848571D01*
X8904432D01*
Y6837603D01*
X8805718D01*
Y6841259D01*
X8802062D01*
Y6855883D01*
X8798406D01*
Y6866851D01*
X8794750D01*
Y6885132D01*
X8791094D01*
Y6899756D01*
X8787438D01*
Y6914380D01*
X8783782D01*
Y6925348D01*
X8780126D01*
Y6936317D01*
X8776470D01*
Y6950941D01*
X8772814D01*
Y6965565D01*
X8769158D01*
Y6980189D01*
X8765502D01*
Y6994814D01*
X8761846D01*
Y7009438D01*
X8758189D01*
Y7024062D01*
X8754533D01*
Y7031374D01*
Y7035030D01*
Y7038686D01*
X8750877D01*
Y7056967D01*
X8747221D01*
Y7067935D01*
X8743565D01*
Y7086215D01*
X8739909D01*
Y7100839D01*
X8736253D01*
Y7111807D01*
X8732597D01*
Y7130088D01*
X8728941D01*
Y7144712D01*
X8725285D01*
Y7159336D01*
X8721629D01*
Y7166648D01*
X8717973D01*
Y7181273D01*
X8714317D01*
Y7195897D01*
X8805718D01*
Y7192241D01*
X8809374D01*
Y7173961D01*
X8813030D01*
Y7155680D01*
X8816686D01*
Y7137400D01*
X8820343D01*
Y7119120D01*
X8823999D01*
Y7100839D01*
X8827655D01*
Y7082559D01*
X8831311D01*
Y7064279D01*
X8834967D01*
Y7045998D01*
X8838623D01*
Y7027718D01*
X8842279D01*
Y7016750D01*
X8845935D01*
Y6998470D01*
X8849591D01*
Y6980189D01*
X8853247D01*
Y6961909D01*
X8856903D01*
Y6965565D01*
X8860559D01*
Y6980189D01*
X8864215D01*
Y6994814D01*
X8867871D01*
Y7009438D01*
X8871527D01*
Y7024062D01*
X8875183D01*
Y7038686D01*
X8878839D01*
Y7053311D01*
X8882496D01*
Y7071591D01*
X8886152D01*
Y7086215D01*
X8889808D01*
Y7100839D01*
X8893464D01*
Y7115464D01*
X8897120D01*
Y7130088D01*
X8900776D01*
Y7141056D01*
X8904432D01*
Y7155680D01*
X8908088D01*
Y7166648D01*
X8911744D01*
Y7181273D01*
X8915400D01*
Y7195897D01*
X9003146D01*
Y7192241D01*
X9006802D01*
Y7177617D01*
X9010458D01*
Y7162992D01*
X9014114D01*
Y7148368D01*
X9017770D01*
Y7130088D01*
X9021426D01*
Y7119120D01*
X9025082D01*
Y7104495D01*
X9028738D01*
Y7089871D01*
X9032394D01*
Y7075247D01*
X9036050D01*
Y7056967D01*
X9039706D01*
Y7042342D01*
X9043362D01*
Y7027718D01*
X9047018D01*
Y7013094D01*
X9050674D01*
Y6994814D01*
X9054330D01*
Y6980189D01*
X9057986D01*
Y6965565D01*
X9061643D01*
Y6961909D01*
X9065299D01*
Y6980189D01*
X9068955D01*
Y6998470D01*
X9072611D01*
Y7013094D01*
X9076267D01*
Y7031374D01*
X9079923D01*
Y7049654D01*
X9083579D01*
Y7060623D01*
X9087235D01*
Y7078903D01*
X9090891D01*
Y7093527D01*
X9094547D01*
Y7111807D01*
X9098203D01*
Y7130088D01*
X9101859D01*
Y7148368D01*
X9105515D01*
Y7162992D01*
X9109171D01*
Y7181273D01*
X9112827D01*
Y7195897D01*
X9204229D01*
Y7188585D01*
D02*
G37*
G36*
X9716077Y7097183D02*
X9712421D01*
Y7086215D01*
X9708765D01*
Y7075247D01*
X9705109D01*
Y7064279D01*
X9701453D01*
Y7053311D01*
X9697797D01*
Y7045998D01*
X9694141D01*
Y7035030D01*
X9690485D01*
Y7024062D01*
X9686829D01*
Y7016750D01*
X9683173D01*
Y7005782D01*
X9679517D01*
Y6998470D01*
X9675861D01*
Y6987501D01*
X9672205D01*
Y6976533D01*
X9668549D01*
Y6965565D01*
X9664893D01*
Y6958253D01*
X9661236D01*
Y6947285D01*
X9657580D01*
Y6936317D01*
X9653924D01*
Y6925348D01*
X9650268D01*
Y6914380D01*
X9646612D01*
Y6907068D01*
X9642956D01*
Y6896100D01*
X9639300D01*
Y6885132D01*
X9635644D01*
Y6874164D01*
X9631988D01*
Y6866851D01*
X9628332D01*
Y6855883D01*
X9624676D01*
Y6848571D01*
X9621020D01*
Y6841259D01*
X9617364D01*
Y6830291D01*
X9613708D01*
Y6819323D01*
X9610052D01*
Y6808354D01*
X9606396D01*
Y6797386D01*
X9602739D01*
Y6790074D01*
X9599083D01*
Y6775450D01*
X9621020D01*
Y6771794D01*
X9650268D01*
Y6768138D01*
X9679517D01*
Y6764482D01*
X9712421D01*
Y6760826D01*
X9745326D01*
Y6757170D01*
X9741670D01*
Y6753514D01*
X9738014D01*
Y6749857D01*
X9723389D01*
Y6753514D01*
X9683173D01*
Y6757170D01*
X9653924D01*
Y6760826D01*
X9613708D01*
Y6764482D01*
X9610052D01*
Y6760826D01*
X9602739D01*
Y6764482D01*
X9591771D01*
Y6760826D01*
X9588115D01*
Y6746201D01*
X9584459D01*
Y6738889D01*
X9493058D01*
Y6746201D01*
X9496714D01*
Y6757170D01*
X9500370D01*
Y6764482D01*
X9504026D01*
Y6771794D01*
X9482089D01*
Y6775450D01*
X9434561D01*
Y6779106D01*
X9394344D01*
Y6782762D01*
X9346815D01*
Y6786418D01*
X9273694D01*
Y6790074D01*
X9160356D01*
Y6793730D01*
X9065299D01*
Y6790074D01*
X8933680D01*
Y6786418D01*
X8838623D01*
Y6782762D01*
X8783782D01*
Y6779106D01*
X8736253D01*
Y6775450D01*
X8677756D01*
Y6771794D01*
X8633883D01*
Y6768138D01*
X8597323D01*
Y6764482D01*
X8557106D01*
Y6760826D01*
X8513233D01*
Y6757170D01*
X8494953D01*
Y6753514D01*
X8465705D01*
Y6749857D01*
X8429144D01*
Y6746201D01*
X8396239D01*
Y6742545D01*
X8374303D01*
Y6738889D01*
X8341399D01*
Y6735233D01*
X8308494D01*
Y6731577D01*
X8286558D01*
Y6727921D01*
X8260965D01*
Y6724265D01*
X8231717D01*
Y6720609D01*
X8209780D01*
Y6716953D01*
X8187844D01*
Y6713297D01*
X8162252D01*
Y6709641D01*
X8136659D01*
Y6705985D01*
X8114723D01*
Y6702329D01*
X8092786D01*
Y6698673D01*
X8067194D01*
Y6695017D01*
X8045258D01*
Y6691361D01*
X8034289D01*
Y6687704D01*
X8008697D01*
Y6684048D01*
X7986761D01*
Y6680392D01*
X7968480D01*
Y6676736D01*
X7946544D01*
Y6673080D01*
X7924608D01*
Y6669424D01*
X7906327D01*
Y6665768D01*
X7891703D01*
Y6662112D01*
X7866111D01*
Y6658456D01*
X7847830D01*
Y6654800D01*
X7829550D01*
Y6651144D01*
X7803958D01*
Y6647488D01*
X7789333D01*
Y6643832D01*
X7774709D01*
Y6654800D01*
X7778365D01*
Y6673080D01*
X7782021D01*
Y6687704D01*
X7785677D01*
Y6691361D01*
X7792989D01*
Y6695017D01*
X7811270D01*
Y6698673D01*
X7829550D01*
Y6702329D01*
X7855143D01*
Y6705985D01*
X7873423D01*
Y6709641D01*
X7891703D01*
Y6713297D01*
X7917296D01*
Y6716953D01*
X7942888D01*
Y6720609D01*
X7961168D01*
Y6724265D01*
X7986761D01*
Y6727921D01*
X8012353D01*
Y6731577D01*
X8034289D01*
Y6735233D01*
X8056226D01*
Y6738889D01*
X8085474D01*
Y6742545D01*
X8111067D01*
Y6746201D01*
X8136659D01*
Y6749857D01*
X8162252D01*
Y6753514D01*
X8184188D01*
Y6757170D01*
X8209780D01*
Y6760826D01*
X8239029D01*
Y6764482D01*
X8275589D01*
Y6768138D01*
X8301182D01*
Y6771794D01*
X8304838D01*
Y6768138D01*
X8308494D01*
Y6771794D01*
X8334086D01*
Y6775450D01*
X8377959D01*
Y6779106D01*
X8414520D01*
Y6782762D01*
X8451080D01*
Y6786418D01*
X8487641D01*
Y6790074D01*
X8538826D01*
Y6793730D01*
X8586355D01*
Y6797386D01*
X8633883D01*
Y6801042D01*
X8703349D01*
Y6804698D01*
X8776470D01*
Y6808354D01*
X8886152D01*
Y6812011D01*
X9094547D01*
Y6808354D01*
X9189605D01*
Y6804698D01*
X9193261D01*
Y6808354D01*
X9200573D01*
Y6804698D01*
X9277350D01*
Y6801042D01*
X9343159D01*
Y6797386D01*
X9387032D01*
Y6793730D01*
X9427249D01*
Y6790074D01*
X9478433D01*
Y6786418D01*
X9511338D01*
Y6790074D01*
X9514994D01*
Y6801042D01*
X9518650D01*
Y6812011D01*
X9522306D01*
Y6819323D01*
X9525962D01*
Y6830291D01*
X9529618D01*
Y6837603D01*
X9533274D01*
Y6848571D01*
X9529618D01*
Y6859539D01*
X9525962D01*
Y6866851D01*
X9522306D01*
Y6877820D01*
X9518650D01*
Y6888788D01*
X9514994D01*
Y6899756D01*
X9511338D01*
Y6907068D01*
X9507682D01*
Y6918036D01*
X9504026D01*
Y6925348D01*
X9500370D01*
Y6936317D01*
X9496714D01*
Y6943629D01*
X9493058D01*
Y6954597D01*
X9489402D01*
Y6965565D01*
X9485746D01*
Y6976533D01*
X9482089D01*
Y6983845D01*
X9478433D01*
Y6994814D01*
X9474777D01*
Y7002126D01*
X9471121D01*
Y7013094D01*
X9467465D01*
Y7024062D01*
X9463809D01*
Y7035030D01*
X9460153D01*
Y7042342D01*
X9456497D01*
Y7053311D01*
X9452841D01*
Y7064279D01*
X9449185D01*
Y7075247D01*
X9445529D01*
Y7082559D01*
X9441873D01*
Y7089871D01*
X9438217D01*
Y7100839D01*
X9434561D01*
Y7108151D01*
X9522306D01*
Y7104495D01*
X9525962D01*
Y7093527D01*
X9529618D01*
Y7082559D01*
X9533274D01*
Y7067935D01*
X9536930D01*
Y7056967D01*
X9540586D01*
Y7045998D01*
X9544243D01*
Y7035030D01*
X9547899D01*
Y7024062D01*
X9551555D01*
Y7013094D01*
X9555211D01*
Y7002126D01*
X9558867D01*
Y6991157D01*
X9562523D01*
Y6980189D01*
X9566179D01*
Y6972877D01*
X9569835D01*
Y6961909D01*
X9573491D01*
Y6950941D01*
X9577147D01*
Y6943629D01*
X9580803D01*
Y6947285D01*
X9584459D01*
Y6961909D01*
X9588115D01*
Y6972877D01*
X9591771D01*
Y6983845D01*
X9595427D01*
Y6994814D01*
X9599083D01*
Y7005782D01*
X9602739D01*
Y7020406D01*
X9606396D01*
Y7031374D01*
X9610052D01*
Y7042342D01*
X9613708D01*
Y7053311D01*
X9617364D01*
Y7067935D01*
X9621020D01*
Y7078903D01*
X9624676D01*
Y7089871D01*
X9628332D01*
Y7097183D01*
X9631988D01*
Y7108151D01*
X9716077D01*
Y7097183D01*
D02*
G37*
G36*
X9335847Y7111807D02*
X9361439D01*
Y7108151D01*
X9376064D01*
Y7104495D01*
X9387032D01*
Y7100839D01*
X9394344D01*
Y7097183D01*
X9401656D01*
Y7093527D01*
X9405312D01*
Y7089871D01*
X9412624D01*
Y7086215D01*
X9416280D01*
Y7082559D01*
X9419936D01*
Y7078903D01*
X9423593D01*
Y7071591D01*
X9427249D01*
Y7064279D01*
X9430905D01*
Y7053311D01*
X9434561D01*
Y7035030D01*
X9438217D01*
Y6837603D01*
X9354127D01*
Y6844915D01*
Y6848571D01*
Y6863195D01*
X9350471D01*
Y6859539D01*
X9343159D01*
Y6855883D01*
X9339503D01*
Y6852227D01*
X9335847D01*
Y6848571D01*
X9328535D01*
Y6844915D01*
X9321223D01*
Y6841259D01*
X9313911D01*
Y6837603D01*
X9306599D01*
Y6833947D01*
X9291974D01*
Y6830291D01*
X9251758D01*
Y6833947D01*
X9237133D01*
Y6837603D01*
X9229821D01*
Y6841259D01*
X9222509D01*
Y6844915D01*
X9218853D01*
Y6848571D01*
X9215197D01*
Y6852227D01*
X9207885D01*
Y6855883D01*
X9204229D01*
Y6859539D01*
X9200573D01*
Y6866851D01*
X9196917D01*
Y6870507D01*
X9193261D01*
Y6877820D01*
X9189605D01*
Y6892444D01*
X9185949D01*
Y6939973D01*
X9189605D01*
Y6954597D01*
X9193261D01*
Y6961909D01*
X9196917D01*
Y6965565D01*
X9200573D01*
Y6972877D01*
X9207885D01*
Y6976533D01*
X9211541D01*
Y6980189D01*
X9215197D01*
Y6983845D01*
X9218853D01*
Y6987501D01*
X9226165D01*
Y6991157D01*
X9233477D01*
Y6994814D01*
X9240789D01*
Y6998470D01*
X9251758D01*
Y7002126D01*
X9266382D01*
Y7005782D01*
X9284662D01*
Y7009438D01*
X9306599D01*
Y7013094D01*
X9346815D01*
Y7016750D01*
X9354127D01*
Y7031374D01*
X9350471D01*
Y7038686D01*
X9346815D01*
Y7042342D01*
X9343159D01*
Y7045998D01*
X9339503D01*
Y7049654D01*
X9328535D01*
Y7053311D01*
X9302943D01*
Y7056967D01*
X9281006D01*
Y7053311D01*
X9259070D01*
Y7049654D01*
X9244446D01*
Y7045998D01*
X9233477D01*
Y7042342D01*
X9222509D01*
Y7038686D01*
X9215197D01*
Y7035030D01*
X9211541D01*
Y7038686D01*
X9207885D01*
Y7100839D01*
X9211541D01*
Y7104495D01*
X9226165D01*
Y7108151D01*
X9248102D01*
Y7111807D01*
X9277350D01*
Y7115464D01*
X9335847D01*
Y7111807D01*
D02*
G37*
G36*
X8571730Y7192241D02*
X8619259D01*
Y7188585D01*
X8633883D01*
Y7184929D01*
X8644852D01*
Y7181273D01*
X8652164D01*
Y7177617D01*
X8655820D01*
Y7173961D01*
X8663132D01*
Y7170304D01*
X8666788D01*
Y7166648D01*
X8670444D01*
Y7162992D01*
X8674100D01*
Y7159336D01*
X8677756D01*
Y7155680D01*
X8681412D01*
Y7148368D01*
X8685068D01*
Y7137400D01*
X8688724D01*
Y7119120D01*
X8692380D01*
Y7104495D01*
X8688724D01*
Y7086215D01*
X8685068D01*
Y7075247D01*
X8681412D01*
Y7067935D01*
X8677756D01*
Y7060623D01*
X8674100D01*
Y7056967D01*
X8670444D01*
Y7053311D01*
X8666788D01*
Y7049654D01*
X8663132D01*
Y7045998D01*
X8655820D01*
Y7042342D01*
X8652164D01*
Y7038686D01*
X8644852D01*
Y7031374D01*
X8655820D01*
Y7027718D01*
X8666788D01*
Y7024062D01*
X8674100D01*
Y7020406D01*
X8677756D01*
Y7016750D01*
X8685068D01*
Y7013094D01*
X8688724D01*
Y7009438D01*
X8692380D01*
Y7005782D01*
X8696036D01*
Y6998470D01*
X8699693D01*
Y6994814D01*
X8703349D01*
Y6983845D01*
X8707005D01*
Y6903412D01*
X8703349D01*
Y6896100D01*
X8699693D01*
Y6888788D01*
X8696036D01*
Y6885132D01*
X8692380D01*
Y6877820D01*
X8688724D01*
Y6874164D01*
X8685068D01*
Y6870507D01*
X8681412D01*
Y6866851D01*
X8677756D01*
Y6863195D01*
X8670444D01*
Y6859539D01*
X8666788D01*
Y6855883D01*
X8659476D01*
Y6852227D01*
X8652164D01*
Y6848571D01*
X8641196D01*
Y6844915D01*
X8630227D01*
Y6841259D01*
X8611947D01*
Y6837603D01*
X8429144D01*
Y7192241D01*
X8432800D01*
Y7195897D01*
X8571730D01*
Y7192241D01*
D02*
G37*
G36*
X7994073Y7184929D02*
X8012353D01*
Y7181273D01*
X8023321D01*
Y7177617D01*
X8030633D01*
Y7173961D01*
X8037946D01*
Y7170304D01*
X8041602D01*
Y7166648D01*
X8045258D01*
Y7162992D01*
X8048914D01*
Y7159336D01*
X8052570D01*
Y7155680D01*
X8056226D01*
Y7152024D01*
X8059882D01*
Y7148368D01*
X8063538D01*
Y7144712D01*
X8067194D01*
Y7137400D01*
X8070850D01*
Y7126432D01*
X8074506D01*
Y7115464D01*
X8078162D01*
Y7093527D01*
X8081818D01*
Y7067935D01*
X8078162D01*
Y7045998D01*
X8074506D01*
Y7035030D01*
X8070850D01*
Y7027718D01*
X8067194D01*
Y7020406D01*
X8063538D01*
Y7016750D01*
X8059882D01*
Y7009438D01*
X8056226D01*
Y7005782D01*
X8052570D01*
Y7002126D01*
X8048914D01*
Y6998470D01*
X8045258D01*
Y6994814D01*
X8037946D01*
Y6991157D01*
X8034289D01*
Y6987501D01*
X8026977D01*
Y6983845D01*
X8019665D01*
Y6980189D01*
X8012353D01*
Y6976533D01*
X7997729D01*
Y6972877D01*
X7950200D01*
Y6969221D01*
X7880735D01*
Y6837603D01*
X7811270D01*
Y6859539D01*
Y6863195D01*
Y7188585D01*
X7994073D01*
Y7184929D01*
D02*
G37*
G36*
X6982676Y7296851D02*
X7018733D01*
Y7294848D01*
X7020736D01*
Y7296851D01*
X7022740D01*
Y7294848D01*
X7048780D01*
Y7292845D01*
X7066809D01*
Y7290842D01*
X7080831D01*
Y7288839D01*
X7092850D01*
Y7286835D01*
X7108875D01*
Y7284832D01*
X7120894D01*
Y7282829D01*
X7132913D01*
Y7280826D01*
X7140926D01*
Y7278823D01*
X7148938D01*
Y7276820D01*
X7160957D01*
Y7274817D01*
X7168970D01*
Y7272813D01*
X7178985D01*
Y7270810D01*
X7184995D01*
Y7268807D01*
X7191004D01*
Y7266804D01*
X7201020D01*
Y7264801D01*
X7209033D01*
Y7262798D01*
X7215042D01*
Y7260794D01*
X7221052D01*
Y7258791D01*
X7229064D01*
Y7256788D01*
X7235074D01*
Y7254785D01*
X7241083D01*
Y7252782D01*
X7247093D01*
Y7250779D01*
X7251099D01*
Y7248775D01*
X7259112D01*
Y7246772D01*
X7265121D01*
Y7244769D01*
X7271131D01*
Y7242766D01*
X7275137D01*
Y7240763D01*
X7279143D01*
Y7238760D01*
X7285153D01*
Y7236757D01*
X7291162D01*
Y7234753D01*
X7297172D01*
Y7232750D01*
X7299175D01*
Y7230747D01*
X7305184D01*
Y7228744D01*
X7309191D01*
Y7226741D01*
X7315200D01*
Y7224738D01*
X7319206D01*
Y7222735D01*
X7323213D01*
Y7220731D01*
X7327219D01*
Y7218728D01*
X7333228D01*
Y7216725D01*
X7337235D01*
Y7214722D01*
X7339238D01*
Y7212719D01*
X7343244D01*
Y7210716D01*
X7349254D01*
Y7208712D01*
X7353260D01*
Y7206709D01*
X7357266D01*
Y7204706D01*
X7359270D01*
Y7202703D01*
X7363276D01*
Y7200700D01*
X7367282D01*
Y7198697D01*
X7371288D01*
Y7196694D01*
X7375295D01*
Y7194690D01*
X7377298D01*
Y7192687D01*
X7381304D01*
Y7190684D01*
X7385310D01*
Y7188681D01*
X7389317D01*
Y7186678D01*
X7391320D01*
Y7184674D01*
X7395326D01*
Y7182671D01*
X7397329D01*
Y7180668D01*
X7401336D01*
Y7178665D01*
X7405342D01*
Y7176662D01*
X7407345D01*
Y7174659D01*
X7409348D01*
Y7172656D01*
X7413354D01*
Y7170652D01*
X7415358D01*
Y7168649D01*
X7419364D01*
Y7166646D01*
X7421367D01*
Y7164643D01*
X7423370D01*
Y7162640D01*
X7427377D01*
Y7160637D01*
X7431383D01*
Y7158634D01*
X7433386D01*
Y7156630D01*
X7435389D01*
Y7154627D01*
X7437393D01*
Y7152624D01*
X7441399D01*
Y7150621D01*
X7443402D01*
Y7148618D01*
X7445405D01*
Y7146615D01*
X7447408D01*
Y7144612D01*
X7451415D01*
Y7142608D01*
X7453418D01*
Y7140605D01*
X7455421D01*
Y7138602D01*
X7457424D01*
Y7136599D01*
X7459427D01*
Y7134596D01*
X7463433D01*
Y7132593D01*
X7465437D01*
Y7130589D01*
X7467440D01*
Y7128586D01*
X7469443D01*
Y7126583D01*
X7471446D01*
Y7124580D01*
X7473449D01*
Y7122577D01*
X7475452D01*
Y7120574D01*
X7477455D01*
Y7118570D01*
X7479459D01*
Y7116567D01*
X7481462D01*
Y7114564D01*
X7483465D01*
Y7112561D01*
X7485468D01*
Y7110558D01*
X7487471D01*
Y7108555D01*
X7489474D01*
Y7106551D01*
X7491478D01*
Y7104548D01*
X7493481D01*
Y7102545D01*
X7495484D01*
Y7100542D01*
X7497487D01*
Y7098539D01*
X7499490D01*
Y7096536D01*
X7501494D01*
Y7094533D01*
X7503497D01*
Y7092529D01*
X7505500D01*
Y7090526D01*
X7507503D01*
Y7086520D01*
X7509506D01*
Y7084517D01*
X7511509D01*
Y7082514D01*
X7513512D01*
Y7080511D01*
X7515516D01*
Y7076504D01*
X7517519D01*
Y7074501D01*
X7519522D01*
Y7072498D01*
X7521525D01*
Y7068492D01*
X7523528D01*
Y7066489D01*
X7525531D01*
Y7064485D01*
X7527534D01*
Y7060479D01*
X7529538D01*
Y7058476D01*
X7531541D01*
Y7056473D01*
X7533544D01*
Y7052466D01*
X7535547D01*
Y7050463D01*
X7537550D01*
Y7046457D01*
X7539553D01*
Y7042450D01*
X7541556D01*
Y7038444D01*
X7543560D01*
Y7036441D01*
X7545563D01*
Y7032435D01*
X7547566D01*
Y7028428D01*
X7549569D01*
Y7024422D01*
X7551572D01*
Y7020416D01*
X7553575D01*
Y7016410D01*
X7555578D01*
Y7012403D01*
X7557582D01*
Y7006394D01*
X7559585D01*
Y7002388D01*
X7561588D01*
Y6998381D01*
X7563591D01*
Y6992372D01*
X7565594D01*
Y6986362D01*
X7567598D01*
Y6978350D01*
X7569601D01*
Y6972340D01*
X7571604D01*
Y6964327D01*
X7573607D01*
Y6956315D01*
X7575610D01*
Y6944296D01*
X7577613D01*
Y6924265D01*
X7579617D01*
Y6888208D01*
X7577613D01*
Y6868176D01*
X7575610D01*
Y6856157D01*
X7573607D01*
Y6846142D01*
X7571604D01*
Y6840132D01*
X7569601D01*
Y6834122D01*
X7567598D01*
Y6826110D01*
X7565594D01*
Y6820100D01*
X7563591D01*
Y6814091D01*
X7561588D01*
Y6810085D01*
X7559585D01*
Y6806078D01*
X7557582D01*
Y6800069D01*
X7555578D01*
Y6796063D01*
X7553575D01*
Y6792056D01*
X7551572D01*
Y6788050D01*
X7549569D01*
Y6784044D01*
X7547566D01*
Y6780037D01*
X7545563D01*
Y6776031D01*
X7543560D01*
Y6774028D01*
X7541556D01*
Y6770022D01*
X7539553D01*
Y6766015D01*
X7537550D01*
Y6764012D01*
X7535547D01*
Y6760006D01*
X7533544D01*
Y6755999D01*
X7531541D01*
Y6753996D01*
X7529538D01*
Y6751993D01*
X7527534D01*
Y6747987D01*
X7525531D01*
Y6745984D01*
X7523528D01*
Y6743980D01*
X7521525D01*
Y6739974D01*
X7519522D01*
Y6737971D01*
X7517519D01*
Y6735968D01*
X7515516D01*
Y6731962D01*
X7513512D01*
Y6729958D01*
X7511509D01*
Y6727955D01*
X7509506D01*
Y6725952D01*
X7507503D01*
Y6721946D01*
X7505500D01*
Y6719943D01*
X7503497D01*
Y6717940D01*
X7501494D01*
Y6715936D01*
X7499490D01*
Y6713933D01*
X7497487D01*
Y6711930D01*
X7495484D01*
Y6709927D01*
X7493481D01*
Y6707924D01*
X7491478D01*
Y6705921D01*
X7489474D01*
Y6703918D01*
X7487471D01*
Y6701914D01*
X7485468D01*
Y6699911D01*
X7483465D01*
Y6697908D01*
X7481462D01*
Y6695905D01*
X7479459D01*
Y6693902D01*
X7477455D01*
Y6691898D01*
X7475452D01*
Y6689895D01*
X7473449D01*
Y6687892D01*
X7471446D01*
Y6685889D01*
X7469443D01*
Y6683886D01*
X7467440D01*
Y6681883D01*
X7465437D01*
Y6679880D01*
X7461430D01*
Y6677876D01*
X7459427D01*
Y6675873D01*
X7457424D01*
Y6673870D01*
X7455421D01*
Y6671867D01*
X7453418D01*
Y6669864D01*
X7451415D01*
Y6667861D01*
X7447408D01*
Y6665858D01*
X7445405D01*
Y6663854D01*
X7443402D01*
Y6661851D01*
X7439396D01*
Y6659848D01*
X7437393D01*
Y6657845D01*
X7435389D01*
Y6655842D01*
X7433386D01*
Y6653839D01*
X7429380D01*
Y6651835D01*
X7427377D01*
Y6649832D01*
X7423370D01*
Y6647829D01*
X7421367D01*
Y6645826D01*
X7419364D01*
Y6643823D01*
X7415358D01*
Y6641820D01*
X7413354D01*
Y6639817D01*
X7409348D01*
Y6637813D01*
X7407345D01*
Y6635810D01*
X7403339D01*
Y6633807D01*
X7401336D01*
Y6631804D01*
X7397329D01*
Y6629801D01*
X7393323D01*
Y6627798D01*
X7391320D01*
Y6625794D01*
X7387314D01*
Y6623791D01*
X7383307D01*
Y6621788D01*
X7379301D01*
Y6619785D01*
X7377298D01*
Y6617782D01*
X7375295D01*
Y6615779D01*
X7371288D01*
Y6613775D01*
X7367282D01*
Y6611772D01*
X7363276D01*
Y6609769D01*
X7359270D01*
Y6607766D01*
X7355263D01*
Y6605763D01*
X7351257D01*
Y6603760D01*
X7347250D01*
Y6601757D01*
X7343244D01*
Y6599753D01*
X7339238D01*
Y6597750D01*
X7337235D01*
Y6595747D01*
X7331225D01*
Y6593744D01*
X7327219D01*
Y6591741D01*
X7323213D01*
Y6589738D01*
X7319206D01*
Y6587735D01*
X7315200D01*
Y6585731D01*
X7309191D01*
Y6583728D01*
X7303181D01*
Y6581725D01*
X7299175D01*
Y6579722D01*
X7295169D01*
Y6577719D01*
X7291162D01*
Y6575716D01*
X7285153D01*
Y6573712D01*
X7279143D01*
Y6571709D01*
X7275137D01*
Y6569706D01*
X7269127D01*
Y6567703D01*
X7265121D01*
Y6565700D01*
X7259112D01*
Y6563697D01*
X7251099D01*
Y6561694D01*
X7247093D01*
Y6559690D01*
X7241083D01*
Y6557687D01*
X7235074D01*
Y6555684D01*
X7227061D01*
Y6553681D01*
X7221052D01*
Y6551678D01*
X7215042D01*
Y6549674D01*
X7209033D01*
Y6547671D01*
X7201020D01*
Y6545668D01*
X7191004D01*
Y6543665D01*
X7184995D01*
Y6541662D01*
X7178985D01*
Y6539659D01*
X7168970D01*
Y6537656D01*
X7158954D01*
Y6535652D01*
X7148938D01*
Y6533649D01*
X7140926D01*
Y6531646D01*
X7130910D01*
Y6529643D01*
X7118891D01*
Y6527640D01*
X7104869D01*
Y6525637D01*
X7090847D01*
Y6523634D01*
X7080831D01*
Y6521630D01*
X7064806D01*
Y6519627D01*
X7046777D01*
Y6517624D01*
X7020736D01*
Y6515621D01*
X6982676D01*
Y6513618D01*
X6910563D01*
Y6515621D01*
X6908560D01*
Y6513618D01*
X6906556D01*
Y6515621D01*
X6872503D01*
Y6517624D01*
X6844459D01*
Y6519627D01*
X6826430D01*
Y6521630D01*
X6812408D01*
Y6523634D01*
X6800389D01*
Y6525637D01*
X6784364D01*
Y6527640D01*
X6772345D01*
Y6529643D01*
X6760326D01*
Y6531646D01*
X6750310D01*
Y6533649D01*
X6744301D01*
Y6535652D01*
X6732282D01*
Y6537656D01*
X6722266D01*
Y6539659D01*
X6714254D01*
Y6541662D01*
X6708244D01*
Y6543665D01*
X6700231D01*
Y6545668D01*
X6692219D01*
Y6547671D01*
X6684206D01*
Y6549674D01*
X6676194D01*
Y6551678D01*
X6670184D01*
Y6553681D01*
X6664175D01*
Y6555684D01*
X6656162D01*
Y6557687D01*
X6650153D01*
Y6559690D01*
X6644143D01*
Y6561694D01*
X6640137D01*
Y6563697D01*
X6634127D01*
Y6565700D01*
X6628118D01*
Y6567703D01*
X6622108D01*
Y6569706D01*
X6618102D01*
Y6571709D01*
X6612093D01*
Y6573712D01*
X6608086D01*
Y6575716D01*
X6602077D01*
Y6577719D01*
X6596068D01*
Y6579722D01*
X6592061D01*
Y6581725D01*
X6588055D01*
Y6583728D01*
X6584049D01*
Y6585731D01*
X6578039D01*
Y6587735D01*
X6574033D01*
Y6589738D01*
X6570026D01*
Y6591741D01*
X6566020D01*
Y6593744D01*
X6560011D01*
Y6595747D01*
X6556004D01*
Y6597750D01*
X6551998D01*
Y6599753D01*
X6547992D01*
Y6601757D01*
X6543985D01*
Y6603760D01*
X6539979D01*
Y6605763D01*
X6535973D01*
Y6607766D01*
X6533970D01*
Y6609769D01*
X6529963D01*
Y6611772D01*
X6525957D01*
Y6613775D01*
X6521951D01*
Y6615779D01*
X6517945D01*
Y6617782D01*
X6515941D01*
Y6619785D01*
X6511935D01*
Y6621788D01*
X6507929D01*
Y6623791D01*
X6503922D01*
Y6625794D01*
X6501919D01*
Y6627798D01*
X6497913D01*
Y6629801D01*
X6495910D01*
Y6631804D01*
X6491903D01*
Y6633807D01*
X6487897D01*
Y6635810D01*
X6485894D01*
Y6637813D01*
X6481888D01*
Y6639817D01*
X6479885D01*
Y6641820D01*
X6475878D01*
Y6643823D01*
X6473875D01*
Y6645826D01*
X6469869D01*
Y6647829D01*
X6467866D01*
Y6649832D01*
X6465863D01*
Y6651835D01*
X6461856D01*
Y6653839D01*
X6459853D01*
Y6655842D01*
X6457850D01*
Y6657845D01*
X6453844D01*
Y6659848D01*
X6451840D01*
Y6661851D01*
X6449837D01*
Y6663854D01*
X6445831D01*
Y6665858D01*
X6443828D01*
Y6667861D01*
X6441825D01*
Y6669864D01*
X6439822D01*
Y6671867D01*
X6435815D01*
Y6673870D01*
X6433812D01*
Y6675873D01*
X6431809D01*
Y6677876D01*
X6429806D01*
Y6679880D01*
X6427802D01*
Y6681883D01*
X6425799D01*
Y6683886D01*
X6423796D01*
Y6685889D01*
X6421793D01*
Y6687892D01*
X6417787D01*
Y6689895D01*
X6415784D01*
Y6691898D01*
X6413780D01*
Y6693902D01*
X6411777D01*
Y6697908D01*
X6407771D01*
Y6699911D01*
X6405768D01*
Y6701914D01*
X6403765D01*
Y6703918D01*
X6401762D01*
Y6705921D01*
X6399758D01*
Y6707924D01*
X6397755D01*
Y6709927D01*
X6395752D01*
Y6713933D01*
X6393749D01*
Y6715936D01*
X6391746D01*
Y6717940D01*
X6389743D01*
Y6719943D01*
X6387740D01*
Y6721946D01*
X6385736D01*
Y6723949D01*
X6383733D01*
Y6727955D01*
X6381730D01*
Y6729958D01*
X6379727D01*
Y6731962D01*
X6377724D01*
Y6733965D01*
X6375721D01*
Y6735968D01*
X6373717D01*
Y6739974D01*
X6371714D01*
Y6741977D01*
X6369711D01*
Y6743980D01*
X6367708D01*
Y6747987D01*
X6365705D01*
Y6749990D01*
X6363702D01*
Y6753996D01*
X6361698D01*
Y6755999D01*
X6359695D01*
Y6758003D01*
X6357692D01*
Y6762009D01*
X6355689D01*
Y6766015D01*
X6353686D01*
Y6768018D01*
X6351683D01*
Y6772025D01*
X6349679D01*
Y6774028D01*
X6347676D01*
Y6780037D01*
X6345673D01*
Y6784044D01*
X6343670D01*
Y6786047D01*
X6341667D01*
Y6790053D01*
X6339664D01*
Y6794059D01*
X6337661D01*
Y6800069D01*
X6335657D01*
Y6804075D01*
X6333654D01*
Y6808081D01*
X6331651D01*
Y6812088D01*
X6329648D01*
Y6818097D01*
X6327645D01*
Y6826110D01*
X6325642D01*
Y6830116D01*
X6323639D01*
Y6836126D01*
X6321635D01*
Y6844138D01*
X6319632D01*
Y6852151D01*
X6317629D01*
Y6862167D01*
X6315626D01*
Y6878192D01*
X6313623D01*
Y6934280D01*
X6315626D01*
Y6950305D01*
X6317629D01*
Y6960321D01*
X6319632D01*
Y6968334D01*
X6321635D01*
Y6976346D01*
X6323639D01*
Y6982356D01*
X6325642D01*
Y6988365D01*
X6327645D01*
Y6994375D01*
X6329648D01*
Y7000384D01*
X6331651D01*
Y7004391D01*
X6333654D01*
Y7008397D01*
X6335657D01*
Y7014406D01*
X6337661D01*
Y7018413D01*
X6339664D01*
Y7022419D01*
X6341667D01*
Y7026425D01*
X6343670D01*
Y7030432D01*
X6345673D01*
Y7034438D01*
X6347676D01*
Y7038444D01*
X6349679D01*
Y7040447D01*
X6351683D01*
Y7044454D01*
X6353686D01*
Y7048460D01*
X6355689D01*
Y7050463D01*
X6357692D01*
Y7054470D01*
X6359695D01*
Y7056473D01*
X6361698D01*
Y7058476D01*
X6363702D01*
Y7062482D01*
X6365705D01*
Y7066489D01*
X6367708D01*
Y7068492D01*
X6369711D01*
Y7070495D01*
X6371714D01*
Y7072498D01*
X6373717D01*
Y7076504D01*
X6375721D01*
Y7078507D01*
X6377724D01*
Y7082514D01*
X6379727D01*
Y7084517D01*
X6381730D01*
Y7086520D01*
X6383733D01*
Y7088523D01*
X6385736D01*
Y7090526D01*
X6387740D01*
Y7092529D01*
X6389743D01*
Y7094533D01*
X6391746D01*
Y7096536D01*
X6393749D01*
Y7100542D01*
X6395752D01*
Y7102545D01*
X6397755D01*
Y7104548D01*
X6399758D01*
Y7106551D01*
X6401762D01*
Y7108555D01*
X6403765D01*
Y7110558D01*
X6405768D01*
Y7112561D01*
X6407771D01*
Y7114564D01*
X6409774D01*
Y7116567D01*
X6411777D01*
Y7118570D01*
X6413780D01*
Y7120574D01*
X6415784D01*
Y7122577D01*
X6417787D01*
Y7124580D01*
X6421793D01*
Y7128586D01*
X6423796D01*
Y7130589D01*
X6425799D01*
Y7132593D01*
X6429806D01*
Y7134596D01*
X6431809D01*
Y7136599D01*
X6433812D01*
Y7138602D01*
X6435815D01*
Y7140605D01*
X6437818D01*
Y7142608D01*
X6441825D01*
Y7144612D01*
X6443828D01*
Y7146615D01*
X6445831D01*
Y7148618D01*
X6447834D01*
Y7150621D01*
X6451840D01*
Y7152624D01*
X6453844D01*
Y7154627D01*
X6455847D01*
Y7156630D01*
X6459853D01*
Y7158634D01*
X6461856D01*
Y7160637D01*
X6463859D01*
Y7162640D01*
X6467866D01*
Y7164643D01*
X6469869D01*
Y7166646D01*
X6471872D01*
Y7168649D01*
X6475878D01*
Y7170652D01*
X6479885D01*
Y7172656D01*
X6481888D01*
Y7174659D01*
X6485894D01*
Y7176662D01*
X6487897D01*
Y7178665D01*
X6489900D01*
Y7180668D01*
X6493907D01*
Y7182671D01*
X6497913D01*
Y7184674D01*
X6499916D01*
Y7186678D01*
X6503922D01*
Y7188681D01*
X6507929D01*
Y7190684D01*
X6511935D01*
Y7192687D01*
X6513938D01*
Y7194690D01*
X6517945D01*
Y7196694D01*
X6519948D01*
Y7198697D01*
X6523954D01*
Y7200700D01*
X6529963D01*
Y7202703D01*
X6531967D01*
Y7204706D01*
X6535973D01*
Y7206709D01*
X6539979D01*
Y7208712D01*
X6543985D01*
Y7210716D01*
X6547992D01*
Y7212719D01*
X6551998D01*
Y7214722D01*
X6556004D01*
Y7216725D01*
X6560011D01*
Y7218728D01*
X6564017D01*
Y7220731D01*
X6568023D01*
Y7222735D01*
X6572030D01*
Y7224738D01*
X6578039D01*
Y7226741D01*
X6582046D01*
Y7228744D01*
X6588055D01*
Y7230747D01*
X6592061D01*
Y7232750D01*
X6596068D01*
Y7234753D01*
X6602077D01*
Y7236757D01*
X6606083D01*
Y7238760D01*
X6612093D01*
Y7240763D01*
X6616099D01*
Y7242766D01*
X6622108D01*
Y7244769D01*
X6628118D01*
Y7246772D01*
X6634127D01*
Y7248775D01*
X6640137D01*
Y7250779D01*
X6644143D01*
Y7252782D01*
X6650153D01*
Y7254785D01*
X6658165D01*
Y7256788D01*
X6664175D01*
Y7258791D01*
X6670184D01*
Y7260794D01*
X6676194D01*
Y7262798D01*
X6684206D01*
Y7264801D01*
X6692219D01*
Y7266804D01*
X6700231D01*
Y7268807D01*
X6708244D01*
Y7270810D01*
X6714254D01*
Y7272813D01*
X6722266D01*
Y7274817D01*
X6732282D01*
Y7276820D01*
X6742298D01*
Y7278823D01*
X6750310D01*
Y7280826D01*
X6760326D01*
Y7282829D01*
X6770342D01*
Y7284832D01*
X6782361D01*
Y7286835D01*
X6798386D01*
Y7288839D01*
X6810405D01*
Y7290842D01*
X6824427D01*
Y7292845D01*
X6842455D01*
Y7294848D01*
X6864490D01*
Y7296851D01*
X6908560D01*
Y7298854D01*
X6982676D01*
Y7296851D01*
D02*
G37*
%LPC*%
G36*
X9354127Y6965565D02*
X9346815D01*
Y6961909D01*
X9313911D01*
Y6958253D01*
X9299286D01*
Y6954597D01*
X9288318D01*
Y6950941D01*
X9284662D01*
Y6947285D01*
X9281006D01*
Y6943629D01*
X9277350D01*
Y6939973D01*
X9273694D01*
Y6932661D01*
X9270038D01*
Y6910724D01*
X9273694D01*
Y6903412D01*
X9277350D01*
Y6896100D01*
X9284662D01*
Y6892444D01*
X9295630D01*
Y6888788D01*
X9321223D01*
Y6892444D01*
X9335847D01*
Y6896100D01*
X9339503D01*
Y6899756D01*
X9346815D01*
Y6903412D01*
X9350471D01*
Y6907068D01*
X9354127D01*
Y6965565D01*
D02*
G37*
G36*
X8564418Y7130088D02*
X8520546D01*
Y7126432D01*
X8516889D01*
Y7053311D01*
X8571730D01*
Y7056967D01*
X8582699D01*
Y7060623D01*
X8586355D01*
Y7064279D01*
X8590011D01*
Y7067935D01*
X8593667D01*
Y7075247D01*
X8597323D01*
Y7089871D01*
X8600979D01*
Y7097183D01*
X8597323D01*
Y7108151D01*
X8593667D01*
Y7115464D01*
X8590011D01*
Y7119120D01*
X8586355D01*
Y7122776D01*
X8579043D01*
Y7126432D01*
X8564418D01*
Y7130088D01*
D02*
G37*
G36*
X8590011Y6991157D02*
X8516889D01*
Y6903412D01*
X8586355D01*
Y6907068D01*
X8597323D01*
Y6910724D01*
X8604635D01*
Y6914380D01*
X8611947D01*
Y6918036D01*
X8615603D01*
Y6925348D01*
X8619259D01*
Y6936317D01*
X8622915D01*
Y6961909D01*
X8619259D01*
Y6972877D01*
X8615603D01*
Y6976533D01*
X8611947D01*
Y6980189D01*
X8608291D01*
Y6983845D01*
X8600979D01*
Y6987501D01*
X8590011D01*
Y6991157D01*
D02*
G37*
G36*
X7964824Y7130088D02*
X7880735D01*
Y7031374D01*
X7964824D01*
Y7035030D01*
X7979449D01*
Y7038686D01*
X7986761D01*
Y7042342D01*
X7990417D01*
Y7045998D01*
X7994073D01*
Y7049654D01*
X7997729D01*
Y7053311D01*
X8001385D01*
Y7060623D01*
X8005041D01*
Y7071591D01*
X8008697D01*
Y7075247D01*
Y7089871D01*
X8005041D01*
Y7100839D01*
X8001385D01*
Y7108151D01*
X7997729D01*
Y7111807D01*
X7994073D01*
Y7115464D01*
X7990417D01*
Y7119120D01*
X7983105D01*
Y7122776D01*
X7975793D01*
Y7126432D01*
X7964824D01*
Y7130088D01*
D02*
G37*
G36*
X6886525Y7216725D02*
X6870500D01*
Y7214722D01*
X6846462D01*
Y7212719D01*
X6834443D01*
Y7210716D01*
X6816415D01*
Y7208712D01*
X6806399D01*
Y7206709D01*
X6796383D01*
Y7204706D01*
X6784364D01*
Y7202703D01*
X6774348D01*
Y7200700D01*
X6762329D01*
Y7198697D01*
X6754317D01*
Y7196694D01*
X6746304D01*
Y7194690D01*
X6736288D01*
Y7192687D01*
X6730279D01*
Y7190684D01*
X6722266D01*
Y7188681D01*
X6716257D01*
Y7186678D01*
X6708244D01*
Y7184674D01*
X6702235D01*
Y7182671D01*
X6692219D01*
Y7180668D01*
X6688213D01*
Y7178665D01*
X6682203D01*
Y7176662D01*
X6676194D01*
Y7174659D01*
X6670184D01*
Y7172656D01*
X6664175D01*
Y7170652D01*
X6658165D01*
Y7168649D01*
X6654159D01*
Y7166646D01*
X6650153D01*
Y7164643D01*
X6644143D01*
Y7162640D01*
X6638134D01*
Y7160637D01*
X6634127D01*
Y7158634D01*
X6630121D01*
Y7156630D01*
X6624112D01*
Y7154627D01*
X6622108D01*
Y7152624D01*
X6616099D01*
Y7150621D01*
X6612093D01*
Y7148618D01*
X6608086D01*
Y7146615D01*
X6604080D01*
Y7144612D01*
X6598071D01*
Y7142608D01*
X6594064D01*
Y7140605D01*
X6592061D01*
Y7138602D01*
X6588055D01*
Y7136599D01*
X6584049D01*
Y7134596D01*
X6580042D01*
Y7132593D01*
X6578039D01*
Y7130589D01*
X6574033D01*
Y7128586D01*
X6572030D01*
Y7126583D01*
X6568023D01*
Y7124580D01*
X6564017D01*
Y7122577D01*
X6560011D01*
Y7120574D01*
X6558008D01*
Y7118570D01*
X6556004D01*
Y7116567D01*
X6551998D01*
Y7114564D01*
X6547992D01*
Y7112561D01*
X6545989D01*
Y7110558D01*
X6543985D01*
Y7108555D01*
X6541982D01*
Y7106551D01*
X6535973D01*
Y7104548D01*
X6533970D01*
Y7102545D01*
X6531967D01*
Y7100542D01*
X6529963D01*
Y7098539D01*
X6525957D01*
Y7096536D01*
X6523954D01*
Y7094533D01*
X6521951D01*
Y7092529D01*
X6519948D01*
Y7090526D01*
X6517945D01*
Y7086520D01*
X6519948D01*
Y7084517D01*
X6521951D01*
Y7082514D01*
X6523954D01*
Y7080511D01*
X6525957D01*
Y7076504D01*
X6527960D01*
Y7074501D01*
X6529963D01*
Y7072498D01*
X6531967D01*
Y7068492D01*
X6533970D01*
Y7066489D01*
X6535973D01*
Y7064485D01*
X6537976D01*
Y7062482D01*
X6539979D01*
Y7060479D01*
X6541982D01*
Y7058476D01*
X6543985D01*
Y7056473D01*
X6545989D01*
Y7052466D01*
X6547992D01*
Y7048460D01*
X6551998D01*
Y7044454D01*
X6554001D01*
Y7042450D01*
X6556004D01*
Y7038444D01*
X6558008D01*
Y7036441D01*
X6560011D01*
Y7034438D01*
X6562014D01*
Y7032435D01*
X6564017D01*
Y7030432D01*
X6566020D01*
Y7026425D01*
X6572030D01*
Y7028428D01*
X6574033D01*
Y7030432D01*
X6578039D01*
Y7032435D01*
X6580042D01*
Y7034438D01*
X6582046D01*
Y7036441D01*
X6586052D01*
Y7038444D01*
X6590058D01*
Y7040447D01*
X6592061D01*
Y7042450D01*
X6596068D01*
Y7044454D01*
X6598071D01*
Y7046457D01*
X6602077D01*
Y7048460D01*
X6604080D01*
Y7050463D01*
X6608086D01*
Y7052466D01*
X6612093D01*
Y7054470D01*
X6616099D01*
Y7056473D01*
X6618102D01*
Y7058476D01*
X6622108D01*
Y7060479D01*
X6628118D01*
Y7062482D01*
X6630121D01*
Y7064485D01*
X6636131D01*
Y7062482D01*
X6638134D01*
Y7060479D01*
X6640137D01*
Y7058476D01*
X6642140D01*
Y7056473D01*
X6644143D01*
Y7052466D01*
X6646146D01*
Y7050463D01*
X6648150D01*
Y7048460D01*
X6650153D01*
Y7044454D01*
X6652156D01*
Y7042450D01*
X6654159D01*
Y7040447D01*
X6656162D01*
Y7038444D01*
X6658165D01*
Y7036441D01*
X6660169D01*
Y7034438D01*
X6662172D01*
Y7030432D01*
X6664175D01*
Y7028428D01*
X6666178D01*
Y7026425D01*
X6668181D01*
Y7024422D01*
X6670184D01*
Y7022419D01*
X6672187D01*
Y7020416D01*
X6674191D01*
Y7018413D01*
X6676194D01*
Y7016410D01*
X6678197D01*
Y7012403D01*
X6680200D01*
Y7010400D01*
X6682203D01*
Y7008397D01*
X6684206D01*
Y7006394D01*
X6686209D01*
Y7002388D01*
X6688213D01*
Y7000384D01*
X6690216D01*
Y6998381D01*
X6692219D01*
Y6994375D01*
X6696225D01*
Y6992372D01*
X6698228D01*
Y6988365D01*
X6700231D01*
Y6986362D01*
X6702235D01*
Y6982356D01*
X6706241D01*
Y6980353D01*
X6708244D01*
Y6976346D01*
X6710247D01*
Y6974343D01*
X6712250D01*
Y6972340D01*
X6714254D01*
Y6970337D01*
X6716257D01*
Y6968334D01*
X6718260D01*
Y6964327D01*
X6720263D01*
Y6962324D01*
X6722266D01*
Y6960321D01*
X6724270D01*
Y6958318D01*
X6726273D01*
Y6956315D01*
X6728276D01*
Y6954312D01*
X6730279D01*
Y6952309D01*
X6732282D01*
Y6948302D01*
X6734285D01*
Y6946299D01*
X6736288D01*
Y6944296D01*
X6738292D01*
Y6940290D01*
X6740295D01*
Y6938287D01*
X6742298D01*
Y6936283D01*
X6744301D01*
Y6934280D01*
X6746304D01*
Y6932277D01*
X6748307D01*
Y6928271D01*
X6750310D01*
Y6926268D01*
X6752314D01*
Y6924265D01*
X6754317D01*
Y6922261D01*
X6756320D01*
Y6920258D01*
X6758323D01*
Y6918255D01*
X6760326D01*
Y6916252D01*
X6762329D01*
Y6914249D01*
X6764332D01*
Y6912246D01*
X6766336D01*
Y6908239D01*
X6768339D01*
Y6906236D01*
X6770342D01*
Y6904233D01*
X6772345D01*
Y6902230D01*
X6774348D01*
Y6900226D01*
X6776351D01*
Y6896220D01*
X6778354D01*
Y6894217D01*
X6780358D01*
Y6892214D01*
X6782361D01*
Y6890211D01*
X6784364D01*
Y6888208D01*
X6786367D01*
Y6884201D01*
X6788370D01*
Y6882198D01*
X6790374D01*
Y6880195D01*
X6792377D01*
Y6878192D01*
X6794380D01*
Y6876189D01*
X6796383D01*
Y6872182D01*
X6798386D01*
Y6870179D01*
X6800389D01*
Y6868176D01*
X6802393D01*
Y6866173D01*
X6804396D01*
Y6862167D01*
X6806399D01*
Y6860164D01*
X6808402D01*
Y6858160D01*
X6810405D01*
Y6856157D01*
X6812408D01*
Y6854154D01*
X6814411D01*
Y6852151D01*
X6816415D01*
Y6850148D01*
X6818418D01*
Y6846142D01*
X6820421D01*
Y6844138D01*
X6822424D01*
Y6842135D01*
X6824427D01*
Y6840132D01*
X6826430D01*
Y6838129D01*
X6828433D01*
Y6836126D01*
X6830437D01*
Y6834122D01*
X6832440D01*
Y6830116D01*
X6834443D01*
Y6828113D01*
X6836446D01*
Y6826110D01*
X6838449D01*
Y6824107D01*
X6840452D01*
Y6822103D01*
X6842455D01*
Y6818097D01*
X6844459D01*
Y6816094D01*
X6846462D01*
Y6814091D01*
X6848465D01*
Y6812088D01*
X6850468D01*
Y6810085D01*
X6852471D01*
Y6689895D01*
X6838449D01*
Y6691898D01*
X6818418D01*
Y6693902D01*
X6804396D01*
Y6695905D01*
X6784364D01*
Y6697908D01*
X6778354D01*
Y6693902D01*
X6776351D01*
Y6677876D01*
X6774348D01*
Y6669864D01*
X6772345D01*
Y6663854D01*
X6770342D01*
Y6655842D01*
X6768339D01*
Y6641820D01*
X6766336D01*
Y6629801D01*
X6764332D01*
Y6621788D01*
X6762329D01*
Y6615779D01*
X6766336D01*
Y6613775D01*
X6774348D01*
Y6611772D01*
X6784364D01*
Y6609769D01*
X6794380D01*
Y6607766D01*
X6806399D01*
Y6605763D01*
X6816415D01*
Y6603760D01*
X6824427D01*
Y6601757D01*
X6850468D01*
Y6599753D01*
X6864490D01*
Y6597750D01*
X6896541D01*
Y6595747D01*
X6996698D01*
Y6597750D01*
X7032755D01*
Y6599753D01*
X7050784D01*
Y6601757D01*
X7074822D01*
Y6603760D01*
X7084837D01*
Y6605763D01*
X7094853D01*
Y6607766D01*
X7108875D01*
Y6609769D01*
X7118891D01*
Y6611772D01*
X7134916D01*
Y6613775D01*
X7136919D01*
Y6625794D01*
X7134916D01*
Y6637813D01*
X7132913D01*
Y6647829D01*
X7130910D01*
Y6653839D01*
X7128907D01*
Y6661851D01*
X7126903D01*
Y6673870D01*
X7124900D01*
Y6683886D01*
X7122897D01*
Y6689895D01*
X7120894D01*
Y6697908D01*
X7100863D01*
Y6695905D01*
X7082834D01*
Y6693902D01*
X7070815D01*
Y6691898D01*
X7046777D01*
Y6689895D01*
X7038765D01*
Y6804075D01*
X7040768D01*
Y6808081D01*
X7042771D01*
Y6810085D01*
X7044774D01*
Y6812088D01*
X7046777D01*
Y6814091D01*
X7048780D01*
Y6816094D01*
X7050784D01*
Y6820100D01*
X7052787D01*
Y6822103D01*
X7054790D01*
Y6824107D01*
X7056793D01*
Y6826110D01*
X7058796D01*
Y6828113D01*
X7060799D01*
Y6830116D01*
X7062802D01*
Y6834122D01*
X7064806D01*
Y6836126D01*
X7066809D01*
Y6838129D01*
X7068812D01*
Y6840132D01*
X7070815D01*
Y6844138D01*
X7072818D01*
Y6846142D01*
X7074822D01*
Y6848145D01*
X7076825D01*
Y6850148D01*
X7078828D01*
Y6852151D01*
X7080831D01*
Y6854154D01*
X7082834D01*
Y6858160D01*
X7086840D01*
Y6862167D01*
X7088844D01*
Y6864170D01*
X7090847D01*
Y6866173D01*
X7092850D01*
Y6868176D01*
X7094853D01*
Y6870179D01*
X7096856D01*
Y6872182D01*
X7098859D01*
Y6876189D01*
X7100863D01*
Y6878192D01*
X7102866D01*
Y6880195D01*
X7104869D01*
Y6882198D01*
X7106872D01*
Y6884201D01*
X7108875D01*
Y6888208D01*
X7110878D01*
Y6890211D01*
X7112881D01*
Y6892214D01*
X7114885D01*
Y6894217D01*
X7116888D01*
Y6896220D01*
X7118891D01*
Y6900226D01*
X7120894D01*
Y6902230D01*
X7122897D01*
Y6904233D01*
X7124900D01*
Y6906236D01*
X7126903D01*
Y6908239D01*
X7128907D01*
Y6910242D01*
X7130910D01*
Y6914249D01*
X7132913D01*
Y6916252D01*
X7134916D01*
Y6918255D01*
X7136919D01*
Y6920258D01*
X7138922D01*
Y6922261D01*
X7140926D01*
Y6924265D01*
X7142929D01*
Y6926268D01*
X7144932D01*
Y6928271D01*
X7146935D01*
Y6932277D01*
X7148938D01*
Y6934280D01*
X7150941D01*
Y6936283D01*
X7152945D01*
Y6938287D01*
X7154948D01*
Y6940290D01*
X7156951D01*
Y6944296D01*
X7158954D01*
Y6946299D01*
X7160957D01*
Y6948302D01*
X7162960D01*
Y6950305D01*
X7164963D01*
Y6954312D01*
X7166967D01*
Y6956315D01*
X7168970D01*
Y6958318D01*
X7170973D01*
Y6960321D01*
X7172976D01*
Y6962324D01*
X7174979D01*
Y6964327D01*
X7176982D01*
Y6968334D01*
X7178985D01*
Y6970337D01*
X7180989D01*
Y6972340D01*
X7182992D01*
Y6974343D01*
X7184995D01*
Y6976346D01*
X7186998D01*
Y6978350D01*
X7189001D01*
Y6980353D01*
X7191004D01*
Y6982356D01*
X7193008D01*
Y6984359D01*
X7195011D01*
Y6988365D01*
X7197014D01*
Y6990369D01*
X7199017D01*
Y6992372D01*
X7201020D01*
Y6994375D01*
X7203023D01*
Y6998381D01*
X7205026D01*
Y7000384D01*
X7209033D01*
Y7004391D01*
X7211036D01*
Y7006394D01*
X7213039D01*
Y7010400D01*
X7217046D01*
Y7012403D01*
X7219049D01*
Y7016410D01*
X7221052D01*
Y7018413D01*
X7223055D01*
Y7020416D01*
X7225058D01*
Y7022419D01*
X7227061D01*
Y7026425D01*
X7229064D01*
Y7028428D01*
X7231068D01*
Y7030432D01*
X7233071D01*
Y7032435D01*
X7235074D01*
Y7034438D01*
X7237077D01*
Y7038444D01*
X7241083D01*
Y7040447D01*
X7243086D01*
Y7044454D01*
X7245090D01*
Y7046457D01*
X7247093D01*
Y7048460D01*
X7249096D01*
Y7050463D01*
X7251099D01*
Y7054470D01*
X7257108D01*
Y7052466D01*
X7259112D01*
Y7050463D01*
X7263118D01*
Y7048460D01*
X7265121D01*
Y7046457D01*
X7269127D01*
Y7044454D01*
X7271131D01*
Y7042450D01*
X7273134D01*
Y7040447D01*
X7277140D01*
Y7038444D01*
X7281146D01*
Y7036441D01*
X7283150D01*
Y7034438D01*
X7287156D01*
Y7032435D01*
X7289159D01*
Y7030432D01*
X7293165D01*
Y7028428D01*
X7295169D01*
Y7026425D01*
X7299175D01*
Y7022419D01*
X7303181D01*
Y7020416D01*
X7307187D01*
Y7018413D01*
X7309191D01*
Y7016410D01*
X7311194D01*
Y7014406D01*
X7313197D01*
Y7012403D01*
X7315200D01*
Y7010400D01*
X7321209D01*
Y7012403D01*
X7323213D01*
Y7014406D01*
X7325216D01*
Y7016410D01*
X7327219D01*
Y7020416D01*
X7329222D01*
Y7022419D01*
X7331225D01*
Y7024422D01*
X7333228D01*
Y7028428D01*
X7335231D01*
Y7030432D01*
X7337235D01*
Y7032435D01*
X7339238D01*
Y7036441D01*
X7341241D01*
Y7038444D01*
X7345247D01*
Y7042450D01*
X7347250D01*
Y7046457D01*
X7349254D01*
Y7048460D01*
X7351257D01*
Y7050463D01*
X7353260D01*
Y7052466D01*
X7355263D01*
Y7054470D01*
X7357266D01*
Y7056473D01*
X7359270D01*
Y7060479D01*
X7361273D01*
Y7062482D01*
X7363276D01*
Y7064485D01*
X7365279D01*
Y7066489D01*
X7367282D01*
Y7068492D01*
X7369285D01*
Y7070495D01*
X7371288D01*
Y7074501D01*
X7373292D01*
Y7078507D01*
X7371288D01*
Y7080511D01*
X7369285D01*
Y7082514D01*
X7367282D01*
Y7084517D01*
X7365279D01*
Y7086520D01*
X7361273D01*
Y7088523D01*
X7359270D01*
Y7090526D01*
X7357266D01*
Y7092529D01*
X7355263D01*
Y7094533D01*
X7353260D01*
Y7096536D01*
X7349254D01*
Y7098539D01*
X7347250D01*
Y7100542D01*
X7345247D01*
Y7102545D01*
X7343244D01*
Y7104548D01*
X7339238D01*
Y7106551D01*
X7337235D01*
Y7108555D01*
X7333228D01*
Y7110558D01*
X7331225D01*
Y7112561D01*
X7329222D01*
Y7114564D01*
X7323213D01*
Y7116567D01*
X7321209D01*
Y7118570D01*
X7319206D01*
Y7120574D01*
X7315200D01*
Y7122577D01*
X7313197D01*
Y7124580D01*
X7309191D01*
Y7126583D01*
X7307187D01*
Y7128586D01*
X7303181D01*
Y7130589D01*
X7299175D01*
Y7132593D01*
X7297172D01*
Y7134596D01*
X7293165D01*
Y7136599D01*
X7289159D01*
Y7138602D01*
X7285153D01*
Y7140605D01*
X7283150D01*
Y7142608D01*
X7279143D01*
Y7144612D01*
X7273134D01*
Y7146615D01*
X7269127D01*
Y7148618D01*
X7267124D01*
Y7150621D01*
X7263118D01*
Y7152624D01*
X7257108D01*
Y7154627D01*
X7253102D01*
Y7156630D01*
X7249096D01*
Y7158634D01*
X7245090D01*
Y7160637D01*
X7243086D01*
Y7162640D01*
X7235074D01*
Y7164643D01*
X7233071D01*
Y7166646D01*
X7225058D01*
Y7168649D01*
X7221052D01*
Y7170652D01*
X7219049D01*
Y7172656D01*
X7209033D01*
Y7174659D01*
X7203023D01*
Y7176662D01*
X7197014D01*
Y7178665D01*
X7193008D01*
Y7180668D01*
X7189001D01*
Y7182671D01*
X7178985D01*
Y7184674D01*
X7170973D01*
Y7186678D01*
X7162960D01*
Y7188681D01*
X7156951D01*
Y7190684D01*
X7144932D01*
Y7192687D01*
X7136919D01*
Y7194690D01*
X7122897D01*
Y7196694D01*
X7112881D01*
Y7198697D01*
X7096856D01*
Y7200700D01*
X7094853D01*
Y7198697D01*
X7092850D01*
Y7188681D01*
X7090847D01*
Y7166646D01*
X7088844D01*
Y7152624D01*
X7086840D01*
Y7144612D01*
X7084837D01*
Y7132593D01*
X7082834D01*
Y7124580D01*
X7080831D01*
Y7110558D01*
X7084837D01*
Y7108555D01*
X7090847D01*
Y7106551D01*
X7102866D01*
Y7104548D01*
X7110878D01*
Y7102545D01*
X7120894D01*
Y7100542D01*
X7128907D01*
Y7098539D01*
X7134916D01*
Y7096536D01*
X7148938D01*
Y7092529D01*
X7146935D01*
Y7088523D01*
X7144932D01*
Y7086520D01*
X7142929D01*
Y7084517D01*
X7140926D01*
Y7082514D01*
X7138922D01*
Y7080511D01*
X7136919D01*
Y7078507D01*
X7134916D01*
Y7076504D01*
X7132913D01*
Y7072498D01*
X7130910D01*
Y7070495D01*
X7128907D01*
Y7068492D01*
X7126903D01*
Y7064485D01*
X7124900D01*
Y7062482D01*
X7120894D01*
Y7058476D01*
X7118891D01*
Y7056473D01*
X7116888D01*
Y7054470D01*
X7114885D01*
Y7052466D01*
X7112881D01*
Y7050463D01*
X7110878D01*
Y7046457D01*
X7108875D01*
Y7044454D01*
X7106872D01*
Y7040447D01*
X7104869D01*
Y7038444D01*
X7100863D01*
Y7036441D01*
X7098859D01*
Y7032435D01*
X7096856D01*
Y7030432D01*
X7094853D01*
Y7028428D01*
X7092850D01*
Y7026425D01*
X7090847D01*
Y7024422D01*
X7088844D01*
Y7020416D01*
X7086840D01*
Y7018413D01*
X7084837D01*
Y7016410D01*
X7082834D01*
Y7014406D01*
X7080831D01*
Y7010400D01*
X7078828D01*
Y7008397D01*
X7076825D01*
Y7006394D01*
X7074822D01*
Y7004391D01*
X7072818D01*
Y7002388D01*
X7070815D01*
Y6998381D01*
X7068812D01*
Y6996378D01*
X7066809D01*
Y6994375D01*
X7064806D01*
Y6992372D01*
X7062802D01*
Y6990369D01*
X7060799D01*
Y6986362D01*
X7058796D01*
Y6984359D01*
X7056793D01*
Y6982356D01*
X7052787D01*
Y6978350D01*
X7050784D01*
Y6976346D01*
X7048780D01*
Y6972340D01*
X7046777D01*
Y6970337D01*
X7044774D01*
Y6968334D01*
X7042771D01*
Y6966331D01*
X7040768D01*
Y6964327D01*
X7038765D01*
Y6960321D01*
X7036762D01*
Y6958318D01*
X7034758D01*
Y6956315D01*
X7032755D01*
Y6954312D01*
X7030752D01*
Y6950305D01*
X7028749D01*
Y6948302D01*
X7026746D01*
Y6946299D01*
X7024743D01*
Y6944296D01*
X7022740D01*
Y6942293D01*
X7020736D01*
Y6938287D01*
X7016730D01*
Y6934280D01*
X7014727D01*
Y6932277D01*
X7012724D01*
Y6930274D01*
X7010721D01*
Y6926268D01*
X7008717D01*
Y6924265D01*
X7004711D01*
Y6920258D01*
X7002708D01*
Y6916252D01*
X6998702D01*
Y6914249D01*
X6996698D01*
Y6910242D01*
X6994695D01*
Y6908239D01*
X6990689D01*
Y6910242D01*
X6988686D01*
Y6912246D01*
X6986683D01*
Y6914249D01*
X6984679D01*
Y6916252D01*
X6982676D01*
Y6918255D01*
X6980673D01*
Y6920258D01*
X6978670D01*
Y6922261D01*
X6976667D01*
Y6924265D01*
X6974664D01*
Y6928271D01*
X6972661D01*
Y6930274D01*
X6970657D01*
Y6932277D01*
X6968654D01*
Y6934280D01*
X6966651D01*
Y6936283D01*
X6964648D01*
Y6940290D01*
X6962645D01*
Y6942293D01*
X6960642D01*
Y6944296D01*
X6958639D01*
Y6946299D01*
X6956635D01*
Y6950305D01*
X6954632D01*
Y6952309D01*
X6952629D01*
Y6954312D01*
X6948623D01*
Y6958318D01*
X6946620D01*
Y6962324D01*
X6942613D01*
Y6964327D01*
X6940610D01*
Y6966331D01*
X6938607D01*
Y6970337D01*
X6936604D01*
Y6972340D01*
X6934601D01*
Y6974343D01*
X6932598D01*
Y6976346D01*
X6930594D01*
Y6978350D01*
X6928591D01*
Y6980353D01*
X6926588D01*
Y6984359D01*
X6924585D01*
Y6986362D01*
X6922582D01*
Y6988365D01*
X6920578D01*
Y6990369D01*
X6918575D01*
Y6992372D01*
X6916572D01*
Y6994375D01*
X6914569D01*
Y6996378D01*
X6912566D01*
Y6998381D01*
X6910563D01*
Y7000384D01*
X6908560D01*
Y7004391D01*
X6906556D01*
Y7006394D01*
X6904553D01*
Y7008397D01*
X6902550D01*
Y7010400D01*
X6900547D01*
Y7012403D01*
X6898544D01*
Y7016410D01*
X6896541D01*
Y7018413D01*
X6894538D01*
Y7020416D01*
X6892534D01*
Y7022419D01*
X6890531D01*
Y7024422D01*
X6888528D01*
Y7028428D01*
X6886525D01*
Y7030432D01*
X6884522D01*
Y7032435D01*
X6882519D01*
Y7034438D01*
X6880516D01*
Y7036441D01*
X6878512D01*
Y7038444D01*
X6876509D01*
Y7040447D01*
X6874506D01*
Y7042450D01*
X6872503D01*
Y7044454D01*
X6870500D01*
Y7048460D01*
X6868497D01*
Y7050463D01*
X6866494D01*
Y7052466D01*
X6864490D01*
Y7054470D01*
X6862487D01*
Y7056473D01*
X6860484D01*
Y7060479D01*
X6858481D01*
Y7062482D01*
X6856478D01*
Y7064485D01*
X6854474D01*
Y7066489D01*
X6852471D01*
Y7068492D01*
X6850468D01*
Y7072498D01*
X6848465D01*
Y7074501D01*
X6846462D01*
Y7076504D01*
X6844459D01*
Y7078507D01*
X6842455D01*
Y7080511D01*
X6840452D01*
Y7084517D01*
X6838449D01*
Y7086520D01*
X6836446D01*
Y7088523D01*
X6834443D01*
Y7090526D01*
X6832440D01*
Y7092529D01*
X6830437D01*
Y7096536D01*
X6828433D01*
Y7098539D01*
X6826430D01*
Y7100542D01*
X6824427D01*
Y7102545D01*
X6822424D01*
Y7104548D01*
X6820421D01*
Y7106551D01*
X6818418D01*
Y7108555D01*
X6816415D01*
Y7110558D01*
X6814411D01*
Y7112561D01*
X6812408D01*
Y7118570D01*
X6820421D01*
Y7120574D01*
X6834443D01*
Y7122577D01*
X6850468D01*
Y7124580D01*
X6870500D01*
Y7126583D01*
X6886525D01*
Y7128586D01*
X6890531D01*
Y7136599D01*
X6888528D01*
Y7200700D01*
X6886525D01*
Y7216725D01*
D02*
G37*
%LPD*%
D24*
X11175800Y3979000D02*
G03*
X11175800Y3979000I-12500J0D01*
G01*
X5915500Y5184300D02*
G03*
X5915500Y5184300I-12500J0D01*
G01*
D25*
X5562600Y2806700D02*
G03*
X5816600Y2552700I254000J0D01*
G01*
Y5092700D02*
G03*
X5562600Y4838700I0J-254000D01*
G01*
X7848600D02*
G03*
X7594600Y5092700I-254000J0D01*
G01*
Y2552700D02*
G03*
X7848600Y2806700I0J254000D01*
G01*
X11772900Y6407300D02*
X13550900D01*
X11772900Y2781300D02*
Y6407300D01*
X13550900Y2781300D02*
Y6407300D01*
X11772900Y2781300D02*
X13550900D01*
X5562600Y2806700D02*
Y4838700D01*
X5816600Y5092700D02*
X7594600D01*
X7848600Y2806700D02*
Y4838700D01*
X5816600Y2552700D02*
X7594600D01*
D26*
X5497600Y4457700D02*
G03*
X5497600Y4457700I-10000J0D01*
G01*
X11031300Y4039000D02*
Y6629000D01*
X11295300D01*
Y4039000D02*
Y6629000D01*
X11031300Y4039000D02*
X11295300D01*
X6225500Y5261800D02*
Y6511800D01*
X5585500Y5261800D02*
X6225500D01*
X5585500D02*
Y6511800D01*
X6225500D01*
D27*
X5346700Y5181600D02*
G03*
X5346700Y5181600I-25000J0D01*
G01*
D28*
X4225700Y2856600D02*
Y3656100D01*
X2755700Y2856600D02*
X4225700D01*
X2755700D02*
Y6691600D01*
X4225700D01*
Y6199100D02*
Y6691600D01*
Y3656100D02*
X5244700D01*
Y6199100D01*
X4225700D02*
X5244700D01*
D29*
X3263900Y2539951D02*
Y2387600D01*
X3340075D01*
X3365467Y2412992D01*
Y2514559D01*
X3340075Y2539951D01*
X3263900D01*
X3517818Y2514559D02*
X3492426Y2539951D01*
X3441643D01*
X3416251Y2514559D01*
Y2412992D01*
X3441643Y2387600D01*
X3492426D01*
X3517818Y2412992D01*
X3568601Y2387600D02*
Y2539951D01*
X3644777D01*
X3670169Y2514559D01*
Y2463775D01*
X3644777Y2438383D01*
X3568601D01*
X3619385D02*
X3670169Y2387600D01*
X11429967Y6921459D02*
X11404575Y6946851D01*
X11353792D01*
X11328400Y6921459D01*
Y6819892D01*
X11353792Y6794500D01*
X11404575D01*
X11429967Y6819892D01*
Y6870675D01*
X11379183D01*
X11480751Y6794500D02*
Y6946851D01*
X11582318Y6794500D01*
Y6946851D01*
X11633101D02*
Y6794500D01*
X11709277D01*
X11734669Y6819892D01*
Y6921459D01*
X11709277Y6946851D01*
X11633101D01*
X10426733Y6832583D02*
X10401341Y6857975D01*
X10350558D01*
X10325166Y6832583D01*
Y6731017D01*
X10350558Y6705625D01*
X10401341D01*
X10426733Y6731017D01*
Y6781800D01*
X10375949D01*
X10477517Y6705625D02*
Y6857975D01*
X10553692D01*
X10579084Y6832583D01*
Y6781800D01*
X10553692Y6756408D01*
X10477517D01*
X10731434Y6832583D02*
X10706043Y6857975D01*
X10655259D01*
X10629867Y6832583D01*
Y6807192D01*
X10655259Y6781800D01*
X10706043D01*
X10731434Y6756408D01*
Y6731017D01*
X10706043Y6705625D01*
X10655259D01*
X10629867Y6731017D01*
X5613490Y6769067D02*
Y6667500D01*
X5664274Y6616717D01*
X5715058Y6667500D01*
Y6769067D01*
X5765841Y6616717D02*
Y6769067D01*
X5842017D01*
X5867408Y6743675D01*
Y6692892D01*
X5842017Y6667500D01*
X5765841D01*
X5816625D02*
X5867408Y6616717D01*
X5994367D02*
X5943584D01*
X5918192Y6642108D01*
Y6692892D01*
X5943584Y6718284D01*
X5994367D01*
X6019759Y6692892D01*
Y6667500D01*
X5918192D01*
X6121326Y6565933D02*
X6146718D01*
X6172110Y6591325D01*
Y6718284D01*
X6095934D01*
X6070543Y6692892D01*
Y6642108D01*
X6095934Y6616717D01*
X6172110D01*
X4838807Y2603525D02*
Y2705092D01*
X4889590Y2755875D01*
X4940374Y2705092D01*
Y2603525D01*
Y2679700D01*
X4838807D01*
X5092725Y2705092D02*
X5016550D01*
X4991158Y2679700D01*
Y2628917D01*
X5016550Y2603525D01*
X5092725D01*
X5245076Y2705092D02*
X5168900D01*
X5143508Y2679700D01*
Y2628917D01*
X5168900Y2603525D01*
X5245076D01*
X5372034D02*
X5321251D01*
X5295859Y2628917D01*
Y2679700D01*
X5321251Y2705092D01*
X5372034D01*
X5397426Y2679700D01*
Y2654308D01*
X5295859D01*
X5448210Y2603525D02*
X5498993D01*
X5473602D01*
Y2755875D01*
X5448210D01*
X11963610Y2641567D02*
X12065177D01*
X12014393D01*
Y2489217D01*
X12192136D02*
X12141352D01*
X12115960Y2514608D01*
Y2565392D01*
X12141352Y2590784D01*
X12192136D01*
X12217528Y2565392D01*
Y2540000D01*
X12115960D01*
X12344486Y2489217D02*
X12293703D01*
X12268311Y2514608D01*
Y2565392D01*
X12293703Y2590784D01*
X12344486D01*
X12369878Y2565392D01*
Y2540000D01*
X12268311D01*
X12420662Y2489217D02*
Y2590784D01*
X12496837D01*
X12522229Y2565392D01*
Y2489217D01*
X12573012D02*
X12649188D01*
X12674580Y2514608D01*
X12649188Y2540000D01*
X12598404D01*
X12573012Y2565392D01*
X12598404Y2590784D01*
X12674580D01*
X12725363D02*
Y2514608D01*
X12750755Y2489217D01*
X12826930D01*
Y2463825D01*
X12801540Y2438433D01*
X12776147D01*
X12826930Y2489217D02*
Y2590784D01*
X12953889Y2489217D02*
Y2641567D01*
X12877715Y2565392D01*
X12979282D01*
X13030064Y2489217D02*
Y2514608D01*
X13055457D01*
Y2489217D01*
X13030064D01*
X13157024Y2616175D02*
X13182414Y2641567D01*
X13233199D01*
X13258591Y2616175D01*
Y2514608D01*
X13233199Y2489217D01*
X13182414D01*
X13157024Y2514608D01*
Y2616175D01*
X8979101Y2590783D02*
X8953710Y2616175D01*
X8902926D01*
X8877534Y2590783D01*
Y2489217D01*
X8902926Y2463825D01*
X8953710D01*
X8979101Y2489217D01*
X9029885Y2463825D02*
Y2565392D01*
X9080668Y2616175D01*
X9131452Y2565392D01*
Y2463825D01*
Y2540000D01*
X9029885D01*
X9182236Y2463825D02*
Y2616175D01*
X9283803Y2463825D01*
Y2616175D01*
X9486937Y2463825D02*
Y2616175D01*
X9537721Y2565392D01*
X9588504Y2616175D01*
Y2463825D01*
X9664680D02*
X9715463D01*
X9740855Y2489217D01*
Y2540000D01*
X9715463Y2565392D01*
X9664680D01*
X9639288Y2540000D01*
Y2489217D01*
X9664680Y2463825D01*
X9893206Y2616175D02*
Y2463825D01*
X9817030D01*
X9791639Y2489217D01*
Y2540000D01*
X9817030Y2565392D01*
X9893206D01*
X9943989D02*
Y2489217D01*
X9969381Y2463825D01*
X10045556D01*
Y2565392D01*
X10096340Y2463825D02*
X10147123D01*
X10121732D01*
Y2616175D01*
X10096340D01*
X10299474Y2463825D02*
X10248691D01*
X10223299Y2489217D01*
Y2540000D01*
X10248691Y2565392D01*
X10299474D01*
X10324866Y2540000D01*
Y2514608D01*
X10223299D01*
X4394217Y6273825D02*
Y6426175D01*
X4318041Y6350000D01*
X4419608D01*
X4470392Y6273825D02*
Y6426175D01*
X4546567D01*
X4571959Y6400783D01*
Y6350000D01*
X4546567Y6324608D01*
X4470392D01*
%TF.MD5,d9122f8bd29e9e1cf47f6991d44e85b6*%
M02*
