%TF.GenerationSoftware,Altium Limited,Altium Designer,25.1.2 (22)*%
G04 Layer_Color=16711935*
%FSLAX45Y45*%
%MOMM*%
%TF.SameCoordinates,757FA7A9-4291-4AF8-8684-A19F9D108C22*%
%TF.FilePolarity,Negative*%
%TF.FileFunction,Soldermask,Bot*%
%TF.Part,Single*%
G01*
G75*
%TA.AperFunction,ComponentPad*%
%ADD11R,1.90500X1.77800*%
%ADD12O,1.90500X1.77800*%
%ADD13O,3.04800X1.77800*%
%ADD16R,3.04800X1.77800*%
%ADD31O,3.25120X1.98120*%
%ADD32C,3.40320*%
%ADD33O,5.28320X2.10820*%
%TA.AperFunction,ViaPad*%
%ADD34C,1.72720*%
%TA.AperFunction,ComponentPad*%
%ADD35C,4.01320*%
%ADD36R,4.01320X4.01320*%
%ADD37C,3.19320*%
%TA.AperFunction,ViaPad*%
%ADD38C,1.47320*%
%TA.AperFunction,ComponentPad*%
%ADD39C,2.23520*%
%ADD40O,3.25120X1.98120*%
D11*
X11163300Y4191000D02*
D03*
D12*
Y4445000D02*
D03*
Y4699000D02*
D03*
Y4953000D02*
D03*
Y5207000D02*
D03*
Y5461000D02*
D03*
Y5715000D02*
D03*
Y5969000D02*
D03*
Y6223000D02*
D03*
Y6477000D02*
D03*
D13*
X5905500Y5761800D02*
D03*
Y6011800D02*
D03*
Y6261800D02*
D03*
D16*
Y5511800D02*
D03*
D31*
X7594600Y3187700D02*
D03*
Y3441700D02*
D03*
Y3695700D02*
D03*
Y3949700D02*
D03*
Y4203700D02*
D03*
Y4457700D02*
D03*
X5816600Y3187700D02*
D03*
Y3441700D02*
D03*
Y3695700D02*
D03*
Y3949700D02*
D03*
Y4203700D02*
D03*
Y4457700D02*
D03*
D32*
Y2806700D02*
D03*
Y4838700D02*
D03*
X7594600Y2806700D02*
D03*
Y4838700D02*
D03*
D33*
X10287000Y3644900D02*
D03*
Y3390900D02*
D03*
Y3136900D02*
D03*
Y2882900D02*
D03*
X8890000Y3136900D02*
D03*
Y3390900D02*
D03*
D34*
X13716000Y2590800D02*
D03*
Y7048500D02*
D03*
X2895600Y7061200D02*
D03*
Y2590800D02*
D03*
D35*
X4940700Y4705100D02*
D03*
X4305700D02*
D03*
Y5150100D02*
D03*
D36*
X4940700D02*
D03*
D37*
X4838700Y4062600D02*
D03*
Y5792600D02*
D03*
X3695700Y4927600D02*
D03*
D38*
X13004800Y4826000D02*
D03*
X11531600Y6667500D02*
D03*
D39*
X11899900Y2908300D02*
D03*
X13423900D02*
D03*
X12153900D02*
D03*
X12407900D02*
D03*
X12661900D02*
D03*
X12915900D02*
D03*
X13169901D02*
D03*
D40*
X11899900Y3162300D02*
D03*
Y3416300D02*
D03*
Y3670300D02*
D03*
Y3924300D02*
D03*
Y4178300D02*
D03*
Y4432300D02*
D03*
Y4686300D02*
D03*
Y4940300D02*
D03*
Y5194300D02*
D03*
Y5448300D02*
D03*
Y5702300D02*
D03*
Y5956300D02*
D03*
Y6210300D02*
D03*
X13423900Y3162300D02*
D03*
Y3416300D02*
D03*
Y3670300D02*
D03*
Y3924300D02*
D03*
Y4178300D02*
D03*
Y4432300D02*
D03*
Y4686300D02*
D03*
Y4940300D02*
D03*
Y5194300D02*
D03*
Y5448300D02*
D03*
Y5702300D02*
D03*
Y5956300D02*
D03*
Y6210300D02*
D03*
%TF.MD5,87e9d2ba9c228b0e881390ed693c055c*%
M02*
