%TF.GenerationSoftware,Altium Limited,Altium Designer,25.1.2 (22)*%
G04 Layer_Physical_Order=1*
G04 Layer_Color=255*
%FSLAX45Y45*%
%MOMM*%
%TF.SameCoordinates,757FA7A9-4291-4AF8-8684-A19F9D108C22*%
%TF.FilePolarity,Positive*%
%TF.FileFunction,Copper,L1,Top,Signal*%
%TF.Part,Single*%
G01*
G75*
%TA.AperFunction,Conductor*%
%ADD10C,0.25400*%
%TA.AperFunction,ComponentPad*%
%ADD11R,1.90500X1.77800*%
%ADD12O,1.90500X1.77800*%
%ADD13O,3.04800X1.77800*%
%ADD14C,3.20000*%
%ADD15O,5.08000X1.90500*%
%ADD16R,3.04800X1.77800*%
%TA.AperFunction,ViaPad*%
%ADD17C,1.52400*%
%TA.AperFunction,ComponentPad*%
%ADD18C,3.81000*%
%ADD19R,3.81000X3.81000*%
%ADD20C,2.99000*%
%TA.AperFunction,ViaPad*%
%ADD21C,1.27000*%
D10*
X11163300Y3644900D02*
X11569700Y4051300D01*
X10287000Y3644900D02*
X11163300D01*
X11569700Y4051300D02*
X12230100D01*
X13004800Y4826000D01*
X11531600Y5880100D02*
Y6667500D01*
X11366500Y5715000D02*
X11531600Y5880100D01*
X11163300Y5715000D02*
X11366500D01*
X9163050Y4610100D02*
X10128250Y3644900D01*
X5816600Y4457700D02*
X5969000Y4610100D01*
X9163050D01*
X10128250Y3644900D02*
X10287000D01*
D11*
X11163300Y4191000D02*
D03*
D12*
Y4445000D02*
D03*
Y4699000D02*
D03*
Y4953000D02*
D03*
Y5207000D02*
D03*
Y5461000D02*
D03*
Y5715000D02*
D03*
Y5969000D02*
D03*
Y6223000D02*
D03*
Y6477000D02*
D03*
D13*
X7594600Y3187700D02*
D03*
Y3441700D02*
D03*
Y3695700D02*
D03*
Y3949700D02*
D03*
Y4203700D02*
D03*
Y4457700D02*
D03*
X5816600Y3187700D02*
D03*
Y3441700D02*
D03*
Y3695700D02*
D03*
Y3949700D02*
D03*
Y4203700D02*
D03*
Y4457700D02*
D03*
X5905500Y5761800D02*
D03*
Y6011800D02*
D03*
Y6261800D02*
D03*
D14*
X5816600Y2806700D02*
D03*
Y4838700D02*
D03*
X7594600Y2806700D02*
D03*
Y4838700D02*
D03*
D15*
X10287000Y3644900D02*
D03*
D16*
X5905500Y5511800D02*
D03*
D17*
X13716000Y2590800D02*
D03*
Y7048500D02*
D03*
X2895600Y7061200D02*
D03*
Y2590800D02*
D03*
D18*
X4940700Y4705100D02*
D03*
X4305700D02*
D03*
Y5150100D02*
D03*
D19*
X4940700D02*
D03*
D20*
X4838700Y4062600D02*
D03*
Y5792600D02*
D03*
X3695700Y4927600D02*
D03*
D21*
X13004800Y4826000D02*
D03*
X11531600Y6667500D02*
D03*
%TF.MD5,0a7debc20713423546b5134390f58fde*%
M02*
