%TF.GenerationSoftware,Altium Limited,Altium Designer,25.1.2 (22)*%
G04 Layer_Physical_Order=2*
G04 Layer_Color=16711680*
%FSLAX45Y45*%
%MOMM*%
%TF.SameCoordinates,757FA7A9-4291-4AF8-8684-A19F9D108C22*%
%TF.FilePolarity,Positive*%
%TF.FileFunction,Copper,L2,Bot,Signal*%
%TF.Part,Single*%
G01*
G75*
%TA.AperFunction,Conductor*%
%ADD10C,0.25400*%
%TA.AperFunction,ComponentPad*%
%ADD11R,1.90500X1.77800*%
%ADD12O,1.90500X1.77800*%
%ADD13O,3.04800X1.77800*%
%ADD14C,3.20000*%
%ADD15O,5.08000X1.90500*%
%ADD16R,3.04800X1.77800*%
%TA.AperFunction,ViaPad*%
%ADD17C,1.52400*%
%TA.AperFunction,ComponentPad*%
%ADD18C,3.81000*%
%ADD19R,3.81000X3.81000*%
%ADD20C,2.99000*%
%TA.AperFunction,ViaPad*%
%ADD21C,1.27000*%
%TA.AperFunction,ComponentPad*%
%ADD22C,2.03200*%
%ADD23O,3.04800X1.77800*%
G36*
X11740480Y6019053D02*
X11736559Y6013943D01*
X11725042Y5986138D01*
X11721114Y5956300D01*
X11725042Y5926462D01*
X11733415Y5906247D01*
X11723792Y5886265D01*
X11718209Y5880847D01*
X11278096D01*
X11265570Y5906247D01*
X11269491Y5911357D01*
X11277277Y5930153D01*
X11415495D01*
X11430361Y5933111D01*
X11442963Y5941531D01*
X11545885Y6044453D01*
X11727954D01*
X11740480Y6019053D01*
D02*
G37*
G36*
X11743236Y5797948D02*
X11750225Y5777753D01*
X11736559Y5759943D01*
X11725042Y5732138D01*
X11721114Y5702300D01*
X11725042Y5672462D01*
X11733415Y5652247D01*
X11723792Y5632265D01*
X11718209Y5626847D01*
X11278096D01*
X11265570Y5652247D01*
X11269491Y5657357D01*
X11281008Y5685162D01*
X11283264Y5702300D01*
X11163300D01*
X11043336D01*
X11045592Y5685162D01*
X11057109Y5657357D01*
X11061030Y5652247D01*
X11048504Y5626847D01*
X11010900D01*
X10996034Y5623889D01*
X10983431Y5615469D01*
X10780231Y5412269D01*
X10771811Y5399666D01*
X10768853Y5384800D01*
Y3260941D01*
X10574857Y3066944D01*
X10553324Y3081332D01*
X10563295Y3105404D01*
X10567441Y3136900D01*
X10563295Y3168396D01*
X10554182Y3190395D01*
X10670069Y3306281D01*
X10678489Y3318884D01*
X10681447Y3333750D01*
Y5610009D01*
X10874591Y5803153D01*
X11048504D01*
X11061030Y5777753D01*
X11057109Y5772643D01*
X11045592Y5744838D01*
X11043336Y5727700D01*
X11163300D01*
X11283264D01*
X11281008Y5744838D01*
X11269491Y5772643D01*
X11265570Y5777753D01*
X11278096Y5803153D01*
X11738946D01*
X11743236Y5797948D01*
D02*
G37*
G36*
Y5543948D02*
X11750225Y5523753D01*
X11736559Y5505943D01*
X11725042Y5478138D01*
X11721114Y5448300D01*
X11725042Y5418462D01*
X11736559Y5390657D01*
X11754880Y5366780D01*
X11778757Y5348459D01*
X11806562Y5336942D01*
X11828076Y5334110D01*
Y5308490D01*
X11806562Y5305658D01*
X11778757Y5294141D01*
X11754880Y5275820D01*
X11736559Y5251943D01*
X11725042Y5224138D01*
X11721114Y5194300D01*
X11725042Y5164462D01*
X11736559Y5136657D01*
X11754880Y5112780D01*
X11778757Y5094459D01*
X11806562Y5082942D01*
X11828076Y5080110D01*
Y5054490D01*
X11806562Y5051658D01*
X11778757Y5040141D01*
X11754880Y5021820D01*
X11736559Y4997943D01*
X11725042Y4970138D01*
X11724201Y4963752D01*
X11697384Y4954649D01*
X11417564Y5234469D01*
X11404961Y5242889D01*
X11390095Y5245847D01*
X11277277D01*
X11269491Y5264643D01*
X11251170Y5288520D01*
X11227293Y5306841D01*
X11199488Y5318358D01*
X11177974Y5321190D01*
Y5346810D01*
X11199488Y5349642D01*
X11227293Y5361159D01*
X11251170Y5379480D01*
X11269491Y5403357D01*
X11281008Y5431162D01*
X11284936Y5461000D01*
X11281008Y5490838D01*
X11269491Y5518643D01*
X11265570Y5523753D01*
X11278096Y5549153D01*
X11738946D01*
X11743236Y5543948D01*
D02*
G37*
G36*
X11075430Y5379480D02*
X11099307Y5361159D01*
X11127112Y5349642D01*
X11148626Y5346810D01*
Y5321190D01*
X11127112Y5318358D01*
X11099307Y5306841D01*
X11075430Y5288520D01*
X11057109Y5264643D01*
X11045592Y5236838D01*
X11041664Y5207000D01*
X11045592Y5177162D01*
X11057109Y5149357D01*
X11075430Y5125480D01*
X11099307Y5107159D01*
X11127112Y5095642D01*
X11148626Y5092810D01*
Y5067190D01*
X11127112Y5064358D01*
X11099307Y5052841D01*
X11075430Y5034520D01*
X11057109Y5010643D01*
X11045592Y4982838D01*
X11041664Y4953000D01*
X11045592Y4923162D01*
X11057109Y4895357D01*
X11075430Y4871480D01*
X11099307Y4853159D01*
X11127112Y4841642D01*
X11148626Y4838810D01*
Y4813190D01*
X11127112Y4810358D01*
X11099307Y4798841D01*
X11075430Y4780520D01*
X11057109Y4756643D01*
X11045592Y4728838D01*
X11041664Y4699000D01*
X11045592Y4669162D01*
X11048916Y4661138D01*
X11027383Y4646750D01*
X10997084Y4677048D01*
Y5303347D01*
X11073354Y5379616D01*
X11075430Y5379480D01*
D02*
G37*
G36*
X11747775Y4794383D02*
X11753095Y4774495D01*
X11749011Y4760171D01*
X11736559Y4743943D01*
X11725042Y4716138D01*
X11721114Y4686300D01*
X11725042Y4656462D01*
X11736559Y4628657D01*
X11754880Y4604780D01*
X11778757Y4586459D01*
X11806562Y4574942D01*
X11828076Y4572110D01*
Y4546490D01*
X11806562Y4543658D01*
X11778757Y4532141D01*
X11754880Y4513820D01*
X11736559Y4489943D01*
X11725042Y4462138D01*
X11721114Y4432300D01*
X11725042Y4402462D01*
X11731580Y4386679D01*
X11710046Y4372291D01*
X11482869Y4599469D01*
X11470266Y4607889D01*
X11455400Y4610847D01*
X11278096D01*
X11265570Y4636247D01*
X11269491Y4641357D01*
X11281008Y4669162D01*
X11284936Y4699000D01*
X11281008Y4728838D01*
X11269491Y4756643D01*
X11251170Y4780520D01*
X11227293Y4798841D01*
X11199488Y4810358D01*
X11177974Y4813190D01*
Y4838810D01*
X11199488Y4841642D01*
X11227293Y4853159D01*
X11251170Y4871480D01*
X11269491Y4895357D01*
X11281008Y4923162D01*
X11284936Y4953000D01*
X11281008Y4982838D01*
X11269491Y5010643D01*
X11251170Y5034520D01*
X11227293Y5052841D01*
X11199488Y5064358D01*
X11177974Y5067190D01*
Y5092810D01*
X11199488Y5095642D01*
X11227293Y5107159D01*
X11251170Y5125480D01*
X11269491Y5149357D01*
X11277277Y5168153D01*
X11374004D01*
X11747775Y4794383D01*
D02*
G37*
G36*
X4583953Y4816909D02*
Y4597400D01*
X4586911Y4582534D01*
X4595331Y4569931D01*
X4919207Y4246056D01*
X4904819Y4224523D01*
X4889716Y4230778D01*
X4855926Y4237500D01*
X4821474D01*
X4787684Y4230778D01*
X4755854Y4217594D01*
X4727208Y4198454D01*
X4702846Y4174092D01*
X4683706Y4145446D01*
X4670522Y4113616D01*
X4663800Y4079826D01*
Y4063052D01*
X4638400Y4052531D01*
X4344547Y4346384D01*
Y4492697D01*
X4368676Y4497497D01*
X4407967Y4513772D01*
X4443328Y4537400D01*
X4473401Y4567472D01*
X4497028Y4602833D01*
X4513303Y4642124D01*
X4521600Y4683836D01*
Y4726364D01*
X4513303Y4768076D01*
X4497028Y4807367D01*
X4473401Y4842728D01*
X4443328Y4872801D01*
X4407967Y4896428D01*
X4368676Y4912703D01*
X4358883Y4914651D01*
Y4940549D01*
X4368676Y4942497D01*
X4407967Y4958772D01*
X4428423Y4972440D01*
X4583953Y4816909D01*
D02*
G37*
G36*
X13264481Y6019053D02*
X13260559Y6013943D01*
X13249042Y5986138D01*
X13245114Y5956300D01*
X13249042Y5926462D01*
X13260559Y5898657D01*
X13278880Y5874780D01*
X13302757Y5856459D01*
X13330562Y5844942D01*
X13352077Y5842110D01*
Y5816490D01*
X13330562Y5813658D01*
X13302757Y5802141D01*
X13278880Y5783820D01*
X13260559Y5759943D01*
X13249042Y5732138D01*
X13245114Y5702300D01*
X13249042Y5672462D01*
X13256828Y5653665D01*
X12977332Y5374169D01*
X12968912Y5361566D01*
X12965953Y5346700D01*
Y4906225D01*
X12950214Y4897138D01*
X12933662Y4880586D01*
X12921957Y4860314D01*
X12915900Y4837704D01*
Y4814296D01*
X12921957Y4791686D01*
X12933662Y4771414D01*
X12950214Y4754862D01*
X12970486Y4743158D01*
X12993095Y4737100D01*
X13016504D01*
X13039114Y4743158D01*
X13059386Y4754862D01*
X13075938Y4771414D01*
X13087642Y4791686D01*
X13093700Y4814296D01*
Y4837704D01*
X13087642Y4860314D01*
X13075938Y4880586D01*
X13059386Y4897138D01*
X13043646Y4906225D01*
Y5330609D01*
X13311765Y5598728D01*
X13330562Y5590942D01*
X13352077Y5588110D01*
Y5562490D01*
X13330562Y5559658D01*
X13302757Y5548141D01*
X13278880Y5529820D01*
X13260559Y5505943D01*
X13249042Y5478138D01*
X13245114Y5448300D01*
X13249042Y5418462D01*
X13260559Y5390657D01*
X13278880Y5366780D01*
X13302757Y5348459D01*
X13330562Y5336942D01*
X13352077Y5334110D01*
Y5308490D01*
X13330562Y5305658D01*
X13302757Y5294141D01*
X13278880Y5275820D01*
X13260559Y5251943D01*
X13249042Y5224138D01*
X13245114Y5194300D01*
X13249042Y5164462D01*
X13260559Y5136657D01*
X13278880Y5112780D01*
X13302757Y5094459D01*
X13330562Y5082942D01*
X13352077Y5080110D01*
Y5054490D01*
X13330562Y5051658D01*
X13302757Y5040141D01*
X13278880Y5021820D01*
X13260559Y4997943D01*
X13249042Y4970138D01*
X13245114Y4940300D01*
X13249042Y4910462D01*
X13260559Y4882657D01*
X13278880Y4858780D01*
X13302757Y4840459D01*
X13330562Y4828942D01*
X13352077Y4826110D01*
Y4800490D01*
X13330562Y4797658D01*
X13302757Y4786141D01*
X13278880Y4767820D01*
X13260559Y4743943D01*
X13249042Y4716138D01*
X13245114Y4686300D01*
X13249042Y4656462D01*
X13260559Y4628657D01*
X13278880Y4604780D01*
X13302757Y4586459D01*
X13330562Y4574942D01*
X13352077Y4572110D01*
Y4546490D01*
X13330562Y4543658D01*
X13302757Y4532141D01*
X13278880Y4513820D01*
X13260559Y4489943D01*
X13249042Y4462138D01*
X13245114Y4432300D01*
X13249042Y4402462D01*
X13260559Y4374657D01*
X13278880Y4350780D01*
X13302757Y4332459D01*
X13330562Y4320942D01*
X13352077Y4318110D01*
Y4292490D01*
X13330562Y4289658D01*
X13302757Y4278141D01*
X13278880Y4259820D01*
X13260559Y4235943D01*
X13249042Y4208138D01*
X13245114Y4178300D01*
X13249042Y4148462D01*
X13260559Y4120657D01*
X13278880Y4096780D01*
X13302757Y4078459D01*
X13330562Y4066942D01*
X13352077Y4064110D01*
Y4038490D01*
X13330562Y4035658D01*
X13302757Y4024141D01*
X13278880Y4005820D01*
X13260559Y3981943D01*
X13249042Y3954138D01*
X13245114Y3924300D01*
X13249042Y3894462D01*
X13260559Y3866657D01*
X13278880Y3842780D01*
X13302757Y3824459D01*
X13330562Y3812942D01*
X13352077Y3810110D01*
Y3784490D01*
X13330562Y3781658D01*
X13302757Y3770141D01*
X13278880Y3751820D01*
X13260559Y3727943D01*
X13249042Y3700138D01*
X13245667Y3674497D01*
X13234103Y3667459D01*
X13220335Y3663906D01*
X12052025Y4832217D01*
X12046705Y4852105D01*
X12050789Y4866429D01*
X12063241Y4882657D01*
X12074758Y4910462D01*
X12078686Y4940300D01*
X12074758Y4970138D01*
X12063241Y4997943D01*
X12044920Y5021820D01*
X12021043Y5040141D01*
X11993238Y5051658D01*
X11971724Y5054490D01*
Y5080110D01*
X11993238Y5082942D01*
X12021043Y5094459D01*
X12044920Y5112780D01*
X12063241Y5136657D01*
X12074758Y5164462D01*
X12078686Y5194300D01*
X12074758Y5224138D01*
X12063241Y5251943D01*
X12044920Y5275820D01*
X12021043Y5294141D01*
X11993238Y5305658D01*
X11971724Y5308490D01*
Y5334110D01*
X11993238Y5336942D01*
X12021043Y5348459D01*
X12044920Y5366780D01*
X12063241Y5390657D01*
X12074758Y5418462D01*
X12078686Y5448300D01*
X12074758Y5478138D01*
X12063241Y5505943D01*
X12044920Y5529820D01*
X12021043Y5548141D01*
X11993238Y5559658D01*
X11971724Y5562490D01*
Y5588110D01*
X11993238Y5590942D01*
X12021043Y5602459D01*
X12044920Y5620780D01*
X12063241Y5644657D01*
X12074758Y5672462D01*
X12078686Y5702300D01*
X12074758Y5732138D01*
X12063241Y5759943D01*
X12044920Y5783820D01*
X12021043Y5802141D01*
X11993238Y5813658D01*
X11971724Y5816490D01*
Y5842110D01*
X11993238Y5844942D01*
X12021043Y5856459D01*
X12044920Y5874780D01*
X12063241Y5898657D01*
X12074758Y5926462D01*
X12078686Y5956300D01*
X12074758Y5986138D01*
X12063241Y6013943D01*
X12059320Y6019053D01*
X12071846Y6044453D01*
X13251955D01*
X13264481Y6019053D01*
D02*
G37*
G36*
X7435180Y3758453D02*
X7431259Y3753343D01*
X7419742Y3725538D01*
X7415814Y3695700D01*
X7419742Y3665862D01*
X7431259Y3638057D01*
X7435180Y3632947D01*
X7422654Y3607547D01*
X5988546D01*
X5976020Y3632947D01*
X5979941Y3638057D01*
X5991458Y3665862D01*
X5995386Y3695700D01*
X5991458Y3725538D01*
X5979941Y3753343D01*
X5976020Y3758453D01*
X5988546Y3783853D01*
X7422654D01*
X7435180Y3758453D01*
D02*
G37*
G36*
X5370031Y3795231D02*
X5382634Y3786811D01*
X5397500Y3783853D01*
X5644654D01*
X5657180Y3758453D01*
X5653259Y3753343D01*
X5641742Y3725538D01*
X5637814Y3695700D01*
X5641742Y3665862D01*
X5653259Y3638057D01*
X5657180Y3632947D01*
X5644654Y3607547D01*
X5083384D01*
X4828631Y3862300D01*
X4839152Y3887700D01*
X4855926D01*
X4889716Y3894421D01*
X4921546Y3907606D01*
X4950192Y3926746D01*
X4974554Y3951108D01*
X4993694Y3979754D01*
X5006878Y4011584D01*
X5013600Y4045374D01*
Y4079826D01*
X5006878Y4113616D01*
X5000623Y4128719D01*
X5022156Y4143107D01*
X5370031Y3795231D01*
D02*
G37*
G36*
X13277869Y3496500D02*
X13260559Y3473943D01*
X13249042Y3446138D01*
X13245114Y3416300D01*
X13249042Y3386462D01*
X13260559Y3358657D01*
X13278880Y3334780D01*
X13302757Y3316459D01*
X13330562Y3304942D01*
X13352077Y3302110D01*
Y3276490D01*
X13330562Y3273658D01*
X13311765Y3265872D01*
X12244869Y4332769D01*
X12232266Y4341189D01*
X12217400Y4344147D01*
X12071846D01*
X12059320Y4369547D01*
X12063241Y4374657D01*
X12074758Y4402462D01*
X12078686Y4432300D01*
X12074758Y4462138D01*
X12063241Y4489943D01*
X12044920Y4513820D01*
X12021043Y4532141D01*
X11993238Y4543658D01*
X11971724Y4546490D01*
Y4572110D01*
X11993238Y4574942D01*
X12021043Y4586459D01*
X12044920Y4604780D01*
X12063241Y4628657D01*
X12074758Y4656462D01*
X12075599Y4662848D01*
X12102416Y4671951D01*
X13277869Y3496500D01*
D02*
G37*
G36*
X8443432Y3363431D02*
X8456034Y3355011D01*
X8470900Y3352053D01*
X8616750D01*
X8625862Y3330054D01*
X8645201Y3304851D01*
X8670404Y3285512D01*
X8689394Y3277646D01*
Y3250154D01*
X8670404Y3242288D01*
X8645201Y3222949D01*
X8625862Y3197746D01*
X8616750Y3175747D01*
X8486991D01*
X8066569Y3596169D01*
X8053966Y3604589D01*
X8039100Y3607547D01*
X7766546D01*
X7754020Y3632947D01*
X7757941Y3638057D01*
X7769458Y3665862D01*
X7773386Y3695700D01*
X7769458Y3725538D01*
X7757941Y3753343D01*
X7754020Y3758453D01*
X7766546Y3783853D01*
X8023010D01*
X8443432Y3363431D01*
D02*
G37*
G36*
X13256828Y3210935D02*
X13249042Y3192138D01*
X13245114Y3162300D01*
X13249042Y3132462D01*
X13260559Y3104657D01*
X13278880Y3080780D01*
X13302757Y3062459D01*
X13330562Y3050942D01*
X13359554Y3047125D01*
X13360741Y3045517D01*
X13366165Y3021614D01*
X13345920Y3009925D01*
X13322275Y2986280D01*
X13310823Y2966444D01*
X13310439Y2966289D01*
X13283360D01*
X13282977Y2966444D01*
X13271526Y2986280D01*
X13247881Y3009925D01*
X13218919Y3026645D01*
X13186620Y3035300D01*
X13153180D01*
X13120880Y3026645D01*
X13091920Y3009925D01*
X13068275Y2986280D01*
X13056824Y2966444D01*
X13056439Y2966289D01*
X13029361D01*
X13028976Y2966444D01*
X13017525Y2986280D01*
X12993880Y3009925D01*
X12964920Y3026645D01*
X12932620Y3035300D01*
X12899181D01*
X12866879Y3026645D01*
X12837920Y3009925D01*
X12814275Y2986280D01*
X12802823Y2966444D01*
X12802438Y2966289D01*
X12775361D01*
X12774977Y2966444D01*
X12763525Y2986280D01*
X12739880Y3009925D01*
X12710920Y3026645D01*
X12678620Y3035300D01*
X12645180D01*
X12612880Y3026645D01*
X12583920Y3009925D01*
X12560275Y2986280D01*
X12548823Y2966444D01*
X12548439Y2966289D01*
X12521361D01*
X12520977Y2966444D01*
X12509525Y2986280D01*
X12485880Y3009925D01*
X12456920Y3026645D01*
X12424620Y3035300D01*
X12391180D01*
X12358880Y3026645D01*
X12329920Y3009925D01*
X12306275Y2986280D01*
X12294823Y2966444D01*
X12294439Y2966289D01*
X12267361D01*
X12266977Y2966444D01*
X12255525Y2986280D01*
X12231880Y3009925D01*
X12202920Y3026645D01*
X12170620Y3035300D01*
X12137180D01*
X12104880Y3026645D01*
X12075920Y3009925D01*
X12052275Y2986280D01*
X12040823Y2966444D01*
X12040439Y2966289D01*
X12013361D01*
X12012977Y2966444D01*
X12001525Y2986280D01*
X11977880Y3009925D01*
X11957635Y3021614D01*
X11963060Y3045517D01*
X11964247Y3047125D01*
X11993238Y3050942D01*
X12021043Y3062459D01*
X12044920Y3080780D01*
X12063241Y3104657D01*
X12074758Y3132462D01*
X12078686Y3162300D01*
X12074758Y3192138D01*
X12063241Y3219943D01*
X12044920Y3243820D01*
X12021043Y3262141D01*
X11993238Y3273658D01*
X11971724Y3276490D01*
Y3302110D01*
X11993238Y3304942D01*
X12021043Y3316459D01*
X12044920Y3334780D01*
X12063241Y3358657D01*
X12074758Y3386462D01*
X12078686Y3416300D01*
X12074758Y3446138D01*
X12063241Y3473943D01*
X12044920Y3497820D01*
X12021043Y3516141D01*
X11993238Y3527658D01*
X11971724Y3530490D01*
Y3556110D01*
X11993238Y3558942D01*
X12021043Y3570459D01*
X12044920Y3588780D01*
X12063241Y3612657D01*
X12074758Y3640462D01*
X12078686Y3670300D01*
X12074758Y3700138D01*
X12063241Y3727943D01*
X12044920Y3751820D01*
X12021043Y3770141D01*
X11993238Y3781658D01*
X11971724Y3784490D01*
Y3810110D01*
X11993238Y3812942D01*
X12021043Y3824459D01*
X12044920Y3842780D01*
X12063241Y3866657D01*
X12074758Y3894462D01*
X12078686Y3924300D01*
X12074758Y3954138D01*
X12063241Y3981943D01*
X12044920Y4005820D01*
X12021043Y4024141D01*
X11993238Y4035658D01*
X11971724Y4038490D01*
Y4064110D01*
X11993238Y4066942D01*
X12021043Y4078459D01*
X12044920Y4096780D01*
X12063241Y4120657D01*
X12074758Y4148462D01*
X12078686Y4178300D01*
X12074758Y4208138D01*
X12063241Y4235943D01*
X12059320Y4241053D01*
X12071846Y4266453D01*
X12201309D01*
X13256828Y3210935D01*
D02*
G37*
G36*
X13842999Y6451600D02*
Y2921000D01*
X13694475Y2772475D01*
X13684396Y2773137D01*
X13674574Y2799237D01*
X13679968Y2804631D01*
X13688390Y2817234D01*
X13691347Y2832100D01*
Y3505200D01*
X13688390Y3520066D01*
X13679968Y3532669D01*
X13590971Y3621665D01*
X13598758Y3640462D01*
X13602686Y3670300D01*
X13598758Y3700138D01*
X13587241Y3727943D01*
X13568919Y3751820D01*
X13545042Y3770141D01*
X13517238Y3781658D01*
X13495724Y3784490D01*
Y3810110D01*
X13517238Y3812942D01*
X13545042Y3824459D01*
X13568919Y3842780D01*
X13587241Y3866657D01*
X13598758Y3894462D01*
X13602686Y3924300D01*
X13598758Y3954138D01*
X13587241Y3981943D01*
X13568919Y4005820D01*
X13545042Y4024141D01*
X13517238Y4035658D01*
X13495724Y4038490D01*
Y4064110D01*
X13517238Y4066942D01*
X13545042Y4078459D01*
X13568919Y4096780D01*
X13587241Y4120657D01*
X13598758Y4148462D01*
X13602686Y4178300D01*
X13598758Y4208138D01*
X13587241Y4235943D01*
X13568919Y4259820D01*
X13545042Y4278141D01*
X13517238Y4289658D01*
X13495724Y4292490D01*
Y4318110D01*
X13517238Y4320942D01*
X13545042Y4332459D01*
X13568919Y4350780D01*
X13587241Y4374657D01*
X13598758Y4402462D01*
X13602686Y4432300D01*
X13598758Y4462138D01*
X13587241Y4489943D01*
X13568919Y4513820D01*
X13545042Y4532141D01*
X13517238Y4543658D01*
X13495724Y4546490D01*
Y4572110D01*
X13517238Y4574942D01*
X13545042Y4586459D01*
X13568919Y4604780D01*
X13587241Y4628657D01*
X13598758Y4656462D01*
X13602686Y4686300D01*
X13598758Y4716138D01*
X13587241Y4743943D01*
X13568919Y4767820D01*
X13545042Y4786141D01*
X13517238Y4797658D01*
X13495724Y4800490D01*
Y4826110D01*
X13517238Y4828942D01*
X13545042Y4840459D01*
X13568919Y4858780D01*
X13587241Y4882657D01*
X13598758Y4910462D01*
X13602686Y4940300D01*
X13598758Y4970138D01*
X13587241Y4997943D01*
X13568919Y5021820D01*
X13545042Y5040141D01*
X13517238Y5051658D01*
X13495724Y5054490D01*
Y5080110D01*
X13517238Y5082942D01*
X13545042Y5094459D01*
X13568919Y5112780D01*
X13587241Y5136657D01*
X13598758Y5164462D01*
X13602686Y5194300D01*
X13598758Y5224138D01*
X13587241Y5251943D01*
X13568919Y5275820D01*
X13545042Y5294141D01*
X13517238Y5305658D01*
X13495724Y5308490D01*
Y5334110D01*
X13517238Y5336942D01*
X13545042Y5348459D01*
X13568919Y5366780D01*
X13587241Y5390657D01*
X13598758Y5418462D01*
X13602686Y5448300D01*
X13598758Y5478138D01*
X13587241Y5505943D01*
X13568919Y5529820D01*
X13545042Y5548141D01*
X13517238Y5559658D01*
X13495724Y5562490D01*
Y5588110D01*
X13517238Y5590942D01*
X13545042Y5602459D01*
X13568919Y5620780D01*
X13587241Y5644657D01*
X13598758Y5672462D01*
X13602686Y5702300D01*
X13598758Y5732138D01*
X13587241Y5759943D01*
X13568919Y5783820D01*
X13545042Y5802141D01*
X13517238Y5813658D01*
X13495724Y5816490D01*
Y5842110D01*
X13517238Y5844942D01*
X13545042Y5856459D01*
X13568919Y5874780D01*
X13587241Y5898657D01*
X13598758Y5926462D01*
X13602686Y5956300D01*
X13598758Y5986138D01*
X13587241Y6013943D01*
X13568919Y6037820D01*
X13545042Y6056141D01*
X13517238Y6067658D01*
X13495724Y6070490D01*
Y6096110D01*
X13517238Y6098942D01*
X13545042Y6110459D01*
X13568919Y6128780D01*
X13587241Y6152657D01*
X13598758Y6180462D01*
X13602686Y6210300D01*
X13598758Y6240138D01*
X13587241Y6267943D01*
X13568919Y6291820D01*
X13545042Y6310141D01*
X13517238Y6321658D01*
X13487399Y6325586D01*
X13360400D01*
X13330562Y6321658D01*
X13302757Y6310141D01*
X13278880Y6291820D01*
X13260559Y6267943D01*
X13249042Y6240138D01*
X13245114Y6210300D01*
X13249042Y6180462D01*
X13260559Y6152657D01*
X13264481Y6147547D01*
X13251955Y6122147D01*
X12071846D01*
X12059320Y6147547D01*
X12063241Y6152657D01*
X12074758Y6180462D01*
X12077014Y6197600D01*
X11722786D01*
X11725042Y6180462D01*
X11736559Y6152657D01*
X11740480Y6147547D01*
X11727954Y6122147D01*
X11529795D01*
X11514929Y6119189D01*
X11502326Y6110769D01*
X11399404Y6007847D01*
X11277277D01*
X11269491Y6026643D01*
X11251170Y6050520D01*
X11227293Y6068841D01*
X11199488Y6080358D01*
X11177974Y6083190D01*
Y6108810D01*
X11199488Y6111642D01*
X11227293Y6123159D01*
X11251170Y6141480D01*
X11269491Y6165357D01*
X11281008Y6193162D01*
X11284936Y6223000D01*
X11281008Y6252838D01*
X11269491Y6280643D01*
X11251170Y6304520D01*
X11227293Y6322841D01*
X11199488Y6334358D01*
X11177974Y6337190D01*
Y6362810D01*
X11199488Y6365642D01*
X11227293Y6377159D01*
X11251170Y6395480D01*
X11269491Y6419357D01*
X11281008Y6447162D01*
X11284936Y6477000D01*
X11281008Y6506838D01*
X11269491Y6534643D01*
X11251170Y6558520D01*
X11227293Y6576841D01*
X11199488Y6588358D01*
X11169650Y6592286D01*
X11156950D01*
X11127112Y6588358D01*
X11099307Y6576841D01*
X11075430Y6558520D01*
X11057109Y6534643D01*
X11045592Y6506838D01*
X11041664Y6477000D01*
X11045592Y6447162D01*
X11057109Y6419357D01*
X11075430Y6395480D01*
X11099307Y6377159D01*
X11127112Y6365642D01*
X11148626Y6362810D01*
Y6337190D01*
X11127112Y6334358D01*
X11099307Y6322841D01*
X11075430Y6304520D01*
X11057109Y6280643D01*
X11045592Y6252838D01*
X11041664Y6223000D01*
X11045592Y6193162D01*
X11057109Y6165357D01*
X11075430Y6141480D01*
X11099307Y6123159D01*
X11127112Y6111642D01*
X11148626Y6108810D01*
Y6083190D01*
X11127112Y6080358D01*
X11099307Y6068841D01*
X11075430Y6050520D01*
X11057109Y6026643D01*
X11049323Y6007847D01*
X8420100D01*
X8405234Y6004889D01*
X8392631Y5996469D01*
X8196809Y5800647D01*
X6076627D01*
X6068841Y5819443D01*
X6050520Y5843320D01*
X6026643Y5861641D01*
X5998838Y5873158D01*
X5992515Y5873990D01*
Y5899610D01*
X5998838Y5900442D01*
X6026643Y5911959D01*
X6050520Y5930280D01*
X6068841Y5954157D01*
X6080358Y5981962D01*
X6084286Y6011800D01*
X6080358Y6041638D01*
X6068841Y6069443D01*
X6050520Y6093320D01*
X6026643Y6111641D01*
X5998838Y6123158D01*
X5992515Y6123990D01*
Y6149610D01*
X5998838Y6150442D01*
X6026643Y6161959D01*
X6050520Y6180280D01*
X6068841Y6204157D01*
X6080358Y6231962D01*
X6084286Y6261800D01*
X6080358Y6291638D01*
X6068841Y6319443D01*
X6050520Y6343320D01*
X6026643Y6361641D01*
X5998838Y6373158D01*
X5969000Y6377086D01*
X5842000D01*
X5812162Y6373158D01*
X5784357Y6361641D01*
X5760480Y6343320D01*
X5742159Y6319443D01*
X5730642Y6291638D01*
X5726714Y6261800D01*
X5730642Y6231962D01*
X5742159Y6204157D01*
X5760480Y6180280D01*
X5784357Y6161959D01*
X5812162Y6150442D01*
X5818485Y6149610D01*
Y6123990D01*
X5812162Y6123158D01*
X5784357Y6111641D01*
X5760480Y6093320D01*
X5742159Y6069443D01*
X5730642Y6041638D01*
X5726714Y6011800D01*
X5730642Y5981962D01*
X5738428Y5963165D01*
X5408131Y5632869D01*
X5399711Y5620266D01*
X5396753Y5605400D01*
Y5216091D01*
X5180067Y4999404D01*
X5156600Y5009124D01*
Y5137400D01*
X4724800D01*
Y4934200D01*
X4863249D01*
X4868301Y4908800D01*
X4838433Y4896428D01*
X4803072Y4872801D01*
X4773000Y4842728D01*
X4749372Y4807367D01*
X4733097Y4768076D01*
X4724800Y4726364D01*
Y4683836D01*
X4733097Y4642124D01*
X4749372Y4602833D01*
X4773000Y4567472D01*
X4803072Y4537400D01*
X4838433Y4513772D01*
X4877724Y4497497D01*
X4919436Y4489200D01*
X4961964D01*
X5003676Y4497497D01*
X5042967Y4513772D01*
X5078328Y4537400D01*
X5108401Y4567472D01*
X5132028Y4602833D01*
X5148303Y4642124D01*
X5156600Y4683836D01*
Y4726364D01*
X5148303Y4768076D01*
X5132028Y4807367D01*
X5118360Y4827823D01*
X5463069Y5172531D01*
X5471489Y5185134D01*
X5474447Y5200000D01*
Y5589309D01*
X5728488Y5843351D01*
X5747626Y5826568D01*
X5742159Y5819443D01*
X5730642Y5791638D01*
X5726714Y5761800D01*
X5730642Y5731962D01*
X5742159Y5704157D01*
X5760480Y5680280D01*
X5784357Y5661959D01*
X5812161Y5650442D01*
X5807390Y5626100D01*
X5727700D01*
Y5524500D01*
X5905500D01*
X6083300D01*
Y5626100D01*
X6003610D01*
X5998839Y5650442D01*
X6026643Y5661959D01*
X6050520Y5680280D01*
X6068841Y5704157D01*
X6076627Y5722954D01*
X8212900D01*
X8227766Y5725911D01*
X8240369Y5734331D01*
X8436191Y5930153D01*
X11049323D01*
X11057109Y5911357D01*
X11061030Y5906247D01*
X11048504Y5880847D01*
X10858500D01*
X10843634Y5877889D01*
X10831031Y5869469D01*
X10615131Y5653569D01*
X10606711Y5640966D01*
X10603753Y5626100D01*
Y3349841D01*
X10574857Y3320944D01*
X10553324Y3335332D01*
X10563295Y3359404D01*
X10565769Y3378200D01*
X10287000D01*
X10008231D01*
X10010705Y3359404D01*
X10022862Y3330054D01*
X10042201Y3304851D01*
X10067404Y3285512D01*
X10086394Y3277646D01*
Y3250154D01*
X10067404Y3242288D01*
X10042201Y3222949D01*
X10022862Y3197746D01*
X10010705Y3168396D01*
X10006559Y3136900D01*
X10010705Y3105404D01*
X10022862Y3076054D01*
X10042201Y3050851D01*
X10067404Y3031512D01*
X10086394Y3023646D01*
Y2996154D01*
X10067404Y2988288D01*
X10042201Y2968949D01*
X10022862Y2943746D01*
X10010705Y2914396D01*
X10006559Y2882900D01*
X10010705Y2851404D01*
X10022862Y2822054D01*
X10042201Y2796851D01*
X10067404Y2777512D01*
X10096754Y2765355D01*
X10128250Y2761209D01*
X10445750D01*
X10477246Y2765355D01*
X10506596Y2777512D01*
X10531799Y2796851D01*
X10551138Y2822054D01*
X10563295Y2851404D01*
X10567441Y2882900D01*
X10563295Y2914396D01*
X10554182Y2936395D01*
X10835169Y3217381D01*
X10843589Y3229984D01*
X10846547Y3244850D01*
Y5368709D01*
X11025111Y5547273D01*
X11050617Y5544870D01*
X11061030Y5523753D01*
X11057109Y5518643D01*
X11045592Y5490838D01*
X11041664Y5461000D01*
X11042036Y5458173D01*
X10930769Y5346906D01*
X10922348Y5334303D01*
X10919391Y5319437D01*
Y4660958D01*
X10922348Y4646092D01*
X10930769Y4633489D01*
X11019726Y4544531D01*
X11032329Y4536111D01*
X11047195Y4533153D01*
X11048504D01*
X11061030Y4507753D01*
X11057109Y4502643D01*
X11045592Y4474838D01*
X11041664Y4445000D01*
X11045592Y4415162D01*
X11057109Y4387357D01*
X11075430Y4363480D01*
X11099307Y4345159D01*
X11127112Y4333642D01*
X11149458Y4330700D01*
X11147794Y4305300D01*
X11042650D01*
Y4076700D01*
X11283950D01*
Y4305300D01*
X11178806D01*
X11177142Y4330700D01*
X11199488Y4333642D01*
X11227293Y4345159D01*
X11251170Y4363480D01*
X11269491Y4387357D01*
X11281008Y4415162D01*
X11284936Y4445000D01*
X11281008Y4474838D01*
X11269491Y4502643D01*
X11265570Y4507753D01*
X11278096Y4533153D01*
X11439309D01*
X11694631Y4277831D01*
X11707234Y4269411D01*
X11722100Y4266453D01*
X11727954D01*
X11740480Y4241053D01*
X11736559Y4235943D01*
X11725042Y4208138D01*
X11721114Y4178300D01*
X11725042Y4148462D01*
X11736559Y4120657D01*
X11754880Y4096780D01*
X11778757Y4078459D01*
X11806562Y4066942D01*
X11828076Y4064110D01*
Y4038490D01*
X11806562Y4035658D01*
X11778757Y4024141D01*
X11754880Y4005820D01*
X11736559Y3981943D01*
X11725042Y3954138D01*
X11721114Y3924300D01*
X11725042Y3894462D01*
X11736559Y3866657D01*
X11754880Y3842780D01*
X11778757Y3824459D01*
X11806562Y3812942D01*
X11828076Y3810110D01*
Y3784490D01*
X11806562Y3781658D01*
X11778757Y3770141D01*
X11754880Y3751820D01*
X11736559Y3727943D01*
X11725042Y3700138D01*
X11721114Y3670300D01*
X11725042Y3640462D01*
X11736559Y3612657D01*
X11754880Y3588780D01*
X11778757Y3570459D01*
X11806562Y3558942D01*
X11828076Y3556110D01*
Y3530490D01*
X11806562Y3527658D01*
X11778757Y3516141D01*
X11754880Y3497820D01*
X11736559Y3473943D01*
X11725042Y3446138D01*
X11721114Y3416300D01*
X11725042Y3386462D01*
X11736559Y3358657D01*
X11754880Y3334780D01*
X11778757Y3316459D01*
X11806562Y3304942D01*
X11828076Y3302110D01*
Y3276490D01*
X11806562Y3273658D01*
X11778757Y3262141D01*
X11754880Y3243820D01*
X11736559Y3219943D01*
X11725042Y3192138D01*
X11721114Y3162300D01*
X11725042Y3132462D01*
X11736559Y3104657D01*
X11754880Y3080780D01*
X11778757Y3062459D01*
X11806562Y3050942D01*
X11835553Y3047125D01*
X11836740Y3045517D01*
X11842165Y3021614D01*
X11821920Y3009925D01*
X11798275Y2986280D01*
X11781555Y2957320D01*
X11772900Y2925020D01*
Y2891580D01*
X11781555Y2859280D01*
X11798275Y2830320D01*
X11821920Y2806675D01*
X11850880Y2789955D01*
X11883180Y2781300D01*
X11916620D01*
X11948920Y2789955D01*
X11977880Y2806675D01*
X12001525Y2830320D01*
X12012977Y2850156D01*
X12013361Y2850311D01*
X12040439D01*
X12040823Y2850156D01*
X12052275Y2830320D01*
X12075920Y2806675D01*
X12104880Y2789955D01*
X12137180Y2781300D01*
X12170620D01*
X12202920Y2789955D01*
X12231880Y2806675D01*
X12255525Y2830320D01*
X12266977Y2850156D01*
X12267361Y2850311D01*
X12294439D01*
X12294823Y2850156D01*
X12306275Y2830320D01*
X12329920Y2806675D01*
X12358880Y2789955D01*
X12391180Y2781300D01*
X12424620D01*
X12456920Y2789955D01*
X12485880Y2806675D01*
X12509525Y2830320D01*
X12520977Y2850156D01*
X12521361Y2850311D01*
X12548439D01*
X12548823Y2850156D01*
X12560275Y2830320D01*
X12583920Y2806675D01*
X12612880Y2789955D01*
X12645180Y2781300D01*
X12678620D01*
X12710920Y2789955D01*
X12739880Y2806675D01*
X12763525Y2830320D01*
X12774977Y2850156D01*
X12775361Y2850311D01*
X12802438D01*
X12802823Y2850156D01*
X12814275Y2830320D01*
X12837920Y2806675D01*
X12866879Y2789955D01*
X12899181Y2781300D01*
X12932620D01*
X12964920Y2789955D01*
X12993880Y2806675D01*
X13017525Y2830320D01*
X13028976Y2850156D01*
X13029361Y2850311D01*
X13056439D01*
X13056824Y2850156D01*
X13068275Y2830320D01*
X13091920Y2806675D01*
X13120880Y2789955D01*
X13153180Y2781300D01*
X13186620D01*
X13218919Y2789955D01*
X13247881Y2806675D01*
X13271526Y2830320D01*
X13282977Y2850156D01*
X13283360Y2850311D01*
X13310439D01*
X13310823Y2850156D01*
X13322275Y2830320D01*
X13345920Y2806675D01*
X13374879Y2789955D01*
X13407179Y2781300D01*
X13440620D01*
X13472920Y2789955D01*
X13501880Y2806675D01*
X13525525Y2830320D01*
X13542245Y2859280D01*
X13550900Y2891580D01*
Y2925020D01*
X13542245Y2957320D01*
X13525525Y2986280D01*
X13501880Y3009925D01*
X13481635Y3021614D01*
X13487061Y3045517D01*
X13488248Y3047125D01*
X13517238Y3050942D01*
X13545042Y3062459D01*
X13568919Y3080780D01*
X13587241Y3104657D01*
X13588252Y3107101D01*
X13613654Y3102049D01*
Y2848191D01*
X13484009Y2718547D01*
X8410791D01*
X8097068Y3032269D01*
X8084466Y3040690D01*
X8069600Y3043647D01*
X7209390D01*
X6783869Y3469169D01*
X6771266Y3477589D01*
X6756400Y3480547D01*
X5987727D01*
X5979941Y3499343D01*
X5976020Y3504453D01*
X5988546Y3529853D01*
X7422654D01*
X7435180Y3504453D01*
X7431259Y3499343D01*
X7419742Y3471538D01*
X7415814Y3441700D01*
X7419742Y3411862D01*
X7431259Y3384057D01*
X7449580Y3360180D01*
X7473457Y3341859D01*
X7501262Y3330342D01*
X7522776Y3327510D01*
Y3301890D01*
X7501262Y3299058D01*
X7473457Y3287541D01*
X7449580Y3269220D01*
X7431259Y3245343D01*
X7419742Y3217538D01*
X7415814Y3187700D01*
X7419742Y3157862D01*
X7431259Y3130057D01*
X7449580Y3106180D01*
X7473457Y3087859D01*
X7501262Y3076342D01*
X7531100Y3072414D01*
X7658100D01*
X7687938Y3076342D01*
X7715743Y3087859D01*
X7739620Y3106180D01*
X7757941Y3130057D01*
X7769458Y3157862D01*
X7773386Y3187700D01*
X7769458Y3217538D01*
X7757941Y3245343D01*
X7739620Y3269220D01*
X7715743Y3287541D01*
X7687938Y3299058D01*
X7666424Y3301890D01*
Y3327510D01*
X7687938Y3330342D01*
X7715743Y3341859D01*
X7739620Y3360180D01*
X7757941Y3384057D01*
X7769458Y3411862D01*
X7773386Y3441700D01*
X7769458Y3471538D01*
X7757941Y3499343D01*
X7754020Y3504453D01*
X7766546Y3529853D01*
X8023010D01*
X8443432Y3109431D01*
X8456034Y3101011D01*
X8470900Y3098053D01*
X8616750D01*
X8625862Y3076054D01*
X8645201Y3050851D01*
X8670404Y3031512D01*
X8699754Y3019355D01*
X8731250Y3015209D01*
X9048750D01*
X9080246Y3019355D01*
X9109596Y3031512D01*
X9134799Y3050851D01*
X9154138Y3076054D01*
X9166295Y3105404D01*
X9170441Y3136900D01*
X9166295Y3168396D01*
X9154138Y3197746D01*
X9134799Y3222949D01*
X9109596Y3242288D01*
X9090606Y3250154D01*
Y3277646D01*
X9109596Y3285512D01*
X9134799Y3304851D01*
X9154138Y3330054D01*
X9166295Y3359404D01*
X9170441Y3390900D01*
X9166295Y3422396D01*
X9154138Y3451746D01*
X9134799Y3476949D01*
X9109596Y3496288D01*
X9080246Y3508445D01*
X9048750Y3512591D01*
X8731250D01*
X8699754Y3508445D01*
X8670404Y3496288D01*
X8645201Y3476949D01*
X8625862Y3451746D01*
X8616750Y3429747D01*
X8486991D01*
X8066569Y3850169D01*
X8053966Y3858589D01*
X8039100Y3861547D01*
X7766546D01*
X7754020Y3886947D01*
X7757941Y3892057D01*
X7769458Y3919862D01*
X7773386Y3949700D01*
X7769458Y3979538D01*
X7757941Y4007343D01*
X7739620Y4031220D01*
X7715743Y4049541D01*
X7687938Y4061058D01*
X7666424Y4063890D01*
Y4089510D01*
X7687938Y4092342D01*
X7715743Y4103859D01*
X7739620Y4122180D01*
X7757941Y4146057D01*
X7769458Y4173862D01*
X7773386Y4203700D01*
X7769458Y4233538D01*
X7757941Y4261343D01*
X7739620Y4285220D01*
X7715743Y4303541D01*
X7687938Y4315058D01*
X7666424Y4317890D01*
Y4343510D01*
X7687938Y4346342D01*
X7715743Y4357859D01*
X7739620Y4376180D01*
X7757941Y4400057D01*
X7769458Y4427862D01*
X7773386Y4457700D01*
X7769458Y4487538D01*
X7757941Y4515343D01*
X7739620Y4539220D01*
X7715743Y4557541D01*
X7687938Y4569058D01*
X7658100Y4572986D01*
X7531100D01*
X7501262Y4569058D01*
X7473457Y4557541D01*
X7449580Y4539220D01*
X7431259Y4515343D01*
X7419742Y4487538D01*
X7415814Y4457700D01*
X7419742Y4427862D01*
X7431259Y4400057D01*
X7449580Y4376180D01*
X7473457Y4357859D01*
X7501262Y4346342D01*
X7522776Y4343510D01*
Y4317890D01*
X7501262Y4315058D01*
X7473457Y4303541D01*
X7449580Y4285220D01*
X7431259Y4261343D01*
X7419742Y4233538D01*
X7415814Y4203700D01*
X7419742Y4173862D01*
X7431259Y4146057D01*
X7449580Y4122180D01*
X7473457Y4103859D01*
X7501262Y4092342D01*
X7522776Y4089510D01*
Y4063890D01*
X7501262Y4061058D01*
X7473457Y4049541D01*
X7449580Y4031220D01*
X7431259Y4007343D01*
X7419742Y3979538D01*
X7415814Y3949700D01*
X7419742Y3919862D01*
X7431259Y3892057D01*
X7435180Y3886947D01*
X7422654Y3861547D01*
X5988546D01*
X5976020Y3886947D01*
X5979941Y3892057D01*
X5991458Y3919862D01*
X5993714Y3937000D01*
X5816600D01*
X5639486D01*
X5641742Y3919862D01*
X5653259Y3892057D01*
X5657180Y3886947D01*
X5644654Y3861547D01*
X5413591D01*
X4661647Y4613491D01*
Y4833000D01*
X4658689Y4847866D01*
X4650269Y4860469D01*
X4483360Y5027377D01*
X4497028Y5047833D01*
X4513303Y5087124D01*
X4521600Y5128836D01*
Y5171364D01*
X4513303Y5213076D01*
X4497028Y5252367D01*
X4473401Y5287728D01*
X4443328Y5317800D01*
X4407967Y5341428D01*
X4368676Y5357703D01*
X4326964Y5366000D01*
X4284436D01*
X4242724Y5357703D01*
X4203433Y5341428D01*
X4168072Y5317800D01*
X4138000Y5287728D01*
X4114372Y5252367D01*
X4098097Y5213076D01*
X4089800Y5171364D01*
Y5128836D01*
X4098097Y5087124D01*
X4114372Y5047833D01*
X4138000Y5012472D01*
X4168072Y4982399D01*
X4203433Y4958772D01*
X4242724Y4942497D01*
X4252518Y4940549D01*
Y4914651D01*
X4242724Y4912703D01*
X4203433Y4896428D01*
X4168072Y4872801D01*
X4138000Y4842728D01*
X4114372Y4807367D01*
X4098097Y4768076D01*
X4089800Y4726364D01*
Y4683836D01*
X4098097Y4642124D01*
X4114372Y4602833D01*
X4138000Y4567472D01*
X4168072Y4537400D01*
X4203433Y4513772D01*
X4242724Y4497497D01*
X4266854Y4492697D01*
Y4330293D01*
X4269811Y4315427D01*
X4278231Y4302825D01*
X5039825Y3541231D01*
X5052428Y3532811D01*
X5067293Y3529853D01*
X5644654D01*
X5657180Y3504453D01*
X5653259Y3499343D01*
X5641742Y3471538D01*
X5637814Y3441700D01*
X5641742Y3411862D01*
X5653259Y3384057D01*
X5671580Y3360180D01*
X5695457Y3341859D01*
X5723262Y3330342D01*
X5744776Y3327510D01*
Y3301890D01*
X5723262Y3299058D01*
X5695457Y3287541D01*
X5671580Y3269220D01*
X5653259Y3245343D01*
X5641742Y3217538D01*
X5637814Y3187700D01*
X5641742Y3157862D01*
X5653259Y3130057D01*
X5671580Y3106180D01*
X5695457Y3087859D01*
X5723262Y3076342D01*
X5753100Y3072414D01*
X5880100D01*
X5909938Y3076342D01*
X5937743Y3087859D01*
X5961620Y3106180D01*
X5979941Y3130057D01*
X5991458Y3157862D01*
X5995386Y3187700D01*
X5991458Y3217538D01*
X5979941Y3245343D01*
X5961620Y3269220D01*
X5937743Y3287541D01*
X5909938Y3299058D01*
X5888424Y3301890D01*
Y3327510D01*
X5909938Y3330342D01*
X5937743Y3341859D01*
X5961620Y3360180D01*
X5979941Y3384057D01*
X5987727Y3402853D01*
X6740309D01*
X7165831Y2977332D01*
X7178434Y2968911D01*
X7193300Y2965954D01*
X7455737D01*
X7466258Y2940554D01*
X7450590Y2924886D01*
X7430301Y2894520D01*
X7416325Y2860779D01*
X7409200Y2824960D01*
Y2788440D01*
X7416325Y2752621D01*
X7430301Y2718880D01*
X7450590Y2688514D01*
X7476414Y2662690D01*
X7506780Y2642401D01*
X7540521Y2628425D01*
X7576340Y2621300D01*
X7612860D01*
X7648679Y2628425D01*
X7682420Y2642401D01*
X7712786Y2662690D01*
X7738610Y2688514D01*
X7758899Y2718880D01*
X7772875Y2752621D01*
X7780000Y2788440D01*
Y2824960D01*
X7772875Y2860779D01*
X7758899Y2894520D01*
X7738610Y2924886D01*
X7722942Y2940554D01*
X7733463Y2965954D01*
X8053509D01*
X8367231Y2652231D01*
X8379834Y2643811D01*
X8394700Y2640853D01*
X13500101D01*
X13510928Y2643008D01*
X13526509Y2634668D01*
X13535886Y2627240D01*
X13535490Y2613490D01*
X13373100Y2451100D01*
X3429000D01*
X2717800Y3162300D01*
Y6502400D01*
X3378200Y7162800D01*
X13131799Y7162800D01*
X13842999Y6451600D01*
D02*
G37*
%LPC*%
G36*
X11544300Y6756133D02*
Y6680200D01*
X11620233D01*
X11614442Y6701814D01*
X11602738Y6722086D01*
X11586186Y6738638D01*
X11565914Y6750342D01*
X11544300Y6756133D01*
D02*
G37*
G36*
X11518900D02*
X11497286Y6750342D01*
X11477014Y6738638D01*
X11460462Y6722086D01*
X11448758Y6701814D01*
X11442967Y6680200D01*
X11518900D01*
Y6756133D01*
D02*
G37*
G36*
X11620233Y6654800D02*
X11544300D01*
Y6578867D01*
X11565914Y6584658D01*
X11586186Y6596362D01*
X11602738Y6612914D01*
X11614442Y6633186D01*
X11620233Y6654800D01*
D02*
G37*
G36*
X11518900D02*
X11442967D01*
X11448758Y6633186D01*
X11460462Y6612914D01*
X11477014Y6596362D01*
X11497286Y6584658D01*
X11518900Y6578867D01*
Y6654800D01*
D02*
G37*
G36*
X11963400Y6325586D02*
X11912600D01*
Y6223000D01*
X12077014D01*
X12074758Y6240138D01*
X12063241Y6267943D01*
X12044920Y6291820D01*
X12021043Y6310141D01*
X11993238Y6321658D01*
X11963400Y6325586D01*
D02*
G37*
G36*
X11887200D02*
X11836400D01*
X11806562Y6321658D01*
X11778757Y6310141D01*
X11754880Y6291820D01*
X11736559Y6267943D01*
X11725042Y6240138D01*
X11722786Y6223000D01*
X11887200D01*
Y6325586D01*
D02*
G37*
G36*
X4855926Y5967500D02*
X4821474D01*
X4787684Y5960779D01*
X4755854Y5947594D01*
X4727208Y5928454D01*
X4702846Y5904092D01*
X4683706Y5875446D01*
X4670522Y5843616D01*
X4663800Y5809826D01*
Y5775374D01*
X4670522Y5741584D01*
X4683706Y5709754D01*
X4702846Y5681108D01*
X4727208Y5656746D01*
X4755854Y5637606D01*
X4787684Y5624422D01*
X4821474Y5617700D01*
X4855926D01*
X4889716Y5624422D01*
X4921546Y5637606D01*
X4950192Y5656746D01*
X4974554Y5681108D01*
X4993694Y5709754D01*
X5006878Y5741584D01*
X5013600Y5775374D01*
Y5809826D01*
X5006878Y5843616D01*
X4993694Y5875446D01*
X4974554Y5904092D01*
X4950192Y5928454D01*
X4921546Y5947594D01*
X4889716Y5960779D01*
X4855926Y5967500D01*
D02*
G37*
G36*
X6083300Y5499100D02*
X5918200D01*
Y5397500D01*
X6083300D01*
Y5499100D01*
D02*
G37*
G36*
X5892800D02*
X5727700D01*
Y5397500D01*
X5892800D01*
Y5499100D01*
D02*
G37*
G36*
X5156600Y5366000D02*
X4953400D01*
Y5162800D01*
X5156600D01*
Y5366000D01*
D02*
G37*
G36*
X4928000D02*
X4724800D01*
Y5162800D01*
X4928000D01*
Y5366000D01*
D02*
G37*
G36*
X3712926Y5102500D02*
X3678474D01*
X3644684Y5095778D01*
X3612854Y5082594D01*
X3584208Y5063454D01*
X3559846Y5039092D01*
X3540706Y5010446D01*
X3527522Y4978616D01*
X3520800Y4944826D01*
Y4910374D01*
X3527522Y4876584D01*
X3540706Y4844754D01*
X3559846Y4816108D01*
X3584208Y4791746D01*
X3612854Y4772606D01*
X3644684Y4759422D01*
X3678474Y4752700D01*
X3712926D01*
X3746716Y4759422D01*
X3778546Y4772606D01*
X3807192Y4791746D01*
X3831554Y4816108D01*
X3850694Y4844754D01*
X3863878Y4876584D01*
X3870600Y4910374D01*
Y4944826D01*
X3863878Y4978616D01*
X3850694Y5010446D01*
X3831554Y5039092D01*
X3807192Y5063454D01*
X3778546Y5082594D01*
X3746716Y5095778D01*
X3712926Y5102500D01*
D02*
G37*
G36*
X7612860Y5024100D02*
X7576340D01*
X7540521Y5016975D01*
X7506780Y5002999D01*
X7476414Y4982710D01*
X7450590Y4956886D01*
X7430301Y4926520D01*
X7416325Y4892779D01*
X7409200Y4856960D01*
Y4820440D01*
X7416325Y4784621D01*
X7430301Y4750880D01*
X7450590Y4720514D01*
X7476414Y4694690D01*
X7506780Y4674401D01*
X7540521Y4660425D01*
X7576340Y4653300D01*
X7612860D01*
X7648679Y4660425D01*
X7682420Y4674401D01*
X7712786Y4694690D01*
X7738610Y4720514D01*
X7758899Y4750880D01*
X7772875Y4784621D01*
X7780000Y4820440D01*
Y4856960D01*
X7772875Y4892779D01*
X7758899Y4926520D01*
X7738610Y4956886D01*
X7712786Y4982710D01*
X7682420Y5002999D01*
X7648679Y5016975D01*
X7612860Y5024100D01*
D02*
G37*
G36*
X5834860D02*
X5798340D01*
X5762521Y5016975D01*
X5728780Y5002999D01*
X5698414Y4982710D01*
X5672590Y4956886D01*
X5652301Y4926520D01*
X5638325Y4892779D01*
X5631200Y4856960D01*
Y4820440D01*
X5638325Y4784621D01*
X5652301Y4750880D01*
X5672590Y4720514D01*
X5698414Y4694690D01*
X5728780Y4674401D01*
X5762521Y4660425D01*
X5798340Y4653300D01*
X5834860D01*
X5870679Y4660425D01*
X5904420Y4674401D01*
X5934786Y4694690D01*
X5960610Y4720514D01*
X5980899Y4750880D01*
X5994875Y4784621D01*
X6002000Y4820440D01*
Y4856960D01*
X5994875Y4892779D01*
X5980899Y4926520D01*
X5960610Y4956886D01*
X5934786Y4982710D01*
X5904420Y5002999D01*
X5870679Y5016975D01*
X5834860Y5024100D01*
D02*
G37*
G36*
X5880100Y4572986D02*
X5753100D01*
X5723262Y4569058D01*
X5695457Y4557541D01*
X5671580Y4539220D01*
X5653259Y4515343D01*
X5641742Y4487538D01*
X5637814Y4457700D01*
X5641742Y4427862D01*
X5653259Y4400057D01*
X5671580Y4376180D01*
X5695457Y4357859D01*
X5723262Y4346342D01*
X5744776Y4343510D01*
Y4317890D01*
X5723262Y4315058D01*
X5695457Y4303541D01*
X5671580Y4285220D01*
X5653259Y4261343D01*
X5641742Y4233538D01*
X5637814Y4203700D01*
X5641742Y4173862D01*
X5653259Y4146057D01*
X5671580Y4122180D01*
X5695457Y4103859D01*
X5723262Y4092342D01*
X5744776Y4089510D01*
Y4063890D01*
X5723262Y4061058D01*
X5695457Y4049541D01*
X5671580Y4031220D01*
X5653259Y4007343D01*
X5641742Y3979538D01*
X5639486Y3962400D01*
X5816600D01*
X5993714D01*
X5991458Y3979538D01*
X5979941Y4007343D01*
X5961620Y4031220D01*
X5937743Y4049541D01*
X5909938Y4061058D01*
X5888424Y4063890D01*
Y4089510D01*
X5909938Y4092342D01*
X5937743Y4103859D01*
X5961620Y4122180D01*
X5979941Y4146057D01*
X5991458Y4173862D01*
X5995386Y4203700D01*
X5991458Y4233538D01*
X5979941Y4261343D01*
X5961620Y4285220D01*
X5937743Y4303541D01*
X5909938Y4315058D01*
X5888424Y4317890D01*
Y4343510D01*
X5909938Y4346342D01*
X5937743Y4357859D01*
X5961620Y4376180D01*
X5979941Y4400057D01*
X5991458Y4427862D01*
X5995386Y4457700D01*
X5991458Y4487538D01*
X5979941Y4515343D01*
X5961620Y4539220D01*
X5937743Y4557541D01*
X5909938Y4569058D01*
X5880100Y4572986D01*
D02*
G37*
G36*
X10445750Y3766591D02*
X10128250D01*
X10096754Y3762445D01*
X10067404Y3750288D01*
X10042201Y3730949D01*
X10022862Y3705746D01*
X10010705Y3676396D01*
X10006559Y3644900D01*
X10010705Y3613404D01*
X10022862Y3584054D01*
X10042201Y3558851D01*
X10067404Y3539512D01*
X10086394Y3531646D01*
Y3504154D01*
X10067404Y3496288D01*
X10042201Y3476949D01*
X10022862Y3451746D01*
X10010705Y3422396D01*
X10008231Y3403600D01*
X10287000D01*
X10565769D01*
X10563295Y3422396D01*
X10551138Y3451746D01*
X10531799Y3476949D01*
X10506596Y3496288D01*
X10487606Y3504154D01*
Y3531646D01*
X10506596Y3539512D01*
X10531799Y3558851D01*
X10551138Y3584054D01*
X10563295Y3613404D01*
X10567441Y3644900D01*
X10563295Y3676396D01*
X10551138Y3705746D01*
X10531799Y3730949D01*
X10506596Y3750288D01*
X10477246Y3762445D01*
X10445750Y3766591D01*
D02*
G37*
G36*
X5834860Y2992100D02*
X5798340D01*
X5762521Y2984975D01*
X5728780Y2970999D01*
X5698414Y2950710D01*
X5672590Y2924886D01*
X5652301Y2894520D01*
X5638325Y2860779D01*
X5631200Y2824960D01*
Y2788440D01*
X5638325Y2752621D01*
X5652301Y2718880D01*
X5672590Y2688514D01*
X5698414Y2662690D01*
X5728780Y2642401D01*
X5762521Y2628425D01*
X5798340Y2621300D01*
X5834860D01*
X5870679Y2628425D01*
X5904420Y2642401D01*
X5934786Y2662690D01*
X5960610Y2688514D01*
X5980899Y2718880D01*
X5994875Y2752621D01*
X6002000Y2788440D01*
Y2824960D01*
X5994875Y2860779D01*
X5980899Y2894520D01*
X5960610Y2924886D01*
X5934786Y2950710D01*
X5904420Y2970999D01*
X5870679Y2984975D01*
X5834860Y2992100D01*
D02*
G37*
%LPD*%
D10*
X13360400Y5702300D02*
X13423900D01*
X13004800Y5346700D02*
X13360400Y5702300D01*
X13004800Y4826000D02*
Y5346700D01*
X13500101Y2679700D02*
X13652499Y2832100D01*
X8394700Y2679700D02*
X13500101D01*
X13652499Y2832100D02*
Y3505200D01*
X8069600Y3004800D02*
X8394700Y2679700D01*
X7193300Y3004800D02*
X8069600D01*
X8039100Y3568700D02*
X8470900Y3136900D01*
X8890000D01*
X5067293Y3568700D02*
X8039100D01*
X8470900Y3390900D02*
X8890000D01*
X5397500Y3822700D02*
X8039100D01*
X8470900Y3390900D01*
X11415495Y5969000D02*
X11529795Y6083300D01*
X13296899D02*
X13423900Y6210300D01*
X11529795Y6083300D02*
X13296899D01*
X11874500Y5702300D02*
X11899900D01*
X11760200Y5588000D02*
X11874500Y5702300D01*
X11010900Y5588000D02*
X11760200D01*
Y5842000D02*
X11874500Y5956300D01*
X10858500Y5842000D02*
X11760200D01*
X11874500Y5956300D02*
X11899900D01*
X10807700Y5384800D02*
X11010900Y5588000D01*
X10807700Y3244850D02*
Y5384800D01*
X10445750Y2882900D02*
X10807700Y3244850D01*
X11163300Y5969000D02*
X11415495D01*
X10642600Y5626100D02*
X10858500Y5842000D01*
X10642600Y3333750D02*
Y5626100D01*
X10445750Y3136900D02*
X10642600Y3333750D01*
X10287000Y3136900D02*
X10445750D01*
X8420100Y5969000D02*
X11163300D01*
X4622800Y4597400D02*
X5397500Y3822700D01*
X4622800Y4597400D02*
Y4833000D01*
X4305700Y5150100D02*
X4622800Y4833000D01*
X4305700Y4330293D02*
X5067293Y3568700D01*
X4305700Y4330293D02*
Y4705100D01*
X13423900Y3670300D02*
X13487399D01*
X13652499Y3505200D01*
X6756400Y3441700D02*
X7193300Y3004800D01*
X5816600Y3441700D02*
X6756400D01*
X5816600Y4457700D02*
X5880100D01*
X13423900Y5702300D02*
X13487399D01*
X11455400Y4572000D02*
X11722100Y4305300D01*
X11047195Y4572000D02*
X11455400D01*
X10958237Y4660958D02*
X11047195Y4572000D01*
X10958237Y4660958D02*
Y5319437D01*
X11099800Y5461000D01*
X11722100Y4305300D02*
X12217400D01*
X13360400Y3162300D01*
X13423900D01*
X11099800Y5461000D02*
X11163300D01*
X13401639Y3416300D02*
X13423900D01*
X13331239Y3486699D02*
X13401639Y3416300D01*
X13331239Y3486699D02*
Y3498065D01*
X12016005Y4813300D02*
X13331239Y3498065D01*
X11783795Y4813300D02*
X12016005D01*
X11390095Y5207000D02*
X11783795Y4813300D01*
X11163300Y5207000D02*
X11390095D01*
X10287000Y2882900D02*
X10445750D01*
X8212900Y5761800D02*
X8420100Y5969000D01*
X5905500Y5761800D02*
X8212900D01*
X5842000Y6011800D02*
X5905500D01*
X5435600Y5605400D02*
X5842000Y6011800D01*
X5435600Y5200000D02*
Y5605400D01*
X4940700Y4705100D02*
X5435600Y5200000D01*
D11*
X11163300Y4191000D02*
D03*
D12*
Y4445000D02*
D03*
Y4699000D02*
D03*
Y4953000D02*
D03*
Y5207000D02*
D03*
Y5461000D02*
D03*
Y5715000D02*
D03*
Y5969000D02*
D03*
Y6223000D02*
D03*
Y6477000D02*
D03*
D13*
X7594600Y3187700D02*
D03*
Y3441700D02*
D03*
Y3695700D02*
D03*
Y3949700D02*
D03*
Y4203700D02*
D03*
Y4457700D02*
D03*
X5816600Y3187700D02*
D03*
Y3441700D02*
D03*
Y3695700D02*
D03*
Y3949700D02*
D03*
Y4203700D02*
D03*
Y4457700D02*
D03*
X5905500Y5761800D02*
D03*
Y6011800D02*
D03*
Y6261800D02*
D03*
D14*
X5816600Y2806700D02*
D03*
Y4838700D02*
D03*
X7594600Y2806700D02*
D03*
Y4838700D02*
D03*
D15*
X10287000Y3644900D02*
D03*
Y3390900D02*
D03*
Y3136900D02*
D03*
Y2882900D02*
D03*
X8890000Y3136900D02*
D03*
Y3390900D02*
D03*
D16*
X5905500Y5511800D02*
D03*
D17*
X13716000Y2590800D02*
D03*
Y7048500D02*
D03*
X2895600Y7061200D02*
D03*
Y2590800D02*
D03*
D18*
X4940700Y4705100D02*
D03*
X4305700D02*
D03*
Y5150100D02*
D03*
D19*
X4940700D02*
D03*
D20*
X4838700Y4062600D02*
D03*
Y5792600D02*
D03*
X3695700Y4927600D02*
D03*
D21*
X13004800Y4826000D02*
D03*
X11531600Y6667500D02*
D03*
D22*
X11899900Y2908300D02*
D03*
X13423900D02*
D03*
X12153900D02*
D03*
X12407900D02*
D03*
X12661900D02*
D03*
X12915900D02*
D03*
X13169901D02*
D03*
D23*
X11899900Y3162300D02*
D03*
Y3416300D02*
D03*
Y3670300D02*
D03*
Y3924300D02*
D03*
Y4178300D02*
D03*
Y4432300D02*
D03*
Y4686300D02*
D03*
Y4940300D02*
D03*
Y5194300D02*
D03*
Y5448300D02*
D03*
Y5702300D02*
D03*
Y5956300D02*
D03*
Y6210300D02*
D03*
X13423900Y3162300D02*
D03*
Y3416300D02*
D03*
Y3670300D02*
D03*
Y3924300D02*
D03*
Y4178300D02*
D03*
Y4432300D02*
D03*
Y4686300D02*
D03*
Y4940300D02*
D03*
Y5194300D02*
D03*
Y5448300D02*
D03*
Y5702300D02*
D03*
Y5956300D02*
D03*
Y6210300D02*
D03*
%TF.MD5,413d3369c66642dc48953edbf8e748cc*%
M02*
