M48
;Layer_Color=9474304
;FILE_FORMAT=4:4
METRIC,LZ
;TYPE=PLATED
T01F00S00C0.5600
T02F00S00C0.6000
T04F00S00C0.7500
%
T01
X0006802Y0018207
X0011802
X00361433Y00270504
X00359933Y0028518
X00370471Y00295503
X00385113Y002937
X00392832Y00281129
X0037592Y002794
X00373843Y00262527
X00387816Y00267256
X005938Y0018461
X006438
T02
X0006802Y0003707
X0009302
X0011802
X005938Y0003961
X006188
X006438
T04
X0030988Y0008208
Y0018208
X0051562Y001897
Y000897
M30
