M48
;Layer_Color=9474304
;FILE_FORMAT=4:4
METRIC,LZ
;TYPE=PLATED
T01F00S00C0.5600
T02F00S00C0.6000
T04F00S00C0.7500
%
T01
X0041727Y0027732
X0046727
X0115514Y0032177
X0120514
X00841206Y00474266
X00827233Y00469537
X0082931Y0048641
X00846222Y00488139
X00838503Y0050071
X00823861Y00502513
X00813323Y0049219
X00814823Y00477514
T02
X0041727Y0013232
X0044227
X0046727
X0115514Y0017677
X0118014
X0120514
T04
X0064897Y0014431
Y0024431
X0088773Y0023796
Y0013796
M30
