%TF.GenerationSoftware,Altium Limited,Altium Designer,23.10.1 (27)*%
G04 Layer_Color=0*
%FSLAX45Y45*%
%MOMM*%
%TF.SameCoordinates,2F64780F-F911-4696-9FF2-54DBC27FC154*%
%TF.FilePolarity,Positive*%
%TF.FileFunction,Plated,1,2,PTH,Drill*%
%TF.Part,Single*%
G01*
G75*
%TA.AperFunction,ComponentDrill*%
%ADD49C,0.75000*%
%ADD50C,1.00000*%
%ADD51C,1.00000*%
%ADD52C,0.59995*%
%ADD53C,0.75000*%
%ADD54C,1.00000*%
%ADD55C,1.10000*%
%ADD56C,1.01600*%
%ADD57C,1.01600*%
D49*
X3429000Y7612000D02*
D03*
Y6612000D02*
D03*
D50*
X3302000Y3556000D02*
D03*
X7874000Y4318000D02*
D03*
X3302000Y5080000D02*
D03*
X7874000Y4572000D02*
D03*
Y4826000D02*
D03*
X4826000Y3556000D02*
D03*
X6858000Y5080000D02*
D03*
X3325012Y4418000D02*
D03*
Y4218000D02*
D03*
D51*
X3556000Y5080000D02*
D03*
X3810000D02*
D03*
X7874000Y4064000D02*
D03*
Y3810000D02*
D03*
X6604000Y5080000D02*
D03*
Y3556000D02*
D03*
X3556000D02*
D03*
X3810000D02*
D03*
X4064000D02*
D03*
X4318000D02*
D03*
X4572000D02*
D03*
X5080000D02*
D03*
X5334000D02*
D03*
X5588000D02*
D03*
X5842000D02*
D03*
X6096000D02*
D03*
X6350000D02*
D03*
X3556000Y4826000D02*
D03*
X6350000Y5080000D02*
D03*
X6096000D02*
D03*
X5842000D02*
D03*
X5588000D02*
D03*
X5334000D02*
D03*
X5080000D02*
D03*
X4826000D02*
D03*
X4572000D02*
D03*
X4318000D02*
D03*
X4064000D02*
D03*
X6858000Y3556000D02*
D03*
X7366000D02*
D03*
X7620000D02*
D03*
X7874000D02*
D03*
X8128000D02*
D03*
X8382000D02*
D03*
X8636000D02*
D03*
X8890000D02*
D03*
X9144000D02*
D03*
X7112000Y5080000D02*
D03*
X7366000D02*
D03*
X7620000D02*
D03*
X7874000D02*
D03*
X8128000D02*
D03*
X8382000D02*
D03*
X8636000D02*
D03*
X8890000D02*
D03*
X9144000D02*
D03*
X3937000Y3855999D02*
D03*
X4191000D02*
D03*
X4445000D02*
D03*
X4699000D02*
D03*
X4953000D02*
D03*
X7112000Y3556000D02*
D03*
D52*
X4599000Y4829988D02*
D03*
Y4629988D02*
D03*
Y4429989D02*
D03*
X4799000Y4829988D02*
D03*
Y4629988D02*
D03*
Y4429989D02*
D03*
X3048000Y5842000D02*
D03*
Y5715000D02*
D03*
Y5588000D02*
D03*
Y5461000D02*
D03*
X7112000Y5588000D02*
D03*
Y5842000D02*
D03*
Y6096000D02*
D03*
Y6350000D02*
D03*
D53*
X4453000Y3048000D02*
D03*
X5453000D02*
D03*
X7755000Y2794000D02*
D03*
X8755000D02*
D03*
X5850000D02*
D03*
X6850000D02*
D03*
X4326000Y6223000D02*
D03*
X5326000D02*
D03*
D54*
X9470000Y2567000D02*
D03*
Y2767000D02*
D03*
D55*
X2794000Y2413000D02*
D03*
X3048000D02*
D03*
X3302000D02*
D03*
D56*
X4445000D02*
D03*
X4191000D02*
D03*
X3937000D02*
D03*
X5334000D02*
D03*
X5080000D02*
D03*
X4826000D02*
D03*
D57*
X3048000Y6858000D02*
D03*
Y6604000D02*
D03*
Y6350000D02*
D03*
X3937000Y6604000D02*
D03*
Y6350000D02*
D03*
Y6096000D02*
D03*
X5588000Y5588000D02*
D03*
Y5842000D02*
D03*
Y6096000D02*
D03*
X6223000Y5588000D02*
D03*
Y5842000D02*
D03*
Y6096000D02*
D03*
%TF.MD5,71467f90e224d41a39c0164a17d45da7*%
M02*
