%TF.GenerationSoftware,Altium Limited,Altium Designer,25.1.2 (22)*%
G04 Layer_Physical_Order=1*
G04 Layer_Color=255*
%FSLAX45Y45*%
%MOMM*%
%TF.SameCoordinates,C88AD1CA-9631-45E4-BC86-71C5CE7D1C25*%
%TF.FilePolarity,Positive*%
%TF.FileFunction,Copper,L1,Top,Signal*%
%TF.Part,Single*%
G01*
G75*
%TA.AperFunction,ComponentPad*%
%ADD10C,1.52400*%
%ADD11R,1.89230X2.07010*%
%ADD12R,1.89230X2.60350*%
%ADD13O,1.52400X3.04800*%
%ADD14R,1.52400X3.04800*%
%ADD15R,1.39700X3.04800*%
%ADD16O,1.39700X3.04800*%
%ADD17C,2.99000*%
%ADD18R,3.04800X3.04800*%
%ADD19C,3.04800*%
%TA.AperFunction,ViaPad*%
%ADD20C,3.00000*%
D10*
X3175000Y1206500D02*
D03*
Y1460500D02*
D03*
Y1714500D02*
D03*
Y1968500D02*
D03*
Y2222500D02*
D03*
Y2476500D02*
D03*
Y2730500D02*
D03*
Y2984500D02*
D03*
Y3238500D02*
D03*
X4699000Y1206500D02*
D03*
Y1460500D02*
D03*
Y1714500D02*
D03*
Y1968500D02*
D03*
Y2222500D02*
D03*
Y2476500D02*
D03*
Y2730500D02*
D03*
Y2984500D02*
D03*
Y3238500D02*
D03*
Y3492500D02*
D03*
Y3746500D02*
D03*
Y4254500D02*
D03*
X3429000Y1206500D02*
D03*
X3683000D02*
D03*
X3937000D02*
D03*
X4191000D02*
D03*
X4445000D02*
D03*
D11*
X3175000Y3492500D02*
D03*
Y3746500D02*
D03*
Y4000500D02*
D03*
Y4254500D02*
D03*
Y4508500D02*
D03*
D12*
X4699000Y4000500D02*
D03*
Y4508500D02*
D03*
D13*
X5314600Y3289300D02*
D03*
X5564600D02*
D03*
X5814600D02*
D03*
D14*
X6064600D02*
D03*
D15*
X2667000Y635000D02*
D03*
X1206500D02*
D03*
X2667000Y5156200D02*
D03*
X1206500D02*
D03*
D16*
X4750000Y635000D02*
D03*
X2306500D02*
D03*
X4750000Y5156200D02*
D03*
X2306500D02*
D03*
D17*
X1295500Y2896700D02*
D03*
X2095500Y3812200D02*
D03*
Y1981200D02*
D03*
X7023100Y3266700D02*
D03*
Y1536700D02*
D03*
X8166100Y2401700D02*
D03*
D18*
X1905500Y3169700D02*
D03*
X6921100Y2179200D02*
D03*
D19*
X1905500Y2623700D02*
D03*
X6921100Y2624200D02*
D03*
X7556100D02*
D03*
Y2179200D02*
D03*
D20*
X635000Y635000D02*
D03*
Y5156200D02*
D03*
X8813800D02*
D03*
X7099300Y635000D02*
D03*
%TF.MD5,baf1dc03afc9a1fa1fe2fd1795da3c0f*%
M02*
