%TF.GenerationSoftware,Altium Limited,Altium Designer,25.1.2 (22)*%
G04 Layer_Color=0*
%FSLAX45Y45*%
%MOMM*%
%TF.SameCoordinates,4AB4E51C-7D8D-4115-BE14-3C7980B33CB2*%
%TF.FilePolarity,Positive*%
%TF.FileFunction,Plated,1,2,PTH,Drill*%
%TF.Part,Single*%
G01*
G75*
%TA.AperFunction,ComponentDrill*%
%ADD42C,1.02000*%
%ADD43C,0.90000*%
%ADD44C,0.76200*%
%ADD45C,0.85000*%
%ADD46C,1.76000*%
%TA.AperFunction,OtherDrill,Pad Free-1 (6.35mm,6.35mm)*%
%ADD47C,3.00000*%
%TA.AperFunction,OtherDrill,Pad Free-4 (6.35mm,51.562mm)*%
%ADD48C,3.00000*%
%TA.AperFunction,OtherDrill,Pad Free-3 (88.138mm,51.562mm)*%
%ADD49C,3.00000*%
%TA.AperFunction,OtherDrill,Pad Free-2 (70.993mm,6.35mm)*%
%ADD50C,3.00000*%
D42*
X3175000Y1206500D02*
D03*
Y1460500D02*
D03*
Y1714500D02*
D03*
Y1968500D02*
D03*
Y2222500D02*
D03*
Y2476500D02*
D03*
Y2730500D02*
D03*
Y2984500D02*
D03*
Y3238500D02*
D03*
Y3492500D02*
D03*
Y3746500D02*
D03*
Y4000500D02*
D03*
Y4254500D02*
D03*
Y4508500D02*
D03*
X4699000Y1206500D02*
D03*
Y1460500D02*
D03*
Y1714500D02*
D03*
Y1968500D02*
D03*
Y2222500D02*
D03*
Y2476500D02*
D03*
Y2730500D02*
D03*
Y2984500D02*
D03*
Y3238500D02*
D03*
Y3492500D02*
D03*
Y3746500D02*
D03*
Y4000500D02*
D03*
Y4254500D02*
D03*
Y4508500D02*
D03*
X3429000Y1206500D02*
D03*
X3683000D02*
D03*
X3937000D02*
D03*
X4191000D02*
D03*
X4445000D02*
D03*
D43*
X5314600Y3289300D02*
D03*
X5564600D02*
D03*
X5814600D02*
D03*
X6064600D02*
D03*
D44*
X6083300Y736600D02*
D03*
X5829300D02*
D03*
X5575300D02*
D03*
X5321300D02*
D03*
X5575300Y2133600D02*
D03*
X5829300D02*
D03*
D45*
X2667000Y635000D02*
D03*
X4750000D02*
D03*
X1206500D02*
D03*
X2306500D02*
D03*
X2667000Y5156200D02*
D03*
X4750000D02*
D03*
X1206500D02*
D03*
X2306500D02*
D03*
D46*
X1905500Y3169700D02*
D03*
Y2623700D02*
D03*
X6921100Y2624200D02*
D03*
Y2179200D02*
D03*
X7556100Y2624200D02*
D03*
Y2179200D02*
D03*
D47*
X635000Y635000D02*
D03*
D48*
Y5156200D02*
D03*
D49*
X8813800D02*
D03*
D50*
X7099300Y635000D02*
D03*
%TF.MD5,6a9a950937568a0ad43e7ec1db44511e*%
M02*
