%TF.GenerationSoftware,Altium Limited,Altium Designer,25.2.1 (25)*%
G04 Layer_Color=8388736*
%FSLAX45Y45*%
%MOMM*%
%TF.SameCoordinates,7DD24991-B9EC-4422-9666-2EE5E17A6B38*%
%TF.FilePolarity,Negative*%
%TF.FileFunction,Soldermask,Top*%
%TF.Part,Single*%
G01*
G75*
%TA.AperFunction,ComponentPad*%
%ADD20C,1.40000*%
%ADD21R,1.40000X1.40000*%
%ADD32P,2.19656X4X270.0*%
%ADD33C,1.55320*%
%ADD34C,3.19320*%
%ADD35C,2.84320*%
%ADD36R,2.84320X2.84320*%
%ADD37C,1.98120*%
%ADD38C,1.72720*%
%TA.AperFunction,ViaPad*%
%ADD39C,1.72720*%
%TA.AperFunction,ComponentPad*%
%ADD40R,2.84320X2.84320*%
%ADD41C,0.20320*%
%ADD42R,1.55320X1.55320*%
%TA.AperFunction,ViaPad*%
%ADD43C,1.47320*%
D20*
X1612900Y7618000D02*
D03*
Y7368000D02*
D03*
Y7118000D02*
D03*
D21*
Y6868000D02*
D03*
D32*
X6795198Y6706298D02*
D03*
D33*
X6158802Y6069902D02*
D03*
X6426200Y2915500D02*
D03*
X6502400Y10076600D02*
D03*
X6159500Y5098200D02*
D03*
D34*
X4965700Y11874500D02*
D03*
X5830700Y10731500D02*
D03*
X4100700D02*
D03*
X2032500Y990200D02*
D03*
X945500Y2133200D02*
D03*
X3119500D02*
D03*
X977900Y10821300D02*
D03*
X2120900Y11908300D02*
D03*
Y9734300D02*
D03*
X7283200Y977500D02*
D03*
X6418200Y2120500D02*
D03*
X8148200D02*
D03*
X8483600Y4787900D02*
D03*
X7340600Y3922900D02*
D03*
Y5652900D02*
D03*
X8483600Y9093200D02*
D03*
X7340600Y8228200D02*
D03*
Y9958200D02*
D03*
D35*
X5188200Y11264500D02*
D03*
X4743200D02*
D03*
Y10629500D02*
D03*
X1587500Y1600200D02*
D03*
X2477500D02*
D03*
X2032500Y2235200D02*
D03*
X2477500D02*
D03*
X2032500Y1600200D02*
D03*
X1587900Y11266300D02*
D03*
Y10376300D02*
D03*
X2222900Y10821300D02*
D03*
Y10376300D02*
D03*
X1587900Y10821300D02*
D03*
X7060700Y1587500D02*
D03*
X7505700D02*
D03*
Y2222500D02*
D03*
X7873600Y4565400D02*
D03*
Y5010400D02*
D03*
X7238600D02*
D03*
X7873600Y8870700D02*
D03*
Y9315700D02*
D03*
X7238600D02*
D03*
D36*
X5188200Y10629500D02*
D03*
X1587500Y2235200D02*
D03*
X7060700Y2222500D02*
D03*
D37*
X4013200Y2971800D02*
D03*
Y3225800D02*
D03*
Y3479800D02*
D03*
Y3733800D02*
D03*
Y3987800D02*
D03*
Y4241800D02*
D03*
Y4495800D02*
D03*
Y4749800D02*
D03*
Y5003800D02*
D03*
Y5257800D02*
D03*
Y5511800D02*
D03*
Y5765800D02*
D03*
Y6019800D02*
D03*
Y6273800D02*
D03*
X5537200Y2971800D02*
D03*
Y3225800D02*
D03*
Y3479800D02*
D03*
Y3733800D02*
D03*
Y3987800D02*
D03*
Y4241800D02*
D03*
Y4495800D02*
D03*
Y4749800D02*
D03*
Y5003800D02*
D03*
Y5257800D02*
D03*
Y5511800D02*
D03*
Y5765800D02*
D03*
Y6019800D02*
D03*
Y6273800D02*
D03*
D38*
X4267200Y2971800D02*
D03*
X4521200D02*
D03*
X4775200D02*
D03*
X5029200D02*
D03*
X5283200D02*
D03*
D39*
X444500Y4953000D02*
D03*
X9017000Y2413000D02*
D03*
X4953000Y444500D02*
D03*
X9017000Y12382500D02*
D03*
D40*
X2222900Y11266300D02*
D03*
X7238600Y4565400D02*
D03*
Y8870700D02*
D03*
D41*
X1143000Y4165600D02*
D03*
Y3911600D02*
D03*
X2540000Y3657600D02*
D03*
Y3911600D02*
D03*
Y4165600D02*
D03*
Y4419600D02*
D03*
X1143000Y5854700D02*
D03*
Y5600700D02*
D03*
X2540000Y5346700D02*
D03*
Y5600700D02*
D03*
Y5854700D02*
D03*
Y6108700D02*
D03*
D42*
X6426200Y3815500D02*
D03*
X6502400Y9176600D02*
D03*
X6159500Y4198200D02*
D03*
D43*
X6426200Y4191000D02*
D03*
X1562100Y2921000D02*
D03*
%TF.MD5,02b569f19d76602f647e79819372ee9e*%
M02*
