%TF.GenerationSoftware,Altium Limited,Altium Designer,23.10.1 (27)*%
G04 Layer_Physical_Order=1*
G04 Layer_Color=255*
%FSLAX45Y45*%
%MOMM*%
%TF.SameCoordinates,0BB6306C-626D-4F4D-BD6E-158AEC5F1732*%
%TF.FilePolarity,Positive*%
%TF.FileFunction,Copper,L1,Top,Signal*%
%TF.Part,Single*%
G01*
G75*
%TA.AperFunction,ComponentPad*%
%ADD10C,1.52400*%
%ADD11R,1.52400X2.54000*%
%ADD12C,2.54000*%
%ADD13C,2.28600*%
%ADD14O,1.65100X1.52400*%
%ADD15O,2.54000X1.52400*%
%ADD16O,1.52400X2.54000*%
%ADD17O,2.28600X2.03200*%
%ADD18C,1.39700*%
%ADD19O,1.77800X2.15900*%
G04:AMPARAMS|DCode=20|XSize=2.032mm|YSize=2.032mm|CornerRadius=0mm|HoleSize=0mm|Usage=FLASHONLY|Rotation=90.000|XOffset=0mm|YOffset=0mm|HoleType=Round|Shape=Octagon|*
%AMOCTAGOND20*
4,1,8,0.50800,1.01600,-0.50800,1.01600,-1.01600,0.50800,-1.01600,-0.50800,-0.50800,-1.01600,0.50800,-1.01600,1.01600,-0.50800,1.01600,0.50800,0.50800,1.01600,0.0*
%
%ADD20OCTAGOND20*%

%ADD21O,1.52400X3.30200*%
%ADD22O,2.54000X1.52400*%
%ADD23R,1.90500X1.90500*%
%ADD24R,1.90500X1.90500*%
%ADD25O,1.65100X3.30200*%
%ADD26C,2.03200*%
%ADD27C,2.15900*%
%ADD28O,3.30200X1.10795*%
D10*
X5842000Y3556000D02*
D03*
X6096000D02*
D03*
X7112000Y5080000D02*
D03*
X6096000Y6477000D02*
D03*
D11*
X7366000Y5080000D02*
D03*
D12*
X9335999Y2413000D02*
D03*
X7585989D02*
D03*
X7936001D02*
D03*
X8285988D02*
D03*
X8636000D02*
D03*
X8985987D02*
D03*
D13*
X5461000Y6731000D02*
D03*
X5207000D02*
D03*
X4953000D02*
D03*
X5461000Y7239000D02*
D03*
X5207000D02*
D03*
X4953000D02*
D03*
X7747000Y6985000D02*
D03*
X7493000D02*
D03*
X7239000D02*
D03*
X6985000D02*
D03*
X8492007Y5842000D02*
D03*
X8841994D02*
D03*
X9192006D02*
D03*
X9541993D02*
D03*
D14*
X5307000Y4429989D02*
D03*
Y4629988D02*
D03*
Y4829988D02*
D03*
X5107000Y4429989D02*
D03*
Y4629988D02*
D03*
Y4829988D02*
D03*
D15*
X3833012Y4218000D02*
D03*
Y4418000D02*
D03*
X5334000Y3556000D02*
D03*
X8382000Y4826000D02*
D03*
Y4572000D02*
D03*
X3810000Y5080000D02*
D03*
D16*
X7620000Y3556000D02*
D03*
X5461000Y3855999D02*
D03*
X5207000D02*
D03*
X4953000D02*
D03*
X4699000D02*
D03*
X4445000D02*
D03*
X7620000Y5080000D02*
D03*
X9652000Y3556000D02*
D03*
X9398000D02*
D03*
X9144000D02*
D03*
X8890000D02*
D03*
X8636000D02*
D03*
X8128000D02*
D03*
X7874000D02*
D03*
X4572000Y5080000D02*
D03*
X4826000D02*
D03*
X5080000D02*
D03*
X5334000D02*
D03*
X5588000D02*
D03*
X6096000D02*
D03*
X6350000D02*
D03*
X6604000D02*
D03*
X6858000D02*
D03*
Y3556000D02*
D03*
X6604000D02*
D03*
X6350000D02*
D03*
X5588000D02*
D03*
X5080000D02*
D03*
X4826000D02*
D03*
X4572000D02*
D03*
X4318000D02*
D03*
X4064000D02*
D03*
X7112000D02*
D03*
D17*
X9652000Y5080000D02*
D03*
X7874000D02*
D03*
D18*
X9398000D02*
D03*
X9144000D02*
D03*
X8890000D02*
D03*
X8636000D02*
D03*
X8382000D02*
D03*
X8128000D02*
D03*
D19*
X8382000Y3556000D02*
D03*
Y3810000D02*
D03*
D20*
X7366000Y3556000D02*
D03*
X8382000Y4064000D02*
D03*
X4318000Y5080000D02*
D03*
D21*
X5842000D02*
D03*
D22*
X4064000Y4826000D02*
D03*
D23*
Y5080000D02*
D03*
D24*
X8382000Y4318000D02*
D03*
X3810000Y3556000D02*
D03*
D25*
X9525000Y7366000D02*
D03*
X9271000D02*
D03*
X9525000Y6604000D02*
D03*
X9271000D02*
D03*
X8763000Y7366000D02*
D03*
X9017000D02*
D03*
Y6604000D02*
D03*
X8763000D02*
D03*
D26*
X6096000Y6731000D02*
D03*
Y6985000D02*
D03*
X6477000Y6477000D02*
D03*
Y6731000D02*
D03*
Y6985000D02*
D03*
D27*
X6858000Y2921000D02*
D03*
X6604000D02*
D03*
X6350000D02*
D03*
D28*
X4445000D02*
D03*
Y2794000D02*
D03*
Y2667000D02*
D03*
Y2540000D02*
D03*
X3429000Y2794000D02*
D03*
Y2667000D02*
D03*
%TF.MD5,8a764c0b0b6a96894a9d641a9fce1c7e*%
M02*
