%TF.GenerationSoftware,Altium Limited,Altium Designer,23.10.1 (27)*%
G04 Layer_Physical_Order=2*
G04 Layer_Color=16711680*
%FSLAX45Y45*%
%MOMM*%
%TF.SameCoordinates,630E0BF6-42D4-4CFD-A4DF-94D7906D83A5*%
%TF.FilePolarity,Positive*%
%TF.FileFunction,Copper,L2,Bot,Signal*%
%TF.Part,Single*%
G01*
G75*
%TA.AperFunction,ComponentPad*%
%ADD10C,2.18440*%
%ADD11C,1.52400*%
%ADD12C,1.10795*%
%ADD13C,1.50800*%
%ADD14R,1.50800X1.50800*%
G04:AMPARAMS|DCode=15|XSize=1.508mm|YSize=1.508mm|CornerRadius=0mm|HoleSize=0mm|Usage=FLASHONLY|Rotation=90.000|XOffset=0mm|YOffset=0mm|HoleType=Round|Shape=Octagon|*
%AMOCTAGOND15*
4,1,8,0.37700,0.75400,-0.37700,0.75400,-0.75400,0.37700,-0.75400,-0.37700,-0.37700,-0.75400,0.37700,-0.75400,0.75400,-0.37700,0.75400,0.37700,0.37700,0.75400,0.0*
%
%ADD15OCTAGOND15*%

%ADD16C,1.67640*%
%ADD17R,1.50800X1.50800*%
%ADD18C,1.77800*%
%ADD19O,1.32080X2.64160*%
%ADD20O,2.21590X1.10795*%
%TA.AperFunction,Conductor*%
%ADD21C,0.50800*%
%ADD22C,0.30480*%
G36*
X9897529Y1143000D02*
X3175000D01*
Y7874000D01*
X9897529D01*
Y1143000D01*
D02*
G37*
%LPC*%
G36*
X8763000Y7514021D02*
X8741782Y7511228D01*
X8722009Y7503038D01*
X8705031Y7490009D01*
X8692002Y7473031D01*
X8683812Y7453258D01*
X8681019Y7432040D01*
Y7410040D01*
X5069027D01*
X5053170Y7406886D01*
X5039727Y7397903D01*
X4970737Y7328913D01*
X4965038Y7330440D01*
X4940962D01*
X4917705Y7324208D01*
X4896855Y7312170D01*
X4879830Y7295145D01*
X4867792Y7274295D01*
X4861560Y7251038D01*
Y7226962D01*
X4867792Y7203705D01*
X4879830Y7182855D01*
X4896855Y7165830D01*
X4900591Y7163673D01*
Y6806327D01*
X4896855Y6804170D01*
X4879830Y6787145D01*
X4867792Y6766295D01*
X4861560Y6743038D01*
Y6718962D01*
X4867792Y6695705D01*
X4879830Y6674855D01*
X4896855Y6657830D01*
X4917705Y6645792D01*
X4940962Y6639560D01*
X4965038D01*
X4988295Y6645792D01*
X5009145Y6657830D01*
X5026170Y6674855D01*
X5038208Y6695705D01*
X5044440Y6718962D01*
Y6743038D01*
X5038208Y6766295D01*
X5026170Y6787145D01*
X5009145Y6804170D01*
X4988295Y6816208D01*
X4983463Y6817503D01*
Y7152497D01*
X4988295Y7153792D01*
X5009145Y7165830D01*
X5026170Y7182855D01*
X5038208Y7203705D01*
X5044440Y7226962D01*
Y7251038D01*
X5038208Y7274295D01*
X5036418Y7277395D01*
X5086191Y7327167D01*
X5151430D01*
X5154833Y7314467D01*
X5150855Y7312170D01*
X5133830Y7295145D01*
X5121792Y7274295D01*
X5115560Y7251038D01*
Y7226962D01*
X5121792Y7203705D01*
X5133830Y7182855D01*
X5150855Y7165830D01*
X5171705Y7153792D01*
X5194962Y7147560D01*
X5219038D01*
X5228843Y7150187D01*
X5789591Y6589440D01*
Y5154403D01*
X5786346Y5152530D01*
X5769470Y5135654D01*
X5757537Y5114986D01*
X5751360Y5091933D01*
Y5068067D01*
X5757537Y5045014D01*
X5769470Y5024346D01*
X5786346Y5007470D01*
X5807014Y4995537D01*
X5830067Y4989360D01*
X5853933D01*
X5876986Y4995537D01*
X5897654Y5007470D01*
X5914530Y5024346D01*
X5926463Y5045014D01*
X5932640Y5068067D01*
Y5091933D01*
X5926463Y5114986D01*
X5914530Y5135654D01*
X5897654Y5152530D01*
X5876986Y5164463D01*
X5872463Y5165675D01*
Y6606603D01*
X5869309Y6622460D01*
X5860327Y6635903D01*
X5292275Y7203955D01*
X5298440Y7226962D01*
Y7251038D01*
X5292208Y7274295D01*
X5280170Y7295145D01*
X5263145Y7312170D01*
X5259167Y7314467D01*
X5262570Y7327167D01*
X8681019D01*
Y7299960D01*
X8683812Y7278742D01*
X8692002Y7258969D01*
X8705031Y7241991D01*
X8722009Y7228962D01*
X8741782Y7220772D01*
X8763000Y7217979D01*
X8784218Y7220772D01*
X8803991Y7228962D01*
X8820969Y7241991D01*
X8833998Y7258969D01*
X8842188Y7278742D01*
X8844981Y7299960D01*
Y7432040D01*
X8842188Y7453258D01*
X8833998Y7473031D01*
X8820969Y7490009D01*
X8803991Y7503038D01*
X8784218Y7511228D01*
X8763000Y7514021D01*
D02*
G37*
G36*
X9525000D02*
X9503782Y7511228D01*
X9484009Y7503038D01*
X9467031Y7490009D01*
X9454002Y7473031D01*
X9445812Y7453258D01*
X9443019Y7432040D01*
Y7299960D01*
X9445812Y7278742D01*
X9454002Y7258969D01*
X9467031Y7241991D01*
X9484009Y7228962D01*
X9503782Y7220772D01*
X9525000Y7217979D01*
X9546218Y7220772D01*
X9565991Y7228962D01*
X9582969Y7241991D01*
X9595998Y7258969D01*
X9604188Y7278742D01*
X9606981Y7299960D01*
Y7432040D01*
X9604188Y7453258D01*
X9595998Y7473031D01*
X9582969Y7490009D01*
X9565991Y7503038D01*
X9546218Y7511228D01*
X9525000Y7514021D01*
D02*
G37*
G36*
X9271000D02*
X9249782Y7511228D01*
X9230009Y7503038D01*
X9213031Y7490009D01*
X9200002Y7473031D01*
X9191812Y7453258D01*
X9189019Y7432040D01*
Y7299960D01*
X9191812Y7278742D01*
X9200002Y7258969D01*
X9213031Y7241991D01*
X9230009Y7228962D01*
X9249782Y7220772D01*
X9271000Y7217979D01*
X9292218Y7220772D01*
X9311991Y7228962D01*
X9328969Y7241991D01*
X9341998Y7258969D01*
X9350188Y7278742D01*
X9352981Y7299960D01*
Y7432040D01*
X9350188Y7453258D01*
X9341998Y7473031D01*
X9328969Y7490009D01*
X9311991Y7503038D01*
X9292218Y7511228D01*
X9271000Y7514021D01*
D02*
G37*
G36*
X9017000D02*
X8995782Y7511228D01*
X8976009Y7503038D01*
X8959031Y7490009D01*
X8946002Y7473031D01*
X8937812Y7453258D01*
X8935019Y7432040D01*
Y7299960D01*
X8937812Y7278742D01*
X8946002Y7258969D01*
X8959031Y7241991D01*
X8976009Y7228962D01*
X8995782Y7220772D01*
X9017000Y7217979D01*
X9038218Y7220772D01*
X9057991Y7228962D01*
X9074969Y7241991D01*
X9087998Y7258969D01*
X9096188Y7278742D01*
X9098981Y7299960D01*
Y7432040D01*
X9096188Y7453258D01*
X9087998Y7473031D01*
X9074969Y7490009D01*
X9057991Y7503038D01*
X9038218Y7511228D01*
X9017000Y7514021D01*
D02*
G37*
G36*
X6490041Y7084060D02*
X6463959D01*
X6438764Y7077309D01*
X6416176Y7064268D01*
X6397732Y7045824D01*
X6388042Y7029040D01*
X6184958D01*
X6175268Y7045824D01*
X6156824Y7064268D01*
X6134236Y7077309D01*
X6109041Y7084060D01*
X6082959D01*
X6057764Y7077309D01*
X6035176Y7064268D01*
X6016732Y7045824D01*
X6003691Y7023236D01*
X5996940Y6998041D01*
Y6971959D01*
X6003691Y6946764D01*
X6016732Y6924176D01*
X6035176Y6905732D01*
X6057764Y6892691D01*
X6082959Y6885940D01*
X6109041D01*
X6134236Y6892691D01*
X6156824Y6905732D01*
X6175268Y6924176D01*
X6187965Y6946167D01*
X6385035D01*
X6397732Y6924176D01*
X6416176Y6905732D01*
X6438764Y6892691D01*
X6463959Y6885940D01*
X6490041D01*
X6515236Y6892691D01*
X6537824Y6905732D01*
X6556268Y6924176D01*
X6569309Y6946764D01*
X6576060Y6971959D01*
Y6998041D01*
X6569309Y7023236D01*
X6556268Y7045824D01*
X6537824Y7064268D01*
X6515236Y7077309D01*
X6490041Y7084060D01*
D02*
G37*
G36*
X7506710Y7089140D02*
X7479290D01*
X7452803Y7082043D01*
X7429057Y7068333D01*
X7409667Y7048943D01*
X7395957Y7025197D01*
X7388860Y6998710D01*
Y6971290D01*
X7395957Y6944803D01*
X7409667Y6921057D01*
X7429057Y6901667D01*
X7452803Y6887957D01*
X7479290Y6880860D01*
X7506710D01*
X7533197Y6887957D01*
X7556943Y6901667D01*
X7576333Y6921057D01*
X7590043Y6944803D01*
X7597140Y6971290D01*
Y6998710D01*
X7590043Y7025197D01*
X7576333Y7048943D01*
X7556943Y7068333D01*
X7533197Y7082043D01*
X7506710Y7089140D01*
D02*
G37*
G36*
X7252710D02*
X7225290D01*
X7198803Y7082043D01*
X7175057Y7068333D01*
X7155667Y7048943D01*
X7141957Y7025197D01*
X7134860Y6998710D01*
Y6971290D01*
X7141957Y6944803D01*
X7155667Y6921057D01*
X7175057Y6901667D01*
X7198803Y6887957D01*
X7225290Y6880860D01*
X7252710D01*
X7279197Y6887957D01*
X7302943Y6901667D01*
X7322333Y6921057D01*
X7336043Y6944803D01*
X7343140Y6971290D01*
Y6998710D01*
X7336043Y7025197D01*
X7322333Y7048943D01*
X7302943Y7068333D01*
X7279197Y7082043D01*
X7252710Y7089140D01*
D02*
G37*
G36*
X9271000Y6899436D02*
X9144000D01*
X9128143Y6896282D01*
X9114700Y6887300D01*
X8987700Y6760300D01*
X8978718Y6746857D01*
X8977700Y6741738D01*
X8976009Y6741038D01*
X8959031Y6728009D01*
X8946002Y6711031D01*
X8937812Y6691258D01*
X8935019Y6670040D01*
Y6537960D01*
X8937812Y6516742D01*
X8946002Y6496969D01*
X8959031Y6479991D01*
X8976009Y6466962D01*
X8995782Y6458772D01*
X9017000Y6455979D01*
X9038218Y6458772D01*
X9057991Y6466962D01*
X9074969Y6479991D01*
X9087998Y6496969D01*
X9096188Y6516742D01*
X9098981Y6537960D01*
Y6670040D01*
X9096188Y6691258D01*
X9087998Y6711031D01*
X9074969Y6728009D01*
X9074824Y6730225D01*
X9161164Y6816564D01*
X9253836D01*
X9319127Y6751273D01*
X9311990Y6741038D01*
X9292218Y6749228D01*
X9271000Y6752021D01*
X9249782Y6749228D01*
X9230009Y6741038D01*
X9213031Y6728009D01*
X9200002Y6711031D01*
X9191812Y6691258D01*
X9189019Y6670040D01*
Y6537960D01*
X9191812Y6516742D01*
X9200002Y6496969D01*
X9213031Y6479991D01*
X9218591Y6475724D01*
Y6233973D01*
X9221745Y6218116D01*
X9230727Y6204673D01*
X9387890Y6047510D01*
X9381634Y6035806D01*
X9381160Y6035900D01*
X8058607D01*
X8042750Y6032746D01*
X8029307Y6023763D01*
X8029307Y6023763D01*
X7209700Y5204131D01*
X7200718Y5190688D01*
X7197564Y5174831D01*
Y5138479D01*
X7184864Y5135076D01*
X7184530Y5135654D01*
X7167654Y5152530D01*
X7146986Y5164463D01*
X7123933Y5170640D01*
X7100067D01*
X7077014Y5164463D01*
X7056346Y5152530D01*
X7039470Y5135654D01*
X7027537Y5114986D01*
X7021360Y5091933D01*
Y5068067D01*
X7027537Y5045014D01*
X7039470Y5024346D01*
X7056346Y5007470D01*
X7077014Y4995537D01*
X7100067Y4989360D01*
X7123933D01*
X7146986Y4995537D01*
X7167654Y5007470D01*
X7184530Y5024346D01*
X7184864Y5024924D01*
X7197564Y5021521D01*
Y4989506D01*
X7086933Y4878875D01*
X6691755D01*
X6675899Y4875721D01*
X6662456Y4866739D01*
X6662455Y4866738D01*
X5431700Y3635960D01*
X5422718Y3622517D01*
X5420720Y3612476D01*
X5419590Y3611794D01*
X5407332Y3610265D01*
X5406530Y3611654D01*
X5389654Y3628530D01*
X5368986Y3640463D01*
X5345933Y3646640D01*
X5322067D01*
X5299014Y3640463D01*
X5278346Y3628530D01*
X5261470Y3611654D01*
X5249537Y3590986D01*
X5243360Y3567933D01*
Y3544067D01*
X5249537Y3521014D01*
X5261470Y3500346D01*
X5278346Y3483470D01*
X5299014Y3471537D01*
X5322067Y3465360D01*
X5344458D01*
X5349902Y3458485D01*
X5351967Y3454909D01*
X4669701Y2772661D01*
X4669700Y2772661D01*
X4660718Y2759218D01*
X4657564Y2743361D01*
Y2684164D01*
X4562980Y2589580D01*
X4550776Y2590379D01*
X4536021Y2601702D01*
X4518838Y2608819D01*
X4500397Y2611247D01*
X4389603D01*
X4371162Y2608819D01*
X4353979Y2601702D01*
X4339223Y2590379D01*
X4327901Y2575623D01*
X4320783Y2558440D01*
X4318356Y2540000D01*
X4320783Y2521560D01*
X4327901Y2504377D01*
X4339223Y2489621D01*
X4353979Y2478298D01*
X4371162Y2471181D01*
X4389603Y2468753D01*
X4500397D01*
X4518838Y2471181D01*
X4536021Y2478298D01*
X4550777Y2489621D01*
X4557639Y2498564D01*
X4572000D01*
X4587857Y2501718D01*
X4601300Y2510700D01*
X4728300Y2637700D01*
X4737282Y2651143D01*
X4740436Y2667000D01*
Y2726197D01*
X5490300Y3476040D01*
X5499282Y3489483D01*
X5501280Y3499524D01*
X5514668Y3501735D01*
X5515470Y3500346D01*
X5532346Y3483470D01*
X5553014Y3471537D01*
X5576067Y3465360D01*
X5599933D01*
X5622986Y3471537D01*
X5643654Y3483470D01*
X5660530Y3500346D01*
X5672463Y3521014D01*
X5678640Y3544067D01*
Y3567933D01*
X5672463Y3590986D01*
X5660530Y3611654D01*
X5643654Y3628530D01*
X5622986Y3640463D01*
X5599933Y3646640D01*
X5577539D01*
X5572116Y3653484D01*
X5570032Y3657094D01*
X6708919Y4796003D01*
X7104096D01*
X7119953Y4799157D01*
X7133396Y4808139D01*
X7268300Y4943043D01*
X7277282Y4956486D01*
X7280436Y4972343D01*
Y5157668D01*
X8075771Y5953027D01*
X8762510D01*
X8762528Y5952957D01*
X8764308Y5940327D01*
X8742401Y5918420D01*
X8726016Y5890040D01*
X8717534Y5858386D01*
Y5825614D01*
X8726016Y5793960D01*
X8742401Y5765580D01*
X8765574Y5742407D01*
X8789585Y5728545D01*
Y5384609D01*
X8792739Y5368753D01*
X8801721Y5355310D01*
X9055841Y5101190D01*
X9053360Y5091933D01*
Y5068067D01*
X9059537Y5045014D01*
X9071470Y5024346D01*
X9088346Y5007470D01*
X9109014Y4995537D01*
X9132067Y4989360D01*
X9155933D01*
X9178986Y4995537D01*
X9199654Y5007470D01*
X9216530Y5024346D01*
X9228463Y5045014D01*
X9234640Y5068067D01*
Y5091933D01*
X9228463Y5114986D01*
X9216530Y5135654D01*
X9199654Y5152530D01*
X9178986Y5164463D01*
X9155933Y5170640D01*
X9132067D01*
X9109608Y5164622D01*
X8872457Y5401773D01*
Y5721312D01*
X8890034Y5726022D01*
X8918414Y5742407D01*
X8941587Y5765580D01*
X8957972Y5793960D01*
X8966454Y5825614D01*
Y5858386D01*
X8957972Y5890040D01*
X8941587Y5918420D01*
X8919680Y5940327D01*
X8921460Y5952957D01*
X8921478Y5953027D01*
X9112522D01*
X9112540Y5952957D01*
X9114320Y5940327D01*
X9092413Y5918420D01*
X9076028Y5890040D01*
X9067546Y5858386D01*
Y5825614D01*
X9076028Y5793960D01*
X9092413Y5765580D01*
X9115586Y5742407D01*
X9139597Y5728545D01*
Y5288598D01*
X9142751Y5272741D01*
X9151733Y5259298D01*
X9309841Y5101190D01*
X9307360Y5091933D01*
Y5068067D01*
X9313537Y5045014D01*
X9325470Y5024346D01*
X9342346Y5007470D01*
X9363014Y4995537D01*
X9386067Y4989360D01*
X9409933D01*
X9432986Y4995537D01*
X9453654Y5007470D01*
X9470530Y5024346D01*
X9470864Y5024924D01*
X9483564Y5021521D01*
Y3877824D01*
X9241700Y3635960D01*
X9232718Y3622517D01*
X9230720Y3612476D01*
X9217332Y3610265D01*
X9216530Y3611654D01*
X9199654Y3628530D01*
X9178986Y3640463D01*
X9155933Y3646640D01*
X9132067D01*
X9109014Y3640463D01*
X9088346Y3628530D01*
X9071470Y3611654D01*
X9059537Y3590986D01*
X9053360Y3567933D01*
Y3544067D01*
X9059537Y3521014D01*
X9071470Y3500346D01*
X9088346Y3483470D01*
X9109014Y3471537D01*
X9132067Y3465360D01*
X9155933D01*
X9178986Y3471537D01*
X9199654Y3483470D01*
X9216530Y3500346D01*
X9218102Y3503069D01*
X9226657Y3502930D01*
X9231491Y3500858D01*
X9232716Y3494695D01*
X9232717Y3494692D01*
X9232718Y3494690D01*
X9237230Y3487937D01*
X9241697Y3481250D01*
X9343728Y3379193D01*
X9343730Y3379192D01*
X9343732Y3379190D01*
X9345591Y3377331D01*
Y2940767D01*
X9295726Y2890902D01*
X9286744Y2877459D01*
X9283590Y2861602D01*
Y2526455D01*
X9259578Y2512593D01*
X9236406Y2489420D01*
X9220020Y2461040D01*
X9211539Y2429386D01*
Y2396614D01*
X9220020Y2364960D01*
X9236406Y2336580D01*
X9259578Y2313407D01*
X9287959Y2297022D01*
X9319613Y2288540D01*
X9352384D01*
X9384038Y2297022D01*
X9412419Y2313407D01*
X9435591Y2336580D01*
X9451977Y2364960D01*
X9460459Y2396614D01*
Y2429386D01*
X9451977Y2461040D01*
X9435591Y2489420D01*
X9412419Y2512593D01*
X9384038Y2528978D01*
X9366462Y2533688D01*
Y2844439D01*
X9416327Y2894304D01*
X9425309Y2907747D01*
X9428464Y2923603D01*
X9428463Y2923605D01*
Y3394494D01*
X9425309Y3410351D01*
X9416327Y3423794D01*
X9402335Y3437786D01*
X9387465Y3452660D01*
X9392726Y3465360D01*
X9409933D01*
X9432986Y3471537D01*
X9453654Y3483470D01*
X9470530Y3500346D01*
X9482463Y3521014D01*
X9488640Y3544067D01*
Y3567933D01*
X9482463Y3590986D01*
X9470530Y3611654D01*
X9453654Y3628530D01*
X9432986Y3640463D01*
X9409933Y3646640D01*
X9387540D01*
X9382108Y3653497D01*
X9380032Y3657093D01*
X9554300Y3831360D01*
X9563282Y3844803D01*
X9566437Y3860660D01*
X9566436Y3860662D01*
Y5021521D01*
X9579136Y5024924D01*
X9579470Y5024346D01*
X9596346Y5007470D01*
X9617014Y4995537D01*
X9640067Y4989360D01*
X9663933D01*
X9686986Y4995537D01*
X9707654Y5007470D01*
X9724530Y5024346D01*
X9736463Y5045014D01*
X9742640Y5068067D01*
Y5091933D01*
X9736463Y5114986D01*
X9724530Y5135654D01*
X9707654Y5152530D01*
X9686986Y5164463D01*
X9663933Y5170640D01*
X9640067D01*
X9617014Y5164463D01*
X9596346Y5152530D01*
X9579470Y5135654D01*
X9579136Y5135076D01*
X9566436Y5138479D01*
Y5443836D01*
X9808300Y5685700D01*
X9817282Y5699143D01*
X9820437Y5715000D01*
X9820436Y5715001D01*
Y5969000D01*
X9817282Y5984857D01*
X9808300Y5998300D01*
X9439436Y6367164D01*
Y6710995D01*
X9437447Y6720997D01*
X9439436Y6731000D01*
X9436282Y6746857D01*
X9427300Y6760300D01*
X9300300Y6887300D01*
X9286857Y6896282D01*
X9271000Y6899436D01*
D02*
G37*
G36*
X8763000Y6752021D02*
X8741782Y6749228D01*
X8722009Y6741038D01*
X8705031Y6728009D01*
X8692002Y6711031D01*
X8683812Y6691258D01*
X8681019Y6670040D01*
Y6537960D01*
X8683812Y6516742D01*
X8692002Y6496969D01*
X8705031Y6479991D01*
X8722009Y6466962D01*
X8741782Y6458772D01*
X8763000Y6455979D01*
X8784218Y6458772D01*
X8803991Y6466962D01*
X8820969Y6479991D01*
X8833998Y6496969D01*
X8842188Y6516742D01*
X8844981Y6537960D01*
Y6670040D01*
X8842188Y6691258D01*
X8833998Y6711031D01*
X8820969Y6728009D01*
X8803991Y6741038D01*
X8784218Y6749228D01*
X8763000Y6752021D01*
D02*
G37*
G36*
X7760710Y7089140D02*
X7733290D01*
X7706803Y7082043D01*
X7683057Y7068333D01*
X7663667Y7048943D01*
X7649957Y7025197D01*
X7642860Y6998710D01*
Y6971290D01*
X7649957Y6944803D01*
X7663667Y6921057D01*
X7683057Y6901667D01*
X7694591Y6895008D01*
Y5988767D01*
X6875084Y5169260D01*
X6869933Y5170640D01*
X6846067D01*
X6823014Y5164463D01*
X6802346Y5152530D01*
X6785470Y5135654D01*
X6773537Y5114986D01*
X6767360Y5091933D01*
Y5068067D01*
X6773537Y5045014D01*
X6785470Y5024346D01*
X6802346Y5007470D01*
X6823014Y4995537D01*
X6846067Y4989360D01*
X6869933D01*
X6892986Y4995537D01*
X6913654Y5007470D01*
X6930530Y5024346D01*
X6942463Y5045014D01*
X6948640Y5068067D01*
Y5091933D01*
X6942463Y5114986D01*
X6940833Y5117809D01*
X7765327Y5942304D01*
X7774309Y5955747D01*
X7777463Y5971603D01*
Y6885349D01*
X7787197Y6887957D01*
X7810943Y6901667D01*
X7830333Y6921057D01*
X7844043Y6944803D01*
X7851140Y6971290D01*
Y6998710D01*
X7844043Y7025197D01*
X7830333Y7048943D01*
X7810943Y7068333D01*
X7787197Y7082043D01*
X7760710Y7089140D01*
D02*
G37*
G36*
X6490041Y6576060D02*
X6463959D01*
X6438764Y6569309D01*
X6416176Y6556268D01*
X6397732Y6537824D01*
X6384691Y6515236D01*
X6377940Y6490041D01*
Y6463959D01*
X6384691Y6438764D01*
X6397732Y6416176D01*
X6416176Y6397732D01*
X6424591Y6392874D01*
Y5226767D01*
X6367084Y5169260D01*
X6361933Y5170640D01*
X6338067D01*
X6315014Y5164463D01*
X6294346Y5152530D01*
X6277470Y5135654D01*
X6265537Y5114986D01*
X6259360Y5091933D01*
Y5068067D01*
X6265537Y5045014D01*
X6277470Y5024346D01*
X6294346Y5007470D01*
X6315014Y4995537D01*
X6338067Y4989360D01*
X6361933D01*
X6384986Y4995537D01*
X6405654Y5007470D01*
X6422530Y5024346D01*
X6434463Y5045014D01*
X6440640Y5068067D01*
Y5091933D01*
X6434463Y5114986D01*
X6432833Y5117809D01*
X6495327Y5180304D01*
X6504309Y5193747D01*
X6507463Y5209604D01*
Y6382608D01*
X6515236Y6384691D01*
X6537824Y6397732D01*
X6556268Y6416176D01*
X6569309Y6438764D01*
X6576060Y6463959D01*
Y6490041D01*
X6569309Y6515236D01*
X6556268Y6537824D01*
X6537824Y6556268D01*
X6515236Y6569309D01*
X6490041Y6576060D01*
D02*
G37*
G36*
X8901933Y5170640D02*
X8878067D01*
X8855014Y5164463D01*
X8834346Y5152530D01*
X8817470Y5135654D01*
X8805537Y5114986D01*
X8799360Y5091933D01*
Y5068067D01*
X8805537Y5045014D01*
X8817470Y5024346D01*
X8834346Y5007470D01*
X8855014Y4995537D01*
X8878067Y4989360D01*
X8901933D01*
X8924986Y4995537D01*
X8945654Y5007470D01*
X8962530Y5024346D01*
X8974463Y5045014D01*
X8980640Y5068067D01*
Y5091933D01*
X8974463Y5114986D01*
X8962530Y5135654D01*
X8945654Y5152530D01*
X8924986Y5164463D01*
X8901933Y5170640D01*
D02*
G37*
G36*
X8647933D02*
X8624067D01*
X8601014Y5164463D01*
X8580346Y5152530D01*
X8563470Y5135654D01*
X8551537Y5114986D01*
X8545360Y5091933D01*
Y5068067D01*
X8551537Y5045014D01*
X8563470Y5024346D01*
X8580346Y5007470D01*
X8601014Y4995537D01*
X8624067Y4989360D01*
X8647933D01*
X8670986Y4995537D01*
X8691654Y5007470D01*
X8708530Y5024346D01*
X8720463Y5045014D01*
X8726640Y5068067D01*
Y5091933D01*
X8720463Y5114986D01*
X8708530Y5135654D01*
X8691654Y5152530D01*
X8670986Y5164463D01*
X8647933Y5170640D01*
D02*
G37*
G36*
X8393933D02*
X8370067D01*
X8347014Y5164463D01*
X8326346Y5152530D01*
X8309470Y5135654D01*
X8297537Y5114986D01*
X8291360Y5091933D01*
Y5068067D01*
X8297537Y5045014D01*
X8309470Y5024346D01*
X8326346Y5007470D01*
X8347014Y4995537D01*
X8370067Y4989360D01*
X8393933D01*
X8416986Y4995537D01*
X8437654Y5007470D01*
X8454530Y5024346D01*
X8466463Y5045014D01*
X8472640Y5068067D01*
Y5091933D01*
X8466463Y5114986D01*
X8454530Y5135654D01*
X8437654Y5152530D01*
X8416986Y5164463D01*
X8393933Y5170640D01*
D02*
G37*
G36*
X8139933D02*
X8116067D01*
X8093014Y5164463D01*
X8072346Y5152530D01*
X8055470Y5135654D01*
X8043537Y5114986D01*
X8037360Y5091933D01*
Y5068067D01*
X8043537Y5045014D01*
X8055470Y5024346D01*
X8072346Y5007470D01*
X8093014Y4995537D01*
X8116067Y4989360D01*
X8139933D01*
X8162986Y4995537D01*
X8183654Y5007470D01*
X8200530Y5024346D01*
X8212463Y5045014D01*
X8218640Y5068067D01*
Y5091933D01*
X8212463Y5114986D01*
X8200530Y5135654D01*
X8183654Y5152530D01*
X8162986Y5164463D01*
X8139933Y5170640D01*
D02*
G37*
G36*
X7885933D02*
X7862067D01*
X7839014Y5164463D01*
X7818346Y5152530D01*
X7801470Y5135654D01*
X7789537Y5114986D01*
X7783360Y5091933D01*
Y5068067D01*
X7789537Y5045014D01*
X7801470Y5024346D01*
X7818346Y5007470D01*
X7839014Y4995537D01*
X7862067Y4989360D01*
X7885933D01*
X7908986Y4995537D01*
X7929654Y5007470D01*
X7946530Y5024346D01*
X7958463Y5045014D01*
X7964640Y5068067D01*
Y5091933D01*
X7958463Y5114986D01*
X7946530Y5135654D01*
X7929654Y5152530D01*
X7908986Y5164463D01*
X7885933Y5170640D01*
D02*
G37*
G36*
X7631933D02*
X7608067D01*
X7585014Y5164463D01*
X7564346Y5152530D01*
X7547470Y5135654D01*
X7535537Y5114986D01*
X7529360Y5091933D01*
Y5068067D01*
X7535537Y5045014D01*
X7547470Y5024346D01*
X7564346Y5007470D01*
X7585014Y4995537D01*
X7608067Y4989360D01*
X7631933D01*
X7654986Y4995537D01*
X7675654Y5007470D01*
X7692530Y5024346D01*
X7704463Y5045014D01*
X7710640Y5068067D01*
Y5091933D01*
X7704463Y5114986D01*
X7692530Y5135654D01*
X7675654Y5152530D01*
X7654986Y5164463D01*
X7631933Y5170640D01*
D02*
G37*
G36*
X6615933D02*
X6592067D01*
X6569014Y5164463D01*
X6548346Y5152530D01*
X6531470Y5135654D01*
X6519537Y5114986D01*
X6513360Y5091933D01*
Y5068067D01*
X6519537Y5045014D01*
X6531470Y5024346D01*
X6548346Y5007470D01*
X6569014Y4995537D01*
X6592067Y4989360D01*
X6615933D01*
X6638986Y4995537D01*
X6659654Y5007470D01*
X6676530Y5024346D01*
X6688463Y5045014D01*
X6694640Y5068067D01*
Y5091933D01*
X6688463Y5114986D01*
X6676530Y5135654D01*
X6659654Y5152530D01*
X6638986Y5164463D01*
X6615933Y5170640D01*
D02*
G37*
G36*
X6109041Y6576060D02*
X6082959D01*
X6057764Y6569309D01*
X6035176Y6556268D01*
X6016732Y6537824D01*
X6003691Y6515236D01*
X5996940Y6490041D01*
Y6463959D01*
X6003691Y6438764D01*
X6016732Y6416176D01*
X6035176Y6397732D01*
X6043591Y6392874D01*
Y5154403D01*
X6040346Y5152530D01*
X6023470Y5135654D01*
X6011537Y5114986D01*
X6005360Y5091933D01*
Y5068067D01*
X6011537Y5045014D01*
X6023470Y5024346D01*
X6040346Y5007470D01*
X6061014Y4995537D01*
X6084067Y4989360D01*
X6107933D01*
X6130986Y4995537D01*
X6151654Y5007470D01*
X6168530Y5024346D01*
X6180463Y5045014D01*
X6186640Y5068067D01*
Y5091933D01*
X6180463Y5114986D01*
X6168530Y5135654D01*
X6151654Y5152530D01*
X6130986Y5164463D01*
X6126463Y5165675D01*
Y6382608D01*
X6134236Y6384691D01*
X6156824Y6397732D01*
X6175268Y6416176D01*
X6188309Y6438764D01*
X6195060Y6463959D01*
Y6490041D01*
X6188309Y6515236D01*
X6175268Y6537824D01*
X6156824Y6556268D01*
X6134236Y6569309D01*
X6109041Y6576060D01*
D02*
G37*
G36*
X5219038Y6822440D02*
X5194962D01*
X5171705Y6816208D01*
X5150855Y6804170D01*
X5133830Y6787145D01*
X5121792Y6766295D01*
X5115560Y6743038D01*
Y6718962D01*
X5121792Y6695705D01*
X5133830Y6674855D01*
X5150855Y6657830D01*
X5171705Y6645792D01*
X5194962Y6639560D01*
X5219038D01*
X5228843Y6642187D01*
X5535591Y6335440D01*
Y5154403D01*
X5532346Y5152530D01*
X5515470Y5135654D01*
X5503537Y5114986D01*
X5497360Y5091933D01*
Y5068067D01*
X5503537Y5045014D01*
X5515470Y5024346D01*
X5532346Y5007470D01*
X5553014Y4995537D01*
X5576067Y4989360D01*
X5599933D01*
X5622986Y4995537D01*
X5643654Y5007470D01*
X5660530Y5024346D01*
X5672463Y5045014D01*
X5678640Y5068067D01*
Y5091933D01*
X5672463Y5114986D01*
X5660530Y5135654D01*
X5643654Y5152530D01*
X5622986Y5164463D01*
X5618463Y5165675D01*
Y6352604D01*
X5615309Y6368460D01*
X5606327Y6381903D01*
X5292275Y6695955D01*
X5298440Y6718962D01*
Y6743038D01*
X5292208Y6766295D01*
X5280170Y6787145D01*
X5263145Y6804170D01*
X5242295Y6816208D01*
X5219038Y6822440D01*
D02*
G37*
G36*
X5345933Y5170640D02*
X5322067D01*
X5299014Y5164463D01*
X5278346Y5152530D01*
X5261470Y5135654D01*
X5249537Y5114986D01*
X5243360Y5091933D01*
Y5068067D01*
X5249537Y5045014D01*
X5261470Y5024346D01*
X5278346Y5007470D01*
X5299014Y4995537D01*
X5322067Y4989360D01*
X5345933D01*
X5368986Y4995537D01*
X5389654Y5007470D01*
X5406530Y5024346D01*
X5418463Y5045014D01*
X5424640Y5068067D01*
Y5091933D01*
X5418463Y5114986D01*
X5406530Y5135654D01*
X5389654Y5152530D01*
X5368986Y5164463D01*
X5345933Y5170640D01*
D02*
G37*
G36*
X5091933D02*
X5068067D01*
X5045014Y5164463D01*
X5024346Y5152530D01*
X5007470Y5135654D01*
X4995537Y5114986D01*
X4989360Y5091933D01*
Y5068067D01*
X4995537Y5045014D01*
X5007470Y5024346D01*
X5024346Y5007470D01*
X5045014Y4995537D01*
X5068067Y4989360D01*
X5091933D01*
X5114986Y4995537D01*
X5135654Y5007470D01*
X5152530Y5024346D01*
X5164463Y5045014D01*
X5170640Y5068067D01*
Y5091933D01*
X5164463Y5114986D01*
X5152530Y5135654D01*
X5135654Y5152530D01*
X5114986Y5164463D01*
X5091933Y5170640D01*
D02*
G37*
G36*
X4837933D02*
X4814067D01*
X4791014Y5164463D01*
X4770346Y5152530D01*
X4753470Y5135654D01*
X4741537Y5114986D01*
X4735360Y5091933D01*
Y5068067D01*
X4736740Y5062916D01*
X4542700Y4868876D01*
X4533718Y4855433D01*
X4530564Y4839576D01*
Y3914479D01*
X4517864Y3911076D01*
X4517530Y3911654D01*
X4500654Y3928529D01*
X4479986Y3940462D01*
X4456933Y3946639D01*
X4433067D01*
X4410014Y3940462D01*
X4389346Y3928529D01*
X4372470Y3911654D01*
X4372136Y3911076D01*
X4359436Y3914479D01*
Y4822413D01*
X4534191Y4997167D01*
X4537014Y4995537D01*
X4560067Y4989360D01*
X4583933D01*
X4606986Y4995537D01*
X4627654Y5007470D01*
X4644530Y5024346D01*
X4656463Y5045014D01*
X4662640Y5068067D01*
Y5091933D01*
X4656463Y5114986D01*
X4644530Y5135654D01*
X4627654Y5152530D01*
X4606986Y5164463D01*
X4583933Y5170640D01*
X4560067D01*
X4537014Y5164463D01*
X4516346Y5152530D01*
X4499470Y5135654D01*
X4487537Y5114986D01*
X4481360Y5091933D01*
Y5068067D01*
X4482740Y5062916D01*
X4288700Y4868876D01*
X4279718Y4855433D01*
X4276564Y4839576D01*
Y3810546D01*
X4279718Y3794689D01*
X4288700Y3781246D01*
X4403564Y3666383D01*
Y3614479D01*
X4390864Y3611076D01*
X4390530Y3611654D01*
X4373654Y3628530D01*
X4352986Y3640463D01*
X4329933Y3646640D01*
X4306067D01*
X4283014Y3640463D01*
X4262346Y3628530D01*
X4245470Y3611654D01*
X4233537Y3590986D01*
X4227360Y3567933D01*
Y3544067D01*
X4233537Y3521014D01*
X4245470Y3500346D01*
X4262346Y3483470D01*
X4283014Y3471537D01*
X4306067Y3465360D01*
X4329933D01*
X4352986Y3471537D01*
X4373654Y3483470D01*
X4390530Y3500346D01*
X4390864Y3500924D01*
X4403564Y3497521D01*
Y3319164D01*
X4161700Y3077300D01*
X4152718Y3063857D01*
X4149564Y3048000D01*
Y2921000D01*
X4152718Y2905143D01*
X4161700Y2891700D01*
X4288700Y2764700D01*
X4302143Y2755718D01*
X4318000Y2752564D01*
X4332361D01*
X4339223Y2743621D01*
X4353979Y2732298D01*
X4371162Y2725181D01*
X4389603Y2722753D01*
X4500397D01*
X4518838Y2725181D01*
X4536021Y2732298D01*
X4550777Y2743621D01*
X4562099Y2758376D01*
X4569217Y2775560D01*
X4571644Y2794000D01*
X4569217Y2812440D01*
X4562099Y2829623D01*
X4550777Y2844379D01*
X4544108Y2849496D01*
Y2865504D01*
X4550777Y2870621D01*
X4562099Y2885376D01*
X4565604Y2893839D01*
X4586275D01*
X4602132Y2896993D01*
X4615575Y2905975D01*
X4736665Y3027065D01*
X4745647Y3040508D01*
X4748801Y3056365D01*
Y3294757D01*
Y3487054D01*
X4761501Y3492315D01*
X4770346Y3483470D01*
X4791014Y3471537D01*
X4814067Y3465360D01*
X4837933D01*
X4860986Y3471537D01*
X4881654Y3483470D01*
X4898530Y3500346D01*
X4910463Y3521014D01*
X4916640Y3544067D01*
Y3567933D01*
X4910463Y3590986D01*
X4898530Y3611654D01*
X4881654Y3628530D01*
X4860986Y3640463D01*
X4837933Y3646640D01*
X4814067D01*
X4791014Y3640463D01*
X4770346Y3628530D01*
X4761501Y3619685D01*
X4748801Y3624946D01*
Y3683000D01*
X4745647Y3698857D01*
X4736665Y3712300D01*
X4723222Y3721282D01*
X4718348Y3722252D01*
X4687940Y3752660D01*
X4693201Y3765360D01*
X4710933D01*
X4733986Y3771537D01*
X4754654Y3783469D01*
X4771530Y3800345D01*
X4783463Y3821014D01*
X4789640Y3844066D01*
Y3867932D01*
X4783463Y3890985D01*
X4771530Y3911654D01*
X4754654Y3928529D01*
X4733986Y3940462D01*
X4710933Y3946639D01*
X4687067D01*
X4664014Y3940462D01*
X4643346Y3928529D01*
X4626470Y3911654D01*
X4626136Y3911076D01*
X4613436Y3914479D01*
Y4822413D01*
X4788191Y4997167D01*
X4791014Y4995537D01*
X4814067Y4989360D01*
X4837933D01*
X4860986Y4995537D01*
X4881654Y5007470D01*
X4898530Y5024346D01*
X4910463Y5045014D01*
X4916640Y5068067D01*
Y5091933D01*
X4910463Y5114986D01*
X4898530Y5135654D01*
X4881654Y5152530D01*
X4860986Y5164463D01*
X4837933Y5170640D01*
D02*
G37*
G36*
X4363320D02*
X4272680D01*
X4227360Y5125320D01*
Y5034680D01*
X4272680Y4989360D01*
X4363320D01*
X4408640Y5034680D01*
Y5125320D01*
X4363320Y5170640D01*
D02*
G37*
G36*
X3823041Y5179060D02*
X3796959D01*
X3771764Y5172309D01*
X3749176Y5159268D01*
X3730732Y5140824D01*
X3717691Y5118236D01*
X3710940Y5093041D01*
Y5066959D01*
X3717691Y5041764D01*
X3730732Y5019176D01*
X3749176Y5000732D01*
X3771764Y4987691D01*
X3796959Y4980940D01*
X3823041D01*
X3848236Y4987691D01*
X3870824Y5000732D01*
X3889268Y5019176D01*
X3902309Y5041764D01*
X3909060Y5066959D01*
Y5093041D01*
X3902309Y5118236D01*
X3889268Y5140824D01*
X3870824Y5159268D01*
X3848236Y5172309D01*
X3823041Y5179060D01*
D02*
G37*
G36*
X5316300Y4900625D02*
X5297700D01*
X5279735Y4895811D01*
X5263627Y4886512D01*
X5250476Y4873360D01*
X5241176Y4857253D01*
X5236362Y4839288D01*
Y4820688D01*
X5241176Y4802723D01*
X5250476Y4786615D01*
X5263627Y4773464D01*
X5279735Y4764164D01*
X5297700Y4759350D01*
X5316300D01*
X5334265Y4764164D01*
X5350372Y4773464D01*
X5363524Y4786615D01*
X5372823Y4802723D01*
X5377637Y4820688D01*
Y4839288D01*
X5372823Y4857253D01*
X5363524Y4873360D01*
X5350372Y4886512D01*
X5334265Y4895811D01*
X5316300Y4900625D01*
D02*
G37*
G36*
X5116300D02*
X5097700D01*
X5079735Y4895811D01*
X5063628Y4886512D01*
X5050476Y4873360D01*
X5041177Y4857253D01*
X5036363Y4839288D01*
Y4820688D01*
X5041177Y4802723D01*
X5050476Y4786615D01*
X5063628Y4773464D01*
X5079735Y4764164D01*
X5097700Y4759350D01*
X5116300D01*
X5134265Y4764164D01*
X5150373Y4773464D01*
X5163524Y4786615D01*
X5172824Y4802723D01*
X5177638Y4820688D01*
Y4839288D01*
X5172824Y4857253D01*
X5163524Y4873360D01*
X5150373Y4886512D01*
X5134265Y4895811D01*
X5116300Y4900625D01*
D02*
G37*
G36*
X8393933Y4916640D02*
X8370067D01*
X8347014Y4910463D01*
X8326346Y4898530D01*
X8309470Y4881654D01*
X8297537Y4860986D01*
X8291360Y4837933D01*
Y4814067D01*
X8297537Y4791014D01*
X8309470Y4770346D01*
X8326346Y4753470D01*
X8347014Y4741537D01*
X8370067Y4735360D01*
X8393933D01*
X8416986Y4741537D01*
X8437654Y4753470D01*
X8454530Y4770346D01*
X8466463Y4791014D01*
X8472640Y4814067D01*
Y4837933D01*
X8466463Y4860986D01*
X8454530Y4881654D01*
X8437654Y4898530D01*
X8416986Y4910463D01*
X8393933Y4916640D01*
D02*
G37*
G36*
X4075933D02*
X4052067D01*
X4029014Y4910463D01*
X4008346Y4898530D01*
X3991470Y4881654D01*
X3979537Y4860986D01*
X3973360Y4837933D01*
Y4814067D01*
X3979537Y4791014D01*
X3991470Y4770346D01*
X4008346Y4753470D01*
X4029014Y4741537D01*
X4052067Y4735360D01*
X4075933D01*
X4098986Y4741537D01*
X4119654Y4753470D01*
X4136530Y4770346D01*
X4148463Y4791014D01*
X4154640Y4814067D01*
Y4837933D01*
X4148463Y4860986D01*
X4136530Y4881654D01*
X4119654Y4898530D01*
X4098986Y4910463D01*
X4075933Y4916640D01*
D02*
G37*
G36*
X5316300Y4700626D02*
X5297700D01*
X5279735Y4695812D01*
X5263627Y4686512D01*
X5250476Y4673361D01*
X5241176Y4657253D01*
X5236362Y4639288D01*
Y4620688D01*
X5241176Y4602723D01*
X5250476Y4586616D01*
X5263627Y4573464D01*
X5279735Y4564165D01*
X5297700Y4559351D01*
X5316300D01*
X5334265Y4564165D01*
X5350372Y4573464D01*
X5363524Y4586616D01*
X5372823Y4602723D01*
X5377637Y4620688D01*
Y4639288D01*
X5372823Y4657253D01*
X5363524Y4673361D01*
X5350372Y4686512D01*
X5334265Y4695812D01*
X5316300Y4700626D01*
D02*
G37*
G36*
X5116300D02*
X5097700D01*
X5079735Y4695812D01*
X5063628Y4686512D01*
X5050476Y4673361D01*
X5041177Y4657253D01*
X5036363Y4639288D01*
Y4620688D01*
X5041177Y4602723D01*
X5050476Y4586616D01*
X5063628Y4573464D01*
X5079735Y4564165D01*
X5097700Y4559351D01*
X5116300D01*
X5134265Y4564165D01*
X5150373Y4573464D01*
X5163524Y4586616D01*
X5172824Y4602723D01*
X5177638Y4620688D01*
Y4639288D01*
X5172824Y4657253D01*
X5163524Y4673361D01*
X5150373Y4686512D01*
X5134265Y4695812D01*
X5116300Y4700626D01*
D02*
G37*
G36*
X8393933Y4662640D02*
X8370067D01*
X8347014Y4656463D01*
X8326346Y4644530D01*
X8309470Y4627654D01*
X8297537Y4606986D01*
X8291360Y4583933D01*
Y4560067D01*
X8297537Y4537014D01*
X8309470Y4516346D01*
X8326346Y4499470D01*
X8347014Y4487537D01*
X8370067Y4481360D01*
X8393933D01*
X8416986Y4487537D01*
X8437654Y4499470D01*
X8454530Y4516346D01*
X8466463Y4537014D01*
X8472640Y4560067D01*
Y4583933D01*
X8466463Y4606986D01*
X8454530Y4627654D01*
X8437654Y4644530D01*
X8416986Y4656463D01*
X8393933Y4662640D01*
D02*
G37*
G36*
X5316300Y4500626D02*
X5297700D01*
X5279735Y4495812D01*
X5263627Y4486513D01*
X5250476Y4473361D01*
X5241176Y4457254D01*
X5236362Y4439288D01*
Y4420689D01*
X5241176Y4402723D01*
X5250476Y4386616D01*
X5263627Y4373464D01*
X5279735Y4364165D01*
X5297700Y4359351D01*
X5316300D01*
X5334265Y4364165D01*
X5350372Y4373464D01*
X5363524Y4386616D01*
X5372823Y4402723D01*
X5377637Y4420689D01*
Y4439288D01*
X5372823Y4457254D01*
X5363524Y4473361D01*
X5350372Y4486513D01*
X5334265Y4495812D01*
X5316300Y4500626D01*
D02*
G37*
G36*
X5116300D02*
X5097700D01*
X5079735Y4495812D01*
X5063628Y4486513D01*
X5050476Y4473361D01*
X5041177Y4457254D01*
X5036363Y4439288D01*
Y4420689D01*
X5041177Y4402723D01*
X5050476Y4386616D01*
X5063628Y4373464D01*
X5079735Y4364165D01*
X5097700Y4359351D01*
X5116300D01*
X5134265Y4364165D01*
X5150373Y4373464D01*
X5163524Y4386616D01*
X5172824Y4402723D01*
X5177638Y4420689D01*
Y4439288D01*
X5172824Y4457254D01*
X5163524Y4473361D01*
X5150373Y4486513D01*
X5134265Y4495812D01*
X5116300Y4500626D01*
D02*
G37*
G36*
X3844945Y4508640D02*
X3821079D01*
X3798027Y4502463D01*
X3777358Y4490530D01*
X3760482Y4473654D01*
X3748550Y4452986D01*
X3742372Y4429933D01*
Y4406067D01*
X3748550Y4383014D01*
X3760482Y4362346D01*
X3777358Y4345470D01*
X3798027Y4333537D01*
X3821079Y4327360D01*
X3844945D01*
X3867998Y4333537D01*
X3888667Y4345470D01*
X3905542Y4362346D01*
X3917475Y4383014D01*
X3923652Y4406067D01*
Y4429933D01*
X3917475Y4452986D01*
X3905542Y4473654D01*
X3888667Y4490530D01*
X3867998Y4502463D01*
X3844945Y4508640D01*
D02*
G37*
G36*
Y4308640D02*
X3821079D01*
X3798027Y4302463D01*
X3777358Y4290530D01*
X3760482Y4273654D01*
X3748550Y4252986D01*
X3742372Y4229933D01*
Y4206067D01*
X3748550Y4183014D01*
X3760482Y4162346D01*
X3777358Y4145470D01*
X3798027Y4133537D01*
X3821079Y4127360D01*
X3844945D01*
X3867998Y4133537D01*
X3888667Y4145470D01*
X3905542Y4162346D01*
X3917475Y4183014D01*
X3923652Y4206067D01*
Y4229933D01*
X3917475Y4252986D01*
X3905542Y4273654D01*
X3888667Y4290530D01*
X3867998Y4302463D01*
X3844945Y4308640D01*
D02*
G37*
G36*
X8427320Y4154640D02*
X8336680D01*
X8291360Y4109320D01*
Y4018680D01*
X8336680Y3973360D01*
X8427320D01*
X8472640Y4018680D01*
Y4109320D01*
X8427320Y4154640D01*
D02*
G37*
G36*
X4964933Y3946639D02*
X4941067D01*
X4918014Y3940462D01*
X4897346Y3928529D01*
X4880470Y3911654D01*
X4868537Y3890985D01*
X4862360Y3867932D01*
Y3844066D01*
X4868537Y3821014D01*
X4880470Y3800345D01*
X4897346Y3783469D01*
X4918014Y3771537D01*
X4941067Y3765360D01*
X4964933D01*
X4987986Y3771537D01*
X5008654Y3783469D01*
X5025530Y3800345D01*
X5037463Y3821014D01*
X5043640Y3844066D01*
Y3867932D01*
X5037463Y3890985D01*
X5025530Y3911654D01*
X5008654Y3928529D01*
X4987986Y3940462D01*
X4964933Y3946639D01*
D02*
G37*
G36*
X8393933Y3900640D02*
X8370067D01*
X8347014Y3894463D01*
X8326346Y3882530D01*
X8309470Y3865654D01*
X8297537Y3844986D01*
X8291360Y3821933D01*
Y3798067D01*
X8297537Y3775014D01*
X8309470Y3754346D01*
X8326346Y3737470D01*
X8347014Y3725537D01*
X8370067Y3719360D01*
X8393933D01*
X8416986Y3725537D01*
X8437654Y3737470D01*
X8454530Y3754346D01*
X8466463Y3775014D01*
X8472640Y3798067D01*
Y3821933D01*
X8466463Y3844986D01*
X8454530Y3865654D01*
X8437654Y3882530D01*
X8416986Y3894463D01*
X8393933Y3900640D01*
D02*
G37*
G36*
X9663933Y3646640D02*
X9640067D01*
X9617014Y3640463D01*
X9596346Y3628530D01*
X9579470Y3611654D01*
X9567537Y3590986D01*
X9561360Y3567933D01*
Y3544067D01*
X9567537Y3521014D01*
X9579470Y3500346D01*
X9596346Y3483470D01*
X9617014Y3471537D01*
X9640067Y3465360D01*
X9663933D01*
X9686986Y3471537D01*
X9707654Y3483470D01*
X9724530Y3500346D01*
X9736463Y3521014D01*
X9742640Y3544067D01*
Y3567933D01*
X9736463Y3590986D01*
X9724530Y3611654D01*
X9707654Y3628530D01*
X9686986Y3640463D01*
X9663933Y3646640D01*
D02*
G37*
G36*
X8393933D02*
X8370067D01*
X8347014Y3640463D01*
X8326346Y3628530D01*
X8309470Y3611654D01*
X8297537Y3590986D01*
X8291360Y3567933D01*
Y3544067D01*
X8297537Y3521014D01*
X8309470Y3500346D01*
X8326346Y3483470D01*
X8347014Y3471537D01*
X8370067Y3465360D01*
X8393933D01*
X8416986Y3471537D01*
X8437654Y3483470D01*
X8454530Y3500346D01*
X8466463Y3521014D01*
X8472640Y3544067D01*
Y3567933D01*
X8466463Y3590986D01*
X8454530Y3611654D01*
X8437654Y3628530D01*
X8416986Y3640463D01*
X8393933Y3646640D01*
D02*
G37*
G36*
X8139933D02*
X8116067D01*
X8093014Y3640463D01*
X8072346Y3628530D01*
X8055470Y3611654D01*
X8043537Y3590986D01*
X8037360Y3567933D01*
Y3544067D01*
X8043537Y3521014D01*
X8055470Y3500346D01*
X8072346Y3483470D01*
X8093014Y3471537D01*
X8116067Y3465360D01*
X8139933D01*
X8162986Y3471537D01*
X8183654Y3483470D01*
X8200530Y3500346D01*
X8212463Y3521014D01*
X8218640Y3544067D01*
Y3567933D01*
X8212463Y3590986D01*
X8200530Y3611654D01*
X8183654Y3628530D01*
X8162986Y3640463D01*
X8139933Y3646640D01*
D02*
G37*
G36*
X7411320D02*
X7320680D01*
X7275360Y3601320D01*
Y3510680D01*
X7320680Y3465360D01*
X7411320D01*
X7456640Y3510680D01*
Y3601320D01*
X7411320Y3646640D01*
D02*
G37*
G36*
X7123933D02*
X7100067D01*
X7077014Y3640463D01*
X7056346Y3628530D01*
X7039470Y3611654D01*
X7027537Y3590986D01*
X7021360Y3567933D01*
Y3544067D01*
X7027537Y3521014D01*
X7039470Y3500346D01*
X7056346Y3483470D01*
X7077014Y3471537D01*
X7100067Y3465360D01*
X7123933D01*
X7146986Y3471537D01*
X7167654Y3483470D01*
X7184530Y3500346D01*
X7196463Y3521014D01*
X7202640Y3544067D01*
Y3567933D01*
X7196463Y3590986D01*
X7184530Y3611654D01*
X7167654Y3628530D01*
X7146986Y3640463D01*
X7123933Y3646640D01*
D02*
G37*
G36*
X6869933D02*
X6846067D01*
X6823014Y3640463D01*
X6802346Y3628530D01*
X6785470Y3611654D01*
X6773537Y3590986D01*
X6767360Y3567933D01*
Y3544067D01*
X6773537Y3521014D01*
X6785470Y3500346D01*
X6802346Y3483470D01*
X6823014Y3471537D01*
X6846067Y3465360D01*
X6869933D01*
X6892986Y3471537D01*
X6913654Y3483470D01*
X6930530Y3500346D01*
X6942463Y3521014D01*
X6948640Y3544067D01*
Y3567933D01*
X6942463Y3590986D01*
X6930530Y3611654D01*
X6913654Y3628530D01*
X6892986Y3640463D01*
X6869933Y3646640D01*
D02*
G37*
G36*
X6615933D02*
X6592067D01*
X6569014Y3640463D01*
X6548346Y3628530D01*
X6531470Y3611654D01*
X6519537Y3590986D01*
X6513360Y3567933D01*
Y3544067D01*
X6519537Y3521014D01*
X6531470Y3500346D01*
X6548346Y3483470D01*
X6569014Y3471537D01*
X6592067Y3465360D01*
X6615933D01*
X6638986Y3471537D01*
X6659654Y3483470D01*
X6676530Y3500346D01*
X6688463Y3521014D01*
X6694640Y3544067D01*
Y3567933D01*
X6688463Y3590986D01*
X6676530Y3611654D01*
X6659654Y3628530D01*
X6638986Y3640463D01*
X6615933Y3646640D01*
D02*
G37*
G36*
X6361933D02*
X6338067D01*
X6315014Y3640463D01*
X6294346Y3628530D01*
X6277470Y3611654D01*
X6265537Y3590986D01*
X6259360Y3567933D01*
Y3544067D01*
X6265537Y3521014D01*
X6277470Y3500346D01*
X6294346Y3483470D01*
X6315014Y3471537D01*
X6338067Y3465360D01*
X6361933D01*
X6384986Y3471537D01*
X6405654Y3483470D01*
X6422530Y3500346D01*
X6434463Y3521014D01*
X6440640Y3544067D01*
Y3567933D01*
X6434463Y3590986D01*
X6422530Y3611654D01*
X6405654Y3628530D01*
X6384986Y3640463D01*
X6361933Y3646640D01*
D02*
G37*
G36*
X6107933D02*
X6084067D01*
X6061014Y3640463D01*
X6040346Y3628530D01*
X6023470Y3611654D01*
X6011537Y3590986D01*
X6005360Y3567933D01*
Y3544067D01*
X6011537Y3521014D01*
X6023470Y3500346D01*
X6040346Y3483470D01*
X6061014Y3471537D01*
X6084067Y3465360D01*
X6107933D01*
X6130986Y3471537D01*
X6151654Y3483470D01*
X6168530Y3500346D01*
X6180463Y3521014D01*
X6186640Y3544067D01*
Y3567933D01*
X6180463Y3590986D01*
X6168530Y3611654D01*
X6151654Y3628530D01*
X6130986Y3640463D01*
X6107933Y3646640D01*
D02*
G37*
G36*
X5853933D02*
X5830067D01*
X5807014Y3640463D01*
X5786346Y3628530D01*
X5769470Y3611654D01*
X5757537Y3590986D01*
X5751360Y3567933D01*
Y3544067D01*
X5757537Y3521014D01*
X5769470Y3500346D01*
X5786346Y3483470D01*
X5807014Y3471537D01*
X5830067Y3465360D01*
X5853933D01*
X5876986Y3471537D01*
X5897654Y3483470D01*
X5914530Y3500346D01*
X5926463Y3521014D01*
X5932640Y3544067D01*
Y3567933D01*
X5926463Y3590986D01*
X5914530Y3611654D01*
X5897654Y3628530D01*
X5876986Y3640463D01*
X5853933Y3646640D01*
D02*
G37*
G36*
X5091933D02*
X5068067D01*
X5045014Y3640463D01*
X5024346Y3628530D01*
X5007470Y3611654D01*
X4995537Y3590986D01*
X4989360Y3567933D01*
Y3544067D01*
X4995537Y3521014D01*
X5007470Y3500346D01*
X5024346Y3483470D01*
X5045014Y3471537D01*
X5068067Y3465360D01*
X5091933D01*
X5114986Y3471537D01*
X5135654Y3483470D01*
X5152530Y3500346D01*
X5164463Y3521014D01*
X5170640Y3544067D01*
Y3567933D01*
X5164463Y3590986D01*
X5152530Y3611654D01*
X5135654Y3628530D01*
X5114986Y3640463D01*
X5091933Y3646640D01*
D02*
G37*
G36*
X4075933D02*
X4052067D01*
X4029014Y3640463D01*
X4008346Y3628530D01*
X3991470Y3611654D01*
X3979537Y3590986D01*
X3973360Y3567933D01*
Y3544067D01*
X3979537Y3521014D01*
X3991470Y3500346D01*
X4008346Y3483470D01*
X4029014Y3471537D01*
X4052067Y3465360D01*
X4075933D01*
X4098986Y3471537D01*
X4119654Y3483470D01*
X4136530Y3500346D01*
X4148463Y3521014D01*
X4154640Y3544067D01*
Y3567933D01*
X4148463Y3590986D01*
X4136530Y3611654D01*
X4119654Y3628530D01*
X4098986Y3640463D01*
X4075933Y3646640D01*
D02*
G37*
G36*
X6616038Y3012440D02*
X6591962D01*
X6568705Y3006208D01*
X6547855Y2994170D01*
X6530830Y2977145D01*
X6518792Y2956295D01*
X6512560Y2933038D01*
Y2908962D01*
X6518792Y2885705D01*
X6530830Y2864855D01*
X6547855Y2847830D01*
X6568705Y2835792D01*
X6591962Y2829560D01*
X6616038D01*
X6639295Y2835792D01*
X6660145Y2847830D01*
X6677170Y2864855D01*
X6689208Y2885705D01*
X6695440Y2908962D01*
Y2933038D01*
X6689208Y2956295D01*
X6677170Y2977145D01*
X6660145Y2994170D01*
X6639295Y3006208D01*
X6616038Y3012440D01*
D02*
G37*
G36*
X6362038D02*
X6337962D01*
X6314705Y3006208D01*
X6293855Y2994170D01*
X6276830Y2977145D01*
X6264792Y2956295D01*
X6258560Y2933038D01*
Y2908962D01*
X6264792Y2885705D01*
X6276830Y2864855D01*
X6293855Y2847830D01*
X6314705Y2835792D01*
X6337962Y2829560D01*
X6362038D01*
X6385295Y2835792D01*
X6406145Y2847830D01*
X6423170Y2864855D01*
X6435208Y2885705D01*
X6441440Y2908962D01*
Y2933038D01*
X6435208Y2956295D01*
X6423170Y2977145D01*
X6406145Y2994170D01*
X6385295Y3006208D01*
X6362038Y3012440D01*
D02*
G37*
G36*
X3484397Y2865247D02*
X3373603D01*
X3355162Y2862819D01*
X3337979Y2855702D01*
X3323223Y2844379D01*
X3311901Y2829623D01*
X3304783Y2812440D01*
X3302356Y2794000D01*
X3304783Y2775560D01*
X3311901Y2758376D01*
X3323223Y2743621D01*
X3329892Y2738504D01*
Y2722496D01*
X3323223Y2717379D01*
X3311901Y2702623D01*
X3304783Y2685440D01*
X3302356Y2667000D01*
X3304783Y2648560D01*
X3311901Y2631376D01*
X3323223Y2616621D01*
X3337979Y2605298D01*
X3355162Y2598181D01*
X3373603Y2595753D01*
X3484397D01*
X3502838Y2598181D01*
X3520021Y2605298D01*
X3534777Y2616621D01*
X3546099Y2631376D01*
X3553217Y2648560D01*
X3555644Y2667000D01*
X3553217Y2685440D01*
X3546099Y2702623D01*
X3534777Y2717379D01*
X3528108Y2722496D01*
Y2738504D01*
X3534777Y2743621D01*
X3546099Y2758376D01*
X3553217Y2775560D01*
X3555644Y2794000D01*
X3553217Y2812440D01*
X3546099Y2829623D01*
X3534777Y2844379D01*
X3520021Y2855702D01*
X3502838Y2862819D01*
X3484397Y2865247D01*
D02*
G37*
G36*
X8901933Y3646640D02*
X8878067D01*
X8855014Y3640463D01*
X8834346Y3628530D01*
X8817470Y3611654D01*
X8805537Y3590986D01*
X8799360Y3567933D01*
Y3544067D01*
X8805537Y3521014D01*
X8817470Y3500346D01*
X8834346Y3483470D01*
X8837591Y3481597D01*
Y2511590D01*
X8840745Y2495733D01*
X8849727Y2482290D01*
X8870363Y2461654D01*
X8870008Y2461040D01*
X8861527Y2429386D01*
Y2396614D01*
X8870008Y2364960D01*
X8886394Y2336580D01*
X8909566Y2313407D01*
X8937947Y2297022D01*
X8969601Y2288540D01*
X9002372D01*
X9034026Y2297022D01*
X9062407Y2313407D01*
X9085579Y2336580D01*
X9101965Y2364960D01*
X9110447Y2396614D01*
Y2429386D01*
X9101965Y2461040D01*
X9085579Y2489420D01*
X9062407Y2512593D01*
X9034026Y2528978D01*
X9002372Y2537460D01*
X8969601D01*
X8937947Y2528978D01*
X8931782Y2525419D01*
X8920463Y2533549D01*
Y3470325D01*
X8924986Y3471537D01*
X8945654Y3483470D01*
X8962530Y3500346D01*
X8974463Y3521014D01*
X8980640Y3544067D01*
Y3567933D01*
X8974463Y3590986D01*
X8962530Y3611654D01*
X8945654Y3628530D01*
X8924986Y3640463D01*
X8901933Y3646640D01*
D02*
G37*
G36*
X8647933D02*
X8624067D01*
X8601014Y3640463D01*
X8580346Y3628530D01*
X8563470Y3611654D01*
X8551537Y3590986D01*
X8545360Y3567933D01*
Y3544067D01*
X8551537Y3521014D01*
X8563470Y3500346D01*
X8580346Y3483470D01*
X8583591Y3481597D01*
Y2526455D01*
X8559580Y2512593D01*
X8536407Y2489420D01*
X8520022Y2461040D01*
X8511540Y2429386D01*
Y2396614D01*
X8520022Y2364960D01*
X8536407Y2336580D01*
X8559580Y2313407D01*
X8587960Y2297022D01*
X8619614Y2288540D01*
X8652386D01*
X8684040Y2297022D01*
X8712420Y2313407D01*
X8735593Y2336580D01*
X8751978Y2364960D01*
X8760460Y2396614D01*
Y2429386D01*
X8751978Y2461040D01*
X8735593Y2489420D01*
X8712420Y2512593D01*
X8684040Y2528978D01*
X8666463Y2533688D01*
Y3470325D01*
X8670986Y3471537D01*
X8691654Y3483470D01*
X8708530Y3500346D01*
X8720463Y3521014D01*
X8726640Y3544067D01*
Y3567933D01*
X8720463Y3590986D01*
X8708530Y3611654D01*
X8691654Y3628530D01*
X8670986Y3640463D01*
X8647933Y3646640D01*
D02*
G37*
G36*
X7885933D02*
X7862067D01*
X7839014Y3640463D01*
X7818346Y3628530D01*
X7801470Y3611654D01*
X7789537Y3590986D01*
X7783360Y3567933D01*
Y3544067D01*
X7789537Y3521014D01*
X7801470Y3500346D01*
X7818346Y3483470D01*
X7821591Y3481597D01*
Y2529841D01*
X7824745Y2513984D01*
X7833727Y2500541D01*
X7840628Y2493640D01*
X7836409Y2489420D01*
X7820023Y2461040D01*
X7811541Y2429386D01*
Y2396614D01*
X7820023Y2364960D01*
X7836409Y2336580D01*
X7859581Y2313407D01*
X7887962Y2297022D01*
X7919616Y2288540D01*
X7952387D01*
X7984041Y2297022D01*
X8012422Y2313407D01*
X8035594Y2336580D01*
X8051980Y2364960D01*
X8060461Y2396614D01*
Y2429386D01*
X8051980Y2461040D01*
X8035594Y2489420D01*
X8012422Y2512593D01*
X7984041Y2528978D01*
X7952387Y2537460D01*
X7919616D01*
X7915193Y2536275D01*
X7904463Y2547005D01*
Y3470325D01*
X7908986Y3471537D01*
X7929654Y3483470D01*
X7946530Y3500346D01*
X7958463Y3521014D01*
X7964640Y3544067D01*
Y3567933D01*
X7958463Y3590986D01*
X7946530Y3611654D01*
X7929654Y3628530D01*
X7908986Y3640463D01*
X7885933Y3646640D01*
D02*
G37*
G36*
X7631933D02*
X7608067D01*
X7585014Y3640463D01*
X7564346Y3628530D01*
X7547470Y3611654D01*
X7535537Y3590986D01*
X7529360Y3567933D01*
Y3544067D01*
X7535537Y3521014D01*
X7547470Y3500346D01*
X7564346Y3483470D01*
X7567591Y3481597D01*
Y2669603D01*
X7570745Y2653747D01*
X7579727Y2640304D01*
X7694591Y2525440D01*
Y2288603D01*
X7697745Y2272747D01*
X7706727Y2259304D01*
X7833727Y2132304D01*
X7847170Y2123321D01*
X7863027Y2120167D01*
X8117027D01*
X8132884Y2123321D01*
X8146327Y2132304D01*
X8267379Y2253355D01*
X8276361Y2266798D01*
X8279515Y2282655D01*
Y2288540D01*
X8302374D01*
X8334028Y2297022D01*
X8362408Y2313407D01*
X8385581Y2336580D01*
X8401966Y2364960D01*
X8410448Y2396614D01*
Y2429386D01*
X8401966Y2461040D01*
X8385581Y2489420D01*
X8362408Y2512593D01*
X8334028Y2528978D01*
X8302374Y2537460D01*
X8269602D01*
X8237948Y2528978D01*
X8209568Y2512593D01*
X8186395Y2489420D01*
X8170010Y2461040D01*
X8161528Y2429386D01*
Y2396614D01*
X8170010Y2364960D01*
X8186395Y2336580D01*
X8196642Y2326333D01*
Y2299819D01*
X8099864Y2203040D01*
X7880191D01*
X7777463Y2305767D01*
Y2542603D01*
X7774309Y2558460D01*
X7765327Y2571903D01*
X7650463Y2686767D01*
Y3470325D01*
X7654986Y3471537D01*
X7675654Y3483470D01*
X7692530Y3500346D01*
X7704463Y3521014D01*
X7710640Y3544067D01*
Y3567933D01*
X7704463Y3590986D01*
X7692530Y3611654D01*
X7675654Y3628530D01*
X7654986Y3640463D01*
X7631933Y3646640D01*
D02*
G37*
%LPD*%
G36*
X9356564Y6498948D02*
Y6350000D01*
X9359718Y6334143D01*
X9368700Y6320700D01*
X9737564Y5951836D01*
Y5732164D01*
X9495700Y5490300D01*
X9486718Y5476857D01*
X9483564Y5461000D01*
Y5138479D01*
X9470864Y5135076D01*
X9470530Y5135654D01*
X9453654Y5152530D01*
X9432986Y5164463D01*
X9409933Y5170640D01*
X9386067D01*
X9363608Y5164622D01*
X9222469Y5305761D01*
Y5721312D01*
X9240046Y5726022D01*
X9268426Y5742407D01*
X9291599Y5765580D01*
X9307984Y5793960D01*
X9316466Y5825614D01*
Y5858386D01*
X9307984Y5890040D01*
X9291599Y5918420D01*
X9269692Y5940327D01*
X9271472Y5952957D01*
X9271490Y5953027D01*
X9363996D01*
X9426369Y5890654D01*
X9426014Y5890040D01*
X9417533Y5858386D01*
Y5825614D01*
X9426014Y5793960D01*
X9442400Y5765580D01*
X9465572Y5742407D01*
X9493953Y5726022D01*
X9525607Y5717540D01*
X9558378D01*
X9590032Y5726022D01*
X9618413Y5742407D01*
X9641585Y5765580D01*
X9657971Y5793960D01*
X9666453Y5825614D01*
Y5858386D01*
X9657971Y5890040D01*
X9641585Y5918420D01*
X9618413Y5941593D01*
X9590032Y5957978D01*
X9565486Y5964556D01*
Y5969950D01*
X9562332Y5985807D01*
X9553349Y5999250D01*
X9301463Y6251136D01*
Y6462602D01*
X9311991Y6466962D01*
X9328969Y6479991D01*
X9341998Y6496969D01*
X9343864Y6501474D01*
X9356564Y6498948D01*
D02*
G37*
G36*
X4532410Y3800718D02*
X4533718Y3794143D01*
X4542700Y3780700D01*
X4665929Y3657471D01*
Y3599991D01*
X4653229Y3596588D01*
X4644530Y3611654D01*
X4627654Y3628530D01*
X4606986Y3640463D01*
X4583933Y3646640D01*
X4560067D01*
X4537014Y3640463D01*
X4516346Y3628530D01*
X4499470Y3611654D01*
X4499136Y3611076D01*
X4486436Y3614479D01*
Y3683546D01*
X4483282Y3699403D01*
X4474300Y3712846D01*
X4434486Y3752660D01*
X4439747Y3765360D01*
X4456933D01*
X4479986Y3771537D01*
X4500654Y3783469D01*
X4517530Y3800345D01*
X4519021Y3802928D01*
X4532410Y3800718D01*
D02*
G37*
G36*
X4665929Y3512009D02*
Y3294757D01*
Y3073529D01*
X4569111Y2976711D01*
X4543828D01*
X4536021Y2982702D01*
X4518838Y2989819D01*
X4500397Y2992247D01*
X4389603D01*
X4371162Y2989819D01*
X4353979Y2982702D01*
X4339223Y2971379D01*
X4327901Y2956623D01*
X4320783Y2939440D01*
X4318356Y2921000D01*
X4320783Y2902560D01*
X4327901Y2885376D01*
X4339223Y2870621D01*
X4345892Y2865504D01*
Y2849496D01*
X4339224Y2844379D01*
X4327020Y2843580D01*
X4232436Y2938164D01*
Y3030836D01*
X4474300Y3272700D01*
X4483282Y3286143D01*
X4486437Y3302000D01*
X4486436Y3302001D01*
Y3497521D01*
X4499136Y3500924D01*
X4499470Y3500346D01*
X4516346Y3483470D01*
X4537014Y3471537D01*
X4560067Y3465360D01*
X4583933D01*
X4606986Y3471537D01*
X4627654Y3483470D01*
X4644530Y3500346D01*
X4653229Y3515412D01*
X4665929Y3512009D01*
D02*
G37*
D10*
X9335999Y2413000D02*
D03*
X7585989D02*
D03*
X7936001D02*
D03*
X8285988D02*
D03*
X8636000D02*
D03*
X8985987D02*
D03*
X8492007Y5842000D02*
D03*
X8841994D02*
D03*
X9192006D02*
D03*
X9541993D02*
D03*
D11*
X5461000Y6731000D02*
D03*
X5207000D02*
D03*
X4953000D02*
D03*
X5461000Y7239000D02*
D03*
X5207000D02*
D03*
X4953000D02*
D03*
X6858000Y2921000D02*
D03*
X6604000D02*
D03*
X6350000D02*
D03*
D12*
X5307000Y4429989D02*
D03*
Y4629988D02*
D03*
Y4829988D02*
D03*
X5107000Y4429989D02*
D03*
Y4629988D02*
D03*
Y4829988D02*
D03*
D13*
X3833012Y4218000D02*
D03*
Y4418000D02*
D03*
X7620000Y3556000D02*
D03*
X5461000Y3855999D02*
D03*
X5207000D02*
D03*
X4953000D02*
D03*
X4699000D02*
D03*
X4445000D02*
D03*
X9652000Y5080000D02*
D03*
X9398000D02*
D03*
X9144000D02*
D03*
X8890000D02*
D03*
X8636000D02*
D03*
X8382000D02*
D03*
X8128000D02*
D03*
X7874000D02*
D03*
X7620000D02*
D03*
X9652000Y3556000D02*
D03*
X9398000D02*
D03*
X9144000D02*
D03*
X8890000D02*
D03*
X8636000D02*
D03*
X8382000D02*
D03*
X8128000D02*
D03*
X7874000D02*
D03*
X4572000Y5080000D02*
D03*
X4826000D02*
D03*
X5080000D02*
D03*
X5334000D02*
D03*
X5588000D02*
D03*
X5842000D02*
D03*
X6096000D02*
D03*
X6350000D02*
D03*
X6604000D02*
D03*
X6858000D02*
D03*
X4064000Y4826000D02*
D03*
X6858000Y3556000D02*
D03*
X6604000D02*
D03*
X6350000D02*
D03*
X6096000D02*
D03*
X5842000D02*
D03*
X5588000D02*
D03*
X5334000D02*
D03*
X5080000D02*
D03*
X4826000D02*
D03*
X4572000D02*
D03*
X4318000D02*
D03*
X4064000D02*
D03*
X7112000D02*
D03*
Y5080000D02*
D03*
X8382000Y4826000D02*
D03*
Y4572000D02*
D03*
Y3810000D02*
D03*
D14*
X7366000Y5080000D02*
D03*
X8382000Y4318000D02*
D03*
X3810000Y3556000D02*
D03*
D15*
X7366000D02*
D03*
X8382000Y4064000D02*
D03*
X4318000Y5080000D02*
D03*
D16*
X3810000D02*
D03*
X6096000Y6477000D02*
D03*
Y6731000D02*
D03*
Y6985000D02*
D03*
X6477000Y6477000D02*
D03*
Y6731000D02*
D03*
Y6985000D02*
D03*
D17*
X4064000Y5080000D02*
D03*
D18*
X7747000Y6985000D02*
D03*
X7493000D02*
D03*
X7239000D02*
D03*
X6985000D02*
D03*
D19*
X9525000Y7366000D02*
D03*
X9271000D02*
D03*
X9525000Y6604000D02*
D03*
X9271000D02*
D03*
X8763000Y7366000D02*
D03*
X9017000D02*
D03*
Y6604000D02*
D03*
X8763000D02*
D03*
D20*
X4445000Y2921000D02*
D03*
Y2794000D02*
D03*
Y2667000D02*
D03*
Y2540000D02*
D03*
X3429000Y2794000D02*
D03*
Y2667000D02*
D03*
D21*
X4191000Y3048000D02*
X4445000Y3302000D01*
X4191000Y2921000D02*
Y3048000D01*
Y2921000D02*
X4318000Y2794000D01*
X4445000D01*
X4586275Y2935275D02*
X4707365Y3056365D01*
X4445000Y2921000D02*
X4459275Y2935275D01*
X4586275D01*
X4707365Y3056365D02*
Y3294757D01*
X4699000Y2667000D02*
Y2743361D01*
X4572000Y2540000D02*
X4699000Y2667000D01*
X4445000Y2540000D02*
X4572000D01*
X9260027Y6233973D02*
Y6606603D01*
X4699001Y2743362D02*
X5461000Y3505340D01*
X9271000Y3606660D02*
X9525000Y3860660D01*
Y5461000D01*
X9779000Y5715000D01*
X9381160Y5994463D02*
X9531020Y5844603D01*
X8058607Y5994463D02*
X9381160D01*
X9524050Y5859943D02*
X9541993Y5842000D01*
X9260027Y6233973D02*
X9524050Y5969950D01*
Y5859943D02*
Y5969950D01*
X9779000Y5715000D02*
Y5969000D01*
X9398000Y6350000D02*
X9779000Y5969000D01*
X9398000Y6350000D02*
Y6710995D01*
X9144000Y6858000D02*
X9271000D01*
X9398000Y6731000D01*
X9017000Y6604000D02*
Y6731000D01*
X9144000Y6858000D01*
X6691755Y4837439D02*
X7104096D01*
X7239000Y4972343D01*
X5461000Y3606660D02*
X6691755Y4837439D01*
X7239000Y4972343D02*
Y5174831D01*
X8058607Y5994463D01*
X4707365Y3294757D02*
Y3683000D01*
X4572000Y3810000D02*
Y4839576D01*
Y3810000D02*
X4699000Y3683000D01*
X4318000Y3810546D02*
X4445000Y3683546D01*
Y3302000D02*
Y3683546D01*
X9325026Y2415603D02*
Y2861602D01*
X9387027Y2923603D01*
X9373032Y3408490D02*
X9387027Y3394494D01*
Y2923603D02*
Y3394494D01*
X7925029Y2415603D02*
Y2467840D01*
X7863027Y2529841D02*
Y3558603D01*
Y2529841D02*
X7925029Y2467840D01*
X8238079Y2378667D02*
X8275015Y2415603D01*
X8238079Y2282655D02*
Y2378667D01*
X8117027Y2161603D02*
X8238079Y2282655D01*
X7863027Y2161603D02*
X8117027D01*
X7736027Y2288603D02*
X7863027Y2161603D01*
X7736027Y2288603D02*
Y2542603D01*
X7609027Y2669603D02*
X7736027Y2542603D01*
X7609027Y2669603D02*
Y3558603D01*
X8879027Y2511590D02*
X8975014Y2415603D01*
X8879027Y2511590D02*
Y3558603D01*
X8625027Y2415603D02*
Y3558603D01*
X6847027Y5082603D02*
X7736027Y5971603D01*
Y6987604D01*
X6085027Y5082603D02*
Y6479604D01*
X6339027Y5082603D02*
X6466027Y5209604D01*
Y6479604D01*
X4572000Y4839576D02*
X4815027Y5082603D01*
X4318000Y4839576D02*
X4561027Y5082603D01*
X4318000Y3810546D02*
Y4839576D01*
X5577027Y5082603D02*
Y6352604D01*
X5196027Y6733603D02*
X5577027Y6352604D01*
X5831027Y5082603D02*
Y6606603D01*
X5196027Y7241603D02*
X5831027Y6606603D01*
X6085027Y6987604D02*
X6466027D01*
X8831021Y5384609D02*
X9133027Y5082603D01*
X8831021Y5384609D02*
Y5844603D01*
X9181033Y5288598D02*
X9387027Y5082603D01*
X9181033Y5288598D02*
Y5844603D01*
X9271000Y3510547D02*
X9373032Y3408490D01*
X9271000Y3510547D02*
Y3606660D01*
X5461000Y3505340D02*
Y3606660D01*
X5069027Y7368604D02*
X8752027D01*
X4942027Y7241603D02*
X5069027Y7368604D01*
X4942027Y6733603D02*
Y7241603D01*
D22*
X4699000Y2743361D02*
X4699001Y2743362D01*
X9398000Y6710995D02*
Y6731000D01*
X4699000Y3683000D02*
X4707365D01*
%TF.MD5,530b814dabdd7fdcdfc4069e5617939b*%
M02*
