%TF.GenerationSoftware,Altium Limited,Altium Designer,25.2.1 (25)*%
G04 Layer_Physical_Order=2*
G04 Layer_Color=16711680*
%FSLAX45Y45*%
%MOMM*%
%TF.SameCoordinates,263333B9-CEA0-44AE-B74E-27EC067FB1C6*%
%TF.FilePolarity,Positive*%
%TF.FileFunction,Copper,L2,Bot,Signal*%
%TF.Part,Single*%
G01*
G75*
%TA.AperFunction,Conductor*%
%ADD10C,0.25400*%
%TA.AperFunction,ViaPad*%
%ADD11C,1.52400*%
%TA.AperFunction,ComponentPad*%
%ADD12C,2.99000*%
%ADD13C,2.64000*%
%ADD14R,2.64000X2.64000*%
%ADD15C,1.40000*%
%ADD16R,1.40000X1.40000*%
%ADD17C,1.77800*%
%ADD18C,1.30800*%
%ADD19C,1.20800*%
%ADD20C,1.25800*%
%ADD21C,1.85000*%
%ADD22R,1.85000X1.85000*%
%ADD23R,1.35000X1.35000*%
%ADD24C,1.35000*%
%ADD25C,1.90500*%
G36*
X6540500Y9969500D02*
Y7482392D01*
X6534231Y7476925D01*
X6515100Y7471029D01*
X6508492Y7478959D01*
X6514600Y7501752D01*
Y7531848D01*
X6506810Y7560918D01*
X6491763Y7586982D01*
X6470482Y7608263D01*
X6444418Y7623311D01*
X6415348Y7631100D01*
X6385252D01*
X6356182Y7623311D01*
X6330118Y7608263D01*
X6308837Y7586982D01*
X6293789Y7560918D01*
X6286000Y7531848D01*
Y7501752D01*
X6293789Y7472682D01*
X6308837Y7446618D01*
X6330118Y7425337D01*
X6356182Y7410289D01*
X6385252Y7402500D01*
X6415348D01*
X6444418Y7410289D01*
X6449145Y7413018D01*
X6540500Y7321663D01*
Y1617037D01*
X6085993Y1162530D01*
X6079069Y1166528D01*
X6048384Y1174750D01*
X6016616D01*
X5985931Y1166528D01*
X5958419Y1150644D01*
X5935956Y1128181D01*
X5920072Y1100669D01*
X5918648Y1095355D01*
X5892352D01*
X5890928Y1100669D01*
X5875044Y1128181D01*
X5852581Y1150644D01*
X5825069Y1166528D01*
X5794384Y1174750D01*
X5791200D01*
Y1054100D01*
Y933450D01*
X5794384D01*
X5825069Y941672D01*
X5834875Y947334D01*
X5850471Y927009D01*
X5343309Y419847D01*
X5111275D01*
X5111176Y420216D01*
X5097800Y443384D01*
X5078884Y462300D01*
X5055716Y475676D01*
X5029876Y482600D01*
X5003124D01*
X4977284Y475676D01*
X4968901Y470836D01*
X4418104Y1021633D01*
X4425950Y1050916D01*
Y1082684D01*
X4417728Y1113369D01*
X4401844Y1140881D01*
X4379381Y1163344D01*
X4351869Y1179228D01*
X4321184Y1187450D01*
X4289416D01*
X4258731Y1179228D01*
X4231219Y1163344D01*
X4208756Y1140881D01*
X4192872Y1113369D01*
X4191448Y1108055D01*
X4165152D01*
X4163728Y1113369D01*
X4147844Y1140881D01*
X4125381Y1163344D01*
X4097869Y1179228D01*
X4067184Y1187450D01*
X4064000D01*
Y1066800D01*
Y946150D01*
X4067184D01*
X4097869Y954372D01*
X4125381Y970256D01*
X4147844Y992719D01*
X4163728Y1020231D01*
X4165152Y1025545D01*
X4191448D01*
X4192872Y1020231D01*
X4208756Y992719D01*
X4231219Y970256D01*
X4258731Y954372D01*
X4289416Y946150D01*
X4321184D01*
X4351869Y954372D01*
X4366845Y963018D01*
X4919251Y410612D01*
X4914900Y394376D01*
Y367624D01*
X4921824Y341784D01*
X4935200Y318616D01*
X4954116Y299700D01*
X4977284Y286324D01*
X5003124Y279400D01*
X5029876D01*
X5055716Y286324D01*
X5078884Y299700D01*
X5097800Y318616D01*
X5111176Y341784D01*
X5111275Y342153D01*
X5359400D01*
X5374266Y345111D01*
X5386869Y353531D01*
X5979007Y945670D01*
X5985931Y941672D01*
X6016616Y933450D01*
X6048384D01*
X6079069Y941672D01*
X6106581Y957556D01*
X6129044Y980019D01*
X6144928Y1007531D01*
X6153150Y1038216D01*
Y1069984D01*
X6144928Y1100669D01*
X6140930Y1107593D01*
X6517033Y1483696D01*
X6540500Y1473976D01*
Y165100D01*
X2451100D01*
X1790700Y825500D01*
X546100Y2070100D01*
Y8585200D01*
X2019300Y10058400D01*
X6540500D01*
Y9969500D01*
D02*
G37*
%LPC*%
G36*
X6415348Y9917100D02*
X6385252D01*
X6356182Y9909311D01*
X6330118Y9894263D01*
X6308837Y9872982D01*
X6293789Y9846918D01*
X6286000Y9817848D01*
Y9787752D01*
X6293789Y9758682D01*
X6308837Y9732618D01*
X6330118Y9711337D01*
X6356182Y9696289D01*
X6385252Y9688500D01*
X6415348D01*
X6444418Y9696289D01*
X6470482Y9711337D01*
X6491763Y9732618D01*
X6506810Y9758682D01*
X6514600Y9787752D01*
Y9817848D01*
X6506810Y9846918D01*
X6491763Y9872982D01*
X6470482Y9894263D01*
X6444418Y9909311D01*
X6415348Y9917100D01*
D02*
G37*
G36*
X4891348D02*
X4861252D01*
X4832182Y9909311D01*
X4806118Y9894263D01*
X4784837Y9872982D01*
X4769789Y9846918D01*
X4762000Y9817848D01*
Y9787752D01*
X4769789Y9758682D01*
X4784837Y9732618D01*
X4806118Y9711337D01*
X4832182Y9696289D01*
X4861252Y9688500D01*
X4891348D01*
X4920418Y9696289D01*
X4946482Y9711337D01*
X4967763Y9732618D01*
X4982810Y9758682D01*
X4990600Y9787752D01*
Y9817848D01*
X4982810Y9846918D01*
X4967763Y9872982D01*
X4946482Y9894263D01*
X4920418Y9909311D01*
X4891348Y9917100D01*
D02*
G37*
G36*
X6415348Y9663100D02*
X6385252D01*
X6356182Y9655311D01*
X6330118Y9640263D01*
X6308837Y9618982D01*
X6293789Y9592918D01*
X6286000Y9563848D01*
Y9533752D01*
X6293789Y9504682D01*
X6308837Y9478618D01*
X6330118Y9457337D01*
X6356182Y9442289D01*
X6385252Y9434500D01*
X6415348D01*
X6444418Y9442289D01*
X6470482Y9457337D01*
X6491763Y9478618D01*
X6506810Y9504682D01*
X6514600Y9533752D01*
Y9563848D01*
X6506810Y9592918D01*
X6491763Y9618982D01*
X6470482Y9640263D01*
X6444418Y9655311D01*
X6415348Y9663100D01*
D02*
G37*
G36*
X4891348D02*
X4861252D01*
X4832182Y9655311D01*
X4806118Y9640263D01*
X4784837Y9618982D01*
X4769789Y9592918D01*
X4762000Y9563848D01*
Y9533752D01*
X4769789Y9504682D01*
X4784837Y9478618D01*
X4806118Y9457337D01*
X4832182Y9442289D01*
X4861252Y9434500D01*
X4891348D01*
X4920418Y9442289D01*
X4946482Y9457337D01*
X4967763Y9478618D01*
X4982810Y9504682D01*
X4990600Y9533752D01*
Y9563848D01*
X4982810Y9592918D01*
X4967763Y9618982D01*
X4946482Y9640263D01*
X4920418Y9655311D01*
X4891348Y9663100D01*
D02*
G37*
G36*
X6415348Y9409100D02*
X6385252D01*
X6356182Y9401311D01*
X6330118Y9386263D01*
X6308837Y9364982D01*
X6293789Y9338918D01*
X6286000Y9309848D01*
Y9279752D01*
X6293789Y9250682D01*
X6308837Y9224618D01*
X6330118Y9203337D01*
X6356182Y9188289D01*
X6385252Y9180500D01*
X6415348D01*
X6444418Y9188289D01*
X6470482Y9203337D01*
X6491763Y9224618D01*
X6506810Y9250682D01*
X6514600Y9279752D01*
Y9309848D01*
X6506810Y9338918D01*
X6491763Y9364982D01*
X6470482Y9386263D01*
X6444418Y9401311D01*
X6415348Y9409100D01*
D02*
G37*
G36*
X4891348D02*
X4861252D01*
X4832182Y9401311D01*
X4806118Y9386263D01*
X4784837Y9364982D01*
X4769789Y9338918D01*
X4762000Y9309848D01*
Y9279752D01*
X4769789Y9250682D01*
X4784837Y9224618D01*
X4806118Y9203337D01*
X4832182Y9188289D01*
X4861252Y9180500D01*
X4891348D01*
X4920418Y9188289D01*
X4946482Y9203337D01*
X4967763Y9224618D01*
X4982810Y9250682D01*
X4990600Y9279752D01*
Y9309848D01*
X4982810Y9338918D01*
X4967763Y9364982D01*
X4946482Y9386263D01*
X4920418Y9401311D01*
X4891348Y9409100D01*
D02*
G37*
G36*
X6415348Y9155100D02*
X6385252D01*
X6356182Y9147311D01*
X6330118Y9132263D01*
X6308837Y9110982D01*
X6293789Y9084918D01*
X6286000Y9055848D01*
Y9025752D01*
X6293789Y8996682D01*
X6308837Y8970618D01*
X6330118Y8949337D01*
X6356182Y8934289D01*
X6385252Y8926500D01*
X6415348D01*
X6444418Y8934289D01*
X6470482Y8949337D01*
X6491763Y8970618D01*
X6506810Y8996682D01*
X6514600Y9025752D01*
Y9055848D01*
X6506810Y9084918D01*
X6491763Y9110982D01*
X6470482Y9132263D01*
X6444418Y9147311D01*
X6415348Y9155100D01*
D02*
G37*
G36*
X4891348D02*
X4861252D01*
X4832182Y9147311D01*
X4806118Y9132263D01*
X4784837Y9110982D01*
X4769789Y9084918D01*
X4762000Y9055848D01*
Y9025752D01*
X4769789Y8996682D01*
X4784837Y8970618D01*
X4806118Y8949337D01*
X4832182Y8934289D01*
X4861252Y8926500D01*
X4891348D01*
X4920418Y8934289D01*
X4946482Y8949337D01*
X4967763Y8970618D01*
X4982810Y8996682D01*
X4990600Y9025752D01*
Y9055848D01*
X4982810Y9084918D01*
X4967763Y9110982D01*
X4946482Y9132263D01*
X4920418Y9147311D01*
X4891348Y9155100D01*
D02*
G37*
G36*
X6415348Y8901100D02*
X6385252D01*
X6356182Y8893311D01*
X6330118Y8878263D01*
X6308837Y8856982D01*
X6293789Y8830918D01*
X6286000Y8801848D01*
Y8771752D01*
X6293789Y8742682D01*
X6308837Y8716618D01*
X6330118Y8695337D01*
X6356182Y8680289D01*
X6385252Y8672500D01*
X6415348D01*
X6444418Y8680289D01*
X6470482Y8695337D01*
X6491763Y8716618D01*
X6506810Y8742682D01*
X6514600Y8771752D01*
Y8801848D01*
X6506810Y8830918D01*
X6491763Y8856982D01*
X6470482Y8878263D01*
X6444418Y8893311D01*
X6415348Y8901100D01*
D02*
G37*
G36*
X4891348D02*
X4861252D01*
X4832182Y8893311D01*
X4806118Y8878263D01*
X4784837Y8856982D01*
X4769789Y8830918D01*
X4762000Y8801848D01*
Y8771752D01*
X4769789Y8742682D01*
X4784837Y8716618D01*
X4806118Y8695337D01*
X4832182Y8680289D01*
X4861252Y8672500D01*
X4891348D01*
X4920418Y8680289D01*
X4946482Y8695337D01*
X4967763Y8716618D01*
X4982810Y8742682D01*
X4990600Y8771752D01*
Y8801848D01*
X4982810Y8830918D01*
X4967763Y8856982D01*
X4946482Y8878263D01*
X4920418Y8893311D01*
X4891348Y8901100D01*
D02*
G37*
G36*
X6158254Y8623600D02*
X6134346D01*
X6111252Y8617412D01*
X6090547Y8605458D01*
X6073642Y8588553D01*
X6061688Y8567847D01*
X6055500Y8544754D01*
Y8520846D01*
X6061688Y8497753D01*
X6073642Y8477048D01*
X6090547Y8460142D01*
X6111252Y8448188D01*
X6134346Y8442000D01*
X6158254D01*
X6181347Y8448188D01*
X6202052Y8460142D01*
X6218958Y8477048D01*
X6230912Y8497753D01*
X6237100Y8520846D01*
Y8544754D01*
X6230912Y8567847D01*
X6218958Y8588553D01*
X6202052Y8605458D01*
X6181347Y8617412D01*
X6158254Y8623600D01*
D02*
G37*
G36*
X5904254D02*
X5880346D01*
X5857252Y8617412D01*
X5836547Y8605458D01*
X5819642Y8588553D01*
X5807688Y8567847D01*
X5801500Y8544754D01*
Y8520846D01*
X5807688Y8497753D01*
X5819642Y8477048D01*
X5836547Y8460142D01*
X5857252Y8448188D01*
X5880346Y8442000D01*
X5904254D01*
X5927347Y8448188D01*
X5948052Y8460142D01*
X5964958Y8477048D01*
X5976912Y8497753D01*
X5983100Y8520846D01*
Y8544754D01*
X5976912Y8567847D01*
X5964958Y8588553D01*
X5948052Y8605458D01*
X5927347Y8617412D01*
X5904254Y8623600D01*
D02*
G37*
G36*
X5650254D02*
X5626346D01*
X5603252Y8617412D01*
X5582547Y8605458D01*
X5565642Y8588553D01*
X5553688Y8567847D01*
X5547500Y8544754D01*
Y8520846D01*
X5553688Y8497753D01*
X5565642Y8477048D01*
X5582547Y8460142D01*
X5603252Y8448188D01*
X5626346Y8442000D01*
X5650254D01*
X5673347Y8448188D01*
X5694052Y8460142D01*
X5710958Y8477048D01*
X5722912Y8497753D01*
X5729100Y8520846D01*
Y8544754D01*
X5722912Y8567847D01*
X5710958Y8588553D01*
X5694052Y8605458D01*
X5673347Y8617412D01*
X5650254Y8623600D01*
D02*
G37*
G36*
X5396254D02*
X5372346D01*
X5349252Y8617412D01*
X5328547Y8605458D01*
X5311642Y8588553D01*
X5299688Y8567847D01*
X5293500Y8544754D01*
Y8520846D01*
X5299688Y8497753D01*
X5311642Y8477048D01*
X5328547Y8460142D01*
X5349252Y8448188D01*
X5372346Y8442000D01*
X5396254D01*
X5419347Y8448188D01*
X5440052Y8460142D01*
X5456958Y8477048D01*
X5468912Y8497753D01*
X5475100Y8520846D01*
Y8544754D01*
X5468912Y8567847D01*
X5456958Y8588553D01*
X5440052Y8605458D01*
X5419347Y8617412D01*
X5396254Y8623600D01*
D02*
G37*
G36*
X5142254D02*
X5118346D01*
X5095252Y8617412D01*
X5074547Y8605458D01*
X5057642Y8588553D01*
X5045688Y8567847D01*
X5039500Y8544754D01*
Y8520846D01*
X5045688Y8497753D01*
X5057642Y8477048D01*
X5074547Y8460142D01*
X5095252Y8448188D01*
X5118346Y8442000D01*
X5142254D01*
X5165347Y8448188D01*
X5186052Y8460142D01*
X5202958Y8477048D01*
X5214912Y8497753D01*
X5221100Y8520846D01*
Y8544754D01*
X5214912Y8567847D01*
X5202958Y8588553D01*
X5186052Y8605458D01*
X5165347Y8617412D01*
X5142254Y8623600D01*
D02*
G37*
G36*
X6415348Y8647100D02*
X6385252D01*
X6356182Y8639311D01*
X6330118Y8624263D01*
X6308837Y8602982D01*
X6293789Y8576918D01*
X6286000Y8547848D01*
Y8517752D01*
X6293789Y8488682D01*
X6308837Y8462618D01*
X6330118Y8441337D01*
X6356182Y8426289D01*
X6385252Y8418500D01*
X6415348D01*
X6444418Y8426289D01*
X6470482Y8441337D01*
X6491763Y8462618D01*
X6506810Y8488682D01*
X6514600Y8517752D01*
Y8547848D01*
X6506810Y8576918D01*
X6491763Y8602982D01*
X6470482Y8624263D01*
X6444418Y8639311D01*
X6415348Y8647100D01*
D02*
G37*
G36*
X4891348D02*
X4861252D01*
X4832182Y8639311D01*
X4806118Y8624263D01*
X4784837Y8602982D01*
X4769789Y8576918D01*
X4762000Y8547848D01*
Y8517752D01*
X4769789Y8488682D01*
X4784837Y8462618D01*
X4806118Y8441337D01*
X4832182Y8426289D01*
X4861252Y8418500D01*
X4891348D01*
X4920418Y8426289D01*
X4946482Y8441337D01*
X4967763Y8462618D01*
X4982810Y8488682D01*
X4990600Y8517752D01*
Y8547848D01*
X4982810Y8576918D01*
X4967763Y8602982D01*
X4946482Y8624263D01*
X4920418Y8639311D01*
X4891348Y8647100D01*
D02*
G37*
G36*
X2188526Y8666000D02*
X2154074D01*
X2120284Y8659279D01*
X2088454Y8646094D01*
X2059808Y8626954D01*
X2035446Y8602592D01*
X2016306Y8573946D01*
X2003121Y8542117D01*
X1996400Y8508326D01*
Y8473874D01*
X2003121Y8440084D01*
X2016306Y8408254D01*
X2035446Y8379608D01*
X2059808Y8355246D01*
X2088454Y8336106D01*
X2120284Y8322922D01*
X2154074Y8316200D01*
X2188526D01*
X2222316Y8322922D01*
X2254146Y8336106D01*
X2282792Y8355246D01*
X2307154Y8379608D01*
X2326294Y8408254D01*
X2339478Y8440084D01*
X2346200Y8473874D01*
Y8508326D01*
X2339478Y8542117D01*
X2326294Y8573946D01*
X2307154Y8602592D01*
X2282792Y8626954D01*
X2254146Y8646094D01*
X2222316Y8659279D01*
X2188526Y8666000D01*
D02*
G37*
G36*
X3381800Y8407400D02*
X3276600D01*
Y8302200D01*
X3279422D01*
X3309408Y8310235D01*
X3336292Y8325757D01*
X3358243Y8347708D01*
X3373765Y8374592D01*
X3381800Y8404578D01*
Y8407400D01*
D02*
G37*
G36*
X3251200D02*
X3146000D01*
Y8404578D01*
X3154035Y8374592D01*
X3169557Y8347708D01*
X3191508Y8325757D01*
X3218392Y8310235D01*
X3248378Y8302200D01*
X3251200D01*
Y8407400D01*
D02*
G37*
G36*
X6415348Y8393100D02*
X6385252D01*
X6356182Y8385311D01*
X6330118Y8370263D01*
X6308837Y8348982D01*
X6293789Y8322918D01*
X6286000Y8293848D01*
Y8263752D01*
X6293789Y8234682D01*
X6308837Y8208618D01*
X6330118Y8187337D01*
X6356182Y8172289D01*
X6385252Y8164500D01*
X6415348D01*
X6444418Y8172289D01*
X6470482Y8187337D01*
X6491763Y8208618D01*
X6506810Y8234682D01*
X6514600Y8263752D01*
Y8293848D01*
X6506810Y8322918D01*
X6491763Y8348982D01*
X6470482Y8370263D01*
X6444418Y8385311D01*
X6415348Y8393100D01*
D02*
G37*
G36*
X4891348D02*
X4861252D01*
X4832182Y8385311D01*
X4806118Y8370263D01*
X4784837Y8348982D01*
X4769789Y8322918D01*
X4762000Y8293848D01*
Y8263752D01*
X4769789Y8234682D01*
X4784837Y8208618D01*
X4806118Y8187337D01*
X4832182Y8172289D01*
X4861252Y8164500D01*
X4891348D01*
X4920418Y8172289D01*
X4946482Y8187337D01*
X4967763Y8208618D01*
X4982810Y8234682D01*
X4990600Y8263752D01*
Y8293848D01*
X4982810Y8322918D01*
X4967763Y8348982D01*
X4946482Y8370263D01*
X4920418Y8385311D01*
X4891348Y8393100D01*
D02*
G37*
G36*
X4182300Y8113800D02*
X4102100D01*
Y8033600D01*
X4182300D01*
Y8113800D01*
D02*
G37*
G36*
X4076700D02*
X3996500D01*
Y8033600D01*
X4076700D01*
Y8113800D01*
D02*
G37*
G36*
X4182300Y8008200D02*
X4102100D01*
Y7928000D01*
X4182300D01*
Y8008200D01*
D02*
G37*
G36*
X4076700D02*
X3996500D01*
Y7928000D01*
X4076700D01*
Y8008200D01*
D02*
G37*
G36*
X6415348Y8139100D02*
X6385252D01*
X6356182Y8131311D01*
X6330118Y8116263D01*
X6308837Y8094982D01*
X6293789Y8068918D01*
X6286000Y8039848D01*
Y8009752D01*
X6293789Y7980682D01*
X6308837Y7954618D01*
X6330118Y7933337D01*
X6356182Y7918289D01*
X6385252Y7910500D01*
X6415348D01*
X6444418Y7918289D01*
X6470482Y7933337D01*
X6491763Y7954618D01*
X6506810Y7980682D01*
X6514600Y8009752D01*
Y8039848D01*
X6506810Y8068918D01*
X6491763Y8094982D01*
X6470482Y8116263D01*
X6444418Y8131311D01*
X6415348Y8139100D01*
D02*
G37*
G36*
X4891348D02*
X4861252D01*
X4832182Y8131311D01*
X4806118Y8116263D01*
X4784837Y8094982D01*
X4769789Y8068918D01*
X4762000Y8039848D01*
Y8009752D01*
X4769789Y7980682D01*
X4784837Y7954618D01*
X4806118Y7933337D01*
X4832182Y7918289D01*
X4861252Y7910500D01*
X4891348D01*
X4920418Y7918289D01*
X4946482Y7933337D01*
X4967763Y7954618D01*
X4982810Y7980682D01*
X4990600Y8009752D01*
Y8039848D01*
X4982810Y8068918D01*
X4967763Y8094982D01*
X4946482Y8116263D01*
X4920418Y8131311D01*
X4891348Y8139100D01*
D02*
G37*
G36*
X2430700Y8006000D02*
X2115900D01*
Y7887447D01*
X2083300D01*
X2068434Y7884489D01*
X2055831Y7876069D01*
X1718846Y7539084D01*
X1712857Y7543086D01*
X1684212Y7554951D01*
X1653803Y7561000D01*
X1622797D01*
X1592388Y7554951D01*
X1563743Y7543086D01*
X1537963Y7525860D01*
X1516040Y7503937D01*
X1498814Y7478157D01*
X1486949Y7449512D01*
X1480900Y7419103D01*
Y7388097D01*
X1486949Y7357688D01*
X1498814Y7329043D01*
X1516040Y7303264D01*
X1537963Y7281340D01*
X1563743Y7264114D01*
X1592388Y7252249D01*
X1599453Y7250844D01*
Y6477000D01*
X1602411Y6462134D01*
X1610831Y6449531D01*
X2029931Y6030431D01*
X2042534Y6022011D01*
X2057400Y6019053D01*
X3057309D01*
X3342163Y5734200D01*
X3331642Y5708800D01*
X3161800D01*
Y5518000D01*
X3352600D01*
Y5687842D01*
X3378000Y5698363D01*
X3421170Y5655192D01*
X3418302Y5650223D01*
X3411800Y5625960D01*
Y5600840D01*
X3418302Y5576577D01*
X3430861Y5554823D01*
X3448623Y5537061D01*
X3470353Y5524515D01*
Y4286791D01*
X2353846Y3170283D01*
X2347857Y3174286D01*
X2319212Y3186151D01*
X2288803Y3192200D01*
X2257797D01*
X2227388Y3186151D01*
X2198743Y3174286D01*
X2172963Y3157060D01*
X2151040Y3135136D01*
X2133814Y3109357D01*
X2121949Y3080712D01*
X2115900Y3050303D01*
Y3019297D01*
X2121949Y2988888D01*
X2133814Y2960243D01*
X2151040Y2934463D01*
X2172963Y2912540D01*
X2198743Y2895314D01*
X2227388Y2883449D01*
X2257797Y2877400D01*
X2288803D01*
X2319212Y2883449D01*
X2347857Y2895314D01*
X2373637Y2912540D01*
X2395560Y2934463D01*
X2412786Y2960243D01*
X2424651Y2988888D01*
X2430700Y3019297D01*
Y3050303D01*
X2424651Y3080712D01*
X2412786Y3109357D01*
X2408784Y3115346D01*
X3536669Y4243231D01*
X3545089Y4255834D01*
X3548046Y4270700D01*
Y5526825D01*
X3565777Y5537061D01*
X3583539Y5554823D01*
X3596098Y5576577D01*
X3602600Y5600840D01*
Y5625960D01*
X3596098Y5650223D01*
X3583539Y5671977D01*
X3565777Y5689739D01*
X3544023Y5702298D01*
X3519760Y5708800D01*
X3494640D01*
X3481073Y5705164D01*
X3100869Y6085369D01*
X3088266Y6093789D01*
X3073400Y6096747D01*
X2073491D01*
X1677147Y6493091D01*
Y7250844D01*
X1684212Y7252249D01*
X1712857Y7264114D01*
X1738637Y7281340D01*
X1760560Y7303264D01*
X1777786Y7329043D01*
X1789651Y7357688D01*
X1795700Y7388097D01*
Y7419103D01*
X1789651Y7449512D01*
X1777786Y7478157D01*
X1773784Y7484147D01*
X2090500Y7800863D01*
X2115900Y7790342D01*
Y7691200D01*
X2430700D01*
Y8006000D01*
D02*
G37*
G36*
X6415348Y7885100D02*
X6385252D01*
X6356182Y7877311D01*
X6330118Y7862263D01*
X6308837Y7840982D01*
X6293789Y7814918D01*
X6286000Y7785848D01*
Y7755752D01*
X6293789Y7726682D01*
X6308837Y7700618D01*
X6330118Y7679337D01*
X6356182Y7664289D01*
X6385252Y7656500D01*
X6415348D01*
X6444418Y7664289D01*
X6470482Y7679337D01*
X6491763Y7700618D01*
X6506810Y7726682D01*
X6514600Y7755752D01*
Y7785848D01*
X6506810Y7814918D01*
X6491763Y7840982D01*
X6470482Y7862263D01*
X6444418Y7877311D01*
X6415348Y7885100D01*
D02*
G37*
G36*
X4891348D02*
X4861252D01*
X4832182Y7877311D01*
X4806118Y7862263D01*
X4784837Y7840982D01*
X4769789Y7814918D01*
X4762000Y7785848D01*
Y7755752D01*
X4769789Y7726682D01*
X4784837Y7700618D01*
X4806118Y7679337D01*
X4832182Y7664289D01*
X4861252Y7656500D01*
X4891348D01*
X4920418Y7664289D01*
X4946482Y7679337D01*
X4967763Y7700618D01*
X4982810Y7726682D01*
X4990600Y7755752D01*
Y7785848D01*
X4982810Y7814918D01*
X4967763Y7840982D01*
X4946482Y7862263D01*
X4920418Y7877311D01*
X4891348Y7885100D01*
D02*
G37*
G36*
Y7631100D02*
X4889000D01*
Y7529500D01*
X4990600D01*
Y7531848D01*
X4982810Y7560918D01*
X4967763Y7586982D01*
X4946482Y7608263D01*
X4920418Y7623311D01*
X4891348Y7631100D01*
D02*
G37*
G36*
X4863600D02*
X4861252D01*
X4832182Y7623311D01*
X4806118Y7608263D01*
X4784837Y7586982D01*
X4769789Y7560918D01*
X4762000Y7531848D01*
Y7529500D01*
X4863600D01*
Y7631100D01*
D02*
G37*
G36*
X1045526Y7801000D02*
X1011074D01*
X977284Y7794279D01*
X945454Y7781094D01*
X916808Y7761954D01*
X892446Y7737592D01*
X873306Y7708946D01*
X860121Y7677116D01*
X853400Y7643326D01*
Y7608874D01*
X860121Y7575084D01*
X873306Y7543254D01*
X892446Y7514608D01*
X916808Y7490246D01*
X945454Y7471106D01*
X977284Y7457922D01*
X1011074Y7451200D01*
X1045526D01*
X1079316Y7457922D01*
X1111146Y7471106D01*
X1139792Y7490246D01*
X1164154Y7514608D01*
X1183294Y7543254D01*
X1196478Y7575084D01*
X1203200Y7608874D01*
Y7643326D01*
X1196478Y7677116D01*
X1183294Y7708946D01*
X1164154Y7737592D01*
X1139792Y7761954D01*
X1111146Y7781094D01*
X1079316Y7794279D01*
X1045526Y7801000D01*
D02*
G37*
G36*
X4990600Y7504100D02*
X4889000D01*
Y7402500D01*
X4891348D01*
X4920418Y7410289D01*
X4946482Y7425337D01*
X4967763Y7446618D01*
X4982810Y7472682D01*
X4990600Y7501752D01*
Y7504100D01*
D02*
G37*
G36*
X4863600D02*
X4762000D01*
Y7501752D01*
X4769789Y7472682D01*
X4784837Y7446618D01*
X4806118Y7425337D01*
X4832182Y7410289D01*
X4861252Y7402500D01*
X4863600D01*
Y7504100D01*
D02*
G37*
G36*
X6415348Y7377100D02*
X6385252D01*
X6356182Y7369311D01*
X6330118Y7354263D01*
X6308837Y7332982D01*
X6293789Y7306918D01*
X6286000Y7277848D01*
Y7247752D01*
X6293789Y7218682D01*
X6308837Y7192618D01*
X6330118Y7171337D01*
X6356182Y7156289D01*
X6385252Y7148500D01*
X6415348D01*
X6444418Y7156289D01*
X6470482Y7171337D01*
X6491763Y7192618D01*
X6506810Y7218682D01*
X6514600Y7247752D01*
Y7277848D01*
X6506810Y7306918D01*
X6491763Y7332982D01*
X6470482Y7354263D01*
X6444418Y7369311D01*
X6415348Y7377100D01*
D02*
G37*
G36*
X4891348D02*
X4861252D01*
X4832182Y7369311D01*
X4806118Y7354263D01*
X4784837Y7332982D01*
X4769789Y7306918D01*
X4762000Y7277848D01*
Y7247752D01*
X4769789Y7218682D01*
X4784837Y7192618D01*
X4806118Y7171337D01*
X4832182Y7156289D01*
X4861252Y7148500D01*
X4891348D01*
X4920418Y7156289D01*
X4946482Y7171337D01*
X4967763Y7192618D01*
X4982810Y7218682D01*
X4990600Y7247752D01*
Y7277848D01*
X4982810Y7306918D01*
X4967763Y7332982D01*
X4946482Y7354263D01*
X4920418Y7369311D01*
X4891348Y7377100D01*
D02*
G37*
G36*
X2288803Y7561000D02*
X2257797D01*
X2227388Y7554951D01*
X2198743Y7543086D01*
X2172963Y7525860D01*
X2151040Y7503937D01*
X2133814Y7478157D01*
X2121949Y7449512D01*
X2115900Y7419103D01*
Y7388097D01*
X2121949Y7357688D01*
X2133814Y7329043D01*
X2151040Y7303264D01*
X2172963Y7281340D01*
X2198743Y7264114D01*
X2227388Y7252249D01*
X2257797Y7246200D01*
X2288803D01*
X2319212Y7252249D01*
X2347857Y7264114D01*
X2353846Y7268117D01*
X2740632Y6881331D01*
X2753234Y6872911D01*
X2768100Y6869953D01*
X3056350D01*
X3058135Y6863292D01*
X3073657Y6836408D01*
X3095608Y6814457D01*
X3122492Y6798935D01*
X3137371Y6794948D01*
Y6768652D01*
X3122492Y6764665D01*
X3095608Y6749143D01*
X3073657Y6727192D01*
X3058135Y6700308D01*
X3050100Y6670322D01*
Y6667500D01*
X3285900D01*
Y6670322D01*
X3277865Y6700308D01*
X3262343Y6727192D01*
X3240392Y6749143D01*
X3213508Y6764665D01*
X3198629Y6768652D01*
Y6794948D01*
X3213508Y6798935D01*
X3240392Y6814457D01*
X3262343Y6836408D01*
X3277865Y6863292D01*
X3285900Y6893278D01*
Y6924322D01*
X3277865Y6954308D01*
X3262343Y6981192D01*
X3240392Y7003143D01*
X3213508Y7018665D01*
X3210392Y7019500D01*
X3213736Y7044900D01*
X3285900D01*
Y7116754D01*
X3991856D01*
X4002362Y7098558D01*
X4019658Y7081262D01*
X4040842Y7069031D01*
X4064469Y7062700D01*
X4088931D01*
X4112558Y7069031D01*
X4133742Y7081262D01*
X4151038Y7098558D01*
X4163269Y7119742D01*
X4169600Y7143370D01*
Y7167831D01*
X4163269Y7191458D01*
X4151038Y7212642D01*
X4133742Y7229939D01*
X4112558Y7242169D01*
X4088931Y7248500D01*
X4064469D01*
X4040842Y7242169D01*
X4019658Y7229939D01*
X4002362Y7212642D01*
X3991856Y7194447D01*
X3285900D01*
Y7280700D01*
X3050100D01*
Y7044900D01*
X3122264D01*
X3125608Y7019500D01*
X3122492Y7018665D01*
X3095608Y7003143D01*
X3073657Y6981192D01*
X3058135Y6954308D01*
X3056350Y6947647D01*
X2784191D01*
X2408784Y7323054D01*
X2412786Y7329043D01*
X2424651Y7357688D01*
X2430700Y7388097D01*
Y7419103D01*
X2424651Y7449512D01*
X2412786Y7478157D01*
X2395560Y7503937D01*
X2373637Y7525860D01*
X2347857Y7543086D01*
X2319212Y7554951D01*
X2288803Y7561000D01*
D02*
G37*
G36*
X6415348Y7123100D02*
X6385252D01*
X6356182Y7115311D01*
X6330118Y7100263D01*
X6308837Y7078982D01*
X6293789Y7052918D01*
X6286000Y7023848D01*
Y6993752D01*
X6293789Y6964682D01*
X6308837Y6938618D01*
X6330118Y6917337D01*
X6356182Y6902289D01*
X6385252Y6894500D01*
X6415348D01*
X6444418Y6902289D01*
X6470482Y6917337D01*
X6491763Y6938618D01*
X6506810Y6964682D01*
X6514600Y6993752D01*
Y7023848D01*
X6506810Y7052918D01*
X6491763Y7078982D01*
X6470482Y7100263D01*
X6444418Y7115311D01*
X6415348Y7123100D01*
D02*
G37*
G36*
X4891348D02*
X4861252D01*
X4832182Y7115311D01*
X4806118Y7100263D01*
X4784837Y7078982D01*
X4769789Y7052918D01*
X4762000Y7023848D01*
Y6993752D01*
X4769789Y6964682D01*
X4784837Y6938618D01*
X4806118Y6917337D01*
X4832182Y6902289D01*
X4861252Y6894500D01*
X4891348D01*
X4920418Y6902289D01*
X4946482Y6917337D01*
X4967763Y6938618D01*
X4982810Y6964682D01*
X4990600Y6993752D01*
Y7023848D01*
X4982810Y7052918D01*
X4967763Y7078982D01*
X4946482Y7100263D01*
X4920418Y7115311D01*
X4891348Y7123100D01*
D02*
G37*
G36*
X6415348Y6869100D02*
X6385252D01*
X6356182Y6861311D01*
X6330118Y6846263D01*
X6308837Y6824982D01*
X6293789Y6798918D01*
X6286000Y6769848D01*
Y6739752D01*
X6293789Y6710682D01*
X6308837Y6684618D01*
X6330118Y6663337D01*
X6356182Y6648289D01*
X6385252Y6640500D01*
X6415348D01*
X6444418Y6648289D01*
X6470482Y6663337D01*
X6491763Y6684618D01*
X6506810Y6710682D01*
X6514600Y6739752D01*
Y6769848D01*
X6506810Y6798918D01*
X6491763Y6824982D01*
X6470482Y6846263D01*
X6444418Y6861311D01*
X6415348Y6869100D01*
D02*
G37*
G36*
X4891348D02*
X4861252D01*
X4832182Y6861311D01*
X4806118Y6846263D01*
X4784837Y6824982D01*
X4769789Y6798918D01*
X4762000Y6769848D01*
Y6739752D01*
X4769789Y6710682D01*
X4784837Y6684618D01*
X4806118Y6663337D01*
X4832182Y6648289D01*
X4861252Y6640500D01*
X4891348D01*
X4920418Y6648289D01*
X4946482Y6663337D01*
X4967763Y6684618D01*
X4982810Y6710682D01*
X4990600Y6739752D01*
Y6769848D01*
X4982810Y6798918D01*
X4967763Y6824982D01*
X4946482Y6846263D01*
X4920418Y6861311D01*
X4891348Y6869100D01*
D02*
G37*
G36*
X2188526Y6936000D02*
X2154074D01*
X2120284Y6929278D01*
X2088454Y6916094D01*
X2059808Y6896954D01*
X2035446Y6872592D01*
X2016306Y6843946D01*
X2003121Y6812116D01*
X1996400Y6778326D01*
Y6743874D01*
X2003121Y6710084D01*
X2016306Y6678254D01*
X2035446Y6649608D01*
X2059808Y6625246D01*
X2088454Y6606106D01*
X2120284Y6592922D01*
X2154074Y6586200D01*
X2188526D01*
X2222316Y6592922D01*
X2254146Y6606106D01*
X2282792Y6625246D01*
X2307154Y6649608D01*
X2326294Y6678254D01*
X2339478Y6710084D01*
X2346200Y6743874D01*
Y6778326D01*
X2339478Y6812116D01*
X2326294Y6843946D01*
X2307154Y6872592D01*
X2282792Y6896954D01*
X2254146Y6916094D01*
X2222316Y6929278D01*
X2188526Y6936000D01*
D02*
G37*
G36*
X3285900Y6642100D02*
X3180700D01*
Y6536900D01*
X3183522D01*
X3213508Y6544935D01*
X3240392Y6560457D01*
X3262343Y6582408D01*
X3277865Y6609292D01*
X3285900Y6639278D01*
Y6642100D01*
D02*
G37*
G36*
X3155300D02*
X3050100D01*
Y6639278D01*
X3058135Y6609292D01*
X3073657Y6582408D01*
X3095608Y6560457D01*
X3122492Y6544935D01*
X3152478Y6536900D01*
X3155300D01*
Y6642100D01*
D02*
G37*
G36*
X6415348Y6615100D02*
X6385252D01*
X6356182Y6607311D01*
X6330118Y6592263D01*
X6308837Y6570982D01*
X6293789Y6544918D01*
X6286000Y6515848D01*
Y6485752D01*
X6293789Y6456682D01*
X6308837Y6430618D01*
X6330118Y6409337D01*
X6356182Y6394289D01*
X6385252Y6386500D01*
X6415348D01*
X6444418Y6394289D01*
X6470482Y6409337D01*
X6491763Y6430618D01*
X6506810Y6456682D01*
X6514600Y6485752D01*
Y6515848D01*
X6506810Y6544918D01*
X6491763Y6570982D01*
X6470482Y6592263D01*
X6444418Y6607311D01*
X6415348Y6615100D01*
D02*
G37*
G36*
X3381800Y9046000D02*
X3146000D01*
Y8810200D01*
X3218164D01*
X3221508Y8784800D01*
X3218392Y8783965D01*
X3191508Y8768443D01*
X3169557Y8746492D01*
X3154035Y8719608D01*
X3152250Y8712947D01*
X2895600D01*
X2880734Y8709989D01*
X2868131Y8701569D01*
X2358809Y8192247D01*
X1943100D01*
X1928234Y8189289D01*
X1915631Y8180869D01*
X1718846Y7984084D01*
X1712857Y7988086D01*
X1684212Y7999951D01*
X1653803Y8006000D01*
X1622797D01*
X1592388Y7999951D01*
X1563743Y7988086D01*
X1537963Y7970860D01*
X1516040Y7948937D01*
X1498814Y7923157D01*
X1486949Y7894512D01*
X1480900Y7864103D01*
Y7833097D01*
X1486949Y7802688D01*
X1498814Y7774043D01*
X1516040Y7748263D01*
X1537963Y7726340D01*
X1563743Y7709114D01*
X1592388Y7697249D01*
X1622797Y7691200D01*
X1653803D01*
X1684212Y7697249D01*
X1712857Y7709114D01*
X1738637Y7726340D01*
X1760560Y7748263D01*
X1777786Y7774043D01*
X1789651Y7802688D01*
X1795700Y7833097D01*
Y7864103D01*
X1789651Y7894512D01*
X1777786Y7923157D01*
X1773784Y7929146D01*
X1959191Y8114553D01*
X2374900D01*
X2389766Y8117511D01*
X2402369Y8125931D01*
X2911691Y8635253D01*
X3152250D01*
X3154035Y8628592D01*
X3169557Y8601708D01*
X3191508Y8579757D01*
X3218392Y8564235D01*
X3233271Y8560248D01*
Y8533952D01*
X3218392Y8529965D01*
X3191508Y8514443D01*
X3169557Y8492492D01*
X3154035Y8465608D01*
X3146000Y8435622D01*
Y8432800D01*
X3381800D01*
Y8435622D01*
X3373765Y8465608D01*
X3358243Y8492492D01*
X3336292Y8514443D01*
X3309408Y8529965D01*
X3294529Y8533952D01*
Y8560248D01*
X3309408Y8564235D01*
X3336292Y8579757D01*
X3358243Y8601708D01*
X3373765Y8628592D01*
X3381800Y8658578D01*
Y8689622D01*
X3373765Y8719608D01*
X3358243Y8746492D01*
X3336292Y8768443D01*
X3309408Y8783965D01*
X3306292Y8784800D01*
X3309636Y8810200D01*
X3381800D01*
Y8882054D01*
X4004556D01*
X4015062Y8863858D01*
X4032358Y8846562D01*
X4053542Y8834331D01*
X4077169Y8828000D01*
X4101631D01*
X4121925Y8833438D01*
X4406153Y8549209D01*
Y6932100D01*
X4409111Y6917234D01*
X4417531Y6904631D01*
X4772518Y6549645D01*
X4769789Y6544918D01*
X4762000Y6515848D01*
Y6485752D01*
X4769789Y6456682D01*
X4784837Y6430618D01*
X4806118Y6409337D01*
X4832182Y6394289D01*
X4861252Y6386500D01*
X4891348D01*
X4920418Y6394289D01*
X4946482Y6409337D01*
X4967763Y6430618D01*
X4982810Y6456682D01*
X4990600Y6485752D01*
Y6515848D01*
X4982810Y6544918D01*
X4967763Y6570982D01*
X4946482Y6592263D01*
X4920418Y6607311D01*
X4891348Y6615100D01*
X4861252D01*
X4832182Y6607311D01*
X4827455Y6604582D01*
X4483847Y6948191D01*
Y8565300D01*
X4480889Y8580166D01*
X4472469Y8592769D01*
X4176862Y8888375D01*
X4182300Y8908670D01*
Y8933131D01*
X4175969Y8956758D01*
X4163738Y8977942D01*
X4146442Y8995239D01*
X4125258Y9007469D01*
X4101631Y9013800D01*
X4077169D01*
X4053542Y9007469D01*
X4032358Y8995239D01*
X4015062Y8977942D01*
X4004556Y8959747D01*
X3381800D01*
Y9046000D01*
D02*
G37*
G36*
X4169600Y6348500D02*
X4089400D01*
Y6268300D01*
X4169600D01*
Y6348500D01*
D02*
G37*
G36*
X4064000D02*
X3983800D01*
Y6268300D01*
X4064000D01*
Y6348500D01*
D02*
G37*
G36*
X4169600Y6242900D02*
X4089400D01*
Y6162700D01*
X4169600D01*
Y6242900D01*
D02*
G37*
G36*
X4064000D02*
X3983800D01*
Y6162700D01*
X4064000D01*
Y6242900D01*
D02*
G37*
G36*
X6415348Y6361100D02*
X6385252D01*
X6356182Y6353311D01*
X6330118Y6338263D01*
X6308837Y6316982D01*
X6293789Y6290918D01*
X6286000Y6261848D01*
Y6231752D01*
X6293789Y6202682D01*
X6308837Y6176618D01*
X6330118Y6155337D01*
X6356182Y6140289D01*
X6385252Y6132500D01*
X6415348D01*
X6444418Y6140289D01*
X6470482Y6155337D01*
X6491763Y6176618D01*
X6506810Y6202682D01*
X6514600Y6231752D01*
Y6261848D01*
X6506810Y6290918D01*
X6491763Y6316982D01*
X6470482Y6338263D01*
X6444418Y6353311D01*
X6415348Y6361100D01*
D02*
G37*
G36*
X4891348D02*
X4861252D01*
X4832182Y6353311D01*
X4806118Y6338263D01*
X4784837Y6316982D01*
X4769789Y6290918D01*
X4762000Y6261848D01*
Y6231752D01*
X4769789Y6202682D01*
X4784837Y6176618D01*
X4806118Y6155337D01*
X4832182Y6140289D01*
X4861252Y6132500D01*
X4891348D01*
X4920418Y6140289D01*
X4946482Y6155337D01*
X4967763Y6176618D01*
X4982810Y6202682D01*
X4990600Y6231752D01*
Y6261848D01*
X4982810Y6290918D01*
X4967763Y6316982D01*
X4946482Y6338263D01*
X4920418Y6353311D01*
X4891348Y6361100D01*
D02*
G37*
G36*
X6415348Y6107100D02*
X6385252D01*
X6356182Y6099311D01*
X6330118Y6084263D01*
X6308837Y6062982D01*
X6293789Y6036918D01*
X6286000Y6007848D01*
Y5977752D01*
X6293789Y5948682D01*
X6308837Y5922618D01*
X6330118Y5901337D01*
X6356182Y5886289D01*
X6385252Y5878500D01*
X6415348D01*
X6444418Y5886289D01*
X6470482Y5901337D01*
X6491763Y5922618D01*
X6506810Y5948682D01*
X6514600Y5977752D01*
Y6007848D01*
X6506810Y6036918D01*
X6491763Y6062982D01*
X6470482Y6084263D01*
X6444418Y6099311D01*
X6415348Y6107100D01*
D02*
G37*
G36*
X4891348D02*
X4861252D01*
X4832182Y6099311D01*
X4806118Y6084263D01*
X4784837Y6062982D01*
X4769789Y6036918D01*
X4762000Y6007848D01*
Y5977752D01*
X4769789Y5948682D01*
X4784837Y5922618D01*
X4806118Y5901337D01*
X4832182Y5886289D01*
X4861252Y5878500D01*
X4891348D01*
X4920418Y5886289D01*
X4946482Y5901337D01*
X4967763Y5922618D01*
X4982810Y5948682D01*
X4990600Y5977752D01*
Y6007848D01*
X4982810Y6036918D01*
X4967763Y6062982D01*
X4946482Y6084263D01*
X4920418Y6099311D01*
X4891348Y6107100D01*
D02*
G37*
G36*
X4019900Y5708762D02*
Y5626100D01*
X4102562D01*
X4096098Y5650223D01*
X4083539Y5671977D01*
X4065777Y5689739D01*
X4044023Y5702298D01*
X4019900Y5708762D01*
D02*
G37*
G36*
X3994500D02*
X3970377Y5702298D01*
X3948623Y5689739D01*
X3930861Y5671977D01*
X3918302Y5650223D01*
X3911838Y5626100D01*
X3994500D01*
Y5708762D01*
D02*
G37*
G36*
X6415348Y5853100D02*
X6385252D01*
X6356182Y5845311D01*
X6330118Y5830263D01*
X6308837Y5808982D01*
X6293789Y5782918D01*
X6286000Y5753848D01*
Y5723752D01*
X6293789Y5694682D01*
X6308837Y5668618D01*
X6330118Y5647337D01*
X6356182Y5632289D01*
X6385252Y5624500D01*
X6415348D01*
X6444418Y5632289D01*
X6470482Y5647337D01*
X6491763Y5668618D01*
X6506810Y5694682D01*
X6514600Y5723752D01*
Y5753848D01*
X6506810Y5782918D01*
X6491763Y5808982D01*
X6470482Y5830263D01*
X6444418Y5845311D01*
X6415348Y5853100D01*
D02*
G37*
G36*
X4891348D02*
X4861252D01*
X4832182Y5845311D01*
X4806118Y5830263D01*
X4784837Y5808982D01*
X4769789Y5782918D01*
X4762000Y5753848D01*
Y5723752D01*
X4769789Y5694682D01*
X4784837Y5668618D01*
X4806118Y5647337D01*
X4832182Y5632289D01*
X4861252Y5624500D01*
X4891348D01*
X4920418Y5632289D01*
X4946482Y5647337D01*
X4967763Y5668618D01*
X4982810Y5694682D01*
X4990600Y5723752D01*
Y5753848D01*
X4982810Y5782918D01*
X4967763Y5808982D01*
X4946482Y5830263D01*
X4920418Y5845311D01*
X4891348Y5853100D01*
D02*
G37*
G36*
X6106925Y5700100D02*
X6083675D01*
X6061217Y5694083D01*
X6041082Y5682458D01*
X6024642Y5666018D01*
X6013017Y5645883D01*
X6007000Y5623425D01*
Y5600175D01*
X6013017Y5577718D01*
X6024642Y5557582D01*
X6041082Y5541142D01*
X6061217Y5529518D01*
X6083675Y5523500D01*
X6106925D01*
X6129382Y5529518D01*
X6149518Y5541142D01*
X6165958Y5557582D01*
X6177583Y5577718D01*
X6183600Y5600175D01*
Y5623425D01*
X6177583Y5645883D01*
X6165958Y5666018D01*
X6149518Y5682458D01*
X6129382Y5694083D01*
X6106925Y5700100D01*
D02*
G37*
G36*
X4102562Y5600700D02*
X4019900D01*
Y5518038D01*
X4044023Y5524502D01*
X4065777Y5537061D01*
X4083539Y5554823D01*
X4096098Y5576577D01*
X4102562Y5600700D01*
D02*
G37*
G36*
X3994500D02*
X3911838D01*
X3918302Y5576577D01*
X3930861Y5554823D01*
X3948623Y5537061D01*
X3970377Y5524502D01*
X3994500Y5518038D01*
Y5600700D01*
D02*
G37*
G36*
X3769760Y5708800D02*
X3744640D01*
X3720377Y5702298D01*
X3698623Y5689739D01*
X3680861Y5671977D01*
X3668302Y5650223D01*
X3661800Y5625960D01*
Y5600840D01*
X3668302Y5576577D01*
X3680861Y5554823D01*
X3698623Y5537061D01*
X3720377Y5524502D01*
X3744640Y5518000D01*
X3769760D01*
X3794023Y5524502D01*
X3815777Y5537061D01*
X3833539Y5554823D01*
X3846098Y5576577D01*
X3852600Y5600840D01*
Y5625960D01*
X3846098Y5650223D01*
X3833539Y5671977D01*
X3815777Y5689739D01*
X3794023Y5702298D01*
X3769760Y5708800D01*
D02*
G37*
G36*
X5334000Y5543224D02*
Y5470500D01*
X5406724D01*
X5401253Y5490918D01*
X5389957Y5510483D01*
X5373982Y5526457D01*
X5354418Y5537753D01*
X5334000Y5543224D01*
D02*
G37*
G36*
X5308600D02*
X5288182Y5537753D01*
X5268618Y5526457D01*
X5252643Y5510483D01*
X5241347Y5490918D01*
X5235876Y5470500D01*
X5308600D01*
Y5543224D01*
D02*
G37*
G36*
X5406724Y5445100D02*
X5334000D01*
Y5372376D01*
X5354418Y5377847D01*
X5373982Y5389143D01*
X5389957Y5405118D01*
X5401253Y5424683D01*
X5406724Y5445100D01*
D02*
G37*
G36*
X5308600D02*
X5235876D01*
X5241347Y5424683D01*
X5252643Y5405118D01*
X5268618Y5389143D01*
X5288182Y5377847D01*
X5308600Y5372376D01*
Y5445100D01*
D02*
G37*
G36*
X5532596Y5543600D02*
X5510004D01*
X5488182Y5537753D01*
X5468617Y5526457D01*
X5452643Y5510483D01*
X5441347Y5490918D01*
X5435500Y5469096D01*
Y5446504D01*
X5441347Y5424683D01*
X5452643Y5405118D01*
X5468617Y5389143D01*
X5488182Y5377847D01*
X5510004Y5372000D01*
X5532596D01*
X5554417Y5377847D01*
X5573982Y5389143D01*
X5589957Y5405118D01*
X5601253Y5424683D01*
X5607100Y5446504D01*
Y5469096D01*
X5601253Y5490918D01*
X5589957Y5510483D01*
X5573982Y5526457D01*
X5554417Y5537753D01*
X5532596Y5543600D01*
D02*
G37*
G36*
X5132596D02*
X5110004D01*
X5088182Y5537753D01*
X5068617Y5526457D01*
X5052643Y5510483D01*
X5041347Y5490918D01*
X5035500Y5469096D01*
Y5446504D01*
X5041347Y5424683D01*
X5052643Y5405118D01*
X5068617Y5389143D01*
X5088182Y5377847D01*
X5110004Y5372000D01*
X5132596D01*
X5154417Y5377847D01*
X5173982Y5389143D01*
X5189957Y5405118D01*
X5201253Y5424683D01*
X5207100Y5446504D01*
Y5469096D01*
X5201253Y5490918D01*
X5189957Y5510483D01*
X5173982Y5526457D01*
X5154417Y5537753D01*
X5132596Y5543600D01*
D02*
G37*
G36*
X6415348Y5599100D02*
X6385252D01*
X6356182Y5591311D01*
X6330118Y5576263D01*
X6308837Y5554982D01*
X6293789Y5528918D01*
X6286000Y5499848D01*
Y5469752D01*
X6293789Y5440682D01*
X6308837Y5414618D01*
X6330118Y5393337D01*
X6356182Y5378289D01*
X6385252Y5370500D01*
X6415348D01*
X6444418Y5378289D01*
X6470482Y5393337D01*
X6491763Y5414618D01*
X6506810Y5440682D01*
X6514600Y5469752D01*
Y5499848D01*
X6506810Y5528918D01*
X6491763Y5554982D01*
X6470482Y5576263D01*
X6444418Y5591311D01*
X6415348Y5599100D01*
D02*
G37*
G36*
X4891348D02*
X4861252D01*
X4832182Y5591311D01*
X4806118Y5576263D01*
X4784837Y5554982D01*
X4769789Y5528918D01*
X4762000Y5499848D01*
Y5469752D01*
X4769789Y5440682D01*
X4784837Y5414618D01*
X4806118Y5393337D01*
X4832182Y5378289D01*
X4861252Y5370500D01*
X4891348D01*
X4920418Y5378289D01*
X4946482Y5393337D01*
X4967763Y5414618D01*
X4982810Y5440682D01*
X4990600Y5469752D01*
Y5499848D01*
X4982810Y5528918D01*
X4967763Y5554982D01*
X4946482Y5576263D01*
X4920418Y5591311D01*
X4891348Y5599100D01*
D02*
G37*
G36*
X6106925Y5446100D02*
X6083675D01*
X6061217Y5440083D01*
X6041082Y5428458D01*
X6024642Y5412018D01*
X6013017Y5391883D01*
X6007000Y5369425D01*
Y5346175D01*
X6013017Y5323718D01*
X6024642Y5303582D01*
X6041082Y5287142D01*
X6061217Y5275518D01*
X6083675Y5269500D01*
X6106925D01*
X6129382Y5275518D01*
X6149518Y5287142D01*
X6165958Y5303582D01*
X6177583Y5323718D01*
X6183600Y5346175D01*
Y5369425D01*
X6177583Y5391883D01*
X6165958Y5412018D01*
X6149518Y5428458D01*
X6129382Y5440083D01*
X6106925Y5446100D01*
D02*
G37*
G36*
X5532596Y5343600D02*
X5510004D01*
X5488182Y5337753D01*
X5468617Y5326457D01*
X5452643Y5310482D01*
X5441347Y5290918D01*
X5435500Y5269096D01*
Y5246504D01*
X5441347Y5224682D01*
X5452643Y5205118D01*
X5468617Y5189143D01*
X5488182Y5177847D01*
X5510004Y5172000D01*
X5532596D01*
X5554417Y5177847D01*
X5573982Y5189143D01*
X5589957Y5205118D01*
X5601253Y5224682D01*
X5607100Y5246504D01*
Y5269096D01*
X5601253Y5290918D01*
X5589957Y5310482D01*
X5573982Y5326457D01*
X5554417Y5337753D01*
X5532596Y5343600D01*
D02*
G37*
G36*
X5332596D02*
X5310004D01*
X5288182Y5337753D01*
X5268618Y5326457D01*
X5252643Y5310482D01*
X5241347Y5290918D01*
X5235500Y5269096D01*
Y5246504D01*
X5241347Y5224682D01*
X5252643Y5205118D01*
X5268618Y5189143D01*
X5288182Y5177847D01*
X5310004Y5172000D01*
X5332596D01*
X5354418Y5177847D01*
X5373982Y5189143D01*
X5389957Y5205118D01*
X5401253Y5224682D01*
X5407100Y5246504D01*
Y5269096D01*
X5401253Y5290918D01*
X5389957Y5310482D01*
X5373982Y5326457D01*
X5354418Y5337753D01*
X5332596Y5343600D01*
D02*
G37*
G36*
X5132596D02*
X5110004D01*
X5088182Y5337753D01*
X5068617Y5326457D01*
X5052643Y5310482D01*
X5041347Y5290918D01*
X5035500Y5269096D01*
Y5246504D01*
X5041347Y5224682D01*
X5052643Y5205118D01*
X5068617Y5189143D01*
X5088182Y5177847D01*
X5110004Y5172000D01*
X5132596D01*
X5154417Y5177847D01*
X5173982Y5189143D01*
X5189957Y5205118D01*
X5201253Y5224682D01*
X5207100Y5246504D01*
Y5269096D01*
X5201253Y5290918D01*
X5189957Y5310482D01*
X5173982Y5326457D01*
X5154417Y5337753D01*
X5132596Y5343600D01*
D02*
G37*
G36*
X6415348Y5345100D02*
X6385252D01*
X6356182Y5337311D01*
X6330118Y5322263D01*
X6308837Y5300982D01*
X6293789Y5274918D01*
X6286000Y5245848D01*
Y5215752D01*
X6293789Y5186682D01*
X6308837Y5160618D01*
X6330118Y5139337D01*
X6356182Y5124289D01*
X6385252Y5116500D01*
X6415348D01*
X6444418Y5124289D01*
X6470482Y5139337D01*
X6491763Y5160618D01*
X6506810Y5186682D01*
X6514600Y5215752D01*
Y5245848D01*
X6506810Y5274918D01*
X6491763Y5300982D01*
X6470482Y5322263D01*
X6444418Y5337311D01*
X6415348Y5345100D01*
D02*
G37*
G36*
X4891348D02*
X4861252D01*
X4832182Y5337311D01*
X4806118Y5322263D01*
X4784837Y5300982D01*
X4769789Y5274918D01*
X4762000Y5245848D01*
Y5215752D01*
X4769789Y5186682D01*
X4784837Y5160618D01*
X4806118Y5139337D01*
X4832182Y5124289D01*
X4861252Y5116500D01*
X4891348D01*
X4920418Y5124289D01*
X4946482Y5139337D01*
X4967763Y5160618D01*
X4982810Y5186682D01*
X4990600Y5215752D01*
Y5245848D01*
X4982810Y5274918D01*
X4967763Y5300982D01*
X4946482Y5322263D01*
X4920418Y5337311D01*
X4891348Y5345100D01*
D02*
G37*
G36*
X6106925Y5192100D02*
X6083675D01*
X6061217Y5186083D01*
X6041082Y5174458D01*
X6024642Y5158018D01*
X6013017Y5137883D01*
X6007000Y5115425D01*
Y5092175D01*
X6013017Y5069718D01*
X6024642Y5049582D01*
X6041082Y5033142D01*
X6061217Y5021518D01*
X6083675Y5015500D01*
X6106925D01*
X6129382Y5021518D01*
X6149518Y5033142D01*
X6165958Y5049582D01*
X6177583Y5069718D01*
X6183600Y5092175D01*
Y5115425D01*
X6177583Y5137883D01*
X6165958Y5158018D01*
X6149518Y5174458D01*
X6129382Y5186083D01*
X6106925Y5192100D01*
D02*
G37*
G36*
X6415348Y5091100D02*
X6385252D01*
X6356182Y5083311D01*
X6330118Y5068263D01*
X6308837Y5046982D01*
X6293789Y5020918D01*
X6286000Y4991848D01*
Y4961752D01*
X6293789Y4932682D01*
X6308837Y4906618D01*
X6330118Y4885337D01*
X6356182Y4870289D01*
X6385252Y4862500D01*
X6415348D01*
X6444418Y4870289D01*
X6470482Y4885337D01*
X6491763Y4906618D01*
X6506810Y4932682D01*
X6514600Y4961752D01*
Y4991848D01*
X6506810Y5020918D01*
X6491763Y5046982D01*
X6470482Y5068263D01*
X6444418Y5083311D01*
X6415348Y5091100D01*
D02*
G37*
G36*
X4891348D02*
X4861252D01*
X4832182Y5083311D01*
X4806118Y5068263D01*
X4784837Y5046982D01*
X4769789Y5020918D01*
X4762000Y4991848D01*
Y4961752D01*
X4769789Y4932682D01*
X4772518Y4927955D01*
X3515831Y3671269D01*
X3507411Y3658666D01*
X3504453Y3643800D01*
Y1181297D01*
X3496731Y1179228D01*
X3469219Y1163344D01*
X3446756Y1140881D01*
X3430872Y1113369D01*
X3422650Y1082684D01*
Y1050916D01*
X3430872Y1020231D01*
X3446756Y992719D01*
X3469219Y970256D01*
X3496731Y954372D01*
X3527416Y946150D01*
X3559184D01*
X3589869Y954372D01*
X3617381Y970256D01*
X3639844Y992719D01*
X3655728Y1020231D01*
X3657152Y1025545D01*
X3683448D01*
X3684872Y1020231D01*
X3700756Y992719D01*
X3723219Y970256D01*
X3750731Y954372D01*
X3781416Y946150D01*
X3813184D01*
X3843869Y954372D01*
X3871381Y970256D01*
X3893844Y992719D01*
X3909728Y1020231D01*
X3911152Y1025545D01*
X3937448D01*
X3938872Y1020231D01*
X3954756Y992719D01*
X3977219Y970256D01*
X4004731Y954372D01*
X4035416Y946150D01*
X4038600D01*
Y1066800D01*
Y1187450D01*
X4035416D01*
X4004731Y1179228D01*
X3977219Y1163344D01*
X3954756Y1140881D01*
X3938872Y1113369D01*
X3937448Y1108055D01*
X3911152D01*
X3909728Y1113369D01*
X3893844Y1140881D01*
X3871381Y1163344D01*
X3843869Y1179228D01*
X3836147Y1181297D01*
Y1634909D01*
X4301568Y2100331D01*
X4309989Y2112934D01*
X4312946Y2127800D01*
Y4104509D01*
X4827455Y4619018D01*
X4832182Y4616289D01*
X4861252Y4608500D01*
X4891348D01*
X4920418Y4616289D01*
X4946482Y4631337D01*
X4967763Y4652618D01*
X4982810Y4678682D01*
X4990600Y4707752D01*
Y4737848D01*
X4982810Y4766918D01*
X4967763Y4792982D01*
X4946482Y4814263D01*
X4920418Y4829311D01*
X4891348Y4837100D01*
X4861252D01*
X4832182Y4829311D01*
X4806118Y4814263D01*
X4784837Y4792982D01*
X4769789Y4766918D01*
X4762000Y4737848D01*
Y4707752D01*
X4769789Y4678682D01*
X4772518Y4673955D01*
X4246631Y4148069D01*
X4238210Y4135466D01*
X4235253Y4120600D01*
Y2143891D01*
X3769831Y1678469D01*
X3761411Y1665866D01*
X3758453Y1651000D01*
Y1181297D01*
X3750731Y1179228D01*
X3723219Y1163344D01*
X3700756Y1140881D01*
X3684872Y1113369D01*
X3683448Y1108055D01*
X3657152D01*
X3655728Y1113369D01*
X3639844Y1140881D01*
X3617381Y1163344D01*
X3589869Y1179228D01*
X3582147Y1181297D01*
Y3627710D01*
X4827455Y4873018D01*
X4832182Y4870289D01*
X4861252Y4862500D01*
X4891348D01*
X4920418Y4870289D01*
X4946482Y4885337D01*
X4967763Y4906618D01*
X4982810Y4932682D01*
X4990600Y4961752D01*
Y4991848D01*
X4982810Y5020918D01*
X4967763Y5046982D01*
X4946482Y5068263D01*
X4920418Y5083311D01*
X4891348Y5091100D01*
D02*
G37*
G36*
X6106925Y4938100D02*
X6083675D01*
X6061217Y4932083D01*
X6041082Y4920458D01*
X6024642Y4904018D01*
X6013017Y4883883D01*
X6007000Y4861425D01*
Y4838175D01*
X6013017Y4815718D01*
X6024642Y4795582D01*
X6041082Y4779142D01*
X6061217Y4767518D01*
X6083675Y4761500D01*
X6106925D01*
X6129382Y4767518D01*
X6149518Y4779142D01*
X6165958Y4795582D01*
X6177583Y4815718D01*
X6183600Y4838175D01*
Y4861425D01*
X6177583Y4883883D01*
X6165958Y4904018D01*
X6149518Y4920458D01*
X6129382Y4932083D01*
X6106925Y4938100D01*
D02*
G37*
G36*
X6415348Y4837100D02*
X6385252D01*
X6356182Y4829311D01*
X6330118Y4814263D01*
X6308837Y4792982D01*
X6293789Y4766918D01*
X6286000Y4737848D01*
Y4707752D01*
X6293789Y4678682D01*
X6308837Y4652618D01*
X6330118Y4631337D01*
X6356182Y4616289D01*
X6385252Y4608500D01*
X6415348D01*
X6444418Y4616289D01*
X6470482Y4631337D01*
X6491763Y4652618D01*
X6506810Y4678682D01*
X6514600Y4707752D01*
Y4737848D01*
X6506810Y4766918D01*
X6491763Y4792982D01*
X6470482Y4814263D01*
X6444418Y4829311D01*
X6415348Y4837100D01*
D02*
G37*
G36*
X6106925Y4684100D02*
X6083675D01*
X6061217Y4678083D01*
X6041082Y4666458D01*
X6024642Y4650018D01*
X6013017Y4629883D01*
X6007000Y4607425D01*
Y4584175D01*
X6013017Y4561718D01*
X6024642Y4541582D01*
X6041082Y4525142D01*
X6061217Y4513518D01*
X6083675Y4507500D01*
X6106925D01*
X6129382Y4513518D01*
X6149518Y4525142D01*
X6165958Y4541582D01*
X6177583Y4561718D01*
X6183600Y4584175D01*
Y4607425D01*
X6177583Y4629883D01*
X6165958Y4650018D01*
X6149518Y4666458D01*
X6129382Y4678083D01*
X6106925Y4684100D01*
D02*
G37*
G36*
X6415348Y4583100D02*
X6385252D01*
X6356182Y4575311D01*
X6330118Y4560263D01*
X6308837Y4538982D01*
X6293789Y4512918D01*
X6286000Y4483848D01*
Y4453752D01*
X6293789Y4424682D01*
X6296518Y4419955D01*
X5243031Y3366469D01*
X5234611Y3353866D01*
X5231653Y3339000D01*
Y1168597D01*
X5223931Y1166528D01*
X5196419Y1150644D01*
X5173956Y1128181D01*
X5158072Y1100669D01*
X5149850Y1069984D01*
Y1038216D01*
X5158072Y1007531D01*
X5173956Y980019D01*
X5196419Y957556D01*
X5223931Y941672D01*
X5254616Y933450D01*
X5286384D01*
X5317069Y941672D01*
X5344581Y957556D01*
X5367044Y980019D01*
X5382928Y1007531D01*
X5384352Y1012845D01*
X5410648D01*
X5412072Y1007531D01*
X5427956Y980019D01*
X5450419Y957556D01*
X5477931Y941672D01*
X5508616Y933450D01*
X5540384D01*
X5571069Y941672D01*
X5598581Y957556D01*
X5621044Y980019D01*
X5636928Y1007531D01*
X5638352Y1012845D01*
X5664648D01*
X5666072Y1007531D01*
X5681956Y980019D01*
X5704419Y957556D01*
X5731931Y941672D01*
X5762616Y933450D01*
X5765800D01*
Y1054100D01*
Y1174750D01*
X5762616D01*
X5731931Y1166528D01*
X5722125Y1160866D01*
X5706529Y1181191D01*
X5995580Y1470243D01*
X6004001Y1482845D01*
X6006958Y1497711D01*
Y3766521D01*
X6351455Y4111018D01*
X6356182Y4108289D01*
X6385252Y4100500D01*
X6415348D01*
X6444418Y4108289D01*
X6470482Y4123337D01*
X6491763Y4144618D01*
X6506810Y4170682D01*
X6514600Y4199752D01*
Y4229848D01*
X6506810Y4258918D01*
X6491763Y4284982D01*
X6470482Y4306263D01*
X6444418Y4321311D01*
X6415348Y4329100D01*
X6385252D01*
X6356182Y4321311D01*
X6330118Y4306263D01*
X6308837Y4284982D01*
X6293789Y4258918D01*
X6286000Y4229848D01*
Y4199752D01*
X6293789Y4170682D01*
X6296518Y4165955D01*
X5940643Y3810080D01*
X5932222Y3797477D01*
X5929265Y3782611D01*
Y1513802D01*
X5577993Y1162530D01*
X5571069Y1166528D01*
X5540384Y1174750D01*
X5508616D01*
X5477931Y1166528D01*
X5450419Y1150644D01*
X5427956Y1128181D01*
X5412072Y1100669D01*
X5410648Y1095355D01*
X5384352D01*
X5382928Y1100669D01*
X5367044Y1128181D01*
X5344581Y1150644D01*
X5317069Y1166528D01*
X5309347Y1168597D01*
Y3322910D01*
X6351455Y4365018D01*
X6356182Y4362289D01*
X6385252Y4354500D01*
X6415348D01*
X6444418Y4362289D01*
X6470482Y4377337D01*
X6491763Y4398618D01*
X6506810Y4424682D01*
X6514600Y4453752D01*
Y4483848D01*
X6506810Y4512918D01*
X6491763Y4538982D01*
X6470482Y4560263D01*
X6444418Y4575311D01*
X6415348Y4583100D01*
D02*
G37*
G36*
X4891348D02*
X4861252D01*
X4832182Y4575311D01*
X4806118Y4560263D01*
X4784837Y4538982D01*
X4769789Y4512918D01*
X4762000Y4483848D01*
Y4453752D01*
X4769789Y4424682D01*
X4784837Y4398618D01*
X4806118Y4377337D01*
X4832182Y4362289D01*
X4861252Y4354500D01*
X4891348D01*
X4920418Y4362289D01*
X4946482Y4377337D01*
X4967763Y4398618D01*
X4982810Y4424682D01*
X4990600Y4453752D01*
Y4483848D01*
X4982810Y4512918D01*
X4967763Y4538982D01*
X4946482Y4560263D01*
X4920418Y4575311D01*
X4891348Y4583100D01*
D02*
G37*
G36*
Y4329100D02*
X4889000D01*
Y4227500D01*
X4990600D01*
Y4229848D01*
X4982810Y4258918D01*
X4967763Y4284982D01*
X4946482Y4306263D01*
X4920418Y4321311D01*
X4891348Y4329100D01*
D02*
G37*
G36*
X4863600D02*
X4861252D01*
X4832182Y4321311D01*
X4806118Y4306263D01*
X4784837Y4284982D01*
X4769789Y4258918D01*
X4762000Y4229848D01*
Y4227500D01*
X4863600D01*
Y4329100D01*
D02*
G37*
G36*
X5142254Y4305600D02*
X5118346D01*
X5095252Y4299412D01*
X5074547Y4287458D01*
X5057642Y4270553D01*
X5045688Y4249847D01*
X5039500Y4226754D01*
Y4202846D01*
X5045688Y4179753D01*
X5057642Y4159048D01*
X5074547Y4142142D01*
X5095252Y4130188D01*
X5118346Y4124000D01*
X5142254D01*
X5165347Y4130188D01*
X5186052Y4142142D01*
X5202958Y4159048D01*
X5214912Y4179753D01*
X5221100Y4202846D01*
Y4226754D01*
X5214912Y4249847D01*
X5202958Y4270553D01*
X5186052Y4287458D01*
X5165347Y4299412D01*
X5142254Y4305600D01*
D02*
G37*
G36*
X4990600Y4202100D02*
X4889000D01*
Y4100500D01*
X4891348D01*
X4920418Y4108289D01*
X4946482Y4123337D01*
X4967763Y4144618D01*
X4982810Y4170682D01*
X4990600Y4199752D01*
Y4202100D01*
D02*
G37*
G36*
X4863600D02*
X4762000D01*
Y4199752D01*
X4769789Y4170682D01*
X4784837Y4144618D01*
X4806118Y4123337D01*
X4832182Y4108289D01*
X4861252Y4100500D01*
X4863600D01*
Y4202100D01*
D02*
G37*
G36*
X6415348Y4075100D02*
X6413000D01*
Y3973500D01*
X6514600D01*
Y3975848D01*
X6506810Y4004918D01*
X6491763Y4030982D01*
X6470482Y4052263D01*
X6444418Y4067311D01*
X6415348Y4075100D01*
D02*
G37*
G36*
X6387600D02*
X6385252D01*
X6356182Y4067311D01*
X6330118Y4052263D01*
X6308837Y4030982D01*
X6293789Y4004918D01*
X6286000Y3975848D01*
Y3973500D01*
X6387600D01*
Y4075100D01*
D02*
G37*
G36*
X2188526Y4296700D02*
X2154074D01*
X2120284Y4289978D01*
X2088454Y4276794D01*
X2059808Y4257654D01*
X2035446Y4233292D01*
X2016306Y4204646D01*
X2003121Y4172816D01*
X1996400Y4139026D01*
Y4104574D01*
X2003121Y4070784D01*
X2016306Y4038954D01*
X2035446Y4010308D01*
X2059808Y3985946D01*
X2088454Y3966806D01*
X2120284Y3953622D01*
X2154074Y3946900D01*
X2188526D01*
X2222316Y3953622D01*
X2254146Y3966806D01*
X2282792Y3985946D01*
X2307154Y4010308D01*
X2326294Y4038954D01*
X2339478Y4070784D01*
X2346200Y4104574D01*
Y4139026D01*
X2339478Y4172816D01*
X2326294Y4204646D01*
X2307154Y4233292D01*
X2282792Y4257654D01*
X2254146Y4276794D01*
X2222316Y4289978D01*
X2188526Y4296700D01*
D02*
G37*
G36*
X6514600Y3948100D02*
X6413000D01*
Y3846500D01*
X6415348D01*
X6444418Y3854289D01*
X6470482Y3869337D01*
X6491763Y3890618D01*
X6506810Y3916682D01*
X6514600Y3945752D01*
Y3948100D01*
D02*
G37*
G36*
X6387600D02*
X6286000D01*
Y3945752D01*
X6293789Y3916682D01*
X6308837Y3890618D01*
X6330118Y3869337D01*
X6356182Y3854289D01*
X6385252Y3846500D01*
X6387600D01*
Y3948100D01*
D02*
G37*
G36*
X4891348Y4075100D02*
X4861252D01*
X4832182Y4067311D01*
X4806118Y4052263D01*
X4784837Y4030982D01*
X4769789Y4004918D01*
X4762000Y3975848D01*
Y3945752D01*
X4769789Y3916682D01*
X4784837Y3890618D01*
X4806118Y3869337D01*
X4832182Y3854289D01*
X4861252Y3846500D01*
X4891348D01*
X4920418Y3854289D01*
X4946482Y3869337D01*
X4967763Y3890618D01*
X4982810Y3916682D01*
X4990600Y3945752D01*
Y3975848D01*
X4982810Y4004918D01*
X4967763Y4030982D01*
X4946482Y4052263D01*
X4920418Y4067311D01*
X4891348Y4075100D01*
D02*
G37*
G36*
X2430700Y3637200D02*
X2286000D01*
Y3492500D01*
X2430700D01*
Y3637200D01*
D02*
G37*
G36*
X2260600D02*
X2115900D01*
Y3492500D01*
X2260600D01*
Y3637200D01*
D02*
G37*
G36*
X2430700Y3467100D02*
X2286000D01*
Y3322400D01*
X2430700D01*
Y3467100D01*
D02*
G37*
G36*
X2260600D02*
X2115900D01*
Y3322400D01*
X2260600D01*
Y3467100D01*
D02*
G37*
G36*
X1653803Y3637200D02*
X1622797D01*
X1592388Y3631151D01*
X1563743Y3619286D01*
X1537963Y3602060D01*
X1516040Y3580137D01*
X1498814Y3554357D01*
X1486949Y3525712D01*
X1480900Y3495303D01*
Y3464297D01*
X1486949Y3433888D01*
X1498814Y3405243D01*
X1516040Y3379463D01*
X1537963Y3357540D01*
X1563743Y3340314D01*
X1592388Y3328449D01*
X1622797Y3322400D01*
X1653803D01*
X1684212Y3328449D01*
X1712857Y3340314D01*
X1738637Y3357540D01*
X1760560Y3379463D01*
X1777786Y3405243D01*
X1789651Y3433888D01*
X1795700Y3464297D01*
Y3495303D01*
X1789651Y3525712D01*
X1777786Y3554357D01*
X1760560Y3580137D01*
X1738637Y3602060D01*
X1712857Y3619286D01*
X1684212Y3631151D01*
X1653803Y3637200D01*
D02*
G37*
G36*
Y3192200D02*
X1622797D01*
X1592388Y3186151D01*
X1563743Y3174286D01*
X1537963Y3157060D01*
X1516040Y3135136D01*
X1498814Y3109357D01*
X1486949Y3080712D01*
X1480900Y3050303D01*
Y3019297D01*
X1486949Y2988888D01*
X1498814Y2960243D01*
X1516040Y2934463D01*
X1537963Y2912540D01*
X1563743Y2895314D01*
X1592388Y2883449D01*
X1622797Y2877400D01*
X1653803D01*
X1684212Y2883449D01*
X1712857Y2895314D01*
X1738637Y2912540D01*
X1760560Y2934463D01*
X1777786Y2960243D01*
X1789651Y2988888D01*
X1795700Y3019297D01*
Y3050303D01*
X1789651Y3080712D01*
X1777786Y3109357D01*
X1760560Y3135136D01*
X1738637Y3157060D01*
X1712857Y3174286D01*
X1684212Y3186151D01*
X1653803Y3192200D01*
D02*
G37*
G36*
X1045526Y3209700D02*
X1011074D01*
X977284Y3202978D01*
X945454Y3189794D01*
X916808Y3170654D01*
X892446Y3146292D01*
X873306Y3117646D01*
X860121Y3085816D01*
X853400Y3052026D01*
Y3017574D01*
X860121Y2983783D01*
X873306Y2951954D01*
X892446Y2923308D01*
X916808Y2898946D01*
X945454Y2879806D01*
X977284Y2866621D01*
X1011074Y2859900D01*
X1045526D01*
X1079316Y2866621D01*
X1111146Y2879806D01*
X1139792Y2898946D01*
X1164154Y2923308D01*
X1183294Y2951954D01*
X1196478Y2983783D01*
X1203200Y3017574D01*
Y3052026D01*
X1196478Y3085816D01*
X1183294Y3117646D01*
X1164154Y3146292D01*
X1139792Y3170654D01*
X1111146Y3189794D01*
X1079316Y3202978D01*
X1045526Y3209700D01*
D02*
G37*
G36*
X4067184Y2584450D02*
X4035416D01*
X4004731Y2576228D01*
X3977219Y2560344D01*
X3954756Y2537881D01*
X3938872Y2510369D01*
X3937448Y2505055D01*
X3911152D01*
X3909728Y2510369D01*
X3893844Y2537881D01*
X3871381Y2560344D01*
X3843869Y2576228D01*
X3813184Y2584450D01*
X3781416D01*
X3750731Y2576228D01*
X3723219Y2560344D01*
X3700756Y2537881D01*
X3684872Y2510369D01*
X3676650Y2479684D01*
Y2447916D01*
X3684872Y2417231D01*
X3700756Y2389719D01*
X3723219Y2367256D01*
X3750731Y2351372D01*
X3781416Y2343150D01*
X3813184D01*
X3843869Y2351372D01*
X3871381Y2367256D01*
X3893844Y2389719D01*
X3909728Y2417231D01*
X3911152Y2422545D01*
X3937448D01*
X3938872Y2417231D01*
X3954756Y2389719D01*
X3977219Y2367256D01*
X4004731Y2351372D01*
X4035416Y2343150D01*
X4067184D01*
X4097869Y2351372D01*
X4125381Y2367256D01*
X4147844Y2389719D01*
X4163728Y2417231D01*
X4171950Y2447916D01*
Y2479684D01*
X4163728Y2510369D01*
X4147844Y2537881D01*
X4125381Y2560344D01*
X4097869Y2576228D01*
X4067184Y2584450D01*
D02*
G37*
G36*
X5794384Y2571750D02*
X5762616D01*
X5731931Y2563528D01*
X5704419Y2547644D01*
X5681956Y2525181D01*
X5666072Y2497669D01*
X5664648Y2492355D01*
X5638352D01*
X5636928Y2497669D01*
X5621044Y2525181D01*
X5598581Y2547644D01*
X5571069Y2563528D01*
X5540384Y2571750D01*
X5508616D01*
X5477931Y2563528D01*
X5450419Y2547644D01*
X5427956Y2525181D01*
X5412072Y2497669D01*
X5403850Y2466984D01*
Y2435216D01*
X5412072Y2404531D01*
X5427956Y2377019D01*
X5450419Y2354556D01*
X5477931Y2338672D01*
X5508616Y2330450D01*
X5540384D01*
X5571069Y2338672D01*
X5598581Y2354556D01*
X5621044Y2377019D01*
X5636928Y2404531D01*
X5638352Y2409845D01*
X5664648D01*
X5666072Y2404531D01*
X5681956Y2377019D01*
X5704419Y2354556D01*
X5731931Y2338672D01*
X5762616Y2330450D01*
X5794384D01*
X5825069Y2338672D01*
X5852581Y2354556D01*
X5875044Y2377019D01*
X5890928Y2404531D01*
X5899150Y2435216D01*
Y2466984D01*
X5890928Y2497669D01*
X5875044Y2525181D01*
X5852581Y2547644D01*
X5825069Y2563528D01*
X5794384Y2571750D01*
D02*
G37*
G36*
X2288803Y2747200D02*
X2257797D01*
X2227388Y2741151D01*
X2198743Y2729286D01*
X2172963Y2712060D01*
X2151040Y2690136D01*
X2133814Y2664357D01*
X2121949Y2635712D01*
X2115900Y2605302D01*
Y2574297D01*
X2121949Y2543888D01*
X2133814Y2515243D01*
X2151040Y2489463D01*
X2172963Y2467539D01*
X2198743Y2450314D01*
X2227388Y2438449D01*
X2257797Y2432400D01*
X2288803D01*
X2319212Y2438449D01*
X2347857Y2450314D01*
X2373637Y2467539D01*
X2395560Y2489463D01*
X2412786Y2515243D01*
X2424651Y2543888D01*
X2430700Y2574297D01*
Y2605302D01*
X2424651Y2635712D01*
X2412786Y2664357D01*
X2395560Y2690136D01*
X2373637Y2712060D01*
X2347857Y2729286D01*
X2319212Y2741151D01*
X2288803Y2747200D01*
D02*
G37*
G36*
X1653803D02*
X1622797D01*
X1592388Y2741151D01*
X1563743Y2729286D01*
X1537963Y2712060D01*
X1516040Y2690136D01*
X1498814Y2664357D01*
X1486949Y2635712D01*
X1480900Y2605302D01*
Y2574297D01*
X1486949Y2543888D01*
X1498814Y2515243D01*
X1516040Y2489463D01*
X1537963Y2467539D01*
X1563743Y2450314D01*
X1592388Y2438449D01*
X1622797Y2432400D01*
X1653803D01*
X1684212Y2438449D01*
X1712857Y2450314D01*
X1738637Y2467539D01*
X1760560Y2489463D01*
X1777786Y2515243D01*
X1789651Y2543888D01*
X1795700Y2574297D01*
Y2605302D01*
X1789651Y2635712D01*
X1777786Y2664357D01*
X1760560Y2690136D01*
X1738637Y2712060D01*
X1712857Y2729286D01*
X1684212Y2741151D01*
X1653803Y2747200D01*
D02*
G37*
G36*
X2188526Y2122700D02*
X2154074D01*
X2120284Y2115978D01*
X2088454Y2102794D01*
X2059808Y2083653D01*
X2035446Y2059292D01*
X2016306Y2030646D01*
X2003121Y1998816D01*
X1996400Y1965026D01*
Y1930574D01*
X2003121Y1896783D01*
X2016306Y1864954D01*
X2035446Y1836307D01*
X2059808Y1811946D01*
X2088454Y1792805D01*
X2120284Y1779621D01*
X2154074Y1772900D01*
X2188526D01*
X2222316Y1779621D01*
X2254146Y1792805D01*
X2282792Y1811946D01*
X2307154Y1836307D01*
X2326294Y1864954D01*
X2339478Y1896783D01*
X2346200Y1930574D01*
Y1965026D01*
X2339478Y1998816D01*
X2326294Y2030646D01*
X2307154Y2059292D01*
X2282792Y2083653D01*
X2254146Y2102794D01*
X2222316Y2115978D01*
X2188526Y2122700D01*
D02*
G37*
G36*
X4280576Y482600D02*
X4279900D01*
Y393700D01*
X4368800D01*
Y394376D01*
X4361876Y420216D01*
X4348500Y443384D01*
X4329584Y462300D01*
X4306416Y475676D01*
X4280576Y482600D01*
D02*
G37*
G36*
X4254500D02*
X4253824D01*
X4227984Y475676D01*
X4204816Y462300D01*
X4185900Y443384D01*
X4172524Y420216D01*
X4165600Y394376D01*
Y393700D01*
X4254500D01*
Y482600D01*
D02*
G37*
G36*
X4368800Y368300D02*
X4279900D01*
Y279400D01*
X4280576D01*
X4306416Y286324D01*
X4329584Y299700D01*
X4348500Y318616D01*
X4361876Y341784D01*
X4368800Y367624D01*
Y368300D01*
D02*
G37*
G36*
X4254500D02*
X4165600D01*
Y367624D01*
X4172524Y341784D01*
X4185900Y318616D01*
X4204816Y299700D01*
X4227984Y286324D01*
X4253824Y279400D01*
X4254500D01*
Y368300D01*
D02*
G37*
%LPD*%
D10*
X6692900Y1714500D02*
Y7224200D01*
X6032500Y1054100D02*
X6692900Y1714500D01*
X6400300Y7516800D02*
X6692900Y7224200D01*
X5359400Y381000D02*
X6032500Y1054100D01*
X5016500Y381000D02*
X5359400D01*
X5003800D02*
X5016500D01*
X4318000Y1066800D02*
X5003800Y381000D01*
X4305300Y1066800D02*
X4318000D01*
X2273300Y3034800D02*
X3509200Y4270700D01*
Y5622100D01*
X3073400Y6057900D02*
X3509200Y5622100D01*
X3797300Y1066800D02*
Y1651000D01*
X4274100Y2127800D01*
Y4120600D01*
X4876300Y4722800D01*
X3543300Y3643800D02*
X4876300Y4976800D01*
X3543300Y1066800D02*
Y3643800D01*
X5968111Y1497711D02*
Y3782611D01*
X6400300Y4214800D01*
X5524500Y1054100D02*
X5968111Y1497711D01*
X5270500Y3339000D02*
X6400300Y4468800D01*
X5270500Y1054100D02*
Y3339000D01*
X2057400Y6057900D02*
X3073400D01*
X1638300Y6477000D02*
X2057400Y6057900D01*
X1638300Y6477000D02*
Y7403600D01*
X2083300Y7848600D02*
X2273300D01*
X1638300Y7403600D02*
X2083300Y7848600D01*
X1943100Y8153400D02*
X2374900D01*
X2895600Y8674100D01*
X3263900D01*
X1638300Y7848600D02*
X1943100Y8153400D01*
X2273300Y7403600D02*
X2768100Y6908800D01*
X3168000D01*
X3175200Y7155600D02*
X4076700D01*
X3168000Y7162800D02*
X3175200Y7155600D01*
X3271100Y8920900D02*
X4089400D01*
X3263900Y8928100D02*
X3271100Y8920900D01*
X4445000Y6932100D02*
Y8565300D01*
X4089400Y8920900D02*
X4445000Y8565300D01*
Y6932100D02*
X4876300Y6500800D01*
D11*
X5016500Y381000D02*
D03*
X4267200D02*
D03*
X6858000Y9779000D02*
D03*
Y381000D02*
D03*
X444500D02*
D03*
X381000Y9779000D02*
D03*
D12*
X1028300Y3034800D02*
D03*
X2171300Y4121800D02*
D03*
Y1947800D02*
D03*
X1028300Y7626100D02*
D03*
X2171300Y8491100D02*
D03*
Y6761100D02*
D03*
D13*
X1638300Y3479800D02*
D03*
Y2589800D02*
D03*
X2273300Y3034800D02*
D03*
Y2589800D02*
D03*
X1638300Y3034800D02*
D03*
Y7848600D02*
D03*
Y7403600D02*
D03*
X2273300D02*
D03*
D14*
Y3479800D02*
D03*
Y7848600D02*
D03*
D15*
X4007200Y5613400D02*
D03*
X3757200D02*
D03*
X3507200D02*
D03*
D16*
X3257200D02*
D03*
D17*
X6400300Y3960800D02*
D03*
Y4214800D02*
D03*
X4876300Y7516800D02*
D03*
X6400300Y4468800D02*
D03*
Y4722800D02*
D03*
Y4976800D02*
D03*
Y5230800D02*
D03*
Y5484800D02*
D03*
Y5738800D02*
D03*
Y5992800D02*
D03*
Y6246800D02*
D03*
Y6500800D02*
D03*
Y6754800D02*
D03*
Y7008800D02*
D03*
Y7262800D02*
D03*
Y7516800D02*
D03*
X4876300Y7262800D02*
D03*
Y7008800D02*
D03*
Y6754800D02*
D03*
Y6500800D02*
D03*
Y6246800D02*
D03*
Y5992800D02*
D03*
Y5738800D02*
D03*
Y5484800D02*
D03*
Y5230800D02*
D03*
Y4976800D02*
D03*
Y4722800D02*
D03*
Y4468800D02*
D03*
Y4214800D02*
D03*
Y3960800D02*
D03*
X6400300Y7770800D02*
D03*
Y8024800D02*
D03*
Y8278800D02*
D03*
Y8532800D02*
D03*
Y8786800D02*
D03*
Y9040800D02*
D03*
Y9294800D02*
D03*
Y9548800D02*
D03*
Y9802800D02*
D03*
X4876300D02*
D03*
Y9548800D02*
D03*
Y9294800D02*
D03*
Y9040800D02*
D03*
Y8786800D02*
D03*
Y8532800D02*
D03*
Y8278800D02*
D03*
Y8024800D02*
D03*
Y7770800D02*
D03*
D18*
X6146300Y8532800D02*
D03*
X5892300D02*
D03*
X5638300D02*
D03*
X5130300D02*
D03*
Y4214800D02*
D03*
X5384300Y8532800D02*
D03*
D19*
X5121300Y5457800D02*
D03*
Y5257800D02*
D03*
X5321300Y5457800D02*
D03*
X5521300D02*
D03*
X5321300Y5257800D02*
D03*
X5521300D02*
D03*
D20*
X6095300Y4595800D02*
D03*
Y4849800D02*
D03*
Y5103800D02*
D03*
Y5357800D02*
D03*
Y5611800D02*
D03*
D21*
X3168000Y6654800D02*
D03*
Y6908800D02*
D03*
X3263900Y8420100D02*
D03*
Y8674100D02*
D03*
D22*
X3168000Y7162800D02*
D03*
X3263900Y8928100D02*
D03*
D23*
X4076700Y6255600D02*
D03*
X4089400Y8020900D02*
D03*
D24*
X4076700Y7155600D02*
D03*
X4089400Y8920900D02*
D03*
D25*
X4051300Y2463800D02*
D03*
X3797300D02*
D03*
X3543300Y1066800D02*
D03*
X3797300D02*
D03*
X4051300D02*
D03*
X4305300D02*
D03*
X5778500Y2451100D02*
D03*
X5524500D02*
D03*
X5270500Y1054100D02*
D03*
X5524500D02*
D03*
X5778500D02*
D03*
X6032500D02*
D03*
%TF.MD5,0856fa2d5846c306e29c1a5d95e14a6f*%
M02*
