%TF.GenerationSoftware,Altium Limited,Altium Designer,23.10.1 (27)*%
G04 Layer_Physical_Order=1*
G04 Layer_Color=255*
%FSLAX45Y45*%
%MOMM*%
%TF.SameCoordinates,AA33C9F7-56E5-4FFB-A8AB-1004920BA132*%
%TF.FilePolarity,Positive*%
%TF.FileFunction,Copper,L1,Top,Signal*%
%TF.Part,Single*%
G01*
G75*
%TA.AperFunction,ComponentPad*%
%ADD10O,1.01600X2.03200*%
%ADD11C,1.10795*%
%ADD12C,1.50800*%
%ADD13R,1.50800X1.50800*%
G04:AMPARAMS|DCode=14|XSize=1.508mm|YSize=1.508mm|CornerRadius=0mm|HoleSize=0mm|Usage=FLASHONLY|Rotation=90.000|XOffset=0mm|YOffset=0mm|HoleType=Round|Shape=Octagon|*
%AMOCTAGOND14*
4,1,8,0.37700,0.75400,-0.37700,0.75400,-0.75400,0.37700,-0.75400,-0.37700,-0.37700,-0.75400,0.37700,-0.75400,0.75400,-0.37700,0.75400,0.37700,0.37700,0.75400,0.0*
%
%ADD14OCTAGOND14*%

%ADD15C,1.67640*%
%ADD16R,1.50800X1.50800*%
%ADD17O,1.50800X3.01600*%
%ADD18C,1.52400*%
D10*
X3175000Y381000D02*
D03*
X3302000D02*
D03*
X3429000D02*
D03*
X3556000D02*
D03*
D11*
X2386000Y2016989D02*
D03*
Y2216988D02*
D03*
Y2416988D02*
D03*
X2186000Y2016989D02*
D03*
Y2216988D02*
D03*
Y2416988D02*
D03*
D12*
X912012Y1805000D02*
D03*
Y2005000D02*
D03*
X4699000Y1143000D02*
D03*
X2540000Y1442999D02*
D03*
X2286000D02*
D03*
X2032000D02*
D03*
X1778000D02*
D03*
X1524000D02*
D03*
X6731000Y2667000D02*
D03*
X6477000D02*
D03*
X6223000D02*
D03*
X5969000D02*
D03*
X5715000D02*
D03*
X5461000D02*
D03*
X5207000D02*
D03*
X4953000D02*
D03*
X4699000D02*
D03*
X6731000Y1143000D02*
D03*
X6477000D02*
D03*
X6223000D02*
D03*
X5969000D02*
D03*
X5715000D02*
D03*
X5461000D02*
D03*
X5207000D02*
D03*
X4953000D02*
D03*
X1651000Y2667000D02*
D03*
X1905000D02*
D03*
X2159000D02*
D03*
X2413000D02*
D03*
X2667000D02*
D03*
X2921000D02*
D03*
X3175000D02*
D03*
X3429000D02*
D03*
X3683000D02*
D03*
X3937000D02*
D03*
X1143000Y2413000D02*
D03*
X3937000Y1143000D02*
D03*
X3683000D02*
D03*
X3429000D02*
D03*
X3175000D02*
D03*
X2921000D02*
D03*
X2667000D02*
D03*
X2413000D02*
D03*
X2159000D02*
D03*
X1905000D02*
D03*
X1651000D02*
D03*
X1397000D02*
D03*
X1143000D02*
D03*
X4191000D02*
D03*
Y2667000D02*
D03*
X5461000Y2413000D02*
D03*
Y2159000D02*
D03*
Y1397000D02*
D03*
D13*
X4445000Y2667000D02*
D03*
X5461000Y1905000D02*
D03*
X889000Y1143000D02*
D03*
D14*
X4445000D02*
D03*
X5461000Y1651000D02*
D03*
X1397000Y2667000D02*
D03*
D15*
X889000D02*
D03*
D16*
X1143000D02*
D03*
D17*
X5334000Y635000D02*
D03*
X5588000D02*
D03*
X4699000D02*
D03*
X4953000D02*
D03*
X1651000Y3302000D02*
D03*
X1397000D02*
D03*
X2286000D02*
D03*
X2032000D02*
D03*
X2921000D02*
D03*
X2667000D02*
D03*
X3556000D02*
D03*
X3302000D02*
D03*
X4191000D02*
D03*
X3937000D02*
D03*
D18*
X2032000Y508000D02*
D03*
X1778000D02*
D03*
X1524000D02*
D03*
%TF.MD5,6d0828a2b34698b142b7cebb77fcb126*%
M02*
