%TF.GenerationSoftware,Altium Limited,Altium Designer,23.10.1 (27)*%
G04 Layer_Color=65535*
%FSLAX45Y45*%
%MOMM*%
%TF.SameCoordinates,AA33C9F7-56E5-4FFB-A8AB-1004920BA132*%
%TF.FilePolarity,Positive*%
%TF.FileFunction,Legend,Top*%
%TF.Part,Single*%
G01*
G75*
G36*
X5174525Y255649D02*
X5175486D01*
X5176622Y255562D01*
X5177932Y255474D01*
X5179331Y255300D01*
X5180816Y255125D01*
X5182389Y254863D01*
X5185709Y254164D01*
X5189117Y253290D01*
X5192437Y252067D01*
X5192524D01*
X5192786Y251892D01*
X5193223Y251717D01*
X5193835Y251368D01*
X5194534Y251018D01*
X5195408Y250581D01*
X5196281Y250057D01*
X5197330Y249358D01*
X5199427Y247873D01*
X5201611Y246038D01*
X5203708Y243941D01*
X5204757Y242718D01*
X5205631Y241407D01*
X5205718Y241320D01*
X5205805Y241057D01*
X5206068Y240708D01*
X5206330Y240184D01*
X5206679Y239485D01*
X5207116Y238698D01*
X5207553Y237825D01*
X5207990Y236776D01*
X5208427Y235727D01*
X5208864Y234504D01*
X5209300Y233194D01*
X5209650Y231796D01*
X5210262Y228825D01*
X5210524Y227252D01*
X5210611Y225592D01*
X5197854Y224631D01*
Y224718D01*
X5197767Y225068D01*
X5197679Y225505D01*
X5197592Y226204D01*
X5197417Y226990D01*
X5197243Y227864D01*
X5196893Y228912D01*
X5196544Y230048D01*
X5195670Y232320D01*
X5195058Y233543D01*
X5194447Y234766D01*
X5193660Y235902D01*
X5192786Y237038D01*
X5191825Y238087D01*
X5190777Y239048D01*
X5190689Y239135D01*
X5190515Y239223D01*
X5190165Y239485D01*
X5189641Y239834D01*
X5189029Y240184D01*
X5188330Y240621D01*
X5187369Y241057D01*
X5186321Y241494D01*
X5185185Y241931D01*
X5183874Y242368D01*
X5182476Y242805D01*
X5180903Y243154D01*
X5179156Y243504D01*
X5177321Y243766D01*
X5175311Y243853D01*
X5173214Y243941D01*
X5172078D01*
X5171205Y243853D01*
X5170243Y243766D01*
X5169108Y243679D01*
X5167797Y243591D01*
X5166486Y243417D01*
X5163515Y242892D01*
X5160632Y242106D01*
X5159234Y241582D01*
X5157836Y240970D01*
X5156613Y240271D01*
X5155477Y239485D01*
X5155389Y239397D01*
X5155215Y239310D01*
X5154953Y239048D01*
X5154603Y238698D01*
X5154166Y238261D01*
X5153729Y237737D01*
X5152768Y236514D01*
X5151720Y234941D01*
X5150846Y233106D01*
X5150496Y232058D01*
X5150234Y231009D01*
X5150060Y229873D01*
X5149972Y228737D01*
Y228650D01*
Y228475D01*
Y228213D01*
X5150060Y227864D01*
X5150147Y226815D01*
X5150496Y225592D01*
X5150933Y224194D01*
X5151632Y222708D01*
X5152593Y221223D01*
X5153205Y220524D01*
X5153904Y219825D01*
X5153991D01*
X5154079Y219650D01*
X5154341Y219476D01*
X5154778Y219213D01*
X5155302Y218864D01*
X5156001Y218514D01*
X5156875Y218078D01*
X5157836Y217641D01*
X5159059Y217116D01*
X5160545Y216505D01*
X5162117Y215981D01*
X5164040Y215369D01*
X5166137Y214670D01*
X5168496Y214058D01*
X5171117Y213359D01*
X5174001Y212660D01*
X5174175D01*
X5174700Y212485D01*
X5175573Y212311D01*
X5176622Y212049D01*
X5178020Y211699D01*
X5179505Y211350D01*
X5181165Y210913D01*
X5182913Y210476D01*
X5186670Y209515D01*
X5190340Y208466D01*
X5192087Y207855D01*
X5193748Y207330D01*
X5195233Y206806D01*
X5196456Y206282D01*
X5196544Y206194D01*
X5196806Y206107D01*
X5197330Y205845D01*
X5197854Y205583D01*
X5198641Y205146D01*
X5199427Y204622D01*
X5200388Y204097D01*
X5201349Y203486D01*
X5203446Y202000D01*
X5205631Y200165D01*
X5207640Y198156D01*
X5208514Y197107D01*
X5209388Y195971D01*
X5209475Y195884D01*
X5209563Y195709D01*
X5209825Y195360D01*
X5210087Y194836D01*
X5210349Y194311D01*
X5210786Y193612D01*
X5211135Y192739D01*
X5211572Y191865D01*
X5211922Y190816D01*
X5212359Y189768D01*
X5212970Y187321D01*
X5213495Y184613D01*
X5213582Y183127D01*
X5213669Y181642D01*
Y181554D01*
Y181292D01*
Y180855D01*
X5213582Y180244D01*
X5213495Y179545D01*
X5213407Y178758D01*
X5213320Y177797D01*
X5213058Y176749D01*
X5212533Y174390D01*
X5211747Y171856D01*
X5211223Y170545D01*
X5210611Y169234D01*
X5209825Y167836D01*
X5209038Y166526D01*
X5208951Y166438D01*
X5208864Y166176D01*
X5208514Y165827D01*
X5208165Y165390D01*
X5207728Y164778D01*
X5207116Y164079D01*
X5206417Y163293D01*
X5205631Y162506D01*
X5204757Y161633D01*
X5203796Y160759D01*
X5202660Y159798D01*
X5201524Y158924D01*
X5200213Y157963D01*
X5198815Y157089D01*
X5197330Y156303D01*
X5195757Y155516D01*
X5195670D01*
X5195408Y155342D01*
X5194883Y155167D01*
X5194272Y154905D01*
X5193398Y154643D01*
X5192437Y154293D01*
X5191301Y153944D01*
X5190078Y153594D01*
X5188680Y153157D01*
X5187194Y152808D01*
X5185622Y152458D01*
X5183961Y152196D01*
X5182127Y151934D01*
X5180292Y151759D01*
X5178369Y151672D01*
X5176360Y151584D01*
X5175049D01*
X5174088Y151672D01*
X5172865D01*
X5171554Y151759D01*
X5169981Y151934D01*
X5168321Y152109D01*
X5166574Y152283D01*
X5164739Y152546D01*
X5160894Y153245D01*
X5157050Y154206D01*
X5155127Y154817D01*
X5153380Y155516D01*
X5153292Y155604D01*
X5152943Y155691D01*
X5152506Y155953D01*
X5151894Y156303D01*
X5151108Y156652D01*
X5150147Y157176D01*
X5149186Y157788D01*
X5148137Y158487D01*
X5146914Y159361D01*
X5145778Y160235D01*
X5144555Y161196D01*
X5143332Y162244D01*
X5142196Y163468D01*
X5140972Y164691D01*
X5139924Y166001D01*
X5138875Y167487D01*
X5138788Y167574D01*
X5138613Y167836D01*
X5138351Y168273D01*
X5138089Y168885D01*
X5137652Y169671D01*
X5137215Y170545D01*
X5136691Y171594D01*
X5136254Y172817D01*
X5135730Y174040D01*
X5135206Y175438D01*
X5134769Y176923D01*
X5134332Y178584D01*
X5133720Y181991D01*
X5133458Y183826D01*
X5133371Y185661D01*
X5145953Y186797D01*
Y186710D01*
X5146040Y186447D01*
Y186098D01*
X5146128Y185574D01*
X5146215Y184875D01*
X5146390Y184176D01*
X5146565Y183302D01*
X5146827Y182428D01*
X5147351Y180418D01*
X5148050Y178321D01*
X5148924Y176224D01*
X5150060Y174302D01*
Y174215D01*
X5150234Y174127D01*
X5150409Y173865D01*
X5150671Y173516D01*
X5151458Y172642D01*
X5152593Y171506D01*
X5153991Y170195D01*
X5155739Y168885D01*
X5157836Y167662D01*
X5160195Y166438D01*
X5160283D01*
X5160545Y166351D01*
X5160894Y166176D01*
X5161418Y166001D01*
X5162030Y165739D01*
X5162816Y165477D01*
X5163690Y165215D01*
X5164739Y164953D01*
X5165875Y164691D01*
X5167010Y164429D01*
X5169632Y163904D01*
X5172603Y163555D01*
X5175748Y163468D01*
X5177059D01*
X5177670Y163555D01*
X5178457D01*
X5179331Y163642D01*
X5180292Y163730D01*
X5182389Y163992D01*
X5184660Y164429D01*
X5186932Y164953D01*
X5189204Y165739D01*
X5189291D01*
X5189466Y165827D01*
X5189728Y166001D01*
X5190165Y166176D01*
X5191214Y166700D01*
X5192524Y167399D01*
X5193922Y168273D01*
X5195320Y169322D01*
X5196718Y170545D01*
X5197942Y171943D01*
Y172030D01*
X5198029Y172118D01*
X5198378Y172642D01*
X5198815Y173428D01*
X5199427Y174477D01*
X5199951Y175788D01*
X5200388Y177273D01*
X5200738Y178846D01*
X5200825Y180593D01*
Y180681D01*
Y180768D01*
Y181030D01*
Y181380D01*
X5200650Y182253D01*
X5200476Y183389D01*
X5200126Y184700D01*
X5199689Y186011D01*
X5198990Y187496D01*
X5198029Y188807D01*
X5197942Y188981D01*
X5197505Y189418D01*
X5196806Y190030D01*
X5195845Y190904D01*
X5194621Y191865D01*
X5193049Y192826D01*
X5191126Y193787D01*
X5188942Y194748D01*
X5188854D01*
X5188767Y194836D01*
X5188505Y194923D01*
X5188068Y195010D01*
X5187544Y195185D01*
X5186932Y195447D01*
X5186146Y195709D01*
X5185185Y195971D01*
X5184049Y196234D01*
X5182738Y196670D01*
X5181253Y197020D01*
X5179593Y197457D01*
X5177758Y197981D01*
X5175661Y198505D01*
X5173389Y199030D01*
X5170855Y199641D01*
X5170680D01*
X5170243Y199816D01*
X5169544Y199991D01*
X5168583Y200253D01*
X5167447Y200515D01*
X5166137Y200864D01*
X5164739Y201301D01*
X5163253Y201738D01*
X5160020Y202699D01*
X5156788Y203748D01*
X5155215Y204272D01*
X5153817Y204796D01*
X5152506Y205408D01*
X5151370Y205932D01*
X5151283Y206020D01*
X5151021Y206107D01*
X5150671Y206369D01*
X5150234Y206631D01*
X5149623Y206981D01*
X5148924Y207418D01*
X5147351Y208554D01*
X5145603Y209952D01*
X5143856Y211524D01*
X5142108Y213359D01*
X5140623Y215369D01*
Y215456D01*
X5140448Y215631D01*
X5140273Y215893D01*
X5140099Y216330D01*
X5139837Y216854D01*
X5139487Y217466D01*
X5139225Y218252D01*
X5138875Y219039D01*
X5138264Y220874D01*
X5137652Y222971D01*
X5137303Y225330D01*
X5137128Y227864D01*
Y227951D01*
Y228213D01*
Y228650D01*
X5137215Y229174D01*
X5137303Y229873D01*
X5137390Y230660D01*
X5137477Y231533D01*
X5137652Y232582D01*
X5138176Y234766D01*
X5138963Y237126D01*
X5139400Y238436D01*
X5140011Y239659D01*
X5140623Y240970D01*
X5141409Y242193D01*
X5141497Y242281D01*
X5141584Y242455D01*
X5141846Y242805D01*
X5142196Y243329D01*
X5142720Y243853D01*
X5143244Y244465D01*
X5143856Y245164D01*
X5144642Y245950D01*
X5145516Y246737D01*
X5146390Y247611D01*
X5147438Y248397D01*
X5148574Y249271D01*
X5149797Y250057D01*
X5151195Y250844D01*
X5152593Y251543D01*
X5154079Y252242D01*
X5154166D01*
X5154428Y252416D01*
X5154953Y252591D01*
X5155564Y252766D01*
X5156351Y253028D01*
X5157312Y253377D01*
X5158360Y253640D01*
X5159584Y253989D01*
X5160894Y254339D01*
X5162292Y254601D01*
X5163778Y254950D01*
X5165438Y255212D01*
X5168933Y255562D01*
X5172603Y255737D01*
X5173738D01*
X5174525Y255649D01*
D02*
G37*
G36*
X5631763Y153245D02*
X5618045D01*
X5565183Y232320D01*
Y153245D01*
X5552426D01*
Y253989D01*
X5566057D01*
X5619007Y174826D01*
Y253989D01*
X5631763D01*
Y153245D01*
D02*
G37*
G36*
X5715208Y242980D02*
X5715120Y242892D01*
X5714771Y242543D01*
X5714246Y241931D01*
X5713547Y241145D01*
X5712674Y240096D01*
X5711625Y238873D01*
X5710489Y237388D01*
X5709179Y235727D01*
X5707781Y233893D01*
X5706295Y231883D01*
X5704722Y229611D01*
X5703062Y227165D01*
X5701315Y224631D01*
X5699567Y221835D01*
X5697820Y218864D01*
X5696072Y215806D01*
Y215718D01*
X5695985Y215631D01*
X5695810Y215369D01*
X5695635Y215019D01*
X5695461Y214670D01*
X5695198Y214146D01*
X5694499Y212922D01*
X5693713Y211350D01*
X5692839Y209515D01*
X5691791Y207418D01*
X5690742Y205059D01*
X5689519Y202525D01*
X5688383Y199816D01*
X5687160Y196933D01*
X5685937Y193874D01*
X5684713Y190729D01*
X5683577Y187496D01*
X5682529Y184176D01*
X5681480Y180855D01*
Y180681D01*
X5681306Y180331D01*
X5681131Y179632D01*
X5680869Y178671D01*
X5680607Y177448D01*
X5680257Y176050D01*
X5679908Y174477D01*
X5679471Y172729D01*
X5679121Y170720D01*
X5678684Y168623D01*
X5678247Y166351D01*
X5677898Y163904D01*
X5677548Y161371D01*
X5677286Y158749D01*
X5676762Y153245D01*
X5664005D01*
Y153419D01*
Y153769D01*
X5664093Y154468D01*
Y155342D01*
X5664180Y156477D01*
X5664267Y157875D01*
X5664442Y159448D01*
X5664617Y161283D01*
X5664879Y163293D01*
X5665228Y165477D01*
X5665578Y167836D01*
X5666015Y170370D01*
X5666539Y172992D01*
X5667151Y175875D01*
X5667850Y178846D01*
X5668636Y181904D01*
Y181991D01*
X5668723Y182079D01*
Y182341D01*
X5668811Y182690D01*
X5669073Y183564D01*
X5669510Y184787D01*
X5669947Y186273D01*
X5670471Y188108D01*
X5671170Y190117D01*
X5671956Y192302D01*
X5672743Y194661D01*
X5673704Y197282D01*
X5674752Y199903D01*
X5675976Y202699D01*
X5677199Y205583D01*
X5678510Y208554D01*
X5679995Y211437D01*
X5681480Y214408D01*
Y214495D01*
X5681568Y214583D01*
X5681830Y215107D01*
X5682354Y215893D01*
X5682966Y217029D01*
X5683752Y218340D01*
X5684626Y219912D01*
X5685674Y221660D01*
X5686898Y223582D01*
X5688121Y225592D01*
X5689519Y227689D01*
X5691004Y229873D01*
X5692577Y232145D01*
X5695810Y236601D01*
X5697558Y238698D01*
X5699305Y240795D01*
X5649938D01*
Y252678D01*
X5715208D01*
Y242980D01*
D02*
G37*
G36*
X5529009Y153245D02*
X5515641D01*
Y253989D01*
X5529009D01*
Y153245D01*
D02*
G37*
G36*
X5502622D02*
X5487506D01*
X5475885Y183739D01*
X5433507D01*
X5422585Y153245D01*
X5408518D01*
X5447138Y253989D01*
X5461468D01*
X5502622Y153245D01*
D02*
G37*
G36*
X5366053Y253902D02*
X5367364Y253814D01*
X5368762Y253727D01*
X5370334Y253640D01*
X5373655Y253290D01*
X5377062Y252853D01*
X5378723Y252504D01*
X5380295Y252154D01*
X5381781Y251717D01*
X5383179Y251193D01*
X5383266D01*
X5383528Y251106D01*
X5383878Y250931D01*
X5384315Y250669D01*
X5384926Y250319D01*
X5385625Y249970D01*
X5387198Y249009D01*
X5388946Y247698D01*
X5389907Y246912D01*
X5390868Y246038D01*
X5391742Y245077D01*
X5392703Y243941D01*
X5393576Y242805D01*
X5394363Y241582D01*
X5394450Y241494D01*
X5394538Y241232D01*
X5394712Y240883D01*
X5395062Y240358D01*
X5395324Y239747D01*
X5395673Y238960D01*
X5396110Y238087D01*
X5396460Y237126D01*
X5396897Y236077D01*
X5397246Y234941D01*
X5397945Y232320D01*
X5398382Y229524D01*
X5398470Y228038D01*
X5398557Y226466D01*
Y226378D01*
Y226029D01*
Y225417D01*
X5398470Y224718D01*
X5398382Y223757D01*
X5398207Y222708D01*
X5397945Y221485D01*
X5397683Y220175D01*
X5397334Y218864D01*
X5396897Y217379D01*
X5396285Y215893D01*
X5395586Y214320D01*
X5394800Y212835D01*
X5393839Y211262D01*
X5392790Y209777D01*
X5391567Y208379D01*
X5391479Y208291D01*
X5391217Y208029D01*
X5390868Y207680D01*
X5390256Y207243D01*
X5389557Y206631D01*
X5388596Y205932D01*
X5387548Y205233D01*
X5386324Y204447D01*
X5384926Y203661D01*
X5383353Y202874D01*
X5381519Y202088D01*
X5379596Y201389D01*
X5377499Y200690D01*
X5375228Y200078D01*
X5372781Y199554D01*
X5370160Y199117D01*
X5370247D01*
X5370422Y199030D01*
X5370684Y198855D01*
X5371033Y198680D01*
X5371995Y198156D01*
X5373130Y197544D01*
X5374441Y196758D01*
X5375839Y195884D01*
X5377062Y195010D01*
X5378198Y194049D01*
X5378286Y193962D01*
X5378460Y193787D01*
X5378810Y193525D01*
X5379159Y193088D01*
X5379684Y192564D01*
X5380295Y191952D01*
X5380994Y191253D01*
X5381781Y190379D01*
X5382567Y189418D01*
X5383441Y188457D01*
X5385276Y186185D01*
X5387285Y183564D01*
X5389208Y180681D01*
X5406683Y153245D01*
X5389994D01*
X5376713Y174215D01*
X5376626Y174302D01*
X5376451Y174652D01*
X5376189Y175089D01*
X5375752Y175700D01*
X5375228Y176487D01*
X5374703Y177360D01*
X5374004Y178321D01*
X5373305Y179283D01*
X5371820Y181554D01*
X5370160Y183826D01*
X5368587Y186011D01*
X5367801Y187059D01*
X5367102Y188020D01*
Y188108D01*
X5366927Y188195D01*
X5366752Y188457D01*
X5366490Y188807D01*
X5365791Y189680D01*
X5364830Y190729D01*
X5363781Y191777D01*
X5362645Y192913D01*
X5361422Y193962D01*
X5360286Y194748D01*
X5360199Y194836D01*
X5359762Y195098D01*
X5359150Y195360D01*
X5358451Y195797D01*
X5357490Y196234D01*
X5356529Y196670D01*
X5355393Y197107D01*
X5354257Y197457D01*
X5354170D01*
X5353820Y197544D01*
X5353296Y197632D01*
X5352510Y197719D01*
X5351461Y197806D01*
X5350151Y197894D01*
X5348665Y197981D01*
X5331452D01*
Y153245D01*
X5318084D01*
Y253989D01*
X5364917D01*
X5366053Y253902D01*
D02*
G37*
G36*
X5304278Y242106D02*
X5270901D01*
Y153245D01*
X5257532D01*
Y242106D01*
X5224329D01*
Y253989D01*
X5304278D01*
Y242106D01*
D02*
G37*
G36*
X5051810Y254251D02*
X5052771Y254164D01*
X5053995Y253989D01*
X5055305Y253814D01*
X5056703Y253465D01*
X5058189Y253115D01*
X5059762Y252678D01*
X5061422Y252154D01*
X5062994Y251543D01*
X5064655Y250756D01*
X5066227Y249795D01*
X5067800Y248834D01*
X5069286Y247611D01*
X5069373Y247523D01*
X5069635Y247349D01*
X5069985Y246912D01*
X5070509Y246387D01*
X5071120Y245688D01*
X5071819Y244902D01*
X5072518Y243941D01*
X5073305Y242805D01*
X5074091Y241582D01*
X5074878Y240184D01*
X5075664Y238698D01*
X5076363Y237038D01*
X5077062Y235291D01*
X5077586Y233456D01*
X5078110Y231359D01*
X5078460Y229262D01*
X5066140Y228301D01*
Y228388D01*
X5066053Y228650D01*
X5065965Y229000D01*
X5065878Y229524D01*
X5065703Y230048D01*
X5065441Y230747D01*
X5064917Y232320D01*
X5064218Y234067D01*
X5063431Y235815D01*
X5062470Y237475D01*
X5061946Y238174D01*
X5061422Y238873D01*
X5061334Y238960D01*
X5061160Y239135D01*
X5060897Y239397D01*
X5060548Y239747D01*
X5060024Y240096D01*
X5059412Y240533D01*
X5058713Y241057D01*
X5058014Y241582D01*
X5056179Y242543D01*
X5054082Y243417D01*
X5052859Y243679D01*
X5051636Y243941D01*
X5050325Y244116D01*
X5049014Y244203D01*
X5048403D01*
X5048053Y244116D01*
X5047529D01*
X5046917Y244028D01*
X5045519Y243766D01*
X5043859Y243417D01*
X5042112Y242805D01*
X5040364Y242019D01*
X5038617Y240883D01*
X5038529Y240795D01*
X5038354Y240708D01*
X5038092Y240446D01*
X5037655Y240096D01*
X5037131Y239659D01*
X5036607Y239135D01*
X5035995Y238436D01*
X5035296Y237737D01*
X5034510Y236863D01*
X5033811Y235990D01*
X5033024Y234941D01*
X5032238Y233805D01*
X5031452Y232582D01*
X5030753Y231271D01*
X5030054Y229873D01*
X5029355Y228388D01*
Y228301D01*
X5029180Y228038D01*
X5029093Y227514D01*
X5028830Y226903D01*
X5028568Y226029D01*
X5028306Y224980D01*
X5027957Y223844D01*
X5027695Y222446D01*
X5027345Y220874D01*
X5027083Y219126D01*
X5026821Y217204D01*
X5026559Y215194D01*
X5026297Y212922D01*
X5026122Y210476D01*
X5026034Y207942D01*
X5025947Y205146D01*
X5026034Y205233D01*
X5026122Y205408D01*
X5026384Y205758D01*
X5026733Y206282D01*
X5027170Y206806D01*
X5027695Y207505D01*
X5029005Y208990D01*
X5030578Y210651D01*
X5032413Y212311D01*
X5034510Y213883D01*
X5036869Y215282D01*
X5036956D01*
X5037131Y215456D01*
X5037481Y215631D01*
X5038005Y215806D01*
X5038617Y216068D01*
X5039316Y216330D01*
X5040102Y216592D01*
X5040976Y216942D01*
X5042985Y217553D01*
X5045344Y218078D01*
X5047791Y218427D01*
X5050412Y218602D01*
X5050937D01*
X5051636Y218514D01*
X5052509Y218427D01*
X5053558Y218340D01*
X5054781Y218078D01*
X5056179Y217815D01*
X5057665Y217466D01*
X5059237Y216942D01*
X5060985Y216330D01*
X5062732Y215631D01*
X5064480Y214757D01*
X5066315Y213709D01*
X5068062Y212485D01*
X5069810Y211087D01*
X5071470Y209427D01*
X5071557Y209340D01*
X5071819Y208990D01*
X5072256Y208466D01*
X5072868Y207767D01*
X5073480Y206893D01*
X5074266Y205758D01*
X5075052Y204534D01*
X5075839Y203049D01*
X5076625Y201476D01*
X5077411Y199729D01*
X5078198Y197806D01*
X5078810Y195709D01*
X5079421Y193438D01*
X5079858Y191078D01*
X5080120Y188544D01*
X5080208Y185923D01*
Y185836D01*
Y185486D01*
Y184962D01*
X5080120Y184350D01*
Y183477D01*
X5080033Y182516D01*
X5079858Y181380D01*
X5079683Y180156D01*
X5079509Y178846D01*
X5079246Y177448D01*
X5078460Y174564D01*
X5077499Y171419D01*
X5076800Y169933D01*
X5076101Y168361D01*
X5076013Y168273D01*
X5075926Y168011D01*
X5075664Y167574D01*
X5075314Y167050D01*
X5074965Y166351D01*
X5074441Y165565D01*
X5073130Y163730D01*
X5071557Y161720D01*
X5069635Y159623D01*
X5067363Y157701D01*
X5066140Y156740D01*
X5064829Y155866D01*
X5064742Y155778D01*
X5064480Y155691D01*
X5064130Y155516D01*
X5063606Y155167D01*
X5062907Y154905D01*
X5062121Y154555D01*
X5061160Y154118D01*
X5060111Y153769D01*
X5058975Y153332D01*
X5057752Y152982D01*
X5056354Y152546D01*
X5054956Y152283D01*
X5051898Y151759D01*
X5050238Y151672D01*
X5048577Y151584D01*
X5047878D01*
X5047092Y151672D01*
X5046044Y151759D01*
X5044733Y151934D01*
X5043160Y152196D01*
X5041500Y152546D01*
X5039665Y152982D01*
X5037655Y153594D01*
X5035646Y154380D01*
X5033549Y155254D01*
X5031364Y156390D01*
X5029267Y157701D01*
X5027258Y159186D01*
X5025248Y160934D01*
X5023326Y162943D01*
X5023238Y163118D01*
X5022889Y163468D01*
X5022452Y164167D01*
X5021840Y165128D01*
X5021054Y166351D01*
X5020268Y167924D01*
X5019394Y169759D01*
X5018520Y171856D01*
X5017559Y174302D01*
X5016685Y177098D01*
X5015899Y180156D01*
X5015112Y183477D01*
X5014501Y187234D01*
X5014064Y191253D01*
X5013714Y195622D01*
X5013627Y200340D01*
Y200428D01*
Y200690D01*
Y201039D01*
Y201651D01*
X5013714Y202350D01*
Y203136D01*
Y204097D01*
X5013802Y205146D01*
X5013889Y206282D01*
X5013977Y207505D01*
X5014064Y208816D01*
X5014239Y210301D01*
X5014501Y213359D01*
X5014938Y216592D01*
X5015549Y220000D01*
X5016248Y223495D01*
X5017122Y227077D01*
X5018171Y230572D01*
X5019394Y233980D01*
X5020792Y237213D01*
X5022452Y240184D01*
X5023413Y241494D01*
X5024374Y242805D01*
X5024462Y242980D01*
X5024811Y243329D01*
X5025335Y243853D01*
X5026122Y244640D01*
X5027083Y245514D01*
X5028219Y246475D01*
X5029529Y247523D01*
X5031102Y248572D01*
X5032850Y249620D01*
X5034772Y250669D01*
X5036782Y251630D01*
X5039053Y252504D01*
X5041500Y253290D01*
X5044121Y253814D01*
X5046917Y254251D01*
X5049801Y254339D01*
X5050937D01*
X5051810Y254251D01*
D02*
G37*
G36*
X4539525Y255649D02*
X4540486D01*
X4541622Y255562D01*
X4542932Y255474D01*
X4544331Y255300D01*
X4545816Y255125D01*
X4547389Y254863D01*
X4550709Y254164D01*
X4554117Y253290D01*
X4557437Y252067D01*
X4557524D01*
X4557786Y251892D01*
X4558223Y251717D01*
X4558835Y251368D01*
X4559534Y251018D01*
X4560408Y250581D01*
X4561281Y250057D01*
X4562330Y249358D01*
X4564427Y247873D01*
X4566611Y246038D01*
X4568708Y243941D01*
X4569757Y242718D01*
X4570631Y241407D01*
X4570718Y241320D01*
X4570805Y241057D01*
X4571068Y240708D01*
X4571330Y240184D01*
X4571679Y239485D01*
X4572116Y238698D01*
X4572553Y237825D01*
X4572990Y236776D01*
X4573427Y235727D01*
X4573864Y234504D01*
X4574300Y233194D01*
X4574650Y231796D01*
X4575262Y228825D01*
X4575524Y227252D01*
X4575611Y225592D01*
X4562854Y224631D01*
Y224718D01*
X4562767Y225068D01*
X4562679Y225505D01*
X4562592Y226204D01*
X4562417Y226990D01*
X4562243Y227864D01*
X4561893Y228912D01*
X4561544Y230048D01*
X4560670Y232320D01*
X4560058Y233543D01*
X4559447Y234766D01*
X4558660Y235902D01*
X4557786Y237038D01*
X4556825Y238087D01*
X4555777Y239048D01*
X4555689Y239135D01*
X4555515Y239223D01*
X4555165Y239485D01*
X4554641Y239834D01*
X4554029Y240184D01*
X4553330Y240621D01*
X4552369Y241057D01*
X4551321Y241494D01*
X4550185Y241931D01*
X4548874Y242368D01*
X4547476Y242805D01*
X4545903Y243154D01*
X4544156Y243504D01*
X4542321Y243766D01*
X4540311Y243853D01*
X4538214Y243941D01*
X4537078D01*
X4536205Y243853D01*
X4535243Y243766D01*
X4534108Y243679D01*
X4532797Y243591D01*
X4531486Y243417D01*
X4528515Y242892D01*
X4525632Y242106D01*
X4524234Y241582D01*
X4522836Y240970D01*
X4521613Y240271D01*
X4520477Y239485D01*
X4520389Y239397D01*
X4520215Y239310D01*
X4519953Y239048D01*
X4519603Y238698D01*
X4519166Y238261D01*
X4518729Y237737D01*
X4517768Y236514D01*
X4516720Y234941D01*
X4515846Y233106D01*
X4515496Y232058D01*
X4515234Y231009D01*
X4515060Y229873D01*
X4514972Y228737D01*
Y228650D01*
Y228475D01*
Y228213D01*
X4515060Y227864D01*
X4515147Y226815D01*
X4515496Y225592D01*
X4515933Y224194D01*
X4516632Y222708D01*
X4517593Y221223D01*
X4518205Y220524D01*
X4518904Y219825D01*
X4518991D01*
X4519079Y219650D01*
X4519341Y219476D01*
X4519778Y219213D01*
X4520302Y218864D01*
X4521001Y218514D01*
X4521875Y218078D01*
X4522836Y217641D01*
X4524059Y217116D01*
X4525545Y216505D01*
X4527117Y215981D01*
X4529040Y215369D01*
X4531137Y214670D01*
X4533496Y214058D01*
X4536117Y213359D01*
X4539001Y212660D01*
X4539175D01*
X4539700Y212485D01*
X4540573Y212311D01*
X4541622Y212049D01*
X4543020Y211699D01*
X4544505Y211350D01*
X4546165Y210913D01*
X4547913Y210476D01*
X4551670Y209515D01*
X4555340Y208466D01*
X4557087Y207855D01*
X4558748Y207330D01*
X4560233Y206806D01*
X4561456Y206282D01*
X4561544Y206194D01*
X4561806Y206107D01*
X4562330Y205845D01*
X4562854Y205583D01*
X4563641Y205146D01*
X4564427Y204622D01*
X4565388Y204097D01*
X4566349Y203486D01*
X4568446Y202000D01*
X4570631Y200165D01*
X4572640Y198156D01*
X4573514Y197107D01*
X4574388Y195971D01*
X4574475Y195884D01*
X4574563Y195709D01*
X4574825Y195360D01*
X4575087Y194836D01*
X4575349Y194311D01*
X4575786Y193612D01*
X4576135Y192739D01*
X4576572Y191865D01*
X4576922Y190816D01*
X4577359Y189768D01*
X4577970Y187321D01*
X4578495Y184613D01*
X4578582Y183127D01*
X4578669Y181642D01*
Y181554D01*
Y181292D01*
Y180855D01*
X4578582Y180244D01*
X4578495Y179545D01*
X4578407Y178758D01*
X4578320Y177797D01*
X4578058Y176749D01*
X4577533Y174390D01*
X4576747Y171856D01*
X4576223Y170545D01*
X4575611Y169234D01*
X4574825Y167836D01*
X4574038Y166526D01*
X4573951Y166438D01*
X4573864Y166176D01*
X4573514Y165827D01*
X4573165Y165390D01*
X4572728Y164778D01*
X4572116Y164079D01*
X4571417Y163293D01*
X4570631Y162506D01*
X4569757Y161633D01*
X4568796Y160759D01*
X4567660Y159798D01*
X4566524Y158924D01*
X4565213Y157963D01*
X4563815Y157089D01*
X4562330Y156303D01*
X4560757Y155516D01*
X4560670D01*
X4560408Y155342D01*
X4559883Y155167D01*
X4559272Y154905D01*
X4558398Y154643D01*
X4557437Y154293D01*
X4556301Y153944D01*
X4555078Y153594D01*
X4553680Y153157D01*
X4552194Y152808D01*
X4550622Y152458D01*
X4548961Y152196D01*
X4547127Y151934D01*
X4545292Y151759D01*
X4543369Y151672D01*
X4541360Y151584D01*
X4540049D01*
X4539088Y151672D01*
X4537865D01*
X4536554Y151759D01*
X4534981Y151934D01*
X4533321Y152109D01*
X4531574Y152283D01*
X4529739Y152546D01*
X4525894Y153245D01*
X4522050Y154206D01*
X4520127Y154817D01*
X4518380Y155516D01*
X4518292Y155604D01*
X4517943Y155691D01*
X4517506Y155953D01*
X4516894Y156303D01*
X4516108Y156652D01*
X4515147Y157176D01*
X4514186Y157788D01*
X4513137Y158487D01*
X4511914Y159361D01*
X4510778Y160235D01*
X4509555Y161196D01*
X4508332Y162244D01*
X4507196Y163468D01*
X4505972Y164691D01*
X4504924Y166001D01*
X4503875Y167487D01*
X4503788Y167574D01*
X4503613Y167836D01*
X4503351Y168273D01*
X4503089Y168885D01*
X4502652Y169671D01*
X4502215Y170545D01*
X4501691Y171594D01*
X4501254Y172817D01*
X4500730Y174040D01*
X4500206Y175438D01*
X4499769Y176923D01*
X4499332Y178584D01*
X4498720Y181991D01*
X4498458Y183826D01*
X4498371Y185661D01*
X4510953Y186797D01*
Y186710D01*
X4511040Y186447D01*
Y186098D01*
X4511128Y185574D01*
X4511215Y184875D01*
X4511390Y184176D01*
X4511565Y183302D01*
X4511827Y182428D01*
X4512351Y180418D01*
X4513050Y178321D01*
X4513924Y176224D01*
X4515060Y174302D01*
Y174215D01*
X4515234Y174127D01*
X4515409Y173865D01*
X4515671Y173516D01*
X4516458Y172642D01*
X4517593Y171506D01*
X4518991Y170195D01*
X4520739Y168885D01*
X4522836Y167662D01*
X4525195Y166438D01*
X4525283D01*
X4525545Y166351D01*
X4525894Y166176D01*
X4526418Y166001D01*
X4527030Y165739D01*
X4527816Y165477D01*
X4528690Y165215D01*
X4529739Y164953D01*
X4530875Y164691D01*
X4532010Y164429D01*
X4534632Y163904D01*
X4537603Y163555D01*
X4540748Y163468D01*
X4542059D01*
X4542670Y163555D01*
X4543457D01*
X4544331Y163642D01*
X4545292Y163730D01*
X4547389Y163992D01*
X4549660Y164429D01*
X4551932Y164953D01*
X4554204Y165739D01*
X4554291D01*
X4554466Y165827D01*
X4554728Y166001D01*
X4555165Y166176D01*
X4556214Y166700D01*
X4557524Y167399D01*
X4558922Y168273D01*
X4560320Y169322D01*
X4561718Y170545D01*
X4562942Y171943D01*
Y172030D01*
X4563029Y172118D01*
X4563378Y172642D01*
X4563815Y173428D01*
X4564427Y174477D01*
X4564951Y175788D01*
X4565388Y177273D01*
X4565738Y178846D01*
X4565825Y180593D01*
Y180681D01*
Y180768D01*
Y181030D01*
Y181380D01*
X4565650Y182253D01*
X4565476Y183389D01*
X4565126Y184700D01*
X4564689Y186011D01*
X4563990Y187496D01*
X4563029Y188807D01*
X4562942Y188981D01*
X4562505Y189418D01*
X4561806Y190030D01*
X4560845Y190904D01*
X4559621Y191865D01*
X4558049Y192826D01*
X4556126Y193787D01*
X4553942Y194748D01*
X4553854D01*
X4553767Y194836D01*
X4553505Y194923D01*
X4553068Y195010D01*
X4552544Y195185D01*
X4551932Y195447D01*
X4551146Y195709D01*
X4550185Y195971D01*
X4549049Y196234D01*
X4547738Y196670D01*
X4546253Y197020D01*
X4544593Y197457D01*
X4542758Y197981D01*
X4540661Y198505D01*
X4538389Y199030D01*
X4535855Y199641D01*
X4535680D01*
X4535243Y199816D01*
X4534544Y199991D01*
X4533583Y200253D01*
X4532447Y200515D01*
X4531137Y200864D01*
X4529739Y201301D01*
X4528253Y201738D01*
X4525020Y202699D01*
X4521788Y203748D01*
X4520215Y204272D01*
X4518817Y204796D01*
X4517506Y205408D01*
X4516370Y205932D01*
X4516283Y206020D01*
X4516021Y206107D01*
X4515671Y206369D01*
X4515234Y206631D01*
X4514623Y206981D01*
X4513924Y207418D01*
X4512351Y208554D01*
X4510603Y209952D01*
X4508856Y211524D01*
X4507108Y213359D01*
X4505623Y215369D01*
Y215456D01*
X4505448Y215631D01*
X4505273Y215893D01*
X4505099Y216330D01*
X4504837Y216854D01*
X4504487Y217466D01*
X4504225Y218252D01*
X4503875Y219039D01*
X4503264Y220874D01*
X4502652Y222971D01*
X4502303Y225330D01*
X4502128Y227864D01*
Y227951D01*
Y228213D01*
Y228650D01*
X4502215Y229174D01*
X4502303Y229873D01*
X4502390Y230660D01*
X4502477Y231533D01*
X4502652Y232582D01*
X4503176Y234766D01*
X4503963Y237126D01*
X4504400Y238436D01*
X4505011Y239659D01*
X4505623Y240970D01*
X4506409Y242193D01*
X4506497Y242281D01*
X4506584Y242455D01*
X4506846Y242805D01*
X4507196Y243329D01*
X4507720Y243853D01*
X4508244Y244465D01*
X4508856Y245164D01*
X4509642Y245950D01*
X4510516Y246737D01*
X4511390Y247611D01*
X4512438Y248397D01*
X4513574Y249271D01*
X4514797Y250057D01*
X4516195Y250844D01*
X4517593Y251543D01*
X4519079Y252242D01*
X4519166D01*
X4519428Y252416D01*
X4519953Y252591D01*
X4520564Y252766D01*
X4521351Y253028D01*
X4522312Y253377D01*
X4523360Y253640D01*
X4524584Y253989D01*
X4525894Y254339D01*
X4527292Y254601D01*
X4528778Y254950D01*
X4530438Y255212D01*
X4533933Y255562D01*
X4537603Y255737D01*
X4538738D01*
X4539525Y255649D01*
D02*
G37*
G36*
X4996763Y153245D02*
X4983045D01*
X4930183Y232320D01*
Y153245D01*
X4917426D01*
Y253989D01*
X4931057D01*
X4984007Y174826D01*
Y253989D01*
X4996763D01*
Y153245D01*
D02*
G37*
G36*
X4894009D02*
X4880641D01*
Y253989D01*
X4894009D01*
Y153245D01*
D02*
G37*
G36*
X4867622D02*
X4852506D01*
X4840885Y183739D01*
X4798507D01*
X4787585Y153245D01*
X4773518D01*
X4812138Y253989D01*
X4826468D01*
X4867622Y153245D01*
D02*
G37*
G36*
X4731053Y253902D02*
X4732364Y253814D01*
X4733762Y253727D01*
X4735334Y253640D01*
X4738655Y253290D01*
X4742062Y252853D01*
X4743723Y252504D01*
X4745295Y252154D01*
X4746781Y251717D01*
X4748179Y251193D01*
X4748266D01*
X4748528Y251106D01*
X4748878Y250931D01*
X4749315Y250669D01*
X4749926Y250319D01*
X4750625Y249970D01*
X4752198Y249009D01*
X4753946Y247698D01*
X4754907Y246912D01*
X4755868Y246038D01*
X4756742Y245077D01*
X4757703Y243941D01*
X4758576Y242805D01*
X4759363Y241582D01*
X4759450Y241494D01*
X4759538Y241232D01*
X4759712Y240883D01*
X4760062Y240358D01*
X4760324Y239747D01*
X4760673Y238960D01*
X4761110Y238087D01*
X4761460Y237126D01*
X4761897Y236077D01*
X4762246Y234941D01*
X4762945Y232320D01*
X4763382Y229524D01*
X4763470Y228038D01*
X4763557Y226466D01*
Y226378D01*
Y226029D01*
Y225417D01*
X4763470Y224718D01*
X4763382Y223757D01*
X4763207Y222708D01*
X4762945Y221485D01*
X4762683Y220175D01*
X4762334Y218864D01*
X4761897Y217379D01*
X4761285Y215893D01*
X4760586Y214320D01*
X4759800Y212835D01*
X4758839Y211262D01*
X4757790Y209777D01*
X4756567Y208379D01*
X4756479Y208291D01*
X4756217Y208029D01*
X4755868Y207680D01*
X4755256Y207243D01*
X4754557Y206631D01*
X4753596Y205932D01*
X4752548Y205233D01*
X4751324Y204447D01*
X4749926Y203661D01*
X4748353Y202874D01*
X4746519Y202088D01*
X4744596Y201389D01*
X4742499Y200690D01*
X4740228Y200078D01*
X4737781Y199554D01*
X4735160Y199117D01*
X4735247D01*
X4735422Y199030D01*
X4735684Y198855D01*
X4736033Y198680D01*
X4736995Y198156D01*
X4738130Y197544D01*
X4739441Y196758D01*
X4740839Y195884D01*
X4742062Y195010D01*
X4743198Y194049D01*
X4743286Y193962D01*
X4743460Y193787D01*
X4743810Y193525D01*
X4744159Y193088D01*
X4744684Y192564D01*
X4745295Y191952D01*
X4745994Y191253D01*
X4746781Y190379D01*
X4747567Y189418D01*
X4748441Y188457D01*
X4750276Y186185D01*
X4752285Y183564D01*
X4754208Y180681D01*
X4771683Y153245D01*
X4754994D01*
X4741713Y174215D01*
X4741626Y174302D01*
X4741451Y174652D01*
X4741189Y175089D01*
X4740752Y175700D01*
X4740228Y176487D01*
X4739703Y177360D01*
X4739004Y178321D01*
X4738305Y179283D01*
X4736820Y181554D01*
X4735160Y183826D01*
X4733587Y186011D01*
X4732801Y187059D01*
X4732102Y188020D01*
Y188108D01*
X4731927Y188195D01*
X4731752Y188457D01*
X4731490Y188807D01*
X4730791Y189680D01*
X4729830Y190729D01*
X4728781Y191777D01*
X4727645Y192913D01*
X4726422Y193962D01*
X4725286Y194748D01*
X4725199Y194836D01*
X4724762Y195098D01*
X4724150Y195360D01*
X4723451Y195797D01*
X4722490Y196234D01*
X4721529Y196670D01*
X4720393Y197107D01*
X4719257Y197457D01*
X4719170D01*
X4718820Y197544D01*
X4718296Y197632D01*
X4717510Y197719D01*
X4716461Y197806D01*
X4715151Y197894D01*
X4713665Y197981D01*
X4696452D01*
Y153245D01*
X4683084D01*
Y253989D01*
X4729917D01*
X4731053Y253902D01*
D02*
G37*
G36*
X4669278Y242106D02*
X4635901D01*
Y153245D01*
X4622532D01*
Y242106D01*
X4589329D01*
Y253989D01*
X4669278D01*
Y242106D01*
D02*
G37*
G36*
X1311154Y3760005D02*
X1312115D01*
X1313251Y3759917D01*
X1314562Y3759830D01*
X1315960Y3759655D01*
X1317445Y3759480D01*
X1319018Y3759218D01*
X1322338Y3758519D01*
X1325746Y3757646D01*
X1329066Y3756422D01*
X1329154D01*
X1329416Y3756248D01*
X1329853Y3756073D01*
X1330464Y3755723D01*
X1331163Y3755374D01*
X1332037Y3754937D01*
X1332911Y3754413D01*
X1333959Y3753714D01*
X1336056Y3752228D01*
X1338241Y3750393D01*
X1340338Y3748296D01*
X1341386Y3747073D01*
X1342260Y3745762D01*
X1342347Y3745675D01*
X1342435Y3745413D01*
X1342697Y3745063D01*
X1342959Y3744539D01*
X1343308Y3743840D01*
X1343745Y3743054D01*
X1344182Y3742180D01*
X1344619Y3741131D01*
X1345056Y3740083D01*
X1345493Y3738860D01*
X1345930Y3737549D01*
X1346279Y3736151D01*
X1346891Y3733180D01*
X1347153Y3731607D01*
X1347240Y3729947D01*
X1334483Y3728986D01*
Y3729074D01*
X1334396Y3729423D01*
X1334309Y3729860D01*
X1334221Y3730559D01*
X1334047Y3731345D01*
X1333872Y3732219D01*
X1333522Y3733268D01*
X1333173Y3734404D01*
X1332299Y3736675D01*
X1331687Y3737899D01*
X1331076Y3739122D01*
X1330289Y3740258D01*
X1329416Y3741394D01*
X1328455Y3742442D01*
X1327406Y3743403D01*
X1327319Y3743491D01*
X1327144Y3743578D01*
X1326794Y3743840D01*
X1326270Y3744190D01*
X1325659Y3744539D01*
X1324960Y3744976D01*
X1323998Y3745413D01*
X1322950Y3745850D01*
X1321814Y3746287D01*
X1320503Y3746724D01*
X1319105Y3747160D01*
X1317533Y3747510D01*
X1315785Y3747859D01*
X1313950Y3748122D01*
X1311940Y3748209D01*
X1309843Y3748296D01*
X1308708D01*
X1307834Y3748209D01*
X1306873Y3748122D01*
X1305737Y3748034D01*
X1304426Y3747947D01*
X1303116Y3747772D01*
X1300145Y3747248D01*
X1297261Y3746461D01*
X1295863Y3745937D01*
X1294465Y3745326D01*
X1293242Y3744626D01*
X1292106Y3743840D01*
X1292019Y3743753D01*
X1291844Y3743665D01*
X1291582Y3743403D01*
X1291232Y3743054D01*
X1290795Y3742617D01*
X1290359Y3742093D01*
X1289397Y3740869D01*
X1288349Y3739297D01*
X1287475Y3737462D01*
X1287126Y3736413D01*
X1286864Y3735365D01*
X1286689Y3734229D01*
X1286601Y3733093D01*
Y3733005D01*
Y3732831D01*
Y3732569D01*
X1286689Y3732219D01*
X1286776Y3731171D01*
X1287126Y3729947D01*
X1287563Y3728549D01*
X1288262Y3727064D01*
X1289223Y3725579D01*
X1289834Y3724880D01*
X1290533Y3724181D01*
X1290621D01*
X1290708Y3724006D01*
X1290970Y3723831D01*
X1291407Y3723569D01*
X1291931Y3723219D01*
X1292630Y3722870D01*
X1293504Y3722433D01*
X1294465Y3721996D01*
X1295689Y3721472D01*
X1297174Y3720860D01*
X1298747Y3720336D01*
X1300669Y3719724D01*
X1302766Y3719025D01*
X1305125Y3718414D01*
X1307746Y3717715D01*
X1310630Y3717016D01*
X1310805D01*
X1311329Y3716841D01*
X1312203Y3716666D01*
X1313251Y3716404D01*
X1314649Y3716055D01*
X1316135Y3715705D01*
X1317795Y3715268D01*
X1319542Y3714831D01*
X1323299Y3713870D01*
X1326969Y3712822D01*
X1328717Y3712210D01*
X1330377Y3711686D01*
X1331862Y3711161D01*
X1333085Y3710637D01*
X1333173Y3710550D01*
X1333435Y3710462D01*
X1333959Y3710200D01*
X1334483Y3709938D01*
X1335270Y3709501D01*
X1336056Y3708977D01*
X1337017Y3708453D01*
X1337979Y3707841D01*
X1340076Y3706356D01*
X1342260Y3704521D01*
X1344270Y3702511D01*
X1345143Y3701463D01*
X1346017Y3700327D01*
X1346104Y3700239D01*
X1346192Y3700065D01*
X1346454Y3699715D01*
X1346716Y3699191D01*
X1346978Y3698667D01*
X1347415Y3697968D01*
X1347765Y3697094D01*
X1348202Y3696220D01*
X1348551Y3695172D01*
X1348988Y3694123D01*
X1349600Y3691677D01*
X1350124Y3688968D01*
X1350211Y3687483D01*
X1350299Y3685997D01*
Y3685910D01*
Y3685648D01*
Y3685211D01*
X1350211Y3684599D01*
X1350124Y3683900D01*
X1350036Y3683114D01*
X1349949Y3682153D01*
X1349687Y3681104D01*
X1349163Y3678745D01*
X1348376Y3676211D01*
X1347852Y3674900D01*
X1347240Y3673590D01*
X1346454Y3672192D01*
X1345668Y3670881D01*
X1345580Y3670794D01*
X1345493Y3670532D01*
X1345143Y3670182D01*
X1344794Y3669745D01*
X1344357Y3669134D01*
X1343745Y3668435D01*
X1343046Y3667648D01*
X1342260Y3666862D01*
X1341386Y3665988D01*
X1340425Y3665114D01*
X1339289Y3664153D01*
X1338153Y3663279D01*
X1336843Y3662318D01*
X1335445Y3661445D01*
X1333959Y3660658D01*
X1332386Y3659872D01*
X1332299D01*
X1332037Y3659697D01*
X1331513Y3659522D01*
X1330901Y3659260D01*
X1330027Y3658998D01*
X1329066Y3658649D01*
X1327930Y3658299D01*
X1326707Y3657950D01*
X1325309Y3657513D01*
X1323824Y3657163D01*
X1322251Y3656814D01*
X1320591Y3656551D01*
X1318756Y3656289D01*
X1316921Y3656115D01*
X1314999Y3656027D01*
X1312989Y3655940D01*
X1311678D01*
X1310717Y3656027D01*
X1309494D01*
X1308183Y3656115D01*
X1306611Y3656289D01*
X1304950Y3656464D01*
X1303203Y3656639D01*
X1301368Y3656901D01*
X1297523Y3657600D01*
X1293679Y3658561D01*
X1291757Y3659173D01*
X1290009Y3659872D01*
X1289922Y3659959D01*
X1289572Y3660047D01*
X1289135Y3660309D01*
X1288524Y3660658D01*
X1287737Y3661008D01*
X1286776Y3661532D01*
X1285815Y3662144D01*
X1284767Y3662843D01*
X1283543Y3663716D01*
X1282407Y3664590D01*
X1281184Y3665551D01*
X1279961Y3666600D01*
X1278825Y3667823D01*
X1277602Y3669046D01*
X1276553Y3670357D01*
X1275505Y3671842D01*
X1275417Y3671930D01*
X1275243Y3672192D01*
X1274980Y3672629D01*
X1274718Y3673240D01*
X1274281Y3674027D01*
X1273845Y3674900D01*
X1273320Y3675949D01*
X1272883Y3677172D01*
X1272359Y3678395D01*
X1271835Y3679794D01*
X1271398Y3681279D01*
X1270961Y3682939D01*
X1270350Y3686347D01*
X1270087Y3688182D01*
X1270000Y3690016D01*
X1282582Y3691152D01*
Y3691065D01*
X1282670Y3690803D01*
Y3690453D01*
X1282757Y3689929D01*
X1282844Y3689230D01*
X1283019Y3688531D01*
X1283194Y3687657D01*
X1283456Y3686784D01*
X1283980Y3684774D01*
X1284679Y3682677D01*
X1285553Y3680580D01*
X1286689Y3678658D01*
Y3678570D01*
X1286864Y3678483D01*
X1287038Y3678221D01*
X1287300Y3677871D01*
X1288087Y3676997D01*
X1289223Y3675862D01*
X1290621Y3674551D01*
X1292368Y3673240D01*
X1294465Y3672017D01*
X1296824Y3670794D01*
X1296912D01*
X1297174Y3670706D01*
X1297523Y3670532D01*
X1298048Y3670357D01*
X1298659Y3670095D01*
X1299446Y3669833D01*
X1300319Y3669571D01*
X1301368Y3669308D01*
X1302504Y3669046D01*
X1303640Y3668784D01*
X1306261Y3668260D01*
X1309232Y3667910D01*
X1312377Y3667823D01*
X1313688D01*
X1314300Y3667910D01*
X1315086D01*
X1315960Y3667998D01*
X1316921Y3668085D01*
X1319018Y3668347D01*
X1321290Y3668784D01*
X1323561Y3669308D01*
X1325833Y3670095D01*
X1325921D01*
X1326095Y3670182D01*
X1326358Y3670357D01*
X1326794Y3670532D01*
X1327843Y3671056D01*
X1329154Y3671755D01*
X1330552Y3672629D01*
X1331950Y3673677D01*
X1333348Y3674900D01*
X1334571Y3676298D01*
Y3676386D01*
X1334658Y3676473D01*
X1335008Y3676997D01*
X1335445Y3677784D01*
X1336056Y3678832D01*
X1336581Y3680143D01*
X1337017Y3681628D01*
X1337367Y3683201D01*
X1337454Y3684949D01*
Y3685036D01*
Y3685123D01*
Y3685386D01*
Y3685735D01*
X1337280Y3686609D01*
X1337105Y3687745D01*
X1336755Y3689055D01*
X1336318Y3690366D01*
X1335619Y3691851D01*
X1334658Y3693162D01*
X1334571Y3693337D01*
X1334134Y3693774D01*
X1333435Y3694385D01*
X1332474Y3695259D01*
X1331251Y3696220D01*
X1329678Y3697181D01*
X1327756Y3698142D01*
X1325571Y3699104D01*
X1325484D01*
X1325396Y3699191D01*
X1325134Y3699278D01*
X1324697Y3699366D01*
X1324173Y3699540D01*
X1323561Y3699803D01*
X1322775Y3700065D01*
X1321814Y3700327D01*
X1320678Y3700589D01*
X1319367Y3701026D01*
X1317882Y3701375D01*
X1316222Y3701812D01*
X1314387Y3702337D01*
X1312290Y3702861D01*
X1310018Y3703385D01*
X1307484Y3703997D01*
X1307310D01*
X1306873Y3704171D01*
X1306174Y3704346D01*
X1305213Y3704608D01*
X1304077Y3704870D01*
X1302766Y3705220D01*
X1301368Y3705657D01*
X1299883Y3706094D01*
X1296650Y3707055D01*
X1293417Y3708103D01*
X1291844Y3708628D01*
X1290446Y3709152D01*
X1289135Y3709763D01*
X1287999Y3710288D01*
X1287912Y3710375D01*
X1287650Y3710462D01*
X1287300Y3710725D01*
X1286864Y3710987D01*
X1286252Y3711336D01*
X1285553Y3711773D01*
X1283980Y3712909D01*
X1282233Y3714307D01*
X1280485Y3715880D01*
X1278738Y3717715D01*
X1277252Y3719724D01*
Y3719812D01*
X1277077Y3719986D01*
X1276903Y3720249D01*
X1276728Y3720685D01*
X1276466Y3721210D01*
X1276116Y3721821D01*
X1275854Y3722608D01*
X1275505Y3723394D01*
X1274893Y3725229D01*
X1274281Y3727326D01*
X1273932Y3729685D01*
X1273757Y3732219D01*
Y3732306D01*
Y3732569D01*
Y3733005D01*
X1273845Y3733530D01*
X1273932Y3734229D01*
X1274019Y3735015D01*
X1274107Y3735889D01*
X1274281Y3736937D01*
X1274806Y3739122D01*
X1275592Y3741481D01*
X1276029Y3742792D01*
X1276641Y3744015D01*
X1277252Y3745326D01*
X1278039Y3746549D01*
X1278126Y3746636D01*
X1278213Y3746811D01*
X1278475Y3747160D01*
X1278825Y3747685D01*
X1279349Y3748209D01*
X1279873Y3748821D01*
X1280485Y3749520D01*
X1281272Y3750306D01*
X1282145Y3751092D01*
X1283019Y3751966D01*
X1284068Y3752752D01*
X1285203Y3753626D01*
X1286427Y3754413D01*
X1287825Y3755199D01*
X1289223Y3755898D01*
X1290708Y3756597D01*
X1290795D01*
X1291058Y3756772D01*
X1291582Y3756947D01*
X1292194Y3757121D01*
X1292980Y3757383D01*
X1293941Y3757733D01*
X1294990Y3757995D01*
X1296213Y3758345D01*
X1297523Y3758694D01*
X1298921Y3758956D01*
X1300407Y3759306D01*
X1302067Y3759568D01*
X1305562Y3759917D01*
X1309232Y3760092D01*
X1310368D01*
X1311154Y3760005D01*
D02*
G37*
G36*
X1768393Y3657600D02*
X1754675D01*
X1701812Y3736675D01*
Y3657600D01*
X1689055D01*
Y3758345D01*
X1702686D01*
X1755636Y3679182D01*
Y3758345D01*
X1768393D01*
Y3657600D01*
D02*
G37*
G36*
X1847817Y3745238D02*
X1807537D01*
X1802120Y3718064D01*
X1802207Y3718152D01*
X1802557Y3718326D01*
X1802994Y3718676D01*
X1803693Y3719025D01*
X1804566Y3719550D01*
X1805528Y3720074D01*
X1806663Y3720685D01*
X1807887Y3721297D01*
X1809285Y3721821D01*
X1810770Y3722433D01*
X1812343Y3722957D01*
X1814003Y3723482D01*
X1815750Y3723831D01*
X1817498Y3724181D01*
X1819333Y3724355D01*
X1821168Y3724443D01*
X1821779D01*
X1822478Y3724355D01*
X1823352Y3724268D01*
X1824488Y3724181D01*
X1825799Y3723918D01*
X1827284Y3723656D01*
X1828944Y3723307D01*
X1830604Y3722782D01*
X1832439Y3722171D01*
X1834274Y3721472D01*
X1836109Y3720598D01*
X1838031Y3719550D01*
X1839866Y3718326D01*
X1841701Y3716928D01*
X1843449Y3715268D01*
X1843536Y3715181D01*
X1843886Y3714831D01*
X1844322Y3714307D01*
X1844847Y3713608D01*
X1845546Y3712734D01*
X1846332Y3711598D01*
X1847118Y3710375D01*
X1847992Y3708890D01*
X1848866Y3707317D01*
X1849652Y3705482D01*
X1850439Y3703560D01*
X1851138Y3701463D01*
X1851662Y3699278D01*
X1852186Y3696919D01*
X1852448Y3694385D01*
X1852536Y3691764D01*
Y3691589D01*
Y3691152D01*
X1852448Y3690453D01*
Y3689492D01*
X1852274Y3688269D01*
X1852099Y3686958D01*
X1851837Y3685386D01*
X1851575Y3683725D01*
X1851138Y3681891D01*
X1850614Y3679968D01*
X1849915Y3678046D01*
X1849128Y3676036D01*
X1848254Y3674027D01*
X1847118Y3672017D01*
X1845895Y3670007D01*
X1844497Y3668085D01*
X1844410Y3667910D01*
X1844060Y3667561D01*
X1843536Y3666949D01*
X1842750Y3666163D01*
X1841789Y3665289D01*
X1840565Y3664241D01*
X1839167Y3663105D01*
X1837594Y3662056D01*
X1835847Y3660920D01*
X1833837Y3659784D01*
X1831653Y3658736D01*
X1829294Y3657862D01*
X1826760Y3657076D01*
X1824051Y3656464D01*
X1821168Y3656115D01*
X1818110Y3655940D01*
X1817498D01*
X1816799Y3656027D01*
X1815838D01*
X1814702Y3656202D01*
X1813304Y3656377D01*
X1811819Y3656551D01*
X1810158Y3656901D01*
X1808411Y3657338D01*
X1806576Y3657862D01*
X1804741Y3658474D01*
X1802819Y3659173D01*
X1800984Y3660047D01*
X1799149Y3661095D01*
X1797314Y3662318D01*
X1795654Y3663629D01*
X1795567Y3663716D01*
X1795305Y3663978D01*
X1794868Y3664415D01*
X1794256Y3665027D01*
X1793644Y3665813D01*
X1792858Y3666774D01*
X1792072Y3667823D01*
X1791198Y3669046D01*
X1790324Y3670444D01*
X1789450Y3672017D01*
X1788577Y3673677D01*
X1787878Y3675512D01*
X1787179Y3677434D01*
X1786567Y3679531D01*
X1786130Y3681716D01*
X1785781Y3684075D01*
X1798800Y3685211D01*
Y3685123D01*
X1798887Y3684774D01*
X1798974Y3684337D01*
X1799062Y3683638D01*
X1799324Y3682852D01*
X1799499Y3681891D01*
X1799848Y3680929D01*
X1800198Y3679794D01*
X1801071Y3677434D01*
X1802207Y3675075D01*
X1803693Y3672803D01*
X1804479Y3671755D01*
X1805440Y3670794D01*
X1805528Y3670706D01*
X1805702Y3670619D01*
X1805964Y3670357D01*
X1806401Y3670095D01*
X1806926Y3669745D01*
X1807450Y3669308D01*
X1808236Y3668872D01*
X1809023Y3668435D01*
X1810857Y3667561D01*
X1813042Y3666774D01*
X1815401Y3666250D01*
X1816712Y3666163D01*
X1818110Y3666075D01*
X1818547D01*
X1818983Y3666163D01*
X1819595D01*
X1820381Y3666250D01*
X1821255Y3666425D01*
X1822304Y3666600D01*
X1823352Y3666949D01*
X1824575Y3667299D01*
X1825799Y3667736D01*
X1827022Y3668260D01*
X1828245Y3668959D01*
X1829556Y3669658D01*
X1830867Y3670619D01*
X1832090Y3671580D01*
X1833226Y3672803D01*
X1833313Y3672891D01*
X1833488Y3673153D01*
X1833837Y3673502D01*
X1834187Y3674027D01*
X1834624Y3674726D01*
X1835148Y3675512D01*
X1835760Y3676473D01*
X1836371Y3677522D01*
X1836895Y3678745D01*
X1837507Y3680143D01*
X1838031Y3681541D01*
X1838468Y3683201D01*
X1838818Y3684861D01*
X1839167Y3686696D01*
X1839342Y3688618D01*
X1839429Y3690628D01*
Y3690716D01*
Y3691065D01*
Y3691677D01*
X1839342Y3692376D01*
X1839255Y3693249D01*
X1839080Y3694298D01*
X1838905Y3695434D01*
X1838730Y3696657D01*
X1837944Y3699366D01*
X1837507Y3700764D01*
X1836895Y3702162D01*
X1836284Y3703472D01*
X1835410Y3704870D01*
X1834536Y3706094D01*
X1833488Y3707317D01*
X1833400Y3707404D01*
X1833226Y3707579D01*
X1832876Y3707929D01*
X1832439Y3708278D01*
X1831828Y3708715D01*
X1831129Y3709239D01*
X1830255Y3709851D01*
X1829294Y3710462D01*
X1828245Y3710987D01*
X1827022Y3711598D01*
X1825799Y3712123D01*
X1824401Y3712560D01*
X1822915Y3712909D01*
X1821343Y3713259D01*
X1819595Y3713433D01*
X1817848Y3713521D01*
X1816886D01*
X1816362Y3713433D01*
X1815750Y3713346D01*
X1814265Y3713171D01*
X1812605Y3712822D01*
X1810770Y3712385D01*
X1808935Y3711686D01*
X1807100Y3710812D01*
X1807013D01*
X1806926Y3710725D01*
X1806663Y3710550D01*
X1806314Y3710288D01*
X1805440Y3709763D01*
X1804392Y3708890D01*
X1803168Y3707929D01*
X1801945Y3706705D01*
X1800722Y3705395D01*
X1799586Y3703822D01*
X1787965Y3705307D01*
X1797751Y3757034D01*
X1847817D01*
Y3745238D01*
D02*
G37*
G36*
X1665639Y3657600D02*
X1652270D01*
Y3758345D01*
X1665639D01*
Y3657600D01*
D02*
G37*
G36*
X1639251D02*
X1624135D01*
X1612514Y3688094D01*
X1570137D01*
X1559215Y3657600D01*
X1545147D01*
X1583767Y3758345D01*
X1598097D01*
X1639251Y3657600D01*
D02*
G37*
G36*
X1502682Y3758257D02*
X1503993Y3758170D01*
X1505391Y3758082D01*
X1506964Y3757995D01*
X1510284Y3757646D01*
X1513692Y3757209D01*
X1515352Y3756859D01*
X1516925Y3756510D01*
X1518410Y3756073D01*
X1519808Y3755548D01*
X1519895D01*
X1520157Y3755461D01*
X1520507Y3755286D01*
X1520944Y3755024D01*
X1521556Y3754675D01*
X1522255Y3754325D01*
X1523827Y3753364D01*
X1525575Y3752053D01*
X1526536Y3751267D01*
X1527497Y3750393D01*
X1528371Y3749432D01*
X1529332Y3748296D01*
X1530206Y3747160D01*
X1530992Y3745937D01*
X1531079Y3745850D01*
X1531167Y3745588D01*
X1531342Y3745238D01*
X1531691Y3744714D01*
X1531953Y3744102D01*
X1532303Y3743316D01*
X1532740Y3742442D01*
X1533089Y3741481D01*
X1533526Y3740432D01*
X1533876Y3739297D01*
X1534575Y3736675D01*
X1535011Y3733879D01*
X1535099Y3732394D01*
X1535186Y3730821D01*
Y3730734D01*
Y3730384D01*
Y3729773D01*
X1535099Y3729074D01*
X1535011Y3728112D01*
X1534837Y3727064D01*
X1534575Y3725841D01*
X1534312Y3724530D01*
X1533963Y3723219D01*
X1533526Y3721734D01*
X1532914Y3720249D01*
X1532215Y3718676D01*
X1531429Y3717190D01*
X1530468Y3715618D01*
X1529419Y3714132D01*
X1528196Y3712734D01*
X1528109Y3712647D01*
X1527847Y3712385D01*
X1527497Y3712035D01*
X1526885Y3711598D01*
X1526186Y3710987D01*
X1525225Y3710288D01*
X1524177Y3709589D01*
X1522954Y3708802D01*
X1521556Y3708016D01*
X1519983Y3707230D01*
X1518148Y3706443D01*
X1516226Y3705744D01*
X1514129Y3705045D01*
X1511857Y3704434D01*
X1509410Y3703909D01*
X1506789Y3703472D01*
X1506876D01*
X1507051Y3703385D01*
X1507313Y3703210D01*
X1507663Y3703036D01*
X1508624Y3702511D01*
X1509760Y3701900D01*
X1511070Y3701113D01*
X1512468Y3700239D01*
X1513692Y3699366D01*
X1514828Y3698405D01*
X1514915Y3698317D01*
X1515090Y3698142D01*
X1515439Y3697880D01*
X1515789Y3697443D01*
X1516313Y3696919D01*
X1516925Y3696308D01*
X1517624Y3695609D01*
X1518410Y3694735D01*
X1519196Y3693774D01*
X1520070Y3692813D01*
X1521905Y3690541D01*
X1523915Y3687919D01*
X1525837Y3685036D01*
X1543312Y3657600D01*
X1526623D01*
X1513342Y3678570D01*
X1513255Y3678658D01*
X1513080Y3679007D01*
X1512818Y3679444D01*
X1512381Y3680056D01*
X1511857Y3680842D01*
X1511333Y3681716D01*
X1510634Y3682677D01*
X1509934Y3683638D01*
X1508449Y3685910D01*
X1506789Y3688182D01*
X1505216Y3690366D01*
X1504430Y3691415D01*
X1503731Y3692376D01*
Y3692463D01*
X1503556Y3692550D01*
X1503381Y3692813D01*
X1503119Y3693162D01*
X1502420Y3694036D01*
X1501459Y3695084D01*
X1500411Y3696133D01*
X1499275Y3697269D01*
X1498051Y3698317D01*
X1496915Y3699104D01*
X1496828Y3699191D01*
X1496391Y3699453D01*
X1495780Y3699715D01*
X1495081Y3700152D01*
X1494119Y3700589D01*
X1493158Y3701026D01*
X1492022Y3701463D01*
X1490887Y3701812D01*
X1490799D01*
X1490450Y3701900D01*
X1489925Y3701987D01*
X1489139Y3702074D01*
X1488090Y3702162D01*
X1486780Y3702249D01*
X1485294Y3702337D01*
X1468081D01*
Y3657600D01*
X1454713D01*
Y3758345D01*
X1501546D01*
X1502682Y3758257D01*
D02*
G37*
G36*
X1440907Y3746461D02*
X1407530D01*
Y3657600D01*
X1394161D01*
Y3746461D01*
X1360958D01*
Y3758345D01*
X1440907D01*
Y3746461D01*
D02*
G37*
G36*
X1946154Y3760005D02*
X1947115D01*
X1948251Y3759917D01*
X1949562Y3759830D01*
X1950960Y3759655D01*
X1952445Y3759480D01*
X1954018Y3759218D01*
X1957338Y3758519D01*
X1960746Y3757646D01*
X1964066Y3756422D01*
X1964154D01*
X1964416Y3756248D01*
X1964853Y3756073D01*
X1965464Y3755723D01*
X1966163Y3755374D01*
X1967037Y3754937D01*
X1967911Y3754413D01*
X1968959Y3753714D01*
X1971056Y3752228D01*
X1973241Y3750393D01*
X1975338Y3748296D01*
X1976386Y3747073D01*
X1977260Y3745762D01*
X1977347Y3745675D01*
X1977435Y3745413D01*
X1977697Y3745063D01*
X1977959Y3744539D01*
X1978308Y3743840D01*
X1978745Y3743054D01*
X1979182Y3742180D01*
X1979619Y3741131D01*
X1980056Y3740083D01*
X1980493Y3738860D01*
X1980930Y3737549D01*
X1981279Y3736151D01*
X1981891Y3733180D01*
X1982153Y3731607D01*
X1982240Y3729947D01*
X1969483Y3728986D01*
Y3729074D01*
X1969396Y3729423D01*
X1969309Y3729860D01*
X1969221Y3730559D01*
X1969047Y3731345D01*
X1968872Y3732219D01*
X1968522Y3733268D01*
X1968173Y3734404D01*
X1967299Y3736675D01*
X1966687Y3737899D01*
X1966076Y3739122D01*
X1965289Y3740258D01*
X1964416Y3741394D01*
X1963455Y3742442D01*
X1962406Y3743403D01*
X1962319Y3743491D01*
X1962144Y3743578D01*
X1961794Y3743840D01*
X1961270Y3744190D01*
X1960659Y3744539D01*
X1959960Y3744976D01*
X1958998Y3745413D01*
X1957950Y3745850D01*
X1956814Y3746287D01*
X1955503Y3746724D01*
X1954105Y3747160D01*
X1952533Y3747510D01*
X1950785Y3747859D01*
X1948950Y3748122D01*
X1946940Y3748209D01*
X1944843Y3748296D01*
X1943708D01*
X1942834Y3748209D01*
X1941873Y3748122D01*
X1940737Y3748034D01*
X1939426Y3747947D01*
X1938116Y3747772D01*
X1935145Y3747248D01*
X1932261Y3746461D01*
X1930863Y3745937D01*
X1929465Y3745326D01*
X1928242Y3744626D01*
X1927106Y3743840D01*
X1927019Y3743753D01*
X1926844Y3743665D01*
X1926582Y3743403D01*
X1926232Y3743054D01*
X1925795Y3742617D01*
X1925359Y3742093D01*
X1924397Y3740869D01*
X1923349Y3739297D01*
X1922475Y3737462D01*
X1922126Y3736413D01*
X1921864Y3735365D01*
X1921689Y3734229D01*
X1921601Y3733093D01*
Y3733005D01*
Y3732831D01*
Y3732569D01*
X1921689Y3732219D01*
X1921776Y3731171D01*
X1922126Y3729947D01*
X1922563Y3728549D01*
X1923262Y3727064D01*
X1924223Y3725579D01*
X1924834Y3724880D01*
X1925533Y3724181D01*
X1925621D01*
X1925708Y3724006D01*
X1925970Y3723831D01*
X1926407Y3723569D01*
X1926931Y3723219D01*
X1927630Y3722870D01*
X1928504Y3722433D01*
X1929465Y3721996D01*
X1930689Y3721472D01*
X1932174Y3720860D01*
X1933747Y3720336D01*
X1935669Y3719724D01*
X1937766Y3719025D01*
X1940125Y3718414D01*
X1942746Y3717715D01*
X1945630Y3717016D01*
X1945805D01*
X1946329Y3716841D01*
X1947203Y3716666D01*
X1948251Y3716404D01*
X1949649Y3716055D01*
X1951135Y3715705D01*
X1952795Y3715268D01*
X1954542Y3714831D01*
X1958299Y3713870D01*
X1961969Y3712822D01*
X1963717Y3712210D01*
X1965377Y3711686D01*
X1966862Y3711161D01*
X1968085Y3710637D01*
X1968173Y3710550D01*
X1968435Y3710462D01*
X1968959Y3710200D01*
X1969483Y3709938D01*
X1970270Y3709501D01*
X1971056Y3708977D01*
X1972017Y3708453D01*
X1972979Y3707841D01*
X1975076Y3706356D01*
X1977260Y3704521D01*
X1979270Y3702511D01*
X1980143Y3701463D01*
X1981017Y3700327D01*
X1981104Y3700239D01*
X1981192Y3700065D01*
X1981454Y3699715D01*
X1981716Y3699191D01*
X1981978Y3698667D01*
X1982415Y3697968D01*
X1982765Y3697094D01*
X1983202Y3696220D01*
X1983551Y3695172D01*
X1983988Y3694123D01*
X1984600Y3691677D01*
X1985124Y3688968D01*
X1985211Y3687483D01*
X1985299Y3685997D01*
Y3685910D01*
Y3685648D01*
Y3685211D01*
X1985211Y3684599D01*
X1985124Y3683900D01*
X1985036Y3683114D01*
X1984949Y3682153D01*
X1984687Y3681104D01*
X1984163Y3678745D01*
X1983376Y3676211D01*
X1982852Y3674900D01*
X1982240Y3673590D01*
X1981454Y3672192D01*
X1980668Y3670881D01*
X1980580Y3670794D01*
X1980493Y3670532D01*
X1980143Y3670182D01*
X1979794Y3669745D01*
X1979357Y3669134D01*
X1978745Y3668435D01*
X1978046Y3667648D01*
X1977260Y3666862D01*
X1976386Y3665988D01*
X1975425Y3665114D01*
X1974289Y3664153D01*
X1973153Y3663279D01*
X1971843Y3662318D01*
X1970445Y3661445D01*
X1968959Y3660658D01*
X1967386Y3659872D01*
X1967299D01*
X1967037Y3659697D01*
X1966513Y3659522D01*
X1965901Y3659260D01*
X1965027Y3658998D01*
X1964066Y3658649D01*
X1962930Y3658299D01*
X1961707Y3657950D01*
X1960309Y3657513D01*
X1958824Y3657163D01*
X1957251Y3656814D01*
X1955591Y3656551D01*
X1953756Y3656289D01*
X1951921Y3656115D01*
X1949999Y3656027D01*
X1947989Y3655940D01*
X1946678D01*
X1945717Y3656027D01*
X1944494D01*
X1943183Y3656115D01*
X1941611Y3656289D01*
X1939950Y3656464D01*
X1938203Y3656639D01*
X1936368Y3656901D01*
X1932523Y3657600D01*
X1928679Y3658561D01*
X1926757Y3659173D01*
X1925009Y3659872D01*
X1924922Y3659959D01*
X1924572Y3660047D01*
X1924135Y3660309D01*
X1923524Y3660658D01*
X1922737Y3661008D01*
X1921776Y3661532D01*
X1920815Y3662144D01*
X1919767Y3662843D01*
X1918543Y3663716D01*
X1917407Y3664590D01*
X1916184Y3665551D01*
X1914961Y3666600D01*
X1913825Y3667823D01*
X1912602Y3669046D01*
X1911553Y3670357D01*
X1910505Y3671842D01*
X1910417Y3671930D01*
X1910243Y3672192D01*
X1909980Y3672629D01*
X1909718Y3673240D01*
X1909281Y3674027D01*
X1908845Y3674900D01*
X1908320Y3675949D01*
X1907883Y3677172D01*
X1907359Y3678395D01*
X1906835Y3679794D01*
X1906398Y3681279D01*
X1905961Y3682939D01*
X1905350Y3686347D01*
X1905087Y3688182D01*
X1905000Y3690016D01*
X1917582Y3691152D01*
Y3691065D01*
X1917670Y3690803D01*
Y3690453D01*
X1917757Y3689929D01*
X1917844Y3689230D01*
X1918019Y3688531D01*
X1918194Y3687657D01*
X1918456Y3686784D01*
X1918980Y3684774D01*
X1919679Y3682677D01*
X1920553Y3680580D01*
X1921689Y3678658D01*
Y3678570D01*
X1921864Y3678483D01*
X1922038Y3678221D01*
X1922300Y3677871D01*
X1923087Y3676997D01*
X1924223Y3675862D01*
X1925621Y3674551D01*
X1927368Y3673240D01*
X1929465Y3672017D01*
X1931824Y3670794D01*
X1931912D01*
X1932174Y3670706D01*
X1932523Y3670532D01*
X1933048Y3670357D01*
X1933659Y3670095D01*
X1934446Y3669833D01*
X1935319Y3669571D01*
X1936368Y3669308D01*
X1937504Y3669046D01*
X1938640Y3668784D01*
X1941261Y3668260D01*
X1944232Y3667910D01*
X1947377Y3667823D01*
X1948688D01*
X1949300Y3667910D01*
X1950086D01*
X1950960Y3667998D01*
X1951921Y3668085D01*
X1954018Y3668347D01*
X1956290Y3668784D01*
X1958561Y3669308D01*
X1960833Y3670095D01*
X1960921D01*
X1961095Y3670182D01*
X1961358Y3670357D01*
X1961794Y3670532D01*
X1962843Y3671056D01*
X1964154Y3671755D01*
X1965552Y3672629D01*
X1966950Y3673677D01*
X1968348Y3674900D01*
X1969571Y3676298D01*
Y3676386D01*
X1969658Y3676473D01*
X1970008Y3676997D01*
X1970445Y3677784D01*
X1971056Y3678832D01*
X1971581Y3680143D01*
X1972017Y3681628D01*
X1972367Y3683201D01*
X1972454Y3684949D01*
Y3685036D01*
Y3685123D01*
Y3685386D01*
Y3685735D01*
X1972280Y3686609D01*
X1972105Y3687745D01*
X1971755Y3689055D01*
X1971318Y3690366D01*
X1970619Y3691851D01*
X1969658Y3693162D01*
X1969571Y3693337D01*
X1969134Y3693774D01*
X1968435Y3694385D01*
X1967474Y3695259D01*
X1966251Y3696220D01*
X1964678Y3697181D01*
X1962756Y3698142D01*
X1960571Y3699104D01*
X1960484D01*
X1960396Y3699191D01*
X1960134Y3699278D01*
X1959697Y3699366D01*
X1959173Y3699540D01*
X1958561Y3699803D01*
X1957775Y3700065D01*
X1956814Y3700327D01*
X1955678Y3700589D01*
X1954367Y3701026D01*
X1952882Y3701375D01*
X1951222Y3701812D01*
X1949387Y3702337D01*
X1947290Y3702861D01*
X1945018Y3703385D01*
X1942484Y3703997D01*
X1942310D01*
X1941873Y3704171D01*
X1941174Y3704346D01*
X1940213Y3704608D01*
X1939077Y3704870D01*
X1937766Y3705220D01*
X1936368Y3705657D01*
X1934883Y3706094D01*
X1931650Y3707055D01*
X1928417Y3708103D01*
X1926844Y3708628D01*
X1925446Y3709152D01*
X1924135Y3709763D01*
X1922999Y3710288D01*
X1922912Y3710375D01*
X1922650Y3710462D01*
X1922300Y3710725D01*
X1921864Y3710987D01*
X1921252Y3711336D01*
X1920553Y3711773D01*
X1918980Y3712909D01*
X1917233Y3714307D01*
X1915485Y3715880D01*
X1913738Y3717715D01*
X1912252Y3719724D01*
Y3719812D01*
X1912077Y3719986D01*
X1911903Y3720249D01*
X1911728Y3720685D01*
X1911466Y3721210D01*
X1911116Y3721821D01*
X1910854Y3722608D01*
X1910505Y3723394D01*
X1909893Y3725229D01*
X1909281Y3727326D01*
X1908932Y3729685D01*
X1908757Y3732219D01*
Y3732306D01*
Y3732569D01*
Y3733005D01*
X1908845Y3733530D01*
X1908932Y3734229D01*
X1909019Y3735015D01*
X1909107Y3735889D01*
X1909281Y3736937D01*
X1909806Y3739122D01*
X1910592Y3741481D01*
X1911029Y3742792D01*
X1911641Y3744015D01*
X1912252Y3745326D01*
X1913039Y3746549D01*
X1913126Y3746636D01*
X1913213Y3746811D01*
X1913475Y3747160D01*
X1913825Y3747685D01*
X1914349Y3748209D01*
X1914873Y3748821D01*
X1915485Y3749520D01*
X1916272Y3750306D01*
X1917145Y3751092D01*
X1918019Y3751966D01*
X1919068Y3752752D01*
X1920203Y3753626D01*
X1921427Y3754413D01*
X1922825Y3755199D01*
X1924223Y3755898D01*
X1925708Y3756597D01*
X1925795D01*
X1926058Y3756772D01*
X1926582Y3756947D01*
X1927194Y3757121D01*
X1927980Y3757383D01*
X1928941Y3757733D01*
X1929990Y3757995D01*
X1931213Y3758345D01*
X1932523Y3758694D01*
X1933921Y3758956D01*
X1935407Y3759306D01*
X1937067Y3759568D01*
X1940562Y3759917D01*
X1944232Y3760092D01*
X1945368D01*
X1946154Y3760005D01*
D02*
G37*
G36*
X2403393Y3657600D02*
X2389675D01*
X2336812Y3736675D01*
Y3657600D01*
X2324055D01*
Y3758345D01*
X2337686D01*
X2390636Y3679182D01*
Y3758345D01*
X2403393D01*
Y3657600D01*
D02*
G37*
G36*
X2472769Y3693075D02*
X2486400D01*
Y3681716D01*
X2472769D01*
Y3657600D01*
X2460362D01*
Y3681716D01*
X2416674D01*
Y3693075D01*
X2462634Y3758345D01*
X2472769D01*
Y3693075D01*
D02*
G37*
G36*
X2300639Y3657600D02*
X2287270D01*
Y3758345D01*
X2300639D01*
Y3657600D01*
D02*
G37*
G36*
X2274251D02*
X2259135D01*
X2247514Y3688094D01*
X2205137D01*
X2194215Y3657600D01*
X2180147D01*
X2218767Y3758345D01*
X2233097D01*
X2274251Y3657600D01*
D02*
G37*
G36*
X2137682Y3758257D02*
X2138993Y3758170D01*
X2140391Y3758082D01*
X2141964Y3757995D01*
X2145284Y3757646D01*
X2148692Y3757209D01*
X2150352Y3756859D01*
X2151925Y3756510D01*
X2153410Y3756073D01*
X2154808Y3755548D01*
X2154895D01*
X2155157Y3755461D01*
X2155507Y3755286D01*
X2155944Y3755024D01*
X2156556Y3754675D01*
X2157255Y3754325D01*
X2158827Y3753364D01*
X2160575Y3752053D01*
X2161536Y3751267D01*
X2162497Y3750393D01*
X2163371Y3749432D01*
X2164332Y3748296D01*
X2165206Y3747160D01*
X2165992Y3745937D01*
X2166079Y3745850D01*
X2166167Y3745588D01*
X2166342Y3745238D01*
X2166691Y3744714D01*
X2166953Y3744102D01*
X2167303Y3743316D01*
X2167740Y3742442D01*
X2168089Y3741481D01*
X2168526Y3740432D01*
X2168876Y3739297D01*
X2169575Y3736675D01*
X2170011Y3733879D01*
X2170099Y3732394D01*
X2170186Y3730821D01*
Y3730734D01*
Y3730384D01*
Y3729773D01*
X2170099Y3729074D01*
X2170011Y3728112D01*
X2169837Y3727064D01*
X2169575Y3725841D01*
X2169312Y3724530D01*
X2168963Y3723219D01*
X2168526Y3721734D01*
X2167914Y3720249D01*
X2167215Y3718676D01*
X2166429Y3717190D01*
X2165468Y3715618D01*
X2164419Y3714132D01*
X2163196Y3712734D01*
X2163109Y3712647D01*
X2162847Y3712385D01*
X2162497Y3712035D01*
X2161885Y3711598D01*
X2161186Y3710987D01*
X2160225Y3710288D01*
X2159177Y3709589D01*
X2157954Y3708802D01*
X2156556Y3708016D01*
X2154983Y3707230D01*
X2153148Y3706443D01*
X2151226Y3705744D01*
X2149129Y3705045D01*
X2146857Y3704434D01*
X2144410Y3703909D01*
X2141789Y3703472D01*
X2141876D01*
X2142051Y3703385D01*
X2142313Y3703210D01*
X2142663Y3703036D01*
X2143624Y3702511D01*
X2144760Y3701900D01*
X2146070Y3701113D01*
X2147468Y3700239D01*
X2148692Y3699366D01*
X2149828Y3698405D01*
X2149915Y3698317D01*
X2150090Y3698142D01*
X2150439Y3697880D01*
X2150789Y3697443D01*
X2151313Y3696919D01*
X2151925Y3696308D01*
X2152624Y3695609D01*
X2153410Y3694735D01*
X2154196Y3693774D01*
X2155070Y3692813D01*
X2156905Y3690541D01*
X2158915Y3687919D01*
X2160837Y3685036D01*
X2178312Y3657600D01*
X2161623D01*
X2148342Y3678570D01*
X2148255Y3678658D01*
X2148080Y3679007D01*
X2147818Y3679444D01*
X2147381Y3680056D01*
X2146857Y3680842D01*
X2146333Y3681716D01*
X2145634Y3682677D01*
X2144934Y3683638D01*
X2143449Y3685910D01*
X2141789Y3688182D01*
X2140216Y3690366D01*
X2139430Y3691415D01*
X2138731Y3692376D01*
Y3692463D01*
X2138556Y3692550D01*
X2138381Y3692813D01*
X2138119Y3693162D01*
X2137420Y3694036D01*
X2136459Y3695084D01*
X2135411Y3696133D01*
X2134275Y3697269D01*
X2133051Y3698317D01*
X2131915Y3699104D01*
X2131828Y3699191D01*
X2131391Y3699453D01*
X2130780Y3699715D01*
X2130081Y3700152D01*
X2129119Y3700589D01*
X2128158Y3701026D01*
X2127022Y3701463D01*
X2125887Y3701812D01*
X2125799D01*
X2125450Y3701900D01*
X2124925Y3701987D01*
X2124139Y3702074D01*
X2123090Y3702162D01*
X2121780Y3702249D01*
X2120294Y3702337D01*
X2103081D01*
Y3657600D01*
X2089713D01*
Y3758345D01*
X2136546D01*
X2137682Y3758257D01*
D02*
G37*
G36*
X2075907Y3746461D02*
X2042530D01*
Y3657600D01*
X2029161D01*
Y3746461D01*
X1995958D01*
Y3758345D01*
X2075907D01*
Y3746461D01*
D02*
G37*
G36*
X2581154Y3760005D02*
X2582115D01*
X2583251Y3759917D01*
X2584562Y3759830D01*
X2585960Y3759655D01*
X2587445Y3759480D01*
X2589018Y3759218D01*
X2592338Y3758519D01*
X2595746Y3757646D01*
X2599066Y3756422D01*
X2599154D01*
X2599416Y3756248D01*
X2599853Y3756073D01*
X2600464Y3755723D01*
X2601163Y3755374D01*
X2602037Y3754937D01*
X2602911Y3754413D01*
X2603959Y3753714D01*
X2606056Y3752228D01*
X2608241Y3750393D01*
X2610338Y3748296D01*
X2611386Y3747073D01*
X2612260Y3745762D01*
X2612347Y3745675D01*
X2612435Y3745413D01*
X2612697Y3745063D01*
X2612959Y3744539D01*
X2613308Y3743840D01*
X2613745Y3743054D01*
X2614182Y3742180D01*
X2614619Y3741131D01*
X2615056Y3740083D01*
X2615493Y3738860D01*
X2615930Y3737549D01*
X2616279Y3736151D01*
X2616891Y3733180D01*
X2617153Y3731607D01*
X2617240Y3729947D01*
X2604483Y3728986D01*
Y3729074D01*
X2604396Y3729423D01*
X2604309Y3729860D01*
X2604221Y3730559D01*
X2604047Y3731345D01*
X2603872Y3732219D01*
X2603522Y3733268D01*
X2603173Y3734404D01*
X2602299Y3736675D01*
X2601687Y3737899D01*
X2601076Y3739122D01*
X2600289Y3740258D01*
X2599416Y3741394D01*
X2598455Y3742442D01*
X2597406Y3743403D01*
X2597319Y3743491D01*
X2597144Y3743578D01*
X2596794Y3743840D01*
X2596270Y3744190D01*
X2595659Y3744539D01*
X2594960Y3744976D01*
X2593998Y3745413D01*
X2592950Y3745850D01*
X2591814Y3746287D01*
X2590503Y3746724D01*
X2589105Y3747160D01*
X2587533Y3747510D01*
X2585785Y3747859D01*
X2583950Y3748122D01*
X2581940Y3748209D01*
X2579843Y3748296D01*
X2578708D01*
X2577834Y3748209D01*
X2576873Y3748122D01*
X2575737Y3748034D01*
X2574426Y3747947D01*
X2573116Y3747772D01*
X2570145Y3747248D01*
X2567261Y3746461D01*
X2565863Y3745937D01*
X2564465Y3745326D01*
X2563242Y3744626D01*
X2562106Y3743840D01*
X2562019Y3743753D01*
X2561844Y3743665D01*
X2561582Y3743403D01*
X2561232Y3743054D01*
X2560795Y3742617D01*
X2560359Y3742093D01*
X2559397Y3740869D01*
X2558349Y3739297D01*
X2557475Y3737462D01*
X2557126Y3736413D01*
X2556864Y3735365D01*
X2556689Y3734229D01*
X2556601Y3733093D01*
Y3733005D01*
Y3732831D01*
Y3732569D01*
X2556689Y3732219D01*
X2556776Y3731171D01*
X2557126Y3729947D01*
X2557563Y3728549D01*
X2558262Y3727064D01*
X2559223Y3725579D01*
X2559834Y3724880D01*
X2560533Y3724181D01*
X2560621D01*
X2560708Y3724006D01*
X2560970Y3723831D01*
X2561407Y3723569D01*
X2561931Y3723219D01*
X2562630Y3722870D01*
X2563504Y3722433D01*
X2564465Y3721996D01*
X2565689Y3721472D01*
X2567174Y3720860D01*
X2568747Y3720336D01*
X2570669Y3719724D01*
X2572766Y3719025D01*
X2575125Y3718414D01*
X2577746Y3717715D01*
X2580630Y3717016D01*
X2580805D01*
X2581329Y3716841D01*
X2582203Y3716666D01*
X2583251Y3716404D01*
X2584649Y3716055D01*
X2586135Y3715705D01*
X2587795Y3715268D01*
X2589542Y3714831D01*
X2593299Y3713870D01*
X2596969Y3712822D01*
X2598717Y3712210D01*
X2600377Y3711686D01*
X2601862Y3711161D01*
X2603085Y3710637D01*
X2603173Y3710550D01*
X2603435Y3710462D01*
X2603959Y3710200D01*
X2604483Y3709938D01*
X2605270Y3709501D01*
X2606056Y3708977D01*
X2607017Y3708453D01*
X2607979Y3707841D01*
X2610076Y3706356D01*
X2612260Y3704521D01*
X2614270Y3702511D01*
X2615143Y3701463D01*
X2616017Y3700327D01*
X2616104Y3700239D01*
X2616192Y3700065D01*
X2616454Y3699715D01*
X2616716Y3699191D01*
X2616978Y3698667D01*
X2617415Y3697968D01*
X2617765Y3697094D01*
X2618202Y3696220D01*
X2618551Y3695172D01*
X2618988Y3694123D01*
X2619600Y3691677D01*
X2620124Y3688968D01*
X2620211Y3687483D01*
X2620299Y3685997D01*
Y3685910D01*
Y3685648D01*
Y3685211D01*
X2620211Y3684599D01*
X2620124Y3683900D01*
X2620036Y3683114D01*
X2619949Y3682153D01*
X2619687Y3681104D01*
X2619163Y3678745D01*
X2618376Y3676211D01*
X2617852Y3674900D01*
X2617240Y3673590D01*
X2616454Y3672192D01*
X2615668Y3670881D01*
X2615580Y3670794D01*
X2615493Y3670532D01*
X2615143Y3670182D01*
X2614794Y3669745D01*
X2614357Y3669134D01*
X2613745Y3668435D01*
X2613046Y3667648D01*
X2612260Y3666862D01*
X2611386Y3665988D01*
X2610425Y3665114D01*
X2609289Y3664153D01*
X2608153Y3663279D01*
X2606843Y3662318D01*
X2605445Y3661445D01*
X2603959Y3660658D01*
X2602386Y3659872D01*
X2602299D01*
X2602037Y3659697D01*
X2601513Y3659522D01*
X2600901Y3659260D01*
X2600027Y3658998D01*
X2599066Y3658649D01*
X2597930Y3658299D01*
X2596707Y3657950D01*
X2595309Y3657513D01*
X2593824Y3657163D01*
X2592251Y3656814D01*
X2590591Y3656551D01*
X2588756Y3656289D01*
X2586921Y3656115D01*
X2584999Y3656027D01*
X2582989Y3655940D01*
X2581678D01*
X2580717Y3656027D01*
X2579494D01*
X2578183Y3656115D01*
X2576611Y3656289D01*
X2574950Y3656464D01*
X2573203Y3656639D01*
X2571368Y3656901D01*
X2567523Y3657600D01*
X2563679Y3658561D01*
X2561757Y3659173D01*
X2560009Y3659872D01*
X2559922Y3659959D01*
X2559572Y3660047D01*
X2559135Y3660309D01*
X2558524Y3660658D01*
X2557737Y3661008D01*
X2556776Y3661532D01*
X2555815Y3662144D01*
X2554767Y3662843D01*
X2553543Y3663716D01*
X2552407Y3664590D01*
X2551184Y3665551D01*
X2549961Y3666600D01*
X2548825Y3667823D01*
X2547602Y3669046D01*
X2546553Y3670357D01*
X2545505Y3671842D01*
X2545417Y3671930D01*
X2545243Y3672192D01*
X2544980Y3672629D01*
X2544718Y3673240D01*
X2544281Y3674027D01*
X2543845Y3674900D01*
X2543320Y3675949D01*
X2542883Y3677172D01*
X2542359Y3678395D01*
X2541835Y3679794D01*
X2541398Y3681279D01*
X2540961Y3682939D01*
X2540350Y3686347D01*
X2540087Y3688182D01*
X2540000Y3690016D01*
X2552582Y3691152D01*
Y3691065D01*
X2552670Y3690803D01*
Y3690453D01*
X2552757Y3689929D01*
X2552844Y3689230D01*
X2553019Y3688531D01*
X2553194Y3687657D01*
X2553456Y3686784D01*
X2553980Y3684774D01*
X2554679Y3682677D01*
X2555553Y3680580D01*
X2556689Y3678658D01*
Y3678570D01*
X2556864Y3678483D01*
X2557038Y3678221D01*
X2557300Y3677871D01*
X2558087Y3676997D01*
X2559223Y3675862D01*
X2560621Y3674551D01*
X2562368Y3673240D01*
X2564465Y3672017D01*
X2566824Y3670794D01*
X2566912D01*
X2567174Y3670706D01*
X2567523Y3670532D01*
X2568048Y3670357D01*
X2568659Y3670095D01*
X2569446Y3669833D01*
X2570319Y3669571D01*
X2571368Y3669308D01*
X2572504Y3669046D01*
X2573640Y3668784D01*
X2576261Y3668260D01*
X2579232Y3667910D01*
X2582377Y3667823D01*
X2583688D01*
X2584300Y3667910D01*
X2585086D01*
X2585960Y3667998D01*
X2586921Y3668085D01*
X2589018Y3668347D01*
X2591290Y3668784D01*
X2593561Y3669308D01*
X2595833Y3670095D01*
X2595921D01*
X2596095Y3670182D01*
X2596358Y3670357D01*
X2596794Y3670532D01*
X2597843Y3671056D01*
X2599154Y3671755D01*
X2600552Y3672629D01*
X2601950Y3673677D01*
X2603348Y3674900D01*
X2604571Y3676298D01*
Y3676386D01*
X2604658Y3676473D01*
X2605008Y3676997D01*
X2605445Y3677784D01*
X2606056Y3678832D01*
X2606581Y3680143D01*
X2607017Y3681628D01*
X2607367Y3683201D01*
X2607454Y3684949D01*
Y3685036D01*
Y3685123D01*
Y3685386D01*
Y3685735D01*
X2607280Y3686609D01*
X2607105Y3687745D01*
X2606755Y3689055D01*
X2606318Y3690366D01*
X2605619Y3691851D01*
X2604658Y3693162D01*
X2604571Y3693337D01*
X2604134Y3693774D01*
X2603435Y3694385D01*
X2602474Y3695259D01*
X2601251Y3696220D01*
X2599678Y3697181D01*
X2597756Y3698142D01*
X2595571Y3699104D01*
X2595484D01*
X2595396Y3699191D01*
X2595134Y3699278D01*
X2594697Y3699366D01*
X2594173Y3699540D01*
X2593561Y3699803D01*
X2592775Y3700065D01*
X2591814Y3700327D01*
X2590678Y3700589D01*
X2589367Y3701026D01*
X2587882Y3701375D01*
X2586222Y3701812D01*
X2584387Y3702337D01*
X2582290Y3702861D01*
X2580018Y3703385D01*
X2577484Y3703997D01*
X2577310D01*
X2576873Y3704171D01*
X2576174Y3704346D01*
X2575213Y3704608D01*
X2574077Y3704870D01*
X2572766Y3705220D01*
X2571368Y3705657D01*
X2569883Y3706094D01*
X2566650Y3707055D01*
X2563417Y3708103D01*
X2561844Y3708628D01*
X2560446Y3709152D01*
X2559135Y3709763D01*
X2557999Y3710288D01*
X2557912Y3710375D01*
X2557650Y3710462D01*
X2557300Y3710725D01*
X2556864Y3710987D01*
X2556252Y3711336D01*
X2555553Y3711773D01*
X2553980Y3712909D01*
X2552233Y3714307D01*
X2550485Y3715880D01*
X2548738Y3717715D01*
X2547252Y3719724D01*
Y3719812D01*
X2547077Y3719986D01*
X2546903Y3720249D01*
X2546728Y3720685D01*
X2546466Y3721210D01*
X2546116Y3721821D01*
X2545854Y3722608D01*
X2545505Y3723394D01*
X2544893Y3725229D01*
X2544281Y3727326D01*
X2543932Y3729685D01*
X2543757Y3732219D01*
Y3732306D01*
Y3732569D01*
Y3733005D01*
X2543845Y3733530D01*
X2543932Y3734229D01*
X2544019Y3735015D01*
X2544107Y3735889D01*
X2544281Y3736937D01*
X2544806Y3739122D01*
X2545592Y3741481D01*
X2546029Y3742792D01*
X2546641Y3744015D01*
X2547252Y3745326D01*
X2548039Y3746549D01*
X2548126Y3746636D01*
X2548213Y3746811D01*
X2548475Y3747160D01*
X2548825Y3747685D01*
X2549349Y3748209D01*
X2549873Y3748821D01*
X2550485Y3749520D01*
X2551272Y3750306D01*
X2552145Y3751092D01*
X2553019Y3751966D01*
X2554068Y3752752D01*
X2555203Y3753626D01*
X2556427Y3754413D01*
X2557825Y3755199D01*
X2559223Y3755898D01*
X2560708Y3756597D01*
X2560795D01*
X2561058Y3756772D01*
X2561582Y3756947D01*
X2562194Y3757121D01*
X2562980Y3757383D01*
X2563941Y3757733D01*
X2564990Y3757995D01*
X2566213Y3758345D01*
X2567523Y3758694D01*
X2568921Y3758956D01*
X2570407Y3759306D01*
X2572067Y3759568D01*
X2575562Y3759917D01*
X2579232Y3760092D01*
X2580368D01*
X2581154Y3760005D01*
D02*
G37*
G36*
X3088721Y3758607D02*
X3089420D01*
X3090294Y3758519D01*
X3091255Y3758432D01*
X3092304Y3758257D01*
X3094663Y3757820D01*
X3097284Y3757209D01*
X3099905Y3756335D01*
X3102527Y3755112D01*
X3102614D01*
X3102876Y3754937D01*
X3103226Y3754762D01*
X3103663Y3754500D01*
X3104274Y3754150D01*
X3104886Y3753714D01*
X3106459Y3752578D01*
X3108119Y3751267D01*
X3109866Y3749607D01*
X3111614Y3747685D01*
X3113099Y3745500D01*
X3113187Y3745413D01*
X3113274Y3745238D01*
X3113449Y3744889D01*
X3113711Y3744452D01*
X3113973Y3743840D01*
X3114322Y3743228D01*
X3114672Y3742442D01*
X3115021Y3741568D01*
X3115633Y3739646D01*
X3116245Y3737462D01*
X3116682Y3735015D01*
X3116856Y3733792D01*
Y3732481D01*
Y3732394D01*
Y3732219D01*
Y3731870D01*
X3116769Y3731433D01*
Y3730821D01*
X3116682Y3730122D01*
X3116419Y3728549D01*
X3115983Y3726714D01*
X3115371Y3724705D01*
X3114497Y3722695D01*
X3113274Y3720598D01*
Y3720511D01*
X3113099Y3720336D01*
X3112924Y3720074D01*
X3112662Y3719724D01*
X3111789Y3718763D01*
X3110653Y3717540D01*
X3109255Y3716229D01*
X3107420Y3714744D01*
X3105323Y3713433D01*
X3102964Y3712123D01*
X3103051D01*
X3103400Y3712035D01*
X3103837Y3711860D01*
X3104449Y3711686D01*
X3105148Y3711424D01*
X3106022Y3711161D01*
X3106983Y3710725D01*
X3108031Y3710288D01*
X3110303Y3709152D01*
X3111439Y3708453D01*
X3112575Y3707666D01*
X3113711Y3706793D01*
X3114847Y3705744D01*
X3115895Y3704696D01*
X3116856Y3703560D01*
X3116944Y3703472D01*
X3117031Y3703298D01*
X3117293Y3702861D01*
X3117643Y3702424D01*
X3117992Y3701725D01*
X3118429Y3701026D01*
X3118866Y3700152D01*
X3119390Y3699104D01*
X3119827Y3697968D01*
X3120264Y3696744D01*
X3120701Y3695434D01*
X3121050Y3693948D01*
X3121400Y3692463D01*
X3121662Y3690803D01*
X3121749Y3689143D01*
X3121837Y3687308D01*
Y3687133D01*
Y3686696D01*
X3121749Y3685997D01*
X3121662Y3685123D01*
X3121575Y3683988D01*
X3121313Y3682677D01*
X3121050Y3681192D01*
X3120614Y3679531D01*
X3120089Y3677871D01*
X3119478Y3676036D01*
X3118691Y3674201D01*
X3117730Y3672279D01*
X3116594Y3670444D01*
X3115371Y3668522D01*
X3113886Y3666687D01*
X3112138Y3664940D01*
X3112051Y3664852D01*
X3111701Y3664590D01*
X3111177Y3664066D01*
X3110391Y3663542D01*
X3109429Y3662843D01*
X3108294Y3662056D01*
X3106983Y3661270D01*
X3105497Y3660396D01*
X3103837Y3659522D01*
X3102002Y3658736D01*
X3099993Y3657950D01*
X3097808Y3657250D01*
X3095537Y3656726D01*
X3093090Y3656289D01*
X3090556Y3655940D01*
X3087848Y3655852D01*
X3087236D01*
X3086537Y3655940D01*
X3085663D01*
X3084527Y3656115D01*
X3083217Y3656289D01*
X3081731Y3656551D01*
X3080158Y3656814D01*
X3078411Y3657250D01*
X3076663Y3657775D01*
X3074828Y3658386D01*
X3072994Y3659173D01*
X3071071Y3660047D01*
X3069324Y3661095D01*
X3067489Y3662318D01*
X3065829Y3663716D01*
X3065741Y3663804D01*
X3065479Y3664066D01*
X3065042Y3664503D01*
X3064431Y3665202D01*
X3063732Y3665988D01*
X3063033Y3666862D01*
X3062159Y3667998D01*
X3061285Y3669308D01*
X3060411Y3670706D01*
X3059538Y3672192D01*
X3058751Y3673939D01*
X3057965Y3675774D01*
X3057266Y3677696D01*
X3056654Y3679794D01*
X3056217Y3681978D01*
X3055868Y3684250D01*
X3068275Y3685910D01*
Y3685822D01*
X3068363Y3685473D01*
X3068537Y3684949D01*
X3068712Y3684162D01*
X3068887Y3683289D01*
X3069236Y3682327D01*
X3069586Y3681192D01*
X3069935Y3680056D01*
X3070984Y3677522D01*
X3072207Y3675075D01*
X3072906Y3673852D01*
X3073693Y3672716D01*
X3074566Y3671668D01*
X3075440Y3670706D01*
X3075528Y3670619D01*
X3075702Y3670532D01*
X3075964Y3670270D01*
X3076401Y3670007D01*
X3076838Y3669658D01*
X3077450Y3669221D01*
X3078149Y3668784D01*
X3078935Y3668435D01*
X3080770Y3667561D01*
X3082867Y3666774D01*
X3085314Y3666250D01*
X3086624Y3666163D01*
X3087935Y3666075D01*
X3088809D01*
X3089420Y3666163D01*
X3090119Y3666250D01*
X3090993Y3666425D01*
X3091954Y3666600D01*
X3093090Y3666862D01*
X3094226Y3667124D01*
X3095362Y3667561D01*
X3096585Y3667998D01*
X3097896Y3668609D01*
X3099119Y3669308D01*
X3100342Y3670095D01*
X3101566Y3671056D01*
X3102701Y3672104D01*
X3102789Y3672192D01*
X3102964Y3672367D01*
X3103226Y3672716D01*
X3103663Y3673153D01*
X3104099Y3673765D01*
X3104624Y3674464D01*
X3105148Y3675337D01*
X3105760Y3676211D01*
X3106284Y3677260D01*
X3106808Y3678395D01*
X3107332Y3679619D01*
X3107769Y3680929D01*
X3108206Y3682327D01*
X3108468Y3683813D01*
X3108643Y3685386D01*
X3108730Y3687046D01*
Y3687133D01*
Y3687395D01*
Y3687832D01*
X3108643Y3688444D01*
X3108556Y3689230D01*
X3108468Y3690016D01*
X3108294Y3690978D01*
X3108031Y3692026D01*
X3107332Y3694211D01*
X3106895Y3695434D01*
X3106371Y3696570D01*
X3105760Y3697793D01*
X3104973Y3698929D01*
X3104099Y3700065D01*
X3103138Y3701113D01*
X3103051Y3701201D01*
X3102876Y3701375D01*
X3102527Y3701638D01*
X3102177Y3701987D01*
X3101566Y3702424D01*
X3100954Y3702861D01*
X3100168Y3703385D01*
X3099294Y3703909D01*
X3098333Y3704346D01*
X3097197Y3704870D01*
X3096061Y3705307D01*
X3094838Y3705744D01*
X3093440Y3706094D01*
X3092042Y3706356D01*
X3090556Y3706531D01*
X3088983Y3706618D01*
X3088372D01*
X3087585Y3706531D01*
X3086624Y3706443D01*
X3085314Y3706268D01*
X3083828Y3706094D01*
X3082168Y3705744D01*
X3080246Y3705307D01*
X3081644Y3716142D01*
X3081819D01*
X3082343Y3716055D01*
X3083042Y3715967D01*
X3084440D01*
X3084964Y3716055D01*
X3085663D01*
X3086450Y3716229D01*
X3087411Y3716317D01*
X3088372Y3716491D01*
X3090556Y3717016D01*
X3092915Y3717715D01*
X3095362Y3718763D01*
X3096585Y3719375D01*
X3097808Y3720074D01*
X3097896Y3720161D01*
X3098071Y3720249D01*
X3098420Y3720511D01*
X3098770Y3720860D01*
X3099294Y3721297D01*
X3099818Y3721821D01*
X3100342Y3722433D01*
X3100954Y3723219D01*
X3101566Y3724093D01*
X3102090Y3724967D01*
X3102614Y3726015D01*
X3103138Y3727151D01*
X3103488Y3728462D01*
X3103837Y3729773D01*
X3104012Y3731258D01*
X3104099Y3732831D01*
Y3732918D01*
Y3733093D01*
Y3733442D01*
X3104012Y3733967D01*
X3103925Y3734491D01*
X3103837Y3735190D01*
X3103488Y3736763D01*
X3102964Y3738510D01*
X3102177Y3740432D01*
X3101653Y3741306D01*
X3101041Y3742267D01*
X3100255Y3743141D01*
X3099469Y3744015D01*
X3099381Y3744102D01*
X3099294Y3744190D01*
X3099032Y3744452D01*
X3098595Y3744714D01*
X3098158Y3745063D01*
X3097634Y3745413D01*
X3097022Y3745850D01*
X3096236Y3746287D01*
X3094575Y3747160D01*
X3092478Y3747859D01*
X3090207Y3748384D01*
X3088896Y3748471D01*
X3087585Y3748558D01*
X3086886D01*
X3086362Y3748471D01*
X3085750Y3748384D01*
X3085051Y3748296D01*
X3083391Y3748034D01*
X3081556Y3747423D01*
X3079547Y3746636D01*
X3078498Y3746112D01*
X3077537Y3745500D01*
X3076576Y3744801D01*
X3075615Y3744015D01*
X3075528Y3743927D01*
X3075440Y3743840D01*
X3075178Y3743578D01*
X3074828Y3743141D01*
X3074479Y3742704D01*
X3074042Y3742093D01*
X3073518Y3741394D01*
X3073081Y3740607D01*
X3072557Y3739733D01*
X3072032Y3738685D01*
X3071508Y3737549D01*
X3070984Y3736326D01*
X3070547Y3735015D01*
X3070110Y3733617D01*
X3069761Y3732044D01*
X3069499Y3730384D01*
X3057091Y3732569D01*
Y3732743D01*
X3057179Y3733093D01*
X3057353Y3733792D01*
X3057528Y3734578D01*
X3057878Y3735627D01*
X3058227Y3736850D01*
X3058664Y3738161D01*
X3059188Y3739646D01*
X3059800Y3741131D01*
X3060586Y3742704D01*
X3061373Y3744277D01*
X3062334Y3745937D01*
X3063382Y3747510D01*
X3064606Y3748995D01*
X3065916Y3750481D01*
X3067314Y3751791D01*
X3067402Y3751879D01*
X3067664Y3752053D01*
X3068101Y3752403D01*
X3068800Y3752840D01*
X3069586Y3753364D01*
X3070460Y3753976D01*
X3071596Y3754587D01*
X3072819Y3755286D01*
X3074217Y3755898D01*
X3075702Y3756510D01*
X3077362Y3757121D01*
X3079110Y3757646D01*
X3081032Y3758082D01*
X3083042Y3758432D01*
X3085139Y3758607D01*
X3087323Y3758694D01*
X3088110D01*
X3088721Y3758607D01*
D02*
G37*
G36*
X3038393Y3657600D02*
X3024675D01*
X2971812Y3736675D01*
Y3657600D01*
X2959055D01*
Y3758345D01*
X2972686D01*
X3025636Y3679182D01*
Y3758345D01*
X3038393D01*
Y3657600D01*
D02*
G37*
G36*
X2935639D02*
X2922270D01*
Y3758345D01*
X2935639D01*
Y3657600D01*
D02*
G37*
G36*
X2909251D02*
X2894135D01*
X2882514Y3688094D01*
X2840137D01*
X2829215Y3657600D01*
X2815147D01*
X2853767Y3758345D01*
X2868097D01*
X2909251Y3657600D01*
D02*
G37*
G36*
X2772682Y3758257D02*
X2773993Y3758170D01*
X2775391Y3758082D01*
X2776964Y3757995D01*
X2780284Y3757646D01*
X2783692Y3757209D01*
X2785352Y3756859D01*
X2786925Y3756510D01*
X2788410Y3756073D01*
X2789808Y3755548D01*
X2789895D01*
X2790157Y3755461D01*
X2790507Y3755286D01*
X2790944Y3755024D01*
X2791556Y3754675D01*
X2792255Y3754325D01*
X2793827Y3753364D01*
X2795575Y3752053D01*
X2796536Y3751267D01*
X2797497Y3750393D01*
X2798371Y3749432D01*
X2799332Y3748296D01*
X2800206Y3747160D01*
X2800992Y3745937D01*
X2801079Y3745850D01*
X2801167Y3745588D01*
X2801342Y3745238D01*
X2801691Y3744714D01*
X2801953Y3744102D01*
X2802303Y3743316D01*
X2802740Y3742442D01*
X2803089Y3741481D01*
X2803526Y3740432D01*
X2803876Y3739297D01*
X2804575Y3736675D01*
X2805011Y3733879D01*
X2805099Y3732394D01*
X2805186Y3730821D01*
Y3730734D01*
Y3730384D01*
Y3729773D01*
X2805099Y3729074D01*
X2805011Y3728112D01*
X2804837Y3727064D01*
X2804575Y3725841D01*
X2804312Y3724530D01*
X2803963Y3723219D01*
X2803526Y3721734D01*
X2802914Y3720249D01*
X2802215Y3718676D01*
X2801429Y3717190D01*
X2800468Y3715618D01*
X2799419Y3714132D01*
X2798196Y3712734D01*
X2798109Y3712647D01*
X2797847Y3712385D01*
X2797497Y3712035D01*
X2796885Y3711598D01*
X2796186Y3710987D01*
X2795225Y3710288D01*
X2794177Y3709589D01*
X2792954Y3708802D01*
X2791556Y3708016D01*
X2789983Y3707230D01*
X2788148Y3706443D01*
X2786226Y3705744D01*
X2784129Y3705045D01*
X2781857Y3704434D01*
X2779410Y3703909D01*
X2776789Y3703472D01*
X2776876D01*
X2777051Y3703385D01*
X2777313Y3703210D01*
X2777663Y3703036D01*
X2778624Y3702511D01*
X2779760Y3701900D01*
X2781070Y3701113D01*
X2782468Y3700239D01*
X2783692Y3699366D01*
X2784828Y3698405D01*
X2784915Y3698317D01*
X2785090Y3698142D01*
X2785439Y3697880D01*
X2785789Y3697443D01*
X2786313Y3696919D01*
X2786925Y3696308D01*
X2787624Y3695609D01*
X2788410Y3694735D01*
X2789196Y3693774D01*
X2790070Y3692813D01*
X2791905Y3690541D01*
X2793915Y3687919D01*
X2795837Y3685036D01*
X2813312Y3657600D01*
X2796623D01*
X2783342Y3678570D01*
X2783255Y3678658D01*
X2783080Y3679007D01*
X2782818Y3679444D01*
X2782381Y3680056D01*
X2781857Y3680842D01*
X2781333Y3681716D01*
X2780634Y3682677D01*
X2779934Y3683638D01*
X2778449Y3685910D01*
X2776789Y3688182D01*
X2775216Y3690366D01*
X2774430Y3691415D01*
X2773731Y3692376D01*
Y3692463D01*
X2773556Y3692550D01*
X2773381Y3692813D01*
X2773119Y3693162D01*
X2772420Y3694036D01*
X2771459Y3695084D01*
X2770411Y3696133D01*
X2769275Y3697269D01*
X2768051Y3698317D01*
X2766915Y3699104D01*
X2766828Y3699191D01*
X2766391Y3699453D01*
X2765780Y3699715D01*
X2765081Y3700152D01*
X2764119Y3700589D01*
X2763158Y3701026D01*
X2762022Y3701463D01*
X2760887Y3701812D01*
X2760799D01*
X2760450Y3701900D01*
X2759925Y3701987D01*
X2759139Y3702074D01*
X2758090Y3702162D01*
X2756780Y3702249D01*
X2755294Y3702337D01*
X2738081D01*
Y3657600D01*
X2724713D01*
Y3758345D01*
X2771546D01*
X2772682Y3758257D01*
D02*
G37*
G36*
X2710907Y3746461D02*
X2677530D01*
Y3657600D01*
X2664161D01*
Y3746461D01*
X2630958D01*
Y3758345D01*
X2710907D01*
Y3746461D01*
D02*
G37*
G36*
X3216154Y3760005D02*
X3217115D01*
X3218251Y3759917D01*
X3219562Y3759830D01*
X3220960Y3759655D01*
X3222445Y3759480D01*
X3224018Y3759218D01*
X3227338Y3758519D01*
X3230746Y3757646D01*
X3234066Y3756422D01*
X3234154D01*
X3234416Y3756248D01*
X3234853Y3756073D01*
X3235464Y3755723D01*
X3236163Y3755374D01*
X3237037Y3754937D01*
X3237911Y3754413D01*
X3238959Y3753714D01*
X3241056Y3752228D01*
X3243241Y3750393D01*
X3245338Y3748296D01*
X3246386Y3747073D01*
X3247260Y3745762D01*
X3247347Y3745675D01*
X3247435Y3745413D01*
X3247697Y3745063D01*
X3247959Y3744539D01*
X3248308Y3743840D01*
X3248745Y3743054D01*
X3249182Y3742180D01*
X3249619Y3741131D01*
X3250056Y3740083D01*
X3250493Y3738860D01*
X3250930Y3737549D01*
X3251279Y3736151D01*
X3251891Y3733180D01*
X3252153Y3731607D01*
X3252240Y3729947D01*
X3239483Y3728986D01*
Y3729074D01*
X3239396Y3729423D01*
X3239309Y3729860D01*
X3239221Y3730559D01*
X3239047Y3731345D01*
X3238872Y3732219D01*
X3238522Y3733268D01*
X3238173Y3734404D01*
X3237299Y3736675D01*
X3236687Y3737899D01*
X3236076Y3739122D01*
X3235289Y3740258D01*
X3234416Y3741394D01*
X3233455Y3742442D01*
X3232406Y3743403D01*
X3232319Y3743491D01*
X3232144Y3743578D01*
X3231794Y3743840D01*
X3231270Y3744190D01*
X3230659Y3744539D01*
X3229960Y3744976D01*
X3228998Y3745413D01*
X3227950Y3745850D01*
X3226814Y3746287D01*
X3225503Y3746724D01*
X3224105Y3747160D01*
X3222533Y3747510D01*
X3220785Y3747859D01*
X3218950Y3748122D01*
X3216940Y3748209D01*
X3214843Y3748296D01*
X3213708D01*
X3212834Y3748209D01*
X3211873Y3748122D01*
X3210737Y3748034D01*
X3209426Y3747947D01*
X3208116Y3747772D01*
X3205145Y3747248D01*
X3202261Y3746461D01*
X3200863Y3745937D01*
X3199465Y3745326D01*
X3198242Y3744626D01*
X3197106Y3743840D01*
X3197019Y3743753D01*
X3196844Y3743665D01*
X3196582Y3743403D01*
X3196232Y3743054D01*
X3195795Y3742617D01*
X3195359Y3742093D01*
X3194397Y3740869D01*
X3193349Y3739297D01*
X3192475Y3737462D01*
X3192126Y3736413D01*
X3191864Y3735365D01*
X3191689Y3734229D01*
X3191601Y3733093D01*
Y3733005D01*
Y3732831D01*
Y3732569D01*
X3191689Y3732219D01*
X3191776Y3731171D01*
X3192126Y3729947D01*
X3192563Y3728549D01*
X3193262Y3727064D01*
X3194223Y3725579D01*
X3194834Y3724880D01*
X3195533Y3724181D01*
X3195621D01*
X3195708Y3724006D01*
X3195970Y3723831D01*
X3196407Y3723569D01*
X3196931Y3723219D01*
X3197630Y3722870D01*
X3198504Y3722433D01*
X3199465Y3721996D01*
X3200689Y3721472D01*
X3202174Y3720860D01*
X3203747Y3720336D01*
X3205669Y3719724D01*
X3207766Y3719025D01*
X3210125Y3718414D01*
X3212746Y3717715D01*
X3215630Y3717016D01*
X3215805D01*
X3216329Y3716841D01*
X3217203Y3716666D01*
X3218251Y3716404D01*
X3219649Y3716055D01*
X3221135Y3715705D01*
X3222795Y3715268D01*
X3224542Y3714831D01*
X3228299Y3713870D01*
X3231969Y3712822D01*
X3233717Y3712210D01*
X3235377Y3711686D01*
X3236862Y3711161D01*
X3238085Y3710637D01*
X3238173Y3710550D01*
X3238435Y3710462D01*
X3238959Y3710200D01*
X3239483Y3709938D01*
X3240270Y3709501D01*
X3241056Y3708977D01*
X3242017Y3708453D01*
X3242979Y3707841D01*
X3245076Y3706356D01*
X3247260Y3704521D01*
X3249270Y3702511D01*
X3250143Y3701463D01*
X3251017Y3700327D01*
X3251104Y3700239D01*
X3251192Y3700065D01*
X3251454Y3699715D01*
X3251716Y3699191D01*
X3251978Y3698667D01*
X3252415Y3697968D01*
X3252765Y3697094D01*
X3253202Y3696220D01*
X3253551Y3695172D01*
X3253988Y3694123D01*
X3254600Y3691677D01*
X3255124Y3688968D01*
X3255211Y3687483D01*
X3255299Y3685997D01*
Y3685910D01*
Y3685648D01*
Y3685211D01*
X3255211Y3684599D01*
X3255124Y3683900D01*
X3255036Y3683114D01*
X3254949Y3682153D01*
X3254687Y3681104D01*
X3254163Y3678745D01*
X3253376Y3676211D01*
X3252852Y3674900D01*
X3252240Y3673590D01*
X3251454Y3672192D01*
X3250668Y3670881D01*
X3250580Y3670794D01*
X3250493Y3670532D01*
X3250143Y3670182D01*
X3249794Y3669745D01*
X3249357Y3669134D01*
X3248745Y3668435D01*
X3248046Y3667648D01*
X3247260Y3666862D01*
X3246386Y3665988D01*
X3245425Y3665114D01*
X3244289Y3664153D01*
X3243153Y3663279D01*
X3241843Y3662318D01*
X3240445Y3661445D01*
X3238959Y3660658D01*
X3237386Y3659872D01*
X3237299D01*
X3237037Y3659697D01*
X3236513Y3659522D01*
X3235901Y3659260D01*
X3235027Y3658998D01*
X3234066Y3658649D01*
X3232930Y3658299D01*
X3231707Y3657950D01*
X3230309Y3657513D01*
X3228824Y3657163D01*
X3227251Y3656814D01*
X3225591Y3656551D01*
X3223756Y3656289D01*
X3221921Y3656115D01*
X3219999Y3656027D01*
X3217989Y3655940D01*
X3216678D01*
X3215717Y3656027D01*
X3214494D01*
X3213183Y3656115D01*
X3211611Y3656289D01*
X3209950Y3656464D01*
X3208203Y3656639D01*
X3206368Y3656901D01*
X3202523Y3657600D01*
X3198679Y3658561D01*
X3196757Y3659173D01*
X3195009Y3659872D01*
X3194922Y3659959D01*
X3194572Y3660047D01*
X3194135Y3660309D01*
X3193524Y3660658D01*
X3192737Y3661008D01*
X3191776Y3661532D01*
X3190815Y3662144D01*
X3189767Y3662843D01*
X3188543Y3663716D01*
X3187407Y3664590D01*
X3186184Y3665551D01*
X3184961Y3666600D01*
X3183825Y3667823D01*
X3182602Y3669046D01*
X3181553Y3670357D01*
X3180505Y3671842D01*
X3180417Y3671930D01*
X3180243Y3672192D01*
X3179980Y3672629D01*
X3179718Y3673240D01*
X3179281Y3674027D01*
X3178845Y3674900D01*
X3178320Y3675949D01*
X3177883Y3677172D01*
X3177359Y3678395D01*
X3176835Y3679794D01*
X3176398Y3681279D01*
X3175961Y3682939D01*
X3175350Y3686347D01*
X3175087Y3688182D01*
X3175000Y3690016D01*
X3187582Y3691152D01*
Y3691065D01*
X3187670Y3690803D01*
Y3690453D01*
X3187757Y3689929D01*
X3187844Y3689230D01*
X3188019Y3688531D01*
X3188194Y3687657D01*
X3188456Y3686784D01*
X3188980Y3684774D01*
X3189679Y3682677D01*
X3190553Y3680580D01*
X3191689Y3678658D01*
Y3678570D01*
X3191864Y3678483D01*
X3192038Y3678221D01*
X3192300Y3677871D01*
X3193087Y3676997D01*
X3194223Y3675862D01*
X3195621Y3674551D01*
X3197368Y3673240D01*
X3199465Y3672017D01*
X3201824Y3670794D01*
X3201912D01*
X3202174Y3670706D01*
X3202523Y3670532D01*
X3203048Y3670357D01*
X3203659Y3670095D01*
X3204446Y3669833D01*
X3205319Y3669571D01*
X3206368Y3669308D01*
X3207504Y3669046D01*
X3208640Y3668784D01*
X3211261Y3668260D01*
X3214232Y3667910D01*
X3217377Y3667823D01*
X3218688D01*
X3219300Y3667910D01*
X3220086D01*
X3220960Y3667998D01*
X3221921Y3668085D01*
X3224018Y3668347D01*
X3226290Y3668784D01*
X3228561Y3669308D01*
X3230833Y3670095D01*
X3230921D01*
X3231095Y3670182D01*
X3231358Y3670357D01*
X3231794Y3670532D01*
X3232843Y3671056D01*
X3234154Y3671755D01*
X3235552Y3672629D01*
X3236950Y3673677D01*
X3238348Y3674900D01*
X3239571Y3676298D01*
Y3676386D01*
X3239658Y3676473D01*
X3240008Y3676997D01*
X3240445Y3677784D01*
X3241056Y3678832D01*
X3241581Y3680143D01*
X3242017Y3681628D01*
X3242367Y3683201D01*
X3242454Y3684949D01*
Y3685036D01*
Y3685123D01*
Y3685386D01*
Y3685735D01*
X3242280Y3686609D01*
X3242105Y3687745D01*
X3241755Y3689055D01*
X3241318Y3690366D01*
X3240619Y3691851D01*
X3239658Y3693162D01*
X3239571Y3693337D01*
X3239134Y3693774D01*
X3238435Y3694385D01*
X3237474Y3695259D01*
X3236251Y3696220D01*
X3234678Y3697181D01*
X3232756Y3698142D01*
X3230571Y3699104D01*
X3230484D01*
X3230396Y3699191D01*
X3230134Y3699278D01*
X3229697Y3699366D01*
X3229173Y3699540D01*
X3228561Y3699803D01*
X3227775Y3700065D01*
X3226814Y3700327D01*
X3225678Y3700589D01*
X3224367Y3701026D01*
X3222882Y3701375D01*
X3221222Y3701812D01*
X3219387Y3702337D01*
X3217290Y3702861D01*
X3215018Y3703385D01*
X3212484Y3703997D01*
X3212310D01*
X3211873Y3704171D01*
X3211174Y3704346D01*
X3210213Y3704608D01*
X3209077Y3704870D01*
X3207766Y3705220D01*
X3206368Y3705657D01*
X3204883Y3706094D01*
X3201650Y3707055D01*
X3198417Y3708103D01*
X3196844Y3708628D01*
X3195446Y3709152D01*
X3194135Y3709763D01*
X3192999Y3710288D01*
X3192912Y3710375D01*
X3192650Y3710462D01*
X3192300Y3710725D01*
X3191864Y3710987D01*
X3191252Y3711336D01*
X3190553Y3711773D01*
X3188980Y3712909D01*
X3187233Y3714307D01*
X3185485Y3715880D01*
X3183738Y3717715D01*
X3182252Y3719724D01*
Y3719812D01*
X3182077Y3719986D01*
X3181903Y3720249D01*
X3181728Y3720685D01*
X3181466Y3721210D01*
X3181116Y3721821D01*
X3180854Y3722608D01*
X3180505Y3723394D01*
X3179893Y3725229D01*
X3179281Y3727326D01*
X3178932Y3729685D01*
X3178757Y3732219D01*
Y3732306D01*
Y3732569D01*
Y3733005D01*
X3178845Y3733530D01*
X3178932Y3734229D01*
X3179019Y3735015D01*
X3179107Y3735889D01*
X3179281Y3736937D01*
X3179806Y3739122D01*
X3180592Y3741481D01*
X3181029Y3742792D01*
X3181641Y3744015D01*
X3182252Y3745326D01*
X3183039Y3746549D01*
X3183126Y3746636D01*
X3183213Y3746811D01*
X3183475Y3747160D01*
X3183825Y3747685D01*
X3184349Y3748209D01*
X3184873Y3748821D01*
X3185485Y3749520D01*
X3186272Y3750306D01*
X3187145Y3751092D01*
X3188019Y3751966D01*
X3189068Y3752752D01*
X3190203Y3753626D01*
X3191427Y3754413D01*
X3192825Y3755199D01*
X3194223Y3755898D01*
X3195708Y3756597D01*
X3195795D01*
X3196058Y3756772D01*
X3196582Y3756947D01*
X3197194Y3757121D01*
X3197980Y3757383D01*
X3198941Y3757733D01*
X3199990Y3757995D01*
X3201213Y3758345D01*
X3202523Y3758694D01*
X3203921Y3758956D01*
X3205407Y3759306D01*
X3207067Y3759568D01*
X3210562Y3759917D01*
X3214232Y3760092D01*
X3215368D01*
X3216154Y3760005D01*
D02*
G37*
G36*
X3673393Y3657600D02*
X3659675D01*
X3606812Y3736675D01*
Y3657600D01*
X3594055D01*
Y3758345D01*
X3607686D01*
X3660636Y3679182D01*
Y3758345D01*
X3673393D01*
Y3657600D01*
D02*
G37*
G36*
X3725556Y3758607D02*
X3726517D01*
X3727741Y3758432D01*
X3729226Y3758257D01*
X3730799Y3757995D01*
X3732459Y3757733D01*
X3734294Y3757296D01*
X3736129Y3756772D01*
X3738051Y3756073D01*
X3739973Y3755286D01*
X3741895Y3754413D01*
X3743730Y3753277D01*
X3745478Y3752053D01*
X3747138Y3750655D01*
X3747225Y3750568D01*
X3747488Y3750306D01*
X3747924Y3749869D01*
X3748449Y3749257D01*
X3749148Y3748471D01*
X3749847Y3747510D01*
X3750546Y3746374D01*
X3751419Y3745151D01*
X3752206Y3743753D01*
X3752905Y3742267D01*
X3753691Y3740607D01*
X3754303Y3738860D01*
X3754827Y3737025D01*
X3755264Y3735015D01*
X3755526Y3732918D01*
X3755614Y3730734D01*
Y3730646D01*
Y3730472D01*
Y3730122D01*
Y3729685D01*
X3755526Y3729161D01*
Y3728462D01*
X3755264Y3726977D01*
X3755002Y3725142D01*
X3754565Y3723132D01*
X3753953Y3720948D01*
X3753080Y3718763D01*
Y3718676D01*
X3752992Y3718501D01*
X3752817Y3718152D01*
X3752643Y3717802D01*
X3752381Y3717190D01*
X3752031Y3716579D01*
X3751594Y3715880D01*
X3751157Y3715093D01*
X3750021Y3713259D01*
X3748623Y3711161D01*
X3746876Y3708890D01*
X3744866Y3706531D01*
X3744779Y3706443D01*
X3744604Y3706268D01*
X3744255Y3705832D01*
X3743818Y3705307D01*
X3743119Y3704696D01*
X3742332Y3703909D01*
X3741459Y3702948D01*
X3740410Y3701900D01*
X3739099Y3700676D01*
X3737701Y3699366D01*
X3736216Y3697880D01*
X3734469Y3696308D01*
X3732634Y3694647D01*
X3730537Y3692813D01*
X3728352Y3690890D01*
X3725906Y3688793D01*
X3725818Y3688706D01*
X3725381Y3688356D01*
X3724857Y3687919D01*
X3724071Y3687308D01*
X3723197Y3686521D01*
X3722236Y3685648D01*
X3721100Y3684687D01*
X3719964Y3683725D01*
X3717518Y3681628D01*
X3715158Y3679531D01*
X3714110Y3678570D01*
X3713061Y3677609D01*
X3712275Y3676823D01*
X3711576Y3676124D01*
X3711401Y3675949D01*
X3711052Y3675599D01*
X3710440Y3674900D01*
X3709741Y3674027D01*
X3708955Y3673066D01*
X3708081Y3671930D01*
X3707207Y3670706D01*
X3706421Y3669483D01*
X3755788D01*
Y3657600D01*
X3689208D01*
Y3657687D01*
Y3657775D01*
Y3658037D01*
Y3658386D01*
Y3659260D01*
X3689295Y3660309D01*
X3689470Y3661619D01*
X3689732Y3663105D01*
X3690082Y3664590D01*
X3690606Y3666163D01*
Y3666250D01*
X3690693Y3666512D01*
X3690868Y3666862D01*
X3691130Y3667299D01*
X3691392Y3667910D01*
X3691742Y3668697D01*
X3692091Y3669483D01*
X3692615Y3670357D01*
X3693664Y3672454D01*
X3695149Y3674638D01*
X3696809Y3677085D01*
X3698732Y3679531D01*
X3698819Y3679619D01*
X3698994Y3679794D01*
X3699343Y3680230D01*
X3699780Y3680667D01*
X3700392Y3681279D01*
X3701091Y3682065D01*
X3701877Y3682939D01*
X3702838Y3683900D01*
X3703974Y3684949D01*
X3705110Y3686085D01*
X3706508Y3687395D01*
X3707906Y3688706D01*
X3709479Y3690104D01*
X3711139Y3691589D01*
X3712974Y3693162D01*
X3714896Y3694735D01*
X3714984D01*
X3715071Y3694910D01*
X3715595Y3695346D01*
X3716469Y3696045D01*
X3717518Y3697007D01*
X3718916Y3698142D01*
X3720401Y3699453D01*
X3722061Y3700938D01*
X3723809Y3702511D01*
X3725644Y3704171D01*
X3727566Y3705919D01*
X3729401Y3707666D01*
X3731236Y3709501D01*
X3732896Y3711249D01*
X3734469Y3712996D01*
X3735867Y3714569D01*
X3737090Y3716142D01*
X3737177Y3716229D01*
X3737352Y3716491D01*
X3737614Y3716928D01*
X3737964Y3717453D01*
X3738400Y3718152D01*
X3738925Y3719025D01*
X3739449Y3719899D01*
X3739973Y3720948D01*
X3741022Y3723219D01*
X3741983Y3725753D01*
X3742332Y3727064D01*
X3742594Y3728375D01*
X3742769Y3729685D01*
X3742857Y3730996D01*
Y3731083D01*
Y3731345D01*
Y3731695D01*
X3742769Y3732219D01*
X3742682Y3732831D01*
X3742594Y3733617D01*
X3742420Y3734404D01*
X3742245Y3735277D01*
X3741546Y3737287D01*
X3741196Y3738248D01*
X3740672Y3739297D01*
X3740061Y3740345D01*
X3739362Y3741394D01*
X3738575Y3742442D01*
X3737614Y3743403D01*
X3737527Y3743491D01*
X3737352Y3743665D01*
X3737090Y3743840D01*
X3736653Y3744190D01*
X3736129Y3744539D01*
X3735517Y3744976D01*
X3734818Y3745500D01*
X3733944Y3745937D01*
X3732983Y3746374D01*
X3731935Y3746898D01*
X3730799Y3747335D01*
X3729575Y3747685D01*
X3728352Y3748034D01*
X3726954Y3748296D01*
X3725469Y3748384D01*
X3723896Y3748471D01*
X3723022D01*
X3722411Y3748384D01*
X3721712Y3748296D01*
X3720838Y3748209D01*
X3719789Y3748034D01*
X3718741Y3747772D01*
X3716469Y3747160D01*
X3715333Y3746724D01*
X3714110Y3746199D01*
X3712974Y3745588D01*
X3711838Y3744801D01*
X3710702Y3744015D01*
X3709654Y3743054D01*
X3709566Y3742966D01*
X3709392Y3742792D01*
X3709129Y3742529D01*
X3708867Y3742093D01*
X3708430Y3741481D01*
X3707994Y3740869D01*
X3707469Y3740083D01*
X3707032Y3739209D01*
X3706508Y3738161D01*
X3705984Y3737025D01*
X3705547Y3735802D01*
X3705198Y3734491D01*
X3704848Y3733093D01*
X3704586Y3731520D01*
X3704411Y3729947D01*
X3704324Y3728200D01*
X3691567Y3729510D01*
Y3729685D01*
X3691654Y3730122D01*
X3691742Y3730908D01*
X3691916Y3731870D01*
X3692091Y3733005D01*
X3692441Y3734404D01*
X3692790Y3735889D01*
X3693227Y3737549D01*
X3693839Y3739297D01*
X3694450Y3741044D01*
X3695237Y3742879D01*
X3696198Y3744626D01*
X3697246Y3746461D01*
X3698382Y3748122D01*
X3699780Y3749694D01*
X3701266Y3751180D01*
X3701353Y3751267D01*
X3701703Y3751529D01*
X3702139Y3751879D01*
X3702838Y3752316D01*
X3703712Y3752927D01*
X3704761Y3753539D01*
X3705984Y3754238D01*
X3707382Y3754937D01*
X3708867Y3755636D01*
X3710615Y3756335D01*
X3712537Y3756947D01*
X3714547Y3757558D01*
X3716731Y3757995D01*
X3719090Y3758345D01*
X3721537Y3758607D01*
X3724158Y3758694D01*
X3724770D01*
X3725556Y3758607D01*
D02*
G37*
G36*
X3570639Y3657600D02*
X3557270D01*
Y3758345D01*
X3570639D01*
Y3657600D01*
D02*
G37*
G36*
X3544251D02*
X3529135D01*
X3517514Y3688094D01*
X3475137D01*
X3464215Y3657600D01*
X3450147D01*
X3488767Y3758345D01*
X3503097D01*
X3544251Y3657600D01*
D02*
G37*
G36*
X3407682Y3758257D02*
X3408993Y3758170D01*
X3410391Y3758082D01*
X3411964Y3757995D01*
X3415284Y3757646D01*
X3418692Y3757209D01*
X3420352Y3756859D01*
X3421925Y3756510D01*
X3423410Y3756073D01*
X3424808Y3755548D01*
X3424895D01*
X3425157Y3755461D01*
X3425507Y3755286D01*
X3425944Y3755024D01*
X3426556Y3754675D01*
X3427255Y3754325D01*
X3428827Y3753364D01*
X3430575Y3752053D01*
X3431536Y3751267D01*
X3432497Y3750393D01*
X3433371Y3749432D01*
X3434332Y3748296D01*
X3435206Y3747160D01*
X3435992Y3745937D01*
X3436079Y3745850D01*
X3436167Y3745588D01*
X3436342Y3745238D01*
X3436691Y3744714D01*
X3436953Y3744102D01*
X3437303Y3743316D01*
X3437740Y3742442D01*
X3438089Y3741481D01*
X3438526Y3740432D01*
X3438876Y3739297D01*
X3439575Y3736675D01*
X3440011Y3733879D01*
X3440099Y3732394D01*
X3440186Y3730821D01*
Y3730734D01*
Y3730384D01*
Y3729773D01*
X3440099Y3729074D01*
X3440011Y3728112D01*
X3439837Y3727064D01*
X3439575Y3725841D01*
X3439312Y3724530D01*
X3438963Y3723219D01*
X3438526Y3721734D01*
X3437914Y3720249D01*
X3437215Y3718676D01*
X3436429Y3717190D01*
X3435468Y3715618D01*
X3434419Y3714132D01*
X3433196Y3712734D01*
X3433109Y3712647D01*
X3432847Y3712385D01*
X3432497Y3712035D01*
X3431885Y3711598D01*
X3431186Y3710987D01*
X3430225Y3710288D01*
X3429177Y3709589D01*
X3427954Y3708802D01*
X3426556Y3708016D01*
X3424983Y3707230D01*
X3423148Y3706443D01*
X3421226Y3705744D01*
X3419129Y3705045D01*
X3416857Y3704434D01*
X3414410Y3703909D01*
X3411789Y3703472D01*
X3411876D01*
X3412051Y3703385D01*
X3412313Y3703210D01*
X3412663Y3703036D01*
X3413624Y3702511D01*
X3414760Y3701900D01*
X3416070Y3701113D01*
X3417468Y3700239D01*
X3418692Y3699366D01*
X3419828Y3698405D01*
X3419915Y3698317D01*
X3420090Y3698142D01*
X3420439Y3697880D01*
X3420789Y3697443D01*
X3421313Y3696919D01*
X3421925Y3696308D01*
X3422624Y3695609D01*
X3423410Y3694735D01*
X3424196Y3693774D01*
X3425070Y3692813D01*
X3426905Y3690541D01*
X3428915Y3687919D01*
X3430837Y3685036D01*
X3448312Y3657600D01*
X3431623D01*
X3418342Y3678570D01*
X3418255Y3678658D01*
X3418080Y3679007D01*
X3417818Y3679444D01*
X3417381Y3680056D01*
X3416857Y3680842D01*
X3416333Y3681716D01*
X3415634Y3682677D01*
X3414934Y3683638D01*
X3413449Y3685910D01*
X3411789Y3688182D01*
X3410216Y3690366D01*
X3409430Y3691415D01*
X3408731Y3692376D01*
Y3692463D01*
X3408556Y3692550D01*
X3408381Y3692813D01*
X3408119Y3693162D01*
X3407420Y3694036D01*
X3406459Y3695084D01*
X3405411Y3696133D01*
X3404275Y3697269D01*
X3403051Y3698317D01*
X3401915Y3699104D01*
X3401828Y3699191D01*
X3401391Y3699453D01*
X3400780Y3699715D01*
X3400081Y3700152D01*
X3399119Y3700589D01*
X3398158Y3701026D01*
X3397022Y3701463D01*
X3395887Y3701812D01*
X3395799D01*
X3395450Y3701900D01*
X3394925Y3701987D01*
X3394139Y3702074D01*
X3393090Y3702162D01*
X3391780Y3702249D01*
X3390294Y3702337D01*
X3373081D01*
Y3657600D01*
X3359713D01*
Y3758345D01*
X3406546D01*
X3407682Y3758257D01*
D02*
G37*
G36*
X3345907Y3746461D02*
X3312530D01*
Y3657600D01*
X3299161D01*
Y3746461D01*
X3265958D01*
Y3758345D01*
X3345907D01*
Y3746461D01*
D02*
G37*
G36*
X3851154Y3760005D02*
X3852115D01*
X3853251Y3759917D01*
X3854562Y3759830D01*
X3855960Y3759655D01*
X3857445Y3759480D01*
X3859018Y3759218D01*
X3862338Y3758519D01*
X3865746Y3757646D01*
X3869066Y3756422D01*
X3869154D01*
X3869416Y3756248D01*
X3869853Y3756073D01*
X3870464Y3755723D01*
X3871163Y3755374D01*
X3872037Y3754937D01*
X3872911Y3754413D01*
X3873959Y3753714D01*
X3876056Y3752228D01*
X3878241Y3750393D01*
X3880338Y3748296D01*
X3881386Y3747073D01*
X3882260Y3745762D01*
X3882347Y3745675D01*
X3882435Y3745413D01*
X3882697Y3745063D01*
X3882959Y3744539D01*
X3883308Y3743840D01*
X3883745Y3743054D01*
X3884182Y3742180D01*
X3884619Y3741131D01*
X3885056Y3740083D01*
X3885493Y3738860D01*
X3885930Y3737549D01*
X3886279Y3736151D01*
X3886891Y3733180D01*
X3887153Y3731607D01*
X3887240Y3729947D01*
X3874483Y3728986D01*
Y3729074D01*
X3874396Y3729423D01*
X3874309Y3729860D01*
X3874221Y3730559D01*
X3874047Y3731345D01*
X3873872Y3732219D01*
X3873522Y3733268D01*
X3873173Y3734404D01*
X3872299Y3736675D01*
X3871687Y3737899D01*
X3871076Y3739122D01*
X3870289Y3740258D01*
X3869416Y3741394D01*
X3868455Y3742442D01*
X3867406Y3743403D01*
X3867319Y3743491D01*
X3867144Y3743578D01*
X3866794Y3743840D01*
X3866270Y3744190D01*
X3865659Y3744539D01*
X3864960Y3744976D01*
X3863998Y3745413D01*
X3862950Y3745850D01*
X3861814Y3746287D01*
X3860503Y3746724D01*
X3859105Y3747160D01*
X3857533Y3747510D01*
X3855785Y3747859D01*
X3853950Y3748122D01*
X3851940Y3748209D01*
X3849843Y3748296D01*
X3848708D01*
X3847834Y3748209D01*
X3846873Y3748122D01*
X3845737Y3748034D01*
X3844426Y3747947D01*
X3843116Y3747772D01*
X3840145Y3747248D01*
X3837261Y3746461D01*
X3835863Y3745937D01*
X3834465Y3745326D01*
X3833242Y3744626D01*
X3832106Y3743840D01*
X3832019Y3743753D01*
X3831844Y3743665D01*
X3831582Y3743403D01*
X3831232Y3743054D01*
X3830795Y3742617D01*
X3830359Y3742093D01*
X3829397Y3740869D01*
X3828349Y3739297D01*
X3827475Y3737462D01*
X3827126Y3736413D01*
X3826864Y3735365D01*
X3826689Y3734229D01*
X3826601Y3733093D01*
Y3733005D01*
Y3732831D01*
Y3732569D01*
X3826689Y3732219D01*
X3826776Y3731171D01*
X3827126Y3729947D01*
X3827563Y3728549D01*
X3828262Y3727064D01*
X3829223Y3725579D01*
X3829834Y3724880D01*
X3830533Y3724181D01*
X3830621D01*
X3830708Y3724006D01*
X3830970Y3723831D01*
X3831407Y3723569D01*
X3831931Y3723219D01*
X3832630Y3722870D01*
X3833504Y3722433D01*
X3834465Y3721996D01*
X3835689Y3721472D01*
X3837174Y3720860D01*
X3838747Y3720336D01*
X3840669Y3719724D01*
X3842766Y3719025D01*
X3845125Y3718414D01*
X3847746Y3717715D01*
X3850630Y3717016D01*
X3850805D01*
X3851329Y3716841D01*
X3852203Y3716666D01*
X3853251Y3716404D01*
X3854649Y3716055D01*
X3856135Y3715705D01*
X3857795Y3715268D01*
X3859542Y3714831D01*
X3863299Y3713870D01*
X3866969Y3712822D01*
X3868717Y3712210D01*
X3870377Y3711686D01*
X3871862Y3711161D01*
X3873085Y3710637D01*
X3873173Y3710550D01*
X3873435Y3710462D01*
X3873959Y3710200D01*
X3874483Y3709938D01*
X3875270Y3709501D01*
X3876056Y3708977D01*
X3877017Y3708453D01*
X3877979Y3707841D01*
X3880076Y3706356D01*
X3882260Y3704521D01*
X3884270Y3702511D01*
X3885143Y3701463D01*
X3886017Y3700327D01*
X3886104Y3700239D01*
X3886192Y3700065D01*
X3886454Y3699715D01*
X3886716Y3699191D01*
X3886978Y3698667D01*
X3887415Y3697968D01*
X3887765Y3697094D01*
X3888202Y3696220D01*
X3888551Y3695172D01*
X3888988Y3694123D01*
X3889600Y3691677D01*
X3890124Y3688968D01*
X3890211Y3687483D01*
X3890299Y3685997D01*
Y3685910D01*
Y3685648D01*
Y3685211D01*
X3890211Y3684599D01*
X3890124Y3683900D01*
X3890036Y3683114D01*
X3889949Y3682153D01*
X3889687Y3681104D01*
X3889163Y3678745D01*
X3888376Y3676211D01*
X3887852Y3674900D01*
X3887240Y3673590D01*
X3886454Y3672192D01*
X3885668Y3670881D01*
X3885580Y3670794D01*
X3885493Y3670532D01*
X3885143Y3670182D01*
X3884794Y3669745D01*
X3884357Y3669134D01*
X3883745Y3668435D01*
X3883046Y3667648D01*
X3882260Y3666862D01*
X3881386Y3665988D01*
X3880425Y3665114D01*
X3879289Y3664153D01*
X3878153Y3663279D01*
X3876843Y3662318D01*
X3875445Y3661445D01*
X3873959Y3660658D01*
X3872386Y3659872D01*
X3872299D01*
X3872037Y3659697D01*
X3871513Y3659522D01*
X3870901Y3659260D01*
X3870027Y3658998D01*
X3869066Y3658649D01*
X3867930Y3658299D01*
X3866707Y3657950D01*
X3865309Y3657513D01*
X3863824Y3657163D01*
X3862251Y3656814D01*
X3860591Y3656551D01*
X3858756Y3656289D01*
X3856921Y3656115D01*
X3854999Y3656027D01*
X3852989Y3655940D01*
X3851678D01*
X3850717Y3656027D01*
X3849494D01*
X3848183Y3656115D01*
X3846611Y3656289D01*
X3844950Y3656464D01*
X3843203Y3656639D01*
X3841368Y3656901D01*
X3837523Y3657600D01*
X3833679Y3658561D01*
X3831757Y3659173D01*
X3830009Y3659872D01*
X3829922Y3659959D01*
X3829572Y3660047D01*
X3829135Y3660309D01*
X3828524Y3660658D01*
X3827737Y3661008D01*
X3826776Y3661532D01*
X3825815Y3662144D01*
X3824767Y3662843D01*
X3823543Y3663716D01*
X3822407Y3664590D01*
X3821184Y3665551D01*
X3819961Y3666600D01*
X3818825Y3667823D01*
X3817602Y3669046D01*
X3816553Y3670357D01*
X3815505Y3671842D01*
X3815417Y3671930D01*
X3815243Y3672192D01*
X3814980Y3672629D01*
X3814718Y3673240D01*
X3814281Y3674027D01*
X3813845Y3674900D01*
X3813320Y3675949D01*
X3812883Y3677172D01*
X3812359Y3678395D01*
X3811835Y3679794D01*
X3811398Y3681279D01*
X3810961Y3682939D01*
X3810350Y3686347D01*
X3810087Y3688182D01*
X3810000Y3690016D01*
X3822582Y3691152D01*
Y3691065D01*
X3822670Y3690803D01*
Y3690453D01*
X3822757Y3689929D01*
X3822844Y3689230D01*
X3823019Y3688531D01*
X3823194Y3687657D01*
X3823456Y3686784D01*
X3823980Y3684774D01*
X3824679Y3682677D01*
X3825553Y3680580D01*
X3826689Y3678658D01*
Y3678570D01*
X3826864Y3678483D01*
X3827038Y3678221D01*
X3827300Y3677871D01*
X3828087Y3676997D01*
X3829223Y3675862D01*
X3830621Y3674551D01*
X3832368Y3673240D01*
X3834465Y3672017D01*
X3836824Y3670794D01*
X3836912D01*
X3837174Y3670706D01*
X3837523Y3670532D01*
X3838048Y3670357D01*
X3838659Y3670095D01*
X3839446Y3669833D01*
X3840319Y3669571D01*
X3841368Y3669308D01*
X3842504Y3669046D01*
X3843640Y3668784D01*
X3846261Y3668260D01*
X3849232Y3667910D01*
X3852377Y3667823D01*
X3853688D01*
X3854300Y3667910D01*
X3855086D01*
X3855960Y3667998D01*
X3856921Y3668085D01*
X3859018Y3668347D01*
X3861290Y3668784D01*
X3863561Y3669308D01*
X3865833Y3670095D01*
X3865921D01*
X3866095Y3670182D01*
X3866358Y3670357D01*
X3866794Y3670532D01*
X3867843Y3671056D01*
X3869154Y3671755D01*
X3870552Y3672629D01*
X3871950Y3673677D01*
X3873348Y3674900D01*
X3874571Y3676298D01*
Y3676386D01*
X3874658Y3676473D01*
X3875008Y3676997D01*
X3875445Y3677784D01*
X3876056Y3678832D01*
X3876581Y3680143D01*
X3877017Y3681628D01*
X3877367Y3683201D01*
X3877454Y3684949D01*
Y3685036D01*
Y3685123D01*
Y3685386D01*
Y3685735D01*
X3877280Y3686609D01*
X3877105Y3687745D01*
X3876755Y3689055D01*
X3876318Y3690366D01*
X3875619Y3691851D01*
X3874658Y3693162D01*
X3874571Y3693337D01*
X3874134Y3693774D01*
X3873435Y3694385D01*
X3872474Y3695259D01*
X3871251Y3696220D01*
X3869678Y3697181D01*
X3867756Y3698142D01*
X3865571Y3699104D01*
X3865484D01*
X3865396Y3699191D01*
X3865134Y3699278D01*
X3864697Y3699366D01*
X3864173Y3699540D01*
X3863561Y3699803D01*
X3862775Y3700065D01*
X3861814Y3700327D01*
X3860678Y3700589D01*
X3859367Y3701026D01*
X3857882Y3701375D01*
X3856222Y3701812D01*
X3854387Y3702337D01*
X3852290Y3702861D01*
X3850018Y3703385D01*
X3847484Y3703997D01*
X3847310D01*
X3846873Y3704171D01*
X3846174Y3704346D01*
X3845213Y3704608D01*
X3844077Y3704870D01*
X3842766Y3705220D01*
X3841368Y3705657D01*
X3839883Y3706094D01*
X3836650Y3707055D01*
X3833417Y3708103D01*
X3831844Y3708628D01*
X3830446Y3709152D01*
X3829135Y3709763D01*
X3827999Y3710288D01*
X3827912Y3710375D01*
X3827650Y3710462D01*
X3827300Y3710725D01*
X3826864Y3710987D01*
X3826252Y3711336D01*
X3825553Y3711773D01*
X3823980Y3712909D01*
X3822233Y3714307D01*
X3820485Y3715880D01*
X3818738Y3717715D01*
X3817252Y3719724D01*
Y3719812D01*
X3817077Y3719986D01*
X3816903Y3720249D01*
X3816728Y3720685D01*
X3816466Y3721210D01*
X3816116Y3721821D01*
X3815854Y3722608D01*
X3815505Y3723394D01*
X3814893Y3725229D01*
X3814281Y3727326D01*
X3813932Y3729685D01*
X3813757Y3732219D01*
Y3732306D01*
Y3732569D01*
Y3733005D01*
X3813845Y3733530D01*
X3813932Y3734229D01*
X3814019Y3735015D01*
X3814107Y3735889D01*
X3814281Y3736937D01*
X3814806Y3739122D01*
X3815592Y3741481D01*
X3816029Y3742792D01*
X3816641Y3744015D01*
X3817252Y3745326D01*
X3818039Y3746549D01*
X3818126Y3746636D01*
X3818213Y3746811D01*
X3818475Y3747160D01*
X3818825Y3747685D01*
X3819349Y3748209D01*
X3819873Y3748821D01*
X3820485Y3749520D01*
X3821272Y3750306D01*
X3822145Y3751092D01*
X3823019Y3751966D01*
X3824068Y3752752D01*
X3825203Y3753626D01*
X3826427Y3754413D01*
X3827825Y3755199D01*
X3829223Y3755898D01*
X3830708Y3756597D01*
X3830795D01*
X3831058Y3756772D01*
X3831582Y3756947D01*
X3832194Y3757121D01*
X3832980Y3757383D01*
X3833941Y3757733D01*
X3834990Y3757995D01*
X3836213Y3758345D01*
X3837523Y3758694D01*
X3838921Y3758956D01*
X3840407Y3759306D01*
X3842067Y3759568D01*
X3845562Y3759917D01*
X3849232Y3760092D01*
X3850368D01*
X3851154Y3760005D01*
D02*
G37*
G36*
X4308393Y3657600D02*
X4294675D01*
X4241812Y3736675D01*
Y3657600D01*
X4229055D01*
Y3758345D01*
X4242686D01*
X4295636Y3679182D01*
Y3758345D01*
X4308393D01*
Y3657600D01*
D02*
G37*
G36*
X4372352D02*
X4359945D01*
Y3736326D01*
X4359857Y3736238D01*
X4359770Y3736151D01*
X4359508Y3735889D01*
X4359158Y3735627D01*
X4358634Y3735190D01*
X4358110Y3734753D01*
X4357498Y3734229D01*
X4356799Y3733617D01*
X4355051Y3732394D01*
X4353042Y3730908D01*
X4350770Y3729336D01*
X4348149Y3727763D01*
X4348061Y3727676D01*
X4347799Y3727588D01*
X4347450Y3727326D01*
X4346926Y3727064D01*
X4346314Y3726714D01*
X4345615Y3726365D01*
X4344741Y3725841D01*
X4343867Y3725404D01*
X4341858Y3724355D01*
X4339673Y3723307D01*
X4337402Y3722258D01*
X4335217Y3721384D01*
Y3733355D01*
X4335305Y3733442D01*
X4335654Y3733617D01*
X4336266Y3733879D01*
X4336965Y3734229D01*
X4337838Y3734666D01*
X4338887Y3735277D01*
X4340023Y3735889D01*
X4341333Y3736675D01*
X4342731Y3737462D01*
X4344129Y3738423D01*
X4347188Y3740432D01*
X4350333Y3742704D01*
X4353304Y3745151D01*
X4353391Y3745238D01*
X4353653Y3745500D01*
X4354003Y3745850D01*
X4354615Y3746374D01*
X4355226Y3746986D01*
X4355925Y3747685D01*
X4356712Y3748558D01*
X4357585Y3749432D01*
X4359420Y3751529D01*
X4361255Y3753801D01*
X4362915Y3756248D01*
X4363702Y3757471D01*
X4364313Y3758694D01*
X4372352D01*
Y3657600D01*
D02*
G37*
G36*
X4205639D02*
X4192270D01*
Y3758345D01*
X4205639D01*
Y3657600D01*
D02*
G37*
G36*
X4179251D02*
X4164135D01*
X4152514Y3688094D01*
X4110137D01*
X4099215Y3657600D01*
X4085147D01*
X4123767Y3758345D01*
X4138097D01*
X4179251Y3657600D01*
D02*
G37*
G36*
X4042682Y3758257D02*
X4043993Y3758170D01*
X4045391Y3758082D01*
X4046964Y3757995D01*
X4050284Y3757646D01*
X4053692Y3757209D01*
X4055352Y3756859D01*
X4056925Y3756510D01*
X4058410Y3756073D01*
X4059808Y3755548D01*
X4059895D01*
X4060157Y3755461D01*
X4060507Y3755286D01*
X4060944Y3755024D01*
X4061556Y3754675D01*
X4062255Y3754325D01*
X4063827Y3753364D01*
X4065575Y3752053D01*
X4066536Y3751267D01*
X4067497Y3750393D01*
X4068371Y3749432D01*
X4069332Y3748296D01*
X4070206Y3747160D01*
X4070992Y3745937D01*
X4071079Y3745850D01*
X4071167Y3745588D01*
X4071342Y3745238D01*
X4071691Y3744714D01*
X4071953Y3744102D01*
X4072303Y3743316D01*
X4072740Y3742442D01*
X4073089Y3741481D01*
X4073526Y3740432D01*
X4073876Y3739297D01*
X4074575Y3736675D01*
X4075011Y3733879D01*
X4075099Y3732394D01*
X4075186Y3730821D01*
Y3730734D01*
Y3730384D01*
Y3729773D01*
X4075099Y3729074D01*
X4075011Y3728112D01*
X4074837Y3727064D01*
X4074575Y3725841D01*
X4074312Y3724530D01*
X4073963Y3723219D01*
X4073526Y3721734D01*
X4072914Y3720249D01*
X4072215Y3718676D01*
X4071429Y3717190D01*
X4070468Y3715618D01*
X4069419Y3714132D01*
X4068196Y3712734D01*
X4068109Y3712647D01*
X4067847Y3712385D01*
X4067497Y3712035D01*
X4066885Y3711598D01*
X4066186Y3710987D01*
X4065225Y3710288D01*
X4064177Y3709589D01*
X4062954Y3708802D01*
X4061556Y3708016D01*
X4059983Y3707230D01*
X4058148Y3706443D01*
X4056226Y3705744D01*
X4054129Y3705045D01*
X4051857Y3704434D01*
X4049410Y3703909D01*
X4046789Y3703472D01*
X4046876D01*
X4047051Y3703385D01*
X4047313Y3703210D01*
X4047663Y3703036D01*
X4048624Y3702511D01*
X4049760Y3701900D01*
X4051070Y3701113D01*
X4052468Y3700239D01*
X4053692Y3699366D01*
X4054828Y3698405D01*
X4054915Y3698317D01*
X4055090Y3698142D01*
X4055439Y3697880D01*
X4055789Y3697443D01*
X4056313Y3696919D01*
X4056925Y3696308D01*
X4057624Y3695609D01*
X4058410Y3694735D01*
X4059196Y3693774D01*
X4060070Y3692813D01*
X4061905Y3690541D01*
X4063915Y3687919D01*
X4065837Y3685036D01*
X4083312Y3657600D01*
X4066623D01*
X4053342Y3678570D01*
X4053255Y3678658D01*
X4053080Y3679007D01*
X4052818Y3679444D01*
X4052381Y3680056D01*
X4051857Y3680842D01*
X4051333Y3681716D01*
X4050634Y3682677D01*
X4049934Y3683638D01*
X4048449Y3685910D01*
X4046789Y3688182D01*
X4045216Y3690366D01*
X4044430Y3691415D01*
X4043731Y3692376D01*
Y3692463D01*
X4043556Y3692550D01*
X4043381Y3692813D01*
X4043119Y3693162D01*
X4042420Y3694036D01*
X4041459Y3695084D01*
X4040411Y3696133D01*
X4039275Y3697269D01*
X4038051Y3698317D01*
X4036915Y3699104D01*
X4036828Y3699191D01*
X4036391Y3699453D01*
X4035780Y3699715D01*
X4035081Y3700152D01*
X4034119Y3700589D01*
X4033158Y3701026D01*
X4032022Y3701463D01*
X4030887Y3701812D01*
X4030799D01*
X4030450Y3701900D01*
X4029925Y3701987D01*
X4029139Y3702074D01*
X4028090Y3702162D01*
X4026780Y3702249D01*
X4025294Y3702337D01*
X4008081D01*
Y3657600D01*
X3994713D01*
Y3758345D01*
X4041546D01*
X4042682Y3758257D01*
D02*
G37*
G36*
X3980907Y3746461D02*
X3947530D01*
Y3657600D01*
X3934161D01*
Y3746461D01*
X3900958D01*
Y3758345D01*
X3980907D01*
Y3746461D01*
D02*
G37*
G36*
X1459062Y730964D02*
Y730745D01*
Y730308D01*
Y729435D01*
X1458953Y728342D01*
Y727032D01*
X1458844Y725503D01*
X1458735Y723864D01*
X1458625Y722008D01*
X1458079Y718076D01*
X1457424Y714035D01*
X1456441Y710103D01*
X1455786Y708246D01*
X1455130Y706498D01*
Y706389D01*
X1454912Y706171D01*
X1454694Y705625D01*
X1454366Y705079D01*
X1454038Y704314D01*
X1453492Y703550D01*
X1452182Y701584D01*
X1450543Y699508D01*
X1448359Y697324D01*
X1445956Y695140D01*
X1443007Y693283D01*
X1442898D01*
X1442679Y693064D01*
X1442133Y692846D01*
X1441587Y692628D01*
X1440713Y692300D01*
X1439840Y691863D01*
X1438747Y691426D01*
X1437437Y691098D01*
X1436126Y690662D01*
X1434597Y690225D01*
X1433068Y689897D01*
X1431320Y689460D01*
X1427607Y689023D01*
X1423566Y688805D01*
X1422801D01*
X1421928Y688914D01*
X1420835D01*
X1419415Y689132D01*
X1417886Y689351D01*
X1416030Y689569D01*
X1414173Y690006D01*
X1412098Y690552D01*
X1410023Y691098D01*
X1407947Y691863D01*
X1405872Y692846D01*
X1403797Y693938D01*
X1401722Y695140D01*
X1399865Y696669D01*
X1398118Y698307D01*
X1398008Y698416D01*
X1397790Y698744D01*
X1397353Y699290D01*
X1396698Y700054D01*
X1396042Y701037D01*
X1395387Y702348D01*
X1394513Y703768D01*
X1393749Y705406D01*
X1392984Y707263D01*
X1392220Y709338D01*
X1391455Y711741D01*
X1390800Y714253D01*
X1390363Y716984D01*
X1389926Y720042D01*
X1389708Y723209D01*
Y726595D01*
X1404780Y728670D01*
Y728561D01*
Y728015D01*
X1404889Y727359D01*
X1404998Y726376D01*
X1405108Y725175D01*
X1405217Y723864D01*
X1405435Y722335D01*
X1405654Y720806D01*
X1406309Y717530D01*
X1407292Y714253D01*
X1407838Y712724D01*
X1408493Y711304D01*
X1409258Y709993D01*
X1410132Y708901D01*
X1410241Y708792D01*
X1410350Y708683D01*
X1410678Y708464D01*
X1411006Y708137D01*
X1412098Y707263D01*
X1413627Y706280D01*
X1415484Y705297D01*
X1417777Y704533D01*
X1420398Y703877D01*
X1421928Y703768D01*
X1423457Y703659D01*
X1424549D01*
X1425750Y703768D01*
X1427170Y703986D01*
X1428918Y704314D01*
X1430665Y704860D01*
X1432522Y705515D01*
X1434269Y706498D01*
X1434488Y706608D01*
X1435034Y707045D01*
X1435799Y707700D01*
X1436781Y708574D01*
X1437874Y709666D01*
X1438857Y710976D01*
X1439840Y712506D01*
X1440604Y714253D01*
Y714362D01*
X1440713Y714472D01*
X1440823Y714799D01*
X1440932Y715236D01*
X1441041Y715782D01*
X1441150Y716437D01*
X1441369Y717202D01*
X1441478Y718076D01*
X1441696Y719168D01*
X1441806Y720369D01*
X1441915Y721680D01*
X1442133Y723100D01*
X1442242Y724629D01*
Y726267D01*
X1442352Y728124D01*
Y730090D01*
Y816811D01*
X1459062D01*
Y730964D01*
D02*
G37*
G36*
X1655658Y690880D02*
X1640149D01*
Y789287D01*
X1640040Y789178D01*
X1639931Y789069D01*
X1639603Y788741D01*
X1639166Y788413D01*
X1638511Y787867D01*
X1637855Y787321D01*
X1637091Y786666D01*
X1636217Y785901D01*
X1634033Y784372D01*
X1631521Y782516D01*
X1628681Y780550D01*
X1625404Y778584D01*
X1625295Y778474D01*
X1624968Y778365D01*
X1624531Y778038D01*
X1623875Y777710D01*
X1623111Y777273D01*
X1622237Y776836D01*
X1621145Y776181D01*
X1620053Y775635D01*
X1617541Y774324D01*
X1614810Y773013D01*
X1611970Y771703D01*
X1609240Y770611D01*
Y785574D01*
X1609349Y785683D01*
X1609786Y785901D01*
X1610550Y786229D01*
X1611424Y786666D01*
X1612516Y787212D01*
X1613827Y787977D01*
X1615247Y788741D01*
X1616885Y789724D01*
X1618633Y790707D01*
X1620380Y791908D01*
X1624203Y794421D01*
X1628135Y797260D01*
X1631848Y800318D01*
X1631958Y800428D01*
X1632285Y800755D01*
X1632722Y801192D01*
X1633487Y801848D01*
X1634251Y802612D01*
X1635125Y803486D01*
X1636108Y804578D01*
X1637200Y805670D01*
X1639494Y808291D01*
X1641787Y811131D01*
X1643863Y814189D01*
X1644846Y815718D01*
X1645610Y817248D01*
X1655658D01*
Y690880D01*
D02*
G37*
G36*
X1538138Y816701D02*
X1540868D01*
X1543926Y816483D01*
X1547094Y816265D01*
X1550152Y816046D01*
X1551572Y815828D01*
X1552882Y815609D01*
X1552992D01*
X1553319Y815500D01*
X1553756Y815391D01*
X1554411Y815282D01*
X1555176Y815063D01*
X1556159Y814845D01*
X1558343Y814299D01*
X1560746Y813425D01*
X1563367Y812442D01*
X1565989Y811131D01*
X1568392Y809602D01*
X1568501D01*
X1568719Y809384D01*
X1569047Y809165D01*
X1569484Y808838D01*
X1570576Y807855D01*
X1571996Y806544D01*
X1573634Y804796D01*
X1575382Y802721D01*
X1577020Y800209D01*
X1578549Y797479D01*
Y797369D01*
X1578767Y797151D01*
X1578877Y796714D01*
X1579204Y796168D01*
X1579423Y795404D01*
X1579750Y794530D01*
X1580187Y793547D01*
X1580515Y792455D01*
X1580843Y791253D01*
X1581280Y789943D01*
X1581826Y786994D01*
X1582263Y783717D01*
X1582481Y780331D01*
Y780113D01*
Y779676D01*
X1582372Y778802D01*
Y777601D01*
X1582153Y776290D01*
X1581935Y774652D01*
X1581607Y772904D01*
X1581170Y770938D01*
X1580624Y768863D01*
X1579969Y766679D01*
X1579095Y764385D01*
X1578112Y762091D01*
X1577020Y759798D01*
X1575600Y757504D01*
X1574071Y755320D01*
X1572214Y753135D01*
X1572105Y753026D01*
X1571777Y752699D01*
X1571122Y752152D01*
X1570248Y751388D01*
X1569047Y750623D01*
X1567518Y749640D01*
X1565770Y748657D01*
X1563695Y747674D01*
X1561402Y746582D01*
X1558671Y745599D01*
X1555613Y744616D01*
X1552227Y743852D01*
X1548514Y743087D01*
X1544472Y742541D01*
X1539994Y742213D01*
X1535189Y742104D01*
X1502969D01*
Y690880D01*
X1486258D01*
Y816811D01*
X1536936D01*
X1538138Y816701D01*
D02*
G37*
%LPC*%
G36*
X5453953Y243417D02*
Y243329D01*
X5453866Y242980D01*
X5453779Y242455D01*
X5453604Y241756D01*
X5453429Y240883D01*
X5453167Y239834D01*
X5452817Y238698D01*
X5452555Y237388D01*
X5452118Y235990D01*
X5451769Y234417D01*
X5450808Y231184D01*
X5449759Y227689D01*
X5448536Y224106D01*
X5437439Y194573D01*
X5471603D01*
X5461031Y222446D01*
X5460943Y222621D01*
X5460856Y222971D01*
X5460594Y223670D01*
X5460244Y224543D01*
X5459895Y225679D01*
X5459458Y226903D01*
X5458934Y228301D01*
X5458409Y229873D01*
X5457798Y231446D01*
X5457274Y233194D01*
X5456050Y236689D01*
X5454914Y240184D01*
X5454390Y241844D01*
X5453953Y243417D01*
D02*
G37*
G36*
X5363257Y242892D02*
X5331452D01*
Y209515D01*
X5361509D01*
X5362296Y209602D01*
X5363170D01*
X5364131Y209689D01*
X5365179Y209777D01*
X5367538Y209952D01*
X5369898Y210301D01*
X5372169Y210738D01*
X5373218Y211000D01*
X5374266Y211350D01*
X5374354D01*
X5374528Y211437D01*
X5374791Y211524D01*
X5375140Y211699D01*
X5376014Y212136D01*
X5377150Y212835D01*
X5378460Y213709D01*
X5379771Y214670D01*
X5380994Y215981D01*
X5382130Y217379D01*
Y217466D01*
X5382218Y217553D01*
X5382392Y217815D01*
X5382567Y218078D01*
X5383004Y218951D01*
X5383528Y220087D01*
X5383965Y221485D01*
X5384402Y222971D01*
X5384751Y224631D01*
X5384839Y226466D01*
Y226553D01*
Y226815D01*
Y227165D01*
X5384751Y227689D01*
X5384664Y228301D01*
X5384577Y229000D01*
X5384227Y230660D01*
X5383528Y232495D01*
X5383179Y233456D01*
X5382654Y234504D01*
X5382043Y235465D01*
X5381344Y236427D01*
X5380557Y237388D01*
X5379596Y238261D01*
X5379509Y238349D01*
X5379334Y238436D01*
X5379072Y238698D01*
X5378635Y238960D01*
X5378024Y239310D01*
X5377412Y239747D01*
X5376538Y240184D01*
X5375664Y240621D01*
X5374528Y240970D01*
X5373305Y241407D01*
X5371995Y241844D01*
X5370509Y242193D01*
X5368936Y242455D01*
X5367189Y242718D01*
X5365267Y242805D01*
X5363257Y242892D01*
D02*
G37*
G36*
X5047878Y207680D02*
X5047092D01*
X5046480Y207592D01*
X5045781Y207505D01*
X5044908Y207330D01*
X5043946Y207156D01*
X5042985Y206893D01*
X5041849Y206631D01*
X5040714Y206194D01*
X5039578Y205758D01*
X5038354Y205146D01*
X5037131Y204447D01*
X5035908Y203661D01*
X5034772Y202699D01*
X5033636Y201651D01*
X5033549Y201563D01*
X5033374Y201389D01*
X5033112Y201039D01*
X5032762Y200602D01*
X5032325Y199991D01*
X5031801Y199204D01*
X5031277Y198418D01*
X5030753Y197457D01*
X5030228Y196321D01*
X5029704Y195185D01*
X5029180Y193874D01*
X5028743Y192476D01*
X5028394Y190904D01*
X5028131Y189331D01*
X5027957Y187671D01*
X5027869Y185836D01*
Y185748D01*
Y185574D01*
Y185224D01*
X5027957Y184787D01*
Y184176D01*
X5028044Y183477D01*
X5028131Y182778D01*
X5028219Y181904D01*
X5028568Y180069D01*
X5029005Y177972D01*
X5029704Y175788D01*
X5030578Y173603D01*
Y173516D01*
X5030665Y173341D01*
X5030840Y173079D01*
X5031102Y172642D01*
X5031714Y171594D01*
X5032500Y170283D01*
X5033636Y168885D01*
X5034859Y167399D01*
X5036432Y165914D01*
X5038092Y164691D01*
X5038180D01*
X5038354Y164603D01*
X5038617Y164429D01*
X5038966Y164254D01*
X5039403Y163992D01*
X5039927Y163730D01*
X5041238Y163205D01*
X5042723Y162681D01*
X5044471Y162157D01*
X5046306Y161807D01*
X5048315Y161720D01*
X5048665D01*
X5049102Y161807D01*
X5049626D01*
X5050325Y161895D01*
X5051111Y162070D01*
X5051985Y162244D01*
X5052946Y162506D01*
X5053995Y162856D01*
X5055043Y163293D01*
X5056179Y163730D01*
X5057315Y164341D01*
X5058451Y165128D01*
X5059587Y165914D01*
X5060723Y166875D01*
X5061771Y168011D01*
X5061859Y168098D01*
X5062033Y168273D01*
X5062295Y168623D01*
X5062645Y169147D01*
X5063082Y169846D01*
X5063606Y170545D01*
X5064043Y171506D01*
X5064655Y172555D01*
X5065179Y173691D01*
X5065616Y175001D01*
X5066140Y176399D01*
X5066577Y177885D01*
X5066926Y179545D01*
X5067188Y181292D01*
X5067363Y183127D01*
X5067451Y185137D01*
Y185224D01*
Y185574D01*
Y186185D01*
X5067363Y186884D01*
X5067276Y187758D01*
X5067188Y188807D01*
X5067014Y189942D01*
X5066752Y191166D01*
X5066053Y193787D01*
X5065616Y195185D01*
X5065091Y196496D01*
X5064480Y197894D01*
X5063693Y199204D01*
X5062820Y200515D01*
X5061859Y201651D01*
X5061771Y201738D01*
X5061596Y201913D01*
X5061334Y202175D01*
X5060897Y202612D01*
X5060286Y203049D01*
X5059674Y203573D01*
X5058888Y204097D01*
X5058014Y204709D01*
X5057053Y205233D01*
X5056004Y205758D01*
X5054868Y206282D01*
X5053645Y206719D01*
X5052335Y207156D01*
X5050937Y207418D01*
X5049451Y207592D01*
X5047878Y207680D01*
D02*
G37*
G36*
X4818953Y243417D02*
Y243329D01*
X4818866Y242980D01*
X4818779Y242455D01*
X4818604Y241756D01*
X4818429Y240883D01*
X4818167Y239834D01*
X4817817Y238698D01*
X4817555Y237388D01*
X4817118Y235990D01*
X4816769Y234417D01*
X4815808Y231184D01*
X4814759Y227689D01*
X4813536Y224106D01*
X4802439Y194573D01*
X4836603D01*
X4826031Y222446D01*
X4825943Y222621D01*
X4825856Y222971D01*
X4825594Y223670D01*
X4825244Y224543D01*
X4824895Y225679D01*
X4824458Y226903D01*
X4823934Y228301D01*
X4823409Y229873D01*
X4822798Y231446D01*
X4822274Y233194D01*
X4821050Y236689D01*
X4819914Y240184D01*
X4819390Y241844D01*
X4818953Y243417D01*
D02*
G37*
G36*
X4728257Y242892D02*
X4696452D01*
Y209515D01*
X4726509D01*
X4727296Y209602D01*
X4728170D01*
X4729131Y209689D01*
X4730179Y209777D01*
X4732538Y209952D01*
X4734898Y210301D01*
X4737169Y210738D01*
X4738218Y211000D01*
X4739266Y211350D01*
X4739354D01*
X4739528Y211437D01*
X4739791Y211524D01*
X4740140Y211699D01*
X4741014Y212136D01*
X4742150Y212835D01*
X4743460Y213709D01*
X4744771Y214670D01*
X4745994Y215981D01*
X4747130Y217379D01*
Y217466D01*
X4747218Y217553D01*
X4747392Y217815D01*
X4747567Y218078D01*
X4748004Y218951D01*
X4748528Y220087D01*
X4748965Y221485D01*
X4749402Y222971D01*
X4749751Y224631D01*
X4749839Y226466D01*
Y226553D01*
Y226815D01*
Y227165D01*
X4749751Y227689D01*
X4749664Y228301D01*
X4749577Y229000D01*
X4749227Y230660D01*
X4748528Y232495D01*
X4748179Y233456D01*
X4747654Y234504D01*
X4747043Y235465D01*
X4746344Y236427D01*
X4745557Y237388D01*
X4744596Y238261D01*
X4744509Y238349D01*
X4744334Y238436D01*
X4744072Y238698D01*
X4743635Y238960D01*
X4743024Y239310D01*
X4742412Y239747D01*
X4741538Y240184D01*
X4740664Y240621D01*
X4739528Y240970D01*
X4738305Y241407D01*
X4736995Y241844D01*
X4735509Y242193D01*
X4733936Y242455D01*
X4732189Y242718D01*
X4730267Y242805D01*
X4728257Y242892D01*
D02*
G37*
G36*
X1590583Y3747772D02*
Y3747685D01*
X1590495Y3747335D01*
X1590408Y3746811D01*
X1590233Y3746112D01*
X1590058Y3745238D01*
X1589796Y3744190D01*
X1589447Y3743054D01*
X1589185Y3741743D01*
X1588748Y3740345D01*
X1588398Y3738772D01*
X1587437Y3735539D01*
X1586388Y3732044D01*
X1585165Y3728462D01*
X1574068Y3698929D01*
X1608232D01*
X1597660Y3726802D01*
X1597573Y3726977D01*
X1597485Y3727326D01*
X1597223Y3728025D01*
X1596874Y3728899D01*
X1596524Y3730035D01*
X1596087Y3731258D01*
X1595563Y3732656D01*
X1595039Y3734229D01*
X1594427Y3735802D01*
X1593903Y3737549D01*
X1592680Y3741044D01*
X1591544Y3744539D01*
X1591019Y3746199D01*
X1590583Y3747772D01*
D02*
G37*
G36*
X1499886Y3747248D02*
X1468081D01*
Y3713870D01*
X1498139D01*
X1498925Y3713958D01*
X1499799D01*
X1500760Y3714045D01*
X1501809Y3714132D01*
X1504168Y3714307D01*
X1506527Y3714657D01*
X1508799Y3715093D01*
X1509847Y3715356D01*
X1510896Y3715705D01*
X1510983D01*
X1511158Y3715792D01*
X1511420Y3715880D01*
X1511769Y3716055D01*
X1512643Y3716491D01*
X1513779Y3717190D01*
X1515090Y3718064D01*
X1516400Y3719025D01*
X1517624Y3720336D01*
X1518759Y3721734D01*
Y3721821D01*
X1518847Y3721909D01*
X1519022Y3722171D01*
X1519196Y3722433D01*
X1519633Y3723307D01*
X1520157Y3724443D01*
X1520594Y3725841D01*
X1521031Y3727326D01*
X1521381Y3728986D01*
X1521468Y3730821D01*
Y3730908D01*
Y3731171D01*
Y3731520D01*
X1521381Y3732044D01*
X1521293Y3732656D01*
X1521206Y3733355D01*
X1520856Y3735015D01*
X1520157Y3736850D01*
X1519808Y3737811D01*
X1519284Y3738860D01*
X1518672Y3739821D01*
X1517973Y3740782D01*
X1517187Y3741743D01*
X1516226Y3742617D01*
X1516138Y3742704D01*
X1515963Y3742792D01*
X1515701Y3743054D01*
X1515264Y3743316D01*
X1514653Y3743665D01*
X1514041Y3744102D01*
X1513167Y3744539D01*
X1512294Y3744976D01*
X1511158Y3745326D01*
X1509934Y3745762D01*
X1508624Y3746199D01*
X1507138Y3746549D01*
X1505566Y3746811D01*
X1503818Y3747073D01*
X1501896Y3747160D01*
X1499886Y3747248D01*
D02*
G37*
G36*
X2460362Y3738423D02*
X2428819Y3693075D01*
X2460362D01*
Y3738423D01*
D02*
G37*
G36*
X2225583Y3747772D02*
Y3747685D01*
X2225495Y3747335D01*
X2225408Y3746811D01*
X2225233Y3746112D01*
X2225058Y3745238D01*
X2224796Y3744190D01*
X2224447Y3743054D01*
X2224185Y3741743D01*
X2223748Y3740345D01*
X2223398Y3738772D01*
X2222437Y3735539D01*
X2221388Y3732044D01*
X2220165Y3728462D01*
X2209068Y3698929D01*
X2243232D01*
X2232660Y3726802D01*
X2232573Y3726977D01*
X2232485Y3727326D01*
X2232223Y3728025D01*
X2231874Y3728899D01*
X2231524Y3730035D01*
X2231087Y3731258D01*
X2230563Y3732656D01*
X2230039Y3734229D01*
X2229427Y3735802D01*
X2228903Y3737549D01*
X2227680Y3741044D01*
X2226544Y3744539D01*
X2226019Y3746199D01*
X2225583Y3747772D01*
D02*
G37*
G36*
X2134886Y3747248D02*
X2103081D01*
Y3713870D01*
X2133139D01*
X2133925Y3713958D01*
X2134799D01*
X2135760Y3714045D01*
X2136809Y3714132D01*
X2139168Y3714307D01*
X2141527Y3714657D01*
X2143799Y3715093D01*
X2144847Y3715356D01*
X2145896Y3715705D01*
X2145983D01*
X2146158Y3715792D01*
X2146420Y3715880D01*
X2146769Y3716055D01*
X2147643Y3716491D01*
X2148779Y3717190D01*
X2150090Y3718064D01*
X2151400Y3719025D01*
X2152624Y3720336D01*
X2153759Y3721734D01*
Y3721821D01*
X2153847Y3721909D01*
X2154022Y3722171D01*
X2154196Y3722433D01*
X2154633Y3723307D01*
X2155157Y3724443D01*
X2155594Y3725841D01*
X2156031Y3727326D01*
X2156381Y3728986D01*
X2156468Y3730821D01*
Y3730908D01*
Y3731171D01*
Y3731520D01*
X2156381Y3732044D01*
X2156293Y3732656D01*
X2156206Y3733355D01*
X2155856Y3735015D01*
X2155157Y3736850D01*
X2154808Y3737811D01*
X2154284Y3738860D01*
X2153672Y3739821D01*
X2152973Y3740782D01*
X2152187Y3741743D01*
X2151226Y3742617D01*
X2151138Y3742704D01*
X2150963Y3742792D01*
X2150701Y3743054D01*
X2150264Y3743316D01*
X2149653Y3743665D01*
X2149041Y3744102D01*
X2148167Y3744539D01*
X2147294Y3744976D01*
X2146158Y3745326D01*
X2144934Y3745762D01*
X2143624Y3746199D01*
X2142138Y3746549D01*
X2140566Y3746811D01*
X2138818Y3747073D01*
X2136896Y3747160D01*
X2134886Y3747248D01*
D02*
G37*
G36*
X2860583Y3747772D02*
Y3747685D01*
X2860495Y3747335D01*
X2860408Y3746811D01*
X2860233Y3746112D01*
X2860058Y3745238D01*
X2859796Y3744190D01*
X2859447Y3743054D01*
X2859185Y3741743D01*
X2858748Y3740345D01*
X2858398Y3738772D01*
X2857437Y3735539D01*
X2856388Y3732044D01*
X2855165Y3728462D01*
X2844068Y3698929D01*
X2878232D01*
X2867660Y3726802D01*
X2867573Y3726977D01*
X2867485Y3727326D01*
X2867223Y3728025D01*
X2866874Y3728899D01*
X2866524Y3730035D01*
X2866087Y3731258D01*
X2865563Y3732656D01*
X2865039Y3734229D01*
X2864427Y3735802D01*
X2863903Y3737549D01*
X2862680Y3741044D01*
X2861544Y3744539D01*
X2861019Y3746199D01*
X2860583Y3747772D01*
D02*
G37*
G36*
X2769886Y3747248D02*
X2738081D01*
Y3713870D01*
X2768139D01*
X2768925Y3713958D01*
X2769799D01*
X2770760Y3714045D01*
X2771809Y3714132D01*
X2774168Y3714307D01*
X2776527Y3714657D01*
X2778799Y3715093D01*
X2779847Y3715356D01*
X2780896Y3715705D01*
X2780983D01*
X2781158Y3715792D01*
X2781420Y3715880D01*
X2781769Y3716055D01*
X2782643Y3716491D01*
X2783779Y3717190D01*
X2785090Y3718064D01*
X2786400Y3719025D01*
X2787624Y3720336D01*
X2788759Y3721734D01*
Y3721821D01*
X2788847Y3721909D01*
X2789022Y3722171D01*
X2789196Y3722433D01*
X2789633Y3723307D01*
X2790157Y3724443D01*
X2790594Y3725841D01*
X2791031Y3727326D01*
X2791381Y3728986D01*
X2791468Y3730821D01*
Y3730908D01*
Y3731171D01*
Y3731520D01*
X2791381Y3732044D01*
X2791293Y3732656D01*
X2791206Y3733355D01*
X2790856Y3735015D01*
X2790157Y3736850D01*
X2789808Y3737811D01*
X2789284Y3738860D01*
X2788672Y3739821D01*
X2787973Y3740782D01*
X2787187Y3741743D01*
X2786226Y3742617D01*
X2786138Y3742704D01*
X2785963Y3742792D01*
X2785701Y3743054D01*
X2785264Y3743316D01*
X2784653Y3743665D01*
X2784041Y3744102D01*
X2783167Y3744539D01*
X2782294Y3744976D01*
X2781158Y3745326D01*
X2779934Y3745762D01*
X2778624Y3746199D01*
X2777138Y3746549D01*
X2775566Y3746811D01*
X2773818Y3747073D01*
X2771896Y3747160D01*
X2769886Y3747248D01*
D02*
G37*
G36*
X3495583Y3747772D02*
Y3747685D01*
X3495495Y3747335D01*
X3495408Y3746811D01*
X3495233Y3746112D01*
X3495058Y3745238D01*
X3494796Y3744190D01*
X3494447Y3743054D01*
X3494185Y3741743D01*
X3493748Y3740345D01*
X3493398Y3738772D01*
X3492437Y3735539D01*
X3491388Y3732044D01*
X3490165Y3728462D01*
X3479068Y3698929D01*
X3513232D01*
X3502660Y3726802D01*
X3502573Y3726977D01*
X3502485Y3727326D01*
X3502223Y3728025D01*
X3501874Y3728899D01*
X3501524Y3730035D01*
X3501087Y3731258D01*
X3500563Y3732656D01*
X3500039Y3734229D01*
X3499427Y3735802D01*
X3498903Y3737549D01*
X3497680Y3741044D01*
X3496544Y3744539D01*
X3496019Y3746199D01*
X3495583Y3747772D01*
D02*
G37*
G36*
X3404886Y3747248D02*
X3373081D01*
Y3713870D01*
X3403139D01*
X3403925Y3713958D01*
X3404799D01*
X3405760Y3714045D01*
X3406809Y3714132D01*
X3409168Y3714307D01*
X3411527Y3714657D01*
X3413799Y3715093D01*
X3414847Y3715356D01*
X3415896Y3715705D01*
X3415983D01*
X3416158Y3715792D01*
X3416420Y3715880D01*
X3416769Y3716055D01*
X3417643Y3716491D01*
X3418779Y3717190D01*
X3420090Y3718064D01*
X3421400Y3719025D01*
X3422624Y3720336D01*
X3423759Y3721734D01*
Y3721821D01*
X3423847Y3721909D01*
X3424022Y3722171D01*
X3424196Y3722433D01*
X3424633Y3723307D01*
X3425157Y3724443D01*
X3425594Y3725841D01*
X3426031Y3727326D01*
X3426381Y3728986D01*
X3426468Y3730821D01*
Y3730908D01*
Y3731171D01*
Y3731520D01*
X3426381Y3732044D01*
X3426293Y3732656D01*
X3426206Y3733355D01*
X3425856Y3735015D01*
X3425157Y3736850D01*
X3424808Y3737811D01*
X3424284Y3738860D01*
X3423672Y3739821D01*
X3422973Y3740782D01*
X3422187Y3741743D01*
X3421226Y3742617D01*
X3421138Y3742704D01*
X3420963Y3742792D01*
X3420701Y3743054D01*
X3420264Y3743316D01*
X3419653Y3743665D01*
X3419041Y3744102D01*
X3418167Y3744539D01*
X3417294Y3744976D01*
X3416158Y3745326D01*
X3414934Y3745762D01*
X3413624Y3746199D01*
X3412138Y3746549D01*
X3410566Y3746811D01*
X3408818Y3747073D01*
X3406896Y3747160D01*
X3404886Y3747248D01*
D02*
G37*
G36*
X4130583Y3747772D02*
Y3747685D01*
X4130495Y3747335D01*
X4130408Y3746811D01*
X4130233Y3746112D01*
X4130058Y3745238D01*
X4129796Y3744190D01*
X4129447Y3743054D01*
X4129185Y3741743D01*
X4128748Y3740345D01*
X4128398Y3738772D01*
X4127437Y3735539D01*
X4126388Y3732044D01*
X4125165Y3728462D01*
X4114068Y3698929D01*
X4148232D01*
X4137660Y3726802D01*
X4137573Y3726977D01*
X4137485Y3727326D01*
X4137223Y3728025D01*
X4136874Y3728899D01*
X4136524Y3730035D01*
X4136087Y3731258D01*
X4135563Y3732656D01*
X4135039Y3734229D01*
X4134427Y3735802D01*
X4133903Y3737549D01*
X4132680Y3741044D01*
X4131544Y3744539D01*
X4131019Y3746199D01*
X4130583Y3747772D01*
D02*
G37*
G36*
X4039886Y3747248D02*
X4008081D01*
Y3713870D01*
X4038139D01*
X4038925Y3713958D01*
X4039799D01*
X4040760Y3714045D01*
X4041809Y3714132D01*
X4044168Y3714307D01*
X4046527Y3714657D01*
X4048799Y3715093D01*
X4049847Y3715356D01*
X4050896Y3715705D01*
X4050983D01*
X4051158Y3715792D01*
X4051420Y3715880D01*
X4051769Y3716055D01*
X4052643Y3716491D01*
X4053779Y3717190D01*
X4055090Y3718064D01*
X4056400Y3719025D01*
X4057624Y3720336D01*
X4058759Y3721734D01*
Y3721821D01*
X4058847Y3721909D01*
X4059022Y3722171D01*
X4059196Y3722433D01*
X4059633Y3723307D01*
X4060157Y3724443D01*
X4060594Y3725841D01*
X4061031Y3727326D01*
X4061381Y3728986D01*
X4061468Y3730821D01*
Y3730908D01*
Y3731171D01*
Y3731520D01*
X4061381Y3732044D01*
X4061293Y3732656D01*
X4061206Y3733355D01*
X4060856Y3735015D01*
X4060157Y3736850D01*
X4059808Y3737811D01*
X4059284Y3738860D01*
X4058672Y3739821D01*
X4057973Y3740782D01*
X4057187Y3741743D01*
X4056226Y3742617D01*
X4056138Y3742704D01*
X4055963Y3742792D01*
X4055701Y3743054D01*
X4055264Y3743316D01*
X4054653Y3743665D01*
X4054041Y3744102D01*
X4053167Y3744539D01*
X4052294Y3744976D01*
X4051158Y3745326D01*
X4049934Y3745762D01*
X4048624Y3746199D01*
X4047138Y3746549D01*
X4045566Y3746811D01*
X4043818Y3747073D01*
X4041896Y3747160D01*
X4039886Y3747248D01*
D02*
G37*
G36*
X1539121Y801957D02*
X1502969D01*
Y756958D01*
X1537045D01*
X1538138Y757067D01*
X1539448Y757177D01*
X1540977Y757286D01*
X1542616Y757504D01*
X1544472Y757723D01*
X1548186Y758378D01*
X1552009Y759470D01*
X1553865Y760235D01*
X1555504Y760999D01*
X1557033Y761873D01*
X1558453Y762965D01*
X1558562Y763074D01*
X1558780Y763293D01*
X1559108Y763621D01*
X1559545Y764057D01*
X1560091Y764713D01*
X1560637Y765477D01*
X1561292Y766351D01*
X1561948Y767334D01*
X1562494Y768426D01*
X1563149Y769737D01*
X1563695Y771047D01*
X1564241Y772577D01*
X1564678Y774215D01*
X1565006Y775962D01*
X1565224Y777819D01*
X1565333Y779785D01*
Y779894D01*
Y780113D01*
Y780550D01*
X1565224Y781096D01*
Y781860D01*
X1565115Y782625D01*
X1564787Y784482D01*
X1564350Y786557D01*
X1563586Y788850D01*
X1562603Y791144D01*
X1561292Y793328D01*
Y793438D01*
X1561074Y793547D01*
X1560528Y794202D01*
X1559654Y795185D01*
X1558453Y796387D01*
X1556923Y797588D01*
X1555176Y798899D01*
X1552992Y799991D01*
X1550698Y800755D01*
X1550479Y800865D01*
X1550261D01*
X1549824Y800974D01*
X1549387Y801083D01*
X1548841Y801192D01*
X1548077Y801301D01*
X1547203Y801411D01*
X1546220Y801520D01*
X1545128Y801629D01*
X1543817D01*
X1542397Y801738D01*
X1540868Y801848D01*
X1539121Y801957D01*
D02*
G37*
%LPD*%
%TF.MD5,a54a0728a42f89c4a26628575548dc4b*%
M02*
