%TF.GenerationSoftware,Altium Limited,Altium Designer,24.3.1 (35)*%
G04 Layer_Physical_Order=2*
G04 Layer_Color=16711680*
%FSLAX45Y45*%
%MOMM*%
%TF.SameCoordinates,1C176170-2899-406E-8B2E-9C71E4A34281*%
%TF.FilePolarity,Positive*%
%TF.FileFunction,Copper,L2,Bot,Signal*%
%TF.Part,Single*%
G01*
G75*
%TA.AperFunction,ComponentPad*%
%ADD10O,2.54000X5.08000*%
%ADD11O,1.90500X5.08000*%
%ADD12O,5.08000X1.90500*%
D10*
X4140200Y3746500D02*
D03*
X4495800D02*
D03*
X5994400Y3403600D02*
D03*
X3352800Y3035300D02*
D03*
X3784600D02*
D03*
X4140200D02*
D03*
X4495800D02*
D03*
X5562600Y3403600D02*
D03*
X5207000D02*
D03*
X4851400D02*
D03*
X3784600Y3746500D02*
D03*
X3352800D02*
D03*
D11*
X5118100Y8153400D02*
D03*
X4864100D02*
D03*
X4610100D02*
D03*
X4356100D02*
D03*
X4102100D02*
D03*
X3848100D02*
D03*
X5118100Y6388100D02*
D03*
X4864100D02*
D03*
X4610100D02*
D03*
X4356100D02*
D03*
X4102100D02*
D03*
X3848100D02*
D03*
D12*
X4432300Y11785600D02*
D03*
Y11531600D02*
D03*
Y11277600D02*
D03*
Y11023600D02*
D03*
Y10769600D02*
D03*
Y10515600D02*
D03*
Y10261600D02*
D03*
Y10007600D02*
D03*
Y9753600D02*
D03*
%TF.MD5,8e25b76e4dccaf5cd167a21ae66bcbdb*%
M02*
