%TF.GenerationSoftware,KiCad,Pcbnew,9.0.4*%
%TF.CreationDate,2025-12-16T09:54:38-07:00*%
%TF.ProjectId,BSPD kicad project,42535044-206b-4696-9361-642070726f6a,rev?*%
%TF.SameCoordinates,Original*%
%TF.FileFunction,Copper,L2,Bot*%
%TF.FilePolarity,Positive*%
%FSLAX46Y46*%
G04 Gerber Fmt 4.6, Leading zero omitted, Abs format (unit mm)*
G04 Created by KiCad (PCBNEW 9.0.4) date 2025-12-16 09:54:38*
%MOMM*%
%LPD*%
G01*
G04 APERTURE LIST*
%TA.AperFunction,ComponentPad*%
%ADD10C,1.320800*%
%TD*%
%TA.AperFunction,ComponentPad*%
%ADD11R,1.320800X1.320800*%
%TD*%
%TA.AperFunction,ComponentPad*%
%ADD12R,1.524000X1.524000*%
%TD*%
%TA.AperFunction,ComponentPad*%
%ADD13C,1.524000*%
%TD*%
%TA.AperFunction,ComponentPad*%
%ADD14R,0.850000X0.850000*%
%TD*%
%TA.AperFunction,ComponentPad*%
%ADD15C,0.850000*%
%TD*%
%TA.AperFunction,ComponentPad*%
%ADD16C,1.150000*%
%TD*%
%TA.AperFunction,ComponentPad*%
%ADD17C,1.400000*%
%TD*%
%TA.AperFunction,ComponentPad*%
%ADD18R,2.032000X2.032000*%
%TD*%
%TA.AperFunction,ComponentPad*%
%ADD19C,2.032000*%
%TD*%
%TA.AperFunction,ComponentPad*%
%ADD20R,1.295400X1.295400*%
%TD*%
%TA.AperFunction,ComponentPad*%
%ADD21C,1.295400*%
%TD*%
%TA.AperFunction,ViaPad*%
%ADD22C,0.600000*%
%TD*%
%TA.AperFunction,Conductor*%
%ADD23C,0.200000*%
%TD*%
G04 APERTURE END LIST*
D10*
%TO.P,P4,1,1*%
%TO.N,/6V*%
X189540000Y-105740000D03*
%TO.P,P4,2,2*%
%TO.N,/0.1V*%
X187000000Y-105740000D03*
D11*
%TO.P,P4,3,3*%
%TO.N,GND*%
X184460000Y-105740000D03*
%TD*%
D12*
%TO.P,U2,1,OUT*%
%TO.N,/Current_0.1_output*%
X117190000Y-107950000D03*
D13*
%TO.P,U2,2,IN-*%
%TO.N,Net-(U2A-IN-)*%
X119730000Y-107950000D03*
%TO.P,U2,3,IN+*%
%TO.N,/0.1V*%
X122270000Y-107950000D03*
%TO.P,U2,4*%
%TO.N,N/C*%
X124810000Y-107950000D03*
%TO.P,U2,5,IN+*%
%TO.N,Net-(U2A-IN-)*%
X124810000Y-100330000D03*
%TO.P,U2,6,IN-*%
%TO.N,/9V*%
X122270000Y-100330000D03*
%TO.P,U2,7,OUT*%
%TO.N,/Current_9V_output*%
X119730000Y-100330000D03*
%TO.P,U2,8*%
%TO.N,N/C*%
X117190000Y-100330000D03*
%TD*%
D14*
%TO.P,J1,1*%
%TO.N,/12V*%
X92400000Y-88740000D03*
D15*
%TO.P,J1,2*%
%TO.N,unconnected-(J1-Pad2)*%
X92400000Y-89740000D03*
%TO.P,J1,3*%
%TO.N,/Accumulator Disconnect*%
X92400000Y-90740000D03*
%TO.P,J1,4*%
%TO.N,/Brake Pressure Sensor*%
X92400000Y-91740000D03*
%TO.P,J1,5*%
%TO.N,/Current Sensor*%
X92400000Y-92740000D03*
%TO.P,J1,6*%
%TO.N,GND*%
X92400000Y-93740000D03*
%TD*%
D16*
%TO.P,C2,1*%
%TO.N,GND*%
X167500000Y-83740000D03*
%TO.P,C2,2*%
%TO.N,/6V*%
X170000000Y-83740000D03*
%TD*%
D17*
%TO.P,R6,1*%
%TO.N,/12V*%
X122860000Y-70740000D03*
%TO.P,R6,2*%
%TO.N,/Brake_9V_output*%
X127940000Y-70740000D03*
%TD*%
%TO.P,R2VR1,1*%
%TO.N,GND*%
X176200000Y-65000000D03*
%TO.P,R2VR1,2*%
%TO.N,Net-(U1-ADJ)*%
X176200000Y-70080000D03*
%TD*%
D12*
%TO.P,U4,1,OUT*%
%TO.N,/Brake_9V_output*%
X134780000Y-70960000D03*
D13*
%TO.P,U4,2,IN-*%
%TO.N,/9V*%
X137320000Y-70960000D03*
%TO.P,U4,3,IN+*%
%TO.N,/Brake Pressure Sensor*%
X139860000Y-70960000D03*
%TO.P,U4,4*%
%TO.N,N/C*%
X142400000Y-70960000D03*
%TO.P,U4,5,IN+*%
%TO.N,/0.1V*%
X142400000Y-63340000D03*
%TO.P,U4,6,IN-*%
%TO.N,/Brake Pressure Sensor*%
X139860000Y-63340000D03*
%TO.P,U4,7,OUT*%
%TO.N,/Brake_0.1V_output*%
X137320000Y-63340000D03*
%TO.P,U4,8*%
%TO.N,N/C*%
X134780000Y-63340000D03*
%TD*%
D18*
%TO.P,U1,1,ADJ*%
%TO.N,Net-(U1-ADJ)*%
X185000000Y-71940000D03*
D19*
%TO.P,U1,2,OUTPUT*%
%TO.N,/6V*%
X187550000Y-71940000D03*
%TO.P,U1,3,INPUT*%
%TO.N,/12V*%
X190100000Y-71940000D03*
%TD*%
D17*
%TO.P,R2,1*%
%TO.N,/12V*%
X124540000Y-93340000D03*
%TO.P,R2,2*%
%TO.N,/Current_0.1_output*%
X119460000Y-93340000D03*
%TD*%
%TO.P,R3,1*%
%TO.N,/12V*%
X110860000Y-95740000D03*
%TO.P,R3,2*%
%TO.N,/Current_9V_output*%
X115940000Y-95740000D03*
%TD*%
D11*
%TO.P,C1,1*%
%TO.N,GND*%
X175500005Y-83540000D03*
D10*
%TO.P,C1,2*%
%TO.N,unconnected-(C1-Pad2)*%
X180499995Y-83540000D03*
%TD*%
D17*
%TO.P,R1VR1,1*%
%TO.N,Net-(U1-ADJ)*%
X175060000Y-77540000D03*
%TO.P,R1VR1,2*%
%TO.N,/6V*%
X180140000Y-77540000D03*
%TD*%
%TO.P,R8,1*%
%TO.N,/Current{slash}Brake 0.1V{slash}9V NOR*%
X156340000Y-105940000D03*
%TO.P,R8,2*%
%TO.N,Net-(U7-A)*%
X151260000Y-105940000D03*
%TD*%
D20*
%TO.P,U6,1,A*%
%TO.N,/Current 0.1V OR Current 9V_output*%
X156500000Y-99560000D03*
D21*
%TO.P,U6,2,B*%
%TO.N,/Brake 0.1V OR Brake 9V_output*%
X159040000Y-99560000D03*
%TO.P,U6,3,J*%
%TO.N,/Current{slash}Brake 0.1V{slash}9V NOR*%
X161580000Y-99560000D03*
%TO.P,U6,4,K*%
%TO.N,unconnected-(U6-K-Pad4)*%
X164120000Y-99560000D03*
%TO.P,U6,5,C*%
%TO.N,GND*%
X166660000Y-99560000D03*
%TO.P,U6,6,D*%
X169200000Y-99560000D03*
%TO.P,U6,7,VSS*%
X171740000Y-99560000D03*
%TO.P,U6,8,E*%
X171740000Y-91940000D03*
%TO.P,U6,9,F*%
X169200000Y-91940000D03*
%TO.P,U6,10,L*%
%TO.N,unconnected-(U6-L-Pad10)*%
X166660000Y-91940000D03*
%TO.P,U6,11,M*%
%TO.N,unconnected-(U6-M-Pad11)*%
X164120000Y-91940000D03*
%TO.P,U6,12,G*%
%TO.N,GND*%
X161580000Y-91940000D03*
%TO.P,U6,13,H*%
X159040000Y-91940000D03*
%TO.P,U6,14,VDD*%
%TO.N,/12V*%
X156500000Y-91940000D03*
%TD*%
D17*
%TO.P,R7,1*%
%TO.N,/12V*%
X122860000Y-65540000D03*
%TO.P,R7,2*%
%TO.N,/Brake_0.1V_output*%
X127940000Y-65540000D03*
%TD*%
%TO.P,R5,1*%
%TO.N,/12V*%
X128520000Y-91340000D03*
%TO.P,R5,2*%
%TO.N,/Brake_4V_output*%
X133600000Y-91340000D03*
%TD*%
%TO.P,R1,1*%
%TO.N,/Current Sensor*%
X99060000Y-99140000D03*
%TO.P,R1,2*%
%TO.N,Net-(U2A-IN-)*%
X104140000Y-99140000D03*
%TD*%
D20*
%TO.P,U5,1,B*%
%TO.N,/Current_0.1_output*%
X122100000Y-87160000D03*
D21*
%TO.P,U5,2,A*%
%TO.N,/current_9V_output*%
X124640000Y-87160000D03*
%TO.P,U5,3,J*%
%TO.N,/Current 0.1V OR Current 9V_output*%
X127180000Y-87160000D03*
%TO.P,U5,4,K*%
%TO.N,/Current 5.1V OR Brake 4V_output*%
X129720000Y-87160000D03*
%TO.P,U5,5,D*%
%TO.N,/Current_5.1V_output*%
X132260000Y-87160000D03*
%TO.P,U5,6,C*%
%TO.N,/Brake_4V_output*%
X134800000Y-87160000D03*
%TO.P,U5,7,VSS*%
%TO.N,GND*%
X137340000Y-87160000D03*
%TO.P,U5,8,F*%
%TO.N,/Brake_9V_output*%
X137340000Y-79540000D03*
%TO.P,U5,9,E*%
%TO.N,/Brake_0.1V_output*%
X134800000Y-79540000D03*
%TO.P,U5,10,L*%
%TO.N,/Brake 0.1V OR Brake 9V_output*%
X132260000Y-79540000D03*
%TO.P,U5,11,M*%
%TO.N,unconnected-(U5-M-Pad11)*%
X129720000Y-79540000D03*
%TO.P,U5,12,H*%
%TO.N,GND*%
X127180000Y-79540000D03*
%TO.P,U5,13,G*%
X124640000Y-79540000D03*
%TO.P,U5,14,VDD*%
%TO.N,/12V*%
X122100000Y-79540000D03*
%TD*%
D10*
%TO.P,P1,1,1*%
%TO.N,/12V*%
X114800000Y-67140000D03*
%TO.P,P1,2,2*%
%TO.N,/9V*%
X112260000Y-67140000D03*
D11*
%TO.P,P1,3,3*%
%TO.N,GND*%
X109720000Y-67140000D03*
%TD*%
D16*
%TO.P,C3,1*%
%TO.N,GND*%
X148750000Y-83940000D03*
%TO.P,C3,2*%
%TO.N,Net-(U7-A)*%
X151250000Y-83940000D03*
%TD*%
%TO.P,C4,1*%
%TO.N,GND*%
X157500000Y-83740000D03*
%TO.P,C4,2*%
%TO.N,Net-(U7-B)*%
X160000000Y-83740000D03*
%TD*%
D20*
%TO.P,U7,1,A*%
%TO.N,Net-(U7-A)*%
X153060000Y-75160000D03*
D21*
%TO.P,U7,2,B*%
%TO.N,Net-(U7-B)*%
X155600000Y-75160000D03*
%TO.P,U7,3,J*%
%TO.N,/Accumulator Disconnect*%
X158140000Y-75160000D03*
%TO.P,U7,4,K*%
%TO.N,unconnected-(U7-K-Pad4)*%
X160680000Y-75160000D03*
%TO.P,U7,5,C*%
%TO.N,GND*%
X163220000Y-75160000D03*
%TO.P,U7,6,D*%
X165760000Y-75160000D03*
%TO.P,U7,7,VSS*%
X168300000Y-75160000D03*
%TO.P,U7,8,E*%
X168300000Y-67540000D03*
%TO.P,U7,9,F*%
X165760000Y-67540000D03*
%TO.P,U7,10,L*%
%TO.N,unconnected-(U7-L-Pad10)*%
X163220000Y-67540000D03*
%TO.P,U7,11,M*%
%TO.N,unconnected-(U7-M-Pad11)*%
X160680000Y-67540000D03*
%TO.P,U7,12,G*%
%TO.N,GND*%
X158140000Y-67540000D03*
%TO.P,U7,13,H*%
X155600000Y-67540000D03*
%TO.P,U7,14,VDD*%
%TO.N,/12V*%
X153060000Y-67540000D03*
%TD*%
D10*
%TO.P,P2,1,1*%
%TO.N,/6V*%
X193000000Y-82540000D03*
%TO.P,P2,2,2*%
%TO.N,/4V*%
X190460000Y-82540000D03*
D11*
%TO.P,P2,3,3*%
%TO.N,GND*%
X187920000Y-82540000D03*
%TD*%
D17*
%TO.P,R9,1*%
%TO.N,/Current 5.1V OR Brake 4V_output*%
X143120000Y-78740000D03*
%TO.P,R9,2*%
%TO.N,Net-(U7-B)*%
X148200000Y-78740000D03*
%TD*%
D12*
%TO.P,U3,1,OUT*%
%TO.N,/Current_5.1V_output*%
X136190000Y-107550000D03*
D13*
%TO.P,U3,2,IN-*%
%TO.N,Net-(U2A-IN-)*%
X138730000Y-107550000D03*
%TO.P,U3,3,IN+*%
%TO.N,/5.1V*%
X141270000Y-107550000D03*
%TO.P,U3,4*%
%TO.N,N/C*%
X143810000Y-107550000D03*
%TO.P,U3,5,IN+*%
%TO.N,/Brake Pressure Sensor*%
X143810000Y-99930000D03*
%TO.P,U3,6,IN-*%
%TO.N,/4V*%
X141270000Y-99930000D03*
%TO.P,U3,7,OUT*%
%TO.N,/Brake_4V_output*%
X138730000Y-99930000D03*
%TO.P,U3,8*%
%TO.N,N/C*%
X136190000Y-99930000D03*
%TD*%
D17*
%TO.P,R4,1*%
%TO.N,/12V*%
X109860000Y-89740000D03*
%TO.P,R4,2*%
%TO.N,/Current_5.1V_output*%
X114940000Y-89740000D03*
%TD*%
D10*
%TO.P,P3,1,1*%
%TO.N,/6V*%
X189352700Y-94705000D03*
%TO.P,P3,2,2*%
%TO.N,/5.1V*%
X186812700Y-94705000D03*
D11*
%TO.P,P3,3,3*%
%TO.N,GND*%
X184272700Y-94705000D03*
%TD*%
D22*
%TO.N,/0.1V*%
X147600000Y-68540000D03*
%TO.N,/Brake_4V_output*%
X137200000Y-89540000D03*
%TD*%
D23*
%TO.N,Net-(U7-A)*%
X151260000Y-105940000D02*
X151260000Y-83950000D01*
X151260000Y-83950000D02*
X151250000Y-83940000D01*
%TO.N,Net-(U7-B)*%
X155600000Y-75160000D02*
X152020000Y-78740000D01*
X155600000Y-75160000D02*
X155600000Y-79340000D01*
X152020000Y-78740000D02*
X148200000Y-78740000D01*
X155600000Y-79340000D02*
X160000000Y-83740000D01*
%TO.N,/12V*%
X109860000Y-94740000D02*
X109860000Y-89740000D01*
X110860000Y-95740000D02*
X109860000Y-94740000D01*
%TO.N,/4V*%
X148281000Y-106941000D02*
X141270000Y-99930000D01*
X190460000Y-82540000D02*
X166059000Y-106941000D01*
X166059000Y-106941000D02*
X148281000Y-106941000D01*
%TO.N,/5.1V*%
X142333000Y-106487000D02*
X144250310Y-106487000D01*
X145313310Y-107550000D02*
X173967700Y-107550000D01*
X173967700Y-107550000D02*
X186812700Y-94705000D01*
X141270000Y-107550000D02*
X142333000Y-106487000D01*
X144250310Y-106487000D02*
X145313310Y-107550000D01*
%TO.N,/0.1V*%
X122270000Y-107950000D02*
X147600000Y-82620000D01*
X147600000Y-82620000D02*
X147600000Y-68540000D01*
%TO.N,/Current_5.1V_output*%
X129680000Y-89740000D02*
X132260000Y-87160000D01*
X114940000Y-89740000D02*
X129680000Y-89740000D01*
%TO.N,/Brake_4V_output*%
X135400000Y-91340000D02*
X137200000Y-89540000D01*
X133600000Y-91340000D02*
X135400000Y-91340000D01*
%TO.N,/Brake_9V_output*%
X127940000Y-70740000D02*
X127800000Y-70740000D01*
X137340000Y-79540000D02*
X137400000Y-79540000D01*
X134407035Y-80488700D02*
X133851300Y-79932965D01*
X128020000Y-70960000D02*
X134780000Y-70960000D01*
X136451300Y-80488700D02*
X134407035Y-80488700D01*
X133851300Y-79932965D02*
X133851300Y-71888700D01*
X133851300Y-71888700D02*
X134780000Y-70960000D01*
X137400000Y-79540000D02*
X136451300Y-80488700D01*
X127800000Y-70740000D02*
X128020000Y-70960000D01*
%TO.N,/Brake_0.1V_output*%
X134800000Y-79540000D02*
X138600000Y-75740000D01*
X127940000Y-65400000D02*
X128000000Y-65340000D01*
X127940000Y-65540000D02*
X127940000Y-65400000D01*
X128000000Y-65340000D02*
X135320000Y-65340000D01*
X135320000Y-65340000D02*
X137320000Y-63340000D01*
X138600000Y-64620000D02*
X137320000Y-63340000D01*
X138600000Y-75740000D02*
X138600000Y-64620000D01*
%TO.N,/Current{slash}Brake 0.1V{slash}9V NOR*%
X156340000Y-105940000D02*
X156340000Y-104800000D01*
X156340000Y-104800000D02*
X161580000Y-99560000D01*
%TO.N,/Current 5.1V OR Brake 4V_output*%
X130668700Y-86211300D02*
X129720000Y-87160000D01*
X135648700Y-86211300D02*
X130668700Y-86211300D01*
X143120000Y-78740000D02*
X135648700Y-86211300D01*
%TO.N,/Current 0.1V OR Current 9V_output*%
X113939000Y-90154628D02*
X113939000Y-89325372D01*
X126231300Y-88108700D02*
X127180000Y-87160000D01*
X152126000Y-83577148D02*
X151612852Y-83064000D01*
X122710310Y-109013000D02*
X121829690Y-109013000D01*
X113939000Y-89325372D02*
X115155672Y-88108700D01*
X152126000Y-95186000D02*
X152126000Y-83577148D01*
X123333000Y-108390310D02*
X122710310Y-109013000D01*
X156500000Y-99560000D02*
X152126000Y-95186000D01*
X151612852Y-83064000D02*
X147778690Y-83064000D01*
X121829690Y-109013000D02*
X121207000Y-108390310D01*
X123333000Y-107509690D02*
X123333000Y-108390310D01*
X121207000Y-108390310D02*
X121207000Y-97422628D01*
X147778690Y-83064000D02*
X123333000Y-107509690D01*
X121207000Y-97422628D02*
X113939000Y-90154628D01*
X115155672Y-88108700D02*
X126231300Y-88108700D01*
%TO.N,/Brake 0.1V OR Brake 9V_output*%
X147351057Y-67939000D02*
X146999000Y-68291057D01*
X160876000Y-84102852D02*
X160876000Y-79880265D01*
X160876000Y-79880265D02*
X156548700Y-75552965D01*
X133609700Y-80889700D02*
X132260000Y-79540000D01*
X156548700Y-75552965D02*
X156548700Y-74767035D01*
X160362852Y-84616000D02*
X160876000Y-84102852D01*
X149720665Y-67939000D02*
X147351057Y-67939000D01*
X146999000Y-68291057D02*
X146999000Y-71222665D01*
X156548700Y-74767035D02*
X149720665Y-67939000D01*
X159040000Y-99560000D02*
X160362852Y-98237148D01*
X146999000Y-71222665D02*
X137331965Y-80889700D01*
X160362852Y-98237148D02*
X160362852Y-84616000D01*
X137331965Y-80889700D02*
X133609700Y-80889700D01*
%TD*%
%TA.AperFunction,Conductor*%
%TO.N,GND*%
G36*
X154918834Y-76792914D02*
G01*
X154974767Y-76834786D01*
X154999184Y-76900250D01*
X154999500Y-76909096D01*
X154999500Y-79253330D01*
X154999499Y-79253348D01*
X154999499Y-79419054D01*
X154999498Y-79419054D01*
X155031905Y-79539999D01*
X155040423Y-79571785D01*
X155067716Y-79619057D01*
X155084700Y-79648474D01*
X155119479Y-79708714D01*
X155119480Y-79708716D01*
X155238349Y-79827585D01*
X155238355Y-79827590D01*
X157905716Y-82494952D01*
X157939201Y-82556275D01*
X157934217Y-82625967D01*
X157892345Y-82681900D01*
X157826881Y-82706317D01*
X157779717Y-82700564D01*
X157751726Y-82691469D01*
X157584609Y-82665000D01*
X157415391Y-82665000D01*
X157248273Y-82691469D01*
X157087340Y-82743760D01*
X156936575Y-82820579D01*
X156936572Y-82820581D01*
X156935160Y-82821606D01*
X156935160Y-82821607D01*
X157478554Y-83365000D01*
X157450630Y-83365000D01*
X157355255Y-83390556D01*
X157269745Y-83439925D01*
X157199925Y-83509745D01*
X157150556Y-83595255D01*
X157125000Y-83690630D01*
X157125000Y-83718553D01*
X156581607Y-83175160D01*
X156581606Y-83175160D01*
X156580581Y-83176572D01*
X156580579Y-83176575D01*
X156503760Y-83327340D01*
X156451469Y-83488273D01*
X156425000Y-83655390D01*
X156425000Y-83824609D01*
X156451469Y-83991726D01*
X156503760Y-84152659D01*
X156580580Y-84303427D01*
X156581606Y-84304838D01*
X156581607Y-84304839D01*
X157125000Y-83761446D01*
X157125000Y-83789370D01*
X157150556Y-83884745D01*
X157199925Y-83970255D01*
X157269745Y-84040075D01*
X157355255Y-84089444D01*
X157450630Y-84115000D01*
X157478553Y-84115000D01*
X156935159Y-84658391D01*
X156936578Y-84659422D01*
X157087340Y-84736239D01*
X157248273Y-84788530D01*
X157415391Y-84815000D01*
X157584609Y-84815000D01*
X157751726Y-84788530D01*
X157912659Y-84736239D01*
X158063424Y-84659420D01*
X158064839Y-84658391D01*
X157521448Y-84115000D01*
X157549370Y-84115000D01*
X157644745Y-84089444D01*
X157730255Y-84040075D01*
X157800075Y-83970255D01*
X157849444Y-83884745D01*
X157875000Y-83789370D01*
X157875000Y-83761446D01*
X158418391Y-84304839D01*
X158419420Y-84303424D01*
X158496239Y-84152659D01*
X158548530Y-83991726D01*
X158575000Y-83824609D01*
X158575000Y-83655390D01*
X158548530Y-83488273D01*
X158539436Y-83460285D01*
X158539253Y-83453914D01*
X158536200Y-83448322D01*
X158538267Y-83419413D01*
X158537439Y-83390444D01*
X158540729Y-83384987D01*
X158541184Y-83378630D01*
X158558552Y-83355428D01*
X158573518Y-83330610D01*
X158579237Y-83327797D01*
X158583056Y-83322697D01*
X158610211Y-83312568D01*
X158636219Y-83299781D01*
X158642548Y-83300507D01*
X158648520Y-83298280D01*
X158676842Y-83304441D01*
X158705633Y-83307744D01*
X158712127Y-83312117D01*
X158716793Y-83313132D01*
X158745047Y-83334283D01*
X158899187Y-83488423D01*
X158932672Y-83549746D01*
X158933979Y-83595501D01*
X158924500Y-83655350D01*
X158924500Y-83824649D01*
X158950981Y-83991847D01*
X159003296Y-84152853D01*
X159043756Y-84232258D01*
X159074987Y-84293553D01*
X159080152Y-84303688D01*
X159179648Y-84440634D01*
X159179652Y-84440639D01*
X159299360Y-84560347D01*
X159299365Y-84560351D01*
X159345107Y-84593584D01*
X159436315Y-84659850D01*
X159587151Y-84736705D01*
X159676671Y-84765792D01*
X159734345Y-84805228D01*
X159761544Y-84869587D01*
X159762352Y-84883722D01*
X159762352Y-90817613D01*
X159742667Y-90884652D01*
X159689863Y-90930407D01*
X159620705Y-90940351D01*
X159582057Y-90928098D01*
X159480566Y-90876386D01*
X159308750Y-90820559D01*
X159130331Y-90792300D01*
X158949669Y-90792300D01*
X158771249Y-90820559D01*
X158599433Y-90876386D01*
X158438476Y-90958397D01*
X158438472Y-90958400D01*
X158423112Y-90969558D01*
X158423112Y-90969559D01*
X158999853Y-91546300D01*
X158988168Y-91546300D01*
X158888038Y-91573130D01*
X158798263Y-91624962D01*
X158724962Y-91698263D01*
X158673130Y-91788038D01*
X158646300Y-91888168D01*
X158646300Y-91899853D01*
X158069559Y-91323112D01*
X158069558Y-91323112D01*
X158058400Y-91338472D01*
X158058397Y-91338476D01*
X157976386Y-91499433D01*
X157920559Y-91671248D01*
X157894252Y-91837341D01*
X157894252Y-92042657D01*
X157920559Y-92208751D01*
X157976386Y-92380566D01*
X158058401Y-92541529D01*
X158069558Y-92556886D01*
X158069559Y-92556886D01*
X158646300Y-91980145D01*
X158646300Y-91991832D01*
X158673130Y-92091962D01*
X158724962Y-92181737D01*
X158798263Y-92255038D01*
X158888038Y-92306870D01*
X158988168Y-92333700D01*
X158999852Y-92333700D01*
X158423112Y-92910438D01*
X158423112Y-92910439D01*
X158438477Y-92921602D01*
X158599433Y-93003613D01*
X158771249Y-93059440D01*
X158949669Y-93087700D01*
X159130331Y-93087700D01*
X159308750Y-93059440D01*
X159480568Y-93003613D01*
X159582056Y-92951902D01*
X159650726Y-92939005D01*
X159715466Y-92965281D01*
X159755724Y-93022387D01*
X159762352Y-93062386D01*
X159762352Y-97937050D01*
X159742667Y-98004089D01*
X159726033Y-98024731D01*
X159355118Y-98395645D01*
X159293795Y-98429130D01*
X159248040Y-98430437D01*
X159130365Y-98411800D01*
X158949635Y-98411800D01*
X158909177Y-98418208D01*
X158771132Y-98440072D01*
X158599241Y-98495923D01*
X158438208Y-98577974D01*
X158292003Y-98684196D01*
X158164196Y-98812003D01*
X158057974Y-98958208D01*
X157975923Y-99119241D01*
X157920072Y-99291132D01*
X157894672Y-99451500D01*
X157864743Y-99514635D01*
X157805431Y-99551566D01*
X157735568Y-99550568D01*
X157677336Y-99511958D01*
X157649222Y-99447994D01*
X157648199Y-99432102D01*
X157648199Y-98864429D01*
X157648198Y-98864423D01*
X157647602Y-98858882D01*
X157642999Y-98816057D01*
X157641791Y-98804816D01*
X157591497Y-98669971D01*
X157591493Y-98669964D01*
X157505247Y-98554755D01*
X157505244Y-98554752D01*
X157390035Y-98468506D01*
X157390028Y-98468502D01*
X157255182Y-98418208D01*
X157255183Y-98418208D01*
X157195583Y-98411801D01*
X157195581Y-98411800D01*
X157195573Y-98411800D01*
X157195565Y-98411800D01*
X156252397Y-98411800D01*
X156185358Y-98392115D01*
X156164716Y-98375481D01*
X152762819Y-94973584D01*
X152729334Y-94912261D01*
X152726500Y-94885903D01*
X152726500Y-91849635D01*
X155351800Y-91849635D01*
X155351800Y-92030365D01*
X155353747Y-92042657D01*
X155380072Y-92208867D01*
X155380072Y-92208869D01*
X155380073Y-92208871D01*
X155435922Y-92380756D01*
X155517840Y-92541529D01*
X155517974Y-92541791D01*
X155624196Y-92687996D01*
X155752003Y-92815803D01*
X155882260Y-92910438D01*
X155898212Y-92922028D01*
X156059244Y-93004078D01*
X156231129Y-93059927D01*
X156409635Y-93088200D01*
X156409636Y-93088200D01*
X156590364Y-93088200D01*
X156590365Y-93088200D01*
X156768871Y-93059927D01*
X156940756Y-93004078D01*
X157101788Y-92922028D01*
X157183879Y-92862385D01*
X157247996Y-92815803D01*
X157247998Y-92815800D01*
X157248002Y-92815798D01*
X157375798Y-92688002D01*
X157375800Y-92687998D01*
X157375803Y-92687996D01*
X157470302Y-92557927D01*
X157482028Y-92541788D01*
X157564078Y-92380756D01*
X157619927Y-92208871D01*
X157648200Y-92030365D01*
X157648200Y-91849635D01*
X157619927Y-91671129D01*
X157564078Y-91499244D01*
X157482028Y-91338212D01*
X157451805Y-91296613D01*
X157375803Y-91192003D01*
X157247996Y-91064196D01*
X157101791Y-90957974D01*
X157101790Y-90957973D01*
X157101788Y-90957972D01*
X156940756Y-90875922D01*
X156768871Y-90820073D01*
X156768869Y-90820072D01*
X156768867Y-90820072D01*
X156644232Y-90800331D01*
X156590365Y-90791800D01*
X156409635Y-90791800D01*
X156368254Y-90798354D01*
X156231132Y-90820072D01*
X156059241Y-90875923D01*
X155898208Y-90957974D01*
X155752003Y-91064196D01*
X155624196Y-91192003D01*
X155517974Y-91338208D01*
X155435923Y-91499241D01*
X155380072Y-91671132D01*
X155353747Y-91837340D01*
X155351800Y-91849635D01*
X152726500Y-91849635D01*
X152726500Y-83666199D01*
X152726501Y-83650516D01*
X152726501Y-83498093D01*
X152726501Y-83498091D01*
X152685577Y-83345363D01*
X152645222Y-83275467D01*
X152645222Y-83275465D01*
X152606524Y-83208438D01*
X152606521Y-83208434D01*
X152606520Y-83208432D01*
X152494716Y-83096628D01*
X152494715Y-83096627D01*
X152490385Y-83092297D01*
X152490374Y-83092287D01*
X152100442Y-82702355D01*
X152100440Y-82702352D01*
X151981569Y-82583481D01*
X151981568Y-82583480D01*
X151894756Y-82533360D01*
X151894756Y-82533359D01*
X151894752Y-82533358D01*
X151844637Y-82504423D01*
X151691909Y-82463499D01*
X151533795Y-82463499D01*
X151526199Y-82463499D01*
X151526183Y-82463500D01*
X148324500Y-82463500D01*
X148257461Y-82443815D01*
X148211706Y-82391011D01*
X148200500Y-82339500D01*
X148200500Y-80061291D01*
X148220185Y-79994252D01*
X148272989Y-79948497D01*
X148305102Y-79938818D01*
X148337415Y-79933700D01*
X148481118Y-79910940D01*
X148660832Y-79852547D01*
X148829199Y-79766760D01*
X148982073Y-79655690D01*
X149115690Y-79522073D01*
X149210475Y-79391613D01*
X149265804Y-79348949D01*
X149310792Y-79340500D01*
X151933331Y-79340500D01*
X151933347Y-79340501D01*
X151940943Y-79340501D01*
X152099054Y-79340501D01*
X152099057Y-79340501D01*
X152251785Y-79299577D01*
X152301904Y-79270639D01*
X152388716Y-79220520D01*
X152500520Y-79108716D01*
X152500520Y-79108714D01*
X152510728Y-79098507D01*
X152510729Y-79098504D01*
X154787821Y-76821413D01*
X154849142Y-76787930D01*
X154918834Y-76792914D01*
G37*
%TD.AperFunction*%
%TA.AperFunction,Conductor*%
G36*
X200143039Y-57159685D02*
G01*
X200188794Y-57212489D01*
X200200000Y-57264000D01*
X200200000Y-112616000D01*
X200180315Y-112683039D01*
X200127511Y-112728794D01*
X200076000Y-112740000D01*
X86924000Y-112740000D01*
X86856961Y-112720315D01*
X86811206Y-112667511D01*
X86800000Y-112616000D01*
X86800000Y-99045513D01*
X97859500Y-99045513D01*
X97859500Y-99234486D01*
X97889059Y-99421118D01*
X97947454Y-99600836D01*
X97981931Y-99668500D01*
X98033240Y-99769199D01*
X98144310Y-99922073D01*
X98277927Y-100055690D01*
X98430801Y-100166760D01*
X98510347Y-100207290D01*
X98599163Y-100252545D01*
X98599165Y-100252545D01*
X98599168Y-100252547D01*
X98695497Y-100283846D01*
X98778881Y-100310940D01*
X98965514Y-100340500D01*
X98965519Y-100340500D01*
X99154486Y-100340500D01*
X99341118Y-100310940D01*
X99350179Y-100307996D01*
X99520832Y-100252547D01*
X99689199Y-100166760D01*
X99842073Y-100055690D01*
X99975690Y-99922073D01*
X100086760Y-99769199D01*
X100172547Y-99600832D01*
X100230940Y-99421118D01*
X100239508Y-99367021D01*
X100260500Y-99234486D01*
X100260500Y-99045513D01*
X102939500Y-99045513D01*
X102939500Y-99234486D01*
X102969059Y-99421118D01*
X103027454Y-99600836D01*
X103061931Y-99668500D01*
X103113240Y-99769199D01*
X103224310Y-99922073D01*
X103357927Y-100055690D01*
X103510801Y-100166760D01*
X103590347Y-100207290D01*
X103679163Y-100252545D01*
X103679165Y-100252545D01*
X103679168Y-100252547D01*
X103775497Y-100283846D01*
X103858881Y-100310940D01*
X104045514Y-100340500D01*
X104045519Y-100340500D01*
X104234486Y-100340500D01*
X104421118Y-100310940D01*
X104430179Y-100307996D01*
X104600832Y-100252547D01*
X104769199Y-100166760D01*
X104922073Y-100055690D01*
X105055690Y-99922073D01*
X105166760Y-99769199D01*
X105252547Y-99600832D01*
X105310940Y-99421118D01*
X105319508Y-99367021D01*
X105340500Y-99234486D01*
X105340500Y-99045513D01*
X105310940Y-98858881D01*
X105265056Y-98717668D01*
X105252547Y-98679168D01*
X105252545Y-98679165D01*
X105252545Y-98679163D01*
X105200985Y-98577972D01*
X105166760Y-98510801D01*
X105055690Y-98357927D01*
X104922073Y-98224310D01*
X104769199Y-98113240D01*
X104600836Y-98027454D01*
X104421118Y-97969059D01*
X104234486Y-97939500D01*
X104234481Y-97939500D01*
X104045519Y-97939500D01*
X104045514Y-97939500D01*
X103858881Y-97969059D01*
X103679163Y-98027454D01*
X103510800Y-98113240D01*
X103449069Y-98158091D01*
X103357927Y-98224310D01*
X103357925Y-98224312D01*
X103357924Y-98224312D01*
X103224312Y-98357924D01*
X103224312Y-98357925D01*
X103224310Y-98357927D01*
X103199471Y-98392115D01*
X103113240Y-98510800D01*
X103027454Y-98679163D01*
X102969059Y-98858881D01*
X102939500Y-99045513D01*
X100260500Y-99045513D01*
X100230940Y-98858881D01*
X100185056Y-98717668D01*
X100172547Y-98679168D01*
X100172545Y-98679165D01*
X100172545Y-98679163D01*
X100120985Y-98577972D01*
X100086760Y-98510801D01*
X99975690Y-98357927D01*
X99842073Y-98224310D01*
X99689199Y-98113240D01*
X99520836Y-98027454D01*
X99341118Y-97969059D01*
X99154486Y-97939500D01*
X99154481Y-97939500D01*
X98965519Y-97939500D01*
X98965514Y-97939500D01*
X98778881Y-97969059D01*
X98599163Y-98027454D01*
X98430800Y-98113240D01*
X98369069Y-98158091D01*
X98277927Y-98224310D01*
X98277925Y-98224312D01*
X98277924Y-98224312D01*
X98144312Y-98357924D01*
X98144312Y-98357925D01*
X98144310Y-98357927D01*
X98119471Y-98392115D01*
X98033240Y-98510800D01*
X97947454Y-98679163D01*
X97889059Y-98858881D01*
X97859500Y-99045513D01*
X86800000Y-99045513D01*
X86800000Y-94548500D01*
X91945050Y-94548500D01*
X91961849Y-94559725D01*
X91961855Y-94559728D01*
X92130182Y-94629451D01*
X92130194Y-94629454D01*
X92308890Y-94664999D01*
X92308894Y-94665000D01*
X92491106Y-94665000D01*
X92491109Y-94664999D01*
X92669805Y-94629454D01*
X92669813Y-94629452D01*
X92838151Y-94559724D01*
X92838154Y-94559723D01*
X92854947Y-94548500D01*
X92854948Y-94548500D01*
X92400001Y-94093553D01*
X92400000Y-94093553D01*
X91945050Y-94548500D01*
X86800000Y-94548500D01*
X86800000Y-89831156D01*
X91474499Y-89831156D01*
X91510065Y-90009952D01*
X91510067Y-90009958D01*
X91579835Y-90178394D01*
X91581525Y-90181556D01*
X91581908Y-90183399D01*
X91582164Y-90184016D01*
X91582047Y-90184064D01*
X91595761Y-90249960D01*
X91581525Y-90298444D01*
X91579835Y-90301605D01*
X91510067Y-90470041D01*
X91510065Y-90470047D01*
X91474500Y-90648843D01*
X91474500Y-90648846D01*
X91474500Y-90831154D01*
X91474500Y-90831156D01*
X91474499Y-90831156D01*
X91510065Y-91009952D01*
X91510067Y-91009958D01*
X91579835Y-91178394D01*
X91581525Y-91181556D01*
X91581908Y-91183399D01*
X91582164Y-91184016D01*
X91582047Y-91184064D01*
X91595761Y-91249960D01*
X91581525Y-91298444D01*
X91579835Y-91301605D01*
X91510067Y-91470041D01*
X91510065Y-91470047D01*
X91474500Y-91648843D01*
X91474500Y-91648846D01*
X91474500Y-91831154D01*
X91474500Y-91831156D01*
X91474499Y-91831156D01*
X91510065Y-92009952D01*
X91510067Y-92009958D01*
X91579835Y-92178394D01*
X91581525Y-92181556D01*
X91581908Y-92183399D01*
X91582164Y-92184016D01*
X91582047Y-92184064D01*
X91595761Y-92249960D01*
X91581525Y-92298444D01*
X91579835Y-92301605D01*
X91510067Y-92470041D01*
X91510065Y-92470047D01*
X91474500Y-92648843D01*
X91474500Y-92648846D01*
X91474500Y-92831154D01*
X91474500Y-92831156D01*
X91474499Y-92831156D01*
X91510065Y-93009952D01*
X91510068Y-93009962D01*
X91579833Y-93178390D01*
X91581808Y-93182086D01*
X91596046Y-93250489D01*
X91581811Y-93298972D01*
X91580278Y-93301839D01*
X91510547Y-93470186D01*
X91510545Y-93470194D01*
X91475000Y-93648890D01*
X91475000Y-93831109D01*
X91510545Y-94009805D01*
X91510548Y-94009817D01*
X91580271Y-94178145D01*
X91591498Y-94194947D01*
X92105253Y-93681191D01*
X92112219Y-93677387D01*
X92116864Y-93670946D01*
X92142452Y-93660878D01*
X92166576Y-93647706D01*
X92167635Y-93647696D01*
X92150000Y-93690272D01*
X92150000Y-93789728D01*
X92188060Y-93881614D01*
X92258386Y-93951940D01*
X92350272Y-93990000D01*
X92449728Y-93990000D01*
X92541614Y-93951940D01*
X92611940Y-93881614D01*
X92650000Y-93789728D01*
X92650000Y-93690272D01*
X92634079Y-93651837D01*
X92652463Y-93653482D01*
X92694745Y-93681191D01*
X93208500Y-94194948D01*
X93219724Y-94178152D01*
X93219724Y-94178151D01*
X93289452Y-94009813D01*
X93289454Y-94009805D01*
X93324999Y-93831109D01*
X93325000Y-93831106D01*
X93325000Y-93648894D01*
X93324999Y-93648890D01*
X93289454Y-93470194D01*
X93289451Y-93470182D01*
X93219728Y-93301854D01*
X93218198Y-93298992D01*
X93217849Y-93297318D01*
X93217394Y-93296219D01*
X93217602Y-93296132D01*
X93203951Y-93230590D01*
X93218203Y-93182061D01*
X93220160Y-93178399D01*
X93220167Y-93178389D01*
X93289933Y-93009958D01*
X93307424Y-92922025D01*
X93325500Y-92831156D01*
X93325500Y-92648843D01*
X93289934Y-92470047D01*
X93289933Y-92470046D01*
X93289933Y-92470042D01*
X93252871Y-92380566D01*
X93220169Y-92301615D01*
X93218482Y-92298459D01*
X93218097Y-92296613D01*
X93217836Y-92295982D01*
X93217955Y-92295932D01*
X93204236Y-92230057D01*
X93218482Y-92181541D01*
X93220163Y-92178394D01*
X93220167Y-92178389D01*
X93289933Y-92009958D01*
X93317646Y-91870639D01*
X93325500Y-91831156D01*
X93325500Y-91648843D01*
X93289934Y-91470047D01*
X93289933Y-91470046D01*
X93289933Y-91470042D01*
X93275203Y-91434481D01*
X93220169Y-91301615D01*
X93218482Y-91298459D01*
X93218097Y-91296613D01*
X93217836Y-91295982D01*
X93217955Y-91295932D01*
X93204236Y-91230057D01*
X93218482Y-91181541D01*
X93220163Y-91178394D01*
X93220167Y-91178389D01*
X93289933Y-91009958D01*
X93314368Y-90887117D01*
X93325500Y-90831156D01*
X93325500Y-90648843D01*
X93289934Y-90470047D01*
X93289933Y-90470046D01*
X93289933Y-90470042D01*
X93238356Y-90345523D01*
X93220169Y-90301615D01*
X93218482Y-90298459D01*
X93218097Y-90296613D01*
X93217836Y-90295982D01*
X93217955Y-90295932D01*
X93204236Y-90230057D01*
X93218482Y-90181541D01*
X93220163Y-90178394D01*
X93220167Y-90178389D01*
X93289933Y-90009958D01*
X93307989Y-89919185D01*
X93325500Y-89831156D01*
X93325500Y-89654837D01*
X93325500Y-89648846D01*
X93324837Y-89645513D01*
X108659500Y-89645513D01*
X108659500Y-89834486D01*
X108689059Y-90021118D01*
X108747454Y-90200836D01*
X108828647Y-90360185D01*
X108833240Y-90369199D01*
X108944310Y-90522073D01*
X109077927Y-90655690D01*
X109208386Y-90750474D01*
X109251051Y-90805803D01*
X109259500Y-90850791D01*
X109259500Y-94653330D01*
X109259499Y-94653348D01*
X109259499Y-94819054D01*
X109259498Y-94819054D01*
X109300423Y-94971787D01*
X109308802Y-94986298D01*
X109308801Y-94986298D01*
X109308803Y-94986300D01*
X109379475Y-95108709D01*
X109379481Y-95108717D01*
X109498349Y-95227585D01*
X109498355Y-95227590D01*
X109649933Y-95379168D01*
X109683418Y-95440491D01*
X109684725Y-95486247D01*
X109659500Y-95645513D01*
X109659500Y-95834486D01*
X109689059Y-96021118D01*
X109747454Y-96200836D01*
X109833240Y-96369199D01*
X109944310Y-96522073D01*
X110077927Y-96655690D01*
X110230801Y-96766760D01*
X110310347Y-96807290D01*
X110399163Y-96852545D01*
X110399165Y-96852545D01*
X110399168Y-96852547D01*
X110495497Y-96883846D01*
X110578881Y-96910940D01*
X110765514Y-96940500D01*
X110765519Y-96940500D01*
X110954486Y-96940500D01*
X111141118Y-96910940D01*
X111320832Y-96852547D01*
X111489199Y-96766760D01*
X111642073Y-96655690D01*
X111775690Y-96522073D01*
X111886760Y-96369199D01*
X111972547Y-96200832D01*
X112030940Y-96021118D01*
X112037228Y-95981416D01*
X112060500Y-95834486D01*
X112060500Y-95645513D01*
X114739500Y-95645513D01*
X114739500Y-95834486D01*
X114769059Y-96021118D01*
X114827454Y-96200836D01*
X114913240Y-96369199D01*
X115024310Y-96522073D01*
X115157927Y-96655690D01*
X115310801Y-96766760D01*
X115390347Y-96807290D01*
X115479163Y-96852545D01*
X115479165Y-96852545D01*
X115479168Y-96852547D01*
X115575497Y-96883846D01*
X115658881Y-96910940D01*
X115845514Y-96940500D01*
X115845519Y-96940500D01*
X116034486Y-96940500D01*
X116221118Y-96910940D01*
X116400832Y-96852547D01*
X116569199Y-96766760D01*
X116722073Y-96655690D01*
X116855690Y-96522073D01*
X116966760Y-96369199D01*
X117052547Y-96200832D01*
X117110940Y-96021118D01*
X117117228Y-95981416D01*
X117140500Y-95834486D01*
X117140500Y-95645513D01*
X117110940Y-95458881D01*
X117052545Y-95279163D01*
X116966759Y-95110800D01*
X116965240Y-95108709D01*
X116855690Y-94957927D01*
X116722073Y-94824310D01*
X116569199Y-94713240D01*
X116525272Y-94690858D01*
X116400836Y-94627454D01*
X116221118Y-94569059D01*
X116034486Y-94539500D01*
X116034481Y-94539500D01*
X115845519Y-94539500D01*
X115845514Y-94539500D01*
X115658881Y-94569059D01*
X115479163Y-94627454D01*
X115310800Y-94713240D01*
X115223579Y-94776610D01*
X115157927Y-94824310D01*
X115157925Y-94824312D01*
X115157924Y-94824312D01*
X115024312Y-94957924D01*
X115024312Y-94957925D01*
X115024310Y-94957927D01*
X115004405Y-94985324D01*
X114913240Y-95110800D01*
X114827454Y-95279163D01*
X114769059Y-95458881D01*
X114739500Y-95645513D01*
X112060500Y-95645513D01*
X112030940Y-95458881D01*
X111972545Y-95279163D01*
X111886759Y-95110800D01*
X111885240Y-95108709D01*
X111775690Y-94957927D01*
X111642073Y-94824310D01*
X111489199Y-94713240D01*
X111445272Y-94690858D01*
X111320836Y-94627454D01*
X111141118Y-94569059D01*
X110954486Y-94539500D01*
X110954481Y-94539500D01*
X110765519Y-94539500D01*
X110765514Y-94539500D01*
X110606248Y-94564725D01*
X110600809Y-94564022D01*
X110595670Y-94565938D01*
X110566524Y-94559591D01*
X110536954Y-94555770D01*
X110531338Y-94551929D01*
X110527400Y-94551072D01*
X110499152Y-94529916D01*
X110496800Y-94527564D01*
X110463328Y-94466233D01*
X110460500Y-94439901D01*
X110460500Y-90850791D01*
X110480185Y-90783752D01*
X110511612Y-90750475D01*
X110642073Y-90655690D01*
X110775690Y-90522073D01*
X110886760Y-90369199D01*
X110955809Y-90233682D01*
X113338498Y-90233682D01*
X113379423Y-90386413D01*
X113387629Y-90400626D01*
X113458477Y-90523340D01*
X113458481Y-90523345D01*
X113577349Y-90642213D01*
X113577355Y-90642218D01*
X120570181Y-97635044D01*
X120603666Y-97696367D01*
X120606500Y-97722725D01*
X120606500Y-99162914D01*
X120586815Y-99229953D01*
X120534011Y-99275708D01*
X120464853Y-99285652D01*
X120409617Y-99263234D01*
X120391695Y-99250214D01*
X120391696Y-99250214D01*
X120391694Y-99250213D01*
X120305797Y-99206446D01*
X120214632Y-99159994D01*
X120214629Y-99159993D01*
X120025637Y-99098587D01*
X119927498Y-99083043D01*
X119829361Y-99067500D01*
X119630639Y-99067500D01*
X119565214Y-99077862D01*
X119434362Y-99098587D01*
X119245370Y-99159993D01*
X119245367Y-99159994D01*
X119068305Y-99250213D01*
X118907533Y-99367021D01*
X118767021Y-99507533D01*
X118650213Y-99668305D01*
X118570485Y-99824780D01*
X118522510Y-99875576D01*
X118454689Y-99892371D01*
X118388554Y-99869833D01*
X118349515Y-99824780D01*
X118292031Y-99711962D01*
X118269787Y-99668306D01*
X118152981Y-99507536D01*
X118012464Y-99367019D01*
X117851694Y-99250213D01*
X117841388Y-99244962D01*
X117674632Y-99159994D01*
X117674629Y-99159993D01*
X117485637Y-99098587D01*
X117387498Y-99083043D01*
X117289361Y-99067500D01*
X117090639Y-99067500D01*
X117025214Y-99077862D01*
X116894362Y-99098587D01*
X116705370Y-99159993D01*
X116705367Y-99159994D01*
X116528305Y-99250213D01*
X116367533Y-99367021D01*
X116227021Y-99507533D01*
X116110213Y-99668305D01*
X116019994Y-99845367D01*
X116019993Y-99845370D01*
X115958587Y-100034362D01*
X115928292Y-100225636D01*
X115927500Y-100230639D01*
X115927500Y-100429361D01*
X115936834Y-100488291D01*
X115958587Y-100625637D01*
X116019993Y-100814629D01*
X116019994Y-100814632D01*
X116110213Y-100991694D01*
X116227019Y-101152464D01*
X116367536Y-101292981D01*
X116528306Y-101409787D01*
X116615149Y-101454035D01*
X116705367Y-101500005D01*
X116705370Y-101500006D01*
X116799866Y-101530709D01*
X116894364Y-101561413D01*
X117090639Y-101592500D01*
X117090640Y-101592500D01*
X117289360Y-101592500D01*
X117289361Y-101592500D01*
X117485636Y-101561413D01*
X117674632Y-101500005D01*
X117851694Y-101409787D01*
X118012464Y-101292981D01*
X118152981Y-101152464D01*
X118269787Y-100991694D01*
X118349515Y-100835218D01*
X118397490Y-100784423D01*
X118465311Y-100767628D01*
X118531446Y-100790165D01*
X118570484Y-100835218D01*
X118650213Y-100991694D01*
X118767019Y-101152464D01*
X118907536Y-101292981D01*
X119068306Y-101409787D01*
X119155149Y-101454035D01*
X119245367Y-101500005D01*
X119245370Y-101500006D01*
X119339866Y-101530709D01*
X119434364Y-101561413D01*
X119630639Y-101592500D01*
X119630640Y-101592500D01*
X119829360Y-101592500D01*
X119829361Y-101592500D01*
X120025636Y-101561413D01*
X120214632Y-101500005D01*
X120391694Y-101409787D01*
X120404536Y-101400457D01*
X120409614Y-101396768D01*
X120475420Y-101373287D01*
X120543474Y-101389112D01*
X120592169Y-101439217D01*
X120606500Y-101497085D01*
X120606500Y-106782914D01*
X120586815Y-106849953D01*
X120534011Y-106895708D01*
X120464853Y-106905652D01*
X120409617Y-106883234D01*
X120391695Y-106870214D01*
X120391696Y-106870214D01*
X120391694Y-106870213D01*
X120313659Y-106830452D01*
X120214632Y-106779994D01*
X120214629Y-106779993D01*
X120025637Y-106718587D01*
X119911427Y-106700498D01*
X119829361Y-106687500D01*
X119630639Y-106687500D01*
X119565214Y-106697862D01*
X119434362Y-106718587D01*
X119245370Y-106779993D01*
X119245367Y-106779994D01*
X119068305Y-106870213D01*
X118907533Y-106987021D01*
X118767021Y-107127533D01*
X118767021Y-107127534D01*
X118767019Y-107127536D01*
X118729772Y-107178802D01*
X118676817Y-107251688D01*
X118621487Y-107294353D01*
X118551873Y-107300332D01*
X118490078Y-107267726D01*
X118455721Y-107206887D01*
X118452499Y-107178802D01*
X118452499Y-107140129D01*
X118452498Y-107140123D01*
X118452497Y-107140116D01*
X118446091Y-107080517D01*
X118411219Y-106987021D01*
X118395797Y-106945671D01*
X118395793Y-106945664D01*
X118309547Y-106830455D01*
X118309544Y-106830452D01*
X118194335Y-106744206D01*
X118194328Y-106744202D01*
X118059482Y-106693908D01*
X118059483Y-106693908D01*
X117999883Y-106687501D01*
X117999881Y-106687500D01*
X117999873Y-106687500D01*
X117999864Y-106687500D01*
X116380129Y-106687500D01*
X116380123Y-106687501D01*
X116320516Y-106693908D01*
X116185671Y-106744202D01*
X116185664Y-106744206D01*
X116070455Y-106830452D01*
X116070452Y-106830455D01*
X115984206Y-106945664D01*
X115984202Y-106945671D01*
X115933908Y-107080517D01*
X115927501Y-107140116D01*
X115927501Y-107140123D01*
X115927500Y-107140135D01*
X115927500Y-108759870D01*
X115927501Y-108759876D01*
X115933908Y-108819483D01*
X115984202Y-108954328D01*
X115984206Y-108954335D01*
X116070452Y-109069544D01*
X116070455Y-109069547D01*
X116185664Y-109155793D01*
X116185671Y-109155797D01*
X116320517Y-109206091D01*
X116320516Y-109206091D01*
X116327444Y-109206835D01*
X116380127Y-109212500D01*
X117999872Y-109212499D01*
X118059483Y-109206091D01*
X118194331Y-109155796D01*
X118309546Y-109069546D01*
X118395796Y-108954331D01*
X118446091Y-108819483D01*
X118452500Y-108759873D01*
X118452499Y-108721197D01*
X118472182Y-108654161D01*
X118524985Y-108608405D01*
X118594143Y-108598460D01*
X118657699Y-108627483D01*
X118676817Y-108648312D01*
X118701476Y-108682252D01*
X118767019Y-108772464D01*
X118907536Y-108912981D01*
X119068306Y-109029787D01*
X119146333Y-109069544D01*
X119245367Y-109120005D01*
X119245370Y-109120006D01*
X119339866Y-109150709D01*
X119434364Y-109181413D01*
X119630639Y-109212500D01*
X119630640Y-109212500D01*
X119829360Y-109212500D01*
X119829361Y-109212500D01*
X120025636Y-109181413D01*
X120214632Y-109120005D01*
X120391694Y-109029787D01*
X120552464Y-108912981D01*
X120628771Y-108836673D01*
X120636712Y-108832337D01*
X120642137Y-108825091D01*
X120666896Y-108815855D01*
X120690090Y-108803191D01*
X120699119Y-108803836D01*
X120707601Y-108800673D01*
X120733423Y-108806290D01*
X120759782Y-108808175D01*
X120768834Y-108813992D01*
X120775875Y-108815524D01*
X120804126Y-108836673D01*
X120804129Y-108836675D01*
X120838284Y-108870830D01*
X120838286Y-108870831D01*
X121460974Y-109493520D01*
X121460976Y-109493521D01*
X121460980Y-109493524D01*
X121597899Y-109572573D01*
X121597906Y-109572577D01*
X121750633Y-109613501D01*
X121750635Y-109613501D01*
X121916344Y-109613501D01*
X121916360Y-109613500D01*
X122623641Y-109613500D01*
X122623657Y-109613501D01*
X122631253Y-109613501D01*
X122789364Y-109613501D01*
X122789367Y-109613501D01*
X122942095Y-109572577D01*
X122992214Y-109543639D01*
X123079026Y-109493520D01*
X123190830Y-109381716D01*
X123190830Y-109381714D01*
X123201038Y-109371507D01*
X123201039Y-109371504D01*
X123735870Y-108836675D01*
X123797192Y-108803191D01*
X123866884Y-108808175D01*
X123911231Y-108836676D01*
X123987536Y-108912981D01*
X124148306Y-109029787D01*
X124226333Y-109069544D01*
X124325367Y-109120005D01*
X124325370Y-109120006D01*
X124419866Y-109150709D01*
X124514364Y-109181413D01*
X124710639Y-109212500D01*
X124710640Y-109212500D01*
X124909360Y-109212500D01*
X124909361Y-109212500D01*
X125105636Y-109181413D01*
X125294632Y-109120005D01*
X125471694Y-109029787D01*
X125632464Y-108912981D01*
X125772981Y-108772464D01*
X125889787Y-108611694D01*
X125980005Y-108434632D01*
X126041413Y-108245636D01*
X126072500Y-108049361D01*
X126072500Y-107850639D01*
X126041413Y-107654364D01*
X125980005Y-107465368D01*
X125980005Y-107465367D01*
X125934035Y-107375149D01*
X125889787Y-107288306D01*
X125772981Y-107127536D01*
X125632464Y-106987019D01*
X125471694Y-106870213D01*
X125419758Y-106843750D01*
X125294632Y-106779994D01*
X125294629Y-106779993D01*
X125198227Y-106748671D01*
X125140552Y-106709234D01*
X125113353Y-106644875D01*
X125125267Y-106576029D01*
X125148861Y-106543062D01*
X147509031Y-84182893D01*
X147570350Y-84149411D01*
X147640042Y-84154395D01*
X147695975Y-84196267D01*
X147714639Y-84232258D01*
X147753760Y-84352661D01*
X147830580Y-84503427D01*
X147831606Y-84504838D01*
X147831607Y-84504839D01*
X148375000Y-83961446D01*
X148375000Y-83989370D01*
X148400556Y-84084745D01*
X148449925Y-84170255D01*
X148519745Y-84240075D01*
X148605255Y-84289444D01*
X148700630Y-84315000D01*
X148728553Y-84315000D01*
X148185159Y-84858391D01*
X148186578Y-84859422D01*
X148337340Y-84936239D01*
X148498273Y-84988530D01*
X148665391Y-85015000D01*
X148834609Y-85015000D01*
X149001726Y-84988530D01*
X149162659Y-84936239D01*
X149313424Y-84859420D01*
X149314839Y-84858391D01*
X148771448Y-84315000D01*
X148799370Y-84315000D01*
X148894745Y-84289444D01*
X148980255Y-84240075D01*
X149050075Y-84170255D01*
X149099444Y-84084745D01*
X149125000Y-83989370D01*
X149125000Y-83961447D01*
X149668391Y-84504839D01*
X149669420Y-84503424D01*
X149746239Y-84352659D01*
X149798530Y-84191726D01*
X149825000Y-84024609D01*
X149825000Y-83855390D01*
X149817478Y-83807898D01*
X149819873Y-83789358D01*
X149817213Y-83770853D01*
X149824259Y-83755423D01*
X149826433Y-83738604D01*
X149838471Y-83724302D01*
X149846238Y-83707297D01*
X149860506Y-83698127D01*
X149871429Y-83685152D01*
X149889289Y-83679629D01*
X149905016Y-83669523D01*
X149936721Y-83664964D01*
X149938181Y-83664513D01*
X149939951Y-83664500D01*
X150059543Y-83664500D01*
X150126582Y-83684185D01*
X150172337Y-83736989D01*
X150182281Y-83806147D01*
X150182016Y-83807898D01*
X150174500Y-83855350D01*
X150174500Y-84024649D01*
X150200981Y-84191847D01*
X150253296Y-84352853D01*
X150330152Y-84503688D01*
X150429648Y-84640634D01*
X150429652Y-84640639D01*
X150429654Y-84640641D01*
X150549359Y-84760346D01*
X150608385Y-84803230D01*
X150651051Y-84858558D01*
X150659500Y-84903548D01*
X150659500Y-104829207D01*
X150639815Y-104896246D01*
X150608386Y-104929525D01*
X150477925Y-105024311D01*
X150344312Y-105157924D01*
X150344312Y-105157925D01*
X150344310Y-105157927D01*
X150296610Y-105223579D01*
X150233240Y-105310800D01*
X150147454Y-105479163D01*
X150089059Y-105658881D01*
X150059500Y-105845513D01*
X150059500Y-106034486D01*
X150085256Y-106197102D01*
X150076301Y-106266395D01*
X150031305Y-106319847D01*
X149964554Y-106340487D01*
X149962783Y-106340500D01*
X148581097Y-106340500D01*
X148514058Y-106320815D01*
X148493416Y-106304181D01*
X143589692Y-101400457D01*
X143556207Y-101339134D01*
X143561191Y-101269442D01*
X143603063Y-101213509D01*
X143668527Y-101189092D01*
X143696765Y-101190302D01*
X143710639Y-101192500D01*
X143710643Y-101192500D01*
X143909360Y-101192500D01*
X143909361Y-101192500D01*
X144105636Y-101161413D01*
X144294632Y-101100005D01*
X144471694Y-101009787D01*
X144632464Y-100892981D01*
X144772981Y-100752464D01*
X144889787Y-100591694D01*
X144980005Y-100414632D01*
X145041413Y-100225636D01*
X145072500Y-100029361D01*
X145072500Y-99830639D01*
X145041413Y-99634364D01*
X145000410Y-99508168D01*
X144980006Y-99445370D01*
X144980005Y-99445367D01*
X144915241Y-99318263D01*
X144889787Y-99268306D01*
X144772981Y-99107536D01*
X144632464Y-98967019D01*
X144471694Y-98850213D01*
X144294632Y-98759994D01*
X144294629Y-98759993D01*
X144105637Y-98698587D01*
X144007498Y-98683043D01*
X143909361Y-98667500D01*
X143710639Y-98667500D01*
X143645214Y-98677862D01*
X143514362Y-98698587D01*
X143325370Y-98759993D01*
X143325367Y-98759994D01*
X143148305Y-98850213D01*
X142987533Y-98967021D01*
X142847021Y-99107533D01*
X142730213Y-99268305D01*
X142650485Y-99424780D01*
X142602510Y-99475576D01*
X142534689Y-99492371D01*
X142468554Y-99469833D01*
X142429515Y-99424780D01*
X142375241Y-99318263D01*
X142349787Y-99268306D01*
X142232981Y-99107536D01*
X142092464Y-98967019D01*
X141931694Y-98850213D01*
X141754632Y-98759994D01*
X141754629Y-98759993D01*
X141565637Y-98698587D01*
X141467498Y-98683043D01*
X141369361Y-98667500D01*
X141170639Y-98667500D01*
X141105214Y-98677862D01*
X140974362Y-98698587D01*
X140785370Y-98759993D01*
X140785367Y-98759994D01*
X140608305Y-98850213D01*
X140447533Y-98967021D01*
X140307021Y-99107533D01*
X140190213Y-99268305D01*
X140110485Y-99424780D01*
X140062510Y-99475576D01*
X139994689Y-99492371D01*
X139928554Y-99469833D01*
X139889515Y-99424780D01*
X139835241Y-99318263D01*
X139809787Y-99268306D01*
X139692981Y-99107536D01*
X139552464Y-98967019D01*
X139391694Y-98850213D01*
X139214632Y-98759994D01*
X139214629Y-98759993D01*
X139025637Y-98698587D01*
X138927498Y-98683043D01*
X138829361Y-98667500D01*
X138630639Y-98667500D01*
X138565214Y-98677862D01*
X138434362Y-98698587D01*
X138245370Y-98759993D01*
X138245367Y-98759994D01*
X138068305Y-98850213D01*
X137907533Y-98967021D01*
X137767021Y-99107533D01*
X137650213Y-99268305D01*
X137570485Y-99424780D01*
X137522510Y-99475576D01*
X137454689Y-99492371D01*
X137388554Y-99469833D01*
X137349515Y-99424780D01*
X137295241Y-99318263D01*
X137269787Y-99268306D01*
X137152981Y-99107536D01*
X137012464Y-98967019D01*
X136851694Y-98850213D01*
X136674632Y-98759994D01*
X136674629Y-98759993D01*
X136485637Y-98698587D01*
X136387498Y-98683043D01*
X136289361Y-98667500D01*
X136090639Y-98667500D01*
X136025214Y-98677862D01*
X135894362Y-98698587D01*
X135705370Y-98759993D01*
X135705367Y-98759994D01*
X135528305Y-98850213D01*
X135367533Y-98967021D01*
X135227021Y-99107533D01*
X135110213Y-99268305D01*
X135019994Y-99445367D01*
X135019993Y-99445370D01*
X134958587Y-99634362D01*
X134942366Y-99736777D01*
X134927500Y-99830639D01*
X134927500Y-100029361D01*
X134931670Y-100055687D01*
X134958587Y-100225637D01*
X135019993Y-100414629D01*
X135019994Y-100414632D01*
X135110213Y-100591694D01*
X135227019Y-100752464D01*
X135367536Y-100892981D01*
X135528306Y-101009787D01*
X135615149Y-101054035D01*
X135705367Y-101100005D01*
X135705370Y-101100006D01*
X135799866Y-101130709D01*
X135894364Y-101161413D01*
X136090639Y-101192500D01*
X136090640Y-101192500D01*
X136289360Y-101192500D01*
X136289361Y-101192500D01*
X136485636Y-101161413D01*
X136674632Y-101100005D01*
X136851694Y-101009787D01*
X137012464Y-100892981D01*
X137152981Y-100752464D01*
X137269787Y-100591694D01*
X137349515Y-100435218D01*
X137397490Y-100384423D01*
X137465311Y-100367628D01*
X137531446Y-100390165D01*
X137570484Y-100435218D01*
X137650213Y-100591694D01*
X137767019Y-100752464D01*
X137907536Y-100892981D01*
X138068306Y-101009787D01*
X138155149Y-101054035D01*
X138245367Y-101100005D01*
X138245370Y-101100006D01*
X138339866Y-101130709D01*
X138434364Y-101161413D01*
X138630639Y-101192500D01*
X138630640Y-101192500D01*
X138829360Y-101192500D01*
X138829361Y-101192500D01*
X139025636Y-101161413D01*
X139214632Y-101100005D01*
X139391694Y-101009787D01*
X139552464Y-100892981D01*
X139692981Y-100752464D01*
X139809787Y-100591694D01*
X139889515Y-100435218D01*
X139937490Y-100384423D01*
X140005311Y-100367628D01*
X140071446Y-100390165D01*
X140110484Y-100435218D01*
X140190213Y-100591694D01*
X140307019Y-100752464D01*
X140447536Y-100892981D01*
X140608306Y-101009787D01*
X140695149Y-101054035D01*
X140785367Y-101100005D01*
X140785370Y-101100006D01*
X140879866Y-101130709D01*
X140974364Y-101161413D01*
X141170639Y-101192500D01*
X141170640Y-101192500D01*
X141369360Y-101192500D01*
X141369361Y-101192500D01*
X141565636Y-101161413D01*
X141565646Y-101161409D01*
X141567891Y-101160871D01*
X141568778Y-101160915D01*
X141570448Y-101160651D01*
X141570503Y-101161001D01*
X141637674Y-101164357D01*
X141684527Y-101193762D01*
X147228584Y-106737819D01*
X147262069Y-106799142D01*
X147257085Y-106868834D01*
X147215213Y-106924767D01*
X147149749Y-106949184D01*
X147140903Y-106949500D01*
X145613407Y-106949500D01*
X145546368Y-106929815D01*
X145525726Y-106913181D01*
X144737900Y-106125355D01*
X144737898Y-106125352D01*
X144619027Y-106006481D01*
X144619026Y-106006480D01*
X144532214Y-105956360D01*
X144532214Y-105956359D01*
X144532210Y-105956358D01*
X144482095Y-105927423D01*
X144329367Y-105886499D01*
X144171253Y-105886499D01*
X144163657Y-105886499D01*
X144163641Y-105886500D01*
X142419669Y-105886500D01*
X142419653Y-105886499D01*
X142412057Y-105886499D01*
X142253943Y-105886499D01*
X142153836Y-105913323D01*
X142101210Y-105927424D01*
X142101209Y-105927425D01*
X142051096Y-105956359D01*
X142051095Y-105956360D01*
X142007689Y-105981420D01*
X141964285Y-106006479D01*
X141964282Y-106006481D01*
X141852480Y-106118283D01*
X141852480Y-106118284D01*
X141852478Y-106118286D01*
X141749646Y-106221118D01*
X141684526Y-106286238D01*
X141623203Y-106319722D01*
X141570478Y-106319158D01*
X141570448Y-106319349D01*
X141569156Y-106319144D01*
X141567903Y-106319131D01*
X141565636Y-106318586D01*
X141396196Y-106291750D01*
X141369361Y-106287500D01*
X141170639Y-106287500D01*
X141105214Y-106297862D01*
X140974362Y-106318587D01*
X140785370Y-106379993D01*
X140785367Y-106379994D01*
X140608305Y-106470213D01*
X140447533Y-106587021D01*
X140307021Y-106727533D01*
X140190213Y-106888305D01*
X140110485Y-107044780D01*
X140062510Y-107095576D01*
X139994689Y-107112371D01*
X139928554Y-107089833D01*
X139889515Y-107044780D01*
X139828365Y-106924767D01*
X139809787Y-106888306D01*
X139692981Y-106727536D01*
X139552464Y-106587019D01*
X139391694Y-106470213D01*
X139348578Y-106448244D01*
X139214632Y-106379994D01*
X139214629Y-106379993D01*
X139025637Y-106318587D01*
X138927498Y-106303043D01*
X138829361Y-106287500D01*
X138630639Y-106287500D01*
X138565214Y-106297862D01*
X138434362Y-106318587D01*
X138245370Y-106379993D01*
X138245367Y-106379994D01*
X138068305Y-106470213D01*
X137907533Y-106587021D01*
X137767021Y-106727533D01*
X137767021Y-106727534D01*
X137767019Y-106727536D01*
X137751664Y-106748671D01*
X137676817Y-106851688D01*
X137621487Y-106894353D01*
X137551873Y-106900332D01*
X137490078Y-106867726D01*
X137455721Y-106806887D01*
X137452499Y-106778802D01*
X137452499Y-106740129D01*
X137452498Y-106740123D01*
X137452497Y-106740116D01*
X137446091Y-106680517D01*
X137432797Y-106644875D01*
X137395797Y-106545671D01*
X137395793Y-106545664D01*
X137309547Y-106430455D01*
X137309544Y-106430452D01*
X137194335Y-106344206D01*
X137194328Y-106344202D01*
X137059482Y-106293908D01*
X137059483Y-106293908D01*
X136999883Y-106287501D01*
X136999881Y-106287500D01*
X136999873Y-106287500D01*
X136999864Y-106287500D01*
X135380129Y-106287500D01*
X135380123Y-106287501D01*
X135320516Y-106293908D01*
X135185671Y-106344202D01*
X135185664Y-106344206D01*
X135070455Y-106430452D01*
X135070452Y-106430455D01*
X134984206Y-106545664D01*
X134984202Y-106545671D01*
X134933908Y-106680517D01*
X134928278Y-106732890D01*
X134927501Y-106740123D01*
X134927500Y-106740135D01*
X134927500Y-108359870D01*
X134927501Y-108359876D01*
X134933908Y-108419483D01*
X134984202Y-108554328D01*
X134984206Y-108554335D01*
X135070452Y-108669544D01*
X135070455Y-108669547D01*
X135185664Y-108755793D01*
X135185671Y-108755797D01*
X135320517Y-108806091D01*
X135320516Y-108806091D01*
X135327444Y-108806835D01*
X135380127Y-108812500D01*
X136999872Y-108812499D01*
X137059483Y-108806091D01*
X137194331Y-108755796D01*
X137309546Y-108669546D01*
X137395796Y-108554331D01*
X137446091Y-108419483D01*
X137452500Y-108359873D01*
X137452499Y-108321197D01*
X137472182Y-108254161D01*
X137524985Y-108208405D01*
X137594143Y-108198460D01*
X137657699Y-108227483D01*
X137676817Y-108248312D01*
X137767019Y-108372464D01*
X137907536Y-108512981D01*
X138068306Y-108629787D01*
X138146333Y-108669544D01*
X138245367Y-108720005D01*
X138245370Y-108720006D01*
X138339866Y-108750709D01*
X138434364Y-108781413D01*
X138630639Y-108812500D01*
X138630640Y-108812500D01*
X138829360Y-108812500D01*
X138829361Y-108812500D01*
X139025636Y-108781413D01*
X139214632Y-108720005D01*
X139391694Y-108629787D01*
X139552464Y-108512981D01*
X139692981Y-108372464D01*
X139809787Y-108211694D01*
X139889515Y-108055218D01*
X139937490Y-108004423D01*
X140005311Y-107987628D01*
X140071446Y-108010165D01*
X140110484Y-108055218D01*
X140190213Y-108211694D01*
X140307019Y-108372464D01*
X140447536Y-108512981D01*
X140608306Y-108629787D01*
X140686333Y-108669544D01*
X140785367Y-108720005D01*
X140785370Y-108720006D01*
X140879866Y-108750709D01*
X140974364Y-108781413D01*
X141170639Y-108812500D01*
X141170640Y-108812500D01*
X141369360Y-108812500D01*
X141369361Y-108812500D01*
X141565636Y-108781413D01*
X141754632Y-108720005D01*
X141931694Y-108629787D01*
X142092464Y-108512981D01*
X142232981Y-108372464D01*
X142349787Y-108211694D01*
X142429515Y-108055218D01*
X142477490Y-108004423D01*
X142545311Y-107987628D01*
X142611446Y-108010165D01*
X142650484Y-108055218D01*
X142730213Y-108211694D01*
X142847019Y-108372464D01*
X142987536Y-108512981D01*
X143148306Y-108629787D01*
X143226333Y-108669544D01*
X143325367Y-108720005D01*
X143325370Y-108720006D01*
X143419866Y-108750709D01*
X143514364Y-108781413D01*
X143710639Y-108812500D01*
X143710640Y-108812500D01*
X143909360Y-108812500D01*
X143909361Y-108812500D01*
X144105636Y-108781413D01*
X144294632Y-108720005D01*
X144471694Y-108629787D01*
X144632464Y-108512981D01*
X144772981Y-108372464D01*
X144889787Y-108211694D01*
X144914253Y-108163675D01*
X144962224Y-108112882D01*
X145030044Y-108096086D01*
X145073121Y-108108629D01*
X145074017Y-108106467D01*
X145081520Y-108109574D01*
X145081525Y-108109577D01*
X145234253Y-108150501D01*
X145234256Y-108150501D01*
X145399963Y-108150501D01*
X145399979Y-108150500D01*
X173881031Y-108150500D01*
X173881047Y-108150501D01*
X173888643Y-108150501D01*
X174046754Y-108150501D01*
X174046757Y-108150501D01*
X174199485Y-108109577D01*
X174249604Y-108080639D01*
X174336416Y-108030520D01*
X174448220Y-107918716D01*
X174448220Y-107918714D01*
X174458428Y-107908507D01*
X174458430Y-107908504D01*
X177335179Y-105031755D01*
X183299600Y-105031755D01*
X183299600Y-105490000D01*
X184135263Y-105490000D01*
X184134799Y-105490464D01*
X184081295Y-105583135D01*
X184053600Y-105686496D01*
X184053600Y-105793504D01*
X184081295Y-105896865D01*
X184134799Y-105989536D01*
X184135263Y-105990000D01*
X183299600Y-105990000D01*
X183299600Y-106448244D01*
X183306001Y-106507772D01*
X183306003Y-106507779D01*
X183356245Y-106642486D01*
X183356249Y-106642493D01*
X183442409Y-106757587D01*
X183442412Y-106757590D01*
X183557506Y-106843750D01*
X183557513Y-106843754D01*
X183692220Y-106893996D01*
X183692227Y-106893998D01*
X183751755Y-106900399D01*
X183751772Y-106900400D01*
X184210000Y-106900400D01*
X184210000Y-106064737D01*
X184210464Y-106065201D01*
X184303135Y-106118705D01*
X184406496Y-106146400D01*
X184513504Y-106146400D01*
X184616865Y-106118705D01*
X184709536Y-106065201D01*
X184710000Y-106064737D01*
X184710000Y-106900400D01*
X185168228Y-106900400D01*
X185168244Y-106900399D01*
X185227772Y-106893998D01*
X185227779Y-106893996D01*
X185362486Y-106843754D01*
X185362493Y-106843750D01*
X185477587Y-106757590D01*
X185477590Y-106757587D01*
X185563750Y-106642493D01*
X185563754Y-106642486D01*
X185613996Y-106507779D01*
X185613998Y-106507772D01*
X185620399Y-106448244D01*
X185620400Y-106448227D01*
X185620400Y-106026117D01*
X185640085Y-105959078D01*
X185692889Y-105913323D01*
X185762047Y-105903379D01*
X185825603Y-105932404D01*
X185863377Y-105991182D01*
X185866873Y-106006719D01*
X185867684Y-106011842D01*
X185867685Y-106011845D01*
X185924152Y-106185631D01*
X186007109Y-106348444D01*
X186114515Y-106496276D01*
X186243724Y-106625485D01*
X186391556Y-106732891D01*
X186554369Y-106815848D01*
X186728155Y-106872315D01*
X186795835Y-106883034D01*
X186908630Y-106900900D01*
X186908635Y-106900900D01*
X187091370Y-106900900D01*
X187191631Y-106885019D01*
X187271845Y-106872315D01*
X187445631Y-106815848D01*
X187608444Y-106732891D01*
X187756276Y-106625485D01*
X187885485Y-106496276D01*
X187992891Y-106348444D01*
X188075848Y-106185631D01*
X188132315Y-106011845D01*
X188147527Y-105915802D01*
X188177456Y-105852667D01*
X188236768Y-105815736D01*
X188306630Y-105816734D01*
X188364863Y-105855344D01*
X188392473Y-105915802D01*
X188407684Y-106011841D01*
X188407684Y-106011843D01*
X188407685Y-106011845D01*
X188464152Y-106185631D01*
X188547109Y-106348444D01*
X188654515Y-106496276D01*
X188783724Y-106625485D01*
X188931556Y-106732891D01*
X189094369Y-106815848D01*
X189268155Y-106872315D01*
X189335835Y-106883034D01*
X189448630Y-106900900D01*
X189448635Y-106900900D01*
X189631370Y-106900900D01*
X189731631Y-106885019D01*
X189811845Y-106872315D01*
X189985631Y-106815848D01*
X190148444Y-106732891D01*
X190296276Y-106625485D01*
X190425485Y-106496276D01*
X190532891Y-106348444D01*
X190615848Y-106185631D01*
X190672315Y-106011845D01*
X190692168Y-105886499D01*
X190700900Y-105831370D01*
X190700900Y-105648629D01*
X190674058Y-105479163D01*
X190672315Y-105468155D01*
X190615848Y-105294369D01*
X190532891Y-105131556D01*
X190425485Y-104983724D01*
X190296276Y-104854515D01*
X190148444Y-104747109D01*
X189985631Y-104664152D01*
X189811845Y-104607685D01*
X189811843Y-104607684D01*
X189811841Y-104607684D01*
X189631370Y-104579100D01*
X189631365Y-104579100D01*
X189448635Y-104579100D01*
X189448630Y-104579100D01*
X189268158Y-104607684D01*
X189094366Y-104664153D01*
X188931555Y-104747109D01*
X188783721Y-104854517D01*
X188654517Y-104983721D01*
X188547109Y-105131555D01*
X188464153Y-105294366D01*
X188407684Y-105468158D01*
X188392473Y-105564197D01*
X188362544Y-105627332D01*
X188303232Y-105664263D01*
X188233369Y-105663265D01*
X188175137Y-105624655D01*
X188147527Y-105564197D01*
X188134058Y-105479163D01*
X188132315Y-105468155D01*
X188075848Y-105294369D01*
X187992891Y-105131556D01*
X187885485Y-104983724D01*
X187756276Y-104854515D01*
X187608444Y-104747109D01*
X187445631Y-104664152D01*
X187271845Y-104607685D01*
X187271843Y-104607684D01*
X187271841Y-104607684D01*
X187091370Y-104579100D01*
X187091365Y-104579100D01*
X186908635Y-104579100D01*
X186908630Y-104579100D01*
X186728158Y-104607684D01*
X186554366Y-104664153D01*
X186391555Y-104747109D01*
X186243721Y-104854517D01*
X186114517Y-104983721D01*
X186007109Y-105131555D01*
X185924153Y-105294366D01*
X185867684Y-105468157D01*
X185866873Y-105473281D01*
X185836943Y-105536416D01*
X185777631Y-105573346D01*
X185707768Y-105572348D01*
X185649536Y-105533737D01*
X185621422Y-105469773D01*
X185620400Y-105453882D01*
X185620400Y-105031772D01*
X185620399Y-105031755D01*
X185613998Y-104972227D01*
X185613996Y-104972220D01*
X185563754Y-104837513D01*
X185563750Y-104837506D01*
X185477590Y-104722412D01*
X185477587Y-104722409D01*
X185362493Y-104636249D01*
X185362486Y-104636245D01*
X185227779Y-104586003D01*
X185227772Y-104586001D01*
X185168244Y-104579600D01*
X184710000Y-104579600D01*
X184710000Y-105415263D01*
X184709536Y-105414799D01*
X184616865Y-105361295D01*
X184513504Y-105333600D01*
X184406496Y-105333600D01*
X184303135Y-105361295D01*
X184210464Y-105414799D01*
X184210000Y-105415263D01*
X184210000Y-104579600D01*
X183751755Y-104579600D01*
X183692227Y-104586001D01*
X183692220Y-104586003D01*
X183557513Y-104636245D01*
X183557506Y-104636249D01*
X183442412Y-104722409D01*
X183442409Y-104722412D01*
X183356249Y-104837506D01*
X183356245Y-104837513D01*
X183306003Y-104972220D01*
X183306001Y-104972227D01*
X183299600Y-105031755D01*
X177335179Y-105031755D01*
X186486481Y-95880452D01*
X186547802Y-95846969D01*
X186593556Y-95845662D01*
X186645089Y-95853823D01*
X186721331Y-95865900D01*
X186721335Y-95865900D01*
X186904070Y-95865900D01*
X187004331Y-95850019D01*
X187084545Y-95837315D01*
X187258331Y-95780848D01*
X187421144Y-95697891D01*
X187568976Y-95590485D01*
X187698185Y-95461276D01*
X187805591Y-95313444D01*
X187888548Y-95150631D01*
X187945015Y-94976845D01*
X187960227Y-94880802D01*
X187990156Y-94817667D01*
X188049468Y-94780736D01*
X188119330Y-94781734D01*
X188177563Y-94820344D01*
X188205173Y-94880802D01*
X188220384Y-94976841D01*
X188220385Y-94976845D01*
X188276852Y-95150631D01*
X188359809Y-95313444D01*
X188467215Y-95461276D01*
X188596424Y-95590485D01*
X188744256Y-95697891D01*
X188907069Y-95780848D01*
X189080855Y-95837315D01*
X189148535Y-95848034D01*
X189261330Y-95865900D01*
X189261335Y-95865900D01*
X189444070Y-95865900D01*
X189544331Y-95850019D01*
X189624545Y-95837315D01*
X189798331Y-95780848D01*
X189961144Y-95697891D01*
X190108976Y-95590485D01*
X190238185Y-95461276D01*
X190345591Y-95313444D01*
X190428548Y-95150631D01*
X190485015Y-94976845D01*
X190509174Y-94824312D01*
X190513600Y-94796370D01*
X190513600Y-94613629D01*
X190486083Y-94439901D01*
X190485015Y-94433155D01*
X190428548Y-94259369D01*
X190345591Y-94096556D01*
X190238185Y-93948724D01*
X190108976Y-93819515D01*
X189961144Y-93712109D01*
X189798331Y-93629152D01*
X189624545Y-93572685D01*
X189624543Y-93572684D01*
X189624541Y-93572684D01*
X189444070Y-93544100D01*
X189444065Y-93544100D01*
X189261335Y-93544100D01*
X189261330Y-93544100D01*
X189080858Y-93572684D01*
X188907066Y-93629153D01*
X188744255Y-93712109D01*
X188596421Y-93819517D01*
X188467217Y-93948721D01*
X188359809Y-94096555D01*
X188276853Y-94259366D01*
X188220384Y-94433158D01*
X188205173Y-94529197D01*
X188175244Y-94592332D01*
X188115932Y-94629263D01*
X188046069Y-94628265D01*
X187987837Y-94589655D01*
X187960227Y-94529197D01*
X187946083Y-94439901D01*
X187945015Y-94433155D01*
X187888548Y-94259369D01*
X187805591Y-94096556D01*
X187698185Y-93948724D01*
X187568976Y-93819515D01*
X187421144Y-93712109D01*
X187258331Y-93629152D01*
X187084545Y-93572685D01*
X187084543Y-93572684D01*
X187084541Y-93572684D01*
X186904070Y-93544100D01*
X186904065Y-93544100D01*
X186721335Y-93544100D01*
X186721330Y-93544100D01*
X186540858Y-93572684D01*
X186367066Y-93629153D01*
X186204255Y-93712109D01*
X186056421Y-93819517D01*
X185927217Y-93948721D01*
X185819809Y-94096555D01*
X185736853Y-94259366D01*
X185680384Y-94433157D01*
X185679573Y-94438281D01*
X185649643Y-94501416D01*
X185590331Y-94538346D01*
X185520468Y-94537348D01*
X185462236Y-94498737D01*
X185434122Y-94434773D01*
X185433100Y-94418882D01*
X185433100Y-93996772D01*
X185433099Y-93996755D01*
X185426698Y-93937227D01*
X185426696Y-93937220D01*
X185376454Y-93802513D01*
X185376450Y-93802506D01*
X185290290Y-93687412D01*
X185290287Y-93687409D01*
X185175193Y-93601249D01*
X185175186Y-93601245D01*
X185040479Y-93551003D01*
X185040472Y-93551001D01*
X184980944Y-93544600D01*
X184522700Y-93544600D01*
X184522700Y-94380263D01*
X184522236Y-94379799D01*
X184429565Y-94326295D01*
X184326204Y-94298600D01*
X184219196Y-94298600D01*
X184115835Y-94326295D01*
X184023164Y-94379799D01*
X184022700Y-94380263D01*
X184022700Y-93544600D01*
X183564455Y-93544600D01*
X183504927Y-93551001D01*
X183504920Y-93551003D01*
X183370213Y-93601245D01*
X183370206Y-93601249D01*
X183255112Y-93687409D01*
X183255109Y-93687412D01*
X183168949Y-93802506D01*
X183168945Y-93802513D01*
X183118703Y-93937220D01*
X183118701Y-93937227D01*
X183112300Y-93996755D01*
X183112300Y-94455000D01*
X183947963Y-94455000D01*
X183947499Y-94455464D01*
X183893995Y-94548135D01*
X183866300Y-94651496D01*
X183866300Y-94758504D01*
X183893995Y-94861865D01*
X183947499Y-94954536D01*
X183947963Y-94955000D01*
X183112300Y-94955000D01*
X183112300Y-95413244D01*
X183118701Y-95472772D01*
X183118703Y-95472779D01*
X183168945Y-95607486D01*
X183168949Y-95607493D01*
X183255109Y-95722587D01*
X183255112Y-95722590D01*
X183370206Y-95808750D01*
X183370213Y-95808754D01*
X183504920Y-95858996D01*
X183504927Y-95858998D01*
X183564455Y-95865399D01*
X183564472Y-95865400D01*
X184022700Y-95865400D01*
X184022700Y-95029737D01*
X184023164Y-95030201D01*
X184115835Y-95083705D01*
X184219196Y-95111400D01*
X184326204Y-95111400D01*
X184429565Y-95083705D01*
X184522236Y-95030201D01*
X184522700Y-95029737D01*
X184522700Y-95865400D01*
X184530597Y-95873297D01*
X184570741Y-95885085D01*
X184616496Y-95937889D01*
X184626440Y-96007047D01*
X184597415Y-96070603D01*
X184591383Y-96077081D01*
X173755284Y-106913181D01*
X173693961Y-106946666D01*
X173667603Y-106949500D01*
X167199097Y-106949500D01*
X167132058Y-106929815D01*
X167086303Y-106877011D01*
X167076359Y-106807853D01*
X167105384Y-106744297D01*
X167111416Y-106737819D01*
X173064812Y-100784423D01*
X190133781Y-83715452D01*
X190195102Y-83681969D01*
X190240856Y-83680662D01*
X190288153Y-83688153D01*
X190368631Y-83700900D01*
X190368635Y-83700900D01*
X190551370Y-83700900D01*
X190656900Y-83684185D01*
X190731845Y-83672315D01*
X190905631Y-83615848D01*
X191068444Y-83532891D01*
X191216276Y-83425485D01*
X191345485Y-83296276D01*
X191452891Y-83148444D01*
X191535848Y-82985631D01*
X191592315Y-82811845D01*
X191607527Y-82715802D01*
X191637456Y-82652667D01*
X191696768Y-82615736D01*
X191766630Y-82616734D01*
X191824863Y-82655344D01*
X191852473Y-82715802D01*
X191867634Y-82811524D01*
X191867685Y-82811845D01*
X191924152Y-82985631D01*
X192007109Y-83148444D01*
X192114515Y-83296276D01*
X192243724Y-83425485D01*
X192391556Y-83532891D01*
X192554369Y-83615848D01*
X192728155Y-83672315D01*
X192795835Y-83683034D01*
X192908630Y-83700900D01*
X192908635Y-83700900D01*
X193091370Y-83700900D01*
X193196900Y-83684185D01*
X193271845Y-83672315D01*
X193445631Y-83615848D01*
X193608444Y-83532891D01*
X193756276Y-83425485D01*
X193885485Y-83296276D01*
X193992891Y-83148444D01*
X194075848Y-82985631D01*
X194132315Y-82811845D01*
X194149029Y-82706317D01*
X194160900Y-82631370D01*
X194160900Y-82448629D01*
X194135775Y-82290000D01*
X194132315Y-82268155D01*
X194075848Y-82094369D01*
X193992891Y-81931556D01*
X193885485Y-81783724D01*
X193756276Y-81654515D01*
X193608444Y-81547109D01*
X193445631Y-81464152D01*
X193271845Y-81407685D01*
X193271843Y-81407684D01*
X193271841Y-81407684D01*
X193091370Y-81379100D01*
X193091365Y-81379100D01*
X192908635Y-81379100D01*
X192908630Y-81379100D01*
X192728158Y-81407684D01*
X192554366Y-81464153D01*
X192391555Y-81547109D01*
X192243721Y-81654517D01*
X192114517Y-81783721D01*
X192007109Y-81931555D01*
X191924153Y-82094366D01*
X191867684Y-82268158D01*
X191852473Y-82364197D01*
X191822544Y-82427332D01*
X191763232Y-82464263D01*
X191693369Y-82463265D01*
X191635137Y-82424655D01*
X191607527Y-82364197D01*
X191595775Y-82290000D01*
X191592315Y-82268155D01*
X191535848Y-82094369D01*
X191452891Y-81931556D01*
X191345485Y-81783724D01*
X191216276Y-81654515D01*
X191068444Y-81547109D01*
X190905631Y-81464152D01*
X190731845Y-81407685D01*
X190731843Y-81407684D01*
X190731841Y-81407684D01*
X190551370Y-81379100D01*
X190551365Y-81379100D01*
X190368635Y-81379100D01*
X190368630Y-81379100D01*
X190188158Y-81407684D01*
X190014366Y-81464153D01*
X189851555Y-81547109D01*
X189703721Y-81654517D01*
X189574517Y-81783721D01*
X189467109Y-81931555D01*
X189384153Y-82094366D01*
X189327684Y-82268157D01*
X189326873Y-82273281D01*
X189296943Y-82336416D01*
X189237631Y-82373346D01*
X189167768Y-82372348D01*
X189109536Y-82333737D01*
X189081422Y-82269773D01*
X189080400Y-82253882D01*
X189080400Y-81831772D01*
X189080399Y-81831755D01*
X189073998Y-81772227D01*
X189073996Y-81772220D01*
X189023754Y-81637513D01*
X189023750Y-81637506D01*
X188937590Y-81522412D01*
X188937587Y-81522409D01*
X188822493Y-81436249D01*
X188822486Y-81436245D01*
X188687779Y-81386003D01*
X188687772Y-81386001D01*
X188628244Y-81379600D01*
X188170000Y-81379600D01*
X188170000Y-82215263D01*
X188169536Y-82214799D01*
X188076865Y-82161295D01*
X187973504Y-82133600D01*
X187866496Y-82133600D01*
X187763135Y-82161295D01*
X187670464Y-82214799D01*
X187670000Y-82215263D01*
X187670000Y-81379600D01*
X187211755Y-81379600D01*
X187152227Y-81386001D01*
X187152220Y-81386003D01*
X187017513Y-81436245D01*
X187017506Y-81436249D01*
X186902412Y-81522409D01*
X186902409Y-81522412D01*
X186816249Y-81637506D01*
X186816245Y-81637513D01*
X186766003Y-81772220D01*
X186766001Y-81772227D01*
X186759600Y-81831755D01*
X186759600Y-82290000D01*
X187595263Y-82290000D01*
X187594799Y-82290464D01*
X187541295Y-82383135D01*
X187513600Y-82486496D01*
X187513600Y-82593504D01*
X187541295Y-82696865D01*
X187594799Y-82789536D01*
X187595263Y-82790000D01*
X186759600Y-82790000D01*
X186759600Y-83248244D01*
X186766001Y-83307772D01*
X186766003Y-83307779D01*
X186816245Y-83442486D01*
X186816249Y-83442493D01*
X186902409Y-83557587D01*
X186902412Y-83557590D01*
X187017506Y-83643750D01*
X187017513Y-83643754D01*
X187152220Y-83693996D01*
X187152227Y-83693998D01*
X187211755Y-83700399D01*
X187211772Y-83700400D01*
X187670000Y-83700400D01*
X187670000Y-82864737D01*
X187670464Y-82865201D01*
X187763135Y-82918705D01*
X187866496Y-82946400D01*
X187973504Y-82946400D01*
X188076865Y-82918705D01*
X188169536Y-82865201D01*
X188170000Y-82864737D01*
X188170000Y-83700400D01*
X188177897Y-83708297D01*
X188218041Y-83720085D01*
X188263796Y-83772889D01*
X188273740Y-83842047D01*
X188244715Y-83905603D01*
X188238683Y-83912081D01*
X173001160Y-99149602D01*
X172939837Y-99183087D01*
X172870145Y-99178103D01*
X172814212Y-99136231D01*
X172802994Y-99118216D01*
X172721602Y-98958477D01*
X172710439Y-98943112D01*
X172710438Y-98943112D01*
X172133700Y-99519852D01*
X172133700Y-99508168D01*
X172106870Y-99408038D01*
X172055038Y-99318263D01*
X171981737Y-99244962D01*
X171891962Y-99193130D01*
X171791832Y-99166300D01*
X171780147Y-99166300D01*
X172356886Y-98589559D01*
X172356886Y-98589558D01*
X172341529Y-98578401D01*
X172180566Y-98496386D01*
X172008750Y-98440559D01*
X171830331Y-98412300D01*
X171649669Y-98412300D01*
X171471249Y-98440559D01*
X171299433Y-98496386D01*
X171138476Y-98578397D01*
X171138472Y-98578400D01*
X171123112Y-98589558D01*
X171123112Y-98589559D01*
X171699854Y-99166300D01*
X171688168Y-99166300D01*
X171588038Y-99193130D01*
X171498263Y-99244962D01*
X171424962Y-99318263D01*
X171373130Y-99408038D01*
X171346300Y-99508168D01*
X171346300Y-99519853D01*
X170769559Y-98943112D01*
X170769558Y-98943112D01*
X170758400Y-98958472D01*
X170758397Y-98958476D01*
X170676386Y-99119433D01*
X170620559Y-99291249D01*
X170594000Y-99458935D01*
X170594000Y-99661063D01*
X170620559Y-99828750D01*
X170676386Y-100000566D01*
X170758401Y-100161529D01*
X170769558Y-100176886D01*
X170769559Y-100176886D01*
X171346300Y-99600145D01*
X171346300Y-99611832D01*
X171373130Y-99711962D01*
X171424962Y-99801737D01*
X171498263Y-99875038D01*
X171588038Y-99926870D01*
X171688168Y-99953700D01*
X171699853Y-99953700D01*
X171123112Y-100530438D01*
X171123112Y-100530439D01*
X171138477Y-100541602D01*
X171298217Y-100622994D01*
X171349013Y-100670969D01*
X171365808Y-100738790D01*
X171343271Y-100804924D01*
X171329603Y-100821160D01*
X165846584Y-106304181D01*
X165785261Y-106337666D01*
X165758903Y-106340500D01*
X157637217Y-106340500D01*
X157570178Y-106320815D01*
X157524423Y-106268011D01*
X157514479Y-106198853D01*
X157514744Y-106197102D01*
X157540500Y-106034486D01*
X157540500Y-105845513D01*
X157510940Y-105658881D01*
X157471148Y-105536416D01*
X157452547Y-105479168D01*
X157452545Y-105479165D01*
X157452545Y-105479163D01*
X157392488Y-105361295D01*
X157366760Y-105310801D01*
X157255690Y-105157927D01*
X157131179Y-105033416D01*
X157097694Y-104972093D01*
X157102678Y-104902401D01*
X157131177Y-104858056D01*
X161264882Y-100724351D01*
X161326203Y-100690868D01*
X161371955Y-100689561D01*
X161489635Y-100708200D01*
X161489637Y-100708200D01*
X161670364Y-100708200D01*
X161670365Y-100708200D01*
X161848871Y-100679927D01*
X162020756Y-100624078D01*
X162181788Y-100542028D01*
X162263879Y-100482385D01*
X162327996Y-100435803D01*
X162327998Y-100435800D01*
X162328002Y-100435798D01*
X162455798Y-100308002D01*
X162455800Y-100307998D01*
X162455803Y-100307996D01*
X162515640Y-100225636D01*
X162562028Y-100161788D01*
X162644078Y-100000756D01*
X162699927Y-99828871D01*
X162728200Y-99650365D01*
X162728200Y-99469635D01*
X162971800Y-99469635D01*
X162971800Y-99650365D01*
X162974642Y-99668306D01*
X163000072Y-99828867D01*
X163000072Y-99828869D01*
X163000073Y-99828871D01*
X163055922Y-100000756D01*
X163137840Y-100161529D01*
X163137974Y-100161791D01*
X163244196Y-100307996D01*
X163372003Y-100435803D01*
X163502260Y-100530438D01*
X163518212Y-100542028D01*
X163679244Y-100624078D01*
X163851129Y-100679927D01*
X164029635Y-100708200D01*
X164029636Y-100708200D01*
X164210364Y-100708200D01*
X164210365Y-100708200D01*
X164388871Y-100679927D01*
X164560756Y-100624078D01*
X164721788Y-100542028D01*
X164803879Y-100482385D01*
X164867996Y-100435803D01*
X164867998Y-100435800D01*
X164868002Y-100435798D01*
X164995798Y-100308002D01*
X164995800Y-100307998D01*
X164995803Y-100307996D01*
X165055640Y-100225636D01*
X165102028Y-100161788D01*
X165184078Y-100000756D01*
X165239927Y-99828871D01*
X165268200Y-99650365D01*
X165268200Y-99469635D01*
X165266253Y-99457341D01*
X165514252Y-99457341D01*
X165514252Y-99662657D01*
X165540559Y-99828751D01*
X165596386Y-100000566D01*
X165678401Y-100161529D01*
X165689558Y-100176886D01*
X165689559Y-100176886D01*
X166266300Y-99600145D01*
X166266300Y-99611832D01*
X166293130Y-99711962D01*
X166344962Y-99801737D01*
X166418263Y-99875038D01*
X166508038Y-99926870D01*
X166608168Y-99953700D01*
X166619853Y-99953700D01*
X166043112Y-100530438D01*
X166043112Y-100530439D01*
X166058477Y-100541602D01*
X166219433Y-100623613D01*
X166391249Y-100679440D01*
X166569669Y-100707700D01*
X166750331Y-100707700D01*
X166928750Y-100679440D01*
X167100566Y-100623613D01*
X167261528Y-100541599D01*
X167261532Y-100541597D01*
X167276886Y-100530440D01*
X167276887Y-100530439D01*
X166700148Y-99953700D01*
X166711832Y-99953700D01*
X166811962Y-99926870D01*
X166901737Y-99875038D01*
X166975038Y-99801737D01*
X167026870Y-99711962D01*
X167053700Y-99611832D01*
X167053700Y-99600147D01*
X167630440Y-100176887D01*
X167630440Y-100176886D01*
X167641597Y-100161532D01*
X167641599Y-100161528D01*
X167723613Y-100000566D01*
X167779440Y-99828750D01*
X167806000Y-99661063D01*
X167806000Y-99458935D01*
X168054000Y-99458935D01*
X168054000Y-99661063D01*
X168080559Y-99828750D01*
X168136386Y-100000566D01*
X168218401Y-100161529D01*
X168229558Y-100176886D01*
X168229559Y-100176886D01*
X168806300Y-99600145D01*
X168806300Y-99611832D01*
X168833130Y-99711962D01*
X168884962Y-99801737D01*
X168958263Y-99875038D01*
X169048038Y-99926870D01*
X169148168Y-99953700D01*
X169159853Y-99953700D01*
X168583112Y-100530438D01*
X168583112Y-100530439D01*
X168598477Y-100541602D01*
X168759433Y-100623613D01*
X168931249Y-100679440D01*
X169109669Y-100707700D01*
X169290331Y-100707700D01*
X169468750Y-100679440D01*
X169640566Y-100623613D01*
X169801528Y-100541599D01*
X169801532Y-100541597D01*
X169816886Y-100530440D01*
X169816887Y-100530439D01*
X169240148Y-99953700D01*
X169251832Y-99953700D01*
X169351962Y-99926870D01*
X169441737Y-99875038D01*
X169515038Y-99801737D01*
X169566870Y-99711962D01*
X169593700Y-99611832D01*
X169593700Y-99600147D01*
X170170440Y-100176887D01*
X170170440Y-100176886D01*
X170181597Y-100161532D01*
X170181599Y-100161528D01*
X170263613Y-100000566D01*
X170319440Y-99828750D01*
X170346000Y-99661063D01*
X170346000Y-99458935D01*
X170319440Y-99291249D01*
X170263613Y-99119433D01*
X170181602Y-98958477D01*
X170170439Y-98943112D01*
X170170438Y-98943112D01*
X169593700Y-99519851D01*
X169593700Y-99508168D01*
X169566870Y-99408038D01*
X169515038Y-99318263D01*
X169441737Y-99244962D01*
X169351962Y-99193130D01*
X169251832Y-99166300D01*
X169240147Y-99166300D01*
X169816886Y-98589559D01*
X169816886Y-98589558D01*
X169801529Y-98578401D01*
X169640566Y-98496386D01*
X169468750Y-98440559D01*
X169290331Y-98412300D01*
X169109669Y-98412300D01*
X168931249Y-98440559D01*
X168759433Y-98496386D01*
X168598476Y-98578397D01*
X168598472Y-98578400D01*
X168583112Y-98589558D01*
X168583112Y-98589559D01*
X169159854Y-99166300D01*
X169148168Y-99166300D01*
X169048038Y-99193130D01*
X168958263Y-99244962D01*
X168884962Y-99318263D01*
X168833130Y-99408038D01*
X168806300Y-99508168D01*
X168806300Y-99519853D01*
X168229559Y-98943112D01*
X168229558Y-98943112D01*
X168218400Y-98958472D01*
X168218397Y-98958476D01*
X168136386Y-99119433D01*
X168080559Y-99291249D01*
X168054000Y-99458935D01*
X167806000Y-99458935D01*
X167779440Y-99291249D01*
X167723613Y-99119433D01*
X167641602Y-98958477D01*
X167630439Y-98943112D01*
X167630438Y-98943112D01*
X167053700Y-99519851D01*
X167053700Y-99508168D01*
X167026870Y-99408038D01*
X166975038Y-99318263D01*
X166901737Y-99244962D01*
X166811962Y-99193130D01*
X166711832Y-99166300D01*
X166700147Y-99166300D01*
X167276886Y-98589559D01*
X167276886Y-98589558D01*
X167261529Y-98578401D01*
X167100566Y-98496386D01*
X166928750Y-98440559D01*
X166750331Y-98412300D01*
X166569669Y-98412300D01*
X166391249Y-98440559D01*
X166219433Y-98496386D01*
X166058476Y-98578397D01*
X166058472Y-98578400D01*
X166043112Y-98589558D01*
X166043112Y-98589559D01*
X166619854Y-99166300D01*
X166608168Y-99166300D01*
X166508038Y-99193130D01*
X166418263Y-99244962D01*
X166344962Y-99318263D01*
X166293130Y-99408038D01*
X166266300Y-99508168D01*
X166266300Y-99519853D01*
X165689559Y-98943112D01*
X165689558Y-98943112D01*
X165678400Y-98958472D01*
X165678397Y-98958476D01*
X165596386Y-99119433D01*
X165540559Y-99291248D01*
X165514252Y-99457341D01*
X165266253Y-99457341D01*
X165239927Y-99291129D01*
X165184078Y-99119244D01*
X165102028Y-98958212D01*
X165091057Y-98943112D01*
X164995803Y-98812003D01*
X164867996Y-98684196D01*
X164721791Y-98577974D01*
X164721790Y-98577973D01*
X164721788Y-98577972D01*
X164560756Y-98495922D01*
X164388871Y-98440073D01*
X164388869Y-98440072D01*
X164388867Y-98440072D01*
X164250823Y-98418208D01*
X164210365Y-98411800D01*
X164029635Y-98411800D01*
X163989177Y-98418208D01*
X163851132Y-98440072D01*
X163679241Y-98495923D01*
X163518208Y-98577974D01*
X163372003Y-98684196D01*
X163244196Y-98812003D01*
X163137974Y-98958208D01*
X163055923Y-99119241D01*
X163000072Y-99291132D01*
X162974672Y-99451500D01*
X162971800Y-99469635D01*
X162728200Y-99469635D01*
X162724356Y-99445368D01*
X162711947Y-99367019D01*
X162699927Y-99291129D01*
X162644078Y-99119244D01*
X162562028Y-98958212D01*
X162551057Y-98943112D01*
X162455803Y-98812003D01*
X162327996Y-98684196D01*
X162181791Y-98577974D01*
X162181790Y-98577973D01*
X162181788Y-98577972D01*
X162020756Y-98495922D01*
X161848871Y-98440073D01*
X161848869Y-98440072D01*
X161848867Y-98440072D01*
X161710823Y-98418208D01*
X161670365Y-98411800D01*
X161489635Y-98411800D01*
X161449177Y-98418208D01*
X161311132Y-98440072D01*
X161311129Y-98440073D01*
X161162678Y-98488308D01*
X161139238Y-98495924D01*
X161127924Y-98501689D01*
X161059255Y-98514585D01*
X160994514Y-98488308D01*
X160954258Y-98431201D01*
X160951266Y-98361396D01*
X160951831Y-98359200D01*
X160963352Y-98316206D01*
X160963352Y-98158091D01*
X160963352Y-93116245D01*
X160983037Y-93049206D01*
X161035841Y-93003451D01*
X161104999Y-92993507D01*
X161134442Y-93002917D01*
X161134927Y-93001748D01*
X161139429Y-93003612D01*
X161311249Y-93059440D01*
X161489669Y-93087700D01*
X161670331Y-93087700D01*
X161848750Y-93059440D01*
X162020566Y-93003613D01*
X162181528Y-92921599D01*
X162181532Y-92921597D01*
X162196886Y-92910440D01*
X162196887Y-92910440D01*
X161620147Y-92333700D01*
X161631832Y-92333700D01*
X161731962Y-92306870D01*
X161821737Y-92255038D01*
X161895038Y-92181737D01*
X161946870Y-92091962D01*
X161973700Y-91991832D01*
X161973700Y-91980147D01*
X162550439Y-92556887D01*
X162550440Y-92556886D01*
X162561597Y-92541532D01*
X162561599Y-92541528D01*
X162643613Y-92380566D01*
X162699440Y-92208750D01*
X162725747Y-92042659D01*
X162725747Y-91849635D01*
X162971800Y-91849635D01*
X162971800Y-92030365D01*
X162973747Y-92042657D01*
X162973747Y-92042658D01*
X163000072Y-92208867D01*
X163000072Y-92208869D01*
X163000073Y-92208871D01*
X163055922Y-92380756D01*
X163137840Y-92541529D01*
X163137974Y-92541791D01*
X163244196Y-92687996D01*
X163372003Y-92815803D01*
X163502260Y-92910438D01*
X163518212Y-92922028D01*
X163679244Y-93004078D01*
X163851129Y-93059927D01*
X164029635Y-93088200D01*
X164029636Y-93088200D01*
X164210364Y-93088200D01*
X164210365Y-93088200D01*
X164388871Y-93059927D01*
X164560756Y-93004078D01*
X164721788Y-92922028D01*
X164803879Y-92862385D01*
X164867996Y-92815803D01*
X164867998Y-92815800D01*
X164868002Y-92815798D01*
X164995798Y-92688002D01*
X164995800Y-92687998D01*
X164995803Y-92687996D01*
X165090302Y-92557927D01*
X165102028Y-92541788D01*
X165184078Y-92380756D01*
X165239927Y-92208871D01*
X165268200Y-92030365D01*
X165268200Y-91849635D01*
X165511800Y-91849635D01*
X165511800Y-92030365D01*
X165514000Y-92044254D01*
X165540072Y-92208867D01*
X165540072Y-92208869D01*
X165540073Y-92208871D01*
X165595922Y-92380756D01*
X165677840Y-92541529D01*
X165677974Y-92541791D01*
X165784196Y-92687996D01*
X165912003Y-92815803D01*
X166042260Y-92910438D01*
X166058212Y-92922028D01*
X166219244Y-93004078D01*
X166391129Y-93059927D01*
X166569635Y-93088200D01*
X166569636Y-93088200D01*
X166750364Y-93088200D01*
X166750365Y-93088200D01*
X166928871Y-93059927D01*
X167100756Y-93004078D01*
X167261788Y-92922028D01*
X167343879Y-92862385D01*
X167407996Y-92815803D01*
X167407998Y-92815800D01*
X167408002Y-92815798D01*
X167535798Y-92688002D01*
X167535800Y-92687998D01*
X167535803Y-92687996D01*
X167630302Y-92557927D01*
X167642028Y-92541788D01*
X167724078Y-92380756D01*
X167779927Y-92208871D01*
X167808200Y-92030365D01*
X167808200Y-91849635D01*
X167806253Y-91837341D01*
X168054252Y-91837341D01*
X168054252Y-92042657D01*
X168080559Y-92208751D01*
X168136386Y-92380566D01*
X168218401Y-92541529D01*
X168229558Y-92556886D01*
X168229559Y-92556886D01*
X168806300Y-91980145D01*
X168806300Y-91991832D01*
X168833130Y-92091962D01*
X168884962Y-92181737D01*
X168958263Y-92255038D01*
X169048038Y-92306870D01*
X169148168Y-92333700D01*
X169159853Y-92333700D01*
X168583112Y-92910438D01*
X168583112Y-92910439D01*
X168598477Y-92921602D01*
X168759433Y-93003613D01*
X168931249Y-93059440D01*
X169109669Y-93087700D01*
X169290331Y-93087700D01*
X169468750Y-93059440D01*
X169640566Y-93003613D01*
X169801528Y-92921599D01*
X169801532Y-92921597D01*
X169816886Y-92910440D01*
X169816887Y-92910439D01*
X169240148Y-92333700D01*
X169251832Y-92333700D01*
X169351962Y-92306870D01*
X169441737Y-92255038D01*
X169515038Y-92181737D01*
X169566870Y-92091962D01*
X169593700Y-91991832D01*
X169593700Y-91980147D01*
X170170440Y-92556887D01*
X170170440Y-92556886D01*
X170181597Y-92541532D01*
X170181599Y-92541528D01*
X170263613Y-92380566D01*
X170319440Y-92208750D01*
X170346000Y-92041063D01*
X170346000Y-91838935D01*
X170594000Y-91838935D01*
X170594000Y-92041063D01*
X170620559Y-92208750D01*
X170676386Y-92380566D01*
X170758401Y-92541529D01*
X170769558Y-92556886D01*
X170769559Y-92556886D01*
X171346300Y-91980145D01*
X171346300Y-91991832D01*
X171373130Y-92091962D01*
X171424962Y-92181737D01*
X171498263Y-92255038D01*
X171588038Y-92306870D01*
X171688168Y-92333700D01*
X171699853Y-92333700D01*
X171123112Y-92910438D01*
X171123112Y-92910439D01*
X171138477Y-92921602D01*
X171299433Y-93003613D01*
X171471249Y-93059440D01*
X171649669Y-93087700D01*
X171830331Y-93087700D01*
X172008750Y-93059440D01*
X172180566Y-93003613D01*
X172341528Y-92921599D01*
X172341532Y-92921597D01*
X172356886Y-92910440D01*
X172356887Y-92910439D01*
X171780148Y-92333700D01*
X171791832Y-92333700D01*
X171891962Y-92306870D01*
X171981737Y-92255038D01*
X172055038Y-92181737D01*
X172106870Y-92091962D01*
X172133700Y-91991832D01*
X172133700Y-91980147D01*
X172710440Y-92556887D01*
X172710440Y-92556886D01*
X172721597Y-92541532D01*
X172721599Y-92541528D01*
X172803613Y-92380566D01*
X172859440Y-92208750D01*
X172887700Y-92030331D01*
X172887700Y-91849668D01*
X172859440Y-91671249D01*
X172803613Y-91499433D01*
X172721602Y-91338477D01*
X172710439Y-91323112D01*
X172133700Y-91899851D01*
X172133700Y-91888168D01*
X172106870Y-91788038D01*
X172055038Y-91698263D01*
X171981737Y-91624962D01*
X171891962Y-91573130D01*
X171791832Y-91546300D01*
X171780147Y-91546300D01*
X172356886Y-90969559D01*
X172356886Y-90969558D01*
X172341529Y-90958401D01*
X172180566Y-90876386D01*
X172008750Y-90820559D01*
X171830331Y-90792300D01*
X171649669Y-90792300D01*
X171471249Y-90820559D01*
X171299433Y-90876386D01*
X171138476Y-90958397D01*
X171138472Y-90958400D01*
X171123112Y-90969558D01*
X171123112Y-90969559D01*
X171699854Y-91546300D01*
X171688168Y-91546300D01*
X171588038Y-91573130D01*
X171498263Y-91624962D01*
X171424962Y-91698263D01*
X171373130Y-91788038D01*
X171346300Y-91888168D01*
X171346300Y-91899853D01*
X170769559Y-91323112D01*
X170769558Y-91323112D01*
X170758400Y-91338472D01*
X170758397Y-91338476D01*
X170676386Y-91499433D01*
X170620559Y-91671249D01*
X170594000Y-91838935D01*
X170346000Y-91838935D01*
X170319440Y-91671249D01*
X170263613Y-91499433D01*
X170181602Y-91338477D01*
X170170439Y-91323112D01*
X169593700Y-91899851D01*
X169593700Y-91888168D01*
X169566870Y-91788038D01*
X169515038Y-91698263D01*
X169441737Y-91624962D01*
X169351962Y-91573130D01*
X169251832Y-91546300D01*
X169240147Y-91546300D01*
X169816886Y-90969559D01*
X169816886Y-90969558D01*
X169801529Y-90958401D01*
X169640566Y-90876386D01*
X169468750Y-90820559D01*
X169290331Y-90792300D01*
X169109669Y-90792300D01*
X168931249Y-90820559D01*
X168759433Y-90876386D01*
X168598476Y-90958397D01*
X168598472Y-90958400D01*
X168583112Y-90969558D01*
X168583112Y-90969559D01*
X169159854Y-91546300D01*
X169148168Y-91546300D01*
X169048038Y-91573130D01*
X168958263Y-91624962D01*
X168884962Y-91698263D01*
X168833130Y-91788038D01*
X168806300Y-91888168D01*
X168806300Y-91899853D01*
X168229559Y-91323112D01*
X168229558Y-91323112D01*
X168218400Y-91338472D01*
X168218397Y-91338476D01*
X168136386Y-91499433D01*
X168080559Y-91671248D01*
X168054252Y-91837341D01*
X167806253Y-91837341D01*
X167779927Y-91671129D01*
X167724078Y-91499244D01*
X167642028Y-91338212D01*
X167611805Y-91296613D01*
X167535803Y-91192003D01*
X167407996Y-91064196D01*
X167261791Y-90957974D01*
X167261790Y-90957973D01*
X167261788Y-90957972D01*
X167100756Y-90875922D01*
X166928871Y-90820073D01*
X166928869Y-90820072D01*
X166928867Y-90820072D01*
X166804232Y-90800331D01*
X166750365Y-90791800D01*
X166569635Y-90791800D01*
X166528254Y-90798354D01*
X166391132Y-90820072D01*
X166219241Y-90875923D01*
X166058208Y-90957974D01*
X165912003Y-91064196D01*
X165784196Y-91192003D01*
X165677974Y-91338208D01*
X165595923Y-91499241D01*
X165540072Y-91671132D01*
X165516411Y-91820520D01*
X165511800Y-91849635D01*
X165268200Y-91849635D01*
X165263588Y-91820519D01*
X165258444Y-91788038D01*
X165239927Y-91671129D01*
X165184078Y-91499244D01*
X165102028Y-91338212D01*
X165071805Y-91296613D01*
X164995803Y-91192003D01*
X164867996Y-91064196D01*
X164721791Y-90957974D01*
X164721790Y-90957973D01*
X164721788Y-90957972D01*
X164560756Y-90875922D01*
X164388871Y-90820073D01*
X164388869Y-90820072D01*
X164388867Y-90820072D01*
X164264232Y-90800331D01*
X164210365Y-90791800D01*
X164029635Y-90791800D01*
X163988254Y-90798354D01*
X163851132Y-90820072D01*
X163679241Y-90875923D01*
X163518208Y-90957974D01*
X163372003Y-91064196D01*
X163244196Y-91192003D01*
X163137974Y-91338208D01*
X163055923Y-91499241D01*
X163000072Y-91671132D01*
X162973747Y-91837340D01*
X162971800Y-91849635D01*
X162725747Y-91849635D01*
X162725747Y-91837339D01*
X162699440Y-91671249D01*
X162643613Y-91499433D01*
X162561602Y-91338477D01*
X162550439Y-91323112D01*
X161973700Y-91899851D01*
X161973700Y-91888168D01*
X161946870Y-91788038D01*
X161895038Y-91698263D01*
X161821737Y-91624962D01*
X161731962Y-91573130D01*
X161631832Y-91546300D01*
X161620146Y-91546300D01*
X162196886Y-90969559D01*
X162196886Y-90969558D01*
X162181529Y-90958401D01*
X162020566Y-90876386D01*
X161848750Y-90820559D01*
X161670331Y-90792300D01*
X161489669Y-90792300D01*
X161311249Y-90820559D01*
X161139429Y-90876387D01*
X161134927Y-90878252D01*
X161134028Y-90876082D01*
X161074798Y-90887117D01*
X161010096Y-90860746D01*
X160969922Y-90803581D01*
X160963352Y-90763754D01*
X160963352Y-84916096D01*
X160983037Y-84849057D01*
X160999667Y-84828419D01*
X161244713Y-84583373D01*
X161244716Y-84583372D01*
X161356520Y-84471568D01*
X161359900Y-84465712D01*
X161406953Y-84384216D01*
X161406953Y-84384215D01*
X161435577Y-84334637D01*
X161476501Y-84181909D01*
X161476501Y-84023795D01*
X161476501Y-84016200D01*
X161476500Y-84016182D01*
X161476500Y-83655390D01*
X166425000Y-83655390D01*
X166425000Y-83824609D01*
X166451469Y-83991726D01*
X166503760Y-84152659D01*
X166580580Y-84303427D01*
X166581606Y-84304838D01*
X166581607Y-84304839D01*
X167125000Y-83761446D01*
X167125000Y-83789370D01*
X167150556Y-83884745D01*
X167199925Y-83970255D01*
X167269745Y-84040075D01*
X167355255Y-84089444D01*
X167450630Y-84115000D01*
X167478553Y-84115000D01*
X166935159Y-84658391D01*
X166936578Y-84659422D01*
X167087340Y-84736239D01*
X167248273Y-84788530D01*
X167415391Y-84815000D01*
X167584609Y-84815000D01*
X167751726Y-84788530D01*
X167912659Y-84736239D01*
X168063424Y-84659420D01*
X168064839Y-84658391D01*
X167521448Y-84115000D01*
X167549370Y-84115000D01*
X167644745Y-84089444D01*
X167730255Y-84040075D01*
X167800075Y-83970255D01*
X167849444Y-83884745D01*
X167875000Y-83789370D01*
X167875000Y-83761447D01*
X168418391Y-84304839D01*
X168419420Y-84303424D01*
X168496239Y-84152659D01*
X168548530Y-83991726D01*
X168575000Y-83824609D01*
X168575000Y-83655390D01*
X168574994Y-83655350D01*
X168924500Y-83655350D01*
X168924500Y-83824649D01*
X168950981Y-83991847D01*
X169003296Y-84152853D01*
X169043756Y-84232258D01*
X169074987Y-84293553D01*
X169080152Y-84303688D01*
X169179648Y-84440634D01*
X169179652Y-84440639D01*
X169299360Y-84560347D01*
X169299365Y-84560351D01*
X169345107Y-84593584D01*
X169436315Y-84659850D01*
X169515897Y-84700399D01*
X169587146Y-84736703D01*
X169587148Y-84736703D01*
X169587151Y-84736705D01*
X169659904Y-84760344D01*
X169748152Y-84789018D01*
X169915351Y-84815500D01*
X169915356Y-84815500D01*
X170084649Y-84815500D01*
X170251847Y-84789018D01*
X170253349Y-84788530D01*
X170412849Y-84736705D01*
X170563685Y-84659850D01*
X170700641Y-84560346D01*
X170820346Y-84440641D01*
X170919850Y-84303685D01*
X170996705Y-84152849D01*
X171049018Y-83991847D01*
X171057230Y-83939999D01*
X171075500Y-83824649D01*
X171075500Y-83655350D01*
X171058773Y-83549746D01*
X171049018Y-83488153D01*
X171048480Y-83486496D01*
X171047045Y-83482078D01*
X170996703Y-83327146D01*
X170956500Y-83248244D01*
X170919850Y-83176315D01*
X170888816Y-83133600D01*
X170820351Y-83039365D01*
X170820347Y-83039360D01*
X170700639Y-82919652D01*
X170700634Y-82919648D01*
X170579658Y-82831755D01*
X174339605Y-82831755D01*
X174339605Y-83290000D01*
X175175268Y-83290000D01*
X175174804Y-83290464D01*
X175121300Y-83383135D01*
X175093605Y-83486496D01*
X175093605Y-83593504D01*
X175121300Y-83696865D01*
X175174804Y-83789536D01*
X175175268Y-83790000D01*
X174339605Y-83790000D01*
X174339605Y-84248244D01*
X174346006Y-84307772D01*
X174346008Y-84307779D01*
X174396250Y-84442486D01*
X174396254Y-84442493D01*
X174482414Y-84557587D01*
X174482417Y-84557590D01*
X174597511Y-84643750D01*
X174597518Y-84643754D01*
X174732225Y-84693996D01*
X174732232Y-84693998D01*
X174791760Y-84700399D01*
X174791777Y-84700400D01*
X175250005Y-84700400D01*
X175250005Y-83864737D01*
X175250469Y-83865201D01*
X175343140Y-83918705D01*
X175446501Y-83946400D01*
X175553509Y-83946400D01*
X175656870Y-83918705D01*
X175749541Y-83865201D01*
X175750005Y-83864737D01*
X175750005Y-84700400D01*
X176208233Y-84700400D01*
X176208249Y-84700399D01*
X176267777Y-84693998D01*
X176267784Y-84693996D01*
X176402491Y-84643754D01*
X176402498Y-84643750D01*
X176517592Y-84557590D01*
X176517595Y-84557587D01*
X176603755Y-84442493D01*
X176603759Y-84442486D01*
X176654001Y-84307779D01*
X176654003Y-84307772D01*
X176660404Y-84248244D01*
X176660405Y-84248227D01*
X176660405Y-83790000D01*
X175824742Y-83790000D01*
X175825206Y-83789536D01*
X175878710Y-83696865D01*
X175906405Y-83593504D01*
X175906405Y-83486496D01*
X175896259Y-83448629D01*
X179339095Y-83448629D01*
X179339095Y-83631370D01*
X179367679Y-83811841D01*
X179367680Y-83811845D01*
X179424147Y-83985631D01*
X179507104Y-84148444D01*
X179614510Y-84296276D01*
X179743719Y-84425485D01*
X179891551Y-84532891D01*
X180054364Y-84615848D01*
X180228150Y-84672315D01*
X180295830Y-84683034D01*
X180408625Y-84700900D01*
X180408630Y-84700900D01*
X180591365Y-84700900D01*
X180691626Y-84685019D01*
X180771840Y-84672315D01*
X180945626Y-84615848D01*
X181108439Y-84532891D01*
X181256271Y-84425485D01*
X181385480Y-84296276D01*
X181492886Y-84148444D01*
X181575843Y-83985631D01*
X181632310Y-83811845D01*
X181650975Y-83693998D01*
X181660895Y-83631370D01*
X181660895Y-83448629D01*
X181641653Y-83327146D01*
X181632310Y-83268155D01*
X181575843Y-83094369D01*
X181492886Y-82931556D01*
X181385480Y-82783724D01*
X181256271Y-82654515D01*
X181108439Y-82547109D01*
X180945626Y-82464152D01*
X180771840Y-82407685D01*
X180771838Y-82407684D01*
X180771836Y-82407684D01*
X180591365Y-82379100D01*
X180591360Y-82379100D01*
X180408630Y-82379100D01*
X180408625Y-82379100D01*
X180228153Y-82407684D01*
X180054361Y-82464153D01*
X179891550Y-82547109D01*
X179743716Y-82654517D01*
X179614512Y-82783721D01*
X179507104Y-82931555D01*
X179424148Y-83094366D01*
X179367679Y-83268158D01*
X179339095Y-83448629D01*
X175896259Y-83448629D01*
X175878710Y-83383135D01*
X175825206Y-83290464D01*
X175824742Y-83290000D01*
X176660405Y-83290000D01*
X176660405Y-82831772D01*
X176660404Y-82831755D01*
X176654003Y-82772227D01*
X176654001Y-82772220D01*
X176603759Y-82637513D01*
X176603755Y-82637506D01*
X176517595Y-82522412D01*
X176517592Y-82522409D01*
X176402498Y-82436249D01*
X176402491Y-82436245D01*
X176267784Y-82386003D01*
X176267777Y-82386001D01*
X176208249Y-82379600D01*
X175750005Y-82379600D01*
X175750005Y-83215263D01*
X175749541Y-83214799D01*
X175656870Y-83161295D01*
X175553509Y-83133600D01*
X175446501Y-83133600D01*
X175343140Y-83161295D01*
X175250469Y-83214799D01*
X175250005Y-83215263D01*
X175250005Y-82379600D01*
X174791760Y-82379600D01*
X174732232Y-82386001D01*
X174732225Y-82386003D01*
X174597518Y-82436245D01*
X174597511Y-82436249D01*
X174482417Y-82522409D01*
X174482414Y-82522412D01*
X174396254Y-82637506D01*
X174396250Y-82637513D01*
X174346008Y-82772220D01*
X174346006Y-82772227D01*
X174339605Y-82831755D01*
X170579658Y-82831755D01*
X170563688Y-82820152D01*
X170563687Y-82820151D01*
X170563685Y-82820150D01*
X170516582Y-82796150D01*
X170412853Y-82743296D01*
X170251847Y-82690981D01*
X170084649Y-82664500D01*
X170084644Y-82664500D01*
X169915356Y-82664500D01*
X169915351Y-82664500D01*
X169748152Y-82690981D01*
X169587146Y-82743296D01*
X169436311Y-82820152D01*
X169299365Y-82919648D01*
X169299360Y-82919652D01*
X169179652Y-83039360D01*
X169179648Y-83039365D01*
X169080152Y-83176311D01*
X169003296Y-83327146D01*
X168950981Y-83488152D01*
X168924500Y-83655350D01*
X168574994Y-83655350D01*
X168548530Y-83488273D01*
X168496239Y-83327340D01*
X168419422Y-83176578D01*
X168418391Y-83175159D01*
X167875000Y-83718551D01*
X167875000Y-83690630D01*
X167849444Y-83595255D01*
X167800075Y-83509745D01*
X167730255Y-83439925D01*
X167644745Y-83390556D01*
X167549370Y-83365000D01*
X167521447Y-83365000D01*
X168064839Y-82821607D01*
X168064838Y-82821606D01*
X168063427Y-82820580D01*
X167912659Y-82743760D01*
X167751726Y-82691469D01*
X167584609Y-82665000D01*
X167415391Y-82665000D01*
X167248273Y-82691469D01*
X167087340Y-82743760D01*
X166936575Y-82820579D01*
X166936572Y-82820581D01*
X166935160Y-82821606D01*
X166935160Y-82821607D01*
X167478554Y-83365000D01*
X167450630Y-83365000D01*
X167355255Y-83390556D01*
X167269745Y-83439925D01*
X167199925Y-83509745D01*
X167150556Y-83595255D01*
X167125000Y-83690630D01*
X167125000Y-83718553D01*
X166581607Y-83175160D01*
X166581606Y-83175160D01*
X166580581Y-83176572D01*
X166580579Y-83176575D01*
X166503760Y-83327340D01*
X166451469Y-83488273D01*
X166425000Y-83655390D01*
X161476500Y-83655390D01*
X161476500Y-79801212D01*
X161476500Y-79801208D01*
X161476398Y-79800829D01*
X161451717Y-79708716D01*
X161435577Y-79648481D01*
X161372946Y-79540000D01*
X161356524Y-79511555D01*
X161356521Y-79511551D01*
X161356520Y-79511549D01*
X161244716Y-79399745D01*
X161244715Y-79399744D01*
X161240385Y-79395414D01*
X161240374Y-79395404D01*
X159290483Y-77445513D01*
X173859500Y-77445513D01*
X173859500Y-77634486D01*
X173889059Y-77821118D01*
X173947454Y-78000836D01*
X174033240Y-78169199D01*
X174144310Y-78322073D01*
X174277927Y-78455690D01*
X174430801Y-78566760D01*
X174510347Y-78607290D01*
X174599163Y-78652545D01*
X174599165Y-78652545D01*
X174599168Y-78652547D01*
X174667277Y-78674677D01*
X174778881Y-78710940D01*
X174965514Y-78740500D01*
X174965519Y-78740500D01*
X175154486Y-78740500D01*
X175341118Y-78710940D01*
X175520832Y-78652547D01*
X175689199Y-78566760D01*
X175842073Y-78455690D01*
X175975690Y-78322073D01*
X176086760Y-78169199D01*
X176172547Y-78000832D01*
X176230940Y-77821118D01*
X176248026Y-77713240D01*
X176260500Y-77634486D01*
X176260500Y-77445513D01*
X178939500Y-77445513D01*
X178939500Y-77634486D01*
X178969059Y-77821118D01*
X179027454Y-78000836D01*
X179113240Y-78169199D01*
X179224310Y-78322073D01*
X179357927Y-78455690D01*
X179510801Y-78566760D01*
X179590347Y-78607290D01*
X179679163Y-78652545D01*
X179679165Y-78652545D01*
X179679168Y-78652547D01*
X179747277Y-78674677D01*
X179858881Y-78710940D01*
X180045514Y-78740500D01*
X180045519Y-78740500D01*
X180234486Y-78740500D01*
X180421118Y-78710940D01*
X180600832Y-78652547D01*
X180769199Y-78566760D01*
X180922073Y-78455690D01*
X181055690Y-78322073D01*
X181166760Y-78169199D01*
X181252547Y-78000832D01*
X181310940Y-77821118D01*
X181328026Y-77713240D01*
X181340500Y-77634486D01*
X181340500Y-77445513D01*
X181310940Y-77258881D01*
X181252545Y-77079163D01*
X181166759Y-76910800D01*
X181159094Y-76900250D01*
X181055690Y-76757927D01*
X180922073Y-76624310D01*
X180769199Y-76513240D01*
X180600836Y-76427454D01*
X180421118Y-76369059D01*
X180234486Y-76339500D01*
X180234481Y-76339500D01*
X180045519Y-76339500D01*
X180045514Y-76339500D01*
X179858881Y-76369059D01*
X179679163Y-76427454D01*
X179510800Y-76513240D01*
X179423579Y-76576610D01*
X179357927Y-76624310D01*
X179357925Y-76624312D01*
X179357924Y-76624312D01*
X179224312Y-76757924D01*
X179224312Y-76757925D01*
X179224310Y-76757927D01*
X179178183Y-76821415D01*
X179113240Y-76910800D01*
X179027454Y-77079163D01*
X178969059Y-77258881D01*
X178939500Y-77445513D01*
X176260500Y-77445513D01*
X176230940Y-77258881D01*
X176172545Y-77079163D01*
X176086759Y-76910800D01*
X176079094Y-76900250D01*
X175975690Y-76757927D01*
X175842073Y-76624310D01*
X175689199Y-76513240D01*
X175520836Y-76427454D01*
X175341118Y-76369059D01*
X175154486Y-76339500D01*
X175154481Y-76339500D01*
X174965519Y-76339500D01*
X174965514Y-76339500D01*
X174778881Y-76369059D01*
X174599163Y-76427454D01*
X174430800Y-76513240D01*
X174343579Y-76576610D01*
X174277927Y-76624310D01*
X174277925Y-76624312D01*
X174277924Y-76624312D01*
X174144312Y-76757924D01*
X174144312Y-76757925D01*
X174144310Y-76757927D01*
X174098183Y-76821415D01*
X174033240Y-76910800D01*
X173947454Y-77079163D01*
X173889059Y-77258881D01*
X173859500Y-77445513D01*
X159290483Y-77445513D01*
X158335808Y-76490838D01*
X158302323Y-76429515D01*
X158307307Y-76359823D01*
X158349179Y-76303890D01*
X158404091Y-76280683D01*
X158408871Y-76279927D01*
X158580756Y-76224078D01*
X158741788Y-76142028D01*
X158823879Y-76082385D01*
X158887996Y-76035803D01*
X158887998Y-76035800D01*
X158888002Y-76035798D01*
X159015798Y-75908002D01*
X159015800Y-75907998D01*
X159015803Y-75907996D01*
X159080421Y-75819055D01*
X159122028Y-75761788D01*
X159204078Y-75600756D01*
X159259927Y-75428871D01*
X159288200Y-75250365D01*
X159288200Y-75069635D01*
X159531800Y-75069635D01*
X159531800Y-75250365D01*
X159534000Y-75264254D01*
X159560072Y-75428867D01*
X159560072Y-75428869D01*
X159560073Y-75428871D01*
X159615922Y-75600756D01*
X159697840Y-75761529D01*
X159697974Y-75761791D01*
X159804196Y-75907996D01*
X159932003Y-76035803D01*
X160032363Y-76108717D01*
X160078212Y-76142028D01*
X160239244Y-76224078D01*
X160411129Y-76279927D01*
X160589635Y-76308200D01*
X160589636Y-76308200D01*
X160770364Y-76308200D01*
X160770365Y-76308200D01*
X160948871Y-76279927D01*
X161120756Y-76224078D01*
X161281788Y-76142028D01*
X161363879Y-76082385D01*
X161427996Y-76035803D01*
X161427998Y-76035800D01*
X161428002Y-76035798D01*
X161555798Y-75908002D01*
X161555800Y-75907998D01*
X161555803Y-75907996D01*
X161620421Y-75819055D01*
X161662028Y-75761788D01*
X161744078Y-75600756D01*
X161799927Y-75428871D01*
X161828200Y-75250365D01*
X161828200Y-75069635D01*
X161826253Y-75057341D01*
X162074252Y-75057341D01*
X162074252Y-75262657D01*
X162100559Y-75428751D01*
X162156386Y-75600566D01*
X162238401Y-75761529D01*
X162249558Y-75776886D01*
X162249559Y-75776886D01*
X162826300Y-75200145D01*
X162826300Y-75211832D01*
X162853130Y-75311962D01*
X162904962Y-75401737D01*
X162978263Y-75475038D01*
X163068038Y-75526870D01*
X163168168Y-75553700D01*
X163179853Y-75553700D01*
X162603112Y-76130438D01*
X162603112Y-76130439D01*
X162618477Y-76141602D01*
X162779433Y-76223613D01*
X162951249Y-76279440D01*
X163129669Y-76307700D01*
X163310331Y-76307700D01*
X163488750Y-76279440D01*
X163660566Y-76223613D01*
X163821528Y-76141599D01*
X163821532Y-76141597D01*
X163836886Y-76130440D01*
X163836887Y-76130439D01*
X163260148Y-75553700D01*
X163271832Y-75553700D01*
X163371962Y-75526870D01*
X163461737Y-75475038D01*
X163535038Y-75401737D01*
X163586870Y-75311962D01*
X163613700Y-75211832D01*
X163613700Y-75200147D01*
X164190440Y-75776887D01*
X164190440Y-75776886D01*
X164201597Y-75761532D01*
X164201599Y-75761528D01*
X164283613Y-75600566D01*
X164339440Y-75428750D01*
X164366000Y-75261063D01*
X164366000Y-75058935D01*
X164614000Y-75058935D01*
X164614000Y-75261063D01*
X164640559Y-75428750D01*
X164696386Y-75600566D01*
X164778401Y-75761529D01*
X164789558Y-75776886D01*
X164789559Y-75776886D01*
X165366300Y-75200145D01*
X165366300Y-75211832D01*
X165393130Y-75311962D01*
X165444962Y-75401737D01*
X165518263Y-75475038D01*
X165608038Y-75526870D01*
X165708168Y-75553700D01*
X165719853Y-75553700D01*
X165143112Y-76130438D01*
X165143112Y-76130439D01*
X165158477Y-76141602D01*
X165319433Y-76223613D01*
X165491249Y-76279440D01*
X165669669Y-76307700D01*
X165850331Y-76307700D01*
X166028750Y-76279440D01*
X166200566Y-76223613D01*
X166361528Y-76141599D01*
X166361532Y-76141597D01*
X166376886Y-76130440D01*
X166376887Y-76130439D01*
X165800148Y-75553700D01*
X165811832Y-75553700D01*
X165911962Y-75526870D01*
X166001737Y-75475038D01*
X166075038Y-75401737D01*
X166126870Y-75311962D01*
X166153700Y-75211832D01*
X166153700Y-75200147D01*
X166730439Y-75776887D01*
X166730440Y-75776886D01*
X166741597Y-75761532D01*
X166741599Y-75761528D01*
X166823613Y-75600566D01*
X166879440Y-75428750D01*
X166906000Y-75261063D01*
X166906000Y-75058935D01*
X167154000Y-75058935D01*
X167154000Y-75261063D01*
X167180559Y-75428750D01*
X167236386Y-75600566D01*
X167318401Y-75761529D01*
X167329558Y-75776886D01*
X167329559Y-75776886D01*
X167906300Y-75200145D01*
X167906300Y-75211832D01*
X167933130Y-75311962D01*
X167984962Y-75401737D01*
X168058263Y-75475038D01*
X168148038Y-75526870D01*
X168248168Y-75553700D01*
X168259853Y-75553700D01*
X167683112Y-76130438D01*
X167683112Y-76130439D01*
X167698477Y-76141602D01*
X167859433Y-76223613D01*
X168031249Y-76279440D01*
X168209669Y-76307700D01*
X168390331Y-76307700D01*
X168568750Y-76279440D01*
X168740566Y-76223613D01*
X168901528Y-76141599D01*
X168901532Y-76141597D01*
X168916886Y-76130440D01*
X168916887Y-76130439D01*
X168340148Y-75553700D01*
X168351832Y-75553700D01*
X168451962Y-75526870D01*
X168541737Y-75475038D01*
X168615038Y-75401737D01*
X168666870Y-75311962D01*
X168693700Y-75211832D01*
X168693700Y-75200147D01*
X169270440Y-75776887D01*
X169270440Y-75776886D01*
X169281597Y-75761532D01*
X169281599Y-75761528D01*
X169363613Y-75600566D01*
X169419440Y-75428750D01*
X169447700Y-75250331D01*
X169447700Y-75069668D01*
X169419440Y-74891249D01*
X169363613Y-74719433D01*
X169281602Y-74558477D01*
X169270439Y-74543112D01*
X168693700Y-75119851D01*
X168693700Y-75108168D01*
X168666870Y-75008038D01*
X168615038Y-74918263D01*
X168541737Y-74844962D01*
X168451962Y-74793130D01*
X168351832Y-74766300D01*
X168340147Y-74766300D01*
X168916886Y-74189559D01*
X168916886Y-74189558D01*
X168901529Y-74178401D01*
X168740566Y-74096386D01*
X168568750Y-74040559D01*
X168390331Y-74012300D01*
X168209669Y-74012300D01*
X168031249Y-74040559D01*
X167859433Y-74096386D01*
X167698476Y-74178397D01*
X167698472Y-74178400D01*
X167683112Y-74189558D01*
X167683112Y-74189559D01*
X168259854Y-74766300D01*
X168248168Y-74766300D01*
X168148038Y-74793130D01*
X168058263Y-74844962D01*
X167984962Y-74918263D01*
X167933130Y-75008038D01*
X167906300Y-75108168D01*
X167906300Y-75119853D01*
X167329559Y-74543112D01*
X167329558Y-74543112D01*
X167318400Y-74558472D01*
X167318397Y-74558476D01*
X167236386Y-74719433D01*
X167180559Y-74891249D01*
X167154000Y-75058935D01*
X166906000Y-75058935D01*
X166879440Y-74891249D01*
X166823613Y-74719433D01*
X166741602Y-74558477D01*
X166730439Y-74543112D01*
X166153700Y-75119851D01*
X166153700Y-75108168D01*
X166126870Y-75008038D01*
X166075038Y-74918263D01*
X166001737Y-74844962D01*
X165911962Y-74793130D01*
X165811832Y-74766300D01*
X165800147Y-74766300D01*
X166376886Y-74189559D01*
X166376886Y-74189558D01*
X166361529Y-74178401D01*
X166200566Y-74096386D01*
X166028750Y-74040559D01*
X165850331Y-74012300D01*
X165669669Y-74012300D01*
X165491249Y-74040559D01*
X165319433Y-74096386D01*
X165158476Y-74178397D01*
X165158472Y-74178400D01*
X165143112Y-74189558D01*
X165143112Y-74189559D01*
X165719854Y-74766300D01*
X165708168Y-74766300D01*
X165608038Y-74793130D01*
X165518263Y-74844962D01*
X165444962Y-74918263D01*
X165393130Y-75008038D01*
X165366300Y-75108168D01*
X165366300Y-75119853D01*
X164789559Y-74543112D01*
X164789558Y-74543112D01*
X164778400Y-74558472D01*
X164778397Y-74558476D01*
X164696386Y-74719433D01*
X164640559Y-74891249D01*
X164614000Y-75058935D01*
X164366000Y-75058935D01*
X164339440Y-74891249D01*
X164283613Y-74719433D01*
X164201602Y-74558477D01*
X164190439Y-74543112D01*
X163613700Y-75119851D01*
X163613700Y-75108168D01*
X163586870Y-75008038D01*
X163535038Y-74918263D01*
X163461737Y-74844962D01*
X163371962Y-74793130D01*
X163271832Y-74766300D01*
X163260147Y-74766300D01*
X163836886Y-74189559D01*
X163836886Y-74189558D01*
X163821529Y-74178401D01*
X163660566Y-74096386D01*
X163488750Y-74040559D01*
X163310331Y-74012300D01*
X163129669Y-74012300D01*
X162951249Y-74040559D01*
X162779433Y-74096386D01*
X162618476Y-74178397D01*
X162618472Y-74178400D01*
X162603112Y-74189558D01*
X162603112Y-74189559D01*
X163179854Y-74766300D01*
X163168168Y-74766300D01*
X163068038Y-74793130D01*
X162978263Y-74844962D01*
X162904962Y-74918263D01*
X162853130Y-75008038D01*
X162826300Y-75108168D01*
X162826300Y-75119853D01*
X162249559Y-74543112D01*
X162249558Y-74543112D01*
X162238400Y-74558472D01*
X162238397Y-74558476D01*
X162156386Y-74719433D01*
X162100559Y-74891248D01*
X162074252Y-75057341D01*
X161826253Y-75057341D01*
X161799927Y-74891129D01*
X161744078Y-74719244D01*
X161662028Y-74558212D01*
X161645346Y-74535251D01*
X161555803Y-74412003D01*
X161427996Y-74284196D01*
X161281791Y-74177974D01*
X161281790Y-74177973D01*
X161281788Y-74177972D01*
X161120756Y-74095922D01*
X160948871Y-74040073D01*
X160948869Y-74040072D01*
X160948867Y-74040072D01*
X160810823Y-74018208D01*
X160770365Y-74011800D01*
X160589635Y-74011800D01*
X160549177Y-74018208D01*
X160411132Y-74040072D01*
X160239241Y-74095923D01*
X160078208Y-74177974D01*
X159932003Y-74284196D01*
X159804196Y-74412003D01*
X159697974Y-74558208D01*
X159615923Y-74719241D01*
X159560072Y-74891132D01*
X159555775Y-74918263D01*
X159531800Y-75069635D01*
X159288200Y-75069635D01*
X159259927Y-74891129D01*
X159204078Y-74719244D01*
X159122028Y-74558212D01*
X159105346Y-74535251D01*
X159015803Y-74412003D01*
X158887996Y-74284196D01*
X158741791Y-74177974D01*
X158741790Y-74177973D01*
X158741788Y-74177972D01*
X158580756Y-74095922D01*
X158408871Y-74040073D01*
X158408869Y-74040072D01*
X158408867Y-74040072D01*
X158270823Y-74018208D01*
X158230365Y-74011800D01*
X158049635Y-74011800D01*
X158009177Y-74018208D01*
X157871132Y-74040072D01*
X157699241Y-74095923D01*
X157538208Y-74177974D01*
X157392003Y-74284196D01*
X157264196Y-74412003D01*
X157249899Y-74431682D01*
X157194568Y-74474346D01*
X157124955Y-74480324D01*
X157063161Y-74447716D01*
X157042195Y-74420793D01*
X157037117Y-74411998D01*
X157029220Y-74398319D01*
X152616413Y-69985513D01*
X174999500Y-69985513D01*
X174999500Y-70174486D01*
X175029059Y-70361118D01*
X175087454Y-70540836D01*
X175150394Y-70664362D01*
X175173240Y-70709199D01*
X175284310Y-70862073D01*
X175417927Y-70995690D01*
X175570801Y-71106760D01*
X175646205Y-71145180D01*
X175739163Y-71192545D01*
X175739165Y-71192545D01*
X175739168Y-71192547D01*
X175835497Y-71223846D01*
X175918881Y-71250940D01*
X176105514Y-71280500D01*
X176105519Y-71280500D01*
X176294486Y-71280500D01*
X176481118Y-71250940D01*
X176660832Y-71192547D01*
X176829199Y-71106760D01*
X176982073Y-70995690D01*
X177101628Y-70876135D01*
X183483500Y-70876135D01*
X183483500Y-73003870D01*
X183483501Y-73003876D01*
X183489908Y-73063483D01*
X183540202Y-73198328D01*
X183540206Y-73198335D01*
X183626452Y-73313544D01*
X183626455Y-73313547D01*
X183741664Y-73399793D01*
X183741671Y-73399797D01*
X183876517Y-73450091D01*
X183876516Y-73450091D01*
X183883444Y-73450835D01*
X183936127Y-73456500D01*
X186063872Y-73456499D01*
X186123483Y-73450091D01*
X186258331Y-73399796D01*
X186373546Y-73313546D01*
X186459796Y-73198331D01*
X186459797Y-73198325D01*
X186460967Y-73196187D01*
X186462697Y-73194456D01*
X186465112Y-73191231D01*
X186465575Y-73191578D01*
X186510372Y-73146781D01*
X186578644Y-73131928D01*
X186642685Y-73155293D01*
X186755181Y-73237027D01*
X186967866Y-73345395D01*
X187194885Y-73419158D01*
X187430649Y-73456500D01*
X187430650Y-73456500D01*
X187669350Y-73456500D01*
X187669351Y-73456500D01*
X187905115Y-73419158D01*
X188132134Y-73345395D01*
X188344819Y-73237027D01*
X188537933Y-73096721D01*
X188706721Y-72927933D01*
X188724682Y-72903210D01*
X188780010Y-72860545D01*
X188849624Y-72854565D01*
X188911419Y-72887170D01*
X188925313Y-72903205D01*
X188943279Y-72927933D01*
X189112067Y-73096721D01*
X189305181Y-73237027D01*
X189517866Y-73345395D01*
X189744885Y-73419158D01*
X189980649Y-73456500D01*
X189980650Y-73456500D01*
X190219350Y-73456500D01*
X190219351Y-73456500D01*
X190455115Y-73419158D01*
X190682134Y-73345395D01*
X190894819Y-73237027D01*
X191087933Y-73096721D01*
X191256721Y-72927933D01*
X191397027Y-72734819D01*
X191505395Y-72522134D01*
X191579158Y-72295115D01*
X191616500Y-72059351D01*
X191616500Y-71820649D01*
X191579158Y-71584885D01*
X191505395Y-71357866D01*
X191397027Y-71145181D01*
X191256721Y-70952067D01*
X191087933Y-70783279D01*
X190894819Y-70642973D01*
X190744641Y-70566454D01*
X190682136Y-70534606D01*
X190682135Y-70534605D01*
X190682134Y-70534605D01*
X190455115Y-70460842D01*
X190455113Y-70460841D01*
X190455111Y-70460841D01*
X190259815Y-70429909D01*
X190219351Y-70423500D01*
X189980649Y-70423500D01*
X189940191Y-70429908D01*
X189744888Y-70460841D01*
X189744887Y-70460841D01*
X189517863Y-70534606D01*
X189305180Y-70642973D01*
X189242587Y-70688450D01*
X189112067Y-70783279D01*
X189112065Y-70783281D01*
X189112064Y-70783281D01*
X188943278Y-70952067D01*
X188925317Y-70976789D01*
X188869986Y-71019454D01*
X188800372Y-71025432D01*
X188738578Y-70992825D01*
X188724683Y-70976789D01*
X188706721Y-70952067D01*
X188537935Y-70783281D01*
X188537933Y-70783279D01*
X188344819Y-70642973D01*
X188194641Y-70566454D01*
X188132136Y-70534606D01*
X188132135Y-70534605D01*
X188132134Y-70534605D01*
X187905115Y-70460842D01*
X187905113Y-70460841D01*
X187905111Y-70460841D01*
X187709815Y-70429909D01*
X187669351Y-70423500D01*
X187430649Y-70423500D01*
X187390191Y-70429908D01*
X187194888Y-70460841D01*
X187194887Y-70460841D01*
X186967863Y-70534606D01*
X186755177Y-70642975D01*
X186642685Y-70724705D01*
X186576879Y-70748185D01*
X186508825Y-70732359D01*
X186465537Y-70688450D01*
X186465112Y-70688769D01*
X186462780Y-70685654D01*
X186460969Y-70683817D01*
X186459793Y-70681664D01*
X186373547Y-70566455D01*
X186373544Y-70566452D01*
X186258335Y-70480206D01*
X186258328Y-70480202D01*
X186123482Y-70429908D01*
X186123483Y-70429908D01*
X186063883Y-70423501D01*
X186063881Y-70423500D01*
X186063873Y-70423500D01*
X186063864Y-70423500D01*
X183936129Y-70423500D01*
X183936123Y-70423501D01*
X183876516Y-70429908D01*
X183741671Y-70480202D01*
X183741664Y-70480206D01*
X183626455Y-70566452D01*
X183626452Y-70566455D01*
X183540206Y-70681664D01*
X183540202Y-70681671D01*
X183489908Y-70816517D01*
X183483501Y-70876116D01*
X183483500Y-70876135D01*
X177101628Y-70876135D01*
X177115690Y-70862073D01*
X177226760Y-70709199D01*
X177312547Y-70540832D01*
X177370940Y-70361118D01*
X177380218Y-70302539D01*
X177400500Y-70174486D01*
X177400500Y-69985513D01*
X177370939Y-69798877D01*
X177312545Y-69619163D01*
X177226759Y-69450800D01*
X177115690Y-69297927D01*
X176982073Y-69164310D01*
X176829199Y-69053240D01*
X176828190Y-69052726D01*
X176660836Y-68967454D01*
X176481118Y-68909059D01*
X176294486Y-68879500D01*
X176294481Y-68879500D01*
X176105519Y-68879500D01*
X176105514Y-68879500D01*
X175918881Y-68909059D01*
X175739163Y-68967454D01*
X175570800Y-69053240D01*
X175483579Y-69116610D01*
X175417927Y-69164310D01*
X175417925Y-69164312D01*
X175417924Y-69164312D01*
X175284312Y-69297924D01*
X175284312Y-69297925D01*
X175284310Y-69297927D01*
X175236610Y-69363579D01*
X175173240Y-69450800D01*
X175087454Y-69619163D01*
X175029061Y-69798877D01*
X174999500Y-69985513D01*
X152616413Y-69985513D01*
X150201186Y-67570286D01*
X150201185Y-67570284D01*
X150089381Y-67458480D01*
X150074061Y-67449635D01*
X151911800Y-67449635D01*
X151911800Y-67630365D01*
X151913747Y-67642657D01*
X151940072Y-67808867D01*
X151940072Y-67808869D01*
X151940073Y-67808871D01*
X151995922Y-67980756D01*
X152077840Y-68141529D01*
X152077974Y-68141791D01*
X152184196Y-68287996D01*
X152312003Y-68415803D01*
X152442260Y-68510438D01*
X152458212Y-68522028D01*
X152619244Y-68604078D01*
X152791129Y-68659927D01*
X152969635Y-68688200D01*
X152969636Y-68688200D01*
X153150364Y-68688200D01*
X153150365Y-68688200D01*
X153328871Y-68659927D01*
X153500756Y-68604078D01*
X153661788Y-68522028D01*
X153743879Y-68462385D01*
X153807996Y-68415803D01*
X153807998Y-68415800D01*
X153808002Y-68415798D01*
X153935798Y-68288002D01*
X153935800Y-68287998D01*
X153935803Y-68287996D01*
X154030549Y-68157587D01*
X154042028Y-68141788D01*
X154124078Y-67980756D01*
X154179927Y-67808871D01*
X154208200Y-67630365D01*
X154208200Y-67449635D01*
X154206253Y-67437341D01*
X154454252Y-67437341D01*
X154454252Y-67642657D01*
X154480559Y-67808751D01*
X154536386Y-67980566D01*
X154618401Y-68141529D01*
X154629558Y-68156886D01*
X154629559Y-68156886D01*
X155206300Y-67580145D01*
X155206300Y-67591832D01*
X155233130Y-67691962D01*
X155284962Y-67781737D01*
X155358263Y-67855038D01*
X155448038Y-67906870D01*
X155548168Y-67933700D01*
X155559853Y-67933700D01*
X154983112Y-68510438D01*
X154983112Y-68510439D01*
X154998477Y-68521602D01*
X155159433Y-68603613D01*
X155331249Y-68659440D01*
X155509669Y-68687700D01*
X155690331Y-68687700D01*
X155868750Y-68659440D01*
X156040566Y-68603613D01*
X156201528Y-68521599D01*
X156201532Y-68521597D01*
X156216886Y-68510440D01*
X156216887Y-68510439D01*
X155640148Y-67933700D01*
X155651832Y-67933700D01*
X155751962Y-67906870D01*
X155841737Y-67855038D01*
X155915038Y-67781737D01*
X155966870Y-67691962D01*
X155993700Y-67591832D01*
X155993700Y-67580147D01*
X156570440Y-68156887D01*
X156570440Y-68156886D01*
X156581597Y-68141532D01*
X156581599Y-68141528D01*
X156663613Y-67980566D01*
X156719440Y-67808750D01*
X156746000Y-67641063D01*
X156746000Y-67438935D01*
X156994000Y-67438935D01*
X156994000Y-67641063D01*
X157020559Y-67808750D01*
X157076386Y-67980566D01*
X157158401Y-68141529D01*
X157169558Y-68156886D01*
X157169559Y-68156886D01*
X157746300Y-67580145D01*
X157746300Y-67591832D01*
X157773130Y-67691962D01*
X157824962Y-67781737D01*
X157898263Y-67855038D01*
X157988038Y-67906870D01*
X158088168Y-67933700D01*
X158099853Y-67933700D01*
X157523112Y-68510438D01*
X157523112Y-68510439D01*
X157538477Y-68521602D01*
X157699433Y-68603613D01*
X157871249Y-68659440D01*
X158049669Y-68687700D01*
X158230331Y-68687700D01*
X158408750Y-68659440D01*
X158580566Y-68603613D01*
X158741528Y-68521599D01*
X158741532Y-68521597D01*
X158756886Y-68510440D01*
X158756887Y-68510439D01*
X158180148Y-67933700D01*
X158191832Y-67933700D01*
X158291962Y-67906870D01*
X158381737Y-67855038D01*
X158455038Y-67781737D01*
X158506870Y-67691962D01*
X158533700Y-67591832D01*
X158533700Y-67580147D01*
X159110440Y-68156887D01*
X159110440Y-68156886D01*
X159121597Y-68141532D01*
X159121599Y-68141528D01*
X159203613Y-67980566D01*
X159259440Y-67808750D01*
X159285747Y-67642659D01*
X159285747Y-67449635D01*
X159531800Y-67449635D01*
X159531800Y-67630365D01*
X159533747Y-67642657D01*
X159533747Y-67642658D01*
X159560072Y-67808867D01*
X159560072Y-67808869D01*
X159560073Y-67808871D01*
X159615922Y-67980756D01*
X159697840Y-68141529D01*
X159697974Y-68141791D01*
X159804196Y-68287996D01*
X159932003Y-68415803D01*
X160062260Y-68510438D01*
X160078212Y-68522028D01*
X160239244Y-68604078D01*
X160411129Y-68659927D01*
X160589635Y-68688200D01*
X160589636Y-68688200D01*
X160770364Y-68688200D01*
X160770365Y-68688200D01*
X160948871Y-68659927D01*
X161120756Y-68604078D01*
X161281788Y-68522028D01*
X161363879Y-68462385D01*
X161427996Y-68415803D01*
X161427998Y-68415800D01*
X161428002Y-68415798D01*
X161555798Y-68288002D01*
X161555800Y-68287998D01*
X161555803Y-68287996D01*
X161650549Y-68157587D01*
X161662028Y-68141788D01*
X161744078Y-67980756D01*
X161799927Y-67808871D01*
X161828200Y-67630365D01*
X161828200Y-67449635D01*
X162071800Y-67449635D01*
X162071800Y-67630365D01*
X162074000Y-67644254D01*
X162100072Y-67808867D01*
X162100072Y-67808869D01*
X162100073Y-67808871D01*
X162155922Y-67980756D01*
X162237840Y-68141529D01*
X162237974Y-68141791D01*
X162344196Y-68287996D01*
X162472003Y-68415803D01*
X162602260Y-68510438D01*
X162618212Y-68522028D01*
X162779244Y-68604078D01*
X162951129Y-68659927D01*
X163129635Y-68688200D01*
X163129636Y-68688200D01*
X163310364Y-68688200D01*
X163310365Y-68688200D01*
X163488871Y-68659927D01*
X163660756Y-68604078D01*
X163821788Y-68522028D01*
X163903879Y-68462385D01*
X163967996Y-68415803D01*
X163967998Y-68415800D01*
X163968002Y-68415798D01*
X164095798Y-68288002D01*
X164095800Y-68287998D01*
X164095803Y-68287996D01*
X164190549Y-68157587D01*
X164202028Y-68141788D01*
X164284078Y-67980756D01*
X164339927Y-67808871D01*
X164368200Y-67630365D01*
X164368200Y-67449635D01*
X164366253Y-67437341D01*
X164614252Y-67437341D01*
X164614252Y-67642657D01*
X164640559Y-67808751D01*
X164696386Y-67980566D01*
X164778401Y-68141529D01*
X164789558Y-68156886D01*
X164789559Y-68156886D01*
X165366300Y-67580145D01*
X165366300Y-67591832D01*
X165393130Y-67691962D01*
X165444962Y-67781737D01*
X165518263Y-67855038D01*
X165608038Y-67906870D01*
X165708168Y-67933700D01*
X165719853Y-67933700D01*
X165143112Y-68510438D01*
X165143112Y-68510439D01*
X165158477Y-68521602D01*
X165319433Y-68603613D01*
X165491249Y-68659440D01*
X165669669Y-68687700D01*
X165850331Y-68687700D01*
X166028750Y-68659440D01*
X166200566Y-68603613D01*
X166361528Y-68521599D01*
X166361532Y-68521597D01*
X166376886Y-68510440D01*
X166376887Y-68510439D01*
X165800148Y-67933700D01*
X165811832Y-67933700D01*
X165911962Y-67906870D01*
X166001737Y-67855038D01*
X166075038Y-67781737D01*
X166126870Y-67691962D01*
X166153700Y-67591832D01*
X166153700Y-67580147D01*
X166730439Y-68156887D01*
X166730440Y-68156886D01*
X166741597Y-68141532D01*
X166741599Y-68141528D01*
X166823613Y-67980566D01*
X166879440Y-67808750D01*
X166906000Y-67641063D01*
X166906000Y-67438935D01*
X167154000Y-67438935D01*
X167154000Y-67641063D01*
X167180559Y-67808750D01*
X167236386Y-67980566D01*
X167318401Y-68141529D01*
X167329558Y-68156886D01*
X167329559Y-68156886D01*
X167906300Y-67580145D01*
X167906300Y-67591832D01*
X167933130Y-67691962D01*
X167984962Y-67781737D01*
X168058263Y-67855038D01*
X168148038Y-67906870D01*
X168248168Y-67933700D01*
X168259853Y-67933700D01*
X167683112Y-68510438D01*
X167683112Y-68510439D01*
X167698477Y-68521602D01*
X167859433Y-68603613D01*
X168031249Y-68659440D01*
X168209669Y-68687700D01*
X168390331Y-68687700D01*
X168568750Y-68659440D01*
X168740566Y-68603613D01*
X168901528Y-68521599D01*
X168901532Y-68521597D01*
X168916886Y-68510440D01*
X168916887Y-68510439D01*
X168340148Y-67933700D01*
X168351832Y-67933700D01*
X168451962Y-67906870D01*
X168541737Y-67855038D01*
X168615038Y-67781737D01*
X168666870Y-67691962D01*
X168693700Y-67591832D01*
X168693700Y-67580147D01*
X169270440Y-68156887D01*
X169270440Y-68156886D01*
X169281597Y-68141532D01*
X169281599Y-68141528D01*
X169363613Y-67980566D01*
X169419440Y-67808750D01*
X169447700Y-67630331D01*
X169447700Y-67449668D01*
X169419440Y-67271249D01*
X169363613Y-67099433D01*
X169281602Y-66938477D01*
X169270439Y-66923112D01*
X169270438Y-66923112D01*
X168693700Y-67499851D01*
X168693700Y-67488168D01*
X168666870Y-67388038D01*
X168615038Y-67298263D01*
X168541737Y-67224962D01*
X168451962Y-67173130D01*
X168351832Y-67146300D01*
X168340147Y-67146300D01*
X168916886Y-66569559D01*
X168916886Y-66569558D01*
X168901529Y-66558401D01*
X168740566Y-66476386D01*
X168568750Y-66420559D01*
X168390331Y-66392300D01*
X168209669Y-66392300D01*
X168031249Y-66420559D01*
X167859433Y-66476386D01*
X167698476Y-66558397D01*
X167698472Y-66558400D01*
X167683112Y-66569558D01*
X167683112Y-66569559D01*
X168259854Y-67146300D01*
X168248168Y-67146300D01*
X168148038Y-67173130D01*
X168058263Y-67224962D01*
X167984962Y-67298263D01*
X167933130Y-67388038D01*
X167906300Y-67488168D01*
X167906300Y-67499853D01*
X167329559Y-66923112D01*
X167329558Y-66923112D01*
X167318400Y-66938472D01*
X167318397Y-66938476D01*
X167236386Y-67099433D01*
X167180559Y-67271249D01*
X167154000Y-67438935D01*
X166906000Y-67438935D01*
X166879440Y-67271249D01*
X166823613Y-67099433D01*
X166741602Y-66938477D01*
X166730439Y-66923112D01*
X166730438Y-66923112D01*
X166153700Y-67499851D01*
X166153700Y-67488168D01*
X166126870Y-67388038D01*
X166075038Y-67298263D01*
X166001737Y-67224962D01*
X165911962Y-67173130D01*
X165811832Y-67146300D01*
X165800147Y-67146300D01*
X166376886Y-66569559D01*
X166376886Y-66569558D01*
X166361529Y-66558401D01*
X166200566Y-66476386D01*
X166028750Y-66420559D01*
X165850331Y-66392300D01*
X165669669Y-66392300D01*
X165491249Y-66420559D01*
X165319433Y-66476386D01*
X165158476Y-66558397D01*
X165158472Y-66558400D01*
X165143112Y-66569558D01*
X165143112Y-66569559D01*
X165719854Y-67146300D01*
X165708168Y-67146300D01*
X165608038Y-67173130D01*
X165518263Y-67224962D01*
X165444962Y-67298263D01*
X165393130Y-67388038D01*
X165366300Y-67488168D01*
X165366300Y-67499853D01*
X164789559Y-66923112D01*
X164789558Y-66923112D01*
X164778400Y-66938472D01*
X164778397Y-66938476D01*
X164696386Y-67099433D01*
X164640559Y-67271248D01*
X164614252Y-67437341D01*
X164366253Y-67437341D01*
X164339927Y-67271129D01*
X164284078Y-67099244D01*
X164202028Y-66938212D01*
X164191057Y-66923112D01*
X164095803Y-66792003D01*
X163967996Y-66664196D01*
X163821791Y-66557974D01*
X163821790Y-66557973D01*
X163821788Y-66557972D01*
X163660756Y-66475922D01*
X163488871Y-66420073D01*
X163488869Y-66420072D01*
X163488867Y-66420072D01*
X163364232Y-66400331D01*
X163310365Y-66391800D01*
X163129635Y-66391800D01*
X163088254Y-66398354D01*
X162951132Y-66420072D01*
X162951129Y-66420073D01*
X162841512Y-66455690D01*
X162779241Y-66475923D01*
X162618208Y-66557974D01*
X162472003Y-66664196D01*
X162344196Y-66792003D01*
X162237974Y-66938208D01*
X162155923Y-67099241D01*
X162100072Y-67271132D01*
X162078943Y-67404534D01*
X162071800Y-67449635D01*
X161828200Y-67449635D01*
X161799927Y-67271129D01*
X161744078Y-67099244D01*
X161662028Y-66938212D01*
X161651057Y-66923112D01*
X161555803Y-66792003D01*
X161427996Y-66664196D01*
X161281791Y-66557974D01*
X161281790Y-66557973D01*
X161281788Y-66557972D01*
X161120756Y-66475922D01*
X160948871Y-66420073D01*
X160948869Y-66420072D01*
X160948867Y-66420072D01*
X160824232Y-66400331D01*
X160770365Y-66391800D01*
X160589635Y-66391800D01*
X160548254Y-66398354D01*
X160411132Y-66420072D01*
X160411129Y-66420073D01*
X160301512Y-66455690D01*
X160239241Y-66475923D01*
X160078208Y-66557974D01*
X159932003Y-66664196D01*
X159804196Y-66792003D01*
X159697974Y-66938208D01*
X159615923Y-67099241D01*
X159560072Y-67271132D01*
X159533747Y-67437340D01*
X159531800Y-67449635D01*
X159285747Y-67449635D01*
X159285747Y-67437339D01*
X159259440Y-67271249D01*
X159203613Y-67099433D01*
X159121602Y-66938477D01*
X159110439Y-66923112D01*
X158533700Y-67499851D01*
X158533700Y-67488168D01*
X158506870Y-67388038D01*
X158455038Y-67298263D01*
X158381737Y-67224962D01*
X158291962Y-67173130D01*
X158191832Y-67146300D01*
X158180147Y-67146300D01*
X158756886Y-66569559D01*
X158756886Y-66569558D01*
X158741529Y-66558401D01*
X158580566Y-66476386D01*
X158408750Y-66420559D01*
X158230331Y-66392300D01*
X158049669Y-66392300D01*
X157871249Y-66420559D01*
X157699433Y-66476386D01*
X157538476Y-66558397D01*
X157538472Y-66558400D01*
X157523112Y-66569558D01*
X157523112Y-66569559D01*
X158099854Y-67146300D01*
X158088168Y-67146300D01*
X157988038Y-67173130D01*
X157898263Y-67224962D01*
X157824962Y-67298263D01*
X157773130Y-67388038D01*
X157746300Y-67488168D01*
X157746300Y-67499853D01*
X157169559Y-66923112D01*
X157169558Y-66923112D01*
X157158400Y-66938472D01*
X157158397Y-66938476D01*
X157076386Y-67099433D01*
X157020559Y-67271249D01*
X156994000Y-67438935D01*
X156746000Y-67438935D01*
X156719440Y-67271249D01*
X156663613Y-67099433D01*
X156581602Y-66938477D01*
X156570439Y-66923112D01*
X155993700Y-67499851D01*
X155993700Y-67488168D01*
X155966870Y-67388038D01*
X155915038Y-67298263D01*
X155841737Y-67224962D01*
X155751962Y-67173130D01*
X155651832Y-67146300D01*
X155640147Y-67146300D01*
X156216886Y-66569559D01*
X156216886Y-66569558D01*
X156201529Y-66558401D01*
X156040566Y-66476386D01*
X155868750Y-66420559D01*
X155690331Y-66392300D01*
X155509669Y-66392300D01*
X155331249Y-66420559D01*
X155159433Y-66476386D01*
X154998476Y-66558397D01*
X154998472Y-66558400D01*
X154983112Y-66569558D01*
X154983112Y-66569559D01*
X155559854Y-67146300D01*
X155548168Y-67146300D01*
X155448038Y-67173130D01*
X155358263Y-67224962D01*
X155284962Y-67298263D01*
X155233130Y-67388038D01*
X155206300Y-67488168D01*
X155206300Y-67499853D01*
X154629559Y-66923112D01*
X154629558Y-66923112D01*
X154618400Y-66938472D01*
X154618397Y-66938476D01*
X154536386Y-67099433D01*
X154480559Y-67271248D01*
X154454252Y-67437341D01*
X154206253Y-67437341D01*
X154179927Y-67271129D01*
X154124078Y-67099244D01*
X154042028Y-66938212D01*
X154031057Y-66923112D01*
X153935803Y-66792003D01*
X153807996Y-66664196D01*
X153661791Y-66557974D01*
X153661790Y-66557973D01*
X153661788Y-66557972D01*
X153500756Y-66475922D01*
X153328871Y-66420073D01*
X153328869Y-66420072D01*
X153328867Y-66420072D01*
X153204232Y-66400331D01*
X153150365Y-66391800D01*
X152969635Y-66391800D01*
X152928254Y-66398354D01*
X152791132Y-66420072D01*
X152791129Y-66420073D01*
X152681512Y-66455690D01*
X152619241Y-66475923D01*
X152458208Y-66557974D01*
X152312003Y-66664196D01*
X152184196Y-66792003D01*
X152077974Y-66938208D01*
X151995923Y-67099241D01*
X151940072Y-67271132D01*
X151913747Y-67437340D01*
X151911800Y-67449635D01*
X150074061Y-67449635D01*
X149995941Y-67404533D01*
X149995940Y-67404532D01*
X149964103Y-67386151D01*
X149952450Y-67379423D01*
X149952449Y-67379422D01*
X149952448Y-67379422D01*
X149896546Y-67364443D01*
X149799722Y-67338499D01*
X149641608Y-67338499D01*
X149634012Y-67338499D01*
X149633996Y-67338500D01*
X147437727Y-67338500D01*
X147437711Y-67338499D01*
X147430115Y-67338499D01*
X147272000Y-67338499D01*
X147131793Y-67376067D01*
X147119268Y-67379424D01*
X146982344Y-67458477D01*
X146982339Y-67458481D01*
X146623217Y-67817603D01*
X146623214Y-67817605D01*
X146623215Y-67817606D01*
X146518478Y-67922343D01*
X146468361Y-68009151D01*
X146468359Y-68009153D01*
X146439425Y-68059266D01*
X146439424Y-68059267D01*
X146439423Y-68059272D01*
X146398499Y-68212000D01*
X146398499Y-68212002D01*
X146398499Y-68380103D01*
X146398500Y-68380116D01*
X146398500Y-70922567D01*
X146378815Y-70989606D01*
X146362181Y-71010248D01*
X138471899Y-78900529D01*
X138410576Y-78934014D01*
X138340884Y-78929030D01*
X138284951Y-78887158D01*
X138283899Y-78885732D01*
X138215801Y-78792001D01*
X138087996Y-78664196D01*
X137941791Y-78557974D01*
X137941790Y-78557973D01*
X137941788Y-78557972D01*
X137780756Y-78475922D01*
X137608871Y-78420073D01*
X137608869Y-78420072D01*
X137608867Y-78420072D01*
X137484232Y-78400331D01*
X137430365Y-78391800D01*
X137249635Y-78391800D01*
X137089266Y-78417199D01*
X137019973Y-78408244D01*
X136966521Y-78363248D01*
X136945882Y-78296496D01*
X136964607Y-78229182D01*
X136982181Y-78207053D01*
X139080520Y-76108716D01*
X139159577Y-75971784D01*
X139200501Y-75819057D01*
X139200501Y-75660942D01*
X139200501Y-75653347D01*
X139200500Y-75653329D01*
X139200500Y-72243150D01*
X139220185Y-72176111D01*
X139272989Y-72130356D01*
X139342147Y-72120412D01*
X139371979Y-72128600D01*
X139375362Y-72130002D01*
X139375368Y-72130005D01*
X139375374Y-72130007D01*
X139375379Y-72130009D01*
X139479093Y-72163707D01*
X139564364Y-72191413D01*
X139760639Y-72222500D01*
X139760640Y-72222500D01*
X139959360Y-72222500D01*
X139959361Y-72222500D01*
X140155636Y-72191413D01*
X140344632Y-72130005D01*
X140521694Y-72039787D01*
X140682464Y-71922981D01*
X140822981Y-71782464D01*
X140939787Y-71621694D01*
X141019515Y-71465218D01*
X141067490Y-71414423D01*
X141135311Y-71397628D01*
X141201446Y-71420165D01*
X141240484Y-71465218D01*
X141320213Y-71621694D01*
X141437019Y-71782464D01*
X141577536Y-71922981D01*
X141738306Y-72039787D01*
X141800350Y-72071400D01*
X141915367Y-72130005D01*
X141915370Y-72130006D01*
X142009866Y-72160709D01*
X142104364Y-72191413D01*
X142300639Y-72222500D01*
X142300640Y-72222500D01*
X142499360Y-72222500D01*
X142499361Y-72222500D01*
X142695636Y-72191413D01*
X142884632Y-72130005D01*
X143061694Y-72039787D01*
X143222464Y-71922981D01*
X143362981Y-71782464D01*
X143479787Y-71621694D01*
X143570005Y-71444632D01*
X143631413Y-71255636D01*
X143662500Y-71059361D01*
X143662500Y-70860639D01*
X143631413Y-70664364D01*
X143591275Y-70540832D01*
X143570006Y-70475370D01*
X143570005Y-70475367D01*
X143500937Y-70339815D01*
X143479787Y-70298306D01*
X143362981Y-70137536D01*
X143222464Y-69997019D01*
X143061694Y-69880213D01*
X143059500Y-69879095D01*
X142884632Y-69789994D01*
X142884629Y-69789993D01*
X142695637Y-69728587D01*
X142562561Y-69707510D01*
X142499361Y-69697500D01*
X142300639Y-69697500D01*
X142237439Y-69707510D01*
X142104362Y-69728587D01*
X141915370Y-69789993D01*
X141915367Y-69789994D01*
X141738305Y-69880213D01*
X141577533Y-69997021D01*
X141437021Y-70137533D01*
X141320213Y-70298305D01*
X141240485Y-70454780D01*
X141192510Y-70505576D01*
X141124689Y-70522371D01*
X141058554Y-70499833D01*
X141019515Y-70454780D01*
X140960937Y-70339815D01*
X140939787Y-70298306D01*
X140822981Y-70137536D01*
X140682464Y-69997019D01*
X140521694Y-69880213D01*
X140519500Y-69879095D01*
X140344632Y-69789994D01*
X140344629Y-69789993D01*
X140155637Y-69728587D01*
X140022561Y-69707510D01*
X139959361Y-69697500D01*
X139760639Y-69697500D01*
X139697439Y-69707510D01*
X139564362Y-69728587D01*
X139375371Y-69789993D01*
X139371949Y-69791411D01*
X139302479Y-69798877D01*
X139240001Y-69767600D01*
X139204351Y-69707510D01*
X139200500Y-69676848D01*
X139200500Y-66007882D01*
X175545669Y-66007882D01*
X175545670Y-66007883D01*
X175571059Y-66026329D01*
X175739362Y-66112085D01*
X175918997Y-66170451D01*
X176105553Y-66200000D01*
X176294447Y-66200000D01*
X176481002Y-66170451D01*
X176660637Y-66112085D01*
X176828937Y-66026331D01*
X176854328Y-66007883D01*
X176854328Y-66007882D01*
X176200001Y-65353554D01*
X176200000Y-65353554D01*
X175545669Y-66007882D01*
X139200500Y-66007882D01*
X139200500Y-64905552D01*
X175000000Y-64905552D01*
X175000000Y-65094447D01*
X175029548Y-65281002D01*
X175087914Y-65460637D01*
X175173666Y-65628933D01*
X175192116Y-65654328D01*
X175846446Y-65000000D01*
X175846446Y-64999999D01*
X175800369Y-64953922D01*
X175850000Y-64953922D01*
X175850000Y-65046078D01*
X175873852Y-65135095D01*
X175919930Y-65214905D01*
X175985095Y-65280070D01*
X176064905Y-65326148D01*
X176153922Y-65350000D01*
X176246078Y-65350000D01*
X176335095Y-65326148D01*
X176414905Y-65280070D01*
X176480070Y-65214905D01*
X176526148Y-65135095D01*
X176550000Y-65046078D01*
X176550000Y-64999999D01*
X176553554Y-64999999D01*
X176553554Y-65000000D01*
X177207882Y-65654328D01*
X177207883Y-65654328D01*
X177226331Y-65628937D01*
X177312085Y-65460637D01*
X177370451Y-65281002D01*
X177400000Y-65094447D01*
X177400000Y-64905552D01*
X177370451Y-64718997D01*
X177312085Y-64539362D01*
X177226329Y-64371059D01*
X177207883Y-64345670D01*
X177207882Y-64345669D01*
X176553554Y-64999999D01*
X176550000Y-64999999D01*
X176550000Y-64953922D01*
X176526148Y-64864905D01*
X176480070Y-64785095D01*
X176414905Y-64719930D01*
X176335095Y-64673852D01*
X176246078Y-64650000D01*
X176153922Y-64650000D01*
X176064905Y-64673852D01*
X175985095Y-64719930D01*
X175919930Y-64785095D01*
X175873852Y-64864905D01*
X175850000Y-64953922D01*
X175800369Y-64953922D01*
X175192116Y-64345669D01*
X175192116Y-64345670D01*
X175173669Y-64371060D01*
X175087914Y-64539362D01*
X175029548Y-64718997D01*
X175000000Y-64905552D01*
X139200500Y-64905552D01*
X139200500Y-64623151D01*
X139220185Y-64556112D01*
X139272989Y-64510357D01*
X139342147Y-64500413D01*
X139371961Y-64508593D01*
X139375360Y-64510001D01*
X139375368Y-64510005D01*
X139564364Y-64571413D01*
X139760639Y-64602500D01*
X139760640Y-64602500D01*
X139959360Y-64602500D01*
X139959361Y-64602500D01*
X140155636Y-64571413D01*
X140344632Y-64510005D01*
X140521694Y-64419787D01*
X140682464Y-64302981D01*
X140822981Y-64162464D01*
X140939787Y-64001694D01*
X141019515Y-63845218D01*
X141067490Y-63794423D01*
X141135311Y-63777628D01*
X141201446Y-63800165D01*
X141240484Y-63845218D01*
X141320213Y-64001694D01*
X141437019Y-64162464D01*
X141577536Y-64302981D01*
X141738306Y-64419787D01*
X141825149Y-64464035D01*
X141915367Y-64510005D01*
X141915370Y-64510006D01*
X142005720Y-64539362D01*
X142104364Y-64571413D01*
X142300639Y-64602500D01*
X142300640Y-64602500D01*
X142499360Y-64602500D01*
X142499361Y-64602500D01*
X142695636Y-64571413D01*
X142884632Y-64510005D01*
X143061694Y-64419787D01*
X143222464Y-64302981D01*
X143362981Y-64162464D01*
X143479787Y-64001694D01*
X143484667Y-63992116D01*
X175545669Y-63992116D01*
X176200000Y-64646446D01*
X176200001Y-64646446D01*
X176854328Y-63992116D01*
X176828933Y-63973666D01*
X176660637Y-63887914D01*
X176481002Y-63829548D01*
X176294447Y-63800000D01*
X176105553Y-63800000D01*
X175918997Y-63829548D01*
X175739362Y-63887914D01*
X175571060Y-63973669D01*
X175545670Y-63992116D01*
X175545669Y-63992116D01*
X143484667Y-63992116D01*
X143570005Y-63824632D01*
X143631413Y-63635636D01*
X143662500Y-63439361D01*
X143662500Y-63240639D01*
X143631413Y-63044364D01*
X143570005Y-62855368D01*
X143570005Y-62855367D01*
X143479786Y-62678305D01*
X143362981Y-62517536D01*
X143222464Y-62377019D01*
X143061694Y-62260213D01*
X142884632Y-62169994D01*
X142884629Y-62169993D01*
X142695637Y-62108587D01*
X142597498Y-62093043D01*
X142499361Y-62077500D01*
X142300639Y-62077500D01*
X142235214Y-62087862D01*
X142104362Y-62108587D01*
X141915370Y-62169993D01*
X141915367Y-62169994D01*
X141738305Y-62260213D01*
X141577533Y-62377021D01*
X141437021Y-62517533D01*
X141320213Y-62678305D01*
X141240485Y-62834780D01*
X141192510Y-62885576D01*
X141124689Y-62902371D01*
X141058554Y-62879833D01*
X141019515Y-62834780D01*
X140939786Y-62678305D01*
X140822981Y-62517536D01*
X140682464Y-62377019D01*
X140521694Y-62260213D01*
X140344632Y-62169994D01*
X140344629Y-62169993D01*
X140155637Y-62108587D01*
X140057498Y-62093043D01*
X139959361Y-62077500D01*
X139760639Y-62077500D01*
X139695214Y-62087862D01*
X139564362Y-62108587D01*
X139375370Y-62169993D01*
X139375367Y-62169994D01*
X139198305Y-62260213D01*
X139037533Y-62377021D01*
X138897021Y-62517533D01*
X138780213Y-62678305D01*
X138700485Y-62834780D01*
X138652510Y-62885576D01*
X138584689Y-62902371D01*
X138518554Y-62879833D01*
X138479515Y-62834780D01*
X138399786Y-62678305D01*
X138282981Y-62517536D01*
X138142464Y-62377019D01*
X137981694Y-62260213D01*
X137804632Y-62169994D01*
X137804629Y-62169993D01*
X137615637Y-62108587D01*
X137517498Y-62093043D01*
X137419361Y-62077500D01*
X137220639Y-62077500D01*
X137155214Y-62087862D01*
X137024362Y-62108587D01*
X136835370Y-62169993D01*
X136835367Y-62169994D01*
X136658305Y-62260213D01*
X136497533Y-62377021D01*
X136357021Y-62517533D01*
X136240213Y-62678305D01*
X136160485Y-62834780D01*
X136112510Y-62885576D01*
X136044689Y-62902371D01*
X135978554Y-62879833D01*
X135939515Y-62834780D01*
X135859786Y-62678305D01*
X135742981Y-62517536D01*
X135602464Y-62377019D01*
X135441694Y-62260213D01*
X135264632Y-62169994D01*
X135264629Y-62169993D01*
X135075637Y-62108587D01*
X134977498Y-62093043D01*
X134879361Y-62077500D01*
X134680639Y-62077500D01*
X134615214Y-62087862D01*
X134484362Y-62108587D01*
X134295370Y-62169993D01*
X134295367Y-62169994D01*
X134118305Y-62260213D01*
X133957533Y-62377021D01*
X133817021Y-62517533D01*
X133700213Y-62678305D01*
X133609994Y-62855367D01*
X133609993Y-62855370D01*
X133548587Y-63044362D01*
X133517500Y-63240639D01*
X133517500Y-63439360D01*
X133548587Y-63635637D01*
X133609993Y-63824629D01*
X133609994Y-63824632D01*
X133647526Y-63898291D01*
X133700213Y-64001694D01*
X133817019Y-64162464D01*
X133957536Y-64302981D01*
X134118306Y-64419787D01*
X134220203Y-64471706D01*
X134285574Y-64505015D01*
X134336370Y-64552990D01*
X134353165Y-64620811D01*
X134330627Y-64686946D01*
X134275912Y-64730397D01*
X134229279Y-64739500D01*
X128888625Y-64739500D01*
X128821586Y-64719815D01*
X128800944Y-64703181D01*
X128722075Y-64624312D01*
X128722073Y-64624310D01*
X128569199Y-64513240D01*
X128560079Y-64508593D01*
X128400836Y-64427454D01*
X128221118Y-64369059D01*
X128034486Y-64339500D01*
X128034481Y-64339500D01*
X127845519Y-64339500D01*
X127845514Y-64339500D01*
X127658881Y-64369059D01*
X127479163Y-64427454D01*
X127310800Y-64513240D01*
X127231300Y-64571001D01*
X127157927Y-64624310D01*
X127157925Y-64624312D01*
X127157924Y-64624312D01*
X127024312Y-64757924D01*
X127024312Y-64757925D01*
X127024310Y-64757927D01*
X126976610Y-64823579D01*
X126913240Y-64910800D01*
X126827454Y-65079163D01*
X126769059Y-65258881D01*
X126739500Y-65445513D01*
X126739500Y-65634486D01*
X126769059Y-65821118D01*
X126827454Y-66000836D01*
X126913240Y-66169199D01*
X127024310Y-66322073D01*
X127157927Y-66455690D01*
X127310801Y-66566760D01*
X127390347Y-66607290D01*
X127479163Y-66652545D01*
X127479165Y-66652545D01*
X127479168Y-66652547D01*
X127575497Y-66683846D01*
X127658881Y-66710940D01*
X127845514Y-66740500D01*
X127845519Y-66740500D01*
X128034486Y-66740500D01*
X128221118Y-66710940D01*
X128400832Y-66652547D01*
X128569199Y-66566760D01*
X128722073Y-66455690D01*
X128855690Y-66322073D01*
X128966760Y-66169199D01*
X129048790Y-66008204D01*
X129096764Y-65957409D01*
X129159275Y-65940500D01*
X135233331Y-65940500D01*
X135233347Y-65940501D01*
X135240943Y-65940501D01*
X135399054Y-65940501D01*
X135399057Y-65940501D01*
X135551785Y-65899577D01*
X135601904Y-65870639D01*
X135688716Y-65820520D01*
X135800520Y-65708716D01*
X135800520Y-65708714D01*
X135810728Y-65698507D01*
X135810730Y-65698504D01*
X136905473Y-64603760D01*
X136966794Y-64570277D01*
X137019521Y-64570841D01*
X137019552Y-64570651D01*
X137020843Y-64570855D01*
X137022099Y-64570869D01*
X137024352Y-64571409D01*
X137024364Y-64571413D01*
X137220639Y-64602500D01*
X137220640Y-64602500D01*
X137419360Y-64602500D01*
X137419361Y-64602500D01*
X137615636Y-64571413D01*
X137615646Y-64571409D01*
X137617891Y-64570871D01*
X137618778Y-64570915D01*
X137620448Y-64570651D01*
X137620503Y-64571001D01*
X137687674Y-64574357D01*
X137734527Y-64603762D01*
X137963181Y-64832416D01*
X137996666Y-64893739D01*
X137999500Y-64920097D01*
X137999500Y-69686935D01*
X137979815Y-69753974D01*
X137927011Y-69799729D01*
X137857853Y-69809673D01*
X137819206Y-69797420D01*
X137804638Y-69789997D01*
X137804629Y-69789993D01*
X137615637Y-69728587D01*
X137482561Y-69707510D01*
X137419361Y-69697500D01*
X137220639Y-69697500D01*
X137157439Y-69707510D01*
X137024362Y-69728587D01*
X136835370Y-69789993D01*
X136835367Y-69789994D01*
X136658305Y-69880213D01*
X136497533Y-69997021D01*
X136357021Y-70137533D01*
X136357021Y-70137534D01*
X136357019Y-70137536D01*
X136319772Y-70188802D01*
X136266817Y-70261688D01*
X136211487Y-70304353D01*
X136141873Y-70310332D01*
X136080078Y-70277726D01*
X136045721Y-70216887D01*
X136042499Y-70188802D01*
X136042499Y-70150129D01*
X136042498Y-70150123D01*
X136042497Y-70150116D01*
X136036091Y-70090517D01*
X136001219Y-69997021D01*
X135985797Y-69955671D01*
X135985793Y-69955664D01*
X135899547Y-69840455D01*
X135899544Y-69840452D01*
X135784335Y-69754206D01*
X135784328Y-69754202D01*
X135649482Y-69703908D01*
X135649483Y-69703908D01*
X135589883Y-69697501D01*
X135589881Y-69697500D01*
X135589873Y-69697500D01*
X135589864Y-69697500D01*
X133970129Y-69697500D01*
X133970123Y-69697501D01*
X133910516Y-69703908D01*
X133775671Y-69754202D01*
X133775664Y-69754206D01*
X133660455Y-69840452D01*
X133660452Y-69840455D01*
X133574206Y-69955664D01*
X133574202Y-69955671D01*
X133523908Y-70090517D01*
X133517501Y-70150116D01*
X133517501Y-70150123D01*
X133517500Y-70150135D01*
X133517500Y-70235500D01*
X133497815Y-70302539D01*
X133445011Y-70348294D01*
X133393500Y-70359500D01*
X129168675Y-70359500D01*
X129101636Y-70339815D01*
X129055881Y-70287011D01*
X129054108Y-70282939D01*
X129052551Y-70279180D01*
X129052547Y-70279168D01*
X128966760Y-70110801D01*
X128855690Y-69957927D01*
X128722073Y-69824310D01*
X128569199Y-69713240D01*
X128550884Y-69703908D01*
X128400836Y-69627454D01*
X128221118Y-69569059D01*
X128034486Y-69539500D01*
X128034481Y-69539500D01*
X127845519Y-69539500D01*
X127845514Y-69539500D01*
X127658881Y-69569059D01*
X127479163Y-69627454D01*
X127310800Y-69713240D01*
X127254422Y-69754202D01*
X127157927Y-69824310D01*
X127157925Y-69824312D01*
X127157924Y-69824312D01*
X127024312Y-69957924D01*
X127024312Y-69957925D01*
X127024310Y-69957927D01*
X126976610Y-70023579D01*
X126913240Y-70110800D01*
X126827454Y-70279163D01*
X126769059Y-70458881D01*
X126739500Y-70645513D01*
X126739500Y-70834486D01*
X126769059Y-71021118D01*
X126827454Y-71200836D01*
X126913240Y-71369199D01*
X127024310Y-71522073D01*
X127157927Y-71655690D01*
X127310801Y-71766760D01*
X127341624Y-71782465D01*
X127479163Y-71852545D01*
X127479165Y-71852545D01*
X127479168Y-71852547D01*
X127575497Y-71883846D01*
X127658881Y-71910940D01*
X127845514Y-71940500D01*
X127845519Y-71940500D01*
X128034486Y-71940500D01*
X128221118Y-71910940D01*
X128400832Y-71852547D01*
X128569199Y-71766760D01*
X128722073Y-71655690D01*
X128780944Y-71596819D01*
X128842267Y-71563334D01*
X128868625Y-71560500D01*
X133155957Y-71560500D01*
X133222996Y-71580185D01*
X133268751Y-71632989D01*
X133278695Y-71702147D01*
X133275732Y-71716593D01*
X133250799Y-71809643D01*
X133250799Y-71977746D01*
X133250800Y-71977759D01*
X133250800Y-78607638D01*
X133231115Y-78674677D01*
X133178311Y-78720432D01*
X133109153Y-78730376D01*
X133045597Y-78701351D01*
X133039119Y-78695319D01*
X133007996Y-78664196D01*
X132861791Y-78557974D01*
X132861790Y-78557973D01*
X132861788Y-78557972D01*
X132700756Y-78475922D01*
X132528871Y-78420073D01*
X132528869Y-78420072D01*
X132528867Y-78420072D01*
X132404232Y-78400331D01*
X132350365Y-78391800D01*
X132169635Y-78391800D01*
X132128254Y-78398354D01*
X131991132Y-78420072D01*
X131991129Y-78420073D01*
X131881512Y-78455690D01*
X131819241Y-78475923D01*
X131658208Y-78557974D01*
X131512003Y-78664196D01*
X131384196Y-78792003D01*
X131277974Y-78938208D01*
X131195923Y-79099241D01*
X131140072Y-79271132D01*
X131116643Y-79419057D01*
X131111800Y-79449635D01*
X131111800Y-79630365D01*
X131114000Y-79644254D01*
X131140072Y-79808867D01*
X131140072Y-79808869D01*
X131140073Y-79808871D01*
X131195922Y-79980756D01*
X131277840Y-80141529D01*
X131277974Y-80141791D01*
X131384196Y-80287996D01*
X131512003Y-80415803D01*
X131642260Y-80510438D01*
X131658212Y-80522028D01*
X131819244Y-80604078D01*
X131991129Y-80659927D01*
X132169635Y-80688200D01*
X132169636Y-80688200D01*
X132350363Y-80688200D01*
X132350365Y-80688200D01*
X132468041Y-80669561D01*
X132537332Y-80678515D01*
X132575118Y-80704353D01*
X133124839Y-81254074D01*
X133124849Y-81254085D01*
X133129179Y-81258415D01*
X133129180Y-81258416D01*
X133240984Y-81370220D01*
X133305876Y-81407685D01*
X133377915Y-81449277D01*
X133530643Y-81490201D01*
X133530646Y-81490201D01*
X133696353Y-81490201D01*
X133696369Y-81490200D01*
X137245296Y-81490200D01*
X137245312Y-81490201D01*
X137252908Y-81490201D01*
X137411019Y-81490201D01*
X137411022Y-81490201D01*
X137563750Y-81449277D01*
X137635789Y-81407685D01*
X137700681Y-81370220D01*
X137812485Y-81258416D01*
X137812485Y-81258414D01*
X137822689Y-81248211D01*
X137822692Y-81248206D01*
X146787821Y-72283078D01*
X146849142Y-72249595D01*
X146918834Y-72254579D01*
X146974767Y-72296451D01*
X146999184Y-72361915D01*
X146999500Y-72370761D01*
X146999500Y-82319902D01*
X146979815Y-82386941D01*
X146963181Y-82407583D01*
X122684526Y-106686237D01*
X122623203Y-106719722D01*
X122570478Y-106719158D01*
X122570448Y-106719349D01*
X122569156Y-106719144D01*
X122567903Y-106719131D01*
X122565636Y-106718586D01*
X122396196Y-106691750D01*
X122369361Y-106687500D01*
X122170639Y-106687500D01*
X122130181Y-106693908D01*
X121974361Y-106718587D01*
X121969809Y-106720066D01*
X121899968Y-106722056D01*
X121840138Y-106685971D01*
X121809315Y-106623268D01*
X121807500Y-106602132D01*
X121807500Y-101677867D01*
X121827185Y-101610828D01*
X121879989Y-101565073D01*
X121949147Y-101555129D01*
X121969821Y-101559937D01*
X121974363Y-101561413D01*
X122072501Y-101576956D01*
X122170639Y-101592500D01*
X122170640Y-101592500D01*
X122369360Y-101592500D01*
X122369361Y-101592500D01*
X122565636Y-101561413D01*
X122754632Y-101500005D01*
X122931694Y-101409787D01*
X123092464Y-101292981D01*
X123232981Y-101152464D01*
X123349787Y-100991694D01*
X123429515Y-100835218D01*
X123477490Y-100784423D01*
X123545311Y-100767628D01*
X123611446Y-100790165D01*
X123650484Y-100835218D01*
X123730213Y-100991694D01*
X123847019Y-101152464D01*
X123987536Y-101292981D01*
X124148306Y-101409787D01*
X124235149Y-101454035D01*
X124325367Y-101500005D01*
X124325370Y-101500006D01*
X124419866Y-101530709D01*
X124514364Y-101561413D01*
X124710639Y-101592500D01*
X124710640Y-101592500D01*
X124909360Y-101592500D01*
X124909361Y-101592500D01*
X125105636Y-101561413D01*
X125294632Y-101500005D01*
X125471694Y-101409787D01*
X125632464Y-101292981D01*
X125772981Y-101152464D01*
X125889787Y-100991694D01*
X125980005Y-100814632D01*
X126041413Y-100625636D01*
X126072500Y-100429361D01*
X126072500Y-100230639D01*
X126041413Y-100034364D01*
X126004928Y-99922073D01*
X125980006Y-99845370D01*
X125980005Y-99845367D01*
X125912031Y-99711962D01*
X125889787Y-99668306D01*
X125772981Y-99507536D01*
X125632464Y-99367019D01*
X125471694Y-99250213D01*
X125461388Y-99244962D01*
X125294632Y-99159994D01*
X125294629Y-99159993D01*
X125105637Y-99098587D01*
X125007498Y-99083043D01*
X124909361Y-99067500D01*
X124710639Y-99067500D01*
X124645214Y-99077862D01*
X124514362Y-99098587D01*
X124325370Y-99159993D01*
X124325367Y-99159994D01*
X124148305Y-99250213D01*
X123987533Y-99367021D01*
X123847021Y-99507533D01*
X123730213Y-99668305D01*
X123650485Y-99824780D01*
X123602510Y-99875576D01*
X123534689Y-99892371D01*
X123468554Y-99869833D01*
X123429515Y-99824780D01*
X123372031Y-99711962D01*
X123349787Y-99668306D01*
X123232981Y-99507536D01*
X123092464Y-99367019D01*
X122931694Y-99250213D01*
X122921388Y-99244962D01*
X122754632Y-99159994D01*
X122754629Y-99159993D01*
X122565637Y-99098587D01*
X122467498Y-99083043D01*
X122369361Y-99067500D01*
X122170639Y-99067500D01*
X122121570Y-99075271D01*
X121974361Y-99098587D01*
X121969809Y-99100066D01*
X121899968Y-99102056D01*
X121840138Y-99065971D01*
X121809315Y-99003268D01*
X121807500Y-98982132D01*
X121807500Y-97343573D01*
X121807500Y-97343571D01*
X121766577Y-97190844D01*
X121766577Y-97190843D01*
X121766577Y-97190842D01*
X121737639Y-97140723D01*
X121737637Y-97140720D01*
X121687520Y-97053912D01*
X121575716Y-96942108D01*
X121575715Y-96942107D01*
X121571385Y-96937777D01*
X121571374Y-96937767D01*
X119385788Y-94752181D01*
X119352303Y-94690858D01*
X119357287Y-94621166D01*
X119399159Y-94565233D01*
X119464623Y-94540816D01*
X119473469Y-94540500D01*
X119554486Y-94540500D01*
X119741118Y-94510940D01*
X119920832Y-94452547D01*
X120089199Y-94366760D01*
X120242073Y-94255690D01*
X120375690Y-94122073D01*
X120486760Y-93969199D01*
X120569396Y-93807014D01*
X120572545Y-93800836D01*
X120572545Y-93800835D01*
X120572547Y-93800832D01*
X120630940Y-93621118D01*
X120642045Y-93551003D01*
X120660500Y-93434486D01*
X120660500Y-93245513D01*
X123339500Y-93245513D01*
X123339500Y-93434486D01*
X123369059Y-93621118D01*
X123427454Y-93800836D01*
X123502806Y-93948721D01*
X123513240Y-93969199D01*
X123624310Y-94122073D01*
X123757927Y-94255690D01*
X123910801Y-94366760D01*
X123936392Y-94379799D01*
X124079163Y-94452545D01*
X124079165Y-94452545D01*
X124079168Y-94452547D01*
X124175497Y-94483846D01*
X124258881Y-94510940D01*
X124445514Y-94540500D01*
X124445519Y-94540500D01*
X124634486Y-94540500D01*
X124821118Y-94510940D01*
X125000832Y-94452547D01*
X125169199Y-94366760D01*
X125322073Y-94255690D01*
X125455690Y-94122073D01*
X125566760Y-93969199D01*
X125649396Y-93807014D01*
X125652545Y-93800836D01*
X125652545Y-93800835D01*
X125652547Y-93800832D01*
X125710940Y-93621118D01*
X125722045Y-93551003D01*
X125740500Y-93434486D01*
X125740500Y-93245513D01*
X125710940Y-93058881D01*
X125662708Y-92910440D01*
X125652547Y-92879168D01*
X125652545Y-92879165D01*
X125652545Y-92879163D01*
X125566759Y-92710800D01*
X125550191Y-92687996D01*
X125455690Y-92557927D01*
X125322073Y-92424310D01*
X125169199Y-92313240D01*
X125136567Y-92296613D01*
X125000836Y-92227454D01*
X124821118Y-92169059D01*
X124634486Y-92139500D01*
X124634481Y-92139500D01*
X124445519Y-92139500D01*
X124445514Y-92139500D01*
X124258881Y-92169059D01*
X124079163Y-92227454D01*
X123910800Y-92313240D01*
X123882640Y-92333700D01*
X123757927Y-92424310D01*
X123757925Y-92424312D01*
X123757924Y-92424312D01*
X123624312Y-92557924D01*
X123624312Y-92557925D01*
X123624310Y-92557927D01*
X123576610Y-92623579D01*
X123513240Y-92710800D01*
X123427454Y-92879163D01*
X123369059Y-93058881D01*
X123339500Y-93245513D01*
X120660500Y-93245513D01*
X120630940Y-93058881D01*
X120582708Y-92910440D01*
X120572547Y-92879168D01*
X120572545Y-92879165D01*
X120572545Y-92879163D01*
X120486759Y-92710800D01*
X120470191Y-92687996D01*
X120375690Y-92557927D01*
X120242073Y-92424310D01*
X120089199Y-92313240D01*
X120056567Y-92296613D01*
X119920836Y-92227454D01*
X119741118Y-92169059D01*
X119554486Y-92139500D01*
X119554481Y-92139500D01*
X119365519Y-92139500D01*
X119365514Y-92139500D01*
X119178881Y-92169059D01*
X118999163Y-92227454D01*
X118830800Y-92313240D01*
X118802640Y-92333700D01*
X118677927Y-92424310D01*
X118677925Y-92424312D01*
X118677924Y-92424312D01*
X118544312Y-92557924D01*
X118544312Y-92557925D01*
X118544310Y-92557927D01*
X118496610Y-92623579D01*
X118433240Y-92710800D01*
X118347454Y-92879163D01*
X118289059Y-93058881D01*
X118259500Y-93245513D01*
X118259500Y-93326531D01*
X118239815Y-93393570D01*
X118187011Y-93439325D01*
X118117853Y-93449269D01*
X118054297Y-93420244D01*
X118047819Y-93414212D01*
X115574074Y-90940467D01*
X115540589Y-90879144D01*
X115545573Y-90809452D01*
X115587445Y-90753519D01*
X115588796Y-90752521D01*
X115722073Y-90655690D01*
X115855690Y-90522073D01*
X115950475Y-90391613D01*
X116005804Y-90348949D01*
X116050792Y-90340500D01*
X127522375Y-90340500D01*
X127589414Y-90360185D01*
X127635169Y-90412989D01*
X127645113Y-90482147D01*
X127616088Y-90545703D01*
X127610056Y-90552181D01*
X127604312Y-90557924D01*
X127604312Y-90557925D01*
X127604310Y-90557927D01*
X127556610Y-90623579D01*
X127493240Y-90710800D01*
X127407454Y-90879163D01*
X127349059Y-91058881D01*
X127319500Y-91245513D01*
X127319500Y-91434486D01*
X127349059Y-91621118D01*
X127407454Y-91800836D01*
X127457765Y-91899576D01*
X127493240Y-91969199D01*
X127604310Y-92122073D01*
X127737927Y-92255690D01*
X127890801Y-92366760D01*
X127918270Y-92380756D01*
X128059163Y-92452545D01*
X128059165Y-92452545D01*
X128059168Y-92452547D01*
X128155497Y-92483846D01*
X128238881Y-92510940D01*
X128425514Y-92540500D01*
X128425519Y-92540500D01*
X128614486Y-92540500D01*
X128801118Y-92510940D01*
X128980832Y-92452547D01*
X129149199Y-92366760D01*
X129302073Y-92255690D01*
X129435690Y-92122073D01*
X129546760Y-91969199D01*
X129632547Y-91800832D01*
X129690940Y-91621118D01*
X129720500Y-91434486D01*
X129720500Y-91245513D01*
X132399500Y-91245513D01*
X132399500Y-91434486D01*
X132429059Y-91621118D01*
X132487454Y-91800836D01*
X132537765Y-91899576D01*
X132573240Y-91969199D01*
X132684310Y-92122073D01*
X132817927Y-92255690D01*
X132970801Y-92366760D01*
X132998270Y-92380756D01*
X133139163Y-92452545D01*
X133139165Y-92452545D01*
X133139168Y-92452547D01*
X133235497Y-92483846D01*
X133318881Y-92510940D01*
X133505514Y-92540500D01*
X133505519Y-92540500D01*
X133694486Y-92540500D01*
X133881118Y-92510940D01*
X134060832Y-92452547D01*
X134229199Y-92366760D01*
X134382073Y-92255690D01*
X134515690Y-92122073D01*
X134610475Y-91991613D01*
X134665804Y-91948949D01*
X134710792Y-91940500D01*
X135313331Y-91940500D01*
X135313347Y-91940501D01*
X135320943Y-91940501D01*
X135479054Y-91940501D01*
X135479057Y-91940501D01*
X135631785Y-91899577D01*
X135681904Y-91870639D01*
X135768716Y-91820520D01*
X135880520Y-91708716D01*
X135880520Y-91708714D01*
X135890728Y-91698507D01*
X135890729Y-91698504D01*
X137214662Y-90374572D01*
X137275983Y-90341089D01*
X137278150Y-90340638D01*
X137336085Y-90329113D01*
X137433497Y-90309737D01*
X137579179Y-90249394D01*
X137710289Y-90161789D01*
X137821789Y-90050289D01*
X137909394Y-89919179D01*
X137969737Y-89773497D01*
X138000500Y-89618842D01*
X138000500Y-89461158D01*
X138000500Y-89461155D01*
X138000499Y-89461153D01*
X137969738Y-89306510D01*
X137969738Y-89306508D01*
X137969737Y-89306503D01*
X137958415Y-89279168D01*
X137909397Y-89160827D01*
X137909390Y-89160814D01*
X137821789Y-89029711D01*
X137821786Y-89029707D01*
X137710292Y-88918213D01*
X137710288Y-88918210D01*
X137579185Y-88830609D01*
X137579172Y-88830602D01*
X137433501Y-88770264D01*
X137433489Y-88770261D01*
X137278845Y-88739500D01*
X137278842Y-88739500D01*
X137121158Y-88739500D01*
X137121155Y-88739500D01*
X136966510Y-88770261D01*
X136966498Y-88770264D01*
X136820827Y-88830602D01*
X136820814Y-88830609D01*
X136689711Y-88918210D01*
X136689707Y-88918213D01*
X136578213Y-89029707D01*
X136578210Y-89029711D01*
X136490609Y-89160814D01*
X136490602Y-89160827D01*
X136430264Y-89306498D01*
X136430261Y-89306508D01*
X136399361Y-89461850D01*
X136366976Y-89523761D01*
X136365425Y-89525339D01*
X135187584Y-90703181D01*
X135126261Y-90736666D01*
X135099903Y-90739500D01*
X134710792Y-90739500D01*
X134643753Y-90719815D01*
X134610474Y-90688386D01*
X134515690Y-90557927D01*
X134382073Y-90424310D01*
X134229199Y-90313240D01*
X134196567Y-90296613D01*
X134060836Y-90227454D01*
X133881118Y-90169059D01*
X133694486Y-90139500D01*
X133694481Y-90139500D01*
X133505519Y-90139500D01*
X133505514Y-90139500D01*
X133318881Y-90169059D01*
X133139163Y-90227454D01*
X132970800Y-90313240D01*
X132906187Y-90360185D01*
X132817927Y-90424310D01*
X132817925Y-90424312D01*
X132817924Y-90424312D01*
X132684312Y-90557924D01*
X132684312Y-90557925D01*
X132684310Y-90557927D01*
X132636610Y-90623579D01*
X132573240Y-90710800D01*
X132487454Y-90879163D01*
X132429059Y-91058881D01*
X132399500Y-91245513D01*
X129720500Y-91245513D01*
X129690940Y-91058881D01*
X129661917Y-90969558D01*
X129632547Y-90879168D01*
X129632545Y-90879165D01*
X129632545Y-90879163D01*
X129559939Y-90736666D01*
X129546760Y-90710801D01*
X129435690Y-90557927D01*
X129429944Y-90552181D01*
X129419331Y-90532744D01*
X129404831Y-90516011D01*
X129402914Y-90502679D01*
X129396459Y-90490858D01*
X129398038Y-90468771D01*
X129394887Y-90446853D01*
X129400482Y-90434601D01*
X129401443Y-90421166D01*
X129414713Y-90403439D01*
X129423912Y-90383297D01*
X129435243Y-90376014D01*
X129443315Y-90365233D01*
X129464060Y-90357495D01*
X129482690Y-90345523D01*
X129504608Y-90342371D01*
X129508779Y-90340816D01*
X129517625Y-90340500D01*
X129593331Y-90340500D01*
X129593347Y-90340501D01*
X129600943Y-90340501D01*
X129759054Y-90340501D01*
X129759057Y-90340501D01*
X129911785Y-90299577D01*
X129998704Y-90249394D01*
X130048716Y-90220520D01*
X130160520Y-90108716D01*
X130160520Y-90108714D01*
X130170724Y-90098511D01*
X130170728Y-90098506D01*
X131944882Y-88324351D01*
X132006203Y-88290868D01*
X132051955Y-88289561D01*
X132169635Y-88308200D01*
X132169637Y-88308200D01*
X132350364Y-88308200D01*
X132350365Y-88308200D01*
X132528871Y-88279927D01*
X132700756Y-88224078D01*
X132861788Y-88142028D01*
X132943879Y-88082385D01*
X133007996Y-88035803D01*
X133007998Y-88035800D01*
X133008002Y-88035798D01*
X133135798Y-87908002D01*
X133135800Y-87907998D01*
X133135803Y-87907996D01*
X133203730Y-87814501D01*
X133242028Y-87761788D01*
X133324078Y-87600756D01*
X133379927Y-87428871D01*
X133407527Y-87254612D01*
X133437456Y-87191478D01*
X133496768Y-87154547D01*
X133566630Y-87155545D01*
X133624863Y-87194155D01*
X133652473Y-87254613D01*
X133680072Y-87428867D01*
X133680072Y-87428869D01*
X133680073Y-87428871D01*
X133735922Y-87600756D01*
X133817840Y-87761529D01*
X133817974Y-87761791D01*
X133924196Y-87907996D01*
X134052003Y-88035803D01*
X134182260Y-88130438D01*
X134198212Y-88142028D01*
X134359244Y-88224078D01*
X134531129Y-88279927D01*
X134709635Y-88308200D01*
X134709636Y-88308200D01*
X134890364Y-88308200D01*
X134890365Y-88308200D01*
X135068871Y-88279927D01*
X135240756Y-88224078D01*
X135401788Y-88142028D01*
X135483879Y-88082385D01*
X135547996Y-88035803D01*
X135547998Y-88035800D01*
X135548002Y-88035798D01*
X135675798Y-87908002D01*
X135675800Y-87907998D01*
X135675803Y-87907996D01*
X135743730Y-87814501D01*
X135782028Y-87761788D01*
X135864078Y-87600756D01*
X135919927Y-87428871D01*
X135947780Y-87253015D01*
X135977708Y-87189884D01*
X136025080Y-87160386D01*
X136021493Y-87158008D01*
X136007381Y-87154463D01*
X135992956Y-87139087D01*
X135975389Y-87127439D01*
X135968664Y-87113191D01*
X135959578Y-87103506D01*
X135949787Y-87073199D01*
X135948306Y-87070060D01*
X135948031Y-87068568D01*
X135919927Y-86891129D01*
X135909293Y-86858402D01*
X135907810Y-86850354D01*
X135910603Y-86823419D01*
X135909830Y-86796354D01*
X135914153Y-86789184D01*
X135915017Y-86780857D01*
X135931926Y-86759710D01*
X135945910Y-86736521D01*
X135956943Y-86728424D01*
X135958652Y-86726288D01*
X135960877Y-86725538D01*
X135967753Y-86720492D01*
X136017416Y-86691820D01*
X136049102Y-86660133D01*
X136110422Y-86626649D01*
X136180114Y-86631633D01*
X136236048Y-86673503D01*
X136260466Y-86738967D01*
X136254713Y-86786132D01*
X136220560Y-86891244D01*
X136220559Y-86891247D01*
X136192725Y-87066982D01*
X136186491Y-87080130D01*
X136184991Y-87094603D01*
X136171825Y-87111067D01*
X136162795Y-87130116D01*
X136150444Y-87137806D01*
X136141356Y-87149172D01*
X136121378Y-87155904D01*
X136115423Y-87159612D01*
X136165115Y-87192559D01*
X136192725Y-87253017D01*
X136220559Y-87428751D01*
X136276386Y-87600566D01*
X136358401Y-87761529D01*
X136369558Y-87776886D01*
X136369559Y-87776886D01*
X136946300Y-87200145D01*
X136946300Y-87211832D01*
X136973130Y-87311962D01*
X137024962Y-87401737D01*
X137098263Y-87475038D01*
X137188038Y-87526870D01*
X137288168Y-87553700D01*
X137299853Y-87553700D01*
X136723112Y-88130438D01*
X136723112Y-88130439D01*
X136738477Y-88141602D01*
X136899433Y-88223613D01*
X137071249Y-88279440D01*
X137249669Y-88307700D01*
X137430331Y-88307700D01*
X137608750Y-88279440D01*
X137780566Y-88223613D01*
X137941528Y-88141599D01*
X137941532Y-88141597D01*
X137956886Y-88130440D01*
X137956887Y-88130439D01*
X137380148Y-87553700D01*
X137391832Y-87553700D01*
X137491962Y-87526870D01*
X137581737Y-87475038D01*
X137655038Y-87401737D01*
X137706870Y-87311962D01*
X137733700Y-87211832D01*
X137733700Y-87200147D01*
X138310439Y-87776887D01*
X138310440Y-87776886D01*
X138321597Y-87761532D01*
X138321599Y-87761528D01*
X138403613Y-87600566D01*
X138459440Y-87428750D01*
X138487700Y-87250331D01*
X138487700Y-87069668D01*
X138459440Y-86891249D01*
X138403613Y-86719433D01*
X138321602Y-86558477D01*
X138310439Y-86543112D01*
X137733700Y-87119851D01*
X137733700Y-87108168D01*
X137706870Y-87008038D01*
X137655038Y-86918263D01*
X137581737Y-86844962D01*
X137491962Y-86793130D01*
X137391832Y-86766300D01*
X137380146Y-86766300D01*
X137956886Y-86189559D01*
X137956886Y-86189558D01*
X137941529Y-86178401D01*
X137780566Y-86096386D01*
X137608750Y-86040559D01*
X137430331Y-86012300D01*
X137249669Y-86012300D01*
X137071249Y-86040559D01*
X137071248Y-86040559D01*
X136966130Y-86074714D01*
X136896288Y-86076709D01*
X136836456Y-86040628D01*
X136805628Y-85977927D01*
X136813593Y-85908513D01*
X136840128Y-85869105D01*
X142759170Y-79950064D01*
X142820491Y-79916581D01*
X142866246Y-79915274D01*
X142889006Y-79918878D01*
X143025514Y-79940500D01*
X143025519Y-79940500D01*
X143214486Y-79940500D01*
X143401118Y-79910940D01*
X143454629Y-79893553D01*
X143580832Y-79852547D01*
X143749199Y-79766760D01*
X143902073Y-79655690D01*
X144035690Y-79522073D01*
X144146760Y-79369199D01*
X144232547Y-79200832D01*
X144290940Y-79021118D01*
X144295275Y-78993750D01*
X144320500Y-78834486D01*
X144320500Y-78645513D01*
X144290940Y-78458881D01*
X144238177Y-78296496D01*
X144232547Y-78279168D01*
X144232545Y-78279165D01*
X144232545Y-78279163D01*
X144159939Y-78136666D01*
X144146760Y-78110801D01*
X144035690Y-77957927D01*
X143902073Y-77824310D01*
X143749199Y-77713240D01*
X143580836Y-77627454D01*
X143401118Y-77569059D01*
X143214486Y-77539500D01*
X143214481Y-77539500D01*
X143025519Y-77539500D01*
X143025514Y-77539500D01*
X142838881Y-77569059D01*
X142659163Y-77627454D01*
X142490800Y-77713240D01*
X142403579Y-77776610D01*
X142337927Y-77824310D01*
X142337925Y-77824312D01*
X142337924Y-77824312D01*
X142204312Y-77957924D01*
X142204312Y-77957925D01*
X142204310Y-77957927D01*
X142173138Y-78000832D01*
X142093240Y-78110800D01*
X142007454Y-78279163D01*
X141949059Y-78458881D01*
X141919500Y-78645513D01*
X141919500Y-78834486D01*
X141944725Y-78993750D01*
X141935770Y-79063043D01*
X141909933Y-79100829D01*
X135436284Y-85574481D01*
X135374961Y-85607966D01*
X135348603Y-85610800D01*
X130589640Y-85610800D01*
X130548719Y-85621764D01*
X130548719Y-85621765D01*
X130511451Y-85631751D01*
X130436914Y-85651723D01*
X130436909Y-85651726D01*
X130299990Y-85730775D01*
X130299982Y-85730781D01*
X130188180Y-85842583D01*
X130188180Y-85842584D01*
X130188178Y-85842586D01*
X130052837Y-85977927D01*
X130035118Y-85995646D01*
X129973795Y-86029130D01*
X129928040Y-86030437D01*
X129810365Y-86011800D01*
X129629635Y-86011800D01*
X129589177Y-86018208D01*
X129451132Y-86040072D01*
X129279241Y-86095923D01*
X129118208Y-86177974D01*
X128972003Y-86284196D01*
X128844196Y-86412003D01*
X128737974Y-86558208D01*
X128655923Y-86719241D01*
X128600072Y-86891132D01*
X128574680Y-87051447D01*
X128574680Y-87051450D01*
X128571800Y-87069635D01*
X128571800Y-87250365D01*
X128600073Y-87428871D01*
X128655922Y-87600756D01*
X128737840Y-87761529D01*
X128737974Y-87761791D01*
X128844196Y-87907996D01*
X128972003Y-88035803D01*
X129102260Y-88130438D01*
X129118212Y-88142028D01*
X129279244Y-88224078D01*
X129451129Y-88279927D01*
X129629635Y-88308200D01*
X129629636Y-88308200D01*
X129810364Y-88308200D01*
X129810365Y-88308200D01*
X129970731Y-88282800D01*
X130040024Y-88291754D01*
X130093476Y-88336751D01*
X130114116Y-88403502D01*
X130095391Y-88470816D01*
X130077810Y-88492954D01*
X129467584Y-89103181D01*
X129406261Y-89136666D01*
X129379903Y-89139500D01*
X116050792Y-89139500D01*
X116048089Y-89138706D01*
X116045354Y-89139381D01*
X116014761Y-89128920D01*
X115983753Y-89119815D01*
X115981095Y-89117408D01*
X115979243Y-89116775D01*
X115966376Y-89104078D01*
X115953608Y-89092515D01*
X115952001Y-89090488D01*
X115855690Y-88957927D01*
X115813581Y-88915818D01*
X115809141Y-88910215D01*
X115798609Y-88884190D01*
X115785159Y-88859558D01*
X115785681Y-88852245D01*
X115782931Y-88845448D01*
X115788140Y-88817864D01*
X115790143Y-88789866D01*
X115794537Y-88783995D01*
X115795898Y-88776792D01*
X115815192Y-88756405D01*
X115832015Y-88733933D01*
X115838884Y-88731370D01*
X115843925Y-88726045D01*
X115871180Y-88719324D01*
X115897479Y-88709516D01*
X115906325Y-88709200D01*
X126144631Y-88709200D01*
X126144647Y-88709201D01*
X126152243Y-88709201D01*
X126310354Y-88709201D01*
X126310357Y-88709201D01*
X126463085Y-88668277D01*
X126513204Y-88639339D01*
X126600016Y-88589220D01*
X126711820Y-88477416D01*
X126711820Y-88477414D01*
X126722028Y-88467207D01*
X126722030Y-88467204D01*
X126864882Y-88324351D01*
X126926203Y-88290868D01*
X126971955Y-88289561D01*
X127089635Y-88308200D01*
X127089637Y-88308200D01*
X127270364Y-88308200D01*
X127270365Y-88308200D01*
X127448871Y-88279927D01*
X127620756Y-88224078D01*
X127781788Y-88142028D01*
X127863879Y-88082385D01*
X127927996Y-88035803D01*
X127927998Y-88035800D01*
X127928002Y-88035798D01*
X128055798Y-87908002D01*
X128055800Y-87907998D01*
X128055803Y-87907996D01*
X128123730Y-87814501D01*
X128162028Y-87761788D01*
X128244078Y-87600756D01*
X128299927Y-87428871D01*
X128328200Y-87250365D01*
X128328200Y-87069635D01*
X128325327Y-87051499D01*
X128318444Y-87008038D01*
X128299927Y-86891129D01*
X128244078Y-86719244D01*
X128162028Y-86558212D01*
X128151057Y-86543112D01*
X128055803Y-86412003D01*
X127927996Y-86284196D01*
X127781791Y-86177974D01*
X127781790Y-86177973D01*
X127781788Y-86177972D01*
X127620756Y-86095922D01*
X127448871Y-86040073D01*
X127448869Y-86040072D01*
X127448867Y-86040072D01*
X127310823Y-86018208D01*
X127270365Y-86011800D01*
X127089635Y-86011800D01*
X127049177Y-86018208D01*
X126911132Y-86040072D01*
X126739241Y-86095923D01*
X126578208Y-86177974D01*
X126432003Y-86284196D01*
X126304196Y-86412003D01*
X126197974Y-86558208D01*
X126115923Y-86719241D01*
X126060072Y-86891132D01*
X126032473Y-87065386D01*
X126002544Y-87128521D01*
X125943232Y-87165452D01*
X125873370Y-87164454D01*
X125815137Y-87125844D01*
X125787527Y-87065386D01*
X125778444Y-87008038D01*
X125759927Y-86891129D01*
X125704078Y-86719244D01*
X125622028Y-86558212D01*
X125611057Y-86543112D01*
X125515803Y-86412003D01*
X125387996Y-86284196D01*
X125241791Y-86177974D01*
X125241790Y-86177973D01*
X125241788Y-86177972D01*
X125080756Y-86095922D01*
X124908871Y-86040073D01*
X124908869Y-86040072D01*
X124908867Y-86040072D01*
X124770823Y-86018208D01*
X124730365Y-86011800D01*
X124549635Y-86011800D01*
X124509177Y-86018208D01*
X124371132Y-86040072D01*
X124199241Y-86095923D01*
X124038208Y-86177974D01*
X123892003Y-86284196D01*
X123764196Y-86412003D01*
X123657974Y-86558208D01*
X123575923Y-86719241D01*
X123520072Y-86891132D01*
X123494672Y-87051499D01*
X123464742Y-87114634D01*
X123405431Y-87151565D01*
X123335568Y-87150567D01*
X123277336Y-87111957D01*
X123249222Y-87047993D01*
X123248199Y-87032109D01*
X123248199Y-86464428D01*
X123242999Y-86416057D01*
X123241791Y-86404816D01*
X123191497Y-86269971D01*
X123191493Y-86269964D01*
X123105247Y-86154755D01*
X123105244Y-86154752D01*
X122990035Y-86068506D01*
X122990028Y-86068502D01*
X122855182Y-86018208D01*
X122855183Y-86018208D01*
X122795583Y-86011801D01*
X122795581Y-86011800D01*
X122795573Y-86011800D01*
X122795564Y-86011800D01*
X121404429Y-86011800D01*
X121404423Y-86011801D01*
X121344816Y-86018208D01*
X121209971Y-86068502D01*
X121209964Y-86068506D01*
X121094755Y-86154752D01*
X121094752Y-86154755D01*
X121008506Y-86269964D01*
X121008502Y-86269971D01*
X120958208Y-86404817D01*
X120951801Y-86464416D01*
X120951801Y-86464423D01*
X120951800Y-86464435D01*
X120951801Y-87384200D01*
X120932117Y-87451239D01*
X120879313Y-87496994D01*
X120827801Y-87508200D01*
X115242341Y-87508200D01*
X115242325Y-87508199D01*
X115234729Y-87508199D01*
X115076615Y-87508199D01*
X114969259Y-87536965D01*
X114923882Y-87549124D01*
X114923881Y-87549125D01*
X114873768Y-87578059D01*
X114873767Y-87578060D01*
X114834785Y-87600566D01*
X114786957Y-87628179D01*
X114786954Y-87628181D01*
X113458481Y-88956654D01*
X113458477Y-88956659D01*
X113439519Y-88989498D01*
X113439518Y-88989500D01*
X113379423Y-89093587D01*
X113338499Y-89246315D01*
X113338499Y-89404429D01*
X113338499Y-89404431D01*
X113338500Y-89414425D01*
X113338500Y-90067958D01*
X113338499Y-90067976D01*
X113338499Y-90233682D01*
X113338498Y-90233682D01*
X110955809Y-90233682D01*
X110972547Y-90200832D01*
X111030940Y-90021118D01*
X111032708Y-90009958D01*
X111060500Y-89834486D01*
X111060500Y-89645513D01*
X111030940Y-89458881D01*
X111008262Y-89389088D01*
X110972547Y-89279168D01*
X110886760Y-89110801D01*
X110775690Y-88957927D01*
X110642073Y-88824310D01*
X110489199Y-88713240D01*
X110481270Y-88709200D01*
X110320836Y-88627454D01*
X110141118Y-88569059D01*
X109954486Y-88539500D01*
X109954481Y-88539500D01*
X109765519Y-88539500D01*
X109765514Y-88539500D01*
X109578881Y-88569059D01*
X109399163Y-88627454D01*
X109230800Y-88713240D01*
X109143579Y-88776610D01*
X109077927Y-88824310D01*
X109077925Y-88824312D01*
X109077924Y-88824312D01*
X108944312Y-88957924D01*
X108944312Y-88957925D01*
X108944310Y-88957927D01*
X108921372Y-88989498D01*
X108833240Y-89110800D01*
X108747454Y-89279163D01*
X108689059Y-89458881D01*
X108659500Y-89645513D01*
X93324837Y-89645513D01*
X93289933Y-89470042D01*
X93280889Y-89448209D01*
X93278527Y-89437267D01*
X93280290Y-89413142D01*
X93277703Y-89389088D01*
X93283548Y-89367776D01*
X93319091Y-89272483D01*
X93325500Y-89212873D01*
X93325499Y-88267128D01*
X93319091Y-88207517D01*
X93294665Y-88142028D01*
X93268797Y-88072671D01*
X93268793Y-88072664D01*
X93182547Y-87957455D01*
X93182544Y-87957452D01*
X93067335Y-87871206D01*
X93067328Y-87871202D01*
X92932482Y-87820908D01*
X92932483Y-87820908D01*
X92872883Y-87814501D01*
X92872881Y-87814500D01*
X92872873Y-87814500D01*
X92872864Y-87814500D01*
X91927129Y-87814500D01*
X91927123Y-87814501D01*
X91867516Y-87820908D01*
X91732671Y-87871202D01*
X91732664Y-87871206D01*
X91617455Y-87957452D01*
X91617452Y-87957455D01*
X91531206Y-88072664D01*
X91531202Y-88072671D01*
X91480908Y-88207517D01*
X91479128Y-88224078D01*
X91474501Y-88267123D01*
X91474500Y-88267135D01*
X91474500Y-89212870D01*
X91474501Y-89212876D01*
X91480908Y-89272483D01*
X91516447Y-89367765D01*
X91521431Y-89437456D01*
X91514828Y-89458545D01*
X91510069Y-89470034D01*
X91510065Y-89470047D01*
X91474500Y-89648843D01*
X91474500Y-89648846D01*
X91474500Y-89831154D01*
X91474500Y-89831156D01*
X91474499Y-89831156D01*
X86800000Y-89831156D01*
X86800000Y-79449635D01*
X120951800Y-79449635D01*
X120951800Y-79630365D01*
X120953747Y-79642657D01*
X120980072Y-79808867D01*
X120980072Y-79808869D01*
X120980073Y-79808871D01*
X121035922Y-79980756D01*
X121117840Y-80141529D01*
X121117974Y-80141791D01*
X121224196Y-80287996D01*
X121352003Y-80415803D01*
X121482260Y-80510438D01*
X121498212Y-80522028D01*
X121659244Y-80604078D01*
X121831129Y-80659927D01*
X122009635Y-80688200D01*
X122009636Y-80688200D01*
X122190364Y-80688200D01*
X122190365Y-80688200D01*
X122368871Y-80659927D01*
X122540756Y-80604078D01*
X122701788Y-80522028D01*
X122783879Y-80462385D01*
X122847996Y-80415803D01*
X122847998Y-80415800D01*
X122848002Y-80415798D01*
X122975798Y-80288002D01*
X122975800Y-80287998D01*
X122975803Y-80287996D01*
X123022385Y-80223879D01*
X123082028Y-80141788D01*
X123164078Y-79980756D01*
X123219927Y-79808871D01*
X123248200Y-79630365D01*
X123248200Y-79449635D01*
X123246253Y-79437341D01*
X123494252Y-79437341D01*
X123494252Y-79642657D01*
X123520559Y-79808751D01*
X123576386Y-79980566D01*
X123658401Y-80141529D01*
X123669558Y-80156886D01*
X123669559Y-80156886D01*
X124246300Y-79580145D01*
X124246300Y-79591832D01*
X124273130Y-79691962D01*
X124324962Y-79781737D01*
X124398263Y-79855038D01*
X124488038Y-79906870D01*
X124588168Y-79933700D01*
X124599853Y-79933700D01*
X124023112Y-80510438D01*
X124023112Y-80510439D01*
X124038477Y-80521602D01*
X124199433Y-80603613D01*
X124371249Y-80659440D01*
X124549669Y-80687700D01*
X124730331Y-80687700D01*
X124908750Y-80659440D01*
X125080566Y-80603613D01*
X125241528Y-80521599D01*
X125241532Y-80521597D01*
X125256886Y-80510440D01*
X125256887Y-80510439D01*
X124680148Y-79933700D01*
X124691832Y-79933700D01*
X124791962Y-79906870D01*
X124881737Y-79855038D01*
X124955038Y-79781737D01*
X125006870Y-79691962D01*
X125033700Y-79591832D01*
X125033700Y-79580147D01*
X125610440Y-80156887D01*
X125610440Y-80156886D01*
X125621597Y-80141532D01*
X125621599Y-80141528D01*
X125703613Y-79980566D01*
X125759440Y-79808750D01*
X125786000Y-79641063D01*
X125786000Y-79438935D01*
X126034000Y-79438935D01*
X126034000Y-79641063D01*
X126060559Y-79808750D01*
X126116386Y-79980566D01*
X126198401Y-80141529D01*
X126209558Y-80156886D01*
X126209559Y-80156886D01*
X126786300Y-79580145D01*
X126786300Y-79591832D01*
X126813130Y-79691962D01*
X126864962Y-79781737D01*
X126938263Y-79855038D01*
X127028038Y-79906870D01*
X127128168Y-79933700D01*
X127139853Y-79933700D01*
X126563112Y-80510438D01*
X126563112Y-80510439D01*
X126578477Y-80521602D01*
X126739433Y-80603613D01*
X126911249Y-80659440D01*
X127089669Y-80687700D01*
X127270331Y-80687700D01*
X127448750Y-80659440D01*
X127620566Y-80603613D01*
X127781528Y-80521599D01*
X127781532Y-80521597D01*
X127796886Y-80510440D01*
X127796887Y-80510439D01*
X127220148Y-79933700D01*
X127231832Y-79933700D01*
X127331962Y-79906870D01*
X127421737Y-79855038D01*
X127495038Y-79781737D01*
X127546870Y-79691962D01*
X127573700Y-79591832D01*
X127573700Y-79580147D01*
X128150440Y-80156887D01*
X128150440Y-80156886D01*
X128161597Y-80141532D01*
X128161599Y-80141528D01*
X128243613Y-79980566D01*
X128299440Y-79808750D01*
X128325747Y-79642659D01*
X128325747Y-79449635D01*
X128571800Y-79449635D01*
X128571800Y-79630365D01*
X128573747Y-79642657D01*
X128573747Y-79642658D01*
X128600072Y-79808867D01*
X128600072Y-79808869D01*
X128600073Y-79808871D01*
X128655922Y-79980756D01*
X128737840Y-80141529D01*
X128737974Y-80141791D01*
X128844196Y-80287996D01*
X128972003Y-80415803D01*
X129102260Y-80510438D01*
X129118212Y-80522028D01*
X129279244Y-80604078D01*
X129451129Y-80659927D01*
X129629635Y-80688200D01*
X129629636Y-80688200D01*
X129810364Y-80688200D01*
X129810365Y-80688200D01*
X129988871Y-80659927D01*
X130160756Y-80604078D01*
X130321788Y-80522028D01*
X130403879Y-80462385D01*
X130467996Y-80415803D01*
X130467998Y-80415800D01*
X130468002Y-80415798D01*
X130595798Y-80288002D01*
X130595800Y-80287998D01*
X130595803Y-80287996D01*
X130642385Y-80223879D01*
X130702028Y-80141788D01*
X130784078Y-79980756D01*
X130839927Y-79808871D01*
X130868200Y-79630365D01*
X130868200Y-79449635D01*
X130839927Y-79271129D01*
X130784078Y-79099244D01*
X130702028Y-78938212D01*
X130674650Y-78900529D01*
X130595803Y-78792003D01*
X130467996Y-78664196D01*
X130321791Y-78557974D01*
X130321790Y-78557973D01*
X130321788Y-78557972D01*
X130160756Y-78475922D01*
X129988871Y-78420073D01*
X129988869Y-78420072D01*
X129988867Y-78420072D01*
X129864232Y-78400331D01*
X129810365Y-78391800D01*
X129629635Y-78391800D01*
X129588254Y-78398354D01*
X129451132Y-78420072D01*
X129451129Y-78420073D01*
X129341512Y-78455690D01*
X129279241Y-78475923D01*
X129118208Y-78557974D01*
X128972003Y-78664196D01*
X128844196Y-78792003D01*
X128737974Y-78938208D01*
X128655923Y-79099241D01*
X128600072Y-79271132D01*
X128573747Y-79437340D01*
X128571800Y-79449635D01*
X128325747Y-79449635D01*
X128325747Y-79437339D01*
X128299440Y-79271249D01*
X128243613Y-79099433D01*
X128161602Y-78938477D01*
X128150439Y-78923112D01*
X128150438Y-78923112D01*
X127573700Y-79499851D01*
X127573700Y-79488168D01*
X127546870Y-79388038D01*
X127495038Y-79298263D01*
X127421737Y-79224962D01*
X127331962Y-79173130D01*
X127231832Y-79146300D01*
X127220147Y-79146300D01*
X127796886Y-78569559D01*
X127796886Y-78569558D01*
X127781529Y-78558401D01*
X127620566Y-78476386D01*
X127448750Y-78420559D01*
X127270331Y-78392300D01*
X127089669Y-78392300D01*
X126911249Y-78420559D01*
X126739433Y-78476386D01*
X126578476Y-78558397D01*
X126578472Y-78558400D01*
X126563112Y-78569558D01*
X126563112Y-78569559D01*
X127139854Y-79146300D01*
X127128168Y-79146300D01*
X127028038Y-79173130D01*
X126938263Y-79224962D01*
X126864962Y-79298263D01*
X126813130Y-79388038D01*
X126786300Y-79488168D01*
X126786300Y-79499853D01*
X126209559Y-78923112D01*
X126209558Y-78923112D01*
X126198400Y-78938472D01*
X126198397Y-78938476D01*
X126116386Y-79099433D01*
X126060559Y-79271249D01*
X126034000Y-79438935D01*
X125786000Y-79438935D01*
X125759440Y-79271249D01*
X125703613Y-79099433D01*
X125621602Y-78938477D01*
X125610439Y-78923112D01*
X125033700Y-79499851D01*
X125033700Y-79488168D01*
X125006870Y-79388038D01*
X124955038Y-79298263D01*
X124881737Y-79224962D01*
X124791962Y-79173130D01*
X124691832Y-79146300D01*
X124680147Y-79146300D01*
X125256886Y-78569559D01*
X125256886Y-78569558D01*
X125241529Y-78558401D01*
X125080566Y-78476386D01*
X124908750Y-78420559D01*
X124730331Y-78392300D01*
X124549669Y-78392300D01*
X124371249Y-78420559D01*
X124199433Y-78476386D01*
X124038476Y-78558397D01*
X124038472Y-78558400D01*
X124023112Y-78569558D01*
X124023112Y-78569559D01*
X124599854Y-79146300D01*
X124588168Y-79146300D01*
X124488038Y-79173130D01*
X124398263Y-79224962D01*
X124324962Y-79298263D01*
X124273130Y-79388038D01*
X124246300Y-79488168D01*
X124246300Y-79499853D01*
X123669559Y-78923112D01*
X123669558Y-78923112D01*
X123658400Y-78938472D01*
X123658397Y-78938476D01*
X123576386Y-79099433D01*
X123520559Y-79271248D01*
X123494252Y-79437341D01*
X123246253Y-79437341D01*
X123219927Y-79271129D01*
X123164078Y-79099244D01*
X123082028Y-78938212D01*
X123054650Y-78900529D01*
X122975803Y-78792003D01*
X122847996Y-78664196D01*
X122701791Y-78557974D01*
X122701790Y-78557973D01*
X122701788Y-78557972D01*
X122540756Y-78475922D01*
X122368871Y-78420073D01*
X122368869Y-78420072D01*
X122368867Y-78420072D01*
X122244232Y-78400331D01*
X122190365Y-78391800D01*
X122009635Y-78391800D01*
X121968254Y-78398354D01*
X121831132Y-78420072D01*
X121831129Y-78420073D01*
X121721512Y-78455690D01*
X121659241Y-78475923D01*
X121498208Y-78557974D01*
X121352003Y-78664196D01*
X121224196Y-78792003D01*
X121117974Y-78938208D01*
X121035923Y-79099241D01*
X120980072Y-79271132D01*
X120953747Y-79437340D01*
X120951800Y-79449635D01*
X86800000Y-79449635D01*
X86800000Y-70645513D01*
X121659500Y-70645513D01*
X121659500Y-70834486D01*
X121689059Y-71021118D01*
X121747454Y-71200836D01*
X121833240Y-71369199D01*
X121944310Y-71522073D01*
X122077927Y-71655690D01*
X122230801Y-71766760D01*
X122261624Y-71782465D01*
X122399163Y-71852545D01*
X122399165Y-71852545D01*
X122399168Y-71852547D01*
X122495497Y-71883846D01*
X122578881Y-71910940D01*
X122765514Y-71940500D01*
X122765519Y-71940500D01*
X122954486Y-71940500D01*
X123141118Y-71910940D01*
X123320832Y-71852547D01*
X123489199Y-71766760D01*
X123642073Y-71655690D01*
X123775690Y-71522073D01*
X123886760Y-71369199D01*
X123972547Y-71200832D01*
X124030940Y-71021118D01*
X124038414Y-70973930D01*
X124060500Y-70834486D01*
X124060500Y-70645513D01*
X124030940Y-70458881D01*
X123998649Y-70359500D01*
X123972547Y-70279168D01*
X123972545Y-70279165D01*
X123972545Y-70279163D01*
X123919206Y-70174481D01*
X123886760Y-70110801D01*
X123775690Y-69957927D01*
X123642073Y-69824310D01*
X123489199Y-69713240D01*
X123470884Y-69703908D01*
X123320836Y-69627454D01*
X123141118Y-69569059D01*
X122954486Y-69539500D01*
X122954481Y-69539500D01*
X122765519Y-69539500D01*
X122765514Y-69539500D01*
X122578881Y-69569059D01*
X122399163Y-69627454D01*
X122230800Y-69713240D01*
X122174422Y-69754202D01*
X122077927Y-69824310D01*
X122077925Y-69824312D01*
X122077924Y-69824312D01*
X121944312Y-69957924D01*
X121944312Y-69957925D01*
X121944310Y-69957927D01*
X121896610Y-70023579D01*
X121833240Y-70110800D01*
X121747454Y-70279163D01*
X121689059Y-70458881D01*
X121659500Y-70645513D01*
X86800000Y-70645513D01*
X86800000Y-66431755D01*
X108559600Y-66431755D01*
X108559600Y-66890000D01*
X109395263Y-66890000D01*
X109394799Y-66890464D01*
X109341295Y-66983135D01*
X109313600Y-67086496D01*
X109313600Y-67193504D01*
X109341295Y-67296865D01*
X109394799Y-67389536D01*
X109395263Y-67390000D01*
X108559600Y-67390000D01*
X108559600Y-67848244D01*
X108566001Y-67907772D01*
X108566003Y-67907779D01*
X108616245Y-68042486D01*
X108616249Y-68042493D01*
X108702409Y-68157587D01*
X108702412Y-68157590D01*
X108817506Y-68243750D01*
X108817513Y-68243754D01*
X108952220Y-68293996D01*
X108952227Y-68293998D01*
X109011755Y-68300399D01*
X109011772Y-68300400D01*
X109470000Y-68300400D01*
X109470000Y-67464737D01*
X109470464Y-67465201D01*
X109563135Y-67518705D01*
X109666496Y-67546400D01*
X109773504Y-67546400D01*
X109876865Y-67518705D01*
X109969536Y-67465201D01*
X109970000Y-67464737D01*
X109970000Y-68300400D01*
X110428228Y-68300400D01*
X110428244Y-68300399D01*
X110487772Y-68293998D01*
X110487779Y-68293996D01*
X110622486Y-68243754D01*
X110622493Y-68243750D01*
X110737587Y-68157590D01*
X110737590Y-68157587D01*
X110823750Y-68042493D01*
X110823754Y-68042486D01*
X110873996Y-67907779D01*
X110873998Y-67907772D01*
X110880399Y-67848244D01*
X110880400Y-67848227D01*
X110880400Y-67426117D01*
X110900085Y-67359078D01*
X110952889Y-67313323D01*
X111022047Y-67303379D01*
X111085603Y-67332404D01*
X111123377Y-67391182D01*
X111126873Y-67406719D01*
X111127684Y-67411842D01*
X111127685Y-67411845D01*
X111179165Y-67570284D01*
X111184153Y-67585633D01*
X111206945Y-67630365D01*
X111267109Y-67748444D01*
X111374515Y-67896276D01*
X111503724Y-68025485D01*
X111651556Y-68132891D01*
X111814369Y-68215848D01*
X111988155Y-68272315D01*
X112055835Y-68283034D01*
X112168630Y-68300900D01*
X112168635Y-68300900D01*
X112351370Y-68300900D01*
X112451631Y-68285019D01*
X112531845Y-68272315D01*
X112705631Y-68215848D01*
X112868444Y-68132891D01*
X113016276Y-68025485D01*
X113145485Y-67896276D01*
X113252891Y-67748444D01*
X113335848Y-67585631D01*
X113392315Y-67411845D01*
X113407527Y-67315802D01*
X113437456Y-67252667D01*
X113496768Y-67215736D01*
X113566630Y-67216734D01*
X113624863Y-67255344D01*
X113652473Y-67315802D01*
X113667684Y-67411841D01*
X113667684Y-67411843D01*
X113667685Y-67411845D01*
X113719165Y-67570284D01*
X113724153Y-67585633D01*
X113746945Y-67630365D01*
X113807109Y-67748444D01*
X113914515Y-67896276D01*
X114043724Y-68025485D01*
X114191556Y-68132891D01*
X114354369Y-68215848D01*
X114528155Y-68272315D01*
X114595835Y-68283034D01*
X114708630Y-68300900D01*
X114708635Y-68300900D01*
X114891370Y-68300900D01*
X114991631Y-68285019D01*
X115071845Y-68272315D01*
X115245631Y-68215848D01*
X115408444Y-68132891D01*
X115556276Y-68025485D01*
X115685485Y-67896276D01*
X115792891Y-67748444D01*
X115875848Y-67585631D01*
X115932315Y-67411845D01*
X115949494Y-67303379D01*
X115960900Y-67231370D01*
X115960900Y-67048629D01*
X115935775Y-66890000D01*
X115932315Y-66868155D01*
X115875848Y-66694369D01*
X115792891Y-66531556D01*
X115685485Y-66383724D01*
X115556276Y-66254515D01*
X115408444Y-66147109D01*
X115245631Y-66064152D01*
X115071845Y-66007685D01*
X115071843Y-66007684D01*
X115071841Y-66007684D01*
X114891370Y-65979100D01*
X114891365Y-65979100D01*
X114708635Y-65979100D01*
X114708630Y-65979100D01*
X114528158Y-66007684D01*
X114354366Y-66064153D01*
X114191555Y-66147109D01*
X114043721Y-66254517D01*
X113914517Y-66383721D01*
X113807109Y-66531555D01*
X113724153Y-66694366D01*
X113667684Y-66868158D01*
X113652473Y-66964197D01*
X113622544Y-67027332D01*
X113563232Y-67064263D01*
X113493369Y-67063265D01*
X113435137Y-67024655D01*
X113407527Y-66964197D01*
X113395775Y-66890000D01*
X113392315Y-66868155D01*
X113335848Y-66694369D01*
X113252891Y-66531556D01*
X113145485Y-66383724D01*
X113016276Y-66254515D01*
X112868444Y-66147109D01*
X112705631Y-66064152D01*
X112531845Y-66007685D01*
X112531843Y-66007684D01*
X112531841Y-66007684D01*
X112351370Y-65979100D01*
X112351365Y-65979100D01*
X112168635Y-65979100D01*
X112168630Y-65979100D01*
X111988158Y-66007684D01*
X111814366Y-66064153D01*
X111651555Y-66147109D01*
X111503721Y-66254517D01*
X111374517Y-66383721D01*
X111267109Y-66531555D01*
X111184153Y-66694366D01*
X111127684Y-66868157D01*
X111126873Y-66873281D01*
X111096943Y-66936416D01*
X111037631Y-66973346D01*
X110967768Y-66972348D01*
X110909536Y-66933737D01*
X110881422Y-66869773D01*
X110880400Y-66853882D01*
X110880400Y-66431772D01*
X110880399Y-66431755D01*
X110873998Y-66372227D01*
X110873996Y-66372220D01*
X110823754Y-66237513D01*
X110823750Y-66237506D01*
X110737590Y-66122412D01*
X110737587Y-66122409D01*
X110622493Y-66036249D01*
X110622486Y-66036245D01*
X110487779Y-65986003D01*
X110487772Y-65986001D01*
X110428244Y-65979600D01*
X109970000Y-65979600D01*
X109970000Y-66815263D01*
X109969536Y-66814799D01*
X109876865Y-66761295D01*
X109773504Y-66733600D01*
X109666496Y-66733600D01*
X109563135Y-66761295D01*
X109470464Y-66814799D01*
X109470000Y-66815263D01*
X109470000Y-65979600D01*
X109011755Y-65979600D01*
X108952227Y-65986001D01*
X108952220Y-65986003D01*
X108817513Y-66036245D01*
X108817506Y-66036249D01*
X108702412Y-66122409D01*
X108702409Y-66122412D01*
X108616249Y-66237506D01*
X108616245Y-66237513D01*
X108566003Y-66372220D01*
X108566001Y-66372227D01*
X108559600Y-66431755D01*
X86800000Y-66431755D01*
X86800000Y-65445513D01*
X121659500Y-65445513D01*
X121659500Y-65634486D01*
X121689059Y-65821118D01*
X121747454Y-66000836D01*
X121833240Y-66169199D01*
X121944310Y-66322073D01*
X122077927Y-66455690D01*
X122230801Y-66566760D01*
X122310347Y-66607290D01*
X122399163Y-66652545D01*
X122399165Y-66652545D01*
X122399168Y-66652547D01*
X122495497Y-66683846D01*
X122578881Y-66710940D01*
X122765514Y-66740500D01*
X122765519Y-66740500D01*
X122954486Y-66740500D01*
X123141118Y-66710940D01*
X123320832Y-66652547D01*
X123489199Y-66566760D01*
X123642073Y-66455690D01*
X123775690Y-66322073D01*
X123886760Y-66169199D01*
X123972547Y-66000832D01*
X124030940Y-65821118D01*
X124031035Y-65820519D01*
X124060500Y-65634486D01*
X124060500Y-65445513D01*
X124030940Y-65258881D01*
X123972545Y-65079163D01*
X123908731Y-64953922D01*
X123886760Y-64910801D01*
X123775690Y-64757927D01*
X123642073Y-64624310D01*
X123489199Y-64513240D01*
X123480079Y-64508593D01*
X123320836Y-64427454D01*
X123141118Y-64369059D01*
X122954486Y-64339500D01*
X122954481Y-64339500D01*
X122765519Y-64339500D01*
X122765514Y-64339500D01*
X122578881Y-64369059D01*
X122399163Y-64427454D01*
X122230800Y-64513240D01*
X122151300Y-64571001D01*
X122077927Y-64624310D01*
X122077925Y-64624312D01*
X122077924Y-64624312D01*
X121944312Y-64757924D01*
X121944312Y-64757925D01*
X121944310Y-64757927D01*
X121896610Y-64823579D01*
X121833240Y-64910800D01*
X121747454Y-65079163D01*
X121689059Y-65258881D01*
X121659500Y-65445513D01*
X86800000Y-65445513D01*
X86800000Y-57264000D01*
X86819685Y-57196961D01*
X86872489Y-57151206D01*
X86924000Y-57140000D01*
X200076000Y-57140000D01*
X200143039Y-57159685D01*
G37*
%TD.AperFunction*%
%TD*%
M02*
