M48
; DRILL file {KiCad 9.0.4} date 2025-12-16T09:51:33-0700
; FORMAT={-:-/ absolute / metric / decimal}
; #@! TF.CreationDate,2025-12-16T09:51:33-07:00
; #@! TF.GenerationSoftware,Kicad,Pcbnew,9.0.4
; #@! TF.FileFunction,Plated,1,2,PTH
FMAT,2
METRIC
; #@! TA.AperFunction,Plated,PTH,ViaDrill
T1C0.300
; #@! TA.AperFunction,Plated,PTH,ComponentDrill
T2C0.500
; #@! TA.AperFunction,Plated,PTH,ComponentDrill
T3C0.700
; #@! TA.AperFunction,Plated,PTH,ComponentDrill
T4C0.750
; #@! TA.AperFunction,Plated,PTH,ComponentDrill
T5C0.787
; #@! TA.AperFunction,Plated,PTH,ComponentDrill
T6C0.813
; #@! TA.AperFunction,Plated,PTH,ComponentDrill
T7C1.524
%
G90
G05
T1
X137.2Y-89.54
X147.6Y-68.54
T2
X92.4Y-88.74
X92.4Y-89.74
X92.4Y-90.74
X92.4Y-91.74
X92.4Y-92.74
X92.4Y-93.74
T3
X99.06Y-99.14
X104.14Y-99.14
X109.86Y-89.74
X110.86Y-95.74
X114.94Y-89.74
X115.94Y-95.74
X119.46Y-93.34
X122.86Y-65.54
X122.86Y-70.74
X124.54Y-93.34
X127.94Y-65.54
X127.94Y-70.74
X128.52Y-91.34
X133.6Y-91.34
X143.12Y-78.74
X148.2Y-78.74
X151.26Y-105.94
X156.34Y-105.94
X175.06Y-77.54
X176.2Y-65.0
X176.2Y-70.08
X180.14Y-77.54
T4
X148.75Y-83.94
X151.25Y-83.94
X157.5Y-83.74
X160.0Y-83.74
X167.5Y-83.74
X170.0Y-83.74
T5
X122.1Y-79.54
X122.1Y-87.16
X124.64Y-79.54
X124.64Y-87.16
X127.18Y-79.54
X127.18Y-87.16
X129.72Y-79.54
X129.72Y-87.16
X132.26Y-79.54
X132.26Y-87.16
X134.8Y-79.54
X134.8Y-87.16
X137.34Y-79.54
X137.34Y-87.16
X153.06Y-67.54
X153.06Y-75.16
X155.6Y-67.54
X155.6Y-75.16
X156.5Y-91.94
X156.5Y-99.56
X158.14Y-67.54
X158.14Y-75.16
X159.04Y-91.94
X159.04Y-99.56
X160.68Y-67.54
X160.68Y-75.16
X161.58Y-91.94
X161.58Y-99.56
X163.22Y-67.54
X163.22Y-75.16
X164.12Y-91.94
X164.12Y-99.56
X165.76Y-67.54
X165.76Y-75.16
X166.66Y-91.94
X166.66Y-99.56
X168.3Y-67.54
X168.3Y-75.16
X169.2Y-91.94
X169.2Y-99.56
X171.74Y-91.94
X171.74Y-99.56
T6
X109.72Y-67.14
X112.26Y-67.14
X114.8Y-67.14
X117.19Y-100.33
X117.19Y-107.95
X119.73Y-100.33
X119.73Y-107.95
X122.27Y-100.33
X122.27Y-107.95
X124.81Y-100.33
X124.81Y-107.95
X134.78Y-63.34
X134.78Y-70.96
X136.19Y-99.93
X136.19Y-107.55
X137.32Y-63.34
X137.32Y-70.96
X138.73Y-99.93
X138.73Y-107.55
X139.86Y-63.34
X139.86Y-70.96
X141.27Y-99.93
X141.27Y-107.55
X142.4Y-63.34
X142.4Y-70.96
X143.81Y-99.93
X143.81Y-107.55
X175.5Y-83.54
X180.5Y-83.54
X184.273Y-94.705
X184.46Y-105.74
X186.813Y-94.705
X187.0Y-105.74
X187.92Y-82.54
X189.353Y-94.705
X189.54Y-105.74
X190.46Y-82.54
X193.0Y-82.54
T7
X185.0Y-71.94
X187.55Y-71.94
X190.1Y-71.94
M30
