%TF.GenerationSoftware,KiCad,Pcbnew,9.0.4*%
%TF.CreationDate,2025-12-16T09:54:38-07:00*%
%TF.ProjectId,BSPD kicad project,42535044-206b-4696-9361-642070726f6a,rev?*%
%TF.SameCoordinates,Original*%
%TF.FileFunction,Copper,L1,Top*%
%TF.FilePolarity,Positive*%
%FSLAX46Y46*%
G04 Gerber Fmt 4.6, Leading zero omitted, Abs format (unit mm)*
G04 Created by KiCad (PCBNEW 9.0.4) date 2025-12-16 09:54:38*
%MOMM*%
%LPD*%
G01*
G04 APERTURE LIST*
%TA.AperFunction,Conductor*%
%ADD10C,0.200000*%
%TD*%
%ADD11C,0.158750*%
%TA.AperFunction,NonConductor*%
%ADD12C,0.158750*%
%TD*%
%TA.AperFunction,ComponentPad*%
%ADD13C,1.320800*%
%TD*%
%TA.AperFunction,ComponentPad*%
%ADD14R,1.320800X1.320800*%
%TD*%
%TA.AperFunction,ComponentPad*%
%ADD15R,1.524000X1.524000*%
%TD*%
%TA.AperFunction,ComponentPad*%
%ADD16C,1.524000*%
%TD*%
%TA.AperFunction,ComponentPad*%
%ADD17R,0.850000X0.850000*%
%TD*%
%TA.AperFunction,ComponentPad*%
%ADD18C,0.850000*%
%TD*%
%TA.AperFunction,ComponentPad*%
%ADD19C,1.150000*%
%TD*%
%TA.AperFunction,ComponentPad*%
%ADD20C,1.400000*%
%TD*%
%TA.AperFunction,ComponentPad*%
%ADD21R,2.032000X2.032000*%
%TD*%
%TA.AperFunction,ComponentPad*%
%ADD22C,2.032000*%
%TD*%
%TA.AperFunction,ComponentPad*%
%ADD23R,1.295400X1.295400*%
%TD*%
%TA.AperFunction,ComponentPad*%
%ADD24C,1.295400*%
%TD*%
%TA.AperFunction,ViaPad*%
%ADD25C,0.600000*%
%TD*%
G04 APERTURE END LIST*
%TO.N,/12V*%
D10*
X86800000Y-57140000D02*
X200200000Y-57140000D01*
X200200000Y-112740000D01*
X86800000Y-112740000D01*
X86800000Y-57140000D01*
D11*
D12*
X124155714Y-118518795D02*
X124034762Y-118579271D01*
X124034762Y-118579271D02*
X123792857Y-118579271D01*
X123792857Y-118579271D02*
X123671905Y-118518795D01*
X123671905Y-118518795D02*
X123611428Y-118458318D01*
X123611428Y-118458318D02*
X123550952Y-118337366D01*
X123550952Y-118337366D02*
X123550952Y-117974509D01*
X123550952Y-117974509D02*
X123611428Y-117853556D01*
X123611428Y-117853556D02*
X123671905Y-117793080D01*
X123671905Y-117793080D02*
X123792857Y-117732604D01*
X123792857Y-117732604D02*
X124034762Y-117732604D01*
X124034762Y-117732604D02*
X124155714Y-117793080D01*
X125244285Y-118579271D02*
X125244285Y-117914033D01*
X125244285Y-117914033D02*
X125183809Y-117793080D01*
X125183809Y-117793080D02*
X125062857Y-117732604D01*
X125062857Y-117732604D02*
X124820952Y-117732604D01*
X124820952Y-117732604D02*
X124699999Y-117793080D01*
X125244285Y-118518795D02*
X125123333Y-118579271D01*
X125123333Y-118579271D02*
X124820952Y-118579271D01*
X124820952Y-118579271D02*
X124699999Y-118518795D01*
X124699999Y-118518795D02*
X124639523Y-118397842D01*
X124639523Y-118397842D02*
X124639523Y-118276890D01*
X124639523Y-118276890D02*
X124699999Y-118155937D01*
X124699999Y-118155937D02*
X124820952Y-118095461D01*
X124820952Y-118095461D02*
X125123333Y-118095461D01*
X125123333Y-118095461D02*
X125244285Y-118034985D01*
X125849047Y-118579271D02*
X125849047Y-117732604D01*
X125849047Y-117974509D02*
X125909524Y-117853556D01*
X125909524Y-117853556D02*
X125970000Y-117793080D01*
X125970000Y-117793080D02*
X126090952Y-117732604D01*
X126090952Y-117732604D02*
X126211905Y-117732604D01*
X126574761Y-118518795D02*
X126695714Y-118579271D01*
X126695714Y-118579271D02*
X126937618Y-118579271D01*
X126937618Y-118579271D02*
X127058571Y-118518795D01*
X127058571Y-118518795D02*
X127119047Y-118397842D01*
X127119047Y-118397842D02*
X127119047Y-118337366D01*
X127119047Y-118337366D02*
X127058571Y-118216414D01*
X127058571Y-118216414D02*
X126937618Y-118155937D01*
X126937618Y-118155937D02*
X126756190Y-118155937D01*
X126756190Y-118155937D02*
X126635237Y-118095461D01*
X126635237Y-118095461D02*
X126574761Y-117974509D01*
X126574761Y-117974509D02*
X126574761Y-117914033D01*
X126574761Y-117914033D02*
X126635237Y-117793080D01*
X126635237Y-117793080D02*
X126756190Y-117732604D01*
X126756190Y-117732604D02*
X126937618Y-117732604D01*
X126937618Y-117732604D02*
X127058571Y-117793080D01*
X127844761Y-118579271D02*
X127723809Y-118518795D01*
X127723809Y-118518795D02*
X127663332Y-118458318D01*
X127663332Y-118458318D02*
X127602856Y-118337366D01*
X127602856Y-118337366D02*
X127602856Y-117974509D01*
X127602856Y-117974509D02*
X127663332Y-117853556D01*
X127663332Y-117853556D02*
X127723809Y-117793080D01*
X127723809Y-117793080D02*
X127844761Y-117732604D01*
X127844761Y-117732604D02*
X128026190Y-117732604D01*
X128026190Y-117732604D02*
X128147142Y-117793080D01*
X128147142Y-117793080D02*
X128207618Y-117853556D01*
X128207618Y-117853556D02*
X128268094Y-117974509D01*
X128268094Y-117974509D02*
X128268094Y-118337366D01*
X128268094Y-118337366D02*
X128207618Y-118458318D01*
X128207618Y-118458318D02*
X128147142Y-118518795D01*
X128147142Y-118518795D02*
X128026190Y-118579271D01*
X128026190Y-118579271D02*
X127844761Y-118579271D01*
X128812380Y-117732604D02*
X128812380Y-118579271D01*
X128812380Y-117853556D02*
X128872857Y-117793080D01*
X128872857Y-117793080D02*
X128993809Y-117732604D01*
X128993809Y-117732604D02*
X129175238Y-117732604D01*
X129175238Y-117732604D02*
X129296190Y-117793080D01*
X129296190Y-117793080D02*
X129356666Y-117914033D01*
X129356666Y-117914033D02*
X129356666Y-118579271D01*
X130505714Y-118518795D02*
X130384762Y-118579271D01*
X130384762Y-118579271D02*
X130142857Y-118579271D01*
X130142857Y-118579271D02*
X130021905Y-118518795D01*
X130021905Y-118518795D02*
X129961428Y-118458318D01*
X129961428Y-118458318D02*
X129900952Y-118337366D01*
X129900952Y-118337366D02*
X129900952Y-117974509D01*
X129900952Y-117974509D02*
X129961428Y-117853556D01*
X129961428Y-117853556D02*
X130021905Y-117793080D01*
X130021905Y-117793080D02*
X130142857Y-117732604D01*
X130142857Y-117732604D02*
X130384762Y-117732604D01*
X130384762Y-117732604D02*
X130505714Y-117793080D01*
X131231428Y-118579271D02*
X131110476Y-118518795D01*
X131110476Y-118518795D02*
X131049999Y-118458318D01*
X131049999Y-118458318D02*
X130989523Y-118337366D01*
X130989523Y-118337366D02*
X130989523Y-117974509D01*
X130989523Y-117974509D02*
X131049999Y-117853556D01*
X131049999Y-117853556D02*
X131110476Y-117793080D01*
X131110476Y-117793080D02*
X131231428Y-117732604D01*
X131231428Y-117732604D02*
X131412857Y-117732604D01*
X131412857Y-117732604D02*
X131533809Y-117793080D01*
X131533809Y-117793080D02*
X131594285Y-117853556D01*
X131594285Y-117853556D02*
X131654761Y-117974509D01*
X131654761Y-117974509D02*
X131654761Y-118337366D01*
X131654761Y-118337366D02*
X131594285Y-118458318D01*
X131594285Y-118458318D02*
X131533809Y-118518795D01*
X131533809Y-118518795D02*
X131412857Y-118579271D01*
X131412857Y-118579271D02*
X131231428Y-118579271D01*
X132380476Y-118579271D02*
X132259524Y-118518795D01*
X132259524Y-118518795D02*
X132199047Y-118397842D01*
X132199047Y-118397842D02*
X132199047Y-117309271D01*
X133348095Y-118518795D02*
X133227143Y-118579271D01*
X133227143Y-118579271D02*
X132985238Y-118579271D01*
X132985238Y-118579271D02*
X132864285Y-118518795D01*
X132864285Y-118518795D02*
X132803809Y-118397842D01*
X132803809Y-118397842D02*
X132803809Y-117914033D01*
X132803809Y-117914033D02*
X132864285Y-117793080D01*
X132864285Y-117793080D02*
X132985238Y-117732604D01*
X132985238Y-117732604D02*
X133227143Y-117732604D01*
X133227143Y-117732604D02*
X133348095Y-117793080D01*
X133348095Y-117793080D02*
X133408571Y-117914033D01*
X133408571Y-117914033D02*
X133408571Y-118034985D01*
X133408571Y-118034985D02*
X132803809Y-118155937D01*
X133952856Y-118579271D02*
X133952856Y-117732604D01*
X133952856Y-117853556D02*
X134013333Y-117793080D01*
X134013333Y-117793080D02*
X134134285Y-117732604D01*
X134134285Y-117732604D02*
X134315714Y-117732604D01*
X134315714Y-117732604D02*
X134436666Y-117793080D01*
X134436666Y-117793080D02*
X134497142Y-117914033D01*
X134497142Y-117914033D02*
X134497142Y-118579271D01*
X134497142Y-117914033D02*
X134557618Y-117793080D01*
X134557618Y-117793080D02*
X134678571Y-117732604D01*
X134678571Y-117732604D02*
X134859999Y-117732604D01*
X134859999Y-117732604D02*
X134980952Y-117793080D01*
X134980952Y-117793080D02*
X135041428Y-117914033D01*
X135041428Y-117914033D02*
X135041428Y-118579271D01*
X136190475Y-118579271D02*
X136190475Y-117914033D01*
X136190475Y-117914033D02*
X136129999Y-117793080D01*
X136129999Y-117793080D02*
X136009047Y-117732604D01*
X136009047Y-117732604D02*
X135767142Y-117732604D01*
X135767142Y-117732604D02*
X135646189Y-117793080D01*
X136190475Y-118518795D02*
X136069523Y-118579271D01*
X136069523Y-118579271D02*
X135767142Y-118579271D01*
X135767142Y-118579271D02*
X135646189Y-118518795D01*
X135646189Y-118518795D02*
X135585713Y-118397842D01*
X135585713Y-118397842D02*
X135585713Y-118276890D01*
X135585713Y-118276890D02*
X135646189Y-118155937D01*
X135646189Y-118155937D02*
X135767142Y-118095461D01*
X135767142Y-118095461D02*
X136069523Y-118095461D01*
X136069523Y-118095461D02*
X136190475Y-118034985D01*
X136795237Y-117732604D02*
X136795237Y-118579271D01*
X136795237Y-117853556D02*
X136855714Y-117793080D01*
X136855714Y-117793080D02*
X136976666Y-117732604D01*
X136976666Y-117732604D02*
X137158095Y-117732604D01*
X137158095Y-117732604D02*
X137279047Y-117793080D01*
X137279047Y-117793080D02*
X137339523Y-117914033D01*
X137339523Y-117914033D02*
X137339523Y-118579271D01*
X138549047Y-117309271D02*
X137944285Y-117309271D01*
X137944285Y-117309271D02*
X137883809Y-117914033D01*
X137883809Y-117914033D02*
X137944285Y-117853556D01*
X137944285Y-117853556D02*
X138065238Y-117793080D01*
X138065238Y-117793080D02*
X138367619Y-117793080D01*
X138367619Y-117793080D02*
X138488571Y-117853556D01*
X138488571Y-117853556D02*
X138549047Y-117914033D01*
X138549047Y-117914033D02*
X138609524Y-118034985D01*
X138609524Y-118034985D02*
X138609524Y-118337366D01*
X138609524Y-118337366D02*
X138549047Y-118458318D01*
X138549047Y-118458318D02*
X138488571Y-118518795D01*
X138488571Y-118518795D02*
X138367619Y-118579271D01*
X138367619Y-118579271D02*
X138065238Y-118579271D01*
X138065238Y-118579271D02*
X137944285Y-118518795D01*
X137944285Y-118518795D02*
X137883809Y-118458318D01*
X139819048Y-118579271D02*
X139093333Y-118579271D01*
X139456190Y-118579271D02*
X139456190Y-117309271D01*
X139456190Y-117309271D02*
X139335238Y-117490699D01*
X139335238Y-117490699D02*
X139214286Y-117611652D01*
X139214286Y-117611652D02*
X139093333Y-117672128D01*
X141149524Y-117974509D02*
X141089048Y-117914033D01*
X141089048Y-117914033D02*
X140968095Y-117853556D01*
X140968095Y-117853556D02*
X140847143Y-117853556D01*
X140847143Y-117853556D02*
X140726191Y-117914033D01*
X140726191Y-117914033D02*
X140665714Y-117974509D01*
X140665714Y-117974509D02*
X140605238Y-118095461D01*
X140605238Y-118095461D02*
X140605238Y-118216414D01*
X140605238Y-118216414D02*
X140665714Y-118337366D01*
X140665714Y-118337366D02*
X140726191Y-118397842D01*
X140726191Y-118397842D02*
X140847143Y-118458318D01*
X140847143Y-118458318D02*
X140968095Y-118458318D01*
X140968095Y-118458318D02*
X141089048Y-118397842D01*
X141089048Y-118397842D02*
X141149524Y-118337366D01*
X141149524Y-117853556D02*
X141149524Y-118337366D01*
X141149524Y-118337366D02*
X141210000Y-118397842D01*
X141210000Y-118397842D02*
X141270476Y-118397842D01*
X141270476Y-118397842D02*
X141391429Y-118337366D01*
X141391429Y-118337366D02*
X141451905Y-118216414D01*
X141451905Y-118216414D02*
X141451905Y-117914033D01*
X141451905Y-117914033D02*
X141330953Y-117732604D01*
X141330953Y-117732604D02*
X141149524Y-117611652D01*
X141149524Y-117611652D02*
X140907619Y-117551175D01*
X140907619Y-117551175D02*
X140665714Y-117611652D01*
X140665714Y-117611652D02*
X140484286Y-117732604D01*
X140484286Y-117732604D02*
X140363333Y-117914033D01*
X140363333Y-117914033D02*
X140302857Y-118155937D01*
X140302857Y-118155937D02*
X140363333Y-118397842D01*
X140363333Y-118397842D02*
X140484286Y-118579271D01*
X140484286Y-118579271D02*
X140665714Y-118700223D01*
X140665714Y-118700223D02*
X140907619Y-118760699D01*
X140907619Y-118760699D02*
X141149524Y-118700223D01*
X141149524Y-118700223D02*
X141330953Y-118579271D01*
X142540476Y-117732604D02*
X142540476Y-118760699D01*
X142540476Y-118760699D02*
X142480000Y-118881652D01*
X142480000Y-118881652D02*
X142419524Y-118942128D01*
X142419524Y-118942128D02*
X142298571Y-119002604D01*
X142298571Y-119002604D02*
X142117143Y-119002604D01*
X142117143Y-119002604D02*
X141996190Y-118942128D01*
X142540476Y-118518795D02*
X142419524Y-118579271D01*
X142419524Y-118579271D02*
X142177619Y-118579271D01*
X142177619Y-118579271D02*
X142056667Y-118518795D01*
X142056667Y-118518795D02*
X141996190Y-118458318D01*
X141996190Y-118458318D02*
X141935714Y-118337366D01*
X141935714Y-118337366D02*
X141935714Y-117974509D01*
X141935714Y-117974509D02*
X141996190Y-117853556D01*
X141996190Y-117853556D02*
X142056667Y-117793080D01*
X142056667Y-117793080D02*
X142177619Y-117732604D01*
X142177619Y-117732604D02*
X142419524Y-117732604D01*
X142419524Y-117732604D02*
X142540476Y-117793080D01*
X143145238Y-118579271D02*
X143145238Y-117732604D01*
X143145238Y-117853556D02*
X143205715Y-117793080D01*
X143205715Y-117793080D02*
X143326667Y-117732604D01*
X143326667Y-117732604D02*
X143508096Y-117732604D01*
X143508096Y-117732604D02*
X143629048Y-117793080D01*
X143629048Y-117793080D02*
X143689524Y-117914033D01*
X143689524Y-117914033D02*
X143689524Y-118579271D01*
X143689524Y-117914033D02*
X143750000Y-117793080D01*
X143750000Y-117793080D02*
X143870953Y-117732604D01*
X143870953Y-117732604D02*
X144052381Y-117732604D01*
X144052381Y-117732604D02*
X144173334Y-117793080D01*
X144173334Y-117793080D02*
X144233810Y-117914033D01*
X144233810Y-117914033D02*
X144233810Y-118579271D01*
X145382857Y-118579271D02*
X145382857Y-117914033D01*
X145382857Y-117914033D02*
X145322381Y-117793080D01*
X145322381Y-117793080D02*
X145201429Y-117732604D01*
X145201429Y-117732604D02*
X144959524Y-117732604D01*
X144959524Y-117732604D02*
X144838571Y-117793080D01*
X145382857Y-118518795D02*
X145261905Y-118579271D01*
X145261905Y-118579271D02*
X144959524Y-118579271D01*
X144959524Y-118579271D02*
X144838571Y-118518795D01*
X144838571Y-118518795D02*
X144778095Y-118397842D01*
X144778095Y-118397842D02*
X144778095Y-118276890D01*
X144778095Y-118276890D02*
X144838571Y-118155937D01*
X144838571Y-118155937D02*
X144959524Y-118095461D01*
X144959524Y-118095461D02*
X145261905Y-118095461D01*
X145261905Y-118095461D02*
X145382857Y-118034985D01*
X145987619Y-118579271D02*
X145987619Y-117732604D01*
X145987619Y-117309271D02*
X145927143Y-117369747D01*
X145927143Y-117369747D02*
X145987619Y-117430223D01*
X145987619Y-117430223D02*
X146048096Y-117369747D01*
X146048096Y-117369747D02*
X145987619Y-117309271D01*
X145987619Y-117309271D02*
X145987619Y-117430223D01*
X146773810Y-118579271D02*
X146652858Y-118518795D01*
X146652858Y-118518795D02*
X146592381Y-118397842D01*
X146592381Y-118397842D02*
X146592381Y-117309271D01*
X147257619Y-118458318D02*
X147318096Y-118518795D01*
X147318096Y-118518795D02*
X147257619Y-118579271D01*
X147257619Y-118579271D02*
X147197143Y-118518795D01*
X147197143Y-118518795D02*
X147257619Y-118458318D01*
X147257619Y-118458318D02*
X147257619Y-118579271D01*
X148406667Y-118518795D02*
X148285715Y-118579271D01*
X148285715Y-118579271D02*
X148043810Y-118579271D01*
X148043810Y-118579271D02*
X147922858Y-118518795D01*
X147922858Y-118518795D02*
X147862381Y-118458318D01*
X147862381Y-118458318D02*
X147801905Y-118337366D01*
X147801905Y-118337366D02*
X147801905Y-117974509D01*
X147801905Y-117974509D02*
X147862381Y-117853556D01*
X147862381Y-117853556D02*
X147922858Y-117793080D01*
X147922858Y-117793080D02*
X148043810Y-117732604D01*
X148043810Y-117732604D02*
X148285715Y-117732604D01*
X148285715Y-117732604D02*
X148406667Y-117793080D01*
X149132381Y-118579271D02*
X149011429Y-118518795D01*
X149011429Y-118518795D02*
X148950952Y-118458318D01*
X148950952Y-118458318D02*
X148890476Y-118337366D01*
X148890476Y-118337366D02*
X148890476Y-117974509D01*
X148890476Y-117974509D02*
X148950952Y-117853556D01*
X148950952Y-117853556D02*
X149011429Y-117793080D01*
X149011429Y-117793080D02*
X149132381Y-117732604D01*
X149132381Y-117732604D02*
X149313810Y-117732604D01*
X149313810Y-117732604D02*
X149434762Y-117793080D01*
X149434762Y-117793080D02*
X149495238Y-117853556D01*
X149495238Y-117853556D02*
X149555714Y-117974509D01*
X149555714Y-117974509D02*
X149555714Y-118337366D01*
X149555714Y-118337366D02*
X149495238Y-118458318D01*
X149495238Y-118458318D02*
X149434762Y-118518795D01*
X149434762Y-118518795D02*
X149313810Y-118579271D01*
X149313810Y-118579271D02*
X149132381Y-118579271D01*
X150100000Y-118579271D02*
X150100000Y-117732604D01*
X150100000Y-117853556D02*
X150160477Y-117793080D01*
X150160477Y-117793080D02*
X150281429Y-117732604D01*
X150281429Y-117732604D02*
X150462858Y-117732604D01*
X150462858Y-117732604D02*
X150583810Y-117793080D01*
X150583810Y-117793080D02*
X150644286Y-117914033D01*
X150644286Y-117914033D02*
X150644286Y-118579271D01*
X150644286Y-117914033D02*
X150704762Y-117793080D01*
X150704762Y-117793080D02*
X150825715Y-117732604D01*
X150825715Y-117732604D02*
X151007143Y-117732604D01*
X151007143Y-117732604D02*
X151128096Y-117793080D01*
X151128096Y-117793080D02*
X151188572Y-117914033D01*
X151188572Y-117914033D02*
X151188572Y-118579271D01*
%TD*%
D13*
%TO.P,P4,1,1*%
%TO.N,/6V*%
X189540000Y-105740000D03*
%TO.P,P4,2,2*%
%TO.N,/0.1V*%
X187000000Y-105740000D03*
D14*
%TO.P,P4,3,3*%
%TO.N,GND*%
X184460000Y-105740000D03*
%TD*%
D15*
%TO.P,U2,1,OUT*%
%TO.N,/Current_0.1_output*%
X117190000Y-107950000D03*
D16*
%TO.P,U2,2,IN-*%
%TO.N,Net-(U2A-IN-)*%
X119730000Y-107950000D03*
%TO.P,U2,3,IN+*%
%TO.N,/0.1V*%
X122270000Y-107950000D03*
%TO.P,U2,4*%
%TO.N,N/C*%
X124810000Y-107950000D03*
%TO.P,U2,5,IN+*%
%TO.N,Net-(U2A-IN-)*%
X124810000Y-100330000D03*
%TO.P,U2,6,IN-*%
%TO.N,/9V*%
X122270000Y-100330000D03*
%TO.P,U2,7,OUT*%
%TO.N,/Current_9V_output*%
X119730000Y-100330000D03*
%TO.P,U2,8*%
%TO.N,N/C*%
X117190000Y-100330000D03*
%TD*%
D17*
%TO.P,J1,1*%
%TO.N,/12V*%
X92400000Y-88740000D03*
D18*
%TO.P,J1,2*%
%TO.N,unconnected-(J1-Pad2)*%
X92400000Y-89740000D03*
%TO.P,J1,3*%
%TO.N,/Accumulator Disconnect*%
X92400000Y-90740000D03*
%TO.P,J1,4*%
%TO.N,/Brake Pressure Sensor*%
X92400000Y-91740000D03*
%TO.P,J1,5*%
%TO.N,/Current Sensor*%
X92400000Y-92740000D03*
%TO.P,J1,6*%
%TO.N,GND*%
X92400000Y-93740000D03*
%TD*%
D19*
%TO.P,C2,1*%
%TO.N,GND*%
X167500000Y-83740000D03*
%TO.P,C2,2*%
%TO.N,/6V*%
X170000000Y-83740000D03*
%TD*%
D20*
%TO.P,R6,1*%
%TO.N,/12V*%
X122860000Y-70740000D03*
%TO.P,R6,2*%
%TO.N,/Brake_9V_output*%
X127940000Y-70740000D03*
%TD*%
%TO.P,R2VR1,1*%
%TO.N,GND*%
X176200000Y-65000000D03*
%TO.P,R2VR1,2*%
%TO.N,Net-(U1-ADJ)*%
X176200000Y-70080000D03*
%TD*%
D15*
%TO.P,U4,1,OUT*%
%TO.N,/Brake_9V_output*%
X134780000Y-70960000D03*
D16*
%TO.P,U4,2,IN-*%
%TO.N,/9V*%
X137320000Y-70960000D03*
%TO.P,U4,3,IN+*%
%TO.N,/Brake Pressure Sensor*%
X139860000Y-70960000D03*
%TO.P,U4,4*%
%TO.N,N/C*%
X142400000Y-70960000D03*
%TO.P,U4,5,IN+*%
%TO.N,/0.1V*%
X142400000Y-63340000D03*
%TO.P,U4,6,IN-*%
%TO.N,/Brake Pressure Sensor*%
X139860000Y-63340000D03*
%TO.P,U4,7,OUT*%
%TO.N,/Brake_0.1V_output*%
X137320000Y-63340000D03*
%TO.P,U4,8*%
%TO.N,N/C*%
X134780000Y-63340000D03*
%TD*%
D21*
%TO.P,U1,1,ADJ*%
%TO.N,Net-(U1-ADJ)*%
X185000000Y-71940000D03*
D22*
%TO.P,U1,2,OUTPUT*%
%TO.N,/6V*%
X187550000Y-71940000D03*
%TO.P,U1,3,INPUT*%
%TO.N,/12V*%
X190100000Y-71940000D03*
%TD*%
D20*
%TO.P,R2,1*%
%TO.N,/12V*%
X124540000Y-93340000D03*
%TO.P,R2,2*%
%TO.N,/Current_0.1_output*%
X119460000Y-93340000D03*
%TD*%
%TO.P,R3,1*%
%TO.N,/12V*%
X110860000Y-95740000D03*
%TO.P,R3,2*%
%TO.N,/Current_9V_output*%
X115940000Y-95740000D03*
%TD*%
D14*
%TO.P,C1,1*%
%TO.N,GND*%
X175500005Y-83540000D03*
D13*
%TO.P,C1,2*%
%TO.N,unconnected-(C1-Pad2)*%
X180499995Y-83540000D03*
%TD*%
D20*
%TO.P,R1VR1,1*%
%TO.N,Net-(U1-ADJ)*%
X175060000Y-77540000D03*
%TO.P,R1VR1,2*%
%TO.N,/6V*%
X180140000Y-77540000D03*
%TD*%
%TO.P,R8,1*%
%TO.N,/Current{slash}Brake 0.1V{slash}9V NOR*%
X156340000Y-105940000D03*
%TO.P,R8,2*%
%TO.N,Net-(U7-A)*%
X151260000Y-105940000D03*
%TD*%
D23*
%TO.P,U6,1,A*%
%TO.N,/Current 0.1V OR Current 9V_output*%
X156500000Y-99560000D03*
D24*
%TO.P,U6,2,B*%
%TO.N,/Brake 0.1V OR Brake 9V_output*%
X159040000Y-99560000D03*
%TO.P,U6,3,J*%
%TO.N,/Current{slash}Brake 0.1V{slash}9V NOR*%
X161580000Y-99560000D03*
%TO.P,U6,4,K*%
%TO.N,unconnected-(U6-K-Pad4)*%
X164120000Y-99560000D03*
%TO.P,U6,5,C*%
%TO.N,GND*%
X166660000Y-99560000D03*
%TO.P,U6,6,D*%
X169200000Y-99560000D03*
%TO.P,U6,7,VSS*%
X171740000Y-99560000D03*
%TO.P,U6,8,E*%
X171740000Y-91940000D03*
%TO.P,U6,9,F*%
X169200000Y-91940000D03*
%TO.P,U6,10,L*%
%TO.N,unconnected-(U6-L-Pad10)*%
X166660000Y-91940000D03*
%TO.P,U6,11,M*%
%TO.N,unconnected-(U6-M-Pad11)*%
X164120000Y-91940000D03*
%TO.P,U6,12,G*%
%TO.N,GND*%
X161580000Y-91940000D03*
%TO.P,U6,13,H*%
X159040000Y-91940000D03*
%TO.P,U6,14,VDD*%
%TO.N,/12V*%
X156500000Y-91940000D03*
%TD*%
D20*
%TO.P,R7,1*%
%TO.N,/12V*%
X122860000Y-65540000D03*
%TO.P,R7,2*%
%TO.N,/Brake_0.1V_output*%
X127940000Y-65540000D03*
%TD*%
%TO.P,R5,1*%
%TO.N,/12V*%
X128520000Y-91340000D03*
%TO.P,R5,2*%
%TO.N,/Brake_4V_output*%
X133600000Y-91340000D03*
%TD*%
%TO.P,R1,1*%
%TO.N,/Current Sensor*%
X99060000Y-99140000D03*
%TO.P,R1,2*%
%TO.N,Net-(U2A-IN-)*%
X104140000Y-99140000D03*
%TD*%
D23*
%TO.P,U5,1,B*%
%TO.N,/Current_0.1_output*%
X122100000Y-87160000D03*
D24*
%TO.P,U5,2,A*%
%TO.N,/current_9V_output*%
X124640000Y-87160000D03*
%TO.P,U5,3,J*%
%TO.N,/Current 0.1V OR Current 9V_output*%
X127180000Y-87160000D03*
%TO.P,U5,4,K*%
%TO.N,/Current 5.1V OR Brake 4V_output*%
X129720000Y-87160000D03*
%TO.P,U5,5,D*%
%TO.N,/Current_5.1V_output*%
X132260000Y-87160000D03*
%TO.P,U5,6,C*%
%TO.N,/Brake_4V_output*%
X134800000Y-87160000D03*
%TO.P,U5,7,VSS*%
%TO.N,GND*%
X137340000Y-87160000D03*
%TO.P,U5,8,F*%
%TO.N,/Brake_9V_output*%
X137340000Y-79540000D03*
%TO.P,U5,9,E*%
%TO.N,/Brake_0.1V_output*%
X134800000Y-79540000D03*
%TO.P,U5,10,L*%
%TO.N,/Brake 0.1V OR Brake 9V_output*%
X132260000Y-79540000D03*
%TO.P,U5,11,M*%
%TO.N,unconnected-(U5-M-Pad11)*%
X129720000Y-79540000D03*
%TO.P,U5,12,H*%
%TO.N,GND*%
X127180000Y-79540000D03*
%TO.P,U5,13,G*%
X124640000Y-79540000D03*
%TO.P,U5,14,VDD*%
%TO.N,/12V*%
X122100000Y-79540000D03*
%TD*%
D13*
%TO.P,P1,1,1*%
%TO.N,/12V*%
X114800000Y-67140000D03*
%TO.P,P1,2,2*%
%TO.N,/9V*%
X112260000Y-67140000D03*
D14*
%TO.P,P1,3,3*%
%TO.N,GND*%
X109720000Y-67140000D03*
%TD*%
D19*
%TO.P,C3,1*%
%TO.N,GND*%
X148750000Y-83940000D03*
%TO.P,C3,2*%
%TO.N,Net-(U7-A)*%
X151250000Y-83940000D03*
%TD*%
%TO.P,C4,1*%
%TO.N,GND*%
X157500000Y-83740000D03*
%TO.P,C4,2*%
%TO.N,Net-(U7-B)*%
X160000000Y-83740000D03*
%TD*%
D23*
%TO.P,U7,1,A*%
%TO.N,Net-(U7-A)*%
X153060000Y-75160000D03*
D24*
%TO.P,U7,2,B*%
%TO.N,Net-(U7-B)*%
X155600000Y-75160000D03*
%TO.P,U7,3,J*%
%TO.N,/Accumulator Disconnect*%
X158140000Y-75160000D03*
%TO.P,U7,4,K*%
%TO.N,unconnected-(U7-K-Pad4)*%
X160680000Y-75160000D03*
%TO.P,U7,5,C*%
%TO.N,GND*%
X163220000Y-75160000D03*
%TO.P,U7,6,D*%
X165760000Y-75160000D03*
%TO.P,U7,7,VSS*%
X168300000Y-75160000D03*
%TO.P,U7,8,E*%
X168300000Y-67540000D03*
%TO.P,U7,9,F*%
X165760000Y-67540000D03*
%TO.P,U7,10,L*%
%TO.N,unconnected-(U7-L-Pad10)*%
X163220000Y-67540000D03*
%TO.P,U7,11,M*%
%TO.N,unconnected-(U7-M-Pad11)*%
X160680000Y-67540000D03*
%TO.P,U7,12,G*%
%TO.N,GND*%
X158140000Y-67540000D03*
%TO.P,U7,13,H*%
X155600000Y-67540000D03*
%TO.P,U7,14,VDD*%
%TO.N,/12V*%
X153060000Y-67540000D03*
%TD*%
D13*
%TO.P,P2,1,1*%
%TO.N,/6V*%
X193000000Y-82540000D03*
%TO.P,P2,2,2*%
%TO.N,/4V*%
X190460000Y-82540000D03*
D14*
%TO.P,P2,3,3*%
%TO.N,GND*%
X187920000Y-82540000D03*
%TD*%
D20*
%TO.P,R9,1*%
%TO.N,/Current 5.1V OR Brake 4V_output*%
X143120000Y-78740000D03*
%TO.P,R9,2*%
%TO.N,Net-(U7-B)*%
X148200000Y-78740000D03*
%TD*%
D15*
%TO.P,U3,1,OUT*%
%TO.N,/Current_5.1V_output*%
X136190000Y-107550000D03*
D16*
%TO.P,U3,2,IN-*%
%TO.N,Net-(U2A-IN-)*%
X138730000Y-107550000D03*
%TO.P,U3,3,IN+*%
%TO.N,/5.1V*%
X141270000Y-107550000D03*
%TO.P,U3,4*%
%TO.N,N/C*%
X143810000Y-107550000D03*
%TO.P,U3,5,IN+*%
%TO.N,/Brake Pressure Sensor*%
X143810000Y-99930000D03*
%TO.P,U3,6,IN-*%
%TO.N,/4V*%
X141270000Y-99930000D03*
%TO.P,U3,7,OUT*%
%TO.N,/Brake_4V_output*%
X138730000Y-99930000D03*
%TO.P,U3,8*%
%TO.N,N/C*%
X136190000Y-99930000D03*
%TD*%
D20*
%TO.P,R4,1*%
%TO.N,/12V*%
X109860000Y-89740000D03*
%TO.P,R4,2*%
%TO.N,/Current_5.1V_output*%
X114940000Y-89740000D03*
%TD*%
D13*
%TO.P,P3,1,1*%
%TO.N,/6V*%
X189352700Y-94705000D03*
%TO.P,P3,2,2*%
%TO.N,/5.1V*%
X186812700Y-94705000D03*
D14*
%TO.P,P3,3,3*%
%TO.N,GND*%
X184272700Y-94705000D03*
%TD*%
D25*
%TO.N,/0.1V*%
X147600000Y-68540000D03*
%TO.N,/Brake_4V_output*%
X137200000Y-89540000D03*
%TD*%
D10*
%TO.N,/6V*%
X180140000Y-77540000D02*
X181950000Y-77540000D01*
X189540000Y-94527300D02*
X189540000Y-105740000D01*
X187550000Y-77090000D02*
X193000000Y-82540000D01*
X170000000Y-83740000D02*
X170813172Y-83740000D01*
X193000000Y-82540000D02*
X189352700Y-86187300D01*
X189352700Y-94340000D02*
X189540000Y-94527300D01*
X177013172Y-77540000D02*
X180140000Y-77540000D01*
X181950000Y-77540000D02*
X187550000Y-71940000D01*
X189352700Y-86187300D02*
X189352700Y-94340000D01*
X170813172Y-83740000D02*
X177013172Y-77540000D01*
X187550000Y-71940000D02*
X187550000Y-77090000D01*
X189352700Y-94705000D02*
X189352700Y-94340000D01*
%TO.N,Net-(U7-A)*%
X151250000Y-83940000D02*
X151250000Y-83290000D01*
X153060000Y-81480000D02*
X153060000Y-75160000D01*
X151250000Y-83290000D02*
X153060000Y-81480000D01*
%TO.N,/Current Sensor*%
X92400000Y-92740000D02*
X92660000Y-92740000D01*
X92660000Y-92740000D02*
X99060000Y-99140000D01*
%TO.N,/Accumulator Disconnect*%
X92373280Y-90740000D02*
X91674000Y-91439280D01*
X107975280Y-110342000D02*
X139981310Y-110342000D01*
X139981310Y-110342000D02*
X142333000Y-107990310D01*
X142333000Y-107990310D02*
X142333000Y-104765335D01*
X91674000Y-94040720D02*
X107975280Y-110342000D01*
X92400000Y-90740000D02*
X92373280Y-90740000D01*
X160876000Y-77896000D02*
X158140000Y-75160000D01*
X91674000Y-91439280D02*
X91674000Y-94040720D01*
X142333000Y-104765335D02*
X160876000Y-86222335D01*
X160876000Y-86222335D02*
X160876000Y-77896000D01*
%TO.N,/12V*%
X122100000Y-74440000D02*
X122100000Y-79540000D01*
X114800000Y-67140000D02*
X122100000Y-74440000D01*
%TO.N,/Brake Pressure Sensor*%
X143810000Y-99930000D02*
X143810000Y-74910000D01*
X140207000Y-103533000D02*
X143810000Y-99930000D01*
X139800000Y-63340000D02*
X139860000Y-63400000D01*
X139860000Y-63340000D02*
X139800000Y-63340000D01*
X140207000Y-107576310D02*
X140207000Y-103533000D01*
X139860000Y-63400000D02*
X139860000Y-70960000D01*
X112958272Y-109941000D02*
X137842310Y-109941000D01*
X143810000Y-74910000D02*
X139860000Y-70960000D01*
X137842310Y-109941000D02*
X140207000Y-107576310D01*
X94757272Y-91740000D02*
X112958272Y-109941000D01*
X92400000Y-91740000D02*
X94757272Y-91740000D01*
%TO.N,/9V*%
X120638600Y-66178600D02*
X131370000Y-76910000D01*
X131370000Y-76910000D02*
X137320000Y-70960000D01*
X112260000Y-67140000D02*
X113221400Y-66178600D01*
X131311300Y-91288700D02*
X131311300Y-76968700D01*
X122270000Y-100330000D02*
X131311300Y-91288700D01*
X131311300Y-76968700D02*
X131370000Y-76910000D01*
X113221400Y-66178600D02*
X120638600Y-66178600D01*
%TO.N,/0.1V*%
X152810365Y-68488700D02*
X147548700Y-68488700D01*
X161277000Y-77729900D02*
X159088700Y-75541600D01*
X159088700Y-75541600D02*
X159088700Y-74767035D01*
X159088700Y-74767035D02*
X152810365Y-68488700D01*
X147548700Y-68488700D02*
X142400000Y-63340000D01*
X187000000Y-105740000D02*
X161277000Y-80017000D01*
X161277000Y-80017000D02*
X161277000Y-77729900D01*
%TO.N,Net-(U2A-IN-)*%
X134020000Y-109540000D02*
X136740000Y-109540000D01*
X110920000Y-99140000D02*
X104140000Y-99140000D01*
X124810000Y-100330000D02*
X119730000Y-105410000D01*
X124810000Y-100330000D02*
X134020000Y-109540000D01*
X119730000Y-107950000D02*
X110920000Y-99140000D01*
X136740000Y-109540000D02*
X138730000Y-107550000D01*
X119730000Y-105410000D02*
X119730000Y-107950000D01*
%TO.N,Net-(U1-ADJ)*%
X180800000Y-71940000D02*
X180660000Y-71940000D01*
X180660000Y-71940000D02*
X175060000Y-77540000D01*
X176200000Y-70080000D02*
X178060000Y-71940000D01*
X178060000Y-71940000D02*
X180800000Y-71940000D01*
X185000000Y-71940000D02*
X180800000Y-71940000D01*
%TO.N,/Current_0.1_output*%
X119400000Y-93340000D02*
X119400000Y-92940000D01*
X117190000Y-107950000D02*
X111534372Y-107950000D01*
X119600000Y-93340000D02*
X119800000Y-93540000D01*
X119460000Y-93340000D02*
X119600000Y-93340000D01*
X103139000Y-98725372D02*
X114704372Y-87160000D01*
X103139000Y-99554628D02*
X103139000Y-98725372D01*
X119400000Y-92940000D02*
X122100000Y-90240000D01*
X111534372Y-107950000D02*
X103139000Y-99554628D01*
X114704372Y-87160000D02*
X122100000Y-87160000D01*
X119460000Y-93340000D02*
X119400000Y-93340000D01*
X122100000Y-90240000D02*
X122100000Y-87160000D01*
%TO.N,/Current_9V_output*%
X119730000Y-100330000D02*
X119730000Y-99530000D01*
X119730000Y-99530000D02*
X115940000Y-95740000D01*
%TO.N,/Current_5.1V_output*%
X132260000Y-87160000D02*
X132260000Y-103620000D01*
X132260000Y-103620000D02*
X136190000Y-107550000D01*
%TO.N,/Brake_4V_output*%
X138730000Y-91090000D02*
X138730000Y-99930000D01*
X134800000Y-87160000D02*
X138730000Y-91090000D01*
%TD*%
%TA.AperFunction,Conductor*%
%TO.N,/12V*%
G36*
X200143039Y-57159685D02*
G01*
X200188794Y-57212489D01*
X200200000Y-57264000D01*
X200200000Y-112616000D01*
X200180315Y-112683039D01*
X200127511Y-112728794D01*
X200076000Y-112740000D01*
X86924000Y-112740000D01*
X86856961Y-112720315D01*
X86811206Y-112667511D01*
X86800000Y-112616000D01*
X86800000Y-94119774D01*
X91073498Y-94119774D01*
X91114423Y-94272505D01*
X91127708Y-94295515D01*
X91193477Y-94409432D01*
X91193481Y-94409437D01*
X91312349Y-94528305D01*
X91312355Y-94528310D01*
X107490419Y-110706374D01*
X107490429Y-110706385D01*
X107494759Y-110710715D01*
X107494760Y-110710716D01*
X107606564Y-110822520D01*
X107693375Y-110872639D01*
X107693377Y-110872641D01*
X107743493Y-110901576D01*
X107743495Y-110901577D01*
X107896222Y-110942500D01*
X107896223Y-110942500D01*
X139894641Y-110942500D01*
X139894657Y-110942501D01*
X139902253Y-110942501D01*
X140060364Y-110942501D01*
X140060367Y-110942501D01*
X140213095Y-110901577D01*
X140263214Y-110872639D01*
X140350026Y-110822520D01*
X140461830Y-110710716D01*
X140461830Y-110710714D01*
X140472038Y-110700507D01*
X140472040Y-110700504D01*
X142701713Y-108470831D01*
X142701716Y-108470830D01*
X142735873Y-108436672D01*
X142768671Y-108418764D01*
X142797191Y-108403191D01*
X142797192Y-108403191D01*
X142797195Y-108403190D01*
X142842008Y-108406396D01*
X142866882Y-108408175D01*
X142866883Y-108408175D01*
X142866886Y-108408176D01*
X142866900Y-108408187D01*
X142911231Y-108436676D01*
X142987536Y-108512981D01*
X143148306Y-108629787D01*
X143203035Y-108657673D01*
X143325367Y-108720005D01*
X143325370Y-108720006D01*
X143410731Y-108747741D01*
X143514364Y-108781413D01*
X143710639Y-108812500D01*
X143710640Y-108812500D01*
X143909360Y-108812500D01*
X143909361Y-108812500D01*
X144105636Y-108781413D01*
X144294632Y-108720005D01*
X144471694Y-108629787D01*
X144632464Y-108512981D01*
X144772981Y-108372464D01*
X144889787Y-108211694D01*
X144980005Y-108034632D01*
X145041413Y-107845636D01*
X145072500Y-107649361D01*
X145072500Y-107450639D01*
X145041413Y-107254364D01*
X145004298Y-107140135D01*
X144980006Y-107065370D01*
X144980005Y-107065367D01*
X144896203Y-106900898D01*
X144889787Y-106888306D01*
X144772981Y-106727536D01*
X144632464Y-106587019D01*
X144471694Y-106470213D01*
X144431932Y-106449953D01*
X144294632Y-106379994D01*
X144294629Y-106379993D01*
X144105637Y-106318587D01*
X144007498Y-106303043D01*
X143909361Y-106287500D01*
X143710639Y-106287500D01*
X143645214Y-106297862D01*
X143514362Y-106318587D01*
X143325370Y-106379993D01*
X143325367Y-106379994D01*
X143148304Y-106470214D01*
X143130383Y-106483234D01*
X143064577Y-106506712D01*
X142996523Y-106490885D01*
X142947829Y-106440779D01*
X142933500Y-106382914D01*
X142933500Y-105845513D01*
X150059500Y-105845513D01*
X150059500Y-106034486D01*
X150089059Y-106221118D01*
X150147454Y-106400836D01*
X150201998Y-106507883D01*
X150233240Y-106569199D01*
X150344310Y-106722073D01*
X150477927Y-106855690D01*
X150630801Y-106966760D01*
X150670562Y-106987019D01*
X150799163Y-107052545D01*
X150799165Y-107052545D01*
X150799168Y-107052547D01*
X150885250Y-107080517D01*
X150978881Y-107110940D01*
X151165514Y-107140500D01*
X151165519Y-107140500D01*
X151354486Y-107140500D01*
X151541118Y-107110940D01*
X151573507Y-107100416D01*
X151720832Y-107052547D01*
X151889199Y-106966760D01*
X152042073Y-106855690D01*
X152175690Y-106722073D01*
X152286760Y-106569199D01*
X152372547Y-106400832D01*
X152430940Y-106221118D01*
X152436561Y-106185631D01*
X152460500Y-106034486D01*
X152460500Y-105845513D01*
X155139500Y-105845513D01*
X155139500Y-106034486D01*
X155169059Y-106221118D01*
X155227454Y-106400836D01*
X155281998Y-106507883D01*
X155313240Y-106569199D01*
X155424310Y-106722073D01*
X155557927Y-106855690D01*
X155710801Y-106966760D01*
X155750562Y-106987019D01*
X155879163Y-107052545D01*
X155879165Y-107052545D01*
X155879168Y-107052547D01*
X155965250Y-107080517D01*
X156058881Y-107110940D01*
X156245514Y-107140500D01*
X156245519Y-107140500D01*
X156434486Y-107140500D01*
X156621118Y-107110940D01*
X156653507Y-107100416D01*
X156800832Y-107052547D01*
X156969199Y-106966760D01*
X157122073Y-106855690D01*
X157255690Y-106722073D01*
X157366760Y-106569199D01*
X157452547Y-106400832D01*
X157510940Y-106221118D01*
X157516561Y-106185631D01*
X157540500Y-106034486D01*
X157540500Y-105845513D01*
X157510940Y-105658881D01*
X157459010Y-105499059D01*
X157452547Y-105479168D01*
X157452545Y-105479165D01*
X157452545Y-105479163D01*
X157407290Y-105390347D01*
X157366760Y-105310801D01*
X157255690Y-105157927D01*
X157122073Y-105024310D01*
X156969199Y-104913240D01*
X156800836Y-104827454D01*
X156621118Y-104769059D01*
X156434486Y-104739500D01*
X156434481Y-104739500D01*
X156245519Y-104739500D01*
X156245514Y-104739500D01*
X156058881Y-104769059D01*
X155879163Y-104827454D01*
X155710800Y-104913240D01*
X155629764Y-104972117D01*
X155557927Y-105024310D01*
X155557925Y-105024312D01*
X155557924Y-105024312D01*
X155424312Y-105157924D01*
X155424312Y-105157925D01*
X155424310Y-105157927D01*
X155409570Y-105178215D01*
X155313240Y-105310800D01*
X155227454Y-105479163D01*
X155169059Y-105658881D01*
X155139500Y-105845513D01*
X152460500Y-105845513D01*
X152430940Y-105658881D01*
X152379010Y-105499059D01*
X152372547Y-105479168D01*
X152372545Y-105479165D01*
X152372545Y-105479163D01*
X152327290Y-105390347D01*
X152286760Y-105310801D01*
X152175690Y-105157927D01*
X152042073Y-105024310D01*
X151889199Y-104913240D01*
X151720836Y-104827454D01*
X151541118Y-104769059D01*
X151354486Y-104739500D01*
X151354481Y-104739500D01*
X151165519Y-104739500D01*
X151165514Y-104739500D01*
X150978881Y-104769059D01*
X150799163Y-104827454D01*
X150630800Y-104913240D01*
X150549764Y-104972117D01*
X150477927Y-105024310D01*
X150477925Y-105024312D01*
X150477924Y-105024312D01*
X150344312Y-105157924D01*
X150344312Y-105157925D01*
X150344310Y-105157927D01*
X150329570Y-105178215D01*
X150233240Y-105310800D01*
X150147454Y-105479163D01*
X150089059Y-105658881D01*
X150059500Y-105845513D01*
X142933500Y-105845513D01*
X142933500Y-105065431D01*
X142953185Y-104998392D01*
X142969814Y-104977755D01*
X149083134Y-98864435D01*
X155351800Y-98864435D01*
X155351800Y-100255570D01*
X155351801Y-100255576D01*
X155358208Y-100315183D01*
X155408502Y-100450028D01*
X155408506Y-100450035D01*
X155494752Y-100565244D01*
X155494755Y-100565247D01*
X155609964Y-100651493D01*
X155609971Y-100651497D01*
X155744817Y-100701791D01*
X155744816Y-100701791D01*
X155751744Y-100702535D01*
X155804427Y-100708200D01*
X157195572Y-100708199D01*
X157255183Y-100701791D01*
X157390031Y-100651496D01*
X157505246Y-100565246D01*
X157591496Y-100450031D01*
X157641791Y-100315183D01*
X157648200Y-100255573D01*
X157648199Y-99687895D01*
X157667883Y-99620859D01*
X157720687Y-99575104D01*
X157789846Y-99565160D01*
X157853402Y-99594185D01*
X157891176Y-99652963D01*
X157894672Y-99668500D01*
X157911828Y-99776819D01*
X157920073Y-99828871D01*
X157975922Y-100000756D01*
X158053223Y-100152468D01*
X158057974Y-100161791D01*
X158164196Y-100307996D01*
X158292003Y-100435803D01*
X158428817Y-100535202D01*
X158438212Y-100542028D01*
X158599244Y-100624078D01*
X158771129Y-100679927D01*
X158949635Y-100708200D01*
X158949636Y-100708200D01*
X159130364Y-100708200D01*
X159130365Y-100708200D01*
X159308871Y-100679927D01*
X159480756Y-100624078D01*
X159641788Y-100542028D01*
X159723879Y-100482385D01*
X159787996Y-100435803D01*
X159787998Y-100435800D01*
X159788002Y-100435798D01*
X159915798Y-100308002D01*
X159915800Y-100307998D01*
X159915803Y-100307996D01*
X159987398Y-100209452D01*
X160022028Y-100161788D01*
X160104078Y-100000756D01*
X160159927Y-99828871D01*
X160188200Y-99650365D01*
X160188200Y-99469635D01*
X160431800Y-99469635D01*
X160431800Y-99650365D01*
X160434642Y-99668306D01*
X160451828Y-99776819D01*
X160460073Y-99828871D01*
X160515922Y-100000756D01*
X160593223Y-100152468D01*
X160597974Y-100161791D01*
X160704196Y-100307996D01*
X160832003Y-100435803D01*
X160968817Y-100535202D01*
X160978212Y-100542028D01*
X161139244Y-100624078D01*
X161311129Y-100679927D01*
X161489635Y-100708200D01*
X161489636Y-100708200D01*
X161670364Y-100708200D01*
X161670365Y-100708200D01*
X161848871Y-100679927D01*
X162020756Y-100624078D01*
X162181788Y-100542028D01*
X162263879Y-100482385D01*
X162327996Y-100435803D01*
X162327998Y-100435800D01*
X162328002Y-100435798D01*
X162455798Y-100308002D01*
X162455800Y-100307998D01*
X162455803Y-100307996D01*
X162527398Y-100209452D01*
X162562028Y-100161788D01*
X162644078Y-100000756D01*
X162699927Y-99828871D01*
X162728200Y-99650365D01*
X162728200Y-99469635D01*
X162971800Y-99469635D01*
X162971800Y-99650365D01*
X162974642Y-99668306D01*
X162991828Y-99776819D01*
X163000073Y-99828871D01*
X163055922Y-100000756D01*
X163133223Y-100152468D01*
X163137974Y-100161791D01*
X163244196Y-100307996D01*
X163372003Y-100435803D01*
X163508817Y-100535202D01*
X163518212Y-100542028D01*
X163679244Y-100624078D01*
X163851129Y-100679927D01*
X164029635Y-100708200D01*
X164029636Y-100708200D01*
X164210364Y-100708200D01*
X164210365Y-100708200D01*
X164388871Y-100679927D01*
X164560756Y-100624078D01*
X164721788Y-100542028D01*
X164803879Y-100482385D01*
X164867996Y-100435803D01*
X164867998Y-100435800D01*
X164868002Y-100435798D01*
X164995798Y-100308002D01*
X164995800Y-100307998D01*
X164995803Y-100307996D01*
X165067398Y-100209452D01*
X165102028Y-100161788D01*
X165184078Y-100000756D01*
X165239927Y-99828871D01*
X165268200Y-99650365D01*
X165268200Y-99469635D01*
X165511800Y-99469635D01*
X165511800Y-99650365D01*
X165514642Y-99668306D01*
X165531828Y-99776819D01*
X165540073Y-99828871D01*
X165595922Y-100000756D01*
X165673223Y-100152468D01*
X165677974Y-100161791D01*
X165784196Y-100307996D01*
X165912003Y-100435803D01*
X166048817Y-100535202D01*
X166058212Y-100542028D01*
X166219244Y-100624078D01*
X166391129Y-100679927D01*
X166569635Y-100708200D01*
X166569636Y-100708200D01*
X166750364Y-100708200D01*
X166750365Y-100708200D01*
X166928871Y-100679927D01*
X167100756Y-100624078D01*
X167261788Y-100542028D01*
X167343879Y-100482385D01*
X167407996Y-100435803D01*
X167407998Y-100435800D01*
X167408002Y-100435798D01*
X167535798Y-100308002D01*
X167535800Y-100307998D01*
X167535803Y-100307996D01*
X167607398Y-100209452D01*
X167642028Y-100161788D01*
X167724078Y-100000756D01*
X167779927Y-99828871D01*
X167808200Y-99650365D01*
X167808200Y-99469635D01*
X168051800Y-99469635D01*
X168051800Y-99650365D01*
X168054642Y-99668306D01*
X168071828Y-99776819D01*
X168080073Y-99828871D01*
X168135922Y-100000756D01*
X168213223Y-100152468D01*
X168217974Y-100161791D01*
X168324196Y-100307996D01*
X168452003Y-100435803D01*
X168588817Y-100535202D01*
X168598212Y-100542028D01*
X168759244Y-100624078D01*
X168931129Y-100679927D01*
X169109635Y-100708200D01*
X169109636Y-100708200D01*
X169290364Y-100708200D01*
X169290365Y-100708200D01*
X169468871Y-100679927D01*
X169640756Y-100624078D01*
X169801788Y-100542028D01*
X169883879Y-100482385D01*
X169947996Y-100435803D01*
X169947998Y-100435800D01*
X169948002Y-100435798D01*
X170075798Y-100308002D01*
X170075800Y-100307998D01*
X170075803Y-100307996D01*
X170147398Y-100209452D01*
X170182028Y-100161788D01*
X170264078Y-100000756D01*
X170319927Y-99828871D01*
X170348200Y-99650365D01*
X170348200Y-99469635D01*
X170591800Y-99469635D01*
X170591800Y-99650365D01*
X170594642Y-99668306D01*
X170611828Y-99776819D01*
X170620073Y-99828871D01*
X170675922Y-100000756D01*
X170753223Y-100152468D01*
X170757974Y-100161791D01*
X170864196Y-100307996D01*
X170992003Y-100435803D01*
X171128817Y-100535202D01*
X171138212Y-100542028D01*
X171299244Y-100624078D01*
X171471129Y-100679927D01*
X171649635Y-100708200D01*
X171649636Y-100708200D01*
X171830364Y-100708200D01*
X171830365Y-100708200D01*
X172008871Y-100679927D01*
X172180756Y-100624078D01*
X172341788Y-100542028D01*
X172423879Y-100482385D01*
X172487996Y-100435803D01*
X172487998Y-100435800D01*
X172488002Y-100435798D01*
X172615798Y-100308002D01*
X172615800Y-100307998D01*
X172615803Y-100307996D01*
X172687398Y-100209452D01*
X172722028Y-100161788D01*
X172804078Y-100000756D01*
X172859927Y-99828871D01*
X172888200Y-99650365D01*
X172888200Y-99469635D01*
X172859927Y-99291129D01*
X172804078Y-99119244D01*
X172722028Y-98958212D01*
X172715202Y-98948817D01*
X172615803Y-98812003D01*
X172487996Y-98684196D01*
X172341791Y-98577974D01*
X172341790Y-98577973D01*
X172341788Y-98577972D01*
X172180756Y-98495922D01*
X172008871Y-98440073D01*
X172008869Y-98440072D01*
X172008867Y-98440072D01*
X171870823Y-98418208D01*
X171830365Y-98411800D01*
X171649635Y-98411800D01*
X171609183Y-98418207D01*
X171471132Y-98440072D01*
X171299241Y-98495923D01*
X171138208Y-98577974D01*
X170992003Y-98684196D01*
X170864196Y-98812003D01*
X170757974Y-98958208D01*
X170675923Y-99119241D01*
X170620072Y-99291132D01*
X170594672Y-99451500D01*
X170591800Y-99469635D01*
X170348200Y-99469635D01*
X170344356Y-99445368D01*
X170319927Y-99291132D01*
X170319927Y-99291129D01*
X170264078Y-99119244D01*
X170182028Y-98958212D01*
X170175202Y-98948817D01*
X170075803Y-98812003D01*
X169947996Y-98684196D01*
X169801791Y-98577974D01*
X169801790Y-98577973D01*
X169801788Y-98577972D01*
X169640756Y-98495922D01*
X169468871Y-98440073D01*
X169468869Y-98440072D01*
X169468867Y-98440072D01*
X169330823Y-98418208D01*
X169290365Y-98411800D01*
X169109635Y-98411800D01*
X169069183Y-98418207D01*
X168931132Y-98440072D01*
X168759241Y-98495923D01*
X168598208Y-98577974D01*
X168452003Y-98684196D01*
X168324196Y-98812003D01*
X168217974Y-98958208D01*
X168135923Y-99119241D01*
X168080072Y-99291132D01*
X168054672Y-99451500D01*
X168051800Y-99469635D01*
X167808200Y-99469635D01*
X167804356Y-99445368D01*
X167779927Y-99291132D01*
X167779927Y-99291129D01*
X167724078Y-99119244D01*
X167642028Y-98958212D01*
X167635202Y-98948817D01*
X167535803Y-98812003D01*
X167407996Y-98684196D01*
X167261791Y-98577974D01*
X167261790Y-98577973D01*
X167261788Y-98577972D01*
X167100756Y-98495922D01*
X166928871Y-98440073D01*
X166928869Y-98440072D01*
X166928867Y-98440072D01*
X166790823Y-98418208D01*
X166750365Y-98411800D01*
X166569635Y-98411800D01*
X166529183Y-98418207D01*
X166391132Y-98440072D01*
X166219241Y-98495923D01*
X166058208Y-98577974D01*
X165912003Y-98684196D01*
X165784196Y-98812003D01*
X165677974Y-98958208D01*
X165595923Y-99119241D01*
X165540072Y-99291132D01*
X165514672Y-99451500D01*
X165511800Y-99469635D01*
X165268200Y-99469635D01*
X165264356Y-99445368D01*
X165239927Y-99291132D01*
X165239927Y-99291129D01*
X165184078Y-99119244D01*
X165102028Y-98958212D01*
X165095202Y-98948817D01*
X164995803Y-98812003D01*
X164867996Y-98684196D01*
X164721791Y-98577974D01*
X164721790Y-98577973D01*
X164721788Y-98577972D01*
X164560756Y-98495922D01*
X164388871Y-98440073D01*
X164388869Y-98440072D01*
X164388867Y-98440072D01*
X164250823Y-98418208D01*
X164210365Y-98411800D01*
X164029635Y-98411800D01*
X163989183Y-98418207D01*
X163851132Y-98440072D01*
X163679241Y-98495923D01*
X163518208Y-98577974D01*
X163372003Y-98684196D01*
X163244196Y-98812003D01*
X163137974Y-98958208D01*
X163055923Y-99119241D01*
X163000072Y-99291132D01*
X162974672Y-99451500D01*
X162971800Y-99469635D01*
X162728200Y-99469635D01*
X162724356Y-99445368D01*
X162699927Y-99291132D01*
X162699927Y-99291129D01*
X162644078Y-99119244D01*
X162562028Y-98958212D01*
X162555202Y-98948817D01*
X162455803Y-98812003D01*
X162327996Y-98684196D01*
X162181791Y-98577974D01*
X162181790Y-98577973D01*
X162181788Y-98577972D01*
X162020756Y-98495922D01*
X161848871Y-98440073D01*
X161848869Y-98440072D01*
X161848867Y-98440072D01*
X161710823Y-98418208D01*
X161670365Y-98411800D01*
X161489635Y-98411800D01*
X161449183Y-98418207D01*
X161311132Y-98440072D01*
X161139241Y-98495923D01*
X160978208Y-98577974D01*
X160832003Y-98684196D01*
X160704196Y-98812003D01*
X160597974Y-98958208D01*
X160515923Y-99119241D01*
X160460072Y-99291132D01*
X160434672Y-99451500D01*
X160431800Y-99469635D01*
X160188200Y-99469635D01*
X160184356Y-99445368D01*
X160159927Y-99291132D01*
X160159927Y-99291129D01*
X160104078Y-99119244D01*
X160022028Y-98958212D01*
X160015202Y-98948817D01*
X159915803Y-98812003D01*
X159787996Y-98684196D01*
X159641791Y-98577974D01*
X159641790Y-98577973D01*
X159641788Y-98577972D01*
X159480756Y-98495922D01*
X159308871Y-98440073D01*
X159308869Y-98440072D01*
X159308867Y-98440072D01*
X159170823Y-98418208D01*
X159130365Y-98411800D01*
X158949635Y-98411800D01*
X158909183Y-98418207D01*
X158771132Y-98440072D01*
X158599241Y-98495923D01*
X158438208Y-98577974D01*
X158292003Y-98684196D01*
X158164196Y-98812003D01*
X158057974Y-98958208D01*
X157975923Y-99119241D01*
X157920072Y-99291132D01*
X157894672Y-99451500D01*
X157864743Y-99514635D01*
X157805431Y-99551566D01*
X157735568Y-99550568D01*
X157677336Y-99511958D01*
X157649222Y-99447994D01*
X157648199Y-99432102D01*
X157648199Y-98864429D01*
X157648198Y-98864423D01*
X157648197Y-98864416D01*
X157642638Y-98812699D01*
X157641791Y-98804816D01*
X157591497Y-98669971D01*
X157591493Y-98669964D01*
X157505247Y-98554755D01*
X157505244Y-98554752D01*
X157390035Y-98468506D01*
X157390028Y-98468502D01*
X157255182Y-98418208D01*
X157255183Y-98418208D01*
X157195583Y-98411801D01*
X157195581Y-98411800D01*
X157195573Y-98411800D01*
X157195564Y-98411800D01*
X155804429Y-98411800D01*
X155804423Y-98411801D01*
X155744816Y-98418208D01*
X155609971Y-98468502D01*
X155609964Y-98468506D01*
X155494755Y-98554752D01*
X155494752Y-98554755D01*
X155408506Y-98669964D01*
X155408502Y-98669971D01*
X155358208Y-98804817D01*
X155353328Y-98850213D01*
X155351801Y-98864423D01*
X155351800Y-98864435D01*
X149083134Y-98864435D01*
X155368461Y-92579108D01*
X155429779Y-92545626D01*
X155499471Y-92550610D01*
X155505305Y-92554977D01*
X155529559Y-92556886D01*
X156106300Y-91980145D01*
X156106300Y-91991832D01*
X156133130Y-92091962D01*
X156184962Y-92181737D01*
X156258263Y-92255038D01*
X156348038Y-92306870D01*
X156448168Y-92333700D01*
X156459853Y-92333700D01*
X155883112Y-92910438D01*
X155883112Y-92910439D01*
X155898477Y-92921602D01*
X156059433Y-93003613D01*
X156231249Y-93059440D01*
X156409669Y-93087700D01*
X156590331Y-93087700D01*
X156768750Y-93059440D01*
X156940566Y-93003613D01*
X157101528Y-92921599D01*
X157101532Y-92921597D01*
X157116886Y-92910440D01*
X157116887Y-92910439D01*
X156540148Y-92333700D01*
X156551832Y-92333700D01*
X156651962Y-92306870D01*
X156741737Y-92255038D01*
X156815038Y-92181737D01*
X156866870Y-92091962D01*
X156893700Y-91991832D01*
X156893700Y-91980147D01*
X157470440Y-92556887D01*
X157470440Y-92556886D01*
X157481597Y-92541532D01*
X157481599Y-92541528D01*
X157563613Y-92380566D01*
X157619440Y-92208750D01*
X157645747Y-92042659D01*
X157645747Y-91849635D01*
X157891800Y-91849635D01*
X157891800Y-92030365D01*
X157893747Y-92042657D01*
X157893747Y-92042658D01*
X157920053Y-92208750D01*
X157920073Y-92208871D01*
X157975922Y-92380756D01*
X158057656Y-92541168D01*
X158057974Y-92541791D01*
X158164196Y-92687996D01*
X158292003Y-92815803D01*
X158422260Y-92910438D01*
X158438212Y-92922028D01*
X158599244Y-93004078D01*
X158771129Y-93059927D01*
X158949635Y-93088200D01*
X158949636Y-93088200D01*
X159130364Y-93088200D01*
X159130365Y-93088200D01*
X159308871Y-93059927D01*
X159480756Y-93004078D01*
X159641788Y-92922028D01*
X159723879Y-92862385D01*
X159787996Y-92815803D01*
X159787998Y-92815800D01*
X159788002Y-92815798D01*
X159915798Y-92688002D01*
X159915800Y-92687998D01*
X159915803Y-92687996D01*
X159994911Y-92579111D01*
X160022028Y-92541788D01*
X160104078Y-92380756D01*
X160159927Y-92208871D01*
X160188200Y-92030365D01*
X160188200Y-91849635D01*
X160431800Y-91849635D01*
X160431800Y-92030365D01*
X160434000Y-92044254D01*
X160460053Y-92208750D01*
X160460073Y-92208871D01*
X160515922Y-92380756D01*
X160597656Y-92541168D01*
X160597974Y-92541791D01*
X160704196Y-92687996D01*
X160832003Y-92815803D01*
X160962260Y-92910438D01*
X160978212Y-92922028D01*
X161139244Y-93004078D01*
X161311129Y-93059927D01*
X161489635Y-93088200D01*
X161489636Y-93088200D01*
X161670364Y-93088200D01*
X161670365Y-93088200D01*
X161848871Y-93059927D01*
X162020756Y-93004078D01*
X162181788Y-92922028D01*
X162263879Y-92862385D01*
X162327996Y-92815803D01*
X162327998Y-92815800D01*
X162328002Y-92815798D01*
X162455798Y-92688002D01*
X162455800Y-92687998D01*
X162455803Y-92687996D01*
X162534911Y-92579111D01*
X162562028Y-92541788D01*
X162644078Y-92380756D01*
X162699927Y-92208871D01*
X162728200Y-92030365D01*
X162728200Y-91849635D01*
X162971800Y-91849635D01*
X162971800Y-92030365D01*
X162974000Y-92044254D01*
X163000053Y-92208750D01*
X163000073Y-92208871D01*
X163055922Y-92380756D01*
X163137656Y-92541168D01*
X163137974Y-92541791D01*
X163244196Y-92687996D01*
X163372003Y-92815803D01*
X163502260Y-92910438D01*
X163518212Y-92922028D01*
X163679244Y-93004078D01*
X163851129Y-93059927D01*
X164029635Y-93088200D01*
X164029636Y-93088200D01*
X164210364Y-93088200D01*
X164210365Y-93088200D01*
X164388871Y-93059927D01*
X164560756Y-93004078D01*
X164721788Y-92922028D01*
X164803879Y-92862385D01*
X164867996Y-92815803D01*
X164867998Y-92815800D01*
X164868002Y-92815798D01*
X164995798Y-92688002D01*
X164995800Y-92687998D01*
X164995803Y-92687996D01*
X165074911Y-92579111D01*
X165102028Y-92541788D01*
X165184078Y-92380756D01*
X165239927Y-92208871D01*
X165268200Y-92030365D01*
X165268200Y-91849635D01*
X165511800Y-91849635D01*
X165511800Y-92030365D01*
X165514000Y-92044254D01*
X165540053Y-92208750D01*
X165540073Y-92208871D01*
X165595922Y-92380756D01*
X165677656Y-92541168D01*
X165677974Y-92541791D01*
X165784196Y-92687996D01*
X165912003Y-92815803D01*
X166042260Y-92910438D01*
X166058212Y-92922028D01*
X166219244Y-93004078D01*
X166391129Y-93059927D01*
X166569635Y-93088200D01*
X166569636Y-93088200D01*
X166750364Y-93088200D01*
X166750365Y-93088200D01*
X166928871Y-93059927D01*
X167100756Y-93004078D01*
X167261788Y-92922028D01*
X167343879Y-92862385D01*
X167407996Y-92815803D01*
X167407998Y-92815800D01*
X167408002Y-92815798D01*
X167535798Y-92688002D01*
X167535800Y-92687998D01*
X167535803Y-92687996D01*
X167614911Y-92579111D01*
X167642028Y-92541788D01*
X167724078Y-92380756D01*
X167779927Y-92208871D01*
X167808200Y-92030365D01*
X167808200Y-91849635D01*
X168051800Y-91849635D01*
X168051800Y-92030365D01*
X168054000Y-92044254D01*
X168080053Y-92208750D01*
X168080073Y-92208871D01*
X168135922Y-92380756D01*
X168217656Y-92541168D01*
X168217974Y-92541791D01*
X168324196Y-92687996D01*
X168452003Y-92815803D01*
X168582260Y-92910438D01*
X168598212Y-92922028D01*
X168759244Y-93004078D01*
X168931129Y-93059927D01*
X169109635Y-93088200D01*
X169109636Y-93088200D01*
X169290364Y-93088200D01*
X169290365Y-93088200D01*
X169468871Y-93059927D01*
X169640756Y-93004078D01*
X169801788Y-92922028D01*
X169883879Y-92862385D01*
X169947996Y-92815803D01*
X169947998Y-92815800D01*
X169948002Y-92815798D01*
X170075798Y-92688002D01*
X170075800Y-92687998D01*
X170075803Y-92687996D01*
X170154911Y-92579111D01*
X170182028Y-92541788D01*
X170264078Y-92380756D01*
X170319927Y-92208871D01*
X170348200Y-92030365D01*
X170348200Y-91849635D01*
X170319927Y-91671129D01*
X170264078Y-91499244D01*
X170182028Y-91338212D01*
X170149850Y-91293922D01*
X170075803Y-91192003D01*
X169947996Y-91064196D01*
X169801791Y-90957974D01*
X169801790Y-90957973D01*
X169801788Y-90957972D01*
X169640756Y-90875922D01*
X169468871Y-90820073D01*
X169468869Y-90820072D01*
X169468867Y-90820072D01*
X169344232Y-90800331D01*
X169290365Y-90791800D01*
X169109635Y-90791800D01*
X169068254Y-90798354D01*
X168931132Y-90820072D01*
X168759241Y-90875923D01*
X168598208Y-90957974D01*
X168452003Y-91064196D01*
X168451999Y-91064200D01*
X168324203Y-91191997D01*
X168324196Y-91192003D01*
X168217974Y-91338208D01*
X168135923Y-91499241D01*
X168080072Y-91671132D01*
X168059530Y-91800832D01*
X168051800Y-91849635D01*
X167808200Y-91849635D01*
X167779927Y-91671129D01*
X167724078Y-91499244D01*
X167642028Y-91338212D01*
X167609850Y-91293922D01*
X167535803Y-91192003D01*
X167407996Y-91064196D01*
X167261791Y-90957974D01*
X167261790Y-90957973D01*
X167261788Y-90957972D01*
X167100756Y-90875922D01*
X166928871Y-90820073D01*
X166928869Y-90820072D01*
X166928867Y-90820072D01*
X166804232Y-90800331D01*
X166750365Y-90791800D01*
X166569635Y-90791800D01*
X166528254Y-90798354D01*
X166391132Y-90820072D01*
X166219241Y-90875923D01*
X166058208Y-90957974D01*
X165912003Y-91064196D01*
X165911999Y-91064200D01*
X165784203Y-91191997D01*
X165784196Y-91192003D01*
X165677974Y-91338208D01*
X165595923Y-91499241D01*
X165540072Y-91671132D01*
X165519530Y-91800832D01*
X165511800Y-91849635D01*
X165268200Y-91849635D01*
X165239927Y-91671129D01*
X165184078Y-91499244D01*
X165102028Y-91338212D01*
X165069850Y-91293922D01*
X164995803Y-91192003D01*
X164867996Y-91064196D01*
X164721791Y-90957974D01*
X164721790Y-90957973D01*
X164721788Y-90957972D01*
X164560756Y-90875922D01*
X164388871Y-90820073D01*
X164388869Y-90820072D01*
X164388867Y-90820072D01*
X164264232Y-90800331D01*
X164210365Y-90791800D01*
X164029635Y-90791800D01*
X163988254Y-90798354D01*
X163851132Y-90820072D01*
X163679241Y-90875923D01*
X163518208Y-90957974D01*
X163372003Y-91064196D01*
X163371999Y-91064200D01*
X163244203Y-91191997D01*
X163244196Y-91192003D01*
X163137974Y-91338208D01*
X163055923Y-91499241D01*
X163000072Y-91671132D01*
X162979530Y-91800832D01*
X162971800Y-91849635D01*
X162728200Y-91849635D01*
X162699927Y-91671129D01*
X162644078Y-91499244D01*
X162562028Y-91338212D01*
X162529850Y-91293922D01*
X162455803Y-91192003D01*
X162327996Y-91064196D01*
X162181791Y-90957974D01*
X162181790Y-90957973D01*
X162181788Y-90957972D01*
X162020756Y-90875922D01*
X161848871Y-90820073D01*
X161848869Y-90820072D01*
X161848867Y-90820072D01*
X161724232Y-90800331D01*
X161670365Y-90791800D01*
X161489635Y-90791800D01*
X161448254Y-90798354D01*
X161311132Y-90820072D01*
X161139241Y-90875923D01*
X160978208Y-90957974D01*
X160832003Y-91064196D01*
X160831999Y-91064200D01*
X160704203Y-91191997D01*
X160704196Y-91192003D01*
X160597974Y-91338208D01*
X160515923Y-91499241D01*
X160460072Y-91671132D01*
X160439530Y-91800832D01*
X160431800Y-91849635D01*
X160188200Y-91849635D01*
X160159927Y-91671129D01*
X160104078Y-91499244D01*
X160022028Y-91338212D01*
X159989850Y-91293922D01*
X159915803Y-91192003D01*
X159787996Y-91064196D01*
X159641791Y-90957974D01*
X159641790Y-90957973D01*
X159641788Y-90957972D01*
X159480756Y-90875922D01*
X159308871Y-90820073D01*
X159308869Y-90820072D01*
X159308867Y-90820072D01*
X159184232Y-90800331D01*
X159130365Y-90791800D01*
X158949635Y-90791800D01*
X158908254Y-90798354D01*
X158771132Y-90820072D01*
X158599241Y-90875923D01*
X158438208Y-90957974D01*
X158292003Y-91064196D01*
X158291999Y-91064200D01*
X158164203Y-91191997D01*
X158164196Y-91192003D01*
X158057974Y-91338208D01*
X157975923Y-91499241D01*
X157920072Y-91671132D01*
X157893747Y-91837340D01*
X157891800Y-91849635D01*
X157645747Y-91849635D01*
X157645747Y-91837339D01*
X157619440Y-91671249D01*
X157563613Y-91499433D01*
X157481602Y-91338477D01*
X157470439Y-91323112D01*
X157470438Y-91323112D01*
X156893700Y-91899851D01*
X156893700Y-91888168D01*
X156866870Y-91788038D01*
X156815038Y-91698263D01*
X156741737Y-91624962D01*
X156651962Y-91573130D01*
X156551832Y-91546300D01*
X156540145Y-91546300D01*
X157116886Y-90969559D01*
X157115036Y-90946050D01*
X157111243Y-90941132D01*
X157105260Y-90871519D01*
X157137863Y-90809722D01*
X157138956Y-90808612D01*
X161244713Y-86702856D01*
X161244716Y-86702855D01*
X161356520Y-86591051D01*
X161406639Y-86504239D01*
X161435577Y-86454120D01*
X161476500Y-86301392D01*
X161476500Y-86143278D01*
X161476500Y-81365097D01*
X161496185Y-81298058D01*
X161548989Y-81252303D01*
X161618147Y-81242359D01*
X161681703Y-81271384D01*
X161688181Y-81277416D01*
X171170242Y-90759477D01*
X171203727Y-90820800D01*
X171198743Y-90890492D01*
X171156871Y-90946425D01*
X171138874Y-90957634D01*
X171138211Y-90957971D01*
X170992003Y-91064196D01*
X170991999Y-91064200D01*
X170864203Y-91191997D01*
X170864196Y-91192003D01*
X170757974Y-91338208D01*
X170675923Y-91499241D01*
X170620072Y-91671132D01*
X170599530Y-91800832D01*
X170591800Y-91849635D01*
X170591800Y-92030365D01*
X170594000Y-92044254D01*
X170620053Y-92208750D01*
X170620073Y-92208871D01*
X170675922Y-92380756D01*
X170757656Y-92541168D01*
X170757974Y-92541791D01*
X170864196Y-92687996D01*
X170992003Y-92815803D01*
X171122260Y-92910438D01*
X171138212Y-92922028D01*
X171299244Y-93004078D01*
X171471129Y-93059927D01*
X171649635Y-93088200D01*
X171649636Y-93088200D01*
X171830364Y-93088200D01*
X171830365Y-93088200D01*
X172008871Y-93059927D01*
X172180756Y-93004078D01*
X172341788Y-92922028D01*
X172423879Y-92862385D01*
X172487996Y-92815803D01*
X172487998Y-92815800D01*
X172488002Y-92815798D01*
X172615798Y-92688002D01*
X172615800Y-92687998D01*
X172615803Y-92687996D01*
X172722020Y-92541799D01*
X172722019Y-92541799D01*
X172722028Y-92541788D01*
X172722346Y-92541163D01*
X172722528Y-92540970D01*
X172724569Y-92537640D01*
X172725268Y-92538068D01*
X172770304Y-92490361D01*
X172838121Y-92473550D01*
X172904261Y-92496071D01*
X172920521Y-92509756D01*
X184778184Y-104367419D01*
X184811669Y-104428742D01*
X184806685Y-104498434D01*
X184764813Y-104554367D01*
X184699349Y-104578784D01*
X184690503Y-104579100D01*
X183751729Y-104579100D01*
X183751723Y-104579101D01*
X183692116Y-104585508D01*
X183557271Y-104635802D01*
X183557264Y-104635806D01*
X183442055Y-104722052D01*
X183442052Y-104722055D01*
X183355806Y-104837264D01*
X183355802Y-104837271D01*
X183305508Y-104972117D01*
X183299101Y-105031716D01*
X183299100Y-105031735D01*
X183299100Y-106448270D01*
X183299101Y-106448276D01*
X183305508Y-106507883D01*
X183355802Y-106642728D01*
X183355806Y-106642735D01*
X183442052Y-106757944D01*
X183442055Y-106757947D01*
X183557264Y-106844193D01*
X183557271Y-106844197D01*
X183692117Y-106894491D01*
X183692116Y-106894491D01*
X183699044Y-106895235D01*
X183751727Y-106900900D01*
X185168272Y-106900899D01*
X185227883Y-106894491D01*
X185362731Y-106844196D01*
X185477946Y-106757946D01*
X185564196Y-106642731D01*
X185614491Y-106507883D01*
X185620900Y-106448273D01*
X185620899Y-106029268D01*
X185640583Y-105962232D01*
X185693387Y-105916477D01*
X185762546Y-105906533D01*
X185826102Y-105935558D01*
X185863876Y-105994336D01*
X185867371Y-106009864D01*
X185867684Y-106011842D01*
X185924153Y-106185633D01*
X186004948Y-106344202D01*
X186007109Y-106348444D01*
X186114515Y-106496276D01*
X186243724Y-106625485D01*
X186391556Y-106732891D01*
X186554369Y-106815848D01*
X186728155Y-106872315D01*
X186795835Y-106883034D01*
X186908630Y-106900900D01*
X186908635Y-106900900D01*
X187091370Y-106900900D01*
X187191631Y-106885019D01*
X187271845Y-106872315D01*
X187445631Y-106815848D01*
X187608444Y-106732891D01*
X187756276Y-106625485D01*
X187885485Y-106496276D01*
X187992891Y-106348444D01*
X188075848Y-106185631D01*
X188132315Y-106011845D01*
X188147527Y-105915802D01*
X188177456Y-105852667D01*
X188236768Y-105815736D01*
X188306630Y-105816734D01*
X188364863Y-105855344D01*
X188392473Y-105915802D01*
X188407684Y-106011841D01*
X188464153Y-106185633D01*
X188544948Y-106344202D01*
X188547109Y-106348444D01*
X188654515Y-106496276D01*
X188783724Y-106625485D01*
X188931556Y-106732891D01*
X189094369Y-106815848D01*
X189268155Y-106872315D01*
X189335835Y-106883034D01*
X189448630Y-106900900D01*
X189448635Y-106900900D01*
X189631370Y-106900900D01*
X189731631Y-106885019D01*
X189811845Y-106872315D01*
X189985631Y-106815848D01*
X190148444Y-106732891D01*
X190296276Y-106625485D01*
X190425485Y-106496276D01*
X190532891Y-106348444D01*
X190615848Y-106185631D01*
X190672315Y-106011845D01*
X190688995Y-105906533D01*
X190700900Y-105831370D01*
X190700900Y-105648629D01*
X190681843Y-105528315D01*
X190672315Y-105468155D01*
X190615848Y-105294369D01*
X190532891Y-105131556D01*
X190425485Y-104983724D01*
X190296276Y-104854515D01*
X190191613Y-104778473D01*
X190148949Y-104723144D01*
X190140500Y-104678156D01*
X190140500Y-95610323D01*
X190160185Y-95543284D01*
X190176819Y-95522642D01*
X190238185Y-95461276D01*
X190345591Y-95313444D01*
X190428548Y-95150631D01*
X190485015Y-94976845D01*
X190500227Y-94880802D01*
X190513600Y-94796370D01*
X190513600Y-94613629D01*
X190486073Y-94439836D01*
X190485015Y-94433155D01*
X190428548Y-94259369D01*
X190345591Y-94096556D01*
X190238185Y-93948724D01*
X190108976Y-93819515D01*
X190004313Y-93743473D01*
X189961649Y-93688144D01*
X189953200Y-93643156D01*
X189953200Y-86487396D01*
X189972885Y-86420357D01*
X189989514Y-86399720D01*
X192673781Y-83715452D01*
X192735102Y-83681969D01*
X192780856Y-83680662D01*
X192821082Y-83687033D01*
X192908631Y-83700900D01*
X192908635Y-83700900D01*
X193091370Y-83700900D01*
X193191631Y-83685019D01*
X193271845Y-83672315D01*
X193445631Y-83615848D01*
X193608444Y-83532891D01*
X193756276Y-83425485D01*
X193885485Y-83296276D01*
X193992891Y-83148444D01*
X194075848Y-82985631D01*
X194132315Y-82811845D01*
X194147420Y-82716478D01*
X194160900Y-82631370D01*
X194160900Y-82448629D01*
X194141843Y-82328315D01*
X194132315Y-82268155D01*
X194075848Y-82094369D01*
X193992891Y-81931556D01*
X193885485Y-81783724D01*
X193756276Y-81654515D01*
X193608444Y-81547109D01*
X193445631Y-81464152D01*
X193271845Y-81407685D01*
X193271843Y-81407684D01*
X193271841Y-81407684D01*
X193091370Y-81379100D01*
X193091365Y-81379100D01*
X192908635Y-81379100D01*
X192908630Y-81379100D01*
X192780859Y-81399337D01*
X192711566Y-81390382D01*
X192673780Y-81364545D01*
X188186819Y-76877584D01*
X188153334Y-76816261D01*
X188150500Y-76789903D01*
X188150500Y-73412024D01*
X188170185Y-73344985D01*
X188218206Y-73301539D01*
X188344817Y-73237028D01*
X188344816Y-73237028D01*
X188344819Y-73237027D01*
X188537933Y-73096721D01*
X188706721Y-72927933D01*
X188752174Y-72865372D01*
X188756582Y-72860490D01*
X188780965Y-72845512D01*
X188803631Y-72828034D01*
X188811249Y-72826910D01*
X188816117Y-72823921D01*
X188829659Y-72824196D01*
X188858352Y-72819967D01*
X188865886Y-72820560D01*
X189413236Y-72273209D01*
X189424724Y-72300942D01*
X189508116Y-72425747D01*
X189614253Y-72531884D01*
X189739058Y-72615276D01*
X189766789Y-72626762D01*
X189219437Y-73174113D01*
X189219438Y-73174114D01*
X189305439Y-73236597D01*
X189518057Y-73344933D01*
X189518060Y-73344934D01*
X189745000Y-73418670D01*
X189980689Y-73456000D01*
X190219311Y-73456000D01*
X190454999Y-73418670D01*
X190681939Y-73344934D01*
X190681942Y-73344933D01*
X190894557Y-73236599D01*
X190980560Y-73174113D01*
X190980561Y-73174113D01*
X190433210Y-72626762D01*
X190460942Y-72615276D01*
X190585747Y-72531884D01*
X190691884Y-72425747D01*
X190775276Y-72300942D01*
X190786762Y-72273210D01*
X191334113Y-72820561D01*
X191334113Y-72820560D01*
X191396599Y-72734557D01*
X191504933Y-72521942D01*
X191504934Y-72521939D01*
X191578670Y-72294999D01*
X191616000Y-72059311D01*
X191616000Y-71820688D01*
X191578670Y-71585000D01*
X191504934Y-71358060D01*
X191504933Y-71358057D01*
X191396597Y-71145439D01*
X191334114Y-71059438D01*
X191334113Y-71059437D01*
X190786762Y-71606788D01*
X190775276Y-71579058D01*
X190691884Y-71454253D01*
X190585747Y-71348116D01*
X190460942Y-71264724D01*
X190433209Y-71253236D01*
X190980560Y-70705886D01*
X190980560Y-70705884D01*
X190894560Y-70643402D01*
X190681942Y-70535066D01*
X190681939Y-70535065D01*
X190454999Y-70461329D01*
X190219311Y-70424000D01*
X189980689Y-70424000D01*
X189745000Y-70461329D01*
X189518060Y-70535065D01*
X189518057Y-70535066D01*
X189305446Y-70643398D01*
X189219438Y-70705885D01*
X189766790Y-71253236D01*
X189739058Y-71264724D01*
X189614253Y-71348116D01*
X189508116Y-71454253D01*
X189424724Y-71579058D01*
X189413237Y-71606789D01*
X188865885Y-71059437D01*
X188858348Y-71060031D01*
X188854699Y-71059264D01*
X188851146Y-71060387D01*
X188820779Y-71052138D01*
X188789971Y-71045667D01*
X188786266Y-71042764D01*
X188783720Y-71042073D01*
X188774536Y-71033574D01*
X188756581Y-71019508D01*
X188752170Y-71014623D01*
X188706721Y-70952067D01*
X188537933Y-70783279D01*
X188344819Y-70642973D01*
X188194641Y-70566454D01*
X188132136Y-70534606D01*
X188132135Y-70534605D01*
X188132134Y-70534605D01*
X187905115Y-70460842D01*
X187905113Y-70460841D01*
X187905111Y-70460841D01*
X187709815Y-70429909D01*
X187669351Y-70423500D01*
X187430649Y-70423500D01*
X187390191Y-70429908D01*
X187194888Y-70460841D01*
X187194887Y-70460841D01*
X186967863Y-70534606D01*
X186755177Y-70642975D01*
X186642685Y-70724705D01*
X186576879Y-70748185D01*
X186508825Y-70732359D01*
X186465537Y-70688450D01*
X186465112Y-70688769D01*
X186462780Y-70685654D01*
X186460969Y-70683817D01*
X186459793Y-70681664D01*
X186373547Y-70566455D01*
X186373544Y-70566452D01*
X186258335Y-70480206D01*
X186258328Y-70480202D01*
X186123482Y-70429908D01*
X186123483Y-70429908D01*
X186063883Y-70423501D01*
X186063881Y-70423500D01*
X186063873Y-70423500D01*
X186063864Y-70423500D01*
X183936129Y-70423500D01*
X183936123Y-70423501D01*
X183876516Y-70429908D01*
X183741671Y-70480202D01*
X183741664Y-70480206D01*
X183626455Y-70566452D01*
X183626452Y-70566455D01*
X183540206Y-70681664D01*
X183540202Y-70681671D01*
X183489908Y-70816517D01*
X183483501Y-70876116D01*
X183483500Y-70876135D01*
X183483500Y-71215500D01*
X183463815Y-71282539D01*
X183411011Y-71328294D01*
X183359500Y-71339500D01*
X180739061Y-71339500D01*
X180739057Y-71339499D01*
X180580943Y-71339499D01*
X180580939Y-71339500D01*
X178360097Y-71339500D01*
X178293058Y-71319815D01*
X178272416Y-71303181D01*
X177410066Y-70440831D01*
X177376581Y-70379508D01*
X177375274Y-70333752D01*
X177378984Y-70310332D01*
X177383889Y-70279362D01*
X177400500Y-70174486D01*
X177400500Y-69985513D01*
X177370940Y-69798881D01*
X177337999Y-69697500D01*
X177312547Y-69619168D01*
X177312545Y-69619165D01*
X177312545Y-69619163D01*
X177259607Y-69515267D01*
X177226760Y-69450801D01*
X177115690Y-69297927D01*
X176982073Y-69164310D01*
X176829199Y-69053240D01*
X176823405Y-69050288D01*
X176660836Y-68967454D01*
X176481118Y-68909059D01*
X176294486Y-68879500D01*
X176294481Y-68879500D01*
X176105519Y-68879500D01*
X176105514Y-68879500D01*
X175918881Y-68909059D01*
X175739163Y-68967454D01*
X175570800Y-69053240D01*
X175483579Y-69116610D01*
X175417927Y-69164310D01*
X175417925Y-69164312D01*
X175417924Y-69164312D01*
X175284312Y-69297924D01*
X175284312Y-69297925D01*
X175284310Y-69297927D01*
X175253379Y-69340500D01*
X175173240Y-69450800D01*
X175087454Y-69619163D01*
X175029059Y-69798881D01*
X174999500Y-69985513D01*
X174999500Y-70174486D01*
X175029059Y-70361118D01*
X175087454Y-70540836D01*
X175150394Y-70664362D01*
X175173240Y-70709199D01*
X175284310Y-70862073D01*
X175417927Y-70995690D01*
X175570801Y-71106760D01*
X175646207Y-71145181D01*
X175739163Y-71192545D01*
X175739165Y-71192545D01*
X175739168Y-71192547D01*
X175809810Y-71215500D01*
X175918881Y-71250940D01*
X176105514Y-71280500D01*
X176105519Y-71280500D01*
X176294486Y-71280500D01*
X176411017Y-71262042D01*
X176453753Y-71255274D01*
X176523045Y-71264228D01*
X176560831Y-71290066D01*
X177575139Y-72304374D01*
X177575149Y-72304385D01*
X177579479Y-72308715D01*
X177579480Y-72308716D01*
X177691284Y-72420520D01*
X177778095Y-72470639D01*
X177778097Y-72470641D01*
X177828213Y-72499576D01*
X177828215Y-72499577D01*
X177980942Y-72540500D01*
X177980943Y-72540500D01*
X178910903Y-72540500D01*
X178977942Y-72560185D01*
X179023697Y-72612989D01*
X179033641Y-72682147D01*
X179004616Y-72745703D01*
X178998584Y-72752181D01*
X175420830Y-76329933D01*
X175359507Y-76363418D01*
X175313751Y-76364725D01*
X175154486Y-76339500D01*
X175154481Y-76339500D01*
X174965519Y-76339500D01*
X174965514Y-76339500D01*
X174778881Y-76369059D01*
X174599163Y-76427454D01*
X174430800Y-76513240D01*
X174343579Y-76576610D01*
X174277927Y-76624310D01*
X174277925Y-76624312D01*
X174277924Y-76624312D01*
X174144312Y-76757924D01*
X174144312Y-76757925D01*
X174144310Y-76757927D01*
X174101928Y-76816261D01*
X174033240Y-76910800D01*
X173947454Y-77079163D01*
X173889059Y-77258881D01*
X173859500Y-77445513D01*
X173859500Y-77634486D01*
X173889059Y-77821118D01*
X173947454Y-78000836D01*
X174018617Y-78140500D01*
X174033240Y-78169199D01*
X174144310Y-78322073D01*
X174277927Y-78455690D01*
X174430801Y-78566760D01*
X174599168Y-78652547D01*
X174730806Y-78695319D01*
X174748041Y-78700919D01*
X174805717Y-78740357D01*
X174832915Y-78804715D01*
X174821000Y-78873562D01*
X174797404Y-78906531D01*
X170823972Y-82879964D01*
X170762649Y-82913449D01*
X170692957Y-82908465D01*
X170663406Y-82892601D01*
X170563688Y-82820152D01*
X170563687Y-82820151D01*
X170563685Y-82820150D01*
X170513024Y-82794337D01*
X170412853Y-82743296D01*
X170251847Y-82690981D01*
X170084649Y-82664500D01*
X170084644Y-82664500D01*
X169915356Y-82664500D01*
X169915351Y-82664500D01*
X169748152Y-82690981D01*
X169587146Y-82743296D01*
X169436311Y-82820152D01*
X169299365Y-82919648D01*
X169299360Y-82919652D01*
X169179652Y-83039360D01*
X169179648Y-83039365D01*
X169080152Y-83176311D01*
X169003296Y-83327146D01*
X168950981Y-83488152D01*
X168924500Y-83655350D01*
X168924500Y-83824649D01*
X168950981Y-83991847D01*
X169003296Y-84152853D01*
X169080152Y-84303688D01*
X169179648Y-84440634D01*
X169179652Y-84440639D01*
X169299360Y-84560347D01*
X169299365Y-84560351D01*
X169375748Y-84615846D01*
X169436315Y-84659850D01*
X169504302Y-84694491D01*
X169587146Y-84736703D01*
X169587148Y-84736703D01*
X169587151Y-84736705D01*
X169659910Y-84760346D01*
X169748152Y-84789018D01*
X169915351Y-84815500D01*
X169915356Y-84815500D01*
X170084649Y-84815500D01*
X170251847Y-84789018D01*
X170275502Y-84781332D01*
X170412849Y-84736705D01*
X170563685Y-84659850D01*
X170700641Y-84560346D01*
X170820346Y-84440641D01*
X170867501Y-84375735D01*
X170882303Y-84364321D01*
X170893508Y-84349353D01*
X170915681Y-84338581D01*
X170922830Y-84333069D01*
X170924484Y-84332438D01*
X170930009Y-84330376D01*
X171044957Y-84299577D01*
X171095076Y-84270639D01*
X171181888Y-84220520D01*
X171293692Y-84108716D01*
X171293692Y-84108714D01*
X171303900Y-84098507D01*
X171303901Y-84098504D01*
X172570670Y-82831735D01*
X174339105Y-82831735D01*
X174339105Y-84248270D01*
X174339106Y-84248276D01*
X174345513Y-84307883D01*
X174395807Y-84442728D01*
X174395811Y-84442735D01*
X174482057Y-84557944D01*
X174482060Y-84557947D01*
X174597269Y-84644193D01*
X174597276Y-84644197D01*
X174732122Y-84694491D01*
X174732121Y-84694491D01*
X174739049Y-84695235D01*
X174791732Y-84700900D01*
X176208277Y-84700899D01*
X176267888Y-84694491D01*
X176402736Y-84644196D01*
X176517951Y-84557946D01*
X176604201Y-84442731D01*
X176654496Y-84307883D01*
X176660905Y-84248273D01*
X176660904Y-83448629D01*
X179339095Y-83448629D01*
X179339095Y-83631370D01*
X179367679Y-83811841D01*
X179367680Y-83811845D01*
X179424147Y-83985631D01*
X179507104Y-84148444D01*
X179614510Y-84296276D01*
X179743719Y-84425485D01*
X179891551Y-84532891D01*
X180054364Y-84615848D01*
X180228150Y-84672315D01*
X180295830Y-84683034D01*
X180408625Y-84700900D01*
X180408630Y-84700900D01*
X180591365Y-84700900D01*
X180691626Y-84685019D01*
X180771840Y-84672315D01*
X180945626Y-84615848D01*
X181108439Y-84532891D01*
X181256271Y-84425485D01*
X181385480Y-84296276D01*
X181492886Y-84148444D01*
X181575843Y-83985631D01*
X181632310Y-83811845D01*
X181650897Y-83694491D01*
X181660895Y-83631370D01*
X181660895Y-83448629D01*
X181636764Y-83296276D01*
X181632310Y-83268155D01*
X181575843Y-83094369D01*
X181492886Y-82931556D01*
X181385480Y-82783724D01*
X181256271Y-82654515D01*
X181108439Y-82547109D01*
X180945626Y-82464152D01*
X180771840Y-82407685D01*
X180771838Y-82407684D01*
X180771836Y-82407684D01*
X180591365Y-82379100D01*
X180591360Y-82379100D01*
X180408630Y-82379100D01*
X180408625Y-82379100D01*
X180228153Y-82407684D01*
X180054361Y-82464153D01*
X179891550Y-82547109D01*
X179743716Y-82654517D01*
X179614512Y-82783721D01*
X179507104Y-82931555D01*
X179424148Y-83094366D01*
X179367679Y-83268158D01*
X179339095Y-83448629D01*
X176660904Y-83448629D01*
X176660904Y-82831728D01*
X176654496Y-82772117D01*
X176643746Y-82743296D01*
X176604202Y-82637271D01*
X176604198Y-82637264D01*
X176517952Y-82522055D01*
X176517949Y-82522052D01*
X176402740Y-82435806D01*
X176402733Y-82435802D01*
X176267887Y-82385508D01*
X176267888Y-82385508D01*
X176208288Y-82379101D01*
X176208286Y-82379100D01*
X176208278Y-82379100D01*
X176208269Y-82379100D01*
X174791734Y-82379100D01*
X174791728Y-82379101D01*
X174732121Y-82385508D01*
X174597276Y-82435802D01*
X174597269Y-82435806D01*
X174482060Y-82522052D01*
X174482057Y-82522055D01*
X174395811Y-82637264D01*
X174395807Y-82637271D01*
X174345513Y-82772117D01*
X174340349Y-82820152D01*
X174339106Y-82831723D01*
X174339105Y-82831735D01*
X172570670Y-82831735D01*
X177225588Y-78176819D01*
X177286911Y-78143334D01*
X177313269Y-78140500D01*
X179029208Y-78140500D01*
X179096247Y-78160185D01*
X179129524Y-78191612D01*
X179224310Y-78322073D01*
X179357927Y-78455690D01*
X179510801Y-78566760D01*
X179590347Y-78607290D01*
X179679163Y-78652545D01*
X179679165Y-78652545D01*
X179679168Y-78652547D01*
X179747277Y-78674677D01*
X179858881Y-78710940D01*
X180045514Y-78740500D01*
X180045519Y-78740500D01*
X180234486Y-78740500D01*
X180421118Y-78710940D01*
X180600832Y-78652547D01*
X180769199Y-78566760D01*
X180922073Y-78455690D01*
X181055690Y-78322073D01*
X181150475Y-78191613D01*
X181205804Y-78148949D01*
X181250792Y-78140500D01*
X181863331Y-78140500D01*
X181863347Y-78140501D01*
X181870943Y-78140501D01*
X182029054Y-78140501D01*
X182029057Y-78140501D01*
X182181785Y-78099577D01*
X182231904Y-78070639D01*
X182318716Y-78020520D01*
X182430520Y-77908716D01*
X182430520Y-77908714D01*
X182440728Y-77898507D01*
X182440729Y-77898504D01*
X186737821Y-73601413D01*
X186799142Y-73567930D01*
X186868834Y-73572914D01*
X186924767Y-73614786D01*
X186949184Y-73680250D01*
X186949500Y-73689096D01*
X186949500Y-77003330D01*
X186949499Y-77003348D01*
X186949499Y-77169054D01*
X186949498Y-77169054D01*
X186990423Y-77321785D01*
X186999448Y-77337416D01*
X186999449Y-77337419D01*
X187069475Y-77458709D01*
X187069481Y-77458717D01*
X187188349Y-77577585D01*
X187188355Y-77577590D01*
X190802531Y-81191766D01*
X190836016Y-81253089D01*
X190831032Y-81322781D01*
X190789160Y-81378714D01*
X190723696Y-81403131D01*
X190695452Y-81401920D01*
X190551370Y-81379100D01*
X190551365Y-81379100D01*
X190368635Y-81379100D01*
X190368630Y-81379100D01*
X190188158Y-81407684D01*
X190014366Y-81464153D01*
X189851555Y-81547109D01*
X189703721Y-81654517D01*
X189574517Y-81783721D01*
X189467109Y-81931555D01*
X189384153Y-82094366D01*
X189327684Y-82268158D01*
X189327683Y-82268161D01*
X189327371Y-82270134D01*
X189327044Y-82270822D01*
X189326547Y-82272895D01*
X189326111Y-82272790D01*
X189297439Y-82333267D01*
X189238125Y-82370196D01*
X189168263Y-82369194D01*
X189110032Y-82330581D01*
X189081921Y-82266616D01*
X189080899Y-82250730D01*
X189080899Y-81831729D01*
X189080898Y-81831723D01*
X189080897Y-81831716D01*
X189074491Y-81772117D01*
X189051988Y-81711784D01*
X189024197Y-81637271D01*
X189024193Y-81637264D01*
X188937947Y-81522055D01*
X188937944Y-81522052D01*
X188822735Y-81435806D01*
X188822728Y-81435802D01*
X188687882Y-81385508D01*
X188687883Y-81385508D01*
X188628283Y-81379101D01*
X188628281Y-81379100D01*
X188628273Y-81379100D01*
X188628264Y-81379100D01*
X187211729Y-81379100D01*
X187211723Y-81379101D01*
X187152116Y-81385508D01*
X187017271Y-81435802D01*
X187017264Y-81435806D01*
X186902055Y-81522052D01*
X186902052Y-81522055D01*
X186815806Y-81637264D01*
X186815802Y-81637271D01*
X186765508Y-81772117D01*
X186759101Y-81831716D01*
X186759101Y-81831723D01*
X186759100Y-81831735D01*
X186759100Y-83248270D01*
X186759101Y-83248276D01*
X186765508Y-83307883D01*
X186815802Y-83442728D01*
X186815806Y-83442735D01*
X186902052Y-83557944D01*
X186902055Y-83557947D01*
X187017264Y-83644193D01*
X187017271Y-83644197D01*
X187152117Y-83694491D01*
X187152116Y-83694491D01*
X187159044Y-83695235D01*
X187211727Y-83700900D01*
X188628272Y-83700899D01*
X188687883Y-83694491D01*
X188822731Y-83644196D01*
X188937946Y-83557946D01*
X189024196Y-83442731D01*
X189074491Y-83307883D01*
X189080900Y-83248273D01*
X189080899Y-82829269D01*
X189100583Y-82762233D01*
X189153387Y-82716478D01*
X189222546Y-82706534D01*
X189286102Y-82735559D01*
X189323876Y-82794337D01*
X189327370Y-82809862D01*
X189327682Y-82811834D01*
X189327684Y-82811841D01*
X189327685Y-82811845D01*
X189384152Y-82985631D01*
X189467109Y-83148444D01*
X189574515Y-83296276D01*
X189703724Y-83425485D01*
X189851556Y-83532891D01*
X190014369Y-83615848D01*
X190188155Y-83672315D01*
X190255835Y-83683034D01*
X190368630Y-83700900D01*
X190368635Y-83700900D01*
X190551369Y-83700900D01*
X190643560Y-83686297D01*
X190695451Y-83678079D01*
X190764744Y-83687033D01*
X190818196Y-83732029D01*
X190838836Y-83798781D01*
X190820111Y-83866094D01*
X190802530Y-83888233D01*
X188986793Y-85703970D01*
X188986785Y-85703978D01*
X188983986Y-85706778D01*
X188983984Y-85706780D01*
X188872180Y-85818584D01*
X188851953Y-85853619D01*
X188793123Y-85955515D01*
X188752199Y-86108243D01*
X188752199Y-86108245D01*
X188752199Y-86276346D01*
X188752200Y-86276359D01*
X188752200Y-93643156D01*
X188732515Y-93710195D01*
X188701086Y-93743474D01*
X188596421Y-93819517D01*
X188467217Y-93948721D01*
X188359809Y-94096555D01*
X188276853Y-94259366D01*
X188220384Y-94433158D01*
X188205173Y-94529197D01*
X188175244Y-94592332D01*
X188115932Y-94629263D01*
X188046069Y-94628265D01*
X187987837Y-94589655D01*
X187960227Y-94529197D01*
X187946073Y-94439836D01*
X187945015Y-94433155D01*
X187888548Y-94259369D01*
X187805591Y-94096556D01*
X187698185Y-93948724D01*
X187568976Y-93819515D01*
X187421144Y-93712109D01*
X187258331Y-93629152D01*
X187084545Y-93572685D01*
X187084543Y-93572684D01*
X187084541Y-93572684D01*
X186904070Y-93544100D01*
X186904065Y-93544100D01*
X186721335Y-93544100D01*
X186721330Y-93544100D01*
X186540858Y-93572684D01*
X186367066Y-93629153D01*
X186204255Y-93712109D01*
X186056421Y-93819517D01*
X185927217Y-93948721D01*
X185819809Y-94096555D01*
X185736853Y-94259366D01*
X185680384Y-94433158D01*
X185680383Y-94433161D01*
X185680071Y-94435134D01*
X185679744Y-94435822D01*
X185679247Y-94437895D01*
X185678811Y-94437790D01*
X185650139Y-94498267D01*
X185590825Y-94535196D01*
X185520963Y-94534194D01*
X185462732Y-94495581D01*
X185434621Y-94431616D01*
X185433599Y-94415730D01*
X185433599Y-93996729D01*
X185433598Y-93996723D01*
X185433597Y-93996716D01*
X185427191Y-93937117D01*
X185383328Y-93819515D01*
X185376897Y-93802271D01*
X185376893Y-93802264D01*
X185290647Y-93687055D01*
X185290644Y-93687052D01*
X185175435Y-93600806D01*
X185175428Y-93600802D01*
X185040582Y-93550508D01*
X185040583Y-93550508D01*
X184980983Y-93544101D01*
X184980981Y-93544100D01*
X184980973Y-93544100D01*
X184980964Y-93544100D01*
X183564429Y-93544100D01*
X183564423Y-93544101D01*
X183504816Y-93550508D01*
X183369971Y-93600802D01*
X183369964Y-93600806D01*
X183254755Y-93687052D01*
X183254752Y-93687055D01*
X183168506Y-93802264D01*
X183168502Y-93802271D01*
X183118208Y-93937117D01*
X183112058Y-93994328D01*
X183111801Y-93996723D01*
X183111800Y-93996735D01*
X183111800Y-95413270D01*
X183111801Y-95413276D01*
X183118208Y-95472883D01*
X183168502Y-95607728D01*
X183168506Y-95607735D01*
X183254752Y-95722944D01*
X183254755Y-95722947D01*
X183369964Y-95809193D01*
X183369971Y-95809197D01*
X183504817Y-95859491D01*
X183504816Y-95859491D01*
X183511744Y-95860235D01*
X183564427Y-95865900D01*
X184980972Y-95865899D01*
X185040583Y-95859491D01*
X185175431Y-95809196D01*
X185290646Y-95722946D01*
X185376896Y-95607731D01*
X185427191Y-95472883D01*
X185433600Y-95413273D01*
X185433599Y-94994269D01*
X185453283Y-94927233D01*
X185506087Y-94881478D01*
X185575246Y-94871534D01*
X185638802Y-94900559D01*
X185676576Y-94959337D01*
X185680070Y-94974862D01*
X185680382Y-94976834D01*
X185680384Y-94976841D01*
X185680385Y-94976845D01*
X185736852Y-95150631D01*
X185819809Y-95313444D01*
X185927215Y-95461276D01*
X186056424Y-95590485D01*
X186204256Y-95697891D01*
X186367069Y-95780848D01*
X186540855Y-95837315D01*
X186608535Y-95848034D01*
X186721330Y-95865900D01*
X186721335Y-95865900D01*
X186904070Y-95865900D01*
X187004331Y-95850019D01*
X187084545Y-95837315D01*
X187258331Y-95780848D01*
X187421144Y-95697891D01*
X187568976Y-95590485D01*
X187698185Y-95461276D01*
X187805591Y-95313444D01*
X187888548Y-95150631D01*
X187945015Y-94976845D01*
X187954319Y-94918101D01*
X187960227Y-94880802D01*
X187990156Y-94817667D01*
X188049468Y-94780736D01*
X188119330Y-94781734D01*
X188177563Y-94820344D01*
X188205173Y-94880802D01*
X188217612Y-94959337D01*
X188220385Y-94976845D01*
X188276852Y-95150631D01*
X188359809Y-95313444D01*
X188467215Y-95461276D01*
X188596424Y-95590485D01*
X188707298Y-95671039D01*
X188744257Y-95697892D01*
X188793425Y-95722944D01*
X188871795Y-95762875D01*
X188922590Y-95810848D01*
X188939500Y-95873359D01*
X188939500Y-104678156D01*
X188919815Y-104745195D01*
X188888386Y-104778474D01*
X188783721Y-104854517D01*
X188654517Y-104983721D01*
X188547109Y-105131555D01*
X188464153Y-105294366D01*
X188407684Y-105468158D01*
X188392473Y-105564197D01*
X188362544Y-105627332D01*
X188303232Y-105664263D01*
X188233369Y-105663265D01*
X188175137Y-105624655D01*
X188147527Y-105564197D01*
X188137210Y-105499059D01*
X188132315Y-105468155D01*
X188075848Y-105294369D01*
X187992891Y-105131556D01*
X187885485Y-104983724D01*
X187756276Y-104854515D01*
X187608444Y-104747109D01*
X187445631Y-104664152D01*
X187271845Y-104607685D01*
X187271843Y-104607684D01*
X187271841Y-104607684D01*
X187091370Y-104579100D01*
X187091365Y-104579100D01*
X186908635Y-104579100D01*
X186908630Y-104579100D01*
X186780859Y-104599337D01*
X186711566Y-104590382D01*
X186673780Y-104564545D01*
X167095063Y-84985828D01*
X167061578Y-84924505D01*
X167066562Y-84854813D01*
X167108434Y-84798880D01*
X167173898Y-84774463D01*
X167221063Y-84780216D01*
X167248152Y-84789018D01*
X167415351Y-84815500D01*
X167415356Y-84815500D01*
X167584649Y-84815500D01*
X167751847Y-84789018D01*
X167775502Y-84781332D01*
X167912849Y-84736705D01*
X168063685Y-84659850D01*
X168200641Y-84560346D01*
X168320346Y-84440641D01*
X168419850Y-84303685D01*
X168496705Y-84152849D01*
X168549018Y-83991847D01*
X168565429Y-83888233D01*
X168575500Y-83824649D01*
X168575500Y-83655350D01*
X168549018Y-83488152D01*
X168512678Y-83376311D01*
X168496705Y-83327151D01*
X168496703Y-83327148D01*
X168496703Y-83327146D01*
X168466645Y-83268155D01*
X168419850Y-83176315D01*
X168360311Y-83094366D01*
X168320351Y-83039365D01*
X168320347Y-83039360D01*
X168200639Y-82919652D01*
X168200634Y-82919648D01*
X168063688Y-82820152D01*
X168063687Y-82820151D01*
X168063685Y-82820150D01*
X168013024Y-82794337D01*
X167912853Y-82743296D01*
X167751847Y-82690981D01*
X167584649Y-82664500D01*
X167584644Y-82664500D01*
X167415356Y-82664500D01*
X167415351Y-82664500D01*
X167248152Y-82690981D01*
X167087146Y-82743296D01*
X166936311Y-82820152D01*
X166799365Y-82919648D01*
X166799360Y-82919652D01*
X166679652Y-83039360D01*
X166679648Y-83039365D01*
X166580152Y-83176311D01*
X166503296Y-83327146D01*
X166450981Y-83488152D01*
X166424500Y-83655350D01*
X166424500Y-83824649D01*
X166450982Y-83991848D01*
X166450983Y-83991855D01*
X166459783Y-84018938D01*
X166461778Y-84088780D01*
X166425697Y-84148612D01*
X166362995Y-84179439D01*
X166293581Y-84171474D01*
X166254171Y-84144936D01*
X161913819Y-79804584D01*
X161880334Y-79743261D01*
X161877500Y-79716903D01*
X161877500Y-77818960D01*
X161877501Y-77818947D01*
X161877501Y-77650844D01*
X161873118Y-77634486D01*
X161836577Y-77498116D01*
X161813826Y-77458709D01*
X161757524Y-77361190D01*
X161757518Y-77361182D01*
X160885605Y-76489269D01*
X160852120Y-76427946D01*
X160857104Y-76358254D01*
X160898976Y-76302321D01*
X160944345Y-76281013D01*
X160948855Y-76279929D01*
X160948871Y-76279927D01*
X161120756Y-76224078D01*
X161281788Y-76142028D01*
X161393639Y-76060764D01*
X161427996Y-76035803D01*
X161427998Y-76035800D01*
X161428002Y-76035798D01*
X161555798Y-75908002D01*
X161555800Y-75907998D01*
X161555803Y-75907996D01*
X161602385Y-75843879D01*
X161662028Y-75761788D01*
X161744078Y-75600756D01*
X161799927Y-75428871D01*
X161828200Y-75250365D01*
X161828200Y-75069635D01*
X162071800Y-75069635D01*
X162071800Y-75250365D01*
X162074000Y-75264254D01*
X162100072Y-75428867D01*
X162155923Y-75600758D01*
X162237974Y-75761791D01*
X162344196Y-75907996D01*
X162472003Y-76035803D01*
X162608817Y-76135202D01*
X162618212Y-76142028D01*
X162779244Y-76224078D01*
X162951129Y-76279927D01*
X163129635Y-76308200D01*
X163129636Y-76308200D01*
X163310364Y-76308200D01*
X163310365Y-76308200D01*
X163488871Y-76279927D01*
X163660756Y-76224078D01*
X163821788Y-76142028D01*
X163933639Y-76060764D01*
X163967996Y-76035803D01*
X163967998Y-76035800D01*
X163968002Y-76035798D01*
X164095798Y-75908002D01*
X164095800Y-75907998D01*
X164095803Y-75907996D01*
X164142385Y-75843879D01*
X164202028Y-75761788D01*
X164284078Y-75600756D01*
X164339927Y-75428871D01*
X164368200Y-75250365D01*
X164368200Y-75069635D01*
X164611800Y-75069635D01*
X164611800Y-75250365D01*
X164614000Y-75264254D01*
X164640072Y-75428867D01*
X164695923Y-75600758D01*
X164777974Y-75761791D01*
X164884196Y-75907996D01*
X165012003Y-76035803D01*
X165148817Y-76135202D01*
X165158212Y-76142028D01*
X165319244Y-76224078D01*
X165491129Y-76279927D01*
X165669635Y-76308200D01*
X165669636Y-76308200D01*
X165850364Y-76308200D01*
X165850365Y-76308200D01*
X166028871Y-76279927D01*
X166200756Y-76224078D01*
X166361788Y-76142028D01*
X166473639Y-76060764D01*
X166507996Y-76035803D01*
X166507998Y-76035800D01*
X166508002Y-76035798D01*
X166635798Y-75908002D01*
X166635800Y-75907998D01*
X166635803Y-75907996D01*
X166682385Y-75843879D01*
X166742028Y-75761788D01*
X166824078Y-75600756D01*
X166879927Y-75428871D01*
X166908200Y-75250365D01*
X166908200Y-75069635D01*
X167151800Y-75069635D01*
X167151800Y-75250365D01*
X167154000Y-75264254D01*
X167180072Y-75428867D01*
X167235923Y-75600758D01*
X167317974Y-75761791D01*
X167424196Y-75907996D01*
X167552003Y-76035803D01*
X167688817Y-76135202D01*
X167698212Y-76142028D01*
X167859244Y-76224078D01*
X168031129Y-76279927D01*
X168209635Y-76308200D01*
X168209636Y-76308200D01*
X168390364Y-76308200D01*
X168390365Y-76308200D01*
X168568871Y-76279927D01*
X168740756Y-76224078D01*
X168901788Y-76142028D01*
X169013639Y-76060764D01*
X169047996Y-76035803D01*
X169047998Y-76035800D01*
X169048002Y-76035798D01*
X169175798Y-75908002D01*
X169175800Y-75907998D01*
X169175803Y-75907996D01*
X169222385Y-75843879D01*
X169282028Y-75761788D01*
X169364078Y-75600756D01*
X169419927Y-75428871D01*
X169448200Y-75250365D01*
X169448200Y-75069635D01*
X169419927Y-74891129D01*
X169364078Y-74719244D01*
X169282028Y-74558212D01*
X169265346Y-74535251D01*
X169175803Y-74412003D01*
X169047996Y-74284196D01*
X168901791Y-74177974D01*
X168901790Y-74177973D01*
X168901788Y-74177972D01*
X168740756Y-74095922D01*
X168568871Y-74040073D01*
X168568869Y-74040072D01*
X168568867Y-74040072D01*
X168430823Y-74018208D01*
X168390365Y-74011800D01*
X168209635Y-74011800D01*
X168169177Y-74018208D01*
X168031132Y-74040072D01*
X167859241Y-74095923D01*
X167698208Y-74177974D01*
X167552003Y-74284196D01*
X167424196Y-74412003D01*
X167317974Y-74558208D01*
X167235923Y-74719241D01*
X167180072Y-74891132D01*
X167154672Y-75051500D01*
X167151800Y-75069635D01*
X166908200Y-75069635D01*
X166879927Y-74891129D01*
X166824078Y-74719244D01*
X166742028Y-74558212D01*
X166725346Y-74535251D01*
X166635803Y-74412003D01*
X166507996Y-74284196D01*
X166361791Y-74177974D01*
X166361790Y-74177973D01*
X166361788Y-74177972D01*
X166200756Y-74095922D01*
X166028871Y-74040073D01*
X166028869Y-74040072D01*
X166028867Y-74040072D01*
X165890823Y-74018208D01*
X165850365Y-74011800D01*
X165669635Y-74011800D01*
X165629177Y-74018208D01*
X165491132Y-74040072D01*
X165319241Y-74095923D01*
X165158208Y-74177974D01*
X165012003Y-74284196D01*
X164884196Y-74412003D01*
X164777974Y-74558208D01*
X164695923Y-74719241D01*
X164640072Y-74891132D01*
X164614672Y-75051500D01*
X164611800Y-75069635D01*
X164368200Y-75069635D01*
X164339927Y-74891129D01*
X164284078Y-74719244D01*
X164202028Y-74558212D01*
X164185346Y-74535251D01*
X164095803Y-74412003D01*
X163967996Y-74284196D01*
X163821791Y-74177974D01*
X163821790Y-74177973D01*
X163821788Y-74177972D01*
X163660756Y-74095922D01*
X163488871Y-74040073D01*
X163488869Y-74040072D01*
X163488867Y-74040072D01*
X163350823Y-74018208D01*
X163310365Y-74011800D01*
X163129635Y-74011800D01*
X163089177Y-74018208D01*
X162951132Y-74040072D01*
X162779241Y-74095923D01*
X162618208Y-74177974D01*
X162472003Y-74284196D01*
X162344196Y-74412003D01*
X162237974Y-74558208D01*
X162155923Y-74719241D01*
X162100072Y-74891132D01*
X162074672Y-75051500D01*
X162071800Y-75069635D01*
X161828200Y-75069635D01*
X161799927Y-74891129D01*
X161744078Y-74719244D01*
X161662028Y-74558212D01*
X161645346Y-74535251D01*
X161555803Y-74412003D01*
X161427996Y-74284196D01*
X161281791Y-74177974D01*
X161281790Y-74177973D01*
X161281788Y-74177972D01*
X161120756Y-74095922D01*
X160948871Y-74040073D01*
X160948869Y-74040072D01*
X160948867Y-74040072D01*
X160810823Y-74018208D01*
X160770365Y-74011800D01*
X160589635Y-74011800D01*
X160549177Y-74018208D01*
X160411132Y-74040072D01*
X160239241Y-74095923D01*
X160078208Y-74177974D01*
X159932003Y-74284196D01*
X159804196Y-74412003D01*
X159789899Y-74431682D01*
X159734568Y-74474346D01*
X159664955Y-74480324D01*
X159603161Y-74447716D01*
X159582195Y-74420793D01*
X159577117Y-74411998D01*
X159569220Y-74398319D01*
X153290886Y-68119986D01*
X153290885Y-68119984D01*
X153179081Y-68008180D01*
X153169417Y-68002600D01*
X153158416Y-67991947D01*
X153158107Y-67991402D01*
X153156998Y-67990551D01*
X153100147Y-67933700D01*
X153111832Y-67933700D01*
X153211962Y-67906870D01*
X153301737Y-67855038D01*
X153375038Y-67781737D01*
X153426870Y-67691962D01*
X153453700Y-67591832D01*
X153453700Y-67580147D01*
X154030439Y-68156887D01*
X154030440Y-68156886D01*
X154041597Y-68141532D01*
X154041599Y-68141528D01*
X154123613Y-67980566D01*
X154179440Y-67808750D01*
X154205747Y-67642659D01*
X154205747Y-67449635D01*
X154451800Y-67449635D01*
X154451800Y-67630365D01*
X154453747Y-67642657D01*
X154453747Y-67642658D01*
X154480053Y-67808750D01*
X154480073Y-67808871D01*
X154535922Y-67980756D01*
X154613438Y-68132890D01*
X154617974Y-68141791D01*
X154724196Y-68287996D01*
X154852003Y-68415803D01*
X154988817Y-68515202D01*
X154998212Y-68522028D01*
X155159244Y-68604078D01*
X155331129Y-68659927D01*
X155509635Y-68688200D01*
X155509636Y-68688200D01*
X155690364Y-68688200D01*
X155690365Y-68688200D01*
X155868871Y-68659927D01*
X156040756Y-68604078D01*
X156201788Y-68522028D01*
X156283879Y-68462385D01*
X156347996Y-68415803D01*
X156347998Y-68415800D01*
X156348002Y-68415798D01*
X156475798Y-68288002D01*
X156475800Y-68287998D01*
X156475803Y-68287996D01*
X156528558Y-68215383D01*
X156582028Y-68141788D01*
X156664078Y-67980756D01*
X156719927Y-67808871D01*
X156748200Y-67630365D01*
X156748200Y-67449635D01*
X156991800Y-67449635D01*
X156991800Y-67630365D01*
X156994000Y-67644254D01*
X157020053Y-67808750D01*
X157020073Y-67808871D01*
X157075922Y-67980756D01*
X157153438Y-68132890D01*
X157157974Y-68141791D01*
X157264196Y-68287996D01*
X157392003Y-68415803D01*
X157528817Y-68515202D01*
X157538212Y-68522028D01*
X157699244Y-68604078D01*
X157871129Y-68659927D01*
X158049635Y-68688200D01*
X158049636Y-68688200D01*
X158230364Y-68688200D01*
X158230365Y-68688200D01*
X158408871Y-68659927D01*
X158580756Y-68604078D01*
X158741788Y-68522028D01*
X158823879Y-68462385D01*
X158887996Y-68415803D01*
X158887998Y-68415800D01*
X158888002Y-68415798D01*
X159015798Y-68288002D01*
X159015800Y-68287998D01*
X159015803Y-68287996D01*
X159068558Y-68215383D01*
X159122028Y-68141788D01*
X159204078Y-67980756D01*
X159259927Y-67808871D01*
X159288200Y-67630365D01*
X159288200Y-67449635D01*
X159531800Y-67449635D01*
X159531800Y-67630365D01*
X159534000Y-67644254D01*
X159560053Y-67808750D01*
X159560073Y-67808871D01*
X159615922Y-67980756D01*
X159693438Y-68132890D01*
X159697974Y-68141791D01*
X159804196Y-68287996D01*
X159932003Y-68415803D01*
X160068817Y-68515202D01*
X160078212Y-68522028D01*
X160239244Y-68604078D01*
X160411129Y-68659927D01*
X160589635Y-68688200D01*
X160589636Y-68688200D01*
X160770364Y-68688200D01*
X160770365Y-68688200D01*
X160948871Y-68659927D01*
X161120756Y-68604078D01*
X161281788Y-68522028D01*
X161363879Y-68462385D01*
X161427996Y-68415803D01*
X161427998Y-68415800D01*
X161428002Y-68415798D01*
X161555798Y-68288002D01*
X161555800Y-68287998D01*
X161555803Y-68287996D01*
X161608558Y-68215383D01*
X161662028Y-68141788D01*
X161744078Y-67980756D01*
X161799927Y-67808871D01*
X161828200Y-67630365D01*
X161828200Y-67449635D01*
X162071800Y-67449635D01*
X162071800Y-67630365D01*
X162074000Y-67644254D01*
X162100053Y-67808750D01*
X162100073Y-67808871D01*
X162155922Y-67980756D01*
X162233438Y-68132890D01*
X162237974Y-68141791D01*
X162344196Y-68287996D01*
X162472003Y-68415803D01*
X162608817Y-68515202D01*
X162618212Y-68522028D01*
X162779244Y-68604078D01*
X162951129Y-68659927D01*
X163129635Y-68688200D01*
X163129636Y-68688200D01*
X163310364Y-68688200D01*
X163310365Y-68688200D01*
X163488871Y-68659927D01*
X163660756Y-68604078D01*
X163821788Y-68522028D01*
X163903879Y-68462385D01*
X163967996Y-68415803D01*
X163967998Y-68415800D01*
X163968002Y-68415798D01*
X164095798Y-68288002D01*
X164095800Y-68287998D01*
X164095803Y-68287996D01*
X164148558Y-68215383D01*
X164202028Y-68141788D01*
X164284078Y-67980756D01*
X164339927Y-67808871D01*
X164368200Y-67630365D01*
X164368200Y-67449635D01*
X164611800Y-67449635D01*
X164611800Y-67630365D01*
X164614000Y-67644254D01*
X164640053Y-67808750D01*
X164640073Y-67808871D01*
X164695922Y-67980756D01*
X164773438Y-68132890D01*
X164777974Y-68141791D01*
X164884196Y-68287996D01*
X165012003Y-68415803D01*
X165148817Y-68515202D01*
X165158212Y-68522028D01*
X165319244Y-68604078D01*
X165491129Y-68659927D01*
X165669635Y-68688200D01*
X165669636Y-68688200D01*
X165850364Y-68688200D01*
X165850365Y-68688200D01*
X166028871Y-68659927D01*
X166200756Y-68604078D01*
X166361788Y-68522028D01*
X166443879Y-68462385D01*
X166507996Y-68415803D01*
X166507998Y-68415800D01*
X166508002Y-68415798D01*
X166635798Y-68288002D01*
X166635800Y-68287998D01*
X166635803Y-68287996D01*
X166688558Y-68215383D01*
X166742028Y-68141788D01*
X166824078Y-67980756D01*
X166879927Y-67808871D01*
X166908200Y-67630365D01*
X166908200Y-67449635D01*
X167151800Y-67449635D01*
X167151800Y-67630365D01*
X167154000Y-67644254D01*
X167180053Y-67808750D01*
X167180073Y-67808871D01*
X167235922Y-67980756D01*
X167313438Y-68132890D01*
X167317974Y-68141791D01*
X167424196Y-68287996D01*
X167552003Y-68415803D01*
X167688817Y-68515202D01*
X167698212Y-68522028D01*
X167859244Y-68604078D01*
X168031129Y-68659927D01*
X168209635Y-68688200D01*
X168209636Y-68688200D01*
X168390364Y-68688200D01*
X168390365Y-68688200D01*
X168568871Y-68659927D01*
X168740756Y-68604078D01*
X168901788Y-68522028D01*
X168983879Y-68462385D01*
X169047996Y-68415803D01*
X169047998Y-68415800D01*
X169048002Y-68415798D01*
X169175798Y-68288002D01*
X169175800Y-68287998D01*
X169175803Y-68287996D01*
X169228558Y-68215383D01*
X169282028Y-68141788D01*
X169364078Y-67980756D01*
X169419927Y-67808871D01*
X169448200Y-67630365D01*
X169448200Y-67449635D01*
X169419927Y-67271129D01*
X169364078Y-67099244D01*
X169282028Y-66938212D01*
X169270611Y-66922498D01*
X169175803Y-66792003D01*
X169047996Y-66664196D01*
X168901791Y-66557974D01*
X168901790Y-66557973D01*
X168901788Y-66557972D01*
X168740756Y-66475922D01*
X168568871Y-66420073D01*
X168568869Y-66420072D01*
X168568867Y-66420072D01*
X168444232Y-66400331D01*
X168390365Y-66391800D01*
X168209635Y-66391800D01*
X168168254Y-66398354D01*
X168031132Y-66420072D01*
X168031129Y-66420073D01*
X167921512Y-66455690D01*
X167859241Y-66475923D01*
X167698208Y-66557974D01*
X167552003Y-66664196D01*
X167424196Y-66792003D01*
X167317974Y-66938208D01*
X167235923Y-67099241D01*
X167180072Y-67271132D01*
X167157804Y-67411728D01*
X167151800Y-67449635D01*
X166908200Y-67449635D01*
X166901900Y-67409862D01*
X166890132Y-67335559D01*
X166879927Y-67271129D01*
X166824078Y-67099244D01*
X166742028Y-66938212D01*
X166730611Y-66922498D01*
X166635803Y-66792003D01*
X166507996Y-66664196D01*
X166361791Y-66557974D01*
X166361790Y-66557973D01*
X166361788Y-66557972D01*
X166200756Y-66475922D01*
X166028871Y-66420073D01*
X166028869Y-66420072D01*
X166028867Y-66420072D01*
X165904232Y-66400331D01*
X165850365Y-66391800D01*
X165669635Y-66391800D01*
X165628254Y-66398354D01*
X165491132Y-66420072D01*
X165491129Y-66420073D01*
X165381512Y-66455690D01*
X165319241Y-66475923D01*
X165158208Y-66557974D01*
X165012003Y-66664196D01*
X164884196Y-66792003D01*
X164777974Y-66938208D01*
X164695923Y-67099241D01*
X164640072Y-67271132D01*
X164617804Y-67411728D01*
X164611800Y-67449635D01*
X164368200Y-67449635D01*
X164361900Y-67409862D01*
X164350132Y-67335559D01*
X164339927Y-67271129D01*
X164284078Y-67099244D01*
X164202028Y-66938212D01*
X164190611Y-66922498D01*
X164095803Y-66792003D01*
X163967996Y-66664196D01*
X163821791Y-66557974D01*
X163821790Y-66557973D01*
X163821788Y-66557972D01*
X163660756Y-66475922D01*
X163488871Y-66420073D01*
X163488869Y-66420072D01*
X163488867Y-66420072D01*
X163364232Y-66400331D01*
X163310365Y-66391800D01*
X163129635Y-66391800D01*
X163088254Y-66398354D01*
X162951132Y-66420072D01*
X162951129Y-66420073D01*
X162841512Y-66455690D01*
X162779241Y-66475923D01*
X162618208Y-66557974D01*
X162472003Y-66664196D01*
X162344196Y-66792003D01*
X162237974Y-66938208D01*
X162155923Y-67099241D01*
X162100072Y-67271132D01*
X162077804Y-67411728D01*
X162071800Y-67449635D01*
X161828200Y-67449635D01*
X161821900Y-67409862D01*
X161810132Y-67335559D01*
X161799927Y-67271129D01*
X161744078Y-67099244D01*
X161662028Y-66938212D01*
X161650611Y-66922498D01*
X161555803Y-66792003D01*
X161427996Y-66664196D01*
X161281791Y-66557974D01*
X161281790Y-66557973D01*
X161281788Y-66557972D01*
X161120756Y-66475922D01*
X160948871Y-66420073D01*
X160948869Y-66420072D01*
X160948867Y-66420072D01*
X160824232Y-66400331D01*
X160770365Y-66391800D01*
X160589635Y-66391800D01*
X160548254Y-66398354D01*
X160411132Y-66420072D01*
X160411129Y-66420073D01*
X160301512Y-66455690D01*
X160239241Y-66475923D01*
X160078208Y-66557974D01*
X159932003Y-66664196D01*
X159804196Y-66792003D01*
X159697974Y-66938208D01*
X159615923Y-67099241D01*
X159560072Y-67271132D01*
X159537804Y-67411728D01*
X159531800Y-67449635D01*
X159288200Y-67449635D01*
X159281900Y-67409862D01*
X159270132Y-67335559D01*
X159259927Y-67271129D01*
X159204078Y-67099244D01*
X159122028Y-66938212D01*
X159110611Y-66922498D01*
X159015803Y-66792003D01*
X158887996Y-66664196D01*
X158741791Y-66557974D01*
X158741790Y-66557973D01*
X158741788Y-66557972D01*
X158580756Y-66475922D01*
X158408871Y-66420073D01*
X158408869Y-66420072D01*
X158408867Y-66420072D01*
X158284232Y-66400331D01*
X158230365Y-66391800D01*
X158049635Y-66391800D01*
X158008254Y-66398354D01*
X157871132Y-66420072D01*
X157871129Y-66420073D01*
X157761512Y-66455690D01*
X157699241Y-66475923D01*
X157538208Y-66557974D01*
X157392003Y-66664196D01*
X157264196Y-66792003D01*
X157157974Y-66938208D01*
X157075923Y-67099241D01*
X157020072Y-67271132D01*
X156997804Y-67411728D01*
X156991800Y-67449635D01*
X156748200Y-67449635D01*
X156741900Y-67409862D01*
X156730132Y-67335559D01*
X156719927Y-67271129D01*
X156664078Y-67099244D01*
X156582028Y-66938212D01*
X156570611Y-66922498D01*
X156475803Y-66792003D01*
X156347996Y-66664196D01*
X156201791Y-66557974D01*
X156201790Y-66557973D01*
X156201788Y-66557972D01*
X156040756Y-66475922D01*
X155868871Y-66420073D01*
X155868869Y-66420072D01*
X155868867Y-66420072D01*
X155744232Y-66400331D01*
X155690365Y-66391800D01*
X155509635Y-66391800D01*
X155468254Y-66398354D01*
X155331132Y-66420072D01*
X155331129Y-66420073D01*
X155221512Y-66455690D01*
X155159241Y-66475923D01*
X154998208Y-66557974D01*
X154852003Y-66664196D01*
X154724196Y-66792003D01*
X154617974Y-66938208D01*
X154535923Y-67099241D01*
X154480072Y-67271132D01*
X154453747Y-67437340D01*
X154451800Y-67449635D01*
X154205747Y-67449635D01*
X154205747Y-67437339D01*
X154179440Y-67271249D01*
X154123613Y-67099433D01*
X154041602Y-66938477D01*
X154030439Y-66923112D01*
X153453700Y-67499851D01*
X153453700Y-67488168D01*
X153426870Y-67388038D01*
X153375038Y-67298263D01*
X153301737Y-67224962D01*
X153211962Y-67173130D01*
X153111832Y-67146300D01*
X153100147Y-67146300D01*
X153676886Y-66569559D01*
X153676886Y-66569558D01*
X153661529Y-66558401D01*
X153500566Y-66476386D01*
X153328750Y-66420559D01*
X153150331Y-66392300D01*
X152969669Y-66392300D01*
X152791249Y-66420559D01*
X152619433Y-66476386D01*
X152458476Y-66558397D01*
X152458472Y-66558400D01*
X152443112Y-66569558D01*
X152443112Y-66569559D01*
X153019854Y-67146300D01*
X153008168Y-67146300D01*
X152908038Y-67173130D01*
X152818263Y-67224962D01*
X152744962Y-67298263D01*
X152693130Y-67388038D01*
X152666300Y-67488168D01*
X152666300Y-67499853D01*
X152089559Y-66923112D01*
X152089558Y-66923112D01*
X152078400Y-66938472D01*
X152078397Y-66938476D01*
X151996386Y-67099433D01*
X151940559Y-67271249D01*
X151912300Y-67449668D01*
X151912300Y-67630330D01*
X151930431Y-67744801D01*
X151921477Y-67814095D01*
X151876481Y-67867547D01*
X151809729Y-67888187D01*
X151807958Y-67888200D01*
X148102989Y-67888200D01*
X148035950Y-67868515D01*
X148034097Y-67867301D01*
X147979187Y-67830610D01*
X147979172Y-67830602D01*
X147833501Y-67770264D01*
X147833491Y-67770261D01*
X147678149Y-67739361D01*
X147616238Y-67706976D01*
X147614660Y-67705425D01*
X144814748Y-64905513D01*
X174999500Y-64905513D01*
X174999500Y-65094486D01*
X175029059Y-65281118D01*
X175087454Y-65460836D01*
X175146296Y-65576319D01*
X175173240Y-65629199D01*
X175284310Y-65782073D01*
X175417927Y-65915690D01*
X175570801Y-66026760D01*
X175644187Y-66064152D01*
X175739163Y-66112545D01*
X175739165Y-66112545D01*
X175739168Y-66112547D01*
X175835497Y-66143846D01*
X175918881Y-66170940D01*
X176105514Y-66200500D01*
X176105519Y-66200500D01*
X176294486Y-66200500D01*
X176481118Y-66170940D01*
X176486476Y-66169199D01*
X176660832Y-66112547D01*
X176829199Y-66026760D01*
X176982073Y-65915690D01*
X177115690Y-65782073D01*
X177226760Y-65629199D01*
X177312547Y-65460832D01*
X177370940Y-65281118D01*
X177381594Y-65213852D01*
X177400500Y-65094486D01*
X177400500Y-64905513D01*
X177370940Y-64718881D01*
X177333125Y-64602500D01*
X177312547Y-64539168D01*
X177312545Y-64539165D01*
X177312545Y-64539163D01*
X177255626Y-64427454D01*
X177226760Y-64370801D01*
X177115690Y-64217927D01*
X176982073Y-64084310D01*
X176829199Y-63973240D01*
X176660836Y-63887454D01*
X176481118Y-63829059D01*
X176294486Y-63799500D01*
X176294481Y-63799500D01*
X176105519Y-63799500D01*
X176105514Y-63799500D01*
X175918881Y-63829059D01*
X175739163Y-63887454D01*
X175570800Y-63973240D01*
X175483579Y-64036610D01*
X175417927Y-64084310D01*
X175417925Y-64084312D01*
X175417924Y-64084312D01*
X175284312Y-64217924D01*
X175284312Y-64217925D01*
X175284310Y-64217927D01*
X175236610Y-64283579D01*
X175173240Y-64370800D01*
X175087454Y-64539163D01*
X175029059Y-64718881D01*
X174999500Y-64905513D01*
X144814748Y-64905513D01*
X143663762Y-63754527D01*
X143630277Y-63693204D01*
X143630843Y-63640478D01*
X143630651Y-63640448D01*
X143630857Y-63639143D01*
X143630871Y-63637891D01*
X143631409Y-63635646D01*
X143631413Y-63635636D01*
X143662500Y-63439361D01*
X143662500Y-63240639D01*
X143631413Y-63044364D01*
X143570005Y-62855368D01*
X143570005Y-62855367D01*
X143479786Y-62678305D01*
X143362981Y-62517536D01*
X143222464Y-62377019D01*
X143061694Y-62260213D01*
X142884632Y-62169994D01*
X142884629Y-62169993D01*
X142695637Y-62108587D01*
X142597498Y-62093043D01*
X142499361Y-62077500D01*
X142300639Y-62077500D01*
X142235214Y-62087862D01*
X142104362Y-62108587D01*
X141915370Y-62169993D01*
X141915367Y-62169994D01*
X141738305Y-62260213D01*
X141577533Y-62377021D01*
X141437021Y-62517533D01*
X141320213Y-62678305D01*
X141240485Y-62834780D01*
X141192510Y-62885576D01*
X141124689Y-62902371D01*
X141058554Y-62879833D01*
X141019515Y-62834780D01*
X140939786Y-62678305D01*
X140822981Y-62517536D01*
X140682464Y-62377019D01*
X140521694Y-62260213D01*
X140344632Y-62169994D01*
X140344629Y-62169993D01*
X140155637Y-62108587D01*
X140057498Y-62093043D01*
X139959361Y-62077500D01*
X139760639Y-62077500D01*
X139695214Y-62087862D01*
X139564362Y-62108587D01*
X139375370Y-62169993D01*
X139375367Y-62169994D01*
X139198305Y-62260213D01*
X139037533Y-62377021D01*
X138897021Y-62517533D01*
X138780213Y-62678305D01*
X138700485Y-62834780D01*
X138652510Y-62885576D01*
X138584689Y-62902371D01*
X138518554Y-62879833D01*
X138479515Y-62834780D01*
X138399786Y-62678305D01*
X138282981Y-62517536D01*
X138142464Y-62377019D01*
X137981694Y-62260213D01*
X137804632Y-62169994D01*
X137804629Y-62169993D01*
X137615637Y-62108587D01*
X137517498Y-62093043D01*
X137419361Y-62077500D01*
X137220639Y-62077500D01*
X137155214Y-62087862D01*
X137024362Y-62108587D01*
X136835370Y-62169993D01*
X136835367Y-62169994D01*
X136658305Y-62260213D01*
X136497533Y-62377021D01*
X136357021Y-62517533D01*
X136240213Y-62678305D01*
X136160485Y-62834780D01*
X136112510Y-62885576D01*
X136044689Y-62902371D01*
X135978554Y-62879833D01*
X135939515Y-62834780D01*
X135859786Y-62678305D01*
X135742981Y-62517536D01*
X135602464Y-62377019D01*
X135441694Y-62260213D01*
X135264632Y-62169994D01*
X135264629Y-62169993D01*
X135075637Y-62108587D01*
X134977498Y-62093043D01*
X134879361Y-62077500D01*
X134680639Y-62077500D01*
X134615214Y-62087862D01*
X134484362Y-62108587D01*
X134295370Y-62169993D01*
X134295367Y-62169994D01*
X134118305Y-62260213D01*
X133957533Y-62377021D01*
X133817021Y-62517533D01*
X133700213Y-62678305D01*
X133609994Y-62855367D01*
X133609993Y-62855370D01*
X133548587Y-63044362D01*
X133517500Y-63240639D01*
X133517500Y-63439360D01*
X133548587Y-63635637D01*
X133609993Y-63824629D01*
X133609994Y-63824632D01*
X133685715Y-63973240D01*
X133700213Y-64001694D01*
X133817019Y-64162464D01*
X133957536Y-64302981D01*
X134118306Y-64419787D01*
X134179500Y-64450967D01*
X134295367Y-64510005D01*
X134295370Y-64510006D01*
X134363419Y-64532116D01*
X134484364Y-64571413D01*
X134680639Y-64602500D01*
X134680640Y-64602500D01*
X134879360Y-64602500D01*
X134879361Y-64602500D01*
X135075636Y-64571413D01*
X135264632Y-64510005D01*
X135441694Y-64419787D01*
X135602464Y-64302981D01*
X135742981Y-64162464D01*
X135859787Y-64001694D01*
X135939515Y-63845218D01*
X135987490Y-63794423D01*
X136055311Y-63777628D01*
X136121446Y-63800165D01*
X136160484Y-63845218D01*
X136240213Y-64001694D01*
X136357019Y-64162464D01*
X136497536Y-64302981D01*
X136658306Y-64419787D01*
X136719500Y-64450967D01*
X136835367Y-64510005D01*
X136835370Y-64510006D01*
X136903419Y-64532116D01*
X137024364Y-64571413D01*
X137220639Y-64602500D01*
X137220640Y-64602500D01*
X137419360Y-64602500D01*
X137419361Y-64602500D01*
X137615636Y-64571413D01*
X137804632Y-64510005D01*
X137981694Y-64419787D01*
X138142464Y-64302981D01*
X138282981Y-64162464D01*
X138399787Y-64001694D01*
X138479515Y-63845218D01*
X138527490Y-63794423D01*
X138595311Y-63777628D01*
X138661446Y-63800165D01*
X138700484Y-63845218D01*
X138780213Y-64001694D01*
X138897019Y-64162464D01*
X139037536Y-64302981D01*
X139198305Y-64419786D01*
X139198309Y-64419789D01*
X139200285Y-64421000D01*
X139200878Y-64421656D01*
X139202248Y-64422651D01*
X139202039Y-64422938D01*
X139247163Y-64472810D01*
X139259500Y-64526730D01*
X139259500Y-69773270D01*
X139239815Y-69840309D01*
X139202133Y-69877191D01*
X139202248Y-69877349D01*
X139201176Y-69878127D01*
X139200285Y-69879000D01*
X139198309Y-69880210D01*
X139037533Y-69997021D01*
X138897021Y-70137533D01*
X138780213Y-70298305D01*
X138700485Y-70454780D01*
X138652510Y-70505576D01*
X138584689Y-70522371D01*
X138518554Y-70499833D01*
X138479515Y-70454780D01*
X138431791Y-70361118D01*
X138399787Y-70298306D01*
X138282981Y-70137536D01*
X138142464Y-69997019D01*
X137981694Y-69880213D01*
X137975508Y-69877061D01*
X137804632Y-69789994D01*
X137804629Y-69789993D01*
X137615637Y-69728587D01*
X137517498Y-69713043D01*
X137419361Y-69697500D01*
X137220639Y-69697500D01*
X137155214Y-69707862D01*
X137024362Y-69728587D01*
X136835370Y-69789993D01*
X136835367Y-69789994D01*
X136658305Y-69880213D01*
X136497533Y-69997021D01*
X136357021Y-70137533D01*
X136357021Y-70137534D01*
X136357019Y-70137536D01*
X136319772Y-70188802D01*
X136266817Y-70261688D01*
X136211487Y-70304353D01*
X136141873Y-70310332D01*
X136080078Y-70277726D01*
X136045721Y-70216887D01*
X136042499Y-70188802D01*
X136042499Y-70150129D01*
X136042498Y-70150123D01*
X136042497Y-70150116D01*
X136036091Y-70090517D01*
X136034283Y-70085670D01*
X135985797Y-69955671D01*
X135985793Y-69955664D01*
X135899547Y-69840455D01*
X135899544Y-69840452D01*
X135784335Y-69754206D01*
X135784328Y-69754202D01*
X135649482Y-69703908D01*
X135649483Y-69703908D01*
X135589883Y-69697501D01*
X135589881Y-69697500D01*
X135589873Y-69697500D01*
X135589864Y-69697500D01*
X133970129Y-69697500D01*
X133970123Y-69697501D01*
X133910516Y-69703908D01*
X133775671Y-69754202D01*
X133775664Y-69754206D01*
X133660455Y-69840452D01*
X133660452Y-69840455D01*
X133574206Y-69955664D01*
X133574202Y-69955671D01*
X133523908Y-70090517D01*
X133517501Y-70150116D01*
X133517501Y-70150123D01*
X133517500Y-70150135D01*
X133517500Y-71769870D01*
X133517501Y-71769876D01*
X133523908Y-71829483D01*
X133574202Y-71964328D01*
X133574206Y-71964335D01*
X133660452Y-72079544D01*
X133660455Y-72079547D01*
X133775664Y-72165793D01*
X133775671Y-72165797D01*
X133910517Y-72216091D01*
X133910516Y-72216091D01*
X133917444Y-72216835D01*
X133970127Y-72222500D01*
X134908902Y-72222499D01*
X134975941Y-72242183D01*
X135021696Y-72294987D01*
X135031640Y-72364146D01*
X135002615Y-72427702D01*
X134996583Y-72434180D01*
X131457680Y-75973083D01*
X131396357Y-76006568D01*
X131326665Y-76001584D01*
X131282318Y-75973083D01*
X127374240Y-72065005D01*
X127340755Y-72003682D01*
X127345739Y-71933990D01*
X127387611Y-71878057D01*
X127453075Y-71853640D01*
X127500236Y-71859392D01*
X127611043Y-71895396D01*
X127658881Y-71910940D01*
X127845514Y-71940500D01*
X127845519Y-71940500D01*
X128034486Y-71940500D01*
X128221118Y-71910940D01*
X128222623Y-71910451D01*
X128400832Y-71852547D01*
X128569199Y-71766760D01*
X128722073Y-71655690D01*
X128855690Y-71522073D01*
X128966760Y-71369199D01*
X129052547Y-71200832D01*
X129110940Y-71021118D01*
X129121427Y-70954905D01*
X129140500Y-70834486D01*
X129140500Y-70645513D01*
X129110940Y-70458881D01*
X129079174Y-70361118D01*
X129052547Y-70279168D01*
X129052545Y-70279165D01*
X129052545Y-70279163D01*
X128999206Y-70174481D01*
X128966760Y-70110801D01*
X128855690Y-69957927D01*
X128722073Y-69824310D01*
X128569199Y-69713240D01*
X128550884Y-69703908D01*
X128400836Y-69627454D01*
X128221118Y-69569059D01*
X128034486Y-69539500D01*
X128034481Y-69539500D01*
X127845519Y-69539500D01*
X127845514Y-69539500D01*
X127658881Y-69569059D01*
X127479163Y-69627454D01*
X127310800Y-69713240D01*
X127254422Y-69754202D01*
X127157927Y-69824310D01*
X127157925Y-69824312D01*
X127157924Y-69824312D01*
X127024312Y-69957924D01*
X127024312Y-69957925D01*
X127024310Y-69957927D01*
X126976610Y-70023579D01*
X126913240Y-70110800D01*
X126827454Y-70279163D01*
X126769059Y-70458881D01*
X126739500Y-70645513D01*
X126739500Y-70834486D01*
X126769059Y-71021118D01*
X126820606Y-71179759D01*
X126822601Y-71249601D01*
X126786521Y-71309434D01*
X126723820Y-71340262D01*
X126654406Y-71332298D01*
X126614994Y-71305759D01*
X122045154Y-66735919D01*
X122011669Y-66674596D01*
X122016653Y-66604904D01*
X122058525Y-66548971D01*
X122123989Y-66524554D01*
X122192262Y-66539406D01*
X122205720Y-66547920D01*
X122231059Y-66566329D01*
X122399362Y-66652085D01*
X122578997Y-66710451D01*
X122765553Y-66740000D01*
X122954447Y-66740000D01*
X123141002Y-66710451D01*
X123320637Y-66652085D01*
X123488937Y-66566331D01*
X123514328Y-66547883D01*
X123514328Y-66547882D01*
X122856446Y-65890000D01*
X122906078Y-65890000D01*
X122995095Y-65866148D01*
X123074905Y-65820070D01*
X123140070Y-65754905D01*
X123186148Y-65675095D01*
X123210000Y-65586078D01*
X123210000Y-65539999D01*
X123213554Y-65539999D01*
X123213554Y-65540000D01*
X123867882Y-66194328D01*
X123867883Y-66194328D01*
X123886331Y-66168937D01*
X123972085Y-66000637D01*
X124030451Y-65821002D01*
X124060000Y-65634447D01*
X124060000Y-65445552D01*
X124059994Y-65445513D01*
X126739500Y-65445513D01*
X126739500Y-65634486D01*
X126769059Y-65821118D01*
X126827454Y-66000836D01*
X126913106Y-66168936D01*
X126913240Y-66169199D01*
X127024310Y-66322073D01*
X127157927Y-66455690D01*
X127310801Y-66566760D01*
X127385663Y-66604904D01*
X127479163Y-66652545D01*
X127479165Y-66652545D01*
X127479168Y-66652547D01*
X127575497Y-66683846D01*
X127658881Y-66710940D01*
X127845514Y-66740500D01*
X127845519Y-66740500D01*
X128034486Y-66740500D01*
X128221118Y-66710940D01*
X128222623Y-66710451D01*
X128400832Y-66652547D01*
X128569199Y-66566760D01*
X128722073Y-66455690D01*
X128855690Y-66322073D01*
X128966760Y-66169199D01*
X129052547Y-66000832D01*
X129110940Y-65821118D01*
X129130427Y-65698081D01*
X129140500Y-65634486D01*
X129140500Y-65445513D01*
X129110940Y-65258881D01*
X129057524Y-65094486D01*
X129052547Y-65079168D01*
X129052545Y-65079165D01*
X129052545Y-65079163D01*
X129007290Y-64990347D01*
X128966760Y-64910801D01*
X128855690Y-64757927D01*
X128722073Y-64624310D01*
X128569199Y-64513240D01*
X128562850Y-64510005D01*
X128400836Y-64427454D01*
X128221118Y-64369059D01*
X128034486Y-64339500D01*
X128034481Y-64339500D01*
X127845519Y-64339500D01*
X127845514Y-64339500D01*
X127658881Y-64369059D01*
X127479163Y-64427454D01*
X127310800Y-64513240D01*
X127231300Y-64571001D01*
X127157927Y-64624310D01*
X127157925Y-64624312D01*
X127157924Y-64624312D01*
X127024312Y-64757924D01*
X127024312Y-64757925D01*
X127024310Y-64757927D01*
X126976610Y-64823579D01*
X126913240Y-64910800D01*
X126827454Y-65079163D01*
X126769059Y-65258881D01*
X126739500Y-65445513D01*
X124059994Y-65445513D01*
X124030451Y-65258997D01*
X123972085Y-65079362D01*
X123886329Y-64911059D01*
X123867883Y-64885670D01*
X123867882Y-64885669D01*
X123213554Y-65539999D01*
X123210000Y-65539999D01*
X123210000Y-65493922D01*
X123186148Y-65404905D01*
X123140070Y-65325095D01*
X123074905Y-65259930D01*
X122995095Y-65213852D01*
X122906078Y-65190000D01*
X122813922Y-65190000D01*
X122724905Y-65213852D01*
X122645095Y-65259930D01*
X122579930Y-65325095D01*
X122533852Y-65404905D01*
X122510000Y-65493922D01*
X122510000Y-65543553D01*
X121852116Y-64885669D01*
X121852116Y-64885670D01*
X121833669Y-64911060D01*
X121747914Y-65079362D01*
X121689548Y-65258997D01*
X121660000Y-65445552D01*
X121660000Y-65634447D01*
X121689548Y-65821002D01*
X121747914Y-66000637D01*
X121833667Y-66168936D01*
X121852080Y-66194279D01*
X121875559Y-66260086D01*
X121859733Y-66328140D01*
X121809627Y-66376834D01*
X121741149Y-66390709D01*
X121676040Y-66365359D01*
X121664080Y-66354845D01*
X121126190Y-65816955D01*
X121126188Y-65816952D01*
X121007317Y-65698081D01*
X121007316Y-65698080D01*
X120920504Y-65647960D01*
X120920504Y-65647959D01*
X120920500Y-65647958D01*
X120870385Y-65619023D01*
X120717657Y-65578099D01*
X120559543Y-65578099D01*
X120551947Y-65578099D01*
X120551931Y-65578100D01*
X113308069Y-65578100D01*
X113308053Y-65578099D01*
X113300457Y-65578099D01*
X113142343Y-65578099D01*
X113034987Y-65606865D01*
X112989610Y-65619024D01*
X112989609Y-65619025D01*
X112939496Y-65647959D01*
X112939495Y-65647960D01*
X112896089Y-65673020D01*
X112852685Y-65698079D01*
X112852682Y-65698081D01*
X112740880Y-65809883D01*
X112740880Y-65809884D01*
X112740878Y-65809886D01*
X112660764Y-65890000D01*
X112586218Y-65964546D01*
X112524895Y-65998030D01*
X112479139Y-65999337D01*
X112351370Y-65979100D01*
X112351365Y-65979100D01*
X112168635Y-65979100D01*
X112168630Y-65979100D01*
X111988158Y-66007684D01*
X111814366Y-66064153D01*
X111651555Y-66147109D01*
X111503721Y-66254517D01*
X111374517Y-66383721D01*
X111267109Y-66531555D01*
X111184153Y-66694366D01*
X111127684Y-66868158D01*
X111127683Y-66868161D01*
X111127371Y-66870134D01*
X111127044Y-66870822D01*
X111126547Y-66872895D01*
X111126111Y-66872790D01*
X111097439Y-66933267D01*
X111038125Y-66970196D01*
X110968263Y-66969194D01*
X110910032Y-66930581D01*
X110881921Y-66866616D01*
X110880899Y-66850730D01*
X110880899Y-66431729D01*
X110880898Y-66431723D01*
X110880897Y-66431716D01*
X110874491Y-66372117D01*
X110871970Y-66365359D01*
X110824197Y-66237271D01*
X110824193Y-66237264D01*
X110737947Y-66122055D01*
X110737944Y-66122052D01*
X110622735Y-66035806D01*
X110622728Y-66035802D01*
X110487882Y-65985508D01*
X110487883Y-65985508D01*
X110428283Y-65979101D01*
X110428281Y-65979100D01*
X110428273Y-65979100D01*
X110428264Y-65979100D01*
X109011729Y-65979100D01*
X109011723Y-65979101D01*
X108952116Y-65985508D01*
X108817271Y-66035802D01*
X108817264Y-66035806D01*
X108702055Y-66122052D01*
X108702052Y-66122055D01*
X108615806Y-66237264D01*
X108615802Y-66237271D01*
X108565508Y-66372117D01*
X108559101Y-66431716D01*
X108559101Y-66431723D01*
X108559100Y-66431735D01*
X108559100Y-67848270D01*
X108559101Y-67848276D01*
X108565508Y-67907883D01*
X108615802Y-68042728D01*
X108615806Y-68042735D01*
X108702052Y-68157944D01*
X108702055Y-68157947D01*
X108817264Y-68244193D01*
X108817271Y-68244197D01*
X108952117Y-68294491D01*
X108952116Y-68294491D01*
X108959044Y-68295235D01*
X109011727Y-68300900D01*
X110428272Y-68300899D01*
X110487883Y-68294491D01*
X110622731Y-68244196D01*
X110737946Y-68157946D01*
X110824196Y-68042731D01*
X110874491Y-67907883D01*
X110880900Y-67848273D01*
X110880899Y-67429269D01*
X110900583Y-67362233D01*
X110953387Y-67316478D01*
X111022546Y-67306534D01*
X111086102Y-67335559D01*
X111123876Y-67394337D01*
X111127370Y-67409862D01*
X111127682Y-67411834D01*
X111127684Y-67411841D01*
X111127685Y-67411845D01*
X111181126Y-67576319D01*
X111184153Y-67585633D01*
X111206945Y-67630365D01*
X111267109Y-67748444D01*
X111374515Y-67896276D01*
X111503724Y-68025485D01*
X111651556Y-68132891D01*
X111814369Y-68215848D01*
X111988155Y-68272315D01*
X112055835Y-68283034D01*
X112168630Y-68300900D01*
X112168635Y-68300900D01*
X112351370Y-68300900D01*
X112451631Y-68285019D01*
X112531845Y-68272315D01*
X112705631Y-68215848D01*
X112868444Y-68132891D01*
X113016276Y-68025485D01*
X113145485Y-67896276D01*
X113252891Y-67748444D01*
X113335848Y-67585631D01*
X113392315Y-67411845D01*
X113402743Y-67345999D01*
X113407780Y-67314204D01*
X113437709Y-67251069D01*
X113497021Y-67214138D01*
X113566883Y-67215136D01*
X113625116Y-67253746D01*
X113652726Y-67314203D01*
X113668173Y-67411729D01*
X113724616Y-67585443D01*
X113807535Y-67748178D01*
X113820467Y-67765978D01*
X114393600Y-67192845D01*
X114393600Y-67193504D01*
X114421295Y-67296865D01*
X114474799Y-67389536D01*
X114550464Y-67465201D01*
X114643135Y-67518705D01*
X114746496Y-67546400D01*
X114747153Y-67546400D01*
X114174019Y-68119531D01*
X114191817Y-68132462D01*
X114354556Y-68215383D01*
X114528271Y-68271827D01*
X114708670Y-68300400D01*
X114891330Y-68300400D01*
X115071728Y-68271827D01*
X115245443Y-68215383D01*
X115408178Y-68132465D01*
X115425979Y-68119531D01*
X114852848Y-67546400D01*
X114853504Y-67546400D01*
X114956865Y-67518705D01*
X115049536Y-67465201D01*
X115125201Y-67389536D01*
X115178705Y-67296865D01*
X115206400Y-67193504D01*
X115206400Y-67192847D01*
X115779531Y-67765978D01*
X115792465Y-67748178D01*
X115875383Y-67585443D01*
X115931827Y-67411728D01*
X115960400Y-67231330D01*
X115960400Y-67048669D01*
X115940416Y-66922498D01*
X115949370Y-66853205D01*
X115994367Y-66799753D01*
X116061118Y-66779113D01*
X116062889Y-66779100D01*
X120338503Y-66779100D01*
X120405542Y-66798785D01*
X120426184Y-66815419D01*
X122939084Y-69328319D01*
X122972569Y-69389642D01*
X122967585Y-69459334D01*
X122925713Y-69515267D01*
X122860249Y-69539684D01*
X122851403Y-69540000D01*
X122765553Y-69540000D01*
X122578997Y-69569548D01*
X122399362Y-69627914D01*
X122231060Y-69713669D01*
X122205670Y-69732116D01*
X122205669Y-69732116D01*
X122863554Y-70390000D01*
X122813922Y-70390000D01*
X122724905Y-70413852D01*
X122645095Y-70459930D01*
X122579930Y-70525095D01*
X122533852Y-70604905D01*
X122510000Y-70693922D01*
X122510000Y-70786078D01*
X122533852Y-70875095D01*
X122579930Y-70954905D01*
X122645095Y-71020070D01*
X122724905Y-71066148D01*
X122813922Y-71090000D01*
X122906078Y-71090000D01*
X122995095Y-71066148D01*
X123074905Y-71020070D01*
X123140070Y-70954905D01*
X123186148Y-70875095D01*
X123210000Y-70786078D01*
X123210000Y-70736446D01*
X123867882Y-71394328D01*
X123867883Y-71394328D01*
X123886331Y-71368937D01*
X123972085Y-71200637D01*
X124030451Y-71021002D01*
X124060000Y-70834447D01*
X124060000Y-70748597D01*
X124079685Y-70681558D01*
X124132489Y-70635803D01*
X124201647Y-70625859D01*
X124265203Y-70654884D01*
X124271681Y-70660916D01*
X130674481Y-77063716D01*
X130707966Y-77125039D01*
X130710800Y-77151397D01*
X130710800Y-78607638D01*
X130691115Y-78674677D01*
X130638311Y-78720432D01*
X130569153Y-78730376D01*
X130505597Y-78701351D01*
X130499119Y-78695319D01*
X130467996Y-78664196D01*
X130321791Y-78557974D01*
X130321790Y-78557973D01*
X130321788Y-78557972D01*
X130160756Y-78475922D01*
X129988871Y-78420073D01*
X129988869Y-78420072D01*
X129988867Y-78420072D01*
X129864232Y-78400331D01*
X129810365Y-78391800D01*
X129629635Y-78391800D01*
X129588254Y-78398354D01*
X129451132Y-78420072D01*
X129451129Y-78420073D01*
X129341512Y-78455690D01*
X129279241Y-78475923D01*
X129118208Y-78557974D01*
X128972003Y-78664196D01*
X128844196Y-78792003D01*
X128737974Y-78938208D01*
X128655923Y-79099241D01*
X128600072Y-79271132D01*
X128595775Y-79298263D01*
X128571800Y-79449635D01*
X128571800Y-79630365D01*
X128574000Y-79644254D01*
X128600053Y-79808750D01*
X128600073Y-79808871D01*
X128655922Y-79980756D01*
X128737840Y-80141529D01*
X128737974Y-80141791D01*
X128844196Y-80287996D01*
X128972003Y-80415803D01*
X129102260Y-80510438D01*
X129118212Y-80522028D01*
X129279244Y-80604078D01*
X129451129Y-80659927D01*
X129629635Y-80688200D01*
X129629636Y-80688200D01*
X129810364Y-80688200D01*
X129810365Y-80688200D01*
X129988871Y-80659927D01*
X130160756Y-80604078D01*
X130321788Y-80522028D01*
X130403879Y-80462385D01*
X130467996Y-80415803D01*
X130467998Y-80415800D01*
X130468002Y-80415798D01*
X130499119Y-80384681D01*
X130560442Y-80351196D01*
X130630134Y-80356180D01*
X130686067Y-80398052D01*
X130710484Y-80463516D01*
X130710800Y-80472362D01*
X130710800Y-86227638D01*
X130691115Y-86294677D01*
X130638311Y-86340432D01*
X130569153Y-86350376D01*
X130505597Y-86321351D01*
X130499119Y-86315319D01*
X130467996Y-86284196D01*
X130321791Y-86177974D01*
X130321790Y-86177973D01*
X130321788Y-86177972D01*
X130160756Y-86095922D01*
X129988871Y-86040073D01*
X129988869Y-86040072D01*
X129988867Y-86040072D01*
X129850823Y-86018208D01*
X129810365Y-86011800D01*
X129629635Y-86011800D01*
X129589177Y-86018208D01*
X129451132Y-86040072D01*
X129279241Y-86095923D01*
X129118208Y-86177974D01*
X128972003Y-86284196D01*
X128844196Y-86412003D01*
X128737974Y-86558208D01*
X128655923Y-86719241D01*
X128600072Y-86891132D01*
X128574672Y-87051500D01*
X128571800Y-87069635D01*
X128571800Y-87250365D01*
X128600073Y-87428871D01*
X128600519Y-87430245D01*
X128655923Y-87600758D01*
X128737974Y-87761791D01*
X128844196Y-87907996D01*
X128972003Y-88035803D01*
X129108817Y-88135202D01*
X129118212Y-88142028D01*
X129279244Y-88224078D01*
X129451129Y-88279927D01*
X129629635Y-88308200D01*
X129629636Y-88308200D01*
X129810364Y-88308200D01*
X129810365Y-88308200D01*
X129988871Y-88279927D01*
X130160756Y-88224078D01*
X130321788Y-88142028D01*
X130416927Y-88072906D01*
X130467996Y-88035803D01*
X130467998Y-88035800D01*
X130468002Y-88035798D01*
X130499119Y-88004681D01*
X130560442Y-87971196D01*
X130630134Y-87976180D01*
X130686067Y-88018052D01*
X130710484Y-88083516D01*
X130710800Y-88092362D01*
X130710800Y-90988602D01*
X130691115Y-91055641D01*
X130674481Y-91076283D01*
X129844228Y-91906536D01*
X129782905Y-91940021D01*
X129713213Y-91935037D01*
X129657280Y-91893165D01*
X129632863Y-91827701D01*
X129638616Y-91780537D01*
X129690452Y-91621001D01*
X129720000Y-91434447D01*
X129720000Y-91245552D01*
X129690451Y-91058997D01*
X129632085Y-90879362D01*
X129546329Y-90711059D01*
X129527883Y-90685670D01*
X129527882Y-90685669D01*
X128870000Y-91343553D01*
X128870000Y-91293922D01*
X128846148Y-91204905D01*
X128800070Y-91125095D01*
X128734905Y-91059930D01*
X128655095Y-91013852D01*
X128566078Y-90990000D01*
X128473922Y-90990000D01*
X128384905Y-91013852D01*
X128305095Y-91059930D01*
X128239930Y-91125095D01*
X128193852Y-91204905D01*
X128170000Y-91293922D01*
X128170000Y-91386078D01*
X128193852Y-91475095D01*
X128239930Y-91554905D01*
X128305095Y-91620070D01*
X128384905Y-91666148D01*
X128473922Y-91690000D01*
X128523553Y-91690000D01*
X127865669Y-92347882D01*
X127865670Y-92347883D01*
X127891059Y-92366329D01*
X128059362Y-92452085D01*
X128238997Y-92510451D01*
X128425553Y-92540000D01*
X128614447Y-92540000D01*
X128801001Y-92510452D01*
X128960537Y-92458616D01*
X129030378Y-92456621D01*
X129090211Y-92492701D01*
X129121039Y-92555402D01*
X129113074Y-92624817D01*
X129086536Y-92664228D01*
X122684526Y-99066237D01*
X122623203Y-99099722D01*
X122570478Y-99099158D01*
X122570448Y-99099349D01*
X122569156Y-99099144D01*
X122567903Y-99099131D01*
X122565636Y-99098586D01*
X122383232Y-99069697D01*
X122369361Y-99067500D01*
X122170639Y-99067500D01*
X122105214Y-99077862D01*
X121974362Y-99098587D01*
X121785370Y-99159993D01*
X121785367Y-99159994D01*
X121608305Y-99250213D01*
X121447533Y-99367021D01*
X121307021Y-99507533D01*
X121190213Y-99668305D01*
X121110485Y-99824780D01*
X121062510Y-99875576D01*
X120994689Y-99892371D01*
X120928554Y-99869833D01*
X120889515Y-99824780D01*
X120846572Y-99740500D01*
X120809787Y-99668306D01*
X120692981Y-99507536D01*
X120552464Y-99367019D01*
X120391694Y-99250213D01*
X120221117Y-99163299D01*
X120219210Y-99161914D01*
X120217987Y-99161648D01*
X120189734Y-99140498D01*
X120098716Y-99049480D01*
X120098713Y-99049478D01*
X117150066Y-96100831D01*
X117116581Y-96039508D01*
X117115274Y-95993752D01*
X117140500Y-95834486D01*
X117140500Y-95645513D01*
X117110940Y-95458881D01*
X117052545Y-95279163D01*
X116987054Y-95150631D01*
X116966760Y-95110801D01*
X116855690Y-94957927D01*
X116722073Y-94824310D01*
X116569199Y-94713240D01*
X116400836Y-94627454D01*
X116221118Y-94569059D01*
X116034486Y-94539500D01*
X116034481Y-94539500D01*
X115845519Y-94539500D01*
X115845514Y-94539500D01*
X115658881Y-94569059D01*
X115479163Y-94627454D01*
X115310800Y-94713240D01*
X115223579Y-94776610D01*
X115157927Y-94824310D01*
X115157925Y-94824312D01*
X115157924Y-94824312D01*
X115024312Y-94957924D01*
X115024312Y-94957925D01*
X115024310Y-94957927D01*
X114997904Y-94994272D01*
X114913240Y-95110800D01*
X114827454Y-95279163D01*
X114769059Y-95458881D01*
X114739500Y-95645513D01*
X114739500Y-95834486D01*
X114769059Y-96021118D01*
X114827454Y-96200836D01*
X114913104Y-96368933D01*
X114913240Y-96369199D01*
X115024310Y-96522073D01*
X115157927Y-96655690D01*
X115310801Y-96766760D01*
X115390347Y-96807290D01*
X115479163Y-96852545D01*
X115479165Y-96852545D01*
X115479168Y-96852547D01*
X115575497Y-96883846D01*
X115658881Y-96910940D01*
X115845514Y-96940500D01*
X115845519Y-96940500D01*
X116034486Y-96940500D01*
X116151017Y-96922042D01*
X116193753Y-96915274D01*
X116263045Y-96924228D01*
X116300831Y-96950066D01*
X118730544Y-99379779D01*
X118764029Y-99441102D01*
X118759045Y-99510794D01*
X118743181Y-99540345D01*
X118650215Y-99668302D01*
X118570485Y-99824780D01*
X118522510Y-99875576D01*
X118454689Y-99892371D01*
X118388554Y-99869833D01*
X118349515Y-99824780D01*
X118306572Y-99740500D01*
X118269787Y-99668306D01*
X118152981Y-99507536D01*
X118012464Y-99367019D01*
X117851694Y-99250213D01*
X117674632Y-99159994D01*
X117674629Y-99159993D01*
X117485637Y-99098587D01*
X117387498Y-99083043D01*
X117289361Y-99067500D01*
X117090639Y-99067500D01*
X117025214Y-99077862D01*
X116894362Y-99098587D01*
X116705370Y-99159993D01*
X116705367Y-99159994D01*
X116528305Y-99250213D01*
X116367533Y-99367021D01*
X116227021Y-99507533D01*
X116110213Y-99668305D01*
X116019994Y-99845367D01*
X116019993Y-99845370D01*
X115958587Y-100034362D01*
X115955209Y-100055690D01*
X115927500Y-100230639D01*
X115927500Y-100429361D01*
X115936834Y-100488291D01*
X115958587Y-100625637D01*
X116019993Y-100814629D01*
X116019994Y-100814632D01*
X116110213Y-100991694D01*
X116227019Y-101152464D01*
X116367536Y-101292981D01*
X116528306Y-101409787D01*
X116615149Y-101454035D01*
X116705367Y-101500005D01*
X116705370Y-101500006D01*
X116799866Y-101530709D01*
X116894364Y-101561413D01*
X117090639Y-101592500D01*
X117090640Y-101592500D01*
X117289360Y-101592500D01*
X117289361Y-101592500D01*
X117485636Y-101561413D01*
X117674632Y-101500005D01*
X117851694Y-101409787D01*
X118012464Y-101292981D01*
X118152981Y-101152464D01*
X118269787Y-100991694D01*
X118349515Y-100835218D01*
X118397490Y-100784423D01*
X118465311Y-100767628D01*
X118531446Y-100790165D01*
X118570484Y-100835218D01*
X118650213Y-100991694D01*
X118767019Y-101152464D01*
X118907536Y-101292981D01*
X119068306Y-101409787D01*
X119155149Y-101454035D01*
X119245367Y-101500005D01*
X119245370Y-101500006D01*
X119339866Y-101530709D01*
X119434364Y-101561413D01*
X119630639Y-101592500D01*
X119630640Y-101592500D01*
X119829360Y-101592500D01*
X119829361Y-101592500D01*
X120025636Y-101561413D01*
X120214632Y-101500005D01*
X120391694Y-101409787D01*
X120552464Y-101292981D01*
X120692981Y-101152464D01*
X120809787Y-100991694D01*
X120889515Y-100835218D01*
X120937490Y-100784423D01*
X121005311Y-100767628D01*
X121071446Y-100790165D01*
X121110484Y-100835218D01*
X121190213Y-100991694D01*
X121307019Y-101152464D01*
X121447536Y-101292981D01*
X121608306Y-101409787D01*
X121695149Y-101454035D01*
X121785367Y-101500005D01*
X121785370Y-101500006D01*
X121879866Y-101530709D01*
X121974364Y-101561413D01*
X122170639Y-101592500D01*
X122170640Y-101592500D01*
X122369355Y-101592500D01*
X122369361Y-101592500D01*
X122383228Y-101590303D01*
X122452516Y-101599256D01*
X122505970Y-101644250D01*
X122526612Y-101711001D01*
X122507889Y-101778315D01*
X122490306Y-101800457D01*
X119364631Y-104926132D01*
X119364624Y-104926139D01*
X119361286Y-104929478D01*
X119361284Y-104929480D01*
X119249480Y-105041284D01*
X119221643Y-105089500D01*
X119215875Y-105099489D01*
X119215875Y-105099490D01*
X119182136Y-105157927D01*
X119170423Y-105178215D01*
X119129499Y-105330943D01*
X119129499Y-105330945D01*
X119129499Y-105499046D01*
X119129500Y-105499059D01*
X119129500Y-106200903D01*
X119109815Y-106267942D01*
X119057011Y-106313697D01*
X118987853Y-106323641D01*
X118924297Y-106294616D01*
X118917819Y-106288584D01*
X111407590Y-98778355D01*
X111407588Y-98778352D01*
X111288717Y-98659481D01*
X111288716Y-98659480D01*
X111181948Y-98597838D01*
X111181947Y-98597837D01*
X111151783Y-98580422D01*
X111095881Y-98565443D01*
X110999057Y-98539499D01*
X110840943Y-98539499D01*
X110833347Y-98539499D01*
X110833331Y-98539500D01*
X105250792Y-98539500D01*
X105183753Y-98519815D01*
X105150474Y-98488386D01*
X105055690Y-98357927D01*
X104922073Y-98224310D01*
X104788867Y-98127529D01*
X104746203Y-98072201D01*
X104740224Y-98002587D01*
X104772830Y-97940792D01*
X104773999Y-97939606D01*
X105965723Y-96747882D01*
X110205669Y-96747882D01*
X110205670Y-96747883D01*
X110231059Y-96766329D01*
X110399362Y-96852085D01*
X110578997Y-96910451D01*
X110765553Y-96940000D01*
X110954447Y-96940000D01*
X111141002Y-96910451D01*
X111320637Y-96852085D01*
X111488937Y-96766331D01*
X111514328Y-96747883D01*
X111514328Y-96747882D01*
X110860001Y-96093554D01*
X110860000Y-96093554D01*
X110205669Y-96747882D01*
X105965723Y-96747882D01*
X107068053Y-95645552D01*
X109660000Y-95645552D01*
X109660000Y-95834447D01*
X109689548Y-96021002D01*
X109747914Y-96200637D01*
X109833666Y-96368933D01*
X109852116Y-96394328D01*
X110506446Y-95740000D01*
X110506446Y-95739999D01*
X110460369Y-95693922D01*
X110510000Y-95693922D01*
X110510000Y-95786078D01*
X110533852Y-95875095D01*
X110579930Y-95954905D01*
X110645095Y-96020070D01*
X110724905Y-96066148D01*
X110813922Y-96090000D01*
X110906078Y-96090000D01*
X110995095Y-96066148D01*
X111074905Y-96020070D01*
X111140070Y-95954905D01*
X111186148Y-95875095D01*
X111210000Y-95786078D01*
X111210000Y-95739999D01*
X111213554Y-95739999D01*
X111213554Y-95740000D01*
X111867882Y-96394328D01*
X111867883Y-96394328D01*
X111886331Y-96368937D01*
X111972085Y-96200637D01*
X112030451Y-96021002D01*
X112060000Y-95834447D01*
X112060000Y-95645552D01*
X112030451Y-95458997D01*
X111972085Y-95279362D01*
X111886329Y-95111059D01*
X111867883Y-95085670D01*
X111867882Y-95085669D01*
X111213554Y-95739999D01*
X111210000Y-95739999D01*
X111210000Y-95693922D01*
X111186148Y-95604905D01*
X111140070Y-95525095D01*
X111074905Y-95459930D01*
X110995095Y-95413852D01*
X110906078Y-95390000D01*
X110813922Y-95390000D01*
X110724905Y-95413852D01*
X110645095Y-95459930D01*
X110579930Y-95525095D01*
X110533852Y-95604905D01*
X110510000Y-95693922D01*
X110460369Y-95693922D01*
X109852116Y-95085669D01*
X109852116Y-95085670D01*
X109833669Y-95111060D01*
X109747914Y-95279362D01*
X109689548Y-95458997D01*
X109660000Y-95645552D01*
X107068053Y-95645552D01*
X107981489Y-94732116D01*
X110205669Y-94732116D01*
X110860000Y-95386446D01*
X110860001Y-95386446D01*
X111514328Y-94732116D01*
X111488933Y-94713666D01*
X111320637Y-94627914D01*
X111141002Y-94569548D01*
X110954447Y-94540000D01*
X110765553Y-94540000D01*
X110578997Y-94569548D01*
X110399362Y-94627914D01*
X110231060Y-94713669D01*
X110205670Y-94732116D01*
X110205669Y-94732116D01*
X107981489Y-94732116D01*
X113682135Y-89031470D01*
X113743457Y-88997987D01*
X113813149Y-89002971D01*
X113869082Y-89044843D01*
X113893499Y-89110307D01*
X113880300Y-89175447D01*
X113827455Y-89279160D01*
X113769059Y-89458881D01*
X113739500Y-89645513D01*
X113739500Y-89834486D01*
X113769059Y-90021118D01*
X113827454Y-90200836D01*
X113884946Y-90313669D01*
X113913240Y-90369199D01*
X114024310Y-90522073D01*
X114157927Y-90655690D01*
X114310801Y-90766760D01*
X114359945Y-90791800D01*
X114479163Y-90852545D01*
X114479165Y-90852545D01*
X114479168Y-90852547D01*
X114561696Y-90879362D01*
X114658881Y-90910940D01*
X114845514Y-90940500D01*
X114845519Y-90940500D01*
X115034486Y-90940500D01*
X115221118Y-90910940D01*
X115222623Y-90910451D01*
X115400832Y-90852547D01*
X115569199Y-90766760D01*
X115722073Y-90655690D01*
X115855690Y-90522073D01*
X115966760Y-90369199D01*
X116052547Y-90200832D01*
X116110940Y-90021118D01*
X116112708Y-90009958D01*
X116140500Y-89834486D01*
X116140500Y-89645513D01*
X116110940Y-89458881D01*
X116061431Y-89306510D01*
X116052547Y-89279168D01*
X116052545Y-89279165D01*
X116052545Y-89279163D01*
X115986747Y-89150028D01*
X115966760Y-89110801D01*
X115855690Y-88957927D01*
X115722073Y-88824310D01*
X115569199Y-88713240D01*
X115549457Y-88703181D01*
X115400836Y-88627454D01*
X115221118Y-88569059D01*
X115034486Y-88539500D01*
X115034481Y-88539500D01*
X114845519Y-88539500D01*
X114845514Y-88539500D01*
X114658881Y-88569059D01*
X114479160Y-88627455D01*
X114375447Y-88680300D01*
X114306778Y-88693196D01*
X114242038Y-88666919D01*
X114201781Y-88609812D01*
X114198789Y-88540007D01*
X114231470Y-88482136D01*
X114916788Y-87796819D01*
X114978111Y-87763334D01*
X115004469Y-87760500D01*
X120830196Y-87760500D01*
X120897235Y-87780185D01*
X120942990Y-87832989D01*
X120953486Y-87871247D01*
X120958208Y-87915183D01*
X121008502Y-88050028D01*
X121008506Y-88050035D01*
X121094752Y-88165244D01*
X121094755Y-88165247D01*
X121209964Y-88251493D01*
X121209971Y-88251497D01*
X121251953Y-88267155D01*
X121344817Y-88301791D01*
X121388758Y-88306515D01*
X121453306Y-88333252D01*
X121493154Y-88390645D01*
X121499500Y-88429804D01*
X121499500Y-89939902D01*
X121479815Y-90006941D01*
X121463181Y-90027583D01*
X119377071Y-92113692D01*
X119315748Y-92147177D01*
X119308789Y-92148484D01*
X119178884Y-92169059D01*
X118999165Y-92227454D01*
X118830800Y-92313240D01*
X118757139Y-92366759D01*
X118677927Y-92424310D01*
X118677925Y-92424312D01*
X118677924Y-92424312D01*
X118544312Y-92557924D01*
X118544312Y-92557925D01*
X118544310Y-92557927D01*
X118528919Y-92579111D01*
X118433240Y-92710800D01*
X118347454Y-92879163D01*
X118289059Y-93058881D01*
X118259500Y-93245513D01*
X118259500Y-93434486D01*
X118289059Y-93621118D01*
X118347454Y-93800836D01*
X118356972Y-93819515D01*
X118433240Y-93969199D01*
X118544310Y-94122073D01*
X118677927Y-94255690D01*
X118830801Y-94366760D01*
X118887183Y-94395488D01*
X118999163Y-94452545D01*
X118999165Y-94452545D01*
X118999168Y-94452547D01*
X119078544Y-94478338D01*
X119178881Y-94510940D01*
X119365514Y-94540500D01*
X119365519Y-94540500D01*
X119554486Y-94540500D01*
X119741118Y-94510940D01*
X119780121Y-94498267D01*
X119920832Y-94452547D01*
X120089199Y-94366760D01*
X120115182Y-94347882D01*
X123885669Y-94347882D01*
X123885670Y-94347883D01*
X123911059Y-94366329D01*
X124079362Y-94452085D01*
X124258997Y-94510451D01*
X124445553Y-94540000D01*
X124634447Y-94540000D01*
X124821002Y-94510451D01*
X125000637Y-94452085D01*
X125168937Y-94366331D01*
X125194328Y-94347883D01*
X125194328Y-94347882D01*
X124540001Y-93693554D01*
X124540000Y-93693554D01*
X123885669Y-94347882D01*
X120115182Y-94347882D01*
X120242073Y-94255690D01*
X120375690Y-94122073D01*
X120486760Y-93969199D01*
X120572547Y-93800832D01*
X120630940Y-93621118D01*
X120641427Y-93554905D01*
X120660500Y-93434486D01*
X120660500Y-93245552D01*
X123340000Y-93245552D01*
X123340000Y-93434447D01*
X123369548Y-93621002D01*
X123427914Y-93800637D01*
X123513666Y-93968933D01*
X123532116Y-93994328D01*
X124186446Y-93340000D01*
X124186446Y-93339999D01*
X124140369Y-93293922D01*
X124190000Y-93293922D01*
X124190000Y-93386078D01*
X124213852Y-93475095D01*
X124259930Y-93554905D01*
X124325095Y-93620070D01*
X124404905Y-93666148D01*
X124493922Y-93690000D01*
X124586078Y-93690000D01*
X124675095Y-93666148D01*
X124754905Y-93620070D01*
X124820070Y-93554905D01*
X124866148Y-93475095D01*
X124890000Y-93386078D01*
X124890000Y-93339999D01*
X124893554Y-93339999D01*
X124893554Y-93340000D01*
X125547882Y-93994328D01*
X125547883Y-93994328D01*
X125566331Y-93968937D01*
X125652085Y-93800637D01*
X125710451Y-93621002D01*
X125740000Y-93434447D01*
X125740000Y-93245552D01*
X125710451Y-93058997D01*
X125652085Y-92879362D01*
X125566329Y-92711059D01*
X125547883Y-92685670D01*
X125547882Y-92685669D01*
X124893554Y-93339999D01*
X124890000Y-93339999D01*
X124890000Y-93293922D01*
X124866148Y-93204905D01*
X124820070Y-93125095D01*
X124754905Y-93059930D01*
X124675095Y-93013852D01*
X124586078Y-92990000D01*
X124493922Y-92990000D01*
X124404905Y-93013852D01*
X124325095Y-93059930D01*
X124259930Y-93125095D01*
X124213852Y-93204905D01*
X124190000Y-93293922D01*
X124140369Y-93293922D01*
X123532116Y-92685669D01*
X123532116Y-92685670D01*
X123513669Y-92711060D01*
X123427914Y-92879362D01*
X123369548Y-93058997D01*
X123340000Y-93245552D01*
X120660500Y-93245552D01*
X120660500Y-93245513D01*
X120630940Y-93058881D01*
X120582708Y-92910440D01*
X120572547Y-92879168D01*
X120572545Y-92879165D01*
X120572545Y-92879163D01*
X120524849Y-92785556D01*
X120511953Y-92716887D01*
X120538229Y-92652147D01*
X120547644Y-92641589D01*
X120857117Y-92332116D01*
X123885669Y-92332116D01*
X124540000Y-92986446D01*
X124540001Y-92986446D01*
X125194328Y-92332116D01*
X125168933Y-92313666D01*
X125000637Y-92227914D01*
X124821002Y-92169548D01*
X124634447Y-92140000D01*
X124445553Y-92140000D01*
X124258997Y-92169548D01*
X124079362Y-92227914D01*
X123911060Y-92313669D01*
X123885670Y-92332116D01*
X123885669Y-92332116D01*
X120857117Y-92332116D01*
X121943683Y-91245552D01*
X127320000Y-91245552D01*
X127320000Y-91434447D01*
X127349548Y-91621002D01*
X127407914Y-91800637D01*
X127493666Y-91968933D01*
X127512116Y-91994328D01*
X128166446Y-91340000D01*
X128166446Y-91339999D01*
X127512116Y-90685669D01*
X127512116Y-90685670D01*
X127493669Y-90711060D01*
X127407914Y-90879362D01*
X127349548Y-91058997D01*
X127320000Y-91245552D01*
X121943683Y-91245552D01*
X122580520Y-90608716D01*
X122659577Y-90471784D01*
X122697002Y-90332116D01*
X127865669Y-90332116D01*
X128520000Y-90986446D01*
X128520001Y-90986446D01*
X129174328Y-90332116D01*
X129148933Y-90313666D01*
X128980637Y-90227914D01*
X128801002Y-90169548D01*
X128614447Y-90140000D01*
X128425553Y-90140000D01*
X128238997Y-90169548D01*
X128059362Y-90227914D01*
X127891060Y-90313669D01*
X127865670Y-90332116D01*
X127865669Y-90332116D01*
X122697002Y-90332116D01*
X122700501Y-90319057D01*
X122700501Y-90160942D01*
X122700500Y-90160938D01*
X122700500Y-88429804D01*
X122720185Y-88362765D01*
X122772989Y-88317010D01*
X122811247Y-88306514D01*
X122855183Y-88301791D01*
X122887973Y-88289561D01*
X122990031Y-88251496D01*
X123105246Y-88165246D01*
X123191496Y-88050031D01*
X123241791Y-87915183D01*
X123248200Y-87855573D01*
X123248199Y-87287895D01*
X123267883Y-87220859D01*
X123320687Y-87175104D01*
X123389846Y-87165160D01*
X123453402Y-87194185D01*
X123491176Y-87252963D01*
X123494672Y-87268500D01*
X123497744Y-87287898D01*
X123520073Y-87428871D01*
X123520519Y-87430245D01*
X123575923Y-87600758D01*
X123657974Y-87761791D01*
X123764196Y-87907996D01*
X123892003Y-88035803D01*
X124028817Y-88135202D01*
X124038212Y-88142028D01*
X124199244Y-88224078D01*
X124371129Y-88279927D01*
X124549635Y-88308200D01*
X124549636Y-88308200D01*
X124730364Y-88308200D01*
X124730365Y-88308200D01*
X124908871Y-88279927D01*
X125080756Y-88224078D01*
X125241788Y-88142028D01*
X125336927Y-88072906D01*
X125387996Y-88035803D01*
X125387998Y-88035800D01*
X125388002Y-88035798D01*
X125515798Y-87908002D01*
X125515800Y-87907998D01*
X125515803Y-87907996D01*
X125583367Y-87815000D01*
X125622028Y-87761788D01*
X125704078Y-87600756D01*
X125759927Y-87428871D01*
X125788200Y-87250365D01*
X125788200Y-87069635D01*
X126031800Y-87069635D01*
X126031800Y-87250365D01*
X126060073Y-87428871D01*
X126060519Y-87430245D01*
X126115923Y-87600758D01*
X126197974Y-87761791D01*
X126304196Y-87907996D01*
X126432003Y-88035803D01*
X126568817Y-88135202D01*
X126578212Y-88142028D01*
X126739244Y-88224078D01*
X126911129Y-88279927D01*
X127089635Y-88308200D01*
X127089636Y-88308200D01*
X127270364Y-88308200D01*
X127270365Y-88308200D01*
X127448871Y-88279927D01*
X127620756Y-88224078D01*
X127781788Y-88142028D01*
X127876927Y-88072906D01*
X127927996Y-88035803D01*
X127927998Y-88035800D01*
X127928002Y-88035798D01*
X128055798Y-87908002D01*
X128055800Y-87907998D01*
X128055803Y-87907996D01*
X128123367Y-87815000D01*
X128162028Y-87761788D01*
X128244078Y-87600756D01*
X128299927Y-87428871D01*
X128328200Y-87250365D01*
X128328200Y-87069635D01*
X128299927Y-86891129D01*
X128244078Y-86719244D01*
X128162028Y-86558212D01*
X128122808Y-86504230D01*
X128055803Y-86412003D01*
X127927996Y-86284196D01*
X127781791Y-86177974D01*
X127781790Y-86177973D01*
X127781788Y-86177972D01*
X127620756Y-86095922D01*
X127448871Y-86040073D01*
X127448869Y-86040072D01*
X127448867Y-86040072D01*
X127310823Y-86018208D01*
X127270365Y-86011800D01*
X127089635Y-86011800D01*
X127049177Y-86018208D01*
X126911132Y-86040072D01*
X126739241Y-86095923D01*
X126578208Y-86177974D01*
X126432003Y-86284196D01*
X126304196Y-86412003D01*
X126197974Y-86558208D01*
X126115923Y-86719241D01*
X126060072Y-86891132D01*
X126034672Y-87051500D01*
X126031800Y-87069635D01*
X125788200Y-87069635D01*
X125759927Y-86891129D01*
X125704078Y-86719244D01*
X125622028Y-86558212D01*
X125582808Y-86504230D01*
X125515803Y-86412003D01*
X125387996Y-86284196D01*
X125241791Y-86177974D01*
X125241790Y-86177973D01*
X125241788Y-86177972D01*
X125080756Y-86095922D01*
X124908871Y-86040073D01*
X124908869Y-86040072D01*
X124908867Y-86040072D01*
X124770823Y-86018208D01*
X124730365Y-86011800D01*
X124549635Y-86011800D01*
X124509177Y-86018208D01*
X124371132Y-86040072D01*
X124199241Y-86095923D01*
X124038208Y-86177974D01*
X123892003Y-86284196D01*
X123764196Y-86412003D01*
X123657974Y-86558208D01*
X123575923Y-86719241D01*
X123520072Y-86891132D01*
X123494672Y-87051500D01*
X123464743Y-87114635D01*
X123405431Y-87151566D01*
X123335568Y-87150568D01*
X123277336Y-87111958D01*
X123249222Y-87047994D01*
X123248199Y-87032102D01*
X123248199Y-86464429D01*
X123248198Y-86464423D01*
X123247090Y-86454119D01*
X123242999Y-86416057D01*
X123241791Y-86404816D01*
X123191497Y-86269971D01*
X123191493Y-86269964D01*
X123105247Y-86154755D01*
X123105244Y-86154752D01*
X122990035Y-86068506D01*
X122990028Y-86068502D01*
X122855182Y-86018208D01*
X122855183Y-86018208D01*
X122795583Y-86011801D01*
X122795581Y-86011800D01*
X122795573Y-86011800D01*
X122795564Y-86011800D01*
X121404429Y-86011800D01*
X121404423Y-86011801D01*
X121344816Y-86018208D01*
X121209971Y-86068502D01*
X121209964Y-86068506D01*
X121094755Y-86154752D01*
X121094752Y-86154755D01*
X121008506Y-86269964D01*
X121008502Y-86269971D01*
X120958210Y-86404813D01*
X120958209Y-86404817D01*
X120953484Y-86448758D01*
X120926748Y-86513306D01*
X120869355Y-86553154D01*
X120830196Y-86559500D01*
X114791041Y-86559500D01*
X114791025Y-86559499D01*
X114783429Y-86559499D01*
X114625315Y-86559499D01*
X114517959Y-86588265D01*
X114472582Y-86600424D01*
X114472581Y-86600425D01*
X114422468Y-86629359D01*
X114422467Y-86629360D01*
X114379061Y-86654420D01*
X114335657Y-86679479D01*
X114335654Y-86679481D01*
X114223850Y-86791286D01*
X111271681Y-89743454D01*
X111210358Y-89776939D01*
X111140666Y-89771955D01*
X111084733Y-89730083D01*
X111060316Y-89664619D01*
X111060000Y-89655773D01*
X111060000Y-89645552D01*
X111030451Y-89458997D01*
X110972085Y-89279362D01*
X110886329Y-89111059D01*
X110867883Y-89085670D01*
X110867882Y-89085669D01*
X110210000Y-89743553D01*
X110210000Y-89693922D01*
X110186148Y-89604905D01*
X110140070Y-89525095D01*
X110074905Y-89459930D01*
X109995095Y-89413852D01*
X109906078Y-89390000D01*
X109813922Y-89390000D01*
X109724905Y-89413852D01*
X109645095Y-89459930D01*
X109579930Y-89525095D01*
X109533852Y-89604905D01*
X109510000Y-89693922D01*
X109510000Y-89786078D01*
X109533852Y-89875095D01*
X109579930Y-89954905D01*
X109645095Y-90020070D01*
X109724905Y-90066148D01*
X109813922Y-90090000D01*
X109863553Y-90090000D01*
X109205669Y-90747882D01*
X109205670Y-90747883D01*
X109231059Y-90766329D01*
X109399362Y-90852085D01*
X109578997Y-90910451D01*
X109765553Y-90940000D01*
X109775773Y-90940000D01*
X109842812Y-90959685D01*
X109888567Y-91012489D01*
X109898511Y-91081647D01*
X109869486Y-91145203D01*
X109863454Y-91151681D01*
X102770286Y-98244850D01*
X102658481Y-98356654D01*
X102658475Y-98356662D01*
X102622943Y-98418207D01*
X102622942Y-98418209D01*
X102579941Y-98492687D01*
X102529374Y-98540902D01*
X102460767Y-98554124D01*
X102395902Y-98528156D01*
X102384874Y-98518367D01*
X95244862Y-91378355D01*
X95244860Y-91378352D01*
X95125989Y-91259481D01*
X95125981Y-91259475D01*
X95009106Y-91191998D01*
X95009106Y-91191997D01*
X95009103Y-91191997D01*
X94989057Y-91180423D01*
X94836329Y-91139499D01*
X94678215Y-91139499D01*
X94670619Y-91139499D01*
X94670603Y-91139500D01*
X93415260Y-91139500D01*
X93348221Y-91119815D01*
X93302466Y-91067011D01*
X93292522Y-90997853D01*
X93293643Y-90991308D01*
X93325500Y-90831156D01*
X93325500Y-90648843D01*
X93289934Y-90470047D01*
X93289933Y-90470046D01*
X93289933Y-90470042D01*
X93270990Y-90424310D01*
X93220169Y-90301615D01*
X93218482Y-90298459D01*
X93218097Y-90296613D01*
X93217836Y-90295982D01*
X93217955Y-90295932D01*
X93204236Y-90230057D01*
X93218482Y-90181541D01*
X93220163Y-90178394D01*
X93220167Y-90178389D01*
X93289933Y-90009958D01*
X93307989Y-89919185D01*
X93325500Y-89831156D01*
X93325500Y-89654893D01*
X93325500Y-89648846D01*
X93324845Y-89645552D01*
X108660000Y-89645552D01*
X108660000Y-89834447D01*
X108689548Y-90021002D01*
X108747914Y-90200637D01*
X108833666Y-90368933D01*
X108852116Y-90394328D01*
X109506446Y-89740000D01*
X109506446Y-89739999D01*
X108852116Y-89085669D01*
X108852116Y-89085670D01*
X108833669Y-89111060D01*
X108747914Y-89279362D01*
X108689548Y-89458997D01*
X108660000Y-89645552D01*
X93324845Y-89645552D01*
X93289933Y-89470042D01*
X93280622Y-89447563D01*
X93278261Y-89436655D01*
X93280013Y-89412494D01*
X93277424Y-89388406D01*
X93283272Y-89367088D01*
X93318597Y-89272376D01*
X93318598Y-89272372D01*
X93324999Y-89212844D01*
X93325000Y-89212827D01*
X93325000Y-88990000D01*
X92981016Y-88990000D01*
X92966455Y-88986264D01*
X92954352Y-88987099D01*
X92931120Y-88977197D01*
X92921315Y-88974682D01*
X92916602Y-88972093D01*
X92838389Y-88919833D01*
X92769584Y-88891333D01*
X92769580Y-88891331D01*
X92669962Y-88850068D01*
X92669952Y-88850065D01*
X92628429Y-88841805D01*
X92650000Y-88789728D01*
X92650000Y-88732116D01*
X109205669Y-88732116D01*
X109860000Y-89386446D01*
X109860001Y-89386446D01*
X110514328Y-88732116D01*
X110488933Y-88713666D01*
X110320637Y-88627914D01*
X110141002Y-88569548D01*
X109954447Y-88540000D01*
X109765553Y-88540000D01*
X109578997Y-88569548D01*
X109399362Y-88627914D01*
X109231060Y-88713669D01*
X109205670Y-88732116D01*
X109205669Y-88732116D01*
X92650000Y-88732116D01*
X92650000Y-88690272D01*
X92611940Y-88598386D01*
X92541614Y-88528060D01*
X92449728Y-88490000D01*
X92650000Y-88490000D01*
X93325000Y-88490000D01*
X93325000Y-88267172D01*
X93324999Y-88267155D01*
X93318598Y-88207627D01*
X93318596Y-88207620D01*
X93268354Y-88072913D01*
X93268350Y-88072906D01*
X93182190Y-87957812D01*
X93182187Y-87957809D01*
X93067093Y-87871649D01*
X93067086Y-87871645D01*
X92932379Y-87821403D01*
X92932372Y-87821401D01*
X92872844Y-87815000D01*
X92650000Y-87815000D01*
X92650000Y-88490000D01*
X92449728Y-88490000D01*
X92350272Y-88490000D01*
X92258386Y-88528060D01*
X92188060Y-88598386D01*
X92150000Y-88690272D01*
X92150000Y-88789728D01*
X92171570Y-88841805D01*
X92130047Y-88850065D01*
X92130037Y-88850068D01*
X91961613Y-88919831D01*
X91917034Y-88949617D01*
X91887873Y-88969102D01*
X91821197Y-88989980D01*
X91818984Y-88990000D01*
X91475000Y-88990000D01*
X91475000Y-89212844D01*
X91481401Y-89272372D01*
X91481403Y-89272380D01*
X91516727Y-89367089D01*
X91521711Y-89436781D01*
X91515109Y-89457867D01*
X91510068Y-89470037D01*
X91510065Y-89470048D01*
X91474500Y-89648843D01*
X91474500Y-89648846D01*
X91474500Y-89831154D01*
X91474500Y-89831156D01*
X91474499Y-89831156D01*
X91510065Y-90009952D01*
X91510067Y-90009958D01*
X91579835Y-90178394D01*
X91581525Y-90181556D01*
X91581908Y-90183399D01*
X91582164Y-90184016D01*
X91582047Y-90184064D01*
X91595761Y-90249960D01*
X91581525Y-90298444D01*
X91579835Y-90301605D01*
X91510067Y-90470041D01*
X91510065Y-90470047D01*
X91474500Y-90648843D01*
X91474500Y-90738182D01*
X91454815Y-90805221D01*
X91438181Y-90825863D01*
X91193481Y-91070562D01*
X91193477Y-91070567D01*
X91153681Y-91139498D01*
X91153681Y-91139499D01*
X91114423Y-91207494D01*
X91114423Y-91207495D01*
X91073499Y-91360223D01*
X91073499Y-91518337D01*
X91073499Y-91518339D01*
X91073500Y-91528333D01*
X91073500Y-93954050D01*
X91073499Y-93954068D01*
X91073499Y-94119774D01*
X91073498Y-94119774D01*
X86800000Y-94119774D01*
X86800000Y-88267155D01*
X91475000Y-88267155D01*
X91475000Y-88490000D01*
X92150000Y-88490000D01*
X92150000Y-87815000D01*
X91927155Y-87815000D01*
X91867627Y-87821401D01*
X91867620Y-87821403D01*
X91732913Y-87871645D01*
X91732906Y-87871649D01*
X91617812Y-87957809D01*
X91617809Y-87957812D01*
X91531649Y-88072906D01*
X91531645Y-88072913D01*
X91481403Y-88207620D01*
X91481401Y-88207627D01*
X91475000Y-88267155D01*
X86800000Y-88267155D01*
X86800000Y-79449668D01*
X120952300Y-79449668D01*
X120952300Y-79630331D01*
X120980559Y-79808750D01*
X121036386Y-79980566D01*
X121118401Y-80141529D01*
X121129558Y-80156886D01*
X121129559Y-80156886D01*
X121706300Y-79580145D01*
X121706300Y-79591832D01*
X121733130Y-79691962D01*
X121784962Y-79781737D01*
X121858263Y-79855038D01*
X121948038Y-79906870D01*
X122048168Y-79933700D01*
X122059853Y-79933700D01*
X121483112Y-80510438D01*
X121483112Y-80510439D01*
X121498477Y-80521602D01*
X121659433Y-80603613D01*
X121831249Y-80659440D01*
X122009669Y-80687700D01*
X122190331Y-80687700D01*
X122368750Y-80659440D01*
X122540566Y-80603613D01*
X122701528Y-80521599D01*
X122701532Y-80521597D01*
X122716886Y-80510440D01*
X122716887Y-80510439D01*
X122140148Y-79933700D01*
X122151832Y-79933700D01*
X122251962Y-79906870D01*
X122341737Y-79855038D01*
X122415038Y-79781737D01*
X122466870Y-79691962D01*
X122493700Y-79591832D01*
X122493700Y-79580147D01*
X123070439Y-80156887D01*
X123070440Y-80156886D01*
X123081597Y-80141532D01*
X123081599Y-80141528D01*
X123163613Y-79980566D01*
X123219440Y-79808750D01*
X123245747Y-79642659D01*
X123245747Y-79449635D01*
X123491800Y-79449635D01*
X123491800Y-79630365D01*
X123493747Y-79642657D01*
X123493747Y-79642658D01*
X123520053Y-79808750D01*
X123520073Y-79808871D01*
X123575922Y-79980756D01*
X123657840Y-80141529D01*
X123657974Y-80141791D01*
X123764196Y-80287996D01*
X123892003Y-80415803D01*
X124022260Y-80510438D01*
X124038212Y-80522028D01*
X124199244Y-80604078D01*
X124371129Y-80659927D01*
X124549635Y-80688200D01*
X124549636Y-80688200D01*
X124730364Y-80688200D01*
X124730365Y-80688200D01*
X124908871Y-80659927D01*
X125080756Y-80604078D01*
X125241788Y-80522028D01*
X125323879Y-80462385D01*
X125387996Y-80415803D01*
X125387998Y-80415800D01*
X125388002Y-80415798D01*
X125515798Y-80288002D01*
X125515800Y-80287998D01*
X125515803Y-80287996D01*
X125562385Y-80223879D01*
X125622028Y-80141788D01*
X125704078Y-79980756D01*
X125759927Y-79808871D01*
X125788200Y-79630365D01*
X125788200Y-79449635D01*
X126031800Y-79449635D01*
X126031800Y-79630365D01*
X126034000Y-79644254D01*
X126060053Y-79808750D01*
X126060073Y-79808871D01*
X126115922Y-79980756D01*
X126197840Y-80141529D01*
X126197974Y-80141791D01*
X126304196Y-80287996D01*
X126432003Y-80415803D01*
X126562260Y-80510438D01*
X126578212Y-80522028D01*
X126739244Y-80604078D01*
X126911129Y-80659927D01*
X127089635Y-80688200D01*
X127089636Y-80688200D01*
X127270364Y-80688200D01*
X127270365Y-80688200D01*
X127448871Y-80659927D01*
X127620756Y-80604078D01*
X127781788Y-80522028D01*
X127863879Y-80462385D01*
X127927996Y-80415803D01*
X127927998Y-80415800D01*
X127928002Y-80415798D01*
X128055798Y-80288002D01*
X128055800Y-80287998D01*
X128055803Y-80287996D01*
X128102385Y-80223879D01*
X128162028Y-80141788D01*
X128244078Y-79980756D01*
X128299927Y-79808871D01*
X128328200Y-79630365D01*
X128328200Y-79449635D01*
X128299927Y-79271129D01*
X128244078Y-79099244D01*
X128162028Y-78938212D01*
X128139011Y-78906531D01*
X128055803Y-78792003D01*
X127927996Y-78664196D01*
X127781791Y-78557974D01*
X127781790Y-78557973D01*
X127781788Y-78557972D01*
X127620756Y-78475922D01*
X127448871Y-78420073D01*
X127448869Y-78420072D01*
X127448867Y-78420072D01*
X127324232Y-78400331D01*
X127270365Y-78391800D01*
X127089635Y-78391800D01*
X127048254Y-78398354D01*
X126911132Y-78420072D01*
X126911129Y-78420073D01*
X126801512Y-78455690D01*
X126739241Y-78475923D01*
X126578208Y-78557974D01*
X126432003Y-78664196D01*
X126304196Y-78792003D01*
X126197974Y-78938208D01*
X126115923Y-79099241D01*
X126060072Y-79271132D01*
X126055775Y-79298263D01*
X126031800Y-79449635D01*
X125788200Y-79449635D01*
X125759927Y-79271129D01*
X125704078Y-79099244D01*
X125622028Y-78938212D01*
X125599011Y-78906531D01*
X125515803Y-78792003D01*
X125387996Y-78664196D01*
X125241791Y-78557974D01*
X125241790Y-78557973D01*
X125241788Y-78557972D01*
X125080756Y-78475922D01*
X124908871Y-78420073D01*
X124908869Y-78420072D01*
X124908867Y-78420072D01*
X124784232Y-78400331D01*
X124730365Y-78391800D01*
X124549635Y-78391800D01*
X124508254Y-78398354D01*
X124371132Y-78420072D01*
X124371129Y-78420073D01*
X124261512Y-78455690D01*
X124199241Y-78475923D01*
X124038208Y-78557974D01*
X123892003Y-78664196D01*
X123764196Y-78792003D01*
X123657974Y-78938208D01*
X123575923Y-79099241D01*
X123520072Y-79271132D01*
X123493747Y-79437340D01*
X123491800Y-79449635D01*
X123245747Y-79449635D01*
X123245747Y-79437339D01*
X123219440Y-79271249D01*
X123163613Y-79099433D01*
X123081602Y-78938477D01*
X123070439Y-78923112D01*
X122493700Y-79499851D01*
X122493700Y-79488168D01*
X122466870Y-79388038D01*
X122415038Y-79298263D01*
X122341737Y-79224962D01*
X122251962Y-79173130D01*
X122151832Y-79146300D01*
X122140147Y-79146300D01*
X122716886Y-78569559D01*
X122716886Y-78569558D01*
X122701529Y-78558401D01*
X122540566Y-78476386D01*
X122368750Y-78420559D01*
X122190331Y-78392300D01*
X122009669Y-78392300D01*
X121831249Y-78420559D01*
X121659433Y-78476386D01*
X121498476Y-78558397D01*
X121498472Y-78558400D01*
X121483112Y-78569558D01*
X121483112Y-78569559D01*
X122059854Y-79146300D01*
X122048168Y-79146300D01*
X121948038Y-79173130D01*
X121858263Y-79224962D01*
X121784962Y-79298263D01*
X121733130Y-79388038D01*
X121706300Y-79488168D01*
X121706300Y-79499853D01*
X121129559Y-78923112D01*
X121129558Y-78923112D01*
X121118400Y-78938472D01*
X121118397Y-78938476D01*
X121036386Y-79099433D01*
X120980559Y-79271249D01*
X120952300Y-79449668D01*
X86800000Y-79449668D01*
X86800000Y-71747882D01*
X122205669Y-71747882D01*
X122205670Y-71747883D01*
X122231059Y-71766329D01*
X122399362Y-71852085D01*
X122578997Y-71910451D01*
X122765553Y-71940000D01*
X122954447Y-71940000D01*
X123141002Y-71910451D01*
X123320637Y-71852085D01*
X123488937Y-71766331D01*
X123514328Y-71747883D01*
X123514328Y-71747882D01*
X122860001Y-71093554D01*
X122860000Y-71093554D01*
X122205669Y-71747882D01*
X86800000Y-71747882D01*
X86800000Y-70645552D01*
X121660000Y-70645552D01*
X121660000Y-70834447D01*
X121689548Y-71021002D01*
X121747914Y-71200637D01*
X121833666Y-71368933D01*
X121852116Y-71394328D01*
X122506446Y-70740000D01*
X122506446Y-70739999D01*
X121852116Y-70085669D01*
X121852116Y-70085670D01*
X121833669Y-70111060D01*
X121747914Y-70279362D01*
X121689548Y-70458997D01*
X121660000Y-70645552D01*
X86800000Y-70645552D01*
X86800000Y-64532116D01*
X122205669Y-64532116D01*
X122860000Y-65186446D01*
X122860001Y-65186446D01*
X123514328Y-64532116D01*
X123488933Y-64513666D01*
X123320637Y-64427914D01*
X123141002Y-64369548D01*
X122954447Y-64340000D01*
X122765553Y-64340000D01*
X122578997Y-64369548D01*
X122399362Y-64427914D01*
X122231060Y-64513669D01*
X122205670Y-64532116D01*
X122205669Y-64532116D01*
X86800000Y-64532116D01*
X86800000Y-57264000D01*
X86819685Y-57196961D01*
X86872489Y-57151206D01*
X86924000Y-57140000D01*
X200076000Y-57140000D01*
X200143039Y-57159685D01*
G37*
%TD.AperFunction*%
%TD*%
M02*
