%TF.GenerationSoftware,Altium Limited,Altium Designer,24.4.1 (13)*%
G04 Layer_Physical_Order=2*
G04 Layer_Color=16711680*
%FSLAX45Y45*%
%MOMM*%
%TF.SameCoordinates,D1C9AD75-6FC3-430C-8E8E-54DC3705F24A*%
%TF.FilePolarity,Positive*%
%TF.FileFunction,Copper,L2,Bot,Signal*%
%TF.Part,Single*%
G01*
G75*
%TA.AperFunction,ViaPad*%
%ADD10C,1.01600*%
%TA.AperFunction,Conductor*%
%ADD11C,0.50800*%
%ADD12C,0.38100*%
%TA.AperFunction,ComponentPad*%
%ADD13O,5.08000X2.54000*%
%ADD14C,2.03200*%
%ADD15R,2.03200X2.03200*%
%ADD16O,5.08000X1.90500*%
%ADD17O,5.08000X2.03200*%
%ADD18R,5.08000X2.03200*%
G36*
X11836400Y2667000D02*
X2616200D01*
Y12319000D01*
X11836400D01*
Y2667000D01*
D02*
G37*
%LPC*%
G36*
X11198200Y11909400D02*
X11188700D01*
Y11696700D01*
X11401400D01*
Y11706200D01*
X11392738Y11749747D01*
X11375747Y11790767D01*
X11351080Y11827684D01*
X11319684Y11859080D01*
X11282767Y11883747D01*
X11241747Y11900738D01*
X11198200Y11909400D01*
D02*
G37*
G36*
X11163300D02*
X11153800D01*
X11110253Y11900738D01*
X11069233Y11883747D01*
X11032316Y11859080D01*
X11000920Y11827684D01*
X10976253Y11790767D01*
X10959262Y11749747D01*
X10950600Y11706200D01*
Y11696700D01*
X11163300D01*
Y11909400D01*
D02*
G37*
G36*
X3324200D02*
X3314700D01*
Y11696700D01*
X3527400D01*
Y11706200D01*
X3518738Y11749747D01*
X3501747Y11790767D01*
X3477080Y11827684D01*
X3445684Y11859080D01*
X3408767Y11883747D01*
X3367747Y11900738D01*
X3324200Y11909400D01*
D02*
G37*
G36*
X3289300D02*
X3279800D01*
X3236253Y11900738D01*
X3195233Y11883747D01*
X3158316Y11859080D01*
X3126920Y11827684D01*
X3102253Y11790767D01*
X3085262Y11749747D01*
X3076600Y11706200D01*
Y11696700D01*
X3289300D01*
Y11909400D01*
D02*
G37*
G36*
X11401400Y11671300D02*
X11188700D01*
Y11458600D01*
X11198200D01*
X11241747Y11467262D01*
X11282767Y11484253D01*
X11319684Y11508920D01*
X11351080Y11540316D01*
X11375747Y11577233D01*
X11392738Y11618253D01*
X11401400Y11661800D01*
Y11671300D01*
D02*
G37*
G36*
X11163300D02*
X10950600D01*
Y11661800D01*
X10959262Y11618253D01*
X10976253Y11577233D01*
X11000920Y11540316D01*
X11032316Y11508920D01*
X11069233Y11484253D01*
X11110253Y11467262D01*
X11153800Y11458600D01*
X11163300D01*
Y11671300D01*
D02*
G37*
G36*
X3527400D02*
X3314700D01*
Y11458600D01*
X3324200D01*
X3367747Y11467262D01*
X3408767Y11484253D01*
X3445684Y11508920D01*
X3477080Y11540316D01*
X3501747Y11577233D01*
X3518738Y11618253D01*
X3527400Y11661800D01*
Y11671300D01*
D02*
G37*
G36*
X3289300D02*
X3076600D01*
Y11661800D01*
X3085262Y11618253D01*
X3102253Y11577233D01*
X3126920Y11540316D01*
X3158316Y11508920D01*
X3195233Y11484253D01*
X3236253Y11467262D01*
X3279800Y11458600D01*
X3289300D01*
Y11671300D01*
D02*
G37*
G36*
X6464300Y11837395D02*
X4432300D01*
X4412479Y11833453D01*
X4395675Y11822225D01*
X3125675Y10552225D01*
X3114447Y10535421D01*
X3110505Y10515600D01*
Y9030437D01*
X3035300D01*
X3005424Y9027495D01*
X2976697Y9018781D01*
X2950221Y9004629D01*
X2927015Y8985585D01*
X2907971Y8962379D01*
X2893819Y8935903D01*
X2885105Y8907176D01*
X2882163Y8877300D01*
X2885105Y8847424D01*
X2893819Y8818697D01*
X2907971Y8792221D01*
X2927015Y8769015D01*
X2950221Y8749971D01*
X2976697Y8735819D01*
X3005424Y8727105D01*
X3035300Y8724163D01*
X3289300D01*
X3319176Y8727105D01*
X3347903Y8735819D01*
X3374379Y8749971D01*
X3397585Y8769015D01*
X3416629Y8792221D01*
X3430781Y8818697D01*
X3433164Y8826554D01*
X3446842Y8827894D01*
X3458412Y8816325D01*
X3475788Y8806293D01*
X3495168Y8801100D01*
X3515232D01*
X3534612Y8806293D01*
X3551988Y8816325D01*
X3566175Y8830512D01*
X3576207Y8847888D01*
X3581400Y8867268D01*
Y8869190D01*
X3594100Y8869814D01*
X3596305Y8847424D01*
X3605019Y8818697D01*
X3619171Y8792221D01*
X3638215Y8769015D01*
X3661421Y8749971D01*
X3687897Y8735819D01*
X3716624Y8727105D01*
X3746500Y8724163D01*
X4000500D01*
X4030376Y8727105D01*
X4059103Y8735819D01*
X4085579Y8749971D01*
X4108785Y8769015D01*
X4127829Y8792221D01*
X4141981Y8818697D01*
X4150695Y8847424D01*
X4153637Y8877300D01*
X4150695Y8907176D01*
X4141981Y8935903D01*
X4138627Y8942177D01*
X4621325Y9424875D01*
X4632553Y9441679D01*
X4636495Y9461500D01*
Y10584409D01*
X4743450D01*
X4774946Y10588555D01*
X4804296Y10600712D01*
X4829499Y10620051D01*
X4848838Y10645254D01*
X4860995Y10674604D01*
X4865141Y10706100D01*
X4860995Y10737596D01*
X4848838Y10766946D01*
X4829499Y10792149D01*
X4804296Y10811488D01*
X4774946Y10823645D01*
X4751775Y10826695D01*
Y10839505D01*
X4774946Y10842555D01*
X4804296Y10854712D01*
X4829499Y10874051D01*
X4848838Y10899254D01*
X4852586Y10908305D01*
X4906146D01*
X5028205Y10786246D01*
Y9025754D01*
X4499746Y8497295D01*
X4144046D01*
X4141981Y8504103D01*
X4127829Y8530579D01*
X4108785Y8553785D01*
X4085579Y8572829D01*
X4059103Y8586981D01*
X4030376Y8595695D01*
X4000500Y8598637D01*
X3746500D01*
X3716624Y8595695D01*
X3687897Y8586981D01*
X3661421Y8572829D01*
X3638215Y8553785D01*
X3619171Y8530579D01*
X3605019Y8504103D01*
X3596305Y8475376D01*
X3594100Y8452986D01*
X3581400Y8453610D01*
Y8455532D01*
X3576207Y8474912D01*
X3566175Y8492288D01*
X3551988Y8506475D01*
X3534612Y8516507D01*
X3515232Y8521700D01*
X3495168D01*
X3475788Y8516507D01*
X3458412Y8506475D01*
X3446842Y8494906D01*
X3433164Y8496246D01*
X3430781Y8504103D01*
X3416629Y8530579D01*
X3397585Y8553785D01*
X3374379Y8572829D01*
X3347903Y8586981D01*
X3319176Y8595695D01*
X3289300Y8598637D01*
X3035300D01*
X3005424Y8595695D01*
X2976697Y8586981D01*
X2950221Y8572829D01*
X2927015Y8553785D01*
X2907971Y8530579D01*
X2893819Y8504103D01*
X2885105Y8475376D01*
X2882163Y8445500D01*
X2885105Y8415624D01*
X2893819Y8386897D01*
X2907971Y8360421D01*
X2927015Y8337215D01*
X2950221Y8318171D01*
X2976697Y8304019D01*
X3005424Y8295305D01*
X3035300Y8292363D01*
X3289300D01*
X3319176Y8295305D01*
X3347903Y8304019D01*
X3360144Y8310563D01*
X3435053Y8235654D01*
X3435053Y8235653D01*
X3449757Y8225829D01*
X3467100Y8222379D01*
X3647677D01*
X3652222Y8209679D01*
X3638215Y8198185D01*
X3619171Y8174979D01*
X3605019Y8148503D01*
X3596305Y8119776D01*
X3594100Y8097386D01*
X3581400Y8098010D01*
Y8099932D01*
X3576207Y8119312D01*
X3566175Y8136688D01*
X3551988Y8150875D01*
X3534612Y8160907D01*
X3515232Y8166100D01*
X3495168D01*
X3475788Y8160907D01*
X3458412Y8150875D01*
X3446842Y8139306D01*
X3433164Y8140646D01*
X3430781Y8148503D01*
X3416629Y8174979D01*
X3397585Y8198185D01*
X3374379Y8217229D01*
X3347903Y8231381D01*
X3319176Y8240095D01*
X3289300Y8243037D01*
X3035300D01*
X3005424Y8240095D01*
X2976697Y8231381D01*
X2950221Y8217229D01*
X2927015Y8198185D01*
X2907971Y8174979D01*
X2893819Y8148503D01*
X2885105Y8119776D01*
X2882163Y8089900D01*
X2885105Y8060024D01*
X2893819Y8031297D01*
X2907971Y8004821D01*
X2927015Y7981615D01*
X2950221Y7962571D01*
X2976697Y7948419D01*
X3005424Y7939705D01*
X3035300Y7936763D01*
X3289300D01*
X3319176Y7939705D01*
X3347903Y7948419D01*
X3374379Y7962571D01*
X3397585Y7981615D01*
X3416629Y8004821D01*
X3430781Y8031297D01*
X3433164Y8039154D01*
X3446842Y8040494D01*
X3458412Y8028925D01*
X3475788Y8018893D01*
X3495168Y8013700D01*
X3515232D01*
X3534612Y8018893D01*
X3551988Y8028925D01*
X3566175Y8043112D01*
X3576207Y8060488D01*
X3581400Y8079868D01*
Y8081790D01*
X3594100Y8082414D01*
X3596305Y8060024D01*
X3605019Y8031297D01*
X3619171Y8004821D01*
X3638215Y7981615D01*
X3661421Y7962571D01*
X3687897Y7948419D01*
X3716624Y7939705D01*
X3746500Y7936763D01*
X4000500D01*
X4030376Y7939705D01*
X4059103Y7948419D01*
X4085579Y7962571D01*
X4108785Y7981615D01*
X4127829Y8004821D01*
X4141981Y8031297D01*
X4144046Y8038105D01*
X5168900D01*
X5188721Y8042047D01*
X5205525Y8053275D01*
X6142854Y8990605D01*
X8100891D01*
X8105966Y8978352D01*
X8126323Y8951823D01*
X8152852Y8931466D01*
X8175045Y8922273D01*
Y8908527D01*
X8152852Y8899334D01*
X8126323Y8878977D01*
X8105966Y8852448D01*
X8100891Y8840195D01*
X6223000D01*
X6203179Y8836253D01*
X6186375Y8825025D01*
X5147446Y7786095D01*
X4144046D01*
X4141981Y7792903D01*
X4127829Y7819379D01*
X4108785Y7842585D01*
X4085579Y7861629D01*
X4059103Y7875781D01*
X4030376Y7884495D01*
X4000500Y7887437D01*
X3746500D01*
X3716624Y7884495D01*
X3687897Y7875781D01*
X3661421Y7861629D01*
X3638215Y7842585D01*
X3619171Y7819379D01*
X3605019Y7792903D01*
X3596305Y7764176D01*
X3594100Y7741786D01*
X3581400Y7742410D01*
Y7744332D01*
X3576207Y7763712D01*
X3566175Y7781088D01*
X3551988Y7795275D01*
X3534612Y7805307D01*
X3515232Y7810500D01*
X3495168D01*
X3475788Y7805307D01*
X3458412Y7795275D01*
X3446842Y7783706D01*
X3433164Y7785046D01*
X3430781Y7792903D01*
X3416629Y7819379D01*
X3397585Y7842585D01*
X3374379Y7861629D01*
X3347903Y7875781D01*
X3319176Y7884495D01*
X3289300Y7887437D01*
X3035300D01*
X3005424Y7884495D01*
X2976697Y7875781D01*
X2950221Y7861629D01*
X2927015Y7842585D01*
X2907971Y7819379D01*
X2893819Y7792903D01*
X2885105Y7764176D01*
X2882163Y7734300D01*
X2885105Y7704424D01*
X2893819Y7675697D01*
X2907971Y7649221D01*
X2927015Y7626015D01*
X2950221Y7606971D01*
X2976697Y7592819D01*
X3005424Y7584105D01*
X3035300Y7581163D01*
X3289300D01*
X3319176Y7584105D01*
X3347903Y7592819D01*
X3374379Y7606971D01*
X3397585Y7626015D01*
X3416629Y7649221D01*
X3430781Y7675697D01*
X3433164Y7683554D01*
X3446842Y7684894D01*
X3458412Y7673325D01*
X3475788Y7663293D01*
X3495168Y7658100D01*
X3515232D01*
X3534612Y7663293D01*
X3551988Y7673325D01*
X3566175Y7687512D01*
X3576207Y7704888D01*
X3581400Y7724268D01*
Y7726190D01*
X3594100Y7726814D01*
X3596305Y7704424D01*
X3605019Y7675697D01*
X3619171Y7649221D01*
X3638215Y7626015D01*
X3661421Y7606971D01*
X3687897Y7592819D01*
X3716624Y7584105D01*
X3746500Y7581163D01*
X4000500D01*
X4030376Y7584105D01*
X4059103Y7592819D01*
X4085579Y7606971D01*
X4108785Y7626015D01*
X4127829Y7649221D01*
X4141981Y7675697D01*
X4144046Y7682505D01*
X5168900D01*
X5188721Y7686447D01*
X5205525Y7697675D01*
X6244454Y8736605D01*
X8100891D01*
X8105966Y8724352D01*
X8126323Y8697823D01*
X8152852Y8677466D01*
X8175045Y8668273D01*
Y8654527D01*
X8152852Y8645334D01*
X8126323Y8624977D01*
X8105966Y8598448D01*
X8093169Y8567554D01*
X8088804Y8534400D01*
X8093169Y8501246D01*
X8105966Y8470352D01*
X8126323Y8443823D01*
X8152852Y8423466D01*
X8175045Y8414273D01*
Y8400527D01*
X8152852Y8391334D01*
X8126323Y8370977D01*
X8105966Y8344448D01*
X8093169Y8313554D01*
X8088804Y8280400D01*
X8093169Y8247246D01*
X8105966Y8216352D01*
X8126323Y8189823D01*
X8152852Y8169466D01*
X8175045Y8160273D01*
Y8146527D01*
X8152852Y8137334D01*
X8126323Y8116977D01*
X8105966Y8090448D01*
X8093169Y8059554D01*
X8088804Y8026400D01*
X8093169Y7993246D01*
X8105966Y7962352D01*
X8126323Y7935823D01*
X8152852Y7915466D01*
X8175045Y7906273D01*
Y7892527D01*
X8152852Y7883334D01*
X8126323Y7862977D01*
X8105966Y7836448D01*
X8093169Y7805554D01*
X8088804Y7772400D01*
X8093169Y7739246D01*
X8105966Y7708352D01*
X8126323Y7681823D01*
X8152852Y7661466D01*
X8175045Y7652273D01*
Y7638527D01*
X8152852Y7629334D01*
X8126323Y7608977D01*
X8105966Y7582448D01*
X8093169Y7551554D01*
X8088804Y7518400D01*
X8093169Y7485246D01*
X8105966Y7454352D01*
X8126323Y7427823D01*
X8152852Y7407466D01*
X8175045Y7398273D01*
Y7384527D01*
X8152852Y7375334D01*
X8126323Y7354977D01*
X8105966Y7328448D01*
X8093169Y7297554D01*
X8088804Y7264400D01*
X8093169Y7231246D01*
X8105966Y7200352D01*
X8126323Y7173823D01*
X8152852Y7153466D01*
X8175045Y7144273D01*
Y7130527D01*
X8152852Y7121334D01*
X8126323Y7100977D01*
X8105966Y7074448D01*
X8093169Y7043554D01*
X8088804Y7010400D01*
X8093169Y6977246D01*
X8105966Y6946352D01*
X8126323Y6919823D01*
X8152852Y6899466D01*
X8175045Y6890273D01*
Y6876527D01*
X8152852Y6867334D01*
X8126323Y6846977D01*
X8105966Y6820448D01*
X8093169Y6789554D01*
X8088804Y6756400D01*
X8093169Y6723246D01*
X8105966Y6692352D01*
X8126323Y6665823D01*
X8152852Y6645466D01*
X8175045Y6636273D01*
Y6622527D01*
X8152852Y6613334D01*
X8126323Y6592977D01*
X8105966Y6566448D01*
X8093169Y6535554D01*
X8088804Y6502400D01*
X8093169Y6469246D01*
X8105966Y6438352D01*
X8126323Y6411823D01*
X8152852Y6391466D01*
X8175045Y6382273D01*
Y6368527D01*
X8152852Y6359334D01*
X8126323Y6338977D01*
X8105966Y6312448D01*
X8093169Y6281554D01*
X8088804Y6248400D01*
X8093169Y6215246D01*
X8105966Y6184352D01*
X8126323Y6157823D01*
X8152852Y6137466D01*
X8175045Y6128273D01*
Y6114527D01*
X8152852Y6105334D01*
X8126323Y6084977D01*
X8105966Y6058448D01*
X8093169Y6027554D01*
X8088804Y5994400D01*
X8093169Y5961246D01*
X8105966Y5930352D01*
X8126323Y5903823D01*
X8152852Y5883466D01*
X8175045Y5874273D01*
Y5860527D01*
X8152852Y5851334D01*
X8126323Y5830977D01*
X8105966Y5804448D01*
X8100891Y5792195D01*
X7704954D01*
X6081825Y7415325D01*
X6065021Y7426553D01*
X6045200Y7430495D01*
X4144046D01*
X4141981Y7437303D01*
X4127829Y7463779D01*
X4108785Y7486985D01*
X4085579Y7506029D01*
X4059103Y7520181D01*
X4030376Y7528895D01*
X4000500Y7531837D01*
X3746500D01*
X3716624Y7528895D01*
X3687897Y7520181D01*
X3661421Y7506029D01*
X3638215Y7486985D01*
X3619171Y7463779D01*
X3605019Y7437303D01*
X3596305Y7408576D01*
X3594100Y7386186D01*
X3581400Y7386810D01*
Y7388732D01*
X3576207Y7408112D01*
X3566175Y7425488D01*
X3551988Y7439675D01*
X3534612Y7449707D01*
X3515232Y7454900D01*
X3495168D01*
X3475788Y7449707D01*
X3458412Y7439675D01*
X3446842Y7428106D01*
X3433164Y7429446D01*
X3430781Y7437303D01*
X3416629Y7463779D01*
X3397585Y7486985D01*
X3374379Y7506029D01*
X3347903Y7520181D01*
X3319176Y7528895D01*
X3289300Y7531837D01*
X3035300D01*
X3005424Y7528895D01*
X2976697Y7520181D01*
X2950221Y7506029D01*
X2927015Y7486985D01*
X2907971Y7463779D01*
X2893819Y7437303D01*
X2885105Y7408576D01*
X2882163Y7378700D01*
X2885105Y7348824D01*
X2893819Y7320097D01*
X2907971Y7293621D01*
X2927015Y7270415D01*
X2950221Y7251371D01*
X2976697Y7237219D01*
X3005424Y7228505D01*
X3035300Y7225563D01*
X3289300D01*
X3319176Y7228505D01*
X3347903Y7237219D01*
X3374379Y7251371D01*
X3397585Y7270415D01*
X3416629Y7293621D01*
X3430781Y7320097D01*
X3433164Y7327954D01*
X3446842Y7329294D01*
X3458412Y7317725D01*
X3475788Y7307693D01*
X3495168Y7302500D01*
X3515232D01*
X3534612Y7307693D01*
X3551988Y7317725D01*
X3566175Y7331912D01*
X3576207Y7349288D01*
X3581400Y7368668D01*
Y7370590D01*
X3594100Y7371214D01*
X3596305Y7348824D01*
X3605019Y7320097D01*
X3619171Y7293621D01*
X3638215Y7270415D01*
X3661421Y7251371D01*
X3687897Y7237219D01*
X3716624Y7228505D01*
X3746500Y7225563D01*
X4000500D01*
X4030376Y7228505D01*
X4059103Y7237219D01*
X4085579Y7251371D01*
X4108785Y7270415D01*
X4127829Y7293621D01*
X4141981Y7320097D01*
X4144046Y7326905D01*
X6023746D01*
X7646875Y5703776D01*
X7646875Y5703775D01*
X7663679Y5692547D01*
X7683500Y5688605D01*
X8100891D01*
X8105966Y5676352D01*
X8126323Y5649823D01*
X8152852Y5629466D01*
X8175045Y5620273D01*
Y5606527D01*
X8152852Y5597334D01*
X8126323Y5576977D01*
X8105966Y5550448D01*
X8100891Y5538195D01*
X7362054D01*
X5840525Y7059725D01*
X5823721Y7070953D01*
X5803900Y7074895D01*
X4144046D01*
X4141981Y7081703D01*
X4127829Y7108179D01*
X4108785Y7131385D01*
X4085579Y7150429D01*
X4059103Y7164581D01*
X4030376Y7173295D01*
X4000500Y7176237D01*
X3746500D01*
X3716624Y7173295D01*
X3687897Y7164581D01*
X3661421Y7150429D01*
X3638215Y7131385D01*
X3619171Y7108179D01*
X3605019Y7081703D01*
X3596305Y7052976D01*
X3594100Y7030586D01*
X3581400Y7031210D01*
Y7033132D01*
X3576207Y7052512D01*
X3566175Y7069888D01*
X3551988Y7084075D01*
X3534612Y7094107D01*
X3515232Y7099300D01*
X3495168D01*
X3475788Y7094107D01*
X3458412Y7084075D01*
X3446842Y7072506D01*
X3433164Y7073846D01*
X3430781Y7081703D01*
X3416629Y7108179D01*
X3397585Y7131385D01*
X3374379Y7150429D01*
X3347903Y7164581D01*
X3319176Y7173295D01*
X3289300Y7176237D01*
X3175000D01*
Y7023100D01*
Y6869963D01*
X3289300D01*
X3319176Y6872905D01*
X3347903Y6881619D01*
X3374379Y6895771D01*
X3397585Y6914815D01*
X3416629Y6938021D01*
X3430781Y6964497D01*
X3433164Y6972354D01*
X3446842Y6973694D01*
X3458412Y6962125D01*
X3475788Y6952093D01*
X3495168Y6946900D01*
X3515232D01*
X3534612Y6952093D01*
X3551988Y6962125D01*
X3566175Y6976312D01*
X3576207Y6993688D01*
X3581400Y7013068D01*
Y7014990D01*
X3594100Y7015614D01*
X3596305Y6993224D01*
X3605019Y6964497D01*
X3619171Y6938021D01*
X3638215Y6914815D01*
X3661421Y6895771D01*
X3687897Y6881619D01*
X3716624Y6872905D01*
X3746500Y6869963D01*
X4000500D01*
X4030376Y6872905D01*
X4059103Y6881619D01*
X4085579Y6895771D01*
X4108785Y6914815D01*
X4127829Y6938021D01*
X4141981Y6964497D01*
X4144046Y6971305D01*
X5782446D01*
X7303975Y5449775D01*
X7320779Y5438547D01*
X7340600Y5434605D01*
X8100891D01*
X8105966Y5422352D01*
X8126323Y5395823D01*
X8152852Y5375466D01*
X8175045Y5366273D01*
Y5352527D01*
X8152852Y5343334D01*
X8126323Y5322977D01*
X8105966Y5296448D01*
X8093169Y5265554D01*
X8088804Y5232400D01*
X8093169Y5199246D01*
X8105966Y5168352D01*
X8126323Y5141823D01*
X8152852Y5121466D01*
X8175045Y5112273D01*
Y5098527D01*
X8152852Y5089334D01*
X8126323Y5068977D01*
X8105966Y5042448D01*
X8093169Y5011554D01*
X8090476Y4991100D01*
X8369300D01*
X8648124D01*
X8645431Y5011554D01*
X8632634Y5042448D01*
X8612277Y5068977D01*
X8585748Y5089334D01*
X8563555Y5098527D01*
Y5112273D01*
X8585748Y5121466D01*
X8612277Y5141823D01*
X8632634Y5168352D01*
X8637709Y5180605D01*
X8699500D01*
X8719321Y5184547D01*
X8736125Y5195775D01*
X8825025Y5284675D01*
X8836253Y5301479D01*
X8840195Y5321300D01*
Y10706100D01*
X8836253Y10725921D01*
X8825025Y10742725D01*
X8596425Y10971325D01*
X8579621Y10982553D01*
X8559800Y10986495D01*
X8013700D01*
X7993879Y10982553D01*
X7977075Y10971325D01*
X7090546Y10084795D01*
X5698354D01*
X5474695Y10308454D01*
Y10792596D01*
X5704361Y11022261D01*
X5715128Y11015067D01*
X5705405Y10991596D01*
X5702931Y10972800D01*
X5981700D01*
X6260469D01*
X6257995Y10991596D01*
X6245838Y11020946D01*
X6226499Y11046149D01*
X6201296Y11065488D01*
X6171946Y11077645D01*
X6148775Y11080695D01*
Y11093505D01*
X6171946Y11096555D01*
X6201296Y11108712D01*
X6226499Y11128051D01*
X6245838Y11153254D01*
X6249586Y11162305D01*
X6565900D01*
X6585721Y11166247D01*
X6602525Y11177475D01*
X6678725Y11253675D01*
X6689953Y11270479D01*
X6693895Y11290300D01*
Y11607800D01*
X6689953Y11627621D01*
X6678725Y11644425D01*
X6678724Y11644425D01*
X6500925Y11822225D01*
X6484121Y11833453D01*
X6464300Y11837395D01*
D02*
G37*
G36*
X3149600Y7176237D02*
X3035300D01*
X3005424Y7173295D01*
X2976697Y7164581D01*
X2950221Y7150429D01*
X2927015Y7131385D01*
X2907971Y7108179D01*
X2893819Y7081703D01*
X2885105Y7052976D01*
X2883414Y7035800D01*
X3149600D01*
Y7176237D01*
D02*
G37*
G36*
Y7010400D02*
X2883414D01*
X2885105Y6993224D01*
X2893819Y6964497D01*
X2907971Y6938021D01*
X2927015Y6914815D01*
X2950221Y6895771D01*
X2976697Y6881619D01*
X3005424Y6872905D01*
X3035300Y6869963D01*
X3149600D01*
Y7010400D01*
D02*
G37*
G36*
X9791700Y11646895D02*
X7725292D01*
X7705470Y11642953D01*
X7688667Y11631725D01*
X7688666Y11631724D01*
X6814837Y10757895D01*
X6249586D01*
X6245838Y10766946D01*
X6226499Y10792149D01*
X6201296Y10811488D01*
X6171946Y10823645D01*
X6148775Y10826695D01*
Y10839505D01*
X6171946Y10842555D01*
X6201296Y10854712D01*
X6226499Y10874051D01*
X6245838Y10899254D01*
X6257995Y10928604D01*
X6260469Y10947400D01*
X5981700D01*
X5702931D01*
X5705405Y10928604D01*
X5717562Y10899254D01*
X5736901Y10874051D01*
X5762104Y10854712D01*
X5791454Y10842555D01*
X5814625Y10839505D01*
Y10826695D01*
X5791454Y10823645D01*
X5762104Y10811488D01*
X5736901Y10792149D01*
X5717562Y10766946D01*
X5705405Y10737596D01*
X5701259Y10706100D01*
X5705405Y10674604D01*
X5717562Y10645254D01*
X5736901Y10620051D01*
X5762104Y10600712D01*
X5791454Y10588555D01*
X5814625Y10585505D01*
Y10572695D01*
X5791454Y10569645D01*
X5762104Y10557488D01*
X5736901Y10538149D01*
X5717562Y10512946D01*
X5705405Y10483596D01*
X5701259Y10452100D01*
X5705405Y10420604D01*
X5717562Y10391254D01*
X5736901Y10366051D01*
X5762104Y10346712D01*
X5791454Y10334555D01*
X5822950Y10330409D01*
X6140450D01*
X6171946Y10334555D01*
X6201296Y10346712D01*
X6226499Y10366051D01*
X6245838Y10391254D01*
X6249586Y10400305D01*
X7124700D01*
X7144521Y10404247D01*
X7161325Y10415475D01*
X7920854Y11175005D01*
X9770246D01*
X10336805Y10608446D01*
Y5495154D01*
X10157622Y5315972D01*
X10140865Y5316999D01*
X10136277Y5322977D01*
X10109748Y5343334D01*
X10087555Y5352527D01*
Y5366273D01*
X10109748Y5375466D01*
X10136277Y5395823D01*
X10156634Y5422352D01*
X10169431Y5453246D01*
X10173796Y5486400D01*
X10169431Y5519554D01*
X10156634Y5550448D01*
X10136277Y5576977D01*
X10109748Y5597334D01*
X10087555Y5606527D01*
Y5620273D01*
X10109748Y5629466D01*
X10136277Y5649823D01*
X10156634Y5676352D01*
X10169431Y5707246D01*
X10173796Y5740400D01*
X10169431Y5773554D01*
X10156634Y5804448D01*
X10136277Y5830977D01*
X10109748Y5851334D01*
X10087555Y5860527D01*
Y5874273D01*
X10109748Y5883466D01*
X10136277Y5903823D01*
X10156634Y5930352D01*
X10169431Y5961246D01*
X10173796Y5994400D01*
X10169431Y6027554D01*
X10156634Y6058448D01*
X10136277Y6084977D01*
X10109748Y6105334D01*
X10087555Y6114527D01*
Y6128273D01*
X10109748Y6137466D01*
X10136277Y6157823D01*
X10156634Y6184352D01*
X10169431Y6215246D01*
X10173796Y6248400D01*
X10169431Y6281554D01*
X10156634Y6312448D01*
X10136277Y6338977D01*
X10109748Y6359334D01*
X10087555Y6368527D01*
Y6382273D01*
X10109748Y6391466D01*
X10136277Y6411823D01*
X10156634Y6438352D01*
X10169431Y6469246D01*
X10173796Y6502400D01*
X10169431Y6535554D01*
X10156634Y6566448D01*
X10136277Y6592977D01*
X10109748Y6613334D01*
X10087555Y6622527D01*
Y6636273D01*
X10109748Y6645466D01*
X10136277Y6665823D01*
X10156634Y6692352D01*
X10169431Y6723246D01*
X10173796Y6756400D01*
X10169431Y6789554D01*
X10156634Y6820448D01*
X10136277Y6846977D01*
X10109748Y6867334D01*
X10087555Y6876527D01*
Y6890273D01*
X10109748Y6899466D01*
X10136277Y6919823D01*
X10156634Y6946352D01*
X10169431Y6977246D01*
X10173796Y7010400D01*
X10169431Y7043554D01*
X10156634Y7074448D01*
X10136277Y7100977D01*
X10109748Y7121334D01*
X10087555Y7130527D01*
Y7144273D01*
X10109748Y7153466D01*
X10136277Y7173823D01*
X10156634Y7200352D01*
X10169431Y7231246D01*
X10173796Y7264400D01*
X10169431Y7297554D01*
X10156634Y7328448D01*
X10136277Y7354977D01*
X10109748Y7375334D01*
X10087555Y7384527D01*
Y7398273D01*
X10109748Y7407466D01*
X10136277Y7427823D01*
X10156634Y7454352D01*
X10169431Y7485246D01*
X10173796Y7518400D01*
X10169431Y7551554D01*
X10156634Y7582448D01*
X10136277Y7608977D01*
X10109748Y7629334D01*
X10087555Y7638527D01*
Y7652273D01*
X10109748Y7661466D01*
X10136277Y7681823D01*
X10156634Y7708352D01*
X10169431Y7739246D01*
X10173796Y7772400D01*
X10169431Y7805554D01*
X10156634Y7836448D01*
X10136277Y7862977D01*
X10109748Y7883334D01*
X10087555Y7892527D01*
Y7906273D01*
X10109748Y7915466D01*
X10136277Y7935823D01*
X10156634Y7962352D01*
X10169431Y7993246D01*
X10173796Y8026400D01*
X10169431Y8059554D01*
X10156634Y8090448D01*
X10136277Y8116977D01*
X10109748Y8137334D01*
X10087555Y8146527D01*
Y8160273D01*
X10109748Y8169466D01*
X10136277Y8189823D01*
X10156634Y8216352D01*
X10169431Y8247246D01*
X10173796Y8280400D01*
X10169431Y8313554D01*
X10156634Y8344448D01*
X10136277Y8370977D01*
X10109748Y8391334D01*
X10087555Y8400527D01*
Y8414273D01*
X10109748Y8423466D01*
X10136277Y8443823D01*
X10156634Y8470352D01*
X10169431Y8501246D01*
X10173796Y8534400D01*
X10169431Y8567554D01*
X10156634Y8598448D01*
X10136277Y8624977D01*
X10109748Y8645334D01*
X10087555Y8654527D01*
Y8668273D01*
X10109748Y8677466D01*
X10136277Y8697823D01*
X10156634Y8724352D01*
X10169431Y8755246D01*
X10173796Y8788400D01*
X10169431Y8821554D01*
X10156634Y8852448D01*
X10136277Y8878977D01*
X10109748Y8899334D01*
X10087555Y8908527D01*
Y8922273D01*
X10109748Y8931466D01*
X10136277Y8951823D01*
X10156634Y8978352D01*
X10169431Y9009246D01*
X10173796Y9042400D01*
X10169431Y9075554D01*
X10156634Y9106448D01*
X10136277Y9132977D01*
X10109748Y9153334D01*
X10087555Y9162527D01*
Y9176273D01*
X10109748Y9185466D01*
X10136277Y9205823D01*
X10156634Y9232352D01*
X10169431Y9263246D01*
X10173796Y9296400D01*
X10169431Y9329554D01*
X10156634Y9360448D01*
X10136277Y9386977D01*
X10109748Y9407334D01*
X10087555Y9416527D01*
Y9430273D01*
X10109748Y9439466D01*
X10136277Y9459823D01*
X10156634Y9486352D01*
X10169431Y9517246D01*
X10173796Y9550400D01*
X10169431Y9583554D01*
X10156634Y9614448D01*
X10136277Y9640977D01*
X10109748Y9661334D01*
X10087555Y9670527D01*
Y9684273D01*
X10109748Y9693466D01*
X10136277Y9713823D01*
X10156634Y9740352D01*
X10169431Y9771246D01*
X10173796Y9804400D01*
X10169431Y9837554D01*
X10156634Y9868448D01*
X10136277Y9894977D01*
X10109748Y9915334D01*
X10087555Y9924527D01*
Y9938273D01*
X10109748Y9947466D01*
X10136277Y9967823D01*
X10156634Y9994352D01*
X10169431Y10025246D01*
X10173796Y10058400D01*
X10169431Y10091554D01*
X10156634Y10122448D01*
X10136277Y10148977D01*
X10109748Y10169334D01*
X10087555Y10178527D01*
Y10192273D01*
X10109748Y10201466D01*
X10136277Y10221823D01*
X10156634Y10248352D01*
X10169431Y10279246D01*
X10173796Y10312400D01*
X10169431Y10345554D01*
X10156634Y10376448D01*
X10136277Y10402977D01*
X10109748Y10423334D01*
X10087555Y10432527D01*
Y10446273D01*
X10109748Y10455466D01*
X10136277Y10475823D01*
X10156634Y10502352D01*
X10169431Y10533246D01*
X10173796Y10566400D01*
X10169431Y10599554D01*
X10156634Y10630448D01*
X10136277Y10656977D01*
X10109748Y10677334D01*
X10078854Y10690131D01*
X10045700Y10694496D01*
X9740900D01*
X9707746Y10690131D01*
X9676852Y10677334D01*
X9650323Y10656977D01*
X9629966Y10630448D01*
X9617169Y10599554D01*
X9612804Y10566400D01*
X9617169Y10533246D01*
X9629966Y10502352D01*
X9650323Y10475823D01*
X9676852Y10455466D01*
X9699045Y10446273D01*
Y10432527D01*
X9676852Y10423334D01*
X9650323Y10402977D01*
X9629966Y10376448D01*
X9617169Y10345554D01*
X9612804Y10312400D01*
X9617169Y10279246D01*
X9629966Y10248352D01*
X9650323Y10221823D01*
X9676852Y10201466D01*
X9699045Y10192273D01*
Y10178527D01*
X9676852Y10169334D01*
X9650323Y10148977D01*
X9629966Y10122448D01*
X9617169Y10091554D01*
X9612804Y10058400D01*
X9617169Y10025246D01*
X9629966Y9994352D01*
X9650323Y9967823D01*
X9676852Y9947466D01*
X9699045Y9938273D01*
Y9924527D01*
X9676852Y9915334D01*
X9650323Y9894977D01*
X9629966Y9868448D01*
X9617169Y9837554D01*
X9612804Y9804400D01*
X9617169Y9771246D01*
X9629966Y9740352D01*
X9650323Y9713823D01*
X9676852Y9693466D01*
X9699045Y9684273D01*
Y9670527D01*
X9676852Y9661334D01*
X9650323Y9640977D01*
X9629966Y9614448D01*
X9617169Y9583554D01*
X9612804Y9550400D01*
X9617169Y9517246D01*
X9629966Y9486352D01*
X9650323Y9459823D01*
X9676852Y9439466D01*
X9699045Y9430273D01*
Y9416527D01*
X9676852Y9407334D01*
X9650323Y9386977D01*
X9629966Y9360448D01*
X9617169Y9329554D01*
X9612804Y9296400D01*
X9617169Y9263246D01*
X9629966Y9232352D01*
X9650323Y9205823D01*
X9676852Y9185466D01*
X9699045Y9176273D01*
Y9162527D01*
X9676852Y9153334D01*
X9650323Y9132977D01*
X9629966Y9106448D01*
X9617169Y9075554D01*
X9612804Y9042400D01*
X9617169Y9009246D01*
X9629966Y8978352D01*
X9650323Y8951823D01*
X9676852Y8931466D01*
X9699045Y8922273D01*
Y8908527D01*
X9676852Y8899334D01*
X9650323Y8878977D01*
X9629966Y8852448D01*
X9622789Y8835122D01*
X9405627D01*
X9385805Y8831179D01*
X9369002Y8819951D01*
X8993075Y8444025D01*
X8981847Y8427221D01*
X8977905Y8407400D01*
Y4783954D01*
X8373246Y4179295D01*
X7184254D01*
X5091225Y6272325D01*
X5074421Y6283553D01*
X5054600Y6287495D01*
X4144046D01*
X4141981Y6294303D01*
X4127829Y6320779D01*
X4108785Y6343985D01*
X4085579Y6363029D01*
X4059103Y6377181D01*
X4030376Y6385895D01*
X4000500Y6388837D01*
X3746500D01*
X3716624Y6385895D01*
X3687897Y6377181D01*
X3661421Y6363029D01*
X3638215Y6343985D01*
X3619171Y6320779D01*
X3605019Y6294303D01*
X3596305Y6265576D01*
X3594100Y6243186D01*
X3581400Y6243810D01*
Y6245732D01*
X3576207Y6265112D01*
X3566175Y6282488D01*
X3551988Y6296675D01*
X3534612Y6306707D01*
X3515232Y6311900D01*
X3495168D01*
X3475788Y6306707D01*
X3458412Y6296675D01*
X3446842Y6285106D01*
X3433164Y6286446D01*
X3430781Y6294303D01*
X3416629Y6320779D01*
X3397585Y6343985D01*
X3374379Y6363029D01*
X3347903Y6377181D01*
X3319176Y6385895D01*
X3289300Y6388837D01*
X3035300D01*
X3005424Y6385895D01*
X2976697Y6377181D01*
X2950221Y6363029D01*
X2927015Y6343985D01*
X2907971Y6320779D01*
X2893819Y6294303D01*
X2885105Y6265576D01*
X2882163Y6235700D01*
X2885105Y6205824D01*
X2893819Y6177097D01*
X2907971Y6150621D01*
X2927015Y6127415D01*
X2950221Y6108371D01*
X2976697Y6094219D01*
X3005424Y6085505D01*
X3035300Y6082563D01*
X3289300D01*
X3319176Y6085505D01*
X3347903Y6094219D01*
X3354177Y6097573D01*
X3608275Y5843475D01*
X3625079Y5832247D01*
X3644900Y5828305D01*
X4829946D01*
X6910275Y3747975D01*
X6927079Y3736747D01*
X6946900Y3732805D01*
X8496300D01*
X8516121Y3736747D01*
X8532925Y3747975D01*
X9256825Y4471875D01*
X9268053Y4488679D01*
X9271995Y4508500D01*
X9271995Y4508501D01*
Y8195446D01*
X9559154Y8482605D01*
X9624891D01*
X9629966Y8470352D01*
X9650323Y8443823D01*
X9676852Y8423466D01*
X9699045Y8414273D01*
Y8400527D01*
X9676852Y8391334D01*
X9650323Y8370977D01*
X9629966Y8344448D01*
X9617169Y8313554D01*
X9612804Y8280400D01*
X9617169Y8247246D01*
X9629966Y8216352D01*
X9650323Y8189823D01*
X9676852Y8169466D01*
X9699045Y8160273D01*
Y8146527D01*
X9676852Y8137334D01*
X9650323Y8116977D01*
X9629966Y8090448D01*
X9617169Y8059554D01*
X9612804Y8026400D01*
X9617169Y7993246D01*
X9629966Y7962352D01*
X9650323Y7935823D01*
X9676852Y7915466D01*
X9699045Y7906273D01*
Y7892527D01*
X9676852Y7883334D01*
X9650323Y7862977D01*
X9629966Y7836448D01*
X9617169Y7805554D01*
X9612804Y7772400D01*
X9617169Y7739246D01*
X9629966Y7708352D01*
X9650323Y7681823D01*
X9676852Y7661466D01*
X9699045Y7652273D01*
Y7638527D01*
X9676852Y7629334D01*
X9650323Y7608977D01*
X9629966Y7582448D01*
X9617169Y7551554D01*
X9612804Y7518400D01*
X9617169Y7485246D01*
X9629966Y7454352D01*
X9650323Y7427823D01*
X9676852Y7407466D01*
X9699045Y7398273D01*
Y7384527D01*
X9676852Y7375334D01*
X9650323Y7354977D01*
X9629966Y7328448D01*
X9617169Y7297554D01*
X9612804Y7264400D01*
X9617169Y7231246D01*
X9629966Y7200352D01*
X9650323Y7173823D01*
X9676852Y7153466D01*
X9699045Y7144273D01*
Y7130527D01*
X9676852Y7121334D01*
X9650323Y7100977D01*
X9629966Y7074448D01*
X9617169Y7043554D01*
X9612804Y7010400D01*
X9617169Y6977246D01*
X9629966Y6946352D01*
X9650323Y6919823D01*
X9676852Y6899466D01*
X9699045Y6890273D01*
Y6876527D01*
X9676852Y6867334D01*
X9650323Y6846977D01*
X9629966Y6820448D01*
X9617169Y6789554D01*
X9612804Y6756400D01*
X9617169Y6723246D01*
X9629966Y6692352D01*
X9650323Y6665823D01*
X9676852Y6645466D01*
X9699045Y6636273D01*
Y6622527D01*
X9676852Y6613334D01*
X9650323Y6592977D01*
X9629966Y6566448D01*
X9617169Y6535554D01*
X9612804Y6502400D01*
X9617169Y6469246D01*
X9629966Y6438352D01*
X9650323Y6411823D01*
X9676852Y6391466D01*
X9699045Y6382273D01*
Y6368527D01*
X9676852Y6359334D01*
X9650323Y6338977D01*
X9629966Y6312448D01*
X9617169Y6281554D01*
X9612804Y6248400D01*
X9617169Y6215246D01*
X9629966Y6184352D01*
X9650323Y6157823D01*
X9676852Y6137466D01*
X9699045Y6128273D01*
Y6114527D01*
X9676852Y6105334D01*
X9650323Y6084977D01*
X9629966Y6058448D01*
X9617169Y6027554D01*
X9612804Y5994400D01*
X9617169Y5961246D01*
X9629966Y5930352D01*
X9650323Y5903823D01*
X9676852Y5883466D01*
X9699045Y5874273D01*
Y5860527D01*
X9676852Y5851334D01*
X9650323Y5830977D01*
X9629966Y5804448D01*
X9624891Y5792195D01*
X9499600D01*
X9479779Y5788253D01*
X9462975Y5777025D01*
X9374075Y5688125D01*
X9362847Y5671321D01*
X9358905Y5651500D01*
Y4441054D01*
X8474846Y3556995D01*
X6701654D01*
X5380825Y4877825D01*
X5364021Y4889053D01*
X5344200Y4892995D01*
X4498243D01*
X4483125Y4919180D01*
X4459480Y4942825D01*
X4430520Y4959545D01*
X4398220Y4968200D01*
X4364780D01*
X4332480Y4959545D01*
X4303520Y4942825D01*
X4279875Y4919180D01*
X4264757Y4892995D01*
X3587654D01*
X2820395Y5660254D01*
Y6387314D01*
X2965230Y6532148D01*
X2976697Y6526019D01*
X3005424Y6517305D01*
X3035300Y6514363D01*
X3289300D01*
X3319176Y6517305D01*
X3347903Y6526019D01*
X3374379Y6540171D01*
X3397585Y6559215D01*
X3416629Y6582421D01*
X3430781Y6608897D01*
X3433164Y6616754D01*
X3446842Y6618094D01*
X3458412Y6606525D01*
X3475788Y6596493D01*
X3495168Y6591300D01*
X3515232D01*
X3534612Y6596493D01*
X3551988Y6606525D01*
X3566175Y6620712D01*
X3576207Y6638088D01*
X3581400Y6657468D01*
Y6659390D01*
X3594100Y6660014D01*
X3596305Y6637624D01*
X3605019Y6608897D01*
X3619171Y6582421D01*
X3638215Y6559215D01*
X3661421Y6540171D01*
X3687897Y6526019D01*
X3716624Y6517305D01*
X3746500Y6514363D01*
X4000500D01*
X4030376Y6517305D01*
X4059103Y6526019D01*
X4085579Y6540171D01*
X4108785Y6559215D01*
X4127829Y6582421D01*
X4141981Y6608897D01*
X4144046Y6615705D01*
X5388746D01*
X7316675Y4687775D01*
X7333479Y4676547D01*
X7353300Y4672605D01*
X8100891D01*
X8105966Y4660352D01*
X8126323Y4633823D01*
X8152852Y4613466D01*
X8183746Y4600669D01*
X8216900Y4596304D01*
X8521700D01*
X8554854Y4600669D01*
X8585748Y4613466D01*
X8612277Y4633823D01*
X8632634Y4660352D01*
X8645431Y4691246D01*
X8649796Y4724400D01*
X8645431Y4757554D01*
X8632634Y4788448D01*
X8612277Y4814977D01*
X8585748Y4835334D01*
X8563555Y4844527D01*
Y4858273D01*
X8585748Y4867466D01*
X8612277Y4887823D01*
X8632634Y4914352D01*
X8645431Y4945246D01*
X8648124Y4965700D01*
X8369300D01*
X8090476D01*
X8093169Y4945246D01*
X8105966Y4914352D01*
X8126323Y4887823D01*
X8152852Y4867466D01*
X8175045Y4858273D01*
Y4844527D01*
X8152852Y4835334D01*
X8126323Y4814977D01*
X8105966Y4788448D01*
X8100891Y4776195D01*
X7374754D01*
X5446825Y6704125D01*
X5430021Y6715353D01*
X5410200Y6719295D01*
X4144046D01*
X4141981Y6726103D01*
X4127829Y6752579D01*
X4108785Y6775785D01*
X4085579Y6794829D01*
X4059103Y6808981D01*
X4030376Y6817695D01*
X4000500Y6820637D01*
X3746500D01*
X3716624Y6817695D01*
X3687897Y6808981D01*
X3661421Y6794829D01*
X3638215Y6775785D01*
X3619171Y6752579D01*
X3605019Y6726103D01*
X3596305Y6697376D01*
X3594100Y6674986D01*
X3581400Y6675610D01*
Y6677532D01*
X3576207Y6696912D01*
X3566175Y6714288D01*
X3551988Y6728475D01*
X3534612Y6738507D01*
X3515232Y6743700D01*
X3495168D01*
X3475788Y6738507D01*
X3458412Y6728475D01*
X3446842Y6716906D01*
X3433164Y6718246D01*
X3430781Y6726103D01*
X3416629Y6752579D01*
X3397585Y6775785D01*
X3374379Y6794829D01*
X3347903Y6808981D01*
X3319176Y6817695D01*
X3289300Y6820637D01*
X3035300D01*
X3005424Y6817695D01*
X2976697Y6808981D01*
X2950221Y6794829D01*
X2927015Y6775785D01*
X2907971Y6752579D01*
X2893819Y6726103D01*
X2885105Y6697376D01*
X2882163Y6667500D01*
X2885105Y6637624D01*
X2893819Y6608897D01*
X2894398Y6607815D01*
X2731975Y6445393D01*
X2720747Y6428589D01*
X2716805Y6408768D01*
Y5638800D01*
X2720747Y5618979D01*
X2731975Y5602175D01*
X3529575Y4804575D01*
X3546379Y4793348D01*
X3566200Y4789405D01*
X3566201Y4789405D01*
X4264757D01*
X4279875Y4763220D01*
X4303520Y4739575D01*
X4332480Y4722855D01*
X4364780Y4714200D01*
X4398220D01*
X4430520Y4722855D01*
X4459480Y4739575D01*
X4483125Y4763220D01*
X4498243Y4789405D01*
X5322746D01*
X6643575Y3468575D01*
X6660379Y3457347D01*
X6680200Y3453405D01*
X8496300D01*
X8516121Y3457347D01*
X8532925Y3468575D01*
X9447325Y4382975D01*
X9458553Y4399779D01*
X9462495Y4419600D01*
Y5630046D01*
X9521054Y5688605D01*
X9624891D01*
X9629966Y5676352D01*
X9650323Y5649823D01*
X9676852Y5629466D01*
X9699045Y5620273D01*
Y5606527D01*
X9676852Y5597334D01*
X9650323Y5576977D01*
X9629966Y5550448D01*
X9617169Y5519554D01*
X9612804Y5486400D01*
X9617169Y5453246D01*
X9629966Y5422352D01*
X9650323Y5395823D01*
X9676852Y5375466D01*
X9699045Y5366273D01*
Y5352527D01*
X9676852Y5343334D01*
X9650323Y5322977D01*
X9629966Y5296448D01*
X9617169Y5265554D01*
X9612804Y5232400D01*
X9617169Y5199246D01*
X9629966Y5168352D01*
X9650323Y5141823D01*
X9676852Y5121466D01*
X9684978Y5118100D01*
X9682452Y5105400D01*
X9613900D01*
Y4851400D01*
X9682452D01*
X9684978Y4838700D01*
X9676852Y4835334D01*
X9650323Y4814977D01*
X9629966Y4788448D01*
X9617169Y4757554D01*
X9612804Y4724400D01*
X9617169Y4691246D01*
X9629966Y4660352D01*
X9650323Y4633823D01*
X9676852Y4613466D01*
X9707746Y4600669D01*
X9740900Y4596304D01*
X10045700D01*
X10078854Y4600669D01*
X10109748Y4613466D01*
X10136277Y4633823D01*
X10156634Y4660352D01*
X10169431Y4691246D01*
X10173796Y4724400D01*
X10169431Y4757554D01*
X10156634Y4788448D01*
X10136277Y4814977D01*
X10109748Y4835334D01*
X10101622Y4838700D01*
X10104148Y4851400D01*
X10172700D01*
Y4926605D01*
X10248900D01*
X10268721Y4930547D01*
X10285525Y4941775D01*
X10628425Y5284675D01*
X10639653Y5301479D01*
X10643595Y5321300D01*
Y10795000D01*
X10639653Y10814821D01*
X10628425Y10831625D01*
X9828325Y11631725D01*
X9811521Y11642953D01*
X9791700Y11646895D01*
D02*
G37*
G36*
X4508500Y4201200D02*
X4394200D01*
Y4086900D01*
X4508500D01*
Y4201200D01*
D02*
G37*
G36*
X4368800D02*
X4254500D01*
Y4086900D01*
X4368800D01*
Y4201200D01*
D02*
G37*
G36*
X4508500Y4061500D02*
X4394200D01*
Y3947200D01*
X4508500D01*
Y4061500D01*
D02*
G37*
G36*
X4368800D02*
X4254500D01*
Y3947200D01*
X4368800D01*
Y4061500D01*
D02*
G37*
G36*
X11198200Y3527400D02*
X11188700D01*
Y3314700D01*
X11401400D01*
Y3324200D01*
X11392738Y3367747D01*
X11375747Y3408767D01*
X11351080Y3445684D01*
X11319684Y3477080D01*
X11282767Y3501747D01*
X11241747Y3518738D01*
X11198200Y3527400D01*
D02*
G37*
G36*
X11163300D02*
X11153800D01*
X11110253Y3518738D01*
X11069233Y3501747D01*
X11032316Y3477080D01*
X11000920Y3445684D01*
X10976253Y3408767D01*
X10959262Y3367747D01*
X10950600Y3324200D01*
Y3314700D01*
X11163300D01*
Y3527400D01*
D02*
G37*
G36*
X3324200D02*
X3314700D01*
Y3314700D01*
X3527400D01*
Y3324200D01*
X3518738Y3367747D01*
X3501747Y3408767D01*
X3477080Y3445684D01*
X3445684Y3477080D01*
X3408767Y3501747D01*
X3367747Y3518738D01*
X3324200Y3527400D01*
D02*
G37*
G36*
X3289300D02*
X3279800D01*
X3236253Y3518738D01*
X3195233Y3501747D01*
X3158316Y3477080D01*
X3126920Y3445684D01*
X3102253Y3408767D01*
X3085262Y3367747D01*
X3076600Y3324200D01*
Y3314700D01*
X3289300D01*
Y3527400D01*
D02*
G37*
G36*
X11401400Y3289300D02*
X11188700D01*
Y3076600D01*
X11198200D01*
X11241747Y3085262D01*
X11282767Y3102253D01*
X11319684Y3126920D01*
X11351080Y3158316D01*
X11375747Y3195233D01*
X11392738Y3236253D01*
X11401400Y3279800D01*
Y3289300D01*
D02*
G37*
G36*
X11163300D02*
X10950600D01*
Y3279800D01*
X10959262Y3236253D01*
X10976253Y3195233D01*
X11000920Y3158316D01*
X11032316Y3126920D01*
X11069233Y3102253D01*
X11110253Y3085262D01*
X11153800Y3076600D01*
X11163300D01*
Y3289300D01*
D02*
G37*
G36*
X3527400D02*
X3314700D01*
Y3076600D01*
X3324200D01*
X3367747Y3085262D01*
X3408767Y3102253D01*
X3445684Y3126920D01*
X3477080Y3158316D01*
X3501747Y3195233D01*
X3518738Y3236253D01*
X3527400Y3279800D01*
Y3289300D01*
D02*
G37*
G36*
X3289300D02*
X3076600D01*
Y3279800D01*
X3085262Y3236253D01*
X3102253Y3195233D01*
X3126920Y3158316D01*
X3158316Y3126920D01*
X3195233Y3102253D01*
X3236253Y3085262D01*
X3279800Y3076600D01*
X3289300D01*
Y3289300D01*
D02*
G37*
%LPD*%
G36*
X6590305Y11586346D02*
Y11311754D01*
X6544446Y11265895D01*
X6249586D01*
X6245838Y11274946D01*
X6226499Y11300149D01*
X6201296Y11319488D01*
X6171946Y11331645D01*
X6140450Y11335791D01*
X5822950D01*
X5791454Y11331645D01*
X5762104Y11319488D01*
X5736901Y11300149D01*
X5717562Y11274946D01*
X5705405Y11245596D01*
X5701259Y11214100D01*
X5705405Y11182604D01*
X5709154Y11173554D01*
X5386275Y10850675D01*
X5375047Y10833871D01*
X5371105Y10814050D01*
Y10287000D01*
X5375047Y10267179D01*
X5386275Y10250375D01*
X5640275Y9996376D01*
X5640275Y9996375D01*
X5657079Y9985147D01*
X5676900Y9981205D01*
X5676901Y9981205D01*
X7112000D01*
X7131821Y9985147D01*
X7148625Y9996375D01*
X8035154Y10882905D01*
X8538346D01*
X8736605Y10684646D01*
Y5342754D01*
X8678046Y5284195D01*
X8637709D01*
X8632634Y5296448D01*
X8612277Y5322977D01*
X8585748Y5343334D01*
X8563555Y5352527D01*
Y5366273D01*
X8585748Y5375466D01*
X8612277Y5395823D01*
X8632634Y5422352D01*
X8645431Y5453246D01*
X8649796Y5486400D01*
X8645431Y5519554D01*
X8632634Y5550448D01*
X8612277Y5576977D01*
X8585748Y5597334D01*
X8563555Y5606527D01*
Y5620273D01*
X8585748Y5629466D01*
X8612277Y5649823D01*
X8632634Y5676352D01*
X8645431Y5707246D01*
X8649796Y5740400D01*
X8645431Y5773554D01*
X8632634Y5804448D01*
X8612277Y5830977D01*
X8585748Y5851334D01*
X8563555Y5860527D01*
Y5874273D01*
X8585748Y5883466D01*
X8612277Y5903823D01*
X8632634Y5930352D01*
X8645431Y5961246D01*
X8649796Y5994400D01*
X8645431Y6027554D01*
X8632634Y6058448D01*
X8612277Y6084977D01*
X8585748Y6105334D01*
X8563555Y6114527D01*
Y6128273D01*
X8585748Y6137466D01*
X8612277Y6157823D01*
X8632634Y6184352D01*
X8645431Y6215246D01*
X8649796Y6248400D01*
X8645431Y6281554D01*
X8632634Y6312448D01*
X8612277Y6338977D01*
X8585748Y6359334D01*
X8563555Y6368527D01*
Y6382273D01*
X8585748Y6391466D01*
X8612277Y6411823D01*
X8632634Y6438352D01*
X8645431Y6469246D01*
X8649796Y6502400D01*
X8645431Y6535554D01*
X8632634Y6566448D01*
X8612277Y6592977D01*
X8585748Y6613334D01*
X8563555Y6622527D01*
Y6636273D01*
X8585748Y6645466D01*
X8612277Y6665823D01*
X8632634Y6692352D01*
X8645431Y6723246D01*
X8649796Y6756400D01*
X8645431Y6789554D01*
X8632634Y6820448D01*
X8612277Y6846977D01*
X8585748Y6867334D01*
X8563555Y6876527D01*
Y6890273D01*
X8585748Y6899466D01*
X8612277Y6919823D01*
X8632634Y6946352D01*
X8645431Y6977246D01*
X8649796Y7010400D01*
X8645431Y7043554D01*
X8632634Y7074448D01*
X8612277Y7100977D01*
X8585748Y7121334D01*
X8563555Y7130527D01*
Y7144273D01*
X8585748Y7153466D01*
X8612277Y7173823D01*
X8632634Y7200352D01*
X8645431Y7231246D01*
X8649796Y7264400D01*
X8645431Y7297554D01*
X8632634Y7328448D01*
X8612277Y7354977D01*
X8585748Y7375334D01*
X8563555Y7384527D01*
Y7398273D01*
X8585748Y7407466D01*
X8612277Y7427823D01*
X8632634Y7454352D01*
X8645431Y7485246D01*
X8649796Y7518400D01*
X8645431Y7551554D01*
X8632634Y7582448D01*
X8612277Y7608977D01*
X8585748Y7629334D01*
X8563555Y7638527D01*
Y7652273D01*
X8585748Y7661466D01*
X8612277Y7681823D01*
X8632634Y7708352D01*
X8645431Y7739246D01*
X8649796Y7772400D01*
X8645431Y7805554D01*
X8632634Y7836448D01*
X8612277Y7862977D01*
X8585748Y7883334D01*
X8563555Y7892527D01*
Y7906273D01*
X8585748Y7915466D01*
X8612277Y7935823D01*
X8632634Y7962352D01*
X8645431Y7993246D01*
X8649796Y8026400D01*
X8645431Y8059554D01*
X8632634Y8090448D01*
X8612277Y8116977D01*
X8585748Y8137334D01*
X8563555Y8146527D01*
Y8160273D01*
X8585748Y8169466D01*
X8612277Y8189823D01*
X8632634Y8216352D01*
X8645431Y8247246D01*
X8649796Y8280400D01*
X8645431Y8313554D01*
X8632634Y8344448D01*
X8612277Y8370977D01*
X8585748Y8391334D01*
X8563555Y8400527D01*
Y8414273D01*
X8585748Y8423466D01*
X8612277Y8443823D01*
X8632634Y8470352D01*
X8645431Y8501246D01*
X8649796Y8534400D01*
X8645431Y8567554D01*
X8632634Y8598448D01*
X8612277Y8624977D01*
X8585748Y8645334D01*
X8563555Y8654527D01*
Y8668273D01*
X8585748Y8677466D01*
X8612277Y8697823D01*
X8632634Y8724352D01*
X8645431Y8755246D01*
X8649796Y8788400D01*
X8645431Y8821554D01*
X8632634Y8852448D01*
X8612277Y8878977D01*
X8585748Y8899334D01*
X8563555Y8908527D01*
Y8922273D01*
X8585748Y8931466D01*
X8612277Y8951823D01*
X8632634Y8978352D01*
X8645431Y9009246D01*
X8649796Y9042400D01*
X8645431Y9075554D01*
X8632634Y9106448D01*
X8612277Y9132977D01*
X8585748Y9153334D01*
X8563555Y9162527D01*
Y9176273D01*
X8585748Y9185466D01*
X8612277Y9205823D01*
X8632634Y9232352D01*
X8645431Y9263246D01*
X8649796Y9296400D01*
X8645431Y9329554D01*
X8632634Y9360448D01*
X8612277Y9386977D01*
X8585748Y9407334D01*
X8563555Y9416527D01*
Y9430273D01*
X8585748Y9439466D01*
X8612277Y9459823D01*
X8632634Y9486352D01*
X8645431Y9517246D01*
X8649796Y9550400D01*
X8645431Y9583554D01*
X8632634Y9614448D01*
X8612277Y9640977D01*
X8585748Y9661334D01*
X8563555Y9670527D01*
Y9684273D01*
X8585748Y9693466D01*
X8612277Y9713823D01*
X8632634Y9740352D01*
X8645431Y9771246D01*
X8649796Y9804400D01*
X8645431Y9837554D01*
X8632634Y9868448D01*
X8612277Y9894977D01*
X8585748Y9915334D01*
X8563555Y9924527D01*
Y9938273D01*
X8585748Y9947466D01*
X8612277Y9967823D01*
X8632634Y9994352D01*
X8645431Y10025246D01*
X8649796Y10058400D01*
X8645431Y10091554D01*
X8632634Y10122448D01*
X8612277Y10148977D01*
X8585748Y10169334D01*
X8563555Y10178527D01*
Y10192273D01*
X8585748Y10201466D01*
X8612277Y10221823D01*
X8632634Y10248352D01*
X8645431Y10279246D01*
X8649796Y10312400D01*
X8645431Y10345554D01*
X8632634Y10376448D01*
X8612277Y10402977D01*
X8585748Y10423334D01*
X8563555Y10432527D01*
Y10446273D01*
X8585748Y10455466D01*
X8612277Y10475823D01*
X8632634Y10502352D01*
X8645431Y10533246D01*
X8649796Y10566400D01*
X8645431Y10599554D01*
X8632634Y10630448D01*
X8612277Y10656977D01*
X8585748Y10677334D01*
X8554854Y10690131D01*
X8521700Y10694496D01*
X8216900D01*
X8183746Y10690131D01*
X8152852Y10677334D01*
X8126323Y10656977D01*
X8105966Y10630448D01*
X8093169Y10599554D01*
X8088804Y10566400D01*
X8093169Y10533246D01*
X8105966Y10502352D01*
X8126323Y10475823D01*
X8152852Y10455466D01*
X8175045Y10446273D01*
Y10432527D01*
X8152852Y10423334D01*
X8126323Y10402977D01*
X8105966Y10376448D01*
X8093169Y10345554D01*
X8088804Y10312400D01*
X8093169Y10279246D01*
X8105966Y10248352D01*
X8126323Y10221823D01*
X8152852Y10201466D01*
X8175045Y10192273D01*
Y10178527D01*
X8152852Y10169334D01*
X8126323Y10148977D01*
X8105966Y10122448D01*
X8093169Y10091554D01*
X8088804Y10058400D01*
X8093169Y10025246D01*
X8105966Y9994352D01*
X8126323Y9967823D01*
X8152852Y9947466D01*
X8175045Y9938273D01*
Y9924527D01*
X8152852Y9915334D01*
X8126323Y9894977D01*
X8105966Y9868448D01*
X8093169Y9837554D01*
X8088804Y9804400D01*
X8093169Y9771246D01*
X8105966Y9740352D01*
X8126323Y9713823D01*
X8152852Y9693466D01*
X8175045Y9684273D01*
Y9670527D01*
X8152852Y9661334D01*
X8126323Y9640977D01*
X8105966Y9614448D01*
X8093169Y9583554D01*
X8088804Y9550400D01*
X8093169Y9517246D01*
X8105966Y9486352D01*
X8126323Y9459823D01*
X8152852Y9439466D01*
X8175045Y9430273D01*
Y9416527D01*
X8152852Y9407334D01*
X8126323Y9386977D01*
X8105966Y9360448D01*
X8098209Y9341721D01*
X5981701D01*
X5981700Y9341721D01*
X5964356Y9338271D01*
X5949653Y9328447D01*
X4934227Y8313021D01*
X4099323D01*
X4094778Y8325721D01*
X4108785Y8337215D01*
X4127829Y8360421D01*
X4141981Y8386897D01*
X4144046Y8393705D01*
X4521200D01*
X4541021Y8397647D01*
X4557825Y8408875D01*
X5116625Y8967675D01*
X5127853Y8984479D01*
X5131795Y9004300D01*
Y10807700D01*
X5127853Y10827521D01*
X5116625Y10844325D01*
X4964225Y10996725D01*
X4947421Y11007953D01*
X4927600Y11011895D01*
X4852586D01*
X4848838Y11020946D01*
X4829499Y11046149D01*
X4804296Y11065488D01*
X4774946Y11077645D01*
X4743450Y11081791D01*
X4425950D01*
X4394454Y11077645D01*
X4365104Y11065488D01*
X4339901Y11046149D01*
X4320562Y11020946D01*
X4308405Y10991596D01*
X4304259Y10960100D01*
X4308405Y10928604D01*
X4320562Y10899254D01*
X4339901Y10874051D01*
X4365104Y10854712D01*
X4394454Y10842555D01*
X4417625Y10839505D01*
Y10826695D01*
X4394454Y10823645D01*
X4365104Y10811488D01*
X4339901Y10792149D01*
X4320562Y10766946D01*
X4308405Y10737596D01*
X4304259Y10706100D01*
X4308405Y10674604D01*
X4320562Y10645254D01*
X4339901Y10620051D01*
X4365104Y10600712D01*
X4394454Y10588555D01*
X4425950Y10584409D01*
X4532905D01*
Y9482954D01*
X4065377Y9015427D01*
X4059103Y9018781D01*
X4030376Y9027495D01*
X4000500Y9030437D01*
X3746500D01*
X3716624Y9027495D01*
X3687897Y9018781D01*
X3661421Y9004629D01*
X3638215Y8985585D01*
X3619171Y8962379D01*
X3605019Y8935903D01*
X3596305Y8907176D01*
X3594100Y8884786D01*
X3581400Y8885410D01*
Y8887332D01*
X3576207Y8906712D01*
X3566175Y8924088D01*
X3551988Y8938275D01*
X3534612Y8948307D01*
X3515232Y8953500D01*
X3495168D01*
X3475788Y8948307D01*
X3458412Y8938275D01*
X3446842Y8926706D01*
X3433164Y8928046D01*
X3430781Y8935903D01*
X3416629Y8962379D01*
X3397585Y8985585D01*
X3374379Y9004629D01*
X3347903Y9018781D01*
X3319176Y9027495D01*
X3289300Y9030437D01*
X3214095D01*
Y10494146D01*
X4453754Y11733805D01*
X6442846D01*
X6590305Y11586346D01*
D02*
G37*
G36*
X8105966Y9232352D02*
X8126323Y9205823D01*
X8152852Y9185466D01*
X8175045Y9176273D01*
Y9162527D01*
X8152852Y9153334D01*
X8126323Y9132977D01*
X8105966Y9106448D01*
X8100891Y9094195D01*
X6121400D01*
X6101579Y9090253D01*
X6084775Y9079025D01*
X5147446Y8141695D01*
X4144046D01*
X4141981Y8148503D01*
X4127829Y8174979D01*
X4108785Y8198185D01*
X4094778Y8209679D01*
X4099323Y8222379D01*
X4953000D01*
X4970344Y8225829D01*
X4985047Y8235653D01*
X6000473Y9251079D01*
X8098209D01*
X8105966Y9232352D01*
D02*
G37*
G36*
X10540005Y10773546D02*
Y5342754D01*
X10227446Y5030195D01*
X10172700D01*
Y5105400D01*
X10104148D01*
X10101622Y5118100D01*
X10109748Y5121466D01*
X10136277Y5141823D01*
X10156634Y5168352D01*
X10169431Y5199246D01*
X10170153Y5204728D01*
X10171423D01*
X10191245Y5208671D01*
X10208048Y5219899D01*
X10425225Y5437075D01*
X10436453Y5453879D01*
X10440395Y5473700D01*
Y10629900D01*
X10436453Y10649721D01*
X10425225Y10666525D01*
X9828325Y11263425D01*
X9811521Y11274653D01*
X9791700Y11278595D01*
X7899400D01*
X7879579Y11274653D01*
X7862775Y11263425D01*
X7103246Y10503895D01*
X6249586D01*
X6245838Y10512946D01*
X6226499Y10538149D01*
X6201296Y10557488D01*
X6171946Y10569645D01*
X6148775Y10572695D01*
Y10585505D01*
X6171946Y10588555D01*
X6201296Y10600712D01*
X6226499Y10620051D01*
X6245838Y10645254D01*
X6249586Y10654305D01*
X6836292D01*
X6856113Y10658247D01*
X6872916Y10669475D01*
X7746746Y11543305D01*
X9770246D01*
X10540005Y10773546D01*
D02*
G37*
G36*
X9629966Y8724352D02*
X9650323Y8697823D01*
X9676852Y8677466D01*
X9699045Y8668273D01*
Y8654527D01*
X9676852Y8645334D01*
X9650323Y8624977D01*
X9629966Y8598448D01*
X9624891Y8586195D01*
X9537700D01*
X9517879Y8582253D01*
X9501075Y8571025D01*
X9183575Y8253525D01*
X9172347Y8236721D01*
X9168405Y8216900D01*
Y4529954D01*
X8474846Y3836395D01*
X6968354D01*
X4888025Y5916725D01*
X4871221Y5927953D01*
X4851400Y5931895D01*
X3666354D01*
X3427427Y6170823D01*
X3430781Y6177097D01*
X3433164Y6184954D01*
X3446842Y6186294D01*
X3458412Y6174725D01*
X3475788Y6164693D01*
X3495168Y6159500D01*
X3515232D01*
X3534612Y6164693D01*
X3551988Y6174725D01*
X3566175Y6188912D01*
X3576207Y6206288D01*
X3581400Y6225668D01*
Y6227590D01*
X3594100Y6228214D01*
X3596305Y6205824D01*
X3605019Y6177097D01*
X3619171Y6150621D01*
X3638215Y6127415D01*
X3661421Y6108371D01*
X3687897Y6094219D01*
X3716624Y6085505D01*
X3746500Y6082563D01*
X4000500D01*
X4030376Y6085505D01*
X4059103Y6094219D01*
X4085579Y6108371D01*
X4108785Y6127415D01*
X4127829Y6150621D01*
X4141981Y6177097D01*
X4144046Y6183905D01*
X5033146D01*
X7126175Y4090876D01*
X7126175Y4090875D01*
X7142979Y4079647D01*
X7162800Y4075705D01*
X7162801Y4075705D01*
X8394700D01*
X8414521Y4079647D01*
X8431325Y4090875D01*
X9066325Y4725875D01*
X9077553Y4742679D01*
X9081495Y4762500D01*
Y8385946D01*
X9427081Y8731531D01*
X9626992D01*
X9629966Y8724352D01*
D02*
G37*
D10*
X3302000Y3302000D02*
D03*
X11176000D02*
D03*
Y11684000D02*
D03*
X3302000D02*
D03*
D11*
X2768600Y6408768D02*
X3027332Y6667500D01*
X2768600Y5638800D02*
X3566200Y4841200D01*
X2768600Y5638800D02*
Y6408768D01*
X3027332Y6667500D02*
X3162300D01*
X3566200Y4841200D02*
X4381500D01*
X5344200D01*
X6680200Y3505200D01*
X8496300D01*
X9410700Y4419600D02*
Y5651500D01*
X8496300Y3505200D02*
X9410700Y4419600D01*
Y5651500D02*
X9499600Y5740400D01*
X9893300D01*
X9029700Y8407400D02*
X9405627Y8783327D01*
X8394700Y4127500D02*
X9029700Y4762500D01*
Y8407400D01*
X9220200Y4508500D02*
Y8216900D01*
X9537700Y8534400D01*
X8496300Y3784600D02*
X9220200Y4508500D01*
X3162300Y8877300D02*
Y10515600D01*
X4432300Y11785600D02*
X6464300D01*
X3162300Y10515600D02*
X4432300Y11785600D01*
X3644900Y5880100D02*
X4851400D01*
X3162300Y6235700D02*
X3289300D01*
X3644900Y5880100D01*
X4851400D02*
X6946900Y3784600D01*
X8496300D01*
X9537700Y8534400D02*
X9893300D01*
X9405627Y8783327D02*
X9888227D01*
X7162800Y4127500D02*
X8394700D01*
X3873500Y6235700D02*
X5054600D01*
X7162800Y4127500D01*
X9888227Y8783327D02*
X9893300Y8788400D01*
X3873500Y6667500D02*
X5410200D01*
X7353300Y4724400D02*
X8369300D01*
X5410200Y6667500D02*
X7353300Y4724400D01*
X9893300Y5232400D02*
X9917423Y5256523D01*
X10171423D02*
X10388600Y5473700D01*
Y10629900D01*
X9917423Y5256523D02*
X10171423D01*
X10591800Y5321300D02*
Y10795000D01*
X9893300Y4978400D02*
X10248900D01*
X10591800Y5321300D01*
X8369300Y5232400D02*
X8699500D01*
X8788400Y5321300D02*
Y10706100D01*
X8699500Y5232400D02*
X8788400Y5321300D01*
X7340600Y5486400D02*
X8369300D01*
X3873500Y7023100D02*
X5803900D01*
X7340600Y5486400D01*
X3873500Y7378700D02*
X6045200D01*
X7683500Y5740400D02*
X8369300D01*
X6045200Y7378700D02*
X7683500Y5740400D01*
X5981700Y11214100D02*
X6565900D01*
X6642100Y11290300D02*
Y11607800D01*
X6565900Y11214100D02*
X6642100Y11290300D01*
X6464300Y11785600D02*
X6642100Y11607800D01*
X5822950Y11214100D02*
X5981700D01*
X5422900Y10814050D02*
X5822950Y11214100D01*
X5422900Y10287000D02*
Y10814050D01*
Y10287000D02*
X5676900Y10033000D01*
X7112000D01*
X8013700Y10934700D01*
X5981700Y10452100D02*
X7124700D01*
X7899400Y11226800D01*
X8559800Y10934700D02*
X8788400Y10706100D01*
X8013700Y10934700D02*
X8559800D01*
X5981700Y10706100D02*
X6836292D01*
X7899400Y11226800D02*
X9791700D01*
X6836292Y10706100D02*
X7725292Y11595100D01*
X9791700D01*
Y11226800D02*
X10388600Y10629900D01*
X9791700Y11595100D02*
X10591800Y10795000D01*
X4521200Y8445500D02*
X5080000Y9004300D01*
X3873500Y8445500D02*
X4521200D01*
X5080000Y9004300D02*
Y10807700D01*
X4927600Y10960100D02*
X5080000Y10807700D01*
X4584700Y10960100D02*
X4927600D01*
X4000500Y8877300D02*
X4584700Y9461500D01*
X3873500Y8877300D02*
X4000500D01*
X4584700Y9461500D02*
Y10706100D01*
X3873500Y8089900D02*
X5168900D01*
X6121400Y9042400D01*
X8369300D01*
X5168900Y7734300D02*
X6223000Y8788400D01*
X8369300D01*
X3873500Y7734300D02*
X5168900D01*
D12*
X5981700Y9296400D02*
X8369300D01*
X4953000Y8267700D02*
X5981700Y9296400D01*
X3467100Y8267700D02*
X4953000D01*
X3289300Y8445500D02*
X3467100Y8267700D01*
X3162300Y8445500D02*
X3289300D01*
D13*
X3162300Y7734300D02*
D03*
Y8089900D02*
D03*
Y8445500D02*
D03*
Y8877300D02*
D03*
X3873500D02*
D03*
Y8445500D02*
D03*
Y8089900D02*
D03*
Y7734300D02*
D03*
X3162300Y6235700D02*
D03*
Y6667500D02*
D03*
X3873500Y7378700D02*
D03*
Y7023100D02*
D03*
Y6667500D02*
D03*
Y6235700D02*
D03*
X3162300Y7378700D02*
D03*
Y7023100D02*
D03*
D14*
X4381500Y4841200D02*
D03*
D15*
Y4074200D02*
D03*
D16*
X4584700Y10960100D02*
D03*
Y10706100D02*
D03*
X5981700Y10452100D02*
D03*
Y10706100D02*
D03*
Y10960100D02*
D03*
Y11214100D02*
D03*
D17*
X9893300Y10566400D02*
D03*
Y10312400D02*
D03*
Y10058400D02*
D03*
Y9804400D02*
D03*
Y9550400D02*
D03*
Y9296400D02*
D03*
Y9042400D02*
D03*
Y8788400D02*
D03*
Y8534400D02*
D03*
Y4724400D02*
D03*
X8369300Y5486400D02*
D03*
Y5740400D02*
D03*
Y5994400D02*
D03*
Y6248400D02*
D03*
Y6502400D02*
D03*
Y6756400D02*
D03*
Y7010400D02*
D03*
Y7264400D02*
D03*
Y7518400D02*
D03*
Y7772400D02*
D03*
Y8026400D02*
D03*
Y8280400D02*
D03*
Y5232400D02*
D03*
Y4978400D02*
D03*
Y4724400D02*
D03*
Y8534400D02*
D03*
Y8788400D02*
D03*
Y9042400D02*
D03*
Y9296400D02*
D03*
Y9550400D02*
D03*
Y9804400D02*
D03*
Y10058400D02*
D03*
Y10312400D02*
D03*
Y10566400D02*
D03*
X9893300Y8280400D02*
D03*
Y8026400D02*
D03*
Y7772400D02*
D03*
Y7518400D02*
D03*
Y7264400D02*
D03*
Y7010400D02*
D03*
Y6756400D02*
D03*
Y6502400D02*
D03*
Y6248400D02*
D03*
Y5994400D02*
D03*
Y5740400D02*
D03*
Y5486400D02*
D03*
Y5232400D02*
D03*
D18*
Y4978400D02*
D03*
%TF.MD5,6bd3f9c0fe49e53e3f91f7d5e69bfd02*%
M02*
