%TF.GenerationSoftware,Altium Limited,Altium Designer,24.4.1 (13)*%
G04 Layer_Color=16711935*
%FSLAX45Y45*%
%MOMM*%
%TF.SameCoordinates,D1C9AD75-6FC3-430C-8E8E-54DC3705F24A*%
%TF.FilePolarity,Negative*%
%TF.FileFunction,Soldermask,Bot*%
%TF.Part,Single*%
G01*
G75*
%TA.AperFunction,ComponentPad*%
%ADD14C,2.03200*%
%ADD15R,2.03200X2.03200*%
%ADD22C,0.20320*%
%TA.AperFunction,ViaPad*%
%ADD23C,1.21920*%
%TA.AperFunction,ComponentPad*%
%ADD25O,5.28320X2.74320*%
%ADD26O,5.28320X2.10820*%
%ADD27O,5.28320X2.23520*%
%ADD28R,5.28320X2.23520*%
D14*
X4381500Y4841200D02*
D03*
D15*
Y4074200D02*
D03*
D22*
X3505200Y6235700D02*
D03*
Y6667500D02*
D03*
Y7023100D02*
D03*
Y7378700D02*
D03*
Y7734300D02*
D03*
Y8089900D02*
D03*
Y8445500D02*
D03*
Y8877300D02*
D03*
D23*
X3302000Y3302000D02*
D03*
X11176000D02*
D03*
Y11684000D02*
D03*
X3302000D02*
D03*
D25*
X3162300Y7734300D02*
D03*
Y8089900D02*
D03*
Y8445500D02*
D03*
Y8877300D02*
D03*
X3873500D02*
D03*
Y8445500D02*
D03*
Y8089900D02*
D03*
Y7734300D02*
D03*
X3162300Y6235700D02*
D03*
Y6667500D02*
D03*
X3873500Y7378700D02*
D03*
Y7023100D02*
D03*
Y6667500D02*
D03*
Y6235700D02*
D03*
X3162300Y7378700D02*
D03*
Y7023100D02*
D03*
D26*
X4584700Y10960100D02*
D03*
Y10706100D02*
D03*
X5981700Y10452100D02*
D03*
Y10706100D02*
D03*
Y10960100D02*
D03*
Y11214100D02*
D03*
D27*
X9893300Y10566400D02*
D03*
Y10312400D02*
D03*
Y10058400D02*
D03*
Y9804400D02*
D03*
Y9550400D02*
D03*
Y9296400D02*
D03*
Y9042400D02*
D03*
Y8788400D02*
D03*
Y8534400D02*
D03*
Y4724400D02*
D03*
X8369300Y5486400D02*
D03*
Y5740400D02*
D03*
Y5994400D02*
D03*
Y6248400D02*
D03*
Y6502400D02*
D03*
Y6756400D02*
D03*
Y7010400D02*
D03*
Y7264400D02*
D03*
Y7518400D02*
D03*
Y7772400D02*
D03*
Y8026400D02*
D03*
Y8280400D02*
D03*
Y5232400D02*
D03*
Y4978400D02*
D03*
Y4724400D02*
D03*
Y8534400D02*
D03*
Y8788400D02*
D03*
Y9042400D02*
D03*
Y9296400D02*
D03*
Y9550400D02*
D03*
Y9804400D02*
D03*
Y10058400D02*
D03*
Y10312400D02*
D03*
Y10566400D02*
D03*
X9893300Y8280400D02*
D03*
Y8026400D02*
D03*
Y7772400D02*
D03*
Y7518400D02*
D03*
Y7264400D02*
D03*
Y7010400D02*
D03*
Y6756400D02*
D03*
Y6502400D02*
D03*
Y6248400D02*
D03*
Y5994400D02*
D03*
Y5740400D02*
D03*
Y5486400D02*
D03*
Y5232400D02*
D03*
D28*
Y4978400D02*
D03*
%TF.MD5,a600a0227f94256a0dd078d703dd39ab*%
M02*
