%TF.GenerationSoftware,Altium Limited,Altium Designer,25.2.1 (25)*%
G04 Layer_Physical_Order=2*
G04 Layer_Color=16711680*
%FSLAX45Y45*%
%MOMM*%
%TF.SameCoordinates,E14999F2-3F76-4230-806F-2BB8C5B8D12E*%
%TF.FilePolarity,Positive*%
%TF.FileFunction,Copper,L2,Bot,Signal*%
%TF.Part,Single*%
G01*
G75*
%TA.AperFunction,Conductor*%
%ADD11C,0.25400*%
%ADD12C,0.30480*%
%TA.AperFunction,ViaPad*%
%ADD13C,1.52400*%
%TA.AperFunction,ComponentPad*%
%ADD19C,2.99000*%
%TA.AperFunction,ViaPad*%
%ADD23C,1.27000*%
%TA.AperFunction,ComponentPad*%
%ADD24O,1.65100X3.04800*%
%ADD25O,1.65100X1.30800*%
%ADD26C,1.27000*%
%ADD27O,1.25800X1.65100*%
%ADD28O,1.65100X2.54000*%
%ADD29O,1.65100X2.79400*%
%ADD30C,3.30200*%
%ADD31R,3.30200X3.30200*%
%ADD32O,5.08000X1.90500*%
%ADD33R,3.04800X1.90500*%
%ADD34O,3.04800X1.90500*%
G36*
X10680700Y3892550D02*
Y1950098D01*
X9001125Y304800D01*
X8769520D01*
X8761789Y321498D01*
X8760787Y330200D01*
X8955569Y524981D01*
X8963989Y537584D01*
X8966947Y552450D01*
Y1225550D01*
X8963989Y1240416D01*
X8955569Y1253019D01*
X8873019Y1335569D01*
X8867927Y1338971D01*
X8867845Y1339596D01*
X8855688Y1368946D01*
X8836349Y1394149D01*
X8811146Y1413488D01*
X8791431Y1421653D01*
X8796484Y1447053D01*
X10001250D01*
X10016116Y1450011D01*
X10028719Y1458431D01*
X10422419Y1852131D01*
X10430839Y1864734D01*
X10433797Y1879600D01*
Y1886797D01*
X10449391Y1893256D01*
X10471941Y1910559D01*
X10489244Y1933109D01*
X10500121Y1959369D01*
X10503831Y1987550D01*
Y2127250D01*
X10500121Y2155431D01*
X10489244Y2181691D01*
X10471941Y2204241D01*
X10449391Y2221544D01*
X10423131Y2232421D01*
X10394950Y2236131D01*
X10366769Y2232421D01*
X10340509Y2221544D01*
X10317959Y2204241D01*
X10300656Y2181691D01*
X10289779Y2155431D01*
X10286069Y2127250D01*
Y1987550D01*
X10289779Y1959369D01*
X10300656Y1933109D01*
X10317959Y1910559D01*
X10327630Y1903138D01*
X10331727Y1871315D01*
X9985159Y1524747D01*
X8039100D01*
X8024234Y1521789D01*
X8011631Y1513369D01*
X7630631Y1132369D01*
X7622211Y1119766D01*
X7619253Y1104900D01*
Y816191D01*
X7375309Y572247D01*
X5051641D01*
X4428525Y1195362D01*
X4421150Y1206400D01*
X4407707Y1215382D01*
X4391850Y1218536D01*
X4375993Y1215382D01*
X4370852Y1211947D01*
X3226000D01*
X3216888Y1233946D01*
X3197549Y1259149D01*
X3172346Y1278488D01*
X3158184Y1284354D01*
Y1311846D01*
X3172346Y1317712D01*
X3197549Y1337051D01*
X3216888Y1362254D01*
X3229045Y1391604D01*
X3231519Y1410400D01*
X3054350D01*
X2877181D01*
X2879655Y1391604D01*
X2891812Y1362254D01*
X2911151Y1337051D01*
X2936354Y1317712D01*
X2950516Y1311846D01*
Y1284354D01*
X2936354Y1278488D01*
X2911151Y1259149D01*
X2891812Y1233946D01*
X2879655Y1204596D01*
X2877801Y1190508D01*
X2850983Y1181404D01*
X2635997Y1396391D01*
Y2255800D01*
X2633039Y2270666D01*
X2624619Y2283269D01*
X2375897Y2531990D01*
X2385369Y2546165D01*
X2399729Y2580833D01*
X2407050Y2617637D01*
Y2655163D01*
X2399729Y2691967D01*
X2385369Y2726636D01*
X2364521Y2757837D01*
X2337987Y2784371D01*
X2306786Y2805219D01*
X2272117Y2819579D01*
X2235313Y2826900D01*
X2197787D01*
X2160983Y2819579D01*
X2126315Y2805219D01*
X2095113Y2784371D01*
X2068579Y2757837D01*
X2047731Y2726636D01*
X2033371Y2691967D01*
X2026050Y2655163D01*
Y2617637D01*
X2033371Y2580833D01*
X2047731Y2546165D01*
X2068579Y2514963D01*
X2095113Y2488429D01*
X2126315Y2467581D01*
X2160983Y2453221D01*
X2197787Y2445900D01*
X2235313D01*
X2272117Y2453221D01*
X2306786Y2467581D01*
X2320960Y2477053D01*
X2558303Y2239710D01*
Y1728487D01*
X2544497Y1721201D01*
X2532903Y1719384D01*
X2270321Y1981966D01*
X2271138Y1993908D01*
X2277682Y2010526D01*
X2306786Y2022581D01*
X2337987Y2043429D01*
X2364521Y2069963D01*
X2385369Y2101164D01*
X2399729Y2135833D01*
X2407050Y2172637D01*
Y2210163D01*
X2399729Y2246967D01*
X2385369Y2281636D01*
X2364521Y2312837D01*
X2337987Y2339371D01*
X2306786Y2360219D01*
X2272117Y2374579D01*
X2235313Y2381900D01*
X2197787D01*
X2160983Y2374579D01*
X2126315Y2360219D01*
X2095113Y2339371D01*
X2068579Y2312837D01*
X2047731Y2281636D01*
X2033371Y2246967D01*
X2026050Y2210163D01*
Y2172637D01*
X2033371Y2135833D01*
X2047731Y2101164D01*
X2068579Y2069963D01*
X2095113Y2043429D01*
X2126315Y2022581D01*
X2160983Y2008221D01*
X2177704Y2004895D01*
Y1980800D01*
X2180661Y1965934D01*
X2189081Y1953331D01*
X2469403Y1673009D01*
Y1584808D01*
X2444003Y1582306D01*
X2442539Y1589666D01*
X2434119Y1602269D01*
X1817519Y2218869D01*
X1804916Y2227289D01*
X1790050Y2230246D01*
X1768055D01*
X1764729Y2246967D01*
X1750369Y2281636D01*
X1729521Y2312837D01*
X1702987Y2339371D01*
X1671786Y2360219D01*
X1637117Y2374579D01*
X1600313Y2381900D01*
X1562787D01*
X1525983Y2374579D01*
X1491315Y2360219D01*
X1460113Y2339371D01*
X1433579Y2312837D01*
X1412731Y2281636D01*
X1398371Y2246967D01*
X1391050Y2210163D01*
Y2172637D01*
X1398371Y2135833D01*
X1412731Y2101164D01*
X1433579Y2069963D01*
X1460113Y2043429D01*
X1491315Y2022581D01*
X1525983Y2008221D01*
X1562787Y2000900D01*
X1600313D01*
X1637117Y2008221D01*
X1671786Y2022581D01*
X1702987Y2043429D01*
X1729521Y2069963D01*
X1750369Y2101164D01*
X1761809Y2128783D01*
X1781400Y2135862D01*
X1790636Y2135877D01*
X2192667Y1733846D01*
X2178279Y1712313D01*
X2165566Y1717578D01*
X2131776Y1724300D01*
X2097324D01*
X2063534Y1717578D01*
X2031704Y1704394D01*
X2003058Y1685254D01*
X1978696Y1660892D01*
X1959556Y1632246D01*
X1946372Y1600416D01*
X1939650Y1566626D01*
Y1532174D01*
X1946372Y1498384D01*
X1959556Y1466554D01*
X1978696Y1437908D01*
X2003058Y1413546D01*
X2031704Y1394406D01*
X2063534Y1381222D01*
X2097324Y1374500D01*
X2131776D01*
X2165566Y1381222D01*
X2197396Y1394406D01*
X2226042Y1413546D01*
X2250404Y1437908D01*
X2269544Y1466554D01*
X2282728Y1498384D01*
X2289450Y1532174D01*
Y1566626D01*
X2282728Y1600416D01*
X2277463Y1613129D01*
X2298996Y1627517D01*
X2367803Y1558709D01*
Y713383D01*
X2344337Y703663D01*
X1270000Y1778000D01*
Y3441700D01*
X2540000Y4711700D01*
X9223980D01*
X9237651Y4686300D01*
X9229655Y4666996D01*
X9227904Y4653691D01*
X9021281Y4447069D01*
X9012861Y4434466D01*
X9009903Y4419600D01*
Y4178676D01*
X8716481Y3885254D01*
X8708061Y3872652D01*
X8705103Y3857786D01*
Y3751692D01*
X8679703Y3739166D01*
X8671391Y3745544D01*
X8645131Y3756421D01*
X8616950Y3760131D01*
X8588769Y3756421D01*
X8562509Y3745544D01*
X8539959Y3728241D01*
X8522656Y3705691D01*
X8511779Y3679431D01*
X8508069Y3651250D01*
Y3511550D01*
X8511779Y3483369D01*
X8522656Y3457109D01*
X8539959Y3434559D01*
X8562509Y3417256D01*
X8588769Y3406379D01*
X8591951Y3405960D01*
X8601055Y3379142D01*
X7721600Y2499687D01*
X6877797Y3343491D01*
Y3410797D01*
X6893391Y3417256D01*
X6915941Y3434559D01*
X6933244Y3457109D01*
X6944121Y3483369D01*
X6947831Y3511550D01*
Y3651250D01*
X6944121Y3679431D01*
X6933244Y3705691D01*
X6915941Y3728241D01*
X6893391Y3745544D01*
X6867131Y3756421D01*
X6838950Y3760131D01*
X6810769Y3756421D01*
X6784509Y3745544D01*
X6761959Y3728241D01*
X6744656Y3705691D01*
X6733779Y3679431D01*
X6730069Y3651250D01*
Y3511550D01*
X6733779Y3483369D01*
X6744656Y3457109D01*
X6761959Y3434559D01*
X6784509Y3417256D01*
X6800103Y3410797D01*
Y3327400D01*
X6803061Y3312534D01*
X6811481Y3299931D01*
X7682753Y2428659D01*
Y2232564D01*
X7657353Y2220038D01*
X7655391Y2221544D01*
X7629131Y2232421D01*
X7600950Y2236131D01*
X7572769Y2232421D01*
X7546509Y2221544D01*
X7523959Y2204241D01*
X7506656Y2181691D01*
X7495779Y2155431D01*
X7492069Y2127250D01*
Y1987550D01*
X7495779Y1959369D01*
X7506656Y1933109D01*
X7523959Y1910559D01*
X7530231Y1905747D01*
X7521609Y1880347D01*
X7426291D01*
X7417669Y1905747D01*
X7423941Y1910559D01*
X7441244Y1933109D01*
X7452121Y1959369D01*
X7455831Y1987550D01*
Y2127250D01*
X7452121Y2155431D01*
X7441244Y2181691D01*
X7423941Y2204241D01*
X7401391Y2221544D01*
X7375131Y2232421D01*
X7346950Y2236131D01*
X7318769Y2232421D01*
X7292509Y2221544D01*
X7269959Y2204241D01*
X7252656Y2181691D01*
X7241779Y2155431D01*
X7238069Y2127250D01*
Y1987550D01*
X7241779Y1959369D01*
X7252656Y1933109D01*
X7269959Y1910559D01*
X7276231Y1905747D01*
X7267609Y1880347D01*
X7172291D01*
X7163669Y1905747D01*
X7169941Y1910559D01*
X7187244Y1933109D01*
X7198121Y1959369D01*
X7201831Y1987550D01*
Y2127250D01*
X7198121Y2155431D01*
X7187244Y2181691D01*
X7169941Y2204241D01*
X7147391Y2221544D01*
X7121131Y2232421D01*
X7092950Y2236131D01*
X7064769Y2232421D01*
X7038509Y2221544D01*
X7015960Y2204241D01*
X7001964Y2203324D01*
X6752119Y2453169D01*
X6739516Y2461589D01*
X6724650Y2464547D01*
X5897539D01*
X5895326Y2468639D01*
X5890922Y2489947D01*
X5904859Y2500641D01*
X5919414Y2519608D01*
X5928563Y2541696D01*
X5931684Y2565400D01*
X5928563Y2589104D01*
X5919414Y2611192D01*
X5904859Y2630159D01*
X5885892Y2644714D01*
X5863804Y2653863D01*
X5840100Y2656984D01*
X5805800D01*
X5782096Y2653863D01*
X5760008Y2644714D01*
X5741041Y2630159D01*
X5726486Y2611192D01*
X5717337Y2589104D01*
X5714216Y2565400D01*
X5717337Y2541696D01*
X5726486Y2519608D01*
X5741041Y2500641D01*
X5754978Y2489947D01*
X5750574Y2468639D01*
X5748361Y2464547D01*
X4429341D01*
X4167246Y2726641D01*
X4171950Y2744196D01*
Y2767604D01*
X4165892Y2790214D01*
X4154188Y2810486D01*
X4137636Y2827038D01*
X4117364Y2838742D01*
X4094754Y2844800D01*
X4071346D01*
X4048736Y2838742D01*
X4028464Y2827038D01*
X4011912Y2810486D01*
X4000208Y2790214D01*
X3994150Y2767604D01*
Y2744196D01*
X4000208Y2721586D01*
X4011912Y2701314D01*
X4028464Y2684762D01*
X4048736Y2673058D01*
X4071346Y2667000D01*
X4094754D01*
X4112309Y2671704D01*
X4385781Y2398231D01*
X4398384Y2389811D01*
X4413250Y2386853D01*
X5717230D01*
X5729756Y2361453D01*
X5726486Y2357192D01*
X5717337Y2335104D01*
X5714216Y2311400D01*
X5717337Y2287696D01*
X5726486Y2265608D01*
X5741041Y2246641D01*
X5760008Y2232086D01*
X5761824Y2227121D01*
X5761932Y2203797D01*
X5745959Y2191541D01*
X5728656Y2168991D01*
X5717779Y2142731D01*
X5714069Y2114550D01*
Y2000250D01*
X5717779Y1972069D01*
X5728656Y1945809D01*
X5745959Y1923259D01*
X5768509Y1905956D01*
X5794769Y1895079D01*
X5822950Y1891369D01*
X5851131Y1895079D01*
X5877391Y1905956D01*
X5899941Y1923259D01*
X5917244Y1945809D01*
X5928121Y1972069D01*
X5931831Y2000250D01*
Y2114550D01*
X5928121Y2142731D01*
X5917244Y2168991D01*
X5899941Y2191541D01*
X5883968Y2203797D01*
X5884076Y2227121D01*
X5885892Y2232086D01*
X5904859Y2246641D01*
X5919414Y2265608D01*
X5928563Y2287696D01*
X5931684Y2311400D01*
X5928563Y2335104D01*
X5919414Y2357192D01*
X5916144Y2361453D01*
X5928670Y2386853D01*
X6708559D01*
X6834277Y2261135D01*
X6825174Y2234318D01*
X6810769Y2232421D01*
X6784509Y2221544D01*
X6761959Y2204241D01*
X6744656Y2181691D01*
X6733779Y2155431D01*
X6730069Y2127250D01*
Y1987550D01*
X6733779Y1959369D01*
X6744656Y1933109D01*
X6761959Y1910559D01*
X6768231Y1905747D01*
X6759609Y1880347D01*
X6664291D01*
X6655669Y1905747D01*
X6661941Y1910559D01*
X6679244Y1933109D01*
X6690121Y1959369D01*
X6693831Y1987550D01*
Y2127250D01*
X6690121Y2155431D01*
X6679244Y2181691D01*
X6661941Y2204241D01*
X6639391Y2221544D01*
X6613131Y2232421D01*
X6584950Y2236131D01*
X6556769Y2232421D01*
X6530509Y2221544D01*
X6507959Y2204241D01*
X6490656Y2181691D01*
X6479779Y2155431D01*
X6476069Y2127250D01*
Y1987550D01*
X6479779Y1959369D01*
X6490656Y1933109D01*
X6507959Y1910559D01*
X6514231Y1905747D01*
X6505609Y1880347D01*
X6496050D01*
X6481184Y1877389D01*
X6468581Y1868969D01*
X6200559Y1600947D01*
X4849075D01*
X4839988Y1616686D01*
X4823436Y1633238D01*
X4803164Y1644942D01*
X4780554Y1651000D01*
X4757146D01*
X4734536Y1644942D01*
X4714264Y1633238D01*
X4697712Y1616686D01*
X4686008Y1596414D01*
X4679950Y1573804D01*
Y1550396D01*
X4686008Y1527786D01*
X4697712Y1507514D01*
X4714264Y1490962D01*
X4734536Y1479258D01*
X4757146Y1473200D01*
X4780554D01*
X4803164Y1479258D01*
X4823436Y1490962D01*
X4839988Y1507514D01*
X4849075Y1523253D01*
X6216650D01*
X6231516Y1526211D01*
X6244119Y1534631D01*
X6512141Y1802653D01*
X6927879D01*
X6937600Y1779187D01*
X6824181Y1665769D01*
X6815761Y1653166D01*
X6812803Y1638300D01*
Y939800D01*
X6815761Y924934D01*
X6824181Y912331D01*
X6916704Y819809D01*
X6914109Y800100D01*
X6918255Y768604D01*
X6930412Y739254D01*
X6949751Y714051D01*
X6974954Y694712D01*
X7004304Y682555D01*
X7035800Y678409D01*
X7353300D01*
X7384796Y682555D01*
X7414146Y694712D01*
X7439349Y714051D01*
X7458688Y739254D01*
X7470845Y768604D01*
X7474991Y800100D01*
X7470845Y831596D01*
X7458688Y860946D01*
X7439349Y886149D01*
X7414146Y905488D01*
X7395156Y913354D01*
Y940846D01*
X7414146Y948712D01*
X7439349Y968051D01*
X7458688Y993254D01*
X7470845Y1022604D01*
X7473319Y1041400D01*
X7194550D01*
Y1066800D01*
X7473319D01*
X7470845Y1085596D01*
X7458688Y1114946D01*
X7439349Y1140149D01*
X7414146Y1159488D01*
X7395156Y1167354D01*
Y1194846D01*
X7414146Y1202712D01*
X7439349Y1222051D01*
X7458688Y1247254D01*
X7470845Y1276604D01*
X7474991Y1308100D01*
X7470845Y1339596D01*
X7468800Y1344533D01*
X7698321Y1574053D01*
X9315450D01*
X9330316Y1577011D01*
X9342919Y1585431D01*
X9636642Y1879154D01*
X9661131Y1882379D01*
X9687391Y1893256D01*
X9709941Y1910559D01*
X9727244Y1933109D01*
X9738121Y1959369D01*
X9741831Y1987550D01*
Y2127250D01*
X9738121Y2155431D01*
X9727244Y2181691D01*
X9709941Y2204241D01*
X9687391Y2221544D01*
X9661131Y2232421D01*
X9632950Y2236131D01*
X9604769Y2232421D01*
X9578509Y2221544D01*
X9555959Y2204241D01*
X9538656Y2181691D01*
X9527779Y2155431D01*
X9524069Y2127250D01*
Y1987550D01*
X9527779Y1959369D01*
X9538656Y1933109D01*
X9555959Y1910560D01*
X9556095Y1908482D01*
X9299359Y1651747D01*
X7682230D01*
X7667364Y1648789D01*
X7654761Y1640369D01*
X7421917Y1407524D01*
X7414146Y1413488D01*
X7395156Y1421354D01*
Y1448846D01*
X7414146Y1456712D01*
X7439349Y1476051D01*
X7458688Y1501254D01*
X7470845Y1530604D01*
X7474991Y1562100D01*
X7470845Y1593596D01*
X7458688Y1622946D01*
X7439349Y1648149D01*
X7414146Y1667488D01*
X7407169Y1697793D01*
X7408778Y1701053D01*
X9163050D01*
X9177916Y1704011D01*
X9190519Y1712431D01*
X9359338Y1881250D01*
X9378950Y1878669D01*
X9407131Y1882379D01*
X9433391Y1893256D01*
X9455941Y1910559D01*
X9473244Y1933109D01*
X9484121Y1959369D01*
X9487831Y1987550D01*
Y2127250D01*
X9484121Y2155431D01*
X9473244Y2181691D01*
X9455941Y2204241D01*
X9433391Y2221544D01*
X9407131Y2232421D01*
X9378950Y2236131D01*
X9350769Y2232421D01*
X9324509Y2221544D01*
X9301959Y2204241D01*
X9284656Y2181691D01*
X9273779Y2155431D01*
X9270069Y2127250D01*
Y1987550D01*
X9273779Y1959369D01*
X9284656Y1933109D01*
X9291892Y1923679D01*
X9146959Y1778747D01*
X7680808D01*
X7678306Y1804147D01*
X7685666Y1805611D01*
X7698269Y1814031D01*
X7749069Y1864831D01*
X7757489Y1877434D01*
X7760447Y1892300D01*
Y1893573D01*
X7761142Y1894248D01*
X7785847Y1904507D01*
X7800509Y1893256D01*
X7826769Y1882379D01*
X7854950Y1878669D01*
X7883131Y1882379D01*
X7909391Y1893256D01*
X7931941Y1910559D01*
X7949244Y1933109D01*
X7960121Y1959369D01*
X7963831Y1987550D01*
Y2127250D01*
X7960121Y2155431D01*
X7949244Y2181691D01*
X7931941Y2204241D01*
X7909391Y2221544D01*
X7883131Y2232421D01*
X7854950Y2236131D01*
X7826769Y2232421D01*
X7800509Y2221544D01*
X7785847Y2210293D01*
X7761142Y2220552D01*
X7760447Y2221227D01*
Y2428659D01*
X8630011Y3298224D01*
X8632429Y3298013D01*
X8654888Y3287180D01*
Y3256750D01*
X8657923Y3233699D01*
X8666820Y3212219D01*
X8680973Y3193774D01*
X8699419Y3179620D01*
X8720899Y3170723D01*
X8743950Y3167688D01*
X8767001Y3170723D01*
X8788481Y3179620D01*
X8806927Y3193774D01*
X8821080Y3212219D01*
X8829977Y3233699D01*
X8833012Y3256750D01*
Y3296050D01*
X8829977Y3319101D01*
X8821080Y3340581D01*
X8806927Y3359027D01*
X8788481Y3373180D01*
X8767001Y3382077D01*
X8751788Y3384080D01*
X8742303Y3403958D01*
X8741776Y3409989D01*
X8763855Y3432068D01*
X8790044Y3434235D01*
X8797013Y3432216D01*
X8816509Y3417256D01*
X8842769Y3406379D01*
X8870950Y3402669D01*
X8899131Y3406379D01*
X8925391Y3417256D01*
X8947941Y3434559D01*
X8965244Y3457109D01*
X8976121Y3483369D01*
X8979831Y3511550D01*
Y3651250D01*
X8976121Y3679431D01*
X8965244Y3705691D01*
X8947941Y3728241D01*
X8925391Y3745544D01*
X8899131Y3756421D01*
X8870950Y3760131D01*
X8842769Y3756421D01*
X8816509Y3745544D01*
X8808197Y3739166D01*
X8782797Y3751692D01*
Y3841695D01*
X9076219Y4135117D01*
X9084639Y4147720D01*
X9087597Y4162586D01*
Y4403509D01*
X9235543Y4551455D01*
X9260889Y4549794D01*
X9261151Y4549451D01*
X9286354Y4530112D01*
X9305344Y4522246D01*
Y4494754D01*
X9286354Y4486888D01*
X9261151Y4467549D01*
X9241812Y4442346D01*
X9229655Y4412996D01*
X9227181Y4394200D01*
X9505950D01*
X9784719D01*
X9782245Y4412996D01*
X9770088Y4442346D01*
X9750749Y4467549D01*
X9725546Y4486888D01*
X9706556Y4494754D01*
Y4522246D01*
X9725546Y4530112D01*
X9750749Y4549451D01*
X9770088Y4574654D01*
X9782245Y4604004D01*
X9786391Y4635500D01*
X9782245Y4666996D01*
X9774249Y4686300D01*
X9787920Y4711700D01*
X9822543D01*
X10680700Y3892550D01*
D02*
G37*
G36*
X7364844Y1777253D02*
X7357484Y1775789D01*
X7344881Y1767369D01*
X7261304Y1683791D01*
X7035800D01*
X7004304Y1679645D01*
X6974954Y1667488D01*
X6960950Y1656741D01*
X6944166Y1675879D01*
X7070941Y1802653D01*
X7362342D01*
X7364844Y1777253D01*
D02*
G37*
G36*
X8391669Y1421653D02*
X8371954Y1413488D01*
X8346751Y1394149D01*
X8327412Y1368946D01*
X8315255Y1339596D01*
X8311109Y1308100D01*
X8315255Y1276604D01*
X8327412Y1247254D01*
X8346751Y1222051D01*
X8371954Y1202712D01*
X8390944Y1194846D01*
Y1167354D01*
X8371954Y1159488D01*
X8346751Y1140149D01*
X8327412Y1114946D01*
X8318300Y1092947D01*
X8271930D01*
X8257064Y1089989D01*
X8244461Y1081569D01*
X7654709Y491817D01*
X7440675D01*
X7430154Y517217D01*
X7685569Y772631D01*
X7693989Y785234D01*
X7696947Y800100D01*
Y1088809D01*
X8055191Y1447053D01*
X8386616D01*
X8391669Y1421653D01*
D02*
G37*
G36*
X2911287Y1011226D02*
X2911151Y1009148D01*
X2891812Y983946D01*
X2879655Y954596D01*
X2875509Y923100D01*
X2879655Y891604D01*
X2891812Y862254D01*
X2911151Y837051D01*
X2934481Y819150D01*
X2934550Y816367D01*
X2919030Y793750D01*
X2876550D01*
Y552450D01*
X3232150D01*
Y793750D01*
X3189670D01*
X3174150Y816367D01*
X3174219Y819150D01*
X3197549Y837051D01*
X3216888Y862254D01*
X3229045Y891604D01*
X3233191Y923100D01*
X3229045Y954596D01*
X3216888Y983946D01*
X3197549Y1009149D01*
X3172346Y1028488D01*
X3158184Y1034354D01*
Y1061846D01*
X3172346Y1067712D01*
X3197549Y1087051D01*
X3216888Y1112254D01*
X3226000Y1134254D01*
X4374831D01*
X4380983Y1133030D01*
X4996796Y517217D01*
X4986275Y491817D01*
X2630921D01*
X2547097Y575641D01*
Y1340913D01*
X2560903Y1348199D01*
X2572497Y1350016D01*
X2911287Y1011226D01*
D02*
G37*
G36*
X8327412Y993254D02*
X8346751Y968051D01*
X8371954Y948712D01*
X8401304Y936555D01*
X8432800Y932409D01*
X8750300D01*
X8781796Y936555D01*
X8811146Y948712D01*
X8836349Y968051D01*
X8855688Y993254D01*
X8863853Y1012969D01*
X8889253Y1007916D01*
Y568541D01*
X8715159Y394447D01*
X7694030D01*
X7691534Y401201D01*
X7689805Y419847D01*
X7698269Y425502D01*
X8288020Y1015253D01*
X8318300D01*
X8327412Y993254D01*
D02*
G37*
%LPC*%
G36*
X8724900Y4470133D02*
Y4394200D01*
X8800833D01*
X8795042Y4415814D01*
X8783338Y4436086D01*
X8766786Y4452638D01*
X8746514Y4464342D01*
X8724900Y4470133D01*
D02*
G37*
G36*
X8699500D02*
X8677886Y4464342D01*
X8657614Y4452638D01*
X8641062Y4436086D01*
X8629358Y4415814D01*
X8623567Y4394200D01*
X8699500D01*
Y4470133D01*
D02*
G37*
G36*
X8800833Y4368800D02*
X8724900D01*
Y4292867D01*
X8746514Y4298658D01*
X8766786Y4310362D01*
X8783338Y4326914D01*
X8795042Y4347186D01*
X8800833Y4368800D01*
D02*
G37*
G36*
X8699500D02*
X8623567D01*
X8629358Y4347186D01*
X8641062Y4326914D01*
X8657614Y4310362D01*
X8677886Y4298658D01*
X8699500Y4292867D01*
Y4368800D01*
D02*
G37*
G36*
X3416300Y4139933D02*
Y4064000D01*
X3492233D01*
X3486442Y4085614D01*
X3474738Y4105886D01*
X3458186Y4122438D01*
X3437914Y4134142D01*
X3416300Y4139933D01*
D02*
G37*
G36*
X3390900D02*
X3369286Y4134142D01*
X3349014Y4122438D01*
X3332462Y4105886D01*
X3320758Y4085614D01*
X3314967Y4064000D01*
X3390900D01*
Y4139933D01*
D02*
G37*
G36*
X8267700Y4503191D02*
X7950200D01*
X7918704Y4499045D01*
X7889354Y4486888D01*
X7864151Y4467549D01*
X7844812Y4442346D01*
X7832655Y4412996D01*
X7830279Y4394947D01*
X2444750D01*
X2429884Y4391989D01*
X2417281Y4383569D01*
X1554081Y3520369D01*
X1545661Y3507766D01*
X1542704Y3492900D01*
Y3267905D01*
X1525983Y3264579D01*
X1491315Y3250219D01*
X1460113Y3229371D01*
X1433579Y3202837D01*
X1412731Y3171636D01*
X1398371Y3136967D01*
X1391050Y3100163D01*
Y3062638D01*
X1398371Y3025833D01*
X1412731Y2991165D01*
X1433579Y2959964D01*
X1460113Y2933429D01*
X1491315Y2912581D01*
X1525983Y2898221D01*
X1562787Y2890900D01*
X1600313D01*
X1637117Y2898221D01*
X1671786Y2912581D01*
X1702987Y2933429D01*
X1729521Y2959964D01*
X1750369Y2991165D01*
X1764729Y3025833D01*
X1772050Y3062638D01*
Y3100163D01*
X1764729Y3136967D01*
X1750369Y3171636D01*
X1729521Y3202837D01*
X1702987Y3229371D01*
X1671786Y3250219D01*
X1637117Y3264579D01*
X1620397Y3267905D01*
Y3476809D01*
X1921087Y3777500D01*
X1944496Y3764988D01*
X1939650Y3740626D01*
Y3706174D01*
X1946372Y3672384D01*
X1959556Y3640554D01*
X1978696Y3611908D01*
X2003058Y3587547D01*
X2031704Y3568406D01*
X2063534Y3555222D01*
X2097324Y3548500D01*
X2131776D01*
X2138598Y3549858D01*
X2166005Y3529411D01*
X2166575Y3523262D01*
X1820518Y3177205D01*
X1812097Y3164602D01*
X1809140Y3149736D01*
Y2918927D01*
X1685960Y2795748D01*
X1671786Y2805219D01*
X1637117Y2819579D01*
X1600313Y2826900D01*
X1562787D01*
X1525983Y2819579D01*
X1491315Y2805219D01*
X1460113Y2784371D01*
X1433579Y2757837D01*
X1412731Y2726636D01*
X1398371Y2691967D01*
X1391050Y2655163D01*
Y2617637D01*
X1398371Y2580833D01*
X1412731Y2546165D01*
X1433579Y2514963D01*
X1460113Y2488429D01*
X1491315Y2467581D01*
X1525983Y2453221D01*
X1562787Y2445900D01*
X1600313D01*
X1637117Y2453221D01*
X1671786Y2467581D01*
X1702987Y2488429D01*
X1729521Y2514963D01*
X1750369Y2546165D01*
X1764729Y2580833D01*
X1772050Y2617637D01*
Y2655163D01*
X1764729Y2691967D01*
X1750369Y2726636D01*
X1740897Y2740810D01*
X1875455Y2875368D01*
X1883876Y2887971D01*
X1886833Y2902836D01*
Y3133646D01*
X2000650Y3247463D01*
X2026050Y3236942D01*
Y3094100D01*
X2203850D01*
Y3271900D01*
X2061009D01*
X2050487Y3297300D01*
X2956141Y4202953D01*
X7749959D01*
X7828978Y4123935D01*
X7832655Y4096004D01*
X7844812Y4066654D01*
X7864151Y4041451D01*
X7889354Y4022112D01*
X7918704Y4009955D01*
X7950200Y4005809D01*
X8267700D01*
X8299196Y4009955D01*
X8328546Y4022112D01*
X8353749Y4041451D01*
X8373088Y4066654D01*
X8385245Y4096004D01*
X8389391Y4127500D01*
X8385245Y4158996D01*
X8373088Y4188346D01*
X8353749Y4213549D01*
X8328546Y4232888D01*
X8309556Y4240754D01*
Y4268246D01*
X8328546Y4276112D01*
X8353749Y4295451D01*
X8373088Y4320654D01*
X8385245Y4350004D01*
X8389391Y4381500D01*
X8385245Y4412996D01*
X8373088Y4442346D01*
X8353749Y4467549D01*
X8328546Y4486888D01*
X8299196Y4499045D01*
X8267700Y4503191D01*
D02*
G37*
G36*
X3492233Y4038600D02*
X3416300D01*
Y3962667D01*
X3437914Y3968458D01*
X3458186Y3980162D01*
X3474738Y3996714D01*
X3486442Y4016986D01*
X3492233Y4038600D01*
D02*
G37*
G36*
X3390900D02*
X3314967D01*
X3320758Y4016986D01*
X3332462Y3996714D01*
X3349014Y3980162D01*
X3369286Y3968458D01*
X3390900Y3962667D01*
Y4038600D01*
D02*
G37*
G36*
X10407650Y3758460D02*
Y3594100D01*
X10503831D01*
Y3651250D01*
X10500121Y3679431D01*
X10489244Y3705691D01*
X10471941Y3728241D01*
X10449391Y3745544D01*
X10423131Y3756421D01*
X10407650Y3758460D01*
D02*
G37*
G36*
X10382250D02*
X10366769Y3756421D01*
X10340509Y3745544D01*
X10317959Y3728241D01*
X10300656Y3705691D01*
X10289779Y3679431D01*
X10286069Y3651250D01*
Y3594100D01*
X10382250D01*
Y3758460D01*
D02*
G37*
G36*
X10503831Y3568700D02*
X10407650D01*
Y3404340D01*
X10423131Y3406379D01*
X10449391Y3417256D01*
X10471941Y3434559D01*
X10489244Y3457109D01*
X10500121Y3483369D01*
X10503831Y3511550D01*
Y3568700D01*
D02*
G37*
G36*
X10382250D02*
X10286069D01*
Y3511550D01*
X10289779Y3483369D01*
X10300656Y3457109D01*
X10317959Y3434559D01*
X10340509Y3417256D01*
X10366769Y3406379D01*
X10382250Y3404340D01*
Y3568700D01*
D02*
G37*
G36*
X9784719Y4368800D02*
X9505950D01*
X9227181D01*
X9229655Y4350004D01*
X9241812Y4320654D01*
X9261151Y4295451D01*
X9286354Y4276112D01*
X9305344Y4268246D01*
Y4240754D01*
X9286354Y4232888D01*
X9261151Y4213549D01*
X9241812Y4188346D01*
X9229655Y4158996D01*
X9225509Y4127500D01*
X9229655Y4096004D01*
X9241812Y4066654D01*
X9261151Y4041451D01*
X9286354Y4022112D01*
X9305344Y4014246D01*
Y3986754D01*
X9286354Y3978888D01*
X9261151Y3959549D01*
X9241812Y3934346D01*
X9229655Y3904996D01*
X9225509Y3873500D01*
X9229655Y3842004D01*
X9241812Y3812654D01*
X9261151Y3787451D01*
X9286354Y3768112D01*
X9315704Y3755955D01*
X9337624Y3753069D01*
X9341057Y3726998D01*
X9324509Y3720144D01*
X9301959Y3702841D01*
X9284656Y3680291D01*
X9273779Y3654031D01*
X9270069Y3625850D01*
Y3536950D01*
X9273779Y3508769D01*
X9284656Y3482509D01*
X9301959Y3459959D01*
X9324509Y3442656D01*
X9350769Y3431779D01*
X9378950Y3428069D01*
X9407131Y3431779D01*
X9433391Y3442656D01*
X9455941Y3459959D01*
X9473244Y3482509D01*
X9484121Y3508769D01*
X9487831Y3536950D01*
Y3625850D01*
X9484121Y3654031D01*
X9473244Y3680291D01*
X9455941Y3702841D01*
X9433391Y3720144D01*
X9418267Y3726409D01*
X9423319Y3751809D01*
X9588581D01*
X9593633Y3726409D01*
X9578509Y3720144D01*
X9555959Y3702841D01*
X9538656Y3680291D01*
X9527779Y3654031D01*
X9524069Y3625850D01*
Y3536950D01*
X9527779Y3508769D01*
X9538656Y3482509D01*
X9555959Y3459959D01*
X9578509Y3442656D01*
X9604769Y3431779D01*
X9632950Y3428069D01*
X9661131Y3431779D01*
X9687391Y3442656D01*
X9709941Y3459959D01*
X9727244Y3482509D01*
X9738121Y3508769D01*
X9741831Y3536950D01*
Y3625850D01*
X9738121Y3654031D01*
X9727244Y3680291D01*
X9709941Y3702841D01*
X9687391Y3720144D01*
X9670843Y3726998D01*
X9674276Y3753069D01*
X9696196Y3755955D01*
X9725546Y3768112D01*
X9750749Y3787451D01*
X9763683Y3804308D01*
X9793722Y3810191D01*
X9831354Y3772559D01*
X9831803Y3762050D01*
X9826816Y3741175D01*
X9809959Y3728241D01*
X9792656Y3705691D01*
X9781779Y3679431D01*
X9778069Y3651250D01*
Y3511550D01*
X9781779Y3483369D01*
X9792656Y3457109D01*
X9809959Y3434559D01*
X9832509Y3417256D01*
X9858769Y3406379D01*
X9886950Y3402669D01*
X9915131Y3406379D01*
X9941391Y3417256D01*
X9963941Y3434559D01*
X9981244Y3457109D01*
X9992121Y3483369D01*
X9995831Y3511550D01*
Y3651250D01*
X9992121Y3679431D01*
X9981244Y3705691D01*
X9963941Y3728241D01*
X9941391Y3745544D01*
X9925797Y3752003D01*
Y3771900D01*
X9922839Y3786766D01*
X9914419Y3799369D01*
X9812819Y3900969D01*
X9800216Y3909389D01*
X9785350Y3912347D01*
X9779200D01*
X9770088Y3934346D01*
X9750749Y3959549D01*
X9725546Y3978888D01*
X9706556Y3986754D01*
Y4014246D01*
X9725546Y4022112D01*
X9750749Y4041451D01*
X9758169Y4051122D01*
X9791038Y4054175D01*
X10077727Y3767485D01*
X10073630Y3735662D01*
X10063959Y3728241D01*
X10046656Y3705691D01*
X10035779Y3679431D01*
X10032069Y3651250D01*
Y3511550D01*
X10035779Y3483369D01*
X10046656Y3457109D01*
X10063959Y3434559D01*
X10086509Y3417256D01*
X10112769Y3406379D01*
X10140950Y3402669D01*
X10169131Y3406379D01*
X10195391Y3417256D01*
X10217941Y3434559D01*
X10235244Y3457109D01*
X10246121Y3483369D01*
X10249831Y3511550D01*
Y3651250D01*
X10246121Y3679431D01*
X10235244Y3705691D01*
X10217941Y3728241D01*
X10195391Y3745544D01*
X10179797Y3752003D01*
Y3759200D01*
X10176839Y3774066D01*
X10168419Y3786669D01*
X9800119Y4154969D01*
X9787516Y4163389D01*
X9779788Y4164927D01*
X9770088Y4188346D01*
X9750749Y4213549D01*
X9725546Y4232888D01*
X9706556Y4240754D01*
Y4268246D01*
X9725546Y4276112D01*
X9750749Y4295451D01*
X9770088Y4320654D01*
X9782245Y4350004D01*
X9784719Y4368800D01*
D02*
G37*
G36*
X9124950Y3760131D02*
X9096769Y3756421D01*
X9070509Y3745544D01*
X9047959Y3728241D01*
X9030656Y3705691D01*
X9019779Y3679431D01*
X9016069Y3651250D01*
Y3511550D01*
X9019779Y3483369D01*
X9030656Y3457109D01*
X9047959Y3434559D01*
X9070509Y3417256D01*
X9096769Y3406379D01*
X9124950Y3402669D01*
X9153131Y3406379D01*
X9179391Y3417256D01*
X9201941Y3434559D01*
X9219244Y3457109D01*
X9230121Y3483369D01*
X9233831Y3511550D01*
Y3651250D01*
X9230121Y3679431D01*
X9219244Y3705691D01*
X9201941Y3728241D01*
X9179391Y3745544D01*
X9153131Y3756421D01*
X9124950Y3760131D01*
D02*
G37*
G36*
X8362950D02*
X8334769Y3756421D01*
X8308509Y3745544D01*
X8285959Y3728241D01*
X8268656Y3705691D01*
X8257779Y3679431D01*
X8254069Y3651250D01*
Y3511550D01*
X8257779Y3483369D01*
X8268656Y3457109D01*
X8285959Y3434559D01*
X8308509Y3417256D01*
X8334769Y3406379D01*
X8362950Y3402669D01*
X8391131Y3406379D01*
X8417391Y3417256D01*
X8439941Y3434559D01*
X8457244Y3457109D01*
X8468121Y3483369D01*
X8471831Y3511550D01*
Y3651250D01*
X8468121Y3679431D01*
X8457244Y3705691D01*
X8439941Y3728241D01*
X8417391Y3745544D01*
X8391131Y3756421D01*
X8362950Y3760131D01*
D02*
G37*
G36*
X8108950D02*
X8080769Y3756421D01*
X8054509Y3745544D01*
X8031959Y3728241D01*
X8014656Y3705691D01*
X8003779Y3679431D01*
X8000069Y3651250D01*
Y3511550D01*
X8003779Y3483369D01*
X8014656Y3457109D01*
X8031959Y3434559D01*
X8054509Y3417256D01*
X8080769Y3406379D01*
X8108950Y3402669D01*
X8137131Y3406379D01*
X8163391Y3417256D01*
X8185941Y3434559D01*
X8203244Y3457109D01*
X8214121Y3483369D01*
X8217831Y3511550D01*
Y3651250D01*
X8214121Y3679431D01*
X8203244Y3705691D01*
X8185941Y3728241D01*
X8163391Y3745544D01*
X8137131Y3756421D01*
X8108950Y3760131D01*
D02*
G37*
G36*
X7854950D02*
X7826769Y3756421D01*
X7800509Y3745544D01*
X7777959Y3728241D01*
X7760656Y3705691D01*
X7749779Y3679431D01*
X7746069Y3651250D01*
Y3511550D01*
X7749779Y3483369D01*
X7760656Y3457109D01*
X7777959Y3434559D01*
X7800509Y3417256D01*
X7826769Y3406379D01*
X7854950Y3402669D01*
X7883131Y3406379D01*
X7909391Y3417256D01*
X7931941Y3434559D01*
X7949244Y3457109D01*
X7960121Y3483369D01*
X7963831Y3511550D01*
Y3651250D01*
X7960121Y3679431D01*
X7949244Y3705691D01*
X7931941Y3728241D01*
X7909391Y3745544D01*
X7883131Y3756421D01*
X7854950Y3760131D01*
D02*
G37*
G36*
X3669304Y4152900D02*
X3645896D01*
X3623286Y4146842D01*
X3603014Y4135138D01*
X3586462Y4118586D01*
X3574758Y4098314D01*
X3568700Y4075704D01*
Y4052296D01*
X3574758Y4029686D01*
X3586462Y4009414D01*
X3603014Y3992862D01*
X3623286Y3981158D01*
X3645896Y3975100D01*
X3669304D01*
X3691914Y3981158D01*
X3712186Y3992862D01*
X3728738Y4009414D01*
X3740442Y4029686D01*
X3742630Y4037853D01*
X3884192D01*
X3905216Y4027288D01*
X3905216Y4027286D01*
X3905216D01*
X3906246Y4013200D01*
X3905041Y4012877D01*
X3883636Y4007142D01*
X3863364Y3995438D01*
X3846812Y3978886D01*
X3835108Y3958614D01*
X3829050Y3936004D01*
Y3912596D01*
X3835108Y3889986D01*
X3846812Y3869714D01*
X3863364Y3853162D01*
X3883636Y3841458D01*
X3906246Y3835400D01*
X3929654D01*
X3952264Y3841458D01*
X3972536Y3853162D01*
X3989088Y3869714D01*
X4000792Y3889986D01*
X4006850Y3912596D01*
Y3936004D01*
X4007042Y3936253D01*
X4469898D01*
X4484563Y3910853D01*
X4482808Y3907814D01*
X4476750Y3885204D01*
Y3861796D01*
X4482808Y3839186D01*
X4494512Y3818914D01*
X4511064Y3802362D01*
X4531336Y3790658D01*
X4553946Y3784600D01*
Y3784600D01*
X4539622Y3788438D01*
X4553862Y3782547D01*
X4553257Y3767685D01*
X4547572Y3759424D01*
X4524769Y3756421D01*
X4498509Y3745544D01*
X4475959Y3728241D01*
X4458656Y3705691D01*
X4447779Y3679431D01*
X4444069Y3651250D01*
Y3511550D01*
X4447779Y3483369D01*
X4458656Y3457109D01*
X4475959Y3434559D01*
X4498509Y3417256D01*
X4524769Y3406379D01*
X4552950Y3402669D01*
X4581131Y3406379D01*
X4607391Y3417256D01*
X4629941Y3434559D01*
X4647244Y3457109D01*
X4658121Y3483369D01*
X4661831Y3511550D01*
Y3651250D01*
X4658121Y3679431D01*
X4647244Y3705691D01*
X4629941Y3728241D01*
X4607391Y3745544D01*
X4581131Y3756421D01*
X4575157Y3757208D01*
X4572809Y3783136D01*
X4577354Y3784599D01*
X4578803Y3784988D01*
X4599964Y3790658D01*
X4620236Y3802362D01*
X4636788Y3818914D01*
X4648492Y3839186D01*
X4650680Y3847353D01*
X6911759D01*
X7016876Y3742236D01*
X7015959Y3728240D01*
X6998656Y3705691D01*
X6987779Y3679431D01*
X6984069Y3651250D01*
Y3511550D01*
X6987779Y3483369D01*
X6998656Y3457109D01*
X7015959Y3434559D01*
X7038509Y3417256D01*
X7064769Y3406379D01*
X7092950Y3402669D01*
X7121131Y3406379D01*
X7147391Y3417256D01*
X7169941Y3434559D01*
X7187244Y3457109D01*
X7198121Y3483369D01*
X7201831Y3511550D01*
Y3651250D01*
X7198121Y3679431D01*
X7187244Y3705691D01*
X7169941Y3728241D01*
X7147391Y3745544D01*
X7121131Y3756421D01*
X7111267Y3757720D01*
X6958134Y3910853D01*
X6959951Y3922447D01*
X6967237Y3936253D01*
X7089559D01*
X7271963Y3753849D01*
X7270302Y3728504D01*
X7269959Y3728241D01*
X7252656Y3705691D01*
X7241779Y3679431D01*
X7238069Y3651250D01*
Y3511550D01*
X7241779Y3483369D01*
X7252656Y3457109D01*
X7269959Y3434559D01*
X7292509Y3417256D01*
X7318769Y3406379D01*
X7346950Y3402669D01*
X7375131Y3406379D01*
X7401391Y3417256D01*
X7423941Y3434559D01*
X7441244Y3457109D01*
X7452121Y3483369D01*
X7455831Y3511550D01*
Y3651250D01*
X7452121Y3679431D01*
X7441244Y3705691D01*
X7423941Y3728241D01*
X7401391Y3745544D01*
X7378624Y3754974D01*
X7374419Y3761269D01*
X7133119Y4002569D01*
X7120516Y4010989D01*
X7113156Y4012453D01*
X7115658Y4037853D01*
X7254659D01*
X7528653Y3763859D01*
X7526444Y3730147D01*
X7523959Y3728241D01*
X7506656Y3705691D01*
X7495779Y3679431D01*
X7492069Y3651250D01*
Y3511550D01*
X7495779Y3483369D01*
X7506656Y3457109D01*
X7523959Y3434559D01*
X7546509Y3417256D01*
X7572769Y3406379D01*
X7600950Y3402669D01*
X7629131Y3406379D01*
X7655391Y3417256D01*
X7677941Y3434559D01*
X7695244Y3457109D01*
X7706121Y3483369D01*
X7709831Y3511550D01*
Y3651250D01*
X7706121Y3679431D01*
X7695244Y3705691D01*
X7677941Y3728241D01*
X7655391Y3745544D01*
X7638603Y3752498D01*
X7636839Y3761366D01*
X7628419Y3773969D01*
X7298219Y4104169D01*
X7285616Y4112589D01*
X7270750Y4115547D01*
X3730493D01*
X3728738Y4118586D01*
X3712186Y4135138D01*
X3691914Y4146842D01*
X3669304Y4152900D01*
D02*
G37*
G36*
X6584950Y3760131D02*
X6556769Y3756421D01*
X6530509Y3745544D01*
X6507959Y3728241D01*
X6490656Y3705691D01*
X6479779Y3679431D01*
X6476069Y3651250D01*
Y3511550D01*
X6479779Y3483369D01*
X6490656Y3457109D01*
X6507959Y3434559D01*
X6530509Y3417256D01*
X6556769Y3406379D01*
X6584950Y3402669D01*
X6613131Y3406379D01*
X6639391Y3417256D01*
X6661941Y3434559D01*
X6679244Y3457109D01*
X6690121Y3483369D01*
X6693831Y3511550D01*
Y3651250D01*
X6690121Y3679431D01*
X6679244Y3705691D01*
X6661941Y3728241D01*
X6639391Y3745544D01*
X6613131Y3756421D01*
X6584950Y3760131D01*
D02*
G37*
G36*
X6330950D02*
X6302769Y3756421D01*
X6276509Y3745544D01*
X6253959Y3728241D01*
X6236656Y3705691D01*
X6225779Y3679431D01*
X6222069Y3651250D01*
Y3511550D01*
X6225779Y3483369D01*
X6236656Y3457109D01*
X6253959Y3434559D01*
X6276509Y3417256D01*
X6302769Y3406379D01*
X6330950Y3402669D01*
X6359131Y3406379D01*
X6385391Y3417256D01*
X6407941Y3434559D01*
X6425244Y3457109D01*
X6436121Y3483369D01*
X6439831Y3511550D01*
Y3651250D01*
X6436121Y3679431D01*
X6425244Y3705691D01*
X6407941Y3728241D01*
X6385391Y3745544D01*
X6359131Y3756421D01*
X6330950Y3760131D01*
D02*
G37*
G36*
X6076950D02*
X6048769Y3756421D01*
X6022509Y3745544D01*
X5999959Y3728241D01*
X5982656Y3705691D01*
X5971779Y3679431D01*
X5968069Y3651250D01*
Y3511550D01*
X5971779Y3483369D01*
X5982656Y3457109D01*
X5999959Y3434559D01*
X6022509Y3417256D01*
X6048769Y3406379D01*
X6076950Y3402669D01*
X6105131Y3406379D01*
X6131391Y3417256D01*
X6153941Y3434559D01*
X6171244Y3457109D01*
X6182121Y3483369D01*
X6185831Y3511550D01*
Y3651250D01*
X6182121Y3679431D01*
X6171244Y3705691D01*
X6153941Y3728241D01*
X6131391Y3745544D01*
X6105131Y3756421D01*
X6076950Y3760131D01*
D02*
G37*
G36*
X5568950D02*
X5540769Y3756421D01*
X5514509Y3745544D01*
X5491959Y3728241D01*
X5474656Y3705691D01*
X5463779Y3679431D01*
X5460069Y3651250D01*
Y3511550D01*
X5463779Y3483369D01*
X5474656Y3457109D01*
X5491959Y3434559D01*
X5514509Y3417256D01*
X5540769Y3406379D01*
X5568950Y3402669D01*
X5597131Y3406379D01*
X5623391Y3417256D01*
X5645941Y3434559D01*
X5663244Y3457109D01*
X5674121Y3483369D01*
X5677831Y3511550D01*
Y3651250D01*
X5674121Y3679431D01*
X5663244Y3705691D01*
X5645941Y3728241D01*
X5623391Y3745544D01*
X5597131Y3756421D01*
X5568950Y3760131D01*
D02*
G37*
G36*
X5314950D02*
X5286769Y3756421D01*
X5260509Y3745544D01*
X5237959Y3728241D01*
X5220656Y3705691D01*
X5209779Y3679431D01*
X5206069Y3651250D01*
Y3511550D01*
X5209779Y3483369D01*
X5220656Y3457109D01*
X5237959Y3434559D01*
X5260509Y3417256D01*
X5286769Y3406379D01*
X5314950Y3402669D01*
X5343131Y3406379D01*
X5369391Y3417256D01*
X5391941Y3434559D01*
X5409244Y3457109D01*
X5420121Y3483369D01*
X5423831Y3511550D01*
Y3651250D01*
X5420121Y3679431D01*
X5409244Y3705691D01*
X5391941Y3728241D01*
X5369391Y3745544D01*
X5343131Y3756421D01*
X5314950Y3760131D01*
D02*
G37*
G36*
X5060950D02*
X5032769Y3756421D01*
X5006509Y3745544D01*
X4983959Y3728241D01*
X4966656Y3705691D01*
X4955779Y3679431D01*
X4952069Y3651250D01*
Y3511550D01*
X4955779Y3483369D01*
X4966656Y3457109D01*
X4983959Y3434559D01*
X5006509Y3417256D01*
X5032769Y3406379D01*
X5060950Y3402669D01*
X5089131Y3406379D01*
X5115391Y3417256D01*
X5137941Y3434559D01*
X5155244Y3457109D01*
X5166121Y3483369D01*
X5169831Y3511550D01*
Y3651250D01*
X5166121Y3679431D01*
X5155244Y3705691D01*
X5137941Y3728241D01*
X5115391Y3745544D01*
X5089131Y3756421D01*
X5060950Y3760131D01*
D02*
G37*
G36*
X4806950D02*
X4778769Y3756421D01*
X4752509Y3745544D01*
X4729959Y3728241D01*
X4712656Y3705691D01*
X4701779Y3679431D01*
X4698069Y3651250D01*
Y3511550D01*
X4701779Y3483369D01*
X4712656Y3457109D01*
X4729959Y3434559D01*
X4752509Y3417256D01*
X4778769Y3406379D01*
X4806950Y3402669D01*
X4835131Y3406379D01*
X4861391Y3417256D01*
X4883941Y3434559D01*
X4901244Y3457109D01*
X4912121Y3483369D01*
X4915831Y3511550D01*
Y3651250D01*
X4912121Y3679431D01*
X4901244Y3705691D01*
X4883941Y3728241D01*
X4861391Y3745544D01*
X4835131Y3756421D01*
X4806950Y3760131D01*
D02*
G37*
G36*
X5822950Y3747431D02*
X5794769Y3743721D01*
X5768509Y3732844D01*
X5745959Y3715541D01*
X5728656Y3692991D01*
X5717779Y3666731D01*
X5714069Y3638550D01*
Y3524250D01*
X5717779Y3496069D01*
X5728656Y3469809D01*
X5745959Y3447259D01*
X5761932Y3435003D01*
X5761824Y3411679D01*
X5760008Y3406714D01*
X5741041Y3392159D01*
X5726486Y3373192D01*
X5717337Y3351104D01*
X5714216Y3327400D01*
X5717337Y3303696D01*
X5726486Y3281608D01*
X5741041Y3262641D01*
X5760008Y3248086D01*
X5782096Y3238937D01*
X5805800Y3235816D01*
X5840100D01*
X5863804Y3238937D01*
X5885892Y3248086D01*
X5904859Y3262641D01*
X5919414Y3281608D01*
X5928563Y3303696D01*
X5931684Y3327400D01*
X5928563Y3351104D01*
X5919414Y3373192D01*
X5904859Y3392159D01*
X5885892Y3406714D01*
X5884076Y3411679D01*
X5883968Y3435003D01*
X5899941Y3447259D01*
X5917244Y3469809D01*
X5928121Y3496069D01*
X5931831Y3524250D01*
Y3638550D01*
X5928121Y3666731D01*
X5917244Y3692991D01*
X5899941Y3715541D01*
X5877391Y3732844D01*
X5851131Y3743721D01*
X5822950Y3747431D01*
D02*
G37*
G36*
X9759950Y3385112D02*
X9736899Y3382077D01*
X9715419Y3373180D01*
X9696973Y3359027D01*
X9682820Y3340581D01*
X9673923Y3319101D01*
X9670888Y3296050D01*
Y3256750D01*
X9673923Y3233699D01*
X9682820Y3212219D01*
X9696973Y3193774D01*
X9715419Y3179620D01*
X9736899Y3170723D01*
X9759950Y3167688D01*
X9783001Y3170723D01*
X9804481Y3179620D01*
X9822927Y3193774D01*
X9837080Y3212219D01*
X9845977Y3233699D01*
X9849012Y3256750D01*
Y3296050D01*
X9845977Y3319101D01*
X9837080Y3340581D01*
X9822927Y3359027D01*
X9804481Y3373180D01*
X9783001Y3382077D01*
X9759950Y3385112D01*
D02*
G37*
G36*
X9505950D02*
X9482899Y3382077D01*
X9461419Y3373180D01*
X9442973Y3359027D01*
X9428820Y3340581D01*
X9419923Y3319101D01*
X9416888Y3296050D01*
Y3256750D01*
X9419923Y3233699D01*
X9428820Y3212219D01*
X9442973Y3193774D01*
X9461419Y3179620D01*
X9482899Y3170723D01*
X9505950Y3167688D01*
X9529001Y3170723D01*
X9550481Y3179620D01*
X9568927Y3193774D01*
X9583080Y3212219D01*
X9591977Y3233699D01*
X9595012Y3256750D01*
Y3296050D01*
X9591977Y3319101D01*
X9583080Y3340581D01*
X9568927Y3359027D01*
X9550481Y3373180D01*
X9529001Y3382077D01*
X9505950Y3385112D01*
D02*
G37*
G36*
X9251950D02*
X9228899Y3382077D01*
X9207419Y3373180D01*
X9188973Y3359027D01*
X9174820Y3340581D01*
X9165923Y3319101D01*
X9162888Y3296050D01*
Y3256750D01*
X9165923Y3233699D01*
X9174820Y3212219D01*
X9188973Y3193774D01*
X9207419Y3179620D01*
X9228899Y3170723D01*
X9251950Y3167688D01*
X9275001Y3170723D01*
X9296481Y3179620D01*
X9314927Y3193774D01*
X9329080Y3212219D01*
X9337977Y3233699D01*
X9341012Y3256750D01*
Y3296050D01*
X9337977Y3319101D01*
X9329080Y3340581D01*
X9314927Y3359027D01*
X9296481Y3373180D01*
X9275001Y3382077D01*
X9251950Y3385112D01*
D02*
G37*
G36*
X8997950D02*
X8974899Y3382077D01*
X8953419Y3373180D01*
X8934973Y3359027D01*
X8920820Y3340581D01*
X8911923Y3319101D01*
X8908888Y3296050D01*
Y3256750D01*
X8911923Y3233699D01*
X8920820Y3212219D01*
X8934973Y3193774D01*
X8953419Y3179620D01*
X8974899Y3170723D01*
X8997950Y3167688D01*
X9021001Y3170723D01*
X9042481Y3179620D01*
X9060927Y3193774D01*
X9075080Y3212219D01*
X9083977Y3233699D01*
X9087012Y3256750D01*
Y3296050D01*
X9083977Y3319101D01*
X9075080Y3340581D01*
X9060927Y3359027D01*
X9042481Y3373180D01*
X9021001Y3382077D01*
X8997950Y3385112D01*
D02*
G37*
G36*
X2407050Y3271900D02*
X2229250D01*
Y3094100D01*
X2407050D01*
Y3271900D01*
D02*
G37*
G36*
X5840100Y3164984D02*
X5805800D01*
X5782096Y3161863D01*
X5760008Y3152714D01*
X5741041Y3138159D01*
X5726486Y3119192D01*
X5717337Y3097104D01*
X5714216Y3073400D01*
X5717337Y3049696D01*
X5726486Y3027608D01*
X5741041Y3008641D01*
X5760008Y2994086D01*
X5782096Y2984937D01*
X5805800Y2981816D01*
X5840100D01*
X5863804Y2984937D01*
X5885892Y2994086D01*
X5904859Y3008641D01*
X5919414Y3027608D01*
X5928563Y3049696D01*
X5931684Y3073400D01*
X5928563Y3097104D01*
X5919414Y3119192D01*
X5904859Y3138159D01*
X5885892Y3152714D01*
X5863804Y3161863D01*
X5840100Y3164984D01*
D02*
G37*
G36*
X2407050Y3068700D02*
X2229250D01*
Y2890900D01*
X2407050D01*
Y3068700D01*
D02*
G37*
G36*
X2203850D02*
X2026050D01*
Y2890900D01*
X2203850D01*
Y3068700D01*
D02*
G37*
G36*
X5840100Y2910984D02*
X5805800D01*
X5782096Y2907863D01*
X5760008Y2898714D01*
X5741041Y2884159D01*
X5726486Y2865192D01*
X5717337Y2843104D01*
X5714216Y2819400D01*
X5717337Y2795696D01*
X5726486Y2773608D01*
X5741041Y2754641D01*
X5760008Y2740086D01*
X5782096Y2730937D01*
X5805800Y2727816D01*
X5840100D01*
X5863804Y2730937D01*
X5885892Y2740086D01*
X5904859Y2754641D01*
X5919414Y2773608D01*
X5928563Y2795696D01*
X5931684Y2819400D01*
X5928563Y2843104D01*
X5919414Y2865192D01*
X5904859Y2884159D01*
X5885892Y2898714D01*
X5863804Y2907863D01*
X5840100Y2910984D01*
D02*
G37*
G36*
X9109654Y2791300D02*
X9086246D01*
X9063636Y2785242D01*
X9043364Y2773538D01*
X9026812Y2756986D01*
X9015108Y2736714D01*
X9011098Y2721747D01*
X8984802D01*
X8980792Y2736714D01*
X8969088Y2756986D01*
X8952536Y2773538D01*
X8932264Y2785242D01*
X8909654Y2791300D01*
X8886246D01*
X8863636Y2785242D01*
X8843364Y2773538D01*
X8826812Y2756986D01*
X8815108Y2736714D01*
X8809050Y2714104D01*
Y2690696D01*
X8815108Y2668086D01*
X8826812Y2647814D01*
X8843364Y2631262D01*
X8863636Y2619558D01*
X8878603Y2615548D01*
Y2589252D01*
X8863636Y2585242D01*
X8843364Y2573538D01*
X8826812Y2556986D01*
X8815108Y2536714D01*
X8809050Y2514104D01*
Y2490696D01*
X8815108Y2468086D01*
X8826812Y2447814D01*
X8843364Y2431262D01*
X8863636Y2419559D01*
X8878603Y2415548D01*
Y2389252D01*
X8863636Y2385242D01*
X8843364Y2373538D01*
X8826812Y2356986D01*
X8815108Y2336714D01*
X8809050Y2314104D01*
Y2290696D01*
X8815108Y2268086D01*
X8826812Y2247814D01*
X8842077Y2232550D01*
X8842372Y2221656D01*
X8837984Y2205039D01*
X8816509Y2196144D01*
X8793959Y2178841D01*
X8776656Y2156291D01*
X8765779Y2130031D01*
X8762069Y2101850D01*
Y2012950D01*
X8765779Y1984769D01*
X8776656Y1958509D01*
X8793959Y1935959D01*
X8816509Y1918656D01*
X8842769Y1907779D01*
X8870950Y1904069D01*
X8899131Y1907779D01*
X8925391Y1918656D01*
X8947941Y1935959D01*
X8965244Y1958509D01*
X8976121Y1984769D01*
X8979831Y2012950D01*
Y2101850D01*
X8976121Y2130031D01*
X8965244Y2156291D01*
X8947941Y2178841D01*
X8929953Y2192643D01*
X8930308Y2210764D01*
X8933506Y2220275D01*
X8952536Y2231262D01*
X8969088Y2247814D01*
X8980792Y2268086D01*
X8984802Y2283053D01*
X9011098D01*
X9015108Y2268086D01*
X9026812Y2247814D01*
X9043364Y2231262D01*
X9062394Y2220275D01*
X9065592Y2210764D01*
X9065947Y2192643D01*
X9047959Y2178841D01*
X9030656Y2156291D01*
X9019779Y2130031D01*
X9016069Y2101850D01*
Y2012950D01*
X9019779Y1984769D01*
X9030656Y1958509D01*
X9047959Y1935959D01*
X9070509Y1918656D01*
X9096769Y1907779D01*
X9124950Y1904069D01*
X9153131Y1907779D01*
X9179391Y1918656D01*
X9201941Y1935959D01*
X9219244Y1958509D01*
X9230121Y1984769D01*
X9233831Y2012950D01*
Y2101850D01*
X9230121Y2130031D01*
X9219244Y2156291D01*
X9201941Y2178841D01*
X9179391Y2196144D01*
X9157916Y2205039D01*
X9153528Y2221656D01*
X9153823Y2232550D01*
X9169088Y2247814D01*
X9180792Y2268086D01*
X9186850Y2290696D01*
Y2314104D01*
X9180792Y2336714D01*
X9169088Y2356986D01*
X9152536Y2373538D01*
X9132264Y2385242D01*
X9117297Y2389252D01*
Y2415548D01*
X9132264Y2419559D01*
X9152536Y2431262D01*
X9169088Y2447814D01*
X9180792Y2468086D01*
X9186850Y2490696D01*
Y2514104D01*
X9180792Y2536714D01*
X9169088Y2556986D01*
X9152536Y2573538D01*
X9132264Y2585242D01*
X9117297Y2589252D01*
Y2615548D01*
X9132264Y2619558D01*
X9152536Y2631262D01*
X9169088Y2647814D01*
X9180792Y2668086D01*
X9186850Y2690696D01*
Y2714104D01*
X9180792Y2736714D01*
X9169088Y2756986D01*
X9152536Y2773538D01*
X9132264Y2785242D01*
X9109654Y2791300D01*
D02*
G37*
G36*
X10158100Y2402984D02*
X10123800D01*
X10100096Y2399863D01*
X10078008Y2390714D01*
X10059041Y2376159D01*
X10044486Y2357192D01*
X10035337Y2335104D01*
X10032216Y2311400D01*
X10035337Y2287696D01*
X10044486Y2265608D01*
X10059041Y2246641D01*
X10078008Y2232086D01*
X10079824Y2227121D01*
X10079932Y2203797D01*
X10063959Y2191541D01*
X10046656Y2168991D01*
X10035779Y2142731D01*
X10032069Y2114550D01*
Y2000250D01*
X10035779Y1972069D01*
X10046656Y1945809D01*
X10063959Y1923259D01*
X10086509Y1905956D01*
X10112769Y1895079D01*
X10140950Y1891369D01*
X10169131Y1895079D01*
X10195391Y1905956D01*
X10217941Y1923259D01*
X10235244Y1945809D01*
X10246121Y1972069D01*
X10249831Y2000250D01*
Y2114550D01*
X10246121Y2142731D01*
X10235244Y2168991D01*
X10217941Y2191541D01*
X10201968Y2203797D01*
X10202076Y2227121D01*
X10203892Y2232086D01*
X10222859Y2246641D01*
X10237414Y2265608D01*
X10246563Y2287696D01*
X10249684Y2311400D01*
X10246563Y2335104D01*
X10237414Y2357192D01*
X10222859Y2376159D01*
X10203892Y2390714D01*
X10181804Y2399863D01*
X10158100Y2402984D01*
D02*
G37*
G36*
X9886950Y2236131D02*
X9858769Y2232421D01*
X9832509Y2221544D01*
X9809959Y2204241D01*
X9792656Y2181691D01*
X9781779Y2155431D01*
X9778069Y2127250D01*
Y1987550D01*
X9781779Y1959369D01*
X9792656Y1933109D01*
X9809959Y1910559D01*
X9832509Y1893256D01*
X9858769Y1882379D01*
X9886950Y1878669D01*
X9915131Y1882379D01*
X9941391Y1893256D01*
X9963941Y1910559D01*
X9981244Y1933109D01*
X9992121Y1959369D01*
X9995831Y1987550D01*
Y2127250D01*
X9992121Y2155431D01*
X9981244Y2181691D01*
X9963941Y2204241D01*
X9941391Y2221544D01*
X9915131Y2232421D01*
X9886950Y2236131D01*
D02*
G37*
G36*
X8616950D02*
X8588769Y2232421D01*
X8562509Y2221544D01*
X8539959Y2204241D01*
X8522656Y2181691D01*
X8511779Y2155431D01*
X8508069Y2127250D01*
Y1987550D01*
X8511779Y1959369D01*
X8522656Y1933109D01*
X8539959Y1910559D01*
X8562509Y1893256D01*
X8588769Y1882379D01*
X8616950Y1878669D01*
X8645131Y1882379D01*
X8671391Y1893256D01*
X8693941Y1910559D01*
X8711244Y1933109D01*
X8722121Y1959369D01*
X8725831Y1987550D01*
Y2127250D01*
X8722121Y2155431D01*
X8711244Y2181691D01*
X8693941Y2204241D01*
X8671391Y2221544D01*
X8645131Y2232421D01*
X8616950Y2236131D01*
D02*
G37*
G36*
X8362950D02*
X8334769Y2232421D01*
X8308509Y2221544D01*
X8285959Y2204241D01*
X8268656Y2181691D01*
X8257779Y2155431D01*
X8254069Y2127250D01*
Y1987550D01*
X8257779Y1959369D01*
X8268656Y1933109D01*
X8285959Y1910559D01*
X8308509Y1893256D01*
X8334769Y1882379D01*
X8362950Y1878669D01*
X8391131Y1882379D01*
X8417391Y1893256D01*
X8439941Y1910559D01*
X8457244Y1933109D01*
X8468121Y1959369D01*
X8471831Y1987550D01*
Y2127250D01*
X8468121Y2155431D01*
X8457244Y2181691D01*
X8439941Y2204241D01*
X8417391Y2221544D01*
X8391131Y2232421D01*
X8362950Y2236131D01*
D02*
G37*
G36*
X8108950D02*
X8080769Y2232421D01*
X8054509Y2221544D01*
X8031959Y2204241D01*
X8014656Y2181691D01*
X8003779Y2155431D01*
X8000069Y2127250D01*
Y1987550D01*
X8003779Y1959369D01*
X8014656Y1933109D01*
X8031959Y1910559D01*
X8054509Y1893256D01*
X8080769Y1882379D01*
X8108950Y1878669D01*
X8137131Y1882379D01*
X8163391Y1893256D01*
X8185941Y1910559D01*
X8203244Y1933109D01*
X8214121Y1959369D01*
X8217831Y1987550D01*
Y2127250D01*
X8214121Y2155431D01*
X8203244Y2181691D01*
X8185941Y2204241D01*
X8163391Y2221544D01*
X8137131Y2232421D01*
X8108950Y2236131D01*
D02*
G37*
G36*
X6330950D02*
X6302769Y2232421D01*
X6276509Y2221544D01*
X6253959Y2204241D01*
X6236656Y2181691D01*
X6225779Y2155431D01*
X6222069Y2127250D01*
Y1987550D01*
X6225779Y1959369D01*
X6236656Y1933109D01*
X6253959Y1910559D01*
X6276509Y1893256D01*
X6302769Y1882379D01*
X6330950Y1878669D01*
X6359131Y1882379D01*
X6385391Y1893256D01*
X6407941Y1910559D01*
X6425244Y1933109D01*
X6436121Y1959369D01*
X6439831Y1987550D01*
Y2127250D01*
X6436121Y2155431D01*
X6425244Y2181691D01*
X6407941Y2204241D01*
X6385391Y2221544D01*
X6359131Y2232421D01*
X6330950Y2236131D01*
D02*
G37*
G36*
X6076950D02*
X6048769Y2232421D01*
X6022509Y2221544D01*
X5999959Y2204241D01*
X5982656Y2181691D01*
X5971779Y2155431D01*
X5968069Y2127250D01*
Y1987550D01*
X5971779Y1959369D01*
X5982656Y1933109D01*
X5999959Y1910559D01*
X6022509Y1893256D01*
X6048769Y1882379D01*
X6076950Y1878669D01*
X6105131Y1882379D01*
X6131391Y1893256D01*
X6153941Y1910559D01*
X6171244Y1933109D01*
X6182121Y1959369D01*
X6185831Y1987550D01*
Y2127250D01*
X6182121Y2155431D01*
X6171244Y2181691D01*
X6153941Y2204241D01*
X6131391Y2221544D01*
X6105131Y2232421D01*
X6076950Y2236131D01*
D02*
G37*
G36*
X5568950D02*
X5540769Y2232421D01*
X5514509Y2221544D01*
X5491959Y2204241D01*
X5474656Y2181691D01*
X5463779Y2155431D01*
X5460069Y2127250D01*
Y1987550D01*
X5463779Y1959369D01*
X5474656Y1933109D01*
X5491959Y1910559D01*
X5514509Y1893256D01*
X5540769Y1882379D01*
X5568950Y1878669D01*
X5597131Y1882379D01*
X5623391Y1893256D01*
X5645941Y1910559D01*
X5663244Y1933109D01*
X5674121Y1959369D01*
X5677831Y1987550D01*
Y2127250D01*
X5674121Y2155431D01*
X5663244Y2181691D01*
X5645941Y2204241D01*
X5623391Y2221544D01*
X5597131Y2232421D01*
X5568950Y2236131D01*
D02*
G37*
G36*
X5314950D02*
X5286769Y2232421D01*
X5260509Y2221544D01*
X5237959Y2204241D01*
X5220656Y2181691D01*
X5209779Y2155431D01*
X5206069Y2127250D01*
Y1987550D01*
X5209779Y1959369D01*
X5220656Y1933109D01*
X5237959Y1910559D01*
X5260509Y1893256D01*
X5286769Y1882379D01*
X5314950Y1878669D01*
X5343131Y1882379D01*
X5369391Y1893256D01*
X5391941Y1910559D01*
X5409244Y1933109D01*
X5420121Y1959369D01*
X5423831Y1987550D01*
Y2127250D01*
X5420121Y2155431D01*
X5409244Y2181691D01*
X5391941Y2204241D01*
X5369391Y2221544D01*
X5343131Y2232421D01*
X5314950Y2236131D01*
D02*
G37*
G36*
X5060950D02*
X5032769Y2232421D01*
X5006509Y2221544D01*
X4983959Y2204241D01*
X4966656Y2181691D01*
X4955779Y2155431D01*
X4952069Y2127250D01*
Y1987550D01*
X4955779Y1959369D01*
X4966656Y1933109D01*
X4983959Y1910559D01*
X5006509Y1893256D01*
X5032769Y1882379D01*
X5060950Y1878669D01*
X5089131Y1882379D01*
X5115391Y1893256D01*
X5137941Y1910559D01*
X5155244Y1933109D01*
X5166121Y1959369D01*
X5169831Y1987550D01*
Y2127250D01*
X5166121Y2155431D01*
X5155244Y2181691D01*
X5137941Y2204241D01*
X5115391Y2221544D01*
X5089131Y2232421D01*
X5060950Y2236131D01*
D02*
G37*
G36*
X4806950D02*
X4778769Y2232421D01*
X4752509Y2221544D01*
X4729959Y2204241D01*
X4712656Y2181691D01*
X4701779Y2155431D01*
X4698069Y2127250D01*
Y1987550D01*
X4701779Y1959369D01*
X4712656Y1933109D01*
X4729959Y1910559D01*
X4752509Y1893256D01*
X4778769Y1882379D01*
X4806950Y1878669D01*
X4835131Y1882379D01*
X4861391Y1893256D01*
X4883941Y1910559D01*
X4901244Y1933109D01*
X4912121Y1959369D01*
X4915831Y1987550D01*
Y2127250D01*
X4912121Y2155431D01*
X4901244Y2181691D01*
X4883941Y2204241D01*
X4861391Y2221544D01*
X4835131Y2232421D01*
X4806950Y2236131D01*
D02*
G37*
G36*
X4552950D02*
X4524769Y2232421D01*
X4498509Y2221544D01*
X4475959Y2204241D01*
X4458656Y2181691D01*
X4447779Y2155431D01*
X4444069Y2127250D01*
Y1987550D01*
X4447779Y1959369D01*
X4458656Y1933109D01*
X4475959Y1910559D01*
X4498509Y1893256D01*
X4524769Y1882379D01*
X4552950Y1878669D01*
X4581131Y1882379D01*
X4607391Y1893256D01*
X4629941Y1910559D01*
X4647244Y1933109D01*
X4658121Y1959369D01*
X4661831Y1987550D01*
Y2127250D01*
X4658121Y2155431D01*
X4647244Y2181691D01*
X4629941Y2204241D01*
X4607391Y2221544D01*
X4581131Y2232421D01*
X4552950Y2236131D01*
D02*
G37*
G36*
X3111500Y1544791D02*
X3067050D01*
Y1435800D01*
X3231519D01*
X3229045Y1454596D01*
X3216888Y1483946D01*
X3197549Y1509149D01*
X3172346Y1528488D01*
X3142996Y1540645D01*
X3111500Y1544791D01*
D02*
G37*
G36*
X3041650D02*
X2997200D01*
X2965704Y1540645D01*
X2936354Y1528488D01*
X2911151Y1509149D01*
X2891812Y1483946D01*
X2879655Y1454596D01*
X2877181Y1435800D01*
X3041650D01*
Y1544791D01*
D02*
G37*
%LPD*%
G36*
X7864151Y4295451D02*
X7889354Y4276112D01*
X7908344Y4268246D01*
Y4240754D01*
X7889354Y4232888D01*
X7864152Y4213549D01*
X7850156Y4212631D01*
X7793519Y4269269D01*
X7780916Y4277689D01*
X7766050Y4280647D01*
X2940050D01*
X2925184Y4277689D01*
X2912581Y4269269D01*
X2314688Y3671375D01*
X2308539Y3671946D01*
X2288093Y3699352D01*
X2289450Y3706174D01*
Y3740626D01*
X2282728Y3774417D01*
X2269544Y3806246D01*
X2250404Y3834893D01*
X2226042Y3859254D01*
X2197396Y3878395D01*
X2165566Y3891579D01*
X2131776Y3898300D01*
X2097324D01*
X2072963Y3893454D01*
X2060450Y3916863D01*
X2460841Y4317253D01*
X7847422D01*
X7864151Y4295451D01*
D02*
G37*
D11*
X9315450Y1612900D02*
X9632950Y1930400D01*
X7377430Y1308100D02*
X7682230Y1612900D01*
X9315450D01*
X8731250Y355600D02*
X8928100Y552450D01*
Y1225550D01*
X8845550Y1308100D02*
X8928100Y1225550D01*
X2508250Y559551D02*
X2614830Y452970D01*
X8271930Y1054100D02*
X8591550D01*
X7670800Y452970D02*
X8271930Y1054100D01*
X2614830Y452970D02*
X7670800D01*
X8591550Y1308100D02*
X8845550D01*
X2584450Y355600D02*
X8731250D01*
X2406650Y533400D02*
X2584450Y355600D01*
X7391400Y533400D02*
X7658100Y800100D01*
X5035550Y533400D02*
X7391400D01*
X7658100Y800100D02*
Y1104900D01*
X8039100Y1485900D01*
X10001250D01*
X4391850Y1177100D02*
X5035550Y533400D01*
X2940050Y4241800D02*
X7766050D01*
X7880350Y4127500D01*
X1847986Y3149736D02*
X2940050Y4241800D01*
X8083550Y4356100D02*
X8108950Y4381500D01*
X1581550Y3492900D02*
X2444750Y4356100D01*
X8083550D01*
X3926479Y3917950D02*
X3983629Y3975100D01*
X4578350Y3886200D02*
X6927850D01*
X3924300Y3917950D02*
X3926479D01*
X3983629Y3975100D02*
X7105650D01*
X7346950Y3733800D01*
X6927850Y3886200D02*
X7092950Y3721100D01*
X4565650Y3873500D02*
X4578350Y3886200D01*
X7721600Y2444750D02*
X8743950Y3467100D01*
X6838950Y3327400D02*
X7721600Y2444750D01*
X6838950Y3327400D02*
Y3581400D01*
X7721600Y1892300D02*
Y2444750D01*
X7670800Y1841500D02*
X7721600Y1892300D01*
X7054850Y1841500D02*
X7670800D01*
X4413250Y2425700D02*
X6724650D01*
X4083050Y2755900D02*
X4413250Y2425700D01*
X6724650D02*
X7092950Y2057400D01*
X3670300Y4076700D02*
X7270750D01*
X3657600Y4064000D02*
X3670300Y4076700D01*
X1581550Y3081400D02*
Y3492900D01*
X2216550Y1980800D02*
X2508250Y1689100D01*
Y559551D02*
Y1689100D01*
X2216550Y1980800D02*
Y2191400D01*
X2406650Y533400D02*
Y1574800D01*
X1790050Y2191400D02*
X2406650Y1574800D01*
X6851650Y1638300D02*
X7054850Y1841500D01*
X6496050D02*
X7054850D01*
X6851650Y939800D02*
Y1638300D01*
X6216650Y1562100D02*
X6496050Y1841500D01*
X4768850Y1562100D02*
X6216650D01*
X7270750Y4076700D02*
X7600950Y3746500D01*
X10394950Y1879600D02*
Y2057400D01*
X10001250Y1485900D02*
X10394950Y1879600D01*
X7372350Y1739900D02*
X9163050D01*
X9378950Y1955800D02*
Y2057400D01*
X9163050Y1739900D02*
X9378950Y1955800D01*
X9632950Y1930400D02*
Y2057400D01*
X9505950Y3873500D02*
X9785350D01*
X9886950Y3771900D01*
Y3581400D02*
Y3771900D01*
X8743950Y3467100D02*
Y3857786D01*
X2597150Y1380300D02*
Y2255800D01*
Y1380300D02*
X3054350Y923100D01*
X2216550Y2636400D02*
X2597150Y2255800D01*
X1581550Y2636400D02*
X1847986Y2902836D01*
X1581550Y2191400D02*
X1790050D01*
X1847986Y2902836D02*
Y3149736D01*
X10140950Y3581400D02*
Y3759200D01*
X9505950Y4127500D02*
X9772650D01*
X10140950Y3759200D01*
X3054350Y1173100D02*
X4387850D01*
X7194550Y1562100D02*
X7372350Y1739900D01*
X7194550Y1308100D02*
X7377430D01*
X7346950Y3581400D02*
Y3733800D01*
X7092950Y3581400D02*
Y3721100D01*
X7600950Y3581400D02*
Y3746500D01*
X6851650Y939800D02*
X6991350Y800100D01*
X7194550D01*
X7880350Y4127500D02*
X8108950D01*
X9048750Y4162586D02*
Y4419600D01*
X8743950Y3857786D02*
X9048750Y4162586D01*
Y4419600D02*
X9264650Y4635500D01*
X9505950D01*
D12*
X4387850Y1173100D02*
X4391850Y1177100D01*
D13*
X10414000Y4445000D02*
D03*
Y508000D02*
D03*
X1905000D02*
D03*
Y4445000D02*
D03*
D19*
X2114550Y1549400D02*
D03*
Y3723400D02*
D03*
X971550Y2636400D02*
D03*
D23*
X4565650Y3873500D02*
D03*
X8712200Y4381500D02*
D03*
X3657600Y4064000D02*
D03*
X3403600Y4051300D02*
D03*
X4083050Y2755900D02*
D03*
X3917950Y3924300D02*
D03*
X4768850Y1562100D02*
D03*
D24*
X10394950Y3581400D02*
D03*
X10140950D02*
D03*
X6838950Y2057400D02*
D03*
X9886950Y3581400D02*
D03*
X9124950D02*
D03*
X8870950D02*
D03*
X8616950D02*
D03*
X8362950D02*
D03*
X8108950D02*
D03*
X7854950D02*
D03*
X7600950D02*
D03*
X7346950D02*
D03*
X7092950D02*
D03*
X6838950D02*
D03*
X7092950Y2057400D02*
D03*
X7346950D02*
D03*
X7600950D02*
D03*
X7854950D02*
D03*
X8108950D02*
D03*
X8362950D02*
D03*
X8616950D02*
D03*
X9378950D02*
D03*
X9632950D02*
D03*
X9886950D02*
D03*
X10394950D02*
D03*
X6584950Y3581400D02*
D03*
X6330950D02*
D03*
X6076950D02*
D03*
X5568950D02*
D03*
X5314950D02*
D03*
X5060950D02*
D03*
X4806950D02*
D03*
X4552950D02*
D03*
Y2057400D02*
D03*
X4806950D02*
D03*
X5060950D02*
D03*
X5314950D02*
D03*
X5568950D02*
D03*
X6076950D02*
D03*
X6330950D02*
D03*
X6584950D02*
D03*
D25*
X5822950Y3327400D02*
D03*
Y3073400D02*
D03*
Y2819400D02*
D03*
Y2311400D02*
D03*
X10140950D02*
D03*
X5822950Y2565400D02*
D03*
D26*
X8897950Y2302400D02*
D03*
X9097950D02*
D03*
X8897950Y2502400D02*
D03*
Y2702400D02*
D03*
X9097950Y2502400D02*
D03*
Y2702400D02*
D03*
D27*
X9759950Y3276400D02*
D03*
X9505950D02*
D03*
X9251950D02*
D03*
X8997950D02*
D03*
X8743950D02*
D03*
D28*
X9632950Y3581400D02*
D03*
X9378950D02*
D03*
X8870950Y2057400D02*
D03*
X9124950D02*
D03*
D29*
X10140950D02*
D03*
X5822950Y3581400D02*
D03*
Y2057400D02*
D03*
D30*
X1581550Y2636400D02*
D03*
X2216550Y2191400D02*
D03*
Y2636400D02*
D03*
X1581550Y2191400D02*
D03*
Y3081400D02*
D03*
D31*
X2216550D02*
D03*
D32*
X8591550Y1054100D02*
D03*
Y1308100D02*
D03*
X7194550Y1562100D02*
D03*
Y1308100D02*
D03*
Y1054100D02*
D03*
Y800100D02*
D03*
X8108950Y4381500D02*
D03*
Y4127500D02*
D03*
X9505950Y3873500D02*
D03*
Y4127500D02*
D03*
Y4381500D02*
D03*
Y4635500D02*
D03*
D33*
X3054350Y673100D02*
D03*
D34*
Y923100D02*
D03*
Y1173100D02*
D03*
Y1423100D02*
D03*
%TF.MD5,e95e1da8a73e6f25ff851a7343329bed*%
M02*
