%TF.GenerationSoftware,Altium Limited,Altium Designer,25.2.1 (25)*%
G04 Layer_Color=16711935*
%FSLAX45Y45*%
%MOMM*%
%TF.SameCoordinates,E14999F2-3F76-4230-806F-2BB8C5B8D12E*%
%TF.FilePolarity,Negative*%
%TF.FileFunction,Soldermask,Bot*%
%TF.Part,Single*%
G01*
G75*
%TA.AperFunction,ComponentPad*%
%ADD33R,3.04800X1.90500*%
%ADD34O,3.04800X1.90500*%
%TA.AperFunction,ViaPad*%
%ADD41C,1.72720*%
%TA.AperFunction,ComponentPad*%
%ADD47C,3.19320*%
%TA.AperFunction,ViaPad*%
%ADD50C,1.47320*%
%TA.AperFunction,ComponentPad*%
%ADD51O,1.85420X3.25120*%
%ADD52O,1.85420X1.51120*%
%ADD53C,1.47320*%
%ADD54O,1.46120X1.85420*%
%ADD55O,1.85420X2.74320*%
%ADD56O,1.85420X2.99720*%
%ADD57C,3.50520*%
%ADD58R,3.50520X3.50520*%
%ADD59O,5.28320X2.10820*%
D33*
X3054350Y673100D02*
D03*
D34*
Y923100D02*
D03*
Y1173100D02*
D03*
Y1423100D02*
D03*
D41*
X10414000Y4445000D02*
D03*
Y508000D02*
D03*
X1905000D02*
D03*
Y4445000D02*
D03*
D47*
X2114550Y1549400D02*
D03*
Y3723400D02*
D03*
X971550Y2636400D02*
D03*
D50*
X4565650Y3873500D02*
D03*
X8712200Y4381500D02*
D03*
X3657600Y4064000D02*
D03*
X3403600Y4051300D02*
D03*
X4083050Y2755900D02*
D03*
X3917950Y3924300D02*
D03*
X4768850Y1562100D02*
D03*
D51*
X10394950Y3581400D02*
D03*
X10140950D02*
D03*
X6838950Y2057400D02*
D03*
X9886950Y3581400D02*
D03*
X9124950D02*
D03*
X8870950D02*
D03*
X8616950D02*
D03*
X8362950D02*
D03*
X8108950D02*
D03*
X7854950D02*
D03*
X7600950D02*
D03*
X7346950D02*
D03*
X7092950D02*
D03*
X6838950D02*
D03*
X7092950Y2057400D02*
D03*
X7346950D02*
D03*
X7600950D02*
D03*
X7854950D02*
D03*
X8108950D02*
D03*
X8362950D02*
D03*
X8616950D02*
D03*
X9378950D02*
D03*
X9632950D02*
D03*
X9886950D02*
D03*
X10394950D02*
D03*
X6584950Y3581400D02*
D03*
X6330950D02*
D03*
X6076950D02*
D03*
X5568950D02*
D03*
X5314950D02*
D03*
X5060950D02*
D03*
X4806950D02*
D03*
X4552950D02*
D03*
Y2057400D02*
D03*
X4806950D02*
D03*
X5060950D02*
D03*
X5314950D02*
D03*
X5568950D02*
D03*
X6076950D02*
D03*
X6330950D02*
D03*
X6584950D02*
D03*
D52*
X5822950Y3327400D02*
D03*
Y3073400D02*
D03*
Y2819400D02*
D03*
Y2311400D02*
D03*
X10140950D02*
D03*
X5822950Y2565400D02*
D03*
D53*
X8897950Y2302400D02*
D03*
X9097950D02*
D03*
X8897950Y2502400D02*
D03*
Y2702400D02*
D03*
X9097950Y2502400D02*
D03*
Y2702400D02*
D03*
D54*
X9759950Y3276400D02*
D03*
X9505950D02*
D03*
X9251950D02*
D03*
X8997950D02*
D03*
X8743950D02*
D03*
D55*
X9632950Y3581400D02*
D03*
X9378950D02*
D03*
X8870950Y2057400D02*
D03*
X9124950D02*
D03*
D56*
X10140950D02*
D03*
X5822950Y3581400D02*
D03*
Y2057400D02*
D03*
D57*
X1581550Y2636400D02*
D03*
X2216550Y2191400D02*
D03*
Y2636400D02*
D03*
X1581550Y2191400D02*
D03*
Y3081400D02*
D03*
D58*
X2216550D02*
D03*
D59*
X8591550Y1054100D02*
D03*
Y1308100D02*
D03*
X7194550Y1562100D02*
D03*
Y1308100D02*
D03*
Y1054100D02*
D03*
Y800100D02*
D03*
X8108950Y4381500D02*
D03*
Y4127500D02*
D03*
X9505950Y3873500D02*
D03*
Y4127500D02*
D03*
Y4381500D02*
D03*
Y4635500D02*
D03*
%TF.MD5,bedff83a4c3ae19a87ea584acce6956d*%
M02*
