%TF.GenerationSoftware,Altium Limited,Altium Designer,24.10.1 (45)*%
G04 Layer_Color=2752767*
%FSLAX45Y45*%
%MOMM*%
%TF.SameCoordinates,7F7612D6-C118-48B3-99A1-FC737374F31D*%
%TF.FilePolarity,Positive*%
%TF.FileFunction,Drawing*%
%TF.Part,Single*%
G01*
G75*
%TA.AperFunction,NonConductor*%
%ADD26C,0.12700*%
%ADD45C,0.16933*%
D26*
X939800Y2318900D02*
Y2420500D01*
X1041400D01*
Y2318900D01*
X939800D01*
X2082800Y3405900D02*
Y3507500D01*
X2184400D01*
Y3405900D01*
X2082800D01*
Y1231900D02*
Y1333500D01*
X2184400D01*
Y1231900D01*
X2082800D01*
X8559800Y736600D02*
X8585200D01*
X8610600Y762000D01*
X8636000Y736600D01*
X8661400D01*
Y762000D01*
X8636000Y787400D01*
X8661400Y812800D01*
Y838200D01*
X8636000D01*
X8610600Y812800D01*
X8585200Y838200D01*
X8559800D01*
Y812800D01*
X8585200Y787400D01*
X8559800Y762000D01*
Y736600D01*
Y990600D02*
X8585200D01*
X8610600Y1016000D01*
X8636000Y990600D01*
X8661400D01*
Y1016000D01*
X8636000Y1041400D01*
X8661400Y1066800D01*
Y1092200D01*
X8636000D01*
X8610600Y1066800D01*
X8585200Y1092200D01*
X8559800D01*
Y1066800D01*
X8585200Y1041400D01*
X8559800Y1016000D01*
Y990600D01*
X7162800Y1244600D02*
X7188200D01*
X7213600Y1270000D01*
X7239000Y1244600D01*
X7264400D01*
Y1270000D01*
X7239000Y1295400D01*
X7264400Y1320800D01*
Y1346200D01*
X7239000D01*
X7213600Y1320800D01*
X7188200Y1346200D01*
X7162800D01*
Y1320800D01*
X7188200Y1295400D01*
X7162800Y1270000D01*
Y1244600D01*
Y990600D02*
X7188200D01*
X7213600Y1016000D01*
X7239000Y990600D01*
X7264400D01*
Y1016000D01*
X7239000Y1041400D01*
X7264400Y1066800D01*
Y1092200D01*
X7239000D01*
X7213600Y1066800D01*
X7188200Y1092200D01*
X7162800D01*
Y1066800D01*
X7188200Y1041400D01*
X7162800Y1016000D01*
Y990600D01*
Y736600D02*
X7188200D01*
X7213600Y762000D01*
X7239000Y736600D01*
X7264400D01*
Y762000D01*
X7239000Y787400D01*
X7264400Y812800D01*
Y838200D01*
X7239000D01*
X7213600Y812800D01*
X7188200Y838200D01*
X7162800D01*
Y812800D01*
X7188200Y787400D01*
X7162800Y762000D01*
Y736600D01*
Y482600D02*
X7188200D01*
X7213600Y508000D01*
X7239000Y482600D01*
X7264400D01*
Y508000D01*
X7239000Y533400D01*
X7264400Y558800D01*
Y584200D01*
X7239000D01*
X7213600Y558800D01*
X7188200Y584200D01*
X7162800D01*
Y558800D01*
X7188200Y533400D01*
X7162800Y508000D01*
Y482600D01*
X6604000Y1739900D02*
X6629400Y1765300D01*
X6654800D01*
X6629400Y1790700D01*
X6654800Y1816100D01*
X6629400D01*
X6604000Y1841500D01*
X6578600Y1816100D01*
X6553200D01*
X6578600Y1790700D01*
X6553200Y1765300D01*
X6578600D01*
X6604000Y1739900D01*
X6350000D02*
X6375400Y1765300D01*
X6400800D01*
X6375400Y1790700D01*
X6400800Y1816100D01*
X6375400D01*
X6350000Y1841500D01*
X6324600Y1816100D01*
X6299200D01*
X6324600Y1790700D01*
X6299200Y1765300D01*
X6324600D01*
X6350000Y1739900D01*
X6096000D02*
X6121400Y1765300D01*
X6146800D01*
X6121400Y1790700D01*
X6146800Y1816100D01*
X6121400D01*
X6096000Y1841500D01*
X6070600Y1816100D01*
X6045200D01*
X6070600Y1790700D01*
X6045200Y1765300D01*
X6070600D01*
X6096000Y1739900D01*
X5842000D02*
X5867400Y1765300D01*
X5892800D01*
X5867400Y1790700D01*
X5892800Y1816100D01*
X5867400D01*
X5842000Y1841500D01*
X5816600Y1816100D01*
X5791200D01*
X5816600Y1790700D01*
X5791200Y1765300D01*
X5816600D01*
X5842000Y1739900D01*
X5588000D02*
X5613400Y1765300D01*
X5638800D01*
X5613400Y1790700D01*
X5638800Y1816100D01*
X5613400D01*
X5588000Y1841500D01*
X5562600Y1816100D01*
X5537200D01*
X5562600Y1790700D01*
X5537200Y1765300D01*
X5562600D01*
X5588000Y1739900D01*
X5334000D02*
X5359400Y1765300D01*
X5384800D01*
X5359400Y1790700D01*
X5384800Y1816100D01*
X5359400D01*
X5334000Y1841500D01*
X5308600Y1816100D01*
X5283200D01*
X5308600Y1790700D01*
X5283200Y1765300D01*
X5308600D01*
X5334000Y1739900D01*
X5080000D02*
X5105400Y1765300D01*
X5130800D01*
X5105400Y1790700D01*
X5130800Y1816100D01*
X5105400D01*
X5080000Y1841500D01*
X5054600Y1816100D01*
X5029200D01*
X5054600Y1790700D01*
X5029200Y1765300D01*
X5054600D01*
X5080000Y1739900D01*
X4826000D02*
X4851400Y1765300D01*
X4876800D01*
X4851400Y1790700D01*
X4876800Y1816100D01*
X4851400D01*
X4826000Y1841500D01*
X4800600Y1816100D01*
X4775200D01*
X4800600Y1790700D01*
X4775200Y1765300D01*
X4800600D01*
X4826000Y1739900D01*
X4572000D02*
X4597400Y1765300D01*
X4622800D01*
X4597400Y1790700D01*
X4622800Y1816100D01*
X4597400D01*
X4572000Y1841500D01*
X4546600Y1816100D01*
X4521200D01*
X4546600Y1790700D01*
X4521200Y1765300D01*
X4546600D01*
X4572000Y1739900D01*
Y3263900D02*
X4597400Y3289300D01*
X4622800D01*
X4597400Y3314700D01*
X4622800Y3340100D01*
X4597400D01*
X4572000Y3365500D01*
X4546600Y3340100D01*
X4521200D01*
X4546600Y3314700D01*
X4521200Y3289300D01*
X4546600D01*
X4572000Y3263900D01*
X4826000D02*
X4851400Y3289300D01*
X4876800D01*
X4851400Y3314700D01*
X4876800Y3340100D01*
X4851400D01*
X4826000Y3365500D01*
X4800600Y3340100D01*
X4775200D01*
X4800600Y3314700D01*
X4775200Y3289300D01*
X4800600D01*
X4826000Y3263900D01*
X5080000D02*
X5105400Y3289300D01*
X5130800D01*
X5105400Y3314700D01*
X5130800Y3340100D01*
X5105400D01*
X5080000Y3365500D01*
X5054600Y3340100D01*
X5029200D01*
X5054600Y3314700D01*
X5029200Y3289300D01*
X5054600D01*
X5080000Y3263900D01*
X5334000D02*
X5359400Y3289300D01*
X5384800D01*
X5359400Y3314700D01*
X5384800Y3340100D01*
X5359400D01*
X5334000Y3365500D01*
X5308600Y3340100D01*
X5283200D01*
X5308600Y3314700D01*
X5283200Y3289300D01*
X5308600D01*
X5334000Y3263900D01*
X5588000D02*
X5613400Y3289300D01*
X5638800D01*
X5613400Y3314700D01*
X5638800Y3340100D01*
X5613400D01*
X5588000Y3365500D01*
X5562600Y3340100D01*
X5537200D01*
X5562600Y3314700D01*
X5537200Y3289300D01*
X5562600D01*
X5588000Y3263900D01*
X5842000D02*
X5867400Y3289300D01*
X5892800D01*
X5867400Y3314700D01*
X5892800Y3340100D01*
X5867400D01*
X5842000Y3365500D01*
X5816600Y3340100D01*
X5791200D01*
X5816600Y3314700D01*
X5791200Y3289300D01*
X5816600D01*
X5842000Y3263900D01*
X6096000D02*
X6121400Y3289300D01*
X6146800D01*
X6121400Y3314700D01*
X6146800Y3340100D01*
X6121400D01*
X6096000Y3365500D01*
X6070600Y3340100D01*
X6045200D01*
X6070600Y3314700D01*
X6045200Y3289300D01*
X6070600D01*
X6096000Y3263900D01*
X6350000D02*
X6375400Y3289300D01*
X6400800D01*
X6375400Y3314700D01*
X6400800Y3340100D01*
X6375400D01*
X6350000Y3365500D01*
X6324600Y3340100D01*
X6299200D01*
X6324600Y3314700D01*
X6299200Y3289300D01*
X6324600D01*
X6350000Y3263900D01*
X6604000D02*
X6629400Y3289300D01*
X6654800D01*
X6629400Y3314700D01*
X6654800Y3340100D01*
X6629400D01*
X6604000Y3365500D01*
X6578600Y3340100D01*
X6553200D01*
X6578600Y3314700D01*
X6553200Y3289300D01*
X6578600D01*
X6604000Y3263900D01*
X10414000Y1739900D02*
X10439400Y1765300D01*
X10464800D01*
X10439400Y1790700D01*
X10464800Y1816100D01*
X10439400D01*
X10414000Y1841500D01*
X10388600Y1816100D01*
X10363200D01*
X10388600Y1790700D01*
X10363200Y1765300D01*
X10388600D01*
X10414000Y1739900D01*
X10160000D02*
X10185400Y1765300D01*
X10210800D01*
X10185400Y1790700D01*
X10210800Y1816100D01*
X10185400D01*
X10160000Y1841500D01*
X10134600Y1816100D01*
X10109200D01*
X10134600Y1790700D01*
X10109200Y1765300D01*
X10134600D01*
X10160000Y1739900D01*
X9906000D02*
X9931400Y1765300D01*
X9956800D01*
X9931400Y1790700D01*
X9956800Y1816100D01*
X9931400D01*
X9906000Y1841500D01*
X9880600Y1816100D01*
X9855200D01*
X9880600Y1790700D01*
X9855200Y1765300D01*
X9880600D01*
X9906000Y1739900D01*
X9652000D02*
X9677400Y1765300D01*
X9702800D01*
X9677400Y1790700D01*
X9702800Y1816100D01*
X9677400D01*
X9652000Y1841500D01*
X9626600Y1816100D01*
X9601200D01*
X9626600Y1790700D01*
X9601200Y1765300D01*
X9626600D01*
X9652000Y1739900D01*
X9398000D02*
X9423400Y1765300D01*
X9448800D01*
X9423400Y1790700D01*
X9448800Y1816100D01*
X9423400D01*
X9398000Y1841500D01*
X9372600Y1816100D01*
X9347200D01*
X9372600Y1790700D01*
X9347200Y1765300D01*
X9372600D01*
X9398000Y1739900D01*
X9144000D02*
X9169400Y1765300D01*
X9194800D01*
X9169400Y1790700D01*
X9194800Y1816100D01*
X9169400D01*
X9144000Y1841500D01*
X9118600Y1816100D01*
X9093200D01*
X9118600Y1790700D01*
X9093200Y1765300D01*
X9118600D01*
X9144000Y1739900D01*
X8890000D02*
X8915400Y1765300D01*
X8940800D01*
X8915400Y1790700D01*
X8940800Y1816100D01*
X8915400D01*
X8890000Y1841500D01*
X8864600Y1816100D01*
X8839200D01*
X8864600Y1790700D01*
X8839200Y1765300D01*
X8864600D01*
X8890000Y1739900D01*
X8636000D02*
X8661400Y1765300D01*
X8686800D01*
X8661400Y1790700D01*
X8686800Y1816100D01*
X8661400D01*
X8636000Y1841500D01*
X8610600Y1816100D01*
X8585200D01*
X8610600Y1790700D01*
X8585200Y1765300D01*
X8610600D01*
X8636000Y1739900D01*
X8382000D02*
X8407400Y1765300D01*
X8432800D01*
X8407400Y1790700D01*
X8432800Y1816100D01*
X8407400D01*
X8382000Y1841500D01*
X8356600Y1816100D01*
X8331200D01*
X8356600Y1790700D01*
X8331200Y1765300D01*
X8356600D01*
X8382000Y1739900D01*
X8128000D02*
X8153400Y1765300D01*
X8178800D01*
X8153400Y1790700D01*
X8178800Y1816100D01*
X8153400D01*
X8128000Y1841500D01*
X8102600Y1816100D01*
X8077200D01*
X8102600Y1790700D01*
X8077200Y1765300D01*
X8102600D01*
X8128000Y1739900D01*
X7874000D02*
X7899400Y1765300D01*
X7924800D01*
X7899400Y1790700D01*
X7924800Y1816100D01*
X7899400D01*
X7874000Y1841500D01*
X7848600Y1816100D01*
X7823200D01*
X7848600Y1790700D01*
X7823200Y1765300D01*
X7848600D01*
X7874000Y1739900D01*
X7620000D02*
X7645400Y1765300D01*
X7670800D01*
X7645400Y1790700D01*
X7670800Y1816100D01*
X7645400D01*
X7620000Y1841500D01*
X7594600Y1816100D01*
X7569200D01*
X7594600Y1790700D01*
X7569200Y1765300D01*
X7594600D01*
X7620000Y1739900D01*
X7366000D02*
X7391400Y1765300D01*
X7416800D01*
X7391400Y1790700D01*
X7416800Y1816100D01*
X7391400D01*
X7366000Y1841500D01*
X7340600Y1816100D01*
X7315200D01*
X7340600Y1790700D01*
X7315200Y1765300D01*
X7340600D01*
X7366000Y1739900D01*
X7112000D02*
X7137400Y1765300D01*
X7162800D01*
X7137400Y1790700D01*
X7162800Y1816100D01*
X7137400D01*
X7112000Y1841500D01*
X7086600Y1816100D01*
X7061200D01*
X7086600Y1790700D01*
X7061200Y1765300D01*
X7086600D01*
X7112000Y1739900D01*
X6858000Y3263900D02*
X6883400Y3289300D01*
X6908800D01*
X6883400Y3314700D01*
X6908800Y3340100D01*
X6883400D01*
X6858000Y3365500D01*
X6832600Y3340100D01*
X6807200D01*
X6832600Y3314700D01*
X6807200Y3289300D01*
X6832600D01*
X6858000Y3263900D01*
X7112000D02*
X7137400Y3289300D01*
X7162800D01*
X7137400Y3314700D01*
X7162800Y3340100D01*
X7137400D01*
X7112000Y3365500D01*
X7086600Y3340100D01*
X7061200D01*
X7086600Y3314700D01*
X7061200Y3289300D01*
X7086600D01*
X7112000Y3263900D01*
X7366000D02*
X7391400Y3289300D01*
X7416800D01*
X7391400Y3314700D01*
X7416800Y3340100D01*
X7391400D01*
X7366000Y3365500D01*
X7340600Y3340100D01*
X7315200D01*
X7340600Y3314700D01*
X7315200Y3289300D01*
X7340600D01*
X7366000Y3263900D01*
X7620000D02*
X7645400Y3289300D01*
X7670800D01*
X7645400Y3314700D01*
X7670800Y3340100D01*
X7645400D01*
X7620000Y3365500D01*
X7594600Y3340100D01*
X7569200D01*
X7594600Y3314700D01*
X7569200Y3289300D01*
X7594600D01*
X7620000Y3263900D01*
X7874000D02*
X7899400Y3289300D01*
X7924800D01*
X7899400Y3314700D01*
X7924800Y3340100D01*
X7899400D01*
X7874000Y3365500D01*
X7848600Y3340100D01*
X7823200D01*
X7848600Y3314700D01*
X7823200Y3289300D01*
X7848600D01*
X7874000Y3263900D01*
X8128000D02*
X8153400Y3289300D01*
X8178800D01*
X8153400Y3314700D01*
X8178800Y3340100D01*
X8153400D01*
X8128000Y3365500D01*
X8102600Y3340100D01*
X8077200D01*
X8102600Y3314700D01*
X8077200Y3289300D01*
X8102600D01*
X8128000Y3263900D01*
X8382000D02*
X8407400Y3289300D01*
X8432800D01*
X8407400Y3314700D01*
X8432800Y3340100D01*
X8407400D01*
X8382000Y3365500D01*
X8356600Y3340100D01*
X8331200D01*
X8356600Y3314700D01*
X8331200Y3289300D01*
X8356600D01*
X8382000Y3263900D01*
X8636000D02*
X8661400Y3289300D01*
X8686800D01*
X8661400Y3314700D01*
X8686800Y3340100D01*
X8661400D01*
X8636000Y3365500D01*
X8610600Y3340100D01*
X8585200D01*
X8610600Y3314700D01*
X8585200Y3289300D01*
X8610600D01*
X8636000Y3263900D01*
X8890000D02*
X8915400Y3289300D01*
X8940800D01*
X8915400Y3314700D01*
X8940800Y3340100D01*
X8915400D01*
X8890000Y3365500D01*
X8864600Y3340100D01*
X8839200D01*
X8864600Y3314700D01*
X8839200Y3289300D01*
X8864600D01*
X8890000Y3263900D01*
X9144000D02*
X9169400Y3289300D01*
X9194800D01*
X9169400Y3314700D01*
X9194800Y3340100D01*
X9169400D01*
X9144000Y3365500D01*
X9118600Y3340100D01*
X9093200D01*
X9118600Y3314700D01*
X9093200Y3289300D01*
X9118600D01*
X9144000Y3263900D01*
X9398000D02*
X9423400Y3289300D01*
X9448800D01*
X9423400Y3314700D01*
X9448800Y3340100D01*
X9423400D01*
X9398000Y3365500D01*
X9372600Y3340100D01*
X9347200D01*
X9372600Y3314700D01*
X9347200Y3289300D01*
X9372600D01*
X9398000Y3263900D01*
X9652000D02*
X9677400Y3289300D01*
X9702800D01*
X9677400Y3314700D01*
X9702800Y3340100D01*
X9677400D01*
X9652000Y3365500D01*
X9626600Y3340100D01*
X9601200D01*
X9626600Y3314700D01*
X9601200Y3289300D01*
X9626600D01*
X9652000Y3263900D01*
X9906000D02*
X9931400Y3289300D01*
X9956800D01*
X9931400Y3314700D01*
X9956800Y3340100D01*
X9931400D01*
X9906000Y3365500D01*
X9880600Y3340100D01*
X9855200D01*
X9880600Y3314700D01*
X9855200Y3289300D01*
X9880600D01*
X9906000Y3263900D01*
X8737600Y2984300D02*
Y2958900D01*
X8788400D01*
Y2984300D01*
X8813800D01*
Y3035100D01*
X8788400D01*
Y3060500D01*
X8737600D01*
Y3035100D01*
X8712200D01*
Y2984300D01*
X8737600D01*
X8991600D02*
Y2958900D01*
X9042400D01*
Y2984300D01*
X9067800D01*
Y3035100D01*
X9042400D01*
Y3060500D01*
X8991600D01*
Y3035100D01*
X8966200D01*
Y2984300D01*
X8991600D01*
X9245600D02*
Y2958900D01*
X9296400D01*
Y2984300D01*
X9321800D01*
Y3035100D01*
X9296400D01*
Y3060500D01*
X9245600D01*
Y3035100D01*
X9220200D01*
Y2984300D01*
X9245600D01*
X9499600D02*
Y2958900D01*
X9550400D01*
Y2984300D01*
X9575800D01*
Y3035100D01*
X9550400D01*
Y3060500D01*
X9499600D01*
Y3035100D01*
X9474200D01*
Y2984300D01*
X9499600D01*
X9753600D02*
Y2958900D01*
X9804400D01*
Y2984300D01*
X9829800D01*
Y3035100D01*
X9804400D01*
Y3060500D01*
X9753600D01*
Y3035100D01*
X9728200D01*
Y2984300D01*
X9753600D01*
X9066200Y2384900D02*
X9091600Y2435700D01*
X9066200Y2486500D01*
X9117000Y2461100D01*
X9167800Y2486500D01*
X9142400Y2435700D01*
X9167800Y2384900D01*
X9117000Y2410300D01*
X9066200Y2384900D01*
Y2184900D02*
X9091600Y2235700D01*
X9066200Y2286500D01*
X9117000Y2261100D01*
X9167800Y2286500D01*
X9142400Y2235700D01*
X9167800Y2184900D01*
X9117000Y2210300D01*
X9066200Y2184900D01*
X8866200Y2384900D02*
X8891600Y2435700D01*
X8866200Y2486500D01*
X8917000Y2461100D01*
X8967800Y2486500D01*
X8942400Y2435700D01*
X8967800Y2384900D01*
X8917000Y2410300D01*
X8866200Y2384900D01*
Y2184900D02*
X8891600Y2235700D01*
X8866200Y2286500D01*
X8917000Y2261100D01*
X8967800Y2286500D01*
X8942400Y2235700D01*
X8967800Y2184900D01*
X8917000Y2210300D01*
X8866200Y2184900D01*
X9066200Y1984900D02*
X9091600Y2035700D01*
X9066200Y2086500D01*
X9117000Y2061100D01*
X9167800Y2086500D01*
X9142400Y2035700D01*
X9167800Y1984900D01*
X9117000Y2010300D01*
X9066200Y1984900D01*
X8866200D02*
X8891600Y2035700D01*
X8866200Y2086500D01*
X8917000Y2061100D01*
X8967800Y2086500D01*
X8942400Y2035700D01*
X8967800Y1984900D01*
X8917000Y2010300D01*
X8866200Y1984900D01*
X6858000Y1739900D02*
X6883400Y1765300D01*
X6908800D01*
X6883400Y1790700D01*
X6908800Y1816100D01*
X6883400D01*
X6858000Y1841500D01*
X6832600Y1816100D01*
X6807200D01*
X6832600Y1790700D01*
X6807200Y1765300D01*
X6832600D01*
X6858000Y1739900D01*
X5842000Y2247900D02*
X5867400Y2273300D01*
X5892800D01*
X5867400Y2298700D01*
X5892800Y2324100D01*
X5867400D01*
X5842000Y2349500D01*
X5816600Y2324100D01*
X5791200D01*
X5816600Y2298700D01*
X5791200Y2273300D01*
X5816600D01*
X5842000Y2247900D01*
X10160000Y1993900D02*
X10185400Y2019300D01*
X10210800D01*
X10185400Y2044700D01*
X10210800Y2070100D01*
X10185400D01*
X10160000Y2095500D01*
X10134600Y2070100D01*
X10109200D01*
X10134600Y2044700D01*
X10109200Y2019300D01*
X10134600D01*
X10160000Y1993900D01*
X5842000D02*
X5867400Y2019300D01*
X5892800D01*
X5867400Y2044700D01*
X5892800Y2070100D01*
X5867400D01*
X5842000Y2095500D01*
X5816600Y2070100D01*
X5791200D01*
X5816600Y2044700D01*
X5791200Y2019300D01*
X5816600D01*
X5842000Y1993900D01*
Y2501900D02*
X5867400Y2527300D01*
X5892800D01*
X5867400Y2552700D01*
X5892800Y2578100D01*
X5867400D01*
X5842000Y2603500D01*
X5816600Y2578100D01*
X5791200D01*
X5816600Y2552700D01*
X5791200Y2527300D01*
X5816600D01*
X5842000Y2501900D01*
Y2755900D02*
X5867400Y2781300D01*
X5892800D01*
X5867400Y2806700D01*
X5892800Y2832100D01*
X5867400D01*
X5842000Y2857500D01*
X5816600Y2832100D01*
X5791200D01*
X5816600Y2806700D01*
X5791200Y2781300D01*
X5816600D01*
X5842000Y2755900D01*
Y3009900D02*
X5867400Y3035300D01*
X5892800D01*
X5867400Y3060700D01*
X5892800Y3086100D01*
X5867400D01*
X5842000Y3111500D01*
X5816600Y3086100D01*
X5791200D01*
X5816600Y3060700D01*
X5791200Y3035300D01*
X5816600D01*
X5842000Y3009900D01*
X10160000Y3263900D02*
X10185400Y3289300D01*
X10210800D01*
X10185400Y3314700D01*
X10210800Y3340100D01*
X10185400D01*
X10160000Y3365500D01*
X10134600Y3340100D01*
X10109200D01*
X10134600Y3314700D01*
X10109200Y3289300D01*
X10134600D01*
X10160000Y3263900D01*
X10414000D02*
X10439400Y3289300D01*
X10464800D01*
X10439400Y3314700D01*
X10464800Y3340100D01*
X10439400D01*
X10414000Y3365500D01*
X10388600Y3340100D01*
X10363200D01*
X10388600Y3314700D01*
X10363200Y3289300D01*
X10388600D01*
X10414000Y3263900D01*
X8077200Y4064000D02*
X8102600D01*
X8128000Y4089400D01*
X8153400Y4064000D01*
X8178800D01*
Y4089400D01*
X8153400Y4114800D01*
X8178800Y4140200D01*
Y4165600D01*
X8153400D01*
X8128000Y4140200D01*
X8102600Y4165600D01*
X8077200D01*
Y4140200D01*
X8102600Y4114800D01*
X8077200Y4089400D01*
Y4064000D01*
Y3810000D02*
X8102600D01*
X8128000Y3835400D01*
X8153400Y3810000D01*
X8178800D01*
Y3835400D01*
X8153400Y3860800D01*
X8178800Y3886200D01*
Y3911600D01*
X8153400D01*
X8128000Y3886200D01*
X8102600Y3911600D01*
X8077200D01*
Y3886200D01*
X8102600Y3860800D01*
X8077200Y3835400D01*
Y3810000D01*
X9474200Y3556000D02*
X9499600D01*
X9525000Y3581400D01*
X9550400Y3556000D01*
X9575800D01*
Y3581400D01*
X9550400Y3606800D01*
X9575800Y3632200D01*
Y3657600D01*
X9550400D01*
X9525000Y3632200D01*
X9499600Y3657600D01*
X9474200D01*
Y3632200D01*
X9499600Y3606800D01*
X9474200Y3581400D01*
Y3556000D01*
Y3810000D02*
X9499600D01*
X9525000Y3835400D01*
X9550400Y3810000D01*
X9575800D01*
Y3835400D01*
X9550400Y3860800D01*
X9575800Y3886200D01*
Y3911600D01*
X9550400D01*
X9525000Y3886200D01*
X9499600Y3911600D01*
X9474200D01*
Y3886200D01*
X9499600Y3860800D01*
X9474200Y3835400D01*
Y3810000D01*
Y4064000D02*
X9499600D01*
X9525000Y4089400D01*
X9550400Y4064000D01*
X9575800D01*
Y4089400D01*
X9550400Y4114800D01*
X9575800Y4140200D01*
Y4165600D01*
X9550400D01*
X9525000Y4140200D01*
X9499600Y4165600D01*
X9474200D01*
Y4140200D01*
X9499600Y4114800D01*
X9474200Y4089400D01*
Y4064000D01*
Y4318000D02*
X9499600D01*
X9525000Y4343400D01*
X9550400Y4318000D01*
X9575800D01*
Y4343400D01*
X9550400Y4368800D01*
X9575800Y4394200D01*
Y4419600D01*
X9550400D01*
X9525000Y4394200D01*
X9499600Y4419600D01*
X9474200D01*
Y4394200D01*
X9499600Y4368800D01*
X9474200Y4343400D01*
Y4318000D01*
X3568700Y571500D02*
X3517900Y673100D01*
X3619500D01*
X3568700Y571500D01*
X3818700D02*
X3767900Y673100D01*
X3869500D01*
X3818700Y571500D01*
X4068700D02*
X4017900Y673100D01*
X4119500D01*
X4068700Y571500D01*
X4318700D02*
X4267900Y673100D01*
X4369500D01*
X4318700Y571500D01*
D45*
X1651400Y2814700D02*
G03*
X1651400Y2814700I-50800J0D01*
G01*
Y1924700D02*
G03*
X1651400Y1924700I-50800J0D01*
G01*
X2286400Y2814700D02*
G03*
X2286400Y2814700I-50800J0D01*
G01*
Y2369700D02*
G03*
X2286400Y2369700I-50800J0D01*
G01*
Y1924700D02*
G03*
X2286400Y1924700I-50800J0D01*
G01*
X1651400Y2369700D02*
G03*
X1651400Y2369700I-50800J0D01*
G01*
%TF.MD5,7a58c19ff92af20c3dce92b2a72cd5f6*%
M02*
