%TF.GenerationSoftware,Altium Limited,Altium Designer,25.2.1 (25)*%
G04 Layer_Color=0*
%FSLAX45Y45*%
%MOMM*%
%TF.SameCoordinates,E14999F2-3F76-4230-806F-2BB8C5B8D12E*%
%TF.FilePolarity,Positive*%
%TF.FileFunction,Plated,1,2,PTH,Drill*%
%TF.Part,Single*%
G01*
G75*
%TA.AperFunction,OtherDrill,Pad Free-2 (104.14mm,44.45mm)*%
%ADD62C,3.00000*%
%TA.AperFunction,OtherDrill,Pad Free-3 (104.14mm,5.08mm)*%
%ADD63C,3.00000*%
%TA.AperFunction,OtherDrill,Pad Free-3 (19.05mm,5.08mm)*%
%ADD64C,3.00000*%
%TA.AperFunction,OtherDrill,Pad Free-2 (19.05mm,44.45mm)*%
%ADD65C,3.00000*%
%TA.AperFunction,ComponentDrill*%
%ADD66C,0.80000*%
%ADD67C,0.70000*%
%ADD68C,0.75000*%
%ADD69C,1.76000*%
%ADD70C,0.76200*%
%ADD71C,0.90000*%
%TA.AperFunction,ViaDrill,NotFilled*%
%ADD72C,0.71120*%
D62*
X10414000Y4445000D02*
D03*
D63*
Y508000D02*
D03*
D64*
X1905000D02*
D03*
D65*
Y4445000D02*
D03*
D66*
X10394950Y3581400D02*
D03*
X10140950D02*
D03*
X5822950Y3327400D02*
D03*
Y3073400D02*
D03*
Y2819400D02*
D03*
Y2311400D02*
D03*
X10140950D02*
D03*
X5822950Y2565400D02*
D03*
X6838950Y2057400D02*
D03*
X9886950Y3581400D02*
D03*
X9632950D02*
D03*
X9378950D02*
D03*
X9124950D02*
D03*
X8870950D02*
D03*
X8616950D02*
D03*
X8362950D02*
D03*
X8108950D02*
D03*
X7854950D02*
D03*
X7600950D02*
D03*
X7346950D02*
D03*
X7092950D02*
D03*
X6838950D02*
D03*
X7092950Y2057400D02*
D03*
X7346950D02*
D03*
X7600950D02*
D03*
X7854950D02*
D03*
X8108950D02*
D03*
X8362950D02*
D03*
X8616950D02*
D03*
X8870950D02*
D03*
X9124950D02*
D03*
X9378950D02*
D03*
X9632950D02*
D03*
X9886950D02*
D03*
X10140950D02*
D03*
X10394950D02*
D03*
X6584950Y3581400D02*
D03*
X6330950D02*
D03*
X6076950D02*
D03*
X5822950D02*
D03*
X5568950D02*
D03*
X5314950D02*
D03*
X5060950D02*
D03*
X4806950D02*
D03*
X4552950D02*
D03*
Y2057400D02*
D03*
X4806950D02*
D03*
X5060950D02*
D03*
X5314950D02*
D03*
X5568950D02*
D03*
X5822950D02*
D03*
X6076950D02*
D03*
X6330950D02*
D03*
X6584950D02*
D03*
D67*
X8897950Y2302400D02*
D03*
X9097950D02*
D03*
X8897950Y2502400D02*
D03*
Y2702400D02*
D03*
X9097950Y2502400D02*
D03*
Y2702400D02*
D03*
D68*
X9759950Y3276400D02*
D03*
X9505950D02*
D03*
X9251950D02*
D03*
X8997950D02*
D03*
X8743950D02*
D03*
D69*
X1581550Y2636400D02*
D03*
X2216550Y2191400D02*
D03*
Y2636400D02*
D03*
Y3081400D02*
D03*
X1581550Y2191400D02*
D03*
Y3081400D02*
D03*
D70*
X8591550Y1054100D02*
D03*
Y1308100D02*
D03*
X7194550Y1562100D02*
D03*
Y1308100D02*
D03*
Y1054100D02*
D03*
Y800100D02*
D03*
X8108950Y4381500D02*
D03*
Y4127500D02*
D03*
X9505950Y3873500D02*
D03*
Y4127500D02*
D03*
Y4381500D02*
D03*
Y4635500D02*
D03*
D71*
X3054350Y673100D02*
D03*
Y923100D02*
D03*
Y1173100D02*
D03*
Y1423100D02*
D03*
D72*
X4565650Y3873500D02*
D03*
X8712200Y4381500D02*
D03*
X3657600Y4064000D02*
D03*
X3403600Y4051300D02*
D03*
X4083050Y2755900D02*
D03*
X3917950Y3924300D02*
D03*
X4768850Y1562100D02*
D03*
%TF.MD5,261851167ea5553ab7065545f557f82b*%
M02*
