%TF.GenerationSoftware,Altium Limited,Altium Designer,25.2.1 (25)*%
G04 Layer_Color=65535*
%FSLAX45Y45*%
%MOMM*%
%TF.SameCoordinates,E14999F2-3F76-4230-806F-2BB8C5B8D12E*%
%TF.FilePolarity,Positive*%
%TF.FileFunction,Legend,Top*%
%TF.Part,Single*%
G01*
G75*
%TA.AperFunction,NonConductor*%
%ADD35C,0.25000*%
%ADD36C,0.20000*%
%ADD37C,0.50000*%
%ADD38C,0.12700*%
%ADD39C,0.15240*%
%ADD40C,0.25400*%
G36*
X5879559Y1794426D02*
X5910207D01*
Y1792723D01*
X5911910D01*
Y1794426D01*
X5913613D01*
Y1792723D01*
X5935748D01*
Y1791021D01*
X5951072D01*
Y1789318D01*
X5962990D01*
Y1787615D01*
X5973206D01*
Y1785913D01*
X5986828D01*
Y1784210D01*
X5997044D01*
Y1782507D01*
X6007260D01*
Y1780804D01*
X6014071D01*
Y1779102D01*
X6020882D01*
Y1777399D01*
X6031098D01*
Y1775696D01*
X6037908D01*
Y1773994D01*
X6046422D01*
Y1772291D01*
X6051530D01*
Y1770589D01*
X6056638D01*
Y1768886D01*
X6065151D01*
Y1767183D01*
X6071962D01*
Y1765480D01*
X6077070D01*
Y1763778D01*
X6082178D01*
Y1762075D01*
X6088989D01*
Y1760372D01*
X6094097D01*
Y1758670D01*
X6099205D01*
Y1756967D01*
X6104313D01*
Y1755264D01*
X6107718D01*
Y1753562D01*
X6114529D01*
Y1751859D01*
X6119637D01*
Y1750156D01*
X6124745D01*
Y1748454D01*
X6128151D01*
Y1746751D01*
X6131556D01*
Y1745048D01*
X6136664D01*
Y1743346D01*
X6141772D01*
Y1741643D01*
X6146880D01*
Y1739940D01*
X6148583D01*
Y1738238D01*
X6153691D01*
Y1736535D01*
X6157096D01*
Y1734832D01*
X6162204D01*
Y1733129D01*
X6165609D01*
Y1731427D01*
X6169015D01*
Y1729724D01*
X6172420D01*
Y1728021D01*
X6177528D01*
Y1726319D01*
X6180934D01*
Y1724616D01*
X6182636D01*
Y1722913D01*
X6186042D01*
Y1721211D01*
X6191150D01*
Y1719508D01*
X6194555D01*
Y1717805D01*
X6197960D01*
Y1716103D01*
X6199663D01*
Y1714400D01*
X6203069D01*
Y1712697D01*
X6206474D01*
Y1710995D01*
X6209879D01*
Y1709292D01*
X6213285D01*
Y1707589D01*
X6214987D01*
Y1705887D01*
X6218393D01*
Y1704184D01*
X6221798D01*
Y1702481D01*
X6225203D01*
Y1700778D01*
X6226906D01*
Y1699076D01*
X6230311D01*
Y1697373D01*
X6232014D01*
Y1695670D01*
X6235420D01*
Y1693968D01*
X6238825D01*
Y1692265D01*
X6240528D01*
Y1690563D01*
X6242230D01*
Y1688860D01*
X6245636D01*
Y1687157D01*
X6247338D01*
Y1685454D01*
X6250744D01*
Y1683752D01*
X6252446D01*
Y1682049D01*
X6254149D01*
Y1680346D01*
X6257554D01*
Y1678644D01*
X6260960D01*
Y1676941D01*
X6262662D01*
Y1675238D01*
X6264365D01*
Y1673536D01*
X6266068D01*
Y1671833D01*
X6269473D01*
Y1670130D01*
X6271176D01*
Y1668427D01*
X6272878D01*
Y1666725D01*
X6274581D01*
Y1665022D01*
X6277986D01*
Y1663320D01*
X6279689D01*
Y1661617D01*
X6281392D01*
Y1659914D01*
X6283095D01*
Y1658212D01*
X6284797D01*
Y1656509D01*
X6288203D01*
Y1654806D01*
X6289905D01*
Y1653103D01*
X6291608D01*
Y1651401D01*
X6293311D01*
Y1649698D01*
X6295013D01*
Y1647995D01*
X6296716D01*
Y1646293D01*
X6298419D01*
Y1644590D01*
X6300122D01*
Y1642887D01*
X6301824D01*
Y1641185D01*
X6303527D01*
Y1639482D01*
X6305229D01*
Y1637779D01*
X6306932D01*
Y1636077D01*
X6308635D01*
Y1634374D01*
X6310337D01*
Y1632671D01*
X6312040D01*
Y1630969D01*
X6313743D01*
Y1629266D01*
X6315446D01*
Y1627563D01*
X6317148D01*
Y1625861D01*
X6318851D01*
Y1624158D01*
X6320554D01*
Y1622455D01*
X6322256D01*
Y1620752D01*
X6323959D01*
Y1619050D01*
X6325662D01*
Y1615644D01*
X6327364D01*
Y1613942D01*
X6329067D01*
Y1612239D01*
X6330770D01*
Y1610536D01*
X6332472D01*
Y1607131D01*
X6334175D01*
Y1605428D01*
X6335878D01*
Y1603726D01*
X6337580D01*
Y1600320D01*
X6339283D01*
Y1598618D01*
X6340986D01*
Y1596915D01*
X6342688D01*
Y1593510D01*
X6344391D01*
Y1591807D01*
X6346094D01*
Y1590104D01*
X6347797D01*
Y1586699D01*
X6349499D01*
Y1584996D01*
X6351202D01*
Y1581591D01*
X6352904D01*
Y1578186D01*
X6354607D01*
Y1574780D01*
X6356310D01*
Y1573077D01*
X6358013D01*
Y1569672D01*
X6359715D01*
Y1566267D01*
X6361418D01*
Y1562861D01*
X6363121D01*
Y1559456D01*
X6364823D01*
Y1556050D01*
X6366526D01*
Y1552645D01*
X6368229D01*
Y1547537D01*
X6369931D01*
Y1544132D01*
X6371634D01*
Y1540726D01*
X6373337D01*
Y1535618D01*
X6375039D01*
Y1530510D01*
X6376742D01*
Y1523700D01*
X6378445D01*
Y1518592D01*
X6380148D01*
Y1511781D01*
X6381850D01*
Y1504970D01*
X6383553D01*
Y1494754D01*
X6385255D01*
Y1477727D01*
X6386958D01*
Y1447079D01*
X6385255D01*
Y1430052D01*
X6383553D01*
Y1419836D01*
X6381850D01*
Y1411323D01*
X6380148D01*
Y1406215D01*
X6378445D01*
Y1401107D01*
X6376742D01*
Y1394296D01*
X6375039D01*
Y1389188D01*
X6373337D01*
Y1384080D01*
X6371634D01*
Y1380674D01*
X6369931D01*
Y1377269D01*
X6368229D01*
Y1372161D01*
X6366526D01*
Y1368756D01*
X6364823D01*
Y1365350D01*
X6363121D01*
Y1361945D01*
X6361418D01*
Y1358540D01*
X6359715D01*
Y1355134D01*
X6358013D01*
Y1351729D01*
X6356310D01*
Y1350026D01*
X6354607D01*
Y1346621D01*
X6352904D01*
Y1343215D01*
X6351202D01*
Y1341513D01*
X6349499D01*
Y1338107D01*
X6347797D01*
Y1334702D01*
X6346094D01*
Y1332999D01*
X6344391D01*
Y1331297D01*
X6342688D01*
Y1327891D01*
X6340986D01*
Y1326189D01*
X6339283D01*
Y1324486D01*
X6337580D01*
Y1321081D01*
X6335878D01*
Y1319378D01*
X6334175D01*
Y1317675D01*
X6332472D01*
Y1314270D01*
X6330770D01*
Y1312567D01*
X6329067D01*
Y1310865D01*
X6327364D01*
Y1309162D01*
X6325662D01*
Y1305756D01*
X6323959D01*
Y1304054D01*
X6322256D01*
Y1302351D01*
X6320554D01*
Y1300648D01*
X6318851D01*
Y1298946D01*
X6317148D01*
Y1297243D01*
X6315446D01*
Y1295540D01*
X6313743D01*
Y1293838D01*
X6312040D01*
Y1292135D01*
X6310337D01*
Y1290432D01*
X6308635D01*
Y1288730D01*
X6306932D01*
Y1287027D01*
X6305229D01*
Y1285324D01*
X6303527D01*
Y1283622D01*
X6301824D01*
Y1281919D01*
X6300122D01*
Y1280216D01*
X6298419D01*
Y1278514D01*
X6296716D01*
Y1276811D01*
X6295013D01*
Y1275108D01*
X6293311D01*
Y1273405D01*
X6291608D01*
Y1271703D01*
X6289905D01*
Y1270000D01*
X6286500D01*
Y1268297D01*
X6284797D01*
Y1266595D01*
X6283095D01*
Y1264892D01*
X6281392D01*
Y1263189D01*
X6279689D01*
Y1261487D01*
X6277986D01*
Y1259784D01*
X6274581D01*
Y1258081D01*
X6272878D01*
Y1256379D01*
X6271176D01*
Y1254676D01*
X6267771D01*
Y1252973D01*
X6266068D01*
Y1251271D01*
X6264365D01*
Y1249568D01*
X6262662D01*
Y1247865D01*
X6259257D01*
Y1246163D01*
X6257554D01*
Y1244460D01*
X6254149D01*
Y1242757D01*
X6252446D01*
Y1241054D01*
X6250744D01*
Y1239352D01*
X6247338D01*
Y1237649D01*
X6245636D01*
Y1235946D01*
X6242230D01*
Y1234244D01*
X6240528D01*
Y1232541D01*
X6237122D01*
Y1230839D01*
X6235420D01*
Y1229136D01*
X6232014D01*
Y1227433D01*
X6228609D01*
Y1225730D01*
X6226906D01*
Y1224028D01*
X6223501D01*
Y1222325D01*
X6220095D01*
Y1220622D01*
X6216690D01*
Y1218920D01*
X6214987D01*
Y1217217D01*
X6213285D01*
Y1215514D01*
X6209879D01*
Y1213812D01*
X6206474D01*
Y1212109D01*
X6203069D01*
Y1210406D01*
X6199663D01*
Y1208704D01*
X6196258D01*
Y1207001D01*
X6192852D01*
Y1205298D01*
X6189447D01*
Y1203596D01*
X6186042D01*
Y1201893D01*
X6182636D01*
Y1200190D01*
X6180934D01*
Y1198488D01*
X6175826D01*
Y1196785D01*
X6172420D01*
Y1195082D01*
X6169015D01*
Y1193379D01*
X6165609D01*
Y1191677D01*
X6162204D01*
Y1189974D01*
X6157096D01*
Y1188271D01*
X6151988D01*
Y1186569D01*
X6148583D01*
Y1184866D01*
X6145177D01*
Y1183163D01*
X6141772D01*
Y1181461D01*
X6136664D01*
Y1179758D01*
X6131556D01*
Y1178055D01*
X6128151D01*
Y1176353D01*
X6123043D01*
Y1174650D01*
X6119637D01*
Y1172947D01*
X6114529D01*
Y1171245D01*
X6107718D01*
Y1169542D01*
X6104313D01*
Y1167839D01*
X6099205D01*
Y1166137D01*
X6094097D01*
Y1164434D01*
X6087286D01*
Y1162731D01*
X6082178D01*
Y1161028D01*
X6077070D01*
Y1159326D01*
X6071962D01*
Y1157623D01*
X6065151D01*
Y1155920D01*
X6056638D01*
Y1154218D01*
X6051530D01*
Y1152515D01*
X6046422D01*
Y1150813D01*
X6037908D01*
Y1149110D01*
X6029395D01*
Y1147407D01*
X6020882D01*
Y1145704D01*
X6014071D01*
Y1144002D01*
X6005557D01*
Y1142299D01*
X5995341D01*
Y1140596D01*
X5983423D01*
Y1138894D01*
X5971504D01*
Y1137191D01*
X5962990D01*
Y1135488D01*
X5949369D01*
Y1133786D01*
X5934045D01*
Y1132083D01*
X5911910D01*
Y1130380D01*
X5879559D01*
Y1128677D01*
X5818263D01*
Y1130380D01*
X5816560D01*
Y1128677D01*
X5814857D01*
Y1130380D01*
X5785912D01*
Y1132083D01*
X5762074D01*
Y1133786D01*
X5746750D01*
Y1135488D01*
X5734831D01*
Y1137191D01*
X5724615D01*
Y1138894D01*
X5710994D01*
Y1140596D01*
X5700778D01*
Y1142299D01*
X5690561D01*
Y1144002D01*
X5682048D01*
Y1145704D01*
X5676940D01*
Y1147407D01*
X5666724D01*
Y1149110D01*
X5658210D01*
Y1150813D01*
X5651400D01*
Y1152515D01*
X5646292D01*
Y1154218D01*
X5639481D01*
Y1155920D01*
X5632670D01*
Y1157623D01*
X5625859D01*
Y1159326D01*
X5619049D01*
Y1161028D01*
X5613941D01*
Y1162731D01*
X5608833D01*
Y1164434D01*
X5602022D01*
Y1166137D01*
X5596914D01*
Y1167839D01*
X5591806D01*
Y1169542D01*
X5588401D01*
Y1171245D01*
X5583293D01*
Y1172947D01*
X5578184D01*
Y1174650D01*
X5573076D01*
Y1176353D01*
X5569671D01*
Y1178055D01*
X5564563D01*
Y1179758D01*
X5561158D01*
Y1181461D01*
X5556050D01*
Y1183163D01*
X5550942D01*
Y1184866D01*
X5547536D01*
Y1186569D01*
X5544131D01*
Y1188271D01*
X5540726D01*
Y1189974D01*
X5535618D01*
Y1191677D01*
X5532212D01*
Y1193379D01*
X5528807D01*
Y1195082D01*
X5525401D01*
Y1196785D01*
X5520293D01*
Y1198488D01*
X5516888D01*
Y1200190D01*
X5513482D01*
Y1201893D01*
X5510077D01*
Y1203596D01*
X5506672D01*
Y1205298D01*
X5503267D01*
Y1207001D01*
X5499861D01*
Y1208704D01*
X5498158D01*
Y1210406D01*
X5494753D01*
Y1212109D01*
X5491348D01*
Y1213812D01*
X5487942D01*
Y1215514D01*
X5484537D01*
Y1217217D01*
X5482834D01*
Y1218920D01*
X5479429D01*
Y1220622D01*
X5476024D01*
Y1222325D01*
X5472618D01*
Y1224028D01*
X5470916D01*
Y1225730D01*
X5467510D01*
Y1227433D01*
X5465807D01*
Y1229136D01*
X5462402D01*
Y1230839D01*
X5458997D01*
Y1232541D01*
X5457294D01*
Y1234244D01*
X5453889D01*
Y1235946D01*
X5452186D01*
Y1237649D01*
X5448781D01*
Y1239352D01*
X5447078D01*
Y1241054D01*
X5443673D01*
Y1242757D01*
X5441970D01*
Y1244460D01*
X5440267D01*
Y1246163D01*
X5436862D01*
Y1247865D01*
X5435159D01*
Y1249568D01*
X5433456D01*
Y1251271D01*
X5430051D01*
Y1252973D01*
X5428349D01*
Y1254676D01*
X5426646D01*
Y1256379D01*
X5423240D01*
Y1258081D01*
X5421538D01*
Y1259784D01*
X5419835D01*
Y1261487D01*
X5418132D01*
Y1263189D01*
X5414727D01*
Y1264892D01*
X5413024D01*
Y1266595D01*
X5411322D01*
Y1268297D01*
X5409619D01*
Y1270000D01*
X5407916D01*
Y1271703D01*
X5406214D01*
Y1273405D01*
X5404511D01*
Y1275108D01*
X5402808D01*
Y1276811D01*
X5399403D01*
Y1278514D01*
X5397700D01*
Y1280216D01*
X5395998D01*
Y1281919D01*
X5394295D01*
Y1285324D01*
X5390890D01*
Y1287027D01*
X5389187D01*
Y1288730D01*
X5387484D01*
Y1290432D01*
X5385781D01*
Y1292135D01*
X5384079D01*
Y1293838D01*
X5382376D01*
Y1295540D01*
X5380674D01*
Y1298946D01*
X5378971D01*
Y1300648D01*
X5377268D01*
Y1302351D01*
X5375565D01*
Y1304054D01*
X5373863D01*
Y1305756D01*
X5372160D01*
Y1307459D01*
X5370457D01*
Y1310865D01*
X5368755D01*
Y1312567D01*
X5367052D01*
Y1314270D01*
X5365349D01*
Y1315972D01*
X5363647D01*
Y1317675D01*
X5361944D01*
Y1321081D01*
X5360241D01*
Y1322783D01*
X5358539D01*
Y1324486D01*
X5356836D01*
Y1327891D01*
X5355133D01*
Y1329594D01*
X5353430D01*
Y1332999D01*
X5351728D01*
Y1334702D01*
X5350025D01*
Y1336405D01*
X5348323D01*
Y1339810D01*
X5346620D01*
Y1343215D01*
X5344917D01*
Y1344918D01*
X5343214D01*
Y1348323D01*
X5341512D01*
Y1350026D01*
X5339809D01*
Y1355134D01*
X5338106D01*
Y1358540D01*
X5336404D01*
Y1360242D01*
X5334701D01*
Y1363648D01*
X5332998D01*
Y1367053D01*
X5331296D01*
Y1372161D01*
X5329593D01*
Y1375566D01*
X5327890D01*
Y1378972D01*
X5326188D01*
Y1382377D01*
X5324485D01*
Y1387485D01*
X5322782D01*
Y1394296D01*
X5321080D01*
Y1397701D01*
X5319377D01*
Y1402809D01*
X5317674D01*
Y1409620D01*
X5315972D01*
Y1416431D01*
X5314269D01*
Y1424944D01*
X5312566D01*
Y1438566D01*
X5310863D01*
Y1486241D01*
X5312566D01*
Y1499862D01*
X5314269D01*
Y1508375D01*
X5315972D01*
Y1515186D01*
X5317674D01*
Y1521997D01*
X5319377D01*
Y1527105D01*
X5321080D01*
Y1532213D01*
X5322782D01*
Y1537321D01*
X5324485D01*
Y1542429D01*
X5326188D01*
Y1545835D01*
X5327890D01*
Y1549240D01*
X5329593D01*
Y1554348D01*
X5331296D01*
Y1557753D01*
X5332998D01*
Y1561159D01*
X5334701D01*
Y1564564D01*
X5336404D01*
Y1567969D01*
X5338106D01*
Y1571375D01*
X5339809D01*
Y1574780D01*
X5341512D01*
Y1576483D01*
X5343214D01*
Y1579888D01*
X5344917D01*
Y1583294D01*
X5346620D01*
Y1584996D01*
X5348323D01*
Y1588401D01*
X5350025D01*
Y1590104D01*
X5351728D01*
Y1591807D01*
X5353430D01*
Y1595212D01*
X5355133D01*
Y1598618D01*
X5356836D01*
Y1600320D01*
X5358539D01*
Y1602023D01*
X5360241D01*
Y1603726D01*
X5361944D01*
Y1607131D01*
X5363647D01*
Y1608834D01*
X5365349D01*
Y1612239D01*
X5367052D01*
Y1613942D01*
X5368755D01*
Y1615644D01*
X5370457D01*
Y1617347D01*
X5372160D01*
Y1619050D01*
X5373863D01*
Y1620752D01*
X5375565D01*
Y1622455D01*
X5377268D01*
Y1624158D01*
X5378971D01*
Y1627563D01*
X5380674D01*
Y1629266D01*
X5382376D01*
Y1630969D01*
X5384079D01*
Y1632671D01*
X5385781D01*
Y1634374D01*
X5387484D01*
Y1636077D01*
X5389187D01*
Y1637779D01*
X5390890D01*
Y1639482D01*
X5392592D01*
Y1641185D01*
X5394295D01*
Y1642887D01*
X5395998D01*
Y1644590D01*
X5397700D01*
Y1646293D01*
X5399403D01*
Y1647995D01*
X5402808D01*
Y1651401D01*
X5404511D01*
Y1653103D01*
X5406214D01*
Y1654806D01*
X5409619D01*
Y1656509D01*
X5411322D01*
Y1658212D01*
X5413024D01*
Y1659914D01*
X5414727D01*
Y1661617D01*
X5416430D01*
Y1663320D01*
X5419835D01*
Y1665022D01*
X5421538D01*
Y1666725D01*
X5423240D01*
Y1668427D01*
X5424943D01*
Y1670130D01*
X5428349D01*
Y1671833D01*
X5430051D01*
Y1673536D01*
X5431754D01*
Y1675238D01*
X5435159D01*
Y1676941D01*
X5436862D01*
Y1678644D01*
X5438565D01*
Y1680346D01*
X5441970D01*
Y1682049D01*
X5443673D01*
Y1683752D01*
X5445375D01*
Y1685454D01*
X5448781D01*
Y1687157D01*
X5452186D01*
Y1688860D01*
X5453889D01*
Y1690563D01*
X5457294D01*
Y1692265D01*
X5458997D01*
Y1693968D01*
X5460700D01*
Y1695670D01*
X5464105D01*
Y1697373D01*
X5467510D01*
Y1699076D01*
X5469213D01*
Y1700778D01*
X5472618D01*
Y1702481D01*
X5476024D01*
Y1704184D01*
X5479429D01*
Y1705887D01*
X5481132D01*
Y1707589D01*
X5484537D01*
Y1709292D01*
X5486240D01*
Y1710995D01*
X5489645D01*
Y1712697D01*
X5494753D01*
Y1714400D01*
X5496456D01*
Y1716103D01*
X5499861D01*
Y1717805D01*
X5503267D01*
Y1719508D01*
X5506672D01*
Y1721211D01*
X5510077D01*
Y1722913D01*
X5513482D01*
Y1724616D01*
X5516888D01*
Y1726319D01*
X5520293D01*
Y1728021D01*
X5523699D01*
Y1729724D01*
X5527104D01*
Y1731427D01*
X5530509D01*
Y1733129D01*
X5535618D01*
Y1734832D01*
X5539023D01*
Y1736535D01*
X5544131D01*
Y1738238D01*
X5547536D01*
Y1739940D01*
X5550942D01*
Y1741643D01*
X5556050D01*
Y1743346D01*
X5559455D01*
Y1745048D01*
X5564563D01*
Y1746751D01*
X5567968D01*
Y1748454D01*
X5573076D01*
Y1750156D01*
X5578184D01*
Y1751859D01*
X5583293D01*
Y1753562D01*
X5588401D01*
Y1755264D01*
X5591806D01*
Y1756967D01*
X5596914D01*
Y1758670D01*
X5603725D01*
Y1760372D01*
X5608833D01*
Y1762075D01*
X5613941D01*
Y1763778D01*
X5619049D01*
Y1765480D01*
X5625859D01*
Y1767183D01*
X5632670D01*
Y1768886D01*
X5639481D01*
Y1770589D01*
X5646292D01*
Y1772291D01*
X5651400D01*
Y1773994D01*
X5658210D01*
Y1775696D01*
X5666724D01*
Y1777399D01*
X5675237D01*
Y1779102D01*
X5682048D01*
Y1780804D01*
X5690561D01*
Y1782507D01*
X5699075D01*
Y1784210D01*
X5709291D01*
Y1785913D01*
X5722912D01*
Y1787615D01*
X5733128D01*
Y1789318D01*
X5745047D01*
Y1791021D01*
X5760372D01*
Y1792723D01*
X5779101D01*
Y1794426D01*
X5816560D01*
Y1796129D01*
X5879559D01*
Y1794426D01*
D02*
G37*
G36*
X5488517Y1011767D02*
X5516033D01*
Y1008709D01*
X5528263D01*
Y1005652D01*
X5537435D01*
Y1002594D01*
X5543550D01*
Y999537D01*
X5552722D01*
Y996480D01*
X5558837D01*
Y993422D01*
X5564952D01*
Y990365D01*
X5568009D01*
Y987307D01*
X5574124D01*
Y984250D01*
X5577181D01*
Y981193D01*
X5583296D01*
Y978135D01*
X5586354D01*
Y975078D01*
X5589411D01*
Y972020D01*
X5592468D01*
Y965906D01*
X5595526D01*
Y962848D01*
X5598583D01*
Y959791D01*
X5601641D01*
Y956733D01*
X5598583D01*
Y953676D01*
X5595526D01*
Y950619D01*
X5592468D01*
Y947561D01*
X5589411D01*
Y944504D01*
X5586354D01*
Y941446D01*
X5583296D01*
Y938389D01*
X5580239D01*
Y935332D01*
X5577181D01*
Y932274D01*
X5574124D01*
Y929217D01*
X5571067D01*
Y926159D01*
X5564952D01*
Y929217D01*
X5561894D01*
Y932274D01*
X5555780D01*
Y935332D01*
X5552722D01*
Y938389D01*
X5549665D01*
Y941446D01*
X5546607D01*
Y944504D01*
X5540493D01*
Y947561D01*
X5534378D01*
Y950619D01*
X5531320D01*
Y953676D01*
X5522148D01*
Y956733D01*
X5516033D01*
Y959791D01*
X5500746D01*
Y962848D01*
X5464057D01*
Y959791D01*
X5448770D01*
Y956733D01*
X5442656D01*
Y953676D01*
X5436541D01*
Y950619D01*
X5430426D01*
Y947561D01*
X5427368D01*
Y944504D01*
X5424311D01*
Y941446D01*
X5418196D01*
Y938389D01*
X5415139D01*
Y935332D01*
X5412081D01*
Y932274D01*
X5409024D01*
Y929217D01*
X5405967D01*
Y923102D01*
X5402909D01*
Y920044D01*
X5399852D01*
Y913930D01*
X5396794D01*
Y907815D01*
X5393737D01*
Y898643D01*
X5390680D01*
Y880298D01*
X5387622D01*
Y861954D01*
X5390680D01*
Y843609D01*
X5393737D01*
Y834437D01*
X5396794D01*
Y828322D01*
X5399852D01*
Y822207D01*
X5402909D01*
Y816093D01*
X5405967D01*
Y813035D01*
X5409024D01*
Y809978D01*
X5412081D01*
Y806920D01*
X5415139D01*
Y803863D01*
X5418196D01*
Y800806D01*
X5421254D01*
Y797748D01*
X5424311D01*
Y794691D01*
X5430426D01*
Y791633D01*
X5433483D01*
Y788576D01*
X5439598D01*
Y785519D01*
X5448770D01*
Y782461D01*
X5457943D01*
Y779404D01*
X5506861D01*
Y782461D01*
X5519091D01*
Y785519D01*
X5528263D01*
Y788576D01*
X5531320D01*
Y791633D01*
X5537435D01*
Y794691D01*
X5543550D01*
Y797748D01*
X5546607D01*
Y800806D01*
X5549665D01*
Y803863D01*
X5552722D01*
Y806920D01*
X5558837D01*
Y809978D01*
X5561894D01*
Y813035D01*
X5564952D01*
Y816093D01*
X5568009D01*
Y813035D01*
X5571067D01*
Y809978D01*
X5574124D01*
Y806920D01*
X5577181D01*
Y803863D01*
X5580239D01*
Y800806D01*
X5583296D01*
Y797748D01*
X5586354D01*
Y794691D01*
X5589411D01*
Y791633D01*
X5592468D01*
Y788576D01*
X5595526D01*
Y785519D01*
X5598583D01*
Y776346D01*
X5595526D01*
Y773289D01*
X5592468D01*
Y770232D01*
X5589411D01*
Y767174D01*
X5583296D01*
Y764117D01*
X5580239D01*
Y761059D01*
X5577181D01*
Y758002D01*
X5574124D01*
Y754944D01*
X5571067D01*
Y751887D01*
X5564952D01*
Y748830D01*
X5561894D01*
Y745772D01*
X5552722D01*
Y742715D01*
X5549665D01*
Y739657D01*
X5540493D01*
Y736600D01*
X5531320D01*
Y733543D01*
X5519091D01*
Y730485D01*
X5500746D01*
Y727428D01*
X5464057D01*
Y730485D01*
X5445713D01*
Y733543D01*
X5433483D01*
Y736600D01*
X5424311D01*
Y739657D01*
X5418196D01*
Y742715D01*
X5412081D01*
Y745772D01*
X5405967D01*
Y748830D01*
X5399852D01*
Y751887D01*
X5393737D01*
Y754944D01*
X5390680D01*
Y758002D01*
X5387622D01*
Y761059D01*
X5384565D01*
Y764117D01*
X5381507D01*
Y767174D01*
X5378450D01*
Y770232D01*
X5375393D01*
Y773289D01*
X5372335D01*
Y776346D01*
X5369278D01*
Y779404D01*
X5366220D01*
Y782461D01*
X5363163D01*
Y788576D01*
X5360106D01*
Y791633D01*
X5357048D01*
Y794691D01*
X5353991D01*
Y800806D01*
X5350933D01*
Y806920D01*
X5347876D01*
Y816093D01*
X5344818D01*
Y825265D01*
X5341761D01*
Y837494D01*
X5338704D01*
Y861954D01*
X5335646D01*
Y880298D01*
X5338704D01*
Y904757D01*
X5341761D01*
Y913930D01*
X5344818D01*
Y926159D01*
X5347876D01*
Y932274D01*
X5350933D01*
Y938389D01*
X5353991D01*
Y944504D01*
X5357048D01*
Y947561D01*
X5360106D01*
Y953676D01*
X5363163D01*
Y956733D01*
X5366220D01*
Y959791D01*
X5369278D01*
Y962848D01*
X5372335D01*
Y965906D01*
X5375393D01*
Y972020D01*
X5378450D01*
Y975078D01*
X5381507D01*
Y978135D01*
X5384565D01*
Y981193D01*
X5390680D01*
Y984250D01*
X5393737D01*
Y987307D01*
X5396794D01*
Y990365D01*
X5402909D01*
Y993422D01*
X5409024D01*
Y996480D01*
X5415139D01*
Y999537D01*
X5421254D01*
Y1002594D01*
X5430426D01*
Y1005652D01*
X5439598D01*
Y1008709D01*
X5448770D01*
Y1011767D01*
X5479344D01*
Y1014824D01*
X5488517D01*
Y1011767D01*
D02*
G37*
G36*
X6265098Y1014824D02*
X6262041D01*
Y1002594D01*
X6258983D01*
Y990365D01*
X6255926D01*
Y978135D01*
X6252868D01*
Y965906D01*
X6249811D01*
Y953676D01*
X6246754D01*
Y941446D01*
X6243696D01*
Y929217D01*
X6240639D01*
Y913930D01*
X6237581D01*
Y904757D01*
X6234524D01*
Y892528D01*
X6231467D01*
Y880298D01*
X6228409D01*
Y868069D01*
X6225352D01*
Y852782D01*
X6222294D01*
Y840552D01*
X6219237D01*
Y831380D01*
X6216180D01*
Y819150D01*
X6213122D01*
Y809978D01*
X6210065D01*
Y797748D01*
X6207007D01*
Y785519D01*
X6203950D01*
Y773289D01*
X6200893D01*
Y761059D01*
X6197835D01*
Y745772D01*
X6194778D01*
Y733543D01*
X6191720D01*
Y724370D01*
X6188663D01*
Y721313D01*
X6106113D01*
Y730485D01*
X6103056D01*
Y742715D01*
X6099998D01*
Y754944D01*
X6096941D01*
Y767174D01*
X6093883D01*
Y779404D01*
X6090826D01*
Y791633D01*
X6087768D01*
Y803863D01*
X6084711D01*
Y816093D01*
X6081654D01*
Y828322D01*
X6078596D01*
Y840552D01*
X6075539D01*
Y852782D01*
X6072481D01*
Y861954D01*
X6069424D01*
Y877241D01*
X6066367D01*
Y889470D01*
X6063309D01*
Y895585D01*
X6060252D01*
Y901700D01*
X6057194D01*
Y892528D01*
X6054137D01*
Y880298D01*
X6051080D01*
Y871126D01*
X6048022D01*
Y855839D01*
X6044965D01*
Y843609D01*
X6041907D01*
Y831380D01*
X6038850D01*
Y819150D01*
X6035793D01*
Y806920D01*
X6032735D01*
Y794691D01*
X6029678D01*
Y782461D01*
X6026620D01*
Y770232D01*
X6023563D01*
Y758002D01*
X6020506D01*
Y742715D01*
X6017448D01*
Y730485D01*
X6014391D01*
Y721313D01*
X5931841D01*
Y724370D01*
X5928783D01*
Y736600D01*
X5925726D01*
Y745772D01*
X5922668D01*
Y761059D01*
X5919611D01*
Y773289D01*
X5916554D01*
Y785519D01*
X5913496D01*
Y794691D01*
X5910439D01*
Y803863D01*
X5907381D01*
Y816093D01*
X5904324D01*
Y828322D01*
X5901267D01*
Y840552D01*
X5898209D01*
Y852782D01*
X5895152D01*
Y865011D01*
X5892094D01*
Y877241D01*
X5889037D01*
Y883356D01*
Y886413D01*
Y889470D01*
X5885980D01*
Y904757D01*
X5882922D01*
Y913930D01*
X5879865D01*
Y929217D01*
X5876807D01*
Y941446D01*
X5873750D01*
Y950619D01*
X5870693D01*
Y965906D01*
X5867635D01*
Y978135D01*
X5864578D01*
Y990365D01*
X5861520D01*
Y996480D01*
X5858463D01*
Y1008709D01*
X5855406D01*
Y1020939D01*
X5931841D01*
Y1017882D01*
X5934898D01*
Y1002594D01*
X5937956D01*
Y987307D01*
X5941013D01*
Y972020D01*
X5944070D01*
Y956733D01*
X5947128D01*
Y941446D01*
X5950185D01*
Y926159D01*
X5953243D01*
Y910872D01*
X5956300D01*
Y895585D01*
X5959357D01*
Y880298D01*
X5962415D01*
Y871126D01*
X5965472D01*
Y855839D01*
X5968530D01*
Y840552D01*
X5971587D01*
Y825265D01*
X5974644D01*
Y828322D01*
X5977702D01*
Y840552D01*
X5980759D01*
Y852782D01*
X5983817D01*
Y865011D01*
X5986874D01*
Y877241D01*
X5989931D01*
Y889470D01*
X5992989D01*
Y901700D01*
X5996046D01*
Y916987D01*
X5999104D01*
Y929217D01*
X6002161D01*
Y941446D01*
X6005218D01*
Y953676D01*
X6008276D01*
Y965906D01*
X6011333D01*
Y975078D01*
X6014391D01*
Y987307D01*
X6017448D01*
Y996480D01*
X6020506D01*
Y1008709D01*
X6023563D01*
Y1020939D01*
X6096941D01*
Y1017882D01*
X6099998D01*
Y1005652D01*
X6103056D01*
Y993422D01*
X6106113D01*
Y981193D01*
X6109170D01*
Y965906D01*
X6112228D01*
Y956733D01*
X6115285D01*
Y944504D01*
X6118343D01*
Y932274D01*
X6121400D01*
Y920044D01*
X6124457D01*
Y904757D01*
X6127515D01*
Y892528D01*
X6130572D01*
Y880298D01*
X6133630D01*
Y868069D01*
X6136687D01*
Y852782D01*
X6139744D01*
Y840552D01*
X6142802D01*
Y828322D01*
X6145859D01*
Y825265D01*
X6148917D01*
Y840552D01*
X6151974D01*
Y855839D01*
X6155031D01*
Y868069D01*
X6158089D01*
Y883356D01*
X6161146D01*
Y898643D01*
X6164204D01*
Y907815D01*
X6167261D01*
Y923102D01*
X6170318D01*
Y935332D01*
X6173376D01*
Y950619D01*
X6176433D01*
Y965906D01*
X6179491D01*
Y981193D01*
X6182548D01*
Y993422D01*
X6185606D01*
Y1008709D01*
X6188663D01*
Y1020939D01*
X6265098D01*
Y1014824D01*
D02*
G37*
G36*
X6693135Y938389D02*
X6690078D01*
Y929217D01*
X6687020D01*
Y920044D01*
X6683963D01*
Y910872D01*
X6680906D01*
Y901700D01*
X6677848D01*
Y895585D01*
X6674791D01*
Y886413D01*
X6671733D01*
Y877241D01*
X6668676D01*
Y871126D01*
X6665618D01*
Y861954D01*
X6662561D01*
Y855839D01*
X6659504D01*
Y846667D01*
X6656446D01*
Y837494D01*
X6653389D01*
Y828322D01*
X6650331D01*
Y822207D01*
X6647274D01*
Y813035D01*
X6644217D01*
Y803863D01*
X6641159D01*
Y794691D01*
X6638102D01*
Y785519D01*
X6635044D01*
Y779404D01*
X6631987D01*
Y770232D01*
X6628930D01*
Y761059D01*
X6625872D01*
Y751887D01*
X6622815D01*
Y745772D01*
X6619757D01*
Y736600D01*
X6616700D01*
Y730485D01*
X6613643D01*
Y724370D01*
X6610585D01*
Y715198D01*
X6607528D01*
Y706026D01*
X6604470D01*
Y696854D01*
X6601413D01*
Y687682D01*
X6598356D01*
Y681567D01*
X6595298D01*
Y669337D01*
X6613643D01*
Y666280D01*
X6638102D01*
Y663222D01*
X6662561D01*
Y660165D01*
X6690078D01*
Y657107D01*
X6717594D01*
Y654050D01*
X6714537D01*
Y650993D01*
X6711480D01*
Y647935D01*
X6699250D01*
Y650993D01*
X6665618D01*
Y654050D01*
X6641159D01*
Y657107D01*
X6607528D01*
Y660165D01*
X6604470D01*
Y657107D01*
X6598356D01*
Y660165D01*
X6589183D01*
Y657107D01*
X6586126D01*
Y644878D01*
X6583068D01*
Y638763D01*
X6506633D01*
Y644878D01*
X6509691D01*
Y654050D01*
X6512748D01*
Y660165D01*
X6515806D01*
Y666280D01*
X6497461D01*
Y669337D01*
X6457715D01*
Y672394D01*
X6424083D01*
Y675452D01*
X6384337D01*
Y678509D01*
X6323189D01*
Y681567D01*
X6228409D01*
Y684624D01*
X6148917D01*
Y681567D01*
X6038850D01*
Y678509D01*
X5959357D01*
Y675452D01*
X5913496D01*
Y672394D01*
X5873750D01*
Y669337D01*
X5824831D01*
Y666280D01*
X5788143D01*
Y663222D01*
X5757568D01*
Y660165D01*
X5723937D01*
Y657107D01*
X5687248D01*
Y654050D01*
X5671961D01*
Y650993D01*
X5647502D01*
Y647935D01*
X5616928D01*
Y644878D01*
X5589411D01*
Y641820D01*
X5571067D01*
Y638763D01*
X5543550D01*
Y635706D01*
X5516033D01*
Y632648D01*
X5497689D01*
Y629591D01*
X5476287D01*
Y626533D01*
X5451828D01*
Y623476D01*
X5433483D01*
Y620419D01*
X5415139D01*
Y617361D01*
X5393737D01*
Y614304D01*
X5372335D01*
Y611246D01*
X5353991D01*
Y608189D01*
X5335646D01*
Y605132D01*
X5314244D01*
Y602074D01*
X5295900D01*
Y599017D01*
X5286728D01*
Y595959D01*
X5265326D01*
Y592902D01*
X5246981D01*
Y589844D01*
X5231694D01*
Y586787D01*
X5213350D01*
Y583730D01*
X5195006D01*
Y580672D01*
X5179718D01*
Y577615D01*
X5167489D01*
Y574557D01*
X5146087D01*
Y571500D01*
X5130800D01*
Y568443D01*
X5115513D01*
Y565385D01*
X5094111D01*
Y562328D01*
X5081881D01*
Y559270D01*
X5069652D01*
Y568443D01*
X5072709D01*
Y583730D01*
X5075767D01*
Y595959D01*
X5078824D01*
Y599017D01*
X5084939D01*
Y602074D01*
X5100226D01*
Y605132D01*
X5115513D01*
Y608189D01*
X5136915D01*
Y611246D01*
X5152202D01*
Y614304D01*
X5167489D01*
Y617361D01*
X5188891D01*
Y620419D01*
X5210293D01*
Y623476D01*
X5225580D01*
Y626533D01*
X5246981D01*
Y629591D01*
X5268383D01*
Y632648D01*
X5286728D01*
Y635706D01*
X5305072D01*
Y638763D01*
X5329531D01*
Y641820D01*
X5350933D01*
Y644878D01*
X5372335D01*
Y647935D01*
X5393737D01*
Y650993D01*
X5412081D01*
Y654050D01*
X5433483D01*
Y657107D01*
X5457943D01*
Y660165D01*
X5488517D01*
Y663222D01*
X5509918D01*
Y666280D01*
X5512976D01*
Y663222D01*
X5516033D01*
Y666280D01*
X5537435D01*
Y669337D01*
X5574124D01*
Y672394D01*
X5604698D01*
Y675452D01*
X5635272D01*
Y678509D01*
X5665846D01*
Y681567D01*
X5708650D01*
Y684624D01*
X5748396D01*
Y687682D01*
X5788143D01*
Y690739D01*
X5846233D01*
Y693796D01*
X5907381D01*
Y696854D01*
X5999104D01*
Y699911D01*
X6173376D01*
Y696854D01*
X6252868D01*
Y693796D01*
X6255926D01*
Y696854D01*
X6262041D01*
Y693796D01*
X6326246D01*
Y690739D01*
X6381280D01*
Y687682D01*
X6417968D01*
Y684624D01*
X6451600D01*
Y681567D01*
X6494404D01*
Y678509D01*
X6521920D01*
Y681567D01*
X6524978D01*
Y690739D01*
X6528035D01*
Y699911D01*
X6531093D01*
Y706026D01*
X6534150D01*
Y715198D01*
X6537207D01*
Y721313D01*
X6540265D01*
Y730485D01*
X6537207D01*
Y739657D01*
X6534150D01*
Y745772D01*
X6531093D01*
Y754944D01*
X6528035D01*
Y764117D01*
X6524978D01*
Y773289D01*
X6521920D01*
Y779404D01*
X6518863D01*
Y788576D01*
X6515806D01*
Y794691D01*
X6512748D01*
Y803863D01*
X6509691D01*
Y809978D01*
X6506633D01*
Y819150D01*
X6503576D01*
Y828322D01*
X6500518D01*
Y837494D01*
X6497461D01*
Y843609D01*
X6494404D01*
Y852782D01*
X6491346D01*
Y858896D01*
X6488289D01*
Y868069D01*
X6485231D01*
Y877241D01*
X6482174D01*
Y886413D01*
X6479117D01*
Y892528D01*
X6476059D01*
Y901700D01*
X6473002D01*
Y910872D01*
X6469944D01*
Y920044D01*
X6466887D01*
Y926159D01*
X6463830D01*
Y932274D01*
X6460772D01*
Y941446D01*
X6457715D01*
Y947561D01*
X6531093D01*
Y944504D01*
X6534150D01*
Y935332D01*
X6537207D01*
Y926159D01*
X6540265D01*
Y913930D01*
X6543322D01*
Y904757D01*
X6546380D01*
Y895585D01*
X6549437D01*
Y886413D01*
X6552494D01*
Y877241D01*
X6555552D01*
Y868069D01*
X6558609D01*
Y858896D01*
X6561667D01*
Y849724D01*
X6564724D01*
Y840552D01*
X6567781D01*
Y834437D01*
X6570839D01*
Y825265D01*
X6573896D01*
Y816093D01*
X6576954D01*
Y809978D01*
X6580011D01*
Y813035D01*
X6583068D01*
Y825265D01*
X6586126D01*
Y834437D01*
X6589183D01*
Y843609D01*
X6592241D01*
Y852782D01*
X6595298D01*
Y861954D01*
X6598356D01*
Y874183D01*
X6601413D01*
Y883356D01*
X6604470D01*
Y892528D01*
X6607528D01*
Y901700D01*
X6610585D01*
Y913930D01*
X6613643D01*
Y923102D01*
X6616700D01*
Y932274D01*
X6619757D01*
Y938389D01*
X6622815D01*
Y947561D01*
X6693135D01*
Y938389D01*
D02*
G37*
G36*
X6375165Y950619D02*
X6396567D01*
Y947561D01*
X6408796D01*
Y944504D01*
X6417968D01*
Y941446D01*
X6424083D01*
Y938389D01*
X6430198D01*
Y935332D01*
X6433256D01*
Y932274D01*
X6439370D01*
Y929217D01*
X6442428D01*
Y926159D01*
X6445485D01*
Y923102D01*
X6448543D01*
Y916987D01*
X6451600D01*
Y910872D01*
X6454657D01*
Y901700D01*
X6457715D01*
Y886413D01*
X6460772D01*
Y721313D01*
X6390452D01*
Y727428D01*
Y730485D01*
Y742715D01*
X6387394D01*
Y739657D01*
X6381280D01*
Y736600D01*
X6378222D01*
Y733543D01*
X6375165D01*
Y730485D01*
X6369050D01*
Y727428D01*
X6362935D01*
Y724370D01*
X6356820D01*
Y721313D01*
X6350706D01*
Y718256D01*
X6338476D01*
Y715198D01*
X6304844D01*
Y718256D01*
X6292615D01*
Y721313D01*
X6286500D01*
Y724370D01*
X6280385D01*
Y727428D01*
X6277328D01*
Y730485D01*
X6274270D01*
Y733543D01*
X6268156D01*
Y736600D01*
X6265098D01*
Y739657D01*
X6262041D01*
Y745772D01*
X6258983D01*
Y748830D01*
X6255926D01*
Y754944D01*
X6252868D01*
Y767174D01*
X6249811D01*
Y806920D01*
X6252868D01*
Y819150D01*
X6255926D01*
Y825265D01*
X6258983D01*
Y828322D01*
X6262041D01*
Y834437D01*
X6268156D01*
Y837494D01*
X6271213D01*
Y840552D01*
X6274270D01*
Y843609D01*
X6277328D01*
Y846667D01*
X6283443D01*
Y849724D01*
X6289557D01*
Y852782D01*
X6295672D01*
Y855839D01*
X6304844D01*
Y858896D01*
X6317074D01*
Y861954D01*
X6332361D01*
Y865011D01*
X6350706D01*
Y868069D01*
X6384337D01*
Y871126D01*
X6390452D01*
Y883356D01*
X6387394D01*
Y889470D01*
X6384337D01*
Y892528D01*
X6381280D01*
Y895585D01*
X6378222D01*
Y898643D01*
X6369050D01*
Y901700D01*
X6347648D01*
Y904757D01*
X6329304D01*
Y901700D01*
X6310959D01*
Y898643D01*
X6298730D01*
Y895585D01*
X6289557D01*
Y892528D01*
X6280385D01*
Y889470D01*
X6274270D01*
Y886413D01*
X6271213D01*
Y889470D01*
X6268156D01*
Y941446D01*
X6271213D01*
Y944504D01*
X6283443D01*
Y947561D01*
X6301787D01*
Y950619D01*
X6326246D01*
Y953676D01*
X6375165D01*
Y950619D01*
D02*
G37*
G36*
X5736167Y1017882D02*
X5775913D01*
Y1014824D01*
X5788143D01*
Y1011767D01*
X5797315D01*
Y1008709D01*
X5803430D01*
Y1005652D01*
X5806487D01*
Y1002594D01*
X5812602D01*
Y999537D01*
X5815659D01*
Y996480D01*
X5818717D01*
Y993422D01*
X5821774D01*
Y990365D01*
X5824831D01*
Y987307D01*
X5827889D01*
Y981193D01*
X5830946D01*
Y972020D01*
X5834004D01*
Y956733D01*
X5837061D01*
Y944504D01*
X5834004D01*
Y929217D01*
X5830946D01*
Y920044D01*
X5827889D01*
Y913930D01*
X5824831D01*
Y907815D01*
X5821774D01*
Y904757D01*
X5818717D01*
Y901700D01*
X5815659D01*
Y898643D01*
X5812602D01*
Y895585D01*
X5806487D01*
Y892528D01*
X5803430D01*
Y889470D01*
X5797315D01*
Y883356D01*
X5806487D01*
Y880298D01*
X5815659D01*
Y877241D01*
X5821774D01*
Y874183D01*
X5824831D01*
Y871126D01*
X5830946D01*
Y868069D01*
X5834004D01*
Y865011D01*
X5837061D01*
Y861954D01*
X5840118D01*
Y855839D01*
X5843176D01*
Y852782D01*
X5846233D01*
Y843609D01*
X5849291D01*
Y776346D01*
X5846233D01*
Y770232D01*
X5843176D01*
Y764117D01*
X5840118D01*
Y761059D01*
X5837061D01*
Y754944D01*
X5834004D01*
Y751887D01*
X5830946D01*
Y748830D01*
X5827889D01*
Y745772D01*
X5824831D01*
Y742715D01*
X5818717D01*
Y739657D01*
X5815659D01*
Y736600D01*
X5809544D01*
Y733543D01*
X5803430D01*
Y730485D01*
X5794257D01*
Y727428D01*
X5785085D01*
Y724370D01*
X5769798D01*
Y721313D01*
X5616928D01*
Y1017882D01*
X5619985D01*
Y1020939D01*
X5736167D01*
Y1017882D01*
D02*
G37*
G36*
X5253096Y1011767D02*
X5268383D01*
Y1008709D01*
X5277556D01*
Y1005652D01*
X5283670D01*
Y1002594D01*
X5289785D01*
Y999537D01*
X5292843D01*
Y996480D01*
X5295900D01*
Y993422D01*
X5298957D01*
Y990365D01*
X5302015D01*
Y987307D01*
X5305072D01*
Y984250D01*
X5308130D01*
Y981193D01*
X5311187D01*
Y978135D01*
X5314244D01*
Y972020D01*
X5317302D01*
Y962848D01*
X5320359D01*
Y953676D01*
X5323417D01*
Y935332D01*
X5326474D01*
Y913930D01*
X5323417D01*
Y895585D01*
X5320359D01*
Y886413D01*
X5317302D01*
Y880298D01*
X5314244D01*
Y874183D01*
X5311187D01*
Y871126D01*
X5308130D01*
Y865011D01*
X5305072D01*
Y861954D01*
X5302015D01*
Y858896D01*
X5298957D01*
Y855839D01*
X5295900D01*
Y852782D01*
X5289785D01*
Y849724D01*
X5286728D01*
Y846667D01*
X5280613D01*
Y843609D01*
X5274498D01*
Y840552D01*
X5268383D01*
Y837494D01*
X5256154D01*
Y834437D01*
X5216407D01*
Y831380D01*
X5158317D01*
Y721313D01*
X5100226D01*
Y739657D01*
Y742715D01*
Y1014824D01*
X5253096D01*
Y1011767D01*
D02*
G37*
%LPC*%
G36*
X5797830Y1726319D02*
X5784209D01*
Y1724616D01*
X5763777D01*
Y1722913D01*
X5753561D01*
Y1721211D01*
X5738236D01*
Y1719508D01*
X5729723D01*
Y1717805D01*
X5721210D01*
Y1716103D01*
X5710994D01*
Y1714400D01*
X5702480D01*
Y1712697D01*
X5692264D01*
Y1710995D01*
X5685453D01*
Y1709292D01*
X5678643D01*
Y1707589D01*
X5670129D01*
Y1705887D01*
X5665021D01*
Y1704184D01*
X5658210D01*
Y1702481D01*
X5653102D01*
Y1700778D01*
X5646292D01*
Y1699076D01*
X5641184D01*
Y1697373D01*
X5632670D01*
Y1695670D01*
X5629265D01*
Y1693968D01*
X5624157D01*
Y1692265D01*
X5619049D01*
Y1690563D01*
X5613941D01*
Y1688860D01*
X5608833D01*
Y1687157D01*
X5603725D01*
Y1685454D01*
X5600319D01*
Y1683752D01*
X5596914D01*
Y1682049D01*
X5591806D01*
Y1680346D01*
X5586698D01*
Y1678644D01*
X5583293D01*
Y1676941D01*
X5579887D01*
Y1675238D01*
X5574779D01*
Y1673536D01*
X5573076D01*
Y1671833D01*
X5567968D01*
Y1670130D01*
X5564563D01*
Y1668427D01*
X5561158D01*
Y1666725D01*
X5557752D01*
Y1665022D01*
X5552644D01*
Y1663320D01*
X5549239D01*
Y1661617D01*
X5547536D01*
Y1659914D01*
X5544131D01*
Y1658212D01*
X5540726D01*
Y1656509D01*
X5537320D01*
Y1654806D01*
X5535618D01*
Y1653103D01*
X5532212D01*
Y1651401D01*
X5530509D01*
Y1649698D01*
X5527104D01*
Y1647995D01*
X5523699D01*
Y1646293D01*
X5520293D01*
Y1644590D01*
X5518591D01*
Y1642887D01*
X5516888D01*
Y1641185D01*
X5513482D01*
Y1639482D01*
X5510077D01*
Y1637779D01*
X5508375D01*
Y1636077D01*
X5506672D01*
Y1634374D01*
X5504969D01*
Y1632671D01*
X5499861D01*
Y1630969D01*
X5498158D01*
Y1629266D01*
X5496456D01*
Y1627563D01*
X5494753D01*
Y1625861D01*
X5491348D01*
Y1624158D01*
X5489645D01*
Y1622455D01*
X5487942D01*
Y1620752D01*
X5486240D01*
Y1619050D01*
X5484537D01*
Y1615644D01*
X5486240D01*
Y1613942D01*
X5487942D01*
Y1612239D01*
X5489645D01*
Y1610536D01*
X5491348D01*
Y1607131D01*
X5493050D01*
Y1605428D01*
X5494753D01*
Y1603726D01*
X5496456D01*
Y1600320D01*
X5498158D01*
Y1598618D01*
X5499861D01*
Y1596915D01*
X5501564D01*
Y1595212D01*
X5503267D01*
Y1593510D01*
X5504969D01*
Y1591807D01*
X5506672D01*
Y1590104D01*
X5508375D01*
Y1586699D01*
X5510077D01*
Y1583294D01*
X5513482D01*
Y1579888D01*
X5515185D01*
Y1578186D01*
X5516888D01*
Y1574780D01*
X5518591D01*
Y1573077D01*
X5520293D01*
Y1571375D01*
X5521996D01*
Y1569672D01*
X5523699D01*
Y1567969D01*
X5525401D01*
Y1564564D01*
X5530509D01*
Y1566267D01*
X5532212D01*
Y1567969D01*
X5535618D01*
Y1569672D01*
X5537320D01*
Y1571375D01*
X5539023D01*
Y1573077D01*
X5542428D01*
Y1574780D01*
X5545833D01*
Y1576483D01*
X5547536D01*
Y1578186D01*
X5550942D01*
Y1579888D01*
X5552644D01*
Y1581591D01*
X5556050D01*
Y1583294D01*
X5557752D01*
Y1584996D01*
X5561158D01*
Y1586699D01*
X5564563D01*
Y1588401D01*
X5567968D01*
Y1590104D01*
X5569671D01*
Y1591807D01*
X5573076D01*
Y1593510D01*
X5578184D01*
Y1595212D01*
X5579887D01*
Y1596915D01*
X5584995D01*
Y1595212D01*
X5586698D01*
Y1593510D01*
X5588401D01*
Y1591807D01*
X5590103D01*
Y1590104D01*
X5591806D01*
Y1586699D01*
X5593508D01*
Y1584996D01*
X5595211D01*
Y1583294D01*
X5596914D01*
Y1579888D01*
X5598617D01*
Y1578186D01*
X5600319D01*
Y1576483D01*
X5602022D01*
Y1574780D01*
X5603725D01*
Y1573077D01*
X5605427D01*
Y1571375D01*
X5607130D01*
Y1567969D01*
X5608833D01*
Y1566267D01*
X5610535D01*
Y1564564D01*
X5612238D01*
Y1562861D01*
X5613941D01*
Y1561159D01*
X5615644D01*
Y1559456D01*
X5617346D01*
Y1557753D01*
X5619049D01*
Y1556050D01*
X5620752D01*
Y1552645D01*
X5622454D01*
Y1550943D01*
X5624157D01*
Y1549240D01*
X5625859D01*
Y1547537D01*
X5627562D01*
Y1544132D01*
X5629265D01*
Y1542429D01*
X5630968D01*
Y1540726D01*
X5632670D01*
Y1537321D01*
X5636076D01*
Y1535618D01*
X5637778D01*
Y1532213D01*
X5639481D01*
Y1530510D01*
X5641184D01*
Y1527105D01*
X5644589D01*
Y1525402D01*
X5646292D01*
Y1521997D01*
X5647995D01*
Y1520294D01*
X5649697D01*
Y1518592D01*
X5651400D01*
Y1516889D01*
X5653102D01*
Y1515186D01*
X5654805D01*
Y1511781D01*
X5656508D01*
Y1510078D01*
X5658210D01*
Y1508375D01*
X5659913D01*
Y1506673D01*
X5661616D01*
Y1504970D01*
X5663319D01*
Y1503268D01*
X5665021D01*
Y1501565D01*
X5666724D01*
Y1498159D01*
X5668427D01*
Y1496457D01*
X5670129D01*
Y1494754D01*
X5671832D01*
Y1491349D01*
X5673535D01*
Y1489646D01*
X5675237D01*
Y1487943D01*
X5676940D01*
Y1486241D01*
X5678643D01*
Y1484538D01*
X5680345D01*
Y1481133D01*
X5682048D01*
Y1479430D01*
X5683751D01*
Y1477727D01*
X5685453D01*
Y1476024D01*
X5687156D01*
Y1474322D01*
X5688859D01*
Y1472619D01*
X5690561D01*
Y1470917D01*
X5692264D01*
Y1469214D01*
X5693967D01*
Y1467511D01*
X5695670D01*
Y1464106D01*
X5697372D01*
Y1462403D01*
X5699075D01*
Y1460700D01*
X5700778D01*
Y1458998D01*
X5702480D01*
Y1457295D01*
X5704183D01*
Y1453890D01*
X5705886D01*
Y1452187D01*
X5707588D01*
Y1450484D01*
X5709291D01*
Y1448782D01*
X5710994D01*
Y1447079D01*
X5712696D01*
Y1443674D01*
X5714399D01*
Y1441971D01*
X5716102D01*
Y1440268D01*
X5717804D01*
Y1438566D01*
X5719507D01*
Y1436863D01*
X5721210D01*
Y1433458D01*
X5722912D01*
Y1431755D01*
X5724615D01*
Y1430052D01*
X5726318D01*
Y1428349D01*
X5728021D01*
Y1424944D01*
X5729723D01*
Y1423242D01*
X5731426D01*
Y1421539D01*
X5733128D01*
Y1419836D01*
X5734831D01*
Y1418133D01*
X5736534D01*
Y1416431D01*
X5738236D01*
Y1414728D01*
X5739939D01*
Y1411323D01*
X5741642D01*
Y1409620D01*
X5743345D01*
Y1407917D01*
X5745047D01*
Y1406215D01*
X5746750D01*
Y1404512D01*
X5748453D01*
Y1402809D01*
X5750155D01*
Y1401107D01*
X5751858D01*
Y1397701D01*
X5753561D01*
Y1395998D01*
X5755263D01*
Y1394296D01*
X5756966D01*
Y1392593D01*
X5758669D01*
Y1390891D01*
X5760372D01*
Y1387485D01*
X5762074D01*
Y1385782D01*
X5763777D01*
Y1384080D01*
X5765479D01*
Y1382377D01*
X5767182D01*
Y1380674D01*
X5768885D01*
Y1278514D01*
X5756966D01*
Y1280216D01*
X5739939D01*
Y1281919D01*
X5728021D01*
Y1283622D01*
X5710994D01*
Y1285324D01*
X5705886D01*
Y1281919D01*
X5704183D01*
Y1268297D01*
X5702480D01*
Y1261487D01*
X5700778D01*
Y1256379D01*
X5699075D01*
Y1249568D01*
X5697372D01*
Y1237649D01*
X5695670D01*
Y1227433D01*
X5693967D01*
Y1220622D01*
X5692264D01*
Y1215514D01*
X5695670D01*
Y1213812D01*
X5702480D01*
Y1212109D01*
X5710994D01*
Y1210406D01*
X5719507D01*
Y1208704D01*
X5729723D01*
Y1207001D01*
X5738236D01*
Y1205298D01*
X5745047D01*
Y1203596D01*
X5767182D01*
Y1201893D01*
X5779101D01*
Y1200190D01*
X5806344D01*
Y1198488D01*
X5891478D01*
Y1200190D01*
X5922126D01*
Y1201893D01*
X5937450D01*
Y1203596D01*
X5957882D01*
Y1205298D01*
X5966396D01*
Y1207001D01*
X5974909D01*
Y1208704D01*
X5986828D01*
Y1210406D01*
X5995341D01*
Y1212109D01*
X6008963D01*
Y1213812D01*
X6010666D01*
Y1224028D01*
X6008963D01*
Y1234244D01*
X6007260D01*
Y1242757D01*
X6005557D01*
Y1247865D01*
X6003855D01*
Y1254676D01*
X6002152D01*
Y1264892D01*
X6000450D01*
Y1273405D01*
X5998747D01*
Y1278514D01*
X5997044D01*
Y1285324D01*
X5980017D01*
Y1283622D01*
X5964693D01*
Y1281919D01*
X5954477D01*
Y1280216D01*
X5934045D01*
Y1278514D01*
X5927234D01*
Y1375566D01*
X5928937D01*
Y1378972D01*
X5930640D01*
Y1380674D01*
X5932342D01*
Y1382377D01*
X5934045D01*
Y1384080D01*
X5935748D01*
Y1385782D01*
X5937450D01*
Y1389188D01*
X5939153D01*
Y1390891D01*
X5940856D01*
Y1392593D01*
X5942558D01*
Y1394296D01*
X5944261D01*
Y1395998D01*
X5945964D01*
Y1397701D01*
X5947666D01*
Y1401107D01*
X5949369D01*
Y1402809D01*
X5951072D01*
Y1404512D01*
X5952774D01*
Y1406215D01*
X5954477D01*
Y1409620D01*
X5956180D01*
Y1411323D01*
X5957882D01*
Y1413025D01*
X5959585D01*
Y1414728D01*
X5961288D01*
Y1416431D01*
X5962990D01*
Y1418133D01*
X5964693D01*
Y1421539D01*
X5968099D01*
Y1424944D01*
X5969801D01*
Y1426647D01*
X5971504D01*
Y1428349D01*
X5973206D01*
Y1430052D01*
X5974909D01*
Y1431755D01*
X5976612D01*
Y1433458D01*
X5978315D01*
Y1436863D01*
X5980017D01*
Y1438566D01*
X5981720D01*
Y1440268D01*
X5983423D01*
Y1441971D01*
X5985125D01*
Y1443674D01*
X5986828D01*
Y1447079D01*
X5988531D01*
Y1448782D01*
X5990233D01*
Y1450484D01*
X5991936D01*
Y1452187D01*
X5993639D01*
Y1453890D01*
X5995341D01*
Y1457295D01*
X5997044D01*
Y1458998D01*
X5998747D01*
Y1460700D01*
X6000450D01*
Y1462403D01*
X6002152D01*
Y1464106D01*
X6003855D01*
Y1465809D01*
X6005557D01*
Y1469214D01*
X6007260D01*
Y1470917D01*
X6008963D01*
Y1472619D01*
X6010666D01*
Y1474322D01*
X6012368D01*
Y1476024D01*
X6014071D01*
Y1477727D01*
X6015774D01*
Y1479430D01*
X6017476D01*
Y1481133D01*
X6019179D01*
Y1484538D01*
X6020882D01*
Y1486241D01*
X6022584D01*
Y1487943D01*
X6024287D01*
Y1489646D01*
X6025990D01*
Y1491349D01*
X6027692D01*
Y1494754D01*
X6029395D01*
Y1496457D01*
X6031098D01*
Y1498159D01*
X6032800D01*
Y1499862D01*
X6034503D01*
Y1503268D01*
X6036206D01*
Y1504970D01*
X6037908D01*
Y1506673D01*
X6039611D01*
Y1508375D01*
X6041314D01*
Y1510078D01*
X6043017D01*
Y1511781D01*
X6044719D01*
Y1515186D01*
X6046422D01*
Y1516889D01*
X6048125D01*
Y1518592D01*
X6049827D01*
Y1520294D01*
X6051530D01*
Y1521997D01*
X6053232D01*
Y1523700D01*
X6054935D01*
Y1525402D01*
X6056638D01*
Y1527105D01*
X6058341D01*
Y1528808D01*
X6060043D01*
Y1532213D01*
X6061746D01*
Y1533916D01*
X6063449D01*
Y1535618D01*
X6065151D01*
Y1537321D01*
X6066854D01*
Y1540726D01*
X6068557D01*
Y1542429D01*
X6071962D01*
Y1545835D01*
X6073665D01*
Y1547537D01*
X6075368D01*
Y1550943D01*
X6078773D01*
Y1552645D01*
X6080476D01*
Y1556050D01*
X6082178D01*
Y1557753D01*
X6083881D01*
Y1559456D01*
X6085583D01*
Y1561159D01*
X6087286D01*
Y1564564D01*
X6088989D01*
Y1566267D01*
X6090692D01*
Y1567969D01*
X6092394D01*
Y1569672D01*
X6094097D01*
Y1571375D01*
X6095800D01*
Y1574780D01*
X6099205D01*
Y1576483D01*
X6100908D01*
Y1579888D01*
X6102610D01*
Y1581591D01*
X6104313D01*
Y1583294D01*
X6106016D01*
Y1584996D01*
X6107718D01*
Y1588401D01*
X6112826D01*
Y1586699D01*
X6114529D01*
Y1584996D01*
X6117934D01*
Y1583294D01*
X6119637D01*
Y1581591D01*
X6123043D01*
Y1579888D01*
X6124745D01*
Y1578186D01*
X6126448D01*
Y1576483D01*
X6129853D01*
Y1574780D01*
X6133258D01*
Y1573077D01*
X6134961D01*
Y1571375D01*
X6138367D01*
Y1569672D01*
X6140069D01*
Y1567969D01*
X6143475D01*
Y1566267D01*
X6145177D01*
Y1564564D01*
X6148583D01*
Y1561159D01*
X6151988D01*
Y1559456D01*
X6155394D01*
Y1557753D01*
X6157096D01*
Y1556050D01*
X6158799D01*
Y1554348D01*
X6160502D01*
Y1552645D01*
X6162204D01*
Y1550943D01*
X6167312D01*
Y1552645D01*
X6169015D01*
Y1554348D01*
X6170718D01*
Y1556050D01*
X6172420D01*
Y1559456D01*
X6174123D01*
Y1561159D01*
X6175826D01*
Y1562861D01*
X6177528D01*
Y1566267D01*
X6179231D01*
Y1567969D01*
X6180934D01*
Y1569672D01*
X6182636D01*
Y1573077D01*
X6184339D01*
Y1574780D01*
X6187745D01*
Y1578186D01*
X6189447D01*
Y1581591D01*
X6191150D01*
Y1583294D01*
X6192852D01*
Y1584996D01*
X6194555D01*
Y1586699D01*
X6196258D01*
Y1588401D01*
X6197960D01*
Y1590104D01*
X6199663D01*
Y1593510D01*
X6201366D01*
Y1595212D01*
X6203069D01*
Y1596915D01*
X6204771D01*
Y1598618D01*
X6206474D01*
Y1600320D01*
X6208177D01*
Y1602023D01*
X6209879D01*
Y1605428D01*
X6211582D01*
Y1608834D01*
X6209879D01*
Y1610536D01*
X6208177D01*
Y1612239D01*
X6206474D01*
Y1613942D01*
X6204771D01*
Y1615644D01*
X6201366D01*
Y1617347D01*
X6199663D01*
Y1619050D01*
X6197960D01*
Y1620752D01*
X6196258D01*
Y1622455D01*
X6194555D01*
Y1624158D01*
X6191150D01*
Y1625861D01*
X6189447D01*
Y1627563D01*
X6187745D01*
Y1629266D01*
X6186042D01*
Y1630969D01*
X6182636D01*
Y1632671D01*
X6180934D01*
Y1634374D01*
X6177528D01*
Y1636077D01*
X6175826D01*
Y1637779D01*
X6174123D01*
Y1639482D01*
X6169015D01*
Y1641185D01*
X6167312D01*
Y1642887D01*
X6165609D01*
Y1644590D01*
X6162204D01*
Y1646293D01*
X6160502D01*
Y1647995D01*
X6157096D01*
Y1649698D01*
X6155394D01*
Y1651401D01*
X6151988D01*
Y1653103D01*
X6148583D01*
Y1654806D01*
X6146880D01*
Y1656509D01*
X6143475D01*
Y1658212D01*
X6140069D01*
Y1659914D01*
X6136664D01*
Y1661617D01*
X6134961D01*
Y1663320D01*
X6131556D01*
Y1665022D01*
X6126448D01*
Y1666725D01*
X6123043D01*
Y1668427D01*
X6121340D01*
Y1670130D01*
X6117934D01*
Y1671833D01*
X6112826D01*
Y1673536D01*
X6109421D01*
Y1675238D01*
X6106016D01*
Y1676941D01*
X6102610D01*
Y1678644D01*
X6100908D01*
Y1680346D01*
X6094097D01*
Y1682049D01*
X6092394D01*
Y1683752D01*
X6085583D01*
Y1685454D01*
X6082178D01*
Y1687157D01*
X6080476D01*
Y1688860D01*
X6071962D01*
Y1690563D01*
X6066854D01*
Y1692265D01*
X6061746D01*
Y1693968D01*
X6058341D01*
Y1695670D01*
X6054935D01*
Y1697373D01*
X6046422D01*
Y1699076D01*
X6039611D01*
Y1700778D01*
X6032800D01*
Y1702481D01*
X6027692D01*
Y1704184D01*
X6017476D01*
Y1705887D01*
X6010666D01*
Y1707589D01*
X5998747D01*
Y1709292D01*
X5990233D01*
Y1710995D01*
X5976612D01*
Y1712697D01*
X5974909D01*
Y1710995D01*
X5973206D01*
Y1702481D01*
X5971504D01*
Y1683752D01*
X5969801D01*
Y1671833D01*
X5968099D01*
Y1665022D01*
X5966396D01*
Y1654806D01*
X5964693D01*
Y1647995D01*
X5962990D01*
Y1636077D01*
X5966396D01*
Y1634374D01*
X5971504D01*
Y1632671D01*
X5981720D01*
Y1630969D01*
X5988531D01*
Y1629266D01*
X5997044D01*
Y1627563D01*
X6003855D01*
Y1625861D01*
X6008963D01*
Y1624158D01*
X6020882D01*
Y1620752D01*
X6019179D01*
Y1617347D01*
X6017476D01*
Y1615644D01*
X6015774D01*
Y1613942D01*
X6014071D01*
Y1612239D01*
X6012368D01*
Y1610536D01*
X6010666D01*
Y1608834D01*
X6008963D01*
Y1607131D01*
X6007260D01*
Y1603726D01*
X6005557D01*
Y1602023D01*
X6003855D01*
Y1600320D01*
X6002152D01*
Y1596915D01*
X6000450D01*
Y1595212D01*
X5997044D01*
Y1591807D01*
X5995341D01*
Y1590104D01*
X5993639D01*
Y1588401D01*
X5991936D01*
Y1586699D01*
X5990233D01*
Y1584996D01*
X5988531D01*
Y1581591D01*
X5986828D01*
Y1579888D01*
X5985125D01*
Y1576483D01*
X5983423D01*
Y1574780D01*
X5980017D01*
Y1573077D01*
X5978315D01*
Y1569672D01*
X5976612D01*
Y1567969D01*
X5974909D01*
Y1566267D01*
X5973206D01*
Y1564564D01*
X5971504D01*
Y1562861D01*
X5969801D01*
Y1559456D01*
X5968099D01*
Y1557753D01*
X5966396D01*
Y1556050D01*
X5964693D01*
Y1554348D01*
X5962990D01*
Y1550943D01*
X5961288D01*
Y1549240D01*
X5959585D01*
Y1547537D01*
X5957882D01*
Y1545835D01*
X5956180D01*
Y1544132D01*
X5954477D01*
Y1540726D01*
X5952774D01*
Y1539024D01*
X5951072D01*
Y1537321D01*
X5949369D01*
Y1535618D01*
X5947666D01*
Y1533916D01*
X5945964D01*
Y1530510D01*
X5944261D01*
Y1528808D01*
X5942558D01*
Y1527105D01*
X5939153D01*
Y1523700D01*
X5937450D01*
Y1521997D01*
X5935748D01*
Y1518592D01*
X5934045D01*
Y1516889D01*
X5932342D01*
Y1515186D01*
X5930640D01*
Y1513484D01*
X5928937D01*
Y1511781D01*
X5927234D01*
Y1508375D01*
X5925531D01*
Y1506673D01*
X5923829D01*
Y1504970D01*
X5922126D01*
Y1503268D01*
X5920424D01*
Y1499862D01*
X5918721D01*
Y1498159D01*
X5917018D01*
Y1496457D01*
X5915315D01*
Y1494754D01*
X5913613D01*
Y1493051D01*
X5911910D01*
Y1489646D01*
X5908505D01*
Y1486241D01*
X5906802D01*
Y1484538D01*
X5905099D01*
Y1482835D01*
X5903397D01*
Y1479430D01*
X5901694D01*
Y1477727D01*
X5898289D01*
Y1474322D01*
X5896586D01*
Y1470917D01*
X5893180D01*
Y1469214D01*
X5891478D01*
Y1465809D01*
X5889775D01*
Y1464106D01*
X5886370D01*
Y1465809D01*
X5884667D01*
Y1467511D01*
X5882964D01*
Y1469214D01*
X5881262D01*
Y1470917D01*
X5879559D01*
Y1472619D01*
X5877856D01*
Y1474322D01*
X5876154D01*
Y1476024D01*
X5874451D01*
Y1477727D01*
X5872748D01*
Y1481133D01*
X5871046D01*
Y1482835D01*
X5869343D01*
Y1484538D01*
X5867640D01*
Y1486241D01*
X5865938D01*
Y1487943D01*
X5864235D01*
Y1491349D01*
X5862532D01*
Y1493051D01*
X5860830D01*
Y1494754D01*
X5859127D01*
Y1496457D01*
X5857424D01*
Y1499862D01*
X5855722D01*
Y1501565D01*
X5854019D01*
Y1503268D01*
X5850613D01*
Y1506673D01*
X5848911D01*
Y1510078D01*
X5845505D01*
Y1511781D01*
X5843803D01*
Y1513484D01*
X5842100D01*
Y1516889D01*
X5840398D01*
Y1518592D01*
X5838695D01*
Y1520294D01*
X5836992D01*
Y1521997D01*
X5835289D01*
Y1523700D01*
X5833587D01*
Y1525402D01*
X5831884D01*
Y1528808D01*
X5830181D01*
Y1530510D01*
X5828479D01*
Y1532213D01*
X5826776D01*
Y1533916D01*
X5825073D01*
Y1535618D01*
X5823371D01*
Y1537321D01*
X5821668D01*
Y1539024D01*
X5819965D01*
Y1540726D01*
X5818263D01*
Y1542429D01*
X5816560D01*
Y1545835D01*
X5814857D01*
Y1547537D01*
X5813154D01*
Y1549240D01*
X5811452D01*
Y1550943D01*
X5809749D01*
Y1552645D01*
X5808047D01*
Y1556050D01*
X5806344D01*
Y1557753D01*
X5804641D01*
Y1559456D01*
X5802938D01*
Y1561159D01*
X5801236D01*
Y1562861D01*
X5799533D01*
Y1566267D01*
X5797830D01*
Y1567969D01*
X5796128D01*
Y1569672D01*
X5794425D01*
Y1571375D01*
X5792722D01*
Y1573077D01*
X5791020D01*
Y1574780D01*
X5789317D01*
Y1576483D01*
X5787614D01*
Y1578186D01*
X5785912D01*
Y1579888D01*
X5784209D01*
Y1583294D01*
X5782506D01*
Y1584996D01*
X5780804D01*
Y1586699D01*
X5779101D01*
Y1588401D01*
X5777398D01*
Y1590104D01*
X5775696D01*
Y1593510D01*
X5773993D01*
Y1595212D01*
X5772290D01*
Y1596915D01*
X5770587D01*
Y1598618D01*
X5768885D01*
Y1600320D01*
X5767182D01*
Y1603726D01*
X5765479D01*
Y1605428D01*
X5763777D01*
Y1607131D01*
X5762074D01*
Y1608834D01*
X5760372D01*
Y1610536D01*
X5758669D01*
Y1613942D01*
X5756966D01*
Y1615644D01*
X5755263D01*
Y1617347D01*
X5753561D01*
Y1619050D01*
X5751858D01*
Y1620752D01*
X5750155D01*
Y1624158D01*
X5748453D01*
Y1625861D01*
X5746750D01*
Y1627563D01*
X5745047D01*
Y1629266D01*
X5743345D01*
Y1630969D01*
X5741642D01*
Y1632671D01*
X5739939D01*
Y1634374D01*
X5738236D01*
Y1636077D01*
X5736534D01*
Y1637779D01*
X5734831D01*
Y1642887D01*
X5741642D01*
Y1644590D01*
X5753561D01*
Y1646293D01*
X5767182D01*
Y1647995D01*
X5784209D01*
Y1649698D01*
X5797830D01*
Y1651401D01*
X5801236D01*
Y1658212D01*
X5799533D01*
Y1712697D01*
X5797830D01*
Y1726319D01*
D02*
G37*
G36*
X6390452Y828322D02*
X6384337D01*
Y825265D01*
X6356820D01*
Y822207D01*
X6344591D01*
Y819150D01*
X6335418D01*
Y816093D01*
X6332361D01*
Y813035D01*
X6329304D01*
Y809978D01*
X6326246D01*
Y806920D01*
X6323189D01*
Y800806D01*
X6320131D01*
Y782461D01*
X6323189D01*
Y776346D01*
X6326246D01*
Y770232D01*
X6332361D01*
Y767174D01*
X6341533D01*
Y764117D01*
X6362935D01*
Y767174D01*
X6375165D01*
Y770232D01*
X6378222D01*
Y773289D01*
X6384337D01*
Y776346D01*
X6387394D01*
Y779404D01*
X6390452D01*
Y828322D01*
D02*
G37*
G36*
X5730052Y965906D02*
X5693363D01*
Y962848D01*
X5690306D01*
Y901700D01*
X5736167D01*
Y904757D01*
X5745339D01*
Y907815D01*
X5748396D01*
Y910872D01*
X5751454D01*
Y913930D01*
X5754511D01*
Y920044D01*
X5757568D01*
Y932274D01*
X5760626D01*
Y938389D01*
X5757568D01*
Y947561D01*
X5754511D01*
Y953676D01*
X5751454D01*
Y956733D01*
X5748396D01*
Y959791D01*
X5742281D01*
Y962848D01*
X5730052D01*
Y965906D01*
D02*
G37*
G36*
X5751454Y849724D02*
X5690306D01*
Y776346D01*
X5748396D01*
Y779404D01*
X5757568D01*
Y782461D01*
X5763683D01*
Y785519D01*
X5769798D01*
Y788576D01*
X5772856D01*
Y794691D01*
X5775913D01*
Y803863D01*
X5778970D01*
Y825265D01*
X5775913D01*
Y834437D01*
X5772856D01*
Y837494D01*
X5769798D01*
Y840552D01*
X5766741D01*
Y843609D01*
X5760626D01*
Y846667D01*
X5751454D01*
Y849724D01*
D02*
G37*
G36*
X5228637Y965906D02*
X5158317D01*
Y883356D01*
X5228637D01*
Y886413D01*
X5240867D01*
Y889470D01*
X5246981D01*
Y892528D01*
X5250039D01*
Y895585D01*
X5253096D01*
Y898643D01*
X5256154D01*
Y901700D01*
X5259211D01*
Y907815D01*
X5262268D01*
Y916987D01*
X5265326D01*
Y920044D01*
Y932274D01*
X5262268D01*
Y941446D01*
X5259211D01*
Y947561D01*
X5256154D01*
Y950619D01*
X5253096D01*
Y953676D01*
X5250039D01*
Y956733D01*
X5243924D01*
Y959791D01*
X5237809D01*
Y962848D01*
X5228637D01*
Y965906D01*
D02*
G37*
%LPD*%
D35*
X4236750Y3842100D02*
G03*
X4236750Y3842100I-12500J0D01*
G01*
X3064350Y345600D02*
G03*
X3064350Y345600I-12500J0D01*
G01*
D36*
X9896950Y3769400D02*
G03*
X9896950Y3769400I-10000J0D01*
G01*
X4324250Y2032100D02*
Y3632100D01*
X2724250Y2032100D02*
X2736750D01*
X2911750D02*
X2936750D01*
X3111750D02*
X3136750D01*
X3311750D02*
X3336750D01*
X3511750D02*
X3536750D01*
X3711750D02*
X3736750D01*
X3911750D02*
X3936750D01*
X4111750D02*
X4136750D01*
X4311750D02*
X4324250D01*
X2724250D02*
Y3632100D01*
X2736750D01*
X2911750D02*
X2936750D01*
X3111750D02*
X3136750D01*
X3311750D02*
X3336750D01*
X3511750D02*
X3536750D01*
X3711750D02*
X3736750D01*
X3911750D02*
X3936750D01*
X4111750D02*
X4136750D01*
X4311750D02*
X4324250D01*
X3374350Y423100D02*
Y1673100D01*
X2734350Y423100D02*
X3374350D01*
X2734350D02*
Y1673100D01*
X3374350D01*
D37*
X2642550Y3144400D02*
G03*
X2642550Y3144400I-25000J0D01*
G01*
D38*
X4425950Y1930400D02*
X10521950D01*
X4425950D02*
Y3708400D01*
X10521950D01*
Y3222400D02*
X10591950D01*
X10521950Y2416400D02*
X10591950D01*
Y3222400D01*
X10521950D02*
Y3708400D01*
Y1930400D02*
Y2416400D01*
D39*
X1501550Y343400D02*
Y1142900D01*
X31550Y343400D02*
X1501550D01*
X31550D02*
Y4623400D01*
X1501550D01*
Y4129900D02*
Y4623400D01*
Y1142900D02*
X2520550D01*
Y4129900D01*
X1501550D02*
X2520550D01*
D40*
X2667090Y4114775D02*
Y3962425D01*
X2768658D01*
X2844833D02*
X2895617D01*
X2921008Y3987817D01*
Y4038600D01*
X2895617Y4063992D01*
X2844833D01*
X2819441Y4038600D01*
Y3987817D01*
X2844833Y3962425D01*
X2971792D02*
Y4114775D01*
X3047967D01*
X3073359Y4089383D01*
Y4038600D01*
X3047967Y4013208D01*
X2971792D01*
X3022575D02*
X3073359Y3962425D01*
X3124143D02*
Y4063992D01*
X3174926Y4114775D01*
X3225710Y4063992D01*
Y3962425D01*
Y4038600D01*
X3124143D01*
X1612900Y952451D02*
Y800100D01*
X1689075D01*
X1714467Y825492D01*
Y850883D01*
X1689075Y876275D01*
X1612900D01*
X1689075D01*
X1714467Y901667D01*
Y927059D01*
X1689075Y952451D01*
X1612900D01*
X1765251D02*
Y800100D01*
X1841426D01*
X1866818Y825492D01*
Y850883D01*
X1841426Y876275D01*
X1765251D01*
X1841426D01*
X1866818Y901667D01*
Y927059D01*
X1841426Y952451D01*
X1765251D01*
X1917601Y800100D02*
X2019169Y901667D01*
X2069952Y952451D02*
Y800100D01*
X2171519D01*
X2247695D02*
X2298478D01*
X2323870Y825492D01*
Y876275D01*
X2298478Y901667D01*
X2247695D01*
X2222303Y876275D01*
Y825492D01*
X2247695Y800100D01*
X2374654D02*
Y952451D01*
X2450829D01*
X2476221Y927059D01*
Y876275D01*
X2450829Y850883D01*
X2374654D01*
X2425437D02*
X2476221Y800100D01*
X2527004D02*
Y901667D01*
X2577788Y952451D01*
X2628572Y901667D01*
Y800100D01*
Y876275D01*
X2527004D01*
X5029401Y4063967D02*
X5130969D01*
X5080185D01*
Y3911617D01*
X5257928D02*
X5207144D01*
X5181752Y3937008D01*
Y3987792D01*
X5207144Y4013184D01*
X5257928D01*
X5283319Y3987792D01*
Y3962400D01*
X5181752D01*
X5410278Y3911617D02*
X5359495D01*
X5334103Y3937008D01*
Y3987792D01*
X5359495Y4013184D01*
X5410278D01*
X5435670Y3987792D01*
Y3962400D01*
X5334103D01*
X5486454Y3911617D02*
Y4013184D01*
X5562629D01*
X5588021Y3987792D01*
Y3911617D01*
X5638804D02*
X5714980D01*
X5740372Y3937008D01*
X5714980Y3962400D01*
X5664196D01*
X5638804Y3987792D01*
X5664196Y4013184D01*
X5740372D01*
X5791155D02*
Y3937008D01*
X5816547Y3911617D01*
X5892722D01*
Y3886225D01*
X5867330Y3860833D01*
X5841939D01*
X5892722Y3911617D02*
Y4013184D01*
X6019681Y3911617D02*
Y4063967D01*
X5943506Y3987792D01*
X6045073D01*
X6095856Y3911617D02*
Y3937008D01*
X6121248D01*
Y3911617D01*
X6095856D01*
X6222815D02*
X6273599D01*
X6248207D01*
Y4063967D01*
X6222815Y4038575D01*
X9106073Y1257283D02*
X9080681Y1282675D01*
X9029897D01*
X9004505Y1257283D01*
Y1155717D01*
X9029897Y1130325D01*
X9080681D01*
X9106073Y1155717D01*
X9156856Y1130325D02*
Y1231892D01*
X9207640Y1282675D01*
X9258423Y1231892D01*
Y1130325D01*
Y1206500D01*
X9156856D01*
X9309207Y1130325D02*
Y1282675D01*
X9410774Y1130325D01*
Y1282675D01*
X9613908Y1130325D02*
Y1282675D01*
X9664692Y1231892D01*
X9715476Y1282675D01*
Y1130325D01*
X9791651D02*
X9842434D01*
X9867826Y1155717D01*
Y1206500D01*
X9842434Y1231892D01*
X9791651D01*
X9766259Y1206500D01*
Y1155717D01*
X9791651Y1130325D01*
X9944002Y1257283D02*
Y1231892D01*
X9918610D01*
X9969393D01*
X9944002D01*
Y1155717D01*
X9969393Y1130325D01*
X10070961D02*
X10121744D01*
X10147136Y1155717D01*
Y1206500D01*
X10121744Y1231892D01*
X10070961D01*
X10045569Y1206500D01*
Y1155717D01*
X10070961Y1130325D01*
X10197919Y1231892D02*
Y1130325D01*
Y1181108D01*
X10223311Y1206500D01*
X10248703Y1231892D01*
X10274095D01*
X6553352Y4635483D02*
X6527960Y4660875D01*
X6477177D01*
X6451785Y4635483D01*
Y4533917D01*
X6477177Y4508525D01*
X6527960D01*
X6553352Y4533917D01*
X6604136Y4508525D02*
Y4610092D01*
X6654919Y4660875D01*
X6705703Y4610092D01*
Y4508525D01*
Y4584700D01*
X6604136D01*
X6756486Y4508525D02*
Y4660875D01*
X6858054Y4508525D01*
Y4660875D01*
X7061188D02*
Y4508525D01*
X7137363D01*
X7162755Y4533917D01*
Y4635483D01*
X7137363Y4660875D01*
X7061188D01*
X7238930Y4610092D02*
X7289714D01*
X7315106Y4584700D01*
Y4508525D01*
X7238930D01*
X7213539Y4533917D01*
X7238930Y4559308D01*
X7315106D01*
X7391281Y4635483D02*
Y4610092D01*
X7365889D01*
X7416673D01*
X7391281D01*
Y4533917D01*
X7416673Y4508525D01*
X7518240Y4610092D02*
X7569023D01*
X7594415Y4584700D01*
Y4508525D01*
X7518240D01*
X7492848Y4533917D01*
X7518240Y4559308D01*
X7594415D01*
X3473540Y1650967D02*
Y1549400D01*
X3524324Y1498617D01*
X3575108Y1549400D01*
Y1650967D01*
X3625891Y1498617D02*
Y1650967D01*
X3702067D01*
X3727458Y1625575D01*
Y1574792D01*
X3702067Y1549400D01*
X3625891D01*
X3676675D02*
X3727458Y1498617D01*
X3854417D02*
X3803634D01*
X3778242Y1524008D01*
Y1574792D01*
X3803634Y1600184D01*
X3854417D01*
X3879809Y1574792D01*
Y1549400D01*
X3778242D01*
X3981376Y1447833D02*
X4006768D01*
X4032160Y1473225D01*
Y1600184D01*
X3955984D01*
X3930593Y1574792D01*
Y1524008D01*
X3955984Y1498617D01*
X4032160D01*
X266708Y4508475D02*
X215925Y4483083D01*
X165141Y4432300D01*
Y4381517D01*
X190533Y4356125D01*
X241317D01*
X266708Y4381517D01*
Y4406908D01*
X241317Y4432300D01*
X165141D01*
X317492Y4356125D02*
Y4508475D01*
X393667D01*
X419059Y4483083D01*
Y4432300D01*
X393667Y4406908D01*
X317492D01*
%TF.MD5,0e6fb049c03b2a109a90ec8f858d1f86*%
M02*
