%TF.GenerationSoftware,Altium Limited,Altium Designer,24.10.1 (45)*%
G04 Layer_Color=8388736*
%FSLAX45Y45*%
%MOMM*%
%TF.SameCoordinates,7F7612D6-C118-48B3-99A1-FC737374F31D*%
%TF.FilePolarity,Negative*%
%TF.FileFunction,Soldermask,Top*%
%TF.Part,Single*%
G01*
G75*
%TA.AperFunction,SMDPad,CuDef*%
%ADD10R,1.00000X3.50000*%
%TA.AperFunction,ComponentPad*%
%ADD19R,1.40000X1.40000*%
%ADD20C,1.40000*%
%ADD28C,3.19320*%
%ADD29C,2.84320*%
%ADD30R,2.84320X2.84320*%
%ADD31C,0.20320*%
%ADD32C,1.51120*%
%ADD33C,1.46120*%
%ADD34C,1.41120*%
D10*
X4243300Y1790400D02*
D03*
X4043300D02*
D03*
X3843300D02*
D03*
X3643300D02*
D03*
X3443300D02*
D03*
X3243300D02*
D03*
X3043300D02*
D03*
X2843300D02*
D03*
Y3340400D02*
D03*
X3043300D02*
D03*
X3243300D02*
D03*
X3443300D02*
D03*
X3643300D02*
D03*
X3843300D02*
D03*
X4043300D02*
D03*
X4243300D02*
D03*
D19*
X3568700Y622300D02*
D03*
D20*
X3818700D02*
D03*
X4068700D02*
D03*
X4318700D02*
D03*
D28*
X990600Y2369700D02*
D03*
X2133600Y3456700D02*
D03*
Y1282700D02*
D03*
D29*
X1600600Y2814700D02*
D03*
Y1924700D02*
D03*
X2235600Y2369700D02*
D03*
Y1924700D02*
D03*
X1600600Y2369700D02*
D03*
D30*
X2235600Y2814700D02*
D03*
D31*
X8610600Y787400D02*
D03*
Y1041400D02*
D03*
X7213600Y1295400D02*
D03*
Y1041400D02*
D03*
Y787400D02*
D03*
Y533400D02*
D03*
X8128000Y4114800D02*
D03*
Y3860800D02*
D03*
X9525000Y3606800D02*
D03*
Y3860800D02*
D03*
Y4114800D02*
D03*
Y4368800D02*
D03*
D32*
X6604000Y1790700D02*
D03*
X6350000D02*
D03*
X6096000D02*
D03*
X5842000D02*
D03*
X5588000D02*
D03*
X5334000D02*
D03*
X5080000D02*
D03*
X4826000D02*
D03*
X4572000D02*
D03*
Y3314700D02*
D03*
X4826000D02*
D03*
X5080000D02*
D03*
X5334000D02*
D03*
X5588000D02*
D03*
X5842000D02*
D03*
X6096000D02*
D03*
X6350000D02*
D03*
X6604000D02*
D03*
X10414000Y1790700D02*
D03*
X10160000D02*
D03*
X9906000D02*
D03*
X9652000D02*
D03*
X9398000D02*
D03*
X9144000D02*
D03*
X8890000D02*
D03*
X8636000D02*
D03*
X8382000D02*
D03*
X8128000D02*
D03*
X7874000D02*
D03*
X7620000D02*
D03*
X7366000D02*
D03*
X7112000D02*
D03*
X6858000Y3314700D02*
D03*
X7112000D02*
D03*
X7366000D02*
D03*
X7620000D02*
D03*
X7874000D02*
D03*
X8128000D02*
D03*
X8382000D02*
D03*
X8636000D02*
D03*
X8890000D02*
D03*
X9144000D02*
D03*
X9398000D02*
D03*
X9652000D02*
D03*
X9906000D02*
D03*
X6858000Y1790700D02*
D03*
X5842000Y2298700D02*
D03*
X10160000Y2044700D02*
D03*
X5842000D02*
D03*
Y2552700D02*
D03*
Y2806700D02*
D03*
Y3060700D02*
D03*
X10160000Y3314700D02*
D03*
X10414000D02*
D03*
D33*
X8763000Y3009700D02*
D03*
X9017000D02*
D03*
X9271000D02*
D03*
X9525000D02*
D03*
X9779000D02*
D03*
D34*
X9117000Y2435700D02*
D03*
Y2235700D02*
D03*
X8917000Y2435700D02*
D03*
Y2235700D02*
D03*
X9117000Y2035700D02*
D03*
X8917000D02*
D03*
%TF.MD5,8c1c85259c20fa942a6763482cc6c43c*%
M02*
