%TF.GenerationSoftware,Altium Limited,Altium Designer,24.10.1 (45)*%
G04 Layer_Physical_Order=2*
G04 Layer_Color=16711680*
%FSLAX45Y45*%
%MOMM*%
%TF.SameCoordinates,7F7612D6-C118-48B3-99A1-FC737374F31D*%
%TF.FilePolarity,Positive*%
%TF.FileFunction,Copper,L2,Bot,Signal*%
%TF.Part,Single*%
G01*
G75*
%TA.AperFunction,ComponentPad*%
%ADD13C,2.99000*%
%ADD14C,2.64000*%
%ADD15R,2.64000X2.64000*%
%ADD16C,1.30800*%
%ADD17C,1.25800*%
%ADD18C,1.20800*%
%ADD19R,1.40000X1.40000*%
%ADD20C,1.40000*%
%ADD21O,5.08000X1.90500*%
D13*
X990600Y2369700D02*
D03*
X2133600Y3456700D02*
D03*
Y1282700D02*
D03*
D14*
X1600600Y2814700D02*
D03*
Y1924700D02*
D03*
X2235600Y2369700D02*
D03*
Y1924700D02*
D03*
X1600600Y2369700D02*
D03*
D15*
X2235600Y2814700D02*
D03*
D16*
X6604000Y1790700D02*
D03*
X6350000D02*
D03*
X6096000D02*
D03*
X5842000D02*
D03*
X5588000D02*
D03*
X5334000D02*
D03*
X5080000D02*
D03*
X4826000D02*
D03*
X4572000D02*
D03*
Y3314700D02*
D03*
X4826000D02*
D03*
X5080000D02*
D03*
X5334000D02*
D03*
X5588000D02*
D03*
X5842000D02*
D03*
X6096000D02*
D03*
X6350000D02*
D03*
X6604000D02*
D03*
X10414000Y1790700D02*
D03*
X10160000D02*
D03*
X9906000D02*
D03*
X9652000D02*
D03*
X9398000D02*
D03*
X9144000D02*
D03*
X8890000D02*
D03*
X8636000D02*
D03*
X8382000D02*
D03*
X8128000D02*
D03*
X7874000D02*
D03*
X7620000D02*
D03*
X7366000D02*
D03*
X7112000D02*
D03*
X6858000Y3314700D02*
D03*
X7112000D02*
D03*
X7366000D02*
D03*
X7620000D02*
D03*
X7874000D02*
D03*
X8128000D02*
D03*
X8382000D02*
D03*
X8636000D02*
D03*
X8890000D02*
D03*
X9144000D02*
D03*
X9398000D02*
D03*
X9652000D02*
D03*
X9906000D02*
D03*
X6858000Y1790700D02*
D03*
X5842000Y2298700D02*
D03*
X10160000Y2044700D02*
D03*
X5842000D02*
D03*
Y2552700D02*
D03*
Y2806700D02*
D03*
Y3060700D02*
D03*
X10160000Y3314700D02*
D03*
X10414000D02*
D03*
D17*
X8763000Y3009700D02*
D03*
X9017000D02*
D03*
X9271000D02*
D03*
X9525000D02*
D03*
X9779000D02*
D03*
D18*
X9117000Y2435700D02*
D03*
Y2235700D02*
D03*
X8917000Y2435700D02*
D03*
Y2235700D02*
D03*
X9117000Y2035700D02*
D03*
X8917000D02*
D03*
D19*
X3568700Y622300D02*
D03*
D20*
X3818700D02*
D03*
X4068700D02*
D03*
X4318700D02*
D03*
D21*
X8610600Y787400D02*
D03*
Y1041400D02*
D03*
X7213600Y1295400D02*
D03*
Y1041400D02*
D03*
Y787400D02*
D03*
Y533400D02*
D03*
X8128000Y4114800D02*
D03*
Y3860800D02*
D03*
X9525000Y3606800D02*
D03*
Y3860800D02*
D03*
Y4114800D02*
D03*
Y4368800D02*
D03*
%TF.MD5,ab511a7cec9637baece9c90c1eacebe7*%
M02*
