%TF.GenerationSoftware,Altium Limited,Altium Designer,24.10.1 (45)*%
G04 Layer_Physical_Order=1*
G04 Layer_Color=255*
%FSLAX45Y45*%
%MOMM*%
%TF.SameCoordinates,7F7612D6-C118-48B3-99A1-FC737374F31D*%
%TF.FilePolarity,Positive*%
%TF.FileFunction,Copper,L1,Top,Signal*%
%TF.Part,Single*%
G01*
G75*
%TA.AperFunction,SMDPad,CuDef*%
%ADD10R,1.00000X3.50000*%
%TA.AperFunction,Conductor*%
%ADD11C,0.30480*%
%ADD12C,0.25400*%
%TA.AperFunction,ComponentPad*%
%ADD13C,2.99000*%
%ADD14C,2.64000*%
%ADD15R,2.64000X2.64000*%
%ADD16C,1.30800*%
%ADD17C,1.25800*%
%ADD18C,1.20800*%
%ADD19R,1.40000X1.40000*%
%ADD20C,1.40000*%
G36*
X10795000Y0D02*
X0D01*
Y4521200D01*
X10795000D01*
Y0D01*
D02*
G37*
%LPC*%
G36*
X9537631Y4432300D02*
X9512369D01*
X9489030Y4422633D01*
X9474044Y4407647D01*
X9283700D01*
X9268834Y4404689D01*
X9256231Y4396269D01*
X9040331Y4180369D01*
X9031911Y4167766D01*
X9028953Y4152900D01*
Y3911976D01*
X8735531Y3618554D01*
X8727111Y3605952D01*
X8724153Y3591086D01*
Y3390878D01*
X8698753Y3380357D01*
X8691752Y3387358D01*
X8671047Y3399312D01*
X8647954Y3405500D01*
X8624046D01*
X8600953Y3399312D01*
X8580248Y3387358D01*
X8563342Y3370452D01*
X8551388Y3349747D01*
X8545200Y3326654D01*
Y3302746D01*
X8551388Y3279653D01*
X8563342Y3258948D01*
X8580248Y3242042D01*
X8600953Y3230088D01*
X8624046Y3223900D01*
X8647954D01*
X8657131Y3226359D01*
X8669278Y3204143D01*
X8656750Y3188447D01*
X8443871D01*
X8429005Y3185489D01*
X8416403Y3177069D01*
X7733486Y2494151D01*
X6943748Y3283890D01*
X6948800Y3302746D01*
Y3326654D01*
X6942612Y3349747D01*
X6930658Y3370452D01*
X6913752Y3387358D01*
X6893047Y3399312D01*
X6869954Y3405500D01*
X6846046D01*
X6822953Y3399312D01*
X6802248Y3387358D01*
X6785342Y3370452D01*
X6773388Y3349747D01*
X6767200Y3326654D01*
Y3302746D01*
X6773388Y3279653D01*
X6785342Y3258948D01*
X6802248Y3242042D01*
X6822953Y3230088D01*
X6846046Y3223900D01*
X6869954D01*
X6888810Y3228952D01*
X7694639Y2423124D01*
Y1880392D01*
X7688456Y1874816D01*
X7669239Y1867118D01*
X7655047Y1875312D01*
X7631954Y1881500D01*
X7608046D01*
X7584953Y1875312D01*
X7564248Y1863358D01*
X7547342Y1846452D01*
X7535388Y1825747D01*
X7529200Y1802654D01*
Y1778746D01*
X7535388Y1755653D01*
X7547342Y1734948D01*
X7564248Y1718042D01*
X7584953Y1706088D01*
X7608046Y1699900D01*
X7631954D01*
X7649306Y1704549D01*
X7664913Y1699387D01*
X7678389Y1690235D01*
X7679681Y1684262D01*
X7678699Y1681765D01*
X7613081Y1616146D01*
X7137720D01*
X7124700Y1618736D01*
X7111680Y1616146D01*
X4318700D01*
Y1990800D01*
X4167900D01*
Y1616146D01*
X4118700D01*
Y1990800D01*
X3967900D01*
Y1616146D01*
X3918700D01*
Y1990800D01*
X3767900D01*
Y1628196D01*
X3742500Y1621137D01*
X3718700Y1644937D01*
Y1990800D01*
X3567900D01*
Y1590000D01*
X3663763D01*
X3703932Y1549831D01*
X3716534Y1541410D01*
X3731400Y1538453D01*
X6996567D01*
X7006287Y1514987D01*
X6841400Y1350100D01*
X6832418Y1336657D01*
X6829264Y1320800D01*
Y673100D01*
X6832418Y657243D01*
X6841400Y643800D01*
X6981100Y504100D01*
X6994543Y495118D01*
X7010400Y491964D01*
X7165234D01*
X7177630Y479567D01*
X7200969Y469900D01*
X7226231D01*
X7249570Y479567D01*
X7267433Y497430D01*
X7277100Y520769D01*
Y546031D01*
X7267433Y569370D01*
X7249570Y587233D01*
X7226231Y596900D01*
X7200969D01*
X7177630Y587233D01*
X7165234Y574836D01*
X7027564D01*
X6912136Y690264D01*
Y1303636D01*
X7146953Y1538453D01*
X7629171D01*
X7644037Y1541410D01*
X7656640Y1549831D01*
X7760954Y1654146D01*
X7769375Y1666749D01*
X7772332Y1681614D01*
Y1734394D01*
X7797732Y1741200D01*
X7801342Y1734948D01*
X7818248Y1718042D01*
X7838953Y1706088D01*
X7862046Y1699900D01*
X7885954D01*
X7909047Y1706088D01*
X7929752Y1718042D01*
X7946658Y1734948D01*
X7958612Y1755653D01*
X7964800Y1778746D01*
Y1802654D01*
X7958612Y1825747D01*
X7946658Y1846452D01*
X7929752Y1863358D01*
X7909047Y1875312D01*
X7885954Y1881500D01*
X7862046D01*
X7838953Y1875312D01*
X7818248Y1863358D01*
X7801342Y1846452D01*
X7797732Y1840200D01*
X7772332Y1847006D01*
Y2423124D01*
X8459962Y3110753D01*
X8674100D01*
X8688966Y3113711D01*
X8701569Y3122131D01*
X8790469Y3211031D01*
X8798889Y3223634D01*
X8801847Y3238500D01*
Y3238522D01*
X8827247Y3249043D01*
X8834248Y3242042D01*
X8854953Y3230088D01*
X8878046Y3223900D01*
X8901954D01*
X8925047Y3230088D01*
X8945752Y3242042D01*
X8962658Y3258948D01*
X8974612Y3279653D01*
X8980800Y3302746D01*
Y3326654D01*
X8974612Y3349747D01*
X8962658Y3370452D01*
X8945752Y3387358D01*
X8925047Y3399312D01*
X8901954Y3405500D01*
X8878046D01*
X8854953Y3399312D01*
X8834248Y3387358D01*
X8827247Y3380357D01*
X8801847Y3390878D01*
Y3574995D01*
X9095269Y3868417D01*
X9103689Y3881020D01*
X9106647Y3895886D01*
Y4136809D01*
X9299791Y4329953D01*
X9474044D01*
X9489030Y4314967D01*
X9512369Y4305300D01*
X9537631D01*
X9560970Y4314967D01*
X9578833Y4332830D01*
X9588500Y4356169D01*
Y4381431D01*
X9578833Y4404770D01*
X9560970Y4422633D01*
X9537631Y4432300D01*
D02*
G37*
G36*
X9537700Y4178271D02*
Y4127500D01*
X9588471D01*
X9578833Y4150770D01*
X9560970Y4168633D01*
X9537700Y4178271D01*
D02*
G37*
G36*
X9512300D02*
X9489030Y4168633D01*
X9471167Y4150770D01*
X9461529Y4127500D01*
X9512300D01*
Y4178271D01*
D02*
G37*
G36*
X9588471Y4102100D02*
X9537700D01*
Y4051329D01*
X9560970Y4060967D01*
X9578833Y4078830D01*
X9588471Y4102100D01*
D02*
G37*
G36*
X9512300D02*
X9461529D01*
X9471167Y4078830D01*
X9489030Y4060967D01*
X9512300Y4051329D01*
Y4102100D01*
D02*
G37*
G36*
X8140631Y4178300D02*
X8115369D01*
X8092030Y4168633D01*
X8079634Y4156236D01*
X7912100D01*
X7896243Y4153082D01*
X7882800Y4144100D01*
X7793336Y4054636D01*
X3022600D01*
X3006743Y4051482D01*
X2993300Y4042500D01*
X2985925Y4031462D01*
X2300669Y3346206D01*
X2280940Y3362398D01*
X2288594Y3373854D01*
X2301778Y3405684D01*
X2308500Y3439474D01*
Y3473926D01*
X2301778Y3507717D01*
X2288594Y3539546D01*
X2269454Y3568193D01*
X2245092Y3592554D01*
X2216446Y3611695D01*
X2184616Y3624879D01*
X2150826Y3631600D01*
X2116374D01*
X2082584Y3624879D01*
X2050754Y3611695D01*
X2022108Y3592554D01*
X1997746Y3568193D01*
X1978606Y3539546D01*
X1965422Y3507717D01*
X1958700Y3473926D01*
Y3439474D01*
X1965422Y3405684D01*
X1978606Y3373854D01*
X1997746Y3345208D01*
X2022108Y3320847D01*
X2050754Y3301706D01*
X2082584Y3288522D01*
X2116374Y3281800D01*
X2150826D01*
X2184616Y3288522D01*
X2216446Y3301706D01*
X2227903Y3309361D01*
X2244094Y3289631D01*
X1808010Y2853547D01*
X1753356D01*
X1751951Y2860612D01*
X1740086Y2889257D01*
X1722860Y2915037D01*
X1700937Y2936961D01*
X1675157Y2954186D01*
X1646512Y2966051D01*
X1616103Y2972100D01*
X1585097D01*
X1554688Y2966051D01*
X1526043Y2954186D01*
X1500263Y2936961D01*
X1478340Y2915037D01*
X1461114Y2889257D01*
X1449249Y2860612D01*
X1443200Y2830203D01*
Y2799198D01*
X1449249Y2768788D01*
X1461114Y2740143D01*
X1478340Y2714364D01*
X1500263Y2692440D01*
X1526043Y2675214D01*
X1554688Y2663349D01*
X1585097Y2657300D01*
X1616103D01*
X1646512Y2663349D01*
X1675157Y2675214D01*
X1700937Y2692440D01*
X1722860Y2714364D01*
X1740086Y2740143D01*
X1751951Y2768788D01*
X1753356Y2775854D01*
X1824100D01*
X1828190Y2772497D01*
Y2652227D01*
X1681146Y2505184D01*
X1675157Y2509186D01*
X1646512Y2521051D01*
X1616103Y2527100D01*
X1585097D01*
X1554688Y2521051D01*
X1526043Y2509186D01*
X1500263Y2491960D01*
X1478340Y2470037D01*
X1461114Y2444257D01*
X1449249Y2415612D01*
X1443200Y2385203D01*
Y2354197D01*
X1449249Y2323788D01*
X1461114Y2295143D01*
X1478340Y2269364D01*
X1500263Y2247440D01*
X1526043Y2230214D01*
X1554688Y2218349D01*
X1585097Y2212300D01*
X1616103D01*
X1646512Y2218349D01*
X1675157Y2230214D01*
X1700937Y2247440D01*
X1722860Y2269364D01*
X1740086Y2295143D01*
X1751951Y2323788D01*
X1758000Y2354197D01*
Y2385203D01*
X1751951Y2415612D01*
X1740086Y2444257D01*
X1736084Y2450247D01*
X1894505Y2608668D01*
X1902926Y2621271D01*
X1905883Y2636136D01*
Y2765346D01*
X2054734Y2914196D01*
X2078200Y2904476D01*
Y2827400D01*
X2222900D01*
Y2972100D01*
X2145824D01*
X2136104Y2995567D01*
X3057914Y3917376D01*
X3065418Y3915884D01*
X7785716D01*
X7870100Y3831500D01*
X7883543Y3822518D01*
X7899400Y3819364D01*
X8079634D01*
X8092030Y3806967D01*
X8115369Y3797300D01*
X8140631D01*
X8163970Y3806967D01*
X8181833Y3824830D01*
X8191500Y3848169D01*
Y3873431D01*
X8181833Y3896770D01*
X8163970Y3914633D01*
X8140631Y3924300D01*
X8115369D01*
X8092030Y3914633D01*
X8079634Y3902236D01*
X7916564D01*
X7854295Y3964504D01*
X7854478Y3998578D01*
X7929264Y4073364D01*
X8079634D01*
X8092030Y4060967D01*
X8115369Y4051300D01*
X8140631D01*
X8163970Y4060967D01*
X8181833Y4078830D01*
X8191500Y4102169D01*
Y4127431D01*
X8181833Y4150770D01*
X8163970Y4168633D01*
X8140631Y4178300D01*
D02*
G37*
G36*
X3318700Y3540800D02*
X3256000D01*
Y3353100D01*
X3318700D01*
Y3540800D01*
D02*
G37*
G36*
X2918700D02*
X2856000D01*
Y3353100D01*
X2918700D01*
Y3540800D01*
D02*
G37*
G36*
X3230600D02*
X3167900D01*
Y3353100D01*
X3230600D01*
Y3540800D01*
D02*
G37*
G36*
X2830600D02*
X2767900D01*
Y3353100D01*
X2830600D01*
Y3540800D01*
D02*
G37*
G36*
X10426700Y3405300D02*
Y3327400D01*
X10504600D01*
X10498612Y3349747D01*
X10486658Y3370452D01*
X10469752Y3387358D01*
X10449047Y3399312D01*
X10426700Y3405300D01*
D02*
G37*
G36*
X10401300D02*
X10378953Y3399312D01*
X10358248Y3387358D01*
X10341342Y3370452D01*
X10329388Y3349747D01*
X10323400Y3327400D01*
X10401300D01*
Y3405300D01*
D02*
G37*
G36*
X10504600Y3302000D02*
X10426700D01*
Y3224100D01*
X10449047Y3230088D01*
X10469752Y3242042D01*
X10486658Y3258948D01*
X10498612Y3279653D01*
X10504600Y3302000D01*
D02*
G37*
G36*
X10401300D02*
X10323400D01*
X10329388Y3279653D01*
X10341342Y3258948D01*
X10358248Y3242042D01*
X10378953Y3230088D01*
X10401300Y3224100D01*
Y3302000D01*
D02*
G37*
G36*
X9537631Y3924300D02*
X9512369D01*
X9489030Y3914633D01*
X9471167Y3896770D01*
X9461500Y3873431D01*
Y3848169D01*
X9471167Y3824830D01*
X9489030Y3806967D01*
X9512369Y3797300D01*
X9537631D01*
X9560970Y3806967D01*
X9573366Y3819364D01*
X9596736D01*
X10073478Y3342622D01*
X10069200Y3326654D01*
Y3302746D01*
X10075388Y3279653D01*
X10087342Y3258948D01*
X10104248Y3242042D01*
X10124953Y3230088D01*
X10148046Y3223900D01*
X10171954D01*
X10195047Y3230088D01*
X10215752Y3242042D01*
X10232658Y3258948D01*
X10244612Y3279653D01*
X10250800Y3302746D01*
Y3326654D01*
X10244612Y3349747D01*
X10232658Y3370452D01*
X10215752Y3387358D01*
X10195047Y3399312D01*
X10171954Y3405500D01*
X10148046D01*
X10132078Y3401222D01*
X9643200Y3890100D01*
X9629757Y3899082D01*
X9613900Y3902236D01*
X9573366D01*
X9560970Y3914633D01*
X9537631Y3924300D01*
D02*
G37*
G36*
Y3670300D02*
X9512369D01*
X9489030Y3660633D01*
X9471167Y3642770D01*
X9461500Y3619431D01*
Y3594169D01*
X9471167Y3570830D01*
X9489030Y3552967D01*
X9512369Y3543300D01*
X9529900D01*
X9642300Y3430900D01*
X9641464Y3421483D01*
X9633526Y3403753D01*
X9616953Y3399312D01*
X9596248Y3387358D01*
X9579342Y3370452D01*
X9567388Y3349747D01*
X9561200Y3326654D01*
Y3302746D01*
X9567388Y3279653D01*
X9579342Y3258948D01*
X9596248Y3242042D01*
X9616953Y3230088D01*
X9640046Y3223900D01*
X9663954D01*
X9687047Y3230088D01*
X9707752Y3242042D01*
X9724658Y3258948D01*
X9736612Y3279653D01*
X9741053Y3296226D01*
X9758783Y3304164D01*
X9768200Y3305000D01*
X9768605Y3304595D01*
X9782048Y3295613D01*
X9797905Y3292459D01*
X9817956D01*
X9821388Y3279653D01*
X9833342Y3258948D01*
X9850248Y3242042D01*
X9870953Y3230088D01*
X9894046Y3223900D01*
X9917954D01*
X9941047Y3230088D01*
X9961752Y3242042D01*
X9978658Y3258948D01*
X9990612Y3279653D01*
X9996800Y3302746D01*
Y3326654D01*
X9990612Y3349747D01*
X9978658Y3370452D01*
X9961752Y3387358D01*
X9941047Y3399312D01*
X9917954Y3405500D01*
X9894046D01*
X9870953Y3399312D01*
X9850248Y3387358D01*
X9838221Y3375332D01*
X9815068D01*
X9588500Y3601900D01*
Y3619431D01*
X9578833Y3642770D01*
X9560970Y3660633D01*
X9537631Y3670300D01*
D02*
G37*
G36*
X9409954Y3405500D02*
X9386046D01*
X9362953Y3399312D01*
X9342248Y3387358D01*
X9325342Y3370452D01*
X9313388Y3349747D01*
X9307200Y3326654D01*
Y3302746D01*
X9313388Y3279653D01*
X9325342Y3258948D01*
X9342248Y3242042D01*
X9362953Y3230088D01*
X9386046Y3223900D01*
X9409954D01*
X9433047Y3230088D01*
X9453752Y3242042D01*
X9470658Y3258948D01*
X9482612Y3279653D01*
X9488800Y3302746D01*
Y3326654D01*
X9482612Y3349747D01*
X9470658Y3370452D01*
X9453752Y3387358D01*
X9433047Y3399312D01*
X9409954Y3405500D01*
D02*
G37*
G36*
X9155954D02*
X9132046D01*
X9108953Y3399312D01*
X9088248Y3387358D01*
X9071342Y3370452D01*
X9059388Y3349747D01*
X9053200Y3326654D01*
Y3302746D01*
X9059388Y3279653D01*
X9071342Y3258948D01*
X9088248Y3242042D01*
X9108953Y3230088D01*
X9132046Y3223900D01*
X9155954D01*
X9179047Y3230088D01*
X9199752Y3242042D01*
X9216658Y3258948D01*
X9228612Y3279653D01*
X9234800Y3302746D01*
Y3326654D01*
X9228612Y3349747D01*
X9216658Y3370452D01*
X9199752Y3387358D01*
X9179047Y3399312D01*
X9155954Y3405500D01*
D02*
G37*
G36*
X8393954D02*
X8370046D01*
X8346953Y3399312D01*
X8326248Y3387358D01*
X8309342Y3370452D01*
X8297388Y3349747D01*
X8291200Y3326654D01*
Y3302746D01*
X8297388Y3279653D01*
X8309342Y3258948D01*
X8326248Y3242042D01*
X8346953Y3230088D01*
X8370046Y3223900D01*
X8393954D01*
X8417047Y3230088D01*
X8437752Y3242042D01*
X8454658Y3258948D01*
X8466612Y3279653D01*
X8472800Y3302746D01*
Y3326654D01*
X8466612Y3349747D01*
X8454658Y3370452D01*
X8437752Y3387358D01*
X8417047Y3399312D01*
X8393954Y3405500D01*
D02*
G37*
G36*
X8139954D02*
X8116046D01*
X8092953Y3399312D01*
X8072248Y3387358D01*
X8055342Y3370452D01*
X8043388Y3349747D01*
X8037200Y3326654D01*
Y3302746D01*
X8043388Y3279653D01*
X8055342Y3258948D01*
X8072248Y3242042D01*
X8092953Y3230088D01*
X8116046Y3223900D01*
X8139954D01*
X8163047Y3230088D01*
X8183752Y3242042D01*
X8200658Y3258948D01*
X8212612Y3279653D01*
X8218800Y3302746D01*
Y3326654D01*
X8212612Y3349747D01*
X8200658Y3370452D01*
X8183752Y3387358D01*
X8163047Y3399312D01*
X8139954Y3405500D01*
D02*
G37*
G36*
X7885954D02*
X7862046D01*
X7838953Y3399312D01*
X7818248Y3387358D01*
X7801342Y3370452D01*
X7789388Y3349747D01*
X7783200Y3326654D01*
Y3302746D01*
X7789388Y3279653D01*
X7801342Y3258948D01*
X7818248Y3242042D01*
X7838953Y3230088D01*
X7862046Y3223900D01*
X7885954D01*
X7909047Y3230088D01*
X7929752Y3242042D01*
X7946658Y3258948D01*
X7958612Y3279653D01*
X7964800Y3302746D01*
Y3326654D01*
X7958612Y3349747D01*
X7946658Y3370452D01*
X7929752Y3387358D01*
X7909047Y3399312D01*
X7885954Y3405500D01*
D02*
G37*
G36*
X7162863Y3709236D02*
X3645700D01*
X3629843Y3706082D01*
X3616400Y3697100D01*
X3460100Y3540800D01*
X3367900D01*
Y3140000D01*
X3518700D01*
Y3482200D01*
X3544434Y3507934D01*
X3567900Y3498213D01*
Y3140000D01*
X3660100D01*
X4932660Y1867440D01*
X4946103Y1858458D01*
X4961960Y1855304D01*
X4983123D01*
X4997788Y1829904D01*
X4995388Y1825747D01*
X4989200Y1802654D01*
Y1778746D01*
X4995388Y1755653D01*
X5007342Y1734948D01*
X5024248Y1718042D01*
X5044953Y1706088D01*
X5068046Y1699900D01*
X5091954D01*
X5115047Y1706088D01*
X5135752Y1718042D01*
X5152658Y1734948D01*
X5164612Y1755653D01*
X5170800Y1778746D01*
Y1802654D01*
X5164612Y1825747D01*
X5162212Y1829904D01*
X5176877Y1855304D01*
X5237123D01*
X5251788Y1829904D01*
X5249388Y1825747D01*
X5243200Y1802654D01*
Y1778746D01*
X5249388Y1755653D01*
X5261342Y1734948D01*
X5278248Y1718042D01*
X5298953Y1706088D01*
X5322046Y1699900D01*
X5345954D01*
X5369047Y1706088D01*
X5389752Y1718042D01*
X5406658Y1734948D01*
X5418612Y1755653D01*
X5424800Y1778746D01*
Y1802654D01*
X5418612Y1825747D01*
X5416212Y1829904D01*
X5430877Y1855304D01*
X5491123D01*
X5505788Y1829904D01*
X5503388Y1825747D01*
X5497200Y1802654D01*
Y1778746D01*
X5503388Y1755653D01*
X5515342Y1734948D01*
X5532248Y1718042D01*
X5552953Y1706088D01*
X5576046Y1699900D01*
X5599954D01*
X5623047Y1706088D01*
X5643752Y1718042D01*
X5660658Y1734948D01*
X5672612Y1755653D01*
X5678800Y1778746D01*
Y1802654D01*
X5672612Y1825747D01*
X5670212Y1829904D01*
X5684877Y1855304D01*
X5745123D01*
X5759788Y1829904D01*
X5757388Y1825747D01*
X5751200Y1802654D01*
Y1778746D01*
X5757388Y1755653D01*
X5769342Y1734948D01*
X5786248Y1718042D01*
X5806953Y1706088D01*
X5830046Y1699900D01*
X5853954D01*
X5877047Y1706088D01*
X5897752Y1718042D01*
X5914658Y1734948D01*
X5926612Y1755653D01*
X5932800Y1778746D01*
Y1802654D01*
X5926612Y1825747D01*
X5924212Y1829904D01*
X5938877Y1855304D01*
X5999123D01*
X6013788Y1829904D01*
X6011388Y1825747D01*
X6005200Y1802654D01*
Y1778746D01*
X6011388Y1755653D01*
X6023342Y1734948D01*
X6040248Y1718042D01*
X6060953Y1706088D01*
X6084046Y1699900D01*
X6107954D01*
X6131047Y1706088D01*
X6151752Y1718042D01*
X6168658Y1734948D01*
X6180612Y1755653D01*
X6186800Y1778746D01*
Y1802654D01*
X6180612Y1825747D01*
X6178212Y1829904D01*
X6192877Y1855304D01*
X6253123D01*
X6267788Y1829904D01*
X6265388Y1825747D01*
X6259200Y1802654D01*
Y1778746D01*
X6265388Y1755653D01*
X6277342Y1734948D01*
X6294248Y1718042D01*
X6314953Y1706088D01*
X6338046Y1699900D01*
X6361954D01*
X6385047Y1706088D01*
X6405752Y1718042D01*
X6422658Y1734948D01*
X6434612Y1755653D01*
X6440800Y1778746D01*
Y1802654D01*
X6434612Y1825747D01*
X6432212Y1829904D01*
X6446877Y1855304D01*
X6507123D01*
X6521788Y1829904D01*
X6519388Y1825747D01*
X6513200Y1802654D01*
Y1778746D01*
X6519388Y1755653D01*
X6531342Y1734948D01*
X6548248Y1718042D01*
X6568953Y1706088D01*
X6592046Y1699900D01*
X6615954D01*
X6639047Y1706088D01*
X6659752Y1718042D01*
X6676658Y1734948D01*
X6688612Y1755653D01*
X6694800Y1778746D01*
Y1802654D01*
X6688612Y1825747D01*
X6686212Y1829904D01*
X6700877Y1855304D01*
X6761123D01*
X6775788Y1829904D01*
X6773388Y1825747D01*
X6767200Y1802654D01*
Y1778746D01*
X6773388Y1755653D01*
X6785342Y1734948D01*
X6802248Y1718042D01*
X6822953Y1706088D01*
X6846046Y1699900D01*
X6869954D01*
X6893047Y1706088D01*
X6913752Y1718042D01*
X6930658Y1734948D01*
X6942612Y1755653D01*
X6948800Y1778746D01*
Y1802654D01*
X6942612Y1825747D01*
X6940212Y1829904D01*
X6954877Y1855304D01*
X6988796D01*
X7025478Y1818622D01*
X7021200Y1802654D01*
Y1778746D01*
X7027388Y1755653D01*
X7039342Y1734948D01*
X7056248Y1718042D01*
X7076953Y1706088D01*
X7100046Y1699900D01*
X7123954D01*
X7147047Y1706088D01*
X7167752Y1718042D01*
X7184658Y1734948D01*
X7196612Y1755653D01*
X7202800Y1778746D01*
Y1802654D01*
X7196612Y1825747D01*
X7184658Y1846452D01*
X7167752Y1863358D01*
X7147047Y1875312D01*
X7123954Y1881500D01*
X7100046D01*
X7084078Y1877222D01*
X7035260Y1926040D01*
X7021817Y1935022D01*
X7005960Y1938176D01*
X5889896D01*
X5883090Y1963576D01*
X5897752Y1972042D01*
X5914658Y1988948D01*
X5926612Y2009653D01*
X5932800Y2032746D01*
Y2056654D01*
X5926612Y2079747D01*
X5914658Y2100452D01*
X5897752Y2117358D01*
X5877047Y2129312D01*
X5853954Y2135500D01*
X5830046D01*
X5806953Y2129312D01*
X5786248Y2117358D01*
X5769342Y2100452D01*
X5757388Y2079747D01*
X5751200Y2056654D01*
Y2032746D01*
X5757388Y2009653D01*
X5769342Y1988948D01*
X5786248Y1972042D01*
X5800910Y1963576D01*
X5794104Y1938176D01*
X4979123D01*
X3800766Y3116534D01*
X3810487Y3140000D01*
X3918700D01*
Y3482200D01*
X3944434Y3507934D01*
X3967900Y3498213D01*
Y3140000D01*
X4118700D01*
Y3482200D01*
X4142500Y3506000D01*
X4167900Y3495479D01*
Y3140000D01*
X4318700D01*
Y3514604D01*
X6853496D01*
X7025478Y3342622D01*
X7021200Y3326654D01*
Y3302746D01*
X7027388Y3279653D01*
X7039342Y3258948D01*
X7056248Y3242042D01*
X7076953Y3230088D01*
X7100046Y3223900D01*
X7123954D01*
X7147047Y3230088D01*
X7167752Y3242042D01*
X7184658Y3258948D01*
X7196612Y3279653D01*
X7202800Y3302746D01*
Y3326654D01*
X7196612Y3349747D01*
X7184658Y3370452D01*
X7167752Y3387358D01*
X7147047Y3399312D01*
X7123954Y3405500D01*
X7100046D01*
X7084078Y3401222D01*
X6938283Y3547017D01*
X6948003Y3570484D01*
X7051616D01*
X7279478Y3342622D01*
X7275200Y3326654D01*
Y3302746D01*
X7281388Y3279653D01*
X7293342Y3258948D01*
X7310248Y3242042D01*
X7330953Y3230088D01*
X7354046Y3223900D01*
X7377954D01*
X7401047Y3230088D01*
X7421752Y3242042D01*
X7438658Y3258948D01*
X7450612Y3279653D01*
X7451854Y3284288D01*
X7479580Y3292484D01*
X7493023Y3283501D01*
X7508880Y3280347D01*
X7535202D01*
X7535388Y3279653D01*
X7547342Y3258948D01*
X7564248Y3242042D01*
X7584953Y3230088D01*
X7608046Y3223900D01*
X7631954D01*
X7655047Y3230088D01*
X7675752Y3242042D01*
X7692658Y3258948D01*
X7704612Y3279653D01*
X7710800Y3302746D01*
Y3326654D01*
X7704612Y3349747D01*
X7692658Y3370452D01*
X7675752Y3387358D01*
X7655047Y3399312D01*
X7631954Y3405500D01*
X7608046D01*
X7584953Y3399312D01*
X7564248Y3387358D01*
X7547342Y3370453D01*
X7520259Y3369005D01*
X7192163Y3697100D01*
X7178720Y3706082D01*
X7162863Y3709236D01*
D02*
G37*
G36*
X6615954Y3405500D02*
X6592046D01*
X6568953Y3399312D01*
X6548248Y3387358D01*
X6531342Y3370452D01*
X6519388Y3349747D01*
X6513200Y3326654D01*
Y3302746D01*
X6519388Y3279653D01*
X6531342Y3258948D01*
X6548248Y3242042D01*
X6568953Y3230088D01*
X6592046Y3223900D01*
X6615954D01*
X6639047Y3230088D01*
X6659752Y3242042D01*
X6676658Y3258948D01*
X6688612Y3279653D01*
X6694800Y3302746D01*
Y3326654D01*
X6688612Y3349747D01*
X6676658Y3370452D01*
X6659752Y3387358D01*
X6639047Y3399312D01*
X6615954Y3405500D01*
D02*
G37*
G36*
X6361954D02*
X6338046D01*
X6314953Y3399312D01*
X6294248Y3387358D01*
X6277342Y3370452D01*
X6265388Y3349747D01*
X6259200Y3326654D01*
Y3302746D01*
X6265388Y3279653D01*
X6277342Y3258948D01*
X6294248Y3242042D01*
X6314953Y3230088D01*
X6338046Y3223900D01*
X6361954D01*
X6385047Y3230088D01*
X6405752Y3242042D01*
X6422658Y3258948D01*
X6434612Y3279653D01*
X6440800Y3302746D01*
Y3326654D01*
X6434612Y3349747D01*
X6422658Y3370452D01*
X6405752Y3387358D01*
X6385047Y3399312D01*
X6361954Y3405500D01*
D02*
G37*
G36*
X6107954D02*
X6084046D01*
X6060953Y3399312D01*
X6040248Y3387358D01*
X6023342Y3370452D01*
X6011388Y3349747D01*
X6005200Y3326654D01*
Y3302746D01*
X6011388Y3279653D01*
X6023342Y3258948D01*
X6040248Y3242042D01*
X6060953Y3230088D01*
X6084046Y3223900D01*
X6107954D01*
X6131047Y3230088D01*
X6151752Y3242042D01*
X6168658Y3258948D01*
X6180612Y3279653D01*
X6186800Y3302746D01*
Y3326654D01*
X6180612Y3349747D01*
X6168658Y3370452D01*
X6151752Y3387358D01*
X6131047Y3399312D01*
X6107954Y3405500D01*
D02*
G37*
G36*
X5853954D02*
X5830046D01*
X5806953Y3399312D01*
X5786248Y3387358D01*
X5769342Y3370452D01*
X5757388Y3349747D01*
X5751200Y3326654D01*
Y3302746D01*
X5757388Y3279653D01*
X5769342Y3258948D01*
X5786248Y3242042D01*
X5806953Y3230088D01*
X5830046Y3223900D01*
X5853954D01*
X5877047Y3230088D01*
X5897752Y3242042D01*
X5914658Y3258948D01*
X5926612Y3279653D01*
X5932800Y3302746D01*
Y3326654D01*
X5926612Y3349747D01*
X5914658Y3370452D01*
X5897752Y3387358D01*
X5877047Y3399312D01*
X5853954Y3405500D01*
D02*
G37*
G36*
X5599954D02*
X5576046D01*
X5552953Y3399312D01*
X5532248Y3387358D01*
X5515342Y3370452D01*
X5503388Y3349747D01*
X5497200Y3326654D01*
Y3302746D01*
X5503388Y3279653D01*
X5515342Y3258948D01*
X5532248Y3242042D01*
X5552953Y3230088D01*
X5576046Y3223900D01*
X5599954D01*
X5623047Y3230088D01*
X5643752Y3242042D01*
X5660658Y3258948D01*
X5672612Y3279653D01*
X5678800Y3302746D01*
Y3326654D01*
X5672612Y3349747D01*
X5660658Y3370452D01*
X5643752Y3387358D01*
X5623047Y3399312D01*
X5599954Y3405500D01*
D02*
G37*
G36*
X5345954D02*
X5322046D01*
X5298953Y3399312D01*
X5278248Y3387358D01*
X5261342Y3370452D01*
X5249388Y3349747D01*
X5243200Y3326654D01*
Y3302746D01*
X5249388Y3279653D01*
X5261342Y3258948D01*
X5278248Y3242042D01*
X5298953Y3230088D01*
X5322046Y3223900D01*
X5345954D01*
X5369047Y3230088D01*
X5389752Y3242042D01*
X5406658Y3258948D01*
X5418612Y3279653D01*
X5424800Y3302746D01*
Y3326654D01*
X5418612Y3349747D01*
X5406658Y3370452D01*
X5389752Y3387358D01*
X5369047Y3399312D01*
X5345954Y3405500D01*
D02*
G37*
G36*
X5091954D02*
X5068046D01*
X5044953Y3399312D01*
X5024248Y3387358D01*
X5007342Y3370452D01*
X4995388Y3349747D01*
X4989200Y3326654D01*
Y3302746D01*
X4995388Y3279653D01*
X5007342Y3258948D01*
X5024248Y3242042D01*
X5044953Y3230088D01*
X5068046Y3223900D01*
X5091954D01*
X5115047Y3230088D01*
X5135752Y3242042D01*
X5152658Y3258948D01*
X5164612Y3279653D01*
X5170800Y3302746D01*
Y3326654D01*
X5164612Y3349747D01*
X5152658Y3370452D01*
X5135752Y3387358D01*
X5115047Y3399312D01*
X5091954Y3405500D01*
D02*
G37*
G36*
X4837954D02*
X4814046D01*
X4790953Y3399312D01*
X4770248Y3387358D01*
X4753342Y3370452D01*
X4741388Y3349747D01*
X4735200Y3326654D01*
Y3302746D01*
X4741388Y3279653D01*
X4753342Y3258948D01*
X4770248Y3242042D01*
X4790953Y3230088D01*
X4814046Y3223900D01*
X4837954D01*
X4861047Y3230088D01*
X4881752Y3242042D01*
X4898658Y3258948D01*
X4910612Y3279653D01*
X4916800Y3302746D01*
Y3326654D01*
X4910612Y3349747D01*
X4898658Y3370452D01*
X4881752Y3387358D01*
X4861047Y3399312D01*
X4837954Y3405500D01*
D02*
G37*
G36*
X4583954D02*
X4560046D01*
X4536953Y3399312D01*
X4516248Y3387358D01*
X4499342Y3370452D01*
X4487388Y3349747D01*
X4481200Y3326654D01*
Y3302746D01*
X4487388Y3279653D01*
X4499342Y3258948D01*
X4516248Y3242042D01*
X4536953Y3230088D01*
X4560046Y3223900D01*
X4583954D01*
X4607047Y3230088D01*
X4627752Y3242042D01*
X4644658Y3258948D01*
X4656612Y3279653D01*
X4662800Y3302746D01*
Y3326654D01*
X4656612Y3349747D01*
X4644658Y3370452D01*
X4627752Y3387358D01*
X4607047Y3399312D01*
X4583954Y3405500D01*
D02*
G37*
G36*
X3318700Y3327700D02*
X3256000D01*
Y3140000D01*
X3318700D01*
Y3327700D01*
D02*
G37*
G36*
X3230600D02*
X3167900D01*
Y3140000D01*
X3230600D01*
Y3327700D01*
D02*
G37*
G36*
X3118700Y3540800D02*
X2967900D01*
Y3140000D01*
X3118700D01*
Y3540800D01*
D02*
G37*
G36*
X2918700Y3327700D02*
X2856000D01*
Y3140000D01*
X2918700D01*
Y3327700D01*
D02*
G37*
G36*
X2830600D02*
X2767900D01*
Y3140000D01*
X2830600D01*
Y3327700D01*
D02*
G37*
G36*
X5853954Y3151500D02*
X5830046D01*
X5806953Y3145312D01*
X5786248Y3133358D01*
X5769342Y3116452D01*
X5757388Y3095747D01*
X5751200Y3072654D01*
Y3048746D01*
X5757388Y3025653D01*
X5769342Y3004948D01*
X5786248Y2988042D01*
X5806953Y2976088D01*
X5830046Y2969900D01*
X5853954D01*
X5877047Y2976088D01*
X5897752Y2988042D01*
X5914658Y3004948D01*
X5926612Y3025653D01*
X5932800Y3048746D01*
Y3072654D01*
X5926612Y3095747D01*
X5914658Y3116452D01*
X5897752Y3133358D01*
X5877047Y3145312D01*
X5853954Y3151500D01*
D02*
G37*
G36*
X9790625Y3098000D02*
X9767375D01*
X9744918Y3091983D01*
X9724782Y3080358D01*
X9708342Y3063918D01*
X9696717Y3043783D01*
X9690700Y3021325D01*
Y2998075D01*
X9696717Y2975618D01*
X9708342Y2955483D01*
X9724782Y2939042D01*
X9744918Y2927418D01*
X9767375Y2921400D01*
X9790625D01*
X9813082Y2927418D01*
X9833218Y2939042D01*
X9849658Y2955483D01*
X9861283Y2975618D01*
X9867300Y2998075D01*
Y3021325D01*
X9861283Y3043783D01*
X9849658Y3063918D01*
X9833218Y3080358D01*
X9813082Y3091983D01*
X9790625Y3098000D01*
D02*
G37*
G36*
X9536625D02*
X9513375D01*
X9490918Y3091983D01*
X9470782Y3080358D01*
X9454342Y3063918D01*
X9442717Y3043783D01*
X9436700Y3021325D01*
Y2998075D01*
X9442717Y2975618D01*
X9454342Y2955483D01*
X9470782Y2939042D01*
X9490918Y2927418D01*
X9513375Y2921400D01*
X9536625D01*
X9559082Y2927418D01*
X9579218Y2939042D01*
X9595658Y2955483D01*
X9607283Y2975618D01*
X9613300Y2998075D01*
Y3021325D01*
X9607283Y3043783D01*
X9595658Y3063918D01*
X9579218Y3080358D01*
X9559082Y3091983D01*
X9536625Y3098000D01*
D02*
G37*
G36*
X9282625D02*
X9259375D01*
X9236918Y3091983D01*
X9216782Y3080358D01*
X9200342Y3063918D01*
X9188717Y3043783D01*
X9182700Y3021325D01*
Y2998075D01*
X9188717Y2975618D01*
X9200342Y2955483D01*
X9216782Y2939042D01*
X9236918Y2927418D01*
X9259375Y2921400D01*
X9282625D01*
X9305082Y2927418D01*
X9325218Y2939042D01*
X9341658Y2955483D01*
X9353283Y2975618D01*
X9359300Y2998075D01*
Y3021325D01*
X9353283Y3043783D01*
X9341658Y3063918D01*
X9325218Y3080358D01*
X9305082Y3091983D01*
X9282625Y3098000D01*
D02*
G37*
G36*
X9028625D02*
X9005375D01*
X8982918Y3091983D01*
X8962782Y3080358D01*
X8946342Y3063918D01*
X8934717Y3043783D01*
X8928700Y3021325D01*
Y2998075D01*
X8934717Y2975618D01*
X8946342Y2955483D01*
X8962782Y2939042D01*
X8982918Y2927418D01*
X9005375Y2921400D01*
X9028625D01*
X9051082Y2927418D01*
X9071218Y2939042D01*
X9087658Y2955483D01*
X9099283Y2975618D01*
X9105300Y2998075D01*
Y3021325D01*
X9099283Y3043783D01*
X9087658Y3063918D01*
X9071218Y3080358D01*
X9051082Y3091983D01*
X9028625Y3098000D01*
D02*
G37*
G36*
X8774625D02*
X8751375D01*
X8728918Y3091983D01*
X8708782Y3080358D01*
X8692342Y3063918D01*
X8680717Y3043783D01*
X8674700Y3021325D01*
Y2998075D01*
X8680717Y2975618D01*
X8692342Y2955483D01*
X8708782Y2939042D01*
X8728918Y2927418D01*
X8751375Y2921400D01*
X8774625D01*
X8797082Y2927418D01*
X8817218Y2939042D01*
X8833658Y2955483D01*
X8845283Y2975618D01*
X8851300Y2998075D01*
Y3021325D01*
X8845283Y3043783D01*
X8833658Y3063918D01*
X8817218Y3080358D01*
X8797082Y3091983D01*
X8774625Y3098000D01*
D02*
G37*
G36*
X2393000Y2972100D02*
X2248300D01*
Y2827400D01*
X2393000D01*
Y2972100D01*
D02*
G37*
G36*
X5853954Y2897500D02*
X5830046D01*
X5806953Y2891312D01*
X5786248Y2879358D01*
X5769342Y2862452D01*
X5757388Y2841747D01*
X5751200Y2818654D01*
Y2794746D01*
X5757388Y2771653D01*
X5769342Y2750948D01*
X5786248Y2734042D01*
X5806953Y2722088D01*
X5830046Y2715900D01*
X5853954D01*
X5877047Y2722088D01*
X5897752Y2734042D01*
X5914658Y2750948D01*
X5926612Y2771653D01*
X5932800Y2794746D01*
Y2818654D01*
X5926612Y2841747D01*
X5914658Y2862452D01*
X5897752Y2879358D01*
X5877047Y2891312D01*
X5853954Y2897500D01*
D02*
G37*
G36*
X2393000Y2802000D02*
X2248300D01*
Y2657300D01*
X2393000D01*
Y2802000D01*
D02*
G37*
G36*
X2222900D02*
X2078200D01*
Y2657300D01*
X2222900D01*
Y2802000D01*
D02*
G37*
G36*
X5853954Y2643500D02*
X5830046D01*
X5806953Y2637312D01*
X5786248Y2625358D01*
X5769342Y2608452D01*
X5757388Y2587747D01*
X5751200Y2564654D01*
Y2540746D01*
X5757388Y2517653D01*
X5769342Y2496948D01*
X5786248Y2480042D01*
X5806953Y2468088D01*
X5830046Y2461900D01*
X5853954D01*
X5877047Y2468088D01*
X5897752Y2480042D01*
X5914658Y2496948D01*
X5926612Y2517653D01*
X5932800Y2540746D01*
Y2564654D01*
X5926612Y2587747D01*
X5914658Y2608452D01*
X5897752Y2625358D01*
X5877047Y2637312D01*
X5853954Y2643500D01*
D02*
G37*
G36*
X9128296Y2521500D02*
X9105704D01*
X9083883Y2515653D01*
X9064318Y2504357D01*
X9048343Y2488382D01*
X9037047Y2468818D01*
X9031200Y2446996D01*
Y2424404D01*
X9037047Y2402582D01*
X9048343Y2383018D01*
X9064318Y2367043D01*
X9083883Y2355747D01*
X9105704Y2349900D01*
X9128296D01*
X9150118Y2355747D01*
X9169682Y2367043D01*
X9185657Y2383018D01*
X9196953Y2402582D01*
X9202800Y2424404D01*
Y2446996D01*
X9196953Y2468818D01*
X9185657Y2488382D01*
X9169682Y2504357D01*
X9150118Y2515653D01*
X9128296Y2521500D01*
D02*
G37*
G36*
X8928296D02*
X8905704D01*
X8883882Y2515653D01*
X8864318Y2504357D01*
X8848343Y2488382D01*
X8837047Y2468818D01*
X8831200Y2446996D01*
Y2424404D01*
X8837047Y2402582D01*
X8848343Y2383018D01*
X8864318Y2367043D01*
X8883882Y2355747D01*
X8905704Y2349900D01*
X8928296D01*
X8950117Y2355747D01*
X8969682Y2367043D01*
X8985657Y2383018D01*
X8996953Y2402582D01*
X9002800Y2424404D01*
Y2446996D01*
X8996953Y2468818D01*
X8985657Y2488382D01*
X8969682Y2504357D01*
X8950117Y2515653D01*
X8928296Y2521500D01*
D02*
G37*
G36*
X5853954Y2389500D02*
X5830046D01*
X5806953Y2383312D01*
X5786248Y2371358D01*
X5769342Y2354452D01*
X5757388Y2333747D01*
X5751200Y2310654D01*
Y2286746D01*
X5757388Y2263653D01*
X5769342Y2242948D01*
X5786248Y2226042D01*
X5806953Y2214088D01*
X5830046Y2207900D01*
X5853954D01*
X5877047Y2214088D01*
X5897752Y2226042D01*
X5914658Y2242948D01*
X5926612Y2263653D01*
X5932800Y2286746D01*
Y2310654D01*
X5926612Y2333747D01*
X5914658Y2354452D01*
X5897752Y2371358D01*
X5877047Y2383312D01*
X5853954Y2389500D01*
D02*
G37*
G36*
X1007826Y2544600D02*
X973374D01*
X939584Y2537879D01*
X907754Y2524694D01*
X879108Y2505554D01*
X854746Y2481192D01*
X835606Y2452546D01*
X822422Y2420717D01*
X815700Y2386926D01*
Y2352474D01*
X822422Y2318684D01*
X835606Y2286854D01*
X854746Y2258208D01*
X879108Y2233846D01*
X907754Y2214706D01*
X939584Y2201522D01*
X973374Y2194800D01*
X1007826D01*
X1041616Y2201522D01*
X1073446Y2214706D01*
X1102092Y2233846D01*
X1126454Y2258208D01*
X1145594Y2286854D01*
X1158778Y2318684D01*
X1165500Y2352474D01*
Y2386926D01*
X1158778Y2420717D01*
X1145594Y2452546D01*
X1126454Y2481192D01*
X1102092Y2505554D01*
X1073446Y2524694D01*
X1041616Y2537879D01*
X1007826Y2544600D01*
D02*
G37*
G36*
X9128296Y2321500D02*
X9105704D01*
X9083883Y2315653D01*
X9064318Y2304357D01*
X9048343Y2288383D01*
X9037047Y2268818D01*
X9031200Y2246996D01*
Y2224404D01*
X9037047Y2202583D01*
X9048343Y2183018D01*
X9064318Y2167043D01*
X9083883Y2155747D01*
X9105704Y2149900D01*
X9128296D01*
X9150118Y2155747D01*
X9169682Y2167043D01*
X9185657Y2183018D01*
X9196953Y2202583D01*
X9202800Y2224404D01*
Y2246996D01*
X9196953Y2268818D01*
X9185657Y2288383D01*
X9169682Y2304357D01*
X9150118Y2315653D01*
X9128296Y2321500D01*
D02*
G37*
G36*
X8928296D02*
X8905704D01*
X8883882Y2315653D01*
X8864318Y2304357D01*
X8848343Y2288383D01*
X8837047Y2268818D01*
X8831200Y2246996D01*
Y2224404D01*
X8837047Y2202583D01*
X8848343Y2183018D01*
X8864318Y2167043D01*
X8883882Y2155747D01*
X8905704Y2149900D01*
X8928296D01*
X8950117Y2155747D01*
X8969682Y2167043D01*
X8985657Y2183018D01*
X8996953Y2202583D01*
X9002800Y2224404D01*
Y2246996D01*
X8996953Y2268818D01*
X8985657Y2288383D01*
X8969682Y2304357D01*
X8950117Y2315653D01*
X8928296Y2321500D01*
D02*
G37*
G36*
X10171954Y2135500D02*
X10148046D01*
X10124953Y2129312D01*
X10104248Y2117358D01*
X10087342Y2100452D01*
X10075388Y2079747D01*
X10069200Y2056654D01*
Y2032746D01*
X10075388Y2009653D01*
X10087342Y1988948D01*
X10104248Y1972042D01*
X10124953Y1960088D01*
X10148046Y1953900D01*
X10171954D01*
X10195047Y1960088D01*
X10215752Y1972042D01*
X10232658Y1988948D01*
X10244612Y2009653D01*
X10250800Y2032746D01*
Y2056654D01*
X10244612Y2079747D01*
X10232658Y2100452D01*
X10215752Y2117358D01*
X10195047Y2129312D01*
X10171954Y2135500D01*
D02*
G37*
G36*
X9128296Y2121500D02*
X9105704D01*
X9083883Y2115653D01*
X9064318Y2104357D01*
X9048343Y2088382D01*
X9037047Y2068818D01*
X9031200Y2046996D01*
Y2024404D01*
X9037047Y2002582D01*
X9048343Y1983018D01*
X9064318Y1967043D01*
X9083883Y1955747D01*
X9105704Y1949900D01*
X9128296D01*
X9150118Y1955747D01*
X9169682Y1967043D01*
X9185657Y1983018D01*
X9196953Y2002582D01*
X9202800Y2024404D01*
Y2046996D01*
X9196953Y2068818D01*
X9185657Y2088382D01*
X9169682Y2104357D01*
X9150118Y2115653D01*
X9128296Y2121500D01*
D02*
G37*
G36*
X8928296D02*
X8905704D01*
X8883882Y2115653D01*
X8864318Y2104357D01*
X8848343Y2088382D01*
X8837047Y2068818D01*
X8831200Y2046996D01*
Y2024404D01*
X8837047Y2002582D01*
X8848343Y1983018D01*
X8864318Y1967043D01*
X8883882Y1955747D01*
X8905704Y1949900D01*
X8928296D01*
X8950117Y1955747D01*
X8969682Y1967043D01*
X8985657Y1983018D01*
X8996953Y2002582D01*
X9002800Y2024404D01*
Y2046996D01*
X8996953Y2068818D01*
X8985657Y2088382D01*
X8969682Y2104357D01*
X8950117Y2115653D01*
X8928296Y2121500D01*
D02*
G37*
G36*
X2251103Y2527100D02*
X2220097D01*
X2189688Y2521051D01*
X2161043Y2509186D01*
X2135263Y2491960D01*
X2113340Y2470037D01*
X2096114Y2444257D01*
X2084249Y2415612D01*
X2078200Y2385203D01*
Y2354197D01*
X2084249Y2323788D01*
X2096114Y2295143D01*
X2113340Y2269364D01*
X2135263Y2247440D01*
X2161043Y2230214D01*
X2189688Y2218349D01*
X2207584Y2214789D01*
Y2157880D01*
X2210738Y2142023D01*
X2219720Y2128580D01*
X2240800Y2107500D01*
X2230279Y2082100D01*
X2220097D01*
X2189688Y2076051D01*
X2161043Y2064186D01*
X2135263Y2046960D01*
X2113340Y2025037D01*
X2096114Y1999257D01*
X2084249Y1970612D01*
X2078200Y1940203D01*
Y1909197D01*
X2084249Y1878788D01*
X2089705Y1865616D01*
X2068172Y1851228D01*
X1965400Y1954000D01*
X1951957Y1962982D01*
X1936100Y1966136D01*
X1752841D01*
X1751951Y1970612D01*
X1740086Y1999257D01*
X1722860Y2025037D01*
X1700937Y2046960D01*
X1675157Y2064186D01*
X1646512Y2076051D01*
X1616103Y2082100D01*
X1585097D01*
X1554688Y2076051D01*
X1526043Y2064186D01*
X1500263Y2046960D01*
X1478340Y2025037D01*
X1461114Y1999257D01*
X1449249Y1970612D01*
X1443200Y1940203D01*
Y1909197D01*
X1449249Y1878788D01*
X1461114Y1850143D01*
X1478340Y1824363D01*
X1500263Y1802440D01*
X1526043Y1785214D01*
X1554688Y1773349D01*
X1585097Y1767300D01*
X1616103D01*
X1646512Y1773349D01*
X1675157Y1785214D01*
X1700937Y1802440D01*
X1722860Y1824363D01*
X1740086Y1850143D01*
X1751951Y1878788D01*
X1752841Y1883264D01*
X1918936D01*
X3006564Y795636D01*
Y292100D01*
X3009718Y276243D01*
X3018700Y262800D01*
X3158400Y123100D01*
X3171843Y114118D01*
X3187700Y110964D01*
X8763000D01*
X8778857Y114118D01*
X8792300Y123100D01*
X9008200Y339000D01*
X9017182Y352443D01*
X9020337Y368300D01*
X9020336Y368301D01*
Y927100D01*
X9017182Y942957D01*
X9008200Y956400D01*
X8893900Y1070700D01*
X8880457Y1079682D01*
X8864600Y1082836D01*
X8658966D01*
X8646570Y1095233D01*
X8623231Y1104900D01*
X8597969D01*
X8574630Y1095233D01*
X8556767Y1077370D01*
X8547100Y1054031D01*
Y1028769D01*
X8556767Y1005430D01*
X8574630Y987567D01*
X8597969Y977900D01*
X8623231D01*
X8646570Y987567D01*
X8658966Y999964D01*
X8847436D01*
X8937464Y909936D01*
Y763143D01*
X8913997Y753423D01*
X8850720Y816700D01*
X8837277Y825682D01*
X8821420Y828836D01*
X8658966D01*
X8646570Y841233D01*
X8623231Y850900D01*
X8597969D01*
X8574630Y841233D01*
X8556767Y823370D01*
X8547100Y800031D01*
Y774769D01*
X8556767Y751430D01*
X8574630Y733567D01*
X8597969Y723900D01*
X8623231D01*
X8646570Y733567D01*
X8658966Y745964D01*
X8804256D01*
X8881584Y668636D01*
Y408610D01*
X8722690Y249716D01*
X8101203D01*
X8091483Y273183D01*
X8170000Y351700D01*
X8178982Y365143D01*
X8182136Y381000D01*
Y998836D01*
X8322964Y1139664D01*
X9804400D01*
X9820257Y1142818D01*
X9833700Y1151800D01*
X10386078Y1704178D01*
X10402046Y1699900D01*
X10425954D01*
X10449047Y1706088D01*
X10469752Y1718042D01*
X10486658Y1734948D01*
X10498612Y1755653D01*
X10504800Y1778746D01*
Y1802654D01*
X10498612Y1825747D01*
X10486658Y1846452D01*
X10469752Y1863358D01*
X10449047Y1875312D01*
X10425954Y1881500D01*
X10402046D01*
X10378953Y1875312D01*
X10358248Y1863358D01*
X10341342Y1846452D01*
X10329388Y1825747D01*
X10323200Y1802654D01*
Y1778746D01*
X10327478Y1762778D01*
X9787236Y1222536D01*
X9175623D01*
X9165903Y1246003D01*
X9624078Y1704178D01*
X9640046Y1699900D01*
X9663954D01*
X9687047Y1706088D01*
X9707752Y1718042D01*
X9724658Y1734948D01*
X9736612Y1755653D01*
X9742800Y1778746D01*
Y1802654D01*
X9736612Y1825747D01*
X9724658Y1846452D01*
X9707752Y1863358D01*
X9687047Y1875312D01*
X9663954Y1881500D01*
X9640046D01*
X9616953Y1875312D01*
X9596248Y1863358D01*
X9579342Y1846452D01*
X9567388Y1825747D01*
X9561200Y1802654D01*
Y1778746D01*
X9565478Y1762778D01*
X9083656Y1280956D01*
X8980043D01*
X8970323Y1304423D01*
X9370078Y1704178D01*
X9386046Y1699900D01*
X9409954D01*
X9433047Y1706088D01*
X9453752Y1718042D01*
X9470658Y1734948D01*
X9482612Y1755653D01*
X9488800Y1778746D01*
Y1802654D01*
X9482612Y1825747D01*
X9470658Y1846452D01*
X9453752Y1863358D01*
X9433047Y1875312D01*
X9409954Y1881500D01*
X9386046D01*
X9362953Y1875312D01*
X9342248Y1863358D01*
X9325342Y1846452D01*
X9313388Y1825747D01*
X9307200Y1802654D01*
Y1778746D01*
X9311478Y1762778D01*
X8885536Y1336836D01*
X7261966D01*
X7249570Y1349233D01*
X7226231Y1358900D01*
X7200969D01*
X7177630Y1349233D01*
X7159767Y1331370D01*
X7150100Y1308031D01*
Y1282769D01*
X7159767Y1259430D01*
X7177630Y1241567D01*
X7200969Y1231900D01*
X7226231D01*
X7249570Y1241567D01*
X7261966Y1253964D01*
X7517257D01*
X7526977Y1230497D01*
X7379316Y1082836D01*
X7261966D01*
X7249570Y1095233D01*
X7226231Y1104900D01*
X7200969D01*
X7177630Y1095233D01*
X7159767Y1077370D01*
X7150100Y1054031D01*
Y1028769D01*
X7159767Y1005430D01*
X7177630Y987567D01*
X7200969Y977900D01*
X7226231D01*
X7249570Y987567D01*
X7261966Y999964D01*
X7396480D01*
X7412337Y1003118D01*
X7425780Y1012100D01*
X7611764Y1198084D01*
X8230997D01*
X8240717Y1174617D01*
X8111400Y1045300D01*
X8102418Y1031857D01*
X8099264Y1016000D01*
Y398164D01*
X8009236Y308136D01*
X4437801D01*
X4158203Y587734D01*
X4164100Y609740D01*
Y634860D01*
X4157598Y659123D01*
X4145039Y680877D01*
X4127277Y698639D01*
X4105523Y711198D01*
X4081260Y717700D01*
X4056140D01*
X4031877Y711198D01*
X4010123Y698639D01*
X3992361Y680877D01*
X3979802Y659123D01*
X3973300Y634860D01*
Y609740D01*
X3979802Y585477D01*
X3992361Y563723D01*
X4010123Y545961D01*
X4031877Y533402D01*
X4056140Y526900D01*
X4081260D01*
X4103266Y532797D01*
X4362880Y273183D01*
X4353160Y249716D01*
X3297721D01*
X3175747Y371691D01*
Y758333D01*
X3188869Y768213D01*
X3201147Y773741D01*
X3213100Y771364D01*
X3611036D01*
X3639300Y743100D01*
X3628779Y717700D01*
X3473300D01*
Y526900D01*
X3664100D01*
Y682379D01*
X3689500Y692900D01*
X3728423Y653977D01*
X3723300Y634860D01*
Y609740D01*
X3729802Y585477D01*
X3742361Y563723D01*
X3760123Y545961D01*
X3781877Y533402D01*
X3806140Y526900D01*
X3831260D01*
X3855523Y533402D01*
X3877277Y545961D01*
X3895039Y563723D01*
X3907598Y585477D01*
X3914100Y609740D01*
Y634860D01*
X3907598Y659123D01*
X3895039Y680877D01*
X3877277Y698639D01*
X3855523Y711198D01*
X3831260Y717700D01*
X3806140D01*
X3787023Y712577D01*
X3657500Y842100D01*
X3644057Y851082D01*
X3628200Y854236D01*
X3226601D01*
X2477247Y1603591D01*
Y1955480D01*
X2479836Y1968500D01*
X2476682Y1984357D01*
X2467700Y1997800D01*
X2290456Y2175044D01*
Y2222054D01*
X2310157Y2230214D01*
X2335937Y2247440D01*
X2357860Y2269364D01*
X2375086Y2295143D01*
X2386951Y2323788D01*
X2393000Y2354197D01*
Y2385203D01*
X2386951Y2415612D01*
X2375086Y2444257D01*
X2357860Y2470037D01*
X2335937Y2491960D01*
X2310157Y2509186D01*
X2281512Y2521051D01*
X2251103Y2527100D01*
D02*
G37*
G36*
X10171954Y1881500D02*
X10148046D01*
X10124953Y1875312D01*
X10104248Y1863358D01*
X10087342Y1846452D01*
X10075388Y1825747D01*
X10069200Y1802654D01*
Y1778746D01*
X10075388Y1755653D01*
X10087342Y1734948D01*
X10104248Y1718042D01*
X10124953Y1706088D01*
X10148046Y1699900D01*
X10171954D01*
X10195047Y1706088D01*
X10215752Y1718042D01*
X10232658Y1734948D01*
X10244612Y1755653D01*
X10250800Y1778746D01*
Y1802654D01*
X10244612Y1825747D01*
X10232658Y1846452D01*
X10215752Y1863358D01*
X10195047Y1875312D01*
X10171954Y1881500D01*
D02*
G37*
G36*
X9917954D02*
X9894046D01*
X9870953Y1875312D01*
X9850248Y1863358D01*
X9833342Y1846452D01*
X9821388Y1825747D01*
X9815200Y1802654D01*
Y1778746D01*
X9821388Y1755653D01*
X9833342Y1734948D01*
X9850248Y1718042D01*
X9870953Y1706088D01*
X9894046Y1699900D01*
X9917954D01*
X9941047Y1706088D01*
X9961752Y1718042D01*
X9978658Y1734948D01*
X9990612Y1755653D01*
X9996800Y1778746D01*
Y1802654D01*
X9990612Y1825747D01*
X9978658Y1846452D01*
X9961752Y1863358D01*
X9941047Y1875312D01*
X9917954Y1881500D01*
D02*
G37*
G36*
X9155954D02*
X9132046D01*
X9108953Y1875312D01*
X9088248Y1863358D01*
X9071342Y1846452D01*
X9059388Y1825747D01*
X9053200Y1802654D01*
Y1778746D01*
X9059388Y1755653D01*
X9071342Y1734948D01*
X9088248Y1718042D01*
X9108953Y1706088D01*
X9132046Y1699900D01*
X9155954D01*
X9179047Y1706088D01*
X9199752Y1718042D01*
X9216658Y1734948D01*
X9228612Y1755653D01*
X9234800Y1778746D01*
Y1802654D01*
X9228612Y1825747D01*
X9216658Y1846452D01*
X9199752Y1863358D01*
X9179047Y1875312D01*
X9155954Y1881500D01*
D02*
G37*
G36*
X8901954D02*
X8878046D01*
X8854953Y1875312D01*
X8834248Y1863358D01*
X8817342Y1846452D01*
X8805388Y1825747D01*
X8799200Y1802654D01*
Y1778746D01*
X8805388Y1755653D01*
X8817342Y1734948D01*
X8834248Y1718042D01*
X8854953Y1706088D01*
X8878046Y1699900D01*
X8901954D01*
X8925047Y1706088D01*
X8945752Y1718042D01*
X8962658Y1734948D01*
X8974612Y1755653D01*
X8980800Y1778746D01*
Y1802654D01*
X8974612Y1825747D01*
X8962658Y1846452D01*
X8945752Y1863358D01*
X8925047Y1875312D01*
X8901954Y1881500D01*
D02*
G37*
G36*
X8647954D02*
X8624046D01*
X8600953Y1875312D01*
X8580248Y1863358D01*
X8563342Y1846452D01*
X8551388Y1825747D01*
X8545200Y1802654D01*
Y1778746D01*
X8551388Y1755653D01*
X8563342Y1734948D01*
X8580248Y1718042D01*
X8600953Y1706088D01*
X8624046Y1699900D01*
X8647954D01*
X8671047Y1706088D01*
X8691752Y1718042D01*
X8708658Y1734948D01*
X8720612Y1755653D01*
X8726800Y1778746D01*
Y1802654D01*
X8720612Y1825747D01*
X8708658Y1846452D01*
X8691752Y1863358D01*
X8671047Y1875312D01*
X8647954Y1881500D01*
D02*
G37*
G36*
X8393954D02*
X8370046D01*
X8346953Y1875312D01*
X8326248Y1863358D01*
X8309342Y1846452D01*
X8297388Y1825747D01*
X8291200Y1802654D01*
Y1778746D01*
X8297388Y1755653D01*
X8309342Y1734948D01*
X8326248Y1718042D01*
X8346953Y1706088D01*
X8370046Y1699900D01*
X8393954D01*
X8417047Y1706088D01*
X8437752Y1718042D01*
X8454658Y1734948D01*
X8466612Y1755653D01*
X8472800Y1778746D01*
Y1802654D01*
X8466612Y1825747D01*
X8454658Y1846452D01*
X8437752Y1863358D01*
X8417047Y1875312D01*
X8393954Y1881500D01*
D02*
G37*
G36*
X8139954D02*
X8116046D01*
X8092953Y1875312D01*
X8072248Y1863358D01*
X8055342Y1846452D01*
X8043388Y1825747D01*
X8037200Y1802654D01*
Y1778746D01*
X8043388Y1755653D01*
X8055342Y1734948D01*
X8072248Y1718042D01*
X8092953Y1706088D01*
X8116046Y1699900D01*
X8139954D01*
X8163047Y1706088D01*
X8183752Y1718042D01*
X8200658Y1734948D01*
X8212612Y1755653D01*
X8218800Y1778746D01*
Y1802654D01*
X8212612Y1825747D01*
X8200658Y1846452D01*
X8183752Y1863358D01*
X8163047Y1875312D01*
X8139954Y1881500D01*
D02*
G37*
G36*
X7377954D02*
X7354046D01*
X7330953Y1875312D01*
X7310248Y1863358D01*
X7293342Y1846452D01*
X7281388Y1825747D01*
X7275200Y1802654D01*
Y1778746D01*
X7281388Y1755653D01*
X7293342Y1734948D01*
X7310248Y1718042D01*
X7330953Y1706088D01*
X7354046Y1699900D01*
X7377954D01*
X7401047Y1706088D01*
X7421752Y1718042D01*
X7438658Y1734948D01*
X7450612Y1755653D01*
X7456800Y1778746D01*
Y1802654D01*
X7450612Y1825747D01*
X7438658Y1846452D01*
X7421752Y1863358D01*
X7401047Y1875312D01*
X7377954Y1881500D01*
D02*
G37*
G36*
X4837954D02*
X4814046D01*
X4790953Y1875312D01*
X4770248Y1863358D01*
X4753342Y1846452D01*
X4741388Y1825747D01*
X4735200Y1802654D01*
Y1778746D01*
X4741388Y1755653D01*
X4753342Y1734948D01*
X4770248Y1718042D01*
X4790953Y1706088D01*
X4814046Y1699900D01*
X4837954D01*
X4861047Y1706088D01*
X4881752Y1718042D01*
X4898658Y1734948D01*
X4910612Y1755653D01*
X4916800Y1778746D01*
Y1802654D01*
X4910612Y1825747D01*
X4898658Y1846452D01*
X4881752Y1863358D01*
X4861047Y1875312D01*
X4837954Y1881500D01*
D02*
G37*
G36*
X4583954D02*
X4560046D01*
X4536953Y1875312D01*
X4516248Y1863358D01*
X4499342Y1846452D01*
X4487388Y1825747D01*
X4481200Y1802654D01*
Y1778746D01*
X4487388Y1755653D01*
X4499342Y1734948D01*
X4516248Y1718042D01*
X4536953Y1706088D01*
X4560046Y1699900D01*
X4583954D01*
X4607047Y1706088D01*
X4627752Y1718042D01*
X4644658Y1734948D01*
X4656612Y1755653D01*
X4662800Y1778746D01*
Y1802654D01*
X4656612Y1825747D01*
X4644658Y1846452D01*
X4627752Y1863358D01*
X4607047Y1875312D01*
X4583954Y1881500D01*
D02*
G37*
G36*
X3518700Y1990800D02*
X3367900D01*
Y1590000D01*
X3518700D01*
Y1990800D01*
D02*
G37*
G36*
X3318700D02*
X3167900D01*
Y1590000D01*
X3318700D01*
Y1990800D01*
D02*
G37*
G36*
X3118700D02*
X2967900D01*
Y1590000D01*
X3118700D01*
Y1990800D01*
D02*
G37*
G36*
X2918700D02*
X2767900D01*
Y1590000D01*
X2918700D01*
Y1990800D01*
D02*
G37*
G36*
X2150826Y1457600D02*
X2116374D01*
X2082584Y1450878D01*
X2050754Y1437694D01*
X2022108Y1418554D01*
X1997746Y1394192D01*
X1978606Y1365546D01*
X1965422Y1333716D01*
X1958700Y1299926D01*
Y1265474D01*
X1965422Y1231684D01*
X1978606Y1199854D01*
X1997746Y1171208D01*
X2022108Y1146846D01*
X2050754Y1127706D01*
X2082584Y1114522D01*
X2116374Y1107800D01*
X2150826D01*
X2184616Y1114522D01*
X2216446Y1127706D01*
X2245092Y1146846D01*
X2269454Y1171208D01*
X2288594Y1199854D01*
X2301778Y1231684D01*
X2308500Y1265474D01*
Y1299926D01*
X2301778Y1333716D01*
X2288594Y1365546D01*
X2269454Y1394192D01*
X2245092Y1418554D01*
X2216446Y1437694D01*
X2184616Y1450878D01*
X2150826Y1457600D01*
D02*
G37*
G36*
X7226300Y850871D02*
Y800100D01*
X7277071D01*
X7267433Y823370D01*
X7249570Y841233D01*
X7226300Y850871D01*
D02*
G37*
G36*
X7200900D02*
X7177630Y841233D01*
X7159767Y823370D01*
X7150129Y800100D01*
X7200900D01*
Y850871D01*
D02*
G37*
G36*
X7277071Y774700D02*
X7226300D01*
Y723929D01*
X7249570Y733567D01*
X7267433Y751430D01*
X7277071Y774700D01*
D02*
G37*
G36*
X7200900D02*
X7150129D01*
X7159767Y751430D01*
X7177630Y733567D01*
X7200900Y723929D01*
Y774700D01*
D02*
G37*
G36*
X4331400Y717662D02*
Y635000D01*
X4414062D01*
X4407598Y659123D01*
X4395039Y680877D01*
X4377277Y698639D01*
X4355523Y711198D01*
X4331400Y717662D01*
D02*
G37*
G36*
X4306000D02*
X4281877Y711198D01*
X4260123Y698639D01*
X4242361Y680877D01*
X4229802Y659123D01*
X4223338Y635000D01*
X4306000D01*
Y717662D01*
D02*
G37*
G36*
X4414062Y609600D02*
X4331400D01*
Y526938D01*
X4355523Y533402D01*
X4377277Y545961D01*
X4395039Y563723D01*
X4407598Y585477D01*
X4414062Y609600D01*
D02*
G37*
G36*
X4306000D02*
X4223338D01*
X4229802Y585477D01*
X4242361Y563723D01*
X4260123Y545961D01*
X4281877Y533402D01*
X4306000Y526938D01*
Y609600D01*
D02*
G37*
%LPD*%
G36*
X3922197Y3602897D02*
X3860100Y3540800D01*
X3767900D01*
Y3182587D01*
X3744433Y3172866D01*
X3718700Y3198600D01*
Y3540800D01*
X3610487D01*
X3600766Y3564266D01*
X3662864Y3626364D01*
X3912477D01*
X3922197Y3602897D01*
D02*
G37*
G36*
X2399553Y1839404D02*
Y1625571D01*
X2376087Y1615850D01*
X2274447Y1717491D01*
Y1771944D01*
X2281512Y1773349D01*
X2310157Y1785214D01*
X2335937Y1802440D01*
X2357860Y1824363D01*
X2374153Y1848748D01*
X2376777Y1849173D01*
X2399553Y1839404D01*
D02*
G37*
D10*
X4243300Y1790400D02*
D03*
X4043300D02*
D03*
X3843300D02*
D03*
X3643300D02*
D03*
X3443300D02*
D03*
X3243300D02*
D03*
X3043300D02*
D03*
X2843300D02*
D03*
Y3340400D02*
D03*
X3043300D02*
D03*
X3243300D02*
D03*
X3443300D02*
D03*
X3643300D02*
D03*
X3843300D02*
D03*
X4043300D02*
D03*
X4243300D02*
D03*
D11*
X8140700Y1016000D02*
X8305800Y1181100D01*
X8140700Y381000D02*
Y1016000D01*
X4424300Y266700D02*
X8026400D01*
X8140700Y381000D01*
X8305800Y1181100D02*
X9804400D01*
X3289300Y208280D02*
X8739854D01*
X8923020Y391446D01*
X8763000Y152400D02*
X8978900Y368300D01*
X8923020Y391446D02*
Y685800D01*
X3187700Y152400D02*
X8763000D01*
X3048000Y292100D02*
X3187700Y152400D01*
X3048000Y292100D02*
Y812800D01*
X1936100Y1924700D02*
X3048000Y812800D01*
X9804400Y1181100D02*
X10414000Y1790700D01*
X7594600Y1239520D02*
X9100820D01*
X7213600Y1295400D02*
X8902700D01*
X9100820Y1239520D02*
X9652000Y1790700D01*
X8902700Y1295400D02*
X9398000Y1790700D01*
X8610600Y787400D02*
X8821420D01*
X8923020Y685800D01*
X8978900Y368300D02*
Y927100D01*
X8864600Y1041400D02*
X8978900Y927100D01*
X8610600Y1041400D02*
X8864600D01*
X7396480D02*
X7594600Y1239520D01*
X7213600Y1041400D02*
X7396480D01*
X7124700Y1574800D02*
Y1577300D01*
X6870700Y1320800D02*
X7124700Y1574800D01*
X6870700Y673100D02*
Y1320800D01*
Y673100D02*
X7010400Y533400D01*
X7213600D01*
X9613900Y3860800D02*
X10160000Y3314700D01*
X9525000Y3860800D02*
X9613900D01*
X9797905Y3333895D02*
X9886805D01*
X9525000Y3606800D02*
X9797905Y3333895D01*
X9886805D02*
X9906000Y3314700D01*
X3628200Y812800D02*
X3818700Y622300D01*
X3213100Y812800D02*
X3628200D01*
X1600600Y1924700D02*
X1936100D01*
X3022600Y4013200D02*
X7810500D01*
X7912100Y4114800D02*
X8128000D01*
X7810500Y4013200D02*
X7912100Y4114800D01*
X3065418Y3957320D02*
X7802880D01*
X7899400Y3860800D02*
X8128000D01*
X7802880Y3957320D02*
X7899400Y3860800D01*
X3443300Y3465400D02*
X3645700Y3667800D01*
X7162863D01*
X3443300Y3340400D02*
Y3465400D01*
X7162863Y3667800D02*
X7508880Y3321784D01*
X7612916D01*
X7620000Y3314700D01*
X7068780Y3611920D02*
X7366000Y3314700D01*
X4133940Y3556040D02*
X6870660D01*
X7112000Y3314700D01*
X3989820Y3611920D02*
X7068780D01*
X3843300Y3465400D02*
X3989820Y3611920D01*
X3843300Y3340400D02*
Y3465400D01*
X4043300D02*
X4133940Y3556040D01*
X4043300Y3340400D02*
Y3465400D01*
X4961960Y1896740D02*
X7005960D01*
X7112000Y1790700D01*
X3643300Y3215400D02*
Y3340400D01*
Y3215400D02*
X4961960Y1896740D01*
X2249020Y2157880D02*
X2438400Y1968500D01*
X2249020Y2157880D02*
Y2356280D01*
X2235600Y2369700D02*
X2249020Y2356280D01*
D12*
X3284220Y208280D02*
X3289300D01*
X3136900Y355600D02*
X3284220Y208280D01*
X4068700Y622300D02*
X4424300Y266700D01*
X7124700Y1577300D02*
X7629171D01*
X3731400D02*
X7124700D01*
X2438400Y1587500D02*
X3213100Y812800D01*
X3136900Y355600D02*
Y800100D01*
X2235600Y1701400D02*
X3136900Y800100D01*
X2438400Y1587500D02*
Y1968500D01*
X2235600Y1701400D02*
Y1924700D01*
X3042920Y3957320D02*
X3065418D01*
X1867036Y2636136D02*
Y2781436D01*
X3042920Y3957320D01*
X1600600Y2814700D02*
X1824100D01*
X3022600Y4013200D01*
X9283700Y4368800D02*
X9525000D01*
X9067800Y4152900D02*
X9283700Y4368800D01*
X9067800Y3895886D02*
Y4152900D01*
X8763000Y3591086D02*
X9067800Y3895886D01*
X6858000Y3314700D02*
X7733486Y2439214D01*
Y1681614D02*
Y2439214D01*
X8443871Y3149600D01*
X8674100D01*
X8763000Y3238500D01*
Y3591086D01*
X7654571Y1602700D02*
X7733486Y1681614D01*
X7629171Y1577300D02*
X7654571Y1602700D01*
X3643300Y1665400D02*
X3731400Y1577300D01*
X3643300Y1665400D02*
Y1790400D01*
X1600600Y2369700D02*
X1867036Y2636136D01*
D13*
X990600Y2369700D02*
D03*
X2133600Y3456700D02*
D03*
Y1282700D02*
D03*
D14*
X1600600Y2814700D02*
D03*
Y1924700D02*
D03*
X2235600Y2369700D02*
D03*
Y1924700D02*
D03*
X1600600Y2369700D02*
D03*
D15*
X2235600Y2814700D02*
D03*
D16*
X6604000Y1790700D02*
D03*
X6350000D02*
D03*
X6096000D02*
D03*
X5842000D02*
D03*
X5588000D02*
D03*
X5334000D02*
D03*
X5080000D02*
D03*
X4826000D02*
D03*
X4572000D02*
D03*
Y3314700D02*
D03*
X4826000D02*
D03*
X5080000D02*
D03*
X5334000D02*
D03*
X5588000D02*
D03*
X5842000D02*
D03*
X6096000D02*
D03*
X6350000D02*
D03*
X6604000D02*
D03*
X10414000Y1790700D02*
D03*
X10160000D02*
D03*
X9906000D02*
D03*
X9652000D02*
D03*
X9398000D02*
D03*
X9144000D02*
D03*
X8890000D02*
D03*
X8636000D02*
D03*
X8382000D02*
D03*
X8128000D02*
D03*
X7874000D02*
D03*
X7620000D02*
D03*
X7366000D02*
D03*
X7112000D02*
D03*
X6858000Y3314700D02*
D03*
X7112000D02*
D03*
X7366000D02*
D03*
X7620000D02*
D03*
X7874000D02*
D03*
X8128000D02*
D03*
X8382000D02*
D03*
X8636000D02*
D03*
X8890000D02*
D03*
X9144000D02*
D03*
X9398000D02*
D03*
X9652000D02*
D03*
X9906000D02*
D03*
X6858000Y1790700D02*
D03*
X5842000Y2298700D02*
D03*
X10160000Y2044700D02*
D03*
X5842000D02*
D03*
Y2552700D02*
D03*
Y2806700D02*
D03*
Y3060700D02*
D03*
X10160000Y3314700D02*
D03*
X10414000D02*
D03*
D17*
X8763000Y3009700D02*
D03*
X9017000D02*
D03*
X9271000D02*
D03*
X9525000D02*
D03*
X9779000D02*
D03*
D18*
X9117000Y2435700D02*
D03*
Y2235700D02*
D03*
X8917000Y2435700D02*
D03*
Y2235700D02*
D03*
X9117000Y2035700D02*
D03*
X8917000D02*
D03*
D19*
X3568700Y622300D02*
D03*
D20*
X3818700D02*
D03*
X4068700D02*
D03*
X4318700D02*
D03*
%TF.MD5,bee8a6d4e8e613a4b864e3a713220f19*%
M02*
