%TF.GenerationSoftware,KiCad,Pcbnew,9.0.4*%
%TF.CreationDate,2025-11-20T22:36:02-07:00*%
%TF.ProjectId,Ready To Drive Light,52656164-7920-4546-9f20-447269766520,rev?*%
%TF.SameCoordinates,Original*%
%TF.FileFunction,Legend,Bot*%
%TF.FilePolarity,Positive*%
%FSLAX46Y46*%
G04 Gerber Fmt 4.6, Leading zero omitted, Abs format (unit mm)*
G04 Created by KiCad (PCBNEW 9.0.4) date 2025-11-20 22:36:02*
%MOMM*%
%LPD*%
G01*
G04 APERTURE LIST*
%ADD10C,2.400000*%
%ADD11C,0.100000*%
G04 APERTURE END LIST*
D10*
G36*
X186762421Y-106360000D02*
G01*
X180351779Y-106360000D01*
X178687752Y-106195868D01*
X177812015Y-106020790D01*
X177277983Y-105801660D01*
X176809255Y-105475997D01*
X176415115Y-105084120D01*
X176089497Y-104620502D01*
X175850114Y-104107009D01*
X175704769Y-103549589D01*
X175654989Y-102938157D01*
X175695148Y-102524898D01*
X179376517Y-102524898D01*
X179422374Y-102889880D01*
X179553196Y-103189823D01*
X179769993Y-103440076D01*
X180055322Y-103613136D01*
X180488007Y-103733767D01*
X181122609Y-103780795D01*
X183015980Y-103780795D01*
X183015980Y-101342274D01*
X181130669Y-101342274D01*
X180483096Y-101387689D01*
X180047811Y-101503237D01*
X179766329Y-101666873D01*
X179550100Y-101905646D01*
X179421269Y-102187065D01*
X179376517Y-102524898D01*
X175695148Y-102524898D01*
X175727336Y-102193672D01*
X175933048Y-101565523D01*
X176266085Y-101030132D01*
X176721313Y-100594156D01*
X177342877Y-100234728D01*
X178171179Y-99958883D01*
X177623048Y-99726375D01*
X177198079Y-99458469D01*
X176875715Y-99158011D01*
X176508110Y-98620567D01*
X176287645Y-98019761D01*
X176273785Y-97894787D01*
X179852058Y-97894787D01*
X179893275Y-98251795D01*
X180007822Y-98530449D01*
X180192044Y-98749148D01*
X180439361Y-98897959D01*
X180824554Y-99003057D01*
X181401046Y-99044438D01*
X183015980Y-99044438D01*
X183015980Y-96793496D01*
X181376866Y-96793496D01*
X180816977Y-96834050D01*
X180438608Y-96937587D01*
X180192044Y-97085122D01*
X180005957Y-97300200D01*
X179892330Y-97565020D01*
X179852058Y-97894787D01*
X176273785Y-97894787D01*
X176211863Y-97336448D01*
X176271298Y-96722582D01*
X176444546Y-96172411D01*
X176731602Y-95672304D01*
X177142428Y-95213000D01*
X177628311Y-94854817D01*
X178219668Y-94587711D01*
X178938148Y-94416494D01*
X179811025Y-94354975D01*
X186762421Y-94354975D01*
X186762421Y-106360000D01*
G37*
G36*
X174923726Y-94354975D02*
G01*
X170799930Y-94354975D01*
X168373866Y-98400369D01*
X165947069Y-94354975D01*
X161848918Y-94354975D01*
X166520795Y-101332016D01*
X166520795Y-106360000D01*
X170243056Y-106360000D01*
X170243056Y-101332016D01*
X174923726Y-94354975D01*
G37*
G36*
X152829762Y-94354975D02*
G01*
X149124354Y-94354975D01*
X149124354Y-101497613D01*
X149208522Y-102537172D01*
X149456280Y-103503824D01*
X149719988Y-104107633D01*
X150065791Y-104655938D01*
X150497487Y-105154661D01*
X150994266Y-105591372D01*
X151489056Y-105918237D01*
X151985659Y-106147508D01*
X152717452Y-106361483D01*
X153576768Y-106498699D01*
X154583914Y-106547578D01*
X155478956Y-106518212D01*
X156498534Y-106424480D01*
X157482189Y-106232810D01*
X158232170Y-105938681D01*
X158890009Y-105506200D01*
X159507117Y-104905533D01*
X160002086Y-104209680D01*
X160297732Y-103523607D01*
X160562750Y-102404909D01*
X160642114Y-101497613D01*
X160642114Y-94354975D01*
X156936706Y-94354975D01*
X156936706Y-101654417D01*
X156870407Y-102284724D01*
X156685957Y-102784761D01*
X156391556Y-103183621D01*
X155996105Y-103481282D01*
X155501550Y-103667193D01*
X154879204Y-103733900D01*
X154261675Y-103668212D01*
X153769572Y-103485008D01*
X153374912Y-103191681D01*
X153081596Y-102797839D01*
X152896657Y-102295976D01*
X152829762Y-101654417D01*
X152829762Y-94354975D01*
G37*
D11*
G36*
X132160694Y-97500000D02*
G01*
X130295533Y-97500000D01*
X130295533Y-95061479D01*
X130131769Y-95061479D01*
X129889752Y-95096631D01*
X129676744Y-95200697D01*
X129536395Y-95346234D01*
X129340788Y-95663782D01*
X128348674Y-97500000D01*
X126250139Y-97500000D01*
X127147732Y-95765265D01*
X127408217Y-95390108D01*
X127596209Y-95171825D01*
X127705338Y-95072836D01*
X127882760Y-94970495D01*
X128188939Y-94850087D01*
X127800775Y-94736929D01*
X127537177Y-94612683D01*
X127304568Y-94445797D01*
X127110374Y-94250720D01*
X126951360Y-94025401D01*
X126835395Y-93775718D01*
X126763340Y-93490879D01*
X126750046Y-93318318D01*
X128602930Y-93318318D01*
X128632345Y-93504008D01*
X128719801Y-93665997D01*
X128853850Y-93788933D01*
X129020952Y-93854309D01*
X129512613Y-93936008D01*
X130295533Y-93936008D01*
X130295533Y-92716748D01*
X129480006Y-92716748D01*
X129140965Y-92739172D01*
X128921903Y-92795157D01*
X128787578Y-92872452D01*
X128687094Y-92987648D01*
X128625116Y-93133150D01*
X128602930Y-93318318D01*
X126750046Y-93318318D01*
X126738136Y-93163712D01*
X126771066Y-92790212D01*
X126865052Y-92469409D01*
X127016939Y-92191381D01*
X127223718Y-91951732D01*
X127466438Y-91771094D01*
X127750401Y-91644766D01*
X128059229Y-91569777D01*
X128487716Y-91517419D01*
X129066015Y-91497487D01*
X132160694Y-91497487D01*
X132160694Y-97500000D01*
G37*
G36*
X124192898Y-93073433D02*
G01*
X124598572Y-93154255D01*
X124952371Y-93282663D01*
X125261646Y-93456477D01*
X125532065Y-93676256D01*
X125814995Y-94011566D01*
X126017290Y-94392055D01*
X126142096Y-94826584D01*
X126185659Y-95327459D01*
X126147539Y-95796458D01*
X126037887Y-96209225D01*
X125859961Y-96575662D01*
X125617914Y-96904087D01*
X125344842Y-97159492D01*
X125038206Y-97350157D01*
X124697984Y-97477026D01*
X124252681Y-97562149D01*
X123677163Y-97593789D01*
X123014490Y-97555652D01*
X122516549Y-97454293D01*
X122148691Y-97305094D01*
X121822315Y-97080586D01*
X121519412Y-96767728D01*
X121238642Y-96351081D01*
X122882152Y-96210397D01*
X123041873Y-96386388D01*
X123173046Y-96485903D01*
X123401628Y-96578460D01*
X123640526Y-96609002D01*
X123886903Y-96576319D01*
X124094098Y-96481877D01*
X124271772Y-96322871D01*
X124365957Y-96180500D01*
X124440026Y-95983906D01*
X124489026Y-95718004D01*
X121144487Y-95718004D01*
X121144487Y-95530425D01*
X121179981Y-94964695D01*
X121189366Y-94920795D01*
X122841120Y-94920795D01*
X124484996Y-94920795D01*
X124410473Y-94566587D01*
X124292288Y-94341573D01*
X124114935Y-94167586D01*
X123906667Y-94065167D01*
X123657013Y-94029797D01*
X123435839Y-94054254D01*
X123253568Y-94123553D01*
X123101605Y-94236427D01*
X122987348Y-94388415D01*
X122898279Y-94609218D01*
X122841120Y-94920795D01*
X121189366Y-94920795D01*
X121277587Y-94508107D01*
X121427320Y-94141172D01*
X121645012Y-93812864D01*
X121917750Y-93542985D01*
X122251273Y-93326378D01*
X122623164Y-93179328D01*
X123106102Y-93081303D01*
X123726622Y-93045010D01*
X124192898Y-93073433D01*
G37*
G36*
X118660885Y-93063033D02*
G01*
X119071231Y-93114619D01*
X119448098Y-93204015D01*
X119702477Y-93310624D01*
X119991353Y-93508024D01*
X120192306Y-93725715D01*
X120335867Y-93993029D01*
X120452424Y-94381507D01*
X118858007Y-94545638D01*
X118736510Y-94296816D01*
X118599720Y-94160956D01*
X118364756Y-94067305D01*
X117984961Y-94029797D01*
X117696295Y-94066248D01*
X117538363Y-94155094D01*
X117448029Y-94310574D01*
X117411235Y-94592533D01*
X118001448Y-94791102D01*
X119218876Y-95055251D01*
X119732094Y-95193341D01*
X120075303Y-95354280D01*
X120292690Y-95530059D01*
X120451927Y-95757984D01*
X120549396Y-96025910D01*
X120583583Y-96344853D01*
X120558021Y-96600093D01*
X120483288Y-96829794D01*
X120358886Y-97039709D01*
X120179849Y-97233653D01*
X119970082Y-97382644D01*
X119710563Y-97494908D01*
X119390749Y-97567524D01*
X118997592Y-97593789D01*
X118609990Y-97572089D01*
X118269170Y-97510195D01*
X117968841Y-97411706D01*
X117655039Y-97237483D01*
X117317079Y-96956681D01*
X117259926Y-97238782D01*
X117136828Y-97500000D01*
X115570987Y-97500000D01*
X115684803Y-97238425D01*
X115741346Y-97054867D01*
X115769065Y-96863856D01*
X115780181Y-96572732D01*
X115780181Y-95698953D01*
X117411235Y-95698953D01*
X117438664Y-95988490D01*
X117511618Y-96197941D01*
X117641753Y-96370029D01*
X117851971Y-96522906D01*
X118100824Y-96622508D01*
X118370376Y-96655896D01*
X118614189Y-96622067D01*
X118774110Y-96532798D01*
X118876705Y-96393044D01*
X118911496Y-96215893D01*
X118877841Y-96057859D01*
X118772278Y-95912909D01*
X118584966Y-95800377D01*
X118128576Y-95650593D01*
X117411235Y-95436636D01*
X117411235Y-95698953D01*
X115780181Y-95698953D01*
X115780181Y-94648953D01*
X115809765Y-94339911D01*
X115903279Y-94003053D01*
X116053884Y-93694897D01*
X116239235Y-93479884D01*
X116453632Y-93325127D01*
X116704311Y-93207971D01*
X116997609Y-93129274D01*
X117489013Y-93068770D01*
X118202215Y-93045010D01*
X118660885Y-93063033D01*
G37*
G36*
X111882798Y-93568178D02*
G01*
X112148091Y-93338241D01*
X112446266Y-93175802D01*
X112776381Y-93078729D01*
X113153349Y-93045010D01*
X113541865Y-93082134D01*
X113885364Y-93189689D01*
X114193047Y-93366746D01*
X114471161Y-93618736D01*
X114686784Y-93917502D01*
X114848271Y-94283205D01*
X114952151Y-94729713D01*
X114989567Y-95274337D01*
X114958073Y-95755919D01*
X114867412Y-96185518D01*
X114721223Y-96570730D01*
X114520254Y-96917847D01*
X114315132Y-97161774D01*
X114081531Y-97347956D01*
X113815905Y-97481859D01*
X113512089Y-97564792D01*
X113161775Y-97593789D01*
X112871396Y-97572277D01*
X112604952Y-97509436D01*
X112358339Y-97406210D01*
X112094885Y-97216365D01*
X111760066Y-96855198D01*
X111760066Y-97500000D01*
X110198255Y-97500000D01*
X110198255Y-95306577D01*
X111870708Y-95306577D01*
X111899474Y-95680270D01*
X111974394Y-95943282D01*
X112083932Y-96123935D01*
X112239697Y-96264475D01*
X112414859Y-96346559D01*
X112616625Y-96374528D01*
X112804627Y-96347188D01*
X112969823Y-96266281D01*
X113118911Y-96126133D01*
X113223579Y-95948044D01*
X113294516Y-95695293D01*
X113321510Y-95343579D01*
X113294445Y-94965147D01*
X113224793Y-94704379D01*
X113124773Y-94530251D01*
X112980113Y-94393370D01*
X112819750Y-94314399D01*
X112637142Y-94287718D01*
X112427376Y-94316158D01*
X112246853Y-94399205D01*
X112087962Y-94540509D01*
X111974291Y-94721786D01*
X111898939Y-94970203D01*
X111870708Y-95306577D01*
X110198255Y-95306577D01*
X110198255Y-91497487D01*
X111882798Y-91497487D01*
X111882798Y-93568178D01*
G37*
G36*
X109666294Y-93138799D02*
G01*
X107903715Y-93138799D01*
X107006123Y-96042236D01*
X106174110Y-93138799D01*
X104530600Y-93138799D01*
X106256175Y-97805914D01*
X106479920Y-98334251D01*
X106680286Y-98678269D01*
X106858845Y-98886322D01*
X107084513Y-99048457D01*
X107370709Y-99171875D01*
X107731098Y-99252552D01*
X108182519Y-99281995D01*
X108591913Y-99262078D01*
X109297365Y-99185642D01*
X109428524Y-98034891D01*
X109054759Y-98124964D01*
X108625087Y-98156524D01*
X108350874Y-98118641D01*
X108147714Y-98014009D01*
X107989845Y-97832589D01*
X107838136Y-97504030D01*
X109666294Y-93138799D01*
G37*
G36*
X101568911Y-91497487D02*
G01*
X95925069Y-91497487D01*
X95925069Y-92974668D01*
X97818806Y-92974668D01*
X97818806Y-97500000D01*
X99675540Y-97500000D01*
X99675540Y-92974668D01*
X101568911Y-92974668D01*
X101568911Y-91497487D01*
G37*
G36*
X93943293Y-93073697D02*
G01*
X94348029Y-93155617D01*
X94704447Y-93286426D01*
X95019328Y-93464406D01*
X95297854Y-93690544D01*
X95591127Y-94034063D01*
X95798852Y-94416322D01*
X95925802Y-94845202D01*
X95969766Y-95331856D01*
X95936496Y-95752251D01*
X95840165Y-96128648D01*
X95682988Y-96468693D01*
X95463113Y-96778266D01*
X95174755Y-97061095D01*
X94839032Y-97287020D01*
X94451032Y-97452821D01*
X94001233Y-97557041D01*
X93477756Y-97593789D01*
X93001271Y-97564875D01*
X92587044Y-97482695D01*
X92226118Y-97352204D01*
X91910941Y-97175689D01*
X91635676Y-96952651D01*
X91345712Y-96611328D01*
X91139719Y-96229262D01*
X91013457Y-95798292D01*
X90969626Y-95306943D01*
X90970126Y-95300715D01*
X92645743Y-95300715D01*
X92676810Y-95704718D01*
X92758041Y-95991665D01*
X92877285Y-96190980D01*
X93047378Y-96345971D01*
X93241998Y-96437068D01*
X93469696Y-96468318D01*
X93694377Y-96436928D01*
X93889142Y-96344808D01*
X94062107Y-96186950D01*
X94184597Y-95984981D01*
X94266686Y-95703472D01*
X94297679Y-95317201D01*
X94266632Y-94936980D01*
X94183991Y-94657197D01*
X94059909Y-94454047D01*
X93885467Y-94295297D01*
X93687399Y-94202288D01*
X93457240Y-94170481D01*
X93240502Y-94201384D01*
X93050468Y-94292616D01*
X92879483Y-94450017D01*
X92757521Y-94650222D01*
X92676271Y-94925970D01*
X92645743Y-95300715D01*
X90970126Y-95300715D01*
X91004940Y-94867309D01*
X91107048Y-94475348D01*
X91273505Y-94122706D01*
X91506350Y-93803018D01*
X91786797Y-93539675D01*
X92115879Y-93331597D01*
X92501010Y-93177370D01*
X92952323Y-93079651D01*
X93482152Y-93045010D01*
X93943293Y-93073697D01*
G37*
G36*
X132205757Y-101577487D02*
G01*
X129762840Y-101577487D01*
X128820184Y-105227208D01*
X127881559Y-101577487D01*
X125447069Y-101577487D01*
X125447069Y-107580000D01*
X126963450Y-107580000D01*
X126963450Y-102997515D01*
X128139846Y-107580000D01*
X129512979Y-107580000D01*
X130684979Y-102997515D01*
X130684979Y-107580000D01*
X132205757Y-107580000D01*
X132205757Y-101577487D01*
G37*
G36*
X122549015Y-103153697D02*
G01*
X122953752Y-103235617D01*
X123310170Y-103366426D01*
X123625050Y-103544406D01*
X123903576Y-103770544D01*
X124196849Y-104114063D01*
X124404574Y-104496322D01*
X124531524Y-104925202D01*
X124575488Y-105411856D01*
X124542218Y-105832251D01*
X124445887Y-106208648D01*
X124288710Y-106548693D01*
X124068836Y-106858266D01*
X123780478Y-107141095D01*
X123444754Y-107367020D01*
X123056754Y-107532821D01*
X122606955Y-107637041D01*
X122083478Y-107673789D01*
X121606993Y-107644875D01*
X121192766Y-107562695D01*
X120831840Y-107432204D01*
X120516663Y-107255689D01*
X120241399Y-107032651D01*
X119951434Y-106691328D01*
X119745441Y-106309262D01*
X119619180Y-105878292D01*
X119575348Y-105386943D01*
X119575848Y-105380715D01*
X121251465Y-105380715D01*
X121282532Y-105784718D01*
X121363764Y-106071665D01*
X121483007Y-106270980D01*
X121653100Y-106425971D01*
X121847720Y-106517068D01*
X122075418Y-106548318D01*
X122300099Y-106516928D01*
X122494864Y-106424808D01*
X122667829Y-106266950D01*
X122790319Y-106064981D01*
X122872409Y-105783472D01*
X122903401Y-105397201D01*
X122872354Y-105016980D01*
X122789714Y-104737197D01*
X122665631Y-104534047D01*
X122491189Y-104375297D01*
X122293121Y-104282288D01*
X122062962Y-104250481D01*
X121846224Y-104281384D01*
X121656190Y-104372616D01*
X121485205Y-104530017D01*
X121363243Y-104730222D01*
X121281994Y-105005970D01*
X121251465Y-105380715D01*
X119575848Y-105380715D01*
X119610662Y-104947309D01*
X119712770Y-104555348D01*
X119879227Y-104202706D01*
X120112072Y-103883018D01*
X120392519Y-103619675D01*
X120721601Y-103411597D01*
X121106732Y-103257370D01*
X121558046Y-103159651D01*
X122087875Y-103125010D01*
X122549015Y-103153697D01*
G37*
G36*
X119555931Y-103218799D02*
G01*
X117817899Y-103218799D01*
X116973429Y-105982651D01*
X116100750Y-103218799D01*
X114415840Y-103218799D01*
X116264515Y-107580000D01*
X117744260Y-107580000D01*
X119555931Y-103218799D01*
G37*
G36*
X112363728Y-103153433D02*
G01*
X112769402Y-103234255D01*
X113123201Y-103362663D01*
X113432477Y-103536477D01*
X113702896Y-103756256D01*
X113985826Y-104091566D01*
X114188120Y-104472055D01*
X114312926Y-104906584D01*
X114356489Y-105407459D01*
X114318369Y-105876458D01*
X114208717Y-106289225D01*
X114030792Y-106655662D01*
X113788744Y-106984087D01*
X113515673Y-107239492D01*
X113209036Y-107430157D01*
X112868814Y-107557026D01*
X112423511Y-107642149D01*
X111847993Y-107673789D01*
X111185320Y-107635652D01*
X110687379Y-107534293D01*
X110319521Y-107385094D01*
X109993145Y-107160586D01*
X109690243Y-106847728D01*
X109409473Y-106431081D01*
X111052983Y-106290397D01*
X111212703Y-106466388D01*
X111343876Y-106565903D01*
X111572458Y-106658460D01*
X111811357Y-106689002D01*
X112057733Y-106656319D01*
X112264929Y-106561877D01*
X112442602Y-106402871D01*
X112536788Y-106260500D01*
X112610856Y-106063906D01*
X112659856Y-105798004D01*
X109315317Y-105798004D01*
X109315317Y-105610425D01*
X109350811Y-105044695D01*
X109360196Y-105000795D01*
X111011950Y-105000795D01*
X112655826Y-105000795D01*
X112581303Y-104646587D01*
X112463119Y-104421573D01*
X112285766Y-104247586D01*
X112077497Y-104145167D01*
X111827843Y-104109797D01*
X111606669Y-104134254D01*
X111424398Y-104203553D01*
X111272435Y-104316427D01*
X111158179Y-104468415D01*
X111069109Y-104689218D01*
X111011950Y-105000795D01*
X109360196Y-105000795D01*
X109448418Y-104588107D01*
X109598150Y-104221172D01*
X109815842Y-103892864D01*
X110088581Y-103622985D01*
X110422103Y-103406378D01*
X110793994Y-103259328D01*
X111276933Y-103161303D01*
X111897452Y-103125010D01*
X112363728Y-103153433D01*
G37*
G36*
X105642882Y-101577487D02*
G01*
X103786147Y-101577487D01*
X103786147Y-106102819D01*
X100888206Y-106102819D01*
X100888206Y-107580000D01*
X105642882Y-107580000D01*
X105642882Y-101577487D01*
G37*
G36*
X100093928Y-101577487D02*
G01*
X98425872Y-101577487D01*
X98425872Y-102702958D01*
X100093928Y-102702958D01*
X100093928Y-101577487D01*
G37*
G36*
X100093928Y-103218799D02*
G01*
X98425872Y-103218799D01*
X98425872Y-107580000D01*
X100093928Y-107580000D01*
X100093928Y-103218799D01*
G37*
G36*
X96174374Y-103160196D02*
G01*
X96512515Y-103261234D01*
X96809626Y-103425684D01*
X97072522Y-103656971D01*
X97277021Y-103934619D01*
X97430128Y-104275515D01*
X97528662Y-104692901D01*
X97564183Y-105203394D01*
X97537265Y-105650893D01*
X97461514Y-106031590D01*
X97342530Y-106355610D01*
X97183164Y-106631482D01*
X96947017Y-106913305D01*
X96691587Y-107123990D01*
X96414360Y-107272047D01*
X96110458Y-107361671D01*
X95773028Y-107392421D01*
X95480321Y-107369628D01*
X95204207Y-107302194D01*
X94941015Y-107189822D01*
X94705085Y-107029259D01*
X94449354Y-106772899D01*
X94449354Y-107436751D01*
X94473960Y-107755306D01*
X94537039Y-107971375D01*
X94627773Y-108113060D01*
X94759009Y-108216466D01*
X94933927Y-108282572D01*
X95166329Y-108306866D01*
X95427820Y-108272837D01*
X95629413Y-108177906D01*
X95734724Y-108063884D01*
X95818091Y-107861367D01*
X97437421Y-107673789D01*
X97445481Y-107897637D01*
X97413402Y-108221813D01*
X97321194Y-108502072D01*
X97170229Y-108747434D01*
X96955652Y-108963757D01*
X96706778Y-109116714D01*
X96347171Y-109241841D01*
X95842990Y-109328810D01*
X95154239Y-109361995D01*
X94597526Y-109334693D01*
X94135746Y-109259047D01*
X93720204Y-109119738D01*
X93402285Y-108925655D01*
X93145049Y-108663927D01*
X92939200Y-108322986D01*
X92808418Y-107941003D01*
X92764811Y-107539333D01*
X92768841Y-107345893D01*
X92768841Y-105322096D01*
X94436898Y-105322096D01*
X94464088Y-105631878D01*
X94537015Y-105862177D01*
X94647923Y-106031744D01*
X94801262Y-106163347D01*
X94973275Y-106240592D01*
X95170725Y-106266950D01*
X95379102Y-106240706D01*
X95552562Y-106165447D01*
X95699389Y-106040170D01*
X95804326Y-105876461D01*
X95873993Y-105650394D01*
X95900157Y-105342247D01*
X95874146Y-104987982D01*
X95806891Y-104741756D01*
X95709647Y-104575446D01*
X95568912Y-104447439D01*
X95401625Y-104370933D01*
X95199302Y-104344270D01*
X94997283Y-104372162D01*
X94819184Y-104454471D01*
X94658182Y-104595963D01*
X94540829Y-104776263D01*
X94464843Y-105012853D01*
X94436898Y-105322096D01*
X92768841Y-105322096D01*
X92768841Y-103218799D01*
X94330286Y-103218799D01*
X94330286Y-103870928D01*
X94536322Y-103618983D01*
X94741552Y-103431308D01*
X94947243Y-103298300D01*
X95173660Y-103206031D01*
X95449656Y-103146480D01*
X95785484Y-103125010D01*
X96174374Y-103160196D01*
G37*
G36*
X91761339Y-101577487D02*
G01*
X90093283Y-101577487D01*
X90093283Y-103787397D01*
X89741387Y-103472582D01*
X89416974Y-103278150D01*
X89060875Y-103165428D01*
X88621598Y-103125010D01*
X88285835Y-103153293D01*
X88001152Y-103233454D01*
X87758153Y-103361818D01*
X87549982Y-103539368D01*
X87389230Y-103755658D01*
X87267154Y-104030314D01*
X87187433Y-104376599D01*
X87158339Y-104811018D01*
X87158339Y-107580000D01*
X88834822Y-107580000D01*
X88834822Y-105187641D01*
X88855598Y-104917274D01*
X88909126Y-104731649D01*
X88986496Y-104608053D01*
X89097957Y-104515590D01*
X89237304Y-104458470D01*
X89412944Y-104438060D01*
X89604392Y-104464110D01*
X89765893Y-104539619D01*
X89904972Y-104667404D01*
X89999259Y-104833387D01*
X90066606Y-105095359D01*
X90093283Y-105490990D01*
X90093283Y-107580000D01*
X91761339Y-107580000D01*
X91761339Y-101577487D01*
G37*
G36*
X84150854Y-101577487D02*
G01*
X84150854Y-103218799D01*
X83232745Y-103218799D01*
X83232745Y-104438060D01*
X84150854Y-104438060D01*
X84150854Y-105990711D01*
X84133958Y-106246296D01*
X84097732Y-106361472D01*
X83989566Y-106464147D01*
X83810868Y-106501423D01*
X83610574Y-106478932D01*
X83294295Y-106394445D01*
X83171196Y-107539333D01*
X83781791Y-107641583D01*
X84327076Y-107673789D01*
X84743839Y-107651837D01*
X85040430Y-107594978D01*
X85245184Y-107514054D01*
X85423835Y-107389681D01*
X85568430Y-107229291D01*
X85681524Y-107027889D01*
X85752018Y-106803202D01*
X85802960Y-106463627D01*
X85822941Y-105972027D01*
X85822941Y-104438060D01*
X86437700Y-104438060D01*
X86437700Y-103218799D01*
X85822941Y-103218799D01*
X85822941Y-102426720D01*
X84150854Y-101577487D01*
G37*
M02*
