%TF.GenerationSoftware,KiCad,Pcbnew,9.0.4*%
%TF.CreationDate,2025-11-20T22:36:02-07:00*%
%TF.ProjectId,Ready To Drive Light,52656164-7920-4546-9f20-447269766520,rev?*%
%TF.SameCoordinates,Original*%
%TF.FileFunction,Legend,Top*%
%TF.FilePolarity,Positive*%
%FSLAX46Y46*%
G04 Gerber Fmt 4.6, Leading zero omitted, Abs format (unit mm)*
G04 Created by KiCad (PCBNEW 9.0.4) date 2025-11-20 22:36:02*
%MOMM*%
%LPD*%
G01*
G04 APERTURE LIST*
%ADD10C,0.100000*%
%ADD11C,0.031250*%
%ADD12C,0.087500*%
%ADD13C,0.062500*%
%ADD14C,0.187500*%
%ADD15C,0.050000*%
%ADD16C,0.150000*%
%ADD17C,0.152400*%
%ADD18C,0.508000*%
%ADD19C,0.120000*%
G04 APERTURE END LIST*
D10*
X88351503Y-98935707D02*
X88651503Y-99835707D01*
X88651503Y-99835707D02*
X88951503Y-98935707D01*
X89380075Y-99835707D02*
X89294360Y-99792850D01*
X89294360Y-99792850D02*
X89251503Y-99749992D01*
X89251503Y-99749992D02*
X89208646Y-99664278D01*
X89208646Y-99664278D02*
X89208646Y-99407135D01*
X89208646Y-99407135D02*
X89251503Y-99321421D01*
X89251503Y-99321421D02*
X89294360Y-99278564D01*
X89294360Y-99278564D02*
X89380075Y-99235707D01*
X89380075Y-99235707D02*
X89508646Y-99235707D01*
X89508646Y-99235707D02*
X89594360Y-99278564D01*
X89594360Y-99278564D02*
X89637218Y-99321421D01*
X89637218Y-99321421D02*
X89680075Y-99407135D01*
X89680075Y-99407135D02*
X89680075Y-99664278D01*
X89680075Y-99664278D02*
X89637218Y-99749992D01*
X89637218Y-99749992D02*
X89594360Y-99792850D01*
X89594360Y-99792850D02*
X89508646Y-99835707D01*
X89508646Y-99835707D02*
X89380075Y-99835707D01*
X90194361Y-99835707D02*
X90108646Y-99792850D01*
X90108646Y-99792850D02*
X90065789Y-99707135D01*
X90065789Y-99707135D02*
X90065789Y-98935707D01*
X90408647Y-99235707D02*
X90751504Y-99235707D01*
X90537218Y-98935707D02*
X90537218Y-99707135D01*
X90537218Y-99707135D02*
X90580075Y-99792850D01*
X90580075Y-99792850D02*
X90665790Y-99835707D01*
X90665790Y-99835707D02*
X90751504Y-99835707D01*
X91437219Y-99835707D02*
X91437219Y-99364278D01*
X91437219Y-99364278D02*
X91394361Y-99278564D01*
X91394361Y-99278564D02*
X91308647Y-99235707D01*
X91308647Y-99235707D02*
X91137219Y-99235707D01*
X91137219Y-99235707D02*
X91051504Y-99278564D01*
X91437219Y-99792850D02*
X91351504Y-99835707D01*
X91351504Y-99835707D02*
X91137219Y-99835707D01*
X91137219Y-99835707D02*
X91051504Y-99792850D01*
X91051504Y-99792850D02*
X91008647Y-99707135D01*
X91008647Y-99707135D02*
X91008647Y-99621421D01*
X91008647Y-99621421D02*
X91051504Y-99535707D01*
X91051504Y-99535707D02*
X91137219Y-99492850D01*
X91137219Y-99492850D02*
X91351504Y-99492850D01*
X91351504Y-99492850D02*
X91437219Y-99449992D01*
X92251505Y-99235707D02*
X92251505Y-99964278D01*
X92251505Y-99964278D02*
X92208647Y-100049992D01*
X92208647Y-100049992D02*
X92165790Y-100092850D01*
X92165790Y-100092850D02*
X92080076Y-100135707D01*
X92080076Y-100135707D02*
X91951505Y-100135707D01*
X91951505Y-100135707D02*
X91865790Y-100092850D01*
X92251505Y-99792850D02*
X92165790Y-99835707D01*
X92165790Y-99835707D02*
X91994362Y-99835707D01*
X91994362Y-99835707D02*
X91908647Y-99792850D01*
X91908647Y-99792850D02*
X91865790Y-99749992D01*
X91865790Y-99749992D02*
X91822933Y-99664278D01*
X91822933Y-99664278D02*
X91822933Y-99407135D01*
X91822933Y-99407135D02*
X91865790Y-99321421D01*
X91865790Y-99321421D02*
X91908647Y-99278564D01*
X91908647Y-99278564D02*
X91994362Y-99235707D01*
X91994362Y-99235707D02*
X92165790Y-99235707D01*
X92165790Y-99235707D02*
X92251505Y-99278564D01*
X93022933Y-99792850D02*
X92937219Y-99835707D01*
X92937219Y-99835707D02*
X92765791Y-99835707D01*
X92765791Y-99835707D02*
X92680076Y-99792850D01*
X92680076Y-99792850D02*
X92637219Y-99707135D01*
X92637219Y-99707135D02*
X92637219Y-99364278D01*
X92637219Y-99364278D02*
X92680076Y-99278564D01*
X92680076Y-99278564D02*
X92765791Y-99235707D01*
X92765791Y-99235707D02*
X92937219Y-99235707D01*
X92937219Y-99235707D02*
X93022933Y-99278564D01*
X93022933Y-99278564D02*
X93065791Y-99364278D01*
X93065791Y-99364278D02*
X93065791Y-99449992D01*
X93065791Y-99449992D02*
X92637219Y-99535707D01*
X94137219Y-99835707D02*
X94137219Y-98935707D01*
X94137219Y-98935707D02*
X94351505Y-98935707D01*
X94351505Y-98935707D02*
X94480076Y-98978564D01*
X94480076Y-98978564D02*
X94565791Y-99064278D01*
X94565791Y-99064278D02*
X94608648Y-99149992D01*
X94608648Y-99149992D02*
X94651505Y-99321421D01*
X94651505Y-99321421D02*
X94651505Y-99449992D01*
X94651505Y-99449992D02*
X94608648Y-99621421D01*
X94608648Y-99621421D02*
X94565791Y-99707135D01*
X94565791Y-99707135D02*
X94480076Y-99792850D01*
X94480076Y-99792850D02*
X94351505Y-99835707D01*
X94351505Y-99835707D02*
X94137219Y-99835707D01*
X95037219Y-99835707D02*
X95037219Y-99235707D01*
X95037219Y-98935707D02*
X94994362Y-98978564D01*
X94994362Y-98978564D02*
X95037219Y-99021421D01*
X95037219Y-99021421D02*
X95080076Y-98978564D01*
X95080076Y-98978564D02*
X95037219Y-98935707D01*
X95037219Y-98935707D02*
X95037219Y-99021421D01*
X95380076Y-99235707D02*
X95594362Y-99835707D01*
X95594362Y-99835707D02*
X95808647Y-99235707D01*
X96151504Y-99835707D02*
X96151504Y-99235707D01*
X96151504Y-98935707D02*
X96108647Y-98978564D01*
X96108647Y-98978564D02*
X96151504Y-99021421D01*
X96151504Y-99021421D02*
X96194361Y-98978564D01*
X96194361Y-98978564D02*
X96151504Y-98935707D01*
X96151504Y-98935707D02*
X96151504Y-99021421D01*
X96965790Y-99835707D02*
X96965790Y-98935707D01*
X96965790Y-99792850D02*
X96880075Y-99835707D01*
X96880075Y-99835707D02*
X96708647Y-99835707D01*
X96708647Y-99835707D02*
X96622932Y-99792850D01*
X96622932Y-99792850D02*
X96580075Y-99749992D01*
X96580075Y-99749992D02*
X96537218Y-99664278D01*
X96537218Y-99664278D02*
X96537218Y-99407135D01*
X96537218Y-99407135D02*
X96580075Y-99321421D01*
X96580075Y-99321421D02*
X96622932Y-99278564D01*
X96622932Y-99278564D02*
X96708647Y-99235707D01*
X96708647Y-99235707D02*
X96880075Y-99235707D01*
X96880075Y-99235707D02*
X96965790Y-99278564D01*
X97737218Y-99792850D02*
X97651504Y-99835707D01*
X97651504Y-99835707D02*
X97480076Y-99835707D01*
X97480076Y-99835707D02*
X97394361Y-99792850D01*
X97394361Y-99792850D02*
X97351504Y-99707135D01*
X97351504Y-99707135D02*
X97351504Y-99364278D01*
X97351504Y-99364278D02*
X97394361Y-99278564D01*
X97394361Y-99278564D02*
X97480076Y-99235707D01*
X97480076Y-99235707D02*
X97651504Y-99235707D01*
X97651504Y-99235707D02*
X97737218Y-99278564D01*
X97737218Y-99278564D02*
X97780076Y-99364278D01*
X97780076Y-99364278D02*
X97780076Y-99449992D01*
X97780076Y-99449992D02*
X97351504Y-99535707D01*
X98165790Y-99835707D02*
X98165790Y-99235707D01*
X98165790Y-99407135D02*
X98208647Y-99321421D01*
X98208647Y-99321421D02*
X98251505Y-99278564D01*
X98251505Y-99278564D02*
X98337219Y-99235707D01*
X98337219Y-99235707D02*
X98422933Y-99235707D01*
X89722931Y-100384657D02*
X90237217Y-100384657D01*
X89980074Y-101284657D02*
X89980074Y-100384657D01*
X90880073Y-101241800D02*
X90794359Y-101284657D01*
X90794359Y-101284657D02*
X90622931Y-101284657D01*
X90622931Y-101284657D02*
X90537216Y-101241800D01*
X90537216Y-101241800D02*
X90494359Y-101156085D01*
X90494359Y-101156085D02*
X90494359Y-100813228D01*
X90494359Y-100813228D02*
X90537216Y-100727514D01*
X90537216Y-100727514D02*
X90622931Y-100684657D01*
X90622931Y-100684657D02*
X90794359Y-100684657D01*
X90794359Y-100684657D02*
X90880073Y-100727514D01*
X90880073Y-100727514D02*
X90922931Y-100813228D01*
X90922931Y-100813228D02*
X90922931Y-100898942D01*
X90922931Y-100898942D02*
X90494359Y-100984657D01*
X91265788Y-101241800D02*
X91351502Y-101284657D01*
X91351502Y-101284657D02*
X91522931Y-101284657D01*
X91522931Y-101284657D02*
X91608645Y-101241800D01*
X91608645Y-101241800D02*
X91651502Y-101156085D01*
X91651502Y-101156085D02*
X91651502Y-101113228D01*
X91651502Y-101113228D02*
X91608645Y-101027514D01*
X91608645Y-101027514D02*
X91522931Y-100984657D01*
X91522931Y-100984657D02*
X91394360Y-100984657D01*
X91394360Y-100984657D02*
X91308645Y-100941800D01*
X91308645Y-100941800D02*
X91265788Y-100856085D01*
X91265788Y-100856085D02*
X91265788Y-100813228D01*
X91265788Y-100813228D02*
X91308645Y-100727514D01*
X91308645Y-100727514D02*
X91394360Y-100684657D01*
X91394360Y-100684657D02*
X91522931Y-100684657D01*
X91522931Y-100684657D02*
X91608645Y-100727514D01*
X91908645Y-100684657D02*
X92251502Y-100684657D01*
X92037216Y-100384657D02*
X92037216Y-101156085D01*
X92037216Y-101156085D02*
X92080073Y-101241800D01*
X92080073Y-101241800D02*
X92165788Y-101284657D01*
X92165788Y-101284657D02*
X92251502Y-101284657D01*
X93237216Y-101284657D02*
X93237216Y-100384657D01*
X93237216Y-100384657D02*
X93580073Y-100384657D01*
X93580073Y-100384657D02*
X93665788Y-100427514D01*
X93665788Y-100427514D02*
X93708645Y-100470371D01*
X93708645Y-100470371D02*
X93751502Y-100556085D01*
X93751502Y-100556085D02*
X93751502Y-100684657D01*
X93751502Y-100684657D02*
X93708645Y-100770371D01*
X93708645Y-100770371D02*
X93665788Y-100813228D01*
X93665788Y-100813228D02*
X93580073Y-100856085D01*
X93580073Y-100856085D02*
X93237216Y-100856085D01*
X94265788Y-101284657D02*
X94180073Y-101241800D01*
X94180073Y-101241800D02*
X94137216Y-101198942D01*
X94137216Y-101198942D02*
X94094359Y-101113228D01*
X94094359Y-101113228D02*
X94094359Y-100856085D01*
X94094359Y-100856085D02*
X94137216Y-100770371D01*
X94137216Y-100770371D02*
X94180073Y-100727514D01*
X94180073Y-100727514D02*
X94265788Y-100684657D01*
X94265788Y-100684657D02*
X94394359Y-100684657D01*
X94394359Y-100684657D02*
X94480073Y-100727514D01*
X94480073Y-100727514D02*
X94522931Y-100770371D01*
X94522931Y-100770371D02*
X94565788Y-100856085D01*
X94565788Y-100856085D02*
X94565788Y-101113228D01*
X94565788Y-101113228D02*
X94522931Y-101198942D01*
X94522931Y-101198942D02*
X94480073Y-101241800D01*
X94480073Y-101241800D02*
X94394359Y-101284657D01*
X94394359Y-101284657D02*
X94265788Y-101284657D01*
X94951502Y-101284657D02*
X94951502Y-100684657D01*
X94951502Y-100384657D02*
X94908645Y-100427514D01*
X94908645Y-100427514D02*
X94951502Y-100470371D01*
X94951502Y-100470371D02*
X94994359Y-100427514D01*
X94994359Y-100427514D02*
X94951502Y-100384657D01*
X94951502Y-100384657D02*
X94951502Y-100470371D01*
X95380073Y-100684657D02*
X95380073Y-101284657D01*
X95380073Y-100770371D02*
X95422930Y-100727514D01*
X95422930Y-100727514D02*
X95508645Y-100684657D01*
X95508645Y-100684657D02*
X95637216Y-100684657D01*
X95637216Y-100684657D02*
X95722930Y-100727514D01*
X95722930Y-100727514D02*
X95765788Y-100813228D01*
X95765788Y-100813228D02*
X95765788Y-101284657D01*
X96065788Y-100684657D02*
X96408645Y-100684657D01*
X96194359Y-100384657D02*
X96194359Y-101156085D01*
X96194359Y-101156085D02*
X96237216Y-101241800D01*
X96237216Y-101241800D02*
X96322931Y-101284657D01*
X96322931Y-101284657D02*
X96408645Y-101284657D01*
D11*
X135932533Y-102264029D02*
X136087295Y-102264029D01*
X136087295Y-102264029D02*
X136003961Y-102359267D01*
X136003961Y-102359267D02*
X136039676Y-102359267D01*
X136039676Y-102359267D02*
X136063485Y-102371172D01*
X136063485Y-102371172D02*
X136075390Y-102383077D01*
X136075390Y-102383077D02*
X136087295Y-102406886D01*
X136087295Y-102406886D02*
X136087295Y-102466410D01*
X136087295Y-102466410D02*
X136075390Y-102490220D01*
X136075390Y-102490220D02*
X136063485Y-102502125D01*
X136063485Y-102502125D02*
X136039676Y-102514029D01*
X136039676Y-102514029D02*
X135968247Y-102514029D01*
X135968247Y-102514029D02*
X135944438Y-102502125D01*
X135944438Y-102502125D02*
X135932533Y-102490220D01*
X136384913Y-102514029D02*
X136384913Y-102347363D01*
X136384913Y-102371172D02*
X136396818Y-102359267D01*
X136396818Y-102359267D02*
X136420628Y-102347363D01*
X136420628Y-102347363D02*
X136456342Y-102347363D01*
X136456342Y-102347363D02*
X136480151Y-102359267D01*
X136480151Y-102359267D02*
X136492056Y-102383077D01*
X136492056Y-102383077D02*
X136492056Y-102514029D01*
X136492056Y-102383077D02*
X136503961Y-102359267D01*
X136503961Y-102359267D02*
X136527770Y-102347363D01*
X136527770Y-102347363D02*
X136563485Y-102347363D01*
X136563485Y-102347363D02*
X136587294Y-102359267D01*
X136587294Y-102359267D02*
X136599199Y-102383077D01*
X136599199Y-102383077D02*
X136599199Y-102514029D01*
X136718246Y-102514029D02*
X136718246Y-102347363D01*
X136718246Y-102371172D02*
X136730151Y-102359267D01*
X136730151Y-102359267D02*
X136753961Y-102347363D01*
X136753961Y-102347363D02*
X136789675Y-102347363D01*
X136789675Y-102347363D02*
X136813484Y-102359267D01*
X136813484Y-102359267D02*
X136825389Y-102383077D01*
X136825389Y-102383077D02*
X136825389Y-102514029D01*
X136825389Y-102383077D02*
X136837294Y-102359267D01*
X136837294Y-102359267D02*
X136861103Y-102347363D01*
X136861103Y-102347363D02*
X136896818Y-102347363D01*
X136896818Y-102347363D02*
X136920627Y-102359267D01*
X136920627Y-102359267D02*
X136932532Y-102383077D01*
X136932532Y-102383077D02*
X136932532Y-102514029D01*
D10*
X135000000Y-102400000D02*
X135000000Y-102400000D01*
X138000000Y-102400000D02*
X138000000Y-102400000D01*
X135000000Y-102400000D02*
X135749944Y-102400000D01*
X137138931Y-102400000D02*
X138000000Y-102400000D01*
X135000000Y-102400000D02*
X135443505Y-102169126D01*
X135000000Y-102400000D02*
X135443505Y-102630874D01*
X138000000Y-102400000D02*
X137556495Y-102630874D01*
X138000000Y-102400000D02*
X137556495Y-102169126D01*
X128646741Y-78072419D02*
X128551503Y-78024800D01*
X128551503Y-78024800D02*
X128503884Y-77977180D01*
X128503884Y-77977180D02*
X128456265Y-77881942D01*
X128456265Y-77881942D02*
X128456265Y-77596228D01*
X128456265Y-77596228D02*
X128503884Y-77500990D01*
X128503884Y-77500990D02*
X128551503Y-77453371D01*
X128551503Y-77453371D02*
X128646741Y-77405752D01*
X128646741Y-77405752D02*
X128789598Y-77405752D01*
X128789598Y-77405752D02*
X128884836Y-77453371D01*
X128884836Y-77453371D02*
X128932455Y-77500990D01*
X128932455Y-77500990D02*
X128980074Y-77596228D01*
X128980074Y-77596228D02*
X128980074Y-77881942D01*
X128980074Y-77881942D02*
X128932455Y-77977180D01*
X128932455Y-77977180D02*
X128884836Y-78024800D01*
X128884836Y-78024800D02*
X128789598Y-78072419D01*
X128789598Y-78072419D02*
X128646741Y-78072419D01*
X129408646Y-77405752D02*
X129408646Y-78405752D01*
X129408646Y-77453371D02*
X129503884Y-77405752D01*
X129503884Y-77405752D02*
X129694360Y-77405752D01*
X129694360Y-77405752D02*
X129789598Y-77453371D01*
X129789598Y-77453371D02*
X129837217Y-77500990D01*
X129837217Y-77500990D02*
X129884836Y-77596228D01*
X129884836Y-77596228D02*
X129884836Y-77881942D01*
X129884836Y-77881942D02*
X129837217Y-77977180D01*
X129837217Y-77977180D02*
X129789598Y-78024800D01*
X129789598Y-78024800D02*
X129694360Y-78072419D01*
X129694360Y-78072419D02*
X129503884Y-78072419D01*
X129503884Y-78072419D02*
X129408646Y-78024800D01*
X130170551Y-77405752D02*
X130551503Y-77405752D01*
X130313408Y-77072419D02*
X130313408Y-77929561D01*
X130313408Y-77929561D02*
X130361027Y-78024800D01*
X130361027Y-78024800D02*
X130456265Y-78072419D01*
X130456265Y-78072419D02*
X130551503Y-78072419D01*
X131027694Y-78072419D02*
X130932456Y-78024800D01*
X130932456Y-78024800D02*
X130884837Y-77977180D01*
X130884837Y-77977180D02*
X130837218Y-77881942D01*
X130837218Y-77881942D02*
X130837218Y-77596228D01*
X130837218Y-77596228D02*
X130884837Y-77500990D01*
X130884837Y-77500990D02*
X130932456Y-77453371D01*
X130932456Y-77453371D02*
X131027694Y-77405752D01*
X131027694Y-77405752D02*
X131170551Y-77405752D01*
X131170551Y-77405752D02*
X131265789Y-77453371D01*
X131265789Y-77453371D02*
X131313408Y-77500990D01*
X131313408Y-77500990D02*
X131361027Y-77596228D01*
X131361027Y-77596228D02*
X131361027Y-77881942D01*
X131361027Y-77881942D02*
X131313408Y-77977180D01*
X131313408Y-77977180D02*
X131265789Y-78024800D01*
X131265789Y-78024800D02*
X131170551Y-78072419D01*
X131170551Y-78072419D02*
X131027694Y-78072419D01*
X132551504Y-78072419D02*
X132551504Y-77405752D01*
X132551504Y-77072419D02*
X132503885Y-77120038D01*
X132503885Y-77120038D02*
X132551504Y-77167657D01*
X132551504Y-77167657D02*
X132599123Y-77120038D01*
X132599123Y-77120038D02*
X132551504Y-77072419D01*
X132551504Y-77072419D02*
X132551504Y-77167657D01*
X133027694Y-77405752D02*
X133027694Y-78072419D01*
X133027694Y-77500990D02*
X133075313Y-77453371D01*
X133075313Y-77453371D02*
X133170551Y-77405752D01*
X133170551Y-77405752D02*
X133313408Y-77405752D01*
X133313408Y-77405752D02*
X133408646Y-77453371D01*
X133408646Y-77453371D02*
X133456265Y-77548609D01*
X133456265Y-77548609D02*
X133456265Y-78072419D01*
D12*
X118424231Y-78043116D02*
X118390898Y-78076450D01*
X118390898Y-78076450D02*
X118290898Y-78109783D01*
X118290898Y-78109783D02*
X118224231Y-78109783D01*
X118224231Y-78109783D02*
X118124231Y-78076450D01*
X118124231Y-78076450D02*
X118057565Y-78009783D01*
X118057565Y-78009783D02*
X118024231Y-77943116D01*
X118024231Y-77943116D02*
X117990898Y-77809783D01*
X117990898Y-77809783D02*
X117990898Y-77709783D01*
X117990898Y-77709783D02*
X118024231Y-77576450D01*
X118024231Y-77576450D02*
X118057565Y-77509783D01*
X118057565Y-77509783D02*
X118124231Y-77443116D01*
X118124231Y-77443116D02*
X118224231Y-77409783D01*
X118224231Y-77409783D02*
X118290898Y-77409783D01*
X118290898Y-77409783D02*
X118390898Y-77443116D01*
X118390898Y-77443116D02*
X118424231Y-77476450D01*
X118824231Y-78109783D02*
X118757565Y-78076450D01*
X118757565Y-78076450D02*
X118724231Y-78043116D01*
X118724231Y-78043116D02*
X118690898Y-77976450D01*
X118690898Y-77976450D02*
X118690898Y-77776450D01*
X118690898Y-77776450D02*
X118724231Y-77709783D01*
X118724231Y-77709783D02*
X118757565Y-77676450D01*
X118757565Y-77676450D02*
X118824231Y-77643116D01*
X118824231Y-77643116D02*
X118924231Y-77643116D01*
X118924231Y-77643116D02*
X118990898Y-77676450D01*
X118990898Y-77676450D02*
X119024231Y-77709783D01*
X119024231Y-77709783D02*
X119057565Y-77776450D01*
X119057565Y-77776450D02*
X119057565Y-77976450D01*
X119057565Y-77976450D02*
X119024231Y-78043116D01*
X119024231Y-78043116D02*
X118990898Y-78076450D01*
X118990898Y-78076450D02*
X118924231Y-78109783D01*
X118924231Y-78109783D02*
X118824231Y-78109783D01*
X119357564Y-78109783D02*
X119357564Y-77643116D01*
X119357564Y-77709783D02*
X119390898Y-77676450D01*
X119390898Y-77676450D02*
X119457564Y-77643116D01*
X119457564Y-77643116D02*
X119557564Y-77643116D01*
X119557564Y-77643116D02*
X119624231Y-77676450D01*
X119624231Y-77676450D02*
X119657564Y-77743116D01*
X119657564Y-77743116D02*
X119657564Y-78109783D01*
X119657564Y-77743116D02*
X119690898Y-77676450D01*
X119690898Y-77676450D02*
X119757564Y-77643116D01*
X119757564Y-77643116D02*
X119857564Y-77643116D01*
X119857564Y-77643116D02*
X119924231Y-77676450D01*
X119924231Y-77676450D02*
X119957564Y-77743116D01*
X119957564Y-77743116D02*
X119957564Y-78109783D01*
X120290897Y-77643116D02*
X120290897Y-78343116D01*
X120290897Y-77676450D02*
X120357564Y-77643116D01*
X120357564Y-77643116D02*
X120490897Y-77643116D01*
X120490897Y-77643116D02*
X120557564Y-77676450D01*
X120557564Y-77676450D02*
X120590897Y-77709783D01*
X120590897Y-77709783D02*
X120624231Y-77776450D01*
X120624231Y-77776450D02*
X120624231Y-77976450D01*
X120624231Y-77976450D02*
X120590897Y-78043116D01*
X120590897Y-78043116D02*
X120557564Y-78076450D01*
X120557564Y-78076450D02*
X120490897Y-78109783D01*
X120490897Y-78109783D02*
X120357564Y-78109783D01*
X120357564Y-78109783D02*
X120290897Y-78076450D01*
X121224230Y-78109783D02*
X121224230Y-77743116D01*
X121224230Y-77743116D02*
X121190897Y-77676450D01*
X121190897Y-77676450D02*
X121124230Y-77643116D01*
X121124230Y-77643116D02*
X120990897Y-77643116D01*
X120990897Y-77643116D02*
X120924230Y-77676450D01*
X121224230Y-78076450D02*
X121157564Y-78109783D01*
X121157564Y-78109783D02*
X120990897Y-78109783D01*
X120990897Y-78109783D02*
X120924230Y-78076450D01*
X120924230Y-78076450D02*
X120890897Y-78009783D01*
X120890897Y-78009783D02*
X120890897Y-77943116D01*
X120890897Y-77943116D02*
X120924230Y-77876450D01*
X120924230Y-77876450D02*
X120990897Y-77843116D01*
X120990897Y-77843116D02*
X121157564Y-77843116D01*
X121157564Y-77843116D02*
X121224230Y-77809783D01*
X121557563Y-78109783D02*
X121557563Y-77643116D01*
X121557563Y-77776450D02*
X121590897Y-77709783D01*
X121590897Y-77709783D02*
X121624230Y-77676450D01*
X121624230Y-77676450D02*
X121690897Y-77643116D01*
X121690897Y-77643116D02*
X121757563Y-77643116D01*
X122290896Y-78109783D02*
X122290896Y-77743116D01*
X122290896Y-77743116D02*
X122257563Y-77676450D01*
X122257563Y-77676450D02*
X122190896Y-77643116D01*
X122190896Y-77643116D02*
X122057563Y-77643116D01*
X122057563Y-77643116D02*
X121990896Y-77676450D01*
X122290896Y-78076450D02*
X122224230Y-78109783D01*
X122224230Y-78109783D02*
X122057563Y-78109783D01*
X122057563Y-78109783D02*
X121990896Y-78076450D01*
X121990896Y-78076450D02*
X121957563Y-78009783D01*
X121957563Y-78009783D02*
X121957563Y-77943116D01*
X121957563Y-77943116D02*
X121990896Y-77876450D01*
X121990896Y-77876450D02*
X122057563Y-77843116D01*
X122057563Y-77843116D02*
X122224230Y-77843116D01*
X122224230Y-77843116D02*
X122290896Y-77809783D01*
X122524229Y-77643116D02*
X122790896Y-77643116D01*
X122624229Y-77409783D02*
X122624229Y-78009783D01*
X122624229Y-78009783D02*
X122657563Y-78076450D01*
X122657563Y-78076450D02*
X122724229Y-78109783D01*
X122724229Y-78109783D02*
X122790896Y-78109783D01*
X123124229Y-78109783D02*
X123057563Y-78076450D01*
X123057563Y-78076450D02*
X123024229Y-78043116D01*
X123024229Y-78043116D02*
X122990896Y-77976450D01*
X122990896Y-77976450D02*
X122990896Y-77776450D01*
X122990896Y-77776450D02*
X123024229Y-77709783D01*
X123024229Y-77709783D02*
X123057563Y-77676450D01*
X123057563Y-77676450D02*
X123124229Y-77643116D01*
X123124229Y-77643116D02*
X123224229Y-77643116D01*
X123224229Y-77643116D02*
X123290896Y-77676450D01*
X123290896Y-77676450D02*
X123324229Y-77709783D01*
X123324229Y-77709783D02*
X123357563Y-77776450D01*
X123357563Y-77776450D02*
X123357563Y-77976450D01*
X123357563Y-77976450D02*
X123324229Y-78043116D01*
X123324229Y-78043116D02*
X123290896Y-78076450D01*
X123290896Y-78076450D02*
X123224229Y-78109783D01*
X123224229Y-78109783D02*
X123124229Y-78109783D01*
X123657562Y-78109783D02*
X123657562Y-77643116D01*
X123657562Y-77776450D02*
X123690896Y-77709783D01*
X123690896Y-77709783D02*
X123724229Y-77676450D01*
X123724229Y-77676450D02*
X123790896Y-77643116D01*
X123790896Y-77643116D02*
X123857562Y-77643116D01*
X124724228Y-78109783D02*
X124657562Y-78076450D01*
X124657562Y-78076450D02*
X124624228Y-78043116D01*
X124624228Y-78043116D02*
X124590895Y-77976450D01*
X124590895Y-77976450D02*
X124590895Y-77776450D01*
X124590895Y-77776450D02*
X124624228Y-77709783D01*
X124624228Y-77709783D02*
X124657562Y-77676450D01*
X124657562Y-77676450D02*
X124724228Y-77643116D01*
X124724228Y-77643116D02*
X124824228Y-77643116D01*
X124824228Y-77643116D02*
X124890895Y-77676450D01*
X124890895Y-77676450D02*
X124924228Y-77709783D01*
X124924228Y-77709783D02*
X124957562Y-77776450D01*
X124957562Y-77776450D02*
X124957562Y-77976450D01*
X124957562Y-77976450D02*
X124924228Y-78043116D01*
X124924228Y-78043116D02*
X124890895Y-78076450D01*
X124890895Y-78076450D02*
X124824228Y-78109783D01*
X124824228Y-78109783D02*
X124724228Y-78109783D01*
X125557561Y-77643116D02*
X125557561Y-78109783D01*
X125257561Y-77643116D02*
X125257561Y-78009783D01*
X125257561Y-78009783D02*
X125290895Y-78076450D01*
X125290895Y-78076450D02*
X125357561Y-78109783D01*
X125357561Y-78109783D02*
X125457561Y-78109783D01*
X125457561Y-78109783D02*
X125524228Y-78076450D01*
X125524228Y-78076450D02*
X125557561Y-78043116D01*
X125790894Y-77643116D02*
X126057561Y-77643116D01*
X125890894Y-77409783D02*
X125890894Y-78009783D01*
X125890894Y-78009783D02*
X125924228Y-78076450D01*
X125924228Y-78076450D02*
X125990894Y-78109783D01*
X125990894Y-78109783D02*
X126057561Y-78109783D01*
D10*
X154294360Y-118672419D02*
X154484836Y-118672419D01*
X154484836Y-118672419D02*
X154580074Y-118720038D01*
X154580074Y-118720038D02*
X154675312Y-118815276D01*
X154675312Y-118815276D02*
X154722931Y-119005752D01*
X154722931Y-119005752D02*
X154722931Y-119339085D01*
X154722931Y-119339085D02*
X154675312Y-119529561D01*
X154675312Y-119529561D02*
X154580074Y-119624800D01*
X154580074Y-119624800D02*
X154484836Y-119672419D01*
X154484836Y-119672419D02*
X154294360Y-119672419D01*
X154294360Y-119672419D02*
X154199122Y-119624800D01*
X154199122Y-119624800D02*
X154103884Y-119529561D01*
X154103884Y-119529561D02*
X154056265Y-119339085D01*
X154056265Y-119339085D02*
X154056265Y-119005752D01*
X154056265Y-119005752D02*
X154103884Y-118815276D01*
X154103884Y-118815276D02*
X154199122Y-118720038D01*
X154199122Y-118720038D02*
X154294360Y-118672419D01*
X155151503Y-119005752D02*
X155151503Y-120005752D01*
X155151503Y-119053371D02*
X155246741Y-119005752D01*
X155246741Y-119005752D02*
X155437217Y-119005752D01*
X155437217Y-119005752D02*
X155532455Y-119053371D01*
X155532455Y-119053371D02*
X155580074Y-119100990D01*
X155580074Y-119100990D02*
X155627693Y-119196228D01*
X155627693Y-119196228D02*
X155627693Y-119481942D01*
X155627693Y-119481942D02*
X155580074Y-119577180D01*
X155580074Y-119577180D02*
X155532455Y-119624800D01*
X155532455Y-119624800D02*
X155437217Y-119672419D01*
X155437217Y-119672419D02*
X155246741Y-119672419D01*
X155246741Y-119672419D02*
X155151503Y-119624800D01*
X155913408Y-119005752D02*
X156294360Y-119005752D01*
X156056265Y-118672419D02*
X156056265Y-119529561D01*
X156056265Y-119529561D02*
X156103884Y-119624800D01*
X156103884Y-119624800D02*
X156199122Y-119672419D01*
X156199122Y-119672419D02*
X156294360Y-119672419D01*
X156770551Y-119672419D02*
X156675313Y-119624800D01*
X156675313Y-119624800D02*
X156627694Y-119577180D01*
X156627694Y-119577180D02*
X156580075Y-119481942D01*
X156580075Y-119481942D02*
X156580075Y-119196228D01*
X156580075Y-119196228D02*
X156627694Y-119100990D01*
X156627694Y-119100990D02*
X156675313Y-119053371D01*
X156675313Y-119053371D02*
X156770551Y-119005752D01*
X156770551Y-119005752D02*
X156913408Y-119005752D01*
X156913408Y-119005752D02*
X157008646Y-119053371D01*
X157008646Y-119053371D02*
X157056265Y-119100990D01*
X157056265Y-119100990D02*
X157103884Y-119196228D01*
X157103884Y-119196228D02*
X157103884Y-119481942D01*
X157103884Y-119481942D02*
X157056265Y-119577180D01*
X157056265Y-119577180D02*
X157008646Y-119624800D01*
X157008646Y-119624800D02*
X156913408Y-119672419D01*
X156913408Y-119672419D02*
X156770551Y-119672419D01*
X158437218Y-119672419D02*
X158341980Y-119624800D01*
X158341980Y-119624800D02*
X158294361Y-119577180D01*
X158294361Y-119577180D02*
X158246742Y-119481942D01*
X158246742Y-119481942D02*
X158246742Y-119196228D01*
X158246742Y-119196228D02*
X158294361Y-119100990D01*
X158294361Y-119100990D02*
X158341980Y-119053371D01*
X158341980Y-119053371D02*
X158437218Y-119005752D01*
X158437218Y-119005752D02*
X158580075Y-119005752D01*
X158580075Y-119005752D02*
X158675313Y-119053371D01*
X158675313Y-119053371D02*
X158722932Y-119100990D01*
X158722932Y-119100990D02*
X158770551Y-119196228D01*
X158770551Y-119196228D02*
X158770551Y-119481942D01*
X158770551Y-119481942D02*
X158722932Y-119577180D01*
X158722932Y-119577180D02*
X158675313Y-119624800D01*
X158675313Y-119624800D02*
X158580075Y-119672419D01*
X158580075Y-119672419D02*
X158437218Y-119672419D01*
X159627694Y-119005752D02*
X159627694Y-119672419D01*
X159199123Y-119005752D02*
X159199123Y-119529561D01*
X159199123Y-119529561D02*
X159246742Y-119624800D01*
X159246742Y-119624800D02*
X159341980Y-119672419D01*
X159341980Y-119672419D02*
X159484837Y-119672419D01*
X159484837Y-119672419D02*
X159580075Y-119624800D01*
X159580075Y-119624800D02*
X159627694Y-119577180D01*
X159961028Y-119005752D02*
X160341980Y-119005752D01*
X160103885Y-118672419D02*
X160103885Y-119529561D01*
X160103885Y-119529561D02*
X160151504Y-119624800D01*
X160151504Y-119624800D02*
X160246742Y-119672419D01*
X160246742Y-119672419D02*
X160341980Y-119672419D01*
X162961027Y-118672419D02*
X163532455Y-118672419D01*
X163246741Y-119672419D02*
X163246741Y-118672419D01*
X163865789Y-119672419D02*
X163865789Y-119005752D01*
X163865789Y-118672419D02*
X163818170Y-118720038D01*
X163818170Y-118720038D02*
X163865789Y-118767657D01*
X163865789Y-118767657D02*
X163913408Y-118720038D01*
X163913408Y-118720038D02*
X163865789Y-118672419D01*
X163865789Y-118672419D02*
X163865789Y-118767657D01*
X164341979Y-119672419D02*
X164341979Y-119005752D01*
X164341979Y-119100990D02*
X164389598Y-119053371D01*
X164389598Y-119053371D02*
X164484836Y-119005752D01*
X164484836Y-119005752D02*
X164627693Y-119005752D01*
X164627693Y-119005752D02*
X164722931Y-119053371D01*
X164722931Y-119053371D02*
X164770550Y-119148609D01*
X164770550Y-119148609D02*
X164770550Y-119672419D01*
X164770550Y-119148609D02*
X164818169Y-119053371D01*
X164818169Y-119053371D02*
X164913407Y-119005752D01*
X164913407Y-119005752D02*
X165056264Y-119005752D01*
X165056264Y-119005752D02*
X165151503Y-119053371D01*
X165151503Y-119053371D02*
X165199122Y-119148609D01*
X165199122Y-119148609D02*
X165199122Y-119672419D01*
X166056264Y-119624800D02*
X165961026Y-119672419D01*
X165961026Y-119672419D02*
X165770550Y-119672419D01*
X165770550Y-119672419D02*
X165675312Y-119624800D01*
X165675312Y-119624800D02*
X165627693Y-119529561D01*
X165627693Y-119529561D02*
X165627693Y-119148609D01*
X165627693Y-119148609D02*
X165675312Y-119053371D01*
X165675312Y-119053371D02*
X165770550Y-119005752D01*
X165770550Y-119005752D02*
X165961026Y-119005752D01*
X165961026Y-119005752D02*
X166056264Y-119053371D01*
X166056264Y-119053371D02*
X166103883Y-119148609D01*
X166103883Y-119148609D02*
X166103883Y-119243847D01*
X166103883Y-119243847D02*
X165627693Y-119339085D01*
X166532455Y-119672419D02*
X166532455Y-119005752D01*
X166532455Y-119196228D02*
X166580074Y-119100990D01*
X166580074Y-119100990D02*
X166627693Y-119053371D01*
X166627693Y-119053371D02*
X166722931Y-119005752D01*
X166722931Y-119005752D02*
X166818169Y-119005752D01*
X168056265Y-119672419D02*
X167961027Y-119624800D01*
X167961027Y-119624800D02*
X167913408Y-119577180D01*
X167913408Y-119577180D02*
X167865789Y-119481942D01*
X167865789Y-119481942D02*
X167865789Y-119196228D01*
X167865789Y-119196228D02*
X167913408Y-119100990D01*
X167913408Y-119100990D02*
X167961027Y-119053371D01*
X167961027Y-119053371D02*
X168056265Y-119005752D01*
X168056265Y-119005752D02*
X168199122Y-119005752D01*
X168199122Y-119005752D02*
X168294360Y-119053371D01*
X168294360Y-119053371D02*
X168341979Y-119100990D01*
X168341979Y-119100990D02*
X168389598Y-119196228D01*
X168389598Y-119196228D02*
X168389598Y-119481942D01*
X168389598Y-119481942D02*
X168341979Y-119577180D01*
X168341979Y-119577180D02*
X168294360Y-119624800D01*
X168294360Y-119624800D02*
X168199122Y-119672419D01*
X168199122Y-119672419D02*
X168056265Y-119672419D01*
X169246741Y-119005752D02*
X169246741Y-119672419D01*
X168818170Y-119005752D02*
X168818170Y-119529561D01*
X168818170Y-119529561D02*
X168865789Y-119624800D01*
X168865789Y-119624800D02*
X168961027Y-119672419D01*
X168961027Y-119672419D02*
X169103884Y-119672419D01*
X169103884Y-119672419D02*
X169199122Y-119624800D01*
X169199122Y-119624800D02*
X169246741Y-119577180D01*
X169580075Y-119005752D02*
X169961027Y-119005752D01*
X169722932Y-118672419D02*
X169722932Y-119529561D01*
X169722932Y-119529561D02*
X169770551Y-119624800D01*
X169770551Y-119624800D02*
X169865789Y-119672419D01*
X169865789Y-119672419D02*
X169961027Y-119672419D01*
X138054101Y-76233402D02*
X197054100Y-76233402D01*
X197054100Y-120233402D01*
X138054101Y-120233402D01*
X138054101Y-76233402D01*
X79254101Y-76433402D02*
X135054101Y-76433402D01*
X135054101Y-120233402D01*
X79254101Y-120233402D01*
X79254101Y-76433402D01*
D13*
X83760165Y-103335559D02*
X83760165Y-102835559D01*
X83760165Y-103073654D02*
X84045879Y-103073654D01*
X84045879Y-103335559D02*
X84045879Y-102835559D01*
X84212547Y-102835559D02*
X84379213Y-103335559D01*
X84379213Y-103335559D02*
X84545880Y-102835559D01*
X84712546Y-103145083D02*
X85093499Y-103145083D01*
D14*
G36*
X124438541Y-116379497D02*
G01*
X125567309Y-116379497D01*
X125567309Y-116674933D01*
X125188562Y-116674933D01*
X125188562Y-117580000D01*
X124817215Y-117580000D01*
X124817215Y-116674933D01*
X124438541Y-116674933D01*
X124438541Y-116379497D01*
G37*
G36*
X126474682Y-116383483D02*
G01*
X126560380Y-116393955D01*
X126622145Y-116408953D01*
X126678938Y-116434218D01*
X126727482Y-116470346D01*
X126768838Y-116518276D01*
X126799215Y-116573881D01*
X126818012Y-116638042D01*
X126824598Y-116712742D01*
X126819557Y-116778175D01*
X126805146Y-116835143D01*
X126781953Y-116885080D01*
X126750151Y-116930144D01*
X126711312Y-116969159D01*
X126664790Y-117002536D01*
X126612070Y-117027385D01*
X126534438Y-117050017D01*
X126595673Y-117074099D01*
X126631158Y-117094567D01*
X126652984Y-117114365D01*
X126690582Y-117158021D01*
X126742679Y-117233053D01*
X126922198Y-117580000D01*
X126502491Y-117580000D01*
X126304068Y-117212756D01*
X126264946Y-117149246D01*
X126236877Y-117120139D01*
X126194275Y-117099326D01*
X126145872Y-117092295D01*
X126113119Y-117092295D01*
X126113119Y-117580000D01*
X125740087Y-117580000D01*
X125740087Y-116867201D01*
X126113119Y-116867201D01*
X126269703Y-116867201D01*
X126368035Y-116850861D01*
X126401456Y-116837786D01*
X126428265Y-116813199D01*
X126445757Y-116780801D01*
X126451639Y-116743663D01*
X126447202Y-116706630D01*
X126434807Y-116677529D01*
X126414710Y-116654490D01*
X126387845Y-116639031D01*
X126344032Y-116627834D01*
X126276224Y-116623349D01*
X126113119Y-116623349D01*
X126113119Y-116867201D01*
X125740087Y-116867201D01*
X125740087Y-116379497D01*
X126359023Y-116379497D01*
X126474682Y-116383483D01*
G37*
G36*
X128228213Y-117580000D02*
G01*
X127839647Y-117580000D01*
X127780589Y-117383042D01*
X127357658Y-117383042D01*
X127299406Y-117580000D01*
X126919853Y-117580000D01*
X127091015Y-117125122D01*
X127437965Y-117125122D01*
X127702700Y-117125122D01*
X127569930Y-116691859D01*
X127437965Y-117125122D01*
X127091015Y-117125122D01*
X127371580Y-116379497D01*
X127776486Y-116379497D01*
X128228213Y-117580000D01*
G37*
G36*
X129116793Y-117087606D02*
G01*
X129442271Y-117186304D01*
X129415161Y-117274994D01*
X129380568Y-117350374D01*
X129338956Y-117414183D01*
X129287982Y-117470347D01*
X129229878Y-117516146D01*
X129163907Y-117552229D01*
X129092694Y-117576855D01*
X129005109Y-117592928D01*
X128897927Y-117598757D01*
X128767864Y-117591611D01*
X128662554Y-117571985D01*
X128577798Y-117542044D01*
X128519854Y-117509671D01*
X128465004Y-117466488D01*
X128412887Y-117411308D01*
X128363401Y-117342522D01*
X128325609Y-117270019D01*
X128297441Y-117186198D01*
X128279586Y-117089207D01*
X128273276Y-116976891D01*
X128280547Y-116856001D01*
X128301096Y-116752217D01*
X128333517Y-116663016D01*
X128377108Y-116586268D01*
X128431912Y-116520327D01*
X128497676Y-116464929D01*
X128573682Y-116421041D01*
X128661458Y-116388526D01*
X128763005Y-116367988D01*
X128880708Y-116360739D01*
X128995826Y-116367359D01*
X129091757Y-116385801D01*
X129171524Y-116414415D01*
X129237693Y-116452257D01*
X129296392Y-116501993D01*
X129348116Y-116564194D01*
X129393030Y-116640558D01*
X129430767Y-116733332D01*
X129102871Y-116806238D01*
X129083829Y-116755609D01*
X129066821Y-116725931D01*
X129031985Y-116688045D01*
X128990544Y-116660352D01*
X128943414Y-116643290D01*
X128889720Y-116637418D01*
X128828992Y-116644049D01*
X128777744Y-116663010D01*
X128733902Y-116694109D01*
X128696280Y-116738754D01*
X128670310Y-116791648D01*
X128652335Y-116867850D01*
X128645429Y-116974839D01*
X128650491Y-117079560D01*
X128663750Y-117156083D01*
X128682811Y-117210549D01*
X128706099Y-117248147D01*
X128738969Y-117280083D01*
X128777502Y-117302913D01*
X128822826Y-117317084D01*
X128876605Y-117322079D01*
X128945087Y-117314662D01*
X128997506Y-117294293D01*
X129037658Y-117262069D01*
X129068858Y-117219133D01*
X129095512Y-117162063D01*
X129116793Y-117087606D01*
G37*
G36*
X129538332Y-116379497D02*
G01*
X130667100Y-116379497D01*
X130667100Y-116674933D01*
X130288353Y-116674933D01*
X130288353Y-117580000D01*
X129917006Y-117580000D01*
X129917006Y-116674933D01*
X129538332Y-116674933D01*
X129538332Y-116379497D01*
G37*
G36*
X130849769Y-116379497D02*
G01*
X131221922Y-116379497D01*
X131221922Y-117580000D01*
X130849769Y-117580000D01*
X130849769Y-116379497D01*
G37*
G36*
X131369127Y-116379497D02*
G01*
X131757693Y-116379497D01*
X132028217Y-117243457D01*
X132294637Y-116379497D01*
X132671699Y-116379497D01*
X132225760Y-117580000D01*
X131823272Y-117580000D01*
X131369127Y-116379497D01*
G37*
G36*
X132793185Y-116379497D02*
G01*
X133788377Y-116379497D01*
X133788377Y-116637418D01*
X133165338Y-116637418D01*
X133165338Y-116829685D01*
X133743241Y-116829685D01*
X133743241Y-117073538D01*
X133165338Y-117073538D01*
X133165338Y-117308011D01*
X133806402Y-117308011D01*
X133806402Y-117580000D01*
X132793185Y-117580000D01*
X132793185Y-116379497D01*
G37*
G36*
X124458178Y-119196150D02*
G01*
X124811500Y-119173948D01*
X124822807Y-119230582D01*
X124838687Y-119273511D01*
X124858248Y-119305473D01*
X124889531Y-119337121D01*
X124926435Y-119359705D01*
X124970081Y-119373724D01*
X125022159Y-119378672D01*
X125073943Y-119374012D01*
X125113909Y-119361296D01*
X125144672Y-119341596D01*
X125169243Y-119314652D01*
X125183153Y-119286336D01*
X125187756Y-119255647D01*
X125183410Y-119226417D01*
X125170204Y-119199003D01*
X125146796Y-119172482D01*
X125116022Y-119152623D01*
X125057124Y-119129487D01*
X124956580Y-119103240D01*
X124830475Y-119069750D01*
X124733740Y-119033816D01*
X124661180Y-118996375D01*
X124608241Y-118958013D01*
X124561972Y-118909107D01*
X124529632Y-118855125D01*
X124510058Y-118794971D01*
X124503314Y-118726983D01*
X124509198Y-118667035D01*
X124526871Y-118609262D01*
X124557023Y-118552667D01*
X124597537Y-118503147D01*
X124650665Y-118460196D01*
X124718517Y-118423707D01*
X124792054Y-118399339D01*
X124888752Y-118382877D01*
X125014026Y-118376739D01*
X125131741Y-118383154D01*
X125227097Y-118400779D01*
X125303853Y-118427669D01*
X125365223Y-118462615D01*
X125417827Y-118509893D01*
X125459371Y-118569555D01*
X125490127Y-118643835D01*
X125509131Y-118735923D01*
X125159106Y-118756586D01*
X125145309Y-118704060D01*
X125125540Y-118665418D01*
X125100488Y-118637664D01*
X125068692Y-118617825D01*
X125028336Y-118605127D01*
X124977096Y-118600515D01*
X124917646Y-118608121D01*
X124879497Y-118627845D01*
X124854749Y-118658444D01*
X124846744Y-118694230D01*
X124853122Y-118720570D01*
X124873782Y-118745521D01*
X124909923Y-118765358D01*
X124998419Y-118789558D01*
X125161808Y-118828929D01*
X125274076Y-118864148D01*
X125347198Y-118895218D01*
X125413598Y-118935535D01*
X125463864Y-118979716D01*
X125500484Y-119027842D01*
X125527010Y-119082356D01*
X125543019Y-119141034D01*
X125548478Y-119204942D01*
X125541352Y-119279786D01*
X125520185Y-119350115D01*
X125484511Y-119417214D01*
X125436760Y-119476260D01*
X125377691Y-119525207D01*
X125305799Y-119564565D01*
X125227663Y-119591182D01*
X125132310Y-119608497D01*
X125016444Y-119614757D01*
X124886085Y-119608576D01*
X124782813Y-119591795D01*
X124701946Y-119566629D01*
X124639403Y-119534629D01*
X124591828Y-119496568D01*
X124539652Y-119434114D01*
X124500168Y-119364099D01*
X124472899Y-119285322D01*
X124458178Y-119196150D01*
G37*
G36*
X125613838Y-118395497D02*
G01*
X126026217Y-118395497D01*
X126268824Y-118800036D01*
X126511503Y-118395497D01*
X126921318Y-118395497D01*
X126454131Y-119093201D01*
X126454131Y-119596000D01*
X126081905Y-119596000D01*
X126081905Y-119093201D01*
X125613838Y-118395497D01*
G37*
G36*
X126904905Y-119196150D02*
G01*
X127258227Y-119173948D01*
X127269535Y-119230582D01*
X127285414Y-119273511D01*
X127304975Y-119305473D01*
X127336258Y-119337121D01*
X127373162Y-119359705D01*
X127416808Y-119373724D01*
X127468886Y-119378672D01*
X127520670Y-119374012D01*
X127560636Y-119361296D01*
X127591399Y-119341596D01*
X127615970Y-119314652D01*
X127629880Y-119286336D01*
X127634483Y-119255647D01*
X127630137Y-119226417D01*
X127616931Y-119199003D01*
X127593524Y-119172482D01*
X127562749Y-119152623D01*
X127503852Y-119129487D01*
X127403307Y-119103240D01*
X127277202Y-119069750D01*
X127180467Y-119033816D01*
X127107907Y-118996375D01*
X127054968Y-118958013D01*
X127008699Y-118909107D01*
X126976359Y-118855125D01*
X126956786Y-118794971D01*
X126950041Y-118726983D01*
X126955925Y-118667035D01*
X126973598Y-118609262D01*
X127003750Y-118552667D01*
X127044264Y-118503147D01*
X127097392Y-118460196D01*
X127165244Y-118423707D01*
X127238781Y-118399339D01*
X127335480Y-118382877D01*
X127460753Y-118376739D01*
X127578469Y-118383154D01*
X127673824Y-118400779D01*
X127750580Y-118427669D01*
X127811950Y-118462615D01*
X127864554Y-118509893D01*
X127906098Y-118569555D01*
X127936854Y-118643835D01*
X127955858Y-118735923D01*
X127605833Y-118756586D01*
X127592036Y-118704060D01*
X127572267Y-118665418D01*
X127547215Y-118637664D01*
X127515419Y-118617825D01*
X127475063Y-118605127D01*
X127423824Y-118600515D01*
X127364373Y-118608121D01*
X127326224Y-118627845D01*
X127301476Y-118658444D01*
X127293471Y-118694230D01*
X127299850Y-118720570D01*
X127320509Y-118745521D01*
X127356651Y-118765358D01*
X127445146Y-118789558D01*
X127608536Y-118828929D01*
X127720803Y-118864148D01*
X127793925Y-118895218D01*
X127860325Y-118935535D01*
X127910591Y-118979716D01*
X127947212Y-119027842D01*
X127973737Y-119082356D01*
X127989746Y-119141034D01*
X127995205Y-119204942D01*
X127988079Y-119279786D01*
X127966912Y-119350115D01*
X127931238Y-119417214D01*
X127883488Y-119476260D01*
X127824418Y-119525207D01*
X127752526Y-119564565D01*
X127674390Y-119591182D01*
X127579038Y-119608497D01*
X127463171Y-119614757D01*
X127332812Y-119608576D01*
X127229540Y-119591795D01*
X127148673Y-119566629D01*
X127086131Y-119534629D01*
X127038555Y-119496568D01*
X126986379Y-119434114D01*
X126946895Y-119364099D01*
X126919627Y-119285322D01*
X126904905Y-119196150D01*
G37*
G36*
X128097494Y-118395497D02*
G01*
X129226263Y-118395497D01*
X129226263Y-118690933D01*
X128847515Y-118690933D01*
X128847515Y-119596000D01*
X128476168Y-119596000D01*
X128476168Y-118690933D01*
X128097494Y-118690933D01*
X128097494Y-118395497D01*
G37*
G36*
X129393325Y-118395497D02*
G01*
X130388517Y-118395497D01*
X130388517Y-118653418D01*
X129765478Y-118653418D01*
X129765478Y-118845685D01*
X130343381Y-118845685D01*
X130343381Y-119089538D01*
X129765478Y-119089538D01*
X129765478Y-119324011D01*
X130406542Y-119324011D01*
X130406542Y-119596000D01*
X129393325Y-119596000D01*
X129393325Y-118395497D01*
G37*
G36*
X130602254Y-118395497D02*
G01*
X131090837Y-118395497D01*
X131279368Y-119125441D01*
X131467093Y-118395497D01*
X131953991Y-118395497D01*
X131953991Y-119596000D01*
X131650715Y-119596000D01*
X131650715Y-118679503D01*
X131415436Y-119596000D01*
X131140809Y-119596000D01*
X130906409Y-118679503D01*
X130906409Y-119596000D01*
X130602254Y-119596000D01*
X130602254Y-118395497D01*
G37*
G36*
X139727086Y-116943879D02*
G01*
X139727086Y-116695338D01*
X140300959Y-116695338D01*
X140300959Y-117205683D01*
X140188025Y-117276679D01*
X140091633Y-117326334D01*
X140009480Y-117358311D01*
X139924142Y-117379954D01*
X139824709Y-117393826D01*
X139709134Y-117398757D01*
X139600423Y-117393566D01*
X139507413Y-117378975D01*
X139427990Y-117356198D01*
X139360282Y-117326071D01*
X139296935Y-117285498D01*
X139241319Y-117236367D01*
X139192835Y-117178087D01*
X139151235Y-117109696D01*
X139110741Y-117011370D01*
X139085745Y-116902068D01*
X139077083Y-116779748D01*
X139082514Y-116681724D01*
X139098211Y-116592980D01*
X139123532Y-116512347D01*
X139158196Y-116438810D01*
X139203373Y-116370866D01*
X139257570Y-116311928D01*
X139321417Y-116261300D01*
X139395966Y-116218698D01*
X139479554Y-116188402D01*
X139587289Y-116168203D01*
X139724668Y-116160739D01*
X139858672Y-116165691D01*
X139955286Y-116178549D01*
X140022669Y-116196716D01*
X140085411Y-116225420D01*
X140139728Y-116262493D01*
X140186580Y-116308237D01*
X140225362Y-116361333D01*
X140258126Y-116424686D01*
X140284546Y-116499846D01*
X139926315Y-116564033D01*
X139907644Y-116521189D01*
X139882704Y-116486773D01*
X139851284Y-116459546D01*
X139814431Y-116440065D01*
X139770071Y-116427746D01*
X139716461Y-116423349D01*
X139656857Y-116428954D01*
X139605542Y-116445003D01*
X139560884Y-116471108D01*
X139521775Y-116507906D01*
X139492534Y-116551420D01*
X139469855Y-116608237D01*
X139454794Y-116681567D01*
X139449235Y-116775279D01*
X139454995Y-116875469D01*
X139470436Y-116952139D01*
X139493386Y-117009984D01*
X139522581Y-117052909D01*
X139561936Y-117088660D01*
X139608135Y-117114411D01*
X139662543Y-117130474D01*
X139727086Y-117136147D01*
X139788339Y-117131604D01*
X139845935Y-117118196D01*
X139903549Y-117095271D01*
X139975481Y-117056793D01*
X139975481Y-116943879D01*
X139727086Y-116943879D01*
G37*
G36*
X140521584Y-116179497D02*
G01*
X140892930Y-116179497D01*
X140892930Y-117084563D01*
X141472519Y-117084563D01*
X141472519Y-117380000D01*
X140521584Y-117380000D01*
X140521584Y-116179497D01*
G37*
G36*
X141437934Y-116179497D02*
G01*
X141826500Y-116179497D01*
X142097023Y-117043457D01*
X142363443Y-116179497D01*
X142740505Y-116179497D01*
X142294567Y-117380000D01*
X141892079Y-117380000D01*
X141437934Y-116179497D01*
G37*
G36*
X139058178Y-118996150D02*
G01*
X139411500Y-118973948D01*
X139422807Y-119030582D01*
X139438687Y-119073511D01*
X139458248Y-119105473D01*
X139489531Y-119137121D01*
X139526435Y-119159705D01*
X139570081Y-119173724D01*
X139622159Y-119178672D01*
X139673943Y-119174012D01*
X139713909Y-119161296D01*
X139744672Y-119141596D01*
X139769243Y-119114652D01*
X139783153Y-119086336D01*
X139787756Y-119055647D01*
X139783410Y-119026417D01*
X139770204Y-118999003D01*
X139746796Y-118972482D01*
X139716022Y-118952623D01*
X139657124Y-118929487D01*
X139556580Y-118903240D01*
X139430475Y-118869750D01*
X139333740Y-118833816D01*
X139261180Y-118796375D01*
X139208241Y-118758013D01*
X139161972Y-118709107D01*
X139129632Y-118655125D01*
X139110058Y-118594971D01*
X139103314Y-118526983D01*
X139109198Y-118467035D01*
X139126871Y-118409262D01*
X139157023Y-118352667D01*
X139197537Y-118303147D01*
X139250665Y-118260196D01*
X139318517Y-118223707D01*
X139392054Y-118199339D01*
X139488752Y-118182877D01*
X139614026Y-118176739D01*
X139731741Y-118183154D01*
X139827097Y-118200779D01*
X139903853Y-118227669D01*
X139965223Y-118262615D01*
X140017827Y-118309893D01*
X140059371Y-118369555D01*
X140090127Y-118443835D01*
X140109131Y-118535923D01*
X139759106Y-118556586D01*
X139745309Y-118504060D01*
X139725540Y-118465418D01*
X139700488Y-118437664D01*
X139668692Y-118417825D01*
X139628336Y-118405127D01*
X139577096Y-118400515D01*
X139517646Y-118408121D01*
X139479497Y-118427845D01*
X139454749Y-118458444D01*
X139446744Y-118494230D01*
X139453122Y-118520570D01*
X139473782Y-118545521D01*
X139509923Y-118565358D01*
X139598419Y-118589558D01*
X139761808Y-118628929D01*
X139874076Y-118664148D01*
X139947198Y-118695218D01*
X140013598Y-118735535D01*
X140063864Y-118779716D01*
X140100484Y-118827842D01*
X140127010Y-118882356D01*
X140143019Y-118941034D01*
X140148478Y-119004942D01*
X140141352Y-119079786D01*
X140120185Y-119150115D01*
X140084511Y-119217214D01*
X140036760Y-119276260D01*
X139977691Y-119325207D01*
X139905799Y-119364565D01*
X139827663Y-119391182D01*
X139732310Y-119408497D01*
X139616444Y-119414757D01*
X139486085Y-119408576D01*
X139382813Y-119391795D01*
X139301946Y-119366629D01*
X139239403Y-119334629D01*
X139191828Y-119296568D01*
X139139652Y-119234114D01*
X139100168Y-119164099D01*
X139072899Y-119085322D01*
X139058178Y-118996150D01*
G37*
G36*
X140213838Y-118195497D02*
G01*
X140626217Y-118195497D01*
X140868824Y-118600036D01*
X141111503Y-118195497D01*
X141521318Y-118195497D01*
X141054131Y-118893201D01*
X141054131Y-119396000D01*
X140681905Y-119396000D01*
X140681905Y-118893201D01*
X140213838Y-118195497D01*
G37*
G36*
X141504905Y-118996150D02*
G01*
X141858227Y-118973948D01*
X141869535Y-119030582D01*
X141885414Y-119073511D01*
X141904975Y-119105473D01*
X141936258Y-119137121D01*
X141973162Y-119159705D01*
X142016808Y-119173724D01*
X142068886Y-119178672D01*
X142120670Y-119174012D01*
X142160636Y-119161296D01*
X142191399Y-119141596D01*
X142215970Y-119114652D01*
X142229880Y-119086336D01*
X142234483Y-119055647D01*
X142230137Y-119026417D01*
X142216931Y-118999003D01*
X142193524Y-118972482D01*
X142162749Y-118952623D01*
X142103852Y-118929487D01*
X142003307Y-118903240D01*
X141877202Y-118869750D01*
X141780467Y-118833816D01*
X141707907Y-118796375D01*
X141654968Y-118758013D01*
X141608699Y-118709107D01*
X141576359Y-118655125D01*
X141556786Y-118594971D01*
X141550041Y-118526983D01*
X141555925Y-118467035D01*
X141573598Y-118409262D01*
X141603750Y-118352667D01*
X141644264Y-118303147D01*
X141697392Y-118260196D01*
X141765244Y-118223707D01*
X141838781Y-118199339D01*
X141935480Y-118182877D01*
X142060753Y-118176739D01*
X142178469Y-118183154D01*
X142273824Y-118200779D01*
X142350580Y-118227669D01*
X142411950Y-118262615D01*
X142464554Y-118309893D01*
X142506098Y-118369555D01*
X142536854Y-118443835D01*
X142555858Y-118535923D01*
X142205833Y-118556586D01*
X142192036Y-118504060D01*
X142172267Y-118465418D01*
X142147215Y-118437664D01*
X142115419Y-118417825D01*
X142075063Y-118405127D01*
X142023824Y-118400515D01*
X141964373Y-118408121D01*
X141926224Y-118427845D01*
X141901476Y-118458444D01*
X141893471Y-118494230D01*
X141899850Y-118520570D01*
X141920509Y-118545521D01*
X141956651Y-118565358D01*
X142045146Y-118589558D01*
X142208536Y-118628929D01*
X142320803Y-118664148D01*
X142393925Y-118695218D01*
X142460325Y-118735535D01*
X142510591Y-118779716D01*
X142547212Y-118827842D01*
X142573737Y-118882356D01*
X142589746Y-118941034D01*
X142595205Y-119004942D01*
X142588079Y-119079786D01*
X142566912Y-119150115D01*
X142531238Y-119217214D01*
X142483488Y-119276260D01*
X142424418Y-119325207D01*
X142352526Y-119364565D01*
X142274390Y-119391182D01*
X142179038Y-119408497D01*
X142063171Y-119414757D01*
X141932812Y-119408576D01*
X141829540Y-119391795D01*
X141748673Y-119366629D01*
X141686131Y-119334629D01*
X141638555Y-119296568D01*
X141586379Y-119234114D01*
X141546895Y-119164099D01*
X141519627Y-119085322D01*
X141504905Y-118996150D01*
G37*
G36*
X142697494Y-118195497D02*
G01*
X143826263Y-118195497D01*
X143826263Y-118490933D01*
X143447515Y-118490933D01*
X143447515Y-119396000D01*
X143076168Y-119396000D01*
X143076168Y-118490933D01*
X142697494Y-118490933D01*
X142697494Y-118195497D01*
G37*
G36*
X143993325Y-118195497D02*
G01*
X144988517Y-118195497D01*
X144988517Y-118453418D01*
X144365478Y-118453418D01*
X144365478Y-118645685D01*
X144943381Y-118645685D01*
X144943381Y-118889538D01*
X144365478Y-118889538D01*
X144365478Y-119124011D01*
X145006542Y-119124011D01*
X145006542Y-119396000D01*
X143993325Y-119396000D01*
X143993325Y-118195497D01*
G37*
G36*
X145202254Y-118195497D02*
G01*
X145690837Y-118195497D01*
X145879368Y-118925441D01*
X146067093Y-118195497D01*
X146553991Y-118195497D01*
X146553991Y-119396000D01*
X146250715Y-119396000D01*
X146250715Y-118479503D01*
X146015436Y-119396000D01*
X145740809Y-119396000D01*
X145506409Y-118479503D01*
X145506409Y-119396000D01*
X145202254Y-119396000D01*
X145202254Y-118195497D01*
G37*
D11*
X135444368Y-102798627D02*
X135539606Y-102798627D01*
X135480082Y-102965293D02*
X135480082Y-102751008D01*
X135480082Y-102751008D02*
X135491987Y-102727198D01*
X135491987Y-102727198D02*
X135515797Y-102715293D01*
X135515797Y-102715293D02*
X135539606Y-102715293D01*
X135658654Y-102965293D02*
X135634844Y-102953389D01*
X135634844Y-102953389D02*
X135622939Y-102941484D01*
X135622939Y-102941484D02*
X135611035Y-102917674D01*
X135611035Y-102917674D02*
X135611035Y-102846246D01*
X135611035Y-102846246D02*
X135622939Y-102822436D01*
X135622939Y-102822436D02*
X135634844Y-102810531D01*
X135634844Y-102810531D02*
X135658654Y-102798627D01*
X135658654Y-102798627D02*
X135694368Y-102798627D01*
X135694368Y-102798627D02*
X135718177Y-102810531D01*
X135718177Y-102810531D02*
X135730082Y-102822436D01*
X135730082Y-102822436D02*
X135741987Y-102846246D01*
X135741987Y-102846246D02*
X135741987Y-102917674D01*
X135741987Y-102917674D02*
X135730082Y-102941484D01*
X135730082Y-102941484D02*
X135718177Y-102953389D01*
X135718177Y-102953389D02*
X135694368Y-102965293D01*
X135694368Y-102965293D02*
X135658654Y-102965293D01*
X135849129Y-102965293D02*
X135849129Y-102798627D01*
X135849129Y-102846246D02*
X135861034Y-102822436D01*
X135861034Y-102822436D02*
X135872939Y-102810531D01*
X135872939Y-102810531D02*
X135896748Y-102798627D01*
X135896748Y-102798627D02*
X135920558Y-102798627D01*
X136241986Y-102715293D02*
X136265796Y-102715293D01*
X136265796Y-102715293D02*
X136289605Y-102727198D01*
X136289605Y-102727198D02*
X136301510Y-102739103D01*
X136301510Y-102739103D02*
X136313415Y-102762912D01*
X136313415Y-102762912D02*
X136325320Y-102810531D01*
X136325320Y-102810531D02*
X136325320Y-102870055D01*
X136325320Y-102870055D02*
X136313415Y-102917674D01*
X136313415Y-102917674D02*
X136301510Y-102941484D01*
X136301510Y-102941484D02*
X136289605Y-102953389D01*
X136289605Y-102953389D02*
X136265796Y-102965293D01*
X136265796Y-102965293D02*
X136241986Y-102965293D01*
X136241986Y-102965293D02*
X136218177Y-102953389D01*
X136218177Y-102953389D02*
X136206272Y-102941484D01*
X136206272Y-102941484D02*
X136194367Y-102917674D01*
X136194367Y-102917674D02*
X136182463Y-102870055D01*
X136182463Y-102870055D02*
X136182463Y-102810531D01*
X136182463Y-102810531D02*
X136194367Y-102762912D01*
X136194367Y-102762912D02*
X136206272Y-102739103D01*
X136206272Y-102739103D02*
X136218177Y-102727198D01*
X136218177Y-102727198D02*
X136241986Y-102715293D01*
X136432462Y-102870055D02*
X136622939Y-102870055D01*
X136861034Y-102715293D02*
X136741986Y-102715293D01*
X136741986Y-102715293D02*
X136730082Y-102834341D01*
X136730082Y-102834341D02*
X136741986Y-102822436D01*
X136741986Y-102822436D02*
X136765796Y-102810531D01*
X136765796Y-102810531D02*
X136825320Y-102810531D01*
X136825320Y-102810531D02*
X136849129Y-102822436D01*
X136849129Y-102822436D02*
X136861034Y-102834341D01*
X136861034Y-102834341D02*
X136872939Y-102858150D01*
X136872939Y-102858150D02*
X136872939Y-102917674D01*
X136872939Y-102917674D02*
X136861034Y-102941484D01*
X136861034Y-102941484D02*
X136849129Y-102953389D01*
X136849129Y-102953389D02*
X136825320Y-102965293D01*
X136825320Y-102965293D02*
X136765796Y-102965293D01*
X136765796Y-102965293D02*
X136741986Y-102953389D01*
X136741986Y-102953389D02*
X136730082Y-102941484D01*
X137027700Y-102715293D02*
X137051510Y-102715293D01*
X137051510Y-102715293D02*
X137075319Y-102727198D01*
X137075319Y-102727198D02*
X137087224Y-102739103D01*
X137087224Y-102739103D02*
X137099129Y-102762912D01*
X137099129Y-102762912D02*
X137111034Y-102810531D01*
X137111034Y-102810531D02*
X137111034Y-102870055D01*
X137111034Y-102870055D02*
X137099129Y-102917674D01*
X137099129Y-102917674D02*
X137087224Y-102941484D01*
X137087224Y-102941484D02*
X137075319Y-102953389D01*
X137075319Y-102953389D02*
X137051510Y-102965293D01*
X137051510Y-102965293D02*
X137027700Y-102965293D01*
X137027700Y-102965293D02*
X137003891Y-102953389D01*
X137003891Y-102953389D02*
X136991986Y-102941484D01*
X136991986Y-102941484D02*
X136980081Y-102917674D01*
X136980081Y-102917674D02*
X136968177Y-102870055D01*
X136968177Y-102870055D02*
X136968177Y-102810531D01*
X136968177Y-102810531D02*
X136980081Y-102762912D01*
X136980081Y-102762912D02*
X136991986Y-102739103D01*
X136991986Y-102739103D02*
X137003891Y-102727198D01*
X137003891Y-102727198D02*
X137027700Y-102715293D01*
X137182462Y-102715293D02*
X137265795Y-102965293D01*
X137265795Y-102965293D02*
X137349129Y-102715293D01*
X135480082Y-103201113D02*
X135480082Y-103367779D01*
X135480082Y-103224922D02*
X135491987Y-103213017D01*
X135491987Y-103213017D02*
X135515797Y-103201113D01*
X135515797Y-103201113D02*
X135551511Y-103201113D01*
X135551511Y-103201113D02*
X135575320Y-103213017D01*
X135575320Y-103213017D02*
X135587225Y-103236827D01*
X135587225Y-103236827D02*
X135587225Y-103367779D01*
X135801510Y-103355875D02*
X135777701Y-103367779D01*
X135777701Y-103367779D02*
X135730082Y-103367779D01*
X135730082Y-103367779D02*
X135706272Y-103355875D01*
X135706272Y-103355875D02*
X135694368Y-103332065D01*
X135694368Y-103332065D02*
X135694368Y-103236827D01*
X135694368Y-103236827D02*
X135706272Y-103213017D01*
X135706272Y-103213017D02*
X135730082Y-103201113D01*
X135730082Y-103201113D02*
X135777701Y-103201113D01*
X135777701Y-103201113D02*
X135801510Y-103213017D01*
X135801510Y-103213017D02*
X135813415Y-103236827D01*
X135813415Y-103236827D02*
X135813415Y-103260636D01*
X135813415Y-103260636D02*
X135694368Y-103284446D01*
X136015796Y-103355875D02*
X135991987Y-103367779D01*
X135991987Y-103367779D02*
X135944368Y-103367779D01*
X135944368Y-103367779D02*
X135920558Y-103355875D01*
X135920558Y-103355875D02*
X135908654Y-103332065D01*
X135908654Y-103332065D02*
X135908654Y-103236827D01*
X135908654Y-103236827D02*
X135920558Y-103213017D01*
X135920558Y-103213017D02*
X135944368Y-103201113D01*
X135944368Y-103201113D02*
X135991987Y-103201113D01*
X135991987Y-103201113D02*
X136015796Y-103213017D01*
X136015796Y-103213017D02*
X136027701Y-103236827D01*
X136027701Y-103236827D02*
X136027701Y-103260636D01*
X136027701Y-103260636D02*
X135908654Y-103284446D01*
X136241987Y-103367779D02*
X136241987Y-103117779D01*
X136241987Y-103355875D02*
X136218178Y-103367779D01*
X136218178Y-103367779D02*
X136170559Y-103367779D01*
X136170559Y-103367779D02*
X136146749Y-103355875D01*
X136146749Y-103355875D02*
X136134844Y-103343970D01*
X136134844Y-103343970D02*
X136122940Y-103320160D01*
X136122940Y-103320160D02*
X136122940Y-103248732D01*
X136122940Y-103248732D02*
X136134844Y-103224922D01*
X136134844Y-103224922D02*
X136146749Y-103213017D01*
X136146749Y-103213017D02*
X136170559Y-103201113D01*
X136170559Y-103201113D02*
X136218178Y-103201113D01*
X136218178Y-103201113D02*
X136241987Y-103213017D01*
X136682463Y-103367779D02*
X136539606Y-103367779D01*
X136611034Y-103367779D02*
X136611034Y-103117779D01*
X136611034Y-103117779D02*
X136587225Y-103153494D01*
X136587225Y-103153494D02*
X136563415Y-103177303D01*
X136563415Y-103177303D02*
X136539606Y-103189208D01*
X136789605Y-103343970D02*
X136801510Y-103355875D01*
X136801510Y-103355875D02*
X136789605Y-103367779D01*
X136789605Y-103367779D02*
X136777701Y-103355875D01*
X136777701Y-103355875D02*
X136789605Y-103343970D01*
X136789605Y-103343970D02*
X136789605Y-103367779D01*
X137015796Y-103117779D02*
X136968177Y-103117779D01*
X136968177Y-103117779D02*
X136944368Y-103129684D01*
X136944368Y-103129684D02*
X136932463Y-103141589D01*
X136932463Y-103141589D02*
X136908653Y-103177303D01*
X136908653Y-103177303D02*
X136896749Y-103224922D01*
X136896749Y-103224922D02*
X136896749Y-103320160D01*
X136896749Y-103320160D02*
X136908653Y-103343970D01*
X136908653Y-103343970D02*
X136920558Y-103355875D01*
X136920558Y-103355875D02*
X136944368Y-103367779D01*
X136944368Y-103367779D02*
X136991987Y-103367779D01*
X136991987Y-103367779D02*
X137015796Y-103355875D01*
X137015796Y-103355875D02*
X137027701Y-103343970D01*
X137027701Y-103343970D02*
X137039606Y-103320160D01*
X137039606Y-103320160D02*
X137039606Y-103260636D01*
X137039606Y-103260636D02*
X137027701Y-103236827D01*
X137027701Y-103236827D02*
X137015796Y-103224922D01*
X137015796Y-103224922D02*
X136991987Y-103213017D01*
X136991987Y-103213017D02*
X136944368Y-103213017D01*
X136944368Y-103213017D02*
X136920558Y-103224922D01*
X136920558Y-103224922D02*
X136908653Y-103236827D01*
X136908653Y-103236827D02*
X136896749Y-103260636D01*
X137146748Y-103367779D02*
X137146748Y-103201113D01*
X137146748Y-103224922D02*
X137158653Y-103213017D01*
X137158653Y-103213017D02*
X137182463Y-103201113D01*
X137182463Y-103201113D02*
X137218177Y-103201113D01*
X137218177Y-103201113D02*
X137241986Y-103213017D01*
X137241986Y-103213017D02*
X137253891Y-103236827D01*
X137253891Y-103236827D02*
X137253891Y-103367779D01*
X137253891Y-103236827D02*
X137265796Y-103213017D01*
X137265796Y-103213017D02*
X137289605Y-103201113D01*
X137289605Y-103201113D02*
X137325320Y-103201113D01*
X137325320Y-103201113D02*
X137349129Y-103213017D01*
X137349129Y-103213017D02*
X137361034Y-103236827D01*
X137361034Y-103236827D02*
X137361034Y-103367779D01*
X137480081Y-103367779D02*
X137480081Y-103201113D01*
X137480081Y-103224922D02*
X137491986Y-103213017D01*
X137491986Y-103213017D02*
X137515796Y-103201113D01*
X137515796Y-103201113D02*
X137551510Y-103201113D01*
X137551510Y-103201113D02*
X137575319Y-103213017D01*
X137575319Y-103213017D02*
X137587224Y-103236827D01*
X137587224Y-103236827D02*
X137587224Y-103367779D01*
X137587224Y-103236827D02*
X137599129Y-103213017D01*
X137599129Y-103213017D02*
X137622938Y-103201113D01*
X137622938Y-103201113D02*
X137658653Y-103201113D01*
X137658653Y-103201113D02*
X137682462Y-103213017D01*
X137682462Y-103213017D02*
X137694367Y-103236827D01*
X137694367Y-103236827D02*
X137694367Y-103367779D01*
D15*
X126270989Y-113437802D02*
X126423370Y-113437802D01*
X126328132Y-113704469D02*
X126328132Y-113361612D01*
X126328132Y-113361612D02*
X126347179Y-113323517D01*
X126347179Y-113323517D02*
X126385274Y-113304469D01*
X126385274Y-113304469D02*
X126423370Y-113304469D01*
X126613845Y-113704469D02*
X126575750Y-113685422D01*
X126575750Y-113685422D02*
X126556703Y-113666374D01*
X126556703Y-113666374D02*
X126537655Y-113628279D01*
X126537655Y-113628279D02*
X126537655Y-113513993D01*
X126537655Y-113513993D02*
X126556703Y-113475898D01*
X126556703Y-113475898D02*
X126575750Y-113456850D01*
X126575750Y-113456850D02*
X126613845Y-113437802D01*
X126613845Y-113437802D02*
X126670988Y-113437802D01*
X126670988Y-113437802D02*
X126709084Y-113456850D01*
X126709084Y-113456850D02*
X126728131Y-113475898D01*
X126728131Y-113475898D02*
X126747179Y-113513993D01*
X126747179Y-113513993D02*
X126747179Y-113628279D01*
X126747179Y-113628279D02*
X126728131Y-113666374D01*
X126728131Y-113666374D02*
X126709084Y-113685422D01*
X126709084Y-113685422D02*
X126670988Y-113704469D01*
X126670988Y-113704469D02*
X126613845Y-113704469D01*
X126918608Y-113704469D02*
X126918608Y-113437802D01*
X126918608Y-113513993D02*
X126937655Y-113475898D01*
X126937655Y-113475898D02*
X126956703Y-113456850D01*
X126956703Y-113456850D02*
X126994798Y-113437802D01*
X126994798Y-113437802D02*
X127032893Y-113437802D01*
X127680512Y-113704469D02*
X127451941Y-113704469D01*
X127566227Y-113704469D02*
X127566227Y-113304469D01*
X127566227Y-113304469D02*
X127528131Y-113361612D01*
X127528131Y-113361612D02*
X127490036Y-113399707D01*
X127490036Y-113399707D02*
X127451941Y-113418755D01*
X128042417Y-113304469D02*
X127851941Y-113304469D01*
X127851941Y-113304469D02*
X127832893Y-113494945D01*
X127832893Y-113494945D02*
X127851941Y-113475898D01*
X127851941Y-113475898D02*
X127890036Y-113456850D01*
X127890036Y-113456850D02*
X127985274Y-113456850D01*
X127985274Y-113456850D02*
X128023369Y-113475898D01*
X128023369Y-113475898D02*
X128042417Y-113494945D01*
X128042417Y-113494945D02*
X128061464Y-113533041D01*
X128061464Y-113533041D02*
X128061464Y-113628279D01*
X128061464Y-113628279D02*
X128042417Y-113666374D01*
X128042417Y-113666374D02*
X128023369Y-113685422D01*
X128023369Y-113685422D02*
X127985274Y-113704469D01*
X127985274Y-113704469D02*
X127890036Y-113704469D01*
X127890036Y-113704469D02*
X127851941Y-113685422D01*
X127851941Y-113685422D02*
X127832893Y-113666374D01*
X128309083Y-113304469D02*
X128347178Y-113304469D01*
X128347178Y-113304469D02*
X128385274Y-113323517D01*
X128385274Y-113323517D02*
X128404321Y-113342564D01*
X128404321Y-113342564D02*
X128423369Y-113380660D01*
X128423369Y-113380660D02*
X128442416Y-113456850D01*
X128442416Y-113456850D02*
X128442416Y-113552088D01*
X128442416Y-113552088D02*
X128423369Y-113628279D01*
X128423369Y-113628279D02*
X128404321Y-113666374D01*
X128404321Y-113666374D02*
X128385274Y-113685422D01*
X128385274Y-113685422D02*
X128347178Y-113704469D01*
X128347178Y-113704469D02*
X128309083Y-113704469D01*
X128309083Y-113704469D02*
X128270988Y-113685422D01*
X128270988Y-113685422D02*
X128251940Y-113666374D01*
X128251940Y-113666374D02*
X128232893Y-113628279D01*
X128232893Y-113628279D02*
X128213845Y-113552088D01*
X128213845Y-113552088D02*
X128213845Y-113456850D01*
X128213845Y-113456850D02*
X128232893Y-113380660D01*
X128232893Y-113380660D02*
X128251940Y-113342564D01*
X128251940Y-113342564D02*
X128270988Y-113323517D01*
X128270988Y-113323517D02*
X128309083Y-113304469D01*
X128613845Y-113552088D02*
X128918607Y-113552088D01*
X129070987Y-113304469D02*
X129318606Y-113304469D01*
X129318606Y-113304469D02*
X129185273Y-113456850D01*
X129185273Y-113456850D02*
X129242416Y-113456850D01*
X129242416Y-113456850D02*
X129280511Y-113475898D01*
X129280511Y-113475898D02*
X129299559Y-113494945D01*
X129299559Y-113494945D02*
X129318606Y-113533041D01*
X129318606Y-113533041D02*
X129318606Y-113628279D01*
X129318606Y-113628279D02*
X129299559Y-113666374D01*
X129299559Y-113666374D02*
X129280511Y-113685422D01*
X129280511Y-113685422D02*
X129242416Y-113704469D01*
X129242416Y-113704469D02*
X129128130Y-113704469D01*
X129128130Y-113704469D02*
X129090035Y-113685422D01*
X129090035Y-113685422D02*
X129070987Y-113666374D01*
X129566225Y-113304469D02*
X129604320Y-113304469D01*
X129604320Y-113304469D02*
X129642416Y-113323517D01*
X129642416Y-113323517D02*
X129661463Y-113342564D01*
X129661463Y-113342564D02*
X129680511Y-113380660D01*
X129680511Y-113380660D02*
X129699558Y-113456850D01*
X129699558Y-113456850D02*
X129699558Y-113552088D01*
X129699558Y-113552088D02*
X129680511Y-113628279D01*
X129680511Y-113628279D02*
X129661463Y-113666374D01*
X129661463Y-113666374D02*
X129642416Y-113685422D01*
X129642416Y-113685422D02*
X129604320Y-113704469D01*
X129604320Y-113704469D02*
X129566225Y-113704469D01*
X129566225Y-113704469D02*
X129528130Y-113685422D01*
X129528130Y-113685422D02*
X129509082Y-113666374D01*
X129509082Y-113666374D02*
X129490035Y-113628279D01*
X129490035Y-113628279D02*
X129470987Y-113552088D01*
X129470987Y-113552088D02*
X129470987Y-113456850D01*
X129470987Y-113456850D02*
X129490035Y-113380660D01*
X129490035Y-113380660D02*
X129509082Y-113342564D01*
X129509082Y-113342564D02*
X129528130Y-113323517D01*
X129528130Y-113323517D02*
X129566225Y-113304469D01*
X129947177Y-113304469D02*
X129985272Y-113304469D01*
X129985272Y-113304469D02*
X130023368Y-113323517D01*
X130023368Y-113323517D02*
X130042415Y-113342564D01*
X130042415Y-113342564D02*
X130061463Y-113380660D01*
X130061463Y-113380660D02*
X130080510Y-113456850D01*
X130080510Y-113456850D02*
X130080510Y-113552088D01*
X130080510Y-113552088D02*
X130061463Y-113628279D01*
X130061463Y-113628279D02*
X130042415Y-113666374D01*
X130042415Y-113666374D02*
X130023368Y-113685422D01*
X130023368Y-113685422D02*
X129985272Y-113704469D01*
X129985272Y-113704469D02*
X129947177Y-113704469D01*
X129947177Y-113704469D02*
X129909082Y-113685422D01*
X129909082Y-113685422D02*
X129890034Y-113666374D01*
X129890034Y-113666374D02*
X129870987Y-113628279D01*
X129870987Y-113628279D02*
X129851939Y-113552088D01*
X129851939Y-113552088D02*
X129851939Y-113456850D01*
X129851939Y-113456850D02*
X129870987Y-113380660D01*
X129870987Y-113380660D02*
X129890034Y-113342564D01*
X129890034Y-113342564D02*
X129909082Y-113323517D01*
X129909082Y-113323517D02*
X129947177Y-113304469D01*
X130194796Y-113304469D02*
X130328129Y-113704469D01*
X130328129Y-113704469D02*
X130461462Y-113304469D01*
X130899558Y-113437802D02*
X130899558Y-113704469D01*
X130899558Y-113475898D02*
X130918605Y-113456850D01*
X130918605Y-113456850D02*
X130956700Y-113437802D01*
X130956700Y-113437802D02*
X131013843Y-113437802D01*
X131013843Y-113437802D02*
X131051939Y-113456850D01*
X131051939Y-113456850D02*
X131070986Y-113494945D01*
X131070986Y-113494945D02*
X131070986Y-113704469D01*
X131413844Y-113685422D02*
X131375748Y-113704469D01*
X131375748Y-113704469D02*
X131299558Y-113704469D01*
X131299558Y-113704469D02*
X131261463Y-113685422D01*
X131261463Y-113685422D02*
X131242415Y-113647326D01*
X131242415Y-113647326D02*
X131242415Y-113494945D01*
X131242415Y-113494945D02*
X131261463Y-113456850D01*
X131261463Y-113456850D02*
X131299558Y-113437802D01*
X131299558Y-113437802D02*
X131375748Y-113437802D01*
X131375748Y-113437802D02*
X131413844Y-113456850D01*
X131413844Y-113456850D02*
X131432891Y-113494945D01*
X131432891Y-113494945D02*
X131432891Y-113533041D01*
X131432891Y-113533041D02*
X131242415Y-113571136D01*
X131756701Y-113685422D02*
X131718605Y-113704469D01*
X131718605Y-113704469D02*
X131642415Y-113704469D01*
X131642415Y-113704469D02*
X131604320Y-113685422D01*
X131604320Y-113685422D02*
X131585272Y-113647326D01*
X131585272Y-113647326D02*
X131585272Y-113494945D01*
X131585272Y-113494945D02*
X131604320Y-113456850D01*
X131604320Y-113456850D02*
X131642415Y-113437802D01*
X131642415Y-113437802D02*
X131718605Y-113437802D01*
X131718605Y-113437802D02*
X131756701Y-113456850D01*
X131756701Y-113456850D02*
X131775748Y-113494945D01*
X131775748Y-113494945D02*
X131775748Y-113533041D01*
X131775748Y-113533041D02*
X131585272Y-113571136D01*
X132118605Y-113704469D02*
X132118605Y-113304469D01*
X132118605Y-113685422D02*
X132080510Y-113704469D01*
X132080510Y-113704469D02*
X132004319Y-113704469D01*
X132004319Y-113704469D02*
X131966224Y-113685422D01*
X131966224Y-113685422D02*
X131947177Y-113666374D01*
X131947177Y-113666374D02*
X131928129Y-113628279D01*
X131928129Y-113628279D02*
X131928129Y-113513993D01*
X131928129Y-113513993D02*
X131947177Y-113475898D01*
X131947177Y-113475898D02*
X131966224Y-113456850D01*
X131966224Y-113456850D02*
X132004319Y-113437802D01*
X132004319Y-113437802D02*
X132080510Y-113437802D01*
X132080510Y-113437802D02*
X132118605Y-113456850D01*
X132632891Y-113704469D02*
X132709082Y-113704469D01*
X132709082Y-113704469D02*
X132747177Y-113685422D01*
X132747177Y-113685422D02*
X132766225Y-113666374D01*
X132766225Y-113666374D02*
X132804320Y-113609231D01*
X132804320Y-113609231D02*
X132823367Y-113533041D01*
X132823367Y-113533041D02*
X132823367Y-113380660D01*
X132823367Y-113380660D02*
X132804320Y-113342564D01*
X132804320Y-113342564D02*
X132785272Y-113323517D01*
X132785272Y-113323517D02*
X132747177Y-113304469D01*
X132747177Y-113304469D02*
X132670986Y-113304469D01*
X132670986Y-113304469D02*
X132632891Y-113323517D01*
X132632891Y-113323517D02*
X132613844Y-113342564D01*
X132613844Y-113342564D02*
X132594796Y-113380660D01*
X132594796Y-113380660D02*
X132594796Y-113475898D01*
X132594796Y-113475898D02*
X132613844Y-113513993D01*
X132613844Y-113513993D02*
X132632891Y-113533041D01*
X132632891Y-113533041D02*
X132670986Y-113552088D01*
X132670986Y-113552088D02*
X132747177Y-113552088D01*
X132747177Y-113552088D02*
X132785272Y-113533041D01*
X132785272Y-113533041D02*
X132804320Y-113513993D01*
X132804320Y-113513993D02*
X132823367Y-113475898D01*
X132994796Y-113666374D02*
X133013843Y-113685422D01*
X133013843Y-113685422D02*
X132994796Y-113704469D01*
X132994796Y-113704469D02*
X132975748Y-113685422D01*
X132975748Y-113685422D02*
X132994796Y-113666374D01*
X132994796Y-113666374D02*
X132994796Y-113704469D01*
X133375748Y-113304469D02*
X133185272Y-113304469D01*
X133185272Y-113304469D02*
X133166224Y-113494945D01*
X133166224Y-113494945D02*
X133185272Y-113475898D01*
X133185272Y-113475898D02*
X133223367Y-113456850D01*
X133223367Y-113456850D02*
X133318605Y-113456850D01*
X133318605Y-113456850D02*
X133356700Y-113475898D01*
X133356700Y-113475898D02*
X133375748Y-113494945D01*
X133375748Y-113494945D02*
X133394795Y-113533041D01*
X133394795Y-113533041D02*
X133394795Y-113628279D01*
X133394795Y-113628279D02*
X133375748Y-113666374D01*
X133375748Y-113666374D02*
X133356700Y-113685422D01*
X133356700Y-113685422D02*
X133318605Y-113704469D01*
X133318605Y-113704469D02*
X133223367Y-113704469D01*
X133223367Y-113704469D02*
X133185272Y-113685422D01*
X133185272Y-113685422D02*
X133166224Y-113666374D01*
X133566224Y-113704469D02*
X133566224Y-113437802D01*
X133566224Y-113475898D02*
X133585271Y-113456850D01*
X133585271Y-113456850D02*
X133623366Y-113437802D01*
X133623366Y-113437802D02*
X133680509Y-113437802D01*
X133680509Y-113437802D02*
X133718605Y-113456850D01*
X133718605Y-113456850D02*
X133737652Y-113494945D01*
X133737652Y-113494945D02*
X133737652Y-113704469D01*
X133737652Y-113494945D02*
X133756700Y-113456850D01*
X133756700Y-113456850D02*
X133794795Y-113437802D01*
X133794795Y-113437802D02*
X133851938Y-113437802D01*
X133851938Y-113437802D02*
X133890033Y-113456850D01*
X133890033Y-113456850D02*
X133909081Y-113494945D01*
X133909081Y-113494945D02*
X133909081Y-113704469D01*
X134099557Y-113704469D02*
X134099557Y-113437802D01*
X134099557Y-113475898D02*
X134118604Y-113456850D01*
X134118604Y-113456850D02*
X134156699Y-113437802D01*
X134156699Y-113437802D02*
X134213842Y-113437802D01*
X134213842Y-113437802D02*
X134251938Y-113456850D01*
X134251938Y-113456850D02*
X134270985Y-113494945D01*
X134270985Y-113494945D02*
X134270985Y-113704469D01*
X134270985Y-113494945D02*
X134290033Y-113456850D01*
X134290033Y-113456850D02*
X134328128Y-113437802D01*
X134328128Y-113437802D02*
X134385271Y-113437802D01*
X134385271Y-113437802D02*
X134423366Y-113456850D01*
X134423366Y-113456850D02*
X134442414Y-113494945D01*
X134442414Y-113494945D02*
X134442414Y-113704469D01*
X126270989Y-114081780D02*
X126423370Y-114081780D01*
X126328132Y-114348447D02*
X126328132Y-114005590D01*
X126328132Y-114005590D02*
X126347179Y-113967495D01*
X126347179Y-113967495D02*
X126385274Y-113948447D01*
X126385274Y-113948447D02*
X126423370Y-113948447D01*
X126613845Y-114348447D02*
X126575750Y-114329400D01*
X126575750Y-114329400D02*
X126556703Y-114310352D01*
X126556703Y-114310352D02*
X126537655Y-114272257D01*
X126537655Y-114272257D02*
X126537655Y-114157971D01*
X126537655Y-114157971D02*
X126556703Y-114119876D01*
X126556703Y-114119876D02*
X126575750Y-114100828D01*
X126575750Y-114100828D02*
X126613845Y-114081780D01*
X126613845Y-114081780D02*
X126670988Y-114081780D01*
X126670988Y-114081780D02*
X126709084Y-114100828D01*
X126709084Y-114100828D02*
X126728131Y-114119876D01*
X126728131Y-114119876D02*
X126747179Y-114157971D01*
X126747179Y-114157971D02*
X126747179Y-114272257D01*
X126747179Y-114272257D02*
X126728131Y-114310352D01*
X126728131Y-114310352D02*
X126709084Y-114329400D01*
X126709084Y-114329400D02*
X126670988Y-114348447D01*
X126670988Y-114348447D02*
X126613845Y-114348447D01*
X126918608Y-114348447D02*
X126918608Y-114081780D01*
X126918608Y-114157971D02*
X126937655Y-114119876D01*
X126937655Y-114119876D02*
X126956703Y-114100828D01*
X126956703Y-114100828D02*
X126994798Y-114081780D01*
X126994798Y-114081780D02*
X127032893Y-114081780D01*
X127432893Y-113948447D02*
X127680512Y-113948447D01*
X127680512Y-113948447D02*
X127547179Y-114100828D01*
X127547179Y-114100828D02*
X127604322Y-114100828D01*
X127604322Y-114100828D02*
X127642417Y-114119876D01*
X127642417Y-114119876D02*
X127661465Y-114138923D01*
X127661465Y-114138923D02*
X127680512Y-114177019D01*
X127680512Y-114177019D02*
X127680512Y-114272257D01*
X127680512Y-114272257D02*
X127661465Y-114310352D01*
X127661465Y-114310352D02*
X127642417Y-114329400D01*
X127642417Y-114329400D02*
X127604322Y-114348447D01*
X127604322Y-114348447D02*
X127490036Y-114348447D01*
X127490036Y-114348447D02*
X127451941Y-114329400D01*
X127451941Y-114329400D02*
X127432893Y-114310352D01*
X127928131Y-113948447D02*
X127966226Y-113948447D01*
X127966226Y-113948447D02*
X128004322Y-113967495D01*
X128004322Y-113967495D02*
X128023369Y-113986542D01*
X128023369Y-113986542D02*
X128042417Y-114024638D01*
X128042417Y-114024638D02*
X128061464Y-114100828D01*
X128061464Y-114100828D02*
X128061464Y-114196066D01*
X128061464Y-114196066D02*
X128042417Y-114272257D01*
X128042417Y-114272257D02*
X128023369Y-114310352D01*
X128023369Y-114310352D02*
X128004322Y-114329400D01*
X128004322Y-114329400D02*
X127966226Y-114348447D01*
X127966226Y-114348447D02*
X127928131Y-114348447D01*
X127928131Y-114348447D02*
X127890036Y-114329400D01*
X127890036Y-114329400D02*
X127870988Y-114310352D01*
X127870988Y-114310352D02*
X127851941Y-114272257D01*
X127851941Y-114272257D02*
X127832893Y-114196066D01*
X127832893Y-114196066D02*
X127832893Y-114100828D01*
X127832893Y-114100828D02*
X127851941Y-114024638D01*
X127851941Y-114024638D02*
X127870988Y-113986542D01*
X127870988Y-113986542D02*
X127890036Y-113967495D01*
X127890036Y-113967495D02*
X127928131Y-113948447D01*
X128309083Y-113948447D02*
X128347178Y-113948447D01*
X128347178Y-113948447D02*
X128385274Y-113967495D01*
X128385274Y-113967495D02*
X128404321Y-113986542D01*
X128404321Y-113986542D02*
X128423369Y-114024638D01*
X128423369Y-114024638D02*
X128442416Y-114100828D01*
X128442416Y-114100828D02*
X128442416Y-114196066D01*
X128442416Y-114196066D02*
X128423369Y-114272257D01*
X128423369Y-114272257D02*
X128404321Y-114310352D01*
X128404321Y-114310352D02*
X128385274Y-114329400D01*
X128385274Y-114329400D02*
X128347178Y-114348447D01*
X128347178Y-114348447D02*
X128309083Y-114348447D01*
X128309083Y-114348447D02*
X128270988Y-114329400D01*
X128270988Y-114329400D02*
X128251940Y-114310352D01*
X128251940Y-114310352D02*
X128232893Y-114272257D01*
X128232893Y-114272257D02*
X128213845Y-114196066D01*
X128213845Y-114196066D02*
X128213845Y-114100828D01*
X128213845Y-114100828D02*
X128232893Y-114024638D01*
X128232893Y-114024638D02*
X128251940Y-113986542D01*
X128251940Y-113986542D02*
X128270988Y-113967495D01*
X128270988Y-113967495D02*
X128309083Y-113948447D01*
X128613845Y-114196066D02*
X128918607Y-114196066D01*
X129299559Y-113948447D02*
X129109083Y-113948447D01*
X129109083Y-113948447D02*
X129090035Y-114138923D01*
X129090035Y-114138923D02*
X129109083Y-114119876D01*
X129109083Y-114119876D02*
X129147178Y-114100828D01*
X129147178Y-114100828D02*
X129242416Y-114100828D01*
X129242416Y-114100828D02*
X129280511Y-114119876D01*
X129280511Y-114119876D02*
X129299559Y-114138923D01*
X129299559Y-114138923D02*
X129318606Y-114177019D01*
X129318606Y-114177019D02*
X129318606Y-114272257D01*
X129318606Y-114272257D02*
X129299559Y-114310352D01*
X129299559Y-114310352D02*
X129280511Y-114329400D01*
X129280511Y-114329400D02*
X129242416Y-114348447D01*
X129242416Y-114348447D02*
X129147178Y-114348447D01*
X129147178Y-114348447D02*
X129109083Y-114329400D01*
X129109083Y-114329400D02*
X129090035Y-114310352D01*
X129566225Y-113948447D02*
X129604320Y-113948447D01*
X129604320Y-113948447D02*
X129642416Y-113967495D01*
X129642416Y-113967495D02*
X129661463Y-113986542D01*
X129661463Y-113986542D02*
X129680511Y-114024638D01*
X129680511Y-114024638D02*
X129699558Y-114100828D01*
X129699558Y-114100828D02*
X129699558Y-114196066D01*
X129699558Y-114196066D02*
X129680511Y-114272257D01*
X129680511Y-114272257D02*
X129661463Y-114310352D01*
X129661463Y-114310352D02*
X129642416Y-114329400D01*
X129642416Y-114329400D02*
X129604320Y-114348447D01*
X129604320Y-114348447D02*
X129566225Y-114348447D01*
X129566225Y-114348447D02*
X129528130Y-114329400D01*
X129528130Y-114329400D02*
X129509082Y-114310352D01*
X129509082Y-114310352D02*
X129490035Y-114272257D01*
X129490035Y-114272257D02*
X129470987Y-114196066D01*
X129470987Y-114196066D02*
X129470987Y-114100828D01*
X129470987Y-114100828D02*
X129490035Y-114024638D01*
X129490035Y-114024638D02*
X129509082Y-113986542D01*
X129509082Y-113986542D02*
X129528130Y-113967495D01*
X129528130Y-113967495D02*
X129566225Y-113948447D01*
X129947177Y-113948447D02*
X129985272Y-113948447D01*
X129985272Y-113948447D02*
X130023368Y-113967495D01*
X130023368Y-113967495D02*
X130042415Y-113986542D01*
X130042415Y-113986542D02*
X130061463Y-114024638D01*
X130061463Y-114024638D02*
X130080510Y-114100828D01*
X130080510Y-114100828D02*
X130080510Y-114196066D01*
X130080510Y-114196066D02*
X130061463Y-114272257D01*
X130061463Y-114272257D02*
X130042415Y-114310352D01*
X130042415Y-114310352D02*
X130023368Y-114329400D01*
X130023368Y-114329400D02*
X129985272Y-114348447D01*
X129985272Y-114348447D02*
X129947177Y-114348447D01*
X129947177Y-114348447D02*
X129909082Y-114329400D01*
X129909082Y-114329400D02*
X129890034Y-114310352D01*
X129890034Y-114310352D02*
X129870987Y-114272257D01*
X129870987Y-114272257D02*
X129851939Y-114196066D01*
X129851939Y-114196066D02*
X129851939Y-114100828D01*
X129851939Y-114100828D02*
X129870987Y-114024638D01*
X129870987Y-114024638D02*
X129890034Y-113986542D01*
X129890034Y-113986542D02*
X129909082Y-113967495D01*
X129909082Y-113967495D02*
X129947177Y-113948447D01*
X130194796Y-113948447D02*
X130328129Y-114348447D01*
X130328129Y-114348447D02*
X130461462Y-113948447D01*
X130899558Y-114081780D02*
X130899558Y-114348447D01*
X130899558Y-114119876D02*
X130918605Y-114100828D01*
X130918605Y-114100828D02*
X130956700Y-114081780D01*
X130956700Y-114081780D02*
X131013843Y-114081780D01*
X131013843Y-114081780D02*
X131051939Y-114100828D01*
X131051939Y-114100828D02*
X131070986Y-114138923D01*
X131070986Y-114138923D02*
X131070986Y-114348447D01*
X131413844Y-114329400D02*
X131375748Y-114348447D01*
X131375748Y-114348447D02*
X131299558Y-114348447D01*
X131299558Y-114348447D02*
X131261463Y-114329400D01*
X131261463Y-114329400D02*
X131242415Y-114291304D01*
X131242415Y-114291304D02*
X131242415Y-114138923D01*
X131242415Y-114138923D02*
X131261463Y-114100828D01*
X131261463Y-114100828D02*
X131299558Y-114081780D01*
X131299558Y-114081780D02*
X131375748Y-114081780D01*
X131375748Y-114081780D02*
X131413844Y-114100828D01*
X131413844Y-114100828D02*
X131432891Y-114138923D01*
X131432891Y-114138923D02*
X131432891Y-114177019D01*
X131432891Y-114177019D02*
X131242415Y-114215114D01*
X131756701Y-114329400D02*
X131718605Y-114348447D01*
X131718605Y-114348447D02*
X131642415Y-114348447D01*
X131642415Y-114348447D02*
X131604320Y-114329400D01*
X131604320Y-114329400D02*
X131585272Y-114291304D01*
X131585272Y-114291304D02*
X131585272Y-114138923D01*
X131585272Y-114138923D02*
X131604320Y-114100828D01*
X131604320Y-114100828D02*
X131642415Y-114081780D01*
X131642415Y-114081780D02*
X131718605Y-114081780D01*
X131718605Y-114081780D02*
X131756701Y-114100828D01*
X131756701Y-114100828D02*
X131775748Y-114138923D01*
X131775748Y-114138923D02*
X131775748Y-114177019D01*
X131775748Y-114177019D02*
X131585272Y-114215114D01*
X132118605Y-114348447D02*
X132118605Y-113948447D01*
X132118605Y-114329400D02*
X132080510Y-114348447D01*
X132080510Y-114348447D02*
X132004319Y-114348447D01*
X132004319Y-114348447D02*
X131966224Y-114329400D01*
X131966224Y-114329400D02*
X131947177Y-114310352D01*
X131947177Y-114310352D02*
X131928129Y-114272257D01*
X131928129Y-114272257D02*
X131928129Y-114157971D01*
X131928129Y-114157971D02*
X131947177Y-114119876D01*
X131947177Y-114119876D02*
X131966224Y-114100828D01*
X131966224Y-114100828D02*
X132004319Y-114081780D01*
X132004319Y-114081780D02*
X132080510Y-114081780D01*
X132080510Y-114081780D02*
X132118605Y-114100828D01*
X132823367Y-114348447D02*
X132594796Y-114348447D01*
X132709082Y-114348447D02*
X132709082Y-113948447D01*
X132709082Y-113948447D02*
X132670986Y-114005590D01*
X132670986Y-114005590D02*
X132632891Y-114043685D01*
X132632891Y-114043685D02*
X132594796Y-114062733D01*
X132975748Y-113986542D02*
X132994796Y-113967495D01*
X132994796Y-113967495D02*
X133032891Y-113948447D01*
X133032891Y-113948447D02*
X133128129Y-113948447D01*
X133128129Y-113948447D02*
X133166224Y-113967495D01*
X133166224Y-113967495D02*
X133185272Y-113986542D01*
X133185272Y-113986542D02*
X133204319Y-114024638D01*
X133204319Y-114024638D02*
X133204319Y-114062733D01*
X133204319Y-114062733D02*
X133185272Y-114119876D01*
X133185272Y-114119876D02*
X132956700Y-114348447D01*
X132956700Y-114348447D02*
X133204319Y-114348447D01*
X133375748Y-114310352D02*
X133394795Y-114329400D01*
X133394795Y-114329400D02*
X133375748Y-114348447D01*
X133375748Y-114348447D02*
X133356700Y-114329400D01*
X133356700Y-114329400D02*
X133375748Y-114310352D01*
X133375748Y-114310352D02*
X133375748Y-114348447D01*
X133528128Y-113948447D02*
X133794795Y-113948447D01*
X133794795Y-113948447D02*
X133623366Y-114348447D01*
X133947176Y-114348447D02*
X133947176Y-114081780D01*
X133947176Y-114119876D02*
X133966223Y-114100828D01*
X133966223Y-114100828D02*
X134004318Y-114081780D01*
X134004318Y-114081780D02*
X134061461Y-114081780D01*
X134061461Y-114081780D02*
X134099557Y-114100828D01*
X134099557Y-114100828D02*
X134118604Y-114138923D01*
X134118604Y-114138923D02*
X134118604Y-114348447D01*
X134118604Y-114138923D02*
X134137652Y-114100828D01*
X134137652Y-114100828D02*
X134175747Y-114081780D01*
X134175747Y-114081780D02*
X134232890Y-114081780D01*
X134232890Y-114081780D02*
X134270985Y-114100828D01*
X134270985Y-114100828D02*
X134290033Y-114138923D01*
X134290033Y-114138923D02*
X134290033Y-114348447D01*
X134480509Y-114348447D02*
X134480509Y-114081780D01*
X134480509Y-114119876D02*
X134499556Y-114100828D01*
X134499556Y-114100828D02*
X134537651Y-114081780D01*
X134537651Y-114081780D02*
X134594794Y-114081780D01*
X134594794Y-114081780D02*
X134632890Y-114100828D01*
X134632890Y-114100828D02*
X134651937Y-114138923D01*
X134651937Y-114138923D02*
X134651937Y-114348447D01*
X134651937Y-114138923D02*
X134670985Y-114100828D01*
X134670985Y-114100828D02*
X134709080Y-114081780D01*
X134709080Y-114081780D02*
X134766223Y-114081780D01*
X134766223Y-114081780D02*
X134804318Y-114100828D01*
X134804318Y-114100828D02*
X134823366Y-114138923D01*
X134823366Y-114138923D02*
X134823366Y-114348447D01*
D13*
X191198260Y-105135559D02*
X190960165Y-105135559D01*
X190960165Y-105135559D02*
X190960165Y-104635559D01*
X191293499Y-104635559D02*
X191460165Y-105135559D01*
X191460165Y-105135559D02*
X191626832Y-104635559D01*
X191793498Y-104945083D02*
X192174451Y-104945083D01*
X191983974Y-105135559D02*
X191983974Y-104754607D01*
X83760165Y-100935559D02*
X83760165Y-100435559D01*
X83760165Y-100673654D02*
X84045879Y-100673654D01*
X84045879Y-100935559D02*
X84045879Y-100435559D01*
X84212547Y-100435559D02*
X84379213Y-100935559D01*
X84379213Y-100935559D02*
X84545880Y-100435559D01*
X84974451Y-100935559D02*
X84688737Y-100935559D01*
X84831594Y-100935559D02*
X84831594Y-100435559D01*
X84831594Y-100435559D02*
X84783975Y-100506988D01*
X84783975Y-100506988D02*
X84736356Y-100554607D01*
X84736356Y-100554607D02*
X84688737Y-100578416D01*
X85164927Y-100483178D02*
X85188736Y-100459369D01*
X85188736Y-100459369D02*
X85236355Y-100435559D01*
X85236355Y-100435559D02*
X85355403Y-100435559D01*
X85355403Y-100435559D02*
X85403022Y-100459369D01*
X85403022Y-100459369D02*
X85426831Y-100483178D01*
X85426831Y-100483178D02*
X85450641Y-100530797D01*
X85450641Y-100530797D02*
X85450641Y-100578416D01*
X85450641Y-100578416D02*
X85426831Y-100649845D01*
X85426831Y-100649845D02*
X85141117Y-100935559D01*
X85141117Y-100935559D02*
X85450641Y-100935559D01*
X85664926Y-100745083D02*
X86045879Y-100745083D01*
X85855402Y-100935559D02*
X85855402Y-100554607D01*
X189760165Y-99730587D02*
X189760165Y-99230587D01*
X189760165Y-99468682D02*
X190045879Y-99468682D01*
X190045879Y-99730587D02*
X190045879Y-99230587D01*
X190379213Y-99230587D02*
X190474451Y-99230587D01*
X190474451Y-99230587D02*
X190522070Y-99254397D01*
X190522070Y-99254397D02*
X190569689Y-99302016D01*
X190569689Y-99302016D02*
X190593499Y-99397254D01*
X190593499Y-99397254D02*
X190593499Y-99563920D01*
X190593499Y-99563920D02*
X190569689Y-99659158D01*
X190569689Y-99659158D02*
X190522070Y-99706778D01*
X190522070Y-99706778D02*
X190474451Y-99730587D01*
X190474451Y-99730587D02*
X190379213Y-99730587D01*
X190379213Y-99730587D02*
X190331594Y-99706778D01*
X190331594Y-99706778D02*
X190283975Y-99659158D01*
X190283975Y-99659158D02*
X190260166Y-99563920D01*
X190260166Y-99563920D02*
X190260166Y-99397254D01*
X190260166Y-99397254D02*
X190283975Y-99302016D01*
X190283975Y-99302016D02*
X190331594Y-99254397D01*
X190331594Y-99254397D02*
X190379213Y-99230587D01*
X190903023Y-99230587D02*
X190998261Y-99230587D01*
X190998261Y-99230587D02*
X191045880Y-99254397D01*
X191045880Y-99254397D02*
X191093499Y-99302016D01*
X191093499Y-99302016D02*
X191117309Y-99397254D01*
X191117309Y-99397254D02*
X191117309Y-99563920D01*
X191117309Y-99563920D02*
X191093499Y-99659158D01*
X191093499Y-99659158D02*
X191045880Y-99706778D01*
X191045880Y-99706778D02*
X190998261Y-99730587D01*
X190998261Y-99730587D02*
X190903023Y-99730587D01*
X190903023Y-99730587D02*
X190855404Y-99706778D01*
X190855404Y-99706778D02*
X190807785Y-99659158D01*
X190807785Y-99659158D02*
X190783976Y-99563920D01*
X190783976Y-99563920D02*
X190783976Y-99397254D01*
X190783976Y-99397254D02*
X190807785Y-99302016D01*
X190807785Y-99302016D02*
X190855404Y-99254397D01*
X190855404Y-99254397D02*
X190903023Y-99230587D01*
X191331595Y-99730587D02*
X191331595Y-99230587D01*
X191331595Y-99230587D02*
X191522071Y-99230587D01*
X191522071Y-99230587D02*
X191569690Y-99254397D01*
X191569690Y-99254397D02*
X191593500Y-99278206D01*
X191593500Y-99278206D02*
X191617309Y-99325825D01*
X191617309Y-99325825D02*
X191617309Y-99397254D01*
X191617309Y-99397254D02*
X191593500Y-99444873D01*
X191593500Y-99444873D02*
X191569690Y-99468682D01*
X191569690Y-99468682D02*
X191522071Y-99492492D01*
X191522071Y-99492492D02*
X191331595Y-99492492D01*
X189998260Y-100535559D02*
X189760165Y-100535559D01*
X189760165Y-100535559D02*
X189760165Y-100035559D01*
X190164927Y-100535559D02*
X190164927Y-100035559D01*
X190664927Y-100059369D02*
X190617308Y-100035559D01*
X190617308Y-100035559D02*
X190545879Y-100035559D01*
X190545879Y-100035559D02*
X190474451Y-100059369D01*
X190474451Y-100059369D02*
X190426832Y-100106988D01*
X190426832Y-100106988D02*
X190403022Y-100154607D01*
X190403022Y-100154607D02*
X190379213Y-100249845D01*
X190379213Y-100249845D02*
X190379213Y-100321273D01*
X190379213Y-100321273D02*
X190403022Y-100416511D01*
X190403022Y-100416511D02*
X190426832Y-100464130D01*
X190426832Y-100464130D02*
X190474451Y-100511750D01*
X190474451Y-100511750D02*
X190545879Y-100535559D01*
X190545879Y-100535559D02*
X190593498Y-100535559D01*
X190593498Y-100535559D02*
X190664927Y-100511750D01*
X190664927Y-100511750D02*
X190688736Y-100487940D01*
X190688736Y-100487940D02*
X190688736Y-100321273D01*
X190688736Y-100321273D02*
X190593498Y-100321273D01*
X190903022Y-100535559D02*
X190903022Y-100035559D01*
X190903022Y-100273654D02*
X191188736Y-100273654D01*
X191188736Y-100535559D02*
X191188736Y-100035559D01*
X191355404Y-100035559D02*
X191641118Y-100035559D01*
X191498261Y-100535559D02*
X191498261Y-100035559D01*
X84760165Y-105935559D02*
X84760165Y-105435559D01*
X84760165Y-105673654D02*
X85045879Y-105673654D01*
X85045879Y-105935559D02*
X85045879Y-105435559D01*
X85212547Y-105435559D02*
X85379213Y-105935559D01*
X85379213Y-105935559D02*
X85545880Y-105435559D01*
X85664927Y-105435559D02*
X85974451Y-105435559D01*
X85974451Y-105435559D02*
X85807784Y-105626035D01*
X85807784Y-105626035D02*
X85879213Y-105626035D01*
X85879213Y-105626035D02*
X85926832Y-105649845D01*
X85926832Y-105649845D02*
X85950641Y-105673654D01*
X85950641Y-105673654D02*
X85974451Y-105721273D01*
X85974451Y-105721273D02*
X85974451Y-105840321D01*
X85974451Y-105840321D02*
X85950641Y-105887940D01*
X85950641Y-105887940D02*
X85926832Y-105911750D01*
X85926832Y-105911750D02*
X85879213Y-105935559D01*
X85879213Y-105935559D02*
X85736356Y-105935559D01*
X85736356Y-105935559D02*
X85688737Y-105911750D01*
X85688737Y-105911750D02*
X85664927Y-105887940D01*
X86212546Y-105935559D02*
X86307784Y-105935559D01*
X86307784Y-105935559D02*
X86355403Y-105911750D01*
X86355403Y-105911750D02*
X86379212Y-105887940D01*
X86379212Y-105887940D02*
X86426831Y-105816511D01*
X86426831Y-105816511D02*
X86450641Y-105721273D01*
X86450641Y-105721273D02*
X86450641Y-105530797D01*
X86450641Y-105530797D02*
X86426831Y-105483178D01*
X86426831Y-105483178D02*
X86403022Y-105459369D01*
X86403022Y-105459369D02*
X86355403Y-105435559D01*
X86355403Y-105435559D02*
X86260165Y-105435559D01*
X86260165Y-105435559D02*
X86212546Y-105459369D01*
X86212546Y-105459369D02*
X86188736Y-105483178D01*
X86188736Y-105483178D02*
X86164927Y-105530797D01*
X86164927Y-105530797D02*
X86164927Y-105649845D01*
X86164927Y-105649845D02*
X86188736Y-105697464D01*
X86188736Y-105697464D02*
X86212546Y-105721273D01*
X86212546Y-105721273D02*
X86260165Y-105745083D01*
X86260165Y-105745083D02*
X86355403Y-105745083D01*
X86355403Y-105745083D02*
X86403022Y-105721273D01*
X86403022Y-105721273D02*
X86426831Y-105697464D01*
X86426831Y-105697464D02*
X86450641Y-105649845D01*
X86760164Y-105435559D02*
X86807783Y-105435559D01*
X86807783Y-105435559D02*
X86855402Y-105459369D01*
X86855402Y-105459369D02*
X86879212Y-105483178D01*
X86879212Y-105483178D02*
X86903021Y-105530797D01*
X86903021Y-105530797D02*
X86926831Y-105626035D01*
X86926831Y-105626035D02*
X86926831Y-105745083D01*
X86926831Y-105745083D02*
X86903021Y-105840321D01*
X86903021Y-105840321D02*
X86879212Y-105887940D01*
X86879212Y-105887940D02*
X86855402Y-105911750D01*
X86855402Y-105911750D02*
X86807783Y-105935559D01*
X86807783Y-105935559D02*
X86760164Y-105935559D01*
X86760164Y-105935559D02*
X86712545Y-105911750D01*
X86712545Y-105911750D02*
X86688736Y-105887940D01*
X86688736Y-105887940D02*
X86664926Y-105840321D01*
X86664926Y-105840321D02*
X86641117Y-105745083D01*
X86641117Y-105745083D02*
X86641117Y-105626035D01*
X86641117Y-105626035D02*
X86664926Y-105530797D01*
X86664926Y-105530797D02*
X86688736Y-105483178D01*
X86688736Y-105483178D02*
X86712545Y-105459369D01*
X86712545Y-105459369D02*
X86760164Y-105435559D01*
X87141116Y-105745083D02*
X87522069Y-105745083D01*
X87331592Y-105935559D02*
X87331592Y-105554607D01*
X190998260Y-102735559D02*
X190760165Y-102735559D01*
X190760165Y-102735559D02*
X190760165Y-102235559D01*
X191093499Y-102235559D02*
X191260165Y-102735559D01*
X191260165Y-102735559D02*
X191426832Y-102235559D01*
X191593498Y-102545083D02*
X191974451Y-102545083D01*
D10*
X130290477Y-112826109D02*
X130004763Y-112826109D01*
X130147620Y-112826109D02*
X130147620Y-112326109D01*
X130147620Y-112326109D02*
X130100001Y-112397538D01*
X130100001Y-112397538D02*
X130052382Y-112445157D01*
X130052382Y-112445157D02*
X130004763Y-112468966D01*
X130480953Y-112373728D02*
X130504762Y-112349919D01*
X130504762Y-112349919D02*
X130552381Y-112326109D01*
X130552381Y-112326109D02*
X130671429Y-112326109D01*
X130671429Y-112326109D02*
X130719048Y-112349919D01*
X130719048Y-112349919D02*
X130742857Y-112373728D01*
X130742857Y-112373728D02*
X130766667Y-112421347D01*
X130766667Y-112421347D02*
X130766667Y-112468966D01*
X130766667Y-112468966D02*
X130742857Y-112540395D01*
X130742857Y-112540395D02*
X130457143Y-112826109D01*
X130457143Y-112826109D02*
X130766667Y-112826109D01*
X130980952Y-112778490D02*
X131004762Y-112802300D01*
X131004762Y-112802300D02*
X130980952Y-112826109D01*
X130980952Y-112826109D02*
X130957143Y-112802300D01*
X130957143Y-112802300D02*
X130980952Y-112778490D01*
X130980952Y-112778490D02*
X130980952Y-112826109D01*
X131290476Y-112540395D02*
X131242857Y-112516585D01*
X131242857Y-112516585D02*
X131219047Y-112492776D01*
X131219047Y-112492776D02*
X131195238Y-112445157D01*
X131195238Y-112445157D02*
X131195238Y-112421347D01*
X131195238Y-112421347D02*
X131219047Y-112373728D01*
X131219047Y-112373728D02*
X131242857Y-112349919D01*
X131242857Y-112349919D02*
X131290476Y-112326109D01*
X131290476Y-112326109D02*
X131385714Y-112326109D01*
X131385714Y-112326109D02*
X131433333Y-112349919D01*
X131433333Y-112349919D02*
X131457142Y-112373728D01*
X131457142Y-112373728D02*
X131480952Y-112421347D01*
X131480952Y-112421347D02*
X131480952Y-112445157D01*
X131480952Y-112445157D02*
X131457142Y-112492776D01*
X131457142Y-112492776D02*
X131433333Y-112516585D01*
X131433333Y-112516585D02*
X131385714Y-112540395D01*
X131385714Y-112540395D02*
X131290476Y-112540395D01*
X131290476Y-112540395D02*
X131242857Y-112564204D01*
X131242857Y-112564204D02*
X131219047Y-112588014D01*
X131219047Y-112588014D02*
X131195238Y-112635633D01*
X131195238Y-112635633D02*
X131195238Y-112730871D01*
X131195238Y-112730871D02*
X131219047Y-112778490D01*
X131219047Y-112778490D02*
X131242857Y-112802300D01*
X131242857Y-112802300D02*
X131290476Y-112826109D01*
X131290476Y-112826109D02*
X131385714Y-112826109D01*
X131385714Y-112826109D02*
X131433333Y-112802300D01*
X131433333Y-112802300D02*
X131457142Y-112778490D01*
X131457142Y-112778490D02*
X131480952Y-112730871D01*
X131480952Y-112730871D02*
X131480952Y-112635633D01*
X131480952Y-112635633D02*
X131457142Y-112588014D01*
X131457142Y-112588014D02*
X131433333Y-112564204D01*
X131433333Y-112564204D02*
X131385714Y-112540395D01*
X132076189Y-112826109D02*
X132076189Y-112492776D01*
X132076189Y-112540395D02*
X132099999Y-112516585D01*
X132099999Y-112516585D02*
X132147618Y-112492776D01*
X132147618Y-112492776D02*
X132219046Y-112492776D01*
X132219046Y-112492776D02*
X132266665Y-112516585D01*
X132266665Y-112516585D02*
X132290475Y-112564204D01*
X132290475Y-112564204D02*
X132290475Y-112826109D01*
X132290475Y-112564204D02*
X132314284Y-112516585D01*
X132314284Y-112516585D02*
X132361903Y-112492776D01*
X132361903Y-112492776D02*
X132433332Y-112492776D01*
X132433332Y-112492776D02*
X132480951Y-112516585D01*
X132480951Y-112516585D02*
X132504761Y-112564204D01*
X132504761Y-112564204D02*
X132504761Y-112826109D01*
X132742856Y-112826109D02*
X132742856Y-112492776D01*
X132742856Y-112540395D02*
X132766666Y-112516585D01*
X132766666Y-112516585D02*
X132814285Y-112492776D01*
X132814285Y-112492776D02*
X132885713Y-112492776D01*
X132885713Y-112492776D02*
X132933332Y-112516585D01*
X132933332Y-112516585D02*
X132957142Y-112564204D01*
X132957142Y-112564204D02*
X132957142Y-112826109D01*
X132957142Y-112564204D02*
X132980951Y-112516585D01*
X132980951Y-112516585D02*
X133028570Y-112492776D01*
X133028570Y-112492776D02*
X133099999Y-112492776D01*
X133099999Y-112492776D02*
X133147618Y-112516585D01*
X133147618Y-112516585D02*
X133171428Y-112564204D01*
X133171428Y-112564204D02*
X133171428Y-112826109D01*
X125200000Y-112600000D02*
X125200000Y-112600000D01*
X138000000Y-112600000D02*
X138000000Y-112600000D01*
X125200000Y-112600000D02*
X129559525Y-112600000D01*
X133640476Y-112600000D02*
X138000000Y-112600000D01*
X125200000Y-112600000D02*
X126326504Y-112013579D01*
X125200000Y-112600000D02*
X126326504Y-113186421D01*
X138000000Y-112600000D02*
X136873496Y-113186421D01*
X138000000Y-112600000D02*
X136873496Y-112013579D01*
D16*
X179899583Y-118359580D02*
X179851964Y-118407200D01*
X179851964Y-118407200D02*
X179709107Y-118454819D01*
X179709107Y-118454819D02*
X179613869Y-118454819D01*
X179613869Y-118454819D02*
X179471012Y-118407200D01*
X179471012Y-118407200D02*
X179375774Y-118311961D01*
X179375774Y-118311961D02*
X179328155Y-118216723D01*
X179328155Y-118216723D02*
X179280536Y-118026247D01*
X179280536Y-118026247D02*
X179280536Y-117883390D01*
X179280536Y-117883390D02*
X179328155Y-117692914D01*
X179328155Y-117692914D02*
X179375774Y-117597676D01*
X179375774Y-117597676D02*
X179471012Y-117502438D01*
X179471012Y-117502438D02*
X179613869Y-117454819D01*
X179613869Y-117454819D02*
X179709107Y-117454819D01*
X179709107Y-117454819D02*
X179851964Y-117502438D01*
X179851964Y-117502438D02*
X179899583Y-117550057D01*
X180280536Y-117550057D02*
X180328155Y-117502438D01*
X180328155Y-117502438D02*
X180423393Y-117454819D01*
X180423393Y-117454819D02*
X180661488Y-117454819D01*
X180661488Y-117454819D02*
X180756726Y-117502438D01*
X180756726Y-117502438D02*
X180804345Y-117550057D01*
X180804345Y-117550057D02*
X180851964Y-117645295D01*
X180851964Y-117645295D02*
X180851964Y-117740533D01*
X180851964Y-117740533D02*
X180804345Y-117883390D01*
X180804345Y-117883390D02*
X180232917Y-118454819D01*
X180232917Y-118454819D02*
X180851964Y-118454819D01*
X194666666Y-96654819D02*
X194666666Y-97369104D01*
X194666666Y-97369104D02*
X194619047Y-97511961D01*
X194619047Y-97511961D02*
X194523809Y-97607200D01*
X194523809Y-97607200D02*
X194380952Y-97654819D01*
X194380952Y-97654819D02*
X194285714Y-97654819D01*
X195095238Y-96750057D02*
X195142857Y-96702438D01*
X195142857Y-96702438D02*
X195238095Y-96654819D01*
X195238095Y-96654819D02*
X195476190Y-96654819D01*
X195476190Y-96654819D02*
X195571428Y-96702438D01*
X195571428Y-96702438D02*
X195619047Y-96750057D01*
X195619047Y-96750057D02*
X195666666Y-96845295D01*
X195666666Y-96845295D02*
X195666666Y-96940533D01*
X195666666Y-96940533D02*
X195619047Y-97083390D01*
X195619047Y-97083390D02*
X195047619Y-97654819D01*
X195047619Y-97654819D02*
X195666666Y-97654819D01*
X81146819Y-103533333D02*
X81861104Y-103533333D01*
X81861104Y-103533333D02*
X82003961Y-103580952D01*
X82003961Y-103580952D02*
X82099200Y-103676190D01*
X82099200Y-103676190D02*
X82146819Y-103819047D01*
X82146819Y-103819047D02*
X82146819Y-103914285D01*
X82146819Y-102533333D02*
X82146819Y-103104761D01*
X82146819Y-102819047D02*
X81146819Y-102819047D01*
X81146819Y-102819047D02*
X81289676Y-102914285D01*
X81289676Y-102914285D02*
X81384914Y-103009523D01*
X81384914Y-103009523D02*
X81432533Y-103104761D01*
X151033333Y-114054819D02*
X150700000Y-113578628D01*
X150461905Y-114054819D02*
X150461905Y-113054819D01*
X150461905Y-113054819D02*
X150842857Y-113054819D01*
X150842857Y-113054819D02*
X150938095Y-113102438D01*
X150938095Y-113102438D02*
X150985714Y-113150057D01*
X150985714Y-113150057D02*
X151033333Y-113245295D01*
X151033333Y-113245295D02*
X151033333Y-113388152D01*
X151033333Y-113388152D02*
X150985714Y-113483390D01*
X150985714Y-113483390D02*
X150938095Y-113531009D01*
X150938095Y-113531009D02*
X150842857Y-113578628D01*
X150842857Y-113578628D02*
X150461905Y-113578628D01*
X151985714Y-114054819D02*
X151414286Y-114054819D01*
X151700000Y-114054819D02*
X151700000Y-113054819D01*
X151700000Y-113054819D02*
X151604762Y-113197676D01*
X151604762Y-113197676D02*
X151509524Y-113292914D01*
X151509524Y-113292914D02*
X151414286Y-113340533D01*
X105233333Y-119424819D02*
X104900000Y-118948628D01*
X104661905Y-119424819D02*
X104661905Y-118424819D01*
X104661905Y-118424819D02*
X105042857Y-118424819D01*
X105042857Y-118424819D02*
X105138095Y-118472438D01*
X105138095Y-118472438D02*
X105185714Y-118520057D01*
X105185714Y-118520057D02*
X105233333Y-118615295D01*
X105233333Y-118615295D02*
X105233333Y-118758152D01*
X105233333Y-118758152D02*
X105185714Y-118853390D01*
X105185714Y-118853390D02*
X105138095Y-118901009D01*
X105138095Y-118901009D02*
X105042857Y-118948628D01*
X105042857Y-118948628D02*
X104661905Y-118948628D01*
X105566667Y-118424819D02*
X106233333Y-118424819D01*
X106233333Y-118424819D02*
X105804762Y-119424819D01*
X120433333Y-95254819D02*
X120100000Y-94778628D01*
X119861905Y-95254819D02*
X119861905Y-94254819D01*
X119861905Y-94254819D02*
X120242857Y-94254819D01*
X120242857Y-94254819D02*
X120338095Y-94302438D01*
X120338095Y-94302438D02*
X120385714Y-94350057D01*
X120385714Y-94350057D02*
X120433333Y-94445295D01*
X120433333Y-94445295D02*
X120433333Y-94588152D01*
X120433333Y-94588152D02*
X120385714Y-94683390D01*
X120385714Y-94683390D02*
X120338095Y-94731009D01*
X120338095Y-94731009D02*
X120242857Y-94778628D01*
X120242857Y-94778628D02*
X119861905Y-94778628D01*
X120766667Y-94254819D02*
X121385714Y-94254819D01*
X121385714Y-94254819D02*
X121052381Y-94635771D01*
X121052381Y-94635771D02*
X121195238Y-94635771D01*
X121195238Y-94635771D02*
X121290476Y-94683390D01*
X121290476Y-94683390D02*
X121338095Y-94731009D01*
X121338095Y-94731009D02*
X121385714Y-94826247D01*
X121385714Y-94826247D02*
X121385714Y-95064342D01*
X121385714Y-95064342D02*
X121338095Y-95159580D01*
X121338095Y-95159580D02*
X121290476Y-95207200D01*
X121290476Y-95207200D02*
X121195238Y-95254819D01*
X121195238Y-95254819D02*
X120909524Y-95254819D01*
X120909524Y-95254819D02*
X120814286Y-95207200D01*
X120814286Y-95207200D02*
X120766667Y-95159580D01*
X119433333Y-113254819D02*
X119100000Y-112778628D01*
X118861905Y-113254819D02*
X118861905Y-112254819D01*
X118861905Y-112254819D02*
X119242857Y-112254819D01*
X119242857Y-112254819D02*
X119338095Y-112302438D01*
X119338095Y-112302438D02*
X119385714Y-112350057D01*
X119385714Y-112350057D02*
X119433333Y-112445295D01*
X119433333Y-112445295D02*
X119433333Y-112588152D01*
X119433333Y-112588152D02*
X119385714Y-112683390D01*
X119385714Y-112683390D02*
X119338095Y-112731009D01*
X119338095Y-112731009D02*
X119242857Y-112778628D01*
X119242857Y-112778628D02*
X118861905Y-112778628D01*
X120290476Y-112254819D02*
X120100000Y-112254819D01*
X120100000Y-112254819D02*
X120004762Y-112302438D01*
X120004762Y-112302438D02*
X119957143Y-112350057D01*
X119957143Y-112350057D02*
X119861905Y-112492914D01*
X119861905Y-112492914D02*
X119814286Y-112683390D01*
X119814286Y-112683390D02*
X119814286Y-113064342D01*
X119814286Y-113064342D02*
X119861905Y-113159580D01*
X119861905Y-113159580D02*
X119909524Y-113207200D01*
X119909524Y-113207200D02*
X120004762Y-113254819D01*
X120004762Y-113254819D02*
X120195238Y-113254819D01*
X120195238Y-113254819D02*
X120290476Y-113207200D01*
X120290476Y-113207200D02*
X120338095Y-113159580D01*
X120338095Y-113159580D02*
X120385714Y-113064342D01*
X120385714Y-113064342D02*
X120385714Y-112826247D01*
X120385714Y-112826247D02*
X120338095Y-112731009D01*
X120338095Y-112731009D02*
X120290476Y-112683390D01*
X120290476Y-112683390D02*
X120195238Y-112635771D01*
X120195238Y-112635771D02*
X120004762Y-112635771D01*
X120004762Y-112635771D02*
X119909524Y-112683390D01*
X119909524Y-112683390D02*
X119861905Y-112731009D01*
X119861905Y-112731009D02*
X119814286Y-112826247D01*
X88833333Y-118024819D02*
X88500000Y-117548628D01*
X88261905Y-118024819D02*
X88261905Y-117024819D01*
X88261905Y-117024819D02*
X88642857Y-117024819D01*
X88642857Y-117024819D02*
X88738095Y-117072438D01*
X88738095Y-117072438D02*
X88785714Y-117120057D01*
X88785714Y-117120057D02*
X88833333Y-117215295D01*
X88833333Y-117215295D02*
X88833333Y-117358152D01*
X88833333Y-117358152D02*
X88785714Y-117453390D01*
X88785714Y-117453390D02*
X88738095Y-117501009D01*
X88738095Y-117501009D02*
X88642857Y-117548628D01*
X88642857Y-117548628D02*
X88261905Y-117548628D01*
X89404762Y-117453390D02*
X89309524Y-117405771D01*
X89309524Y-117405771D02*
X89261905Y-117358152D01*
X89261905Y-117358152D02*
X89214286Y-117262914D01*
X89214286Y-117262914D02*
X89214286Y-117215295D01*
X89214286Y-117215295D02*
X89261905Y-117120057D01*
X89261905Y-117120057D02*
X89309524Y-117072438D01*
X89309524Y-117072438D02*
X89404762Y-117024819D01*
X89404762Y-117024819D02*
X89595238Y-117024819D01*
X89595238Y-117024819D02*
X89690476Y-117072438D01*
X89690476Y-117072438D02*
X89738095Y-117120057D01*
X89738095Y-117120057D02*
X89785714Y-117215295D01*
X89785714Y-117215295D02*
X89785714Y-117262914D01*
X89785714Y-117262914D02*
X89738095Y-117358152D01*
X89738095Y-117358152D02*
X89690476Y-117405771D01*
X89690476Y-117405771D02*
X89595238Y-117453390D01*
X89595238Y-117453390D02*
X89404762Y-117453390D01*
X89404762Y-117453390D02*
X89309524Y-117501009D01*
X89309524Y-117501009D02*
X89261905Y-117548628D01*
X89261905Y-117548628D02*
X89214286Y-117643866D01*
X89214286Y-117643866D02*
X89214286Y-117834342D01*
X89214286Y-117834342D02*
X89261905Y-117929580D01*
X89261905Y-117929580D02*
X89309524Y-117977200D01*
X89309524Y-117977200D02*
X89404762Y-118024819D01*
X89404762Y-118024819D02*
X89595238Y-118024819D01*
X89595238Y-118024819D02*
X89690476Y-117977200D01*
X89690476Y-117977200D02*
X89738095Y-117929580D01*
X89738095Y-117929580D02*
X89785714Y-117834342D01*
X89785714Y-117834342D02*
X89785714Y-117643866D01*
X89785714Y-117643866D02*
X89738095Y-117548628D01*
X89738095Y-117548628D02*
X89690476Y-117501009D01*
X89690476Y-117501009D02*
X89595238Y-117453390D01*
X120938095Y-82854819D02*
X121509523Y-82854819D01*
X121223809Y-83854819D02*
X121223809Y-82854819D01*
X121842857Y-83854819D02*
X121842857Y-82854819D01*
X121842857Y-82854819D02*
X122223809Y-82854819D01*
X122223809Y-82854819D02*
X122319047Y-82902438D01*
X122319047Y-82902438D02*
X122366666Y-82950057D01*
X122366666Y-82950057D02*
X122414285Y-83045295D01*
X122414285Y-83045295D02*
X122414285Y-83188152D01*
X122414285Y-83188152D02*
X122366666Y-83283390D01*
X122366666Y-83283390D02*
X122319047Y-83331009D01*
X122319047Y-83331009D02*
X122223809Y-83378628D01*
X122223809Y-83378628D02*
X121842857Y-83378628D01*
X123319047Y-82854819D02*
X122842857Y-82854819D01*
X122842857Y-82854819D02*
X122795238Y-83331009D01*
X122795238Y-83331009D02*
X122842857Y-83283390D01*
X122842857Y-83283390D02*
X122938095Y-83235771D01*
X122938095Y-83235771D02*
X123176190Y-83235771D01*
X123176190Y-83235771D02*
X123271428Y-83283390D01*
X123271428Y-83283390D02*
X123319047Y-83331009D01*
X123319047Y-83331009D02*
X123366666Y-83426247D01*
X123366666Y-83426247D02*
X123366666Y-83664342D01*
X123366666Y-83664342D02*
X123319047Y-83759580D01*
X123319047Y-83759580D02*
X123271428Y-83807200D01*
X123271428Y-83807200D02*
X123176190Y-83854819D01*
X123176190Y-83854819D02*
X122938095Y-83854819D01*
X122938095Y-83854819D02*
X122842857Y-83807200D01*
X122842857Y-83807200D02*
X122795238Y-83759580D01*
X135638095Y-91854819D02*
X135638095Y-92664342D01*
X135638095Y-92664342D02*
X135685714Y-92759580D01*
X135685714Y-92759580D02*
X135733333Y-92807200D01*
X135733333Y-92807200D02*
X135828571Y-92854819D01*
X135828571Y-92854819D02*
X136019047Y-92854819D01*
X136019047Y-92854819D02*
X136114285Y-92807200D01*
X136114285Y-92807200D02*
X136161904Y-92759580D01*
X136161904Y-92759580D02*
X136209523Y-92664342D01*
X136209523Y-92664342D02*
X136209523Y-91854819D01*
X137209523Y-92854819D02*
X136638095Y-92854819D01*
X136923809Y-92854819D02*
X136923809Y-91854819D01*
X136923809Y-91854819D02*
X136828571Y-91997676D01*
X136828571Y-91997676D02*
X136733333Y-92092914D01*
X136733333Y-92092914D02*
X136638095Y-92140533D01*
X104633333Y-111054819D02*
X104300000Y-110578628D01*
X104061905Y-111054819D02*
X104061905Y-110054819D01*
X104061905Y-110054819D02*
X104442857Y-110054819D01*
X104442857Y-110054819D02*
X104538095Y-110102438D01*
X104538095Y-110102438D02*
X104585714Y-110150057D01*
X104585714Y-110150057D02*
X104633333Y-110245295D01*
X104633333Y-110245295D02*
X104633333Y-110388152D01*
X104633333Y-110388152D02*
X104585714Y-110483390D01*
X104585714Y-110483390D02*
X104538095Y-110531009D01*
X104538095Y-110531009D02*
X104442857Y-110578628D01*
X104442857Y-110578628D02*
X104061905Y-110578628D01*
X105538095Y-110054819D02*
X105061905Y-110054819D01*
X105061905Y-110054819D02*
X105014286Y-110531009D01*
X105014286Y-110531009D02*
X105061905Y-110483390D01*
X105061905Y-110483390D02*
X105157143Y-110435771D01*
X105157143Y-110435771D02*
X105395238Y-110435771D01*
X105395238Y-110435771D02*
X105490476Y-110483390D01*
X105490476Y-110483390D02*
X105538095Y-110531009D01*
X105538095Y-110531009D02*
X105585714Y-110626247D01*
X105585714Y-110626247D02*
X105585714Y-110864342D01*
X105585714Y-110864342D02*
X105538095Y-110959580D01*
X105538095Y-110959580D02*
X105490476Y-111007200D01*
X105490476Y-111007200D02*
X105395238Y-111054819D01*
X105395238Y-111054819D02*
X105157143Y-111054819D01*
X105157143Y-111054819D02*
X105061905Y-111007200D01*
X105061905Y-111007200D02*
X105014286Y-110959580D01*
X156938095Y-113254819D02*
X157509523Y-113254819D01*
X157223809Y-114254819D02*
X157223809Y-113254819D01*
X157842857Y-114254819D02*
X157842857Y-113254819D01*
X157842857Y-113254819D02*
X158223809Y-113254819D01*
X158223809Y-113254819D02*
X158319047Y-113302438D01*
X158319047Y-113302438D02*
X158366666Y-113350057D01*
X158366666Y-113350057D02*
X158414285Y-113445295D01*
X158414285Y-113445295D02*
X158414285Y-113588152D01*
X158414285Y-113588152D02*
X158366666Y-113683390D01*
X158366666Y-113683390D02*
X158319047Y-113731009D01*
X158319047Y-113731009D02*
X158223809Y-113778628D01*
X158223809Y-113778628D02*
X157842857Y-113778628D01*
X158747619Y-113254819D02*
X159414285Y-113254819D01*
X159414285Y-113254819D02*
X158985714Y-114254819D01*
X145433333Y-91254819D02*
X145100000Y-90778628D01*
X144861905Y-91254819D02*
X144861905Y-90254819D01*
X144861905Y-90254819D02*
X145242857Y-90254819D01*
X145242857Y-90254819D02*
X145338095Y-90302438D01*
X145338095Y-90302438D02*
X145385714Y-90350057D01*
X145385714Y-90350057D02*
X145433333Y-90445295D01*
X145433333Y-90445295D02*
X145433333Y-90588152D01*
X145433333Y-90588152D02*
X145385714Y-90683390D01*
X145385714Y-90683390D02*
X145338095Y-90731009D01*
X145338095Y-90731009D02*
X145242857Y-90778628D01*
X145242857Y-90778628D02*
X144861905Y-90778628D01*
X145909524Y-91254819D02*
X146100000Y-91254819D01*
X146100000Y-91254819D02*
X146195238Y-91207200D01*
X146195238Y-91207200D02*
X146242857Y-91159580D01*
X146242857Y-91159580D02*
X146338095Y-91016723D01*
X146338095Y-91016723D02*
X146385714Y-90826247D01*
X146385714Y-90826247D02*
X146385714Y-90445295D01*
X146385714Y-90445295D02*
X146338095Y-90350057D01*
X146338095Y-90350057D02*
X146290476Y-90302438D01*
X146290476Y-90302438D02*
X146195238Y-90254819D01*
X146195238Y-90254819D02*
X146004762Y-90254819D01*
X146004762Y-90254819D02*
X145909524Y-90302438D01*
X145909524Y-90302438D02*
X145861905Y-90350057D01*
X145861905Y-90350057D02*
X145814286Y-90445295D01*
X145814286Y-90445295D02*
X145814286Y-90683390D01*
X145814286Y-90683390D02*
X145861905Y-90778628D01*
X145861905Y-90778628D02*
X145909524Y-90826247D01*
X145909524Y-90826247D02*
X146004762Y-90873866D01*
X146004762Y-90873866D02*
X146195238Y-90873866D01*
X146195238Y-90873866D02*
X146290476Y-90826247D01*
X146290476Y-90826247D02*
X146338095Y-90778628D01*
X146338095Y-90778628D02*
X146385714Y-90683390D01*
X87438095Y-93054819D02*
X87438095Y-93864342D01*
X87438095Y-93864342D02*
X87485714Y-93959580D01*
X87485714Y-93959580D02*
X87533333Y-94007200D01*
X87533333Y-94007200D02*
X87628571Y-94054819D01*
X87628571Y-94054819D02*
X87819047Y-94054819D01*
X87819047Y-94054819D02*
X87914285Y-94007200D01*
X87914285Y-94007200D02*
X87961904Y-93959580D01*
X87961904Y-93959580D02*
X88009523Y-93864342D01*
X88009523Y-93864342D02*
X88009523Y-93054819D01*
X88961904Y-93054819D02*
X88485714Y-93054819D01*
X88485714Y-93054819D02*
X88438095Y-93531009D01*
X88438095Y-93531009D02*
X88485714Y-93483390D01*
X88485714Y-93483390D02*
X88580952Y-93435771D01*
X88580952Y-93435771D02*
X88819047Y-93435771D01*
X88819047Y-93435771D02*
X88914285Y-93483390D01*
X88914285Y-93483390D02*
X88961904Y-93531009D01*
X88961904Y-93531009D02*
X89009523Y-93626247D01*
X89009523Y-93626247D02*
X89009523Y-93864342D01*
X89009523Y-93864342D02*
X88961904Y-93959580D01*
X88961904Y-93959580D02*
X88914285Y-94007200D01*
X88914285Y-94007200D02*
X88819047Y-94054819D01*
X88819047Y-94054819D02*
X88580952Y-94054819D01*
X88580952Y-94054819D02*
X88485714Y-94007200D01*
X88485714Y-94007200D02*
X88438095Y-93959580D01*
X89145180Y-81761500D02*
X88907085Y-81761500D01*
X89002323Y-81523405D02*
X88907085Y-81761500D01*
X88907085Y-81761500D02*
X89002323Y-81999595D01*
X88716609Y-81618643D02*
X88907085Y-81761500D01*
X88907085Y-81761500D02*
X88716609Y-81904357D01*
X88054819Y-81761499D02*
X88292914Y-81761499D01*
X88197676Y-81999594D02*
X88292914Y-81761499D01*
X88292914Y-81761499D02*
X88197676Y-81523404D01*
X88483390Y-81904356D02*
X88292914Y-81761499D01*
X88292914Y-81761499D02*
X88483390Y-81618642D01*
X92338095Y-106054819D02*
X92909523Y-106054819D01*
X92623809Y-107054819D02*
X92623809Y-106054819D01*
X93242857Y-107054819D02*
X93242857Y-106054819D01*
X93242857Y-106054819D02*
X93623809Y-106054819D01*
X93623809Y-106054819D02*
X93719047Y-106102438D01*
X93719047Y-106102438D02*
X93766666Y-106150057D01*
X93766666Y-106150057D02*
X93814285Y-106245295D01*
X93814285Y-106245295D02*
X93814285Y-106388152D01*
X93814285Y-106388152D02*
X93766666Y-106483390D01*
X93766666Y-106483390D02*
X93719047Y-106531009D01*
X93719047Y-106531009D02*
X93623809Y-106578628D01*
X93623809Y-106578628D02*
X93242857Y-106578628D01*
X94766666Y-107054819D02*
X94195238Y-107054819D01*
X94480952Y-107054819D02*
X94480952Y-106054819D01*
X94480952Y-106054819D02*
X94385714Y-106197676D01*
X94385714Y-106197676D02*
X94290476Y-106292914D01*
X94290476Y-106292914D02*
X94195238Y-106340533D01*
X129538095Y-83454819D02*
X130109523Y-83454819D01*
X129823809Y-84454819D02*
X129823809Y-83454819D01*
X130442857Y-84454819D02*
X130442857Y-83454819D01*
X130442857Y-83454819D02*
X130823809Y-83454819D01*
X130823809Y-83454819D02*
X130919047Y-83502438D01*
X130919047Y-83502438D02*
X130966666Y-83550057D01*
X130966666Y-83550057D02*
X131014285Y-83645295D01*
X131014285Y-83645295D02*
X131014285Y-83788152D01*
X131014285Y-83788152D02*
X130966666Y-83883390D01*
X130966666Y-83883390D02*
X130919047Y-83931009D01*
X130919047Y-83931009D02*
X130823809Y-83978628D01*
X130823809Y-83978628D02*
X130442857Y-83978628D01*
X131871428Y-83454819D02*
X131680952Y-83454819D01*
X131680952Y-83454819D02*
X131585714Y-83502438D01*
X131585714Y-83502438D02*
X131538095Y-83550057D01*
X131538095Y-83550057D02*
X131442857Y-83692914D01*
X131442857Y-83692914D02*
X131395238Y-83883390D01*
X131395238Y-83883390D02*
X131395238Y-84264342D01*
X131395238Y-84264342D02*
X131442857Y-84359580D01*
X131442857Y-84359580D02*
X131490476Y-84407200D01*
X131490476Y-84407200D02*
X131585714Y-84454819D01*
X131585714Y-84454819D02*
X131776190Y-84454819D01*
X131776190Y-84454819D02*
X131871428Y-84407200D01*
X131871428Y-84407200D02*
X131919047Y-84359580D01*
X131919047Y-84359580D02*
X131966666Y-84264342D01*
X131966666Y-84264342D02*
X131966666Y-84026247D01*
X131966666Y-84026247D02*
X131919047Y-83931009D01*
X131919047Y-83931009D02*
X131871428Y-83883390D01*
X131871428Y-83883390D02*
X131776190Y-83835771D01*
X131776190Y-83835771D02*
X131585714Y-83835771D01*
X131585714Y-83835771D02*
X131490476Y-83883390D01*
X131490476Y-83883390D02*
X131442857Y-83931009D01*
X131442857Y-83931009D02*
X131395238Y-84026247D01*
X98838095Y-85454819D02*
X98838095Y-86264342D01*
X98838095Y-86264342D02*
X98885714Y-86359580D01*
X98885714Y-86359580D02*
X98933333Y-86407200D01*
X98933333Y-86407200D02*
X99028571Y-86454819D01*
X99028571Y-86454819D02*
X99219047Y-86454819D01*
X99219047Y-86454819D02*
X99314285Y-86407200D01*
X99314285Y-86407200D02*
X99361904Y-86359580D01*
X99361904Y-86359580D02*
X99409523Y-86264342D01*
X99409523Y-86264342D02*
X99409523Y-85454819D01*
X100314285Y-85454819D02*
X100123809Y-85454819D01*
X100123809Y-85454819D02*
X100028571Y-85502438D01*
X100028571Y-85502438D02*
X99980952Y-85550057D01*
X99980952Y-85550057D02*
X99885714Y-85692914D01*
X99885714Y-85692914D02*
X99838095Y-85883390D01*
X99838095Y-85883390D02*
X99838095Y-86264342D01*
X99838095Y-86264342D02*
X99885714Y-86359580D01*
X99885714Y-86359580D02*
X99933333Y-86407200D01*
X99933333Y-86407200D02*
X100028571Y-86454819D01*
X100028571Y-86454819D02*
X100219047Y-86454819D01*
X100219047Y-86454819D02*
X100314285Y-86407200D01*
X100314285Y-86407200D02*
X100361904Y-86359580D01*
X100361904Y-86359580D02*
X100409523Y-86264342D01*
X100409523Y-86264342D02*
X100409523Y-86026247D01*
X100409523Y-86026247D02*
X100361904Y-85931009D01*
X100361904Y-85931009D02*
X100314285Y-85883390D01*
X100314285Y-85883390D02*
X100219047Y-85835771D01*
X100219047Y-85835771D02*
X100028571Y-85835771D01*
X100028571Y-85835771D02*
X99933333Y-85883390D01*
X99933333Y-85883390D02*
X99885714Y-85931009D01*
X99885714Y-85931009D02*
X99838095Y-86026247D01*
X100520819Y-89809999D02*
X100758914Y-89809999D01*
X100663676Y-90048094D02*
X100758914Y-89809999D01*
X100758914Y-89809999D02*
X100663676Y-89571904D01*
X100949390Y-89952856D02*
X100758914Y-89809999D01*
X100758914Y-89809999D02*
X100949390Y-89667142D01*
X100520819Y-89809999D02*
X100758914Y-89809999D01*
X100663676Y-90048094D02*
X100758914Y-89809999D01*
X100758914Y-89809999D02*
X100663676Y-89571904D01*
X100949390Y-89952856D02*
X100758914Y-89809999D01*
X100758914Y-89809999D02*
X100949390Y-89667142D01*
X164261905Y-113254819D02*
X164833333Y-113254819D01*
X164547619Y-114254819D02*
X164547619Y-113254819D01*
X165166667Y-114254819D02*
X165166667Y-113254819D01*
X165166667Y-113254819D02*
X165547619Y-113254819D01*
X165547619Y-113254819D02*
X165642857Y-113302438D01*
X165642857Y-113302438D02*
X165690476Y-113350057D01*
X165690476Y-113350057D02*
X165738095Y-113445295D01*
X165738095Y-113445295D02*
X165738095Y-113588152D01*
X165738095Y-113588152D02*
X165690476Y-113683390D01*
X165690476Y-113683390D02*
X165642857Y-113731009D01*
X165642857Y-113731009D02*
X165547619Y-113778628D01*
X165547619Y-113778628D02*
X165166667Y-113778628D01*
X166690476Y-114254819D02*
X166119048Y-114254819D01*
X166404762Y-114254819D02*
X166404762Y-113254819D01*
X166404762Y-113254819D02*
X166309524Y-113397676D01*
X166309524Y-113397676D02*
X166214286Y-113492914D01*
X166214286Y-113492914D02*
X166119048Y-113540533D01*
X167642857Y-114254819D02*
X167071429Y-114254819D01*
X167357143Y-114254819D02*
X167357143Y-113254819D01*
X167357143Y-113254819D02*
X167261905Y-113397676D01*
X167261905Y-113397676D02*
X167166667Y-113492914D01*
X167166667Y-113492914D02*
X167071429Y-113540533D01*
X177664761Y-79350057D02*
X177569523Y-79302438D01*
X177569523Y-79302438D02*
X177474285Y-79207200D01*
X177474285Y-79207200D02*
X177331428Y-79064342D01*
X177331428Y-79064342D02*
X177236190Y-79016723D01*
X177236190Y-79016723D02*
X177140952Y-79016723D01*
X177188571Y-79254819D02*
X177093333Y-79207200D01*
X177093333Y-79207200D02*
X176998095Y-79111961D01*
X176998095Y-79111961D02*
X176950476Y-78921485D01*
X176950476Y-78921485D02*
X176950476Y-78588152D01*
X176950476Y-78588152D02*
X176998095Y-78397676D01*
X176998095Y-78397676D02*
X177093333Y-78302438D01*
X177093333Y-78302438D02*
X177188571Y-78254819D01*
X177188571Y-78254819D02*
X177379047Y-78254819D01*
X177379047Y-78254819D02*
X177474285Y-78302438D01*
X177474285Y-78302438D02*
X177569523Y-78397676D01*
X177569523Y-78397676D02*
X177617142Y-78588152D01*
X177617142Y-78588152D02*
X177617142Y-78921485D01*
X177617142Y-78921485D02*
X177569523Y-79111961D01*
X177569523Y-79111961D02*
X177474285Y-79207200D01*
X177474285Y-79207200D02*
X177379047Y-79254819D01*
X177379047Y-79254819D02*
X177188571Y-79254819D01*
X178569523Y-79254819D02*
X177998095Y-79254819D01*
X178283809Y-79254819D02*
X178283809Y-78254819D01*
X178283809Y-78254819D02*
X178188571Y-78397676D01*
X178188571Y-78397676D02*
X178093333Y-78492914D01*
X178093333Y-78492914D02*
X177998095Y-78540533D01*
X153433333Y-79159580D02*
X153385714Y-79207200D01*
X153385714Y-79207200D02*
X153242857Y-79254819D01*
X153242857Y-79254819D02*
X153147619Y-79254819D01*
X153147619Y-79254819D02*
X153004762Y-79207200D01*
X153004762Y-79207200D02*
X152909524Y-79111961D01*
X152909524Y-79111961D02*
X152861905Y-79016723D01*
X152861905Y-79016723D02*
X152814286Y-78826247D01*
X152814286Y-78826247D02*
X152814286Y-78683390D01*
X152814286Y-78683390D02*
X152861905Y-78492914D01*
X152861905Y-78492914D02*
X152909524Y-78397676D01*
X152909524Y-78397676D02*
X153004762Y-78302438D01*
X153004762Y-78302438D02*
X153147619Y-78254819D01*
X153147619Y-78254819D02*
X153242857Y-78254819D01*
X153242857Y-78254819D02*
X153385714Y-78302438D01*
X153385714Y-78302438D02*
X153433333Y-78350057D01*
X153766667Y-78254819D02*
X154385714Y-78254819D01*
X154385714Y-78254819D02*
X154052381Y-78635771D01*
X154052381Y-78635771D02*
X154195238Y-78635771D01*
X154195238Y-78635771D02*
X154290476Y-78683390D01*
X154290476Y-78683390D02*
X154338095Y-78731009D01*
X154338095Y-78731009D02*
X154385714Y-78826247D01*
X154385714Y-78826247D02*
X154385714Y-79064342D01*
X154385714Y-79064342D02*
X154338095Y-79159580D01*
X154338095Y-79159580D02*
X154290476Y-79207200D01*
X154290476Y-79207200D02*
X154195238Y-79254819D01*
X154195238Y-79254819D02*
X153909524Y-79254819D01*
X153909524Y-79254819D02*
X153814286Y-79207200D01*
X153814286Y-79207200D02*
X153766667Y-79159580D01*
X103233333Y-95454819D02*
X102900000Y-94978628D01*
X102661905Y-95454819D02*
X102661905Y-94454819D01*
X102661905Y-94454819D02*
X103042857Y-94454819D01*
X103042857Y-94454819D02*
X103138095Y-94502438D01*
X103138095Y-94502438D02*
X103185714Y-94550057D01*
X103185714Y-94550057D02*
X103233333Y-94645295D01*
X103233333Y-94645295D02*
X103233333Y-94788152D01*
X103233333Y-94788152D02*
X103185714Y-94883390D01*
X103185714Y-94883390D02*
X103138095Y-94931009D01*
X103138095Y-94931009D02*
X103042857Y-94978628D01*
X103042857Y-94978628D02*
X102661905Y-94978628D01*
X104090476Y-94788152D02*
X104090476Y-95454819D01*
X103852381Y-94407200D02*
X103614286Y-95121485D01*
X103614286Y-95121485D02*
X104233333Y-95121485D01*
X189461905Y-86854819D02*
X189461905Y-85854819D01*
X189461905Y-85854819D02*
X189700000Y-85854819D01*
X189700000Y-85854819D02*
X189842857Y-85902438D01*
X189842857Y-85902438D02*
X189938095Y-85997676D01*
X189938095Y-85997676D02*
X189985714Y-86092914D01*
X189985714Y-86092914D02*
X190033333Y-86283390D01*
X190033333Y-86283390D02*
X190033333Y-86426247D01*
X190033333Y-86426247D02*
X189985714Y-86616723D01*
X189985714Y-86616723D02*
X189938095Y-86711961D01*
X189938095Y-86711961D02*
X189842857Y-86807200D01*
X189842857Y-86807200D02*
X189700000Y-86854819D01*
X189700000Y-86854819D02*
X189461905Y-86854819D01*
X190985714Y-86854819D02*
X190414286Y-86854819D01*
X190700000Y-86854819D02*
X190700000Y-85854819D01*
X190700000Y-85854819D02*
X190604762Y-85997676D01*
X190604762Y-85997676D02*
X190509524Y-86092914D01*
X190509524Y-86092914D02*
X190414286Y-86140533D01*
X162633095Y-101794819D02*
X162633095Y-102604342D01*
X162633095Y-102604342D02*
X162680714Y-102699580D01*
X162680714Y-102699580D02*
X162728333Y-102747200D01*
X162728333Y-102747200D02*
X162823571Y-102794819D01*
X162823571Y-102794819D02*
X163014047Y-102794819D01*
X163014047Y-102794819D02*
X163109285Y-102747200D01*
X163109285Y-102747200D02*
X163156904Y-102699580D01*
X163156904Y-102699580D02*
X163204523Y-102604342D01*
X163204523Y-102604342D02*
X163204523Y-101794819D01*
X163633095Y-101890057D02*
X163680714Y-101842438D01*
X163680714Y-101842438D02*
X163775952Y-101794819D01*
X163775952Y-101794819D02*
X164014047Y-101794819D01*
X164014047Y-101794819D02*
X164109285Y-101842438D01*
X164109285Y-101842438D02*
X164156904Y-101890057D01*
X164156904Y-101890057D02*
X164204523Y-101985295D01*
X164204523Y-101985295D02*
X164204523Y-102080533D01*
X164204523Y-102080533D02*
X164156904Y-102223390D01*
X164156904Y-102223390D02*
X163585476Y-102794819D01*
X163585476Y-102794819D02*
X164204523Y-102794819D01*
D17*
%TO.C,C2*%
X187527500Y-108600000D02*
G75*
G02*
X171271500Y-108600000I-8128000J0D01*
G01*
X171271500Y-108600000D02*
G75*
G02*
X187527500Y-108600000I8128000J0D01*
G01*
X188924500Y-108600000D02*
X187654500Y-108600000D01*
X188289500Y-109235000D02*
X188289500Y-107965000D01*
D18*
%TO.C,J2*%
X192495000Y-99860000D02*
G75*
G02*
X191987000Y-99860000I-254000J0D01*
G01*
X191987000Y-99860000D02*
G75*
G02*
X192495000Y-99860000I254000J0D01*
G01*
D17*
X192952200Y-98310600D02*
X192952200Y-106489400D01*
X192952200Y-106489400D02*
X195847800Y-106489400D01*
X195847800Y-106489400D02*
X195847800Y-98310600D01*
X195847800Y-98310600D02*
X192952200Y-98310600D01*
D18*
%TO.C,J1*%
X84105000Y-105740000D02*
G75*
G02*
X83597000Y-105740000I-254000J0D01*
G01*
X83597000Y-105740000D02*
G75*
G02*
X84105000Y-105740000I254000J0D01*
G01*
D17*
X83139800Y-107289400D02*
X83139800Y-99110600D01*
X83139800Y-99110600D02*
X80244200Y-99110600D01*
X80244200Y-99110600D02*
X80244200Y-107289400D01*
X80244200Y-107289400D02*
X83139800Y-107289400D01*
D19*
%TO.C,R1*%
X147230000Y-110130000D02*
X147230000Y-116670000D01*
X147230000Y-116670000D02*
X147560000Y-116670000D01*
X147560000Y-110130000D02*
X147230000Y-110130000D01*
X149640000Y-110130000D02*
X149970000Y-110130000D01*
X149970000Y-110130000D02*
X149970000Y-116670000D01*
X149970000Y-116670000D02*
X149640000Y-116670000D01*
%TO.C,R7*%
X102130000Y-115230000D02*
X102130000Y-115560000D01*
X102130000Y-117970000D02*
X102130000Y-117640000D01*
X108670000Y-115230000D02*
X102130000Y-115230000D01*
X108670000Y-115560000D02*
X108670000Y-115230000D01*
X108670000Y-117640000D02*
X108670000Y-117970000D01*
X108670000Y-117970000D02*
X102130000Y-117970000D01*
%TO.C,R3*%
X117130000Y-95830000D02*
X123670000Y-95830000D01*
X117130000Y-96160000D02*
X117130000Y-95830000D01*
X117130000Y-98240000D02*
X117130000Y-98570000D01*
X117130000Y-98570000D02*
X123670000Y-98570000D01*
X123670000Y-95830000D02*
X123670000Y-96160000D01*
X123670000Y-98570000D02*
X123670000Y-98240000D01*
%TO.C,R6*%
X118170000Y-109730000D02*
X118170000Y-116270000D01*
X117840000Y-109730000D02*
X118170000Y-109730000D01*
X115760000Y-109730000D02*
X115430000Y-109730000D01*
X115430000Y-109730000D02*
X115430000Y-116270000D01*
X118170000Y-116270000D02*
X117840000Y-116270000D01*
X115430000Y-116270000D02*
X115760000Y-116270000D01*
%TO.C,R8*%
X85730000Y-113830000D02*
X85730000Y-114160000D01*
X85730000Y-116570000D02*
X85730000Y-116240000D01*
X92270000Y-113830000D02*
X85730000Y-113830000D01*
X92270000Y-114160000D02*
X92270000Y-113830000D01*
X92270000Y-116240000D02*
X92270000Y-116570000D01*
X92270000Y-116570000D02*
X85730000Y-116570000D01*
%TO.C,TP5*%
X123700000Y-80400000D02*
G75*
G02*
X120300000Y-80400000I-1700000J0D01*
G01*
X120300000Y-80400000D02*
G75*
G02*
X123700000Y-80400000I1700000J0D01*
G01*
%TO.C,U1*%
X133960000Y-93530000D02*
X133960000Y-101270000D01*
X133960000Y-101270000D02*
X139260000Y-101270000D01*
X135610000Y-93530000D02*
X133960000Y-93530000D01*
X139260000Y-93530000D02*
X137610000Y-93530000D01*
X139260000Y-101270000D02*
X139260000Y-93530000D01*
X137610000Y-93530000D02*
G75*
G02*
X135610000Y-93530000I-1000000J0D01*
G01*
%TO.C,R5*%
X101530000Y-106630000D02*
X108070000Y-106630000D01*
X101530000Y-106960000D02*
X101530000Y-106630000D01*
X101530000Y-109040000D02*
X101530000Y-109370000D01*
X101530000Y-109370000D02*
X108070000Y-109370000D01*
X108070000Y-106630000D02*
X108070000Y-106960000D01*
X108070000Y-109370000D02*
X108070000Y-109040000D01*
%TO.C,TP7*%
X159100000Y-116800000D02*
G75*
G02*
X155700000Y-116800000I-1700000J0D01*
G01*
X155700000Y-116800000D02*
G75*
G02*
X159100000Y-116800000I1700000J0D01*
G01*
%TO.C,R9*%
X146030000Y-93530000D02*
X146030000Y-100070000D01*
X146030000Y-100070000D02*
X146360000Y-100070000D01*
X146360000Y-93530000D02*
X146030000Y-93530000D01*
X148440000Y-93530000D02*
X148770000Y-93530000D01*
X148770000Y-93530000D02*
X148770000Y-100070000D01*
X148770000Y-100070000D02*
X148440000Y-100070000D01*
D17*
%TO.C,U5*%
X86060000Y-82650500D02*
X86060000Y-92429500D01*
X86060000Y-92429500D02*
X91140000Y-92429500D01*
X91140000Y-82650500D02*
X86060000Y-82650500D01*
X91140000Y-92429500D02*
X91140000Y-82650500D01*
D19*
%TO.C,TP1*%
X95300000Y-103600000D02*
G75*
G02*
X91900000Y-103600000I-1700000J0D01*
G01*
X91900000Y-103600000D02*
G75*
G02*
X95300000Y-103600000I1700000J0D01*
G01*
%TO.C,TP6*%
X132100000Y-81000000D02*
G75*
G02*
X128700000Y-81000000I-1700000J0D01*
G01*
X128700000Y-81000000D02*
G75*
G02*
X132100000Y-81000000I1700000J0D01*
G01*
D17*
%TO.C,U6*%
X101574000Y-82698000D02*
X101574000Y-88833058D01*
X103684740Y-89302000D02*
X104160262Y-89302000D01*
X104160262Y-82698000D02*
X103559738Y-82698000D01*
X106099738Y-89302000D02*
X106700262Y-89302000D01*
X106700262Y-82698000D02*
X106099738Y-82698000D01*
X108639738Y-89302000D02*
X109240262Y-89302000D01*
X109240262Y-82698000D02*
X108639738Y-82698000D01*
X111226000Y-89302000D02*
X111226000Y-82698000D01*
X101574000Y-85695200D02*
G75*
G02*
X101574000Y-86304800I0J-304800D01*
G01*
D19*
%TO.C,TP11*%
X167300000Y-116600000D02*
G75*
G02*
X163900000Y-116600000I-1700000J0D01*
G01*
X163900000Y-116600000D02*
G75*
G02*
X167300000Y-116600000I1700000J0D01*
G01*
D17*
%TO.C,Q1*%
X172375200Y-79948900D02*
X172375200Y-84851100D01*
X172375200Y-84851100D02*
X183144800Y-84851100D01*
X174807508Y-83581100D02*
X172502200Y-83581100D01*
X177447508Y-83581100D02*
X175432493Y-83581100D01*
X180087508Y-83581100D02*
X178072493Y-83581100D01*
X183017800Y-83581100D02*
X180712492Y-83581100D01*
X183144800Y-79948900D02*
X172375200Y-79948900D01*
X183144800Y-84851100D02*
X183144800Y-79948900D01*
X185049800Y-82400000D02*
G75*
G02*
X184795800Y-82400000I-127000J0D01*
G01*
X184795800Y-82400000D02*
G75*
G02*
X185049800Y-82400000I127000J0D01*
G01*
%TO.C,C3*%
X146970600Y-80079100D02*
X160229400Y-80079100D01*
X146970600Y-84320900D02*
X146970600Y-80079100D01*
X146970600Y-84320900D02*
X160229400Y-84320900D01*
X160229400Y-84320900D02*
X160229400Y-80079100D01*
D19*
%TO.C,R4*%
X99930000Y-98770000D02*
X99930000Y-98440000D01*
X106470000Y-98770000D02*
X99930000Y-98770000D01*
X106470000Y-98440000D02*
X106470000Y-98770000D01*
X106470000Y-96360000D02*
X106470000Y-96030000D01*
X99930000Y-96030000D02*
X99930000Y-96360000D01*
X106470000Y-96030000D02*
X99930000Y-96030000D01*
%TO.C,D1*%
X188160000Y-93355000D02*
X191440000Y-93355000D01*
X189800000Y-87755000D02*
G75*
G02*
X191439512Y-93355000I0J-3040000D01*
G01*
X188160488Y-93355000D02*
G75*
G02*
X189800000Y-87755000I1639512J2560000D01*
G01*
X192300000Y-90795000D02*
G75*
G02*
X187300000Y-90795000I-2500000J0D01*
G01*
X187300000Y-90795000D02*
G75*
G02*
X192300000Y-90795000I2500000J0D01*
G01*
%TO.C,U2*%
X160745000Y-91060000D02*
X160745000Y-101340000D01*
X160745000Y-101340000D02*
X162395000Y-101340000D01*
X164395000Y-101340000D02*
X166045000Y-101340000D01*
X166045000Y-91060000D02*
X160745000Y-91060000D01*
X166045000Y-101340000D02*
X166045000Y-91060000D01*
X162395000Y-101340000D02*
G75*
G02*
X164395000Y-101340000I1000000J0D01*
G01*
%TD*%
M02*
