%TF.GenerationSoftware,KiCad,Pcbnew,9.0.4*%
%TF.CreationDate,2025-11-20T22:36:02-07:00*%
%TF.ProjectId,Ready To Drive Light,52656164-7920-4546-9f20-447269766520,rev?*%
%TF.SameCoordinates,Original*%
%TF.FileFunction,Copper,L1,Top*%
%TF.FilePolarity,Positive*%
%FSLAX46Y46*%
G04 Gerber Fmt 4.6, Leading zero omitted, Abs format (unit mm)*
G04 Created by KiCad (PCBNEW 9.0.4) date 2025-11-20 22:36:02*
%MOMM*%
%LPD*%
G01*
G04 APERTURE LIST*
G04 Aperture macros list*
%AMRoundRect*
0 Rectangle with rounded corners*
0 $1 Rounding radius*
0 $2 $3 $4 $5 $6 $7 $8 $9 X,Y pos of 4 corners*
0 Add a 4 corners polygon primitive as box body*
4,1,4,$2,$3,$4,$5,$6,$7,$8,$9,$2,$3,0*
0 Add four circle primitives for the rounded corners*
1,1,$1+$1,$2,$3*
1,1,$1+$1,$4,$5*
1,1,$1+$1,$6,$7*
1,1,$1+$1,$8,$9*
0 Add four rect primitives between the rounded corners*
20,1,$1+$1,$2,$3,$4,$5,0*
20,1,$1+$1,$4,$5,$6,$7,0*
20,1,$1+$1,$6,$7,$8,$9,0*
20,1,$1+$1,$8,$9,$2,$3,0*%
G04 Aperture macros list end*
%TA.AperFunction,ComponentPad*%
%ADD10C,1.524000*%
%TD*%
%TA.AperFunction,ComponentPad*%
%ADD11R,1.524000X1.524000*%
%TD*%
%TA.AperFunction,ComponentPad*%
%ADD12R,1.778000X1.778000*%
%TD*%
%TA.AperFunction,ComponentPad*%
%ADD13C,1.778000*%
%TD*%
%TA.AperFunction,ComponentPad*%
%ADD14C,1.600000*%
%TD*%
%TA.AperFunction,ComponentPad*%
%ADD15C,2.800000*%
%TD*%
%TA.AperFunction,ComponentPad*%
%ADD16RoundRect,0.250000X-0.550000X-0.550000X0.550000X-0.550000X0.550000X0.550000X-0.550000X0.550000X0*%
%TD*%
%TA.AperFunction,ComponentPad*%
%ADD17R,1.016000X1.016000*%
%TD*%
%TA.AperFunction,ComponentPad*%
%ADD18C,1.016000*%
%TD*%
%TA.AperFunction,ComponentPad*%
%ADD19C,1.422400*%
%TD*%
%TA.AperFunction,ComponentPad*%
%ADD20R,1.800000X1.800000*%
%TD*%
%TA.AperFunction,ComponentPad*%
%ADD21C,1.800000*%
%TD*%
%TA.AperFunction,ComponentPad*%
%ADD22RoundRect,0.250000X0.550000X0.550000X-0.550000X0.550000X-0.550000X-0.550000X0.550000X-0.550000X0*%
%TD*%
%TA.AperFunction,Conductor*%
%ADD23C,0.200000*%
%TD*%
G04 APERTURE END LIST*
D10*
%TO.P,C2,2*%
%TO.N,Net-(U2-THR)*%
X175399000Y-108600000D03*
D11*
%TO.P,C2,1*%
%TO.N,/LV-*%
X183400000Y-108600000D03*
%TD*%
D12*
%TO.P,J2,1,1*%
%TO.N,/HoopLight*%
X194400000Y-99860000D03*
D13*
%TO.P,J2,2,2*%
%TO.N,/LV-*%
X194400000Y-102400000D03*
%TO.P,J2,3,3*%
%TO.N,/LV+*%
X194400000Y-104940000D03*
%TD*%
D12*
%TO.P,J1,1,1*%
%TO.N,/HV390+*%
X81692000Y-105740000D03*
D13*
%TO.P,J1,2,2*%
%TO.N,/HV-*%
X81692000Y-103200000D03*
%TO.P,J1,3,3*%
%TO.N,/HV12+*%
X81692000Y-100660000D03*
%TD*%
D14*
%TO.P,R1,1*%
%TO.N,Net-(U2-DIS)*%
X148600000Y-109590000D03*
%TO.P,R1,2*%
%TO.N,Net-(U2-VCC)*%
X148600000Y-117210000D03*
%TD*%
%TO.P,R7,1*%
%TO.N,Net-(R6-Pad2)*%
X109210000Y-116600000D03*
%TO.P,R7,2*%
%TO.N,Net-(R7-Pad2)*%
X101590000Y-116600000D03*
%TD*%
%TO.P,R3,1*%
%TO.N,/comparator out*%
X116590000Y-97200000D03*
%TO.P,R3,2*%
%TO.N,Net-(R3-Pad2)*%
X124210000Y-97200000D03*
%TD*%
%TO.P,R6,1*%
%TO.N,Net-(R5-Pad2)*%
X116800000Y-109190000D03*
%TO.P,R6,2*%
%TO.N,Net-(R6-Pad2)*%
X116800000Y-116810000D03*
%TD*%
%TO.P,R8,1*%
%TO.N,Net-(R7-Pad2)*%
X92810000Y-115200000D03*
%TO.P,R8,2*%
%TO.N,/HV390+*%
X85190000Y-115200000D03*
%TD*%
D15*
%TO.P,TP5,1,1*%
%TO.N,/comparator out*%
X122000000Y-80400000D03*
%TD*%
D16*
%TO.P,U1,1*%
%TO.N,/HV12+*%
X132800000Y-94860000D03*
D14*
%TO.P,U1,2*%
%TO.N,Net-(R3-Pad2)*%
X132800000Y-97400000D03*
%TO.P,U1,3,NC*%
%TO.N,unconnected-(U1-NC-Pad3)*%
X132800000Y-99940000D03*
%TO.P,U1,4*%
%TO.N,Net-(U2-VCC)*%
X140420000Y-99940000D03*
%TO.P,U1,5*%
%TO.N,/LV+*%
X140420000Y-97400000D03*
%TO.P,U1,6*%
%TO.N,unconnected-(U1-Pad6)*%
X140420000Y-94860000D03*
%TD*%
%TO.P,R5,1*%
%TO.N,/VolDivTestPoint*%
X100990000Y-108000000D03*
%TO.P,R5,2*%
%TO.N,Net-(R5-Pad2)*%
X108610000Y-108000000D03*
%TD*%
D15*
%TO.P,TP7,1,1*%
%TO.N,Net-(U2-VCC)*%
X157400000Y-116800000D03*
%TD*%
D14*
%TO.P,R9,1*%
%TO.N,Net-(U2-THR)*%
X147400000Y-92990000D03*
%TO.P,R9,2*%
%TO.N,Net-(U2-DIS)*%
X147400000Y-100610000D03*
%TD*%
D17*
%TO.P,U5,1,1*%
%TO.N,Net-(R4-Pad2)*%
X88600000Y-85000000D03*
D18*
%TO.P,U5,2,2*%
%TO.N,/HV-*%
X88600000Y-87540000D03*
%TO.P,U5,3,3*%
X88600000Y-90080000D03*
%TD*%
D15*
%TO.P,TP1,1,1*%
%TO.N,/VolDivTestPoint*%
X93600000Y-103600000D03*
%TD*%
%TO.P,TP6,1,1*%
%TO.N,Net-(R3-Pad2)*%
X130400000Y-81000000D03*
%TD*%
D11*
%TO.P,U6,1,GND*%
%TO.N,/HV-*%
X102590000Y-89810000D03*
D10*
%TO.P,U6,2,IN+*%
%TO.N,/HV12+*%
X105130000Y-89810000D03*
%TO.P,U6,3,IN-*%
%TO.N,/VolDivTestPoint*%
X107670000Y-89810000D03*
%TO.P,U6,4,V-*%
%TO.N,/HV-*%
X110210000Y-89810000D03*
%TO.P,U6,5,BAL*%
%TO.N,unconnected-(U6-BAL-Pad5)*%
X110210000Y-82190000D03*
%TO.P,U6,6,BAL/STB*%
%TO.N,/HV12+*%
X107670000Y-82190000D03*
%TO.P,U6,7,OUT*%
%TO.N,/comparator out*%
X105130000Y-82190000D03*
%TO.P,U6,8,V+*%
%TO.N,/HV12+*%
X102590000Y-82190000D03*
%TD*%
D15*
%TO.P,TP11,1,1*%
%TO.N,/TimerOut*%
X165600000Y-116600000D03*
%TD*%
D13*
%TO.P,Q1,1,D*%
%TO.N,Net-(D1-A)*%
X180400000Y-82400000D03*
%TO.P,Q1,2,G*%
%TO.N,/TimerOut*%
X177760000Y-82400000D03*
%TO.P,Q1,3,S*%
%TO.N,/LV-*%
X175120001Y-82400000D03*
%TD*%
D19*
%TO.P,C3,1*%
%TO.N,/LV-*%
X158600000Y-82200000D03*
%TO.P,C3,2*%
%TO.N,Net-(U2-CV)*%
X148600000Y-82200000D03*
%TD*%
D14*
%TO.P,R4,1*%
%TO.N,/VolDivTestPoint*%
X107010000Y-97400000D03*
%TO.P,R4,2*%
%TO.N,Net-(R4-Pad2)*%
X99390000Y-97400000D03*
%TD*%
D20*
%TO.P,D1,1,K*%
%TO.N,/HoopLight*%
X189800000Y-92065000D03*
D21*
%TO.P,D1,2,A*%
%TO.N,Net-(D1-A)*%
X189800000Y-89525000D03*
%TD*%
D22*
%TO.P,U2,1,GND*%
%TO.N,/LV-*%
X167205000Y-100010000D03*
D14*
%TO.P,U2,2,TR*%
%TO.N,Net-(U2-THR)*%
X167205000Y-97470000D03*
%TO.P,U2,3,Q*%
%TO.N,/TimerOut*%
X167205000Y-94930000D03*
%TO.P,U2,4,R*%
%TO.N,/LV+*%
X167205000Y-92390000D03*
%TO.P,U2,5,CV*%
%TO.N,Net-(U2-CV)*%
X159585000Y-92390000D03*
%TO.P,U2,6,THR*%
%TO.N,Net-(U2-THR)*%
X159585000Y-94930000D03*
%TO.P,U2,7,DIS*%
%TO.N,Net-(U2-DIS)*%
X159585000Y-97470000D03*
%TO.P,U2,8,VCC*%
%TO.N,Net-(U2-VCC)*%
X159585000Y-100010000D03*
%TD*%
D23*
%TO.N,Net-(R3-Pad2)*%
X130400000Y-81000000D02*
X128800000Y-82600000D01*
X128800000Y-82600000D02*
X128800000Y-97200000D01*
X128800000Y-97200000D02*
X132600000Y-97200000D01*
X132600000Y-97200000D02*
X132800000Y-97400000D01*
X124210000Y-97200000D02*
X128800000Y-97200000D01*
%TO.N,/comparator out*%
X108750000Y-85810000D02*
X105130000Y-82190000D01*
X116590000Y-85810000D02*
X108750000Y-85810000D01*
X116590000Y-85810000D02*
X122000000Y-80400000D01*
X116590000Y-97200000D02*
X116590000Y-85810000D01*
%TO.N,/VolDivTestPoint*%
X107670000Y-96730000D02*
X107670000Y-89810000D01*
X107010000Y-97390000D02*
X107670000Y-96730000D01*
X107010000Y-97400000D02*
X107010000Y-97390000D01*
%TO.N,Net-(R4-Pad2)*%
X99390000Y-95790000D02*
X88600000Y-85000000D01*
X99390000Y-97400000D02*
X99390000Y-95790000D01*
%TO.N,/VolDivTestPoint*%
X100990000Y-103420000D02*
X107010000Y-97400000D01*
X100990000Y-108000000D02*
X100990000Y-103420000D01*
X98000000Y-108000000D02*
X93600000Y-103600000D01*
X100990000Y-108000000D02*
X98000000Y-108000000D01*
%TO.N,Net-(R5-Pad2)*%
X109800000Y-109190000D02*
X108610000Y-108000000D01*
X116800000Y-109190000D02*
X109800000Y-109190000D01*
%TO.N,Net-(R6-Pad2)*%
X116590000Y-116600000D02*
X116800000Y-116810000D01*
X109210000Y-116600000D02*
X116590000Y-116600000D01*
%TO.N,Net-(R7-Pad2)*%
X100190000Y-115200000D02*
X101590000Y-116600000D01*
X92810000Y-115200000D02*
X100190000Y-115200000D01*
%TO.N,/HV390+*%
X85190000Y-108990000D02*
X85190000Y-115200000D01*
X81800000Y-105600000D02*
X85190000Y-108990000D01*
X81692000Y-105708000D02*
X81800000Y-105600000D01*
X81692000Y-105740000D02*
X81692000Y-105708000D01*
%TO.N,Net-(U2-VCC)*%
X159585000Y-114615000D02*
X157400000Y-116800000D01*
X159585000Y-100010000D02*
X159585000Y-114615000D01*
%TO.N,Net-(U2-DIS)*%
X157730000Y-97470000D02*
X159585000Y-97470000D01*
X157130000Y-96870000D02*
X157730000Y-97470000D01*
X157130000Y-96870000D02*
X157185000Y-96870000D01*
%TO.N,Net-(U2-CV)*%
X149395000Y-82200000D02*
X159585000Y-92390000D01*
X148600000Y-82200000D02*
X149395000Y-82200000D01*
%TO.N,/TimerOut*%
X177760000Y-86440000D02*
X177760000Y-82400000D01*
X169400000Y-94800000D02*
X177760000Y-86440000D01*
X169400000Y-112800000D02*
X169400000Y-94800000D01*
X169400000Y-94800000D02*
X169000000Y-94800000D01*
X165800000Y-116400000D02*
X169400000Y-112800000D01*
X168870000Y-94930000D02*
X167205000Y-94930000D01*
X165400000Y-116400000D02*
X165800000Y-116400000D01*
X165600000Y-116600000D02*
X165400000Y-116400000D01*
X169000000Y-94800000D02*
X168870000Y-94930000D01*
%TO.N,Net-(U2-VCC)*%
X156990000Y-117210000D02*
X157400000Y-116800000D01*
X148600000Y-117210000D02*
X156990000Y-117210000D01*
%TO.N,/TimerOut*%
X165600000Y-116600000D02*
X165600000Y-116400000D01*
%TO.N,Net-(U2-VCC)*%
X140420000Y-108820000D02*
X140420000Y-99940000D01*
X148800000Y-117200000D02*
X140420000Y-108820000D01*
X148790000Y-117210000D02*
X148800000Y-117200000D01*
X148600000Y-117210000D02*
X148790000Y-117210000D01*
%TO.N,/HoopLight*%
X189800000Y-92065000D02*
X189800000Y-95260000D01*
X189800000Y-95260000D02*
X194400000Y-99860000D01*
%TO.N,Net-(D1-A)*%
X182675000Y-82400000D02*
X189800000Y-89525000D01*
X180400000Y-82400000D02*
X182675000Y-82400000D01*
%TO.N,Net-(U2-DIS)*%
X153730000Y-96870000D02*
X157130000Y-96870000D01*
X148790000Y-101810000D02*
X153730000Y-96870000D01*
X148600000Y-101810000D02*
X148790000Y-101810000D01*
X148600000Y-101810000D02*
X147400000Y-100610000D01*
X148600000Y-109590000D02*
X148600000Y-101810000D01*
%TO.N,Net-(U2-VCC)*%
X148810000Y-117000000D02*
X148600000Y-117210000D01*
%TD*%
%TA.AperFunction,Conductor*%
%TO.N,/LV+*%
G36*
X196796640Y-76353587D02*
G01*
X196842395Y-76406391D01*
X196853601Y-76457902D01*
X196853601Y-120008902D01*
X196833916Y-120075941D01*
X196781112Y-120121696D01*
X196729601Y-120132902D01*
X138324000Y-120132902D01*
X138256961Y-120113217D01*
X138211206Y-120060413D01*
X138200000Y-120008902D01*
X138200000Y-94757648D01*
X139119500Y-94757648D01*
X139119500Y-94962351D01*
X139151522Y-95164534D01*
X139214781Y-95359223D01*
X139278691Y-95484653D01*
X139302052Y-95530500D01*
X139307715Y-95541613D01*
X139428028Y-95707213D01*
X139572786Y-95851971D01*
X139738385Y-95972284D01*
X139738387Y-95972285D01*
X139738390Y-95972287D01*
X139831630Y-96019795D01*
X139882426Y-96067770D01*
X139899221Y-96135591D01*
X139876684Y-96201725D01*
X139831630Y-96240765D01*
X139738644Y-96288143D01*
X139694077Y-96320523D01*
X139694077Y-96320524D01*
X140373554Y-97000000D01*
X140367339Y-97000000D01*
X140265606Y-97027259D01*
X140174394Y-97079920D01*
X140099920Y-97154394D01*
X140047259Y-97245606D01*
X140020000Y-97347339D01*
X140020000Y-97353553D01*
X139340524Y-96674077D01*
X139340523Y-96674077D01*
X139308143Y-96718644D01*
X139215244Y-96900968D01*
X139152009Y-97095582D01*
X139120000Y-97297682D01*
X139120000Y-97502317D01*
X139152009Y-97704417D01*
X139215244Y-97899031D01*
X139308141Y-98081350D01*
X139308147Y-98081359D01*
X139340523Y-98125921D01*
X139340524Y-98125922D01*
X140020000Y-97446446D01*
X140020000Y-97452661D01*
X140047259Y-97554394D01*
X140099920Y-97645606D01*
X140174394Y-97720080D01*
X140265606Y-97772741D01*
X140367339Y-97800000D01*
X140373553Y-97800000D01*
X139694076Y-98479474D01*
X139738652Y-98511861D01*
X139831628Y-98559234D01*
X139882425Y-98607208D01*
X139899220Y-98675029D01*
X139876683Y-98741164D01*
X139831630Y-98780203D01*
X139738388Y-98827713D01*
X139572786Y-98948028D01*
X139428028Y-99092786D01*
X139307715Y-99258386D01*
X139214781Y-99440776D01*
X139151522Y-99635465D01*
X139119500Y-99837648D01*
X139119500Y-100042351D01*
X139151522Y-100244534D01*
X139214781Y-100439223D01*
X139278691Y-100564653D01*
X139301801Y-100610008D01*
X139307715Y-100621613D01*
X139428028Y-100787213D01*
X139428034Y-100787219D01*
X139572781Y-100931966D01*
X139738390Y-101052287D01*
X139751793Y-101059116D01*
X139802589Y-101107088D01*
X139819500Y-101169601D01*
X139819500Y-108733330D01*
X139819499Y-108733348D01*
X139819499Y-108899054D01*
X139819498Y-108899054D01*
X139860423Y-109051785D01*
X139882936Y-109090777D01*
X139882937Y-109090781D01*
X139939475Y-109188709D01*
X139939481Y-109188717D01*
X140058349Y-109307585D01*
X140058355Y-109307590D01*
X147357421Y-116606657D01*
X147390906Y-116667980D01*
X147387671Y-116732656D01*
X147331523Y-116905461D01*
X147331523Y-116905464D01*
X147299500Y-117107648D01*
X147299500Y-117312351D01*
X147331522Y-117514534D01*
X147394781Y-117709223D01*
X147446385Y-117810500D01*
X147471104Y-117859014D01*
X147487715Y-117891613D01*
X147608028Y-118057213D01*
X147752786Y-118201971D01*
X147898948Y-118308162D01*
X147918390Y-118322287D01*
X148034607Y-118381503D01*
X148100776Y-118415218D01*
X148100778Y-118415218D01*
X148100781Y-118415220D01*
X148205137Y-118449127D01*
X148295465Y-118478477D01*
X148396557Y-118494488D01*
X148497648Y-118510500D01*
X148497649Y-118510500D01*
X148702351Y-118510500D01*
X148702352Y-118510500D01*
X148904534Y-118478477D01*
X149099219Y-118415220D01*
X149281610Y-118322287D01*
X149374590Y-118254732D01*
X149447213Y-118201971D01*
X149447215Y-118201968D01*
X149447219Y-118201966D01*
X149591966Y-118057219D01*
X149591968Y-118057215D01*
X149591971Y-118057213D01*
X149712284Y-117891614D01*
X149712285Y-117891613D01*
X149712287Y-117891610D01*
X149719117Y-117878204D01*
X149767091Y-117827409D01*
X149829602Y-117810500D01*
X155718705Y-117810500D01*
X155785744Y-117830185D01*
X155817081Y-117859014D01*
X155968060Y-118055774D01*
X155968066Y-118055781D01*
X156144218Y-118231933D01*
X156144225Y-118231939D01*
X156341873Y-118383599D01*
X156557623Y-118508162D01*
X156557638Y-118508169D01*
X156656825Y-118549253D01*
X156787793Y-118603502D01*
X157028435Y-118667982D01*
X157275435Y-118700500D01*
X157275442Y-118700500D01*
X157524558Y-118700500D01*
X157524565Y-118700500D01*
X157771565Y-118667982D01*
X158012207Y-118603502D01*
X158242373Y-118508164D01*
X158458127Y-118383599D01*
X158655776Y-118231938D01*
X158831938Y-118055776D01*
X158983599Y-117858127D01*
X159108164Y-117642373D01*
X159203502Y-117412207D01*
X159267982Y-117171565D01*
X159300500Y-116924565D01*
X159300500Y-116675435D01*
X159274170Y-116475441D01*
X163699500Y-116475441D01*
X163699500Y-116724558D01*
X163699501Y-116724575D01*
X163732017Y-116971561D01*
X163796498Y-117212207D01*
X163891830Y-117442361D01*
X163891837Y-117442376D01*
X164016400Y-117658126D01*
X164168060Y-117855774D01*
X164168066Y-117855781D01*
X164344218Y-118031933D01*
X164344225Y-118031939D01*
X164541873Y-118183599D01*
X164757623Y-118308162D01*
X164757638Y-118308169D01*
X164856825Y-118349253D01*
X164987793Y-118403502D01*
X165228435Y-118467982D01*
X165475435Y-118500500D01*
X165475442Y-118500500D01*
X165724558Y-118500500D01*
X165724565Y-118500500D01*
X165971565Y-118467982D01*
X166212207Y-118403502D01*
X166442373Y-118308164D01*
X166658127Y-118183599D01*
X166855776Y-118031938D01*
X167031938Y-117855776D01*
X167183599Y-117658127D01*
X167308164Y-117442373D01*
X167403502Y-117212207D01*
X167467982Y-116971565D01*
X167500500Y-116724565D01*
X167500500Y-116475435D01*
X167467982Y-116228435D01*
X167403502Y-115987793D01*
X167335020Y-115822465D01*
X167327552Y-115752996D01*
X167358827Y-115690517D01*
X167361873Y-115687360D01*
X169768713Y-113280521D01*
X169768716Y-113280520D01*
X169880520Y-113168716D01*
X169930639Y-113081904D01*
X169959577Y-113031785D01*
X170000501Y-112879057D01*
X170000501Y-112720943D01*
X170000501Y-112713348D01*
X170000500Y-112713330D01*
X170000500Y-108500639D01*
X174136500Y-108500639D01*
X174136500Y-108699360D01*
X174167587Y-108895637D01*
X174228993Y-109084629D01*
X174228994Y-109084632D01*
X174282029Y-109188717D01*
X174319213Y-109261694D01*
X174436019Y-109422464D01*
X174576536Y-109562981D01*
X174737306Y-109679787D01*
X174815333Y-109719544D01*
X174914367Y-109770005D01*
X174914370Y-109770006D01*
X175008866Y-109800709D01*
X175103364Y-109831413D01*
X175299639Y-109862500D01*
X175299640Y-109862500D01*
X175498360Y-109862500D01*
X175498361Y-109862500D01*
X175694636Y-109831413D01*
X175883632Y-109770005D01*
X176060694Y-109679787D01*
X176221464Y-109562981D01*
X176361981Y-109422464D01*
X176478787Y-109261694D01*
X176569005Y-109084632D01*
X176630413Y-108895636D01*
X176661500Y-108699361D01*
X176661500Y-108500639D01*
X176630413Y-108304364D01*
X176569005Y-108115368D01*
X176569005Y-108115367D01*
X176478786Y-107938305D01*
X176371135Y-107790135D01*
X182137500Y-107790135D01*
X182137500Y-109409870D01*
X182137501Y-109409876D01*
X182143908Y-109469483D01*
X182194202Y-109604328D01*
X182194206Y-109604335D01*
X182280452Y-109719544D01*
X182280455Y-109719547D01*
X182395664Y-109805793D01*
X182395671Y-109805797D01*
X182530517Y-109856091D01*
X182530516Y-109856091D01*
X182537444Y-109856835D01*
X182590127Y-109862500D01*
X184209872Y-109862499D01*
X184269483Y-109856091D01*
X184404331Y-109805796D01*
X184519546Y-109719546D01*
X184605796Y-109604331D01*
X184656091Y-109469483D01*
X184662500Y-109409873D01*
X184662499Y-107790128D01*
X184656091Y-107730517D01*
X184621219Y-107637021D01*
X184605797Y-107595671D01*
X184605793Y-107595664D01*
X184519547Y-107480455D01*
X184519544Y-107480452D01*
X184404335Y-107394206D01*
X184404328Y-107394202D01*
X184269482Y-107343908D01*
X184269483Y-107343908D01*
X184209883Y-107337501D01*
X184209881Y-107337500D01*
X184209873Y-107337500D01*
X184209864Y-107337500D01*
X182590129Y-107337500D01*
X182590123Y-107337501D01*
X182530516Y-107343908D01*
X182395671Y-107394202D01*
X182395664Y-107394206D01*
X182280455Y-107480452D01*
X182280452Y-107480455D01*
X182194206Y-107595664D01*
X182194202Y-107595671D01*
X182143908Y-107730517D01*
X182138853Y-107777539D01*
X182137501Y-107790123D01*
X182137500Y-107790135D01*
X176371135Y-107790135D01*
X176361981Y-107777536D01*
X176221464Y-107637019D01*
X176060694Y-107520213D01*
X175883632Y-107429994D01*
X175883629Y-107429993D01*
X175694637Y-107368587D01*
X175596498Y-107353043D01*
X175498361Y-107337500D01*
X175299639Y-107337500D01*
X175234214Y-107347862D01*
X175103362Y-107368587D01*
X174914370Y-107429993D01*
X174914367Y-107429994D01*
X174737305Y-107520213D01*
X174576533Y-107637021D01*
X174436021Y-107777533D01*
X174319213Y-107938305D01*
X174228994Y-108115367D01*
X174228993Y-108115370D01*
X174167587Y-108304362D01*
X174136500Y-108500639D01*
X170000500Y-108500639D01*
X170000500Y-95100096D01*
X170020185Y-95033057D01*
X170036814Y-95012420D01*
X178118506Y-86930727D01*
X178118511Y-86930724D01*
X178128714Y-86920520D01*
X178128716Y-86920520D01*
X178240520Y-86808716D01*
X178319577Y-86671784D01*
X178360500Y-86519057D01*
X178360500Y-83729489D01*
X178380185Y-83662450D01*
X178428205Y-83619004D01*
X178488257Y-83588407D01*
X178582766Y-83519742D01*
X178665193Y-83459857D01*
X178665195Y-83459854D01*
X178665199Y-83459852D01*
X178819852Y-83305199D01*
X178819854Y-83305195D01*
X178819857Y-83305193D01*
X178948404Y-83128261D01*
X178948406Y-83128258D01*
X178948407Y-83128257D01*
X178969515Y-83086829D01*
X179017490Y-83036034D01*
X179085311Y-83019239D01*
X179151446Y-83041776D01*
X179190485Y-83086830D01*
X179211595Y-83128261D01*
X179340142Y-83305193D01*
X179494806Y-83459857D01*
X179660374Y-83580147D01*
X179671743Y-83588407D01*
X179799132Y-83653315D01*
X179866616Y-83687701D01*
X179866619Y-83687702D01*
X179970621Y-83721493D01*
X180074625Y-83755286D01*
X180174672Y-83771132D01*
X180290639Y-83789500D01*
X180290644Y-83789500D01*
X180509361Y-83789500D01*
X180614082Y-83772912D01*
X180725375Y-83755286D01*
X180933383Y-83687701D01*
X181128257Y-83588407D01*
X181227601Y-83516229D01*
X181305193Y-83459857D01*
X181305195Y-83459854D01*
X181305199Y-83459852D01*
X181459852Y-83305199D01*
X181459854Y-83305195D01*
X181459857Y-83305193D01*
X181516229Y-83227601D01*
X181588407Y-83128257D01*
X181619005Y-83068204D01*
X181666980Y-83017409D01*
X181729490Y-83000500D01*
X182374903Y-83000500D01*
X182441942Y-83020185D01*
X182462584Y-83036819D01*
X188426561Y-89000797D01*
X188460046Y-89062120D01*
X188456811Y-89126796D01*
X188433985Y-89197047D01*
X188399500Y-89414778D01*
X188399500Y-89635221D01*
X188433985Y-89852952D01*
X188502103Y-90062603D01*
X188502104Y-90062606D01*
X188602187Y-90259025D01*
X188731752Y-90437358D01*
X188731756Y-90437363D01*
X188781928Y-90487535D01*
X188815413Y-90548858D01*
X188810429Y-90618550D01*
X188768557Y-90674483D01*
X188737581Y-90691398D01*
X188657669Y-90721203D01*
X188657664Y-90721206D01*
X188542455Y-90807452D01*
X188542452Y-90807455D01*
X188456206Y-90922664D01*
X188456202Y-90922671D01*
X188405908Y-91057517D01*
X188399501Y-91117116D01*
X188399501Y-91117123D01*
X188399500Y-91117135D01*
X188399500Y-93012870D01*
X188399501Y-93012876D01*
X188405908Y-93072483D01*
X188456202Y-93207328D01*
X188456206Y-93207335D01*
X188542452Y-93322544D01*
X188542455Y-93322547D01*
X188657664Y-93408793D01*
X188657671Y-93408797D01*
X188702618Y-93425561D01*
X188792517Y-93459091D01*
X188852127Y-93465500D01*
X189075500Y-93465499D01*
X189142539Y-93485183D01*
X189188294Y-93537987D01*
X189199500Y-93589499D01*
X189199500Y-95173330D01*
X189199499Y-95173348D01*
X189199499Y-95339054D01*
X189199498Y-95339054D01*
X189216794Y-95403602D01*
X189240423Y-95491785D01*
X189247492Y-95504029D01*
X189247494Y-95504037D01*
X189247497Y-95504036D01*
X189301865Y-95598205D01*
X189319479Y-95628714D01*
X189319481Y-95628717D01*
X189438349Y-95747585D01*
X189438355Y-95747590D01*
X192974181Y-99283416D01*
X193007666Y-99344739D01*
X193010500Y-99371097D01*
X193010500Y-100796870D01*
X193010501Y-100796876D01*
X193016908Y-100856483D01*
X193067202Y-100991328D01*
X193067206Y-100991335D01*
X193153452Y-101106544D01*
X193153455Y-101106547D01*
X193268664Y-101192793D01*
X193268671Y-101192797D01*
X193359910Y-101226827D01*
X193415844Y-101268698D01*
X193440261Y-101334162D01*
X193425410Y-101402435D01*
X193404259Y-101430690D01*
X193340141Y-101494808D01*
X193211595Y-101671739D01*
X193112298Y-101866616D01*
X193112297Y-101866619D01*
X193044714Y-102074623D01*
X193010500Y-102290638D01*
X193010500Y-102509361D01*
X193044714Y-102725376D01*
X193112297Y-102933380D01*
X193112298Y-102933383D01*
X193211595Y-103128260D01*
X193340142Y-103305193D01*
X193340148Y-103305199D01*
X193494801Y-103459852D01*
X193646395Y-103569991D01*
X193689060Y-103625319D01*
X193695039Y-103694932D01*
X193662434Y-103756728D01*
X193646394Y-103770626D01*
X193610360Y-103796805D01*
X193610360Y-103796807D01*
X194163992Y-104350439D01*
X194099215Y-104377271D01*
X193995211Y-104446764D01*
X193906764Y-104535211D01*
X193837271Y-104639215D01*
X193810439Y-104703992D01*
X193256807Y-104150360D01*
X193256806Y-104150360D01*
X193212023Y-104212001D01*
X193112762Y-104406808D01*
X193112761Y-104406811D01*
X193045202Y-104614740D01*
X193011000Y-104830683D01*
X193011000Y-105049316D01*
X193045202Y-105265259D01*
X193112761Y-105473188D01*
X193112762Y-105473191D01*
X193212020Y-105667993D01*
X193212021Y-105667995D01*
X193256806Y-105729638D01*
X193256807Y-105729638D01*
X193810438Y-105176006D01*
X193837271Y-105240785D01*
X193906764Y-105344789D01*
X193995211Y-105433236D01*
X194099215Y-105502729D01*
X194163991Y-105529560D01*
X193610360Y-106083191D01*
X193672008Y-106127980D01*
X193866808Y-106227237D01*
X193866811Y-106227238D01*
X194074740Y-106294797D01*
X194290684Y-106329000D01*
X194509316Y-106329000D01*
X194725259Y-106294797D01*
X194933188Y-106227238D01*
X194933191Y-106227237D01*
X195127995Y-106127978D01*
X195189638Y-106083191D01*
X195189639Y-106083191D01*
X194636008Y-105529560D01*
X194700785Y-105502729D01*
X194804789Y-105433236D01*
X194893236Y-105344789D01*
X194962729Y-105240785D01*
X194989560Y-105176008D01*
X195543191Y-105729639D01*
X195543191Y-105729638D01*
X195587978Y-105667995D01*
X195687237Y-105473191D01*
X195687238Y-105473188D01*
X195754797Y-105265259D01*
X195789000Y-105049316D01*
X195789000Y-104830683D01*
X195754797Y-104614740D01*
X195687238Y-104406811D01*
X195687237Y-104406808D01*
X195587980Y-104212008D01*
X195543191Y-104150360D01*
X194989560Y-104703991D01*
X194962729Y-104639215D01*
X194893236Y-104535211D01*
X194804789Y-104446764D01*
X194700785Y-104377271D01*
X194636006Y-104350438D01*
X195189638Y-103796807D01*
X195189638Y-103796806D01*
X195153606Y-103770628D01*
X195110939Y-103715299D01*
X195104959Y-103645685D01*
X195137565Y-103583890D01*
X195153599Y-103569994D01*
X195305199Y-103459852D01*
X195459852Y-103305199D01*
X195459854Y-103305195D01*
X195459857Y-103305193D01*
X195516229Y-103227601D01*
X195588407Y-103128257D01*
X195687701Y-102933383D01*
X195755286Y-102725375D01*
X195772912Y-102614082D01*
X195789500Y-102509361D01*
X195789500Y-102290638D01*
X195760904Y-102110097D01*
X195755286Y-102074625D01*
X195701959Y-101910500D01*
X195687702Y-101866619D01*
X195687701Y-101866616D01*
X195653315Y-101799132D01*
X195588407Y-101671743D01*
X195580147Y-101660374D01*
X195459857Y-101494806D01*
X195395741Y-101430690D01*
X195362256Y-101369367D01*
X195367240Y-101299675D01*
X195409112Y-101243742D01*
X195440089Y-101226827D01*
X195531328Y-101192797D01*
X195531327Y-101192797D01*
X195531331Y-101192796D01*
X195646546Y-101106546D01*
X195732796Y-100991331D01*
X195783091Y-100856483D01*
X195789500Y-100796873D01*
X195789499Y-98923128D01*
X195784299Y-98874757D01*
X195783091Y-98863516D01*
X195732797Y-98728671D01*
X195732793Y-98728664D01*
X195646547Y-98613455D01*
X195646544Y-98613452D01*
X195531335Y-98527206D01*
X195531328Y-98527202D01*
X195396482Y-98476908D01*
X195396483Y-98476908D01*
X195336883Y-98470501D01*
X195336881Y-98470500D01*
X195336873Y-98470500D01*
X195336865Y-98470500D01*
X193911097Y-98470500D01*
X193844058Y-98450815D01*
X193823416Y-98434181D01*
X190436819Y-95047584D01*
X190403334Y-94986261D01*
X190400500Y-94959903D01*
X190400500Y-93589499D01*
X190420185Y-93522460D01*
X190472989Y-93476705D01*
X190524500Y-93465499D01*
X190747871Y-93465499D01*
X190747872Y-93465499D01*
X190807483Y-93459091D01*
X190942331Y-93408796D01*
X191057546Y-93322546D01*
X191143796Y-93207331D01*
X191194091Y-93072483D01*
X191200500Y-93012873D01*
X191200499Y-91117128D01*
X191194091Y-91057517D01*
X191143796Y-90922669D01*
X191143795Y-90922668D01*
X191143793Y-90922664D01*
X191057547Y-90807455D01*
X191057544Y-90807452D01*
X190942335Y-90721206D01*
X190942328Y-90721202D01*
X190862419Y-90691398D01*
X190806485Y-90649527D01*
X190782068Y-90584062D01*
X190796920Y-90515789D01*
X190818069Y-90487537D01*
X190868242Y-90437365D01*
X190997815Y-90259022D01*
X191097895Y-90062606D01*
X191166015Y-89852951D01*
X191200500Y-89635222D01*
X191200500Y-89414778D01*
X191166015Y-89197049D01*
X191097895Y-88987394D01*
X191097895Y-88987393D01*
X191063237Y-88919375D01*
X190997815Y-88790978D01*
X190981260Y-88768192D01*
X190868247Y-88612641D01*
X190868243Y-88612636D01*
X190712363Y-88456756D01*
X190712358Y-88456752D01*
X190534025Y-88327187D01*
X190534024Y-88327186D01*
X190534022Y-88327185D01*
X190471096Y-88295122D01*
X190337606Y-88227104D01*
X190337603Y-88227103D01*
X190127952Y-88158985D01*
X190019086Y-88141742D01*
X189910222Y-88124500D01*
X189689778Y-88124500D01*
X189617201Y-88135995D01*
X189472047Y-88158985D01*
X189401796Y-88181811D01*
X189331955Y-88183806D01*
X189275797Y-88151561D01*
X183162590Y-82038355D01*
X183162588Y-82038352D01*
X183043717Y-81919481D01*
X183043709Y-81919475D01*
X182952155Y-81866617D01*
X182952153Y-81866616D01*
X182906790Y-81840425D01*
X182906789Y-81840424D01*
X182894263Y-81837067D01*
X182754057Y-81799499D01*
X182595943Y-81799499D01*
X182588347Y-81799499D01*
X182588331Y-81799500D01*
X181729490Y-81799500D01*
X181662451Y-81779815D01*
X181619005Y-81731795D01*
X181609514Y-81713168D01*
X181588407Y-81671743D01*
X181570410Y-81646972D01*
X181459857Y-81494806D01*
X181305193Y-81340142D01*
X181128260Y-81211595D01*
X181128259Y-81211594D01*
X181128257Y-81211593D01*
X181034186Y-81163661D01*
X180933383Y-81112298D01*
X180933380Y-81112297D01*
X180725376Y-81044714D01*
X180509361Y-81010500D01*
X180509356Y-81010500D01*
X180290644Y-81010500D01*
X180290639Y-81010500D01*
X180074623Y-81044714D01*
X179866619Y-81112297D01*
X179866616Y-81112298D01*
X179671739Y-81211595D01*
X179494806Y-81340142D01*
X179340142Y-81494806D01*
X179211593Y-81671741D01*
X179190484Y-81713170D01*
X179142509Y-81763965D01*
X179074688Y-81780760D01*
X179008554Y-81758222D01*
X178969516Y-81713170D01*
X178948406Y-81671741D01*
X178819857Y-81494806D01*
X178665193Y-81340142D01*
X178488260Y-81211595D01*
X178488259Y-81211594D01*
X178488257Y-81211593D01*
X178394186Y-81163661D01*
X178293383Y-81112298D01*
X178293380Y-81112297D01*
X178085376Y-81044714D01*
X177869361Y-81010500D01*
X177869356Y-81010500D01*
X177650644Y-81010500D01*
X177650639Y-81010500D01*
X177434623Y-81044714D01*
X177226619Y-81112297D01*
X177226616Y-81112298D01*
X177031739Y-81211595D01*
X176854806Y-81340142D01*
X176700142Y-81494806D01*
X176571594Y-81671739D01*
X176550484Y-81713170D01*
X176502508Y-81763965D01*
X176434687Y-81780759D01*
X176368553Y-81758220D01*
X176329515Y-81713168D01*
X176308408Y-81671743D01*
X176290411Y-81646972D01*
X176179858Y-81494806D01*
X176025194Y-81340142D01*
X175848261Y-81211595D01*
X175848260Y-81211594D01*
X175848258Y-81211593D01*
X175754187Y-81163661D01*
X175653384Y-81112298D01*
X175653381Y-81112297D01*
X175445377Y-81044714D01*
X175229362Y-81010500D01*
X175229357Y-81010500D01*
X175010645Y-81010500D01*
X175010640Y-81010500D01*
X174794624Y-81044714D01*
X174586620Y-81112297D01*
X174586617Y-81112298D01*
X174391740Y-81211595D01*
X174214807Y-81340142D01*
X174060143Y-81494806D01*
X173931596Y-81671739D01*
X173832300Y-81866616D01*
X173764715Y-82074623D01*
X173730501Y-82290638D01*
X173730501Y-82509361D01*
X173764715Y-82725376D01*
X173832298Y-82933380D01*
X173832299Y-82933383D01*
X173887529Y-83041776D01*
X173929542Y-83124230D01*
X173931596Y-83128260D01*
X174060143Y-83305193D01*
X174214807Y-83459857D01*
X174380375Y-83580147D01*
X174391744Y-83588407D01*
X174519133Y-83653315D01*
X174586617Y-83687701D01*
X174586620Y-83687702D01*
X174690622Y-83721493D01*
X174794626Y-83755286D01*
X174894673Y-83771132D01*
X175010640Y-83789500D01*
X175010645Y-83789500D01*
X175229362Y-83789500D01*
X175334083Y-83772912D01*
X175445376Y-83755286D01*
X175653384Y-83687701D01*
X175848258Y-83588407D01*
X175947602Y-83516229D01*
X176025194Y-83459857D01*
X176025196Y-83459854D01*
X176025200Y-83459852D01*
X176179853Y-83305199D01*
X176179855Y-83305195D01*
X176179858Y-83305193D01*
X176308407Y-83128258D01*
X176310460Y-83124230D01*
X176329515Y-83086831D01*
X176377489Y-83036036D01*
X176445310Y-83019240D01*
X176511445Y-83041777D01*
X176550484Y-83086830D01*
X176571593Y-83128258D01*
X176700142Y-83305193D01*
X176854806Y-83459857D01*
X177030691Y-83587643D01*
X177031743Y-83588407D01*
X177091794Y-83619004D01*
X177142591Y-83666978D01*
X177159500Y-83729489D01*
X177159500Y-86139903D01*
X177139815Y-86206942D01*
X177123181Y-86227584D01*
X169187584Y-94163181D01*
X169160656Y-94177884D01*
X169134838Y-94194477D01*
X169128637Y-94195368D01*
X169126261Y-94196666D01*
X169099903Y-94199500D01*
X169086670Y-94199500D01*
X169086654Y-94199499D01*
X169079058Y-94199499D01*
X168920943Y-94199499D01*
X168844579Y-94219961D01*
X168768214Y-94240423D01*
X168768209Y-94240426D01*
X168642702Y-94312887D01*
X168627215Y-94317036D01*
X168615638Y-94324477D01*
X168580703Y-94329500D01*
X168434602Y-94329500D01*
X168367563Y-94309815D01*
X168324117Y-94261795D01*
X168317287Y-94248390D01*
X168317285Y-94248387D01*
X168317284Y-94248385D01*
X168196971Y-94082786D01*
X168052213Y-93938028D01*
X167886611Y-93817713D01*
X167793369Y-93770203D01*
X167742574Y-93722229D01*
X167725779Y-93654407D01*
X167748317Y-93588273D01*
X167793371Y-93549234D01*
X167886346Y-93501861D01*
X167886347Y-93501861D01*
X167930921Y-93469474D01*
X167251447Y-92790000D01*
X167257661Y-92790000D01*
X167359394Y-92762741D01*
X167450606Y-92710080D01*
X167525080Y-92635606D01*
X167577741Y-92544394D01*
X167605000Y-92442661D01*
X167605000Y-92436447D01*
X168284474Y-93115921D01*
X168316859Y-93071349D01*
X168409755Y-92889031D01*
X168472990Y-92694417D01*
X168505000Y-92492317D01*
X168505000Y-92287682D01*
X168472990Y-92085582D01*
X168409755Y-91890968D01*
X168316859Y-91708650D01*
X168284474Y-91664077D01*
X168284474Y-91664076D01*
X167605000Y-92343551D01*
X167605000Y-92337339D01*
X167577741Y-92235606D01*
X167525080Y-92144394D01*
X167450606Y-92069920D01*
X167359394Y-92017259D01*
X167257661Y-91990000D01*
X167251446Y-91990000D01*
X167930922Y-91310524D01*
X167930921Y-91310523D01*
X167886359Y-91278147D01*
X167886350Y-91278141D01*
X167704031Y-91185244D01*
X167509417Y-91122009D01*
X167307317Y-91090000D01*
X167102683Y-91090000D01*
X166900582Y-91122009D01*
X166705968Y-91185244D01*
X166523644Y-91278143D01*
X166479077Y-91310523D01*
X166479077Y-91310524D01*
X167158554Y-91990000D01*
X167152339Y-91990000D01*
X167050606Y-92017259D01*
X166959394Y-92069920D01*
X166884920Y-92144394D01*
X166832259Y-92235606D01*
X166805000Y-92337339D01*
X166805000Y-92343553D01*
X166125524Y-91664077D01*
X166125523Y-91664077D01*
X166093143Y-91708644D01*
X166000244Y-91890968D01*
X165937009Y-92085582D01*
X165905000Y-92287682D01*
X165905000Y-92492317D01*
X165937009Y-92694417D01*
X166000244Y-92889031D01*
X166093141Y-93071350D01*
X166093147Y-93071359D01*
X166125523Y-93115921D01*
X166125524Y-93115922D01*
X166805000Y-92436446D01*
X166805000Y-92442661D01*
X166832259Y-92544394D01*
X166884920Y-92635606D01*
X166959394Y-92710080D01*
X167050606Y-92762741D01*
X167152339Y-92790000D01*
X167158553Y-92790000D01*
X166479076Y-93469474D01*
X166523652Y-93501861D01*
X166616628Y-93549234D01*
X166667425Y-93597208D01*
X166684220Y-93665029D01*
X166661683Y-93731164D01*
X166616630Y-93770203D01*
X166523388Y-93817713D01*
X166357786Y-93938028D01*
X166213028Y-94082786D01*
X166092715Y-94248386D01*
X165999781Y-94430776D01*
X165936522Y-94625465D01*
X165904500Y-94827648D01*
X165904500Y-95032351D01*
X165936522Y-95234534D01*
X165999781Y-95429223D01*
X166051385Y-95530500D01*
X166088320Y-95602989D01*
X166092715Y-95611613D01*
X166213028Y-95777213D01*
X166357786Y-95921971D01*
X166492432Y-96019795D01*
X166523390Y-96042287D01*
X166614840Y-96088883D01*
X166616080Y-96089515D01*
X166666876Y-96137490D01*
X166683671Y-96205311D01*
X166661134Y-96271446D01*
X166616080Y-96310485D01*
X166523386Y-96357715D01*
X166357786Y-96478028D01*
X166213028Y-96622786D01*
X166092715Y-96788386D01*
X165999781Y-96970776D01*
X165936522Y-97165465D01*
X165904500Y-97367648D01*
X165904500Y-97572351D01*
X165936522Y-97774534D01*
X165999781Y-97969223D01*
X166051385Y-98070499D01*
X166079624Y-98125922D01*
X166092715Y-98151613D01*
X166213028Y-98317213D01*
X166213034Y-98317219D01*
X166357781Y-98461966D01*
X166451452Y-98530021D01*
X166494117Y-98585350D01*
X166500096Y-98654963D01*
X166467491Y-98716759D01*
X166417571Y-98748045D01*
X166335666Y-98775186D01*
X166335663Y-98775187D01*
X166186342Y-98867289D01*
X166062289Y-98991342D01*
X165970187Y-99140663D01*
X165970186Y-99140666D01*
X165915001Y-99307203D01*
X165915001Y-99307204D01*
X165915000Y-99307204D01*
X165904500Y-99409983D01*
X165904500Y-100610001D01*
X165904501Y-100610018D01*
X165915000Y-100712796D01*
X165915001Y-100712799D01*
X165962614Y-100856483D01*
X165970186Y-100879334D01*
X166062288Y-101028656D01*
X166186344Y-101152712D01*
X166335666Y-101244814D01*
X166502203Y-101299999D01*
X166604991Y-101310500D01*
X167805008Y-101310499D01*
X167907797Y-101299999D01*
X168074334Y-101244814D01*
X168223656Y-101152712D01*
X168347712Y-101028656D01*
X168439814Y-100879334D01*
X168494999Y-100712797D01*
X168505500Y-100610009D01*
X168505499Y-99409992D01*
X168494999Y-99307203D01*
X168439814Y-99140666D01*
X168347712Y-98991344D01*
X168223656Y-98867288D01*
X168074334Y-98775186D01*
X167992427Y-98748044D01*
X167934984Y-98708272D01*
X167908161Y-98643756D01*
X167920476Y-98574980D01*
X167958547Y-98530021D01*
X168052219Y-98461966D01*
X168196966Y-98317219D01*
X168196968Y-98317215D01*
X168196971Y-98317213D01*
X168249732Y-98244590D01*
X168317287Y-98151610D01*
X168410220Y-97969219D01*
X168473477Y-97774534D01*
X168505500Y-97572352D01*
X168505500Y-97367648D01*
X168473477Y-97165466D01*
X168469879Y-97154394D01*
X168410218Y-96970776D01*
X168374648Y-96900968D01*
X168317287Y-96788390D01*
X168309556Y-96777749D01*
X168196971Y-96622786D01*
X168052213Y-96478028D01*
X167886614Y-96357715D01*
X167850588Y-96339359D01*
X167793917Y-96310483D01*
X167743123Y-96262511D01*
X167726328Y-96194690D01*
X167748865Y-96128555D01*
X167793917Y-96089516D01*
X167886610Y-96042287D01*
X167982962Y-95972284D01*
X168052213Y-95921971D01*
X168052215Y-95921968D01*
X168052219Y-95921966D01*
X168196966Y-95777219D01*
X168196968Y-95777215D01*
X168196971Y-95777213D01*
X168317284Y-95611614D01*
X168317285Y-95611613D01*
X168317287Y-95611610D01*
X168324117Y-95598204D01*
X168372091Y-95547409D01*
X168434602Y-95530500D01*
X168675500Y-95530500D01*
X168742539Y-95550185D01*
X168788294Y-95602989D01*
X168799500Y-95654500D01*
X168799500Y-112499902D01*
X168779815Y-112566941D01*
X168763181Y-112587583D01*
X166512665Y-114838098D01*
X166451342Y-114871583D01*
X166381650Y-114866599D01*
X166377553Y-114864986D01*
X166212207Y-114796498D01*
X166212205Y-114796497D01*
X166212204Y-114796497D01*
X165971561Y-114732017D01*
X165724575Y-114699501D01*
X165724570Y-114699500D01*
X165724565Y-114699500D01*
X165475435Y-114699500D01*
X165475429Y-114699500D01*
X165475424Y-114699501D01*
X165228438Y-114732017D01*
X164987792Y-114796498D01*
X164757638Y-114891830D01*
X164757623Y-114891837D01*
X164541873Y-115016400D01*
X164344225Y-115168060D01*
X164344218Y-115168066D01*
X164168066Y-115344218D01*
X164168060Y-115344225D01*
X164016400Y-115541873D01*
X163891837Y-115757623D01*
X163891830Y-115757638D01*
X163796498Y-115987792D01*
X163732017Y-116228438D01*
X163699501Y-116475424D01*
X163699500Y-116475441D01*
X159274170Y-116475441D01*
X159267982Y-116428435D01*
X159203502Y-116187793D01*
X159135020Y-116022464D01*
X159127552Y-115952997D01*
X159158827Y-115890518D01*
X159161871Y-115887363D01*
X160065520Y-114983716D01*
X160144577Y-114846784D01*
X160185501Y-114694057D01*
X160185501Y-114535942D01*
X160185501Y-114528347D01*
X160185500Y-114528329D01*
X160185500Y-101239601D01*
X160205185Y-101172562D01*
X160253206Y-101129116D01*
X160266610Y-101122287D01*
X160432219Y-101001966D01*
X160576966Y-100857219D01*
X160576968Y-100857215D01*
X160576971Y-100857213D01*
X160681892Y-100712799D01*
X160697287Y-100691610D01*
X160790220Y-100509219D01*
X160853477Y-100314534D01*
X160885500Y-100112352D01*
X160885500Y-99907648D01*
X160853477Y-99705466D01*
X160790220Y-99510781D01*
X160790218Y-99510778D01*
X160790218Y-99510776D01*
X160738865Y-99409991D01*
X160697287Y-99328390D01*
X160664612Y-99283416D01*
X160576971Y-99162786D01*
X160432213Y-99018028D01*
X160266614Y-98897715D01*
X160260006Y-98894348D01*
X160173917Y-98850483D01*
X160123123Y-98802511D01*
X160106328Y-98734690D01*
X160128865Y-98668555D01*
X160173917Y-98629516D01*
X160266610Y-98582287D01*
X160363544Y-98511861D01*
X160432213Y-98461971D01*
X160432215Y-98461968D01*
X160432219Y-98461966D01*
X160576966Y-98317219D01*
X160576968Y-98317215D01*
X160576971Y-98317213D01*
X160629732Y-98244590D01*
X160697287Y-98151610D01*
X160790220Y-97969219D01*
X160853477Y-97774534D01*
X160885500Y-97572352D01*
X160885500Y-97367648D01*
X160853477Y-97165466D01*
X160849879Y-97154394D01*
X160790218Y-96970776D01*
X160754648Y-96900968D01*
X160697287Y-96788390D01*
X160689556Y-96777749D01*
X160576971Y-96622786D01*
X160432213Y-96478028D01*
X160266614Y-96357715D01*
X160230588Y-96339359D01*
X160173917Y-96310483D01*
X160123123Y-96262511D01*
X160106328Y-96194690D01*
X160128865Y-96128555D01*
X160173917Y-96089516D01*
X160266610Y-96042287D01*
X160362962Y-95972284D01*
X160432213Y-95921971D01*
X160432215Y-95921968D01*
X160432219Y-95921966D01*
X160576966Y-95777219D01*
X160576968Y-95777215D01*
X160576971Y-95777213D01*
X160629732Y-95704590D01*
X160697287Y-95611610D01*
X160790220Y-95429219D01*
X160853477Y-95234534D01*
X160885500Y-95032352D01*
X160885500Y-94827648D01*
X160853477Y-94625466D01*
X160790220Y-94430781D01*
X160790218Y-94430778D01*
X160790218Y-94430776D01*
X160754551Y-94360776D01*
X160697287Y-94248390D01*
X160658656Y-94195218D01*
X160576971Y-94082786D01*
X160432213Y-93938028D01*
X160266614Y-93817715D01*
X160260006Y-93814348D01*
X160173917Y-93770483D01*
X160123123Y-93722511D01*
X160106328Y-93654690D01*
X160128865Y-93588555D01*
X160173917Y-93549516D01*
X160266610Y-93502287D01*
X160311774Y-93469474D01*
X160432213Y-93381971D01*
X160432215Y-93381968D01*
X160432219Y-93381966D01*
X160576966Y-93237219D01*
X160576968Y-93237215D01*
X160576971Y-93237213D01*
X160629732Y-93164590D01*
X160697287Y-93071610D01*
X160790220Y-92889219D01*
X160853477Y-92694534D01*
X160885500Y-92492352D01*
X160885500Y-92287648D01*
X160877257Y-92235606D01*
X160853477Y-92085465D01*
X160807888Y-91945157D01*
X160790220Y-91890781D01*
X160790218Y-91890778D01*
X160790218Y-91890776D01*
X160736210Y-91784781D01*
X160697287Y-91708390D01*
X160665092Y-91664077D01*
X160576971Y-91542786D01*
X160432213Y-91398028D01*
X160266613Y-91277715D01*
X160266612Y-91277714D01*
X160266610Y-91277713D01*
X160209653Y-91248691D01*
X160084223Y-91184781D01*
X159889534Y-91121522D01*
X159714995Y-91093878D01*
X159687352Y-91089500D01*
X159482648Y-91089500D01*
X159444599Y-91095526D01*
X159280468Y-91121522D01*
X159271717Y-91124365D01*
X159266154Y-91126173D01*
X159196313Y-91128167D01*
X159140157Y-91095922D01*
X150148872Y-82104637D01*
X157388300Y-82104637D01*
X157388300Y-82295362D01*
X157418136Y-82483741D01*
X157477071Y-82665128D01*
X157477072Y-82665131D01*
X157507769Y-82725376D01*
X157563661Y-82835069D01*
X157675767Y-82989370D01*
X157810630Y-83124233D01*
X157964931Y-83236339D01*
X158048280Y-83278807D01*
X158134868Y-83322927D01*
X158134871Y-83322928D01*
X158225564Y-83352395D01*
X158316260Y-83381864D01*
X158504637Y-83411700D01*
X158504638Y-83411700D01*
X158695362Y-83411700D01*
X158695363Y-83411700D01*
X158883740Y-83381864D01*
X159065131Y-83322927D01*
X159235069Y-83236339D01*
X159389370Y-83124233D01*
X159524233Y-82989370D01*
X159636339Y-82835069D01*
X159722927Y-82665131D01*
X159781864Y-82483740D01*
X159811700Y-82295363D01*
X159811700Y-82104637D01*
X159781864Y-81916260D01*
X159737838Y-81780760D01*
X159722928Y-81734871D01*
X159722927Y-81734868D01*
X159636338Y-81564930D01*
X159524233Y-81410630D01*
X159389370Y-81275767D01*
X159235069Y-81163661D01*
X159065131Y-81077072D01*
X159065128Y-81077071D01*
X158883741Y-81018136D01*
X158789551Y-81003218D01*
X158695363Y-80988300D01*
X158504637Y-80988300D01*
X158441844Y-80998245D01*
X158316258Y-81018136D01*
X158134871Y-81077071D01*
X158134868Y-81077072D01*
X157964930Y-81163661D01*
X157810627Y-81275769D01*
X157675769Y-81410627D01*
X157563661Y-81564930D01*
X157477072Y-81734868D01*
X157477071Y-81734871D01*
X157418136Y-81916258D01*
X157388300Y-82104637D01*
X150148872Y-82104637D01*
X149885366Y-81841131D01*
X149875521Y-81831286D01*
X149875520Y-81831284D01*
X149763716Y-81719480D01*
X149715932Y-81691892D01*
X149706665Y-81683730D01*
X149694341Y-81664209D01*
X149678410Y-81647501D01*
X149678406Y-81647493D01*
X149636339Y-81564931D01*
X149524233Y-81410630D01*
X149389370Y-81275767D01*
X149235069Y-81163661D01*
X149065131Y-81077072D01*
X149065128Y-81077071D01*
X148883741Y-81018136D01*
X148789551Y-81003218D01*
X148695363Y-80988300D01*
X148504637Y-80988300D01*
X148441844Y-80998245D01*
X148316258Y-81018136D01*
X148134871Y-81077071D01*
X148134868Y-81077072D01*
X147964930Y-81163661D01*
X147810627Y-81275769D01*
X147675769Y-81410627D01*
X147563661Y-81564930D01*
X147477072Y-81734868D01*
X147477071Y-81734871D01*
X147418136Y-81916258D01*
X147388300Y-82104637D01*
X147388300Y-82295362D01*
X147418136Y-82483741D01*
X147477071Y-82665128D01*
X147477072Y-82665131D01*
X147507769Y-82725376D01*
X147563661Y-82835069D01*
X147675767Y-82989370D01*
X147810630Y-83124233D01*
X147964931Y-83236339D01*
X148048280Y-83278807D01*
X148134868Y-83322927D01*
X148134871Y-83322928D01*
X148225564Y-83352395D01*
X148316260Y-83381864D01*
X148504637Y-83411700D01*
X148504638Y-83411700D01*
X148695362Y-83411700D01*
X148695363Y-83411700D01*
X148883740Y-83381864D01*
X149065131Y-83322927D01*
X149235069Y-83236339D01*
X149350390Y-83152553D01*
X149416194Y-83129073D01*
X149484248Y-83144898D01*
X149510955Y-83165190D01*
X158290922Y-91945157D01*
X158324407Y-92006480D01*
X158321173Y-92071155D01*
X158316522Y-92085468D01*
X158284500Y-92287648D01*
X158284500Y-92492351D01*
X158316522Y-92694534D01*
X158379781Y-92889223D01*
X158442780Y-93012864D01*
X158472585Y-93071359D01*
X158472715Y-93071613D01*
X158593028Y-93237213D01*
X158737786Y-93381971D01*
X158858226Y-93469474D01*
X158903390Y-93502287D01*
X158994840Y-93548883D01*
X158996080Y-93549515D01*
X159046876Y-93597490D01*
X159063671Y-93665311D01*
X159041134Y-93731446D01*
X158996080Y-93770485D01*
X158903386Y-93817715D01*
X158737786Y-93938028D01*
X158593028Y-94082786D01*
X158472715Y-94248386D01*
X158379781Y-94430776D01*
X158316522Y-94625465D01*
X158284500Y-94827648D01*
X158284500Y-95032351D01*
X158316522Y-95234534D01*
X158379781Y-95429223D01*
X158431385Y-95530500D01*
X158468320Y-95602989D01*
X158472715Y-95611613D01*
X158593028Y-95777213D01*
X158737786Y-95921971D01*
X158872432Y-96019795D01*
X158903390Y-96042287D01*
X158994840Y-96088883D01*
X158996080Y-96089515D01*
X159046876Y-96137490D01*
X159063671Y-96205311D01*
X159041134Y-96271446D01*
X158996080Y-96310485D01*
X158903386Y-96357715D01*
X158737786Y-96478028D01*
X158593028Y-96622786D01*
X158472715Y-96788385D01*
X158465883Y-96801795D01*
X158417909Y-96852591D01*
X158355398Y-96869500D01*
X158030097Y-96869500D01*
X157963058Y-96849815D01*
X157942416Y-96833181D01*
X157752195Y-96642960D01*
X157732490Y-96617280D01*
X157665520Y-96501284D01*
X157553716Y-96389480D01*
X157553714Y-96389479D01*
X157553709Y-96389475D01*
X157416790Y-96310426D01*
X157416786Y-96310424D01*
X157416784Y-96310423D01*
X157264057Y-96269500D01*
X157264056Y-96269500D01*
X157209061Y-96269500D01*
X157209057Y-96269499D01*
X157050943Y-96269499D01*
X157050939Y-96269500D01*
X153816669Y-96269500D01*
X153816653Y-96269499D01*
X153809057Y-96269499D01*
X153650943Y-96269499D01*
X153543587Y-96298265D01*
X153498210Y-96310424D01*
X153498209Y-96310425D01*
X153448096Y-96339359D01*
X153448095Y-96339360D01*
X153416303Y-96357715D01*
X153361285Y-96389479D01*
X153361282Y-96389481D01*
X148906762Y-100844002D01*
X148845439Y-100877487D01*
X148775747Y-100872503D01*
X148719814Y-100830631D01*
X148695397Y-100765167D01*
X148696608Y-100736922D01*
X148700429Y-100712799D01*
X148700500Y-100712352D01*
X148700500Y-100507648D01*
X148668477Y-100305466D01*
X148605220Y-100110781D01*
X148605218Y-100110778D01*
X148605218Y-100110776D01*
X148570353Y-100042351D01*
X148512287Y-99928390D01*
X148446360Y-99837648D01*
X148391971Y-99762786D01*
X148247213Y-99618028D01*
X148081613Y-99497715D01*
X148081612Y-99497714D01*
X148081610Y-99497713D01*
X148024653Y-99468691D01*
X147899223Y-99404781D01*
X147704534Y-99341522D01*
X147529995Y-99313878D01*
X147502352Y-99309500D01*
X147297648Y-99309500D01*
X147273329Y-99313351D01*
X147095465Y-99341522D01*
X146900776Y-99404781D01*
X146718386Y-99497715D01*
X146552786Y-99618028D01*
X146408028Y-99762786D01*
X146287715Y-99928386D01*
X146194781Y-100110776D01*
X146131522Y-100305465D01*
X146099500Y-100507648D01*
X146099500Y-100712352D01*
X146099571Y-100712799D01*
X146131522Y-100914534D01*
X146194781Y-101109223D01*
X146287715Y-101291613D01*
X146408028Y-101457213D01*
X146552786Y-101601971D01*
X146707749Y-101714556D01*
X146718390Y-101722287D01*
X146834607Y-101781503D01*
X146900776Y-101815218D01*
X146900778Y-101815218D01*
X146900781Y-101815220D01*
X147005137Y-101849127D01*
X147095465Y-101878477D01*
X147123555Y-101882926D01*
X147297648Y-101910500D01*
X147297649Y-101910500D01*
X147502351Y-101910500D01*
X147502352Y-101910500D01*
X147704534Y-101878477D01*
X147718842Y-101873827D01*
X147734054Y-101873392D01*
X147748315Y-101868074D01*
X147768268Y-101872414D01*
X147788682Y-101871831D01*
X147802769Y-101879920D01*
X147816588Y-101882926D01*
X147844842Y-101904077D01*
X147963181Y-102022416D01*
X147996666Y-102083739D01*
X147999500Y-102110097D01*
X147999500Y-108360397D01*
X147979815Y-108427436D01*
X147931800Y-108470879D01*
X147918389Y-108477712D01*
X147752786Y-108598028D01*
X147608028Y-108742786D01*
X147487715Y-108908386D01*
X147394781Y-109090776D01*
X147331522Y-109285465D01*
X147299500Y-109487648D01*
X147299500Y-109692351D01*
X147331522Y-109894534D01*
X147394781Y-110089223D01*
X147487715Y-110271613D01*
X147608028Y-110437213D01*
X147752786Y-110581971D01*
X147907749Y-110694556D01*
X147918390Y-110702287D01*
X148034607Y-110761503D01*
X148100776Y-110795218D01*
X148100778Y-110795218D01*
X148100781Y-110795220D01*
X148205137Y-110829127D01*
X148295465Y-110858477D01*
X148396557Y-110874488D01*
X148497648Y-110890500D01*
X148497649Y-110890500D01*
X148702351Y-110890500D01*
X148702352Y-110890500D01*
X148904534Y-110858477D01*
X149099219Y-110795220D01*
X149281610Y-110702287D01*
X149374590Y-110634732D01*
X149447213Y-110581971D01*
X149447215Y-110581968D01*
X149447219Y-110581966D01*
X149591966Y-110437219D01*
X149591968Y-110437215D01*
X149591971Y-110437213D01*
X149644732Y-110364590D01*
X149712287Y-110271610D01*
X149805220Y-110089219D01*
X149868477Y-109894534D01*
X149900500Y-109692352D01*
X149900500Y-109487648D01*
X149888182Y-109409876D01*
X149868477Y-109285465D01*
X149805218Y-109090776D01*
X149771503Y-109024607D01*
X149712287Y-108908390D01*
X149703021Y-108895636D01*
X149591971Y-108742786D01*
X149447213Y-108598028D01*
X149281610Y-108477712D01*
X149268200Y-108470879D01*
X149217406Y-108422903D01*
X149200500Y-108360397D01*
X149200500Y-102300098D01*
X149209143Y-102270660D01*
X149215666Y-102240675D01*
X149219422Y-102235657D01*
X149220185Y-102233059D01*
X149236816Y-102212420D01*
X149270520Y-102178716D01*
X149270521Y-102178713D01*
X153942416Y-97506819D01*
X154003739Y-97473334D01*
X154030097Y-97470500D01*
X156829903Y-97470500D01*
X156896942Y-97490185D01*
X156917584Y-97506819D01*
X157245139Y-97834374D01*
X157245149Y-97834385D01*
X157249479Y-97838715D01*
X157249480Y-97838716D01*
X157361284Y-97950520D01*
X157448095Y-98000639D01*
X157448097Y-98000641D01*
X157486151Y-98022611D01*
X157498215Y-98029577D01*
X157650943Y-98070500D01*
X157809057Y-98070500D01*
X158355398Y-98070500D01*
X158422437Y-98090185D01*
X158465883Y-98138205D01*
X158472715Y-98151614D01*
X158593028Y-98317213D01*
X158737786Y-98461971D01*
X158871660Y-98559234D01*
X158903390Y-98582287D01*
X158964555Y-98613452D01*
X158996080Y-98629515D01*
X159046876Y-98677490D01*
X159063671Y-98745311D01*
X159041134Y-98811446D01*
X158996080Y-98850485D01*
X158903386Y-98897715D01*
X158737786Y-99018028D01*
X158593028Y-99162786D01*
X158472715Y-99328386D01*
X158379781Y-99510776D01*
X158316522Y-99705465D01*
X158284500Y-99907648D01*
X158284500Y-100112351D01*
X158316522Y-100314534D01*
X158379781Y-100509223D01*
X158472715Y-100691613D01*
X158593028Y-100857213D01*
X158593034Y-100857219D01*
X158737781Y-101001966D01*
X158903390Y-101122287D01*
X158916793Y-101129116D01*
X158967589Y-101177088D01*
X158984500Y-101239601D01*
X158984500Y-114314901D01*
X158964815Y-114381940D01*
X158948181Y-114402582D01*
X158312665Y-115038097D01*
X158251342Y-115071582D01*
X158181650Y-115066598D01*
X158177532Y-115064977D01*
X158012207Y-114996498D01*
X157771561Y-114932017D01*
X157524575Y-114899501D01*
X157524570Y-114899500D01*
X157524565Y-114899500D01*
X157275435Y-114899500D01*
X157275429Y-114899500D01*
X157275424Y-114899501D01*
X157028438Y-114932017D01*
X156787792Y-114996498D01*
X156557638Y-115091830D01*
X156557623Y-115091837D01*
X156341873Y-115216400D01*
X156144225Y-115368060D01*
X156144218Y-115368066D01*
X155968066Y-115544218D01*
X155968060Y-115544225D01*
X155816400Y-115741873D01*
X155691837Y-115957623D01*
X155691830Y-115957638D01*
X155596498Y-116187792D01*
X155532017Y-116428438D01*
X155522374Y-116501686D01*
X155494107Y-116565582D01*
X155435782Y-116604053D01*
X155399435Y-116609500D01*
X149829602Y-116609500D01*
X149762563Y-116589815D01*
X149719117Y-116541795D01*
X149712284Y-116528385D01*
X149591971Y-116362786D01*
X149447213Y-116218028D01*
X149281613Y-116097715D01*
X149281612Y-116097714D01*
X149281610Y-116097713D01*
X149224653Y-116068691D01*
X149099223Y-116004781D01*
X148904534Y-115941522D01*
X148729995Y-115913878D01*
X148702352Y-115909500D01*
X148497648Y-115909500D01*
X148497643Y-115909500D01*
X148440132Y-115918609D01*
X148370839Y-115909655D01*
X148333053Y-115883817D01*
X141056819Y-108607583D01*
X141023334Y-108546260D01*
X141020500Y-108519902D01*
X141020500Y-101169601D01*
X141040185Y-101102562D01*
X141088206Y-101059116D01*
X141101610Y-101052287D01*
X141267219Y-100931966D01*
X141411966Y-100787219D01*
X141411968Y-100787215D01*
X141411971Y-100787213D01*
X141481429Y-100691610D01*
X141532287Y-100621610D01*
X141625220Y-100439219D01*
X141688477Y-100244534D01*
X141720500Y-100042352D01*
X141720500Y-99837648D01*
X141688477Y-99635466D01*
X141625220Y-99440781D01*
X141625218Y-99440778D01*
X141625218Y-99440776D01*
X141574645Y-99341522D01*
X141532287Y-99258390D01*
X141524556Y-99247749D01*
X141411971Y-99092786D01*
X141267213Y-98948028D01*
X141101611Y-98827713D01*
X141008369Y-98780203D01*
X140957574Y-98732229D01*
X140940779Y-98664407D01*
X140963317Y-98598273D01*
X141008371Y-98559234D01*
X141101346Y-98511861D01*
X141101347Y-98511861D01*
X141145921Y-98479474D01*
X140466447Y-97800000D01*
X140472661Y-97800000D01*
X140574394Y-97772741D01*
X140665606Y-97720080D01*
X140740080Y-97645606D01*
X140792741Y-97554394D01*
X140820000Y-97452661D01*
X140820000Y-97446448D01*
X141499474Y-98125922D01*
X141499474Y-98125921D01*
X141531859Y-98081349D01*
X141624755Y-97899031D01*
X141687990Y-97704417D01*
X141720000Y-97502317D01*
X141720000Y-97297682D01*
X141687990Y-97095582D01*
X141624755Y-96900968D01*
X141531859Y-96718650D01*
X141499474Y-96674077D01*
X141499474Y-96674076D01*
X140820000Y-97353551D01*
X140820000Y-97347339D01*
X140792741Y-97245606D01*
X140740080Y-97154394D01*
X140665606Y-97079920D01*
X140574394Y-97027259D01*
X140472661Y-97000000D01*
X140466446Y-97000000D01*
X141145922Y-96320524D01*
X141145921Y-96320523D01*
X141101359Y-96288147D01*
X141101350Y-96288141D01*
X141008369Y-96240765D01*
X140957573Y-96192790D01*
X140940778Y-96124969D01*
X140963315Y-96058835D01*
X141008370Y-96019795D01*
X141101610Y-95972287D01*
X141170865Y-95921971D01*
X141267213Y-95851971D01*
X141267215Y-95851968D01*
X141267219Y-95851966D01*
X141411966Y-95707219D01*
X141411968Y-95707215D01*
X141411971Y-95707213D01*
X141469003Y-95628714D01*
X141532287Y-95541610D01*
X141625220Y-95359219D01*
X141688477Y-95164534D01*
X141720500Y-94962352D01*
X141720500Y-94757648D01*
X141688477Y-94555466D01*
X141625220Y-94360781D01*
X141625218Y-94360778D01*
X141625218Y-94360776D01*
X141573093Y-94258477D01*
X141532287Y-94178390D01*
X141521237Y-94163181D01*
X141411971Y-94012786D01*
X141267213Y-93868028D01*
X141101613Y-93747715D01*
X141101612Y-93747714D01*
X141101610Y-93747713D01*
X141044653Y-93718691D01*
X140919223Y-93654781D01*
X140724534Y-93591522D01*
X140549995Y-93563878D01*
X140522352Y-93559500D01*
X140317648Y-93559500D01*
X140293329Y-93563351D01*
X140115465Y-93591522D01*
X139920776Y-93654781D01*
X139738386Y-93747715D01*
X139572786Y-93868028D01*
X139428028Y-94012786D01*
X139307715Y-94178386D01*
X139214781Y-94360776D01*
X139151522Y-94555465D01*
X139119500Y-94757648D01*
X138200000Y-94757648D01*
X138200000Y-92887648D01*
X146099500Y-92887648D01*
X146099500Y-93092351D01*
X146131522Y-93294534D01*
X146194781Y-93489223D01*
X146248790Y-93595220D01*
X146284503Y-93665311D01*
X146287715Y-93671613D01*
X146408028Y-93837213D01*
X146552786Y-93981971D01*
X146691542Y-94082781D01*
X146718390Y-94102287D01*
X146834607Y-94161503D01*
X146900776Y-94195218D01*
X146900778Y-94195218D01*
X146900781Y-94195220D01*
X147005137Y-94229127D01*
X147095465Y-94258477D01*
X147196557Y-94274488D01*
X147297648Y-94290500D01*
X147297649Y-94290500D01*
X147502351Y-94290500D01*
X147502352Y-94290500D01*
X147704534Y-94258477D01*
X147899219Y-94195220D01*
X148081610Y-94102287D01*
X148204799Y-94012786D01*
X148247213Y-93981971D01*
X148247215Y-93981968D01*
X148247219Y-93981966D01*
X148391966Y-93837219D01*
X148391968Y-93837215D01*
X148391971Y-93837213D01*
X148473657Y-93724780D01*
X148512287Y-93671610D01*
X148605220Y-93489219D01*
X148668477Y-93294534D01*
X148700500Y-93092352D01*
X148700500Y-92887648D01*
X148668477Y-92685466D01*
X148605220Y-92490781D01*
X148605218Y-92490778D01*
X148605218Y-92490776D01*
X148527037Y-92337339D01*
X148512287Y-92308390D01*
X148459407Y-92235606D01*
X148391971Y-92142786D01*
X148247213Y-91998028D01*
X148081613Y-91877715D01*
X148081612Y-91877714D01*
X148081610Y-91877713D01*
X148024653Y-91848691D01*
X147899223Y-91784781D01*
X147704534Y-91721522D01*
X147529995Y-91693878D01*
X147502352Y-91689500D01*
X147297648Y-91689500D01*
X147273329Y-91693351D01*
X147095465Y-91721522D01*
X146900776Y-91784781D01*
X146718386Y-91877715D01*
X146552786Y-91998028D01*
X146408028Y-92142786D01*
X146287715Y-92308386D01*
X146194781Y-92490776D01*
X146131522Y-92685465D01*
X146099500Y-92887648D01*
X138200000Y-92887648D01*
X138200000Y-76457902D01*
X138219685Y-76390863D01*
X138272489Y-76345108D01*
X138324000Y-76333902D01*
X196729601Y-76333902D01*
X196796640Y-76353587D01*
G37*
%TD.AperFunction*%
%TD*%
%TA.AperFunction,Conductor*%
%TO.N,/HV12+*%
G36*
X134943039Y-76419685D02*
G01*
X134988794Y-76472489D01*
X135000000Y-76524000D01*
X135000000Y-103476000D01*
X134980315Y-103543039D01*
X134927511Y-103588794D01*
X134876000Y-103600000D01*
X101958597Y-103600000D01*
X101891558Y-103580315D01*
X101845803Y-103527511D01*
X101835859Y-103458353D01*
X101864884Y-103394797D01*
X101870916Y-103388319D01*
X104206951Y-101052284D01*
X106565159Y-98694075D01*
X106626480Y-98660592D01*
X106691154Y-98663826D01*
X106705466Y-98668477D01*
X106907648Y-98700500D01*
X106907649Y-98700500D01*
X107112351Y-98700500D01*
X107112352Y-98700500D01*
X107314534Y-98668477D01*
X107509219Y-98605220D01*
X107691610Y-98512287D01*
X107784590Y-98444732D01*
X107857213Y-98391971D01*
X107857215Y-98391968D01*
X107857219Y-98391966D01*
X108001966Y-98247219D01*
X108001968Y-98247215D01*
X108001971Y-98247213D01*
X108054732Y-98174590D01*
X108122287Y-98081610D01*
X108215220Y-97899219D01*
X108278477Y-97704534D01*
X108310500Y-97502352D01*
X108310500Y-97297648D01*
X108278477Y-97095466D01*
X108243395Y-96987498D01*
X108241401Y-96917661D01*
X108241553Y-96917088D01*
X108270500Y-96809059D01*
X108270501Y-96809056D01*
X108270501Y-96643348D01*
X108270500Y-96643330D01*
X108270500Y-90996730D01*
X108290185Y-90929691D01*
X108327866Y-90892808D01*
X108327752Y-90892651D01*
X108328823Y-90891872D01*
X108329715Y-90891000D01*
X108331690Y-90889789D01*
X108331689Y-90889789D01*
X108331694Y-90889787D01*
X108492464Y-90772981D01*
X108632981Y-90632464D01*
X108749787Y-90471694D01*
X108829515Y-90315218D01*
X108877490Y-90264423D01*
X108945311Y-90247628D01*
X109011446Y-90270165D01*
X109050484Y-90315218D01*
X109130213Y-90471694D01*
X109247019Y-90632464D01*
X109387536Y-90772981D01*
X109548306Y-90889787D01*
X109609500Y-90920967D01*
X109725367Y-90980005D01*
X109725370Y-90980006D01*
X109819866Y-91010709D01*
X109914364Y-91041413D01*
X110110639Y-91072500D01*
X110110640Y-91072500D01*
X110309360Y-91072500D01*
X110309361Y-91072500D01*
X110505636Y-91041413D01*
X110694632Y-90980005D01*
X110871694Y-90889787D01*
X111032464Y-90772981D01*
X111172981Y-90632464D01*
X111289787Y-90471694D01*
X111380005Y-90294632D01*
X111441413Y-90105636D01*
X111472500Y-89909361D01*
X111472500Y-89710639D01*
X111441413Y-89514364D01*
X111380005Y-89325368D01*
X111380005Y-89325367D01*
X111296348Y-89161183D01*
X111289787Y-89148306D01*
X111172981Y-88987536D01*
X111032464Y-88847019D01*
X110871694Y-88730213D01*
X110694632Y-88639994D01*
X110694629Y-88639993D01*
X110505637Y-88578587D01*
X110407498Y-88563043D01*
X110309361Y-88547500D01*
X110110639Y-88547500D01*
X110045214Y-88557862D01*
X109914362Y-88578587D01*
X109725370Y-88639993D01*
X109725367Y-88639994D01*
X109548305Y-88730213D01*
X109387533Y-88847021D01*
X109247021Y-88987533D01*
X109130213Y-89148305D01*
X109050485Y-89304780D01*
X109002510Y-89355576D01*
X108934689Y-89372371D01*
X108868554Y-89349833D01*
X108829515Y-89304780D01*
X108810179Y-89266832D01*
X108749787Y-89148306D01*
X108632981Y-88987536D01*
X108492464Y-88847019D01*
X108331694Y-88730213D01*
X108154632Y-88639994D01*
X108154629Y-88639993D01*
X107965637Y-88578587D01*
X107867498Y-88563043D01*
X107769361Y-88547500D01*
X107570639Y-88547500D01*
X107505214Y-88557862D01*
X107374362Y-88578587D01*
X107185370Y-88639993D01*
X107185367Y-88639994D01*
X107008305Y-88730213D01*
X106847533Y-88847021D01*
X106707021Y-88987533D01*
X106590213Y-89148305D01*
X106510204Y-89305331D01*
X106462229Y-89356127D01*
X106394408Y-89372922D01*
X106328273Y-89350384D01*
X106289234Y-89305331D01*
X106209358Y-89148567D01*
X106182268Y-89111283D01*
X105536400Y-89757151D01*
X105536400Y-89756496D01*
X105508705Y-89653135D01*
X105455201Y-89560464D01*
X105379536Y-89484799D01*
X105286865Y-89431295D01*
X105183504Y-89403600D01*
X105182847Y-89403600D01*
X105828716Y-88757731D01*
X105828715Y-88757730D01*
X105791432Y-88730641D01*
X105614437Y-88640457D01*
X105425522Y-88579075D01*
X105229321Y-88548000D01*
X105030679Y-88548000D01*
X104834479Y-88579075D01*
X104834476Y-88579075D01*
X104645562Y-88640457D01*
X104468564Y-88730643D01*
X104431283Y-88757729D01*
X104431282Y-88757730D01*
X105077154Y-89403600D01*
X105076496Y-89403600D01*
X104973135Y-89431295D01*
X104880464Y-89484799D01*
X104804799Y-89560464D01*
X104751295Y-89653135D01*
X104723600Y-89756496D01*
X104723600Y-89757152D01*
X104077730Y-89111282D01*
X104077728Y-89111283D01*
X104076817Y-89112538D01*
X104021487Y-89155204D01*
X103951874Y-89161183D01*
X103890079Y-89128577D01*
X103855722Y-89067739D01*
X103855077Y-89064806D01*
X103852499Y-89052361D01*
X103852499Y-89000128D01*
X103846091Y-88940517D01*
X103808389Y-88839434D01*
X103808389Y-88839431D01*
X103795798Y-88805673D01*
X103795793Y-88805664D01*
X103709547Y-88690455D01*
X103709544Y-88690452D01*
X103594335Y-88604206D01*
X103594328Y-88604202D01*
X103459482Y-88553908D01*
X103459483Y-88553908D01*
X103399883Y-88547501D01*
X103399881Y-88547500D01*
X103399873Y-88547500D01*
X103399864Y-88547500D01*
X101780129Y-88547500D01*
X101780123Y-88547501D01*
X101720516Y-88553908D01*
X101585671Y-88604202D01*
X101585664Y-88604206D01*
X101470455Y-88690452D01*
X101470452Y-88690455D01*
X101384206Y-88805664D01*
X101384202Y-88805671D01*
X101333908Y-88940517D01*
X101327501Y-89000116D01*
X101327500Y-89000135D01*
X101327500Y-90619870D01*
X101327501Y-90619876D01*
X101333908Y-90679483D01*
X101384202Y-90814328D01*
X101384206Y-90814335D01*
X101470452Y-90929544D01*
X101470455Y-90929547D01*
X101585664Y-91015793D01*
X101585671Y-91015797D01*
X101720517Y-91066091D01*
X101720516Y-91066091D01*
X101727444Y-91066835D01*
X101780127Y-91072500D01*
X103399872Y-91072499D01*
X103459483Y-91066091D01*
X103594331Y-91015796D01*
X103709546Y-90929546D01*
X103795796Y-90814331D01*
X103846091Y-90679483D01*
X103852500Y-90619873D01*
X103852499Y-90567632D01*
X103855077Y-90555192D01*
X103865776Y-90535126D01*
X103872182Y-90513308D01*
X103881900Y-90504886D01*
X103887951Y-90493539D01*
X103907800Y-90482442D01*
X103924985Y-90467552D01*
X103937713Y-90465721D01*
X103948938Y-90459447D01*
X103971635Y-90460843D01*
X103994143Y-90457607D01*
X104005839Y-90462948D01*
X104018676Y-90463738D01*
X104037015Y-90477184D01*
X104057700Y-90486630D01*
X104073753Y-90504121D01*
X104075023Y-90505052D01*
X104075322Y-90505830D01*
X104076816Y-90507458D01*
X104077729Y-90508715D01*
X104077731Y-90508716D01*
X104723600Y-89862847D01*
X104723600Y-89863504D01*
X104751295Y-89966865D01*
X104804799Y-90059536D01*
X104880464Y-90135201D01*
X104973135Y-90188705D01*
X105076496Y-90216400D01*
X105077153Y-90216400D01*
X104431283Y-90862268D01*
X104431283Y-90862269D01*
X104468567Y-90889358D01*
X104645562Y-90979542D01*
X104834477Y-91040924D01*
X105030679Y-91072000D01*
X105229321Y-91072000D01*
X105425520Y-91040924D01*
X105425523Y-91040924D01*
X105614437Y-90979542D01*
X105791425Y-90889362D01*
X105828716Y-90862268D01*
X105182848Y-90216400D01*
X105183504Y-90216400D01*
X105286865Y-90188705D01*
X105379536Y-90135201D01*
X105455201Y-90059536D01*
X105508705Y-89966865D01*
X105536400Y-89863504D01*
X105536400Y-89862847D01*
X106182268Y-90508715D01*
X106209364Y-90471422D01*
X106289234Y-90314669D01*
X106337208Y-90263872D01*
X106405029Y-90247077D01*
X106471164Y-90269614D01*
X106510203Y-90314667D01*
X106590213Y-90471694D01*
X106707019Y-90632464D01*
X106847536Y-90772981D01*
X106970431Y-90862269D01*
X107008309Y-90889789D01*
X107010285Y-90891000D01*
X107010878Y-90891656D01*
X107012248Y-90892651D01*
X107012039Y-90892938D01*
X107057163Y-90942810D01*
X107069500Y-90996730D01*
X107069500Y-95975500D01*
X107049815Y-96042539D01*
X106997011Y-96088294D01*
X106945500Y-96099500D01*
X106907648Y-96099500D01*
X106883329Y-96103351D01*
X106705465Y-96131522D01*
X106510776Y-96194781D01*
X106328386Y-96287715D01*
X106162786Y-96408028D01*
X106018028Y-96552786D01*
X105897715Y-96718386D01*
X105804781Y-96900776D01*
X105741522Y-97095465D01*
X105709500Y-97297648D01*
X105709500Y-97502351D01*
X105741523Y-97704535D01*
X105746172Y-97718845D01*
X105748165Y-97788687D01*
X105715921Y-97844841D01*
X100624280Y-102936483D01*
X100624273Y-102936490D01*
X100621286Y-102939478D01*
X100621284Y-102939480D01*
X100509480Y-103051284D01*
X100486756Y-103090644D01*
X100430423Y-103188215D01*
X100389499Y-103340943D01*
X100389499Y-103340945D01*
X100389499Y-103476000D01*
X100369814Y-103543039D01*
X100317010Y-103588794D01*
X100265499Y-103600000D01*
X95624500Y-103600000D01*
X95557461Y-103580315D01*
X95511706Y-103527511D01*
X95501251Y-103479453D01*
X95500765Y-103479485D01*
X95500552Y-103476240D01*
X95500500Y-103476000D01*
X95500500Y-103475441D01*
X95500500Y-103475435D01*
X95467982Y-103228435D01*
X95403502Y-102987793D01*
X95308164Y-102757627D01*
X95183599Y-102541873D01*
X95129787Y-102471743D01*
X95031939Y-102344225D01*
X95031933Y-102344218D01*
X94855781Y-102168066D01*
X94855774Y-102168060D01*
X94658126Y-102016400D01*
X94442376Y-101891837D01*
X94442361Y-101891830D01*
X94212207Y-101796498D01*
X93971561Y-101732017D01*
X93724575Y-101699501D01*
X93724570Y-101699500D01*
X93724565Y-101699500D01*
X93475435Y-101699500D01*
X93475429Y-101699500D01*
X93475424Y-101699501D01*
X93228438Y-101732017D01*
X92987792Y-101796498D01*
X92757638Y-101891830D01*
X92757623Y-101891837D01*
X92541873Y-102016400D01*
X92344225Y-102168060D01*
X92344218Y-102168066D01*
X92168066Y-102344218D01*
X92168060Y-102344225D01*
X92016400Y-102541873D01*
X91891837Y-102757623D01*
X91891830Y-102757638D01*
X91796498Y-102987792D01*
X91732017Y-103228438D01*
X91699501Y-103475424D01*
X91699500Y-103475441D01*
X91699500Y-103476000D01*
X91699452Y-103476160D01*
X91699235Y-103479485D01*
X91698490Y-103479436D01*
X91679815Y-103543039D01*
X91627011Y-103588794D01*
X91575500Y-103600000D01*
X83180652Y-103600000D01*
X83113613Y-103580315D01*
X83067858Y-103527511D01*
X83057914Y-103458353D01*
X83058179Y-103456602D01*
X83081500Y-103309361D01*
X83081500Y-103090638D01*
X83057558Y-102939480D01*
X83047286Y-102874625D01*
X82979701Y-102666617D01*
X82979701Y-102666616D01*
X82916140Y-102541873D01*
X82880407Y-102471743D01*
X82872147Y-102460374D01*
X82751857Y-102294806D01*
X82597197Y-102140146D01*
X82597192Y-102140142D01*
X82445605Y-102030008D01*
X82402939Y-101974678D01*
X82396960Y-101905065D01*
X82429565Y-101843270D01*
X82445605Y-101829372D01*
X82481638Y-101803191D01*
X82481639Y-101803191D01*
X81928008Y-101249560D01*
X81992785Y-101222729D01*
X82096789Y-101153236D01*
X82185236Y-101064789D01*
X82254729Y-100960785D01*
X82281560Y-100896008D01*
X82835191Y-101449639D01*
X82835191Y-101449638D01*
X82879978Y-101387995D01*
X82979237Y-101193191D01*
X82979238Y-101193188D01*
X83046797Y-100985259D01*
X83081000Y-100769316D01*
X83081000Y-100550683D01*
X83046797Y-100334740D01*
X82979238Y-100126811D01*
X82979237Y-100126808D01*
X82879980Y-99932008D01*
X82835191Y-99870360D01*
X82281560Y-100423991D01*
X82254729Y-100359215D01*
X82185236Y-100255211D01*
X82096789Y-100166764D01*
X81992785Y-100097271D01*
X81928006Y-100070438D01*
X82481638Y-99516807D01*
X82481638Y-99516806D01*
X82419995Y-99472021D01*
X82419993Y-99472020D01*
X82225191Y-99372762D01*
X82225188Y-99372761D01*
X82017259Y-99305202D01*
X81801316Y-99271000D01*
X81582684Y-99271000D01*
X81366740Y-99305202D01*
X81158811Y-99372761D01*
X81158808Y-99372762D01*
X80964001Y-99472023D01*
X80902360Y-99516806D01*
X80902360Y-99516807D01*
X81455992Y-100070439D01*
X81391215Y-100097271D01*
X81287211Y-100166764D01*
X81198764Y-100255211D01*
X81129271Y-100359215D01*
X81102439Y-100423992D01*
X80548807Y-99870360D01*
X80548806Y-99870360D01*
X80504023Y-99932001D01*
X80404762Y-100126808D01*
X80404761Y-100126811D01*
X80337202Y-100334740D01*
X80303000Y-100550683D01*
X80303000Y-100769316D01*
X80337202Y-100985259D01*
X80404761Y-101193188D01*
X80404762Y-101193191D01*
X80504020Y-101387993D01*
X80504021Y-101387995D01*
X80548806Y-101449638D01*
X80548807Y-101449638D01*
X81102438Y-100896006D01*
X81129271Y-100960785D01*
X81198764Y-101064789D01*
X81287211Y-101153236D01*
X81391215Y-101222729D01*
X81455991Y-101249560D01*
X80902360Y-101803191D01*
X80902360Y-101803192D01*
X80938394Y-101829372D01*
X80981060Y-101884701D01*
X80987039Y-101954315D01*
X80954434Y-102016110D01*
X80938394Y-102030008D01*
X80786807Y-102140142D01*
X80786802Y-102140146D01*
X80632142Y-102294806D01*
X80503595Y-102471739D01*
X80404298Y-102666616D01*
X80404297Y-102666619D01*
X80336714Y-102874623D01*
X80302500Y-103090638D01*
X80302500Y-103309361D01*
X80325821Y-103456602D01*
X80316867Y-103525895D01*
X80271870Y-103579347D01*
X80205119Y-103599987D01*
X80203348Y-103600000D01*
X79378601Y-103600000D01*
X79311562Y-103580315D01*
X79265807Y-103527511D01*
X79254601Y-103476000D01*
X79254601Y-89980666D01*
X87591500Y-89980666D01*
X87591500Y-90179333D01*
X87630254Y-90374161D01*
X87630256Y-90374169D01*
X87706277Y-90557701D01*
X87706282Y-90557710D01*
X87816646Y-90722880D01*
X87816649Y-90722884D01*
X87957115Y-90863350D01*
X87957119Y-90863353D01*
X88122289Y-90973717D01*
X88122295Y-90973720D01*
X88122296Y-90973721D01*
X88305831Y-91049744D01*
X88500666Y-91088499D01*
X88500670Y-91088500D01*
X88500671Y-91088500D01*
X88699330Y-91088500D01*
X88699331Y-91088499D01*
X88894169Y-91049744D01*
X89077704Y-90973721D01*
X89242881Y-90863353D01*
X89383353Y-90722881D01*
X89493721Y-90557704D01*
X89569744Y-90374169D01*
X89608500Y-90179329D01*
X89608500Y-89980671D01*
X89569744Y-89785831D01*
X89493721Y-89602296D01*
X89493720Y-89602295D01*
X89493717Y-89602289D01*
X89383353Y-89437119D01*
X89383350Y-89437115D01*
X89242884Y-89296649D01*
X89242880Y-89296646D01*
X89077710Y-89186282D01*
X89077701Y-89186277D01*
X88894169Y-89110256D01*
X88894161Y-89110254D01*
X88699333Y-89071500D01*
X88699329Y-89071500D01*
X88500671Y-89071500D01*
X88500666Y-89071500D01*
X88305838Y-89110254D01*
X88305830Y-89110256D01*
X88122298Y-89186277D01*
X88122289Y-89186282D01*
X87957119Y-89296646D01*
X87957115Y-89296649D01*
X87816649Y-89437115D01*
X87816646Y-89437119D01*
X87706282Y-89602289D01*
X87706277Y-89602298D01*
X87630256Y-89785830D01*
X87630254Y-89785838D01*
X87591500Y-89980666D01*
X79254601Y-89980666D01*
X79254601Y-84444135D01*
X87591500Y-84444135D01*
X87591500Y-85555870D01*
X87591501Y-85555876D01*
X87597908Y-85615483D01*
X87648202Y-85750328D01*
X87648206Y-85750335D01*
X87734452Y-85865544D01*
X87734455Y-85865547D01*
X87849664Y-85951793D01*
X87849671Y-85951797D01*
X87894618Y-85968561D01*
X87984517Y-86002091D01*
X88044127Y-86008500D01*
X88707902Y-86008499D01*
X88774941Y-86028183D01*
X88795583Y-86044818D01*
X89182048Y-86431283D01*
X89215533Y-86492606D01*
X89210549Y-86562298D01*
X89168677Y-86618231D01*
X89103213Y-86642648D01*
X89046914Y-86633525D01*
X88894169Y-86570256D01*
X88894161Y-86570254D01*
X88699333Y-86531500D01*
X88699329Y-86531500D01*
X88500671Y-86531500D01*
X88500666Y-86531500D01*
X88305838Y-86570254D01*
X88305830Y-86570256D01*
X88122298Y-86646277D01*
X88122289Y-86646282D01*
X87957119Y-86756646D01*
X87957115Y-86756649D01*
X87816649Y-86897115D01*
X87816646Y-86897119D01*
X87706282Y-87062289D01*
X87706277Y-87062298D01*
X87630256Y-87245830D01*
X87630254Y-87245838D01*
X87591500Y-87440666D01*
X87591500Y-87639333D01*
X87630254Y-87834161D01*
X87630256Y-87834169D01*
X87706277Y-88017701D01*
X87706282Y-88017710D01*
X87816646Y-88182880D01*
X87816649Y-88182884D01*
X87957115Y-88323350D01*
X87957119Y-88323353D01*
X88122289Y-88433717D01*
X88122295Y-88433720D01*
X88122296Y-88433721D01*
X88305831Y-88509744D01*
X88495644Y-88547500D01*
X88500666Y-88548499D01*
X88500670Y-88548500D01*
X88500671Y-88548500D01*
X88699330Y-88548500D01*
X88699331Y-88548499D01*
X88894169Y-88509744D01*
X89077704Y-88433721D01*
X89242881Y-88323353D01*
X89383353Y-88182881D01*
X89493721Y-88017704D01*
X89569744Y-87834169D01*
X89608500Y-87639329D01*
X89608500Y-87440671D01*
X89569744Y-87245831D01*
X89506473Y-87093084D01*
X89499005Y-87023616D01*
X89530280Y-86961136D01*
X89590369Y-86925484D01*
X89660194Y-86927978D01*
X89708716Y-86957951D01*
X98753181Y-96002416D01*
X98767884Y-96029343D01*
X98784477Y-96055162D01*
X98785368Y-96061362D01*
X98786666Y-96063739D01*
X98789500Y-96090097D01*
X98789500Y-96170397D01*
X98769815Y-96237436D01*
X98721800Y-96280879D01*
X98708389Y-96287712D01*
X98542786Y-96408028D01*
X98398028Y-96552786D01*
X98277715Y-96718386D01*
X98184781Y-96900776D01*
X98121522Y-97095465D01*
X98089500Y-97297648D01*
X98089500Y-97502351D01*
X98121522Y-97704534D01*
X98184781Y-97899223D01*
X98277715Y-98081613D01*
X98398028Y-98247213D01*
X98542786Y-98391971D01*
X98648090Y-98468477D01*
X98708390Y-98512287D01*
X98801080Y-98559515D01*
X98890776Y-98605218D01*
X98890778Y-98605218D01*
X98890781Y-98605220D01*
X98995137Y-98639127D01*
X99085465Y-98668477D01*
X99104697Y-98671523D01*
X99287648Y-98700500D01*
X99287649Y-98700500D01*
X99492351Y-98700500D01*
X99492352Y-98700500D01*
X99694534Y-98668477D01*
X99889219Y-98605220D01*
X100071610Y-98512287D01*
X100164590Y-98444732D01*
X100237213Y-98391971D01*
X100237215Y-98391968D01*
X100237219Y-98391966D01*
X100381966Y-98247219D01*
X100381968Y-98247215D01*
X100381971Y-98247213D01*
X100434732Y-98174590D01*
X100502287Y-98081610D01*
X100595220Y-97899219D01*
X100658477Y-97704534D01*
X100690500Y-97502352D01*
X100690500Y-97297648D01*
X100658477Y-97095466D01*
X100595220Y-96900781D01*
X100595218Y-96900778D01*
X100595218Y-96900776D01*
X100548484Y-96809057D01*
X100502287Y-96718390D01*
X100489490Y-96700776D01*
X100381971Y-96552786D01*
X100237213Y-96408028D01*
X100071610Y-96287712D01*
X100058200Y-96280879D01*
X100007406Y-96232903D01*
X99990500Y-96170397D01*
X99990500Y-95710945D01*
X99990500Y-95710943D01*
X99949577Y-95558216D01*
X99949573Y-95558209D01*
X99870524Y-95421290D01*
X99870521Y-95421286D01*
X99870520Y-95421284D01*
X99758716Y-95309480D01*
X99758715Y-95309479D01*
X99754385Y-95305149D01*
X99754374Y-95305139D01*
X89644818Y-85195583D01*
X89611333Y-85134260D01*
X89608499Y-85107902D01*
X89608499Y-84444129D01*
X89608498Y-84444123D01*
X89608497Y-84444116D01*
X89602091Y-84384517D01*
X89551796Y-84249669D01*
X89551795Y-84249668D01*
X89551793Y-84249664D01*
X89465547Y-84134455D01*
X89465544Y-84134452D01*
X89350335Y-84048206D01*
X89350328Y-84048202D01*
X89215482Y-83997908D01*
X89215483Y-83997908D01*
X89155883Y-83991501D01*
X89155881Y-83991500D01*
X89155873Y-83991500D01*
X89155864Y-83991500D01*
X88044129Y-83991500D01*
X88044123Y-83991501D01*
X87984516Y-83997908D01*
X87849671Y-84048202D01*
X87849664Y-84048206D01*
X87734455Y-84134452D01*
X87734452Y-84134455D01*
X87648206Y-84249664D01*
X87648202Y-84249671D01*
X87597908Y-84384517D01*
X87591501Y-84444116D01*
X87591501Y-84444123D01*
X87591500Y-84444135D01*
X79254601Y-84444135D01*
X79254601Y-82090678D01*
X101328000Y-82090678D01*
X101328000Y-82289321D01*
X101359075Y-82485520D01*
X101359075Y-82485523D01*
X101420457Y-82674437D01*
X101510641Y-82851432D01*
X101537730Y-82888715D01*
X101537731Y-82888716D01*
X102183600Y-82242847D01*
X102183600Y-82243504D01*
X102211295Y-82346865D01*
X102264799Y-82439536D01*
X102340464Y-82515201D01*
X102433135Y-82568705D01*
X102536496Y-82596400D01*
X102537153Y-82596400D01*
X101891283Y-83242268D01*
X101891283Y-83242269D01*
X101928567Y-83269358D01*
X102105562Y-83359542D01*
X102294477Y-83420924D01*
X102490679Y-83452000D01*
X102689321Y-83452000D01*
X102885520Y-83420924D01*
X102885523Y-83420924D01*
X103074437Y-83359542D01*
X103251425Y-83269362D01*
X103288716Y-83242268D01*
X102642848Y-82596400D01*
X102643504Y-82596400D01*
X102746865Y-82568705D01*
X102839536Y-82515201D01*
X102915201Y-82439536D01*
X102968705Y-82346865D01*
X102996400Y-82243504D01*
X102996400Y-82242847D01*
X103642268Y-82888715D01*
X103669364Y-82851422D01*
X103749234Y-82694669D01*
X103797208Y-82643872D01*
X103865029Y-82627077D01*
X103931164Y-82649614D01*
X103970203Y-82694667D01*
X104050213Y-82851694D01*
X104167019Y-83012464D01*
X104307536Y-83152981D01*
X104468306Y-83269787D01*
X104555149Y-83314035D01*
X104645367Y-83360005D01*
X104645370Y-83360006D01*
X104739866Y-83390709D01*
X104834364Y-83421413D01*
X105030639Y-83452500D01*
X105030640Y-83452500D01*
X105229360Y-83452500D01*
X105229361Y-83452500D01*
X105425636Y-83421413D01*
X105425646Y-83421409D01*
X105427891Y-83420871D01*
X105428778Y-83420915D01*
X105430448Y-83420651D01*
X105430503Y-83421001D01*
X105497674Y-83424357D01*
X105544527Y-83453762D01*
X108265139Y-86174374D01*
X108265149Y-86174385D01*
X108269479Y-86178715D01*
X108269480Y-86178716D01*
X108381284Y-86290520D01*
X108468095Y-86340639D01*
X108468097Y-86340641D01*
X108506151Y-86362611D01*
X108518215Y-86369577D01*
X108670943Y-86410500D01*
X115865500Y-86410500D01*
X115932539Y-86430185D01*
X115978294Y-86482989D01*
X115989500Y-86534500D01*
X115989500Y-95970397D01*
X115969815Y-96037436D01*
X115921800Y-96080879D01*
X115908389Y-96087712D01*
X115742786Y-96208028D01*
X115598028Y-96352786D01*
X115477715Y-96518386D01*
X115384781Y-96700776D01*
X115321522Y-96895465D01*
X115289500Y-97097648D01*
X115289500Y-97302351D01*
X115321522Y-97504534D01*
X115384781Y-97699223D01*
X115430366Y-97788687D01*
X115473320Y-97872989D01*
X115477715Y-97881613D01*
X115598028Y-98047213D01*
X115742786Y-98191971D01*
X115897749Y-98304556D01*
X115908390Y-98312287D01*
X116024607Y-98371503D01*
X116090776Y-98405218D01*
X116090778Y-98405218D01*
X116090781Y-98405220D01*
X116195137Y-98439127D01*
X116285465Y-98468477D01*
X116386557Y-98484488D01*
X116487648Y-98500500D01*
X116487649Y-98500500D01*
X116692351Y-98500500D01*
X116692352Y-98500500D01*
X116894534Y-98468477D01*
X117089219Y-98405220D01*
X117271610Y-98312287D01*
X117364590Y-98244732D01*
X117437213Y-98191971D01*
X117437215Y-98191968D01*
X117437219Y-98191966D01*
X117581966Y-98047219D01*
X117581968Y-98047215D01*
X117581971Y-98047213D01*
X117634732Y-97974590D01*
X117702287Y-97881610D01*
X117795220Y-97699219D01*
X117858477Y-97504534D01*
X117890500Y-97302352D01*
X117890500Y-97097648D01*
X122909500Y-97097648D01*
X122909500Y-97302351D01*
X122941522Y-97504534D01*
X123004781Y-97699223D01*
X123050366Y-97788687D01*
X123093320Y-97872989D01*
X123097715Y-97881613D01*
X123218028Y-98047213D01*
X123362786Y-98191971D01*
X123517749Y-98304556D01*
X123528390Y-98312287D01*
X123644607Y-98371503D01*
X123710776Y-98405218D01*
X123710778Y-98405218D01*
X123710781Y-98405220D01*
X123815137Y-98439127D01*
X123905465Y-98468477D01*
X124006557Y-98484488D01*
X124107648Y-98500500D01*
X124107649Y-98500500D01*
X124312351Y-98500500D01*
X124312352Y-98500500D01*
X124514534Y-98468477D01*
X124709219Y-98405220D01*
X124891610Y-98312287D01*
X124984590Y-98244732D01*
X125057213Y-98191971D01*
X125057215Y-98191968D01*
X125057219Y-98191966D01*
X125201966Y-98047219D01*
X125201968Y-98047215D01*
X125201971Y-98047213D01*
X125306913Y-97902770D01*
X125322287Y-97881610D01*
X125329117Y-97868204D01*
X125377091Y-97817409D01*
X125439602Y-97800500D01*
X128720943Y-97800500D01*
X131472613Y-97800500D01*
X131539652Y-97820185D01*
X131585407Y-97872989D01*
X131590543Y-97886180D01*
X131594779Y-97899219D01*
X131687715Y-98081613D01*
X131808028Y-98247213D01*
X131952786Y-98391971D01*
X132058090Y-98468477D01*
X132118390Y-98512287D01*
X132209840Y-98558883D01*
X132211080Y-98559515D01*
X132261876Y-98607490D01*
X132278671Y-98675311D01*
X132256134Y-98741446D01*
X132211080Y-98780485D01*
X132118386Y-98827715D01*
X131952786Y-98948028D01*
X131808028Y-99092786D01*
X131687715Y-99258386D01*
X131594781Y-99440776D01*
X131531522Y-99635465D01*
X131499500Y-99837648D01*
X131499500Y-100042351D01*
X131531522Y-100244534D01*
X131594781Y-100439223D01*
X131687715Y-100621613D01*
X131808028Y-100787213D01*
X131952786Y-100931971D01*
X132107749Y-101044556D01*
X132118390Y-101052287D01*
X132234607Y-101111503D01*
X132300776Y-101145218D01*
X132300778Y-101145218D01*
X132300781Y-101145220D01*
X132405137Y-101179127D01*
X132495465Y-101208477D01*
X132585448Y-101222729D01*
X132697648Y-101240500D01*
X132697649Y-101240500D01*
X132902351Y-101240500D01*
X132902352Y-101240500D01*
X133104534Y-101208477D01*
X133299219Y-101145220D01*
X133481610Y-101052287D01*
X133607553Y-100960785D01*
X133647213Y-100931971D01*
X133647215Y-100931968D01*
X133647219Y-100931966D01*
X133791966Y-100787219D01*
X133791968Y-100787215D01*
X133791971Y-100787213D01*
X133844732Y-100714590D01*
X133912287Y-100621610D01*
X134005220Y-100439219D01*
X134068477Y-100244534D01*
X134100500Y-100042352D01*
X134100500Y-99837648D01*
X134068477Y-99635466D01*
X134005220Y-99440781D01*
X134005218Y-99440778D01*
X134005218Y-99440776D01*
X133970562Y-99372761D01*
X133912287Y-99258390D01*
X133904556Y-99247749D01*
X133791971Y-99092786D01*
X133647213Y-98948028D01*
X133481614Y-98827715D01*
X133475006Y-98824348D01*
X133388917Y-98780483D01*
X133338123Y-98732511D01*
X133321328Y-98664690D01*
X133343865Y-98598555D01*
X133388917Y-98559516D01*
X133481610Y-98512287D01*
X133541910Y-98468477D01*
X133647213Y-98391971D01*
X133647215Y-98391968D01*
X133647219Y-98391966D01*
X133791966Y-98247219D01*
X133791968Y-98247215D01*
X133791971Y-98247213D01*
X133844732Y-98174590D01*
X133912287Y-98081610D01*
X134005220Y-97899219D01*
X134068477Y-97704534D01*
X134100500Y-97502352D01*
X134100500Y-97297648D01*
X134068477Y-97095466D01*
X134005220Y-96900781D01*
X134005218Y-96900778D01*
X134005218Y-96900776D01*
X133958484Y-96809057D01*
X133912287Y-96718390D01*
X133899490Y-96700776D01*
X133791971Y-96552786D01*
X133647217Y-96408032D01*
X133647212Y-96408028D01*
X133553051Y-96339616D01*
X133510385Y-96284286D01*
X133504406Y-96214673D01*
X133537012Y-96152878D01*
X133586933Y-96121592D01*
X133669117Y-96094359D01*
X133669124Y-96094356D01*
X133818345Y-96002315D01*
X133942315Y-95878345D01*
X134034356Y-95729124D01*
X134034358Y-95729119D01*
X134089505Y-95562697D01*
X134089506Y-95562690D01*
X134099999Y-95459986D01*
X134100000Y-95459973D01*
X134100000Y-95110000D01*
X133115686Y-95110000D01*
X133120080Y-95105606D01*
X133172741Y-95014394D01*
X133200000Y-94912661D01*
X133200000Y-94807339D01*
X133172741Y-94705606D01*
X133120080Y-94614394D01*
X133115686Y-94610000D01*
X134099999Y-94610000D01*
X134099999Y-94260028D01*
X134099998Y-94260013D01*
X134089505Y-94157302D01*
X134034358Y-93990880D01*
X134034356Y-93990875D01*
X133942315Y-93841654D01*
X133818345Y-93717684D01*
X133669124Y-93625643D01*
X133669119Y-93625641D01*
X133502697Y-93570494D01*
X133502690Y-93570493D01*
X133399986Y-93560000D01*
X133050000Y-93560000D01*
X133050000Y-94544314D01*
X133045606Y-94539920D01*
X132954394Y-94487259D01*
X132852661Y-94460000D01*
X132747339Y-94460000D01*
X132645606Y-94487259D01*
X132554394Y-94539920D01*
X132550000Y-94544314D01*
X132550000Y-93560000D01*
X132200028Y-93560000D01*
X132200012Y-93560001D01*
X132097302Y-93570494D01*
X131930880Y-93625641D01*
X131930875Y-93625643D01*
X131781654Y-93717684D01*
X131657684Y-93841654D01*
X131565643Y-93990875D01*
X131565641Y-93990880D01*
X131510494Y-94157302D01*
X131510493Y-94157309D01*
X131500000Y-94260013D01*
X131500000Y-94610000D01*
X132484314Y-94610000D01*
X132479920Y-94614394D01*
X132427259Y-94705606D01*
X132400000Y-94807339D01*
X132400000Y-94912661D01*
X132427259Y-95014394D01*
X132479920Y-95105606D01*
X132484314Y-95110000D01*
X131500001Y-95110000D01*
X131500001Y-95459986D01*
X131510494Y-95562697D01*
X131565641Y-95729119D01*
X131565643Y-95729124D01*
X131657684Y-95878345D01*
X131781654Y-96002315D01*
X131930875Y-96094356D01*
X131930882Y-96094359D01*
X132013067Y-96121592D01*
X132070512Y-96161364D01*
X132097336Y-96225880D01*
X132085021Y-96294656D01*
X132046949Y-96339616D01*
X131952787Y-96408028D01*
X131952782Y-96408032D01*
X131808035Y-96552779D01*
X131805252Y-96556038D01*
X131746742Y-96594227D01*
X131710967Y-96599500D01*
X129524500Y-96599500D01*
X129457461Y-96579815D01*
X129411706Y-96527011D01*
X129400500Y-96475500D01*
X129400500Y-82900097D01*
X129409143Y-82870660D01*
X129415667Y-82840671D01*
X129419422Y-82835654D01*
X129420185Y-82833058D01*
X129436818Y-82812417D01*
X129445734Y-82803501D01*
X129487334Y-82761900D01*
X129548655Y-82728416D01*
X129618346Y-82733400D01*
X129622436Y-82735008D01*
X129787793Y-82803502D01*
X130028435Y-82867982D01*
X130275435Y-82900500D01*
X130275442Y-82900500D01*
X130524558Y-82900500D01*
X130524565Y-82900500D01*
X130771565Y-82867982D01*
X131012207Y-82803502D01*
X131242373Y-82708164D01*
X131458127Y-82583599D01*
X131655776Y-82431938D01*
X131831938Y-82255776D01*
X131983599Y-82058127D01*
X132108164Y-81842373D01*
X132203502Y-81612207D01*
X132267982Y-81371565D01*
X132300500Y-81124565D01*
X132300500Y-80875435D01*
X132267982Y-80628435D01*
X132203502Y-80387793D01*
X132108164Y-80157627D01*
X131983599Y-79941873D01*
X131831938Y-79744224D01*
X131831933Y-79744218D01*
X131655781Y-79568066D01*
X131655774Y-79568060D01*
X131458126Y-79416400D01*
X131242376Y-79291837D01*
X131242361Y-79291830D01*
X131012207Y-79196498D01*
X130771561Y-79132017D01*
X130524575Y-79099501D01*
X130524570Y-79099500D01*
X130524565Y-79099500D01*
X130275435Y-79099500D01*
X130275429Y-79099500D01*
X130275424Y-79099501D01*
X130028438Y-79132017D01*
X129787792Y-79196498D01*
X129557638Y-79291830D01*
X129557623Y-79291837D01*
X129341873Y-79416400D01*
X129144225Y-79568060D01*
X129144218Y-79568066D01*
X128968066Y-79744218D01*
X128968060Y-79744225D01*
X128816400Y-79941873D01*
X128691837Y-80157623D01*
X128691830Y-80157638D01*
X128596498Y-80387792D01*
X128532017Y-80628438D01*
X128499501Y-80875424D01*
X128499500Y-80875441D01*
X128499500Y-81124558D01*
X128499501Y-81124575D01*
X128532017Y-81371561D01*
X128596498Y-81612207D01*
X128664977Y-81777532D01*
X128672446Y-81847001D01*
X128641170Y-81909480D01*
X128638098Y-81912665D01*
X128431286Y-82119478D01*
X128319481Y-82231282D01*
X128319479Y-82231285D01*
X128294420Y-82274689D01*
X128279519Y-82300500D01*
X128269361Y-82318094D01*
X128269359Y-82318096D01*
X128240425Y-82368209D01*
X128240424Y-82368210D01*
X128240423Y-82368215D01*
X128199499Y-82520943D01*
X128199499Y-82520945D01*
X128199499Y-82689046D01*
X128199500Y-82689059D01*
X128199500Y-96475500D01*
X128179815Y-96542539D01*
X128127011Y-96588294D01*
X128075500Y-96599500D01*
X125439602Y-96599500D01*
X125372563Y-96579815D01*
X125329117Y-96531795D01*
X125322287Y-96518390D01*
X125322285Y-96518387D01*
X125322284Y-96518385D01*
X125201971Y-96352786D01*
X125057213Y-96208028D01*
X124891613Y-96087715D01*
X124891612Y-96087714D01*
X124891610Y-96087713D01*
X124827725Y-96055162D01*
X124709223Y-95994781D01*
X124514534Y-95931522D01*
X124339995Y-95903878D01*
X124312352Y-95899500D01*
X124107648Y-95899500D01*
X124083329Y-95903351D01*
X123905465Y-95931522D01*
X123710776Y-95994781D01*
X123528386Y-96087715D01*
X123362786Y-96208028D01*
X123218028Y-96352786D01*
X123097715Y-96518386D01*
X123004781Y-96700776D01*
X122941522Y-96895465D01*
X122909500Y-97097648D01*
X117890500Y-97097648D01*
X117867521Y-96952568D01*
X117858477Y-96895465D01*
X117829127Y-96805137D01*
X117795220Y-96700781D01*
X117795218Y-96700778D01*
X117795218Y-96700776D01*
X117761503Y-96634607D01*
X117702287Y-96518390D01*
X117671126Y-96475500D01*
X117581971Y-96352786D01*
X117437213Y-96208028D01*
X117271610Y-96087712D01*
X117258200Y-96080879D01*
X117207406Y-96032903D01*
X117190500Y-95970397D01*
X117190500Y-86110096D01*
X117210185Y-86043057D01*
X117226814Y-86022420D01*
X121087334Y-82161899D01*
X121148655Y-82128416D01*
X121218347Y-82133400D01*
X121222455Y-82135016D01*
X121387793Y-82203502D01*
X121628435Y-82267982D01*
X121875435Y-82300500D01*
X121875442Y-82300500D01*
X122124558Y-82300500D01*
X122124565Y-82300500D01*
X122371565Y-82267982D01*
X122612207Y-82203502D01*
X122842373Y-82108164D01*
X123058127Y-81983599D01*
X123255776Y-81831938D01*
X123431938Y-81655776D01*
X123583599Y-81458127D01*
X123708164Y-81242373D01*
X123803502Y-81012207D01*
X123867982Y-80771565D01*
X123900500Y-80524565D01*
X123900500Y-80275435D01*
X123867982Y-80028435D01*
X123803502Y-79787793D01*
X123712488Y-79568066D01*
X123708169Y-79557638D01*
X123708162Y-79557623D01*
X123583599Y-79341873D01*
X123431939Y-79144225D01*
X123431933Y-79144218D01*
X123255781Y-78968066D01*
X123255774Y-78968060D01*
X123058126Y-78816400D01*
X122842376Y-78691837D01*
X122842361Y-78691830D01*
X122612207Y-78596498D01*
X122371561Y-78532017D01*
X122124575Y-78499501D01*
X122124570Y-78499500D01*
X122124565Y-78499500D01*
X121875435Y-78499500D01*
X121875429Y-78499500D01*
X121875424Y-78499501D01*
X121628438Y-78532017D01*
X121387792Y-78596498D01*
X121157638Y-78691830D01*
X121157623Y-78691837D01*
X120941873Y-78816400D01*
X120744225Y-78968060D01*
X120744218Y-78968066D01*
X120568066Y-79144218D01*
X120568060Y-79144225D01*
X120416400Y-79341873D01*
X120291837Y-79557623D01*
X120291830Y-79557638D01*
X120196498Y-79787792D01*
X120132017Y-80028438D01*
X120099501Y-80275424D01*
X120099500Y-80275441D01*
X120099500Y-80524558D01*
X120099501Y-80524575D01*
X120132017Y-80771561D01*
X120182130Y-80958587D01*
X120196498Y-81012207D01*
X120248491Y-81137730D01*
X120264978Y-81177531D01*
X120272447Y-81247001D01*
X120241172Y-81309480D01*
X120238098Y-81312665D01*
X116377584Y-85173181D01*
X116316261Y-85206666D01*
X116289903Y-85209500D01*
X109050097Y-85209500D01*
X108983058Y-85189815D01*
X108962416Y-85173181D01*
X107449090Y-83659855D01*
X107415605Y-83598532D01*
X107420589Y-83528840D01*
X107462461Y-83472907D01*
X107527925Y-83448490D01*
X107556174Y-83449701D01*
X107570685Y-83452000D01*
X107769321Y-83452000D01*
X107965520Y-83420924D01*
X107965523Y-83420924D01*
X108154437Y-83359542D01*
X108331425Y-83269362D01*
X108368715Y-83242268D01*
X107722846Y-82596400D01*
X107723504Y-82596400D01*
X107826865Y-82568705D01*
X107919536Y-82515201D01*
X107995201Y-82439536D01*
X108048705Y-82346865D01*
X108076400Y-82243504D01*
X108076400Y-82242847D01*
X108722268Y-82888715D01*
X108749364Y-82851422D01*
X108829234Y-82694669D01*
X108877208Y-82643872D01*
X108945029Y-82627077D01*
X109011164Y-82649614D01*
X109050203Y-82694667D01*
X109130213Y-82851694D01*
X109247019Y-83012464D01*
X109387536Y-83152981D01*
X109548306Y-83269787D01*
X109635149Y-83314035D01*
X109725367Y-83360005D01*
X109725370Y-83360006D01*
X109819866Y-83390709D01*
X109914364Y-83421413D01*
X110110639Y-83452500D01*
X110110640Y-83452500D01*
X110309360Y-83452500D01*
X110309361Y-83452500D01*
X110505636Y-83421413D01*
X110694632Y-83360005D01*
X110871694Y-83269787D01*
X111032464Y-83152981D01*
X111172981Y-83012464D01*
X111289787Y-82851694D01*
X111380005Y-82674632D01*
X111441413Y-82485636D01*
X111472500Y-82289361D01*
X111472500Y-82090639D01*
X111441413Y-81894364D01*
X111380005Y-81705368D01*
X111380005Y-81705367D01*
X111332537Y-81612207D01*
X111289787Y-81528306D01*
X111172981Y-81367536D01*
X111032464Y-81227019D01*
X110871694Y-81110213D01*
X110694632Y-81019994D01*
X110694629Y-81019993D01*
X110505637Y-80958587D01*
X110407498Y-80943043D01*
X110309361Y-80927500D01*
X110110639Y-80927500D01*
X110045214Y-80937862D01*
X109914362Y-80958587D01*
X109725370Y-81019993D01*
X109725367Y-81019994D01*
X109548305Y-81110213D01*
X109387533Y-81227021D01*
X109247021Y-81367533D01*
X109130213Y-81528305D01*
X109050204Y-81685331D01*
X109002229Y-81736127D01*
X108934408Y-81752922D01*
X108868273Y-81730384D01*
X108829234Y-81685331D01*
X108749358Y-81528567D01*
X108722268Y-81491283D01*
X108076400Y-82137151D01*
X108076400Y-82136496D01*
X108048705Y-82033135D01*
X107995201Y-81940464D01*
X107919536Y-81864799D01*
X107826865Y-81811295D01*
X107723504Y-81783600D01*
X107722847Y-81783600D01*
X108368716Y-81137731D01*
X108368715Y-81137730D01*
X108331432Y-81110641D01*
X108154437Y-81020457D01*
X107965522Y-80959075D01*
X107769321Y-80928000D01*
X107570679Y-80928000D01*
X107374479Y-80959075D01*
X107374476Y-80959075D01*
X107185562Y-81020457D01*
X107008564Y-81110643D01*
X106971283Y-81137729D01*
X106971282Y-81137730D01*
X107617154Y-81783600D01*
X107616496Y-81783600D01*
X107513135Y-81811295D01*
X107420464Y-81864799D01*
X107344799Y-81940464D01*
X107291295Y-82033135D01*
X107263600Y-82136496D01*
X107263600Y-82137153D01*
X106617730Y-81491282D01*
X106617729Y-81491283D01*
X106590641Y-81528566D01*
X106510764Y-81685332D01*
X106462790Y-81736127D01*
X106394969Y-81752922D01*
X106328834Y-81730384D01*
X106289796Y-81685332D01*
X106209787Y-81528306D01*
X106092981Y-81367536D01*
X105952464Y-81227019D01*
X105791694Y-81110213D01*
X105614632Y-81019994D01*
X105614629Y-81019993D01*
X105425637Y-80958587D01*
X105327498Y-80943043D01*
X105229361Y-80927500D01*
X105030639Y-80927500D01*
X104965214Y-80937862D01*
X104834362Y-80958587D01*
X104645370Y-81019993D01*
X104645367Y-81019994D01*
X104468305Y-81110213D01*
X104307533Y-81227021D01*
X104167021Y-81367533D01*
X104050213Y-81528305D01*
X103970204Y-81685331D01*
X103922229Y-81736127D01*
X103854408Y-81752922D01*
X103788273Y-81730384D01*
X103749234Y-81685331D01*
X103669358Y-81528567D01*
X103642268Y-81491283D01*
X102996400Y-82137151D01*
X102996400Y-82136496D01*
X102968705Y-82033135D01*
X102915201Y-81940464D01*
X102839536Y-81864799D01*
X102746865Y-81811295D01*
X102643504Y-81783600D01*
X102642847Y-81783600D01*
X103288716Y-81137731D01*
X103288715Y-81137730D01*
X103251432Y-81110641D01*
X103074437Y-81020457D01*
X102885522Y-80959075D01*
X102689321Y-80928000D01*
X102490679Y-80928000D01*
X102294479Y-80959075D01*
X102294476Y-80959075D01*
X102105562Y-81020457D01*
X101928564Y-81110643D01*
X101891283Y-81137729D01*
X101891282Y-81137730D01*
X102537154Y-81783600D01*
X102536496Y-81783600D01*
X102433135Y-81811295D01*
X102340464Y-81864799D01*
X102264799Y-81940464D01*
X102211295Y-82033135D01*
X102183600Y-82136496D01*
X102183600Y-82137152D01*
X101537730Y-81491282D01*
X101537729Y-81491283D01*
X101510643Y-81528564D01*
X101420457Y-81705562D01*
X101359075Y-81894476D01*
X101359075Y-81894479D01*
X101328000Y-82090678D01*
X79254601Y-82090678D01*
X79254601Y-76524000D01*
X79274286Y-76456961D01*
X79327090Y-76411206D01*
X79378601Y-76400000D01*
X134876000Y-76400000D01*
X134943039Y-76419685D01*
G37*
%TD.AperFunction*%
%TD*%
M02*
