%TF.GenerationSoftware,Altium Limited,Altium Designer,25.2.1 (25)*%
G04 Layer_Color=65535*
%FSLAX45Y45*%
%MOMM*%
%TF.SameCoordinates,EB21593C-EBE9-4C46-B465-0E1A71836AD5*%
%TF.FilePolarity,Positive*%
%TF.FileFunction,Legend,Top*%
%TF.Part,Single*%
G01*
G75*
%TA.AperFunction,NonConductor*%
%ADD22C,0.25000*%
%ADD23C,0.50000*%
%ADD24C,0.12700*%
%ADD25C,0.20000*%
%ADD26C,0.15240*%
%ADD27C,0.25400*%
G36*
X10617755Y9108897D02*
X10619509D01*
Y9103635D01*
X10614247D01*
Y9107143D01*
X10610739D01*
Y9108897D01*
X10607231D01*
Y9107143D01*
X10603723D01*
Y9103635D01*
X10605477D01*
Y9101881D01*
X10608985D01*
Y9100127D01*
X10616001D01*
Y9098373D01*
X10619509D01*
Y9094865D01*
X10621263D01*
Y9087849D01*
X10619509D01*
Y9084341D01*
X10617755D01*
Y9082587D01*
X10616001D01*
Y9080833D01*
X10614247D01*
Y9079079D01*
X10610739D01*
Y9077325D01*
X10598461D01*
Y9075571D01*
X10594953D01*
Y9080833D01*
X10593199D01*
Y9087849D01*
X10598461D01*
Y9086095D01*
X10600215D01*
Y9084341D01*
X10601969D01*
Y9082587D01*
X10608985D01*
Y9084341D01*
X10610739D01*
Y9087849D01*
X10608985D01*
Y9089603D01*
X10603723D01*
Y9091357D01*
X10598461D01*
Y9093111D01*
X10594953D01*
Y9096619D01*
X10593199D01*
Y9101881D01*
X10594953D01*
Y9105389D01*
X10596707D01*
Y9108897D01*
X10600215D01*
Y9110651D01*
X10601969D01*
Y9112405D01*
X10614247D01*
Y9114160D01*
X10617755D01*
Y9108897D01*
D02*
G37*
G36*
X10589691Y9107143D02*
X10591445D01*
Y9100127D01*
X10589691D01*
Y9096619D01*
X10587937D01*
Y9094865D01*
X10586183D01*
Y9093111D01*
X10582675D01*
Y9096619D01*
X10584429D01*
Y9100127D01*
X10582675D01*
Y9101881D01*
X10580920D01*
Y9105389D01*
X10582675D01*
Y9108897D01*
X10589691D01*
Y9107143D01*
D02*
G37*
G36*
X10542332Y9094865D02*
X10540578D01*
Y9093111D01*
X10538824D01*
Y9089603D01*
Y9087849D01*
Y9070309D01*
X10542332D01*
Y9065047D01*
X10537070D01*
Y9063293D01*
X10526546D01*
Y9061539D01*
X10524792D01*
Y9066801D01*
X10528300D01*
Y9082587D01*
X10526546D01*
Y9079079D01*
X10524792D01*
Y9073817D01*
X10523038D01*
Y9070309D01*
X10521284D01*
Y9065047D01*
X10512514D01*
Y9068555D01*
X10510760D01*
Y9070309D01*
X10509006D01*
Y9073817D01*
X10507252D01*
Y9077325D01*
X10505498D01*
Y9063293D01*
X10509006D01*
Y9058031D01*
X10501990D01*
Y9056277D01*
X10496728D01*
Y9059785D01*
X10498482D01*
Y9061539D01*
X10500236D01*
Y9084341D01*
X10498482D01*
Y9086095D01*
X10496728D01*
Y9089603D01*
X10500236D01*
Y9091357D01*
X10509006D01*
Y9093111D01*
X10510760D01*
Y9091357D01*
X10512514D01*
Y9089603D01*
X10514268D01*
Y9086095D01*
X10516022D01*
Y9082587D01*
X10517776D01*
Y9079079D01*
X10521284D01*
Y9082587D01*
X10523038D01*
Y9086095D01*
X10524792D01*
Y9091357D01*
X10526546D01*
Y9094865D01*
X10528300D01*
Y9096619D01*
X10533562D01*
Y9098373D01*
X10542332D01*
Y9094865D01*
D02*
G37*
G36*
X10491465Y9084341D02*
X10493220D01*
Y9079079D01*
X10491465D01*
Y9077325D01*
X10487957D01*
Y9080833D01*
X10486203D01*
Y9082587D01*
X10479187D01*
Y9080833D01*
X10477433D01*
Y9077325D01*
X10479187D01*
Y9075571D01*
X10486203D01*
Y9073817D01*
X10491465D01*
Y9072063D01*
X10493220D01*
Y9070309D01*
X10494973D01*
Y9063293D01*
X10493220D01*
Y9058031D01*
X10491465D01*
Y9056277D01*
X10489712D01*
Y9054523D01*
X10486203D01*
Y9052769D01*
X10473925D01*
Y9051015D01*
X10470417D01*
Y9049261D01*
X10468663D01*
Y9059785D01*
X10466909D01*
Y9061539D01*
X10468663D01*
Y9063293D01*
X10472171D01*
Y9059785D01*
X10473925D01*
Y9058031D01*
X10484449D01*
Y9063293D01*
X10479187D01*
Y9065047D01*
X10472171D01*
Y9066801D01*
X10470417D01*
Y9068555D01*
X10468663D01*
Y9072063D01*
X10466909D01*
Y9075571D01*
X10468663D01*
Y9080833D01*
X10470417D01*
Y9082587D01*
X10472171D01*
Y9084341D01*
X10473925D01*
Y9086095D01*
X10479187D01*
Y9087849D01*
X10489712D01*
Y9089603D01*
X10491465D01*
Y9084341D01*
D02*
G37*
G36*
X10573904Y9101881D02*
X10575659D01*
Y9100127D01*
X10577412D01*
Y9096619D01*
X10579167D01*
Y9080833D01*
X10577412D01*
Y9077325D01*
X10575659D01*
Y9075571D01*
X10573904D01*
Y9073817D01*
X10572150D01*
Y9072063D01*
X10570396D01*
Y9070309D01*
X10565134D01*
Y9068555D01*
X10551102D01*
Y9070309D01*
X10549348D01*
Y9072063D01*
X10547594D01*
Y9073817D01*
X10545840D01*
Y9077325D01*
Y9079079D01*
Y9080833D01*
X10544086D01*
Y9084341D01*
X10545840D01*
Y9093111D01*
X10547594D01*
Y9094865D01*
X10549348D01*
Y9098373D01*
X10551102D01*
Y9100127D01*
X10554610D01*
Y9101881D01*
X10558118D01*
Y9103635D01*
X10573904D01*
Y9101881D01*
D02*
G37*
G36*
X10424813Y9073817D02*
X10426567D01*
Y9063293D01*
X10421305D01*
Y9065047D01*
X10419551D01*
Y9066801D01*
X10417797D01*
Y9068555D01*
X10410781D01*
Y9066801D01*
X10409026D01*
Y9065047D01*
X10407273D01*
Y9058031D01*
X10405518D01*
Y9054523D01*
X10407273D01*
Y9049261D01*
X10409026D01*
Y9047507D01*
X10410781D01*
Y9045753D01*
X10417797D01*
Y9047507D01*
X10421305D01*
Y9049261D01*
X10423059D01*
Y9052769D01*
X10428321D01*
Y9049261D01*
X10426567D01*
Y9045753D01*
X10424813D01*
Y9043999D01*
X10423059D01*
Y9042245D01*
X10419551D01*
Y9040491D01*
X10416043D01*
Y9038737D01*
X10402010D01*
Y9040491D01*
X10398502D01*
Y9042245D01*
X10396748D01*
Y9047507D01*
X10394994D01*
Y9056277D01*
X10396748D01*
Y9063293D01*
X10398502D01*
Y9065047D01*
X10400256D01*
Y9066801D01*
X10402010D01*
Y9068555D01*
X10403764D01*
Y9070309D01*
X10405518D01*
Y9072063D01*
X10409026D01*
Y9073817D01*
X10421305D01*
Y9075571D01*
X10424813D01*
Y9073817D01*
D02*
G37*
G36*
X10384470Y9063293D02*
X10382716D01*
Y9059785D01*
X10380962D01*
Y9042245D01*
X10382716D01*
Y9033474D01*
X10380962D01*
Y9031721D01*
X10372192D01*
Y9035229D01*
X10370438D01*
Y9036982D01*
X10368684D01*
Y9038737D01*
X10366930D01*
Y9040491D01*
X10365176D01*
Y9042245D01*
X10363422D01*
Y9043999D01*
X10361668D01*
Y9045753D01*
X10359914D01*
Y9047507D01*
X10358160D01*
Y9033474D01*
X10361668D01*
Y9028212D01*
X10356406D01*
Y9026458D01*
X10349390D01*
Y9029966D01*
X10351144D01*
Y9031721D01*
X10352898D01*
Y9054523D01*
X10351144D01*
Y9056277D01*
X10347636D01*
Y9059785D01*
X10352898D01*
Y9061539D01*
X10358160D01*
Y9063293D01*
X10361668D01*
Y9061539D01*
X10363422D01*
Y9059785D01*
X10365176D01*
Y9058031D01*
X10366930D01*
Y9056277D01*
X10368684D01*
Y9054523D01*
X10370438D01*
Y9051015D01*
X10372192D01*
Y9049261D01*
X10373946D01*
Y9047507D01*
X10375700D01*
Y9049261D01*
X10377454D01*
Y9051015D01*
X10375700D01*
Y9059785D01*
X10373946D01*
Y9061539D01*
X10372192D01*
Y9065047D01*
X10379208D01*
Y9066801D01*
X10384470D01*
Y9063293D01*
D02*
G37*
G36*
X10456385Y9079079D02*
X10459893D01*
Y9077325D01*
X10461647D01*
Y9075571D01*
X10463401D01*
Y9072063D01*
X10465155D01*
Y9059785D01*
X10463401D01*
Y9056277D01*
X10461647D01*
Y9052769D01*
X10459893D01*
Y9051015D01*
X10458139D01*
Y9049261D01*
X10454631D01*
Y9047507D01*
X10452877D01*
Y9045753D01*
X10437091D01*
Y9047507D01*
X10433583D01*
Y9049261D01*
X10431829D01*
Y9054523D01*
X10430075D01*
Y9065047D01*
X10431829D01*
Y9070309D01*
X10433583D01*
Y9073817D01*
X10435337D01*
Y9075571D01*
X10437091D01*
Y9077325D01*
X10440599D01*
Y9079079D01*
X10445861D01*
Y9080833D01*
X10456385D01*
Y9079079D01*
D02*
G37*
G36*
X10345882Y9056277D02*
X10347636D01*
Y9052769D01*
X10345882D01*
Y9049261D01*
X10344128D01*
Y9047507D01*
Y9045753D01*
X10342374D01*
Y9043999D01*
X10338866D01*
Y9047507D01*
X10340620D01*
Y9049261D01*
X10338866D01*
Y9051015D01*
X10337112D01*
Y9058031D01*
X10338866D01*
Y9059785D01*
X10345882D01*
Y9056277D01*
D02*
G37*
G36*
X10261689Y9036982D02*
X10263443D01*
Y9029966D01*
X10258181D01*
Y9033474D01*
X10256427D01*
Y9035229D01*
X10252919D01*
Y9036982D01*
X10251165D01*
Y9035229D01*
X10245903D01*
Y9033474D01*
X10244148D01*
Y9028212D01*
X10242395D01*
Y9019442D01*
X10244148D01*
Y9015934D01*
X10245903D01*
Y9014180D01*
X10247657D01*
Y9012426D01*
X10254673D01*
Y9014180D01*
X10256427D01*
Y9015934D01*
X10258181D01*
Y9017688D01*
X10259935D01*
Y9019442D01*
X10265197D01*
Y9017688D01*
X10263443D01*
Y9014180D01*
X10261689D01*
Y9010672D01*
X10259935D01*
Y9008918D01*
X10256427D01*
Y9007164D01*
X10252919D01*
Y9005410D01*
X10238887D01*
Y9007164D01*
X10235378D01*
Y9008918D01*
X10233624D01*
Y9012426D01*
X10231870D01*
Y9026458D01*
X10233624D01*
Y9029966D01*
Y9031721D01*
X10235378D01*
Y9033474D01*
X10237132D01*
Y9035229D01*
X10238887D01*
Y9036982D01*
X10242395D01*
Y9038737D01*
X10245903D01*
Y9040491D01*
X10258181D01*
Y9042245D01*
X10261689D01*
Y9036982D01*
D02*
G37*
G36*
X10331850Y9052769D02*
X10333604D01*
Y9051015D01*
X10335358D01*
Y9040491D01*
X10333604D01*
Y9038737D01*
X10331850D01*
Y9036982D01*
X10330095D01*
Y9035229D01*
X10328342D01*
Y9033474D01*
X10324834D01*
Y9031721D01*
X10317817D01*
Y9029966D01*
X10316063D01*
Y9028212D01*
X10317817D01*
Y9024704D01*
X10321325D01*
Y9021196D01*
X10319571D01*
Y9019442D01*
X10310801D01*
Y9017688D01*
X10303785D01*
Y9021196D01*
X10305539D01*
Y9024704D01*
X10307293D01*
Y9036982D01*
X10305539D01*
Y9045753D01*
X10303785D01*
Y9047507D01*
X10302031D01*
Y9049261D01*
X10303785D01*
Y9051015D01*
X10309047D01*
Y9052769D01*
X10317817D01*
Y9054523D01*
X10331850D01*
Y9052769D01*
D02*
G37*
G36*
X10287999Y9045753D02*
X10289753D01*
Y9042245D01*
X10291507D01*
Y9038737D01*
X10293261D01*
Y9035229D01*
X10295015D01*
Y9029966D01*
X10296769D01*
Y9024704D01*
X10298523D01*
Y9021196D01*
X10302031D01*
Y9017688D01*
X10300277D01*
Y9015934D01*
X10293261D01*
Y9014180D01*
X10284491D01*
Y9017688D01*
X10286245D01*
Y9019442D01*
X10287999D01*
Y9021196D01*
X10286245D01*
Y9022950D01*
X10284491D01*
Y9021196D01*
X10277475D01*
Y9019442D01*
X10273967D01*
Y9015934D01*
X10277475D01*
Y9014180D01*
Y9012426D01*
X10275721D01*
Y9010672D01*
X10268705D01*
Y9008918D01*
X10265197D01*
Y9014180D01*
X10268705D01*
Y9019442D01*
X10270459D01*
Y9022950D01*
X10272213D01*
Y9028212D01*
X10273967D01*
Y9035229D01*
X10275721D01*
Y9040491D01*
X10277475D01*
Y9043999D01*
X10279229D01*
Y9045753D01*
X10284491D01*
Y9047507D01*
X10287999D01*
Y9045753D01*
D02*
G37*
G36*
X10728258Y9135208D02*
X10731766D01*
Y9133454D01*
X10733520D01*
Y9131700D01*
X10735274D01*
Y9129946D01*
X10737028D01*
Y9128192D01*
X10738782D01*
Y9126438D01*
X10740537D01*
Y9121176D01*
X10742290D01*
Y9115913D01*
X10744045D01*
Y9103635D01*
X10745798D01*
Y9096619D01*
X10747553D01*
Y9089603D01*
X10749307D01*
Y9082587D01*
X10751061D01*
Y9075571D01*
X10752815D01*
Y9066801D01*
X10754569D01*
Y9061539D01*
X10756323D01*
Y9054523D01*
X10758077D01*
Y9052769D01*
Y9051015D01*
Y9045753D01*
X10759831D01*
Y9038737D01*
X10761585D01*
Y9033474D01*
X10763339D01*
Y9029966D01*
X10766847D01*
Y9031721D01*
X10770355D01*
Y9033474D01*
X10773863D01*
Y9035229D01*
X10775617D01*
Y9036982D01*
X10782633D01*
Y9038737D01*
X10794911D01*
Y9036982D01*
X10798419D01*
Y9035229D01*
X10800173D01*
Y9033474D01*
X10801927D01*
Y9031721D01*
X10803681D01*
Y9029966D01*
X10805435D01*
Y9024704D01*
X10807189D01*
Y9019442D01*
X10808943D01*
Y9010672D01*
X10807189D01*
Y9005410D01*
X10805435D01*
Y9001902D01*
X10803681D01*
Y9000148D01*
X10801927D01*
Y8998394D01*
X10800173D01*
Y8996640D01*
X10798419D01*
Y8994886D01*
X10796665D01*
Y8993132D01*
X10793157D01*
Y8991378D01*
X10786141D01*
Y8989624D01*
X10780879D01*
Y8991378D01*
X10779125D01*
Y8989624D01*
X10775617D01*
Y8987870D01*
X10773863D01*
Y8982608D01*
X10775617D01*
Y8975592D01*
X10777371D01*
Y8970330D01*
X10779125D01*
Y8965068D01*
X10780879D01*
Y8958052D01*
X10782633D01*
Y8954543D01*
X10784387D01*
Y8947527D01*
X10786141D01*
Y8940511D01*
X10787895D01*
Y8937003D01*
X10789649D01*
Y8929987D01*
X10791403D01*
Y8924725D01*
X10793157D01*
Y8919463D01*
X10794911D01*
Y8914201D01*
X10796665D01*
Y8912447D01*
X10798419D01*
Y8910693D01*
X10800173D01*
Y8908939D01*
X10801927D01*
Y8905431D01*
X10803681D01*
Y8900169D01*
X10805435D01*
Y8887891D01*
X10803681D01*
Y8884383D01*
X10801927D01*
Y8882629D01*
X10800173D01*
Y8879121D01*
X10798419D01*
Y8877367D01*
X10796665D01*
Y8875613D01*
X10794911D01*
Y8873859D01*
X10791403D01*
Y8872104D01*
X10786141D01*
Y8870351D01*
X10779125D01*
Y8868596D01*
X10772109D01*
Y8870351D01*
X10766847D01*
Y8872104D01*
X10763339D01*
Y8873859D01*
X10761585D01*
Y8875613D01*
X10759831D01*
Y8877367D01*
X10758077D01*
Y8879121D01*
X10756323D01*
Y8882629D01*
X10754569D01*
Y8894907D01*
X10752815D01*
Y8900169D01*
X10751061D01*
Y8907185D01*
X10749307D01*
Y8912447D01*
X10747553D01*
Y8915955D01*
X10745798D01*
Y8922971D01*
X10744045D01*
Y8928233D01*
X10742290D01*
Y8933495D01*
X10740537D01*
Y8938757D01*
X10738782D01*
Y8942265D01*
X10737028D01*
Y8949282D01*
X10735274D01*
Y8954543D01*
X10733520D01*
Y8958052D01*
X10731766D01*
Y8965068D01*
X10730012D01*
Y8966822D01*
X10724750D01*
Y8965068D01*
X10721242D01*
Y8963314D01*
X10717734D01*
Y8961560D01*
X10714226D01*
Y8959806D01*
X10710718D01*
Y8958052D01*
X10705456D01*
Y8956298D01*
X10703702D01*
Y8954543D01*
X10698440D01*
Y8952790D01*
X10694932D01*
Y8951035D01*
X10689670D01*
Y8949282D01*
X10686162D01*
Y8947527D01*
X10682654D01*
Y8945773D01*
X10679146D01*
Y8944019D01*
X10675638D01*
Y8942265D01*
X10672130D01*
Y8940511D01*
X10670376D01*
Y8937003D01*
X10668622D01*
Y8933495D01*
X10666868D01*
Y8929987D01*
X10665114D01*
Y8926479D01*
X10663359D01*
Y8922971D01*
X10661606D01*
Y8919463D01*
X10659851D01*
Y8914201D01*
X10658098D01*
Y8908939D01*
X10656343D01*
Y8903677D01*
X10654589D01*
Y8898415D01*
X10652835D01*
Y8887891D01*
X10651081D01*
Y8882629D01*
X10649327D01*
Y8880875D01*
X10647573D01*
Y8879121D01*
X10645819D01*
Y8875613D01*
X10642311D01*
Y8873859D01*
X10640557D01*
Y8872104D01*
X10637049D01*
Y8870351D01*
X10633541D01*
Y8868596D01*
X10619509D01*
Y8870351D01*
X10616001D01*
Y8872104D01*
X10612493D01*
Y8873859D01*
X10610739D01*
Y8875613D01*
X10608985D01*
Y8880875D01*
X10607231D01*
Y8894907D01*
X10608985D01*
Y8901923D01*
X10610739D01*
Y8907185D01*
X10612493D01*
Y8912447D01*
X10614247D01*
Y8917709D01*
X10616001D01*
Y8922971D01*
X10617755D01*
Y8928233D01*
X10619509D01*
Y8933495D01*
X10621263D01*
Y8940511D01*
X10619509D01*
Y8944019D01*
X10617755D01*
Y8949282D01*
X10616001D01*
Y8958052D01*
X10617755D01*
Y8963314D01*
X10619509D01*
Y8966822D01*
X10621263D01*
Y8968576D01*
X10623017D01*
Y8970330D01*
X10624771D01*
Y8972084D01*
X10626525D01*
Y8973838D01*
X10628279D01*
Y8975592D01*
X10630033D01*
Y8977346D01*
X10633541D01*
Y8979100D01*
X10635295D01*
Y8980854D01*
X10638803D01*
Y8984362D01*
X10640557D01*
Y8987870D01*
X10642311D01*
Y8993132D01*
X10644065D01*
Y8996640D01*
X10645819D01*
Y9000148D01*
X10647573D01*
Y9005410D01*
X10649327D01*
Y9008918D01*
X10651081D01*
Y9014180D01*
X10652835D01*
Y9017688D01*
X10654589D01*
Y9021196D01*
X10656343D01*
Y9024704D01*
X10658098D01*
Y9029966D01*
X10659851D01*
Y9035229D01*
X10661606D01*
Y9038737D01*
X10663359D01*
Y9042245D01*
X10665114D01*
Y9047507D01*
X10666868D01*
Y9049261D01*
X10668622D01*
Y9054523D01*
X10670376D01*
Y9059785D01*
X10672130D01*
Y9063293D01*
X10673884D01*
Y9066801D01*
X10675638D01*
Y9070309D01*
X10677392D01*
Y9075571D01*
X10679146D01*
Y9079079D01*
X10680900D01*
Y9082587D01*
X10682654D01*
Y9087849D01*
X10684408D01*
Y9091357D01*
X10686162D01*
Y9094865D01*
X10687916D01*
Y9100127D01*
X10689670D01*
Y9105389D01*
X10691424D01*
Y9108897D01*
X10693178D01*
Y9112405D01*
X10694932D01*
Y9115913D01*
X10696686D01*
Y9119421D01*
X10698440D01*
Y9121176D01*
X10700194D01*
Y9124684D01*
X10701948D01*
Y9126438D01*
X10703702D01*
Y9128192D01*
X10705456D01*
Y9129946D01*
X10707210D01*
Y9131700D01*
X10708964D01*
Y9133454D01*
X10712472D01*
Y9135208D01*
X10717734D01*
Y9136962D01*
X10728258D01*
Y9135208D01*
D02*
G37*
G36*
X10537070Y9007164D02*
X10540578D01*
Y9005410D01*
X10544086D01*
Y9001902D01*
X10545840D01*
Y8996640D01*
X10547594D01*
Y8991378D01*
X10545840D01*
Y8987870D01*
X10544086D01*
Y8986116D01*
X10540578D01*
Y8984362D01*
X10531808D01*
Y8986116D01*
X10526546D01*
Y8984362D01*
X10524792D01*
Y8982608D01*
X10523038D01*
Y8980854D01*
X10521284D01*
Y8977346D01*
X10519530D01*
Y8975592D01*
X10517776D01*
Y8973838D01*
X10516022D01*
Y8970330D01*
X10514268D01*
Y8968576D01*
X10512514D01*
Y8965068D01*
X10510760D01*
Y8963314D01*
X10509006D01*
Y8959806D01*
X10507252D01*
Y8958052D01*
X10505498D01*
Y8954543D01*
X10503744D01*
Y8951035D01*
X10501990D01*
Y8947527D01*
X10500236D01*
Y8937003D01*
X10501990D01*
Y8935249D01*
X10503744D01*
Y8933495D01*
X10507252D01*
Y8931741D01*
X10512514D01*
Y8929987D01*
X10519530D01*
Y8928233D01*
X10526546D01*
Y8926479D01*
X10531808D01*
Y8924725D01*
X10535316D01*
Y8922971D01*
X10538824D01*
Y8921217D01*
X10540578D01*
Y8919463D01*
X10542332D01*
Y8917709D01*
X10544086D01*
Y8914201D01*
X10545840D01*
Y8901923D01*
X10544086D01*
Y8898415D01*
X10542332D01*
Y8896661D01*
X10540578D01*
Y8893153D01*
X10538824D01*
Y8891399D01*
X10537070D01*
Y8889645D01*
X10535316D01*
Y8887891D01*
X10533562D01*
Y8886137D01*
X10530054D01*
Y8884383D01*
X10528300D01*
Y8882629D01*
X10526546D01*
Y8880875D01*
X10524792D01*
Y8877367D01*
X10521284D01*
Y8875613D01*
X10519530D01*
Y8873859D01*
X10517776D01*
Y8872104D01*
X10516022D01*
Y8870351D01*
X10512514D01*
Y8868596D01*
X10509006D01*
Y8866843D01*
X10501990D01*
Y8865088D01*
X10500236D01*
Y8866843D01*
X10494973D01*
Y8868596D01*
X10493220D01*
Y8870351D01*
X10491465D01*
Y8873859D01*
Y8875613D01*
X10489712D01*
Y8877367D01*
X10491465D01*
Y8882629D01*
X10493220D01*
Y8886137D01*
X10494973D01*
Y8887891D01*
X10498482D01*
Y8889645D01*
X10500236D01*
Y8891399D01*
X10503744D01*
Y8893153D01*
X10505498D01*
Y8894907D01*
X10509006D01*
Y8896661D01*
X10512514D01*
Y8898415D01*
X10516022D01*
Y8900169D01*
X10519530D01*
Y8901923D01*
X10521284D01*
Y8905431D01*
X10510760D01*
Y8907185D01*
X10501990D01*
Y8908939D01*
X10496728D01*
Y8910693D01*
X10491465D01*
Y8912447D01*
X10487957D01*
Y8914201D01*
X10486203D01*
Y8915955D01*
X10484449D01*
Y8917709D01*
X10482695D01*
Y8919463D01*
X10480941D01*
Y8921217D01*
X10479187D01*
Y8924725D01*
X10477433D01*
Y8931741D01*
X10475679D01*
Y8942265D01*
X10477433D01*
Y8951035D01*
X10479187D01*
Y8956298D01*
X10480941D01*
Y8961560D01*
X10482695D01*
Y8965068D01*
X10484449D01*
Y8968576D01*
X10486203D01*
Y8970330D01*
X10487957D01*
Y8973838D01*
X10489712D01*
Y8975592D01*
X10491465D01*
Y8977346D01*
X10493220D01*
Y8980854D01*
X10494973D01*
Y8982608D01*
X10496728D01*
Y8984362D01*
X10498482D01*
Y8986116D01*
X10500236D01*
Y8989624D01*
X10501990D01*
Y8991378D01*
X10503744D01*
Y8993132D01*
X10505498D01*
Y8994886D01*
X10507252D01*
Y8996640D01*
X10509006D01*
Y8998394D01*
X10510760D01*
Y9000148D01*
X10512514D01*
Y9001902D01*
X10516022D01*
Y9003656D01*
X10517776D01*
Y9005410D01*
X10519530D01*
Y9007164D01*
X10523038D01*
Y9008918D01*
X10537070D01*
Y9007164D01*
D02*
G37*
G36*
X5262076Y9025167D02*
X5287668D01*
Y9022324D01*
X5299043D01*
Y9019480D01*
X5307574D01*
Y9016637D01*
X5313261D01*
Y9013793D01*
X5321792D01*
Y9010949D01*
X5327479D01*
Y9008106D01*
X5333166D01*
Y9005262D01*
X5336010D01*
Y9002419D01*
X5341697D01*
Y8999575D01*
X5344540D01*
Y8996731D01*
X5350228D01*
Y8993888D01*
X5353071D01*
Y8991044D01*
X5355915D01*
Y8988201D01*
X5358759D01*
Y8982513D01*
X5361602D01*
Y8979670D01*
X5364446D01*
Y8976826D01*
X5367289D01*
Y8973983D01*
X5364446D01*
Y8971139D01*
X5361602D01*
Y8968295D01*
X5358759D01*
Y8965452D01*
X5355915D01*
Y8962608D01*
X5353071D01*
Y8959765D01*
X5350228D01*
Y8956921D01*
X5347384D01*
Y8954077D01*
X5344540D01*
Y8951234D01*
X5341697D01*
Y8948390D01*
X5338853D01*
Y8945546D01*
X5333166D01*
Y8948390D01*
X5330323D01*
Y8951234D01*
X5324635D01*
Y8954077D01*
X5321792D01*
Y8956921D01*
X5318948D01*
Y8959765D01*
X5316104D01*
Y8962608D01*
X5310417D01*
Y8965452D01*
X5304730D01*
Y8968295D01*
X5301887D01*
Y8971139D01*
X5293356D01*
Y8973983D01*
X5287668D01*
Y8976826D01*
X5273450D01*
Y8979670D01*
X5239327D01*
Y8976826D01*
X5225109D01*
Y8973983D01*
X5219422D01*
Y8971139D01*
X5213735D01*
Y8968295D01*
X5208047D01*
Y8965452D01*
X5205204D01*
Y8962608D01*
X5202360D01*
Y8959765D01*
X5196673D01*
Y8956921D01*
X5193830D01*
Y8954077D01*
X5190986D01*
Y8951234D01*
X5188142D01*
Y8948390D01*
X5185299D01*
Y8942703D01*
X5182455D01*
Y8939859D01*
X5179611D01*
Y8934172D01*
X5176768D01*
Y8928485D01*
X5173924D01*
Y8919954D01*
X5171081D01*
Y8902893D01*
X5168237D01*
Y8885831D01*
X5171081D01*
Y8868769D01*
X5173924D01*
Y8860239D01*
X5176768D01*
Y8854551D01*
X5179611D01*
Y8848864D01*
X5182455D01*
Y8843177D01*
X5185299D01*
Y8840333D01*
X5188142D01*
Y8837490D01*
X5190986D01*
Y8834646D01*
X5193830D01*
Y8831803D01*
X5196673D01*
Y8828959D01*
X5199517D01*
Y8826115D01*
X5202360D01*
Y8823272D01*
X5208047D01*
Y8820428D01*
X5210891D01*
Y8817584D01*
X5216578D01*
Y8814741D01*
X5225109D01*
Y8811897D01*
X5233640D01*
Y8809054D01*
X5279138D01*
Y8811897D01*
X5290512D01*
Y8814741D01*
X5299043D01*
Y8817584D01*
X5301887D01*
Y8820428D01*
X5307574D01*
Y8823272D01*
X5313261D01*
Y8826115D01*
X5316104D01*
Y8828959D01*
X5318948D01*
Y8831803D01*
X5321792D01*
Y8834646D01*
X5327479D01*
Y8837490D01*
X5330323D01*
Y8840333D01*
X5333166D01*
Y8843177D01*
X5336010D01*
Y8840333D01*
X5338853D01*
Y8837490D01*
X5341697D01*
Y8834646D01*
X5344540D01*
Y8831803D01*
X5347384D01*
Y8828959D01*
X5350228D01*
Y8826115D01*
X5353071D01*
Y8823272D01*
X5355915D01*
Y8820428D01*
X5358759D01*
Y8817584D01*
X5361602D01*
Y8814741D01*
X5364446D01*
Y8806210D01*
X5361602D01*
Y8803366D01*
X5358759D01*
Y8800523D01*
X5355915D01*
Y8797679D01*
X5350228D01*
Y8794836D01*
X5347384D01*
Y8791992D01*
X5344540D01*
Y8789149D01*
X5341697D01*
Y8786305D01*
X5338853D01*
Y8783461D01*
X5333166D01*
Y8780618D01*
X5330323D01*
Y8777774D01*
X5321792D01*
Y8774930D01*
X5318948D01*
Y8772087D01*
X5310417D01*
Y8769243D01*
X5301887D01*
Y8766400D01*
X5290512D01*
Y8763556D01*
X5273450D01*
Y8760712D01*
X5239327D01*
Y8763556D01*
X5222266D01*
Y8766400D01*
X5210891D01*
Y8769243D01*
X5202360D01*
Y8772087D01*
X5196673D01*
Y8774930D01*
X5190986D01*
Y8777774D01*
X5185299D01*
Y8780618D01*
X5179611D01*
Y8783461D01*
X5173924D01*
Y8786305D01*
X5171081D01*
Y8789149D01*
X5168237D01*
Y8791992D01*
X5165394D01*
Y8794836D01*
X5162550D01*
Y8797679D01*
X5159706D01*
Y8800523D01*
X5156863D01*
Y8803366D01*
X5154019D01*
Y8806210D01*
X5151176D01*
Y8809054D01*
X5148332D01*
Y8811897D01*
X5145488D01*
Y8817584D01*
X5142645D01*
Y8820428D01*
X5139801D01*
Y8823272D01*
X5136957D01*
Y8828959D01*
X5134114D01*
Y8834646D01*
X5131270D01*
Y8843177D01*
X5128427D01*
Y8851708D01*
X5125583D01*
Y8863082D01*
X5122740D01*
Y8885831D01*
X5119896D01*
Y8902893D01*
X5122740D01*
Y8925641D01*
X5125583D01*
Y8934172D01*
X5128427D01*
Y8945546D01*
X5131270D01*
Y8951234D01*
X5134114D01*
Y8956921D01*
X5136957D01*
Y8962608D01*
X5139801D01*
Y8965452D01*
X5142645D01*
Y8971139D01*
X5145488D01*
Y8973983D01*
X5148332D01*
Y8976826D01*
X5151176D01*
Y8979670D01*
X5154019D01*
Y8982513D01*
X5156863D01*
Y8988201D01*
X5159706D01*
Y8991044D01*
X5162550D01*
Y8993888D01*
X5165394D01*
Y8996731D01*
X5171081D01*
Y8999575D01*
X5173924D01*
Y9002419D01*
X5176768D01*
Y9005262D01*
X5182455D01*
Y9008106D01*
X5188142D01*
Y9010949D01*
X5193830D01*
Y9013793D01*
X5199517D01*
Y9016637D01*
X5208047D01*
Y9019480D01*
X5216578D01*
Y9022324D01*
X5225109D01*
Y9025167D01*
X5253545D01*
Y9028011D01*
X5262076D01*
Y9025167D01*
D02*
G37*
G36*
X10591445Y9042245D02*
X10593199D01*
Y9038737D01*
X10594953D01*
Y9033474D01*
X10596707D01*
Y9005410D01*
X10594953D01*
Y8994886D01*
X10593199D01*
Y8984362D01*
X10591445D01*
Y8977346D01*
X10589691D01*
Y8968576D01*
X10587937D01*
Y8961560D01*
X10586183D01*
Y8931741D01*
X10584429D01*
Y8926479D01*
X10582675D01*
Y8924725D01*
X10580920D01*
Y8921217D01*
X10577412D01*
Y8919463D01*
X10575659D01*
Y8917709D01*
X10566888D01*
Y8919463D01*
X10565134D01*
Y8921217D01*
X10563380D01*
Y8924725D01*
X10561626D01*
Y8956298D01*
X10563380D01*
Y8973838D01*
X10565134D01*
Y8984362D01*
Y8986116D01*
X10566888D01*
Y9001902D01*
X10568642D01*
Y9017688D01*
X10570396D01*
Y9029966D01*
X10572150D01*
Y9035229D01*
X10573904D01*
Y9038737D01*
X10575659D01*
Y9040491D01*
X10577412D01*
Y9042245D01*
X10579167D01*
Y9043999D01*
X10591445D01*
Y9042245D01*
D02*
G37*
G36*
X10868580Y9156256D02*
X10872088D01*
Y9154502D01*
X10875596D01*
Y9152748D01*
X10877350D01*
Y9150994D01*
X10879104D01*
Y9147486D01*
X10880858D01*
Y9143978D01*
X10882612D01*
Y9121176D01*
X10880858D01*
Y9110651D01*
X10879104D01*
Y9103635D01*
X10877350D01*
Y9096619D01*
X10875596D01*
Y9087849D01*
X10873842D01*
Y9080833D01*
X10872088D01*
Y9072063D01*
X10870334D01*
Y9063293D01*
X10868580D01*
Y9054523D01*
X10866826D01*
Y9042245D01*
X10865072D01*
Y9031721D01*
X10863318D01*
Y9019442D01*
X10861564D01*
Y9017688D01*
Y9015934D01*
Y9005410D01*
X10859810D01*
Y8993132D01*
X10858056D01*
Y8973838D01*
X10856302D01*
Y8940511D01*
X10854548D01*
Y8919463D01*
X10852794D01*
Y8912447D01*
X10851040D01*
Y8908939D01*
X10849286D01*
Y8905431D01*
X10847532D01*
Y8903677D01*
X10845778D01*
Y8901923D01*
X10844024D01*
Y8900169D01*
X10842270D01*
Y8898415D01*
X10840516D01*
Y8896661D01*
X10821221D01*
Y8898415D01*
X10817713D01*
Y8900169D01*
X10815959D01*
Y8901923D01*
X10812451D01*
Y8905431D01*
X10810697D01*
Y8912447D01*
X10808943D01*
Y8928233D01*
X10810697D01*
Y8952790D01*
X10812451D01*
Y8972084D01*
X10814205D01*
Y8991378D01*
X10815959D01*
Y9008918D01*
X10817713D01*
Y9022950D01*
X10819467D01*
Y9038737D01*
X10821221D01*
Y9054523D01*
X10822975D01*
Y9070309D01*
X10824729D01*
Y9079079D01*
X10826484D01*
Y9094865D01*
X10828237D01*
Y9105389D01*
X10829992D01*
Y9115913D01*
X10831745D01*
Y9124684D01*
X10833500D01*
Y9133454D01*
X10835254D01*
Y9138716D01*
X10837008D01*
Y9143978D01*
X10838762D01*
Y9147486D01*
X10840516D01*
Y9150994D01*
X10842270D01*
Y9152748D01*
X10844024D01*
Y9154502D01*
X10847532D01*
Y9156256D01*
X10851040D01*
Y9158010D01*
X10868580D01*
Y9156256D01*
D02*
G37*
G36*
X10577412Y8905431D02*
X10579167D01*
Y8903677D01*
X10580920D01*
Y8898415D01*
X10582675D01*
Y8896661D01*
Y8894907D01*
Y8889645D01*
X10580920D01*
Y8882629D01*
X10579167D01*
Y8880875D01*
X10577412D01*
Y8877367D01*
X10575659D01*
Y8875613D01*
X10572150D01*
Y8873859D01*
X10565134D01*
Y8875613D01*
X10561626D01*
Y8877367D01*
X10559872D01*
Y8879121D01*
X10558118D01*
Y8884383D01*
X10556364D01*
Y8896661D01*
X10558118D01*
Y8901923D01*
X10559872D01*
Y8903677D01*
X10561626D01*
Y8905431D01*
X10563380D01*
Y8907185D01*
X10577412D01*
Y8905431D01*
D02*
G37*
G36*
X10942249Y9119421D02*
X10945757D01*
Y9117668D01*
X10947511D01*
Y9115913D01*
X10949265D01*
Y9114160D01*
X10951019D01*
Y9112405D01*
X10952773D01*
Y9108897D01*
X10954527D01*
Y9098373D01*
X10956281D01*
Y9096619D01*
X10954527D01*
Y9084341D01*
X10952773D01*
Y9075571D01*
X10951019D01*
Y9070309D01*
X10949265D01*
Y9065047D01*
X10947511D01*
Y9059785D01*
X10945757D01*
Y9054523D01*
X10944003D01*
Y9049261D01*
X10942249D01*
Y9043999D01*
X10940495D01*
Y9040491D01*
X10938741D01*
Y9035229D01*
X10936987D01*
Y9029966D01*
X10935233D01*
Y9022950D01*
X10933479D01*
Y9017688D01*
X10931725D01*
Y9012426D01*
X10929971D01*
Y9007164D01*
X10928217D01*
Y9000148D01*
X10926463D01*
Y8994886D01*
X10924709D01*
Y8987870D01*
X10922955D01*
Y8980854D01*
X10921201D01*
Y8973838D01*
X10919447D01*
Y8966822D01*
X10917693D01*
Y8959806D01*
X10915939D01*
Y8952790D01*
X10914184D01*
Y8944019D01*
X10912431D01*
Y8935249D01*
X10910676D01*
Y8922971D01*
X10908923D01*
Y8921217D01*
Y8912447D01*
X10907168D01*
Y8898415D01*
X10905414D01*
Y8889645D01*
X10903660D01*
Y8882629D01*
X10901906D01*
Y8877367D01*
X10900152D01*
Y8873859D01*
X10898398D01*
Y8872104D01*
X10896644D01*
Y8868596D01*
X10894890D01*
Y8866843D01*
X10891382D01*
Y8865088D01*
X10887874D01*
Y8863335D01*
X10880858D01*
Y8861580D01*
X10879104D01*
Y8863335D01*
X10870334D01*
Y8865088D01*
X10866826D01*
Y8866843D01*
X10865072D01*
Y8868596D01*
X10863318D01*
Y8870351D01*
X10861564D01*
Y8873859D01*
X10859810D01*
Y8900169D01*
X10861564D01*
Y8910693D01*
X10863318D01*
Y8919463D01*
X10865072D01*
Y8928233D01*
X10866826D01*
Y8938757D01*
X10868580D01*
Y8945773D01*
X10870334D01*
Y8954543D01*
X10872088D01*
Y8963314D01*
X10873842D01*
Y8970330D01*
X10875596D01*
Y8977346D01*
X10877350D01*
Y8984362D01*
X10879104D01*
Y8993132D01*
X10880858D01*
Y9000148D01*
X10882612D01*
Y9007164D01*
X10884366D01*
Y9015934D01*
X10886120D01*
Y9021196D01*
X10887874D01*
Y9029966D01*
X10889628D01*
Y9038737D01*
X10891382D01*
Y9042245D01*
X10893136D01*
Y9051015D01*
X10894890D01*
Y9058031D01*
X10896644D01*
Y9063293D01*
X10898398D01*
Y9070309D01*
X10900152D01*
Y9077325D01*
X10901906D01*
Y9084341D01*
X10903660D01*
Y9089603D01*
X10905414D01*
Y9094865D01*
X10907168D01*
Y9100127D01*
X10908923D01*
Y9103635D01*
X10910676D01*
Y9108897D01*
X10912431D01*
Y9110651D01*
X10914184D01*
Y9114160D01*
X10915939D01*
Y9115913D01*
X10919447D01*
Y9117668D01*
X10921201D01*
Y9119421D01*
X10924709D01*
Y9121176D01*
X10942249D01*
Y9119421D01*
D02*
G37*
G36*
X5984351Y9028011D02*
X5981507D01*
Y9016637D01*
X5978664D01*
Y9005262D01*
X5975820D01*
Y8993888D01*
X5972977D01*
Y8982513D01*
X5970133D01*
Y8971139D01*
X5967290D01*
Y8959765D01*
X5964446D01*
Y8948390D01*
X5961602D01*
Y8934172D01*
X5958759D01*
Y8925641D01*
X5955915D01*
Y8914267D01*
X5953071D01*
Y8902893D01*
X5950228D01*
Y8891518D01*
X5947384D01*
Y8877300D01*
X5944541D01*
Y8865926D01*
X5941697D01*
Y8857395D01*
X5938854D01*
Y8846020D01*
X5936010D01*
Y8837490D01*
X5933166D01*
Y8826115D01*
X5930323D01*
Y8814741D01*
X5927479D01*
Y8803366D01*
X5924635D01*
Y8791992D01*
X5921792D01*
Y8777774D01*
X5918948D01*
Y8766400D01*
X5916105D01*
Y8757869D01*
X5913261D01*
Y8755025D01*
X5836484D01*
Y8763556D01*
X5833640D01*
Y8774930D01*
X5830797D01*
Y8786305D01*
X5827953D01*
Y8797679D01*
X5825109D01*
Y8809054D01*
X5822266D01*
Y8820428D01*
X5819422D01*
Y8831803D01*
X5816579D01*
Y8843177D01*
X5813735D01*
Y8854551D01*
X5810891D01*
Y8865926D01*
X5808048D01*
Y8877300D01*
X5805204D01*
Y8885831D01*
X5802361D01*
Y8900049D01*
X5799517D01*
Y8911423D01*
X5796673D01*
Y8917110D01*
X5793830D01*
Y8922798D01*
X5790986D01*
Y8914267D01*
X5788143D01*
Y8902893D01*
X5785299D01*
Y8894362D01*
X5782455D01*
Y8880144D01*
X5779612D01*
Y8868769D01*
X5776768D01*
Y8857395D01*
X5773924D01*
Y8846020D01*
X5771081D01*
Y8834646D01*
X5768237D01*
Y8823272D01*
X5765394D01*
Y8811897D01*
X5762550D01*
Y8800523D01*
X5759707D01*
Y8789149D01*
X5756863D01*
Y8774930D01*
X5754019D01*
Y8763556D01*
X5751176D01*
Y8755025D01*
X5674398D01*
Y8757869D01*
X5671555D01*
Y8769243D01*
X5668711D01*
Y8777774D01*
X5665868D01*
Y8791992D01*
X5663024D01*
Y8803366D01*
X5660180D01*
Y8814741D01*
X5657337D01*
Y8823272D01*
X5654493D01*
Y8831803D01*
X5651650D01*
Y8843177D01*
X5648806D01*
Y8854551D01*
X5645962D01*
Y8865926D01*
X5643119D01*
Y8877300D01*
X5640275D01*
Y8888675D01*
X5637432D01*
Y8900049D01*
X5634588D01*
Y8905736D01*
Y8908580D01*
Y8911423D01*
X5631744D01*
Y8925641D01*
X5628901D01*
Y8934172D01*
X5626057D01*
Y8948390D01*
X5623214D01*
Y8959765D01*
X5620370D01*
Y8968295D01*
X5617526D01*
Y8982513D01*
X5614683D01*
Y8993888D01*
X5611839D01*
Y9005262D01*
X5608996D01*
Y9010949D01*
X5606152D01*
Y9022324D01*
X5603308D01*
Y9033698D01*
X5674398D01*
Y9030855D01*
X5677242D01*
Y9016637D01*
X5680086D01*
Y9002419D01*
X5682929D01*
Y8988201D01*
X5685773D01*
Y8973983D01*
X5688617D01*
Y8959765D01*
X5691460D01*
Y8945546D01*
X5694304D01*
Y8931329D01*
X5697147D01*
Y8917110D01*
X5699991D01*
Y8902893D01*
X5702834D01*
Y8894362D01*
X5705678D01*
Y8880144D01*
X5708522D01*
Y8865926D01*
X5711365D01*
Y8851708D01*
X5714209D01*
Y8854551D01*
X5717053D01*
Y8865926D01*
X5719896D01*
Y8877300D01*
X5722740D01*
Y8888675D01*
X5725583D01*
Y8900049D01*
X5728427D01*
Y8911423D01*
X5731270D01*
Y8922798D01*
X5734114D01*
Y8937016D01*
X5736958D01*
Y8948390D01*
X5739801D01*
Y8959765D01*
X5742645D01*
Y8971139D01*
X5745488D01*
Y8982513D01*
X5748332D01*
Y8991044D01*
X5751176D01*
Y9002419D01*
X5754019D01*
Y9010949D01*
X5756863D01*
Y9022324D01*
X5759707D01*
Y9033698D01*
X5827953D01*
Y9030855D01*
X5830797D01*
Y9019480D01*
X5833640D01*
Y9008106D01*
X5836484D01*
Y8996731D01*
X5839327D01*
Y8982513D01*
X5842171D01*
Y8973983D01*
X5845014D01*
Y8962608D01*
X5847858D01*
Y8951234D01*
X5850702D01*
Y8939859D01*
X5853545D01*
Y8925641D01*
X5856389D01*
Y8914267D01*
X5859233D01*
Y8902893D01*
X5862076D01*
Y8891518D01*
X5864920D01*
Y8877300D01*
X5867763D01*
Y8865926D01*
X5870607D01*
Y8854551D01*
X5873451D01*
Y8851708D01*
X5876294D01*
Y8865926D01*
X5879138D01*
Y8880144D01*
X5881981D01*
Y8891518D01*
X5884825D01*
Y8905736D01*
X5887669D01*
Y8919954D01*
X5890512D01*
Y8928485D01*
X5893356D01*
Y8942703D01*
X5896200D01*
Y8954077D01*
X5899043D01*
Y8968295D01*
X5901887D01*
Y8982513D01*
X5904730D01*
Y8996731D01*
X5907574D01*
Y9008106D01*
X5910417D01*
Y9022324D01*
X5913261D01*
Y9033698D01*
X5984351D01*
Y9028011D01*
D02*
G37*
G36*
X6382456Y8956921D02*
X6379612D01*
Y8948390D01*
X6376768D01*
Y8939859D01*
X6373925D01*
Y8931329D01*
X6371081D01*
Y8922798D01*
X6368237D01*
Y8917110D01*
X6365394D01*
Y8908580D01*
X6362550D01*
Y8900049D01*
X6359707D01*
Y8894362D01*
X6356863D01*
Y8885831D01*
X6354020D01*
Y8880144D01*
X6351176D01*
Y8871613D01*
X6348332D01*
Y8863082D01*
X6345489D01*
Y8854551D01*
X6342645D01*
Y8848864D01*
X6339801D01*
Y8840333D01*
X6336958D01*
Y8831803D01*
X6334114D01*
Y8823272D01*
X6331271D01*
Y8814741D01*
X6328427D01*
Y8809054D01*
X6325583D01*
Y8800523D01*
X6322740D01*
Y8791992D01*
X6319896D01*
Y8783461D01*
X6317053D01*
Y8777774D01*
X6314209D01*
Y8769243D01*
X6311365D01*
Y8763556D01*
X6308522D01*
Y8757869D01*
X6305678D01*
Y8749338D01*
X6302835D01*
Y8740807D01*
X6299991D01*
Y8732276D01*
X6297147D01*
Y8723746D01*
X6294304D01*
Y8718058D01*
X6291460D01*
Y8706684D01*
X6308522D01*
Y8703840D01*
X6331271D01*
Y8700997D01*
X6354020D01*
Y8698153D01*
X6379612D01*
Y8695310D01*
X6405204D01*
Y8692466D01*
X6402361D01*
Y8689622D01*
X6399517D01*
Y8686779D01*
X6388143D01*
Y8689622D01*
X6356863D01*
Y8692466D01*
X6334114D01*
Y8695310D01*
X6302835D01*
Y8698153D01*
X6299991D01*
Y8695310D01*
X6294304D01*
Y8698153D01*
X6285773D01*
Y8695310D01*
X6282930D01*
Y8683935D01*
X6280086D01*
Y8678248D01*
X6208996D01*
Y8683935D01*
X6211839D01*
Y8692466D01*
X6214683D01*
Y8698153D01*
X6217527D01*
Y8703840D01*
X6200465D01*
Y8706684D01*
X6163498D01*
Y8709528D01*
X6132218D01*
Y8712371D01*
X6095252D01*
Y8715215D01*
X6038380D01*
Y8718058D01*
X5950228D01*
Y8720902D01*
X5876294D01*
Y8718058D01*
X5773924D01*
Y8715215D01*
X5699991D01*
Y8712371D01*
X5657337D01*
Y8709528D01*
X5620370D01*
Y8706684D01*
X5574872D01*
Y8703840D01*
X5540749D01*
Y8700997D01*
X5512313D01*
Y8698153D01*
X5481033D01*
Y8695310D01*
X5446910D01*
Y8692466D01*
X5432692D01*
Y8689622D01*
X5409943D01*
Y8686779D01*
X5381507D01*
Y8683935D01*
X5355915D01*
Y8681092D01*
X5338853D01*
Y8678248D01*
X5313261D01*
Y8675404D01*
X5287668D01*
Y8672561D01*
X5270607D01*
Y8669717D01*
X5250702D01*
Y8666873D01*
X5227953D01*
Y8664030D01*
X5210891D01*
Y8661186D01*
X5193830D01*
Y8658343D01*
X5173924D01*
Y8655499D01*
X5154019D01*
Y8652656D01*
X5136957D01*
Y8649812D01*
X5119896D01*
Y8646968D01*
X5099991D01*
Y8644125D01*
X5082929D01*
Y8641281D01*
X5074398D01*
Y8638437D01*
X5054493D01*
Y8635594D01*
X5037431D01*
Y8632750D01*
X5023213D01*
Y8629907D01*
X5006152D01*
Y8627063D01*
X4989090D01*
Y8624219D01*
X4974872D01*
Y8621376D01*
X4963498D01*
Y8618532D01*
X4943593D01*
Y8615689D01*
X4929374D01*
Y8612845D01*
X4915157D01*
Y8610001D01*
X4895251D01*
Y8607158D01*
X4883877D01*
Y8604314D01*
X4872503D01*
Y8612845D01*
X4875346D01*
Y8627063D01*
X4878190D01*
Y8638437D01*
X4881033D01*
Y8641281D01*
X4886720D01*
Y8644125D01*
X4900938D01*
Y8646968D01*
X4915157D01*
Y8649812D01*
X4935062D01*
Y8652656D01*
X4949280D01*
Y8655499D01*
X4963498D01*
Y8658343D01*
X4983403D01*
Y8661186D01*
X5003308D01*
Y8664030D01*
X5017526D01*
Y8666873D01*
X5037431D01*
Y8669717D01*
X5057337D01*
Y8672561D01*
X5074398D01*
Y8675404D01*
X5091460D01*
Y8678248D01*
X5114209D01*
Y8681092D01*
X5134114D01*
Y8683935D01*
X5154019D01*
Y8686779D01*
X5173924D01*
Y8689622D01*
X5190986D01*
Y8692466D01*
X5210891D01*
Y8695310D01*
X5233640D01*
Y8698153D01*
X5262076D01*
Y8700997D01*
X5281981D01*
Y8703840D01*
X5284825D01*
Y8700997D01*
X5287668D01*
Y8703840D01*
X5307574D01*
Y8706684D01*
X5341697D01*
Y8709528D01*
X5370133D01*
Y8712371D01*
X5398569D01*
Y8715215D01*
X5427005D01*
Y8718058D01*
X5466815D01*
Y8720902D01*
X5503782D01*
Y8723746D01*
X5540749D01*
Y8726589D01*
X5594777D01*
Y8729433D01*
X5651650D01*
Y8732276D01*
X5736958D01*
Y8735120D01*
X5899043D01*
Y8732276D01*
X5972977D01*
Y8729433D01*
X5975820D01*
Y8732276D01*
X5981507D01*
Y8729433D01*
X6041223D01*
Y8726589D01*
X6092408D01*
Y8723746D01*
X6126531D01*
Y8720902D01*
X6157811D01*
Y8718058D01*
X6197621D01*
Y8715215D01*
X6223214D01*
Y8718058D01*
X6226057D01*
Y8726589D01*
X6228901D01*
Y8735120D01*
X6231744D01*
Y8740807D01*
X6234588D01*
Y8749338D01*
X6237432D01*
Y8755025D01*
X6240275D01*
Y8763556D01*
X6237432D01*
Y8772087D01*
X6234588D01*
Y8777774D01*
X6231744D01*
Y8786305D01*
X6228901D01*
Y8794836D01*
X6226057D01*
Y8803366D01*
X6223214D01*
Y8809054D01*
X6220370D01*
Y8817584D01*
X6217527D01*
Y8823272D01*
X6214683D01*
Y8831803D01*
X6211839D01*
Y8837490D01*
X6208996D01*
Y8846020D01*
X6206152D01*
Y8854551D01*
X6203309D01*
Y8863082D01*
X6200465D01*
Y8868769D01*
X6197621D01*
Y8877300D01*
X6194778D01*
Y8882987D01*
X6191934D01*
Y8891518D01*
X6189090D01*
Y8900049D01*
X6186247D01*
Y8908580D01*
X6183403D01*
Y8914267D01*
X6180560D01*
Y8922798D01*
X6177716D01*
Y8931329D01*
X6174873D01*
Y8939859D01*
X6172029D01*
Y8945546D01*
X6169185D01*
Y8951234D01*
X6166342D01*
Y8959765D01*
X6163498D01*
Y8965452D01*
X6231744D01*
Y8962608D01*
X6234588D01*
Y8954077D01*
X6237432D01*
Y8945546D01*
X6240275D01*
Y8934172D01*
X6243119D01*
Y8925641D01*
X6245963D01*
Y8917110D01*
X6248806D01*
Y8908580D01*
X6251650D01*
Y8900049D01*
X6254493D01*
Y8891518D01*
X6257337D01*
Y8882987D01*
X6260181D01*
Y8874456D01*
X6263024D01*
Y8865926D01*
X6265868D01*
Y8860239D01*
X6268711D01*
Y8851708D01*
X6271555D01*
Y8843177D01*
X6274399D01*
Y8837490D01*
X6277242D01*
Y8840333D01*
X6280086D01*
Y8851708D01*
X6282930D01*
Y8860239D01*
X6285773D01*
Y8868769D01*
X6288617D01*
Y8877300D01*
X6291460D01*
Y8885831D01*
X6294304D01*
Y8897205D01*
X6297147D01*
Y8905736D01*
X6299991D01*
Y8914267D01*
X6302835D01*
Y8922798D01*
X6305678D01*
Y8934172D01*
X6308522D01*
Y8942703D01*
X6311365D01*
Y8951234D01*
X6314209D01*
Y8956921D01*
X6317053D01*
Y8965452D01*
X6382456D01*
Y8956921D01*
D02*
G37*
G36*
X10349390Y8958052D02*
X10352898D01*
Y8956298D01*
X10372192D01*
Y8954543D01*
X10379208D01*
Y8952790D01*
X10382716D01*
Y8951035D01*
X10384470D01*
Y8949282D01*
X10386224D01*
Y8947527D01*
X10387978D01*
Y8945773D01*
X10389732D01*
Y8942265D01*
X10391486D01*
Y8940511D01*
X10393240D01*
Y8935249D01*
X10394994D01*
Y8933495D01*
Y8931741D01*
Y8912447D01*
X10393240D01*
Y8907185D01*
X10391486D01*
Y8901923D01*
X10389732D01*
Y8898415D01*
X10387978D01*
Y8894907D01*
X10386224D01*
Y8891399D01*
X10384470D01*
Y8887891D01*
X10382716D01*
Y8884383D01*
X10380962D01*
Y8882629D01*
X10379208D01*
Y8880875D01*
X10377454D01*
Y8877367D01*
X10375700D01*
Y8875613D01*
X10373946D01*
Y8873859D01*
X10372192D01*
Y8872104D01*
X10370438D01*
Y8868596D01*
X10368684D01*
Y8866843D01*
X10366930D01*
Y8865088D01*
X10365176D01*
Y8863335D01*
X10363422D01*
Y8861580D01*
X10361668D01*
Y8859826D01*
X10359914D01*
Y8858072D01*
X10358160D01*
Y8856318D01*
X10356406D01*
Y8854564D01*
X10354652D01*
Y8852810D01*
X10352898D01*
Y8851056D01*
X10351144D01*
Y8849302D01*
X10349390D01*
Y8847548D01*
X10345882D01*
Y8845794D01*
X10344128D01*
Y8844040D01*
X10340620D01*
Y8842286D01*
X10338866D01*
Y8840532D01*
X10337112D01*
Y8838778D01*
X10333604D01*
Y8837024D01*
X10330095D01*
Y8835270D01*
X10328342D01*
Y8833516D01*
X10324834D01*
Y8831762D01*
X10319571D01*
Y8830008D01*
X10314309D01*
Y8828254D01*
X10309047D01*
Y8826500D01*
X10298523D01*
Y8828254D01*
X10295015D01*
Y8830008D01*
X10289753D01*
Y8831762D01*
X10287999D01*
Y8833516D01*
X10286245D01*
Y8835270D01*
X10284491D01*
Y8837024D01*
X10282737D01*
Y8838778D01*
X10280983D01*
Y8842286D01*
X10279229D01*
Y8847548D01*
X10277475D01*
Y8852810D01*
X10275721D01*
Y8868596D01*
X10277475D01*
Y8875613D01*
X10279229D01*
Y8882629D01*
X10280983D01*
Y8887891D01*
X10282737D01*
Y8891399D01*
X10284491D01*
Y8896661D01*
X10286245D01*
Y8900169D01*
X10287999D01*
Y8903677D01*
X10289753D01*
Y8908939D01*
X10291507D01*
Y8910693D01*
X10293261D01*
Y8914201D01*
X10295015D01*
Y8917709D01*
X10296769D01*
Y8921217D01*
X10298523D01*
Y8924725D01*
X10300277D01*
Y8928233D01*
X10302031D01*
Y8929987D01*
X10303785D01*
Y8933495D01*
X10305539D01*
Y8935249D01*
X10307293D01*
Y8937003D01*
X10309047D01*
Y8940511D01*
X10310801D01*
Y8942265D01*
X10312555D01*
Y8944019D01*
X10314309D01*
Y8945773D01*
X10316063D01*
Y8947527D01*
X10317817D01*
Y8949282D01*
X10319571D01*
Y8951035D01*
X10321325D01*
Y8952790D01*
X10323079D01*
Y8954543D01*
X10326587D01*
Y8956298D01*
X10330095D01*
Y8958052D01*
X10333604D01*
Y8959806D01*
X10349390D01*
Y8958052D01*
D02*
G37*
G36*
X10445861Y9007164D02*
X10451123D01*
Y9005410D01*
X10454631D01*
Y9003656D01*
X10458139D01*
Y9001902D01*
X10461647D01*
Y9000148D01*
X10465155D01*
Y8998394D01*
X10466909D01*
Y8996640D01*
X10470417D01*
Y8994886D01*
X10472171D01*
Y8993132D01*
X10473925D01*
Y8989624D01*
X10475679D01*
Y8987870D01*
X10477433D01*
Y8984362D01*
X10479187D01*
Y8977346D01*
X10480941D01*
Y8968576D01*
X10479187D01*
Y8959806D01*
X10477433D01*
Y8956298D01*
X10475679D01*
Y8952790D01*
X10473925D01*
Y8949282D01*
X10472171D01*
Y8947527D01*
X10470417D01*
Y8945773D01*
X10468663D01*
Y8942265D01*
X10466909D01*
Y8940511D01*
X10465155D01*
Y8937003D01*
X10463401D01*
Y8935249D01*
X10461647D01*
Y8933495D01*
X10459893D01*
Y8931741D01*
X10458139D01*
Y8929987D01*
X10456385D01*
Y8928233D01*
X10454631D01*
Y8926479D01*
X10452877D01*
Y8924725D01*
X10451123D01*
Y8922971D01*
X10449369D01*
Y8921217D01*
X10447615D01*
Y8919463D01*
X10445861D01*
Y8917709D01*
X10444107D01*
Y8915955D01*
X10442353D01*
Y8914201D01*
X10440599D01*
Y8912447D01*
X10438845D01*
Y8910693D01*
X10437091D01*
Y8908939D01*
X10435337D01*
Y8907185D01*
X10433583D01*
Y8905431D01*
X10431829D01*
Y8903677D01*
X10428321D01*
Y8901923D01*
X10426567D01*
Y8900169D01*
X10423059D01*
Y8884383D01*
X10421305D01*
Y8882629D01*
Y8831762D01*
X10423059D01*
Y8826500D01*
X10421305D01*
Y8817730D01*
X10419551D01*
Y8815976D01*
X10417797D01*
Y8814222D01*
X10416043D01*
Y8812468D01*
X10405518D01*
Y8814222D01*
X10403764D01*
Y8815976D01*
X10402010D01*
Y8819484D01*
X10400256D01*
Y8893153D01*
X10402010D01*
Y8919463D01*
X10403764D01*
Y8938757D01*
X10405518D01*
Y8952790D01*
X10407273D01*
Y8966822D01*
X10409026D01*
Y8980854D01*
X10407273D01*
Y8982608D01*
X10405518D01*
Y8994886D01*
X10407273D01*
Y8998394D01*
X10409026D01*
Y9000148D01*
X10410781D01*
Y9001902D01*
X10412534D01*
Y9003656D01*
X10416043D01*
Y9005410D01*
X10419551D01*
Y9007164D01*
X10424813D01*
Y9008918D01*
X10445861D01*
Y9007164D01*
D02*
G37*
G36*
X10682654Y8844040D02*
X10689670D01*
Y8842286D01*
X10693178D01*
Y8840532D01*
X10700194D01*
Y8844040D01*
X10710718D01*
Y8828254D01*
X10712472D01*
Y8814222D01*
Y8812468D01*
X10714226D01*
Y8803698D01*
X10708964D01*
Y8801944D01*
X10703702D01*
Y8807206D01*
X10701948D01*
Y8812468D01*
X10700194D01*
Y8815976D01*
X10698440D01*
Y8819484D01*
X10696686D01*
Y8821238D01*
X10694932D01*
Y8822992D01*
X10693178D01*
Y8824746D01*
X10691424D01*
Y8826500D01*
X10687916D01*
Y8828254D01*
X10680900D01*
Y8826500D01*
X10677392D01*
Y8824746D01*
X10673884D01*
Y8821238D01*
X10672130D01*
Y8817730D01*
X10670376D01*
Y8814222D01*
X10668622D01*
Y8803698D01*
X10666868D01*
Y8786157D01*
X10668622D01*
Y8775633D01*
X10670376D01*
Y8768617D01*
X10672130D01*
Y8763355D01*
X10673884D01*
Y8759847D01*
X10675638D01*
Y8758093D01*
X10677392D01*
Y8756339D01*
X10679146D01*
Y8754585D01*
X10680900D01*
Y8752831D01*
X10684408D01*
Y8751077D01*
X10694932D01*
Y8752831D01*
X10698440D01*
Y8754585D01*
X10700194D01*
Y8756339D01*
X10701948D01*
Y8759847D01*
X10703702D01*
Y8761601D01*
X10705456D01*
Y8768617D01*
X10707210D01*
Y8772125D01*
X10710718D01*
Y8770371D01*
X10714226D01*
Y8768617D01*
X10717734D01*
Y8761601D01*
X10715980D01*
Y8756339D01*
X10714226D01*
Y8751077D01*
X10712472D01*
Y8747569D01*
X10710718D01*
Y8744061D01*
X10708964D01*
Y8740553D01*
X10707210D01*
Y8738799D01*
X10705456D01*
Y8737045D01*
X10703702D01*
Y8735291D01*
X10701948D01*
Y8733537D01*
X10698440D01*
Y8731783D01*
X10696686D01*
Y8730029D01*
X10691424D01*
Y8728275D01*
X10684408D01*
Y8726521D01*
X10673884D01*
Y8728275D01*
X10668622D01*
Y8730029D01*
X10663359D01*
Y8731783D01*
X10661606D01*
Y8733537D01*
X10659851D01*
Y8735291D01*
X10658098D01*
Y8737045D01*
X10656343D01*
Y8738799D01*
X10654589D01*
Y8740553D01*
X10652835D01*
Y8742307D01*
X10651081D01*
Y8745815D01*
X10649327D01*
Y8749323D01*
X10647573D01*
Y8754585D01*
X10645819D01*
Y8758093D01*
X10644065D01*
Y8765109D01*
X10642311D01*
Y8782649D01*
X10640557D01*
Y8793174D01*
X10642311D01*
Y8808960D01*
X10644065D01*
Y8815976D01*
X10645819D01*
Y8819484D01*
X10647573D01*
Y8824746D01*
X10649327D01*
Y8826500D01*
X10651081D01*
Y8830008D01*
X10652835D01*
Y8831762D01*
X10654589D01*
Y8833516D01*
X10656343D01*
Y8835270D01*
X10658098D01*
Y8837024D01*
X10659851D01*
Y8838778D01*
X10661606D01*
Y8840532D01*
X10665114D01*
Y8842286D01*
X10668622D01*
Y8844040D01*
X10675638D01*
Y8845794D01*
X10682654D01*
Y8844040D01*
D02*
G37*
G36*
X10630033Y8835270D02*
X10631787D01*
Y8819484D01*
X10633541D01*
Y8801944D01*
X10630033D01*
Y8800190D01*
X10624771D01*
Y8803698D01*
X10623017D01*
Y8807206D01*
X10621263D01*
Y8810714D01*
X10619509D01*
Y8814222D01*
X10617755D01*
Y8815976D01*
X10616001D01*
Y8817730D01*
X10612493D01*
Y8819484D01*
X10601969D01*
Y8817730D01*
X10598461D01*
Y8814222D01*
X10596707D01*
Y8805452D01*
X10598461D01*
Y8787912D01*
X10600215D01*
Y8784404D01*
X10605477D01*
Y8786157D01*
X10607231D01*
Y8787912D01*
X10608985D01*
Y8791420D01*
X10610739D01*
Y8800190D01*
X10616001D01*
Y8801944D01*
X10619509D01*
Y8789666D01*
X10621263D01*
Y8770371D01*
X10623017D01*
Y8756339D01*
X10619509D01*
Y8754585D01*
X10614247D01*
Y8759847D01*
X10612493D01*
Y8765109D01*
X10610739D01*
Y8766863D01*
X10601969D01*
Y8751077D01*
X10603723D01*
Y8737045D01*
X10605477D01*
Y8735291D01*
X10607231D01*
Y8733537D01*
X10614247D01*
Y8735291D01*
X10617755D01*
Y8737045D01*
X10621263D01*
Y8738799D01*
X10623017D01*
Y8742307D01*
X10624771D01*
Y8745815D01*
X10626525D01*
Y8749323D01*
X10628279D01*
Y8754585D01*
X10630033D01*
Y8763355D01*
X10640557D01*
Y8744061D01*
X10638803D01*
Y8723013D01*
X10635295D01*
Y8721259D01*
X10628279D01*
Y8719505D01*
X10619509D01*
Y8717751D01*
X10608985D01*
Y8715997D01*
X10603723D01*
Y8714243D01*
X10593199D01*
Y8712489D01*
X10586183D01*
Y8710735D01*
X10579167D01*
Y8708981D01*
X10572150D01*
Y8714243D01*
X10570396D01*
Y8723013D01*
X10572150D01*
Y8724767D01*
X10573904D01*
Y8726521D01*
X10575659D01*
Y8730029D01*
X10577412D01*
Y8744061D01*
X10575659D01*
Y8765109D01*
X10573904D01*
Y8775633D01*
X10572150D01*
Y8793174D01*
X10570396D01*
Y8807206D01*
X10568642D01*
Y8810714D01*
X10566888D01*
Y8812468D01*
X10565134D01*
Y8814222D01*
X10556364D01*
Y8812468D01*
X10554610D01*
Y8810714D01*
X10552856D01*
Y8805452D01*
X10551102D01*
Y8798436D01*
X10552856D01*
Y8784404D01*
X10554610D01*
Y8768617D01*
X10556364D01*
Y8756339D01*
X10558118D01*
Y8740553D01*
X10559872D01*
Y8728275D01*
X10561626D01*
Y8714243D01*
X10563380D01*
Y8705473D01*
X10558118D01*
Y8703718D01*
X10551102D01*
Y8701965D01*
X10545840D01*
Y8700210D01*
X10544086D01*
Y8701965D01*
X10542332D01*
Y8703718D01*
X10540578D01*
Y8705473D01*
X10538824D01*
Y8708981D01*
X10537070D01*
Y8710735D01*
X10535316D01*
Y8712489D01*
X10533562D01*
Y8714243D01*
X10531808D01*
Y8717751D01*
X10530054D01*
Y8719505D01*
X10528300D01*
Y8721259D01*
X10526546D01*
Y8723013D01*
X10524792D01*
Y8726521D01*
X10523038D01*
Y8728275D01*
X10521284D01*
Y8731783D01*
X10519530D01*
Y8733537D01*
X10517776D01*
Y8735291D01*
X10516022D01*
Y8737045D01*
X10514268D01*
Y8738799D01*
X10512514D01*
Y8742307D01*
X10510760D01*
Y8744061D01*
X10509006D01*
Y8745815D01*
X10507252D01*
Y8749323D01*
X10505498D01*
Y8751077D01*
X10503744D01*
Y8752831D01*
X10501990D01*
Y8754585D01*
X10500236D01*
Y8758093D01*
X10498482D01*
Y8759847D01*
X10496728D01*
Y8761601D01*
X10494973D01*
Y8763355D01*
X10493220D01*
Y8766863D01*
X10491465D01*
Y8768617D01*
X10489712D01*
Y8763355D01*
X10491465D01*
Y8751077D01*
X10493220D01*
Y8738799D01*
X10494973D01*
Y8726521D01*
X10496728D01*
Y8719505D01*
X10498482D01*
Y8712489D01*
X10500236D01*
Y8708981D01*
X10503744D01*
Y8707227D01*
X10509006D01*
Y8698457D01*
X10510760D01*
Y8691440D01*
X10507252D01*
Y8689686D01*
X10500236D01*
Y8687932D01*
X10494973D01*
Y8686178D01*
X10489712D01*
Y8684424D01*
X10484449D01*
Y8682670D01*
X10479187D01*
Y8689686D01*
X10477433D01*
Y8698457D01*
X10479187D01*
Y8700210D01*
X10480941D01*
Y8701965D01*
X10482695D01*
Y8707227D01*
X10484449D01*
Y8715997D01*
X10482695D01*
Y8723013D01*
X10480941D01*
Y8737045D01*
X10479187D01*
Y8749323D01*
X10477433D01*
Y8759847D01*
X10475679D01*
Y8770371D01*
X10473925D01*
Y8780896D01*
X10472171D01*
Y8787912D01*
X10470417D01*
Y8789666D01*
X10468663D01*
Y8793174D01*
X10465155D01*
Y8794928D01*
X10458139D01*
Y8793174D01*
X10456385D01*
Y8791420D01*
X10454631D01*
Y8789666D01*
X10452877D01*
Y8772125D01*
X10454631D01*
Y8759847D01*
X10456385D01*
Y8751077D01*
X10458139D01*
Y8740553D01*
X10459893D01*
Y8731783D01*
X10461647D01*
Y8721259D01*
X10463401D01*
Y8712489D01*
X10465155D01*
Y8701965D01*
X10466909D01*
Y8691440D01*
X10468663D01*
Y8680916D01*
X10470417D01*
Y8679162D01*
X10468663D01*
Y8677408D01*
X10461647D01*
Y8675654D01*
X10458139D01*
Y8673900D01*
X10452877D01*
Y8672146D01*
X10447615D01*
Y8673900D01*
X10445861D01*
Y8675654D01*
X10444107D01*
Y8677408D01*
X10442353D01*
Y8679162D01*
X10440599D01*
Y8682670D01*
X10437091D01*
Y8686178D01*
X10435337D01*
Y8687932D01*
X10433583D01*
Y8689686D01*
X10431829D01*
Y8691440D01*
X10430075D01*
Y8693194D01*
X10428321D01*
Y8694948D01*
X10426567D01*
Y8696702D01*
X10424813D01*
Y8698457D01*
X10423059D01*
Y8701965D01*
X10421305D01*
Y8703718D01*
X10419551D01*
Y8705473D01*
X10417797D01*
Y8707227D01*
X10416043D01*
Y8708981D01*
X10414289D01*
Y8710735D01*
X10412534D01*
Y8712489D01*
X10410781D01*
Y8714243D01*
X10409026D01*
Y8715997D01*
X10407273D01*
Y8717751D01*
X10405518D01*
Y8719505D01*
X10403764D01*
Y8721259D01*
X10402010D01*
Y8723013D01*
X10400256D01*
Y8726521D01*
X10398502D01*
Y8728275D01*
X10396748D01*
Y8730029D01*
X10394994D01*
Y8731783D01*
X10393240D01*
Y8733537D01*
X10391486D01*
Y8735291D01*
X10389732D01*
Y8737045D01*
X10387978D01*
Y8738799D01*
X10386224D01*
Y8735291D01*
X10387978D01*
Y8724767D01*
X10389732D01*
Y8715997D01*
X10391486D01*
Y8708981D01*
X10393240D01*
Y8701965D01*
X10394994D01*
Y8693194D01*
X10396748D01*
Y8684424D01*
X10398502D01*
Y8680916D01*
X10400256D01*
Y8679162D01*
X10402010D01*
Y8677408D01*
X10403764D01*
Y8675654D01*
X10410781D01*
Y8668638D01*
X10412534D01*
Y8658114D01*
X10409026D01*
Y8656360D01*
X10405518D01*
Y8654606D01*
X10400256D01*
Y8652852D01*
X10394994D01*
Y8651098D01*
X10389732D01*
Y8649344D01*
X10386224D01*
Y8647590D01*
X10380962D01*
Y8645836D01*
X10379208D01*
Y8652852D01*
X10377454D01*
Y8659868D01*
X10375700D01*
Y8663376D01*
X10377454D01*
Y8665130D01*
X10379208D01*
Y8666884D01*
X10380962D01*
Y8668638D01*
X10382716D01*
Y8686178D01*
X10380962D01*
Y8693194D01*
X10379208D01*
Y8700210D01*
X10377454D01*
Y8708981D01*
X10375700D01*
Y8714243D01*
X10373946D01*
Y8723013D01*
X10372192D01*
Y8731783D01*
X10370438D01*
Y8737045D01*
X10368684D01*
Y8747569D01*
X10366930D01*
Y8754585D01*
X10365176D01*
Y8758093D01*
X10363422D01*
Y8761601D01*
X10361668D01*
Y8763355D01*
X10358160D01*
Y8765109D01*
X10352898D01*
Y8766863D01*
X10351144D01*
Y8775633D01*
X10349390D01*
Y8782649D01*
X10352898D01*
Y8784404D01*
X10358160D01*
Y8786157D01*
X10363422D01*
Y8787912D01*
X10370438D01*
Y8789666D01*
X10375700D01*
Y8791420D01*
X10382716D01*
Y8793174D01*
X10391486D01*
Y8789666D01*
X10393240D01*
Y8787912D01*
X10394994D01*
Y8786157D01*
X10396748D01*
Y8784404D01*
X10398502D01*
Y8782649D01*
X10400256D01*
Y8780896D01*
X10402010D01*
Y8779141D01*
X10403764D01*
Y8777387D01*
X10405518D01*
Y8775633D01*
X10407273D01*
Y8772125D01*
X10409026D01*
Y8770371D01*
X10410781D01*
Y8768617D01*
X10412534D01*
Y8766863D01*
X10414289D01*
Y8765109D01*
X10416043D01*
Y8761601D01*
X10417797D01*
Y8759847D01*
X10419551D01*
Y8758093D01*
X10421305D01*
Y8756339D01*
X10423059D01*
Y8754585D01*
X10424813D01*
Y8752831D01*
X10426567D01*
Y8751077D01*
X10428321D01*
Y8749323D01*
X10430075D01*
Y8747569D01*
X10431829D01*
Y8744061D01*
X10433583D01*
Y8742307D01*
X10435337D01*
Y8740553D01*
X10437091D01*
Y8738799D01*
X10438845D01*
Y8737045D01*
X10440599D01*
Y8735291D01*
X10442353D01*
Y8733537D01*
X10444107D01*
Y8731783D01*
X10445861D01*
Y8735291D01*
X10444107D01*
Y8744061D01*
X10442353D01*
Y8754585D01*
X10440599D01*
Y8763355D01*
X10438845D01*
Y8773879D01*
X10437091D01*
Y8779141D01*
X10435337D01*
Y8782649D01*
X10433583D01*
Y8784404D01*
X10430075D01*
Y8786157D01*
X10424813D01*
Y8793174D01*
X10423059D01*
Y8803698D01*
X10430075D01*
Y8805452D01*
X10435337D01*
Y8807206D01*
X10442353D01*
Y8808960D01*
X10451123D01*
Y8810714D01*
X10456385D01*
Y8812468D01*
X10465155D01*
Y8814222D01*
X10472171D01*
Y8815976D01*
X10479187D01*
Y8817730D01*
X10489712D01*
Y8819484D01*
X10494973D01*
Y8817730D01*
X10496728D01*
Y8815976D01*
X10498482D01*
Y8814222D01*
X10500236D01*
Y8810714D01*
X10501990D01*
Y8808960D01*
X10503744D01*
Y8807206D01*
X10505498D01*
Y8803698D01*
X10507252D01*
Y8801944D01*
X10509006D01*
Y8800190D01*
X10510760D01*
Y8798436D01*
X10512514D01*
Y8794928D01*
X10514268D01*
Y8793174D01*
X10516022D01*
Y8791420D01*
X10517776D01*
Y8787912D01*
X10519530D01*
Y8786157D01*
X10521284D01*
Y8784404D01*
X10523038D01*
Y8780896D01*
X10524792D01*
Y8779141D01*
X10526546D01*
Y8777387D01*
X10528300D01*
Y8773879D01*
X10530054D01*
Y8772125D01*
X10531808D01*
Y8770371D01*
X10533562D01*
Y8766863D01*
X10535316D01*
Y8765109D01*
X10537070D01*
Y8763355D01*
X10538824D01*
Y8759847D01*
X10540578D01*
Y8758093D01*
X10542332D01*
Y8756339D01*
X10544086D01*
Y8759847D01*
X10542332D01*
Y8773879D01*
X10540578D01*
Y8787912D01*
X10538824D01*
Y8800190D01*
X10537070D01*
Y8803698D01*
X10535316D01*
Y8807206D01*
X10531808D01*
Y8808960D01*
X10528300D01*
Y8810714D01*
X10526546D01*
Y8821238D01*
X10524792D01*
Y8824746D01*
X10528300D01*
Y8826500D01*
X10538824D01*
Y8828254D01*
X10547594D01*
Y8830008D01*
X10559872D01*
Y8831762D01*
X10570396D01*
Y8833516D01*
X10586183D01*
Y8835270D01*
X10600215D01*
Y8837024D01*
X10612493D01*
Y8838778D01*
X10630033D01*
Y8835270D01*
D02*
G37*
G36*
X10945757Y8815976D02*
X10949265D01*
Y8814222D01*
X10952773D01*
Y8812468D01*
X10954527D01*
Y8810714D01*
X10956281D01*
Y8808960D01*
X10958035D01*
Y8810714D01*
X10965051D01*
Y8789666D01*
X10963297D01*
Y8780896D01*
X10958035D01*
Y8782649D01*
X10956281D01*
Y8791420D01*
X10954527D01*
Y8796682D01*
X10952773D01*
Y8800190D01*
X10951019D01*
Y8801944D01*
X10949265D01*
Y8803698D01*
X10942249D01*
Y8801944D01*
X10940495D01*
Y8798436D01*
X10938741D01*
Y8794928D01*
X10940495D01*
Y8789666D01*
X10942249D01*
Y8787912D01*
X10944003D01*
Y8786157D01*
X10945757D01*
Y8784404D01*
X10947511D01*
Y8782649D01*
X10949265D01*
Y8780896D01*
X10951019D01*
Y8779141D01*
X10952773D01*
Y8777387D01*
X10954527D01*
Y8775633D01*
X10956281D01*
Y8773879D01*
X10958035D01*
Y8770371D01*
X10959789D01*
Y8766863D01*
X10961543D01*
Y8759847D01*
X10963297D01*
Y8749323D01*
X10961543D01*
Y8740553D01*
X10959789D01*
Y8737045D01*
X10958035D01*
Y8733537D01*
X10956281D01*
Y8731783D01*
X10954527D01*
Y8728275D01*
X10951019D01*
Y8726521D01*
X10947511D01*
Y8724767D01*
X10938741D01*
Y8726521D01*
X10933479D01*
Y8728275D01*
X10931725D01*
Y8730029D01*
X10928217D01*
Y8731783D01*
X10924709D01*
Y8730029D01*
X10917693D01*
Y8751077D01*
X10919447D01*
Y8761601D01*
X10924709D01*
Y8758093D01*
X10926463D01*
Y8752831D01*
X10928217D01*
Y8747569D01*
X10929971D01*
Y8744061D01*
X10931725D01*
Y8742307D01*
X10933479D01*
Y8740553D01*
X10935233D01*
Y8738799D01*
X10938741D01*
Y8737045D01*
X10942249D01*
Y8738799D01*
X10944003D01*
Y8740553D01*
X10945757D01*
Y8751077D01*
X10944003D01*
Y8752831D01*
X10942249D01*
Y8754585D01*
X10940495D01*
Y8756339D01*
X10938741D01*
Y8758093D01*
X10936987D01*
Y8759847D01*
X10935233D01*
Y8761601D01*
X10933479D01*
Y8763355D01*
X10931725D01*
Y8765109D01*
X10929971D01*
Y8766863D01*
X10928217D01*
Y8770371D01*
X10926463D01*
Y8772125D01*
X10924709D01*
Y8777387D01*
X10922955D01*
Y8779141D01*
Y8784404D01*
X10921201D01*
Y8793174D01*
X10922955D01*
Y8800190D01*
X10924709D01*
Y8807206D01*
X10926463D01*
Y8808960D01*
X10928217D01*
Y8812468D01*
X10929971D01*
Y8814222D01*
X10931725D01*
Y8815976D01*
X10935233D01*
Y8817730D01*
X10945757D01*
Y8815976D01*
D02*
G37*
G36*
X10205560Y8961560D02*
X10210822D01*
Y8959806D01*
X10214330D01*
Y8958052D01*
X10237132D01*
Y8956298D01*
X10244148D01*
Y8954543D01*
X10251165D01*
Y8952790D01*
X10254673D01*
Y8951035D01*
X10256427D01*
Y8949282D01*
X10258181D01*
Y8947527D01*
X10261689D01*
Y8945773D01*
X10263443D01*
Y8944019D01*
X10265197D01*
Y8942265D01*
X10266951D01*
Y8938757D01*
X10268705D01*
Y8937003D01*
X10270459D01*
Y8931741D01*
X10272213D01*
Y8928233D01*
X10273967D01*
Y8915955D01*
Y8914201D01*
Y8894907D01*
X10272213D01*
Y8889645D01*
X10270459D01*
Y8884383D01*
X10268705D01*
Y8879121D01*
X10266951D01*
Y8875613D01*
X10265197D01*
Y8872104D01*
X10263443D01*
Y8868596D01*
X10261689D01*
Y8866843D01*
X10259935D01*
Y8863335D01*
X10258181D01*
Y8859826D01*
X10256427D01*
Y8858072D01*
X10254673D01*
Y8854564D01*
X10252919D01*
Y8852810D01*
X10251165D01*
Y8849302D01*
X10249411D01*
Y8847548D01*
X10247657D01*
Y8845794D01*
X10245903D01*
Y8842286D01*
X10244148D01*
Y8840532D01*
X10242395D01*
Y8838778D01*
X10240640D01*
Y8837024D01*
X10238887D01*
Y8833516D01*
X10237132D01*
Y8831762D01*
X10235378D01*
Y8830008D01*
X10233624D01*
Y8828254D01*
X10231870D01*
Y8826500D01*
X10230116D01*
Y8824746D01*
X10228362D01*
Y8822992D01*
X10226608D01*
Y8821238D01*
X10224854D01*
Y8819484D01*
X10223100D01*
Y8817730D01*
X10221346D01*
Y8815976D01*
X10219592D01*
Y8814222D01*
X10217838D01*
Y8812468D01*
X10216084D01*
Y8810714D01*
X10214330D01*
Y8808960D01*
X10212576D01*
Y8807206D01*
X10209068D01*
Y8805452D01*
X10207314D01*
Y8803698D01*
X10205560D01*
Y8801944D01*
X10202052D01*
Y8800190D01*
X10200298D01*
Y8798436D01*
X10198544D01*
Y8796682D01*
X10195036D01*
Y8794928D01*
X10193282D01*
Y8793174D01*
X10189774D01*
Y8791420D01*
X10188020D01*
Y8789666D01*
X10184512D01*
Y8787912D01*
X10182758D01*
Y8786157D01*
X10179250D01*
Y8784404D01*
X10173988D01*
Y8782649D01*
X10172234D01*
Y8780896D01*
X10166972D01*
Y8779141D01*
X10161709D01*
Y8777387D01*
X10154693D01*
Y8775633D01*
X10140661D01*
Y8777387D01*
X10133645D01*
Y8779141D01*
X10130137D01*
Y8780896D01*
X10126629D01*
Y8782649D01*
X10124875D01*
Y8784404D01*
X10121367D01*
Y8786157D01*
X10119613D01*
Y8787912D01*
X10117859D01*
Y8791420D01*
X10116105D01*
Y8793174D01*
X10114351D01*
Y8796682D01*
X10112597D01*
Y8801944D01*
X10110843D01*
Y8805452D01*
X10109089D01*
Y8819484D01*
X10107335D01*
Y8824746D01*
X10109089D01*
Y8838778D01*
X10110843D01*
Y8845794D01*
X10112597D01*
Y8852810D01*
X10114351D01*
Y8859826D01*
X10116105D01*
Y8865088D01*
X10117859D01*
Y8868596D01*
X10119613D01*
Y8873859D01*
X10121367D01*
Y8877367D01*
X10123121D01*
Y8880875D01*
X10124875D01*
Y8884383D01*
X10126629D01*
Y8887891D01*
X10128383D01*
Y8891399D01*
X10130137D01*
Y8894907D01*
X10131891D01*
Y8898415D01*
X10133645D01*
Y8901923D01*
X10135399D01*
Y8905431D01*
X10137153D01*
Y8908939D01*
X10138907D01*
Y8912447D01*
X10140661D01*
Y8914201D01*
X10142415D01*
Y8917709D01*
X10144169D01*
Y8919463D01*
X10145923D01*
Y8922971D01*
X10147677D01*
Y8926479D01*
X10149431D01*
Y8928233D01*
X10151185D01*
Y8931741D01*
X10152939D01*
Y8933495D01*
X10154693D01*
Y8935249D01*
X10156448D01*
Y8937003D01*
X10158201D01*
Y8938757D01*
X10159956D01*
Y8942265D01*
X10161709D01*
Y8944019D01*
X10163464D01*
Y8945773D01*
X10165218D01*
Y8947527D01*
X10166972D01*
Y8949282D01*
X10168726D01*
Y8951035D01*
X10172234D01*
Y8952790D01*
X10173988D01*
Y8954543D01*
X10177496D01*
Y8956298D01*
X10179250D01*
Y8958052D01*
X10182758D01*
Y8959806D01*
X10186266D01*
Y8961560D01*
X10191528D01*
Y8963314D01*
X10205560D01*
Y8961560D01*
D02*
G37*
G36*
X6086721Y8968295D02*
X6106626D01*
Y8965452D01*
X6118000D01*
Y8962608D01*
X6126531D01*
Y8959765D01*
X6132218D01*
Y8956921D01*
X6137906D01*
Y8954077D01*
X6140749D01*
Y8951234D01*
X6146437D01*
Y8948390D01*
X6149280D01*
Y8945546D01*
X6152124D01*
Y8942703D01*
X6154967D01*
Y8937016D01*
X6157811D01*
Y8931329D01*
X6160654D01*
Y8922798D01*
X6163498D01*
Y8908580D01*
X6166342D01*
Y8755025D01*
X6100939D01*
Y8760712D01*
Y8763556D01*
Y8774930D01*
X6098095D01*
Y8772087D01*
X6092408D01*
Y8769243D01*
X6089564D01*
Y8766400D01*
X6086721D01*
Y8763556D01*
X6081034D01*
Y8760712D01*
X6075346D01*
Y8757869D01*
X6069659D01*
Y8755025D01*
X6063972D01*
Y8752182D01*
X6052597D01*
Y8749338D01*
X6021318D01*
Y8752182D01*
X6009944D01*
Y8755025D01*
X6004256D01*
Y8757869D01*
X5998569D01*
Y8760712D01*
X5995726D01*
Y8763556D01*
X5992882D01*
Y8766400D01*
X5987195D01*
Y8769243D01*
X5984351D01*
Y8772087D01*
X5981507D01*
Y8777774D01*
X5978664D01*
Y8780618D01*
X5975820D01*
Y8786305D01*
X5972977D01*
Y8797679D01*
X5970133D01*
Y8834646D01*
X5972977D01*
Y8846020D01*
X5975820D01*
Y8851708D01*
X5978664D01*
Y8854551D01*
X5981507D01*
Y8860239D01*
X5987195D01*
Y8863082D01*
X5990038D01*
Y8865926D01*
X5992882D01*
Y8868769D01*
X5995726D01*
Y8871613D01*
X6001413D01*
Y8874456D01*
X6007100D01*
Y8877300D01*
X6012787D01*
Y8880144D01*
X6021318D01*
Y8882987D01*
X6032692D01*
Y8885831D01*
X6046910D01*
Y8888675D01*
X6063972D01*
Y8891518D01*
X6095252D01*
Y8894362D01*
X6100939D01*
Y8905736D01*
X6098095D01*
Y8911423D01*
X6095252D01*
Y8914267D01*
X6092408D01*
Y8917110D01*
X6089564D01*
Y8919954D01*
X6081034D01*
Y8922798D01*
X6061128D01*
Y8925641D01*
X6044067D01*
Y8922798D01*
X6027005D01*
Y8919954D01*
X6015631D01*
Y8917110D01*
X6007100D01*
Y8914267D01*
X5998569D01*
Y8911423D01*
X5992882D01*
Y8908580D01*
X5990038D01*
Y8911423D01*
X5987195D01*
Y8959765D01*
X5990038D01*
Y8962608D01*
X6001413D01*
Y8965452D01*
X6018474D01*
Y8968295D01*
X6041223D01*
Y8971139D01*
X6086721D01*
Y8968295D01*
D02*
G37*
G36*
X5492408Y9030855D02*
X5529375D01*
Y9028011D01*
X5540749D01*
Y9025167D01*
X5549280D01*
Y9022324D01*
X5554967D01*
Y9019480D01*
X5557811D01*
Y9016637D01*
X5563498D01*
Y9013793D01*
X5566341D01*
Y9010949D01*
X5569185D01*
Y9008106D01*
X5572029D01*
Y9005262D01*
X5574872D01*
Y9002419D01*
X5577716D01*
Y8996731D01*
X5580560D01*
Y8988201D01*
X5583403D01*
Y8973983D01*
X5586247D01*
Y8962608D01*
X5583403D01*
Y8948390D01*
X5580560D01*
Y8939859D01*
X5577716D01*
Y8934172D01*
X5574872D01*
Y8928485D01*
X5572029D01*
Y8925641D01*
X5569185D01*
Y8922798D01*
X5566341D01*
Y8919954D01*
X5563498D01*
Y8917110D01*
X5557811D01*
Y8914267D01*
X5554967D01*
Y8911423D01*
X5549280D01*
Y8905736D01*
X5557811D01*
Y8902893D01*
X5566341D01*
Y8900049D01*
X5572029D01*
Y8897205D01*
X5574872D01*
Y8894362D01*
X5580560D01*
Y8891518D01*
X5583403D01*
Y8888675D01*
X5586247D01*
Y8885831D01*
X5589090D01*
Y8880144D01*
X5591934D01*
Y8877300D01*
X5594777D01*
Y8868769D01*
X5597621D01*
Y8806210D01*
X5594777D01*
Y8800523D01*
X5591934D01*
Y8794836D01*
X5589090D01*
Y8791992D01*
X5586247D01*
Y8786305D01*
X5583403D01*
Y8783461D01*
X5580560D01*
Y8780618D01*
X5577716D01*
Y8777774D01*
X5574872D01*
Y8774930D01*
X5569185D01*
Y8772087D01*
X5566341D01*
Y8769243D01*
X5560654D01*
Y8766400D01*
X5554967D01*
Y8763556D01*
X5546436D01*
Y8760712D01*
X5537906D01*
Y8757869D01*
X5523687D01*
Y8755025D01*
X5381507D01*
Y9030855D01*
X5384351D01*
Y9033698D01*
X5492408D01*
Y9030855D01*
D02*
G37*
G36*
X5043119Y9025167D02*
X5057337D01*
Y9022324D01*
X5065867D01*
Y9019480D01*
X5071555D01*
Y9016637D01*
X5077242D01*
Y9013793D01*
X5080085D01*
Y9010949D01*
X5082929D01*
Y9008106D01*
X5085773D01*
Y9005262D01*
X5088616D01*
Y9002419D01*
X5091460D01*
Y8999575D01*
X5094304D01*
Y8996731D01*
X5097147D01*
Y8993888D01*
X5099991D01*
Y8988201D01*
X5102834D01*
Y8979670D01*
X5105678D01*
Y8971139D01*
X5108521D01*
Y8954077D01*
X5111365D01*
Y8934172D01*
X5108521D01*
Y8917110D01*
X5105678D01*
Y8908580D01*
X5102834D01*
Y8902893D01*
X5099991D01*
Y8897205D01*
X5097147D01*
Y8894362D01*
X5094304D01*
Y8888675D01*
X5091460D01*
Y8885831D01*
X5088616D01*
Y8882987D01*
X5085773D01*
Y8880144D01*
X5082929D01*
Y8877300D01*
X5077242D01*
Y8874456D01*
X5074398D01*
Y8871613D01*
X5068711D01*
Y8868769D01*
X5063024D01*
Y8865926D01*
X5057337D01*
Y8863082D01*
X5045962D01*
Y8860239D01*
X5008995D01*
Y8857395D01*
X4954967D01*
Y8755025D01*
X4900938D01*
Y8772087D01*
Y8774930D01*
Y9028011D01*
X5043119D01*
Y9025167D01*
D02*
G37*
G36*
X10763339Y8842286D02*
X10782633D01*
Y8840532D01*
X10784387D01*
Y8812468D01*
X10786141D01*
Y8801944D01*
X10787895D01*
Y8810714D01*
X10789649D01*
Y8815976D01*
X10791403D01*
Y8821238D01*
X10793157D01*
Y8824746D01*
X10794911D01*
Y8826500D01*
X10796665D01*
Y8830008D01*
X10798419D01*
Y8831762D01*
X10800173D01*
Y8833516D01*
X10801927D01*
Y8835270D01*
X10803681D01*
Y8837024D01*
X10807189D01*
Y8838778D01*
X10812451D01*
Y8840532D01*
X10826484D01*
Y8838778D01*
X10831745D01*
Y8837024D01*
X10835254D01*
Y8835270D01*
X10837008D01*
Y8833516D01*
X10840516D01*
Y8831762D01*
X10842270D01*
Y8830008D01*
X10844024D01*
Y8826500D01*
X10845778D01*
Y8824746D01*
X10847532D01*
Y8821238D01*
X10849286D01*
Y8817730D01*
X10851040D01*
Y8812468D01*
X10852794D01*
Y8803698D01*
X10854548D01*
Y8773879D01*
X10852794D01*
Y8765109D01*
X10851040D01*
Y8759847D01*
X10849286D01*
Y8756339D01*
X10847532D01*
Y8752831D01*
X10845778D01*
Y8749323D01*
X10844024D01*
Y8747569D01*
X10842270D01*
Y8745815D01*
X10840516D01*
Y8744061D01*
X10838762D01*
Y8742307D01*
X10837008D01*
Y8740553D01*
X10835254D01*
Y8738799D01*
X10829992D01*
Y8737045D01*
X10810697D01*
Y8738799D01*
X10805435D01*
Y8740553D01*
X10803681D01*
Y8742307D01*
X10801927D01*
Y8744061D01*
X10800173D01*
Y8745815D01*
X10798419D01*
Y8747569D01*
X10796665D01*
Y8749323D01*
X10794911D01*
Y8752831D01*
X10793157D01*
Y8756339D01*
X10791403D01*
Y8759847D01*
X10789649D01*
Y8766863D01*
X10787895D01*
Y8775633D01*
X10786141D01*
Y8801944D01*
X10780879D01*
Y8800190D01*
X10775617D01*
Y8810714D01*
X10773863D01*
Y8815976D01*
X10772109D01*
Y8821238D01*
X10770355D01*
Y8822992D01*
X10768601D01*
Y8824746D01*
X10766847D01*
Y8826500D01*
X10763339D01*
Y8756339D01*
X10765093D01*
Y8752831D01*
X10766847D01*
Y8751077D01*
X10770355D01*
Y8737045D01*
X10744045D01*
Y8735291D01*
X10733520D01*
Y8749323D01*
X10737028D01*
Y8751077D01*
X10738782D01*
Y8752831D01*
X10740537D01*
Y8784404D01*
Y8786157D01*
Y8826500D01*
X10738782D01*
Y8828254D01*
X10737028D01*
Y8826500D01*
X10735274D01*
Y8824746D01*
X10733520D01*
Y8822992D01*
X10731766D01*
Y8819484D01*
X10730012D01*
Y8814222D01*
X10728258D01*
Y8805452D01*
X10726504D01*
Y8800190D01*
X10717734D01*
Y8801944D01*
X10715980D01*
Y8817730D01*
X10717734D01*
Y8844040D01*
X10763339D01*
Y8842286D01*
D02*
G37*
G36*
X10865072Y8831762D02*
X10873842D01*
Y8830008D01*
X10884366D01*
Y8828254D01*
X10891382D01*
Y8826500D01*
X10898398D01*
Y8824746D01*
X10903660D01*
Y8822992D01*
X10907168D01*
Y8821238D01*
X10908923D01*
Y8819484D01*
X10910676D01*
Y8817730D01*
X10912431D01*
Y8814222D01*
X10914184D01*
Y8808960D01*
X10915939D01*
Y8791420D01*
X10914184D01*
Y8786157D01*
X10912431D01*
Y8782649D01*
X10910676D01*
Y8780896D01*
X10908923D01*
Y8779141D01*
X10907168D01*
Y8777387D01*
X10901906D01*
Y8775633D01*
X10898398D01*
Y8773879D01*
X10901906D01*
Y8770371D01*
X10903660D01*
Y8766863D01*
X10905414D01*
Y8763355D01*
X10907168D01*
Y8756339D01*
X10908923D01*
Y8751077D01*
X10910676D01*
Y8749323D01*
X10912431D01*
Y8747569D01*
X10915939D01*
Y8737045D01*
X10914184D01*
Y8735291D01*
X10912431D01*
Y8733537D01*
X10910676D01*
Y8731783D01*
X10898398D01*
Y8733537D01*
X10894890D01*
Y8737045D01*
X10893136D01*
Y8742307D01*
X10891382D01*
Y8749323D01*
X10889628D01*
Y8761601D01*
Y8763355D01*
Y8765109D01*
X10887874D01*
Y8770371D01*
X10886120D01*
Y8772125D01*
X10880858D01*
Y8749323D01*
X10882612D01*
Y8747569D01*
X10884366D01*
Y8735291D01*
X10872088D01*
Y8737045D01*
X10854548D01*
Y8749323D01*
X10858056D01*
Y8751077D01*
X10859810D01*
Y8754585D01*
X10861564D01*
Y8775633D01*
X10863318D01*
Y8817730D01*
X10861564D01*
Y8819484D01*
X10859810D01*
Y8821238D01*
X10858056D01*
Y8833516D01*
X10865072D01*
Y8831762D01*
D02*
G37*
G36*
X10214330Y8752831D02*
X10216084D01*
Y8747569D01*
X10217838D01*
Y8742307D01*
X10219592D01*
Y8738799D01*
X10221346D01*
Y8735291D01*
X10223100D01*
Y8730029D01*
X10224854D01*
Y8726521D01*
X10226608D01*
Y8721259D01*
X10228362D01*
Y8715997D01*
X10230116D01*
Y8712489D01*
X10231870D01*
Y8707227D01*
X10233624D01*
Y8703718D01*
X10235378D01*
Y8698457D01*
X10237132D01*
Y8694948D01*
X10238887D01*
Y8689686D01*
X10237132D01*
Y8687932D01*
X10235378D01*
Y8686178D01*
X10231870D01*
Y8684424D01*
X10230116D01*
Y8682670D01*
X10228362D01*
Y8680916D01*
X10226608D01*
Y8679162D01*
X10223100D01*
Y8677408D01*
X10221346D01*
Y8680916D01*
X10219592D01*
Y8682670D01*
X10217838D01*
Y8686178D01*
X10216084D01*
Y8687932D01*
X10214330D01*
Y8691440D01*
X10212576D01*
Y8693194D01*
X10210822D01*
Y8694948D01*
X10209068D01*
Y8696702D01*
X10207314D01*
Y8698457D01*
X10205560D01*
Y8700210D01*
X10203806D01*
Y8701965D01*
X10202052D01*
Y8703718D01*
X10198544D01*
Y8705473D01*
X10196790D01*
Y8707227D01*
X10193282D01*
Y8708981D01*
X10188020D01*
Y8710735D01*
X10172234D01*
Y8708981D01*
X10166972D01*
Y8707227D01*
X10163464D01*
Y8705473D01*
X10161709D01*
Y8703718D01*
X10159956D01*
Y8701965D01*
X10158201D01*
Y8700210D01*
X10156448D01*
Y8696702D01*
X10154693D01*
Y8694948D01*
X10152939D01*
Y8691440D01*
X10151185D01*
Y8686178D01*
X10149431D01*
Y8675654D01*
X10147677D01*
Y8663376D01*
X10149431D01*
Y8649344D01*
X10151185D01*
Y8642328D01*
X10152939D01*
Y8637066D01*
X10154693D01*
Y8631804D01*
X10156448D01*
Y8626542D01*
X10158201D01*
Y8621279D01*
X10159956D01*
Y8617771D01*
X10161709D01*
Y8614263D01*
X10163464D01*
Y8610755D01*
X10165218D01*
Y8607247D01*
X10166972D01*
Y8603739D01*
X10168726D01*
Y8601985D01*
X10170480D01*
Y8600231D01*
X10172234D01*
Y8596723D01*
X10173988D01*
Y8594969D01*
X10175742D01*
Y8593215D01*
X10177496D01*
Y8591461D01*
X10179250D01*
Y8589707D01*
X10181004D01*
Y8587953D01*
X10182758D01*
Y8586199D01*
X10184512D01*
Y8584445D01*
X10188020D01*
Y8582691D01*
X10191528D01*
Y8580937D01*
X10198544D01*
Y8579183D01*
X10209068D01*
Y8580937D01*
X10216084D01*
Y8582691D01*
X10219592D01*
Y8584445D01*
X10223100D01*
Y8586199D01*
X10224854D01*
Y8587953D01*
X10226608D01*
Y8589707D01*
X10228362D01*
Y8591461D01*
X10230116D01*
Y8593215D01*
X10231870D01*
Y8596723D01*
X10233624D01*
Y8598477D01*
X10235378D01*
Y8601985D01*
X10237132D01*
Y8607247D01*
X10238887D01*
Y8614263D01*
X10240640D01*
Y8631804D01*
X10263443D01*
Y8601985D01*
X10261689D01*
Y8591461D01*
X10259935D01*
Y8586199D01*
X10258181D01*
Y8582691D01*
X10256427D01*
Y8577429D01*
X10254673D01*
Y8573921D01*
X10252919D01*
Y8570413D01*
X10251165D01*
Y8568659D01*
X10249411D01*
Y8565151D01*
X10247657D01*
Y8563397D01*
X10245903D01*
Y8559889D01*
X10244148D01*
Y8558135D01*
X10242395D01*
Y8556381D01*
X10240640D01*
Y8554627D01*
X10238887D01*
Y8552873D01*
X10237132D01*
Y8551119D01*
X10235378D01*
Y8549365D01*
X10231870D01*
Y8547611D01*
X10230116D01*
Y8545857D01*
X10228362D01*
Y8544103D01*
X10224854D01*
Y8542349D01*
X10223100D01*
Y8540595D01*
X10219592D01*
Y8538841D01*
X10214330D01*
Y8537087D01*
X10210822D01*
Y8535332D01*
X10207314D01*
Y8533579D01*
X10202052D01*
Y8531824D01*
X10195036D01*
Y8530071D01*
X10168726D01*
Y8531824D01*
X10161709D01*
Y8533579D01*
X10158201D01*
Y8535332D01*
X10152939D01*
Y8537087D01*
X10151185D01*
Y8538841D01*
X10147677D01*
Y8540595D01*
X10144169D01*
Y8542349D01*
X10142415D01*
Y8544103D01*
X10140661D01*
Y8545857D01*
X10137153D01*
Y8547611D01*
X10135399D01*
Y8551119D01*
X10133645D01*
Y8552873D01*
X10131891D01*
Y8554627D01*
X10130137D01*
Y8556381D01*
X10128383D01*
Y8558135D01*
X10126629D01*
Y8561643D01*
X10124875D01*
Y8563397D01*
X10123121D01*
Y8566905D01*
X10121367D01*
Y8568659D01*
X10119613D01*
Y8572167D01*
X10117859D01*
Y8575675D01*
X10116105D01*
Y8579183D01*
X10114351D01*
Y8584445D01*
X10112597D01*
Y8586199D01*
X10110843D01*
Y8591461D01*
X10109089D01*
Y8594969D01*
X10107335D01*
Y8600231D01*
X10105581D01*
Y8605493D01*
X10103827D01*
Y8612510D01*
X10102073D01*
Y8621279D01*
X10100319D01*
Y8635312D01*
X10098565D01*
Y8658114D01*
X10100319D01*
Y8672146D01*
X10102073D01*
Y8679162D01*
X10103827D01*
Y8684424D01*
X10105581D01*
Y8689686D01*
X10107335D01*
Y8693194D01*
X10109089D01*
Y8696702D01*
X10110843D01*
Y8700210D01*
X10112597D01*
Y8701965D01*
X10114351D01*
Y8705473D01*
X10116105D01*
Y8707227D01*
X10117859D01*
Y8710735D01*
X10119613D01*
Y8712489D01*
X10121367D01*
Y8714243D01*
X10123121D01*
Y8715997D01*
X10124875D01*
Y8717751D01*
X10126629D01*
Y8719505D01*
X10128383D01*
Y8721259D01*
X10130137D01*
Y8723013D01*
X10133645D01*
Y8724767D01*
X10135399D01*
Y8726521D01*
X10137153D01*
Y8728275D01*
X10140661D01*
Y8730029D01*
X10142415D01*
Y8731783D01*
X10145923D01*
Y8733537D01*
X10151185D01*
Y8735291D01*
X10156448D01*
Y8737045D01*
X10163464D01*
Y8738799D01*
X10191528D01*
Y8740553D01*
X10193282D01*
Y8742307D01*
X10195036D01*
Y8747569D01*
X10193282D01*
Y8749323D01*
X10198544D01*
Y8751077D01*
X10202052D01*
Y8752831D01*
X10205560D01*
Y8754585D01*
X10210822D01*
Y8756339D01*
X10214330D01*
Y8752831D01*
D02*
G37*
G36*
X10317817Y8766863D02*
X10323079D01*
Y8765109D01*
X10326587D01*
Y8763355D01*
X10330095D01*
Y8761601D01*
X10333604D01*
Y8759847D01*
X10335358D01*
Y8758093D01*
X10338866D01*
Y8754585D01*
X10340620D01*
Y8752831D01*
X10342374D01*
Y8751077D01*
X10344128D01*
Y8749323D01*
X10345882D01*
Y8747569D01*
X10347636D01*
Y8744061D01*
X10349390D01*
Y8740553D01*
X10351144D01*
Y8738799D01*
X10352898D01*
Y8735291D01*
X10354652D01*
Y8730029D01*
X10356406D01*
Y8724767D01*
X10358160D01*
Y8721259D01*
X10359914D01*
Y8715997D01*
X10361668D01*
Y8707227D01*
X10363422D01*
Y8696702D01*
X10365176D01*
Y8672146D01*
X10363422D01*
Y8665130D01*
X10361668D01*
Y8658114D01*
X10359914D01*
Y8652852D01*
X10358160D01*
Y8649344D01*
X10356406D01*
Y8645836D01*
X10354652D01*
Y8642328D01*
X10352898D01*
Y8640574D01*
X10351144D01*
Y8638820D01*
X10349390D01*
Y8637066D01*
X10347636D01*
Y8635312D01*
X10345882D01*
Y8633558D01*
X10344128D01*
Y8631804D01*
X10342374D01*
Y8630050D01*
X10340620D01*
Y8628296D01*
X10338866D01*
Y8626542D01*
X10335358D01*
Y8624788D01*
X10333604D01*
Y8623034D01*
X10330095D01*
Y8621279D01*
X10326587D01*
Y8619526D01*
X10321325D01*
Y8617771D01*
X10316063D01*
Y8616018D01*
X10293261D01*
Y8617771D01*
X10287999D01*
Y8619526D01*
X10284491D01*
Y8621279D01*
X10280983D01*
Y8623034D01*
X10279229D01*
Y8624788D01*
X10277475D01*
Y8626542D01*
X10273967D01*
Y8628296D01*
X10272213D01*
Y8630050D01*
X10270459D01*
Y8633558D01*
X10268705D01*
Y8635312D01*
X10266951D01*
Y8637066D01*
X10265197D01*
Y8640574D01*
X10263443D01*
Y8642328D01*
X10261689D01*
Y8645836D01*
X10259935D01*
Y8649344D01*
X10258181D01*
Y8652852D01*
X10256427D01*
Y8654606D01*
Y8656360D01*
X10254673D01*
Y8661622D01*
X10252919D01*
Y8666884D01*
X10251165D01*
Y8672146D01*
X10249411D01*
Y8682670D01*
X10247657D01*
Y8693194D01*
X10245903D01*
Y8710735D01*
X10247657D01*
Y8721259D01*
X10249411D01*
Y8728275D01*
X10251165D01*
Y8731783D01*
X10252919D01*
Y8737045D01*
X10254673D01*
Y8738799D01*
X10256427D01*
Y8742307D01*
X10258181D01*
Y8745815D01*
X10259935D01*
Y8747569D01*
X10261689D01*
Y8749323D01*
X10263443D01*
Y8751077D01*
X10265197D01*
Y8752831D01*
X10266951D01*
Y8754585D01*
X10268705D01*
Y8756339D01*
X10270459D01*
Y8758093D01*
X10273967D01*
Y8759847D01*
X10277475D01*
Y8761601D01*
X10279229D01*
Y8763355D01*
X10284491D01*
Y8765109D01*
X10287999D01*
Y8766863D01*
X10295015D01*
Y8768617D01*
X10317817D01*
Y8766863D01*
D02*
G37*
%LPC*%
G36*
X10565134Y9098373D02*
X10559872D01*
Y9096619D01*
X10558118D01*
Y9094865D01*
X10556364D01*
Y9079079D01*
X10558118D01*
Y9075571D01*
X10559872D01*
Y9073817D01*
X10565134D01*
Y9075571D01*
X10566888D01*
Y9079079D01*
X10568642D01*
Y9093111D01*
X10566888D01*
Y9096619D01*
X10565134D01*
Y9098373D01*
D02*
G37*
G36*
X10449369Y9075571D02*
X10444107D01*
Y9073817D01*
X10442353D01*
Y9068555D01*
X10440599D01*
Y9058031D01*
X10442353D01*
Y9052769D01*
X10444107D01*
Y9051015D01*
X10451123D01*
Y9052769D01*
X10452877D01*
Y9059785D01*
X10454631D01*
Y9065047D01*
X10452877D01*
Y9070309D01*
Y9072063D01*
X10451123D01*
Y9073817D01*
X10449369D01*
Y9075571D01*
D02*
G37*
G36*
X10323079Y9049261D02*
X10317817D01*
Y9047507D01*
X10316063D01*
Y9036982D01*
X10323079D01*
Y9038737D01*
X10324834D01*
Y9042245D01*
Y9043999D01*
Y9047507D01*
X10323079D01*
Y9049261D01*
D02*
G37*
G36*
X10280983Y9036982D02*
X10279229D01*
Y9031721D01*
X10277475D01*
Y9026458D01*
Y9024704D01*
X10280983D01*
Y9026458D01*
X10284491D01*
Y9031721D01*
X10282737D01*
Y9035229D01*
X10280983D01*
Y9036982D01*
D02*
G37*
G36*
X10712472Y9038737D02*
X10710718D01*
Y9035229D01*
X10708964D01*
Y9031721D01*
X10707210D01*
Y9028212D01*
X10705456D01*
Y9022950D01*
X10703702D01*
Y9019442D01*
X10701948D01*
Y9015934D01*
X10700194D01*
Y9012426D01*
X10698440D01*
Y9008918D01*
X10696686D01*
Y9003656D01*
X10694932D01*
Y9000148D01*
X10696686D01*
Y9001902D01*
X10700194D01*
Y9003656D01*
X10705456D01*
Y9005410D01*
X10708964D01*
Y9007164D01*
X10714226D01*
Y9008918D01*
X10719488D01*
Y9015934D01*
X10717734D01*
Y9022950D01*
X10715980D01*
Y9028212D01*
X10714226D01*
Y9035229D01*
X10712472D01*
Y9038737D01*
D02*
G37*
G36*
X10356406Y8933495D02*
X10342374D01*
Y8931741D01*
X10338866D01*
Y8929987D01*
X10337112D01*
Y8928233D01*
X10335358D01*
Y8926479D01*
X10333604D01*
Y8924725D01*
X10321325D01*
Y8922971D01*
X10319571D01*
Y8919463D01*
X10317817D01*
Y8917709D01*
X10316063D01*
Y8914201D01*
X10314309D01*
Y8912447D01*
X10312555D01*
Y8908939D01*
X10310801D01*
Y8905431D01*
X10309047D01*
Y8901923D01*
X10307293D01*
Y8898415D01*
X10305539D01*
Y8893153D01*
X10303785D01*
Y8887891D01*
X10302031D01*
Y8882629D01*
X10300277D01*
Y8870351D01*
X10298523D01*
Y8866843D01*
X10300277D01*
Y8858072D01*
X10302031D01*
Y8856318D01*
X10303785D01*
Y8854564D01*
X10305539D01*
Y8852810D01*
X10317817D01*
Y8854564D01*
X10321325D01*
Y8856318D01*
X10324834D01*
Y8858072D01*
X10328342D01*
Y8859826D01*
X10331850D01*
Y8861580D01*
X10335358D01*
Y8863335D01*
X10337112D01*
Y8865088D01*
X10338866D01*
Y8866843D01*
X10340620D01*
Y8868596D01*
X10342374D01*
Y8870351D01*
X10344128D01*
Y8872104D01*
X10345882D01*
Y8873859D01*
X10347636D01*
Y8875613D01*
X10349390D01*
Y8877367D01*
X10351144D01*
Y8879121D01*
X10352898D01*
Y8880875D01*
X10354652D01*
Y8882629D01*
X10356406D01*
Y8886137D01*
X10358160D01*
Y8887891D01*
X10359914D01*
Y8889645D01*
X10361668D01*
Y8891399D01*
X10363422D01*
Y8894907D01*
X10365176D01*
Y8898415D01*
X10366930D01*
Y8901923D01*
X10368684D01*
Y8905431D01*
X10370438D01*
Y8908939D01*
X10372192D01*
Y8914201D01*
X10373946D01*
Y8919463D01*
X10372192D01*
Y8924725D01*
X10370438D01*
Y8926479D01*
X10368684D01*
Y8928233D01*
X10366930D01*
Y8929987D01*
X10363422D01*
Y8931741D01*
X10356406D01*
Y8933495D01*
D02*
G37*
G36*
X10445861Y8984362D02*
X10433583D01*
Y8980854D01*
X10431829D01*
Y8966822D01*
X10430075D01*
Y8958052D01*
X10428321D01*
Y8942265D01*
X10426567D01*
Y8931741D01*
X10428321D01*
Y8933495D01*
X10430075D01*
Y8935249D01*
X10431829D01*
Y8937003D01*
X10433583D01*
Y8938757D01*
X10435337D01*
Y8940511D01*
X10437091D01*
Y8942265D01*
X10438845D01*
Y8944019D01*
X10440599D01*
Y8945773D01*
X10442353D01*
Y8947527D01*
X10444107D01*
Y8949282D01*
X10445861D01*
Y8951035D01*
X10447615D01*
Y8952790D01*
X10449369D01*
Y8954543D01*
X10451123D01*
Y8956298D01*
X10452877D01*
Y8958052D01*
X10454631D01*
Y8961560D01*
X10456385D01*
Y8965068D01*
X10458139D01*
Y8975592D01*
X10456385D01*
Y8977346D01*
X10454631D01*
Y8979100D01*
X10452877D01*
Y8980854D01*
X10451123D01*
Y8982608D01*
X10445861D01*
Y8984362D01*
D02*
G37*
G36*
X10226608Y8933495D02*
X10210822D01*
Y8931741D01*
X10198544D01*
Y8929987D01*
X10195036D01*
Y8928233D01*
X10193282D01*
Y8926479D01*
X10191528D01*
Y8922971D01*
X10188020D01*
Y8921217D01*
X10186266D01*
Y8919463D01*
X10184512D01*
Y8917709D01*
X10179250D01*
Y8915955D01*
X10173988D01*
Y8917709D01*
X10168726D01*
Y8915955D01*
X10166972D01*
Y8914201D01*
X10165218D01*
Y8912447D01*
X10163464D01*
Y8908939D01*
X10161709D01*
Y8907185D01*
X10159956D01*
Y8903677D01*
X10158201D01*
Y8900169D01*
X10156448D01*
Y8898415D01*
X10154693D01*
Y8894907D01*
X10152939D01*
Y8891399D01*
X10151185D01*
Y8887891D01*
X10149431D01*
Y8884383D01*
X10147677D01*
Y8882629D01*
X10145923D01*
Y8877367D01*
X10144169D01*
Y8872104D01*
X10142415D01*
Y8866843D01*
X10140661D01*
Y8861580D01*
X10138907D01*
Y8854564D01*
X10137153D01*
Y8844040D01*
X10135399D01*
Y8815976D01*
X10137153D01*
Y8810714D01*
X10138907D01*
Y8807206D01*
X10140661D01*
Y8805452D01*
X10142415D01*
Y8803698D01*
X10161709D01*
Y8805452D01*
X10166972D01*
Y8807206D01*
X10172234D01*
Y8808960D01*
X10175742D01*
Y8810714D01*
X10179250D01*
Y8812468D01*
X10181004D01*
Y8814222D01*
X10184512D01*
Y8815976D01*
X10186266D01*
Y8817730D01*
X10189774D01*
Y8819484D01*
X10191528D01*
Y8821238D01*
X10195036D01*
Y8822992D01*
X10196790D01*
Y8824746D01*
X10198544D01*
Y8826500D01*
X10200298D01*
Y8828254D01*
X10202052D01*
Y8830008D01*
X10203806D01*
Y8831762D01*
X10205560D01*
Y8833516D01*
X10207314D01*
Y8835270D01*
X10209068D01*
Y8837024D01*
X10210822D01*
Y8838778D01*
X10212576D01*
Y8840532D01*
X10214330D01*
Y8842286D01*
X10216084D01*
Y8844040D01*
X10217838D01*
Y8845794D01*
X10219592D01*
Y8847548D01*
X10221346D01*
Y8849302D01*
X10223100D01*
Y8852810D01*
X10224854D01*
Y8854564D01*
X10226608D01*
Y8858072D01*
X10228362D01*
Y8859826D01*
X10230116D01*
Y8863335D01*
X10231870D01*
Y8865088D01*
X10233624D01*
Y8866843D01*
X10235378D01*
Y8870351D01*
X10237132D01*
Y8873859D01*
X10238887D01*
Y8875613D01*
X10240640D01*
Y8879121D01*
X10242395D01*
Y8882629D01*
X10244148D01*
Y8886137D01*
X10245903D01*
Y8889645D01*
X10247657D01*
Y8893153D01*
X10249411D01*
Y8901923D01*
X10251165D01*
Y8910693D01*
X10249411D01*
Y8917709D01*
X10247657D01*
Y8921217D01*
X10245903D01*
Y8922971D01*
X10244148D01*
Y8924725D01*
X10242395D01*
Y8926479D01*
X10240640D01*
Y8928233D01*
X10237132D01*
Y8929987D01*
X10233624D01*
Y8931741D01*
X10226608D01*
Y8933495D01*
D02*
G37*
G36*
X6100939Y8854551D02*
X6095252D01*
Y8851708D01*
X6069659D01*
Y8848864D01*
X6058285D01*
Y8846020D01*
X6049754D01*
Y8843177D01*
X6046910D01*
Y8840333D01*
X6044067D01*
Y8837490D01*
X6041223D01*
Y8834646D01*
X6038380D01*
Y8828959D01*
X6035536D01*
Y8811897D01*
X6038380D01*
Y8806210D01*
X6041223D01*
Y8800523D01*
X6046910D01*
Y8797679D01*
X6055441D01*
Y8794836D01*
X6075346D01*
Y8797679D01*
X6086721D01*
Y8800523D01*
X6089564D01*
Y8803366D01*
X6095252D01*
Y8806210D01*
X6098095D01*
Y8809054D01*
X6100939D01*
Y8854551D01*
D02*
G37*
G36*
X5486721Y8982513D02*
X5452597D01*
Y8979670D01*
X5449754D01*
Y8922798D01*
X5492408D01*
Y8925641D01*
X5500939D01*
Y8928485D01*
X5503782D01*
Y8931329D01*
X5506626D01*
Y8934172D01*
X5509470D01*
Y8939859D01*
X5512313D01*
Y8951234D01*
X5515157D01*
Y8956921D01*
X5512313D01*
Y8965452D01*
X5509470D01*
Y8971139D01*
X5506626D01*
Y8973983D01*
X5503782D01*
Y8976826D01*
X5498095D01*
Y8979670D01*
X5486721D01*
Y8982513D01*
D02*
G37*
G36*
X5506626Y8874456D02*
X5449754D01*
Y8806210D01*
X5503782D01*
Y8809054D01*
X5512313D01*
Y8811897D01*
X5518000D01*
Y8814741D01*
X5523687D01*
Y8817584D01*
X5526531D01*
Y8823272D01*
X5529375D01*
Y8831803D01*
X5532218D01*
Y8851708D01*
X5529375D01*
Y8860239D01*
X5526531D01*
Y8863082D01*
X5523687D01*
Y8865926D01*
X5520844D01*
Y8868769D01*
X5515157D01*
Y8871613D01*
X5506626D01*
Y8874456D01*
D02*
G37*
G36*
X5020370Y8982513D02*
X4954967D01*
Y8905736D01*
X5020370D01*
Y8908580D01*
X5031744D01*
Y8911423D01*
X5037431D01*
Y8914267D01*
X5040275D01*
Y8917110D01*
X5043119D01*
Y8919954D01*
X5045962D01*
Y8922798D01*
X5048806D01*
Y8928485D01*
X5051650D01*
Y8937016D01*
X5054493D01*
Y8939859D01*
Y8951234D01*
X5051650D01*
Y8959765D01*
X5048806D01*
Y8965452D01*
X5045962D01*
Y8968295D01*
X5043119D01*
Y8971139D01*
X5040275D01*
Y8973983D01*
X5034588D01*
Y8976826D01*
X5028901D01*
Y8979670D01*
X5020370D01*
Y8982513D01*
D02*
G37*
G36*
X10824729Y8824746D02*
X10817713D01*
Y8822992D01*
X10815959D01*
Y8821238D01*
X10814205D01*
Y8817730D01*
X10812451D01*
Y8812468D01*
X10810697D01*
Y8800190D01*
X10808943D01*
Y8777387D01*
X10810697D01*
Y8765109D01*
X10812451D01*
Y8759847D01*
X10814205D01*
Y8756339D01*
X10815959D01*
Y8752831D01*
X10819467D01*
Y8751077D01*
X10824729D01*
Y8752831D01*
X10826484D01*
Y8754585D01*
X10828237D01*
Y8758093D01*
X10829992D01*
Y8765109D01*
X10831745D01*
Y8779141D01*
X10833500D01*
Y8800190D01*
X10831745D01*
Y8810714D01*
X10829992D01*
Y8815976D01*
X10828237D01*
Y8819484D01*
X10826484D01*
Y8822992D01*
X10824729D01*
Y8824746D01*
D02*
G37*
G36*
X10893136Y8814222D02*
X10884366D01*
Y8805452D01*
X10882612D01*
Y8789666D01*
Y8787912D01*
Y8784404D01*
X10891382D01*
Y8786157D01*
X10894890D01*
Y8791420D01*
X10896644D01*
Y8796682D01*
X10898398D01*
Y8805452D01*
X10896644D01*
Y8810714D01*
X10894890D01*
Y8812468D01*
X10893136D01*
Y8814222D01*
D02*
G37*
G36*
X10300277Y8744061D02*
X10293261D01*
Y8742307D01*
X10289753D01*
Y8740553D01*
X10287999D01*
Y8738799D01*
X10286245D01*
Y8737045D01*
X10284491D01*
Y8733537D01*
X10282737D01*
Y8723013D01*
X10280983D01*
Y8719505D01*
X10282737D01*
Y8703718D01*
X10284491D01*
Y8694948D01*
X10286245D01*
Y8689686D01*
X10287999D01*
Y8682670D01*
X10289753D01*
Y8677408D01*
X10291507D01*
Y8673900D01*
X10293261D01*
Y8668638D01*
X10295015D01*
Y8663376D01*
X10296769D01*
Y8659868D01*
X10298523D01*
Y8656360D01*
X10300277D01*
Y8654606D01*
X10302031D01*
Y8651098D01*
X10303785D01*
Y8649344D01*
X10305539D01*
Y8647590D01*
X10307293D01*
Y8645836D01*
X10309047D01*
Y8644082D01*
X10310801D01*
Y8642328D01*
X10317817D01*
Y8640574D01*
X10319571D01*
Y8642328D01*
X10324834D01*
Y8644082D01*
X10326587D01*
Y8645836D01*
X10328342D01*
Y8647590D01*
X10330095D01*
Y8649344D01*
Y8652852D01*
X10331850D01*
Y8677408D01*
X10330095D01*
Y8687932D01*
X10328342D01*
Y8694948D01*
X10326587D01*
Y8700210D01*
X10324834D01*
Y8707227D01*
X10323079D01*
Y8712489D01*
X10321325D01*
Y8715997D01*
X10319571D01*
Y8721259D01*
X10317817D01*
Y8724767D01*
X10316063D01*
Y8728275D01*
X10314309D01*
Y8731783D01*
X10312555D01*
Y8733537D01*
X10310801D01*
Y8735291D01*
X10309047D01*
Y8737045D01*
X10307293D01*
Y8738799D01*
X10305539D01*
Y8740553D01*
X10302031D01*
Y8742307D01*
X10300277D01*
Y8744061D01*
D02*
G37*
%LPD*%
D22*
X10632200Y10623200D02*
G03*
X10632200Y10623200I-12500J0D01*
G01*
X5768100Y12270200D02*
G03*
X5768100Y12270200I-12500J0D01*
G01*
X10644900Y12266200D02*
G03*
X10644900Y12266200I-12500J0D01*
G01*
D23*
X5371700Y10776200D02*
G03*
X5371700Y10776200I-25000J0D01*
G01*
D24*
X8039100Y8534400D02*
X9817100D01*
Y12160400D01*
X8039100Y8534400D02*
Y12160400D01*
X9817100D01*
D25*
X10297200Y9295700D02*
X10937200D01*
Y10545700D01*
X10297200D02*
X10937200D01*
X10297200Y9295700D02*
Y10545700D01*
X5433100Y10942700D02*
X6073100D01*
Y12192700D01*
X5433100D02*
X6073100D01*
X5433100Y10942700D02*
Y12192700D01*
X10309900Y10938700D02*
X10949900D01*
Y12188700D01*
X10309900D02*
X10949900D01*
X10309900Y10938700D02*
Y12188700D01*
D26*
X4250700Y11793700D02*
X5269700D01*
Y9250700D02*
Y11793700D01*
X4250700Y9250700D02*
X5269700D01*
X4250700Y11793700D02*
Y12286200D01*
X2780700D02*
X4250700D01*
X2780700Y8451200D02*
Y12286200D01*
Y8451200D02*
X4250700D01*
Y9250700D01*
D27*
X10274337Y10896573D02*
X10223553D01*
Y10858486D01*
X10248945D01*
X10223553D01*
Y10820398D01*
X10299729Y10871181D02*
Y10820398D01*
Y10845790D01*
X10312425Y10858486D01*
X10325121Y10871181D01*
X10337817D01*
X10388600Y10820398D02*
X10413992D01*
X10426688Y10833094D01*
Y10858486D01*
X10413992Y10871181D01*
X10388600D01*
X10375904Y10858486D01*
Y10833094D01*
X10388600Y10820398D01*
X10452079D02*
Y10871181D01*
X10490167D01*
X10502863Y10858486D01*
Y10820398D01*
X10540951Y10883877D02*
Y10871181D01*
X10528255D01*
X10553647D01*
X10540951D01*
Y10833094D01*
X10553647Y10820398D01*
X10229901Y10731507D02*
X10217206Y10744203D01*
X10191814D01*
X10179118Y10731507D01*
Y10718811D01*
X10191814Y10706115D01*
X10217206D01*
X10229901Y10693419D01*
Y10680723D01*
X10217206Y10668027D01*
X10191814D01*
X10179118Y10680723D01*
X10293381Y10668027D02*
X10267989D01*
X10255293Y10680723D01*
Y10706115D01*
X10267989Y10718811D01*
X10293381D01*
X10306077Y10706115D01*
Y10693419D01*
X10255293D01*
X10331469Y10668027D02*
Y10718811D01*
X10369556D01*
X10382252Y10706115D01*
Y10668027D01*
X10407644D02*
X10445732D01*
X10458427Y10680723D01*
X10445732Y10693419D01*
X10420340D01*
X10407644Y10706115D01*
X10420340Y10718811D01*
X10458427D01*
X10496515Y10668027D02*
X10521907D01*
X10534603Y10680723D01*
Y10706115D01*
X10521907Y10718811D01*
X10496515D01*
X10483819Y10706115D01*
Y10680723D01*
X10496515Y10668027D01*
X10559995Y10718811D02*
Y10668027D01*
Y10693419D01*
X10572691Y10706115D01*
X10585386Y10718811D01*
X10598082D01*
X10033983Y9559423D02*
X9945121Y9558139D01*
X9944479Y9602570D01*
X9959076Y9617594D01*
X9988697Y9618022D01*
X10003721Y9603426D01*
X10004363Y9558995D01*
X10003935Y9588615D02*
X10033127Y9618664D01*
X10032057Y9692715D02*
X10032485Y9663095D01*
X10017889Y9648071D01*
X9988269Y9647643D01*
X9973244Y9662239D01*
X9972816Y9691859D01*
X9987413Y9706884D01*
X10002223Y9707098D01*
X10003079Y9647857D01*
X9971960Y9751101D02*
X9971532Y9780722D01*
X9986129Y9795746D01*
X10030560Y9796388D01*
X10031201Y9751957D01*
X10016605Y9736933D01*
X10001581Y9751529D01*
X10000939Y9795960D01*
X9970890Y9825153D02*
X10030132Y9826009D01*
X10000511Y9825581D01*
X9985487Y9840177D01*
X9970462Y9854774D01*
X9970248Y9869584D01*
X10127948Y9531153D02*
X10113351Y9516129D01*
X10113779Y9486508D01*
X10128803Y9471912D01*
X10143614Y9472126D01*
X10158210Y9487150D01*
X10157782Y9516771D01*
X10172378Y9531796D01*
X10187189Y9532009D01*
X10202213Y9517413D01*
X10202641Y9487792D01*
X10188045Y9472768D01*
X10200929Y9606275D02*
X10201357Y9576654D01*
X10186761Y9561630D01*
X10157140Y9561202D01*
X10142116Y9575798D01*
X10141688Y9605419D01*
X10156284Y9620444D01*
X10171095Y9620657D01*
X10171951Y9561416D01*
X10200287Y9650706D02*
X10141046Y9649850D01*
X10140404Y9694281D01*
X10155001Y9709305D01*
X10199431Y9709948D01*
X10199003Y9739568D02*
X10198362Y9783999D01*
X10183337Y9798596D01*
X10168741Y9783571D01*
X10169169Y9753950D01*
X10154573Y9738926D01*
X10139548Y9753523D01*
X10138906Y9797953D01*
X10197506Y9843240D02*
X10197078Y9872861D01*
X10182054Y9887457D01*
X10152433Y9887030D01*
X10137836Y9872005D01*
X10138264Y9842384D01*
X10153289Y9827788D01*
X10182910Y9828216D01*
X10197506Y9843240D01*
X10137194Y9916436D02*
X10196436Y9917292D01*
X10166815Y9916864D01*
X10151791Y9931460D01*
X10136766Y9946057D01*
X10136552Y9960867D01*
X8509140Y11112467D02*
X8610707D01*
X8559923D01*
Y10960117D01*
X8737666D02*
X8686882D01*
X8661490Y10985508D01*
Y11036292D01*
X8686882Y11061684D01*
X8737666D01*
X8763058Y11036292D01*
Y11010900D01*
X8661490D01*
X8890017Y10960117D02*
X8839233D01*
X8813841Y10985508D01*
Y11036292D01*
X8839233Y11061684D01*
X8890017D01*
X8915408Y11036292D01*
Y11010900D01*
X8813841D01*
X8966192Y10960117D02*
Y11061684D01*
X9042367D01*
X9067759Y11036292D01*
Y10960117D01*
X9118543D02*
X9194718D01*
X9220110Y10985508D01*
X9194718Y11010900D01*
X9143934D01*
X9118543Y11036292D01*
X9143934Y11061684D01*
X9220110D01*
X9270893D02*
Y10985508D01*
X9296285Y10960117D01*
X9372461D01*
Y10934725D01*
X9347069Y10909333D01*
X9321677D01*
X9372461Y10960117D02*
Y11061684D01*
X7775769Y12005711D02*
X7762227Y12019254D01*
X7735142D01*
X7721600Y12005711D01*
Y11951542D01*
X7735142Y11938000D01*
X7762227D01*
X7775769Y11951542D01*
Y11978627D01*
X7748685D01*
X7802854Y11938000D02*
Y12019254D01*
X7857023Y11938000D01*
Y12019254D01*
X7884108D02*
Y11938000D01*
X7924734D01*
X7938277Y11951542D01*
Y12005711D01*
X7924734Y12019254D01*
X7884108D01*
X3162317Y11836425D02*
Y11988775D01*
X3086141Y11912600D01*
X3187708D01*
X3238492Y11836425D02*
Y11988775D01*
X3314667D01*
X3340059Y11963383D01*
Y11912600D01*
X3314667Y11887208D01*
X3238492D01*
X4749890Y12137167D02*
Y12035600D01*
X4800674Y11984817D01*
X4851458Y12035600D01*
Y12137167D01*
X4902241Y11984817D02*
Y12137167D01*
X4978417D01*
X5003808Y12111775D01*
Y12060992D01*
X4978417Y12035600D01*
X4902241D01*
X4953025D02*
X5003808Y11984817D01*
X5130767D02*
X5079984D01*
X5054592Y12010208D01*
Y12060992D01*
X5079984Y12086384D01*
X5130767D01*
X5156159Y12060992D01*
Y12035600D01*
X5054592D01*
X5257726Y11934033D02*
X5283118D01*
X5308510Y11959425D01*
Y12086384D01*
X5232334D01*
X5206943Y12060992D01*
Y12010208D01*
X5232334Y11984817D01*
X5308510D01*
X5969201Y10477483D02*
X5943810Y10502875D01*
X5893026D01*
X5867634Y10477483D01*
Y10375917D01*
X5893026Y10350525D01*
X5943810D01*
X5969201Y10375917D01*
X6019985Y10350525D02*
Y10452092D01*
X6070768Y10502875D01*
X6121552Y10452092D01*
Y10350525D01*
Y10426700D01*
X6019985D01*
X6172336Y10350525D02*
Y10502875D01*
X6273903Y10350525D01*
Y10502875D01*
X6477037Y10350525D02*
Y10502875D01*
X6527821Y10452092D01*
X6578604Y10502875D01*
Y10350525D01*
X6654780D02*
X6705563D01*
X6730955Y10375917D01*
Y10426700D01*
X6705563Y10452092D01*
X6654780D01*
X6629388Y10426700D01*
Y10375917D01*
X6654780Y10350525D01*
X6883306Y10502875D02*
Y10350525D01*
X6807130D01*
X6781739Y10375917D01*
Y10426700D01*
X6807130Y10452092D01*
X6883306D01*
X6934089D02*
Y10375917D01*
X6959481Y10350525D01*
X7035656D01*
Y10452092D01*
X7086440Y10350525D02*
X7137223D01*
X7111832D01*
Y10502875D01*
X7086440D01*
X7289574Y10350525D02*
X7238791D01*
X7213399Y10375917D01*
Y10426700D01*
X7238791Y10452092D01*
X7289574D01*
X7314966Y10426700D01*
Y10401308D01*
X7213399D01*
%TF.MD5,0668480f6d452881d19edf4b8dbe394a*%
M02*
