%TF.GenerationSoftware,Altium Limited,Altium Designer,25.2.1 (25)*%
G04 Layer_Color=16711935*
%FSLAX45Y45*%
%MOMM*%
%TF.SameCoordinates,EB21593C-EBE9-4C46-B465-0E1A71836AD5*%
%TF.FilePolarity,Negative*%
%TF.FileFunction,Soldermask,Bot*%
%TF.Part,Single*%
G01*
G75*
%TA.AperFunction,ComponentPad*%
%ADD16O,3.05100X1.90800*%
%ADD17R,3.05100X1.90800*%
%ADD28C,1.72720*%
%ADD29O,2.74320X2.08280*%
%ADD30O,2.08280X2.36220*%
%ADD31O,2.08280X2.23520*%
%TA.AperFunction,ViaPad*%
%ADD32C,0.20320*%
%TA.AperFunction,ComponentPad*%
%ADD33C,3.19320*%
%ADD34C,2.84320*%
%ADD35R,2.84320X2.84320*%
%ADD37O,5.28320X2.10820*%
D16*
X10617200Y9545700D02*
D03*
Y9795700D02*
D03*
Y10045700D02*
D03*
X5753100Y11192700D02*
D03*
Y11442700D02*
D03*
Y11692700D02*
D03*
X10629900Y11188700D02*
D03*
Y11438700D02*
D03*
Y11688700D02*
D03*
D17*
X10617200Y10295700D02*
D03*
X5753100Y11942700D02*
D03*
X10629900Y11938700D02*
D03*
D28*
X9436100Y8661400D02*
D03*
X9182100D02*
D03*
X8928100D02*
D03*
X8420100D02*
D03*
X9690100Y11709400D02*
D03*
Y11201400D02*
D03*
Y10947400D02*
D03*
Y10693400D02*
D03*
Y10439400D02*
D03*
Y9169400D02*
D03*
Y8915400D02*
D03*
Y8661400D02*
D03*
X8166100Y11201400D02*
D03*
Y10947400D02*
D03*
Y10693400D02*
D03*
Y10439400D02*
D03*
Y10185400D02*
D03*
Y9931400D02*
D03*
Y9677400D02*
D03*
Y9423400D02*
D03*
Y9169400D02*
D03*
Y8915400D02*
D03*
Y8661400D02*
D03*
D29*
X8674100D02*
D03*
D30*
X9690100Y11963400D02*
D03*
Y11455400D02*
D03*
D31*
Y10185400D02*
D03*
Y9931400D02*
D03*
Y9677400D02*
D03*
Y9423400D02*
D03*
X8166100Y11963400D02*
D03*
Y11709400D02*
D03*
Y11455400D02*
D03*
D32*
X10071100Y12103100D02*
D03*
X10045700Y9182100D02*
D03*
X4533900Y12065000D02*
D03*
X4559300Y8839200D02*
D03*
D33*
X3720700Y10522200D02*
D03*
X4863700Y11387200D02*
D03*
Y9657200D02*
D03*
D34*
X4330700Y10744700D02*
D03*
Y10299700D02*
D03*
X4965700D02*
D03*
D35*
Y10744700D02*
D03*
D37*
X6007100Y9880600D02*
D03*
Y9626600D02*
D03*
X7404100Y9372600D02*
D03*
Y9626600D02*
D03*
Y9880600D02*
D03*
Y10134600D02*
D03*
%TF.MD5,70b6d27878762612de91e19ff92d19f5*%
M02*
