%TF.GenerationSoftware,Altium Limited,Altium Designer,25.2.1 (25)*%
G04 Layer_Physical_Order=2*
G04 Layer_Color=16711680*
%FSLAX45Y45*%
%MOMM*%
%TF.SameCoordinates,EB21593C-EBE9-4C46-B465-0E1A71836AD5*%
%TF.FilePolarity,Positive*%
%TF.FileFunction,Copper,L2,Bot,Signal*%
%TF.Part,Single*%
G01*
G75*
%TA.AperFunction,ComponentPad*%
%ADD12C,1.52400*%
%ADD13O,2.54000X1.87960*%
%ADD14O,1.87960X2.15900*%
%ADD15O,1.87960X2.03200*%
%ADD16O,3.05100X1.90800*%
%ADD17R,3.05100X1.90800*%
%ADD18C,2.99000*%
%ADD19C,2.64000*%
%ADD20R,2.64000X2.64000*%
%ADD21O,5.08000X1.90500*%
G36*
X11049000Y8407400D02*
X2743200D01*
Y12319000D01*
X11049000D01*
Y8407400D01*
D02*
G37*
%LPC*%
G36*
X8178800Y12089758D02*
Y11976100D01*
X8285841D01*
X8282407Y12002185D01*
X8270378Y12031225D01*
X8251243Y12056163D01*
X8226305Y12075298D01*
X8197265Y12087327D01*
X8178800Y12089758D01*
D02*
G37*
G36*
X8153400D02*
X8134935Y12087327D01*
X8105895Y12075298D01*
X8080957Y12056163D01*
X8061822Y12031225D01*
X8049793Y12002185D01*
X8046359Y11976100D01*
X8153400D01*
Y12089758D01*
D02*
G37*
G36*
X5931050Y12063500D02*
X5765800D01*
Y11955400D01*
X5931050D01*
Y12063500D01*
D02*
G37*
G36*
X5740400D02*
X5575150D01*
Y11955400D01*
X5740400D01*
Y12063500D01*
D02*
G37*
G36*
X10088375Y12278500D02*
X10053825D01*
X10019938Y12271759D01*
X9988017Y12258537D01*
X9959289Y12239342D01*
X9934858Y12214911D01*
X9915663Y12186183D01*
X9902441Y12154262D01*
X9895700Y12120375D01*
Y12085825D01*
X9902441Y12051938D01*
X9915663Y12020017D01*
X9934858Y11991289D01*
X9959289Y11966858D01*
X9988017Y11947663D01*
X10019938Y11934441D01*
X10053825Y11927700D01*
X10088375D01*
X10122262Y11934441D01*
X10154183Y11947663D01*
X10182911Y11966858D01*
X10207342Y11991289D01*
X10226537Y12020017D01*
X10239759Y12051938D01*
X10246500Y12085825D01*
Y12120375D01*
X10239759Y12154262D01*
X10226537Y12186183D01*
X10207342Y12214911D01*
X10182911Y12239342D01*
X10154183Y12258537D01*
X10122262Y12271759D01*
X10088375Y12278500D01*
D02*
G37*
G36*
X4551175Y12240400D02*
X4516625D01*
X4482738Y12233659D01*
X4450817Y12220437D01*
X4422089Y12201242D01*
X4397658Y12176811D01*
X4378463Y12148083D01*
X4365241Y12116162D01*
X4358500Y12082275D01*
Y12047725D01*
X4365241Y12013838D01*
X4378463Y11981917D01*
X4397658Y11953189D01*
X4422089Y11928758D01*
X4450817Y11909563D01*
X4482738Y11896341D01*
X4516625Y11889600D01*
X4551175D01*
X4585062Y11896341D01*
X4616983Y11909563D01*
X4645711Y11928758D01*
X4670142Y11953189D01*
X4689337Y11981917D01*
X4702559Y12013838D01*
X4709300Y12047725D01*
Y12082275D01*
X4702559Y12116162D01*
X4689337Y12148083D01*
X4670142Y12176811D01*
X4645711Y12201242D01*
X4616983Y12220437D01*
X4585062Y12233659D01*
X4551175Y12240400D01*
D02*
G37*
G36*
X4880926Y11562100D02*
X4846474D01*
X4812684Y11555378D01*
X4780854Y11542194D01*
X4752208Y11523054D01*
X4727846Y11498692D01*
X4708706Y11470046D01*
X4695521Y11438216D01*
X4688800Y11404426D01*
Y11369974D01*
X4695521Y11336184D01*
X4708706Y11304354D01*
X4727846Y11275708D01*
X4752208Y11251346D01*
X4780854Y11232206D01*
X4812684Y11219022D01*
X4846474Y11212300D01*
X4880926D01*
X4914716Y11219022D01*
X4946546Y11232206D01*
X4975192Y11251346D01*
X4999554Y11275708D01*
X5018694Y11304354D01*
X5031878Y11336184D01*
X5038600Y11369974D01*
Y11404426D01*
X5031878Y11438216D01*
X5018694Y11470046D01*
X4999554Y11498692D01*
X4975192Y11523054D01*
X4946546Y11542194D01*
X4914716Y11555378D01*
X4880926Y11562100D01*
D02*
G37*
G36*
X10807850Y12059500D02*
X10451950D01*
Y11817900D01*
X10502628D01*
X10509575Y11800018D01*
X10509589Y11792500D01*
X10486594Y11774856D01*
X10467232Y11749621D01*
X10455059Y11720235D01*
X10450908Y11688700D01*
X10455059Y11657165D01*
X10467232Y11627779D01*
X10486594Y11602544D01*
X10511829Y11583182D01*
X10525674Y11577446D01*
Y11549954D01*
X10511829Y11544218D01*
X10486594Y11524856D01*
X10467232Y11499621D01*
X10455059Y11470235D01*
X10450908Y11438700D01*
X10455059Y11407165D01*
X10467232Y11377779D01*
X10486594Y11352544D01*
X10511829Y11333182D01*
X10525674Y11327446D01*
Y11299954D01*
X10511829Y11294218D01*
X10486594Y11274856D01*
X10467232Y11249621D01*
X10455059Y11220235D01*
X10452580Y11201400D01*
X10629900D01*
X10807220D01*
X10804741Y11220235D01*
X10792568Y11249621D01*
X10773206Y11274856D01*
X10747971Y11294218D01*
X10734126Y11299954D01*
Y11327446D01*
X10747971Y11333182D01*
X10773206Y11352544D01*
X10792568Y11377779D01*
X10804741Y11407165D01*
X10808892Y11438700D01*
X10804741Y11470235D01*
X10792568Y11499621D01*
X10773206Y11524856D01*
X10747971Y11544218D01*
X10734126Y11549954D01*
Y11577446D01*
X10747971Y11583182D01*
X10773206Y11602544D01*
X10792568Y11627779D01*
X10804741Y11657165D01*
X10808892Y11688700D01*
X10804741Y11720235D01*
X10792568Y11749621D01*
X10773206Y11774856D01*
X10750211Y11792500D01*
X10750225Y11800018D01*
X10757172Y11817900D01*
X10807850D01*
Y12059500D01*
D02*
G37*
G36*
X9690100Y12097780D02*
X9658935Y12093677D01*
X9629895Y12081648D01*
X9604957Y12062513D01*
X9585822Y12037575D01*
X9573793Y12008535D01*
X9569690Y11977370D01*
Y11949430D01*
X9573793Y11918265D01*
X9585822Y11889225D01*
X9604957Y11864287D01*
X9629895Y11845152D01*
X9658935Y11833123D01*
X9660419Y11832927D01*
X9662113Y11807085D01*
X9650884Y11804076D01*
X9627716Y11790700D01*
X9608800Y11771784D01*
X9595424Y11748616D01*
X9588500Y11722776D01*
Y11696024D01*
X9595424Y11670184D01*
X9608800Y11647016D01*
X9627716Y11628100D01*
X9650884Y11614724D01*
X9662113Y11611715D01*
X9660419Y11585873D01*
X9658935Y11585677D01*
X9629895Y11573648D01*
X9604957Y11554513D01*
X9585822Y11529575D01*
X9573793Y11500535D01*
X9569690Y11469370D01*
Y11441430D01*
X9573793Y11410265D01*
X9585822Y11381225D01*
X9604957Y11356287D01*
X9629895Y11337152D01*
X9658935Y11325123D01*
X9660419Y11324927D01*
X9662113Y11299085D01*
X9650884Y11296076D01*
X9627716Y11282700D01*
X9608800Y11263784D01*
X9595424Y11240616D01*
X9588500Y11214776D01*
Y11188024D01*
X9595424Y11162184D01*
X9608800Y11139016D01*
X9627716Y11120100D01*
X9650884Y11106724D01*
X9676724Y11099800D01*
X9703476D01*
X9729316Y11106724D01*
X9752484Y11120100D01*
X9771400Y11139016D01*
X9784776Y11162184D01*
X9791700Y11188024D01*
Y11214776D01*
X9784776Y11240616D01*
X9771400Y11263784D01*
X9752484Y11282700D01*
X9729316Y11296076D01*
X9718087Y11299085D01*
X9719781Y11324927D01*
X9721265Y11325123D01*
X9750305Y11337152D01*
X9775243Y11356287D01*
X9794378Y11381225D01*
X9806407Y11410265D01*
X9810510Y11441430D01*
Y11469370D01*
X9806407Y11500535D01*
X9794378Y11529575D01*
X9775243Y11554513D01*
X9750305Y11573648D01*
X9721265Y11585677D01*
X9719781Y11585873D01*
X9718087Y11611715D01*
X9729316Y11614724D01*
X9752484Y11628100D01*
X9771400Y11647016D01*
X9784776Y11670184D01*
X9791700Y11696024D01*
Y11722776D01*
X9784776Y11748616D01*
X9771400Y11771784D01*
X9752484Y11790700D01*
X9729316Y11804076D01*
X9718087Y11807085D01*
X9719781Y11832927D01*
X9721265Y11833123D01*
X9750305Y11845152D01*
X9775243Y11864287D01*
X9794378Y11889225D01*
X9806407Y11918265D01*
X9810510Y11949430D01*
Y11977370D01*
X9806407Y12008535D01*
X9794378Y12037575D01*
X9775243Y12062513D01*
X9750305Y12081648D01*
X9721265Y12093677D01*
X9690100Y12097780D01*
D02*
G37*
G36*
X8285841Y11950700D02*
X8046359D01*
X8049793Y11924615D01*
X8061822Y11895575D01*
X8080957Y11870637D01*
X8105895Y11851502D01*
X8109166Y11850146D01*
Y11822654D01*
X8105895Y11821298D01*
X8080957Y11802163D01*
X8061822Y11777225D01*
X8049793Y11748185D01*
X8045690Y11717020D01*
Y11701780D01*
X8049793Y11670615D01*
X8061822Y11641575D01*
X8080957Y11616637D01*
X8105895Y11597502D01*
X8109166Y11596146D01*
Y11568654D01*
X8105895Y11567298D01*
X8080957Y11548163D01*
X8061822Y11523225D01*
X8049793Y11494185D01*
X8045690Y11463020D01*
Y11447780D01*
X8049793Y11416615D01*
X8061822Y11387575D01*
X8080957Y11362637D01*
X8105895Y11343502D01*
X8134935Y11331473D01*
X8149534Y11329551D01*
X8158274Y11328399D01*
X8156722Y11304720D01*
X8152724Y11303001D01*
X8150460Y11302393D01*
X8126884Y11296076D01*
X8103716Y11282700D01*
X8084800Y11263784D01*
X8071424Y11240616D01*
X8064500Y11214776D01*
Y11188024D01*
X8071424Y11162184D01*
X8084800Y11139016D01*
X8103716Y11120100D01*
X8126884Y11106724D01*
X8152724Y11099800D01*
X8179476D01*
X8205316Y11106724D01*
X8228484Y11120100D01*
X8247400Y11139016D01*
X8260776Y11162184D01*
X8267700Y11188024D01*
Y11214776D01*
X8260776Y11240616D01*
X8247400Y11263784D01*
X8228484Y11282700D01*
X8205316Y11296076D01*
X8182020Y11302319D01*
X8179476Y11303001D01*
X8175478Y11304720D01*
X8173926Y11328399D01*
X8182665Y11329551D01*
X8197265Y11331473D01*
X8226305Y11343502D01*
X8251243Y11362637D01*
X8270378Y11387575D01*
X8282407Y11416615D01*
X8286510Y11447780D01*
Y11463020D01*
X8282407Y11494185D01*
X8270378Y11523225D01*
X8251243Y11548163D01*
X8226305Y11567298D01*
X8223034Y11568654D01*
Y11596146D01*
X8226305Y11597502D01*
X8251243Y11616637D01*
X8270378Y11641575D01*
X8282407Y11670615D01*
X8286510Y11701780D01*
Y11717020D01*
X8282407Y11748185D01*
X8270378Y11777225D01*
X8251243Y11802163D01*
X8226305Y11821298D01*
X8223034Y11822654D01*
Y11850146D01*
X8226305Y11851502D01*
X8251243Y11870637D01*
X8270378Y11895575D01*
X8282407Y11924615D01*
X8285841Y11950700D01*
D02*
G37*
G36*
X5931050Y11930000D02*
X5753100D01*
X5575150D01*
Y11821900D01*
X5625828D01*
X5632775Y11804018D01*
X5632789Y11796500D01*
X5609794Y11778856D01*
X5590432Y11753621D01*
X5578259Y11724235D01*
X5574108Y11692700D01*
X5578259Y11661165D01*
X5590432Y11631779D01*
X5609794Y11606544D01*
X5635029Y11587182D01*
X5648874Y11581446D01*
Y11553954D01*
X5635029Y11548218D01*
X5609794Y11528856D01*
X5590432Y11503621D01*
X5578259Y11474235D01*
X5574108Y11442700D01*
X5578259Y11411165D01*
X5590432Y11381779D01*
X5609794Y11356544D01*
X5635029Y11337182D01*
X5648874Y11331446D01*
Y11303954D01*
X5635029Y11298218D01*
X5609794Y11278856D01*
X5590432Y11253621D01*
X5578259Y11224235D01*
X5574108Y11192700D01*
X5578259Y11161165D01*
X5590432Y11131779D01*
X5609794Y11106544D01*
X5635029Y11087182D01*
X5664415Y11075009D01*
X5695950Y11070858D01*
X5810250D01*
X5841785Y11075009D01*
X5871171Y11087182D01*
X5896406Y11106544D01*
X5915768Y11131779D01*
X5927941Y11161165D01*
X5932092Y11192700D01*
X5927941Y11224235D01*
X5915768Y11253621D01*
X5896406Y11278856D01*
X5871171Y11298218D01*
X5857326Y11303954D01*
Y11331446D01*
X5871171Y11337182D01*
X5896406Y11356544D01*
X5915768Y11381779D01*
X5927941Y11411165D01*
X5932092Y11442700D01*
X5927941Y11474235D01*
X5915768Y11503621D01*
X5896406Y11528856D01*
X5871171Y11548218D01*
X5857326Y11553954D01*
Y11581446D01*
X5871171Y11587182D01*
X5896406Y11606544D01*
X5915768Y11631779D01*
X5927941Y11661165D01*
X5932092Y11692700D01*
X5927941Y11724235D01*
X5915768Y11753621D01*
X5896406Y11778856D01*
X5873411Y11796500D01*
X5873425Y11804018D01*
X5880372Y11821900D01*
X5931050D01*
Y11930000D01*
D02*
G37*
G36*
X10807220Y11176000D02*
X10642600D01*
Y11066858D01*
X10687050D01*
X10718585Y11071009D01*
X10747971Y11083182D01*
X10773206Y11102544D01*
X10792568Y11127779D01*
X10804741Y11157165D01*
X10807220Y11176000D01*
D02*
G37*
G36*
X10617200D02*
X10452580D01*
X10455059Y11157165D01*
X10467232Y11127779D01*
X10486594Y11102544D01*
X10511829Y11083182D01*
X10541215Y11071009D01*
X10572750Y11066858D01*
X10617200D01*
Y11176000D01*
D02*
G37*
G36*
X9703476Y11049000D02*
X9676724D01*
X9650884Y11042076D01*
X9627716Y11028700D01*
X9608800Y11009784D01*
X9595424Y10986616D01*
X9588500Y10960776D01*
Y10934024D01*
X9595424Y10908184D01*
X9608800Y10885016D01*
X9627716Y10866100D01*
X9650884Y10852724D01*
X9676724Y10845800D01*
X9703476D01*
X9729316Y10852724D01*
X9752484Y10866100D01*
X9771400Y10885016D01*
X9784776Y10908184D01*
X9791700Y10934024D01*
Y10960776D01*
X9784776Y10986616D01*
X9771400Y11009784D01*
X9752484Y11028700D01*
X9729316Y11042076D01*
X9703476Y11049000D01*
D02*
G37*
G36*
X8179476D02*
X8152724D01*
X8126884Y11042076D01*
X8103716Y11028700D01*
X8084800Y11009784D01*
X8071424Y10986616D01*
X8064500Y10960776D01*
Y10934024D01*
X8071424Y10908184D01*
X8084800Y10885016D01*
X8103716Y10866100D01*
X8126884Y10852724D01*
X8152724Y10845800D01*
X8179476D01*
X8205316Y10852724D01*
X8228484Y10866100D01*
X8247400Y10885016D01*
X8260776Y10908184D01*
X8267700Y10934024D01*
Y10960776D01*
X8260776Y10986616D01*
X8247400Y11009784D01*
X8228484Y11028700D01*
X8205316Y11042076D01*
X8179476Y11049000D01*
D02*
G37*
G36*
X5123100Y10902100D02*
X4978400D01*
Y10757400D01*
X5123100D01*
Y10902100D01*
D02*
G37*
G36*
X4953000D02*
X4808300D01*
Y10757400D01*
X4953000D01*
Y10902100D01*
D02*
G37*
G36*
X9703476Y10795000D02*
X9676724D01*
X9650884Y10788076D01*
X9627716Y10774700D01*
X9608800Y10755784D01*
X9595424Y10732616D01*
X9588500Y10706776D01*
Y10680024D01*
X9595424Y10654184D01*
X9608800Y10631016D01*
X9627716Y10612100D01*
X9650884Y10598724D01*
X9676724Y10591800D01*
X9703476D01*
X9729316Y10598724D01*
X9752484Y10612100D01*
X9771400Y10631016D01*
X9784776Y10654184D01*
X9791700Y10680024D01*
Y10706776D01*
X9784776Y10732616D01*
X9771400Y10755784D01*
X9752484Y10774700D01*
X9729316Y10788076D01*
X9703476Y10795000D01*
D02*
G37*
G36*
X8179476D02*
X8152724D01*
X8126884Y10788076D01*
X8103716Y10774700D01*
X8084800Y10755784D01*
X8071424Y10732616D01*
X8064500Y10706776D01*
Y10680024D01*
X8071424Y10654184D01*
X8084800Y10631016D01*
X8103716Y10612100D01*
X8126884Y10598724D01*
X8152724Y10591800D01*
X8179476D01*
X8205316Y10598724D01*
X8228484Y10612100D01*
X8247400Y10631016D01*
X8260776Y10654184D01*
X8267700Y10680024D01*
Y10706776D01*
X8260776Y10732616D01*
X8247400Y10755784D01*
X8228484Y10774700D01*
X8205316Y10788076D01*
X8179476Y10795000D01*
D02*
G37*
G36*
X5123100Y10732000D02*
X4978400D01*
Y10587300D01*
X5123100D01*
Y10732000D01*
D02*
G37*
G36*
X4953000D02*
X4808300D01*
Y10587300D01*
X4953000D01*
Y10732000D01*
D02*
G37*
G36*
X4346203Y10902100D02*
X4315197D01*
X4284788Y10896051D01*
X4256143Y10884186D01*
X4230363Y10866960D01*
X4208440Y10845036D01*
X4191214Y10819257D01*
X4179349Y10790612D01*
X4173300Y10760203D01*
Y10729197D01*
X4179349Y10698788D01*
X4191214Y10670143D01*
X4208440Y10644363D01*
X4230363Y10622440D01*
X4256143Y10605214D01*
X4284788Y10593349D01*
X4315197Y10587300D01*
X4346203D01*
X4376612Y10593349D01*
X4405257Y10605214D01*
X4431037Y10622440D01*
X4452960Y10644363D01*
X4470186Y10670143D01*
X4482051Y10698788D01*
X4488100Y10729197D01*
Y10760203D01*
X4482051Y10790612D01*
X4470186Y10819257D01*
X4452960Y10845036D01*
X4431037Y10866960D01*
X4405257Y10884186D01*
X4376612Y10896051D01*
X4346203Y10902100D01*
D02*
G37*
G36*
X3737926Y10697100D02*
X3703474D01*
X3669684Y10690378D01*
X3637854Y10677194D01*
X3609208Y10658054D01*
X3584846Y10633692D01*
X3565706Y10605046D01*
X3552521Y10573216D01*
X3545800Y10539426D01*
Y10504974D01*
X3552521Y10471184D01*
X3565706Y10439354D01*
X3584846Y10410708D01*
X3609208Y10386346D01*
X3637854Y10367206D01*
X3669684Y10354021D01*
X3703474Y10347300D01*
X3737926D01*
X3771716Y10354021D01*
X3803546Y10367206D01*
X3832192Y10386346D01*
X3856554Y10410708D01*
X3875694Y10439354D01*
X3888878Y10471184D01*
X3895600Y10504974D01*
Y10539426D01*
X3888878Y10573216D01*
X3875694Y10605046D01*
X3856554Y10633692D01*
X3832192Y10658054D01*
X3803546Y10677194D01*
X3771716Y10690378D01*
X3737926Y10697100D01*
D02*
G37*
G36*
X8179476Y10541000D02*
X8152724D01*
X8126884Y10534076D01*
X8103716Y10520700D01*
X8084800Y10501784D01*
X8071424Y10478616D01*
X8064500Y10452776D01*
Y10426024D01*
X8071424Y10400184D01*
X8084800Y10377016D01*
X8103716Y10358100D01*
X8126884Y10344724D01*
X8152724Y10337800D01*
X8179476D01*
X8205316Y10344724D01*
X8228484Y10358100D01*
X8247400Y10377016D01*
X8260776Y10400184D01*
X8267700Y10426024D01*
Y10452776D01*
X8260776Y10478616D01*
X8247400Y10501784D01*
X8228484Y10520700D01*
X8205316Y10534076D01*
X8179476Y10541000D01*
D02*
G37*
G36*
X4981203Y10457100D02*
X4950197D01*
X4919788Y10451051D01*
X4891143Y10439186D01*
X4865363Y10421960D01*
X4843440Y10400037D01*
X4826214Y10374257D01*
X4814349Y10345612D01*
X4808300Y10315203D01*
Y10284197D01*
X4814349Y10253788D01*
X4826214Y10225143D01*
X4843440Y10199363D01*
X4865363Y10177440D01*
X4891143Y10160214D01*
X4919788Y10148349D01*
X4950197Y10142300D01*
X4981203D01*
X5011612Y10148349D01*
X5040257Y10160214D01*
X5066037Y10177440D01*
X5087960Y10199363D01*
X5105186Y10225143D01*
X5117051Y10253788D01*
X5123100Y10284197D01*
Y10315203D01*
X5117051Y10345612D01*
X5105186Y10374257D01*
X5087960Y10400037D01*
X5066037Y10421960D01*
X5040257Y10439186D01*
X5011612Y10451051D01*
X4981203Y10457100D01*
D02*
G37*
G36*
X4346203D02*
X4315197D01*
X4284788Y10451051D01*
X4256143Y10439186D01*
X4230363Y10421960D01*
X4208440Y10400037D01*
X4191214Y10374257D01*
X4179349Y10345612D01*
X4173300Y10315203D01*
Y10284197D01*
X4179349Y10253788D01*
X4191214Y10225143D01*
X4208440Y10199363D01*
X4230363Y10177440D01*
X4256143Y10160214D01*
X4284788Y10148349D01*
X4315197Y10142300D01*
X4346203D01*
X4376612Y10148349D01*
X4405257Y10160214D01*
X4431037Y10177440D01*
X4452960Y10199363D01*
X4470186Y10225143D01*
X4482051Y10253788D01*
X4488100Y10284197D01*
Y10315203D01*
X4482051Y10345612D01*
X4470186Y10374257D01*
X4452960Y10400037D01*
X4431037Y10421960D01*
X4405257Y10439186D01*
X4376612Y10451051D01*
X4346203Y10457100D01*
D02*
G37*
G36*
X8179476Y10287000D02*
X8152724D01*
X8126884Y10280076D01*
X8103716Y10266700D01*
X8084800Y10247784D01*
X8071424Y10224616D01*
X8064500Y10198776D01*
Y10172024D01*
X8071424Y10146184D01*
X8084800Y10123016D01*
X8103716Y10104100D01*
X8126884Y10090724D01*
X8152724Y10083800D01*
X8179476D01*
X8205316Y10090724D01*
X8228484Y10104100D01*
X8247400Y10123016D01*
X8260776Y10146184D01*
X8267700Y10172024D01*
Y10198776D01*
X8260776Y10224616D01*
X8247400Y10247784D01*
X8228484Y10266700D01*
X8205316Y10280076D01*
X8179476Y10287000D01*
D02*
G37*
G36*
X7562850Y10256291D02*
X7245350D01*
X7213854Y10252145D01*
X7184504Y10239988D01*
X7159301Y10220649D01*
X7139962Y10195446D01*
X7127805Y10166096D01*
X7123659Y10134600D01*
X7127805Y10103104D01*
X7139962Y10073754D01*
X7159301Y10048551D01*
X7184504Y10029212D01*
X7203494Y10021346D01*
Y9993854D01*
X7184504Y9985988D01*
X7159301Y9966649D01*
X7139962Y9941446D01*
X7127805Y9912096D01*
X7125331Y9893300D01*
X7404100D01*
X7682869D01*
X7680395Y9912096D01*
X7668238Y9941446D01*
X7648899Y9966649D01*
X7623696Y9985988D01*
X7604706Y9993854D01*
Y10021346D01*
X7623696Y10029212D01*
X7648899Y10048551D01*
X7668238Y10073754D01*
X7680395Y10103104D01*
X7684541Y10134600D01*
X7680395Y10166096D01*
X7668238Y10195446D01*
X7648899Y10220649D01*
X7623696Y10239988D01*
X7594346Y10252145D01*
X7562850Y10256291D01*
D02*
G37*
G36*
X8179476Y10033000D02*
X8152724D01*
X8126884Y10026076D01*
X8103716Y10012700D01*
X8084800Y9993784D01*
X8071424Y9970616D01*
X8064500Y9944776D01*
Y9918024D01*
X8071424Y9892184D01*
X8084800Y9869016D01*
X8103716Y9850100D01*
X8126884Y9836724D01*
X8152724Y9829800D01*
X8179476D01*
X8205316Y9836724D01*
X8228484Y9850100D01*
X8247400Y9869016D01*
X8260776Y9892184D01*
X8267700Y9918024D01*
Y9944776D01*
X8260776Y9970616D01*
X8247400Y9993784D01*
X8228484Y10012700D01*
X8205316Y10026076D01*
X8179476Y10033000D01*
D02*
G37*
G36*
Y9779000D02*
X8152724D01*
X8126884Y9772076D01*
X8103716Y9758700D01*
X8084800Y9739784D01*
X8071424Y9716616D01*
X8064500Y9690776D01*
Y9664024D01*
X8071424Y9638184D01*
X8084800Y9615016D01*
X8103716Y9596100D01*
X8126884Y9582724D01*
X8152724Y9575800D01*
X8179476D01*
X8205316Y9582724D01*
X8228484Y9596100D01*
X8247400Y9615016D01*
X8260776Y9638184D01*
X8267700Y9664024D01*
Y9690776D01*
X8260776Y9716616D01*
X8247400Y9739784D01*
X8228484Y9758700D01*
X8205316Y9772076D01*
X8179476Y9779000D01*
D02*
G37*
G36*
X10795150Y10416500D02*
X10439250D01*
Y10174900D01*
X10489928D01*
X10496875Y10157018D01*
X10496889Y10149500D01*
X10473894Y10131856D01*
X10454532Y10106621D01*
X10442359Y10077235D01*
X10438208Y10045700D01*
X10442359Y10014165D01*
X10454532Y9984779D01*
X10473894Y9959544D01*
X10499129Y9940182D01*
X10512974Y9934446D01*
Y9906954D01*
X10499129Y9901218D01*
X10473894Y9881856D01*
X10454532Y9856621D01*
X10442359Y9827235D01*
X10438208Y9795700D01*
X10442359Y9764165D01*
X10454532Y9734779D01*
X10473894Y9709544D01*
X10499129Y9690182D01*
X10512974Y9684446D01*
Y9656954D01*
X10499129Y9651218D01*
X10473894Y9631856D01*
X10454532Y9606621D01*
X10442359Y9577235D01*
X10439880Y9558400D01*
X10617200D01*
X10794520D01*
X10792041Y9577235D01*
X10779868Y9606621D01*
X10760506Y9631856D01*
X10735271Y9651218D01*
X10721426Y9656954D01*
Y9684446D01*
X10735271Y9690182D01*
X10760506Y9709544D01*
X10779868Y9734779D01*
X10792041Y9764165D01*
X10796192Y9795700D01*
X10792041Y9827235D01*
X10779868Y9856621D01*
X10760506Y9881856D01*
X10735271Y9901218D01*
X10721426Y9906954D01*
Y9934446D01*
X10735271Y9940182D01*
X10760506Y9959544D01*
X10779868Y9984779D01*
X10792041Y10014165D01*
X10796192Y10045700D01*
X10792041Y10077235D01*
X10779868Y10106621D01*
X10760506Y10131856D01*
X10737511Y10149500D01*
X10737525Y10157018D01*
X10744472Y10174900D01*
X10795150D01*
Y10416500D01*
D02*
G37*
G36*
X6165850Y10002291D02*
X5848350D01*
X5816854Y9998145D01*
X5787504Y9985988D01*
X5762301Y9966649D01*
X5742962Y9941446D01*
X5730805Y9912096D01*
X5726659Y9880600D01*
X5730805Y9849104D01*
X5742962Y9819754D01*
X5762301Y9794551D01*
X5787504Y9775212D01*
X5806494Y9767346D01*
Y9739854D01*
X5787504Y9731988D01*
X5762301Y9712649D01*
X5742962Y9687446D01*
X5730805Y9658096D01*
X5726659Y9626600D01*
X5730805Y9595104D01*
X5742962Y9565754D01*
X5762301Y9540551D01*
X5787504Y9521212D01*
X5816854Y9509055D01*
X5848350Y9504909D01*
X6165850D01*
X6197346Y9509055D01*
X6226696Y9521212D01*
X6251899Y9540551D01*
X6271238Y9565754D01*
X6283395Y9595104D01*
X6287541Y9626600D01*
X6283395Y9658096D01*
X6271238Y9687446D01*
X6251899Y9712649D01*
X6226696Y9731988D01*
X6207706Y9739854D01*
Y9767346D01*
X6226696Y9775212D01*
X6251899Y9794551D01*
X6271238Y9819754D01*
X6283395Y9849104D01*
X6287541Y9880600D01*
X6283395Y9912096D01*
X6271238Y9941446D01*
X6251899Y9966649D01*
X6226696Y9985988D01*
X6197346Y9998145D01*
X6165850Y10002291D01*
D02*
G37*
G36*
X4880926Y9832100D02*
X4846474D01*
X4812684Y9825378D01*
X4780854Y9812194D01*
X4752208Y9793054D01*
X4727846Y9768692D01*
X4708706Y9740046D01*
X4695521Y9708216D01*
X4688800Y9674426D01*
Y9639974D01*
X4695521Y9606183D01*
X4708706Y9574354D01*
X4727846Y9545708D01*
X4752208Y9521346D01*
X4780854Y9502206D01*
X4812684Y9489021D01*
X4846474Y9482300D01*
X4880926D01*
X4914716Y9489021D01*
X4946546Y9502206D01*
X4975192Y9521346D01*
X4999554Y9545708D01*
X5018694Y9574354D01*
X5031878Y9606183D01*
X5038600Y9639974D01*
Y9674426D01*
X5031878Y9708216D01*
X5018694Y9740046D01*
X4999554Y9768692D01*
X4975192Y9793054D01*
X4946546Y9812194D01*
X4914716Y9825378D01*
X4880926Y9832100D01*
D02*
G37*
G36*
X10794520Y9533000D02*
X10629900D01*
Y9423858D01*
X10674350D01*
X10705885Y9428009D01*
X10735271Y9440182D01*
X10760506Y9459544D01*
X10779868Y9484779D01*
X10792041Y9514165D01*
X10794520Y9533000D01*
D02*
G37*
G36*
X10604500D02*
X10439880D01*
X10442359Y9514165D01*
X10454532Y9484779D01*
X10473894Y9459544D01*
X10499129Y9440182D01*
X10528515Y9428009D01*
X10560050Y9423858D01*
X10604500D01*
Y9533000D01*
D02*
G37*
G36*
X8179476Y9525000D02*
X8152724D01*
X8126884Y9518076D01*
X8103716Y9504700D01*
X8084800Y9485784D01*
X8071424Y9462616D01*
X8064500Y9436776D01*
Y9410024D01*
X8071424Y9384184D01*
X8084800Y9361016D01*
X8103716Y9342100D01*
X8126884Y9328724D01*
X8152724Y9321800D01*
X8179476D01*
X8205316Y9328724D01*
X8228484Y9342100D01*
X8247400Y9361016D01*
X8260776Y9384184D01*
X8267700Y9410024D01*
Y9436776D01*
X8260776Y9462616D01*
X8247400Y9485784D01*
X8228484Y9504700D01*
X8205316Y9518076D01*
X8179476Y9525000D01*
D02*
G37*
G36*
X7682869Y9867900D02*
X7404100D01*
X7125331D01*
X7127805Y9849104D01*
X7139962Y9819754D01*
X7159301Y9794551D01*
X7184504Y9775212D01*
X7203494Y9767346D01*
Y9739854D01*
X7184504Y9731988D01*
X7159301Y9712649D01*
X7139962Y9687446D01*
X7127805Y9658096D01*
X7123659Y9626600D01*
X7127805Y9595104D01*
X7139962Y9565754D01*
X7159301Y9540551D01*
X7184504Y9521212D01*
X7203494Y9513346D01*
Y9485854D01*
X7184504Y9477988D01*
X7159301Y9458649D01*
X7139962Y9433446D01*
X7127805Y9404096D01*
X7123659Y9372600D01*
X7127805Y9341104D01*
X7139962Y9311754D01*
X7159301Y9286551D01*
X7184504Y9267212D01*
X7213854Y9255055D01*
X7245350Y9250909D01*
X7562850D01*
X7594346Y9255055D01*
X7623696Y9267212D01*
X7648899Y9286551D01*
X7668238Y9311754D01*
X7680395Y9341104D01*
X7684541Y9372600D01*
X7680395Y9404096D01*
X7668238Y9433446D01*
X7648899Y9458649D01*
X7623696Y9477988D01*
X7604706Y9485854D01*
Y9513346D01*
X7623696Y9521212D01*
X7648899Y9540551D01*
X7668238Y9565754D01*
X7680395Y9595104D01*
X7684541Y9626600D01*
X7680395Y9658096D01*
X7668238Y9687446D01*
X7648899Y9712649D01*
X7623696Y9731988D01*
X7604706Y9739854D01*
Y9767346D01*
X7623696Y9775212D01*
X7648899Y9794551D01*
X7668238Y9819754D01*
X7680395Y9849104D01*
X7682869Y9867900D01*
D02*
G37*
G36*
X9703476Y10541000D02*
X9676724D01*
X9650884Y10534076D01*
X9627716Y10520700D01*
X9608800Y10501784D01*
X9595424Y10478616D01*
X9588500Y10452776D01*
Y10426024D01*
X9595424Y10400184D01*
X9608800Y10377016D01*
X9627716Y10358100D01*
X9650884Y10344724D01*
X9674180Y10338481D01*
X9676724Y10337799D01*
X9680722Y10336080D01*
X9682274Y10312401D01*
X9673535Y10311249D01*
X9658935Y10309327D01*
X9629895Y10297298D01*
X9604957Y10278163D01*
X9585822Y10253225D01*
X9573793Y10224185D01*
X9569690Y10193020D01*
Y10177780D01*
X9573793Y10146615D01*
X9585822Y10117575D01*
X9604957Y10092637D01*
X9629895Y10073502D01*
X9633166Y10072146D01*
Y10044654D01*
X9629895Y10043298D01*
X9604957Y10024163D01*
X9585822Y9999225D01*
X9573793Y9970185D01*
X9569690Y9939020D01*
Y9923780D01*
X9573793Y9892615D01*
X9585822Y9863575D01*
X9604957Y9838637D01*
X9629895Y9819502D01*
X9633166Y9818146D01*
Y9790654D01*
X9629895Y9789298D01*
X9604957Y9770163D01*
X9585822Y9745225D01*
X9573793Y9716185D01*
X9569690Y9685020D01*
Y9669780D01*
X9573793Y9638615D01*
X9585822Y9609575D01*
X9604957Y9584637D01*
X9629895Y9565502D01*
X9633166Y9564146D01*
Y9536654D01*
X9629895Y9535298D01*
X9604957Y9516163D01*
X9585822Y9491225D01*
X9573793Y9462185D01*
X9569690Y9431020D01*
Y9415780D01*
X9573793Y9384615D01*
X9585822Y9355575D01*
X9604957Y9330637D01*
X9629895Y9311502D01*
X9658935Y9299473D01*
X9673534Y9297551D01*
X9682274Y9296399D01*
X9680722Y9272720D01*
X9676724Y9271001D01*
X9674460Y9270393D01*
X9650884Y9264076D01*
X9627716Y9250700D01*
X9608800Y9231784D01*
X9595424Y9208616D01*
X9588500Y9182776D01*
Y9156024D01*
X9595424Y9130184D01*
X9608800Y9107016D01*
X9627716Y9088100D01*
X9650884Y9074724D01*
X9676724Y9067800D01*
X9703476D01*
X9729316Y9074724D01*
X9752484Y9088100D01*
X9771400Y9107016D01*
X9784776Y9130184D01*
X9791700Y9156024D01*
Y9182776D01*
X9784776Y9208616D01*
X9771400Y9231784D01*
X9752484Y9250700D01*
X9729316Y9264076D01*
X9706020Y9270319D01*
X9703476Y9271001D01*
X9699478Y9272720D01*
X9697926Y9296399D01*
X9706665Y9297551D01*
X9721265Y9299473D01*
X9750305Y9311502D01*
X9775243Y9330637D01*
X9794378Y9355575D01*
X9806407Y9384615D01*
X9810510Y9415780D01*
Y9431020D01*
X9806407Y9462185D01*
X9794378Y9491225D01*
X9775243Y9516163D01*
X9750305Y9535298D01*
X9747034Y9536654D01*
Y9564146D01*
X9750305Y9565502D01*
X9775243Y9584637D01*
X9794378Y9609575D01*
X9806407Y9638615D01*
X9810510Y9669780D01*
Y9685020D01*
X9806407Y9716185D01*
X9794378Y9745225D01*
X9775243Y9770163D01*
X9750305Y9789298D01*
X9747034Y9790654D01*
Y9818146D01*
X9750305Y9819502D01*
X9775243Y9838637D01*
X9794378Y9863575D01*
X9806407Y9892615D01*
X9810510Y9923780D01*
Y9939020D01*
X9806407Y9970185D01*
X9794378Y9999225D01*
X9775243Y10024163D01*
X9750305Y10043298D01*
X9747034Y10044654D01*
Y10072146D01*
X9750305Y10073502D01*
X9775243Y10092637D01*
X9794378Y10117575D01*
X9806407Y10146615D01*
X9810510Y10177780D01*
Y10193020D01*
X9806407Y10224185D01*
X9794378Y10253225D01*
X9775243Y10278163D01*
X9750305Y10297298D01*
X9721265Y10309327D01*
X9706666Y10311249D01*
X9697926Y10312401D01*
X9699478Y10336080D01*
X9703476Y10337799D01*
X9705740Y10338407D01*
X9729316Y10344724D01*
X9752484Y10358100D01*
X9771400Y10377016D01*
X9784776Y10400184D01*
X9791700Y10426024D01*
Y10452776D01*
X9784776Y10478616D01*
X9771400Y10501784D01*
X9752484Y10520700D01*
X9729316Y10534076D01*
X9703476Y10541000D01*
D02*
G37*
G36*
X8179476Y9271000D02*
X8152724D01*
X8126884Y9264076D01*
X8103716Y9250700D01*
X8084800Y9231784D01*
X8071424Y9208616D01*
X8064500Y9182776D01*
Y9156024D01*
X8071424Y9130184D01*
X8084800Y9107016D01*
X8103716Y9088100D01*
X8126884Y9074724D01*
X8152724Y9067800D01*
X8179476D01*
X8205316Y9074724D01*
X8228484Y9088100D01*
X8247400Y9107016D01*
X8260776Y9130184D01*
X8267700Y9156024D01*
Y9182776D01*
X8260776Y9208616D01*
X8247400Y9231784D01*
X8228484Y9250700D01*
X8205316Y9264076D01*
X8179476Y9271000D01*
D02*
G37*
G36*
X10062975Y9357500D02*
X10028425D01*
X9994538Y9350759D01*
X9962617Y9337537D01*
X9933889Y9318342D01*
X9909458Y9293911D01*
X9890263Y9265183D01*
X9877041Y9233262D01*
X9870300Y9199375D01*
Y9164825D01*
X9877041Y9130938D01*
X9890263Y9099017D01*
X9909458Y9070289D01*
X9933889Y9045858D01*
X9962617Y9026663D01*
X9994538Y9013441D01*
X10028425Y9006700D01*
X10062975D01*
X10096862Y9013441D01*
X10128783Y9026663D01*
X10157511Y9045858D01*
X10181942Y9070289D01*
X10201137Y9099017D01*
X10214359Y9130938D01*
X10221100Y9164825D01*
Y9199375D01*
X10214359Y9233262D01*
X10201137Y9265183D01*
X10181942Y9293911D01*
X10157511Y9318342D01*
X10128783Y9337537D01*
X10096862Y9350759D01*
X10062975Y9357500D01*
D02*
G37*
G36*
X9703476Y9017000D02*
X9676724D01*
X9650884Y9010076D01*
X9627716Y8996700D01*
X9608800Y8977784D01*
X9595424Y8954616D01*
X9588500Y8928776D01*
Y8902024D01*
X9595424Y8876184D01*
X9608800Y8853016D01*
X9627716Y8834100D01*
X9650884Y8820724D01*
X9676724Y8813800D01*
X9703476D01*
X9729316Y8820724D01*
X9752484Y8834100D01*
X9771400Y8853016D01*
X9784776Y8876184D01*
X9791700Y8902024D01*
Y8928776D01*
X9784776Y8954616D01*
X9771400Y8977784D01*
X9752484Y8996700D01*
X9729316Y9010076D01*
X9703476Y9017000D01*
D02*
G37*
G36*
X8179476D02*
X8152724D01*
X8126884Y9010076D01*
X8103716Y8996700D01*
X8084800Y8977784D01*
X8071424Y8954616D01*
X8064500Y8928776D01*
Y8902024D01*
X8071424Y8876184D01*
X8084800Y8853016D01*
X8103716Y8834100D01*
X8126884Y8820724D01*
X8152724Y8813800D01*
X8179476D01*
X8205316Y8820724D01*
X8228484Y8834100D01*
X8247400Y8853016D01*
X8260776Y8876184D01*
X8267700Y8902024D01*
Y8928776D01*
X8260776Y8954616D01*
X8247400Y8977784D01*
X8228484Y8996700D01*
X8205316Y9010076D01*
X8179476Y9017000D01*
D02*
G37*
G36*
X8707120Y8781810D02*
X8641080D01*
X8609915Y8777707D01*
X8580875Y8765678D01*
X8555937Y8746543D01*
X8536802Y8721605D01*
X8534791Y8716750D01*
X8506531Y8714898D01*
X8501400Y8723784D01*
X8482484Y8742700D01*
X8459316Y8756076D01*
X8433476Y8763000D01*
X8406724D01*
X8380884Y8756076D01*
X8357716Y8742700D01*
X8338800Y8723784D01*
X8325424Y8700616D01*
X8318500Y8674776D01*
Y8648024D01*
X8325424Y8622184D01*
X8338800Y8599016D01*
X8357716Y8580100D01*
X8380884Y8566724D01*
X8406724Y8559800D01*
X8433476D01*
X8459316Y8566724D01*
X8482484Y8580100D01*
X8501400Y8599016D01*
X8506531Y8607902D01*
X8534791Y8606050D01*
X8536802Y8601195D01*
X8555937Y8576257D01*
X8580875Y8557122D01*
X8609915Y8545093D01*
X8641080Y8540990D01*
X8707120D01*
X8738285Y8545093D01*
X8767325Y8557122D01*
X8792263Y8576257D01*
X8811398Y8601195D01*
X8813409Y8606050D01*
X8841669Y8607902D01*
X8846800Y8599016D01*
X8865716Y8580100D01*
X8888884Y8566724D01*
X8914724Y8559800D01*
X8941476D01*
X8967316Y8566724D01*
X8990484Y8580100D01*
X9009400Y8599016D01*
X9022776Y8622184D01*
X9029700Y8648024D01*
Y8674776D01*
X9022776Y8700616D01*
X9009400Y8723784D01*
X8990484Y8742700D01*
X8967316Y8756076D01*
X8941476Y8763000D01*
X8914724D01*
X8888884Y8756076D01*
X8865716Y8742700D01*
X8846800Y8723784D01*
X8841669Y8714898D01*
X8813409Y8716750D01*
X8811398Y8721605D01*
X8792263Y8746543D01*
X8767325Y8765678D01*
X8738285Y8777707D01*
X8707120Y8781810D01*
D02*
G37*
G36*
X4576575Y9014600D02*
X4542025D01*
X4508138Y9007859D01*
X4476217Y8994637D01*
X4447489Y8975442D01*
X4423058Y8951011D01*
X4403863Y8922283D01*
X4390641Y8890362D01*
X4383900Y8856475D01*
Y8821925D01*
X4390641Y8788038D01*
X4403863Y8756117D01*
X4423058Y8727389D01*
X4447489Y8702958D01*
X4476217Y8683763D01*
X4508138Y8670541D01*
X4542025Y8663800D01*
X4576575D01*
X4610462Y8670541D01*
X4642383Y8683763D01*
X4671111Y8702958D01*
X4695542Y8727389D01*
X4714737Y8756117D01*
X4727959Y8788038D01*
X4734700Y8821925D01*
Y8856475D01*
X4727959Y8890362D01*
X4714737Y8922283D01*
X4695542Y8951011D01*
X4671111Y8975442D01*
X4642383Y8994637D01*
X4610462Y9007859D01*
X4576575Y9014600D01*
D02*
G37*
G36*
X9703476Y8763000D02*
X9676724D01*
X9650884Y8756076D01*
X9627716Y8742700D01*
X9608800Y8723784D01*
X9595424Y8700616D01*
X9588500Y8674776D01*
Y8648024D01*
X9595424Y8622184D01*
X9608800Y8599016D01*
X9627716Y8580100D01*
X9650884Y8566724D01*
X9676724Y8559800D01*
X9703476D01*
X9729316Y8566724D01*
X9752484Y8580100D01*
X9771400Y8599016D01*
X9784776Y8622184D01*
X9791700Y8648024D01*
Y8674776D01*
X9784776Y8700616D01*
X9771400Y8723784D01*
X9752484Y8742700D01*
X9729316Y8756076D01*
X9703476Y8763000D01*
D02*
G37*
G36*
X9449476D02*
X9422724D01*
X9396884Y8756076D01*
X9373716Y8742700D01*
X9354800Y8723784D01*
X9341424Y8700616D01*
X9334500Y8674776D01*
Y8648024D01*
X9341424Y8622184D01*
X9354800Y8599016D01*
X9373716Y8580100D01*
X9396884Y8566724D01*
X9422724Y8559800D01*
X9449476D01*
X9475316Y8566724D01*
X9498484Y8580100D01*
X9517400Y8599016D01*
X9530776Y8622184D01*
X9537700Y8648024D01*
Y8674776D01*
X9530776Y8700616D01*
X9517400Y8723784D01*
X9498484Y8742700D01*
X9475316Y8756076D01*
X9449476Y8763000D01*
D02*
G37*
G36*
X9195476D02*
X9168724D01*
X9142884Y8756076D01*
X9119716Y8742700D01*
X9100800Y8723784D01*
X9087424Y8700616D01*
X9080500Y8674776D01*
Y8648024D01*
X9087424Y8622184D01*
X9100800Y8599016D01*
X9119716Y8580100D01*
X9142884Y8566724D01*
X9168724Y8559800D01*
X9195476D01*
X9221316Y8566724D01*
X9244484Y8580100D01*
X9263400Y8599016D01*
X9276776Y8622184D01*
X9283700Y8648024D01*
Y8674776D01*
X9276776Y8700616D01*
X9263400Y8723784D01*
X9244484Y8742700D01*
X9221316Y8756076D01*
X9195476Y8763000D01*
D02*
G37*
G36*
X8179476D02*
X8152724D01*
X8126884Y8756076D01*
X8103716Y8742700D01*
X8084800Y8723784D01*
X8071424Y8700616D01*
X8064500Y8674776D01*
Y8648024D01*
X8071424Y8622184D01*
X8084800Y8599016D01*
X8103716Y8580100D01*
X8126884Y8566724D01*
X8152724Y8559800D01*
X8179476D01*
X8205316Y8566724D01*
X8228484Y8580100D01*
X8247400Y8599016D01*
X8260776Y8622184D01*
X8267700Y8648024D01*
Y8674776D01*
X8260776Y8700616D01*
X8247400Y8723784D01*
X8228484Y8742700D01*
X8205316Y8756076D01*
X8179476Y8763000D01*
D02*
G37*
%LPD*%
D12*
X9436100Y8661400D02*
D03*
X9182100D02*
D03*
X8928100D02*
D03*
X8420100D02*
D03*
X9690100Y11709400D02*
D03*
Y11201400D02*
D03*
Y10947400D02*
D03*
Y10693400D02*
D03*
Y10439400D02*
D03*
Y9169400D02*
D03*
Y8915400D02*
D03*
Y8661400D02*
D03*
X8166100Y11201400D02*
D03*
Y10947400D02*
D03*
Y10693400D02*
D03*
Y10439400D02*
D03*
Y10185400D02*
D03*
Y9931400D02*
D03*
Y9677400D02*
D03*
Y9423400D02*
D03*
Y9169400D02*
D03*
Y8915400D02*
D03*
Y8661400D02*
D03*
D13*
X8674100D02*
D03*
D14*
X9690100Y11963400D02*
D03*
Y11455400D02*
D03*
D15*
Y10185400D02*
D03*
Y9931400D02*
D03*
Y9677400D02*
D03*
Y9423400D02*
D03*
X8166100Y11963400D02*
D03*
Y11709400D02*
D03*
Y11455400D02*
D03*
D16*
X10617200Y9545700D02*
D03*
Y9795700D02*
D03*
Y10045700D02*
D03*
X5753100Y11192700D02*
D03*
Y11442700D02*
D03*
Y11692700D02*
D03*
X10629900Y11188700D02*
D03*
Y11438700D02*
D03*
Y11688700D02*
D03*
D17*
X10617200Y10295700D02*
D03*
X5753100Y11942700D02*
D03*
X10629900Y11938700D02*
D03*
D18*
X3720700Y10522200D02*
D03*
X4863700Y11387200D02*
D03*
Y9657200D02*
D03*
D19*
X4330700Y10744700D02*
D03*
Y10299700D02*
D03*
X4965700D02*
D03*
D20*
Y10744700D02*
D03*
D21*
X6007100Y9880600D02*
D03*
Y9626600D02*
D03*
X7404100Y9372600D02*
D03*
Y9626600D02*
D03*
Y9880600D02*
D03*
Y10134600D02*
D03*
%TF.MD5,503fb6fba4cc213dfb464f8ddf5ac3d8*%
M02*
