%TF.GenerationSoftware,Altium Limited,Altium Designer,25.2.1 (25)*%
G04 Layer_Color=0*
%FSLAX45Y45*%
%MOMM*%
%TF.SameCoordinates,EB21593C-EBE9-4C46-B465-0E1A71836AD5*%
%TF.FilePolarity,Positive*%
%TF.FileFunction,Plated,1,2,PTH,Drill*%
%TF.Part,Single*%
G01*
G75*
%TA.AperFunction,ComponentDrill*%
%ADD40C,1.02000*%
%ADD41C,1.02001*%
%ADD42C,0.90000*%
%TA.AperFunction,OtherDrill,Pad Free-1 (100.711mm,121.031mm)*%
%ADD43C,3.00000*%
%TA.AperFunction,OtherDrill,Pad Free-1 (100.457mm,91.821mm)*%
%ADD44C,3.00000*%
%TA.AperFunction,OtherDrill,Pad Free-1 (45.339mm,120.65mm)*%
%ADD45C,3.00000*%
%TA.AperFunction,OtherDrill,Pad Free-1 (45.593mm,88.392mm)*%
%ADD46C,3.00000*%
%TA.AperFunction,ComponentDrill*%
%ADD47C,1.76000*%
%ADD48C,0.76200*%
D40*
X9436100Y8661400D02*
D03*
X9182100D02*
D03*
X8928100D02*
D03*
X8674100D02*
D03*
X8420100D02*
D03*
X9690100Y11963400D02*
D03*
Y11709400D02*
D03*
Y11455400D02*
D03*
Y11201400D02*
D03*
Y10947400D02*
D03*
Y10693400D02*
D03*
Y10439400D02*
D03*
Y10185400D02*
D03*
Y9931400D02*
D03*
Y9677400D02*
D03*
Y9423400D02*
D03*
Y9169400D02*
D03*
Y8915400D02*
D03*
Y8661400D02*
D03*
X8166100Y11709400D02*
D03*
Y11455400D02*
D03*
Y11201400D02*
D03*
Y10947400D02*
D03*
Y10693400D02*
D03*
Y10439400D02*
D03*
Y10185400D02*
D03*
Y9931400D02*
D03*
Y9677400D02*
D03*
Y9423400D02*
D03*
Y9169400D02*
D03*
Y8915400D02*
D03*
Y8661400D02*
D03*
D41*
Y11963400D02*
D03*
D42*
X10617200Y9545700D02*
D03*
Y9795700D02*
D03*
Y10045700D02*
D03*
Y10295700D02*
D03*
X5753100Y11192700D02*
D03*
Y11442700D02*
D03*
Y11692700D02*
D03*
Y11942700D02*
D03*
X10629900Y11188700D02*
D03*
Y11438700D02*
D03*
Y11688700D02*
D03*
Y11938700D02*
D03*
D43*
X10071100Y12103100D02*
D03*
D44*
X10045700Y9182100D02*
D03*
D45*
X4533900Y12065000D02*
D03*
D46*
X4559300Y8839200D02*
D03*
D47*
X4330700Y10744700D02*
D03*
Y10299700D02*
D03*
X4965700Y10744700D02*
D03*
Y10299700D02*
D03*
D48*
X6007100Y9880600D02*
D03*
Y9626600D02*
D03*
X7404100Y9372600D02*
D03*
Y9626600D02*
D03*
Y9880600D02*
D03*
Y10134600D02*
D03*
%TF.MD5,bf1e4b200858b7ae3a34084e50717b43*%
M02*
