%TF.GenerationSoftware,Altium Limited,Altium Designer,25.2.1 (25)*%
G04 Layer_Color=0*
%FSLAX45Y45*%
%MOMM*%
%TF.SameCoordinates,263333B9-CEA0-44AE-B74E-27EC067FB1C6*%
%TF.FilePolarity,Positive*%
%TF.FileFunction,Plated,1,2,PTH,Drill*%
%TF.Part,Single*%
G01*
G75*
%TA.AperFunction,OtherDrill,Pad Free-5 (50.165mm,3.81mm)*%
%ADD45C,0.76200*%
%TA.AperFunction,OtherDrill,Pad Free-4 (42.672mm,3.81mm)*%
%ADD46C,0.76200*%
%TA.AperFunction,ComponentDrill*%
%ADD47C,1.76000*%
%TA.AperFunction,OtherDrill,Pad Free-3 (68.58mm,97.79mm)*%
%ADD48C,3.00000*%
%TA.AperFunction,OtherDrill,Pad Free-3 (68.58mm,3.81mm)*%
%ADD49C,3.00000*%
%TA.AperFunction,OtherDrill,Pad Free-3 (4.445mm,3.81mm)*%
%ADD50C,3.00000*%
%TA.AperFunction,OtherDrill,Pad Free-3 (3.81mm,97.79mm)*%
%ADD51C,3.00000*%
%TA.AperFunction,ComponentDrill*%
%ADD52C,0.90000*%
%ADD53C,1.14300*%
%ADD54C,0.80000*%
%ADD55C,0.70000*%
%ADD56C,0.75000*%
%ADD57C,1.20000*%
%ADD58C,0.85000*%
%ADD59C,1.01600*%
D45*
X5016500Y381000D02*
D03*
D46*
X4267200D02*
D03*
D47*
X1638300Y3479800D02*
D03*
Y2589800D02*
D03*
X2273300Y3479800D02*
D03*
Y3034800D02*
D03*
Y2589800D02*
D03*
X1638300Y3034800D02*
D03*
Y7848600D02*
D03*
Y7403600D02*
D03*
X2273300Y7848600D02*
D03*
Y7403600D02*
D03*
D48*
X6858000Y9779000D02*
D03*
D49*
Y381000D02*
D03*
D50*
X444500D02*
D03*
D51*
X381000Y9779000D02*
D03*
D52*
X4007200Y5613400D02*
D03*
X3757200D02*
D03*
X3507200D02*
D03*
X3257200D02*
D03*
D53*
X6400300Y3960800D02*
D03*
Y4214800D02*
D03*
X4876300Y7516800D02*
D03*
X6400300Y4468800D02*
D03*
Y4722800D02*
D03*
Y4976800D02*
D03*
Y5230800D02*
D03*
Y5484800D02*
D03*
Y5738800D02*
D03*
Y5992800D02*
D03*
Y6246800D02*
D03*
Y6500800D02*
D03*
Y6754800D02*
D03*
Y7008800D02*
D03*
Y7262800D02*
D03*
Y7516800D02*
D03*
X4876300Y7262800D02*
D03*
Y7008800D02*
D03*
Y6754800D02*
D03*
Y6500800D02*
D03*
Y6246800D02*
D03*
Y5992800D02*
D03*
Y5738800D02*
D03*
Y5484800D02*
D03*
Y5230800D02*
D03*
Y4976800D02*
D03*
Y4722800D02*
D03*
Y4468800D02*
D03*
Y4214800D02*
D03*
Y3960800D02*
D03*
X6400300Y7770800D02*
D03*
Y8024800D02*
D03*
Y8278800D02*
D03*
Y8532800D02*
D03*
Y8786800D02*
D03*
Y9040800D02*
D03*
Y9294800D02*
D03*
Y9548800D02*
D03*
Y9802800D02*
D03*
X4876300D02*
D03*
Y9548800D02*
D03*
Y9294800D02*
D03*
Y9040800D02*
D03*
Y8786800D02*
D03*
Y8532800D02*
D03*
Y8278800D02*
D03*
Y8024800D02*
D03*
Y7770800D02*
D03*
D54*
X6146300Y8532800D02*
D03*
X5892300D02*
D03*
X5638300D02*
D03*
X5130300D02*
D03*
Y4214800D02*
D03*
X5384300Y8532800D02*
D03*
D55*
X5121300Y5457800D02*
D03*
Y5257800D02*
D03*
X5321300Y5457800D02*
D03*
X5521300D02*
D03*
X5321300Y5257800D02*
D03*
X5521300D02*
D03*
D56*
X6095300Y4595800D02*
D03*
Y4849800D02*
D03*
Y5103800D02*
D03*
Y5357800D02*
D03*
Y5611800D02*
D03*
D57*
X3168000Y6654800D02*
D03*
Y6908800D02*
D03*
Y7162800D02*
D03*
X3263900Y8420100D02*
D03*
Y8674100D02*
D03*
Y8928100D02*
D03*
D58*
X4076700Y6255600D02*
D03*
Y7155600D02*
D03*
X4089400Y8020900D02*
D03*
Y8920900D02*
D03*
D59*
X4051300Y2463800D02*
D03*
X3797300D02*
D03*
X3543300Y1066800D02*
D03*
X3797300D02*
D03*
X4051300D02*
D03*
X4305300D02*
D03*
X5778500Y2451100D02*
D03*
X5524500D02*
D03*
X5270500Y1054100D02*
D03*
X5524500D02*
D03*
X5778500D02*
D03*
X6032500D02*
D03*
%TF.MD5,7b42019245445915ea5b03ff79ea6d1d*%
M02*
