%TF.GenerationSoftware,Altium Limited,Altium Designer,25.2.1 (25)*%
G04 Layer_Color=65535*
%FSLAX45Y45*%
%MOMM*%
%TF.SameCoordinates,263333B9-CEA0-44AE-B74E-27EC067FB1C6*%
%TF.FilePolarity,Positive*%
%TF.FileFunction,Legend,Top*%
%TF.Part,Single*%
G01*
G75*
%TA.AperFunction,NonConductor*%
%ADD26C,0.50000*%
%ADD27C,0.25000*%
%ADD28C,0.20000*%
%ADD29C,0.15240*%
%ADD30C,0.12700*%
%ADD31C,0.25400*%
G36*
X2884311Y1102078D02*
X2933700D01*
Y1100667D01*
X2953456D01*
Y1097845D01*
X2952044D01*
Y1092200D01*
X2950633D01*
Y1087967D01*
X2949222D01*
Y1085145D01*
X2947811D01*
Y1079500D01*
X2946400D01*
Y1076678D01*
X2944989D01*
Y1072445D01*
X2943578D01*
Y1066800D01*
X2942167D01*
Y1065389D01*
X2940756D01*
Y1059745D01*
X2939344D01*
Y1055511D01*
X2937933D01*
Y1052689D01*
X2936522D01*
Y1047045D01*
X2935111D01*
Y1045633D01*
X2933700D01*
Y1039989D01*
X2932289D01*
Y1035756D01*
X2930878D01*
Y1032933D01*
X2929467D01*
Y1027289D01*
X2928056D01*
Y1024467D01*
X2926644D01*
Y1021645D01*
X2925233D01*
Y1016000D01*
X2923822D01*
Y1013178D01*
X2922411D01*
Y1008945D01*
X2921000D01*
Y1003300D01*
X2919589D01*
Y1001889D01*
X2918178D01*
Y996245D01*
X2916767D01*
Y993422D01*
X2915356D01*
Y989189D01*
X2913944D01*
Y983545D01*
X2912533D01*
Y982133D01*
X2911122D01*
Y976489D01*
X2909711D01*
Y972256D01*
X2908300D01*
Y969433D01*
X2906889D01*
Y965200D01*
X2905478D01*
Y960967D01*
X2904067D01*
Y958145D01*
X2902656D01*
Y952500D01*
X2901244D01*
Y949678D01*
X2899833D01*
Y945445D01*
X2898422D01*
Y939800D01*
X2897011D01*
Y936978D01*
X2895600D01*
Y931333D01*
X2894189D01*
Y928511D01*
X2892778D01*
Y924278D01*
X2891367D01*
Y920045D01*
X2889956D01*
Y917222D01*
X2888544D01*
Y911578D01*
X2887133D01*
Y907345D01*
X2885722D01*
Y904522D01*
X2884311D01*
Y894645D01*
X2940756D01*
Y896056D01*
X2942167D01*
Y897467D01*
X2943578D01*
Y901700D01*
X2944989D01*
Y905933D01*
X2946400D01*
Y908756D01*
X2947811D01*
Y912989D01*
X2949222D01*
Y917222D01*
X2950633D01*
Y920045D01*
X2952044D01*
Y925689D01*
X2953456D01*
Y927100D01*
X2954867D01*
Y932745D01*
X2956278D01*
Y936978D01*
X2957689D01*
Y939800D01*
X2959100D01*
Y944033D01*
X2960511D01*
Y948267D01*
X2961922D01*
Y951089D01*
X2963333D01*
Y956733D01*
X2964744D01*
Y958145D01*
X2966156D01*
Y963789D01*
X2967567D01*
Y968022D01*
X2968978D01*
Y970845D01*
X2970389D01*
Y975078D01*
X2971800D01*
Y977900D01*
X2973211D01*
Y982133D01*
X2974622D01*
Y987778D01*
X2976033D01*
Y989189D01*
X2977444D01*
Y994833D01*
X2978856D01*
Y999067D01*
X2980267D01*
Y1000478D01*
X2981678D01*
Y1006122D01*
X2983089D01*
Y1008945D01*
X2984500D01*
Y1013178D01*
X2985911D01*
Y1017411D01*
X2987322D01*
Y1020233D01*
X2988733D01*
Y1024467D01*
X2990144D01*
Y1030111D01*
X2991556D01*
Y1031522D01*
X2992967D01*
Y1037167D01*
X2994378D01*
Y1039989D01*
X2995789D01*
Y1044222D01*
X2997200D01*
Y1048456D01*
X2998611D01*
Y1051278D01*
X3000022D01*
Y1055511D01*
X3001433D01*
Y1059745D01*
X3002844D01*
Y1062567D01*
X3004256D01*
Y1068211D01*
X3005667D01*
Y1069622D01*
X3007078D01*
Y1073856D01*
X3008489D01*
Y1079500D01*
X3009900D01*
Y1080911D01*
X3011311D01*
Y1086556D01*
X3012722D01*
Y1090789D01*
X3014133D01*
Y1093611D01*
X3015544D01*
Y1099256D01*
X3016956D01*
Y1100667D01*
X3049411D01*
Y1102078D01*
X3184878D01*
Y1100667D01*
X3196167D01*
Y1097845D01*
X3194756D01*
Y1093611D01*
X3193344D01*
Y1090789D01*
X3191933D01*
Y1085145D01*
X3190522D01*
Y1082322D01*
X3189111D01*
Y1078089D01*
X3187700D01*
Y1073856D01*
X3186289D01*
Y1071033D01*
X3184878D01*
Y1066800D01*
X3183467D01*
Y1061156D01*
X3182056D01*
Y1059745D01*
X3180644D01*
Y1054100D01*
X3179233D01*
Y1051278D01*
X3177822D01*
Y1047045D01*
X3176411D01*
Y1041400D01*
X3175000D01*
Y1039989D01*
X3173589D01*
Y1034345D01*
X3172178D01*
Y1030111D01*
X3170767D01*
Y1027289D01*
X3169356D01*
Y1021645D01*
X3167944D01*
Y1020233D01*
X3166533D01*
Y1016000D01*
X3165122D01*
Y1010356D01*
X3163711D01*
Y1007533D01*
X3162300D01*
Y1003300D01*
X3160889D01*
Y999067D01*
X3159478D01*
Y996245D01*
X3158067D01*
Y990600D01*
X3156656D01*
Y989189D01*
X3155244D01*
Y983545D01*
X3153833D01*
Y979311D01*
X3152422D01*
Y976489D01*
X3151011D01*
Y972256D01*
X3149600D01*
Y968022D01*
X3148189D01*
Y965200D01*
X3146778D01*
Y959556D01*
X3145367D01*
Y958145D01*
X3143956D01*
Y952500D01*
X3142544D01*
Y949678D01*
Y948267D01*
X3141133D01*
Y946856D01*
X3139722D01*
Y941211D01*
X3138311D01*
Y936978D01*
X3136900D01*
Y934156D01*
X3135489D01*
Y928511D01*
X3134078D01*
Y927100D01*
X3132667D01*
Y921456D01*
X3131256D01*
Y917222D01*
X3129844D01*
Y914400D01*
X3128433D01*
Y910167D01*
X3127022D01*
Y905933D01*
X3125611D01*
Y903111D01*
X3124200D01*
Y897467D01*
X3122789D01*
Y896056D01*
X3121378D01*
Y890411D01*
X3119967D01*
Y886178D01*
X3118556D01*
Y884767D01*
X3117144D01*
Y879122D01*
X3115733D01*
Y874889D01*
X3114322D01*
Y872067D01*
X3112911D01*
Y867833D01*
X3111500D01*
Y865011D01*
X3110089D01*
Y860778D01*
X3108678D01*
Y855133D01*
X3107267D01*
Y853722D01*
X3105856D01*
Y848078D01*
X3104444D01*
Y845256D01*
X3103033D01*
Y842433D01*
X3101622D01*
Y836789D01*
X3100211D01*
Y835378D01*
X3098800D01*
Y831145D01*
X3097389D01*
Y829733D01*
X3083278D01*
Y828322D01*
X3026833D01*
Y826911D01*
X3004256D01*
Y828322D01*
X2767189D01*
Y829733D01*
X2726267D01*
Y831145D01*
X2724856D01*
Y832556D01*
X2723444D01*
Y833967D01*
X2720622D01*
Y835378D01*
X2719211D01*
Y836789D01*
X2716389D01*
Y838200D01*
X2714978D01*
Y839611D01*
X2713567D01*
Y841022D01*
X2712156D01*
Y843845D01*
X2710744D01*
Y845256D01*
X2709333D01*
Y846667D01*
X2707922D01*
Y849489D01*
X2706511D01*
Y850900D01*
X2705100D01*
Y853722D01*
X2703689D01*
Y857956D01*
X2702278D01*
Y859367D01*
X2700867D01*
Y865011D01*
X2699456D01*
Y877711D01*
X2700867D01*
Y884767D01*
X2702278D01*
Y886178D01*
X2703689D01*
Y893233D01*
X2705100D01*
Y897467D01*
X2706511D01*
Y900289D01*
X2707922D01*
Y905933D01*
X2709333D01*
Y908756D01*
X2710744D01*
Y912989D01*
X2712156D01*
Y918633D01*
X2713567D01*
Y921456D01*
X2714978D01*
Y927100D01*
X2716389D01*
Y931333D01*
X2717800D01*
Y934156D01*
X2719211D01*
Y939800D01*
X2720622D01*
Y941211D01*
X2722033D01*
Y946856D01*
X2723444D01*
Y951089D01*
X2724856D01*
Y953911D01*
X2726267D01*
Y959556D01*
X2727678D01*
Y963789D01*
X2729089D01*
Y965200D01*
X2730500D01*
Y970845D01*
X2731911D01*
Y973667D01*
X2733322D01*
Y977900D01*
X2734733D01*
Y983545D01*
X2736144D01*
Y984956D01*
X2737556D01*
Y990600D01*
X2738967D01*
Y994833D01*
X2740378D01*
Y997656D01*
X2741789D01*
Y1003300D01*
X2743200D01*
Y1004711D01*
X2744611D01*
Y1010356D01*
X2746022D01*
Y1014589D01*
X2747433D01*
Y1017411D01*
X2748844D01*
Y1021645D01*
X2750256D01*
Y1025878D01*
X2751667D01*
Y1028700D01*
X2753078D01*
Y1034345D01*
X2754489D01*
Y1037167D01*
X2755900D01*
Y1041400D01*
X2757311D01*
Y1047045D01*
X2758722D01*
Y1048456D01*
X2760133D01*
Y1054100D01*
X2761544D01*
Y1058333D01*
X2762956D01*
Y1061156D01*
X2764367D01*
Y1066800D01*
X2765778D01*
Y1069622D01*
X2767189D01*
Y1073856D01*
X2768600D01*
Y1079500D01*
X2770011D01*
Y1080911D01*
X2771422D01*
Y1086556D01*
X2772833D01*
Y1090789D01*
X2774244D01*
Y1093611D01*
X2775656D01*
Y1099256D01*
X2774244D01*
Y1097845D01*
X2771422D01*
Y1096433D01*
X2770011D01*
Y1095022D01*
X2768600D01*
Y1093611D01*
X2765778D01*
Y1092200D01*
X2762956D01*
Y1090789D01*
X2761544D01*
Y1089378D01*
X2760133D01*
Y1087967D01*
X2758722D01*
Y1086556D01*
X2755900D01*
Y1085145D01*
X2753078D01*
Y1082322D01*
X2750256D01*
Y1080911D01*
X2748844D01*
Y1079500D01*
X2746022D01*
Y1078089D01*
X2744611D01*
Y1076678D01*
X2743200D01*
Y1075267D01*
X2741789D01*
Y1073856D01*
X2738967D01*
Y1072445D01*
X2737556D01*
Y1071033D01*
X2734733D01*
Y1069622D01*
X2733322D01*
Y1068211D01*
X2731911D01*
Y1066800D01*
X2729089D01*
Y1065389D01*
X2727678D01*
Y1063978D01*
X2726267D01*
Y1062567D01*
X2723444D01*
Y1061156D01*
X2722033D01*
Y1059745D01*
X2720622D01*
Y1058333D01*
X2717800D01*
Y1056922D01*
X2716389D01*
Y1055511D01*
X2714978D01*
Y1054100D01*
X2713567D01*
Y1052689D01*
X2710744D01*
Y1051278D01*
X2707922D01*
Y1048456D01*
X2705100D01*
Y1047045D01*
X2703689D01*
Y1045633D01*
X2700867D01*
Y1044222D01*
X2699456D01*
Y1042811D01*
X2698044D01*
Y1041400D01*
X2696633D01*
Y1039989D01*
X2693811D01*
Y1038578D01*
X2692400D01*
Y1037167D01*
X2689578D01*
Y1035756D01*
X2688167D01*
Y1034345D01*
X2686756D01*
Y1032933D01*
X2683933D01*
Y1031522D01*
X2682522D01*
Y1030111D01*
X2681111D01*
Y1028700D01*
X2678289D01*
Y1025878D01*
X2675467D01*
Y1024467D01*
X2672644D01*
Y1023056D01*
X2671233D01*
Y1021645D01*
X2669822D01*
Y1020233D01*
X2668411D01*
Y1018822D01*
X2665589D01*
Y1017411D01*
X2664178D01*
Y1016000D01*
X2662767D01*
Y1014589D01*
X2659944D01*
Y1013178D01*
X2658533D01*
Y1011767D01*
X2657122D01*
Y1010356D01*
X2654300D01*
Y1008945D01*
X2652889D01*
Y1007533D01*
X2651478D01*
Y1006122D01*
X2650067D01*
Y1004711D01*
X2648656D01*
Y1003300D01*
X2645833D01*
Y1001889D01*
X2643011D01*
Y1000478D01*
X2641600D01*
Y999067D01*
X2640189D01*
Y997656D01*
X2638778D01*
Y996245D01*
X2635956D01*
Y994833D01*
X2634544D01*
Y993422D01*
X2633133D01*
Y992011D01*
X2630311D01*
Y990600D01*
X2628900D01*
Y989189D01*
X2627489D01*
Y987778D01*
X2624667D01*
Y986367D01*
X2623256D01*
Y984956D01*
X2621844D01*
Y983545D01*
X2620433D01*
Y982133D01*
X2619022D01*
Y980722D01*
X2616200D01*
Y979311D01*
X2614789D01*
Y977900D01*
X2613378D01*
Y976489D01*
X2610556D01*
Y975078D01*
X2609144D01*
Y973667D01*
X2607733D01*
Y972256D01*
X2604911D01*
Y970845D01*
X2603500D01*
Y969433D01*
X2602089D01*
Y968022D01*
X2600678D01*
Y966611D01*
X2599267D01*
Y965200D01*
X2596444D01*
Y963789D01*
X2595033D01*
Y960967D01*
X2593622D01*
Y959556D01*
X2592211D01*
Y955322D01*
X2590800D01*
Y951089D01*
X2589389D01*
Y949678D01*
X2587978D01*
Y944033D01*
X2586567D01*
Y941211D01*
X2585156D01*
Y938389D01*
X2583744D01*
Y932745D01*
X2582333D01*
Y931333D01*
X2580922D01*
Y925689D01*
X2579511D01*
Y921456D01*
X2578100D01*
Y920045D01*
X2576689D01*
Y914400D01*
X2575278D01*
Y911578D01*
X2573867D01*
Y907345D01*
X2572456D01*
Y903111D01*
X2571044D01*
Y900289D01*
X2569633D01*
Y896056D01*
X2568222D01*
Y890411D01*
X2566811D01*
Y889000D01*
X2565400D01*
Y883356D01*
X2563989D01*
Y880533D01*
X2562578D01*
Y876300D01*
X2561167D01*
Y872067D01*
X2559756D01*
Y869245D01*
X2558344D01*
Y865011D01*
X2556933D01*
Y859367D01*
X2555522D01*
Y857956D01*
X2554111D01*
Y852311D01*
X2552700D01*
Y849489D01*
X2551289D01*
Y845256D01*
X2549878D01*
Y839611D01*
X2548467D01*
Y838200D01*
X2547056D01*
Y832556D01*
X2545644D01*
Y829733D01*
X2544233D01*
Y828322D01*
X2530122D01*
Y826911D01*
X2404533D01*
Y828322D01*
X2372078D01*
Y829733D01*
X2365022D01*
Y831145D01*
X2366433D01*
Y836789D01*
X2367844D01*
Y839611D01*
X2369256D01*
Y843845D01*
X2370667D01*
Y849489D01*
X2372078D01*
Y850900D01*
X2373489D01*
Y856545D01*
X2374900D01*
Y860778D01*
X2376311D01*
Y863600D01*
X2377722D01*
Y867833D01*
X2379133D01*
Y870656D01*
X2380544D01*
Y874889D01*
X2381956D01*
Y880533D01*
X2383367D01*
Y881945D01*
X2384778D01*
Y887589D01*
X2386189D01*
Y891822D01*
X2387600D01*
Y894645D01*
X2389011D01*
Y898878D01*
X2390422D01*
Y901700D01*
X2391833D01*
Y905933D01*
X2393244D01*
Y911578D01*
X2394656D01*
Y912989D01*
X2396067D01*
Y918633D01*
X2397478D01*
Y922867D01*
X2398889D01*
Y925689D01*
X2400300D01*
Y931333D01*
X2401711D01*
Y932745D01*
X2403122D01*
Y938389D01*
X2404533D01*
Y942622D01*
X2405944D01*
Y945445D01*
X2407356D01*
Y949678D01*
X2408767D01*
Y955322D01*
X2410178D01*
Y958145D01*
X2411589D01*
Y965200D01*
X2413000D01*
Y966611D01*
X2411589D01*
Y972256D01*
X2410178D01*
Y975078D01*
X2408767D01*
Y977900D01*
X2407356D01*
Y980722D01*
X2405944D01*
Y982133D01*
X2404533D01*
Y984956D01*
X2403122D01*
Y987778D01*
X2401711D01*
Y989189D01*
X2400300D01*
Y992011D01*
X2398889D01*
Y994833D01*
X2397478D01*
Y996245D01*
X2396067D01*
Y999067D01*
X2394656D01*
Y1001889D01*
X2393244D01*
Y1003300D01*
X2391833D01*
Y1007533D01*
X2390422D01*
Y1008945D01*
X2389011D01*
Y1011767D01*
X2387600D01*
Y1013178D01*
X2386189D01*
Y1016000D01*
X2384778D01*
Y1018822D01*
X2383367D01*
Y1020233D01*
X2381956D01*
Y1023056D01*
X2380544D01*
Y1025878D01*
X2379133D01*
Y1027289D01*
X2377722D01*
Y1030111D01*
X2376311D01*
Y1032933D01*
X2374900D01*
Y1035756D01*
X2373489D01*
Y1037167D01*
X2372078D01*
Y1039989D01*
X2370667D01*
Y1042811D01*
X2369256D01*
Y1045633D01*
X2367844D01*
Y1047045D01*
X2366433D01*
Y1049867D01*
X2365022D01*
Y1051278D01*
X2363611D01*
Y1054100D01*
X2362200D01*
Y1056922D01*
X2360789D01*
Y1058333D01*
X2359378D01*
Y1061156D01*
X2357967D01*
Y1063978D01*
X2356556D01*
Y1065389D01*
X2355144D01*
Y1068211D01*
X2353733D01*
Y1071033D01*
X2352322D01*
Y1073856D01*
X2350911D01*
Y1075267D01*
X2349500D01*
Y1078089D01*
X2348089D01*
Y1080911D01*
X2346678D01*
Y1083733D01*
X2345267D01*
Y1085145D01*
X2343856D01*
Y1087967D01*
X2342444D01*
Y1090789D01*
X2341033D01*
Y1092200D01*
X2339622D01*
Y1095022D01*
X2338211D01*
Y1097845D01*
X2336800D01*
Y1100667D01*
X2338211D01*
Y1102078D01*
X2483556D01*
Y1100667D01*
X2517422D01*
Y1097845D01*
X2518833D01*
Y1096433D01*
X2520244D01*
Y1093611D01*
X2521656D01*
Y1090789D01*
X2523067D01*
Y1089378D01*
X2524478D01*
Y1086556D01*
X2525889D01*
Y1085145D01*
X2527300D01*
Y1082322D01*
X2528711D01*
Y1079500D01*
X2530122D01*
Y1078089D01*
X2531533D01*
Y1075267D01*
X2532944D01*
Y1073856D01*
X2534356D01*
Y1071033D01*
X2535767D01*
Y1069622D01*
X2537178D01*
Y1068211D01*
X2538589D01*
Y1066800D01*
X2540000D01*
Y1068211D01*
X2541411D01*
Y1069622D01*
X2544233D01*
Y1071033D01*
X2547056D01*
Y1073856D01*
X2549878D01*
Y1075267D01*
X2551289D01*
Y1076678D01*
X2554111D01*
Y1078089D01*
X2555522D01*
Y1079500D01*
X2556933D01*
Y1080911D01*
X2559756D01*
Y1082322D01*
X2561167D01*
Y1083733D01*
X2562578D01*
Y1085145D01*
X2565400D01*
Y1086556D01*
X2566811D01*
Y1087967D01*
X2568222D01*
Y1089378D01*
X2571044D01*
Y1090789D01*
X2572456D01*
Y1092200D01*
X2573867D01*
Y1093611D01*
X2575278D01*
Y1095022D01*
X2576689D01*
Y1096433D01*
X2579511D01*
Y1097845D01*
X2580922D01*
Y1099256D01*
X2583744D01*
Y1100667D01*
X2585156D01*
Y1102078D01*
X2586567D01*
Y1103489D01*
X2884311D01*
Y1102078D01*
D02*
G37*
G36*
X2057400D02*
X2195689D01*
Y1100667D01*
X2276122D01*
Y1099256D01*
X2286000D01*
Y1097845D01*
X2288822D01*
Y1096433D01*
X2294467D01*
Y1095022D01*
X2297289D01*
Y1093611D01*
X2301522D01*
Y1092200D01*
X2304344D01*
Y1090789D01*
X2307167D01*
Y1089378D01*
X2309989D01*
Y1087967D01*
X2312811D01*
Y1086556D01*
X2314222D01*
Y1085145D01*
X2317044D01*
Y1083733D01*
X2318456D01*
Y1082322D01*
X2321278D01*
Y1080911D01*
X2322689D01*
Y1079500D01*
X2324100D01*
Y1078089D01*
X2325511D01*
Y1075267D01*
X2326922D01*
Y1073856D01*
X2328333D01*
Y1072445D01*
X2329744D01*
Y1069622D01*
X2331156D01*
Y1066800D01*
X2332567D01*
Y1061156D01*
X2333978D01*
Y1035756D01*
X2332567D01*
Y1023056D01*
X2331156D01*
Y1020233D01*
X2329744D01*
Y1016000D01*
X2328333D01*
Y1011767D01*
X2326922D01*
Y1010356D01*
X2325511D01*
Y1006122D01*
X2324100D01*
Y1003300D01*
X2322689D01*
Y1001889D01*
X2321278D01*
Y999067D01*
X2319867D01*
Y997656D01*
X2318456D01*
Y994833D01*
X2317044D01*
Y993422D01*
X2315633D01*
Y992011D01*
X2314222D01*
Y989189D01*
X2312811D01*
Y987778D01*
X2311400D01*
Y984956D01*
X2309989D01*
Y983545D01*
X2308578D01*
Y982133D01*
X2307167D01*
Y980722D01*
X2305756D01*
Y979311D01*
X2304344D01*
Y977900D01*
X2302933D01*
Y976489D01*
X2301522D01*
Y973667D01*
X2300111D01*
Y972256D01*
X2298700D01*
Y970845D01*
X2297289D01*
Y969433D01*
X2294467D01*
Y968022D01*
X2293056D01*
Y966611D01*
X2291644D01*
Y965200D01*
X2290233D01*
Y963789D01*
X2288822D01*
Y962378D01*
X2286000D01*
Y960967D01*
X2284589D01*
Y959556D01*
X2283178D01*
Y955322D01*
X2284589D01*
Y952500D01*
X2286000D01*
Y951089D01*
X2287411D01*
Y946856D01*
X2288822D01*
Y944033D01*
X2290233D01*
Y941211D01*
X2291644D01*
Y935567D01*
X2293056D01*
Y932745D01*
X2294467D01*
Y921456D01*
X2293056D01*
Y917222D01*
X2291644D01*
Y910167D01*
X2290233D01*
Y907345D01*
X2288822D01*
Y903111D01*
X2287411D01*
Y900289D01*
X2286000D01*
Y897467D01*
X2284589D01*
Y894645D01*
X2283178D01*
Y891822D01*
X2281767D01*
Y890411D01*
X2280356D01*
Y886178D01*
X2278944D01*
Y884767D01*
X2277533D01*
Y883356D01*
X2276122D01*
Y880533D01*
X2274711D01*
Y879122D01*
X2273300D01*
Y876300D01*
X2271889D01*
Y874889D01*
X2270478D01*
Y873478D01*
X2269067D01*
Y872067D01*
X2267656D01*
Y870656D01*
X2266244D01*
Y867833D01*
X2263422D01*
Y866422D01*
X2262011D01*
Y865011D01*
X2260600D01*
Y863600D01*
X2259189D01*
Y862189D01*
X2257778D01*
Y860778D01*
X2256367D01*
Y859367D01*
X2254956D01*
Y857956D01*
X2253544D01*
Y856545D01*
X2250722D01*
Y855133D01*
X2249311D01*
Y853722D01*
X2246489D01*
Y852311D01*
X2245078D01*
Y850900D01*
X2242256D01*
Y849489D01*
X2239433D01*
Y848078D01*
X2236611D01*
Y846667D01*
X2235200D01*
Y845256D01*
X2230967D01*
Y843845D01*
X2229556D01*
Y842433D01*
X2225322D01*
Y841022D01*
X2221089D01*
Y839611D01*
X2219678D01*
Y838200D01*
X2214033D01*
Y836789D01*
X2209800D01*
Y835378D01*
X2205567D01*
Y833967D01*
X2198511D01*
Y832556D01*
X2194278D01*
Y831145D01*
X2181578D01*
Y829733D01*
X2149122D01*
Y828322D01*
X2109611D01*
Y826911D01*
X1855611D01*
Y832556D01*
X1857022D01*
Y838200D01*
X1858433D01*
Y841022D01*
X1859844D01*
Y845256D01*
X1861256D01*
Y849489D01*
X1862667D01*
Y852311D01*
X1864078D01*
Y857956D01*
X1865489D01*
Y860778D01*
X1866900D01*
Y865011D01*
X1868311D01*
Y869245D01*
X1869722D01*
Y872067D01*
X1871133D01*
Y877711D01*
X1872544D01*
Y880533D01*
X1873956D01*
Y884767D01*
X1875367D01*
Y890411D01*
X1876778D01*
Y891822D01*
X1878189D01*
Y897467D01*
X1879600D01*
Y901700D01*
X1881011D01*
Y904522D01*
X1882422D01*
Y908756D01*
X1883833D01*
Y911578D01*
X1885244D01*
Y915811D01*
X1886656D01*
Y921456D01*
X1888067D01*
Y922867D01*
X1889478D01*
Y928511D01*
X1890889D01*
Y932745D01*
X1892300D01*
Y935567D01*
X1893711D01*
Y939800D01*
X1895122D01*
Y942622D01*
X1896533D01*
Y946856D01*
X1897944D01*
Y952500D01*
X1899356D01*
Y953911D01*
X1900767D01*
Y959556D01*
X1902178D01*
Y963789D01*
X1903589D01*
Y966611D01*
X1905000D01*
Y970845D01*
X1906411D01*
Y973667D01*
X1907822D01*
Y977900D01*
X1909233D01*
Y983545D01*
X1910644D01*
Y984956D01*
X1912056D01*
Y990600D01*
X1913467D01*
Y993422D01*
X1914878D01*
Y997656D01*
X1916289D01*
Y1001889D01*
X1917700D01*
Y1004711D01*
X1919111D01*
Y1008945D01*
X1920522D01*
Y1014589D01*
X1921933D01*
Y1016000D01*
X1923344D01*
Y1021645D01*
X1924756D01*
Y1025878D01*
X1926167D01*
Y1028700D01*
X1927578D01*
Y1032933D01*
X1928989D01*
Y1035756D01*
X1930400D01*
Y1039989D01*
X1931811D01*
Y1044222D01*
X1933222D01*
Y1047045D01*
X1934633D01*
Y1052689D01*
X1936044D01*
Y1055511D01*
X1937456D01*
Y1058333D01*
X1938867D01*
Y1063978D01*
X1940278D01*
Y1066800D01*
X1941689D01*
Y1071033D01*
X1943100D01*
Y1075267D01*
X1944511D01*
Y1078089D01*
X1945922D01*
Y1082322D01*
X1947333D01*
Y1086556D01*
X1948744D01*
Y1089378D01*
X1950156D01*
Y1095022D01*
X1951567D01*
Y1097845D01*
X1952978D01*
Y1102078D01*
X1954389D01*
Y1103489D01*
X2057400D01*
Y1102078D01*
D02*
G37*
G36*
X2686756Y715433D02*
X2688167D01*
Y712611D01*
X2690989D01*
Y709789D01*
X2692400D01*
Y706967D01*
X2690989D01*
Y704145D01*
X2688167D01*
Y701322D01*
X2685344D01*
Y699911D01*
X2682522D01*
Y697089D01*
X2676878D01*
Y694267D01*
X2672644D01*
Y692856D01*
X2664178D01*
Y690033D01*
X2652889D01*
Y691445D01*
X2651478D01*
Y692856D01*
X2648656D01*
Y694267D01*
X2645833D01*
Y697089D01*
X2643011D01*
Y699911D01*
X2644422D01*
Y701322D01*
X2650067D01*
Y704145D01*
X2658533D01*
Y705556D01*
X2665589D01*
Y708378D01*
X2671233D01*
Y711200D01*
X2675467D01*
Y712611D01*
X2676878D01*
Y715433D01*
X2679700D01*
Y716845D01*
X2686756D01*
Y715433D01*
D02*
G37*
G36*
X2055989Y722489D02*
X2064456D01*
Y719667D01*
X2071511D01*
Y716845D01*
X2068689D01*
Y715433D01*
X2067278D01*
Y712611D01*
X2063044D01*
Y711200D01*
X2060222D01*
Y708378D01*
X2057400D01*
Y705556D01*
X2054578D01*
Y704145D01*
X2051756D01*
Y702733D01*
X2050344D01*
Y701322D01*
X2048933D01*
Y694267D01*
X2063044D01*
Y695678D01*
X2064456D01*
Y697089D01*
X2078567D01*
Y699911D01*
X2091267D01*
Y701322D01*
X2159000D01*
Y699911D01*
X2170289D01*
Y697089D01*
X2177344D01*
Y695678D01*
X2178756D01*
Y694267D01*
X2182989D01*
Y692856D01*
X2187222D01*
Y690033D01*
X2191456D01*
Y688622D01*
X2192867D01*
Y685800D01*
X2195689D01*
Y684389D01*
X2197100D01*
Y682978D01*
X2198511D01*
Y681567D01*
X2199922D01*
Y678745D01*
X2202744D01*
Y671689D01*
X2204156D01*
Y663222D01*
X2202744D01*
Y656167D01*
X2199922D01*
Y651933D01*
X2198511D01*
Y647700D01*
X2195689D01*
Y644878D01*
X2194278D01*
Y643467D01*
X2192867D01*
Y640645D01*
X2191456D01*
Y637822D01*
X2188633D01*
Y636411D01*
X2187222D01*
Y632178D01*
X2184400D01*
Y629356D01*
X2181578D01*
Y626533D01*
X2180167D01*
Y625122D01*
X2177344D01*
Y622300D01*
X2175933D01*
Y620889D01*
X2173111D01*
Y618067D01*
X2170289D01*
Y615245D01*
X2166056D01*
Y613833D01*
X2164644D01*
Y611011D01*
X2161822D01*
Y609600D01*
X2160411D01*
Y608189D01*
X2159000D01*
Y606778D01*
X2154767D01*
Y603956D01*
X2153356D01*
Y602545D01*
X2147711D01*
Y599722D01*
X2146300D01*
Y598311D01*
X2142067D01*
Y595489D01*
X2136422D01*
Y592667D01*
X2132189D01*
Y591256D01*
X2127956D01*
Y588433D01*
X2122311D01*
Y587022D01*
X2120900D01*
Y585611D01*
X2116667D01*
Y584200D01*
X2112433D01*
Y581378D01*
X2105378D01*
Y579967D01*
X2098322D01*
Y577145D01*
X2091267D01*
Y574322D01*
X2084211D01*
Y572911D01*
X2077156D01*
Y571500D01*
X2075744D01*
Y570089D01*
X2068689D01*
Y568678D01*
X2060222D01*
Y565856D01*
X2048933D01*
Y563033D01*
X2037644D01*
Y561622D01*
X2024944D01*
Y560211D01*
X2023533D01*
Y558800D01*
X2010833D01*
Y557389D01*
X1992489D01*
Y554567D01*
X1976967D01*
Y551745D01*
X1967089D01*
Y546100D01*
X1971322D01*
Y543278D01*
X1976967D01*
Y541867D01*
X1978378D01*
Y540456D01*
X1982611D01*
Y539045D01*
X1989667D01*
Y536222D01*
X1996722D01*
Y534811D01*
X2005189D01*
Y531989D01*
X2012244D01*
Y530578D01*
X2013656D01*
Y529167D01*
X2022122D01*
Y527756D01*
X2030589D01*
Y524933D01*
X2041878D01*
Y523522D01*
X2094089D01*
Y524933D01*
X2106789D01*
Y527756D01*
X2116667D01*
Y529167D01*
X2125133D01*
Y531989D01*
X2132189D01*
Y534811D01*
X2139244D01*
Y536222D01*
X2146300D01*
Y539045D01*
X2151944D01*
Y540456D01*
X2156178D01*
Y541867D01*
X2157589D01*
Y543278D01*
X2163233D01*
Y544689D01*
X2164644D01*
Y546100D01*
X2168878D01*
Y547511D01*
X2173111D01*
Y548922D01*
X2174522D01*
Y550333D01*
X2180167D01*
Y551745D01*
X2182989D01*
Y553156D01*
X2184400D01*
Y554567D01*
X2188633D01*
Y557389D01*
X2192867D01*
Y558800D01*
X2195689D01*
Y560211D01*
X2197100D01*
Y561622D01*
X2199922D01*
Y563033D01*
X2202744D01*
Y564445D01*
X2204156D01*
Y565856D01*
X2206978D01*
Y568678D01*
X2211211D01*
Y570089D01*
X2214033D01*
Y572911D01*
X2215444D01*
Y574322D01*
X2216856D01*
Y575733D01*
X2219678D01*
Y577145D01*
X2222500D01*
Y579967D01*
X2225322D01*
Y581378D01*
X2229556D01*
Y584200D01*
X2232378D01*
Y587022D01*
X2236611D01*
Y588433D01*
X2240844D01*
Y591256D01*
X2245078D01*
Y592667D01*
X2247900D01*
Y594078D01*
X2249311D01*
Y595489D01*
X2253544D01*
Y596900D01*
X2254956D01*
Y598311D01*
X2259189D01*
Y599722D01*
X2263422D01*
Y602545D01*
X2270478D01*
Y603956D01*
X2274711D01*
Y606778D01*
X2281767D01*
Y609600D01*
X2288822D01*
Y611011D01*
X2294467D01*
Y613833D01*
X2301522D01*
Y615245D01*
X2308578D01*
Y616656D01*
X2311400D01*
Y618067D01*
X2317044D01*
Y619478D01*
X2318456D01*
Y620889D01*
X2326922D01*
Y622300D01*
X2335389D01*
Y625122D01*
X2356556D01*
Y622300D01*
X2357967D01*
Y616656D01*
X2356556D01*
Y611011D01*
X2353733D01*
Y606778D01*
X2352322D01*
Y602545D01*
X2349500D01*
Y598311D01*
X2348089D01*
Y596900D01*
X2346678D01*
Y592667D01*
X2345267D01*
Y588433D01*
X2342444D01*
Y581378D01*
X2341033D01*
Y577145D01*
X2338211D01*
Y570089D01*
X2335389D01*
Y563033D01*
X2333978D01*
Y554567D01*
X2331156D01*
Y536222D01*
X2338211D01*
Y539045D01*
X2341033D01*
Y541867D01*
X2342444D01*
Y543278D01*
X2343856D01*
Y544689D01*
X2345267D01*
Y547511D01*
X2346678D01*
Y550333D01*
X2349500D01*
Y551745D01*
X2350911D01*
Y553156D01*
X2352322D01*
Y554567D01*
X2353733D01*
Y557389D01*
X2355144D01*
Y558800D01*
X2356556D01*
Y561622D01*
X2357967D01*
Y563033D01*
X2359378D01*
Y564445D01*
X2360789D01*
Y565856D01*
X2362200D01*
Y567267D01*
X2363611D01*
Y570089D01*
X2365022D01*
Y572911D01*
X2367844D01*
Y575733D01*
X2369256D01*
Y577145D01*
X2372078D01*
Y579967D01*
X2374900D01*
Y582789D01*
X2376311D01*
Y587022D01*
X2379133D01*
Y588433D01*
X2380544D01*
Y591256D01*
X2383367D01*
Y592667D01*
X2386189D01*
Y595489D01*
X2387600D01*
Y598311D01*
X2390422D01*
Y599722D01*
X2391833D01*
Y602545D01*
X2394656D01*
Y603956D01*
X2397478D01*
Y606778D01*
X2401711D01*
Y609600D01*
X2403122D01*
Y611011D01*
X2405944D01*
Y613833D01*
X2410178D01*
Y615245D01*
X2413000D01*
Y616656D01*
X2414411D01*
Y618067D01*
X2417233D01*
Y620889D01*
X2421467D01*
Y622300D01*
X2425700D01*
Y625122D01*
X2431344D01*
Y626533D01*
X2435578D01*
Y629356D01*
X2439811D01*
Y632178D01*
X2446867D01*
Y633589D01*
X2451100D01*
Y636411D01*
X2458156D01*
Y637822D01*
X2463800D01*
Y639233D01*
X2465211D01*
Y640645D01*
X2470856D01*
Y643467D01*
X2477911D01*
Y644878D01*
X2484967D01*
Y647700D01*
X2493433D01*
Y649111D01*
X2511778D01*
Y647700D01*
X2521656D01*
Y644878D01*
X2528711D01*
Y643467D01*
X2534356D01*
Y642056D01*
X2535767D01*
Y640645D01*
X2540000D01*
Y637822D01*
X2541411D01*
Y636411D01*
X2540000D01*
Y633589D01*
X2530122D01*
Y632178D01*
X2490611D01*
Y630767D01*
X2489200D01*
Y629356D01*
X2479322D01*
Y627945D01*
X2477911D01*
Y626533D01*
X2472267D01*
Y625122D01*
X2466622D01*
Y622300D01*
X2462389D01*
Y620889D01*
X2458156D01*
Y618067D01*
X2453922D01*
Y615245D01*
X2451100D01*
Y613833D01*
X2449689D01*
Y611011D01*
X2445456D01*
Y609600D01*
X2444044D01*
Y608189D01*
X2442633D01*
Y606778D01*
X2441222D01*
Y605367D01*
X2439811D01*
Y602545D01*
X2438400D01*
Y601133D01*
X2436989D01*
Y599722D01*
X2435578D01*
Y596900D01*
X2432756D01*
Y592667D01*
X2431344D01*
Y591256D01*
X2428522D01*
Y585611D01*
X2425700D01*
Y581378D01*
X2424289D01*
Y577145D01*
X2421467D01*
Y570089D01*
X2420056D01*
Y554567D01*
X2418644D01*
Y553156D01*
X2417233D01*
Y541867D01*
X2420056D01*
Y529167D01*
X2421467D01*
Y527756D01*
X2441222D01*
Y529167D01*
X2445456D01*
Y530578D01*
X2446867D01*
Y531989D01*
X2451100D01*
Y534811D01*
X2455333D01*
Y536222D01*
X2459567D01*
Y539045D01*
X2465211D01*
Y540456D01*
X2468033D01*
Y541867D01*
X2469444D01*
Y543278D01*
X2473678D01*
Y546100D01*
X2477911D01*
Y547511D01*
X2480733D01*
Y550333D01*
X2484967D01*
Y551745D01*
X2487789D01*
Y553156D01*
X2489200D01*
Y554567D01*
X2492022D01*
Y557389D01*
X2496256D01*
Y558800D01*
X2499078D01*
Y560211D01*
X2500489D01*
Y561622D01*
X2503311D01*
Y563033D01*
X2504722D01*
Y564445D01*
X2507544D01*
Y565856D01*
X2510367D01*
Y568678D01*
X2513189D01*
Y570089D01*
X2516011D01*
Y571500D01*
X2517422D01*
Y572911D01*
X2518833D01*
Y574322D01*
X2520244D01*
Y575733D01*
X2523067D01*
Y577145D01*
X2525889D01*
Y579967D01*
X2528711D01*
Y581378D01*
X2532944D01*
Y584200D01*
X2534356D01*
Y587022D01*
X2537178D01*
Y588433D01*
X2541411D01*
Y591256D01*
X2544233D01*
Y592667D01*
X2545644D01*
Y595489D01*
X2549878D01*
Y598311D01*
X2552700D01*
Y599722D01*
X2555522D01*
Y602545D01*
X2556933D01*
Y603956D01*
X2559756D01*
Y605367D01*
X2561167D01*
Y606778D01*
X2563989D01*
Y609600D01*
X2566811D01*
Y611011D01*
X2568222D01*
Y613833D01*
X2571044D01*
Y615245D01*
X2573867D01*
Y618067D01*
X2576689D01*
Y620889D01*
X2579511D01*
Y622300D01*
X2582333D01*
Y625122D01*
X2585156D01*
Y626533D01*
X2586567D01*
Y629356D01*
X2590800D01*
Y632178D01*
X2593622D01*
Y633589D01*
X2597856D01*
Y636411D01*
X2611967D01*
Y633589D01*
X2619022D01*
Y630767D01*
X2616200D01*
Y626533D01*
X2614789D01*
Y625122D01*
X2611967D01*
Y622300D01*
X2609144D01*
Y619478D01*
X2607733D01*
Y616656D01*
X2606322D01*
Y615245D01*
X2604911D01*
Y613833D01*
X2603500D01*
Y612422D01*
X2602089D01*
Y611011D01*
X2600678D01*
Y609600D01*
X2599267D01*
Y608189D01*
X2597856D01*
Y606778D01*
X2596444D01*
Y603956D01*
X2593622D01*
Y599722D01*
X2590800D01*
Y598311D01*
X2589389D01*
Y595489D01*
X2586567D01*
Y592667D01*
X2585156D01*
Y591256D01*
X2583744D01*
Y589845D01*
X2582333D01*
Y585611D01*
X2579511D01*
Y584200D01*
X2578100D01*
Y581378D01*
X2576689D01*
Y579967D01*
X2575278D01*
Y577145D01*
X2573867D01*
Y572911D01*
X2571044D01*
Y567267D01*
X2569633D01*
Y565856D01*
X2568222D01*
Y543278D01*
X2579511D01*
Y546100D01*
X2585156D01*
Y547511D01*
X2589389D01*
Y550333D01*
X2590800D01*
Y551745D01*
X2593622D01*
Y553156D01*
X2596444D01*
Y554567D01*
X2597856D01*
Y557389D01*
X2602089D01*
Y558800D01*
X2604911D01*
Y561622D01*
X2607733D01*
Y563033D01*
X2610556D01*
Y564445D01*
X2611967D01*
Y565856D01*
X2613378D01*
Y568678D01*
X2619022D01*
Y570089D01*
X2620433D01*
Y572911D01*
X2623256D01*
Y574322D01*
X2624667D01*
Y575733D01*
X2627489D01*
Y577145D01*
X2630311D01*
Y579967D01*
X2634544D01*
Y581378D01*
X2635956D01*
Y582789D01*
X2637367D01*
Y584200D01*
X2638778D01*
Y587022D01*
X2643011D01*
Y588433D01*
X2645833D01*
Y591256D01*
X2648656D01*
Y592667D01*
X2651478D01*
Y594078D01*
X2652889D01*
Y595489D01*
X2654300D01*
Y598311D01*
X2657122D01*
Y599722D01*
X2661356D01*
Y602545D01*
X2664178D01*
Y603956D01*
X2665589D01*
Y606778D01*
X2669822D01*
Y608189D01*
X2671233D01*
Y609600D01*
X2672644D01*
Y611011D01*
X2675467D01*
Y613833D01*
X2679700D01*
Y615245D01*
X2681111D01*
Y616656D01*
X2682522D01*
Y618067D01*
X2683933D01*
Y620889D01*
X2688167D01*
Y622300D01*
X2690989D01*
Y625122D01*
X2693811D01*
Y626533D01*
X2696633D01*
Y627945D01*
X2698044D01*
Y629356D01*
X2699456D01*
Y632178D01*
X2703689D01*
Y633589D01*
X2706511D01*
Y636411D01*
X2709333D01*
Y637822D01*
X2712156D01*
Y639233D01*
X2713567D01*
Y640645D01*
X2716389D01*
Y643467D01*
X2717800D01*
Y644878D01*
X2722033D01*
Y647700D01*
X2724856D01*
Y649111D01*
X2727678D01*
Y650522D01*
X2729089D01*
Y651933D01*
X2731911D01*
Y654756D01*
X2733322D01*
Y656167D01*
X2738967D01*
Y658989D01*
X2740378D01*
Y660400D01*
X2744611D01*
Y663222D01*
X2750256D01*
Y666045D01*
X2754489D01*
Y667456D01*
X2765778D01*
Y666045D01*
X2770011D01*
Y663222D01*
X2772833D01*
Y658989D01*
X2770011D01*
Y654756D01*
X2768600D01*
Y651933D01*
X2767189D01*
Y649111D01*
X2765778D01*
Y644878D01*
X2762956D01*
Y642056D01*
X2761544D01*
Y637822D01*
X2758722D01*
Y633589D01*
X2755900D01*
Y629356D01*
X2754489D01*
Y626533D01*
X2753078D01*
Y625122D01*
X2751667D01*
Y622300D01*
X2750256D01*
Y613833D01*
X2755900D01*
Y615245D01*
X2760133D01*
Y616656D01*
X2761544D01*
Y618067D01*
X2762956D01*
Y620889D01*
X2765778D01*
Y622300D01*
X2770011D01*
Y625122D01*
X2772833D01*
Y626533D01*
X2775656D01*
Y627945D01*
X2777067D01*
Y629356D01*
X2778478D01*
Y632178D01*
X2784122D01*
Y633589D01*
X2788356D01*
Y636411D01*
X2792589D01*
Y637822D01*
X2796822D01*
Y640645D01*
X2803878D01*
Y643467D01*
X2812344D01*
Y644878D01*
X2830689D01*
Y643467D01*
X2836333D01*
Y640645D01*
X2837744D01*
Y636411D01*
X2836333D01*
Y633589D01*
X2833511D01*
Y632178D01*
X2832100D01*
Y630767D01*
X2830689D01*
Y629356D01*
X2829278D01*
Y626533D01*
X2826456D01*
Y622300D01*
X2825044D01*
Y620889D01*
X2823633D01*
Y619478D01*
X2822222D01*
Y618067D01*
X2820811D01*
Y615245D01*
X2819400D01*
Y613833D01*
X2817989D01*
Y611011D01*
X2816578D01*
Y609600D01*
X2815167D01*
Y606778D01*
X2813756D01*
Y602545D01*
X2810933D01*
Y598311D01*
X2809522D01*
Y596900D01*
X2808111D01*
Y587022D01*
X2815167D01*
Y588433D01*
X2819400D01*
Y591256D01*
X2822222D01*
Y592667D01*
X2826456D01*
Y595489D01*
X2829278D01*
Y598311D01*
X2833511D01*
Y599722D01*
X2836333D01*
Y601133D01*
X2837744D01*
Y602545D01*
X2840567D01*
Y603956D01*
X2844800D01*
Y606778D01*
X2847622D01*
Y609600D01*
X2851856D01*
Y611011D01*
X2854678D01*
Y612422D01*
X2856089D01*
Y613833D01*
X2858911D01*
Y615245D01*
X2863144D01*
Y618067D01*
X2867378D01*
Y620889D01*
X2870200D01*
Y622300D01*
X2874433D01*
Y625122D01*
X2878667D01*
Y626533D01*
X2881489D01*
Y629356D01*
X2885722D01*
Y632178D01*
X2889956D01*
Y633589D01*
X2892778D01*
Y635000D01*
X2894189D01*
Y636411D01*
X2897011D01*
Y637822D01*
X2901244D01*
Y640645D01*
X2905478D01*
Y643467D01*
X2909711D01*
Y644878D01*
X2913944D01*
Y646289D01*
X2915356D01*
Y647700D01*
X2919589D01*
Y649111D01*
X2923822D01*
Y651933D01*
X2930878D01*
Y654756D01*
X2936522D01*
Y656167D01*
X2943578D01*
Y658989D01*
X2950633D01*
Y660400D01*
X2959100D01*
Y661811D01*
X2960511D01*
Y663222D01*
X2970389D01*
Y664633D01*
X2971800D01*
Y666045D01*
X2983089D01*
Y667456D01*
X2997200D01*
Y668867D01*
X2998611D01*
Y670278D01*
X3048000D01*
Y667456D01*
X3055056D01*
Y666045D01*
X3062111D01*
Y663222D01*
X3069167D01*
Y660400D01*
X3073400D01*
Y658989D01*
X3076222D01*
Y657578D01*
X3077633D01*
Y656167D01*
X3080456D01*
Y654756D01*
X3081867D01*
Y651933D01*
X3084689D01*
Y650522D01*
X3086100D01*
Y647700D01*
X3084689D01*
Y644878D01*
X3080456D01*
Y643467D01*
X3070578D01*
Y644878D01*
X3063522D01*
Y646289D01*
X3062111D01*
Y647700D01*
X3055056D01*
Y649111D01*
X3048000D01*
Y651933D01*
X3036711D01*
Y654756D01*
X2985911D01*
Y653345D01*
X2984500D01*
Y651933D01*
X2973211D01*
Y649111D01*
X2967567D01*
Y647700D01*
X2960511D01*
Y644878D01*
X2953456D01*
Y643467D01*
X2949222D01*
Y640645D01*
X2942167D01*
Y637822D01*
X2937933D01*
Y636411D01*
X2933700D01*
Y635000D01*
X2930878D01*
Y633589D01*
X2926644D01*
Y632178D01*
X2922411D01*
Y629356D01*
X2916767D01*
Y626533D01*
X2912533D01*
Y625122D01*
X2908300D01*
Y622300D01*
X2905478D01*
Y620889D01*
X2901244D01*
Y618067D01*
X2897011D01*
Y615245D01*
X2894189D01*
Y613833D01*
X2889956D01*
Y611011D01*
X2887133D01*
Y609600D01*
X2885722D01*
Y606778D01*
X2881489D01*
Y603956D01*
X2878667D01*
Y602545D01*
X2877256D01*
Y601133D01*
X2875844D01*
Y599722D01*
X2874433D01*
Y596900D01*
X2871611D01*
Y595489D01*
X2870200D01*
Y592667D01*
X2867378D01*
Y591256D01*
X2865967D01*
Y589845D01*
X2864556D01*
Y588433D01*
X2863144D01*
Y585611D01*
X2860322D01*
Y581378D01*
X2858911D01*
Y579967D01*
X2856089D01*
Y577145D01*
X2853267D01*
Y572911D01*
X2851856D01*
Y570089D01*
X2849033D01*
Y554567D01*
X2868789D01*
Y557389D01*
X2875844D01*
Y558800D01*
X2882900D01*
Y561622D01*
X2889956D01*
Y563033D01*
X2894189D01*
Y564445D01*
X2897011D01*
Y565856D01*
X2902656D01*
Y568678D01*
X2908300D01*
Y570089D01*
X2915356D01*
Y572911D01*
X2921000D01*
Y574322D01*
X2922411D01*
Y575733D01*
X2926644D01*
Y577145D01*
X2932289D01*
Y579967D01*
X2937933D01*
Y581378D01*
X2943578D01*
Y584200D01*
X2950633D01*
Y587022D01*
X2954867D01*
Y588433D01*
X2960511D01*
Y589845D01*
X2961922D01*
Y591256D01*
X2966156D01*
Y592667D01*
X2971800D01*
Y595489D01*
X2977444D01*
Y598311D01*
X2983089D01*
Y599722D01*
X2987322D01*
Y601133D01*
X2988733D01*
Y602545D01*
X2994378D01*
Y603956D01*
X2998611D01*
Y606778D01*
X3002844D01*
Y609600D01*
X3009900D01*
Y611011D01*
X3014133D01*
Y613833D01*
X3018367D01*
Y615245D01*
X3022600D01*
Y616656D01*
X3024011D01*
Y618067D01*
X3028244D01*
Y620889D01*
X3033889D01*
Y622300D01*
X3039533D01*
Y625122D01*
X3045178D01*
Y626533D01*
X3062111D01*
Y625122D01*
X3066344D01*
Y622300D01*
X3064933D01*
Y619478D01*
X3063522D01*
Y618067D01*
X3062111D01*
Y615245D01*
X3059289D01*
Y613833D01*
X3057878D01*
Y611011D01*
X3055056D01*
Y608189D01*
X3053644D01*
Y606778D01*
X3052233D01*
Y603956D01*
X3050822D01*
Y602545D01*
X3048000D01*
Y599722D01*
X3046589D01*
Y592667D01*
X3057878D01*
Y594078D01*
X3059289D01*
Y595489D01*
X3070578D01*
Y598311D01*
X3080456D01*
Y599722D01*
X3090333D01*
Y601133D01*
X3091744D01*
Y602545D01*
X3101622D01*
Y603956D01*
X3111500D01*
Y606778D01*
X3122789D01*
Y609600D01*
X3134078D01*
Y611011D01*
X3146778D01*
Y612422D01*
X3148189D01*
Y613833D01*
X3159478D01*
Y615245D01*
X3172178D01*
Y618067D01*
X3186289D01*
Y620889D01*
X3201811D01*
Y622300D01*
X3217333D01*
Y625122D01*
X3235678D01*
Y626533D01*
X3256844D01*
Y627945D01*
X3258256D01*
Y629356D01*
X3286478D01*
Y618067D01*
X3268133D01*
Y615245D01*
X3245556D01*
Y613833D01*
X3227211D01*
Y611011D01*
X3208867D01*
Y609600D01*
X3194756D01*
Y608189D01*
X3193344D01*
Y606778D01*
X3179233D01*
Y603956D01*
X3165122D01*
Y602545D01*
X3152422D01*
Y599722D01*
X3141133D01*
Y598311D01*
X3132667D01*
Y596900D01*
X3129844D01*
Y595489D01*
X3118556D01*
Y592667D01*
X3108678D01*
Y591256D01*
X3098800D01*
Y588433D01*
X3088922D01*
Y587022D01*
X3084689D01*
Y585611D01*
X3080456D01*
Y584200D01*
X3070578D01*
Y581378D01*
X3062111D01*
Y579967D01*
X3053644D01*
Y578556D01*
X3052233D01*
Y577145D01*
X3043767D01*
Y574322D01*
X3036711D01*
Y572911D01*
X3029656D01*
Y570089D01*
X3024011D01*
Y568678D01*
X3019778D01*
Y567267D01*
X3018367D01*
Y565856D01*
X3014133D01*
Y563033D01*
X3012722D01*
Y561622D01*
X3009900D01*
Y558800D01*
X3007078D01*
Y557389D01*
X3005667D01*
Y554567D01*
X3002844D01*
Y551745D01*
X3001433D01*
Y550333D01*
X2998611D01*
Y547511D01*
X2995789D01*
Y546100D01*
X2994378D01*
Y543278D01*
X2991556D01*
Y540456D01*
X2990144D01*
Y539045D01*
X2987322D01*
Y536222D01*
X2984500D01*
Y534811D01*
X2983089D01*
Y531989D01*
X2980267D01*
Y529167D01*
X2978856D01*
Y527756D01*
X2976033D01*
Y524933D01*
X2973211D01*
Y523522D01*
X2971800D01*
Y520700D01*
X2968978D01*
Y517878D01*
X2967567D01*
Y516467D01*
X2964744D01*
Y513645D01*
X2961922D01*
Y512233D01*
X2960511D01*
Y509411D01*
X2957689D01*
Y506589D01*
X2956278D01*
Y505178D01*
X2953456D01*
Y502356D01*
X2950633D01*
Y500945D01*
X2949222D01*
Y498122D01*
X2946400D01*
Y495300D01*
X2944989D01*
Y493889D01*
X2940756D01*
Y491067D01*
X2937933D01*
Y489656D01*
X2936522D01*
Y488245D01*
X2935111D01*
Y486833D01*
X2933700D01*
Y484011D01*
X2930878D01*
Y482600D01*
X2928056D01*
Y479778D01*
X2926644D01*
Y478367D01*
X2923822D01*
Y475545D01*
X2921000D01*
Y472722D01*
X2919589D01*
Y471311D01*
X2916767D01*
Y468489D01*
X2912533D01*
Y465667D01*
X2911122D01*
Y464256D01*
X2908300D01*
Y461433D01*
X2905478D01*
Y460022D01*
X2904067D01*
Y457200D01*
X2901244D01*
Y455789D01*
X2899833D01*
Y454378D01*
X2898422D01*
Y452967D01*
X2897011D01*
Y450145D01*
X2892778D01*
Y448733D01*
X2889956D01*
Y445911D01*
X2887133D01*
Y444500D01*
X2885722D01*
Y441678D01*
X2882900D01*
Y438856D01*
X2881489D01*
Y437445D01*
X2878667D01*
Y436033D01*
X2877256D01*
Y434622D01*
X2874433D01*
Y431800D01*
X2871611D01*
Y430389D01*
X2870200D01*
Y427567D01*
X2867378D01*
Y426156D01*
X2864556D01*
Y424745D01*
X2863144D01*
Y423333D01*
X2860322D01*
Y420511D01*
X2858911D01*
Y419100D01*
X2856089D01*
Y416278D01*
X2853267D01*
Y414867D01*
X2850444D01*
Y413456D01*
X2849033D01*
Y412045D01*
X2847622D01*
Y409222D01*
X2844800D01*
Y407811D01*
X2841978D01*
Y404989D01*
X2837744D01*
Y403578D01*
X2836333D01*
Y400756D01*
X2833511D01*
Y397933D01*
X2829278D01*
Y396522D01*
X2826456D01*
Y393700D01*
X2825044D01*
Y392289D01*
X2820811D01*
Y390878D01*
X2819400D01*
Y389467D01*
X2817989D01*
Y386645D01*
X2813756D01*
Y385233D01*
X2810933D01*
Y382411D01*
X2806700D01*
Y381000D01*
X2803878D01*
Y379589D01*
X2802467D01*
Y378178D01*
X2799644D01*
Y375356D01*
X2795411D01*
Y373945D01*
X2791178D01*
Y371122D01*
X2786944D01*
Y369711D01*
X2784122D01*
Y368300D01*
X2781300D01*
Y366889D01*
X2777067D01*
Y364067D01*
X2772833D01*
Y362656D01*
X2768600D01*
Y359833D01*
X2762956D01*
Y358422D01*
X2757311D01*
Y357011D01*
X2755900D01*
Y355600D01*
X2750256D01*
Y352778D01*
X2743200D01*
Y351367D01*
X2733322D01*
Y349956D01*
X2731911D01*
Y348545D01*
X2705100D01*
Y349956D01*
X2703689D01*
Y351367D01*
X2698044D01*
Y352778D01*
X2692400D01*
Y355600D01*
X2688167D01*
Y358422D01*
X2686756D01*
Y359833D01*
X2683933D01*
Y361245D01*
X2682522D01*
Y364067D01*
X2679700D01*
Y366889D01*
X2676878D01*
Y375356D01*
X2675467D01*
Y382411D01*
X2676878D01*
Y392289D01*
X2679700D01*
Y396522D01*
X2681111D01*
Y397933D01*
X2682522D01*
Y400756D01*
X2683933D01*
Y403578D01*
X2685344D01*
Y404989D01*
X2686756D01*
Y407811D01*
X2688167D01*
Y409222D01*
X2689578D01*
Y410633D01*
X2690989D01*
Y412045D01*
X2693811D01*
Y414867D01*
X2695222D01*
Y416278D01*
X2698044D01*
Y419100D01*
X2699456D01*
Y421922D01*
X2702278D01*
Y423333D01*
X2705100D01*
Y426156D01*
X2706511D01*
Y427567D01*
X2710744D01*
Y430389D01*
X2713567D01*
Y433211D01*
X2716389D01*
Y434622D01*
X2717800D01*
Y437445D01*
X2722033D01*
Y438856D01*
X2724856D01*
Y441678D01*
X2727678D01*
Y444500D01*
X2731911D01*
Y445911D01*
X2733322D01*
Y448733D01*
X2737556D01*
Y450145D01*
X2740378D01*
Y452967D01*
X2743200D01*
Y455789D01*
X2747433D01*
Y457200D01*
X2750256D01*
Y460022D01*
X2754489D01*
Y461433D01*
X2755900D01*
Y462845D01*
X2758722D01*
Y464256D01*
X2761544D01*
Y467078D01*
X2765778D01*
Y468489D01*
X2767189D01*
Y471311D01*
X2772833D01*
Y472722D01*
X2774244D01*
Y474133D01*
X2775656D01*
Y475545D01*
X2778478D01*
Y478367D01*
X2784122D01*
Y479778D01*
X2786944D01*
Y481189D01*
X2788356D01*
Y482600D01*
X2789767D01*
Y484011D01*
X2794000D01*
Y485422D01*
X2795411D01*
Y486833D01*
X2799644D01*
Y489656D01*
X2802467D01*
Y491067D01*
X2806700D01*
Y493889D01*
X2810933D01*
Y495300D01*
X2815167D01*
Y498122D01*
X2819400D01*
Y500945D01*
X2823633D01*
Y502356D01*
X2826456D01*
Y505178D01*
X2830689D01*
Y506589D01*
X2834922D01*
Y508000D01*
X2836333D01*
Y509411D01*
X2840567D01*
Y512233D01*
X2844800D01*
Y513645D01*
X2849033D01*
Y516467D01*
X2853267D01*
Y517878D01*
X2857500D01*
Y519289D01*
X2858911D01*
Y520700D01*
X2863144D01*
Y523522D01*
X2867378D01*
Y524933D01*
X2871611D01*
Y527756D01*
X2878667D01*
Y529167D01*
X2881489D01*
Y530578D01*
X2882900D01*
Y531989D01*
X2887133D01*
Y534811D01*
X2892778D01*
Y536222D01*
X2897011D01*
Y539045D01*
X2902656D01*
Y540456D01*
X2906889D01*
Y541867D01*
X2908300D01*
Y543278D01*
X2912533D01*
Y546100D01*
X2919589D01*
Y547511D01*
X2923822D01*
Y550333D01*
X2929467D01*
Y551745D01*
X2933700D01*
Y553156D01*
X2935111D01*
Y554567D01*
X2940756D01*
Y555978D01*
X2942167D01*
Y557389D01*
X2946400D01*
Y558800D01*
X2953456D01*
Y561622D01*
X2959100D01*
Y563033D01*
X2963333D01*
Y564445D01*
X2964744D01*
Y565856D01*
X2971800D01*
Y568678D01*
X2978856D01*
Y570089D01*
X2984500D01*
Y572911D01*
X2990144D01*
Y574322D01*
X2991556D01*
Y575733D01*
X2994378D01*
Y577145D01*
X2998611D01*
Y579967D01*
X3000022D01*
Y581378D01*
X3002844D01*
Y588433D01*
X2995789D01*
Y587022D01*
X2992967D01*
Y585611D01*
X2988733D01*
Y584200D01*
X2983089D01*
Y581378D01*
X2976033D01*
Y579967D01*
X2970389D01*
Y578556D01*
X2968978D01*
Y577145D01*
X2964744D01*
Y574322D01*
X2957689D01*
Y572911D01*
X2952044D01*
Y570089D01*
X2946400D01*
Y568678D01*
X2940756D01*
Y567267D01*
X2939344D01*
Y565856D01*
X2935111D01*
Y563033D01*
X2928056D01*
Y561622D01*
X2923822D01*
Y560211D01*
X2922411D01*
Y558800D01*
X2916767D01*
Y557389D01*
X2911122D01*
Y554567D01*
X2904067D01*
Y551745D01*
X2898422D01*
Y550333D01*
X2892778D01*
Y548922D01*
X2891367D01*
Y547511D01*
X2882900D01*
Y546100D01*
X2877256D01*
Y544689D01*
X2875844D01*
Y543278D01*
X2867378D01*
Y540456D01*
X2837744D01*
Y543278D01*
X2830689D01*
Y546100D01*
X2826456D01*
Y547511D01*
X2822222D01*
Y550333D01*
X2819400D01*
Y555978D01*
X2817989D01*
Y561622D01*
X2806700D01*
Y558800D01*
X2802467D01*
Y557389D01*
X2799644D01*
Y554567D01*
X2795411D01*
Y551745D01*
X2792589D01*
Y550333D01*
X2786944D01*
Y548922D01*
X2785533D01*
Y547511D01*
X2765778D01*
Y561622D01*
X2767189D01*
Y568678D01*
X2770011D01*
Y575733D01*
X2772833D01*
Y581378D01*
X2774244D01*
Y588433D01*
X2775656D01*
Y589845D01*
X2777067D01*
Y596900D01*
X2772833D01*
Y595489D01*
X2768600D01*
Y592667D01*
X2765778D01*
Y591256D01*
X2762956D01*
Y588433D01*
X2761544D01*
Y585611D01*
X2758722D01*
Y584200D01*
X2757311D01*
Y582789D01*
X2755900D01*
Y581378D01*
X2754489D01*
Y579967D01*
X2751667D01*
Y577145D01*
X2750256D01*
Y574322D01*
X2747433D01*
Y572911D01*
X2743200D01*
Y570089D01*
X2740378D01*
Y568678D01*
X2738967D01*
Y565856D01*
X2734733D01*
Y563033D01*
X2731911D01*
Y561622D01*
X2727678D01*
Y558800D01*
X2724856D01*
Y557389D01*
X2720622D01*
Y554567D01*
X2716389D01*
Y551745D01*
X2710744D01*
Y550333D01*
X2686756D01*
Y551745D01*
X2683933D01*
Y554567D01*
X2686756D01*
Y558800D01*
X2688167D01*
Y563033D01*
X2689578D01*
Y564445D01*
X2690989D01*
Y568678D01*
X2693811D01*
Y572911D01*
X2695222D01*
Y575733D01*
X2698044D01*
Y579967D01*
X2699456D01*
Y584200D01*
X2702278D01*
Y588433D01*
X2705100D01*
Y592667D01*
X2706511D01*
Y595489D01*
X2707922D01*
Y596900D01*
X2709333D01*
Y599722D01*
X2710744D01*
Y605367D01*
X2713567D01*
Y613833D01*
X2706511D01*
Y611011D01*
X2702278D01*
Y609600D01*
X2700867D01*
Y608189D01*
X2699456D01*
Y606778D01*
X2696633D01*
Y605367D01*
X2695222D01*
Y603956D01*
X2693811D01*
Y602545D01*
X2690989D01*
Y599722D01*
X2686756D01*
Y598311D01*
X2685344D01*
Y596900D01*
X2683933D01*
Y595489D01*
X2682522D01*
Y594078D01*
X2679700D01*
Y592667D01*
X2676878D01*
Y591256D01*
X2675467D01*
Y588433D01*
X2672644D01*
Y585611D01*
X2668411D01*
Y584200D01*
X2665589D01*
Y581378D01*
X2664178D01*
Y579967D01*
X2659944D01*
Y577145D01*
X2657122D01*
Y574322D01*
X2652889D01*
Y572911D01*
X2650067D01*
Y570089D01*
X2648656D01*
Y568678D01*
X2644422D01*
Y567267D01*
X2643011D01*
Y565856D01*
X2641600D01*
Y563033D01*
X2638778D01*
Y561622D01*
X2634544D01*
Y558800D01*
X2631722D01*
Y557389D01*
X2630311D01*
Y555978D01*
X2627489D01*
Y554567D01*
X2626078D01*
Y551745D01*
X2623256D01*
Y550333D01*
X2619022D01*
Y547511D01*
X2616200D01*
Y546100D01*
X2611967D01*
Y543278D01*
X2609144D01*
Y540456D01*
X2604911D01*
Y539045D01*
X2603500D01*
Y537633D01*
X2602089D01*
Y536222D01*
X2597856D01*
Y534811D01*
X2596444D01*
Y533400D01*
X2595033D01*
Y531989D01*
X2590800D01*
Y529167D01*
X2585156D01*
Y527756D01*
X2578100D01*
Y524933D01*
X2552700D01*
Y527756D01*
X2549878D01*
Y529167D01*
X2545644D01*
Y531989D01*
X2544233D01*
Y536222D01*
X2541411D01*
Y540456D01*
X2540000D01*
Y548922D01*
X2538589D01*
Y551745D01*
X2537178D01*
Y558800D01*
X2528711D01*
Y557389D01*
X2524478D01*
Y555978D01*
X2523067D01*
Y554567D01*
X2521656D01*
Y551745D01*
X2517422D01*
Y550333D01*
X2514600D01*
Y548922D01*
X2513189D01*
Y547511D01*
X2510367D01*
Y546100D01*
X2506133D01*
Y543278D01*
X2503311D01*
Y540456D01*
X2499078D01*
Y539045D01*
X2494844D01*
Y536222D01*
X2489200D01*
Y534811D01*
X2484967D01*
Y531989D01*
X2480733D01*
Y529167D01*
X2476500D01*
Y527756D01*
X2472267D01*
Y524933D01*
X2466622D01*
Y523522D01*
X2462389D01*
Y520700D01*
X2456744D01*
Y517878D01*
X2451100D01*
Y516467D01*
X2445456D01*
Y515056D01*
X2444044D01*
Y513645D01*
X2438400D01*
Y512233D01*
X2414411D01*
Y513645D01*
X2408767D01*
Y516467D01*
X2405944D01*
Y517878D01*
X2401711D01*
Y520700D01*
X2398889D01*
Y523522D01*
X2397478D01*
Y524933D01*
X2396067D01*
Y527756D01*
X2394656D01*
Y529167D01*
X2391833D01*
Y534811D01*
X2390422D01*
Y544689D01*
X2389011D01*
Y546100D01*
X2387600D01*
Y557389D01*
X2381956D01*
Y555978D01*
X2380544D01*
Y554567D01*
X2379133D01*
Y551745D01*
X2376311D01*
Y550333D01*
X2374900D01*
Y547511D01*
X2372078D01*
Y543278D01*
X2369256D01*
Y540456D01*
X2367844D01*
Y539045D01*
X2365022D01*
Y534811D01*
X2363611D01*
Y531989D01*
X2360789D01*
Y529167D01*
X2357967D01*
Y527756D01*
X2356556D01*
Y524933D01*
X2353733D01*
Y523522D01*
X2352322D01*
Y520700D01*
X2349500D01*
Y517878D01*
X2345267D01*
Y516467D01*
X2342444D01*
Y515056D01*
X2341033D01*
Y513645D01*
X2336800D01*
Y512233D01*
X2331156D01*
Y510822D01*
X2329744D01*
Y509411D01*
X2309989D01*
Y510822D01*
X2308578D01*
Y512233D01*
X2305756D01*
Y513645D01*
X2304344D01*
Y516467D01*
X2301522D01*
Y527756D01*
X2300111D01*
Y540456D01*
X2290233D01*
Y539045D01*
X2286000D01*
Y536222D01*
X2284589D01*
Y534811D01*
X2280356D01*
Y533400D01*
X2278944D01*
Y531989D01*
X2277533D01*
Y529167D01*
X2273300D01*
Y527756D01*
X2270478D01*
Y524933D01*
X2266244D01*
Y523522D01*
X2262011D01*
Y520700D01*
X2256367D01*
Y517878D01*
X2252133D01*
Y516467D01*
X2247900D01*
Y513645D01*
X2243667D01*
Y512233D01*
X2239433D01*
Y510822D01*
X2238022D01*
Y509411D01*
X2230967D01*
Y508000D01*
X2229556D01*
Y506589D01*
X2198511D01*
Y508000D01*
X2197100D01*
Y509411D01*
X2192867D01*
Y510822D01*
X2191456D01*
Y512233D01*
X2188633D01*
Y513645D01*
X2187222D01*
Y517878D01*
X2184400D01*
Y524933D01*
X2181578D01*
Y534811D01*
X2173111D01*
Y533400D01*
X2171700D01*
Y531989D01*
X2166056D01*
Y529167D01*
X2159000D01*
Y527756D01*
X2153356D01*
Y524933D01*
X2146300D01*
Y523522D01*
X2139244D01*
Y520700D01*
X2132189D01*
Y517878D01*
X2123722D01*
Y516467D01*
X2113844D01*
Y513645D01*
X2102556D01*
Y512233D01*
X2082800D01*
Y510822D01*
X2079978D01*
Y509411D01*
X2068689D01*
Y502356D01*
X2072922D01*
Y500945D01*
X2075744D01*
Y498122D01*
X2079978D01*
Y495300D01*
X2084211D01*
Y493889D01*
X2087033D01*
Y491067D01*
X2091267D01*
Y489656D01*
X2095500D01*
Y486833D01*
X2099733D01*
Y485422D01*
X2101144D01*
Y484011D01*
X2102556D01*
Y482600D01*
X2106789D01*
Y481189D01*
X2108200D01*
Y479778D01*
X2112433D01*
Y478367D01*
X2113844D01*
Y475545D01*
X2119489D01*
Y472722D01*
X2123722D01*
Y471311D01*
X2125133D01*
Y468489D01*
X2130778D01*
Y467078D01*
X2132189D01*
Y464256D01*
X2136422D01*
Y461433D01*
X2142067D01*
Y460022D01*
X2143478D01*
Y457200D01*
X2147711D01*
Y455789D01*
X2150533D01*
Y452967D01*
X2154767D01*
Y450145D01*
X2157589D01*
Y448733D01*
X2161822D01*
Y445911D01*
X2164644D01*
Y444500D01*
X2168878D01*
Y441678D01*
X2171700D01*
Y440267D01*
X2173111D01*
Y438856D01*
X2175933D01*
Y437445D01*
X2177344D01*
Y436033D01*
X2178756D01*
Y434622D01*
X2181578D01*
Y433211D01*
X2184400D01*
Y430389D01*
X2188633D01*
Y427567D01*
X2191456D01*
Y426156D01*
X2195689D01*
Y423333D01*
X2198511D01*
Y421922D01*
X2202744D01*
Y419100D01*
X2204156D01*
Y417689D01*
X2205567D01*
Y416278D01*
X2209800D01*
Y414867D01*
X2211211D01*
Y412045D01*
X2215444D01*
Y410633D01*
X2216856D01*
Y409222D01*
X2218267D01*
Y407811D01*
X2221089D01*
Y404989D01*
X2225322D01*
Y403578D01*
X2226733D01*
Y400756D01*
X2229556D01*
Y399345D01*
X2232378D01*
Y397933D01*
X2233789D01*
Y396522D01*
X2236611D01*
Y393700D01*
X2239433D01*
Y392289D01*
X2240844D01*
Y390878D01*
X2243667D01*
Y389467D01*
X2245078D01*
Y386645D01*
X2243667D01*
Y382411D01*
X2240844D01*
Y381000D01*
X2236611D01*
Y378178D01*
X2232378D01*
Y375356D01*
X2226733D01*
Y373945D01*
X2214033D01*
Y375356D01*
X2206978D01*
Y378178D01*
X2202744D01*
Y381000D01*
X2199922D01*
Y382411D01*
X2195689D01*
Y385233D01*
X2191456D01*
Y386645D01*
X2188633D01*
Y389467D01*
X2184400D01*
Y392289D01*
X2181578D01*
Y393700D01*
X2177344D01*
Y396522D01*
X2175933D01*
Y397933D01*
X2170289D01*
Y400756D01*
X2168878D01*
Y403578D01*
X2164644D01*
Y404989D01*
X2161822D01*
Y407811D01*
X2159000D01*
Y409222D01*
X2154767D01*
Y412045D01*
X2151944D01*
Y413456D01*
X2150533D01*
Y414867D01*
X2147711D01*
Y416278D01*
X2146300D01*
Y417689D01*
X2144889D01*
Y419100D01*
X2140656D01*
Y420511D01*
X2139244D01*
Y421922D01*
X2137833D01*
Y423333D01*
X2135011D01*
Y426156D01*
X2130778D01*
Y427567D01*
X2127956D01*
Y430389D01*
X2123722D01*
Y431800D01*
X2122311D01*
Y433211D01*
X2120900D01*
Y434622D01*
X2116667D01*
Y437445D01*
X2113844D01*
Y438856D01*
X2109611D01*
Y441678D01*
X2106789D01*
Y443089D01*
X2105378D01*
Y444500D01*
X2102556D01*
Y445911D01*
X2098322D01*
Y448733D01*
X2095500D01*
Y450145D01*
X2091267D01*
Y452967D01*
X2089856D01*
Y454378D01*
X2087033D01*
Y455789D01*
X2084211D01*
Y457200D01*
X2079978D01*
Y460022D01*
X2078567D01*
Y461433D01*
X2072922D01*
Y464256D01*
X2068689D01*
Y467078D01*
X2065867D01*
Y468489D01*
X2061633D01*
Y471311D01*
X2057400D01*
Y472722D01*
X2053167D01*
Y475545D01*
X2050344D01*
Y476956D01*
X2048933D01*
Y478367D01*
X2046111D01*
Y479778D01*
X2041878D01*
Y482600D01*
X2037644D01*
Y484011D01*
X2033411D01*
Y486833D01*
X2027767D01*
Y489656D01*
X2023533D01*
Y491067D01*
X2019300D01*
Y493889D01*
X2015067D01*
Y495300D01*
X2010833D01*
Y498122D01*
X2005189D01*
Y500945D01*
X2000956D01*
Y502356D01*
X1996722D01*
Y505178D01*
X1991078D01*
Y506589D01*
X1985433D01*
Y509411D01*
X1981200D01*
Y510822D01*
X1978378D01*
Y512233D01*
X1974144D01*
Y513645D01*
X1967089D01*
Y516467D01*
X1962856D01*
Y517878D01*
X1955800D01*
Y520700D01*
X1948744D01*
Y523522D01*
X1941689D01*
Y524933D01*
X1934633D01*
Y527756D01*
X1926167D01*
Y529167D01*
X1919111D01*
Y531989D01*
X1910644D01*
Y534811D01*
X1903589D01*
Y536222D01*
X1893711D01*
Y537633D01*
X1892300D01*
Y539045D01*
X1882422D01*
Y540456D01*
X1857022D01*
Y539045D01*
X1854200D01*
Y536222D01*
X1849967D01*
Y534811D01*
X1847144D01*
Y531989D01*
X1845733D01*
Y529167D01*
X1842911D01*
Y527756D01*
X1840089D01*
Y524933D01*
X1838678D01*
Y523522D01*
X1835856D01*
Y522111D01*
X1834444D01*
Y520700D01*
X1831622D01*
Y517878D01*
X1828800D01*
Y516467D01*
X1827389D01*
Y513645D01*
X1824567D01*
Y512233D01*
X1823156D01*
Y509411D01*
X1820333D01*
Y506589D01*
X1817511D01*
Y505178D01*
X1816100D01*
Y502356D01*
X1813278D01*
Y500945D01*
X1811867D01*
Y498122D01*
X1809044D01*
Y495300D01*
X1804811D01*
Y493889D01*
X1801989D01*
Y491067D01*
X1800578D01*
Y489656D01*
X1797756D01*
Y486833D01*
X1792111D01*
Y484011D01*
X1768122D01*
Y485422D01*
X1766711D01*
Y486833D01*
X1762478D01*
Y500945D01*
X1763889D01*
Y502356D01*
X1765300D01*
Y505178D01*
X1768122D01*
Y506589D01*
X1770944D01*
Y509411D01*
X1772356D01*
Y512233D01*
X1775178D01*
Y513645D01*
X1776589D01*
Y516467D01*
X1779411D01*
Y517878D01*
X1782233D01*
Y520700D01*
X1783644D01*
Y523522D01*
X1786467D01*
Y524933D01*
X1787878D01*
Y526345D01*
X1790700D01*
Y527756D01*
X1792111D01*
Y529167D01*
X1793522D01*
Y530578D01*
X1794933D01*
Y531989D01*
X1797756D01*
Y534811D01*
X1799167D01*
Y536222D01*
X1801989D01*
Y539045D01*
X1804811D01*
Y540456D01*
X1806222D01*
Y543278D01*
X1809044D01*
Y546100D01*
X1810456D01*
Y547511D01*
X1813278D01*
Y550333D01*
X1816100D01*
Y551745D01*
X1817511D01*
Y553156D01*
X1818922D01*
Y554567D01*
X1821744D01*
Y557389D01*
X1824567D01*
Y558800D01*
X1827389D01*
Y561622D01*
X1828800D01*
Y563033D01*
X1830211D01*
Y564445D01*
X1831622D01*
Y565856D01*
X1834444D01*
Y568678D01*
X1835856D01*
Y570089D01*
X1838678D01*
Y572911D01*
X1842911D01*
Y575733D01*
X1844322D01*
Y577145D01*
X1847144D01*
Y579967D01*
X1849967D01*
Y581378D01*
X1851378D01*
Y584200D01*
X1854200D01*
Y587022D01*
X1857022D01*
Y588433D01*
X1859844D01*
Y589845D01*
X1861256D01*
Y591256D01*
X1862667D01*
Y592667D01*
X1865489D01*
Y595489D01*
X1868311D01*
Y598311D01*
X1869722D01*
Y599722D01*
X1872544D01*
Y602545D01*
X1876778D01*
Y603956D01*
X1878189D01*
Y605367D01*
X1879600D01*
Y606778D01*
X1881011D01*
Y609600D01*
X1883833D01*
Y611011D01*
X1885244D01*
Y613833D01*
X1888067D01*
Y615245D01*
X1890889D01*
Y616656D01*
X1892300D01*
Y618067D01*
X1895122D01*
Y620889D01*
X1896533D01*
Y622300D01*
X1899356D01*
Y625122D01*
X1902178D01*
Y626533D01*
X1905000D01*
Y627945D01*
X1906411D01*
Y629356D01*
X1907822D01*
Y632178D01*
X1910644D01*
Y633589D01*
X1913467D01*
Y636411D01*
X1916289D01*
Y637822D01*
X1919111D01*
Y640645D01*
X1921933D01*
Y643467D01*
X1924756D01*
Y644878D01*
X1927578D01*
Y646289D01*
X1928989D01*
Y647700D01*
X1930400D01*
Y649111D01*
X1933222D01*
Y651933D01*
X1936044D01*
Y654756D01*
X1940278D01*
Y656167D01*
X1941689D01*
Y658989D01*
X1944511D01*
Y660400D01*
X1947333D01*
Y661811D01*
X1948744D01*
Y663222D01*
X1951567D01*
Y666045D01*
X1952978D01*
Y667456D01*
X1955800D01*
Y670278D01*
X1960033D01*
Y671689D01*
X1962856D01*
Y674511D01*
X1964267D01*
Y677333D01*
X1968500D01*
Y678745D01*
X1971322D01*
Y681567D01*
X1974144D01*
Y682978D01*
X1975556D01*
Y684389D01*
X1978378D01*
Y685800D01*
X1981200D01*
Y688622D01*
X1982611D01*
Y690033D01*
X1985433D01*
Y692856D01*
X1989667D01*
Y694267D01*
X1991078D01*
Y695678D01*
X1992489D01*
Y697089D01*
X1993900D01*
Y699911D01*
X1998133D01*
Y701322D01*
X2000956D01*
Y704145D01*
X2003778D01*
Y705556D01*
X2005189D01*
Y706967D01*
X2008011D01*
Y708378D01*
X2010833D01*
Y711200D01*
X2012244D01*
Y712611D01*
X2016478D01*
Y715433D01*
X2019300D01*
Y716845D01*
X2020711D01*
Y718256D01*
X2023533D01*
Y719667D01*
X2026356D01*
Y722489D01*
X2033411D01*
Y723900D01*
X2055989D01*
Y722489D01*
D02*
G37*
%LPC*%
G36*
X2167467Y1044222D02*
X2123722D01*
Y1042811D01*
X2122311D01*
Y1039989D01*
X2120900D01*
Y1037167D01*
X2119489D01*
Y1034345D01*
X2118078D01*
Y1030111D01*
X2116667D01*
Y1028700D01*
X2115256D01*
Y1024467D01*
X2113844D01*
Y1020233D01*
X2112433D01*
Y1017411D01*
X2111022D01*
Y1013178D01*
X2109611D01*
Y1011767D01*
X2108200D01*
Y1006122D01*
X2106789D01*
Y1001889D01*
X2105378D01*
Y1000478D01*
X2103967D01*
Y994833D01*
X2147711D01*
Y996245D01*
X2150533D01*
Y997656D01*
X2151944D01*
Y999067D01*
X2153356D01*
Y1000478D01*
X2154767D01*
Y1001889D01*
X2156178D01*
Y1006122D01*
X2157589D01*
Y1007533D01*
X2159000D01*
Y1011767D01*
X2160411D01*
Y1016000D01*
X2161822D01*
Y1017411D01*
X2163233D01*
Y1023056D01*
X2164644D01*
Y1030111D01*
X2166056D01*
Y1031522D01*
X2167467D01*
Y1044222D01*
D02*
G37*
G36*
X2127956Y934156D02*
X2082800D01*
Y932745D01*
X2081389D01*
Y931333D01*
X2079978D01*
Y928511D01*
X2078567D01*
Y924278D01*
X2077156D01*
Y920045D01*
X2075744D01*
Y918633D01*
X2074333D01*
Y914400D01*
X2072922D01*
Y910167D01*
X2071511D01*
Y907345D01*
X2070100D01*
Y903111D01*
X2068689D01*
Y900289D01*
X2067278D01*
Y896056D01*
X2065867D01*
Y890411D01*
X2113844D01*
Y891822D01*
X2115256D01*
Y896056D01*
X2116667D01*
Y897467D01*
X2118078D01*
Y901700D01*
X2119489D01*
Y904522D01*
X2120900D01*
Y905933D01*
X2122311D01*
Y910167D01*
X2123722D01*
Y914400D01*
X2125133D01*
Y915811D01*
Y917222D01*
X2126544D01*
Y922867D01*
X2127956D01*
Y925689D01*
X2129367D01*
Y932745D01*
X2127956D01*
Y934156D01*
D02*
G37*
G36*
X2147711Y677333D02*
X2099733D01*
Y675922D01*
X2098322D01*
Y674511D01*
X2087033D01*
Y671689D01*
X2078567D01*
Y670278D01*
X2071511D01*
Y667456D01*
X2063044D01*
Y666045D01*
X2057400D01*
Y663222D01*
X2050344D01*
Y660400D01*
X2044700D01*
Y658989D01*
X2039056D01*
Y656167D01*
X2034822D01*
Y654756D01*
X2030589D01*
Y653345D01*
X2029178D01*
Y651933D01*
X2023533D01*
Y649111D01*
X2019300D01*
Y647700D01*
X2015067D01*
Y644878D01*
X2010833D01*
Y643467D01*
X2006600D01*
Y642056D01*
X2005189D01*
Y640645D01*
X2000956D01*
Y637822D01*
X1996722D01*
Y636411D01*
X1992489D01*
Y633589D01*
X1988256D01*
Y632178D01*
X1984022D01*
Y630767D01*
X1982611D01*
Y629356D01*
X1979789D01*
Y627945D01*
X1978378D01*
Y626533D01*
X1976967D01*
Y625122D01*
X1971322D01*
Y622300D01*
X1967089D01*
Y620889D01*
X1964267D01*
Y619478D01*
X1962856D01*
Y618067D01*
X1960033D01*
Y616656D01*
X1958622D01*
Y615245D01*
X1955800D01*
Y613833D01*
X1951567D01*
Y611011D01*
X1947333D01*
Y609600D01*
X1944511D01*
Y606778D01*
X1940278D01*
Y603956D01*
X1936044D01*
Y602545D01*
X1933222D01*
Y599722D01*
X1928989D01*
Y598311D01*
X1927578D01*
Y596900D01*
X1924756D01*
Y595489D01*
X1921933D01*
Y592667D01*
X1917700D01*
Y591256D01*
X1914878D01*
Y589845D01*
X1913467D01*
Y588433D01*
X1910644D01*
Y585611D01*
X1906411D01*
Y584200D01*
X1903589D01*
Y582789D01*
X1902178D01*
Y581378D01*
X1899356D01*
Y572911D01*
X1923344D01*
Y574322D01*
X1936044D01*
Y575733D01*
X1944511D01*
Y577145D01*
X1962856D01*
Y579967D01*
X1981200D01*
Y581378D01*
X1996722D01*
Y584200D01*
X2012244D01*
Y587022D01*
X2023533D01*
Y588433D01*
X2036233D01*
Y589845D01*
X2037644D01*
Y591256D01*
X2046111D01*
Y592667D01*
X2054578D01*
Y594078D01*
X2055989D01*
Y595489D01*
X2064456D01*
Y598311D01*
X2071511D01*
Y599722D01*
X2078567D01*
Y602545D01*
X2084211D01*
Y603956D01*
X2091267D01*
Y606778D01*
X2095500D01*
Y609600D01*
X2101144D01*
Y611011D01*
X2105378D01*
Y613833D01*
X2109611D01*
Y615245D01*
X2112433D01*
Y616656D01*
X2113844D01*
Y618067D01*
X2116667D01*
Y620889D01*
X2120900D01*
Y622300D01*
X2123722D01*
Y625122D01*
X2125133D01*
Y626533D01*
X2127956D01*
Y629356D01*
X2130778D01*
Y630767D01*
X2132189D01*
Y632178D01*
X2133600D01*
Y633589D01*
X2135011D01*
Y636411D01*
X2136422D01*
Y637822D01*
X2139244D01*
Y640645D01*
X2140656D01*
Y643467D01*
X2142067D01*
Y644878D01*
X2143478D01*
Y647700D01*
X2146300D01*
Y651933D01*
X2147711D01*
Y656167D01*
X2150533D01*
Y674511D01*
X2147711D01*
Y677333D01*
D02*
G37*
G36*
X2312811Y598311D02*
X2302933D01*
Y596900D01*
X2301522D01*
Y595489D01*
X2297289D01*
Y592667D01*
X2291644D01*
Y591256D01*
X2286000D01*
Y588433D01*
X2281767D01*
Y587022D01*
X2280356D01*
Y585611D01*
X2277533D01*
Y584200D01*
X2273300D01*
Y582789D01*
X2271889D01*
Y581378D01*
X2267656D01*
Y579967D01*
X2263422D01*
Y577145D01*
X2259189D01*
Y574322D01*
X2254956D01*
Y572911D01*
X2250722D01*
Y571500D01*
X2249311D01*
Y570089D01*
X2245078D01*
Y568678D01*
X2242256D01*
Y567267D01*
X2240844D01*
Y565856D01*
X2238022D01*
Y563033D01*
X2233789D01*
Y561622D01*
X2229556D01*
Y558800D01*
X2226733D01*
Y557389D01*
X2225322D01*
Y554567D01*
X2222500D01*
Y551745D01*
X2221089D01*
Y547511D01*
X2218267D01*
Y543278D01*
X2215444D01*
Y539045D01*
X2214033D01*
Y517878D01*
X2223911D01*
Y519289D01*
X2225322D01*
Y520700D01*
X2229556D01*
Y523522D01*
X2233789D01*
Y524933D01*
X2238022D01*
Y527756D01*
X2243667D01*
Y529167D01*
X2245078D01*
Y531989D01*
X2249311D01*
Y534811D01*
X2252133D01*
Y536222D01*
X2256367D01*
Y539045D01*
X2259189D01*
Y540456D01*
X2260600D01*
Y543278D01*
X2266244D01*
Y546100D01*
X2267656D01*
Y547511D01*
X2270478D01*
Y550333D01*
X2271889D01*
Y551745D01*
X2274711D01*
Y553156D01*
X2277533D01*
Y554567D01*
X2278944D01*
Y557389D01*
X2281767D01*
Y558800D01*
X2283178D01*
Y561622D01*
X2286000D01*
Y563033D01*
X2287411D01*
Y564445D01*
X2288822D01*
Y565856D01*
X2290233D01*
Y568678D01*
X2293056D01*
Y570089D01*
X2294467D01*
Y572911D01*
X2297289D01*
Y575733D01*
X2300111D01*
Y577145D01*
X2301522D01*
Y579967D01*
X2304344D01*
Y581378D01*
X2305756D01*
Y584200D01*
X2308578D01*
Y587022D01*
X2309989D01*
Y588433D01*
X2311400D01*
Y591256D01*
X2312811D01*
Y598311D01*
D02*
G37*
G36*
X2957689Y543278D02*
X2944989D01*
Y540456D01*
X2937933D01*
Y539045D01*
X2933700D01*
Y536222D01*
X2928056D01*
Y534811D01*
X2922411D01*
Y531989D01*
X2916767D01*
Y529167D01*
X2912533D01*
Y527756D01*
X2906889D01*
Y526345D01*
X2905478D01*
Y524933D01*
X2901244D01*
Y523522D01*
X2897011D01*
Y520700D01*
X2892778D01*
Y517878D01*
X2887133D01*
Y516467D01*
X2882900D01*
Y513645D01*
X2878667D01*
Y512233D01*
X2874433D01*
Y509411D01*
X2870200D01*
Y506589D01*
X2864556D01*
Y505178D01*
X2860322D01*
Y502356D01*
X2856089D01*
Y500945D01*
X2851856D01*
Y498122D01*
X2847622D01*
Y495300D01*
X2841978D01*
Y493889D01*
X2839156D01*
Y492478D01*
X2837744D01*
Y491067D01*
X2836333D01*
Y489656D01*
X2832100D01*
Y488245D01*
X2830689D01*
Y486833D01*
X2826456D01*
Y484011D01*
X2822222D01*
Y482600D01*
X2819400D01*
Y479778D01*
X2815167D01*
Y478367D01*
X2812344D01*
Y476956D01*
X2810933D01*
Y475545D01*
X2808111D01*
Y472722D01*
X2803878D01*
Y471311D01*
X2799644D01*
Y468489D01*
X2796822D01*
Y467078D01*
X2794000D01*
Y465667D01*
X2792589D01*
Y464256D01*
X2789767D01*
Y462845D01*
X2788356D01*
Y461433D01*
X2785533D01*
Y460022D01*
X2781300D01*
Y457200D01*
X2779889D01*
Y455789D01*
X2777067D01*
Y454378D01*
X2774244D01*
Y452967D01*
X2772833D01*
Y450145D01*
X2768600D01*
Y448733D01*
X2765778D01*
Y445911D01*
X2761544D01*
Y444500D01*
X2760133D01*
Y443089D01*
X2758722D01*
Y441678D01*
X2754489D01*
Y438856D01*
X2751667D01*
Y437445D01*
X2750256D01*
Y434622D01*
X2746022D01*
Y433211D01*
X2744611D01*
Y431800D01*
X2743200D01*
Y430389D01*
X2740378D01*
Y427567D01*
X2736144D01*
Y426156D01*
X2734733D01*
Y424745D01*
X2733322D01*
Y423333D01*
X2731911D01*
Y420511D01*
X2729089D01*
Y419100D01*
X2727678D01*
Y417689D01*
X2724856D01*
Y416278D01*
X2723444D01*
Y414867D01*
X2720622D01*
Y412045D01*
X2717800D01*
Y409222D01*
X2716389D01*
Y406400D01*
X2713567D01*
Y403578D01*
X2710744D01*
Y400756D01*
X2709333D01*
Y397933D01*
X2707922D01*
Y396522D01*
X2706511D01*
Y393700D01*
X2705100D01*
Y385233D01*
X2702278D01*
Y376767D01*
X2703689D01*
Y375356D01*
X2705100D01*
Y369711D01*
X2706511D01*
Y365478D01*
X2707922D01*
Y364067D01*
X2709333D01*
Y362656D01*
X2717800D01*
Y361245D01*
X2719211D01*
Y359833D01*
X2720622D01*
Y361245D01*
X2722033D01*
Y362656D01*
X2736144D01*
Y364067D01*
X2741789D01*
Y365478D01*
X2743200D01*
Y366889D01*
X2747433D01*
Y369711D01*
X2751667D01*
Y371122D01*
X2757311D01*
Y372533D01*
X2758722D01*
Y373945D01*
X2761544D01*
Y375356D01*
X2765778D01*
Y378178D01*
X2770011D01*
Y381000D01*
X2774244D01*
Y382411D01*
X2778478D01*
Y385233D01*
X2782711D01*
Y386645D01*
X2785533D01*
Y389467D01*
X2789767D01*
Y392289D01*
X2792589D01*
Y393700D01*
X2796822D01*
Y396522D01*
X2799644D01*
Y397933D01*
X2801056D01*
Y399345D01*
X2803878D01*
Y400756D01*
X2806700D01*
Y403578D01*
X2808111D01*
Y404989D01*
X2812344D01*
Y407811D01*
X2815167D01*
Y409222D01*
X2816578D01*
Y410633D01*
X2817989D01*
Y412045D01*
X2820811D01*
Y413456D01*
X2822222D01*
Y414867D01*
X2825044D01*
Y416278D01*
X2826456D01*
Y419100D01*
X2829278D01*
Y421922D01*
X2832100D01*
Y423333D01*
X2834922D01*
Y424745D01*
X2836333D01*
Y426156D01*
X2837744D01*
Y427567D01*
X2840567D01*
Y430389D01*
X2841978D01*
Y433211D01*
X2844800D01*
Y434622D01*
X2849033D01*
Y437445D01*
X2851856D01*
Y438856D01*
X2853267D01*
Y441678D01*
X2856089D01*
Y444500D01*
X2858911D01*
Y445911D01*
X2860322D01*
Y448733D01*
X2863144D01*
Y450145D01*
X2865967D01*
Y451556D01*
X2867378D01*
Y452967D01*
X2868789D01*
Y454378D01*
X2870200D01*
Y455789D01*
X2871611D01*
Y457200D01*
X2874433D01*
Y460022D01*
X2875844D01*
Y461433D01*
X2878667D01*
Y464256D01*
X2881489D01*
Y467078D01*
X2882900D01*
Y468489D01*
X2885722D01*
Y471311D01*
X2889956D01*
Y472722D01*
X2891367D01*
Y474133D01*
X2892778D01*
Y475545D01*
X2894189D01*
Y478367D01*
X2897011D01*
Y479778D01*
X2898422D01*
Y482600D01*
X2901244D01*
Y484011D01*
X2904067D01*
Y486833D01*
X2905478D01*
Y489656D01*
X2908300D01*
Y491067D01*
X2909711D01*
Y493889D01*
X2912533D01*
Y495300D01*
X2915356D01*
Y496711D01*
X2916767D01*
Y498122D01*
X2919589D01*
Y500945D01*
X2921000D01*
Y502356D01*
X2923822D01*
Y505178D01*
X2926644D01*
Y506589D01*
X2928056D01*
Y509411D01*
X2930878D01*
Y512233D01*
X2932289D01*
Y513645D01*
X2935111D01*
Y516467D01*
X2937933D01*
Y517878D01*
X2939344D01*
Y520700D01*
X2942167D01*
Y523522D01*
X2943578D01*
Y524933D01*
X2946400D01*
Y527756D01*
X2949222D01*
Y529167D01*
X2950633D01*
Y531989D01*
X2953456D01*
Y536222D01*
X2954867D01*
Y537633D01*
X2956278D01*
Y539045D01*
X2957689D01*
Y543278D01*
D02*
G37*
%LPD*%
D26*
X2699300Y3542800D02*
G03*
X2699300Y3542800I-25000J0D01*
G01*
X2679300Y7880100D02*
G03*
X2679300Y7880100I-25000J0D01*
G01*
D27*
X2942200Y5615900D02*
G03*
X2942200Y5615900I-12500J0D01*
G01*
X3251000Y7458800D02*
G03*
X3251000Y7458800I-12500J0D01*
G01*
X3346900Y9224100D02*
G03*
X3346900Y9224100I-12500J0D01*
G01*
D28*
X6598300Y4468800D02*
G03*
X6598300Y4468800I-10000J0D01*
G01*
X4257200Y5293400D02*
Y5933400D01*
X3007200D02*
X4257200D01*
X3007200Y5293400D02*
Y5933400D01*
Y5293400D02*
X4257200D01*
X3011000Y6458800D02*
Y7358800D01*
Y6458800D02*
X3466000Y6388800D01*
X3011000Y7358800D02*
X3466000Y7428800D01*
Y6388800D02*
Y7428800D01*
X3956700Y7020600D02*
X4196700D01*
Y6390600D02*
Y7020600D01*
X3956700Y6390600D02*
Y7020600D01*
Y6390600D02*
X4196700D01*
X3106900Y8224100D02*
Y9124100D01*
Y8224100D02*
X3561900Y8154100D01*
X3106900Y9124100D02*
X3561900Y9194100D01*
Y8154100D02*
Y9194100D01*
X3969400Y8785900D02*
X4209400D01*
Y8155900D02*
Y8785900D01*
X3969400Y8155900D02*
Y8785900D01*
Y8155900D02*
X4209400D01*
D29*
X1558300Y4528300D02*
X2577300D01*
Y1541300D02*
Y4528300D01*
X1558300Y1541300D02*
X2577300D01*
X1558300Y4528300D02*
Y5021800D01*
X88300D02*
X1558300D01*
X88300Y741800D02*
Y5021800D01*
Y741800D02*
X1558300D01*
Y1541300D01*
Y8897600D02*
X2577300D01*
Y6354600D02*
Y8897600D01*
X1558300Y6354600D02*
X2577300D01*
X1558300Y8897600D02*
Y9390100D01*
X88300D02*
X1558300D01*
X88300Y5555100D02*
Y9390100D01*
Y5555100D02*
X1558300D01*
Y6354600D01*
D30*
X4749300Y3833800D02*
Y9929800D01*
X6527300D01*
Y3833800D02*
Y9929800D01*
X6041300Y3763800D02*
Y3833800D01*
X5235300Y3763800D02*
Y3833800D01*
Y3763800D02*
X6041300D01*
Y3833800D02*
X6527300D01*
X4749300D02*
X5235300D01*
D31*
X4749800Y673059D02*
X4775192Y698451D01*
X4825975D01*
X4851367Y673059D01*
Y647667D01*
X4825975Y622275D01*
X4800583D01*
X4825975D01*
X4851367Y596883D01*
Y571492D01*
X4825975Y546100D01*
X4775192D01*
X4749800Y571492D01*
X4902151Y546100D02*
Y571492D01*
X4927543D01*
Y546100D01*
X4902151D01*
X5029110Y673059D02*
X5054501Y698451D01*
X5105285D01*
X5130677Y673059D01*
Y647667D01*
X5105285Y622275D01*
X5079893D01*
X5105285D01*
X5130677Y596883D01*
Y571492D01*
X5105285Y546100D01*
X5054501D01*
X5029110Y571492D01*
X5181460Y698451D02*
Y596883D01*
X5232244Y546100D01*
X5283028Y596883D01*
Y698451D01*
X4165567Y673059D02*
X4140175Y698451D01*
X4089392D01*
X4064000Y673059D01*
Y571492D01*
X4089392Y546100D01*
X4140175D01*
X4165567Y571492D01*
Y622275D01*
X4114783D01*
X4216351Y546100D02*
Y698451D01*
X4317918Y546100D01*
Y698451D01*
X4368701D02*
Y546100D01*
X4444877D01*
X4470269Y571492D01*
Y673059D01*
X4444877Y698451D01*
X4368701D01*
X901667Y292051D02*
X800100D01*
Y139700D01*
X901667D01*
X800100Y215875D02*
X850883D01*
X1054018Y266659D02*
X1028626Y292051D01*
X977843D01*
X952451Y266659D01*
Y165092D01*
X977843Y139700D01*
X1028626D01*
X1054018Y165092D01*
X1104801Y292051D02*
Y165092D01*
X1130193Y139700D01*
X1180977D01*
X1206369Y165092D01*
Y292051D01*
X1257152Y241267D02*
X1307936Y139700D01*
X1358719Y241267D01*
X1511070Y139700D02*
X1409503D01*
X1511070Y241267D01*
Y266659D01*
X1485678Y292051D01*
X1434895D01*
X1409503Y266659D01*
X3011990Y5232367D02*
Y5130800D01*
X3062774Y5080017D01*
X3113558Y5130800D01*
Y5232367D01*
X3164341Y5080017D02*
Y5232367D01*
X3240517D01*
X3265908Y5206975D01*
Y5156192D01*
X3240517Y5130800D01*
X3164341D01*
X3215125D02*
X3265908Y5080017D01*
X3392867D02*
X3342084D01*
X3316692Y5105408D01*
Y5156192D01*
X3342084Y5181584D01*
X3392867D01*
X3418259Y5156192D01*
Y5130800D01*
X3316692D01*
X3519826Y5029233D02*
X3545218D01*
X3570610Y5054625D01*
Y5181584D01*
X3494434D01*
X3469043Y5156192D01*
Y5105408D01*
X3494434Y5080017D01*
X3570610D01*
X4685740Y3655967D02*
X4787307D01*
X4736523D01*
Y3503617D01*
X4914266D02*
X4863482D01*
X4838090Y3529008D01*
Y3579792D01*
X4863482Y3605184D01*
X4914266D01*
X4939658Y3579792D01*
Y3554400D01*
X4838090D01*
X5066616Y3503617D02*
X5015833D01*
X4990441Y3529008D01*
Y3579792D01*
X5015833Y3605184D01*
X5066616D01*
X5092008Y3579792D01*
Y3554400D01*
X4990441D01*
X5142792Y3503617D02*
Y3605184D01*
X5218967D01*
X5244359Y3579792D01*
Y3503617D01*
X5295143D02*
X5371318D01*
X5396710Y3529008D01*
X5371318Y3554400D01*
X5320534D01*
X5295143Y3579792D01*
X5320534Y3605184D01*
X5396710D01*
X5447493D02*
Y3529008D01*
X5472885Y3503617D01*
X5549061D01*
Y3478225D01*
X5523669Y3452833D01*
X5498277D01*
X5549061Y3503617D02*
Y3605184D01*
X3981450Y9076690D02*
Y9229041D01*
X4057625D01*
X4083017Y9203649D01*
Y9152865D01*
X4057625Y9127473D01*
X3981450D01*
X4032233D02*
X4083017Y9076690D01*
X4235368D02*
X4133801D01*
X4235368Y9178257D01*
Y9203649D01*
X4209976Y9229041D01*
X4159193D01*
X4133801Y9203649D01*
X3968750Y7311390D02*
Y7463741D01*
X4044925D01*
X4070317Y7438349D01*
Y7387565D01*
X4044925Y7362173D01*
X3968750D01*
X4019533D02*
X4070317Y7311390D01*
X4121101D02*
X4171884D01*
X4146493D01*
Y7463741D01*
X4121101Y7438349D01*
X3213717Y9351002D02*
Y9452569D01*
X3188325Y9477961D01*
X3137542D01*
X3112150Y9452569D01*
Y9351002D01*
X3137542Y9325610D01*
X3188325D01*
X3162933Y9376393D02*
X3213717Y9325610D01*
X3188325D02*
X3213717Y9351002D01*
X3366068Y9325610D02*
X3264501D01*
X3366068Y9427177D01*
Y9452569D01*
X3340676Y9477961D01*
X3289893D01*
X3264501Y9452569D01*
X3117817Y7585702D02*
Y7687269D01*
X3092425Y7712661D01*
X3041642D01*
X3016250Y7687269D01*
Y7585702D01*
X3041642Y7560310D01*
X3092425D01*
X3067033Y7611093D02*
X3117817Y7560310D01*
X3092425D02*
X3117817Y7585702D01*
X3168601Y7560310D02*
X3219384D01*
X3193993D01*
Y7712661D01*
X3168601Y7687269D01*
X1714190Y9174071D02*
Y9021721D01*
Y9097896D01*
X1815758D01*
Y9174071D01*
Y9021721D01*
X1866541Y8996329D02*
X1968108D01*
X2018892Y9174071D02*
Y9021721D01*
X2095067D01*
X2120459Y9047112D01*
Y9072504D01*
X2095067Y9097896D01*
X2018892D01*
X2095067D01*
X2120459Y9123288D01*
Y9148679D01*
X2095067Y9174071D01*
X2018892D01*
X2171243D02*
Y9021721D01*
X2272810D01*
X3302218Y3086083D02*
X3276826Y3111475D01*
X3226043D01*
X3200651Y3086083D01*
Y2984517D01*
X3226043Y2959125D01*
X3276826D01*
X3302218Y2984517D01*
X3353001Y2959125D02*
Y3060692D01*
X3403785Y3111475D01*
X3454569Y3060692D01*
Y2959125D01*
Y3035300D01*
X3353001D01*
X3505352Y2959125D02*
Y3111475D01*
X3606919Y2959125D01*
Y3111475D01*
X3810054Y2959125D02*
Y3111475D01*
X3860837Y3060692D01*
X3911621Y3111475D01*
Y2959125D01*
X3987796D02*
X4038580D01*
X4063972Y2984517D01*
Y3035300D01*
X4038580Y3060692D01*
X3987796D01*
X3962404Y3035300D01*
Y2984517D01*
X3987796Y2959125D01*
X4140147Y3086083D02*
Y3060692D01*
X4114755D01*
X4165539D01*
X4140147D01*
Y2984517D01*
X4165539Y2959125D01*
X4267106D02*
X4317889D01*
X4343281Y2984517D01*
Y3035300D01*
X4317889Y3060692D01*
X4267106D01*
X4241714Y3035300D01*
Y2984517D01*
X4267106Y2959125D01*
X4394065Y3060692D02*
Y2959125D01*
Y3009908D01*
X4419456Y3035300D01*
X4444848Y3060692D01*
X4470240D01*
X4698766Y2959125D02*
X4749550D01*
X4724158D01*
Y3111475D01*
X4698766Y3086083D01*
X5105593D02*
X5080201Y3111475D01*
X5029418D01*
X5004026Y3086083D01*
Y2984517D01*
X5029418Y2959125D01*
X5080201D01*
X5105593Y2984517D01*
X5156377Y2959125D02*
Y3060692D01*
X5207160Y3111475D01*
X5257944Y3060692D01*
Y2959125D01*
Y3035300D01*
X5156377D01*
X5308728Y2959125D02*
Y3111475D01*
X5410295Y2959125D01*
Y3111475D01*
X5613429D02*
Y2959125D01*
X5689604D01*
X5714996Y2984517D01*
Y3086083D01*
X5689604Y3111475D01*
X5613429D01*
X5791172Y3060692D02*
X5841955D01*
X5867347Y3035300D01*
Y2959125D01*
X5791172D01*
X5765780Y2984517D01*
X5791172Y3009908D01*
X5867347D01*
X5943522Y3086083D02*
Y3060692D01*
X5918130D01*
X5968914D01*
X5943522D01*
Y2984517D01*
X5968914Y2959125D01*
X6070481Y3060692D02*
X6121265D01*
X6146656Y3035300D01*
Y2959125D01*
X6070481D01*
X6045089Y2984517D01*
X6070481Y3009908D01*
X6146656D01*
X6349791Y2959125D02*
X6400574D01*
X6375183D01*
Y3111475D01*
X6349791Y3086083D01*
X1774297Y4787371D02*
X1723513Y4761979D01*
X1672730Y4711196D01*
Y4660412D01*
X1698122Y4635020D01*
X1748905D01*
X1774297Y4660412D01*
Y4685804D01*
X1748905Y4711196D01*
X1672730D01*
X1825080Y4635020D02*
Y4787371D01*
X1901256D01*
X1926648Y4761979D01*
Y4711196D01*
X1901256Y4685804D01*
X1825080D01*
X1977431Y4609629D02*
X2078998D01*
X2231349Y4787371D02*
X2129782D01*
Y4635020D01*
X2231349D01*
X2129782Y4711196D02*
X2180565D01*
X2383700Y4761979D02*
X2358308Y4787371D01*
X2307524D01*
X2282133Y4761979D01*
Y4660412D01*
X2307524Y4635020D01*
X2358308D01*
X2383700Y4660412D01*
X2434483Y4787371D02*
Y4660412D01*
X2459875Y4635020D01*
X2510659D01*
X2536051Y4660412D01*
Y4787371D01*
%TF.MD5,06395a42bfb76c6ca45ba0591d235ae4*%
M02*
