%TF.GenerationSoftware,Altium Limited,Altium Designer,25.2.1 (25)*%
G04 Layer_Physical_Order=1*
G04 Layer_Color=255*
%FSLAX45Y45*%
%MOMM*%
%TF.SameCoordinates,263333B9-CEA0-44AE-B74E-27EC067FB1C6*%
%TF.FilePolarity,Positive*%
%TF.FileFunction,Copper,L1,Top,Signal*%
%TF.Part,Single*%
G01*
G75*
%TA.AperFunction,Conductor*%
%ADD10C,0.25400*%
%TA.AperFunction,ViaPad*%
%ADD11C,1.52400*%
%TA.AperFunction,ComponentPad*%
%ADD12C,2.99000*%
%ADD13C,2.64000*%
%ADD14R,2.64000X2.64000*%
%ADD15C,1.40000*%
%ADD16R,1.40000X1.40000*%
%ADD17C,1.77800*%
%ADD18C,1.30800*%
%ADD19C,1.20800*%
%ADD20C,1.25800*%
%ADD21C,1.85000*%
%ADD22R,1.85000X1.85000*%
%ADD23R,1.35000X1.35000*%
%ADD24C,1.35000*%
%ADD25C,1.90500*%
D10*
X3759200Y5077900D02*
X4876300Y3960800D01*
X3759200Y5077900D02*
Y5600700D01*
X1638300Y3034800D02*
X1808400Y3204900D01*
X3729300D01*
X4711700Y2222500D01*
X5549900D02*
X5778500Y2451100D01*
X4711700Y2222500D02*
X5549900D01*
X2591800Y2908300D02*
X3606800D01*
X4051300Y2463800D01*
X3670300Y2336800D02*
X3797300Y2463800D01*
X1891300Y2336800D02*
X3670300D01*
X1638300Y3479800D02*
X1866900Y3708400D01*
X3784600D01*
X5041900Y2451100D01*
X5524500D01*
X1638300Y2589800D02*
X1891300Y2336800D01*
X2273300Y2589800D02*
X2591800Y2908300D01*
X4876300Y3960800D02*
Y3982900D01*
X4477500Y6754800D02*
X4876300D01*
X4076700Y7155600D02*
X4477500Y6754800D01*
D11*
X5016500Y381000D02*
D03*
X4267200D02*
D03*
X6858000Y9779000D02*
D03*
Y381000D02*
D03*
X444500D02*
D03*
X381000Y9779000D02*
D03*
D12*
X1028300Y3034800D02*
D03*
X2171300Y4121800D02*
D03*
Y1947800D02*
D03*
X1028300Y7626100D02*
D03*
X2171300Y8491100D02*
D03*
Y6761100D02*
D03*
D13*
X1638300Y3479800D02*
D03*
Y2589800D02*
D03*
X2273300Y3034800D02*
D03*
Y2589800D02*
D03*
X1638300Y3034800D02*
D03*
Y7848600D02*
D03*
Y7403600D02*
D03*
X2273300D02*
D03*
D14*
Y3479800D02*
D03*
Y7848600D02*
D03*
D15*
X4007200Y5613400D02*
D03*
X3757200D02*
D03*
X3507200D02*
D03*
D16*
X3257200D02*
D03*
D17*
X6400300Y3960800D02*
D03*
Y4214800D02*
D03*
X4876300Y7516800D02*
D03*
X6400300Y4468800D02*
D03*
Y4722800D02*
D03*
Y4976800D02*
D03*
Y5230800D02*
D03*
Y5484800D02*
D03*
Y5738800D02*
D03*
Y5992800D02*
D03*
Y6246800D02*
D03*
Y6500800D02*
D03*
Y6754800D02*
D03*
Y7008800D02*
D03*
Y7262800D02*
D03*
Y7516800D02*
D03*
X4876300Y7262800D02*
D03*
Y7008800D02*
D03*
Y6754800D02*
D03*
Y6500800D02*
D03*
Y6246800D02*
D03*
Y5992800D02*
D03*
Y5738800D02*
D03*
Y5484800D02*
D03*
Y5230800D02*
D03*
Y4976800D02*
D03*
Y4722800D02*
D03*
Y4468800D02*
D03*
Y4214800D02*
D03*
Y3960800D02*
D03*
X6400300Y7770800D02*
D03*
Y8024800D02*
D03*
Y8278800D02*
D03*
Y8532800D02*
D03*
Y8786800D02*
D03*
Y9040800D02*
D03*
Y9294800D02*
D03*
Y9548800D02*
D03*
Y9802800D02*
D03*
X4876300D02*
D03*
Y9548800D02*
D03*
Y9294800D02*
D03*
Y9040800D02*
D03*
Y8786800D02*
D03*
Y8532800D02*
D03*
Y8278800D02*
D03*
Y8024800D02*
D03*
Y7770800D02*
D03*
D18*
X6146300Y8532800D02*
D03*
X5892300D02*
D03*
X5638300D02*
D03*
X5130300D02*
D03*
Y4214800D02*
D03*
X5384300Y8532800D02*
D03*
D19*
X5121300Y5457800D02*
D03*
Y5257800D02*
D03*
X5321300Y5457800D02*
D03*
X5521300D02*
D03*
X5321300Y5257800D02*
D03*
X5521300D02*
D03*
D20*
X6095300Y4595800D02*
D03*
Y4849800D02*
D03*
Y5103800D02*
D03*
Y5357800D02*
D03*
Y5611800D02*
D03*
D21*
X3168000Y6654800D02*
D03*
Y6908800D02*
D03*
X3263900Y8420100D02*
D03*
Y8674100D02*
D03*
D22*
X3168000Y7162800D02*
D03*
X3263900Y8928100D02*
D03*
D23*
X4076700Y6255600D02*
D03*
X4089400Y8020900D02*
D03*
D24*
X4076700Y7155600D02*
D03*
X4089400Y8920900D02*
D03*
D25*
X4051300Y2463800D02*
D03*
X3797300D02*
D03*
X3543300Y1066800D02*
D03*
X3797300D02*
D03*
X4051300D02*
D03*
X4305300D02*
D03*
X5778500Y2451100D02*
D03*
X5524500D02*
D03*
X5270500Y1054100D02*
D03*
X5524500D02*
D03*
X5778500D02*
D03*
X6032500D02*
D03*
%TF.MD5,9750dd2ded2e2e89fed7f793f8697acc*%
M02*
