%TF.GenerationSoftware,Altium Limited,Altium Designer,25.2.1 (25)*%
G04 Layer_Color=8388736*
%FSLAX45Y45*%
%MOMM*%
%TF.SameCoordinates,263333B9-CEA0-44AE-B74E-27EC067FB1C6*%
%TF.FilePolarity,Negative*%
%TF.FileFunction,Soldermask,Top*%
%TF.Part,Single*%
G01*
G75*
%TA.AperFunction,ComponentPad*%
%ADD15C,1.40000*%
%ADD16R,1.40000X1.40000*%
%ADD21C,1.85000*%
%ADD22R,1.85000X1.85000*%
%TA.AperFunction,ViaPad*%
%ADD32C,1.72720*%
%TA.AperFunction,ComponentPad*%
%ADD33C,3.19320*%
%ADD34C,2.84320*%
%ADD35R,2.84320X2.84320*%
%ADD36C,1.98120*%
%ADD37C,1.51120*%
%ADD38C,1.41120*%
%ADD39C,1.46120*%
%ADD40R,1.55320X1.55320*%
%ADD41C,1.55320*%
%ADD42C,2.10820*%
D15*
X4007200Y5613400D02*
D03*
X3757200D02*
D03*
X3507200D02*
D03*
D16*
X3257200D02*
D03*
D21*
X3168000Y6654800D02*
D03*
Y6908800D02*
D03*
X3263900Y8420100D02*
D03*
Y8674100D02*
D03*
D22*
X3168000Y7162800D02*
D03*
X3263900Y8928100D02*
D03*
D32*
X5016500Y381000D02*
D03*
X4267200D02*
D03*
X6858000Y9779000D02*
D03*
Y381000D02*
D03*
X444500D02*
D03*
X381000Y9779000D02*
D03*
D33*
X1028300Y3034800D02*
D03*
X2171300Y4121800D02*
D03*
Y1947800D02*
D03*
X1028300Y7626100D02*
D03*
X2171300Y8491100D02*
D03*
Y6761100D02*
D03*
D34*
X1638300Y3479800D02*
D03*
Y2589800D02*
D03*
X2273300Y3034800D02*
D03*
Y2589800D02*
D03*
X1638300Y3034800D02*
D03*
Y7848600D02*
D03*
Y7403600D02*
D03*
X2273300D02*
D03*
D35*
Y3479800D02*
D03*
Y7848600D02*
D03*
D36*
X6400300Y3960800D02*
D03*
Y4214800D02*
D03*
X4876300Y7516800D02*
D03*
X6400300Y4468800D02*
D03*
Y4722800D02*
D03*
Y4976800D02*
D03*
Y5230800D02*
D03*
Y5484800D02*
D03*
Y5738800D02*
D03*
Y5992800D02*
D03*
Y6246800D02*
D03*
Y6500800D02*
D03*
Y6754800D02*
D03*
Y7008800D02*
D03*
Y7262800D02*
D03*
Y7516800D02*
D03*
X4876300Y7262800D02*
D03*
Y7008800D02*
D03*
Y6754800D02*
D03*
Y6500800D02*
D03*
Y6246800D02*
D03*
Y5992800D02*
D03*
Y5738800D02*
D03*
Y5484800D02*
D03*
Y5230800D02*
D03*
Y4976800D02*
D03*
Y4722800D02*
D03*
Y4468800D02*
D03*
Y4214800D02*
D03*
Y3960800D02*
D03*
X6400300Y7770800D02*
D03*
Y8024800D02*
D03*
Y8278800D02*
D03*
Y8532800D02*
D03*
Y8786800D02*
D03*
Y9040800D02*
D03*
Y9294800D02*
D03*
Y9548800D02*
D03*
Y9802800D02*
D03*
X4876300D02*
D03*
Y9548800D02*
D03*
Y9294800D02*
D03*
Y9040800D02*
D03*
Y8786800D02*
D03*
Y8532800D02*
D03*
Y8278800D02*
D03*
Y8024800D02*
D03*
Y7770800D02*
D03*
D37*
X6146300Y8532800D02*
D03*
X5892300D02*
D03*
X5638300D02*
D03*
X5130300D02*
D03*
Y4214800D02*
D03*
X5384300Y8532800D02*
D03*
D38*
X5121300Y5457800D02*
D03*
Y5257800D02*
D03*
X5321300Y5457800D02*
D03*
X5521300D02*
D03*
X5321300Y5257800D02*
D03*
X5521300D02*
D03*
D39*
X6095300Y4595800D02*
D03*
Y4849800D02*
D03*
Y5103800D02*
D03*
Y5357800D02*
D03*
Y5611800D02*
D03*
D40*
X4076700Y6255600D02*
D03*
X4089400Y8020900D02*
D03*
D41*
X4076700Y7155600D02*
D03*
X4089400Y8920900D02*
D03*
D42*
X4051300Y2463800D02*
D03*
X3797300D02*
D03*
X3543300Y1066800D02*
D03*
X3797300D02*
D03*
X4051300D02*
D03*
X4305300D02*
D03*
X5778500Y2451100D02*
D03*
X5524500D02*
D03*
X5270500Y1054100D02*
D03*
X5524500D02*
D03*
X5778500D02*
D03*
X6032500D02*
D03*
%TF.MD5,799a78fb85322ab12523291f16750b2a*%
M02*
