%TF.GenerationSoftware,Altium Limited,Altium Designer,24.4.1 (13)*%
G04 Layer_Color=16711935*
%FSLAX45Y45*%
%MOMM*%
%TF.SameCoordinates,B3E1FF51-322A-4C5C-8053-80DE806A948F*%
%TF.FilePolarity,Negative*%
%TF.FileFunction,Soldermask,Bot*%
%TF.Part,Single*%
G01*
G75*
%TA.AperFunction,ComponentPad*%
%ADD24C,0.20320*%
%TA.AperFunction,ViaPad*%
%ADD26C,1.21920*%
%TA.AperFunction,ComponentPad*%
%ADD29C,2.23520*%
%ADD30R,2.23520X2.23520*%
%ADD31O,5.28320X2.23520*%
%ADD32R,5.28320X2.23520*%
%ADD33O,5.28320X2.10820*%
%ADD34O,5.28320X2.74320*%
%ADD35O,5.28320X2.10820*%
D24*
X3314700Y6261100D02*
D03*
Y6692900D02*
D03*
Y7048500D02*
D03*
Y7404100D02*
D03*
Y7759700D02*
D03*
Y8115300D02*
D03*
Y8470900D02*
D03*
Y8902700D02*
D03*
D26*
X3302000Y11430000D02*
D03*
Y3302000D02*
D03*
X11684000D02*
D03*
Y11430000D02*
D03*
D29*
X8318500Y7490500D02*
D03*
X5257800Y4861601D02*
D03*
X5803900Y5907999D02*
D03*
D30*
X8318500Y8257500D02*
D03*
X5257800Y5628599D02*
D03*
X5803900Y5141001D02*
D03*
D31*
X10807700Y11353800D02*
D03*
Y11099800D02*
D03*
Y10845800D02*
D03*
Y10591800D02*
D03*
Y10337800D02*
D03*
Y10083800D02*
D03*
Y9829800D02*
D03*
Y9575800D02*
D03*
Y9321800D02*
D03*
Y5511800D02*
D03*
X9283700Y6273800D02*
D03*
Y6527800D02*
D03*
Y6781800D02*
D03*
Y7035800D02*
D03*
Y7289800D02*
D03*
Y7543800D02*
D03*
Y7797800D02*
D03*
Y8051800D02*
D03*
Y8305800D02*
D03*
Y8559800D02*
D03*
Y8813800D02*
D03*
Y9067800D02*
D03*
Y6019800D02*
D03*
Y5765800D02*
D03*
Y5511800D02*
D03*
Y9321800D02*
D03*
Y9575800D02*
D03*
Y9829800D02*
D03*
Y10083800D02*
D03*
Y10337800D02*
D03*
Y10591800D02*
D03*
Y10845800D02*
D03*
Y11099800D02*
D03*
Y11353800D02*
D03*
X10807700Y9067800D02*
D03*
Y8813800D02*
D03*
Y8559800D02*
D03*
Y8305800D02*
D03*
Y8051800D02*
D03*
Y7797800D02*
D03*
Y7543800D02*
D03*
Y7289800D02*
D03*
Y7035800D02*
D03*
Y6781800D02*
D03*
Y6527800D02*
D03*
Y6273800D02*
D03*
Y6019800D02*
D03*
D32*
Y5765800D02*
D03*
D33*
X7785100Y4660900D02*
D03*
Y4406900D02*
D03*
Y4152900D02*
D03*
Y3898900D02*
D03*
Y3644900D02*
D03*
Y3390900D02*
D03*
X9550400Y4660900D02*
D03*
Y4406900D02*
D03*
Y4152900D02*
D03*
Y3898900D02*
D03*
Y3644900D02*
D03*
Y3390900D02*
D03*
X5054600Y8483600D02*
D03*
Y8229600D02*
D03*
Y7975600D02*
D03*
Y7721600D02*
D03*
Y7467600D02*
D03*
Y7213600D02*
D03*
Y6959600D02*
D03*
Y6705600D02*
D03*
Y6451600D02*
D03*
D34*
X2971800Y7759700D02*
D03*
Y8115300D02*
D03*
Y8470900D02*
D03*
Y8902700D02*
D03*
X3683000D02*
D03*
Y8470900D02*
D03*
Y8115300D02*
D03*
Y7759700D02*
D03*
X2971800Y6261100D02*
D03*
Y6692900D02*
D03*
X3683000Y7404100D02*
D03*
Y7048500D02*
D03*
Y6692900D02*
D03*
Y6261100D02*
D03*
X2971800Y7404100D02*
D03*
Y7048500D02*
D03*
D35*
X4838700Y10947400D02*
D03*
Y10693400D02*
D03*
X6235700Y10439400D02*
D03*
Y10693400D02*
D03*
Y10947400D02*
D03*
Y11201400D02*
D03*
%TF.MD5,ce7714efa35341bed3003f51ab372eab*%
M02*
