%TF.GenerationSoftware,Altium Limited,Altium Designer,24.4.1 (13)*%
G04 Layer_Physical_Order=2*
G04 Layer_Color=16711680*
%FSLAX45Y45*%
%MOMM*%
%TF.SameCoordinates,B3E1FF51-322A-4C5C-8053-80DE806A948F*%
%TF.FilePolarity,Positive*%
%TF.FileFunction,Copper,L2,Bot,Signal*%
%TF.Part,Single*%
G01*
G75*
%TA.AperFunction,ViaPad*%
%ADD10C,1.01600*%
%TA.AperFunction,Conductor*%
%ADD13C,0.50800*%
%TA.AperFunction,ComponentPad*%
%ADD14C,2.03200*%
%ADD15R,2.03200X2.03200*%
%ADD16O,5.08000X2.03200*%
%ADD17R,5.08000X2.03200*%
%ADD18O,5.08000X1.90500*%
%ADD19O,5.08000X2.54000*%
%ADD20O,5.08000X1.90500*%
G36*
X12357100Y2603500D02*
X2616200D01*
Y12141200D01*
X12357100D01*
Y2603500D01*
D02*
G37*
%LPC*%
G36*
X11706200Y11655400D02*
X11696700D01*
Y11442700D01*
X11909400D01*
Y11452200D01*
X11900738Y11495747D01*
X11883747Y11536767D01*
X11859080Y11573684D01*
X11827684Y11605080D01*
X11790767Y11629747D01*
X11749747Y11646738D01*
X11706200Y11655400D01*
D02*
G37*
G36*
X11671300D02*
X11661800D01*
X11618253Y11646738D01*
X11577233Y11629747D01*
X11540316Y11605080D01*
X11508920Y11573684D01*
X11484253Y11536767D01*
X11467262Y11495747D01*
X11458600Y11452200D01*
Y11442700D01*
X11671300D01*
Y11655400D01*
D02*
G37*
G36*
X3324200D02*
X3314700D01*
Y11442700D01*
X3527400D01*
Y11452200D01*
X3518738Y11495747D01*
X3501747Y11536767D01*
X3477080Y11573684D01*
X3445684Y11605080D01*
X3408767Y11629747D01*
X3367747Y11646738D01*
X3324200Y11655400D01*
D02*
G37*
G36*
X3289300D02*
X3279800D01*
X3236253Y11646738D01*
X3195233Y11629747D01*
X3158316Y11605080D01*
X3126920Y11573684D01*
X3102253Y11536767D01*
X3085262Y11495747D01*
X3076600Y11452200D01*
Y11442700D01*
X3289300D01*
Y11655400D01*
D02*
G37*
G36*
X11909400Y11417300D02*
X11696700D01*
Y11204600D01*
X11706200D01*
X11749747Y11213262D01*
X11790767Y11230253D01*
X11827684Y11254920D01*
X11859080Y11286316D01*
X11883747Y11323233D01*
X11900738Y11364253D01*
X11909400Y11407800D01*
Y11417300D01*
D02*
G37*
G36*
X11671300D02*
X11458600D01*
Y11407800D01*
X11467262Y11364253D01*
X11484253Y11323233D01*
X11508920Y11286316D01*
X11540316Y11254920D01*
X11577233Y11230253D01*
X11618253Y11213262D01*
X11661800Y11204600D01*
X11671300D01*
Y11417300D01*
D02*
G37*
G36*
X3527400D02*
X3314700D01*
Y11204600D01*
X3324200D01*
X3367747Y11213262D01*
X3408767Y11230253D01*
X3445684Y11254920D01*
X3477080Y11286316D01*
X3501747Y11323233D01*
X3518738Y11364253D01*
X3527400Y11407800D01*
Y11417300D01*
D02*
G37*
G36*
X3289300D02*
X3076600D01*
Y11407800D01*
X3085262Y11364253D01*
X3102253Y11323233D01*
X3126920Y11286316D01*
X3158316Y11254920D01*
X3195233Y11230253D01*
X3236253Y11213262D01*
X3279800Y11204600D01*
X3289300D01*
Y11417300D01*
D02*
G37*
G36*
X3810000Y7912837D02*
X3556000D01*
X3526124Y7909895D01*
X3497397Y7901181D01*
X3470921Y7887029D01*
X3447715Y7867985D01*
X3428671Y7844779D01*
X3414519Y7818303D01*
X3405805Y7789576D01*
X3403600Y7767186D01*
X3390900Y7767810D01*
Y7769732D01*
X3385707Y7789112D01*
X3375675Y7806488D01*
X3361488Y7820675D01*
X3344112Y7830707D01*
X3324732Y7835900D01*
X3304668D01*
X3285288Y7830707D01*
X3267912Y7820675D01*
X3256342Y7809106D01*
X3242664Y7810446D01*
X3240281Y7818303D01*
X3226129Y7844779D01*
X3207085Y7867985D01*
X3183879Y7887029D01*
X3157403Y7901181D01*
X3128676Y7909895D01*
X3098800Y7912837D01*
X2844800D01*
X2814924Y7909895D01*
X2786197Y7901181D01*
X2759721Y7887029D01*
X2736515Y7867985D01*
X2717471Y7844779D01*
X2703319Y7818303D01*
X2694605Y7789576D01*
X2691663Y7759700D01*
X2694605Y7729824D01*
X2703319Y7701097D01*
X2717471Y7674621D01*
X2736515Y7651415D01*
X2759721Y7632371D01*
X2786197Y7618219D01*
X2814924Y7609505D01*
X2844800Y7606563D01*
X3098800D01*
X3128676Y7609505D01*
X3157403Y7618219D01*
X3183879Y7632371D01*
X3207085Y7651415D01*
X3226129Y7674621D01*
X3240281Y7701097D01*
X3242664Y7708954D01*
X3256342Y7710294D01*
X3267912Y7698725D01*
X3285288Y7688693D01*
X3304668Y7683500D01*
X3324732D01*
X3344112Y7688693D01*
X3361488Y7698725D01*
X3375675Y7712912D01*
X3385707Y7730288D01*
X3390900Y7749668D01*
Y7751590D01*
X3403600Y7752214D01*
X3405805Y7729824D01*
X3414519Y7701097D01*
X3428671Y7674621D01*
X3447715Y7651415D01*
X3470921Y7632371D01*
X3497397Y7618219D01*
X3526124Y7609505D01*
X3556000Y7606563D01*
X3810000D01*
X3839876Y7609505D01*
X3868603Y7618219D01*
X3895079Y7632371D01*
X3918285Y7651415D01*
X3937329Y7674621D01*
X3951481Y7701097D01*
X3953546Y7707905D01*
X4245746D01*
X4482105Y7471546D01*
Y5067300D01*
X4486047Y5047479D01*
X4497275Y5030675D01*
X5005275Y4522675D01*
X5022079Y4511447D01*
X5041900Y4507505D01*
X5638800D01*
X5658621Y4511447D01*
X5675425Y4522675D01*
X8355125Y7202375D01*
X8366353Y7219179D01*
X8370295Y7239000D01*
Y7373757D01*
X8396480Y7388875D01*
X8420125Y7412520D01*
X8436845Y7441480D01*
X8445500Y7473780D01*
Y7507220D01*
X8436845Y7539520D01*
X8420125Y7568480D01*
X8396480Y7592125D01*
X8367520Y7608845D01*
X8335220Y7617500D01*
X8301780D01*
X8269480Y7608845D01*
X8240520Y7592125D01*
X8216875Y7568480D01*
X8200155Y7539520D01*
X8191500Y7507220D01*
Y7473780D01*
X8200155Y7441480D01*
X8216875Y7412520D01*
X8240520Y7388875D01*
X8266705Y7373757D01*
Y7260454D01*
X5617346Y4611095D01*
X5063354D01*
X4585695Y5088754D01*
Y7493000D01*
X4581753Y7512821D01*
X4570525Y7529625D01*
X4303825Y7796325D01*
X4287021Y7807553D01*
X4267200Y7811495D01*
X3953546D01*
X3951481Y7818303D01*
X3937329Y7844779D01*
X3918285Y7867985D01*
X3895079Y7887029D01*
X3868603Y7901181D01*
X3839876Y7909895D01*
X3810000Y7912837D01*
D02*
G37*
G36*
Y6846037D02*
X3556000D01*
X3526124Y6843095D01*
X3497397Y6834381D01*
X3470921Y6820229D01*
X3447715Y6801185D01*
X3428671Y6777979D01*
X3414519Y6751503D01*
X3405805Y6722776D01*
X3403600Y6700386D01*
X3390900Y6701010D01*
Y6702932D01*
X3385707Y6722312D01*
X3375675Y6739688D01*
X3361488Y6753875D01*
X3344112Y6763907D01*
X3324732Y6769100D01*
X3304668D01*
X3285288Y6763907D01*
X3267912Y6753875D01*
X3256342Y6742306D01*
X3242664Y6743646D01*
X3240281Y6751503D01*
X3226129Y6777979D01*
X3207085Y6801185D01*
X3183879Y6820229D01*
X3157403Y6834381D01*
X3128676Y6843095D01*
X3098800Y6846037D01*
X2844800D01*
X2814924Y6843095D01*
X2786197Y6834381D01*
X2759721Y6820229D01*
X2736515Y6801185D01*
X2717471Y6777979D01*
X2703319Y6751503D01*
X2694605Y6722776D01*
X2691663Y6692900D01*
X2694605Y6663024D01*
X2703319Y6634297D01*
X2717471Y6607821D01*
X2736515Y6584615D01*
X2759721Y6565571D01*
X2786197Y6551419D01*
X2814924Y6542705D01*
X2844800Y6539763D01*
X3098800D01*
X3128676Y6542705D01*
X3157403Y6551419D01*
X3183879Y6565571D01*
X3207085Y6584615D01*
X3226129Y6607821D01*
X3240281Y6634297D01*
X3242664Y6642154D01*
X3256342Y6643494D01*
X3267912Y6631925D01*
X3285288Y6621893D01*
X3304668Y6616700D01*
X3324732D01*
X3344112Y6621893D01*
X3361488Y6631925D01*
X3375675Y6646112D01*
X3385707Y6663488D01*
X3390900Y6682868D01*
Y6684790D01*
X3403600Y6685414D01*
X3405805Y6663024D01*
X3414519Y6634297D01*
X3428671Y6607821D01*
X3447715Y6584615D01*
X3470921Y6565571D01*
X3497397Y6551419D01*
X3526124Y6542705D01*
X3556000Y6539763D01*
X3810000D01*
X3839876Y6542705D01*
X3868603Y6551419D01*
X3895079Y6565571D01*
X3918285Y6584615D01*
X3937329Y6607821D01*
X3951481Y6634297D01*
X3960195Y6663024D01*
X3963137Y6692900D01*
X3960195Y6722776D01*
X3951481Y6751503D01*
X3937329Y6777979D01*
X3918285Y6801185D01*
X3895079Y6820229D01*
X3868603Y6834381D01*
X3839876Y6843095D01*
X3810000Y6846037D01*
D02*
G37*
G36*
Y6414237D02*
X3695700D01*
Y6273800D01*
X3961886D01*
X3960195Y6290976D01*
X3951481Y6319703D01*
X3937329Y6346179D01*
X3918285Y6369385D01*
X3895079Y6388429D01*
X3868603Y6402581D01*
X3839876Y6411295D01*
X3810000Y6414237D01*
D02*
G37*
G36*
X3670300D02*
X3556000D01*
X3526124Y6411295D01*
X3497397Y6402581D01*
X3470921Y6388429D01*
X3447715Y6369385D01*
X3428671Y6346179D01*
X3414519Y6319703D01*
X3405805Y6290976D01*
X3403600Y6268586D01*
X3390900Y6269210D01*
Y6271132D01*
X3385707Y6290512D01*
X3375675Y6307888D01*
X3361488Y6322075D01*
X3344112Y6332107D01*
X3324732Y6337300D01*
X3304668D01*
X3285288Y6332107D01*
X3267912Y6322075D01*
X3256342Y6310506D01*
X3242664Y6311846D01*
X3240281Y6319703D01*
X3226129Y6346179D01*
X3207085Y6369385D01*
X3183879Y6388429D01*
X3157403Y6402581D01*
X3128676Y6411295D01*
X3098800Y6414237D01*
X2844800D01*
X2814924Y6411295D01*
X2786197Y6402581D01*
X2759721Y6388429D01*
X2736515Y6369385D01*
X2717471Y6346179D01*
X2703319Y6319703D01*
X2694605Y6290976D01*
X2691663Y6261100D01*
X2694605Y6231224D01*
X2703319Y6202497D01*
X2717471Y6176021D01*
X2736515Y6152815D01*
X2759721Y6133771D01*
X2786197Y6119619D01*
X2814924Y6110905D01*
X2844800Y6107963D01*
X2920005D01*
Y5689600D01*
X2923947Y5669779D01*
X2935175Y5652975D01*
X4979875Y3608275D01*
X4996679Y3597047D01*
X5016500Y3593105D01*
X5969000D01*
X5988821Y3597047D01*
X6005625Y3608275D01*
X7857354Y5460005D01*
X9015291D01*
X9020366Y5447752D01*
X9040723Y5421223D01*
X9067252Y5400866D01*
X9098146Y5388069D01*
X9131300Y5383704D01*
X9436100D01*
X9469254Y5388069D01*
X9500148Y5400866D01*
X9526677Y5421223D01*
X9547034Y5447752D01*
X9559831Y5478646D01*
X9564196Y5511800D01*
X9559831Y5544954D01*
X9547034Y5575848D01*
X9526677Y5602377D01*
X9500148Y5622734D01*
X9477955Y5631927D01*
Y5645673D01*
X9500148Y5654866D01*
X9526677Y5675223D01*
X9547034Y5701752D01*
X9559831Y5732646D01*
X9562524Y5753100D01*
X9283700D01*
X9004876D01*
X9007569Y5732646D01*
X9020366Y5701752D01*
X9040723Y5675223D01*
X9067252Y5654866D01*
X9089445Y5645673D01*
Y5631927D01*
X9067252Y5622734D01*
X9040723Y5602377D01*
X9020366Y5575848D01*
X9015291Y5563595D01*
X7835901D01*
X7835900Y5563595D01*
X7816079Y5559653D01*
X7799275Y5548425D01*
X5947546Y3696695D01*
X5037954D01*
X3023595Y5711054D01*
Y6107963D01*
X3098800D01*
X3128676Y6110905D01*
X3157403Y6119619D01*
X3183879Y6133771D01*
X3207085Y6152815D01*
X3226129Y6176021D01*
X3240281Y6202497D01*
X3242664Y6210354D01*
X3256342Y6211694D01*
X3267912Y6200125D01*
X3285288Y6190093D01*
X3304668Y6184900D01*
X3324732D01*
X3344112Y6190093D01*
X3361488Y6200125D01*
X3375675Y6214312D01*
X3385707Y6231688D01*
X3390900Y6251068D01*
Y6252990D01*
X3403600Y6253614D01*
X3405805Y6231224D01*
X3414519Y6202497D01*
X3428671Y6176021D01*
X3447715Y6152815D01*
X3470921Y6133771D01*
X3497397Y6119619D01*
X3526124Y6110905D01*
X3556000Y6107963D01*
X3670300D01*
Y6261100D01*
Y6414237D01*
D02*
G37*
G36*
X3961886Y6248400D02*
X3695700D01*
Y6107963D01*
X3810000D01*
X3839876Y6110905D01*
X3868603Y6119619D01*
X3895079Y6133771D01*
X3918285Y6152815D01*
X3937329Y6176021D01*
X3951481Y6202497D01*
X3960195Y6231224D01*
X3961886Y6248400D01*
D02*
G37*
G36*
X9690100Y11634195D02*
X8839200D01*
X8819379Y11630253D01*
X8802575Y11619025D01*
X5464946Y8281395D01*
X5322486D01*
X5318738Y8290446D01*
X5299399Y8315649D01*
X5274196Y8334988D01*
X5244846Y8347145D01*
X5221675Y8350195D01*
Y8363005D01*
X5244846Y8366055D01*
X5274196Y8378212D01*
X5299399Y8397551D01*
X5318738Y8422754D01*
X5330895Y8452104D01*
X5335041Y8483600D01*
X5330895Y8515096D01*
X5318738Y8544446D01*
X5299399Y8569649D01*
X5274196Y8588988D01*
X5244846Y8601145D01*
X5213350Y8605291D01*
X4895850D01*
X4864354Y8601145D01*
X4835004Y8588988D01*
X4809801Y8569649D01*
X4790462Y8544446D01*
X4778305Y8515096D01*
X4774159Y8483600D01*
X4778305Y8452104D01*
X4790462Y8422754D01*
X4809801Y8397551D01*
X4835004Y8378212D01*
X4864354Y8366055D01*
X4887525Y8363005D01*
Y8350195D01*
X4864354Y8347145D01*
X4835004Y8334988D01*
X4809801Y8315649D01*
X4790462Y8290446D01*
X4786714Y8281395D01*
X4568054D01*
X4458695Y8390754D01*
Y8538346D01*
X5434125Y9513775D01*
X5445353Y9530579D01*
X5449295Y9550400D01*
Y10967176D01*
X5445353Y10986997D01*
X5434125Y11003801D01*
X5300054Y11137872D01*
X5304914Y11149605D01*
X5967814D01*
X5971562Y11140554D01*
X5990901Y11115351D01*
X6016104Y11096012D01*
X6045454Y11083855D01*
X6068625Y11080805D01*
Y11067995D01*
X6045454Y11064945D01*
X6016104Y11052788D01*
X5990901Y11033449D01*
X5971562Y11008246D01*
X5959405Y10978896D01*
X5956931Y10960100D01*
X6235700D01*
X6514469D01*
X6511995Y10978896D01*
X6499838Y11008246D01*
X6480499Y11033449D01*
X6455296Y11052788D01*
X6425946Y11064945D01*
X6402775Y11067995D01*
Y11080805D01*
X6425946Y11083855D01*
X6455296Y11096012D01*
X6480499Y11115351D01*
X6499838Y11140554D01*
X6511995Y11169904D01*
X6516141Y11201400D01*
X6511995Y11232896D01*
X6499838Y11262246D01*
X6480499Y11287449D01*
X6455296Y11306788D01*
X6425946Y11318945D01*
X6394450Y11323091D01*
X6076950D01*
X6045454Y11318945D01*
X6016104Y11306788D01*
X5990901Y11287449D01*
X5971562Y11262246D01*
X5967814Y11253195D01*
X4127500D01*
X4107679Y11249253D01*
X4090875Y11238025D01*
X2935175Y10082325D01*
X2923947Y10065521D01*
X2920005Y10045700D01*
Y9055837D01*
X2844800D01*
X2814924Y9052895D01*
X2786197Y9044181D01*
X2759721Y9030029D01*
X2736515Y9010985D01*
X2717471Y8987779D01*
X2703319Y8961303D01*
X2694605Y8932576D01*
X2691663Y8902700D01*
X2694605Y8872824D01*
X2703319Y8844097D01*
X2717471Y8817621D01*
X2736515Y8794415D01*
X2759721Y8775371D01*
X2786197Y8761219D01*
X2814924Y8752505D01*
X2844800Y8749563D01*
X3098800D01*
X3128676Y8752505D01*
X3157403Y8761219D01*
X3183879Y8775371D01*
X3207085Y8794415D01*
X3226129Y8817621D01*
X3240281Y8844097D01*
X3242664Y8851954D01*
X3256342Y8853294D01*
X3267912Y8841725D01*
X3285288Y8831693D01*
X3304668Y8826500D01*
X3324732D01*
X3344112Y8831693D01*
X3361488Y8841725D01*
X3375675Y8855912D01*
X3385707Y8873288D01*
X3390900Y8892668D01*
Y8894590D01*
X3403600Y8895214D01*
X3405805Y8872824D01*
X3414519Y8844097D01*
X3428671Y8817621D01*
X3447715Y8794415D01*
X3470921Y8775371D01*
X3497397Y8761219D01*
X3526124Y8752505D01*
X3556000Y8749563D01*
X3810000D01*
X3839876Y8752505D01*
X3868603Y8761219D01*
X3895079Y8775371D01*
X3918285Y8794415D01*
X3937329Y8817621D01*
X3951481Y8844097D01*
X3960195Y8872824D01*
X3963137Y8902700D01*
X3960195Y8932576D01*
X3951481Y8961303D01*
X3937329Y8987779D01*
X3918285Y9010985D01*
X3895079Y9030029D01*
X3868603Y9044181D01*
X3839876Y9052895D01*
X3810000Y9055837D01*
X3734795D01*
Y9084446D01*
X4430825Y9780475D01*
X4442053Y9797279D01*
X4445995Y9817100D01*
Y10636697D01*
X4558887Y10749589D01*
X4569654Y10742395D01*
X4562405Y10724896D01*
X4558259Y10693400D01*
X4562405Y10661904D01*
X4574562Y10632554D01*
X4593901Y10607351D01*
X4619104Y10588012D01*
X4648454Y10575855D01*
X4679950Y10571709D01*
X4786905D01*
Y9521054D01*
X3874877Y8609027D01*
X3868603Y8612381D01*
X3839876Y8621095D01*
X3810000Y8624037D01*
X3556000D01*
X3526124Y8621095D01*
X3497397Y8612381D01*
X3470921Y8598229D01*
X3447715Y8579185D01*
X3428671Y8555979D01*
X3414519Y8529503D01*
X3405805Y8500776D01*
X3403600Y8478386D01*
X3390900Y8479010D01*
Y8480932D01*
X3385707Y8500312D01*
X3375675Y8517688D01*
X3361488Y8531875D01*
X3344112Y8541907D01*
X3324732Y8547100D01*
X3304668D01*
X3285288Y8541907D01*
X3267912Y8531875D01*
X3256342Y8520306D01*
X3242664Y8521646D01*
X3240281Y8529503D01*
X3226129Y8555979D01*
X3207085Y8579185D01*
X3183879Y8598229D01*
X3157403Y8612381D01*
X3128676Y8621095D01*
X3098800Y8624037D01*
X2844800D01*
X2814924Y8621095D01*
X2786197Y8612381D01*
X2759721Y8598229D01*
X2736515Y8579185D01*
X2717471Y8555979D01*
X2703319Y8529503D01*
X2694605Y8500776D01*
X2691663Y8470900D01*
X2694605Y8441024D01*
X2703319Y8412297D01*
X2717471Y8385821D01*
X2736515Y8362615D01*
X2759721Y8343571D01*
X2786197Y8329419D01*
X2814924Y8320705D01*
X2844800Y8317763D01*
X3098800D01*
X3128676Y8320705D01*
X3157403Y8329419D01*
X3183879Y8343571D01*
X3207085Y8362615D01*
X3226129Y8385821D01*
X3240281Y8412297D01*
X3242664Y8420154D01*
X3256342Y8421494D01*
X3267912Y8409925D01*
X3285288Y8399893D01*
X3304668Y8394700D01*
X3324732D01*
X3344112Y8399893D01*
X3361488Y8409925D01*
X3375675Y8424112D01*
X3385707Y8441488D01*
X3390900Y8460868D01*
Y8462790D01*
X3403600Y8463414D01*
X3405805Y8441024D01*
X3414519Y8412297D01*
X3428671Y8385821D01*
X3447715Y8362615D01*
X3470921Y8343571D01*
X3497397Y8329419D01*
X3526124Y8320705D01*
X3556000Y8317763D01*
X3810000D01*
X3839876Y8320705D01*
X3868603Y8329419D01*
X3895079Y8343571D01*
X3918285Y8362615D01*
X3937329Y8385821D01*
X3951481Y8412297D01*
X3960195Y8441024D01*
X3963137Y8470900D01*
X3960195Y8500776D01*
X3951481Y8529503D01*
X3948127Y8535777D01*
X4875325Y9462975D01*
X4886553Y9479779D01*
X4890495Y9499600D01*
Y10571709D01*
X4997450D01*
X5028946Y10575855D01*
X5058296Y10588012D01*
X5083499Y10607351D01*
X5102838Y10632554D01*
X5114995Y10661904D01*
X5119141Y10693400D01*
X5114995Y10724896D01*
X5102838Y10754246D01*
X5083499Y10779449D01*
X5058296Y10798788D01*
X5028946Y10810945D01*
X5005775Y10813995D01*
Y10826805D01*
X5028946Y10829855D01*
X5058296Y10842012D01*
X5083499Y10861351D01*
X5102838Y10886554D01*
X5114995Y10915904D01*
X5119141Y10947400D01*
X5114995Y10978896D01*
X5102838Y11008246D01*
X5083499Y11033449D01*
X5058296Y11052788D01*
X5028946Y11064945D01*
X4997450Y11069091D01*
X4679950D01*
X4648454Y11064945D01*
X4619104Y11052788D01*
X4593901Y11033449D01*
X4574562Y11008246D01*
X4562405Y10978896D01*
X4558259Y10947400D01*
X4562405Y10915904D01*
X4567179Y10904380D01*
X4357575Y10694776D01*
X4346347Y10677973D01*
X4342405Y10658151D01*
Y9838554D01*
X3646375Y9142525D01*
X3635147Y9125721D01*
X3631205Y9105900D01*
Y9055837D01*
X3556000D01*
X3526124Y9052895D01*
X3497397Y9044181D01*
X3470921Y9030029D01*
X3447715Y9010985D01*
X3428671Y8987779D01*
X3414519Y8961303D01*
X3405805Y8932576D01*
X3403600Y8910186D01*
X3390900Y8910810D01*
Y8912732D01*
X3385707Y8932112D01*
X3375675Y8949488D01*
X3361488Y8963675D01*
X3344112Y8973707D01*
X3324732Y8978900D01*
X3304668D01*
X3285288Y8973707D01*
X3267912Y8963675D01*
X3256342Y8952106D01*
X3242664Y8953446D01*
X3240281Y8961303D01*
X3226129Y8987779D01*
X3207085Y9010985D01*
X3183879Y9030029D01*
X3157403Y9044181D01*
X3128676Y9052895D01*
X3098800Y9055837D01*
X3023595D01*
Y10024246D01*
X4148954Y11149605D01*
X5141822D01*
X5345705Y10945722D01*
Y9571854D01*
X4370275Y8596425D01*
X4359047Y8579621D01*
X4355105Y8559800D01*
Y8369300D01*
X4359047Y8349479D01*
X4370275Y8332675D01*
X4509975Y8192976D01*
X4509975Y8192975D01*
X4526779Y8181747D01*
X4546600Y8177805D01*
X4786714D01*
X4790462Y8168754D01*
X4809801Y8143551D01*
X4835004Y8124212D01*
X4864354Y8112055D01*
X4887525Y8109005D01*
Y8096195D01*
X4864354Y8093145D01*
X4835004Y8080988D01*
X4809801Y8061649D01*
X4790462Y8036446D01*
X4778305Y8007096D01*
X4775831Y7988300D01*
X5054600D01*
X5333369D01*
X5330895Y8007096D01*
X5318738Y8036446D01*
X5299399Y8061649D01*
X5274196Y8080988D01*
X5244846Y8093145D01*
X5221675Y8096195D01*
Y8109005D01*
X5244846Y8112055D01*
X5274196Y8124212D01*
X5299399Y8143551D01*
X5318738Y8168754D01*
X5322486Y8177805D01*
X5486400D01*
X5506221Y8181747D01*
X5523025Y8192975D01*
X8860654Y11530605D01*
X9668646D01*
X9858402Y11340849D01*
X9858147Y11340468D01*
X9854205Y11320646D01*
Y6014859D01*
X9764891Y5925545D01*
X9603604D01*
X9554756Y5974394D01*
X9559831Y5986646D01*
X9564196Y6019800D01*
X9559831Y6052954D01*
X9547034Y6083848D01*
X9526677Y6110377D01*
X9500148Y6130734D01*
X9477955Y6139927D01*
Y6153673D01*
X9500148Y6162866D01*
X9526677Y6183223D01*
X9547034Y6209752D01*
X9559831Y6240646D01*
X9564196Y6273800D01*
X9559831Y6306954D01*
X9547034Y6337848D01*
X9526677Y6364377D01*
X9500148Y6384734D01*
X9477955Y6393927D01*
Y6407673D01*
X9500148Y6416866D01*
X9526677Y6437223D01*
X9547034Y6463752D01*
X9559831Y6494646D01*
X9564196Y6527800D01*
X9559831Y6560954D01*
X9547034Y6591848D01*
X9526677Y6618377D01*
X9500148Y6638734D01*
X9477955Y6647927D01*
Y6661673D01*
X9500148Y6670866D01*
X9526677Y6691223D01*
X9547034Y6717752D01*
X9559831Y6748646D01*
X9564196Y6781800D01*
X9559831Y6814954D01*
X9547034Y6845848D01*
X9526677Y6872377D01*
X9500148Y6892734D01*
X9477955Y6901927D01*
Y6915673D01*
X9500148Y6924866D01*
X9526677Y6945223D01*
X9547034Y6971752D01*
X9559831Y7002646D01*
X9564196Y7035800D01*
X9559831Y7068954D01*
X9547034Y7099848D01*
X9526677Y7126377D01*
X9500148Y7146734D01*
X9477955Y7155927D01*
Y7169673D01*
X9500148Y7178866D01*
X9526677Y7199223D01*
X9547034Y7225752D01*
X9559831Y7256646D01*
X9564196Y7289800D01*
X9559831Y7322954D01*
X9547034Y7353848D01*
X9526677Y7380377D01*
X9500148Y7400734D01*
X9477955Y7409927D01*
Y7423673D01*
X9500148Y7432866D01*
X9526677Y7453223D01*
X9547034Y7479752D01*
X9559831Y7510646D01*
X9564196Y7543800D01*
X9559831Y7576954D01*
X9547034Y7607848D01*
X9526677Y7634377D01*
X9500148Y7654734D01*
X9477955Y7663927D01*
Y7677673D01*
X9500148Y7686866D01*
X9526677Y7707223D01*
X9547034Y7733752D01*
X9559831Y7764646D01*
X9564196Y7797800D01*
X9559831Y7830954D01*
X9547034Y7861848D01*
X9526677Y7888377D01*
X9500148Y7908734D01*
X9477955Y7917927D01*
Y7931673D01*
X9500148Y7940866D01*
X9526677Y7961223D01*
X9547034Y7987752D01*
X9559831Y8018646D01*
X9564196Y8051800D01*
X9559831Y8084954D01*
X9547034Y8115848D01*
X9526677Y8142377D01*
X9500148Y8162734D01*
X9477955Y8171927D01*
Y8185673D01*
X9500148Y8194866D01*
X9526677Y8215223D01*
X9547034Y8241752D01*
X9559831Y8272646D01*
X9564196Y8305800D01*
X9559831Y8338954D01*
X9547034Y8369848D01*
X9526677Y8396377D01*
X9500148Y8416734D01*
X9477955Y8425927D01*
Y8439673D01*
X9500148Y8448866D01*
X9526677Y8469223D01*
X9547034Y8495752D01*
X9559831Y8526646D01*
X9564196Y8559800D01*
X9559831Y8592954D01*
X9547034Y8623848D01*
X9526677Y8650377D01*
X9500148Y8670734D01*
X9477955Y8679927D01*
Y8693673D01*
X9500148Y8702866D01*
X9526677Y8723223D01*
X9547034Y8749752D01*
X9559831Y8780646D01*
X9564196Y8813800D01*
X9559831Y8846954D01*
X9547034Y8877848D01*
X9526677Y8904377D01*
X9500148Y8924734D01*
X9477955Y8933927D01*
Y8947673D01*
X9500148Y8956866D01*
X9526677Y8977223D01*
X9547034Y9003752D01*
X9559831Y9034646D01*
X9564196Y9067800D01*
X9559831Y9100954D01*
X9547034Y9131848D01*
X9526677Y9158377D01*
X9500148Y9178734D01*
X9477955Y9187927D01*
Y9201673D01*
X9500148Y9210866D01*
X9526677Y9231223D01*
X9547034Y9257752D01*
X9559831Y9288646D01*
X9564196Y9321800D01*
X9559831Y9354954D01*
X9547034Y9385848D01*
X9526677Y9412377D01*
X9500148Y9432734D01*
X9477955Y9441927D01*
Y9455673D01*
X9500148Y9464866D01*
X9526677Y9485223D01*
X9547034Y9511752D01*
X9559831Y9542646D01*
X9564196Y9575800D01*
X9559831Y9608954D01*
X9547034Y9639848D01*
X9526677Y9666377D01*
X9500148Y9686734D01*
X9477955Y9695927D01*
Y9709673D01*
X9500148Y9718866D01*
X9526677Y9739223D01*
X9547034Y9765752D01*
X9559831Y9796646D01*
X9564196Y9829800D01*
X9559831Y9862954D01*
X9547034Y9893848D01*
X9526677Y9920377D01*
X9500148Y9940734D01*
X9477955Y9949927D01*
Y9963673D01*
X9500148Y9972866D01*
X9526677Y9993223D01*
X9547034Y10019752D01*
X9559831Y10050646D01*
X9564196Y10083800D01*
X9559831Y10116954D01*
X9547034Y10147848D01*
X9526677Y10174377D01*
X9500148Y10194734D01*
X9477955Y10203927D01*
Y10217673D01*
X9500148Y10226866D01*
X9526677Y10247223D01*
X9547034Y10273752D01*
X9559831Y10304646D01*
X9564196Y10337800D01*
X9559831Y10370954D01*
X9547034Y10401848D01*
X9526677Y10428377D01*
X9500148Y10448734D01*
X9477955Y10457927D01*
Y10471673D01*
X9500148Y10480866D01*
X9526677Y10501223D01*
X9547034Y10527752D01*
X9559831Y10558646D01*
X9564196Y10591800D01*
X9559831Y10624954D01*
X9547034Y10655848D01*
X9526677Y10682377D01*
X9500148Y10702734D01*
X9477955Y10711927D01*
Y10725673D01*
X9500148Y10734866D01*
X9526677Y10755223D01*
X9547034Y10781752D01*
X9559831Y10812646D01*
X9564196Y10845800D01*
X9559831Y10878954D01*
X9547034Y10909848D01*
X9526677Y10936377D01*
X9500148Y10956734D01*
X9477955Y10965927D01*
Y10979673D01*
X9500148Y10988866D01*
X9526677Y11009223D01*
X9547034Y11035752D01*
X9559831Y11066646D01*
X9564196Y11099800D01*
X9559831Y11132954D01*
X9547034Y11163848D01*
X9526677Y11190377D01*
X9500148Y11210734D01*
X9477955Y11219927D01*
Y11233673D01*
X9500148Y11242866D01*
X9526677Y11263223D01*
X9547034Y11289752D01*
X9559831Y11320646D01*
X9564196Y11353800D01*
X9559831Y11386954D01*
X9547034Y11417848D01*
X9526677Y11444377D01*
X9500148Y11464734D01*
X9469254Y11477531D01*
X9436100Y11481896D01*
X9131300D01*
X9098146Y11477531D01*
X9067252Y11464734D01*
X9040723Y11444377D01*
X9020366Y11417848D01*
X9007569Y11386954D01*
X9003204Y11353800D01*
X9007569Y11320646D01*
X9020366Y11289752D01*
X9040723Y11263223D01*
X9067252Y11242866D01*
X9089445Y11233673D01*
Y11219927D01*
X9067252Y11210734D01*
X9040723Y11190377D01*
X9020366Y11163848D01*
X9015291Y11151595D01*
X8826500D01*
X8806679Y11147653D01*
X8789875Y11136425D01*
X5426846Y7773395D01*
X5322486D01*
X5318738Y7782446D01*
X5299399Y7807649D01*
X5274196Y7826988D01*
X5244846Y7839145D01*
X5221675Y7842195D01*
Y7855005D01*
X5244846Y7858055D01*
X5274196Y7870212D01*
X5299399Y7889551D01*
X5318738Y7914754D01*
X5330895Y7944104D01*
X5333369Y7962900D01*
X5054600D01*
X4775831D01*
X4778305Y7944104D01*
X4790462Y7914754D01*
X4809801Y7889551D01*
X4835004Y7870212D01*
X4864354Y7858055D01*
X4887525Y7855005D01*
Y7842195D01*
X4864354Y7839145D01*
X4835004Y7826988D01*
X4809801Y7807649D01*
X4790462Y7782446D01*
X4778305Y7753096D01*
X4774159Y7721600D01*
X4778305Y7690104D01*
X4790462Y7660754D01*
X4809801Y7635551D01*
X4835004Y7616212D01*
X4864354Y7604055D01*
X4887525Y7601005D01*
Y7588195D01*
X4864354Y7585145D01*
X4835004Y7572988D01*
X4809801Y7553649D01*
X4790462Y7528446D01*
X4778305Y7499096D01*
X4774159Y7467600D01*
X4778305Y7436104D01*
X4790462Y7406754D01*
X4809801Y7381551D01*
X4835004Y7362212D01*
X4864354Y7350055D01*
X4887525Y7347005D01*
Y7334195D01*
X4864354Y7331145D01*
X4835004Y7318988D01*
X4809801Y7299649D01*
X4790462Y7274446D01*
X4778305Y7245096D01*
X4774159Y7213600D01*
X4778305Y7182104D01*
X4790462Y7152754D01*
X4809801Y7127551D01*
X4835004Y7108212D01*
X4864354Y7096055D01*
X4887525Y7093005D01*
Y7080195D01*
X4864354Y7077145D01*
X4835004Y7064988D01*
X4809801Y7045649D01*
X4790462Y7020446D01*
X4778305Y6991096D01*
X4774159Y6959600D01*
X4778305Y6928104D01*
X4790462Y6898754D01*
X4809801Y6873551D01*
X4835004Y6854212D01*
X4864354Y6842055D01*
X4887525Y6839005D01*
Y6826195D01*
X4864354Y6823145D01*
X4835004Y6810988D01*
X4809801Y6791649D01*
X4790462Y6766446D01*
X4778305Y6737096D01*
X4774159Y6705600D01*
X4778305Y6674104D01*
X4790462Y6644754D01*
X4809801Y6619551D01*
X4835004Y6600212D01*
X4864354Y6588055D01*
X4887525Y6585005D01*
Y6572195D01*
X4864354Y6569145D01*
X4835004Y6556988D01*
X4809801Y6537649D01*
X4790462Y6512446D01*
X4778305Y6483096D01*
X4774159Y6451600D01*
X4778305Y6420104D01*
X4790462Y6390754D01*
X4809801Y6365551D01*
X4835004Y6346212D01*
X4864354Y6334055D01*
X4895850Y6329909D01*
X5213350D01*
X5244846Y6334055D01*
X5274196Y6346212D01*
X5299399Y6365551D01*
X5318738Y6390754D01*
X5330895Y6420104D01*
X5335041Y6451600D01*
X5330895Y6483096D01*
X5318738Y6512446D01*
X5299399Y6537649D01*
X5274196Y6556988D01*
X5244846Y6569145D01*
X5221675Y6572195D01*
Y6585005D01*
X5244846Y6588055D01*
X5274196Y6600212D01*
X5299399Y6619551D01*
X5318738Y6644754D01*
X5330895Y6674104D01*
X5335041Y6705600D01*
X5330895Y6737096D01*
X5318738Y6766446D01*
X5299399Y6791649D01*
X5274196Y6810988D01*
X5244846Y6823145D01*
X5221675Y6826195D01*
Y6839005D01*
X5244846Y6842055D01*
X5274196Y6854212D01*
X5299399Y6873551D01*
X5318738Y6898754D01*
X5330895Y6928104D01*
X5335041Y6959600D01*
X5330895Y6991096D01*
X5318738Y7020446D01*
X5299399Y7045649D01*
X5274196Y7064988D01*
X5244846Y7077145D01*
X5221675Y7080195D01*
Y7093005D01*
X5244846Y7096055D01*
X5274196Y7108212D01*
X5299399Y7127551D01*
X5318738Y7152754D01*
X5330895Y7182104D01*
X5335041Y7213600D01*
X5330895Y7245096D01*
X5318738Y7274446D01*
X5299399Y7299649D01*
X5274196Y7318988D01*
X5244846Y7331145D01*
X5221675Y7334195D01*
Y7347005D01*
X5244846Y7350055D01*
X5274196Y7362212D01*
X5299399Y7381551D01*
X5318738Y7406754D01*
X5322486Y7415805D01*
X5791200D01*
X5811021Y7419747D01*
X5827825Y7430975D01*
X8991938Y10595089D01*
X9003600Y10588790D01*
X9007569Y10558646D01*
X9020366Y10527752D01*
X9040723Y10501223D01*
X9067252Y10480866D01*
X9089445Y10471673D01*
Y10457927D01*
X9067252Y10448734D01*
X9040723Y10428377D01*
X9020366Y10401848D01*
X9007569Y10370954D01*
X9003204Y10337800D01*
X9007569Y10304646D01*
X9020366Y10273752D01*
X9040723Y10247223D01*
X9067252Y10226866D01*
X9089445Y10217673D01*
Y10203927D01*
X9067252Y10194734D01*
X9040723Y10174377D01*
X9020366Y10147848D01*
X9015291Y10135595D01*
X8864601D01*
X8864600Y10135595D01*
X8844779Y10131653D01*
X8827975Y10120425D01*
X5474967Y6767416D01*
X5463739Y6750613D01*
X5459797Y6730792D01*
Y5095608D01*
X5330477Y4966288D01*
X5306820Y4979946D01*
X5274520Y4988601D01*
X5241080D01*
X5211875Y4980775D01*
X4725395Y5467255D01*
Y7721600D01*
X4721453Y7741421D01*
X4710225Y7758225D01*
X4316525Y8151925D01*
X4299721Y8163153D01*
X4279900Y8167095D01*
X3953546D01*
X3951481Y8173903D01*
X3937329Y8200379D01*
X3918285Y8223585D01*
X3895079Y8242629D01*
X3868603Y8256781D01*
X3839876Y8265495D01*
X3810000Y8268437D01*
X3556000D01*
X3526124Y8265495D01*
X3497397Y8256781D01*
X3470921Y8242629D01*
X3447715Y8223585D01*
X3428671Y8200379D01*
X3414519Y8173903D01*
X3405805Y8145176D01*
X3403600Y8122786D01*
X3390900Y8123410D01*
Y8125332D01*
X3385707Y8144712D01*
X3375675Y8162088D01*
X3361488Y8176275D01*
X3344112Y8186307D01*
X3324732Y8191500D01*
X3304668D01*
X3285288Y8186307D01*
X3267912Y8176275D01*
X3256342Y8164706D01*
X3242664Y8166046D01*
X3240281Y8173903D01*
X3226129Y8200379D01*
X3207085Y8223585D01*
X3183879Y8242629D01*
X3157403Y8256781D01*
X3128676Y8265495D01*
X3098800Y8268437D01*
X2844800D01*
X2814924Y8265495D01*
X2786197Y8256781D01*
X2759721Y8242629D01*
X2736515Y8223585D01*
X2717471Y8200379D01*
X2703319Y8173903D01*
X2694605Y8145176D01*
X2691663Y8115300D01*
X2694605Y8085424D01*
X2703319Y8056697D01*
X2717471Y8030221D01*
X2736515Y8007015D01*
X2759721Y7987971D01*
X2786197Y7973819D01*
X2814924Y7965105D01*
X2844800Y7962163D01*
X3098800D01*
X3128676Y7965105D01*
X3157403Y7973819D01*
X3183879Y7987971D01*
X3207085Y8007015D01*
X3226129Y8030221D01*
X3240281Y8056697D01*
X3242664Y8064554D01*
X3256342Y8065894D01*
X3267912Y8054325D01*
X3285288Y8044293D01*
X3304668Y8039100D01*
X3324732D01*
X3344112Y8044293D01*
X3361488Y8054325D01*
X3375675Y8068512D01*
X3385707Y8085888D01*
X3390900Y8105268D01*
Y8107190D01*
X3403600Y8107814D01*
X3405805Y8085424D01*
X3414519Y8056697D01*
X3428671Y8030221D01*
X3447715Y8007015D01*
X3470921Y7987971D01*
X3497397Y7973819D01*
X3526124Y7965105D01*
X3556000Y7962163D01*
X3810000D01*
X3839876Y7965105D01*
X3868603Y7973819D01*
X3895079Y7987971D01*
X3918285Y8007015D01*
X3937329Y8030221D01*
X3951481Y8056697D01*
X3953546Y8063505D01*
X4258446D01*
X4621805Y7700146D01*
Y5445801D01*
X4625747Y5425979D01*
X4636975Y5409176D01*
X5138626Y4907525D01*
X5130800Y4878320D01*
Y4844881D01*
X5139455Y4812580D01*
X5156175Y4783621D01*
X5179820Y4759975D01*
X5208780Y4743256D01*
X5241080Y4734601D01*
X5274520D01*
X5306820Y4743256D01*
X5335780Y4759975D01*
X5359425Y4783621D01*
X5376145Y4812580D01*
X5384800Y4844881D01*
Y4874112D01*
X5548216Y5037528D01*
X5559444Y5054332D01*
X5563387Y5074153D01*
X5563387Y5074154D01*
Y6709337D01*
X8886054Y10032005D01*
X9015291D01*
X9020366Y10019752D01*
X9040723Y9993223D01*
X9067252Y9972866D01*
X9089445Y9963673D01*
Y9949927D01*
X9067252Y9940734D01*
X9040723Y9920377D01*
X9020366Y9893848D01*
X9015291Y9881595D01*
X8864600D01*
X8844779Y9877653D01*
X8827975Y9866425D01*
X8281875Y9320325D01*
X8270647Y9303521D01*
X8266705Y9283700D01*
Y8384500D01*
X8191500D01*
Y8309295D01*
X8153401D01*
X8133580Y8305353D01*
X8116776Y8294125D01*
X5849825Y6027174D01*
X5820620Y6034999D01*
X5787180D01*
X5754880Y6026344D01*
X5725920Y6009625D01*
X5702275Y5985979D01*
X5685555Y5957020D01*
X5676900Y5924719D01*
Y5891280D01*
X5685555Y5858979D01*
X5702275Y5830020D01*
X5725920Y5806374D01*
X5754880Y5789654D01*
X5787180Y5780999D01*
X5820620D01*
X5852920Y5789654D01*
X5881880Y5806374D01*
X5905525Y5830020D01*
X5922245Y5858979D01*
X5930900Y5891280D01*
Y5924719D01*
X5923074Y5953924D01*
X8174855Y8205705D01*
X8191500D01*
Y8130500D01*
X8445500D01*
Y8384500D01*
X8370295D01*
Y9262246D01*
X8886054Y9778005D01*
X9015291D01*
X9020366Y9765752D01*
X9040723Y9739223D01*
X9067252Y9718866D01*
X9089445Y9709673D01*
Y9695927D01*
X9067252Y9686734D01*
X9040723Y9666377D01*
X9020366Y9639848D01*
X9015291Y9627595D01*
X8942686D01*
X8942685Y9627595D01*
X8922864Y9623653D01*
X8906060Y9612425D01*
X8561275Y9267640D01*
X8550047Y9250836D01*
X8546105Y9231015D01*
Y7120754D01*
X5658589Y4233239D01*
X5117298D01*
X4420595Y4929941D01*
Y7010400D01*
X4416653Y7030221D01*
X4405425Y7047025D01*
X4049825Y7402625D01*
X4033021Y7413853D01*
X4013200Y7417795D01*
X3961788D01*
X3960195Y7433976D01*
X3951481Y7462703D01*
X3937329Y7489179D01*
X3918285Y7512385D01*
X3895079Y7531429D01*
X3868603Y7545581D01*
X3839876Y7554295D01*
X3810000Y7557237D01*
X3556000D01*
X3526124Y7554295D01*
X3497397Y7545581D01*
X3470921Y7531429D01*
X3447715Y7512385D01*
X3428671Y7489179D01*
X3414519Y7462703D01*
X3405805Y7433976D01*
X3403600Y7411586D01*
X3390900Y7412210D01*
Y7414132D01*
X3385707Y7433512D01*
X3375675Y7450888D01*
X3361488Y7465075D01*
X3344112Y7475107D01*
X3324732Y7480300D01*
X3304668D01*
X3285288Y7475107D01*
X3267912Y7465075D01*
X3256342Y7453506D01*
X3242664Y7454846D01*
X3240281Y7462703D01*
X3226129Y7489179D01*
X3207085Y7512385D01*
X3183879Y7531429D01*
X3157403Y7545581D01*
X3128676Y7554295D01*
X3098800Y7557237D01*
X2844800D01*
X2814924Y7554295D01*
X2786197Y7545581D01*
X2759721Y7531429D01*
X2736515Y7512385D01*
X2717471Y7489179D01*
X2703319Y7462703D01*
X2694605Y7433976D01*
X2691663Y7404100D01*
X2694605Y7374224D01*
X2703319Y7345497D01*
X2717471Y7319021D01*
X2736515Y7295815D01*
X2759721Y7276771D01*
X2786197Y7262619D01*
X2814924Y7253905D01*
X2844800Y7250963D01*
X3098800D01*
X3128676Y7253905D01*
X3157403Y7262619D01*
X3183879Y7276771D01*
X3207085Y7295815D01*
X3226129Y7319021D01*
X3240281Y7345497D01*
X3242664Y7353354D01*
X3256342Y7354694D01*
X3267912Y7343125D01*
X3285288Y7333093D01*
X3304668Y7327900D01*
X3324732D01*
X3344112Y7333093D01*
X3361488Y7343125D01*
X3375675Y7357312D01*
X3385707Y7374688D01*
X3390900Y7394068D01*
Y7395990D01*
X3403600Y7396614D01*
X3405805Y7374224D01*
X3414519Y7345497D01*
X3428671Y7319021D01*
X3447715Y7295815D01*
X3470921Y7276771D01*
X3497397Y7262619D01*
X3526124Y7253905D01*
X3556000Y7250963D01*
X3810000D01*
X3839876Y7253905D01*
X3868603Y7262619D01*
X3895079Y7276771D01*
X3918285Y7295815D01*
X3933376Y7314205D01*
X3991746D01*
X4317005Y6988946D01*
Y4908487D01*
X4320947Y4888666D01*
X4332175Y4871862D01*
X5059219Y4144819D01*
X5076022Y4133591D01*
X5095844Y4129648D01*
X5680044D01*
X5699865Y4133591D01*
X5716668Y4144819D01*
X8634525Y7062675D01*
X8645753Y7079479D01*
X8649695Y7099300D01*
X8649695Y7099301D01*
Y9209560D01*
X8964140Y9524005D01*
X9015291D01*
X9020366Y9511752D01*
X9040723Y9485223D01*
X9067252Y9464866D01*
X9089445Y9455673D01*
Y9441927D01*
X9067252Y9432734D01*
X9040723Y9412377D01*
X9020366Y9385848D01*
X9013189Y9368522D01*
X8986527D01*
X8966705Y9364579D01*
X8949902Y9353351D01*
X8789875Y9193325D01*
X8778647Y9176521D01*
X8774705Y9156700D01*
Y6968354D01*
X5776259Y3969908D01*
X5056841D01*
X4230095Y4796654D01*
Y6680199D01*
X4230095Y6680200D01*
X4226153Y6700021D01*
X4214925Y6716825D01*
X3948127Y6983623D01*
X3951481Y6989897D01*
X3960195Y7018624D01*
X3963137Y7048500D01*
X3960195Y7078376D01*
X3951481Y7107103D01*
X3937329Y7133579D01*
X3918285Y7156785D01*
X3895079Y7175829D01*
X3868603Y7189981D01*
X3839876Y7198695D01*
X3810000Y7201637D01*
X3556000D01*
X3526124Y7198695D01*
X3497397Y7189981D01*
X3470921Y7175829D01*
X3447715Y7156785D01*
X3428671Y7133579D01*
X3414519Y7107103D01*
X3405805Y7078376D01*
X3403600Y7055986D01*
X3390900Y7056610D01*
Y7058532D01*
X3385707Y7077912D01*
X3375675Y7095288D01*
X3361488Y7109475D01*
X3344112Y7119507D01*
X3324732Y7124700D01*
X3304668D01*
X3285288Y7119507D01*
X3267912Y7109475D01*
X3256342Y7097906D01*
X3242664Y7099246D01*
X3240281Y7107103D01*
X3226129Y7133579D01*
X3207085Y7156785D01*
X3183879Y7175829D01*
X3157403Y7189981D01*
X3128676Y7198695D01*
X3098800Y7201637D01*
X2844800D01*
X2814924Y7198695D01*
X2786197Y7189981D01*
X2759721Y7175829D01*
X2736515Y7156785D01*
X2717471Y7133579D01*
X2703319Y7107103D01*
X2694605Y7078376D01*
X2691663Y7048500D01*
X2694605Y7018624D01*
X2703319Y6989897D01*
X2717471Y6963421D01*
X2736515Y6940215D01*
X2759721Y6921171D01*
X2786197Y6907019D01*
X2814924Y6898305D01*
X2844800Y6895363D01*
X3098800D01*
X3128676Y6898305D01*
X3157403Y6907019D01*
X3183879Y6921171D01*
X3207085Y6940215D01*
X3226129Y6963421D01*
X3240281Y6989897D01*
X3242664Y6997754D01*
X3256342Y6999094D01*
X3267912Y6987525D01*
X3285288Y6977493D01*
X3304668Y6972300D01*
X3324732D01*
X3344112Y6977493D01*
X3361488Y6987525D01*
X3375675Y7001712D01*
X3385707Y7019088D01*
X3390900Y7038468D01*
Y7040390D01*
X3403600Y7041014D01*
X3405805Y7018624D01*
X3414519Y6989897D01*
X3428671Y6963421D01*
X3447715Y6940215D01*
X3470921Y6921171D01*
X3497397Y6907019D01*
X3526124Y6898305D01*
X3556000Y6895363D01*
X3810000D01*
X3839876Y6898305D01*
X3868603Y6907019D01*
X3874877Y6910373D01*
X4126505Y6658746D01*
Y4775200D01*
X4130447Y4755379D01*
X4141675Y4738575D01*
X4998761Y3881489D01*
X4998762Y3881489D01*
X5015565Y3870261D01*
X5035387Y3866318D01*
X5797713D01*
X5817534Y3870261D01*
X5834338Y3881489D01*
X8863125Y6910275D01*
X8874353Y6927079D01*
X8878295Y6946900D01*
Y9135246D01*
X9005659Y9262609D01*
X9019037Y9260961D01*
X9020366Y9257752D01*
X9040723Y9231223D01*
X9067252Y9210866D01*
X9089445Y9201673D01*
Y9187927D01*
X9067252Y9178734D01*
X9040723Y9158377D01*
X9020366Y9131848D01*
X9007569Y9100954D01*
X9003204Y9067800D01*
X9007569Y9034646D01*
X9020366Y9003752D01*
X9040723Y8977223D01*
X9067252Y8956866D01*
X9089445Y8947673D01*
Y8933927D01*
X9067252Y8924734D01*
X9040723Y8904377D01*
X9020366Y8877848D01*
X9007569Y8846954D01*
X9003204Y8813800D01*
X9007569Y8780646D01*
X9020366Y8749752D01*
X9040723Y8723223D01*
X9067252Y8702866D01*
X9089445Y8693673D01*
Y8679927D01*
X9067252Y8670734D01*
X9040723Y8650377D01*
X9020366Y8623848D01*
X9007569Y8592954D01*
X9003204Y8559800D01*
X9007569Y8526646D01*
X9020366Y8495752D01*
X9040723Y8469223D01*
X9067252Y8448866D01*
X9089445Y8439673D01*
Y8425927D01*
X9067252Y8416734D01*
X9040723Y8396377D01*
X9020366Y8369848D01*
X9007569Y8338954D01*
X9003204Y8305800D01*
X9007569Y8272646D01*
X9020366Y8241752D01*
X9040723Y8215223D01*
X9067252Y8194866D01*
X9089445Y8185673D01*
Y8171927D01*
X9067252Y8162734D01*
X9040723Y8142377D01*
X9020366Y8115848D01*
X9007569Y8084954D01*
X9003204Y8051800D01*
X9007569Y8018646D01*
X9020366Y7987752D01*
X9040723Y7961223D01*
X9067252Y7940866D01*
X9089445Y7931673D01*
Y7917927D01*
X9067252Y7908734D01*
X9040723Y7888377D01*
X9020366Y7861848D01*
X9007569Y7830954D01*
X9003204Y7797800D01*
X9007569Y7764646D01*
X9020366Y7733752D01*
X9040723Y7707223D01*
X9067252Y7686866D01*
X9089445Y7677673D01*
Y7663927D01*
X9067252Y7654734D01*
X9040723Y7634377D01*
X9020366Y7607848D01*
X9007569Y7576954D01*
X9003204Y7543800D01*
X9007569Y7510646D01*
X9020366Y7479752D01*
X9040723Y7453223D01*
X9067252Y7432866D01*
X9089445Y7423673D01*
Y7409927D01*
X9067252Y7400734D01*
X9040723Y7380377D01*
X9020366Y7353848D01*
X9007569Y7322954D01*
X9003204Y7289800D01*
X9007569Y7256646D01*
X9020366Y7225752D01*
X9040723Y7199223D01*
X9067252Y7178866D01*
X9089445Y7169673D01*
Y7155927D01*
X9067252Y7146734D01*
X9040723Y7126377D01*
X9020366Y7099848D01*
X9007569Y7068954D01*
X9003204Y7035800D01*
X9007569Y7002646D01*
X9020366Y6971752D01*
X9040723Y6945223D01*
X9067252Y6924866D01*
X9089445Y6915673D01*
Y6901927D01*
X9067252Y6892734D01*
X9040723Y6872377D01*
X9020366Y6845848D01*
X9007569Y6814954D01*
X9003204Y6781800D01*
X9007569Y6748646D01*
X9020366Y6717752D01*
X9040723Y6691223D01*
X9067252Y6670866D01*
X9089445Y6661673D01*
Y6647927D01*
X9067252Y6638734D01*
X9040723Y6618377D01*
X9020366Y6591848D01*
X9007569Y6560954D01*
X9003204Y6527800D01*
X9007569Y6494646D01*
X9020366Y6463752D01*
X9040723Y6437223D01*
X9067252Y6416866D01*
X9089445Y6407673D01*
Y6393927D01*
X9067252Y6384734D01*
X9040723Y6364377D01*
X9020366Y6337848D01*
X9007569Y6306954D01*
X9003204Y6273800D01*
X9007569Y6240646D01*
X9020366Y6209752D01*
X9040723Y6183223D01*
X9067252Y6162866D01*
X9089445Y6153673D01*
Y6139927D01*
X9067252Y6130734D01*
X9040723Y6110377D01*
X9020366Y6083848D01*
X9007569Y6052954D01*
X9003204Y6019800D01*
X9007569Y5986646D01*
X9020366Y5955752D01*
X9040723Y5929223D01*
X9067252Y5908866D01*
X9089445Y5899673D01*
Y5885927D01*
X9067252Y5876734D01*
X9040723Y5856377D01*
X9020366Y5829848D01*
X9007569Y5798954D01*
X9004876Y5778500D01*
X9283700D01*
X9562524D01*
X9559831Y5798954D01*
X9555656Y5809034D01*
X9566422Y5816228D01*
X9676405Y5706246D01*
Y5215754D01*
X9478146Y5017495D01*
X8521700D01*
X8501879Y5013553D01*
X8485075Y5002325D01*
X8195446Y4712695D01*
X8052986D01*
X8049238Y4721746D01*
X8029899Y4746949D01*
X8004696Y4766288D01*
X7975346Y4778445D01*
X7943850Y4782591D01*
X7626350D01*
X7594854Y4778445D01*
X7565504Y4766288D01*
X7540301Y4746949D01*
X7520962Y4721746D01*
X7508805Y4692396D01*
X7504659Y4660900D01*
X7508805Y4629404D01*
X7520962Y4600054D01*
X7540301Y4574851D01*
X7565504Y4555512D01*
X7594854Y4543355D01*
X7618025Y4540305D01*
Y4527495D01*
X7594854Y4524445D01*
X7565504Y4512288D01*
X7540301Y4492949D01*
X7520962Y4467746D01*
X7508805Y4438396D01*
X7504659Y4406900D01*
X7508805Y4375404D01*
X7520962Y4346054D01*
X7540301Y4320851D01*
X7565504Y4301512D01*
X7594854Y4289355D01*
X7618025Y4286305D01*
Y4273495D01*
X7594854Y4270445D01*
X7565504Y4258288D01*
X7540301Y4238949D01*
X7520962Y4213746D01*
X7508805Y4184396D01*
X7506331Y4165600D01*
X7785100D01*
X8063869D01*
X8061395Y4184396D01*
X8049238Y4213746D01*
X8029899Y4238949D01*
X8004696Y4258288D01*
X7975346Y4270445D01*
X7952175Y4273495D01*
Y4286305D01*
X7975346Y4289355D01*
X8004696Y4301512D01*
X8029899Y4320851D01*
X8049238Y4346054D01*
X8061395Y4375404D01*
X8065541Y4406900D01*
X8061395Y4438396D01*
X8049238Y4467746D01*
X8029899Y4492949D01*
X8004696Y4512288D01*
X7975346Y4524445D01*
X7952175Y4527495D01*
Y4540305D01*
X7975346Y4543355D01*
X8004696Y4555512D01*
X8029899Y4574851D01*
X8049238Y4600054D01*
X8052986Y4609105D01*
X8424046D01*
X8662875Y4370276D01*
X8662875Y4370275D01*
X8679679Y4359047D01*
X8699500Y4355105D01*
X8699501Y4355105D01*
X9282514D01*
X9286262Y4346054D01*
X9305601Y4320851D01*
X9330804Y4301512D01*
X9360154Y4289355D01*
X9383325Y4286305D01*
Y4273495D01*
X9360154Y4270445D01*
X9330804Y4258288D01*
X9305601Y4238949D01*
X9286262Y4213746D01*
X9274105Y4184396D01*
X9269959Y4152900D01*
X9274105Y4121404D01*
X9286262Y4092054D01*
X9305601Y4066851D01*
X9330804Y4047512D01*
X9360154Y4035355D01*
X9383325Y4032305D01*
Y4019495D01*
X9360154Y4016445D01*
X9330804Y4004288D01*
X9305601Y3984949D01*
X9286262Y3959746D01*
X9274105Y3930396D01*
X9269959Y3898900D01*
X9274105Y3867404D01*
X9286262Y3838054D01*
X9305601Y3812851D01*
X9330804Y3793512D01*
X9360154Y3781355D01*
X9383325Y3778305D01*
Y3765495D01*
X9360154Y3762445D01*
X9330804Y3750288D01*
X9305601Y3730949D01*
X9286262Y3705746D01*
X9274105Y3676396D01*
X9269959Y3644900D01*
X9274105Y3613404D01*
X9286262Y3584054D01*
X9305601Y3558851D01*
X9330804Y3539512D01*
X9360154Y3527355D01*
X9383325Y3524305D01*
Y3511495D01*
X9360154Y3508445D01*
X9330804Y3496288D01*
X9305601Y3476949D01*
X9286262Y3451746D01*
X9274105Y3422396D01*
X9269959Y3390900D01*
X9274105Y3359404D01*
X9286262Y3330054D01*
X9305601Y3304851D01*
X9330804Y3285512D01*
X9360154Y3273355D01*
X9391650Y3269209D01*
X9709150D01*
X9740646Y3273355D01*
X9769996Y3285512D01*
X9795199Y3304851D01*
X9814538Y3330054D01*
X9826695Y3359404D01*
X9830841Y3390900D01*
X9826695Y3422396D01*
X9814538Y3451746D01*
X9795199Y3476949D01*
X9769996Y3496288D01*
X9740646Y3508445D01*
X9717475Y3511495D01*
Y3524305D01*
X9740646Y3527355D01*
X9769996Y3539512D01*
X9795199Y3558851D01*
X9814538Y3584054D01*
X9826695Y3613404D01*
X9830841Y3644900D01*
X9826695Y3676396D01*
X9814538Y3705746D01*
X9795199Y3730949D01*
X9769996Y3750288D01*
X9740646Y3762445D01*
X9717475Y3765495D01*
Y3778305D01*
X9740646Y3781355D01*
X9769996Y3793512D01*
X9795199Y3812851D01*
X9814538Y3838054D01*
X9826695Y3867404D01*
X9830841Y3898900D01*
X9826695Y3930396D01*
X9814538Y3959746D01*
X9795199Y3984949D01*
X9769996Y4004288D01*
X9740646Y4016445D01*
X9717475Y4019495D01*
Y4032305D01*
X9740646Y4035355D01*
X9769996Y4047512D01*
X9795199Y4066851D01*
X9814538Y4092054D01*
X9826695Y4121404D01*
X9830841Y4152900D01*
X9826695Y4184396D01*
X9814538Y4213746D01*
X9795199Y4238949D01*
X9769996Y4258288D01*
X9740646Y4270445D01*
X9717475Y4273495D01*
Y4286305D01*
X9740646Y4289355D01*
X9769996Y4301512D01*
X9795199Y4320851D01*
X9814538Y4346054D01*
X9826695Y4375404D01*
X9830841Y4406900D01*
X9826695Y4438396D01*
X9814538Y4467746D01*
X9795199Y4492949D01*
X9769996Y4512288D01*
X9740646Y4524445D01*
X9717475Y4527495D01*
Y4540305D01*
X9740646Y4543355D01*
X9769996Y4555512D01*
X9795199Y4574851D01*
X9814538Y4600054D01*
X9826695Y4629404D01*
X9830841Y4660900D01*
X9826695Y4692396D01*
X9814538Y4721746D01*
X9795199Y4746949D01*
X9769996Y4766288D01*
X9740646Y4778445D01*
X9709150Y4782591D01*
X9391650D01*
X9360154Y4778445D01*
X9330804Y4766288D01*
X9305601Y4746949D01*
X9286262Y4721746D01*
X9274105Y4692396D01*
X9269959Y4660900D01*
X9274105Y4629404D01*
X9286262Y4600054D01*
X9305601Y4574851D01*
X9330804Y4555512D01*
X9360154Y4543355D01*
X9383325Y4540305D01*
Y4527495D01*
X9360154Y4524445D01*
X9330804Y4512288D01*
X9305601Y4492949D01*
X9286262Y4467746D01*
X9282514Y4458695D01*
X8720954D01*
X8482125Y4697525D01*
X8465321Y4708753D01*
X8445500Y4712695D01*
X8358538D01*
X8353678Y4724428D01*
X8543154Y4913905D01*
X9499600D01*
X9519421Y4917847D01*
X9536225Y4929075D01*
X9764825Y5157675D01*
X9776053Y5174479D01*
X9779995Y5194300D01*
Y5727700D01*
X9776053Y5747521D01*
X9764825Y5764325D01*
X9718928Y5810222D01*
X9723788Y5821955D01*
X9786345D01*
X9806166Y5825897D01*
X9822970Y5837125D01*
X9942624Y5956780D01*
X9942625Y5956780D01*
X9953853Y5973584D01*
X9957795Y5993405D01*
X9957795Y5993406D01*
Y11320646D01*
X9953853Y11340468D01*
X9951777Y11343573D01*
X9953853Y11346679D01*
X9957795Y11366500D01*
X9953853Y11386321D01*
X9942625Y11403125D01*
X9726725Y11619025D01*
X9709921Y11630253D01*
X9690100Y11634195D01*
D02*
G37*
G36*
X5384800Y5755599D02*
X5270500D01*
Y5641299D01*
X5384800D01*
Y5755599D01*
D02*
G37*
G36*
X5245100D02*
X5130800D01*
Y5641299D01*
X5245100D01*
Y5755599D01*
D02*
G37*
G36*
X5384800Y5615899D02*
X5270500D01*
Y5501599D01*
X5384800D01*
Y5615899D01*
D02*
G37*
G36*
X5245100D02*
X5130800D01*
Y5501599D01*
X5245100D01*
Y5615899D01*
D02*
G37*
G36*
X5930900Y5268001D02*
X5816600D01*
Y5153701D01*
X5930900D01*
Y5268001D01*
D02*
G37*
G36*
X5791200D02*
X5676900D01*
Y5153701D01*
X5791200D01*
Y5268001D01*
D02*
G37*
G36*
X5930900Y5128301D02*
X5816600D01*
Y5014001D01*
X5930900D01*
Y5128301D01*
D02*
G37*
G36*
X5791200D02*
X5676900D01*
Y5014001D01*
X5791200D01*
Y5128301D01*
D02*
G37*
G36*
X11706200Y3527400D02*
X11696700D01*
Y3314700D01*
X11909400D01*
Y3324200D01*
X11900738Y3367747D01*
X11883747Y3408767D01*
X11859080Y3445684D01*
X11827684Y3477080D01*
X11790767Y3501747D01*
X11749747Y3518738D01*
X11706200Y3527400D01*
D02*
G37*
G36*
X11671300D02*
X11661800D01*
X11618253Y3518738D01*
X11577233Y3501747D01*
X11540316Y3477080D01*
X11508920Y3445684D01*
X11484253Y3408767D01*
X11467262Y3367747D01*
X11458600Y3324200D01*
Y3314700D01*
X11671300D01*
Y3527400D01*
D02*
G37*
G36*
X3324200D02*
X3314700D01*
Y3314700D01*
X3527400D01*
Y3324200D01*
X3518738Y3367747D01*
X3501747Y3408767D01*
X3477080Y3445684D01*
X3445684Y3477080D01*
X3408767Y3501747D01*
X3367747Y3518738D01*
X3324200Y3527400D01*
D02*
G37*
G36*
X3289300D02*
X3279800D01*
X3236253Y3518738D01*
X3195233Y3501747D01*
X3158316Y3477080D01*
X3126920Y3445684D01*
X3102253Y3408767D01*
X3085262Y3367747D01*
X3076600Y3324200D01*
Y3314700D01*
X3289300D01*
Y3527400D01*
D02*
G37*
G36*
X11909400Y3289300D02*
X11696700D01*
Y3076600D01*
X11706200D01*
X11749747Y3085262D01*
X11790767Y3102253D01*
X11827684Y3126920D01*
X11859080Y3158316D01*
X11883747Y3195233D01*
X11900738Y3236253D01*
X11909400Y3279800D01*
Y3289300D01*
D02*
G37*
G36*
X11671300D02*
X11458600D01*
Y3279800D01*
X11467262Y3236253D01*
X11484253Y3195233D01*
X11508920Y3158316D01*
X11540316Y3126920D01*
X11577233Y3102253D01*
X11618253Y3085262D01*
X11661800Y3076600D01*
X11671300D01*
Y3289300D01*
D02*
G37*
G36*
X3527400D02*
X3314700D01*
Y3076600D01*
X3324200D01*
X3367747Y3085262D01*
X3408767Y3102253D01*
X3445684Y3126920D01*
X3477080Y3158316D01*
X3501747Y3195233D01*
X3518738Y3236253D01*
X3527400Y3279800D01*
Y3289300D01*
D02*
G37*
G36*
X3289300D02*
X3076600D01*
Y3279800D01*
X3085262Y3236253D01*
X3102253Y3195233D01*
X3126920Y3158316D01*
X3158316Y3126920D01*
X3195233Y3102253D01*
X3236253Y3085262D01*
X3279800Y3076600D01*
X3289300D01*
Y3289300D01*
D02*
G37*
G36*
X9944100Y11977095D02*
X8051800D01*
X8031979Y11973153D01*
X8015175Y11961925D01*
X6544446Y10491195D01*
X6503586D01*
X6499838Y10500246D01*
X6480499Y10525449D01*
X6455296Y10544788D01*
X6425946Y10556945D01*
X6402775Y10559995D01*
Y10572805D01*
X6425946Y10575855D01*
X6455296Y10588012D01*
X6480499Y10607351D01*
X6499838Y10632554D01*
X6511995Y10661904D01*
X6516141Y10693400D01*
X6511995Y10724896D01*
X6499838Y10754246D01*
X6480499Y10779449D01*
X6455296Y10798788D01*
X6425946Y10810945D01*
X6402775Y10813995D01*
Y10826805D01*
X6425946Y10829855D01*
X6455296Y10842012D01*
X6480499Y10861351D01*
X6499838Y10886554D01*
X6511995Y10915904D01*
X6514469Y10934700D01*
X6235700D01*
X5956931D01*
X5959405Y10915904D01*
X5971562Y10886554D01*
X5990901Y10861351D01*
X6016104Y10842012D01*
X6045454Y10829855D01*
X6068625Y10826805D01*
Y10813995D01*
X6045454Y10810945D01*
X6016104Y10798788D01*
X5990901Y10779449D01*
X5971562Y10754246D01*
X5967814Y10745195D01*
X5842000D01*
X5822179Y10741253D01*
X5805375Y10730025D01*
X5716475Y10641125D01*
X5705247Y10624321D01*
X5701305Y10604500D01*
Y10248900D01*
X5705247Y10229079D01*
X5716475Y10212275D01*
X5830775Y10097975D01*
X5847579Y10086747D01*
X5867400Y10082805D01*
X6718300D01*
X6738121Y10086747D01*
X6754925Y10097975D01*
X8352654Y11695705D01*
X9833746D01*
X10119430Y11410021D01*
Y6249875D01*
X10123372Y6230054D01*
X10134600Y6213250D01*
X10528300Y5819551D01*
Y5638800D01*
X10596852D01*
X10599378Y5626100D01*
X10591252Y5622734D01*
X10564723Y5602377D01*
X10544366Y5575848D01*
X10531569Y5544954D01*
X10527204Y5511800D01*
X10531569Y5478646D01*
X10544366Y5447752D01*
X10564723Y5421223D01*
X10591252Y5400866D01*
X10622146Y5388069D01*
X10655300Y5383704D01*
X10960100D01*
X10993254Y5388069D01*
X11024148Y5400866D01*
X11050677Y5421223D01*
X11071034Y5447752D01*
X11083831Y5478646D01*
X11088196Y5511800D01*
X11083831Y5544954D01*
X11071034Y5575848D01*
X11050677Y5602377D01*
X11024148Y5622734D01*
X11016022Y5626100D01*
X11018548Y5638800D01*
X11087100D01*
Y5892800D01*
X11018548D01*
X11016022Y5905500D01*
X11024148Y5908866D01*
X11050677Y5929223D01*
X11071034Y5955752D01*
X11083831Y5986646D01*
X11088196Y6019800D01*
X11083831Y6052954D01*
X11071034Y6083848D01*
X11050677Y6110377D01*
X11024148Y6130734D01*
X11001955Y6139927D01*
Y6153673D01*
X11024148Y6162866D01*
X11050677Y6183223D01*
X11071034Y6209752D01*
X11083831Y6240646D01*
X11088196Y6273800D01*
X11083831Y6306954D01*
X11071034Y6337848D01*
X11050677Y6364377D01*
X11024148Y6384734D01*
X11001955Y6393927D01*
Y6407673D01*
X11024148Y6416866D01*
X11050677Y6437223D01*
X11071034Y6463752D01*
X11083831Y6494646D01*
X11088196Y6527800D01*
X11083831Y6560954D01*
X11071034Y6591848D01*
X11050677Y6618377D01*
X11024148Y6638734D01*
X11001955Y6647927D01*
Y6661673D01*
X11024148Y6670866D01*
X11050677Y6691223D01*
X11071034Y6717752D01*
X11083831Y6748646D01*
X11088196Y6781800D01*
X11083831Y6814954D01*
X11071034Y6845848D01*
X11050677Y6872377D01*
X11024148Y6892734D01*
X11001955Y6901927D01*
Y6915673D01*
X11024148Y6924866D01*
X11050677Y6945223D01*
X11071034Y6971752D01*
X11083831Y7002646D01*
X11088196Y7035800D01*
X11083831Y7068954D01*
X11071034Y7099848D01*
X11050677Y7126377D01*
X11024148Y7146734D01*
X11001955Y7155927D01*
Y7169673D01*
X11024148Y7178866D01*
X11050677Y7199223D01*
X11071034Y7225752D01*
X11083831Y7256646D01*
X11088196Y7289800D01*
X11083831Y7322954D01*
X11071034Y7353848D01*
X11050677Y7380377D01*
X11024148Y7400734D01*
X11001955Y7409927D01*
Y7423673D01*
X11024148Y7432866D01*
X11050677Y7453223D01*
X11071034Y7479752D01*
X11076109Y7492005D01*
X11129146D01*
X11251205Y7369946D01*
Y5266554D01*
X10059875Y4075225D01*
X10048647Y4058421D01*
X10044705Y4038600D01*
Y3298054D01*
X9757546Y3010895D01*
X9373734D01*
X8703105Y3681525D01*
X8686301Y3692753D01*
X8666480Y3696695D01*
X8052986D01*
X8049238Y3705746D01*
X8029899Y3730949D01*
X8004696Y3750288D01*
X7975346Y3762445D01*
X7952175Y3765495D01*
Y3778305D01*
X7975346Y3781355D01*
X8004696Y3793512D01*
X8029899Y3812851D01*
X8049238Y3838054D01*
X8061395Y3867404D01*
X8065541Y3898900D01*
X8061395Y3930396D01*
X8049238Y3959746D01*
X8029899Y3984949D01*
X8004696Y4004288D01*
X7975346Y4016445D01*
X7952175Y4019495D01*
Y4032305D01*
X7975346Y4035355D01*
X8004696Y4047512D01*
X8029899Y4066851D01*
X8049238Y4092054D01*
X8061395Y4121404D01*
X8063869Y4140200D01*
X7785100D01*
X7506331D01*
X7508805Y4121404D01*
X7520962Y4092054D01*
X7540301Y4066851D01*
X7565504Y4047512D01*
X7594854Y4035355D01*
X7618025Y4032305D01*
Y4019495D01*
X7594854Y4016445D01*
X7565504Y4004288D01*
X7540301Y3984949D01*
X7520962Y3959746D01*
X7508805Y3930396D01*
X7504659Y3898900D01*
X7508805Y3867404D01*
X7520962Y3838054D01*
X7540301Y3812851D01*
X7565504Y3793512D01*
X7594854Y3781355D01*
X7618025Y3778305D01*
Y3765495D01*
X7594854Y3762445D01*
X7565504Y3750288D01*
X7540301Y3730949D01*
X7520962Y3705746D01*
X7508805Y3676396D01*
X7504659Y3644900D01*
X7508805Y3613404D01*
X7520962Y3584054D01*
X7540301Y3558851D01*
X7565504Y3539512D01*
X7594854Y3527355D01*
X7618025Y3524305D01*
Y3511495D01*
X7594854Y3508445D01*
X7565504Y3496288D01*
X7540301Y3476949D01*
X7520962Y3451746D01*
X7508805Y3422396D01*
X7504659Y3390900D01*
X7508805Y3359404D01*
X7520962Y3330054D01*
X7540301Y3304851D01*
X7565504Y3285512D01*
X7594854Y3273355D01*
X7626350Y3269209D01*
X7943850D01*
X7975346Y3273355D01*
X8004696Y3285512D01*
X8029899Y3304851D01*
X8049238Y3330054D01*
X8061395Y3359404D01*
X8065541Y3390900D01*
X8061395Y3422396D01*
X8049238Y3451746D01*
X8029899Y3476949D01*
X8004696Y3496288D01*
X7975346Y3508445D01*
X7952175Y3511495D01*
Y3524305D01*
X7975346Y3527355D01*
X8004696Y3539512D01*
X8029899Y3558851D01*
X8049238Y3584054D01*
X8052986Y3593105D01*
X8645026D01*
X9315655Y2922475D01*
X9332459Y2911247D01*
X9352280Y2907305D01*
X9352281Y2907305D01*
X9779000D01*
X9798821Y2911247D01*
X9815625Y2922475D01*
X10133125Y3239975D01*
X10144353Y3256779D01*
X10148295Y3276600D01*
Y4017146D01*
X11339625Y5208475D01*
X11350853Y5225279D01*
X11354795Y5245100D01*
Y7391400D01*
X11350853Y7411221D01*
X11339625Y7428025D01*
X11187225Y7580425D01*
X11170421Y7591653D01*
X11150600Y7595595D01*
X11076109D01*
X11071034Y7607848D01*
X11050677Y7634377D01*
X11024148Y7654734D01*
X11001955Y7663927D01*
Y7677673D01*
X11024148Y7686866D01*
X11050677Y7707223D01*
X11071034Y7733752D01*
X11083831Y7764646D01*
X11088196Y7797800D01*
X11083831Y7830954D01*
X11071034Y7861848D01*
X11050677Y7888377D01*
X11024148Y7908734D01*
X11001955Y7917927D01*
Y7931673D01*
X11024148Y7940866D01*
X11050677Y7961223D01*
X11071034Y7987752D01*
X11083831Y8018646D01*
X11088196Y8051800D01*
X11083831Y8084954D01*
X11071034Y8115848D01*
X11050677Y8142377D01*
X11024148Y8162734D01*
X11001955Y8171927D01*
Y8185673D01*
X11024148Y8194866D01*
X11050677Y8215223D01*
X11071034Y8241752D01*
X11083831Y8272646D01*
X11088196Y8305800D01*
X11083831Y8338954D01*
X11071034Y8369848D01*
X11050677Y8396377D01*
X11024148Y8416734D01*
X11001955Y8425927D01*
Y8439673D01*
X11024148Y8448866D01*
X11050677Y8469223D01*
X11071034Y8495752D01*
X11083831Y8526646D01*
X11088196Y8559800D01*
X11083831Y8592954D01*
X11071034Y8623848D01*
X11050677Y8650377D01*
X11024148Y8670734D01*
X11001955Y8679927D01*
Y8693673D01*
X11024148Y8702866D01*
X11050677Y8723223D01*
X11071034Y8749752D01*
X11083831Y8780646D01*
X11088196Y8813800D01*
X11083831Y8846954D01*
X11071034Y8877848D01*
X11050677Y8904377D01*
X11024148Y8924734D01*
X11001955Y8933927D01*
Y8947673D01*
X11024148Y8956866D01*
X11050677Y8977223D01*
X11071034Y9003752D01*
X11083831Y9034646D01*
X11088196Y9067800D01*
X11083831Y9100954D01*
X11071034Y9131848D01*
X11050677Y9158377D01*
X11024148Y9178734D01*
X11001955Y9187927D01*
Y9201673D01*
X11024148Y9210866D01*
X11050677Y9231223D01*
X11071034Y9257752D01*
X11083831Y9288646D01*
X11088196Y9321800D01*
X11083831Y9354954D01*
X11071034Y9385848D01*
X11050677Y9412377D01*
X11024148Y9432734D01*
X11001955Y9441927D01*
Y9455673D01*
X11024148Y9464866D01*
X11050677Y9485223D01*
X11071034Y9511752D01*
X11083831Y9542646D01*
X11088196Y9575800D01*
X11083831Y9608954D01*
X11071034Y9639848D01*
X11050677Y9666377D01*
X11024148Y9686734D01*
X11001955Y9695927D01*
Y9709673D01*
X11024148Y9718866D01*
X11050677Y9739223D01*
X11071034Y9765752D01*
X11083831Y9796646D01*
X11088196Y9829800D01*
X11083831Y9862954D01*
X11071034Y9893848D01*
X11050677Y9920377D01*
X11024148Y9940734D01*
X11001955Y9949927D01*
Y9963673D01*
X11024148Y9972866D01*
X11050677Y9993223D01*
X11071034Y10019752D01*
X11083831Y10050646D01*
X11088196Y10083800D01*
X11083831Y10116954D01*
X11071034Y10147848D01*
X11050677Y10174377D01*
X11024148Y10194734D01*
X11001955Y10203927D01*
Y10217673D01*
X11024148Y10226866D01*
X11050677Y10247223D01*
X11071034Y10273752D01*
X11083831Y10304646D01*
X11088196Y10337800D01*
X11083831Y10370954D01*
X11071034Y10401848D01*
X11050677Y10428377D01*
X11024148Y10448734D01*
X11001955Y10457927D01*
Y10471673D01*
X11024148Y10480866D01*
X11050677Y10501223D01*
X11071034Y10527752D01*
X11083831Y10558646D01*
X11088196Y10591800D01*
X11083831Y10624954D01*
X11071034Y10655848D01*
X11050677Y10682377D01*
X11024148Y10702734D01*
X11001955Y10711927D01*
Y10725673D01*
X11024148Y10734866D01*
X11050677Y10755223D01*
X11071034Y10781752D01*
X11083831Y10812646D01*
X11088196Y10845800D01*
X11083831Y10878954D01*
X11071034Y10909848D01*
X11050677Y10936377D01*
X11024148Y10956734D01*
X11001955Y10965927D01*
Y10979673D01*
X11024148Y10988866D01*
X11050677Y11009223D01*
X11071034Y11035752D01*
X11083831Y11066646D01*
X11088196Y11099800D01*
X11083831Y11132954D01*
X11071034Y11163848D01*
X11050677Y11190377D01*
X11024148Y11210734D01*
X11001955Y11219927D01*
Y11233673D01*
X11024148Y11242866D01*
X11050677Y11263223D01*
X11071034Y11289752D01*
X11083831Y11320646D01*
X11088196Y11353800D01*
X11083831Y11386954D01*
X11071034Y11417848D01*
X11050677Y11444377D01*
X11024148Y11464734D01*
X10993254Y11477531D01*
X10960100Y11481896D01*
X10655300D01*
X10622146Y11477531D01*
X10591252Y11464734D01*
X10564723Y11444377D01*
X10544366Y11417848D01*
X10531569Y11386954D01*
X10527204Y11353800D01*
X10531569Y11320646D01*
X10544366Y11289752D01*
X10564723Y11263223D01*
X10591252Y11242866D01*
X10613445Y11233673D01*
Y11219927D01*
X10591252Y11210734D01*
X10564723Y11190377D01*
X10544366Y11163848D01*
X10531569Y11132954D01*
X10527204Y11099800D01*
X10531569Y11066646D01*
X10544366Y11035752D01*
X10564723Y11009223D01*
X10591252Y10988866D01*
X10613445Y10979673D01*
Y10965927D01*
X10591252Y10956734D01*
X10564723Y10936377D01*
X10544366Y10909848D01*
X10531569Y10878954D01*
X10527204Y10845800D01*
X10531569Y10812646D01*
X10544366Y10781752D01*
X10564723Y10755223D01*
X10591252Y10734866D01*
X10613445Y10725673D01*
Y10711927D01*
X10591252Y10702734D01*
X10564723Y10682377D01*
X10544366Y10655848D01*
X10531569Y10624954D01*
X10527204Y10591800D01*
X10531569Y10558646D01*
X10544366Y10527752D01*
X10564723Y10501223D01*
X10591252Y10480866D01*
X10613445Y10471673D01*
Y10457927D01*
X10591252Y10448734D01*
X10564723Y10428377D01*
X10544366Y10401848D01*
X10531569Y10370954D01*
X10527204Y10337800D01*
X10531569Y10304646D01*
X10544366Y10273752D01*
X10564723Y10247223D01*
X10591252Y10226866D01*
X10613445Y10217673D01*
Y10203927D01*
X10591252Y10194734D01*
X10564723Y10174377D01*
X10544366Y10147848D01*
X10531569Y10116954D01*
X10527204Y10083800D01*
X10531569Y10050646D01*
X10544366Y10019752D01*
X10564723Y9993223D01*
X10591252Y9972866D01*
X10613445Y9963673D01*
Y9949927D01*
X10591252Y9940734D01*
X10564723Y9920377D01*
X10544366Y9893848D01*
X10531569Y9862954D01*
X10527204Y9829800D01*
X10531569Y9796646D01*
X10544366Y9765752D01*
X10564723Y9739223D01*
X10591252Y9718866D01*
X10613445Y9709673D01*
Y9695927D01*
X10591252Y9686734D01*
X10564723Y9666377D01*
X10544366Y9639848D01*
X10531569Y9608954D01*
X10527204Y9575800D01*
X10531569Y9542646D01*
X10544366Y9511752D01*
X10564723Y9485223D01*
X10591252Y9464866D01*
X10613445Y9455673D01*
Y9441927D01*
X10591252Y9432734D01*
X10564723Y9412377D01*
X10544366Y9385848D01*
X10531569Y9354954D01*
X10527204Y9321800D01*
X10531569Y9288646D01*
X10544366Y9257752D01*
X10564723Y9231223D01*
X10591252Y9210866D01*
X10613445Y9201673D01*
Y9187927D01*
X10591252Y9178734D01*
X10564723Y9158377D01*
X10544366Y9131848D01*
X10531569Y9100954D01*
X10527204Y9067800D01*
X10531569Y9034646D01*
X10544366Y9003752D01*
X10564723Y8977223D01*
X10591252Y8956866D01*
X10613445Y8947673D01*
Y8933927D01*
X10591252Y8924734D01*
X10564723Y8904377D01*
X10544366Y8877848D01*
X10531569Y8846954D01*
X10527204Y8813800D01*
X10531569Y8780646D01*
X10544366Y8749752D01*
X10564723Y8723223D01*
X10591252Y8702866D01*
X10613445Y8693673D01*
Y8679927D01*
X10591252Y8670734D01*
X10564723Y8650377D01*
X10544366Y8623848D01*
X10531569Y8592954D01*
X10527204Y8559800D01*
X10531569Y8526646D01*
X10544366Y8495752D01*
X10564723Y8469223D01*
X10591252Y8448866D01*
X10613445Y8439673D01*
Y8425927D01*
X10591252Y8416734D01*
X10564723Y8396377D01*
X10544366Y8369848D01*
X10531569Y8338954D01*
X10527204Y8305800D01*
X10531569Y8272646D01*
X10544366Y8241752D01*
X10564723Y8215223D01*
X10591252Y8194866D01*
X10613445Y8185673D01*
Y8171927D01*
X10591252Y8162734D01*
X10564723Y8142377D01*
X10544366Y8115848D01*
X10531569Y8084954D01*
X10527204Y8051800D01*
X10531569Y8018646D01*
X10544366Y7987752D01*
X10564723Y7961223D01*
X10591252Y7940866D01*
X10613445Y7931673D01*
Y7917927D01*
X10591252Y7908734D01*
X10564723Y7888377D01*
X10544366Y7861848D01*
X10531569Y7830954D01*
X10527204Y7797800D01*
X10531569Y7764646D01*
X10544366Y7733752D01*
X10564723Y7707223D01*
X10591252Y7686866D01*
X10613445Y7677673D01*
Y7663927D01*
X10591252Y7654734D01*
X10564723Y7634377D01*
X10544366Y7607848D01*
X10531569Y7576954D01*
X10527204Y7543800D01*
X10531569Y7510646D01*
X10544366Y7479752D01*
X10564723Y7453223D01*
X10591252Y7432866D01*
X10613445Y7423673D01*
Y7409927D01*
X10591252Y7400734D01*
X10564723Y7380377D01*
X10544366Y7353848D01*
X10531569Y7322954D01*
X10527204Y7289800D01*
X10531569Y7256646D01*
X10544366Y7225752D01*
X10564723Y7199223D01*
X10591252Y7178866D01*
X10613445Y7169673D01*
Y7155927D01*
X10591252Y7146734D01*
X10564723Y7126377D01*
X10544366Y7099848D01*
X10531569Y7068954D01*
X10527204Y7035800D01*
X10531569Y7002646D01*
X10544366Y6971752D01*
X10564723Y6945223D01*
X10591252Y6924866D01*
X10613445Y6915673D01*
Y6901927D01*
X10591252Y6892734D01*
X10564723Y6872377D01*
X10544366Y6845848D01*
X10531569Y6814954D01*
X10527204Y6781800D01*
X10531569Y6748646D01*
X10544366Y6717752D01*
X10564723Y6691223D01*
X10591252Y6670866D01*
X10613445Y6661673D01*
Y6647927D01*
X10591252Y6638734D01*
X10564723Y6618377D01*
X10544366Y6591848D01*
X10531569Y6560954D01*
X10527204Y6527800D01*
X10531569Y6494646D01*
X10544366Y6463752D01*
X10564723Y6437223D01*
X10591252Y6416866D01*
X10613445Y6407673D01*
Y6393927D01*
X10591252Y6384734D01*
X10564723Y6364377D01*
X10544366Y6337848D01*
X10531569Y6306954D01*
X10527204Y6273800D01*
X10531569Y6240646D01*
X10535744Y6230566D01*
X10524978Y6223372D01*
X10428690Y6319659D01*
Y11492505D01*
X10424748Y11512326D01*
X10413520Y11529130D01*
X9980725Y11961925D01*
X9963921Y11973153D01*
X9944100Y11977095D01*
D02*
G37*
%LPD*%
G36*
X9020366Y11035752D02*
X9040723Y11009223D01*
X9067252Y10988866D01*
X9089445Y10979673D01*
Y10965927D01*
X9067252Y10956734D01*
X9040723Y10936377D01*
X9020366Y10909848D01*
X9007569Y10878954D01*
X9003204Y10845800D01*
X9007569Y10812646D01*
X9020366Y10781752D01*
X9025462Y10775111D01*
X5769746Y7519395D01*
X5322486D01*
X5318738Y7528446D01*
X5299399Y7553649D01*
X5274196Y7572988D01*
X5244846Y7585145D01*
X5221675Y7588195D01*
Y7601005D01*
X5244846Y7604055D01*
X5274196Y7616212D01*
X5299399Y7635551D01*
X5318738Y7660754D01*
X5322486Y7669805D01*
X5448300D01*
X5468121Y7673747D01*
X5484925Y7684975D01*
X8847954Y11048005D01*
X9015291D01*
X9020366Y11035752D01*
D02*
G37*
G36*
X10325100Y11471050D02*
Y6298205D01*
X10329043Y6278384D01*
X10340270Y6261580D01*
X10536644Y6065206D01*
X10531569Y6052954D01*
X10527204Y6019800D01*
X10531569Y5986646D01*
X10535745Y5976565D01*
X10524978Y5969371D01*
X10223020Y6271330D01*
Y11431475D01*
X10219077Y11451296D01*
X10207850Y11468100D01*
X9891825Y11784125D01*
X9875021Y11795353D01*
X9855200Y11799295D01*
X8331200D01*
X8311379Y11795353D01*
X8294575Y11784125D01*
X6696846Y10186395D01*
X5888854D01*
X5804895Y10270354D01*
Y10583046D01*
X5863454Y10641605D01*
X5967814D01*
X5971562Y10632554D01*
X5990901Y10607351D01*
X6016104Y10588012D01*
X6045454Y10575855D01*
X6068625Y10572805D01*
Y10559995D01*
X6045454Y10556945D01*
X6016104Y10544788D01*
X5990901Y10525449D01*
X5971562Y10500246D01*
X5959405Y10470896D01*
X5955259Y10439400D01*
X5959405Y10407904D01*
X5971562Y10378554D01*
X5990901Y10353351D01*
X6016104Y10334012D01*
X6045454Y10321855D01*
X6076950Y10317709D01*
X6394450D01*
X6425946Y10321855D01*
X6455296Y10334012D01*
X6480499Y10353351D01*
X6499838Y10378554D01*
X6503586Y10387605D01*
X6565900D01*
X6585721Y10391547D01*
X6602525Y10402775D01*
X8073254Y11873505D01*
X9922646D01*
X10325100Y11471050D01*
D02*
G37*
D10*
X3302000Y11430000D02*
D03*
Y3302000D02*
D03*
X11684000D02*
D03*
Y11430000D02*
D03*
D13*
X4406900Y8369300D02*
X4546600Y8229600D01*
X4406900Y8559800D02*
X5397500Y9550400D01*
X4406900Y8369300D02*
Y8559800D01*
X5397500Y9550400D02*
Y10967176D01*
X4546600Y8229600D02*
X5054600D01*
X5213350D01*
X8839200Y11582400D02*
X9690100D01*
X5213350Y8229600D02*
X5486400D01*
X8839200Y11582400D01*
X8318500Y7239000D02*
Y7490500D01*
X5638800Y4559300D02*
X8318500Y7239000D01*
X5803900Y5907999D02*
X8153401Y8257500D01*
X8318500D01*
Y9283700D01*
X8864600Y9829800D01*
X8597900Y9231015D02*
X8942685Y9575800D01*
X8597900Y7099300D02*
Y9231015D01*
X8942685Y9575800D02*
X9283700D01*
X5680044Y4181444D02*
X8597900Y7099300D01*
X5797713Y3918113D02*
X8826500Y6946900D01*
Y9156700D02*
X8986527Y9316727D01*
X8826500Y6946900D02*
Y9156700D01*
X5511592Y5074153D02*
Y6730792D01*
X5299039Y4861601D02*
X5511592Y5074153D01*
X5257800Y4861601D02*
X5299039D01*
X5041900Y4559300D02*
X5638800D01*
X11303000Y5245100D02*
Y7391400D01*
X10096500Y4038600D02*
X11303000Y5245100D01*
X10096500Y3276600D02*
Y4038600D01*
X9779000Y2959100D02*
X10096500Y3276600D01*
X9352280Y2959100D02*
X9779000D01*
X2971800Y5689600D02*
X5016500Y3644900D01*
X2971800Y5689600D02*
Y6261100D01*
X4533900Y5067300D02*
X5041900Y4559300D01*
X4267200Y7759700D02*
X4533900Y7493000D01*
Y5067300D02*
Y7493000D01*
X4838700Y9499600D02*
Y10693400D01*
X3810000Y8470900D02*
X4838700Y9499600D01*
X3683000Y8470900D02*
X3810000D01*
X6718300Y10134600D02*
X8331200Y11747500D01*
X5867400Y10134600D02*
X6718300D01*
X8331200Y11747500D02*
X9855200D01*
X5163276Y11201400D02*
X5397500Y10967176D01*
X5163276Y11201400D02*
X6235700D01*
X4127500D02*
X5163276D01*
X5753100Y10604500D02*
X5842000Y10693400D01*
X5753100Y10248900D02*
X5867400Y10134600D01*
X5753100Y10248900D02*
Y10604500D01*
X5842000Y10693400D02*
X6235700D01*
X5054600Y7467600D02*
X5791200D01*
X5448300Y7721600D02*
X8826500Y11099800D01*
X5054600Y7721600D02*
X5448300D01*
X5791200Y7467600D02*
X9169400Y10845800D01*
X9690100Y11582400D02*
X9906000Y11366500D01*
X2971800Y10045700D02*
X4127500Y11201400D01*
X4394200Y9817100D02*
Y10658151D01*
X4683449Y10947400D01*
X4838700D01*
X3683000Y9105900D02*
X4394200Y9817100D01*
X6235700Y10439400D02*
X6565900D01*
X8521700Y4965700D02*
X9499600D01*
X9728200Y5194300D01*
Y5727700D01*
X5035387Y3918113D02*
X5797713D01*
X4178300Y4775200D02*
X5035387Y3918113D01*
X4178300Y4775200D02*
Y6680200D01*
X5016500Y3644900D02*
X5969000D01*
X7835900Y5511800D02*
X9283700D01*
X5969000Y3644900D02*
X7835900Y5511800D01*
X3683000Y7048500D02*
X3810000D01*
X4178300Y6680200D01*
X4013200Y7366000D02*
X4368800Y7010400D01*
X3683000Y7404100D02*
X3721100Y7366000D01*
X4013200D01*
X4368800Y4908487D02*
Y7010400D01*
Y4908487D02*
X5095844Y4181444D01*
X5680044D01*
X3683000Y7759700D02*
X4267200D01*
X4673600Y5445801D02*
X5257800Y4861601D01*
X4279900Y8115300D02*
X4673600Y7721600D01*
X3683000Y8115300D02*
X4279900D01*
X4673600Y5445801D02*
Y7721600D01*
X3683000Y8902700D02*
Y9105900D01*
X8051800Y11925300D02*
X9944100D01*
X6565900Y10439400D02*
X8051800Y11925300D01*
X9944100D02*
X10376895Y11492505D01*
X9855200Y11747500D02*
X10171225Y11431475D01*
X2971800Y8902700D02*
Y10045700D01*
X9582150Y5873750D02*
X9786345D01*
X9906000Y5993405D02*
Y11320646D01*
X9786345Y5873750D02*
X9906000Y5993405D01*
X9582150Y5873750D02*
X9728200Y5727700D01*
X9436100Y6019800D02*
X9582150Y5873750D01*
X8699500Y4406900D02*
X9550400D01*
X8445500Y4660900D02*
X8699500Y4406900D01*
X8864600Y9829800D02*
X9283700D01*
X10171225Y6249875D02*
Y11431475D01*
Y6249875D02*
X10655300Y5765800D01*
X10376895Y6298205D02*
X10655300Y6019800D01*
X10376895Y6298205D02*
Y11492505D01*
X9278627Y9316727D02*
X9283700Y9321800D01*
X8986527Y9316727D02*
X9278627D01*
X8864600Y10083800D02*
X9283700D01*
X5511592Y6730792D02*
X8864600Y10083800D01*
X8216900Y4660900D02*
X8445500D01*
X7785100D02*
X8216900D01*
X10655300Y5765800D02*
X10807700D01*
Y7543800D02*
X11150600D01*
X11303000Y7391400D01*
X8666480Y3644900D02*
X9352280Y2959100D01*
X7785100Y3644900D02*
X8666480D01*
X10655300Y6019800D02*
X10807700D01*
X9283700D02*
X9436100D01*
X8216900Y4660900D02*
X8521700Y4965700D01*
X8826500Y11099800D02*
X9283700D01*
X9169400Y10845800D02*
X9283700D01*
D14*
X8318500Y7490500D02*
D03*
X5257800Y4861601D02*
D03*
X5803900Y5907999D02*
D03*
D15*
X8318500Y8257500D02*
D03*
X5257800Y5628599D02*
D03*
X5803900Y5141001D02*
D03*
D16*
X10807700Y11353800D02*
D03*
Y11099800D02*
D03*
Y10845800D02*
D03*
Y10591800D02*
D03*
Y10337800D02*
D03*
Y10083800D02*
D03*
Y9829800D02*
D03*
Y9575800D02*
D03*
Y9321800D02*
D03*
Y5511800D02*
D03*
X9283700Y6273800D02*
D03*
Y6527800D02*
D03*
Y6781800D02*
D03*
Y7035800D02*
D03*
Y7289800D02*
D03*
Y7543800D02*
D03*
Y7797800D02*
D03*
Y8051800D02*
D03*
Y8305800D02*
D03*
Y8559800D02*
D03*
Y8813800D02*
D03*
Y9067800D02*
D03*
Y6019800D02*
D03*
Y5765800D02*
D03*
Y5511800D02*
D03*
Y9321800D02*
D03*
Y9575800D02*
D03*
Y9829800D02*
D03*
Y10083800D02*
D03*
Y10337800D02*
D03*
Y10591800D02*
D03*
Y10845800D02*
D03*
Y11099800D02*
D03*
Y11353800D02*
D03*
X10807700Y9067800D02*
D03*
Y8813800D02*
D03*
Y8559800D02*
D03*
Y8305800D02*
D03*
Y8051800D02*
D03*
Y7797800D02*
D03*
Y7543800D02*
D03*
Y7289800D02*
D03*
Y7035800D02*
D03*
Y6781800D02*
D03*
Y6527800D02*
D03*
Y6273800D02*
D03*
Y6019800D02*
D03*
D17*
Y5765800D02*
D03*
D18*
X7785100Y4660900D02*
D03*
Y4406900D02*
D03*
Y4152900D02*
D03*
Y3898900D02*
D03*
Y3644900D02*
D03*
Y3390900D02*
D03*
X9550400Y4660900D02*
D03*
Y4406900D02*
D03*
Y4152900D02*
D03*
Y3898900D02*
D03*
Y3644900D02*
D03*
Y3390900D02*
D03*
X5054600Y8483600D02*
D03*
Y8229600D02*
D03*
Y7975600D02*
D03*
Y7721600D02*
D03*
Y7467600D02*
D03*
Y7213600D02*
D03*
Y6959600D02*
D03*
Y6705600D02*
D03*
Y6451600D02*
D03*
D19*
X2971800Y7759700D02*
D03*
Y8115300D02*
D03*
Y8470900D02*
D03*
Y8902700D02*
D03*
X3683000D02*
D03*
Y8470900D02*
D03*
Y8115300D02*
D03*
Y7759700D02*
D03*
X2971800Y6261100D02*
D03*
Y6692900D02*
D03*
X3683000Y7404100D02*
D03*
Y7048500D02*
D03*
Y6692900D02*
D03*
Y6261100D02*
D03*
X2971800Y7404100D02*
D03*
Y7048500D02*
D03*
D20*
X4838700Y10947400D02*
D03*
Y10693400D02*
D03*
X6235700Y10439400D02*
D03*
Y10693400D02*
D03*
Y10947400D02*
D03*
Y11201400D02*
D03*
%TF.MD5,933e7a442f088a774845a3315182f75e*%
M02*
