%TF.GenerationSoftware,Altium Limited,Altium Designer,23.10.1 (27)*%
G04 Layer_Physical_Order=2*
G04 Layer_Color=16711680*
%FSLAX45Y45*%
%MOMM*%
%TF.SameCoordinates,2F64780F-F911-4696-9FF2-54DBC27FC154*%
%TF.FilePolarity,Positive*%
%TF.FileFunction,Copper,L2,Bot,Signal*%
%TF.Part,Single*%
G01*
G75*
%TA.AperFunction,ComponentPad*%
%ADD12R,2.54000X2.03200*%
%ADD13R,2.28600X2.28600*%
G04:AMPARAMS|DCode=14|XSize=2.032mm|YSize=2.032mm|CornerRadius=0.508mm|HoleSize=0mm|Usage=FLASHONLY|Rotation=90.000|XOffset=0mm|YOffset=0mm|HoleType=Round|Shape=RoundedRectangle|*
%AMROUNDEDRECTD14*
21,1,2.03200,1.01600,0,0,90.0*
21,1,1.01600,2.03200,0,0,90.0*
1,1,1.01600,0.50800,0.50800*
1,1,1.01600,0.50800,-0.50800*
1,1,1.01600,-0.50800,-0.50800*
1,1,1.01600,-0.50800,0.50800*
%
%ADD14ROUNDEDRECTD14*%
%ADD15O,2.54000X2.03200*%
G04:AMPARAMS|DCode=16|XSize=2.54mm|YSize=2.032mm|CornerRadius=0mm|HoleSize=0mm|Usage=FLASHONLY|Rotation=90.000|XOffset=0mm|YOffset=0mm|HoleType=Round|Shape=Octagon|*
%AMOCTAGOND16*
4,1,8,0.50800,1.27000,-0.50800,1.27000,-1.01600,0.76200,-1.01600,-0.76200,-0.50800,-1.27000,0.50800,-1.27000,1.01600,-0.76200,1.01600,0.76200,0.50800,1.27000,0.0*
%
%ADD16OCTAGOND16*%

G04:AMPARAMS|DCode=17|XSize=2.032mm|YSize=2.54mm|CornerRadius=0mm|HoleSize=0mm|Usage=FLASHONLY|Rotation=90.000|XOffset=0mm|YOffset=0mm|HoleType=Round|Shape=Octagon|*
%AMOCTAGOND17*
4,1,8,-1.27000,-0.50800,-1.27000,0.50800,-0.76200,1.01600,0.76200,1.01600,1.27000,0.50800,1.27000,-0.50800,0.76200,-1.01600,-0.76200,-1.01600,-1.27000,-0.50800,0.0*
%
%ADD17OCTAGOND17*%

%ADD18O,2.54000X2.03200*%
%ADD19O,2.03200X2.54000*%
%ADD20O,1.90500X2.54000*%
%ADD23O,2.28600X2.03200*%
G04:AMPARAMS|DCode=24|XSize=2.286mm|YSize=2.286mm|CornerRadius=0mm|HoleSize=0mm|Usage=FLASHONLY|Rotation=90.000|XOffset=0mm|YOffset=0mm|HoleType=Round|Shape=Octagon|*
%AMOCTAGOND24*
4,1,8,0.57150,1.14300,-0.57150,1.14300,-1.14300,0.57150,-1.14300,-0.57150,-0.57150,-1.14300,0.57150,-1.14300,1.14300,-0.57150,1.14300,0.57150,0.57150,1.14300,0.0*
%
%ADD24OCTAGOND24*%

%ADD25O,2.54000X1.65100*%
%ADD26O,1.65100X1.52400*%
G04:AMPARAMS|DCode=32|XSize=1.9812mm|YSize=1.9812mm|CornerRadius=0.4953mm|HoleSize=0mm|Usage=FLASHONLY|Rotation=0.000|XOffset=0mm|YOffset=0mm|HoleType=Round|Shape=RoundedRectangle|*
%AMROUNDEDRECTD32*
21,1,1.98120,0.99060,0,0,0.0*
21,1,0.99060,1.98120,0,0,0.0*
1,1,0.99060,0.49530,-0.49530*
1,1,0.99060,-0.49530,-0.49530*
1,1,0.99060,-0.49530,0.49530*
1,1,0.99060,0.49530,0.49530*
%
%ADD32ROUNDEDRECTD32*%
%ADD33C,1.98120*%
%ADD34C,2.15900*%
%ADD35O,2.54000X1.10795*%
%ADD36O,2.28600X1.65100*%
%ADD37C,2.03200*%
%TA.AperFunction,Conductor*%
%ADD38C,0.50800*%
%TA.AperFunction,ComponentPad*%
%ADD39R,2.15900X2.03200*%
%ADD40O,2.28600X1.90500*%
%ADD41R,2.03200X2.03200*%
%ADD42O,1.77800X2.54000*%
%ADD43R,2.54000X1.77800*%
%ADD44O,2.54000X1.77800*%
G36*
X9779000Y6350000D02*
X9779000Y2667000D01*
Y2286000D01*
X9627476Y2134476D01*
X6654669D01*
X6649809Y2146209D01*
X7029163Y2525564D01*
X9327760D01*
Y2462860D01*
X9612240D01*
Y2671140D01*
X9575104D01*
X9570793Y2683840D01*
X9582374Y2692726D01*
X9599066Y2714481D01*
X9609560Y2739814D01*
X9613139Y2767000D01*
X9609560Y2794186D01*
X9599066Y2819519D01*
X9582374Y2841274D01*
X9560619Y2857966D01*
X9535286Y2868460D01*
X9508100Y2872039D01*
X9431900D01*
X9404714Y2868460D01*
X9379381Y2857966D01*
X9357626Y2841274D01*
X9340934Y2819519D01*
X9336343Y2808436D01*
X8871840D01*
Y2910840D01*
X8638160D01*
Y2677160D01*
X8871840D01*
Y2725564D01*
X9336343D01*
X9340934Y2714481D01*
X9357626Y2692726D01*
X9369208Y2683840D01*
X9364896Y2671140D01*
X9327760D01*
Y2608436D01*
X7012000D01*
X6996143Y2605282D01*
X6982700Y2596300D01*
X6586836Y2200436D01*
X4688630D01*
X4683769Y2212170D01*
X4772969Y2301370D01*
X4778450Y2298205D01*
X4809782Y2289810D01*
X4842218D01*
X4873550Y2298205D01*
X4901640Y2314423D01*
X4924577Y2337360D01*
X4940795Y2365450D01*
X4946426Y2386466D01*
X4959574D01*
X4965205Y2365450D01*
X4981423Y2337360D01*
X5004360Y2314423D01*
X5032450Y2298205D01*
X5063782Y2289810D01*
X5096218D01*
X5127550Y2298205D01*
X5155640Y2314423D01*
X5178577Y2337360D01*
X5194795Y2365450D01*
X5203190Y2396782D01*
Y2429218D01*
X5194795Y2460550D01*
X5178577Y2488640D01*
X5155640Y2511577D01*
X5127550Y2527795D01*
X5096218Y2536190D01*
X5063782D01*
X5032450Y2527795D01*
X5029505Y2526095D01*
X4558518Y2997082D01*
X4561877Y3002902D01*
X4569840Y3032618D01*
Y3063382D01*
X4561877Y3093098D01*
X4546495Y3119741D01*
X4524741Y3141495D01*
X4498098Y3156877D01*
X4468382Y3164840D01*
X4437618D01*
X4407902Y3156877D01*
X4381259Y3141495D01*
X4359505Y3119741D01*
X4344123Y3093098D01*
X4336160Y3063382D01*
Y3032618D01*
X4344123Y3002902D01*
X4359505Y2976259D01*
X4381259Y2954505D01*
X4407902Y2939123D01*
X4437618Y2931160D01*
X4468382D01*
X4498098Y2939123D01*
X4498846Y2939554D01*
X4969834Y2468567D01*
X4965205Y2460550D01*
X4959574Y2439534D01*
X4946426D01*
X4940795Y2460550D01*
X4924577Y2488640D01*
X4901640Y2511577D01*
X4873550Y2527795D01*
X4842218Y2536190D01*
X4809782D01*
X4778450Y2527795D01*
X4750360Y2511577D01*
X4727423Y2488640D01*
X4711205Y2460550D01*
X4702810Y2429218D01*
Y2396782D01*
X4711205Y2365450D01*
X4714370Y2359969D01*
X4554836Y2200436D01*
X3799630D01*
X3794769Y2212170D01*
X3883969Y2301370D01*
X3889450Y2298205D01*
X3920782Y2289810D01*
X3953218D01*
X3984550Y2298205D01*
X4012640Y2314423D01*
X4035577Y2337360D01*
X4051795Y2365450D01*
X4057426Y2386466D01*
X4070574D01*
X4076205Y2365450D01*
X4092423Y2337360D01*
X4115360Y2314423D01*
X4143450Y2298205D01*
X4174782Y2289810D01*
X4207218D01*
X4238550Y2298205D01*
X4266640Y2314423D01*
X4289577Y2337360D01*
X4305795Y2365450D01*
X4314190Y2396782D01*
Y2429218D01*
X4305795Y2460550D01*
X4289577Y2488640D01*
X4266640Y2511577D01*
X4238550Y2527795D01*
X4232436Y2529433D01*
Y2853638D01*
X4229282Y2869495D01*
X4220300Y2882938D01*
X4025938Y3077300D01*
X4012495Y3086282D01*
X3996638Y3089436D01*
X3124802D01*
X2962436Y3251802D01*
Y3792836D01*
X3065164Y3895564D01*
X3399847D01*
X3415704Y3898718D01*
X3429147Y3907700D01*
X3671010Y4149564D01*
X4923847D01*
X4939704Y4152718D01*
X4953147Y4161700D01*
X5080147Y4288700D01*
X5089129Y4302143D01*
X5092283Y4318000D01*
Y4938369D01*
X5110501Y4940767D01*
X5138924Y4952541D01*
X5163331Y4971269D01*
X5182059Y4995676D01*
X5193833Y5024099D01*
X5197848Y5054600D01*
Y5105400D01*
X5193833Y5135901D01*
X5182059Y5164324D01*
X5163331Y5188731D01*
X5138924Y5207459D01*
X5110501Y5219233D01*
X5080000Y5223248D01*
X5049499Y5219233D01*
X5021076Y5207459D01*
X4996669Y5188731D01*
X4977941Y5164324D01*
X4966167Y5135901D01*
X4962152Y5105400D01*
Y5054600D01*
X4966167Y5024099D01*
X4977941Y4995676D01*
X4996669Y4971269D01*
X5009411Y4961492D01*
Y4335164D01*
X4906683Y4232436D01*
X3653848D01*
X3653847Y4232437D01*
X3637990Y4229282D01*
X3624547Y4220300D01*
X3382683Y3978436D01*
X3048000D01*
X3032143Y3975282D01*
X3018700Y3966300D01*
X2891700Y3839300D01*
X2882718Y3825857D01*
X2879564Y3810000D01*
Y3234638D01*
X2882718Y3218781D01*
X2891700Y3205339D01*
X3078339Y3018700D01*
X3091781Y3009718D01*
X3107638Y3006564D01*
X3979475D01*
X4149564Y2836475D01*
Y2529433D01*
X4143450Y2527795D01*
X4115360Y2511577D01*
X4092423Y2488640D01*
X4076205Y2460550D01*
X4070574Y2439534D01*
X4057426D01*
X4051795Y2460550D01*
X4035577Y2488640D01*
X4012640Y2511577D01*
X3984550Y2527795D01*
X3953218Y2536190D01*
X3920782D01*
X3889450Y2527795D01*
X3861360Y2511577D01*
X3838423Y2488640D01*
X3822205Y2460550D01*
X3813810Y2429218D01*
Y2396782D01*
X3822205Y2365450D01*
X3825370Y2359969D01*
X3665836Y2200436D01*
X3319164D01*
X3153122Y2366477D01*
X3154511Y2368882D01*
X3162300Y2397952D01*
Y2428048D01*
X3154511Y2457118D01*
X3139463Y2483182D01*
X3118182Y2504463D01*
X3092118Y2519511D01*
X3063048Y2527300D01*
X3032952D01*
X3003882Y2519511D01*
X2977818Y2504463D01*
X2956537Y2483182D01*
X2941489Y2457118D01*
X2933700Y2428048D01*
Y2397952D01*
X2941489Y2368882D01*
X2956537Y2342818D01*
X2977818Y2321537D01*
X3003882Y2306489D01*
X3032952Y2298700D01*
X3063048D01*
X3092118Y2306489D01*
X3094523Y2307878D01*
X3256191Y2146209D01*
X3251331Y2134476D01*
X2691524D01*
X2540000Y2286000D01*
Y7620000D01*
X2794000Y7874000D01*
X8255000D01*
X9779000Y6350000D01*
D02*
G37*
%LPC*%
G36*
X3562350Y7739000D02*
X3441700D01*
Y7624700D01*
X3562350D01*
Y7739000D01*
D02*
G37*
G36*
X3416300D02*
X3295650D01*
Y7624700D01*
X3416300D01*
Y7739000D01*
D02*
G37*
G36*
X3562350Y7599300D02*
X3441700D01*
Y7485000D01*
X3562350D01*
Y7599300D01*
D02*
G37*
G36*
X3416300D02*
X3295650D01*
Y7485000D01*
X3416300D01*
Y7599300D01*
D02*
G37*
G36*
X5453000Y6350000D02*
X5338700D01*
Y6235700D01*
X5453000D01*
Y6350000D01*
D02*
G37*
G36*
X5313300D02*
X5199000D01*
Y6235700D01*
X5313300D01*
Y6350000D01*
D02*
G37*
G36*
X2921000Y7153437D02*
X2905143Y7150282D01*
X2891700Y7141300D01*
X2637700Y6887300D01*
X2628718Y6873857D01*
X2625564Y6858000D01*
Y5334000D01*
X2628718Y5318143D01*
X2637700Y5304700D01*
X2891700Y5050700D01*
X2905143Y5041718D01*
X2921000Y5038563D01*
X2921001Y5038564D01*
X3167297D01*
X3174541Y5021076D01*
X3178854Y5015454D01*
X2764700Y4601300D01*
X2755718Y4587857D01*
X2752564Y4572000D01*
Y3827164D01*
X2637700Y3712300D01*
X2628718Y3698857D01*
X2625564Y3683000D01*
Y2540000D01*
X2628718Y2524143D01*
X2637700Y2510700D01*
X2679665Y2468735D01*
X2678431Y2462530D01*
Y2363470D01*
X2683458Y2338198D01*
X2697773Y2316773D01*
X2719198Y2302458D01*
X2744470Y2297431D01*
X2843530D01*
X2868802Y2302458D01*
X2890227Y2316773D01*
X2904542Y2338198D01*
X2909569Y2363470D01*
Y2462530D01*
X2904542Y2487802D01*
X2890227Y2509227D01*
X2868802Y2523542D01*
X2843530Y2528569D01*
X2744470D01*
X2738265Y2527335D01*
X2708436Y2557164D01*
Y3665836D01*
X2823300Y3780700D01*
X2832282Y3794143D01*
X2835436Y3810000D01*
Y4554836D01*
X3246689Y4966090D01*
X3276600Y4962152D01*
X3327400D01*
X3357901Y4966167D01*
X3386324Y4977941D01*
X3410731Y4996669D01*
X3429459Y5021076D01*
X3441233Y5049499D01*
X3445248Y5080000D01*
X3441233Y5110501D01*
X3429459Y5138924D01*
X3410731Y5163331D01*
X3386324Y5182059D01*
X3357901Y5193833D01*
X3327400Y5197848D01*
X3276600D01*
X3246099Y5193833D01*
X3217676Y5182059D01*
X3193269Y5163331D01*
X3174541Y5138924D01*
X3167297Y5121436D01*
X2938164D01*
X2841045Y5218555D01*
X2847301Y5230259D01*
X2858540Y5228024D01*
X3603377D01*
X3693160Y5138240D01*
Y4996180D01*
X3751580Y4937760D01*
X3868420D01*
X3926840Y4996180D01*
Y5141967D01*
X3938573Y5146827D01*
X3950090Y5135311D01*
X3946152Y5105400D01*
Y5054600D01*
X3950167Y5024099D01*
X3961941Y4995676D01*
X3980669Y4971269D01*
X4005076Y4952541D01*
X4033499Y4940767D01*
X4064000Y4936752D01*
X4094501Y4940767D01*
X4122924Y4952541D01*
X4147331Y4971269D01*
X4166059Y4995676D01*
X4177833Y5024099D01*
X4181848Y5054600D01*
Y5105400D01*
X4177833Y5135901D01*
X4172384Y5149056D01*
X4183150Y5156250D01*
X4204090Y5135311D01*
X4200152Y5105400D01*
Y5054600D01*
X4204167Y5024099D01*
X4215941Y4995676D01*
X4234669Y4971269D01*
X4259076Y4952541D01*
X4287499Y4940767D01*
X4318000Y4936752D01*
X4348501Y4940767D01*
X4376924Y4952541D01*
X4401331Y4971269D01*
X4420059Y4995676D01*
X4431833Y5024099D01*
X4435848Y5054600D01*
Y5105400D01*
X4431833Y5135901D01*
X4420059Y5164324D01*
X4401331Y5188731D01*
X4376924Y5207459D01*
X4348501Y5219233D01*
X4318000Y5223248D01*
X4287499Y5219233D01*
X4259076Y5207459D01*
X4253454Y5203146D01*
X3585300Y5871300D01*
X3571857Y5880282D01*
X3556000Y5883436D01*
X3176844D01*
X3169982Y5892379D01*
X3155226Y5903702D01*
X3138043Y5910819D01*
X3119603Y5913247D01*
X2976397D01*
X2957957Y5910819D01*
X2940774Y5903702D01*
X2926018Y5892379D01*
X2914696Y5877623D01*
X2907578Y5860440D01*
X2905150Y5842000D01*
X2907578Y5823560D01*
X2914696Y5806377D01*
X2926018Y5791621D01*
X2932687Y5786504D01*
Y5770496D01*
X2926018Y5765379D01*
X2914696Y5750623D01*
X2907578Y5733440D01*
X2905150Y5715000D01*
X2907578Y5696560D01*
X2914696Y5679377D01*
X2926018Y5664621D01*
X2940774Y5653298D01*
X2957957Y5646181D01*
X2976397Y5643753D01*
X3119603D01*
X3138043Y5646181D01*
X3155226Y5653298D01*
X3169982Y5664621D01*
X3176844Y5673564D01*
X3411836D01*
X3851427Y5233973D01*
X3846567Y5222240D01*
X3751580D01*
X3738970Y5209630D01*
X3649840Y5298760D01*
X3458300Y5490300D01*
X3444857Y5499282D01*
X3429000Y5502436D01*
X3176844D01*
X3169982Y5511379D01*
X3155226Y5522702D01*
X3138043Y5529819D01*
X3119603Y5532247D01*
X2976397D01*
X2957957Y5529819D01*
X2940774Y5522702D01*
X2926018Y5511379D01*
X2914696Y5496623D01*
X2907578Y5479440D01*
X2905150Y5461000D01*
X2907578Y5442560D01*
X2914696Y5425377D01*
X2926018Y5410621D01*
X2940774Y5399298D01*
X2957957Y5392181D01*
X2976397Y5389753D01*
X3119603D01*
X3138043Y5392181D01*
X3155226Y5399298D01*
X3169982Y5410621D01*
X3176844Y5419564D01*
X3411836D01*
X3508771Y5322629D01*
X3503910Y5310896D01*
X2875704D01*
X2835436Y5351164D01*
Y5824836D01*
X3077300Y6066700D01*
X3086282Y6080143D01*
X3089437Y6096000D01*
X3089436Y6096001D01*
Y6233567D01*
X3095550Y6235205D01*
X3123640Y6251423D01*
X3146577Y6274360D01*
X3162795Y6302450D01*
X3164433Y6308564D01*
X3284836D01*
X3399700Y6193700D01*
X3413143Y6184718D01*
X3429000Y6181564D01*
X3538836D01*
X3653700Y6066700D01*
X3667143Y6057718D01*
X3683000Y6054564D01*
X3816566D01*
X3819831Y6046683D01*
X3835505Y6026255D01*
X3855933Y6010581D01*
X3879722Y6000727D01*
X3905250Y5997366D01*
X3968750D01*
X3994278Y6000727D01*
X4018067Y6010581D01*
X4038495Y6026255D01*
X4054169Y6046683D01*
X4064023Y6070472D01*
X4067384Y6096000D01*
X4064023Y6121528D01*
X4054169Y6145317D01*
X4040454Y6163190D01*
X4042468Y6172454D01*
X4045012Y6176751D01*
X4050756Y6177644D01*
X4530564Y5697837D01*
Y5214703D01*
X4513076Y5207459D01*
X4488669Y5188731D01*
X4469941Y5164324D01*
X4458167Y5135901D01*
X4454152Y5105400D01*
Y5054600D01*
X4458167Y5024099D01*
X4469941Y4995676D01*
X4488669Y4971269D01*
X4513076Y4952541D01*
X4541499Y4940767D01*
X4572000Y4936752D01*
X4602501Y4940767D01*
X4630924Y4952541D01*
X4655331Y4971269D01*
X4674059Y4995676D01*
X4685833Y5024099D01*
X4689848Y5054600D01*
Y5105400D01*
X4685833Y5135901D01*
X4674059Y5164324D01*
X4655331Y5188731D01*
X4630924Y5207459D01*
X4613436Y5214703D01*
Y5715000D01*
X4610282Y5730857D01*
X4601300Y5744300D01*
X4248526Y6097074D01*
X4256918Y6106643D01*
X4273481Y6093934D01*
X4298814Y6083440D01*
X4326000Y6079861D01*
X4353186Y6083440D01*
X4378519Y6093934D01*
X4388674Y6101726D01*
X4784564Y5705836D01*
Y5214703D01*
X4767076Y5207459D01*
X4742669Y5188731D01*
X4723941Y5164324D01*
X4712167Y5135901D01*
X4708152Y5105400D01*
Y5054600D01*
X4712167Y5024099D01*
X4723941Y4995676D01*
X4742669Y4971269D01*
X4767076Y4952541D01*
X4795499Y4940767D01*
X4826000Y4936752D01*
X4856501Y4940767D01*
X4884924Y4952541D01*
X4909331Y4971269D01*
X4928059Y4995676D01*
X4939833Y5024099D01*
X4943848Y5054600D01*
Y5105400D01*
X4939833Y5135901D01*
X4928059Y5164324D01*
X4909331Y5188731D01*
X4884924Y5207459D01*
X4867436Y5214703D01*
Y5723000D01*
X4864282Y5738857D01*
X4855300Y5752300D01*
X4430069Y6177531D01*
X4431039Y6184900D01*
Y6261100D01*
X4427460Y6288286D01*
X4416966Y6313619D01*
X4400274Y6335374D01*
X4378519Y6352066D01*
X4353186Y6362560D01*
X4326000Y6366139D01*
X4298814Y6362560D01*
X4273481Y6352066D01*
X4263326Y6344274D01*
X4228300Y6379300D01*
X4214857Y6388282D01*
X4199000Y6391436D01*
X4057434D01*
X4054169Y6399317D01*
X4038495Y6419745D01*
X4018067Y6435419D01*
X3994278Y6445273D01*
X3968750Y6448634D01*
X3905250D01*
X3879722Y6445273D01*
X3855933Y6435419D01*
X3835505Y6419745D01*
X3819831Y6399317D01*
X3809977Y6375528D01*
X3806616Y6350000D01*
X3809977Y6324472D01*
X3819831Y6300683D01*
X3829570Y6287990D01*
X3820002Y6279598D01*
X3552146Y6547454D01*
X3556459Y6553076D01*
X3568233Y6581499D01*
X3572248Y6612000D01*
X3568233Y6642501D01*
X3556459Y6670924D01*
X3537731Y6695331D01*
X3513324Y6714059D01*
X3484901Y6725833D01*
X3454400Y6729848D01*
X3403600D01*
X3373099Y6725833D01*
X3344676Y6714059D01*
X3320269Y6695331D01*
X3301541Y6670924D01*
X3292640Y6649436D01*
X3163361D01*
X3162795Y6651550D01*
X3146577Y6679640D01*
X3123640Y6702577D01*
X3095550Y6718795D01*
X3064218Y6727190D01*
X3031782D01*
X3000450Y6718795D01*
X2972360Y6702577D01*
X2949423Y6679640D01*
X2933205Y6651550D01*
X2924810Y6620218D01*
Y6587782D01*
X2933205Y6556450D01*
X2949423Y6528360D01*
X2972360Y6505423D01*
X3000450Y6489205D01*
X3021466Y6483574D01*
Y6470426D01*
X3000450Y6464795D01*
X2972360Y6448577D01*
X2949423Y6425640D01*
X2933205Y6397550D01*
X2924810Y6366218D01*
Y6333782D01*
X2933205Y6302450D01*
X2949423Y6274360D01*
X2972360Y6251423D01*
X3000450Y6235205D01*
X3006564Y6233567D01*
Y6113164D01*
X2764700Y5871300D01*
X2755718Y5857857D01*
X2752564Y5842000D01*
Y5334000D01*
X2754799Y5322761D01*
X2743095Y5316505D01*
X2708436Y5351164D01*
Y6840836D01*
X2938164Y7070564D01*
X6840836D01*
X7070564Y6840836D01*
Y6465737D01*
X7056099Y6463833D01*
X7027676Y6452059D01*
X7003269Y6433331D01*
X6984541Y6408924D01*
X6972767Y6380501D01*
X6968752Y6350000D01*
X6972767Y6319499D01*
X6984541Y6291076D01*
X7003269Y6266669D01*
X7027676Y6247941D01*
X7056099Y6236167D01*
X7086600Y6232152D01*
X7137400D01*
X7167901Y6236167D01*
X7196324Y6247941D01*
X7220731Y6266669D01*
X7239459Y6291076D01*
X7251233Y6319499D01*
X7255248Y6350000D01*
X7251233Y6380501D01*
X7239459Y6408924D01*
X7220731Y6433331D01*
X7196324Y6452059D01*
X7167901Y6463833D01*
X7153436Y6465737D01*
Y6857999D01*
X7153437Y6858000D01*
X7150282Y6873857D01*
X7141300Y6887300D01*
X6887300Y7141300D01*
X6873857Y7150282D01*
X6858000Y7153436D01*
X2921001D01*
X2921000Y7153437D01*
D02*
G37*
G36*
X6238382Y6212840D02*
X6207618D01*
X6177902Y6204877D01*
X6151259Y6189495D01*
X6129505Y6167741D01*
X6114123Y6141098D01*
X6113141Y6137436D01*
X5697859D01*
X5696877Y6141098D01*
X5681495Y6167741D01*
X5659741Y6189495D01*
X5633098Y6204877D01*
X5603382Y6212840D01*
X5572618D01*
X5542902Y6204877D01*
X5516259Y6189495D01*
X5494505Y6167741D01*
X5479123Y6141098D01*
X5471160Y6111382D01*
Y6080618D01*
X5479123Y6050902D01*
X5494505Y6024259D01*
X5516259Y6002505D01*
X5542902Y5987123D01*
X5572618Y5979160D01*
X5603382D01*
X5633098Y5987123D01*
X5659741Y6002505D01*
X5681495Y6024259D01*
X5696877Y6050902D01*
X5697859Y6054564D01*
X6113141D01*
X6114123Y6050902D01*
X6129505Y6024259D01*
X6151259Y6002505D01*
X6177902Y5987123D01*
X6207618Y5979160D01*
X6238382D01*
X6268098Y5987123D01*
X6294741Y6002505D01*
X6316495Y6024259D01*
X6331877Y6050902D01*
X6339840Y6080618D01*
Y6111382D01*
X6331877Y6141098D01*
X6316495Y6167741D01*
X6294741Y6189495D01*
X6268098Y6204877D01*
X6238382Y6212840D01*
D02*
G37*
G36*
X5453000Y6210300D02*
X5338700D01*
Y6096000D01*
X5453000D01*
Y6210300D01*
D02*
G37*
G36*
X5313300D02*
X5199000D01*
Y6096000D01*
X5313300D01*
Y6210300D01*
D02*
G37*
G36*
X6238382Y5958840D02*
X6207618D01*
X6177902Y5950877D01*
X6151259Y5935495D01*
X6129505Y5913741D01*
X6114123Y5887098D01*
X6113141Y5883436D01*
X5697859D01*
X5696877Y5887098D01*
X5681495Y5913741D01*
X5659741Y5935495D01*
X5633098Y5950877D01*
X5603382Y5958840D01*
X5572618D01*
X5542902Y5950877D01*
X5516259Y5935495D01*
X5494505Y5913741D01*
X5479123Y5887098D01*
X5471160Y5857382D01*
Y5826618D01*
X5479123Y5796902D01*
X5494505Y5770259D01*
X5516259Y5748505D01*
X5542902Y5733123D01*
X5572618Y5725160D01*
X5603382D01*
X5633098Y5733123D01*
X5659741Y5748505D01*
X5681495Y5770259D01*
X5696877Y5796902D01*
X5697859Y5800564D01*
X6113141D01*
X6114123Y5796902D01*
X6129505Y5770259D01*
X6151259Y5748505D01*
X6177902Y5733123D01*
X6207618Y5725160D01*
X6238382D01*
X6268098Y5733123D01*
X6294741Y5748505D01*
X6316495Y5770259D01*
X6331877Y5796902D01*
X6339840Y5826618D01*
Y5857382D01*
X6331877Y5887098D01*
X6316495Y5913741D01*
X6294741Y5935495D01*
X6268098Y5950877D01*
X6238382Y5958840D01*
D02*
G37*
G36*
X7137400Y5959848D02*
X7086600D01*
X7056099Y5955833D01*
X7027676Y5944059D01*
X7003269Y5925331D01*
X6984541Y5900924D01*
X6977297Y5883436D01*
X6858000D01*
X6842143Y5880282D01*
X6828700Y5871300D01*
X6160546Y5203146D01*
X6154924Y5207459D01*
X6126501Y5219233D01*
X6096000Y5223248D01*
X6065499Y5219233D01*
X6052344Y5213784D01*
X6045150Y5224550D01*
X6252300Y5431700D01*
X6261282Y5445143D01*
X6264436Y5461000D01*
Y5478141D01*
X6268098Y5479123D01*
X6294741Y5494505D01*
X6316495Y5516259D01*
X6331877Y5542902D01*
X6339840Y5572618D01*
Y5603382D01*
X6331877Y5633098D01*
X6316495Y5659741D01*
X6294741Y5681495D01*
X6268098Y5696877D01*
X6238382Y5704840D01*
X6207618D01*
X6177902Y5696877D01*
X6151259Y5681495D01*
X6129505Y5659741D01*
X6114123Y5633098D01*
X6106160Y5603382D01*
Y5572618D01*
X6114123Y5542902D01*
X6129505Y5516259D01*
X6151259Y5494505D01*
X6169445Y5484005D01*
X6171534Y5468134D01*
X5906546Y5203146D01*
X5900924Y5207459D01*
X5872501Y5219233D01*
X5842000Y5223248D01*
X5811499Y5219233D01*
X5783076Y5207459D01*
X5758669Y5188731D01*
X5739941Y5164324D01*
X5728167Y5135901D01*
X5724152Y5105400D01*
Y5054600D01*
X5728167Y5024099D01*
X5739941Y4995676D01*
X5758669Y4971269D01*
X5783076Y4952541D01*
X5811499Y4940767D01*
X5842000Y4936752D01*
X5872501Y4940767D01*
X5900924Y4952541D01*
X5925331Y4971269D01*
X5944059Y4995676D01*
X5955833Y5024099D01*
X5959848Y5054600D01*
Y5105400D01*
X5955910Y5135311D01*
X5976850Y5156250D01*
X5987616Y5149056D01*
X5982167Y5135901D01*
X5978152Y5105400D01*
Y5054600D01*
X5982167Y5024099D01*
X5993941Y4995676D01*
X6012669Y4971269D01*
X6037076Y4952541D01*
X6065499Y4940767D01*
X6096000Y4936752D01*
X6126501Y4940767D01*
X6154924Y4952541D01*
X6179331Y4971269D01*
X6198059Y4995676D01*
X6209833Y5024099D01*
X6213848Y5054600D01*
Y5105400D01*
X6209910Y5135311D01*
X6230850Y5156250D01*
X6241616Y5149056D01*
X6236167Y5135901D01*
X6232152Y5105400D01*
Y5054600D01*
X6236167Y5024099D01*
X6247941Y4995676D01*
X6266669Y4971269D01*
X6291076Y4952541D01*
X6319499Y4940767D01*
X6350000Y4936752D01*
X6380501Y4940767D01*
X6408924Y4952541D01*
X6433331Y4971269D01*
X6452059Y4995676D01*
X6463833Y5024099D01*
X6467848Y5054600D01*
Y5105400D01*
X6463910Y5135311D01*
X6484850Y5156250D01*
X6495616Y5149056D01*
X6490167Y5135901D01*
X6486152Y5105400D01*
Y5054600D01*
X6490167Y5024099D01*
X6501941Y4995676D01*
X6520669Y4971269D01*
X6545076Y4952541D01*
X6573499Y4940767D01*
X6604000Y4936752D01*
X6634501Y4940767D01*
X6662924Y4952541D01*
X6687331Y4971269D01*
X6706059Y4995676D01*
X6717833Y5024099D01*
X6721848Y5054600D01*
Y5105400D01*
X6717833Y5135901D01*
X6706059Y5164324D01*
X6687331Y5188731D01*
X6662924Y5207459D01*
X6634501Y5219233D01*
X6604000Y5223248D01*
X6573499Y5219233D01*
X6560344Y5213784D01*
X6553150Y5224550D01*
X6875164Y5546564D01*
X6977297D01*
X6984541Y5529076D01*
X7003269Y5504669D01*
X7027676Y5485941D01*
X7056099Y5474167D01*
X7086600Y5470152D01*
X7137400D01*
X7167901Y5474167D01*
X7196324Y5485941D01*
X7220731Y5504669D01*
X7239459Y5529076D01*
X7251233Y5557499D01*
X7255248Y5588000D01*
X7251233Y5618501D01*
X7239459Y5646924D01*
X7220731Y5671331D01*
X7196324Y5690059D01*
X7167901Y5701833D01*
X7137400Y5705848D01*
X7086600D01*
X7056099Y5701833D01*
X7027676Y5690059D01*
X7003269Y5671331D01*
X6984541Y5646924D01*
X6977297Y5629436D01*
X6858000D01*
X6842143Y5626282D01*
X6828700Y5617300D01*
X6414546Y5203146D01*
X6408924Y5207459D01*
X6380501Y5219233D01*
X6350000Y5223248D01*
X6319499Y5219233D01*
X6306344Y5213784D01*
X6299150Y5224550D01*
X6875164Y5800564D01*
X6977297D01*
X6984541Y5783076D01*
X7003269Y5758669D01*
X7027676Y5739941D01*
X7056099Y5728167D01*
X7086600Y5724152D01*
X7137400D01*
X7167901Y5728167D01*
X7196324Y5739941D01*
X7220731Y5758669D01*
X7239459Y5783076D01*
X7251233Y5811499D01*
X7255248Y5842000D01*
X7251233Y5872501D01*
X7239459Y5900924D01*
X7220731Y5925331D01*
X7196324Y5944059D01*
X7167901Y5955833D01*
X7137400Y5959848D01*
D02*
G37*
G36*
X9144000Y5223248D02*
X9113499Y5219233D01*
X9085076Y5207459D01*
X9060669Y5188731D01*
X9041941Y5164324D01*
X9030167Y5135901D01*
X9026152Y5105400D01*
Y5054600D01*
X9030167Y5024099D01*
X9041941Y4995676D01*
X9060669Y4971269D01*
X9085076Y4952541D01*
X9113499Y4940767D01*
X9144000Y4936752D01*
X9174501Y4940767D01*
X9202924Y4952541D01*
X9227331Y4971269D01*
X9246059Y4995676D01*
X9257833Y5024099D01*
X9261848Y5054600D01*
Y5105400D01*
X9257833Y5135901D01*
X9246059Y5164324D01*
X9227331Y5188731D01*
X9202924Y5207459D01*
X9174501Y5219233D01*
X9144000Y5223248D01*
D02*
G37*
G36*
X8890000D02*
X8859499Y5219233D01*
X8831076Y5207459D01*
X8806669Y5188731D01*
X8787941Y5164324D01*
X8776167Y5135901D01*
X8772152Y5105400D01*
Y5054600D01*
X8776167Y5024099D01*
X8787941Y4995676D01*
X8806669Y4971269D01*
X8831076Y4952541D01*
X8859499Y4940767D01*
X8890000Y4936752D01*
X8920501Y4940767D01*
X8948924Y4952541D01*
X8973331Y4971269D01*
X8992059Y4995676D01*
X9003833Y5024099D01*
X9007848Y5054600D01*
Y5105400D01*
X9003833Y5135901D01*
X8992059Y5164324D01*
X8973331Y5188731D01*
X8948924Y5207459D01*
X8920501Y5219233D01*
X8890000Y5223248D01*
D02*
G37*
G36*
X8636000D02*
X8605499Y5219233D01*
X8577076Y5207459D01*
X8552669Y5188731D01*
X8533941Y5164324D01*
X8522167Y5135901D01*
X8518152Y5105400D01*
Y5054600D01*
X8522167Y5024099D01*
X8533941Y4995676D01*
X8552669Y4971269D01*
X8577076Y4952541D01*
X8605499Y4940767D01*
X8636000Y4936752D01*
X8666501Y4940767D01*
X8694924Y4952541D01*
X8719331Y4971269D01*
X8738059Y4995676D01*
X8749833Y5024099D01*
X8753848Y5054600D01*
Y5105400D01*
X8749833Y5135901D01*
X8738059Y5164324D01*
X8719331Y5188731D01*
X8694924Y5207459D01*
X8666501Y5219233D01*
X8636000Y5223248D01*
D02*
G37*
G36*
X8382000D02*
X8351499Y5219233D01*
X8323076Y5207459D01*
X8298669Y5188731D01*
X8279941Y5164324D01*
X8268167Y5135901D01*
X8264152Y5105400D01*
Y5054600D01*
X8268167Y5024099D01*
X8279941Y4995676D01*
X8298669Y4971269D01*
X8323076Y4952541D01*
X8351499Y4940767D01*
X8382000Y4936752D01*
X8412501Y4940767D01*
X8440924Y4952541D01*
X8465331Y4971269D01*
X8484059Y4995676D01*
X8495833Y5024099D01*
X8499848Y5054600D01*
Y5105400D01*
X8495833Y5135901D01*
X8484059Y5164324D01*
X8465331Y5188731D01*
X8440924Y5207459D01*
X8412501Y5219233D01*
X8382000Y5223248D01*
D02*
G37*
G36*
X8128000D02*
X8097499Y5219233D01*
X8069076Y5207459D01*
X8044669Y5188731D01*
X8025941Y5164324D01*
X8014167Y5135901D01*
X8010152Y5105400D01*
Y5054600D01*
X8014167Y5024099D01*
X8025941Y4995676D01*
X8044669Y4971269D01*
X8069076Y4952541D01*
X8097499Y4940767D01*
X8128000Y4936752D01*
X8158501Y4940767D01*
X8186924Y4952541D01*
X8211331Y4971269D01*
X8230059Y4995676D01*
X8241833Y5024099D01*
X8245848Y5054600D01*
Y5105400D01*
X8241833Y5135901D01*
X8230059Y5164324D01*
X8211331Y5188731D01*
X8186924Y5207459D01*
X8158501Y5219233D01*
X8128000Y5223248D01*
D02*
G37*
G36*
X7620000D02*
X7589499Y5219233D01*
X7561076Y5207459D01*
X7536669Y5188731D01*
X7517941Y5164324D01*
X7506167Y5135901D01*
X7502152Y5105400D01*
Y5054600D01*
X7506167Y5024099D01*
X7517941Y4995676D01*
X7536669Y4971269D01*
X7561076Y4952541D01*
X7589499Y4940767D01*
X7620000Y4936752D01*
X7650501Y4940767D01*
X7678924Y4952541D01*
X7703331Y4971269D01*
X7722059Y4995676D01*
X7733833Y5024099D01*
X7737848Y5054600D01*
Y5105400D01*
X7733833Y5135901D01*
X7722059Y5164324D01*
X7703331Y5188731D01*
X7678924Y5207459D01*
X7650501Y5219233D01*
X7620000Y5223248D01*
D02*
G37*
G36*
X7366000D02*
X7335499Y5219233D01*
X7307076Y5207459D01*
X7282669Y5188731D01*
X7263941Y5164324D01*
X7252167Y5135901D01*
X7248152Y5105400D01*
Y5054600D01*
X7252167Y5024099D01*
X7263941Y4995676D01*
X7282669Y4971269D01*
X7307076Y4952541D01*
X7335499Y4940767D01*
X7366000Y4936752D01*
X7396501Y4940767D01*
X7424924Y4952541D01*
X7449331Y4971269D01*
X7468059Y4995676D01*
X7479833Y5024099D01*
X7483848Y5054600D01*
Y5105400D01*
X7479833Y5135901D01*
X7468059Y5164324D01*
X7449331Y5188731D01*
X7424924Y5207459D01*
X7396501Y5219233D01*
X7366000Y5223248D01*
D02*
G37*
G36*
X7112000D02*
X7081499Y5219233D01*
X7053076Y5207459D01*
X7028669Y5188731D01*
X7009941Y5164324D01*
X6998167Y5135901D01*
X6994152Y5105400D01*
Y5054600D01*
X6998167Y5024099D01*
X7009941Y4995676D01*
X7028669Y4971269D01*
X7053076Y4952541D01*
X7081499Y4940767D01*
X7112000Y4936752D01*
X7142501Y4940767D01*
X7170924Y4952541D01*
X7195331Y4971269D01*
X7214059Y4995676D01*
X7225833Y5024099D01*
X7229848Y5054600D01*
Y5105400D01*
X7225833Y5135901D01*
X7214059Y5164324D01*
X7195331Y5188731D01*
X7170924Y5207459D01*
X7142501Y5219233D01*
X7112000Y5223248D01*
D02*
G37*
G36*
X5603382Y5704840D02*
X5572618D01*
X5542902Y5696877D01*
X5516259Y5681495D01*
X5494505Y5659741D01*
X5479123Y5633098D01*
X5471160Y5603382D01*
Y5572618D01*
X5479123Y5542902D01*
X5494505Y5516259D01*
X5516259Y5494505D01*
X5542902Y5479123D01*
X5546564Y5478141D01*
Y5214703D01*
X5529076Y5207459D01*
X5504669Y5188731D01*
X5485941Y5164324D01*
X5474167Y5135901D01*
X5470152Y5105400D01*
Y5054600D01*
X5474167Y5024099D01*
X5485941Y4995676D01*
X5504669Y4971269D01*
X5529076Y4952541D01*
X5557499Y4940767D01*
X5588000Y4936752D01*
X5618501Y4940767D01*
X5646924Y4952541D01*
X5671331Y4971269D01*
X5690059Y4995676D01*
X5701833Y5024099D01*
X5705848Y5054600D01*
Y5105400D01*
X5701833Y5135901D01*
X5690059Y5164324D01*
X5671331Y5188731D01*
X5646924Y5207459D01*
X5629436Y5214703D01*
Y5478141D01*
X5633098Y5479123D01*
X5659741Y5494505D01*
X5681495Y5516259D01*
X5696877Y5542902D01*
X5704840Y5572618D01*
Y5603382D01*
X5696877Y5633098D01*
X5681495Y5659741D01*
X5659741Y5681495D01*
X5633098Y5696877D01*
X5603382Y5704840D01*
D02*
G37*
G36*
X4805350Y4922217D02*
X4792650D01*
X4768779Y4919074D01*
X4746535Y4909860D01*
X4727434Y4895204D01*
X4712777Y4876102D01*
X4705873Y4859435D01*
X4692127D01*
X4685223Y4876102D01*
X4670566Y4895204D01*
X4651465Y4909860D01*
X4629221Y4919074D01*
X4605350Y4922217D01*
X4592650D01*
X4568780Y4919074D01*
X4546536Y4909860D01*
X4527434Y4895204D01*
X4512778Y4876102D01*
X4503564Y4853858D01*
X4500421Y4829988D01*
X4503564Y4806117D01*
X4512778Y4783873D01*
X4527434Y4764772D01*
X4546536Y4750115D01*
X4568780Y4740902D01*
X4592650Y4737759D01*
X4605350D01*
X4629221Y4740902D01*
X4651465Y4750115D01*
X4670566Y4764772D01*
X4685223Y4783873D01*
X4692127Y4800541D01*
X4705873D01*
X4712777Y4783873D01*
X4727434Y4764772D01*
X4746535Y4750115D01*
X4768779Y4740902D01*
X4792650Y4737759D01*
X4805350D01*
X4829220Y4740902D01*
X4851464Y4750115D01*
X4870566Y4764772D01*
X4885222Y4783873D01*
X4894436Y4806117D01*
X4897579Y4829988D01*
X4894436Y4853858D01*
X4885222Y4876102D01*
X4870566Y4895204D01*
X4851464Y4909860D01*
X4829220Y4919074D01*
X4805350Y4922217D01*
D02*
G37*
G36*
X7874000Y5223248D02*
X7843499Y5219233D01*
X7815076Y5207459D01*
X7790669Y5188731D01*
X7771941Y5164324D01*
X7760167Y5135901D01*
X7756152Y5105400D01*
Y5054600D01*
X7760167Y5024099D01*
X7771941Y4995676D01*
X7790669Y4971269D01*
X7815076Y4952541D01*
X7817429Y4951566D01*
X7815334Y4938687D01*
X7789676Y4928059D01*
X7765269Y4909331D01*
X7746541Y4884924D01*
X7734767Y4856501D01*
X7730752Y4826000D01*
X7734767Y4795499D01*
X7746541Y4767076D01*
X7765269Y4742669D01*
X7789676Y4723941D01*
X7818099Y4712167D01*
X7848600Y4708152D01*
X7899400D01*
X7929901Y4712167D01*
X7958324Y4723941D01*
X7982731Y4742669D01*
X8001459Y4767076D01*
X8013233Y4795499D01*
X8017248Y4826000D01*
X8013233Y4856501D01*
X8001459Y4884924D01*
X7982731Y4909331D01*
X7958324Y4928059D01*
X7932666Y4938687D01*
X7930571Y4951566D01*
X7932924Y4952541D01*
X7957331Y4971269D01*
X7976059Y4995676D01*
X7987833Y5024099D01*
X7991848Y5054600D01*
Y5105400D01*
X7987833Y5135901D01*
X7976059Y5164324D01*
X7957331Y5188731D01*
X7932924Y5207459D01*
X7904501Y5219233D01*
X7874000Y5223248D01*
D02*
G37*
G36*
X3581400Y4943848D02*
X3530600D01*
X3500099Y4939833D01*
X3471676Y4928059D01*
X3447269Y4909331D01*
X3428541Y4884924D01*
X3416767Y4856501D01*
X3412752Y4826000D01*
X3416767Y4795499D01*
X3428541Y4767076D01*
X3447269Y4742669D01*
X3471676Y4723941D01*
X3500099Y4712167D01*
X3530600Y4708152D01*
X3581400D01*
X3611901Y4712167D01*
X3640324Y4723941D01*
X3664731Y4742669D01*
X3683459Y4767076D01*
X3695233Y4795499D01*
X3699248Y4826000D01*
X3695233Y4856501D01*
X3683459Y4884924D01*
X3664731Y4909331D01*
X3640324Y4928059D01*
X3611901Y4939833D01*
X3581400Y4943848D01*
D02*
G37*
G36*
X4805350Y4722217D02*
X4792650D01*
X4768779Y4719074D01*
X4746535Y4709861D01*
X4727434Y4695204D01*
X4712777Y4676103D01*
X4705873Y4659435D01*
X4692127D01*
X4685223Y4676103D01*
X4670566Y4695204D01*
X4651465Y4709861D01*
X4629221Y4719074D01*
X4605350Y4722217D01*
X4592650D01*
X4568780Y4719074D01*
X4546536Y4709861D01*
X4527434Y4695204D01*
X4512778Y4676103D01*
X4503564Y4653859D01*
X4500421Y4629988D01*
X4503564Y4606118D01*
X4512778Y4583874D01*
X4527434Y4564772D01*
X4546536Y4550116D01*
X4568780Y4540902D01*
X4592650Y4537759D01*
X4605350D01*
X4629221Y4540902D01*
X4651465Y4550116D01*
X4670566Y4564772D01*
X4685223Y4583874D01*
X4692127Y4600541D01*
X4705873D01*
X4712777Y4583874D01*
X4727434Y4564772D01*
X4746535Y4550116D01*
X4768779Y4540902D01*
X4792650Y4537759D01*
X4805350D01*
X4829220Y4540902D01*
X4851464Y4550116D01*
X4870566Y4564772D01*
X4885222Y4583874D01*
X4894436Y4606118D01*
X4897579Y4629988D01*
X4894436Y4653859D01*
X4885222Y4676103D01*
X4870566Y4695204D01*
X4851464Y4709861D01*
X4829220Y4719074D01*
X4805350Y4722217D01*
D02*
G37*
G36*
Y4522218D02*
X4792650D01*
X4768779Y4519075D01*
X4746535Y4509861D01*
X4727434Y4495204D01*
X4712777Y4476103D01*
X4705873Y4459435D01*
X4692127D01*
X4685223Y4476103D01*
X4670566Y4495204D01*
X4651465Y4509861D01*
X4629221Y4519075D01*
X4605350Y4522218D01*
X4592650D01*
X4568780Y4519075D01*
X4546536Y4509861D01*
X4527434Y4495204D01*
X4512778Y4476103D01*
X4503564Y4453859D01*
X4500421Y4429989D01*
X4503564Y4406118D01*
X4512778Y4383874D01*
X4527434Y4364773D01*
X4546536Y4350116D01*
X4568780Y4340902D01*
X4592650Y4337760D01*
X4605350D01*
X4629221Y4340902D01*
X4651465Y4350116D01*
X4670566Y4364773D01*
X4685223Y4383874D01*
X4692127Y4400542D01*
X4705873D01*
X4712777Y4383874D01*
X4727434Y4364773D01*
X4746535Y4350116D01*
X4768779Y4340902D01*
X4792650Y4337760D01*
X4805350D01*
X4829220Y4340902D01*
X4851464Y4350116D01*
X4870566Y4364773D01*
X4885222Y4383874D01*
X4894436Y4406118D01*
X4897579Y4429989D01*
X4894436Y4453859D01*
X4885222Y4476103D01*
X4870566Y4495204D01*
X4851464Y4509861D01*
X4829220Y4519075D01*
X4805350Y4522218D01*
D02*
G37*
G36*
X7899400Y4689848D02*
X7848600D01*
X7818099Y4685833D01*
X7789676Y4674059D01*
X7765269Y4655331D01*
X7746541Y4630924D01*
X7734767Y4602501D01*
X7730752Y4572000D01*
X7734767Y4541499D01*
X7746541Y4513076D01*
X7765269Y4488669D01*
X7789676Y4469941D01*
X7818099Y4458167D01*
X7848600Y4454152D01*
X7899400D01*
X7929901Y4458167D01*
X7958324Y4469941D01*
X7982731Y4488669D01*
X8001459Y4513076D01*
X8013233Y4541499D01*
X8017248Y4572000D01*
X8013233Y4602501D01*
X8001459Y4630924D01*
X7982731Y4655331D01*
X7958324Y4674059D01*
X7929901Y4685833D01*
X7899400Y4689848D01*
D02*
G37*
G36*
X3369462Y4516634D02*
X3280562D01*
X3255034Y4513273D01*
X3231246Y4503419D01*
X3210818Y4487744D01*
X3195143Y4467317D01*
X3185290Y4443528D01*
X3181929Y4418000D01*
X3185290Y4392472D01*
X3195143Y4368683D01*
X3210818Y4348255D01*
X3231246Y4332580D01*
X3249853Y4324873D01*
Y4311127D01*
X3231246Y4303420D01*
X3210818Y4287745D01*
X3195143Y4267317D01*
X3185290Y4243528D01*
X3181929Y4218000D01*
X3185290Y4192472D01*
X3195143Y4168683D01*
X3210818Y4148256D01*
X3231246Y4132581D01*
X3255034Y4122727D01*
X3280562Y4119366D01*
X3369462D01*
X3394991Y4122727D01*
X3418779Y4132581D01*
X3439207Y4148256D01*
X3454882Y4168683D01*
X3464735Y4192472D01*
X3468096Y4218000D01*
X3464735Y4243528D01*
X3454882Y4267317D01*
X3439207Y4287745D01*
X3418779Y4303420D01*
X3400172Y4311127D01*
Y4324873D01*
X3418779Y4332580D01*
X3439207Y4348255D01*
X3454882Y4368683D01*
X3464735Y4392472D01*
X3468096Y4418000D01*
X3464735Y4443528D01*
X3454882Y4467317D01*
X3439207Y4487744D01*
X3418779Y4503419D01*
X3394991Y4513273D01*
X3369462Y4516634D01*
D02*
G37*
G36*
X5334000Y5223248D02*
X5303499Y5219233D01*
X5275076Y5207459D01*
X5250669Y5188731D01*
X5231941Y5164324D01*
X5220167Y5135901D01*
X5216152Y5105400D01*
Y5054600D01*
X5220167Y5024099D01*
X5231941Y4995676D01*
X5250669Y4971269D01*
X5275076Y4952541D01*
X5292564Y4945297D01*
Y4335164D01*
X5062836Y4105436D01*
X3683001D01*
X3683000Y4105437D01*
X3667143Y4102282D01*
X3653700Y4093300D01*
X3411836Y3851436D01*
X3175000D01*
X3159143Y3848282D01*
X3145700Y3839300D01*
X3018700Y3712300D01*
X3009718Y3698857D01*
X3006564Y3683000D01*
Y3429000D01*
X3009718Y3413143D01*
X3018700Y3399700D01*
X3145700Y3272700D01*
X3159143Y3263718D01*
X3175000Y3260564D01*
X5316836D01*
X5399860Y3177540D01*
X5394600Y3164840D01*
X5336160D01*
Y2931160D01*
X5569840D01*
Y3164840D01*
X5494436D01*
Y3183000D01*
X5491282Y3198857D01*
X5482300Y3212300D01*
X5363300Y3331300D01*
X5349857Y3340282D01*
X5334000Y3343436D01*
X3192164D01*
X3089436Y3446164D01*
Y3665836D01*
X3192164Y3768564D01*
X3429000D01*
X3444857Y3771718D01*
X3458300Y3780700D01*
X3700164Y4022564D01*
X5080000D01*
X5095857Y4025718D01*
X5109300Y4034700D01*
X5363300Y4288700D01*
X5372282Y4302143D01*
X5375437Y4318000D01*
X5375436Y4318001D01*
Y4945297D01*
X5392924Y4952541D01*
X5417331Y4971269D01*
X5436059Y4995676D01*
X5447833Y5024099D01*
X5451848Y5054600D01*
Y5105400D01*
X5447833Y5135901D01*
X5436059Y5164324D01*
X5417331Y5188731D01*
X5392924Y5207459D01*
X5364501Y5219233D01*
X5334000Y5223248D01*
D02*
G37*
G36*
X7957820Y4180840D02*
X7790180D01*
X7731760Y4122420D01*
Y4005580D01*
X7790180Y3947160D01*
X7957820D01*
X8016240Y4005580D01*
Y4122420D01*
X7957820Y4180840D01*
D02*
G37*
G36*
X4445000Y3999248D02*
X4414499Y3995232D01*
X4386076Y3983459D01*
X4361669Y3964731D01*
X4342941Y3940323D01*
X4331167Y3911901D01*
X4327152Y3881399D01*
Y3830599D01*
X4331167Y3800098D01*
X4342941Y3771675D01*
X4361669Y3747268D01*
X4386076Y3728540D01*
X4414499Y3716767D01*
X4445000Y3712751D01*
X4475501Y3716767D01*
X4503924Y3728540D01*
X4528331Y3747268D01*
X4547059Y3771675D01*
X4558833Y3800098D01*
X4562848Y3830599D01*
Y3881399D01*
X4558833Y3911901D01*
X4547059Y3940323D01*
X4528331Y3964731D01*
X4503924Y3983459D01*
X4475501Y3995232D01*
X4445000Y3999248D01*
D02*
G37*
G36*
X4191000D02*
X4160499Y3995232D01*
X4132076Y3983459D01*
X4107669Y3964731D01*
X4088941Y3940323D01*
X4077167Y3911901D01*
X4073152Y3881399D01*
Y3830599D01*
X4077167Y3800098D01*
X4088941Y3771675D01*
X4107669Y3747268D01*
X4132076Y3728540D01*
X4160499Y3716767D01*
X4191000Y3712751D01*
X4221501Y3716767D01*
X4249924Y3728540D01*
X4274331Y3747268D01*
X4293059Y3771675D01*
X4304833Y3800098D01*
X4308848Y3830599D01*
Y3881399D01*
X4304833Y3911901D01*
X4293059Y3940323D01*
X4274331Y3964731D01*
X4249924Y3983459D01*
X4221501Y3995232D01*
X4191000Y3999248D01*
D02*
G37*
G36*
X3937000D02*
X3906499Y3995232D01*
X3878076Y3983459D01*
X3853669Y3964731D01*
X3834941Y3940323D01*
X3823167Y3911901D01*
X3819152Y3881399D01*
Y3830599D01*
X3823167Y3800098D01*
X3834941Y3771675D01*
X3853669Y3747268D01*
X3878076Y3728540D01*
X3906499Y3716767D01*
X3937000Y3712751D01*
X3967501Y3716767D01*
X3995924Y3728540D01*
X4020331Y3747268D01*
X4039059Y3771675D01*
X4050833Y3800098D01*
X4054848Y3830599D01*
Y3881399D01*
X4050833Y3911901D01*
X4039059Y3940323D01*
X4020331Y3964731D01*
X3995924Y3983459D01*
X3967501Y3995232D01*
X3937000Y3999248D01*
D02*
G37*
G36*
X7112000Y3699248D02*
X7081499Y3695233D01*
X7053076Y3683459D01*
X7028669Y3664731D01*
X7009941Y3640324D01*
X7000240Y3616905D01*
X6987540Y3619431D01*
Y3620770D01*
X6922770Y3685540D01*
X6793230D01*
X6728460Y3620770D01*
Y3619431D01*
X6715760Y3616905D01*
X6706059Y3640324D01*
X6687331Y3664731D01*
X6662924Y3683459D01*
X6634501Y3695233D01*
X6604000Y3699248D01*
X6573499Y3695233D01*
X6545076Y3683459D01*
X6520669Y3664731D01*
X6501941Y3640324D01*
X6490167Y3611901D01*
X6486152Y3581400D01*
Y3530600D01*
X6490167Y3500099D01*
X6501941Y3471676D01*
X6520669Y3447269D01*
X6545076Y3428541D01*
X6573499Y3416767D01*
X6604000Y3412752D01*
X6634501Y3416767D01*
X6662924Y3428541D01*
X6687331Y3447269D01*
X6706059Y3471676D01*
X6715760Y3495095D01*
X6728460Y3492569D01*
Y3491230D01*
X6793230Y3426460D01*
X6922770D01*
X6987540Y3491230D01*
Y3492569D01*
X7000240Y3495095D01*
X7009941Y3471676D01*
X7028669Y3447269D01*
X7053076Y3428541D01*
X7070564Y3421297D01*
Y2835436D01*
X6966840D01*
Y2910840D01*
X6733160D01*
Y2677160D01*
X6966840D01*
Y2752564D01*
X7645141D01*
X7646123Y2748902D01*
X7661505Y2722259D01*
X7683259Y2700505D01*
X7709902Y2685123D01*
X7739618Y2677160D01*
X7770382D01*
X7800098Y2685123D01*
X7826741Y2700505D01*
X7848495Y2722259D01*
X7863877Y2748902D01*
X7871840Y2778618D01*
Y2809382D01*
X7863877Y2839098D01*
X7848495Y2865741D01*
X7826741Y2887495D01*
X7800098Y2902877D01*
X7770382Y2910840D01*
X7739618D01*
X7709902Y2902877D01*
X7683259Y2887495D01*
X7661505Y2865741D01*
X7646123Y2839098D01*
X7645141Y2835436D01*
X7153436D01*
Y3421297D01*
X7170924Y3428541D01*
X7195331Y3447269D01*
X7214059Y3471676D01*
X7225833Y3500099D01*
X7229848Y3530600D01*
Y3581400D01*
X7225833Y3611901D01*
X7214059Y3640324D01*
X7195331Y3664731D01*
X7170924Y3683459D01*
X7142501Y3695233D01*
X7112000Y3699248D01*
D02*
G37*
G36*
X5080000D02*
X5049499Y3695233D01*
X5021076Y3683459D01*
X4996669Y3664731D01*
X4977941Y3640324D01*
X4966167Y3611901D01*
X4963657Y3592832D01*
X4950621Y3591116D01*
X4940759Y3614924D01*
X4922031Y3639331D01*
X4897624Y3658059D01*
X4869201Y3669833D01*
X4838700Y3673848D01*
X4813300D01*
X4782799Y3669833D01*
X4754376Y3658059D01*
X4729969Y3639331D01*
X4711241Y3614924D01*
X4705612Y3601335D01*
X4691865D01*
X4687563Y3611722D01*
X4669852Y3634802D01*
X4646772Y3652513D01*
X4619894Y3663646D01*
X4591050Y3667444D01*
X4552950D01*
X4524106Y3663646D01*
X4497228Y3652513D01*
X4474148Y3634802D01*
X4456437Y3611722D01*
X4447505Y3590158D01*
X4434469Y3591874D01*
X4431833Y3611901D01*
X4420059Y3640324D01*
X4401331Y3664731D01*
X4376924Y3683459D01*
X4348501Y3695233D01*
X4318000Y3699248D01*
X4287499Y3695233D01*
X4259076Y3683459D01*
X4234669Y3664731D01*
X4215941Y3640324D01*
X4204167Y3611901D01*
X4200152Y3581400D01*
Y3530600D01*
X4204167Y3500099D01*
X4215941Y3471676D01*
X4234669Y3447269D01*
X4259076Y3428541D01*
X4287499Y3416767D01*
X4318000Y3412752D01*
X4348501Y3416767D01*
X4376924Y3428541D01*
X4401331Y3447269D01*
X4420059Y3471676D01*
X4431833Y3500099D01*
X4434469Y3520126D01*
X4447505Y3521842D01*
X4456437Y3500278D01*
X4474148Y3477198D01*
X4497228Y3459487D01*
X4524106Y3448354D01*
X4552950Y3444556D01*
X4591050D01*
X4619894Y3448354D01*
X4646772Y3459487D01*
X4669852Y3477198D01*
X4687563Y3500278D01*
X4691865Y3510665D01*
X4705612D01*
X4711241Y3497076D01*
X4729969Y3472669D01*
X4754376Y3453941D01*
X4782799Y3442167D01*
X4813300Y3438152D01*
X4838700D01*
X4869201Y3442167D01*
X4897624Y3453941D01*
X4922031Y3472669D01*
X4940759Y3497076D01*
X4950621Y3520884D01*
X4963657Y3519168D01*
X4966167Y3500099D01*
X4977941Y3471676D01*
X4996669Y3447269D01*
X5021076Y3428541D01*
X5049499Y3416767D01*
X5080000Y3412752D01*
X5110501Y3416767D01*
X5138924Y3428541D01*
X5163331Y3447269D01*
X5182059Y3471676D01*
X5193833Y3500099D01*
X5197848Y3530600D01*
Y3581400D01*
X5193833Y3611901D01*
X5182059Y3640324D01*
X5163331Y3664731D01*
X5138924Y3683459D01*
X5110501Y3695233D01*
X5080000Y3699248D01*
D02*
G37*
G36*
X3556000Y3699194D02*
X3527156Y3695396D01*
X3500278Y3684263D01*
X3477198Y3666552D01*
X3459487Y3643472D01*
X3448354Y3616594D01*
X3444556Y3587750D01*
Y3524250D01*
X3448354Y3495406D01*
X3459487Y3468528D01*
X3477198Y3445448D01*
X3500278Y3427737D01*
X3527156Y3416604D01*
X3556000Y3412806D01*
X3584844Y3416604D01*
X3611722Y3427737D01*
X3634802Y3445448D01*
X3652513Y3468528D01*
X3663646Y3495406D01*
X3667444Y3524250D01*
Y3587750D01*
X3663646Y3616594D01*
X3652513Y3643472D01*
X3634802Y3666552D01*
X3611722Y3684263D01*
X3584844Y3695396D01*
X3556000Y3699194D01*
D02*
G37*
G36*
X9144000Y3699248D02*
X9113499Y3695233D01*
X9085076Y3683459D01*
X9060669Y3664731D01*
X9041941Y3640324D01*
X9030167Y3611901D01*
X9026152Y3581400D01*
Y3530600D01*
X9030167Y3500099D01*
X9041941Y3471676D01*
X9060669Y3447269D01*
X9085076Y3428541D01*
X9113499Y3416767D01*
X9144000Y3412752D01*
X9174501Y3416767D01*
X9202924Y3428541D01*
X9227331Y3447269D01*
X9246059Y3471676D01*
X9257833Y3500099D01*
X9261848Y3530600D01*
Y3581400D01*
X9257833Y3611901D01*
X9246059Y3640324D01*
X9227331Y3664731D01*
X9202924Y3683459D01*
X9174501Y3695233D01*
X9144000Y3699248D01*
D02*
G37*
G36*
X8890000D02*
X8859499Y3695233D01*
X8831076Y3683459D01*
X8806669Y3664731D01*
X8787941Y3640324D01*
X8776167Y3611901D01*
X8772152Y3581400D01*
Y3530600D01*
X8776167Y3500099D01*
X8787941Y3471676D01*
X8806669Y3447269D01*
X8831076Y3428541D01*
X8859499Y3416767D01*
X8890000Y3412752D01*
X8920501Y3416767D01*
X8948924Y3428541D01*
X8973331Y3447269D01*
X8992059Y3471676D01*
X9003833Y3500099D01*
X9007848Y3530600D01*
Y3581400D01*
X9003833Y3611901D01*
X8992059Y3640324D01*
X8973331Y3664731D01*
X8948924Y3683459D01*
X8920501Y3695233D01*
X8890000Y3699248D01*
D02*
G37*
G36*
X8636000D02*
X8605499Y3695233D01*
X8577076Y3683459D01*
X8552669Y3664731D01*
X8533941Y3640324D01*
X8522167Y3611901D01*
X8518152Y3581400D01*
Y3530600D01*
X8522167Y3500099D01*
X8533941Y3471676D01*
X8552669Y3447269D01*
X8577076Y3428541D01*
X8605499Y3416767D01*
X8636000Y3412752D01*
X8666501Y3416767D01*
X8694924Y3428541D01*
X8719331Y3447269D01*
X8738059Y3471676D01*
X8749833Y3500099D01*
X8753848Y3530600D01*
Y3581400D01*
X8749833Y3611901D01*
X8738059Y3640324D01*
X8719331Y3664731D01*
X8694924Y3683459D01*
X8666501Y3695233D01*
X8636000Y3699248D01*
D02*
G37*
G36*
X8382000D02*
X8351499Y3695233D01*
X8323076Y3683459D01*
X8298669Y3664731D01*
X8279941Y3640324D01*
X8268167Y3611901D01*
X8264152Y3581400D01*
Y3530600D01*
X8268167Y3500099D01*
X8279941Y3471676D01*
X8298669Y3447269D01*
X8323076Y3428541D01*
X8351499Y3416767D01*
X8382000Y3412752D01*
X8412501Y3416767D01*
X8440924Y3428541D01*
X8465331Y3447269D01*
X8484059Y3471676D01*
X8495833Y3500099D01*
X8499848Y3530600D01*
Y3581400D01*
X8495833Y3611901D01*
X8484059Y3640324D01*
X8465331Y3664731D01*
X8440924Y3683459D01*
X8412501Y3695233D01*
X8382000Y3699248D01*
D02*
G37*
G36*
X8128000D02*
X8097499Y3695233D01*
X8069076Y3683459D01*
X8044669Y3664731D01*
X8025941Y3640324D01*
X8014167Y3611901D01*
X8010152Y3581400D01*
Y3530600D01*
X8014167Y3500099D01*
X8025941Y3471676D01*
X8044669Y3447269D01*
X8069076Y3428541D01*
X8097499Y3416767D01*
X8128000Y3412752D01*
X8158501Y3416767D01*
X8186924Y3428541D01*
X8211331Y3447269D01*
X8230059Y3471676D01*
X8241833Y3500099D01*
X8245848Y3530600D01*
Y3581400D01*
X8241833Y3611901D01*
X8230059Y3640324D01*
X8211331Y3664731D01*
X8186924Y3683459D01*
X8158501Y3695233D01*
X8128000Y3699248D01*
D02*
G37*
G36*
X7899400Y3927848D02*
X7848600D01*
X7818099Y3923833D01*
X7789676Y3912059D01*
X7765269Y3893331D01*
X7746541Y3868924D01*
X7734767Y3840501D01*
X7730752Y3810000D01*
X7734767Y3779499D01*
X7746541Y3751076D01*
X7765269Y3726669D01*
X7789676Y3707941D01*
X7815334Y3697313D01*
X7817429Y3684434D01*
X7815076Y3683459D01*
X7790669Y3664731D01*
X7771941Y3640324D01*
X7760167Y3611901D01*
X7756152Y3581400D01*
Y3530600D01*
X7760167Y3500099D01*
X7771941Y3471676D01*
X7790669Y3447269D01*
X7815076Y3428541D01*
X7843499Y3416767D01*
X7874000Y3412752D01*
X7904501Y3416767D01*
X7932924Y3428541D01*
X7957331Y3447269D01*
X7976059Y3471676D01*
X7987833Y3500099D01*
X7991848Y3530600D01*
Y3581400D01*
X7987833Y3611901D01*
X7976059Y3640324D01*
X7957331Y3664731D01*
X7932924Y3683459D01*
X7930571Y3684434D01*
X7932666Y3697313D01*
X7958324Y3707941D01*
X7982731Y3726669D01*
X8001459Y3751076D01*
X8013233Y3779499D01*
X8017248Y3810000D01*
X8013233Y3840501D01*
X8001459Y3868924D01*
X7982731Y3893331D01*
X7958324Y3912059D01*
X7929901Y3923833D01*
X7899400Y3927848D01*
D02*
G37*
G36*
X7620000Y3699248D02*
X7589499Y3695233D01*
X7561076Y3683459D01*
X7536669Y3664731D01*
X7517941Y3640324D01*
X7506167Y3611901D01*
X7502152Y3581400D01*
Y3530600D01*
X7506167Y3500099D01*
X7517941Y3471676D01*
X7536669Y3447269D01*
X7561076Y3428541D01*
X7589499Y3416767D01*
X7620000Y3412752D01*
X7650501Y3416767D01*
X7678924Y3428541D01*
X7703331Y3447269D01*
X7722059Y3471676D01*
X7733833Y3500099D01*
X7737848Y3530600D01*
Y3581400D01*
X7733833Y3611901D01*
X7722059Y3640324D01*
X7703331Y3664731D01*
X7678924Y3683459D01*
X7650501Y3695233D01*
X7620000Y3699248D01*
D02*
G37*
G36*
X7366000D02*
X7335499Y3695233D01*
X7307076Y3683459D01*
X7282669Y3664731D01*
X7263941Y3640324D01*
X7252167Y3611901D01*
X7248152Y3581400D01*
Y3530600D01*
X7252167Y3500099D01*
X7263941Y3471676D01*
X7282669Y3447269D01*
X7307076Y3428541D01*
X7335499Y3416767D01*
X7366000Y3412752D01*
X7396501Y3416767D01*
X7424924Y3428541D01*
X7449331Y3447269D01*
X7468059Y3471676D01*
X7479833Y3500099D01*
X7483848Y3530600D01*
Y3581400D01*
X7479833Y3611901D01*
X7468059Y3640324D01*
X7449331Y3664731D01*
X7424924Y3683459D01*
X7396501Y3695233D01*
X7366000Y3699248D01*
D02*
G37*
G36*
X6350000D02*
X6319499Y3695233D01*
X6291076Y3683459D01*
X6266669Y3664731D01*
X6247941Y3640324D01*
X6236167Y3611901D01*
X6232152Y3581400D01*
Y3530600D01*
X6236167Y3500099D01*
X6247941Y3471676D01*
X6266669Y3447269D01*
X6291076Y3428541D01*
X6319499Y3416767D01*
X6350000Y3412752D01*
X6380501Y3416767D01*
X6408924Y3428541D01*
X6433331Y3447269D01*
X6452059Y3471676D01*
X6463833Y3500099D01*
X6467848Y3530600D01*
Y3581400D01*
X6463833Y3611901D01*
X6452059Y3640324D01*
X6433331Y3664731D01*
X6408924Y3683459D01*
X6380501Y3695233D01*
X6350000Y3699248D01*
D02*
G37*
G36*
X6096000D02*
X6065499Y3695233D01*
X6037076Y3683459D01*
X6012669Y3664731D01*
X5993941Y3640324D01*
X5982167Y3611901D01*
X5978152Y3581400D01*
Y3530600D01*
X5982167Y3500099D01*
X5993941Y3471676D01*
X6012669Y3447269D01*
X6037076Y3428541D01*
X6065499Y3416767D01*
X6096000Y3412752D01*
X6126501Y3416767D01*
X6154924Y3428541D01*
X6179331Y3447269D01*
X6198059Y3471676D01*
X6209833Y3500099D01*
X6213848Y3530600D01*
Y3581400D01*
X6209833Y3611901D01*
X6198059Y3640324D01*
X6179331Y3664731D01*
X6154924Y3683459D01*
X6126501Y3695233D01*
X6096000Y3699248D01*
D02*
G37*
G36*
X5842000D02*
X5811499Y3695233D01*
X5783076Y3683459D01*
X5758669Y3664731D01*
X5739941Y3640324D01*
X5728167Y3611901D01*
X5724152Y3581400D01*
Y3530600D01*
X5728167Y3500099D01*
X5739941Y3471676D01*
X5758669Y3447269D01*
X5783076Y3428541D01*
X5811499Y3416767D01*
X5842000Y3412752D01*
X5872501Y3416767D01*
X5900924Y3428541D01*
X5925331Y3447269D01*
X5944059Y3471676D01*
X5955833Y3500099D01*
X5959848Y3530600D01*
Y3581400D01*
X5955833Y3611901D01*
X5944059Y3640324D01*
X5925331Y3664731D01*
X5900924Y3683459D01*
X5872501Y3695233D01*
X5842000Y3699248D01*
D02*
G37*
G36*
X5588000D02*
X5557499Y3695233D01*
X5529076Y3683459D01*
X5504669Y3664731D01*
X5485941Y3640324D01*
X5474167Y3611901D01*
X5470152Y3581400D01*
Y3530600D01*
X5474167Y3500099D01*
X5485941Y3471676D01*
X5504669Y3447269D01*
X5529076Y3428541D01*
X5557499Y3416767D01*
X5588000Y3412752D01*
X5618501Y3416767D01*
X5646924Y3428541D01*
X5671331Y3447269D01*
X5690059Y3471676D01*
X5701833Y3500099D01*
X5705848Y3530600D01*
Y3581400D01*
X5701833Y3611901D01*
X5690059Y3640324D01*
X5671331Y3664731D01*
X5646924Y3683459D01*
X5618501Y3695233D01*
X5588000Y3699248D01*
D02*
G37*
G36*
X5334000D02*
X5303499Y3695233D01*
X5275076Y3683459D01*
X5250669Y3664731D01*
X5231941Y3640324D01*
X5220167Y3611901D01*
X5216152Y3581400D01*
Y3530600D01*
X5220167Y3500099D01*
X5231941Y3471676D01*
X5250669Y3447269D01*
X5275076Y3428541D01*
X5303499Y3416767D01*
X5334000Y3412752D01*
X5364501Y3416767D01*
X5392924Y3428541D01*
X5417331Y3447269D01*
X5436059Y3471676D01*
X5447833Y3500099D01*
X5451848Y3530600D01*
Y3581400D01*
X5447833Y3611901D01*
X5436059Y3640324D01*
X5417331Y3664731D01*
X5392924Y3683459D01*
X5364501Y3695233D01*
X5334000Y3699248D01*
D02*
G37*
G36*
X4064000D02*
X4033499Y3695233D01*
X4005076Y3683459D01*
X3980669Y3664731D01*
X3961941Y3640324D01*
X3950167Y3611901D01*
X3946152Y3581400D01*
Y3530600D01*
X3950167Y3500099D01*
X3961941Y3471676D01*
X3980669Y3447269D01*
X4005076Y3428541D01*
X4033499Y3416767D01*
X4064000Y3412752D01*
X4094501Y3416767D01*
X4122924Y3428541D01*
X4147331Y3447269D01*
X4166059Y3471676D01*
X4177833Y3500099D01*
X4181848Y3530600D01*
Y3581400D01*
X4177833Y3611901D01*
X4166059Y3640324D01*
X4147331Y3664731D01*
X4122924Y3683459D01*
X4094501Y3695233D01*
X4064000Y3699248D01*
D02*
G37*
G36*
X3810000D02*
X3779499Y3695233D01*
X3751076Y3683459D01*
X3726669Y3664731D01*
X3707941Y3640324D01*
X3696167Y3611901D01*
X3692152Y3581400D01*
Y3530600D01*
X3696167Y3500099D01*
X3707941Y3471676D01*
X3726669Y3447269D01*
X3751076Y3428541D01*
X3779499Y3416767D01*
X3810000Y3412752D01*
X3840501Y3416767D01*
X3868924Y3428541D01*
X3893331Y3447269D01*
X3912059Y3471676D01*
X3923833Y3500099D01*
X3927848Y3530600D01*
Y3581400D01*
X3923833Y3611901D01*
X3912059Y3640324D01*
X3893331Y3664731D01*
X3868924Y3683459D01*
X3840501Y3695233D01*
X3810000Y3699248D01*
D02*
G37*
G36*
X5866720Y2921000D02*
X5862700D01*
Y2806700D01*
X5977000D01*
Y2810720D01*
X5968345Y2843020D01*
X5951625Y2871980D01*
X5927980Y2895625D01*
X5899020Y2912345D01*
X5866720Y2921000D01*
D02*
G37*
G36*
X5837300D02*
X5833280D01*
X5800980Y2912345D01*
X5772020Y2895625D01*
X5748375Y2871980D01*
X5731655Y2843020D01*
X5723000Y2810720D01*
Y2806700D01*
X5837300D01*
Y2921000D01*
D02*
G37*
G36*
X5977000Y2781300D02*
X5862700D01*
Y2667000D01*
X5866720D01*
X5899020Y2675655D01*
X5927980Y2692375D01*
X5951625Y2716020D01*
X5968345Y2744980D01*
X5977000Y2777280D01*
Y2781300D01*
D02*
G37*
G36*
X5837300D02*
X5723000D01*
Y2777280D01*
X5731655Y2744980D01*
X5748375Y2716020D01*
X5772020Y2692375D01*
X5800980Y2675655D01*
X5833280Y2667000D01*
X5837300D01*
Y2781300D01*
D02*
G37*
G36*
X3318386Y2537460D02*
X3314700D01*
Y2425700D01*
X3426460D01*
Y2429386D01*
X3417978Y2461040D01*
X3401593Y2489420D01*
X3378420Y2512593D01*
X3350040Y2528978D01*
X3318386Y2537460D01*
D02*
G37*
G36*
X3289300D02*
X3285614D01*
X3253960Y2528978D01*
X3225580Y2512593D01*
X3202407Y2489420D01*
X3186022Y2461040D01*
X3177540Y2429386D01*
Y2425700D01*
X3289300D01*
Y2537460D01*
D02*
G37*
G36*
X3426460Y2400300D02*
X3314700D01*
Y2288540D01*
X3318386D01*
X3350040Y2297022D01*
X3378420Y2313407D01*
X3401593Y2336580D01*
X3417978Y2364960D01*
X3426460Y2396614D01*
Y2400300D01*
D02*
G37*
G36*
X3289300D02*
X3177540D01*
Y2396614D01*
X3186022Y2364960D01*
X3202407Y2336580D01*
X3225580Y2313407D01*
X3253960Y2297022D01*
X3285614Y2288540D01*
X3289300D01*
Y2400300D01*
D02*
G37*
%LPD*%
G36*
X3301541Y6553076D02*
X3320269Y6528669D01*
X3344676Y6509940D01*
X3373099Y6498167D01*
X3403600Y6494152D01*
X3454400D01*
X3484311Y6498090D01*
X3788700Y6193700D01*
X3802143Y6184718D01*
X3818000Y6181564D01*
X3835259D01*
X3839570Y6168864D01*
X3835505Y6165745D01*
X3819831Y6145317D01*
X3816566Y6137436D01*
X3700164D01*
X3585300Y6252300D01*
X3571857Y6261282D01*
X3556000Y6264436D01*
X3446164D01*
X3331300Y6379300D01*
X3317857Y6388282D01*
X3302000Y6391436D01*
X3164433D01*
X3162795Y6397550D01*
X3146577Y6425640D01*
X3123640Y6448577D01*
X3095550Y6464795D01*
X3074534Y6470426D01*
Y6483574D01*
X3095550Y6489205D01*
X3123640Y6505423D01*
X3146577Y6528360D01*
X3162795Y6556450D01*
X3165505Y6566564D01*
X3295954D01*
X3301541Y6553076D01*
D02*
G37*
G36*
X4221931Y6268469D02*
X4220961Y6261100D01*
Y6184900D01*
X4224540Y6157714D01*
X4235034Y6132381D01*
X4247743Y6115818D01*
X4238174Y6107426D01*
X4093300Y6252300D01*
X4079857Y6261282D01*
X4064000Y6264436D01*
X4038741D01*
X4034430Y6277136D01*
X4038495Y6280255D01*
X4054169Y6300683D01*
X4057434Y6308564D01*
X4181836D01*
X4221931Y6268469D01*
D02*
G37*
G36*
X4114850Y5224550D02*
X4107656Y5213784D01*
X4094501Y5219233D01*
X4064000Y5223248D01*
X4033499Y5219233D01*
X4005076Y5207459D01*
X3999454Y5203146D01*
X3458300Y5744300D01*
X3444857Y5753282D01*
X3429000Y5756436D01*
X3176844D01*
X3169982Y5765379D01*
X3163313Y5770496D01*
Y5786504D01*
X3169982Y5791621D01*
X3176844Y5800564D01*
X3538836D01*
X4114850Y5224550D01*
D02*
G37*
D12*
X3302000Y3556000D02*
D03*
X6858000Y5080000D02*
D03*
D13*
X7874000Y4318000D02*
D03*
D14*
X3556000Y5080000D02*
D03*
D15*
X3302000D02*
D03*
X7874000Y4572000D02*
D03*
Y4826000D02*
D03*
X7112000Y5588000D02*
D03*
Y5842000D02*
D03*
Y6096000D02*
D03*
Y6350000D02*
D03*
D16*
X3810000Y5080000D02*
D03*
D17*
X7874000Y4064000D02*
D03*
D18*
X3429000Y6612000D02*
D03*
X7874000Y3810000D02*
D03*
X3556000Y4826000D02*
D03*
D19*
X6604000Y5080000D02*
D03*
Y3556000D02*
D03*
X3810000D02*
D03*
X4064000D02*
D03*
X4318000D02*
D03*
X5080000D02*
D03*
X5334000D02*
D03*
X5588000D02*
D03*
X5842000D02*
D03*
X6096000D02*
D03*
X6350000D02*
D03*
Y5080000D02*
D03*
X6096000D02*
D03*
X5842000D02*
D03*
X5588000D02*
D03*
X5334000D02*
D03*
X5080000D02*
D03*
X4826000D02*
D03*
X4572000D02*
D03*
X4318000D02*
D03*
X4064000D02*
D03*
X7366000Y3556000D02*
D03*
X7620000D02*
D03*
X7874000D02*
D03*
X8128000D02*
D03*
X8382000D02*
D03*
X8636000D02*
D03*
X8890000D02*
D03*
X9144000D02*
D03*
X7112000Y5080000D02*
D03*
X7366000D02*
D03*
X7620000D02*
D03*
X7874000D02*
D03*
X8128000D02*
D03*
X8382000D02*
D03*
X8636000D02*
D03*
X8890000D02*
D03*
X9144000D02*
D03*
X3937000Y3855999D02*
D03*
X4191000D02*
D03*
X4445000D02*
D03*
X4699000D02*
D03*
X4953000D02*
D03*
X7112000Y3556000D02*
D03*
D20*
X3556000D02*
D03*
D23*
X4826000D02*
D03*
D24*
X6858000D02*
D03*
D25*
X3325012Y4418000D02*
D03*
Y4218000D02*
D03*
D26*
X4599000Y4829988D02*
D03*
Y4629988D02*
D03*
Y4429989D02*
D03*
X4799000Y4829988D02*
D03*
Y4629988D02*
D03*
Y4429989D02*
D03*
D32*
X2794000Y2413000D02*
D03*
D33*
X3048000D02*
D03*
X3302000D02*
D03*
D34*
X4445000D02*
D03*
X4191000D02*
D03*
X3937000D02*
D03*
X5334000D02*
D03*
X5080000D02*
D03*
X4826000D02*
D03*
X3048000Y6858000D02*
D03*
Y6604000D02*
D03*
Y6350000D02*
D03*
X3937000Y6604000D02*
D03*
D35*
X3048000Y5842000D02*
D03*
Y5715000D02*
D03*
Y5588000D02*
D03*
Y5461000D02*
D03*
D36*
X3937000Y6350000D02*
D03*
Y6096000D02*
D03*
D37*
X4453000Y3048000D02*
D03*
X7755000Y2794000D02*
D03*
X5850000D02*
D03*
X5588000Y5588000D02*
D03*
Y5842000D02*
D03*
Y6096000D02*
D03*
X6223000Y5588000D02*
D03*
Y5842000D02*
D03*
Y6096000D02*
D03*
D38*
X2921000Y3810000D02*
X3048000Y3937000D01*
X3399847D01*
X2921000Y3234638D02*
Y3810000D01*
X3048000Y3683000D02*
X3175000Y3810000D01*
X3429000D01*
X3048000Y3429000D02*
Y3683000D01*
X6858000Y7112000D02*
X7112000Y6858000D01*
X2667000D02*
X2921000Y7112000D01*
X6858000D01*
X5453000Y3048000D02*
Y3183000D01*
X5334000Y3302000D02*
X5453000Y3183000D01*
X3175000Y3302000D02*
X5334000D01*
X3048000Y3429000D02*
X3175000Y3302000D01*
X3429000Y3810000D02*
X3683000Y4064000D01*
X5080000D01*
X5334000Y4318000D01*
Y5080000D01*
X4606347Y4191000D02*
X4923847D01*
X3653847D02*
X4606347D01*
X3399847Y3937000D02*
X3653847Y4191000D01*
X4923847D02*
X5050847Y4318000D01*
X5055700Y5055700D02*
X5080000Y5080000D01*
X5050847Y4318000D02*
Y4984457D01*
X5055700Y4989310D02*
Y5055700D01*
X5050847Y4984457D02*
X5055700Y4989310D01*
X2921000Y3234638D02*
X3107638Y3048000D01*
X3996638D01*
X4191000Y2413000D02*
Y2853638D01*
X3996638Y3048000D02*
X4191000Y2853638D01*
X6850000Y2794000D02*
X7112000D01*
Y3556000D01*
Y2794000D02*
X7755000D01*
X2667000Y5334000D02*
Y6858000D01*
X3429000Y6612000D02*
X3818000Y6223000D01*
X4064000D01*
X3556000D02*
X3683000Y6096000D01*
X3937000D01*
X3429000Y6223000D02*
X3556000D01*
X3302000Y6350000D02*
X3429000Y6223000D01*
X3048000Y6350000D02*
X3302000D01*
X4064000Y6223000D02*
X4572000Y5715000D01*
Y5080000D02*
Y5715000D01*
X6223000Y5461000D02*
Y5588000D01*
X5842000Y5080000D02*
X6223000Y5461000D01*
X5588000Y5842000D02*
X6223000D01*
X5588000Y6096000D02*
X6223000D01*
X7012000Y2567000D02*
X9470000D01*
X6604000Y2159000D02*
X7012000Y2567000D01*
X4572000Y2159000D02*
X6604000D01*
X4572000D02*
X4826000Y2413000D01*
X3683000Y2159000D02*
X4572000D01*
X3048000Y2413000D02*
X3302000Y2159000D01*
X3683000D02*
X3937000Y2413000D01*
X3302000Y2159000D02*
X3683000D01*
X4453000Y3044000D02*
X5080000Y2417000D01*
Y2413000D02*
Y2417000D01*
X4453000Y3044000D02*
Y3048000D01*
X4826000Y5080000D02*
Y5723000D01*
X4326000Y6223000D02*
X4826000Y5723000D01*
X4199000Y6350000D02*
X4326000Y6223000D01*
X3937000Y6350000D02*
X4199000D01*
X2667000Y2540000D02*
Y3683000D01*
Y2540000D02*
X2794000Y2413000D01*
X2667000Y3683000D02*
X2794000Y3810000D01*
Y4572000D01*
X3302000Y5080000D01*
X7112000Y6350000D02*
Y6858000D01*
X2794000Y5842000D02*
X3048000Y6096000D01*
X2794000Y5334000D02*
Y5842000D01*
Y5334000D02*
X2858540Y5269460D01*
X2921000Y5080000D02*
X3302000D01*
X2667000Y5334000D02*
X2921000Y5080000D01*
X6858000Y5842000D02*
X7112000D01*
X6096000Y5080000D02*
X6858000Y5842000D01*
Y5588000D02*
X7112000D01*
X6350000Y5080000D02*
X6858000Y5588000D01*
X5588000Y5080000D02*
Y5588000D01*
X3048000Y6604000D02*
X3052000Y6608000D01*
X3425000D01*
X3429000Y6612000D01*
X3937000Y6350000D02*
X3941000Y6354000D01*
X3048000Y6096000D02*
Y6350000D01*
X2858540Y5269460D02*
X3620540D01*
X3810000Y5080000D01*
X3429000Y5461000D02*
X3620540Y5269460D01*
X3048000Y5461000D02*
X3429000D01*
X3556000Y5842000D02*
X4318000Y5080000D01*
X3048000Y5842000D02*
X3556000D01*
X3048000Y5715000D02*
X3429000D01*
X4064000Y5080000D01*
X8755000Y2794000D02*
X8782000Y2767000D01*
X9470000D01*
D39*
X3429000Y7612000D02*
D03*
D40*
X4572000Y3556000D02*
D03*
D41*
X5453000Y3048000D02*
D03*
X8755000Y2794000D02*
D03*
X6850000D02*
D03*
X5326000Y6223000D02*
D03*
D42*
X4326000D02*
D03*
D43*
X9470000Y2567000D02*
D03*
D44*
Y2767000D02*
D03*
%TF.MD5,d88c73bc6fabe3243e2888ab9a657140*%
M02*
