%TF.GenerationSoftware,Altium Limited,Altium Designer,23.10.1 (27)*%
G04 Layer_Physical_Order=1*
G04 Layer_Color=255*
%FSLAX45Y45*%
%MOMM*%
%TF.SameCoordinates,0853C776-B364-4FBC-9FD6-CE7C03B239D3*%
%TF.FilePolarity,Positive*%
%TF.FileFunction,Copper,L1,Top,Signal*%
%TF.Part,Single*%
G01*
G75*
%TA.AperFunction,ComponentPad*%
%ADD10O,1.01600X3.30200*%
%ADD11C,1.65100*%
%ADD12O,2.54000X1.65100*%
%ADD13R,2.15900X2.15900*%
%ADD14O,2.03200X2.54000*%
%ADD15C,2.15900*%
G04:AMPARAMS|DCode=16|XSize=2.032mm|YSize=2.032mm|CornerRadius=0mm|HoleSize=0mm|Usage=FLASHONLY|Rotation=90.000|XOffset=0mm|YOffset=0mm|HoleType=Round|Shape=Octagon|*
%AMOCTAGOND16*
4,1,8,0.50800,1.01600,-0.50800,1.01600,-1.01600,0.50800,-1.01600,-0.50800,-0.50800,-1.01600,0.50800,-1.01600,1.01600,-0.50800,1.01600,0.50800,0.50800,1.01600,0.0*
%
%ADD16OCTAGOND16*%

%ADD17O,2.54000X2.03200*%
%ADD18O,2.54000X2.03200*%
G04:AMPARAMS|DCode=19|XSize=2.159mm|YSize=2.159mm|CornerRadius=0mm|HoleSize=0mm|Usage=FLASHONLY|Rotation=90.000|XOffset=0mm|YOffset=0mm|HoleType=Round|Shape=Octagon|*
%AMOCTAGOND19*
4,1,8,0.53975,1.07950,-0.53975,1.07950,-1.07950,0.53975,-1.07950,-0.53975,-0.53975,-1.07950,0.53975,-1.07950,1.07950,-0.53975,1.07950,0.53975,0.53975,1.07950,0.0*
%
%ADD19OCTAGOND19*%

%ADD20R,2.15900X2.15900*%
%ADD21R,2.03200X2.03200*%
%ADD22O,2.03200X3.30200*%
%ADD23C,2.28600*%
D10*
X3175000Y381000D02*
D03*
X3302000D02*
D03*
X3429000D02*
D03*
X3556000D02*
D03*
D11*
X2386000Y2016989D02*
D03*
Y2216988D02*
D03*
Y2416988D02*
D03*
X2186000Y2016989D02*
D03*
Y2216988D02*
D03*
Y2416988D02*
D03*
D12*
X912012Y1805000D02*
D03*
Y2005000D02*
D03*
D13*
X4445000Y2667000D02*
D03*
X889000Y1143000D02*
D03*
D14*
X4699000D02*
D03*
X2540000Y1442999D02*
D03*
X2286000D02*
D03*
X2032000D02*
D03*
X1778000D02*
D03*
X1524000D02*
D03*
X6731000Y2667000D02*
D03*
X6477000D02*
D03*
X6223000D02*
D03*
X5969000D02*
D03*
X5715000D02*
D03*
X5207000D02*
D03*
X4953000D02*
D03*
X4699000D02*
D03*
X6731000Y1143000D02*
D03*
X6477000D02*
D03*
X6223000D02*
D03*
X5969000D02*
D03*
X5715000D02*
D03*
X5207000D02*
D03*
X4953000D02*
D03*
X1651000Y2667000D02*
D03*
X1905000D02*
D03*
X2159000D02*
D03*
X2413000D02*
D03*
X2667000D02*
D03*
X2921000D02*
D03*
X3175000D02*
D03*
X3429000D02*
D03*
X3683000D02*
D03*
X3937000D02*
D03*
Y1143000D02*
D03*
X3683000D02*
D03*
X3429000D02*
D03*
X3175000D02*
D03*
X2921000D02*
D03*
X2667000D02*
D03*
X2159000D02*
D03*
X1905000D02*
D03*
X1651000D02*
D03*
X1397000D02*
D03*
X1143000D02*
D03*
X4191000D02*
D03*
Y2667000D02*
D03*
D15*
X5461000D02*
D03*
Y1143000D02*
D03*
D16*
X4445000D02*
D03*
D17*
X1143000Y2413000D02*
D03*
X5461000Y1397000D02*
D03*
D18*
X2413000Y1143000D02*
D03*
X5461000Y2413000D02*
D03*
Y2159000D02*
D03*
X889000Y2667000D02*
D03*
D19*
X5461000Y1651000D02*
D03*
X1397000Y2667000D02*
D03*
D20*
X1143000D02*
D03*
D21*
X5461000Y1905000D02*
D03*
D22*
X5334000Y635000D02*
D03*
X5588000D02*
D03*
X4699000D02*
D03*
X4953000D02*
D03*
X1651000Y3302000D02*
D03*
X1397000D02*
D03*
X2286000D02*
D03*
X2032000D02*
D03*
X2921000D02*
D03*
X2667000D02*
D03*
X3556000D02*
D03*
X3302000D02*
D03*
X4191000D02*
D03*
X3937000D02*
D03*
D23*
X2032000Y508000D02*
D03*
X1778000D02*
D03*
X1524000D02*
D03*
%TF.MD5,339dbb2ac4b5560659bb0e2bf9061e13*%
M02*
