%TF.GenerationSoftware,Altium Limited,Altium Designer,23.10.1 (27)*%
G04 Layer_Physical_Order=2*
G04 Layer_Color=16711680*
%FSLAX45Y45*%
%MOMM*%
%TF.SameCoordinates,CB5246A2-9B06-400F-A9B1-4411E20585CF*%
%TF.FilePolarity,Positive*%
%TF.FileFunction,Copper,L2,Bot,Signal*%
%TF.Part,Single*%
G01*
G75*
%TA.AperFunction,ComponentPad*%
%ADD10O,1.01600X2.03200*%
%ADD11C,1.10795*%
%ADD12C,1.50800*%
%ADD13R,1.50800X1.50800*%
G04:AMPARAMS|DCode=14|XSize=1.508mm|YSize=1.508mm|CornerRadius=0mm|HoleSize=0mm|Usage=FLASHONLY|Rotation=90.000|XOffset=0mm|YOffset=0mm|HoleType=Round|Shape=Octagon|*
%AMOCTAGOND14*
4,1,8,0.37700,0.75400,-0.37700,0.75400,-0.75400,0.37700,-0.75400,-0.37700,-0.37700,-0.75400,0.37700,-0.75400,0.75400,-0.37700,0.75400,0.37700,0.37700,0.75400,0.0*
%
%ADD14OCTAGOND14*%

%ADD15C,1.67640*%
%ADD16R,1.50800X1.50800*%
%ADD17O,1.50800X3.01600*%
%ADD18C,1.52400*%
%TA.AperFunction,Conductor*%
%ADD19C,0.50800*%
G36*
X7230529Y499529D02*
X6858000Y127000D01*
X889000D01*
X254000Y762000D01*
Y3429000D01*
X508000Y3683000D01*
X7230529D01*
Y499529D01*
D02*
G37*
%LPC*%
G36*
X4191000Y3468822D02*
X4167338Y3465707D01*
X4145289Y3456574D01*
X4126355Y3442045D01*
X4111826Y3423111D01*
X4102693Y3401062D01*
X4099578Y3377400D01*
Y3226600D01*
X4102693Y3202938D01*
X4104464Y3198664D01*
X3907700Y3001900D01*
X3898718Y2988457D01*
X3895564Y2972600D01*
Y2747739D01*
X3881346Y2739530D01*
X3864470Y2722654D01*
X3852537Y2701986D01*
X3846360Y2678933D01*
Y2655067D01*
X3852537Y2632014D01*
X3864470Y2611346D01*
X3881346Y2594470D01*
X3902014Y2582537D01*
X3925067Y2576360D01*
X3948933D01*
X3971986Y2582537D01*
X3992654Y2594470D01*
X4009530Y2611346D01*
X4021463Y2632014D01*
X4027640Y2655067D01*
Y2678933D01*
X4021463Y2701986D01*
X4009530Y2722654D01*
X3992654Y2739530D01*
X3978436Y2747739D01*
Y2955437D01*
X4163064Y3140064D01*
X4167338Y3138293D01*
X4191000Y3135178D01*
X4214662Y3138293D01*
X4236711Y3147426D01*
X4255645Y3161955D01*
X4270174Y3180889D01*
X4279307Y3202938D01*
X4282422Y3226600D01*
Y3377400D01*
X4279307Y3401062D01*
X4270174Y3423111D01*
X4255645Y3442045D01*
X4236711Y3456574D01*
X4214662Y3465707D01*
X4191000Y3468822D01*
D02*
G37*
G36*
X3937000D02*
X3913338Y3465707D01*
X3891289Y3456574D01*
X3872355Y3442045D01*
X3857826Y3423111D01*
X3848693Y3401062D01*
X3845578Y3377400D01*
Y3226600D01*
X3848693Y3202938D01*
X3850464Y3198664D01*
X3653700Y3001900D01*
X3644718Y2988457D01*
X3641564Y2972600D01*
Y2747739D01*
X3627346Y2739530D01*
X3610470Y2722654D01*
X3598537Y2701986D01*
X3592360Y2678933D01*
Y2655067D01*
X3598537Y2632014D01*
X3610470Y2611346D01*
X3627346Y2594470D01*
X3648014Y2582537D01*
X3671067Y2576360D01*
X3694933D01*
X3717986Y2582537D01*
X3738654Y2594470D01*
X3755530Y2611346D01*
X3767463Y2632014D01*
X3773640Y2655067D01*
Y2678933D01*
X3767463Y2701986D01*
X3755530Y2722654D01*
X3738654Y2739530D01*
X3724436Y2747739D01*
Y2955437D01*
X3909064Y3140064D01*
X3913338Y3138293D01*
X3937000Y3135178D01*
X3960662Y3138293D01*
X3982711Y3147426D01*
X4001645Y3161955D01*
X4016174Y3180889D01*
X4025307Y3202938D01*
X4028422Y3226600D01*
Y3377400D01*
X4025307Y3401062D01*
X4016174Y3423111D01*
X4001645Y3442045D01*
X3982711Y3456574D01*
X3960662Y3465707D01*
X3937000Y3468822D01*
D02*
G37*
G36*
X3556000D02*
X3532338Y3465707D01*
X3510289Y3456574D01*
X3491355Y3442045D01*
X3476826Y3423111D01*
X3467693Y3401062D01*
X3464578Y3377400D01*
Y3226600D01*
X3467693Y3202938D01*
X3469464Y3198664D01*
X3399700Y3128900D01*
X3390718Y3115457D01*
X3387564Y3099600D01*
Y2747739D01*
X3373346Y2739530D01*
X3356470Y2722654D01*
X3344537Y2701986D01*
X3338360Y2678933D01*
Y2655067D01*
X3344537Y2632014D01*
X3356470Y2611346D01*
X3373346Y2594470D01*
X3394014Y2582537D01*
X3417067Y2576360D01*
X3440933D01*
X3463986Y2582537D01*
X3484654Y2594470D01*
X3501530Y2611346D01*
X3513463Y2632014D01*
X3519640Y2655067D01*
Y2678933D01*
X3513463Y2701986D01*
X3501530Y2722654D01*
X3484654Y2739530D01*
X3470436Y2747739D01*
Y3082437D01*
X3528064Y3140064D01*
X3532338Y3138293D01*
X3556000Y3135178D01*
X3579662Y3138293D01*
X3601711Y3147426D01*
X3620645Y3161955D01*
X3635174Y3180889D01*
X3644307Y3202938D01*
X3647422Y3226600D01*
Y3377400D01*
X3644307Y3401062D01*
X3635174Y3423111D01*
X3620645Y3442045D01*
X3601711Y3456574D01*
X3579662Y3465707D01*
X3556000Y3468822D01*
D02*
G37*
G36*
X3302000D02*
X3278338Y3465707D01*
X3256289Y3456574D01*
X3237355Y3442045D01*
X3222826Y3423111D01*
X3213693Y3401062D01*
X3210578Y3377400D01*
Y3226600D01*
X3213693Y3202938D01*
X3215464Y3198664D01*
X3145700Y3128900D01*
X3136718Y3115457D01*
X3133564Y3099600D01*
Y2747739D01*
X3119346Y2739530D01*
X3102470Y2722654D01*
X3090537Y2701986D01*
X3084360Y2678933D01*
Y2655067D01*
X3090537Y2632014D01*
X3102470Y2611346D01*
X3119346Y2594470D01*
X3140014Y2582537D01*
X3163067Y2576360D01*
X3186933D01*
X3209986Y2582537D01*
X3230654Y2594470D01*
X3247530Y2611346D01*
X3259463Y2632014D01*
X3265640Y2655067D01*
Y2678933D01*
X3259463Y2701986D01*
X3247530Y2722654D01*
X3230654Y2739530D01*
X3216436Y2747739D01*
Y3082437D01*
X3274064Y3140064D01*
X3278338Y3138293D01*
X3302000Y3135178D01*
X3325662Y3138293D01*
X3347711Y3147426D01*
X3366645Y3161955D01*
X3381174Y3180889D01*
X3390307Y3202938D01*
X3393422Y3226600D01*
Y3377400D01*
X3390307Y3401062D01*
X3381174Y3423111D01*
X3366645Y3442045D01*
X3347711Y3456574D01*
X3325662Y3465707D01*
X3302000Y3468822D01*
D02*
G37*
G36*
X6742933Y2757640D02*
X6719067D01*
X6696014Y2751463D01*
X6675346Y2739530D01*
X6658470Y2722654D01*
X6646537Y2701986D01*
X6640360Y2678933D01*
Y2655067D01*
X6646537Y2632014D01*
X6658470Y2611346D01*
X6675346Y2594470D01*
X6696014Y2582537D01*
X6719067Y2576360D01*
X6742933D01*
X6765986Y2582537D01*
X6786654Y2594470D01*
X6803530Y2611346D01*
X6815463Y2632014D01*
X6821640Y2655067D01*
Y2678933D01*
X6815463Y2701986D01*
X6803530Y2722654D01*
X6786654Y2739530D01*
X6765986Y2751463D01*
X6742933Y2757640D01*
D02*
G37*
G36*
X6488933D02*
X6465067D01*
X6442014Y2751463D01*
X6421346Y2739530D01*
X6404470Y2722654D01*
X6392537Y2701986D01*
X6386360Y2678933D01*
Y2655067D01*
X6392537Y2632014D01*
X6404470Y2611346D01*
X6421346Y2594470D01*
X6442014Y2582537D01*
X6465067Y2576360D01*
X6488933D01*
X6511986Y2582537D01*
X6532654Y2594470D01*
X6549530Y2611346D01*
X6561463Y2632014D01*
X6567640Y2655067D01*
Y2678933D01*
X6561463Y2701986D01*
X6549530Y2722654D01*
X6532654Y2739530D01*
X6511986Y2751463D01*
X6488933Y2757640D01*
D02*
G37*
G36*
X6234933D02*
X6211067D01*
X6188014Y2751463D01*
X6167346Y2739530D01*
X6150470Y2722654D01*
X6138537Y2701986D01*
X6132360Y2678933D01*
Y2655067D01*
X6138537Y2632014D01*
X6150470Y2611346D01*
X6167346Y2594470D01*
X6188014Y2582537D01*
X6211067Y2576360D01*
X6234933D01*
X6257986Y2582537D01*
X6278654Y2594470D01*
X6295530Y2611346D01*
X6307463Y2632014D01*
X6313640Y2655067D01*
Y2678933D01*
X6307463Y2701986D01*
X6295530Y2722654D01*
X6278654Y2739530D01*
X6257986Y2751463D01*
X6234933Y2757640D01*
D02*
G37*
G36*
X5980933D02*
X5957067D01*
X5934014Y2751463D01*
X5913346Y2739530D01*
X5896470Y2722654D01*
X5884537Y2701986D01*
X5878360Y2678933D01*
Y2655067D01*
X5884537Y2632014D01*
X5896470Y2611346D01*
X5913346Y2594470D01*
X5934014Y2582537D01*
X5957067Y2576360D01*
X5980933D01*
X6003986Y2582537D01*
X6024654Y2594470D01*
X6041530Y2611346D01*
X6053463Y2632014D01*
X6059640Y2655067D01*
Y2678933D01*
X6053463Y2701986D01*
X6041530Y2722654D01*
X6024654Y2739530D01*
X6003986Y2751463D01*
X5980933Y2757640D01*
D02*
G37*
G36*
X5726933D02*
X5703067D01*
X5680014Y2751463D01*
X5659346Y2739530D01*
X5642470Y2722654D01*
X5630537Y2701986D01*
X5624360Y2678933D01*
Y2655067D01*
X5630537Y2632014D01*
X5642470Y2611346D01*
X5659346Y2594470D01*
X5680014Y2582537D01*
X5703067Y2576360D01*
X5726933D01*
X5749986Y2582537D01*
X5770654Y2594470D01*
X5787530Y2611346D01*
X5799463Y2632014D01*
X5805640Y2655067D01*
Y2678933D01*
X5799463Y2701986D01*
X5787530Y2722654D01*
X5770654Y2739530D01*
X5749986Y2751463D01*
X5726933Y2757640D01*
D02*
G37*
G36*
X5472933D02*
X5449067D01*
X5426014Y2751463D01*
X5405346Y2739530D01*
X5388470Y2722654D01*
X5376537Y2701986D01*
X5370360Y2678933D01*
Y2655067D01*
X5376537Y2632014D01*
X5388470Y2611346D01*
X5405346Y2594470D01*
X5426014Y2582537D01*
X5449067Y2576360D01*
X5472933D01*
X5495986Y2582537D01*
X5516654Y2594470D01*
X5533530Y2611346D01*
X5545463Y2632014D01*
X5551640Y2655067D01*
Y2678933D01*
X5545463Y2701986D01*
X5533530Y2722654D01*
X5516654Y2739530D01*
X5495986Y2751463D01*
X5472933Y2757640D01*
D02*
G37*
G36*
X5218933D02*
X5195067D01*
X5172014Y2751463D01*
X5151346Y2739530D01*
X5134470Y2722654D01*
X5122537Y2701986D01*
X5116360Y2678933D01*
Y2655067D01*
X5122537Y2632014D01*
X5134470Y2611346D01*
X5151346Y2594470D01*
X5172014Y2582537D01*
X5195067Y2576360D01*
X5218933D01*
X5241986Y2582537D01*
X5262654Y2594470D01*
X5279530Y2611346D01*
X5291463Y2632014D01*
X5297640Y2655067D01*
Y2678933D01*
X5291463Y2701986D01*
X5279530Y2722654D01*
X5262654Y2739530D01*
X5241986Y2751463D01*
X5218933Y2757640D01*
D02*
G37*
G36*
X4964933D02*
X4941067D01*
X4918014Y2751463D01*
X4897346Y2739530D01*
X4880470Y2722654D01*
X4868537Y2701986D01*
X4862360Y2678933D01*
Y2655067D01*
X4868537Y2632014D01*
X4880470Y2611346D01*
X4897346Y2594470D01*
X4918014Y2582537D01*
X4941067Y2576360D01*
X4964933D01*
X4987986Y2582537D01*
X5008654Y2594470D01*
X5025530Y2611346D01*
X5037463Y2632014D01*
X5043640Y2655067D01*
Y2678933D01*
X5037463Y2701986D01*
X5025530Y2722654D01*
X5008654Y2739530D01*
X4987986Y2751463D01*
X4964933Y2757640D01*
D02*
G37*
G36*
X4710933D02*
X4687067D01*
X4664014Y2751463D01*
X4643346Y2739530D01*
X4626470Y2722654D01*
X4614537Y2701986D01*
X4608360Y2678933D01*
Y2655067D01*
X4614537Y2632014D01*
X4626470Y2611346D01*
X4643346Y2594470D01*
X4664014Y2582537D01*
X4687067Y2576360D01*
X4710933D01*
X4733986Y2582537D01*
X4754654Y2594470D01*
X4771530Y2611346D01*
X4783463Y2632014D01*
X4789640Y2655067D01*
Y2678933D01*
X4783463Y2701986D01*
X4771530Y2722654D01*
X4754654Y2739530D01*
X4733986Y2751463D01*
X4710933Y2757640D01*
D02*
G37*
G36*
X4202933D02*
X4179067D01*
X4156014Y2751463D01*
X4135346Y2739530D01*
X4118470Y2722654D01*
X4106537Y2701986D01*
X4100360Y2678933D01*
Y2655067D01*
X4106537Y2632014D01*
X4118470Y2611346D01*
X4135346Y2594470D01*
X4156014Y2582537D01*
X4179067Y2576360D01*
X4202933D01*
X4225986Y2582537D01*
X4246654Y2594470D01*
X4263530Y2611346D01*
X4275463Y2632014D01*
X4281640Y2655067D01*
Y2678933D01*
X4275463Y2701986D01*
X4263530Y2722654D01*
X4246654Y2739530D01*
X4225986Y2751463D01*
X4202933Y2757640D01*
D02*
G37*
G36*
X2921000Y3468822D02*
X2897338Y3465707D01*
X2875289Y3456574D01*
X2856355Y3442045D01*
X2841826Y3423111D01*
X2832693Y3401062D01*
X2829578Y3377400D01*
Y3226600D01*
X2832693Y3202938D01*
X2841826Y3180889D01*
X2856355Y3161955D01*
X2875289Y3147426D01*
X2879564Y3145656D01*
Y2747739D01*
X2865346Y2739530D01*
X2848470Y2722654D01*
X2836537Y2701986D01*
X2830360Y2678933D01*
Y2655067D01*
X2836537Y2632014D01*
X2848470Y2611346D01*
X2865346Y2594470D01*
X2886014Y2582537D01*
X2909067Y2576360D01*
X2932933D01*
X2955986Y2582537D01*
X2976654Y2594470D01*
X2993530Y2611346D01*
X3005463Y2632014D01*
X3011640Y2655067D01*
Y2678933D01*
X3005463Y2701986D01*
X2993530Y2722654D01*
X2976654Y2739530D01*
X2962436Y2747739D01*
Y3145656D01*
X2966711Y3147426D01*
X2985645Y3161955D01*
X3000174Y3180889D01*
X3009307Y3202938D01*
X3012422Y3226600D01*
Y3377400D01*
X3009307Y3401062D01*
X3000174Y3423111D01*
X2985645Y3442045D01*
X2966711Y3456574D01*
X2944662Y3465707D01*
X2921000Y3468822D01*
D02*
G37*
G36*
X2667000D02*
X2643338Y3465707D01*
X2621289Y3456574D01*
X2602355Y3442045D01*
X2587826Y3423111D01*
X2578693Y3401062D01*
X2575578Y3377400D01*
Y3226600D01*
X2578693Y3202938D01*
X2587826Y3180889D01*
X2602355Y3161955D01*
X2621289Y3147426D01*
X2625564Y3145656D01*
Y2747739D01*
X2611346Y2739530D01*
X2594470Y2722654D01*
X2582537Y2701986D01*
X2576360Y2678933D01*
Y2655067D01*
X2582537Y2632014D01*
X2594470Y2611346D01*
X2611346Y2594470D01*
X2632014Y2582537D01*
X2655067Y2576360D01*
X2678933D01*
X2701986Y2582537D01*
X2722654Y2594470D01*
X2739530Y2611346D01*
X2751463Y2632014D01*
X2757640Y2655067D01*
Y2678933D01*
X2751463Y2701986D01*
X2739530Y2722654D01*
X2722654Y2739530D01*
X2708436Y2747739D01*
Y3145656D01*
X2712711Y3147426D01*
X2731645Y3161955D01*
X2746174Y3180889D01*
X2755307Y3202938D01*
X2758422Y3226600D01*
Y3377400D01*
X2755307Y3401062D01*
X2746174Y3423111D01*
X2731645Y3442045D01*
X2712711Y3456574D01*
X2690662Y3465707D01*
X2667000Y3468822D01*
D02*
G37*
G36*
X2286000D02*
X2262338Y3465707D01*
X2240289Y3456574D01*
X2221355Y3442045D01*
X2206826Y3423111D01*
X2197693Y3401062D01*
X2194578Y3377400D01*
Y3226600D01*
X2197693Y3202938D01*
X2206826Y3180889D01*
X2221355Y3161955D01*
X2240289Y3147426D01*
X2244564Y3145656D01*
Y2794000D01*
X2247718Y2778143D01*
X2256700Y2764700D01*
X2326609Y2694791D01*
X2322360Y2678933D01*
Y2655067D01*
X2328537Y2632014D01*
X2340470Y2611346D01*
X2357346Y2594470D01*
X2378014Y2582537D01*
X2401067Y2576360D01*
X2424933D01*
X2447986Y2582537D01*
X2468654Y2594470D01*
X2485530Y2611346D01*
X2497463Y2632014D01*
X2503640Y2655067D01*
Y2678933D01*
X2497463Y2701986D01*
X2485530Y2722654D01*
X2468654Y2739530D01*
X2447986Y2751463D01*
X2424933Y2757640D01*
X2401067D01*
X2385209Y2753391D01*
X2327436Y2811164D01*
Y3145656D01*
X2331711Y3147426D01*
X2350645Y3161955D01*
X2365174Y3180889D01*
X2374307Y3202938D01*
X2377422Y3226600D01*
Y3377400D01*
X2374307Y3401062D01*
X2365174Y3423111D01*
X2350645Y3442045D01*
X2331711Y3456574D01*
X2309662Y3465707D01*
X2286000Y3468822D01*
D02*
G37*
G36*
X2032000D02*
X2008338Y3465707D01*
X1986289Y3456574D01*
X1967355Y3442045D01*
X1952826Y3423111D01*
X1943693Y3401062D01*
X1940578Y3377400D01*
Y3226600D01*
X1943693Y3202938D01*
X1952826Y3180889D01*
X1967355Y3161955D01*
X1986289Y3147426D01*
X1990564Y3145656D01*
Y2794000D01*
X1993718Y2778143D01*
X2002700Y2764700D01*
X2072609Y2694791D01*
X2068360Y2678933D01*
Y2655067D01*
X2074537Y2632014D01*
X2086470Y2611346D01*
X2103346Y2594470D01*
X2124014Y2582537D01*
X2147067Y2576360D01*
X2170933D01*
X2193986Y2582537D01*
X2214654Y2594470D01*
X2231530Y2611346D01*
X2243463Y2632014D01*
X2249640Y2655067D01*
Y2678933D01*
X2243463Y2701986D01*
X2231530Y2722654D01*
X2214654Y2739530D01*
X2193986Y2751463D01*
X2170933Y2757640D01*
X2147067D01*
X2131209Y2753391D01*
X2073436Y2811164D01*
Y3145656D01*
X2077711Y3147426D01*
X2096645Y3161955D01*
X2111174Y3180889D01*
X2120307Y3202938D01*
X2123422Y3226600D01*
Y3377400D01*
X2120307Y3401062D01*
X2111174Y3423111D01*
X2096645Y3442045D01*
X2077711Y3456574D01*
X2055662Y3465707D01*
X2032000Y3468822D01*
D02*
G37*
G36*
X1651000D02*
X1627338Y3465707D01*
X1605289Y3456574D01*
X1586355Y3442045D01*
X1571826Y3423111D01*
X1562693Y3401062D01*
X1559578Y3377400D01*
Y3226600D01*
X1562693Y3202938D01*
X1571826Y3180889D01*
X1586355Y3161955D01*
X1605289Y3147426D01*
X1609564Y3145656D01*
Y2921000D01*
X1612718Y2905143D01*
X1621700Y2891700D01*
X1818609Y2694791D01*
X1814360Y2678933D01*
Y2655067D01*
X1820537Y2632014D01*
X1832470Y2611346D01*
X1849346Y2594470D01*
X1870014Y2582537D01*
X1893067Y2576360D01*
X1916933D01*
X1939986Y2582537D01*
X1960654Y2594470D01*
X1977530Y2611346D01*
X1989463Y2632014D01*
X1995640Y2655067D01*
Y2678933D01*
X1989463Y2701986D01*
X1977530Y2722654D01*
X1960654Y2739530D01*
X1939986Y2751463D01*
X1916933Y2757640D01*
X1893067D01*
X1877209Y2753391D01*
X1692436Y2938164D01*
Y3145656D01*
X1696711Y3147426D01*
X1715645Y3161955D01*
X1730174Y3180889D01*
X1739307Y3202938D01*
X1742422Y3226600D01*
Y3377400D01*
X1739307Y3401062D01*
X1730174Y3423111D01*
X1715645Y3442045D01*
X1696711Y3456574D01*
X1674662Y3465707D01*
X1651000Y3468822D01*
D02*
G37*
G36*
X1397000D02*
X1373338Y3465707D01*
X1351289Y3456574D01*
X1332355Y3442045D01*
X1317826Y3423111D01*
X1308693Y3401062D01*
X1305578Y3377400D01*
Y3226600D01*
X1308693Y3202938D01*
X1317826Y3180889D01*
X1332355Y3161955D01*
X1351289Y3147426D01*
X1355564Y3145656D01*
Y2921000D01*
X1358718Y2905143D01*
X1367700Y2891700D01*
X1564609Y2694791D01*
X1560360Y2678933D01*
Y2655067D01*
X1566537Y2632014D01*
X1578470Y2611346D01*
X1595346Y2594470D01*
X1616014Y2582537D01*
X1639067Y2576360D01*
X1662933D01*
X1685986Y2582537D01*
X1706654Y2594470D01*
X1723530Y2611346D01*
X1735463Y2632014D01*
X1741640Y2655067D01*
Y2678933D01*
X1735463Y2701986D01*
X1723530Y2722654D01*
X1706654Y2739530D01*
X1685986Y2751463D01*
X1662933Y2757640D01*
X1639067D01*
X1623209Y2753391D01*
X1438436Y2938164D01*
Y3145656D01*
X1442711Y3147426D01*
X1461645Y3161955D01*
X1476174Y3180889D01*
X1485307Y3202938D01*
X1488422Y3226600D01*
Y3377400D01*
X1485307Y3401062D01*
X1476174Y3423111D01*
X1461645Y3442045D01*
X1442711Y3456574D01*
X1420662Y3465707D01*
X1397000Y3468822D01*
D02*
G37*
G36*
X902041Y2766060D02*
X875959D01*
X850764Y2759309D01*
X828176Y2746268D01*
X809732Y2727824D01*
X796691Y2705236D01*
X789940Y2680041D01*
Y2653959D01*
X795734Y2632334D01*
X478700Y2315300D01*
X469718Y2301857D01*
X466564Y2286000D01*
Y1143000D01*
X469718Y1127143D01*
X478700Y1113700D01*
X1113700Y478700D01*
X1127143Y469718D01*
X1143000Y466564D01*
X1442337D01*
X1450830Y451855D01*
X1467855Y434830D01*
X1488705Y422792D01*
X1511962Y416560D01*
X1536038D01*
X1559295Y422792D01*
X1580145Y434830D01*
X1597170Y451855D01*
X1609208Y472705D01*
X1615440Y495962D01*
Y520038D01*
X1609208Y543295D01*
X1597170Y564145D01*
X1580145Y581170D01*
X1559295Y593208D01*
X1536038Y599440D01*
X1511962D01*
X1488705Y593208D01*
X1467855Y581170D01*
X1450830Y564145D01*
X1442337Y549436D01*
X1160164D01*
X549436Y1160164D01*
Y2268836D01*
X854334Y2573734D01*
X875959Y2567940D01*
X902041D01*
X927236Y2574691D01*
X949824Y2587732D01*
X968268Y2606176D01*
X981309Y2628764D01*
X988060Y2653959D01*
Y2680041D01*
X981309Y2705236D01*
X968268Y2727824D01*
X949824Y2746268D01*
X927236Y2759309D01*
X902041Y2766060D01*
D02*
G37*
G36*
X2395300Y2487625D02*
X2376700D01*
X2358735Y2482811D01*
X2342627Y2473512D01*
X2329476Y2460360D01*
X2320176Y2444253D01*
X2315362Y2426288D01*
Y2407688D01*
X2320176Y2389723D01*
X2329476Y2373615D01*
X2342627Y2360464D01*
X2358735Y2351164D01*
X2376700Y2346350D01*
X2395300D01*
X2413265Y2351164D01*
X2429372Y2360464D01*
X2442524Y2373615D01*
X2451823Y2389723D01*
X2456637Y2407688D01*
Y2426288D01*
X2451823Y2444253D01*
X2442524Y2460360D01*
X2429372Y2473512D01*
X2413265Y2482811D01*
X2395300Y2487625D01*
D02*
G37*
G36*
X2195300D02*
X2176700D01*
X2158735Y2482811D01*
X2142628Y2473512D01*
X2129476Y2460360D01*
X2120177Y2444253D01*
X2115363Y2426288D01*
Y2407688D01*
X2120177Y2389723D01*
X2129476Y2373615D01*
X2142628Y2360464D01*
X2158735Y2351164D01*
X2176700Y2346350D01*
X2195300D01*
X2213265Y2351164D01*
X2229373Y2360464D01*
X2242524Y2373615D01*
X2251824Y2389723D01*
X2256638Y2407688D01*
Y2426288D01*
X2251824Y2444253D01*
X2242524Y2460360D01*
X2229373Y2473512D01*
X2213265Y2482811D01*
X2195300Y2487625D01*
D02*
G37*
G36*
X5472933Y2503640D02*
X5449067D01*
X5426014Y2497463D01*
X5405346Y2485530D01*
X5388470Y2468654D01*
X5376537Y2447986D01*
X5370360Y2424933D01*
Y2401067D01*
X5376537Y2378014D01*
X5388470Y2357346D01*
X5405346Y2340470D01*
X5426014Y2328537D01*
X5449067Y2322360D01*
X5472933D01*
X5495986Y2328537D01*
X5516654Y2340470D01*
X5533530Y2357346D01*
X5545463Y2378014D01*
X5551640Y2401067D01*
Y2424933D01*
X5545463Y2447986D01*
X5533530Y2468654D01*
X5516654Y2485530D01*
X5495986Y2497463D01*
X5472933Y2503640D01*
D02*
G37*
G36*
X1154933D02*
X1131067D01*
X1108014Y2497463D01*
X1087346Y2485530D01*
X1070470Y2468654D01*
X1058537Y2447986D01*
X1052360Y2424933D01*
Y2401067D01*
X1058537Y2378014D01*
X1070470Y2357346D01*
X1087346Y2340470D01*
X1108014Y2328537D01*
X1131067Y2322360D01*
X1154933D01*
X1177986Y2328537D01*
X1198654Y2340470D01*
X1215530Y2357346D01*
X1227463Y2378014D01*
X1233640Y2401067D01*
Y2424933D01*
X1227463Y2447986D01*
X1215530Y2468654D01*
X1198654Y2485530D01*
X1177986Y2497463D01*
X1154933Y2503640D01*
D02*
G37*
G36*
X2395300Y2287626D02*
X2376700D01*
X2358735Y2282812D01*
X2342627Y2273512D01*
X2329476Y2260361D01*
X2320176Y2244253D01*
X2315362Y2226288D01*
Y2207688D01*
X2320176Y2189723D01*
X2329476Y2173616D01*
X2342627Y2160464D01*
X2358735Y2151165D01*
X2376700Y2146351D01*
X2395300D01*
X2413265Y2151165D01*
X2429372Y2160464D01*
X2442524Y2173616D01*
X2451823Y2189723D01*
X2456637Y2207688D01*
Y2226288D01*
X2451823Y2244253D01*
X2442524Y2260361D01*
X2429372Y2273512D01*
X2413265Y2282812D01*
X2395300Y2287626D01*
D02*
G37*
G36*
X2195300D02*
X2176700D01*
X2158735Y2282812D01*
X2142628Y2273512D01*
X2129476Y2260361D01*
X2120177Y2244253D01*
X2115363Y2226288D01*
Y2207688D01*
X2120177Y2189723D01*
X2129476Y2173616D01*
X2142628Y2160464D01*
X2158735Y2151165D01*
X2176700Y2146351D01*
X2195300D01*
X2213265Y2151165D01*
X2229373Y2160464D01*
X2242524Y2173616D01*
X2251824Y2189723D01*
X2256638Y2207688D01*
Y2226288D01*
X2251824Y2244253D01*
X2242524Y2260361D01*
X2229373Y2273512D01*
X2213265Y2282812D01*
X2195300Y2287626D01*
D02*
G37*
G36*
X5472933Y2249640D02*
X5449067D01*
X5426014Y2243463D01*
X5405346Y2231530D01*
X5388470Y2214654D01*
X5376537Y2193986D01*
X5370360Y2170933D01*
Y2147067D01*
X5376537Y2124014D01*
X5388470Y2103346D01*
X5405346Y2086470D01*
X5426014Y2074537D01*
X5449067Y2068360D01*
X5472933D01*
X5495986Y2074537D01*
X5516654Y2086470D01*
X5533530Y2103346D01*
X5545463Y2124014D01*
X5551640Y2147067D01*
Y2170933D01*
X5545463Y2193986D01*
X5533530Y2214654D01*
X5516654Y2231530D01*
X5495986Y2243463D01*
X5472933Y2249640D01*
D02*
G37*
G36*
X2395300Y2087626D02*
X2376700D01*
X2358735Y2082812D01*
X2342627Y2073513D01*
X2329476Y2060361D01*
X2320176Y2044254D01*
X2315362Y2026288D01*
Y2007689D01*
X2320176Y1989723D01*
X2329476Y1973616D01*
X2342627Y1960464D01*
X2358735Y1951165D01*
X2376700Y1946351D01*
X2395300D01*
X2413265Y1951165D01*
X2429372Y1960464D01*
X2442524Y1973616D01*
X2451823Y1989723D01*
X2456637Y2007689D01*
Y2026288D01*
X2451823Y2044254D01*
X2442524Y2060361D01*
X2429372Y2073513D01*
X2413265Y2082812D01*
X2395300Y2087626D01*
D02*
G37*
G36*
X2195300D02*
X2176700D01*
X2158735Y2082812D01*
X2142628Y2073513D01*
X2129476Y2060361D01*
X2120177Y2044254D01*
X2115363Y2026288D01*
Y2007689D01*
X2120177Y1989723D01*
X2129476Y1973616D01*
X2142628Y1960464D01*
X2158735Y1951165D01*
X2176700Y1946351D01*
X2195300D01*
X2213265Y1951165D01*
X2229373Y1960464D01*
X2242524Y1973616D01*
X2251824Y1989723D01*
X2256638Y2007689D01*
Y2026288D01*
X2251824Y2044254D01*
X2242524Y2060361D01*
X2229373Y2073513D01*
X2213265Y2082812D01*
X2195300Y2087626D01*
D02*
G37*
G36*
X923945Y2095640D02*
X900079D01*
X877027Y2089463D01*
X856358Y2077530D01*
X839482Y2060654D01*
X827550Y2039986D01*
X821373Y2016933D01*
Y1993067D01*
X827550Y1970014D01*
X839482Y1949346D01*
X856358Y1932470D01*
X877027Y1920537D01*
X900079Y1914360D01*
X923945D01*
X946998Y1920537D01*
X967667Y1932470D01*
X984542Y1949346D01*
X996475Y1970014D01*
X1002652Y1993067D01*
Y2016933D01*
X996475Y2039986D01*
X984542Y2060654D01*
X967667Y2077530D01*
X946998Y2089463D01*
X923945Y2095640D01*
D02*
G37*
G36*
Y1895640D02*
X900079D01*
X877027Y1889463D01*
X856358Y1877530D01*
X839482Y1860654D01*
X827550Y1839986D01*
X821373Y1816933D01*
Y1793067D01*
X827550Y1770014D01*
X839482Y1749346D01*
X856358Y1732470D01*
X877027Y1720537D01*
X900079Y1714360D01*
X923945D01*
X946998Y1720537D01*
X967667Y1732470D01*
X984542Y1749346D01*
X996475Y1770014D01*
X1002652Y1793067D01*
Y1816933D01*
X996475Y1839986D01*
X984542Y1860654D01*
X967667Y1877530D01*
X946998Y1889463D01*
X923945Y1895640D01*
D02*
G37*
G36*
X1442320Y2757640D02*
X1351680D01*
X1306360Y2712320D01*
Y2621680D01*
X1307406Y2620634D01*
X1307304Y2620120D01*
X1310458Y2604264D01*
X1319440Y2590821D01*
X1332883Y2581838D01*
X1348740Y2578684D01*
X1355564Y2568891D01*
Y2344750D01*
X1358718Y2328893D01*
X1367700Y2315450D01*
X2061450Y1621700D01*
X2074893Y1612718D01*
X2090750Y1609563D01*
X2090751Y1609564D01*
X3919836D01*
X4354360Y1175040D01*
Y1097680D01*
X4399680Y1052360D01*
X4403564D01*
Y1033164D01*
X4173836Y803436D01*
X3302000D01*
X3286143Y800282D01*
X3272700Y791300D01*
X3145700Y664300D01*
X3136718Y650857D01*
X3133564Y635000D01*
Y483247D01*
X3127900Y478900D01*
X3117314Y465105D01*
X3110660Y449040D01*
X3108390Y431800D01*
Y330200D01*
X3110660Y312960D01*
X3117314Y296895D01*
X3127900Y283100D01*
X3141695Y272514D01*
X3157760Y265860D01*
X3175000Y263590D01*
X3192240Y265860D01*
X3208305Y272514D01*
X3222100Y283100D01*
X3232686Y296895D01*
X3239340Y312960D01*
X3241610Y330200D01*
Y431800D01*
X3239340Y449040D01*
X3232686Y465105D01*
X3222100Y478900D01*
X3216436Y483247D01*
Y617836D01*
X3319164Y720564D01*
X4191000D01*
X4206857Y723718D01*
X4220300Y732700D01*
X4474300Y986700D01*
X4483282Y1000143D01*
X4486437Y1016000D01*
X4486436Y1016001D01*
Y1052360D01*
X4490320D01*
X4535640Y1097680D01*
Y1175040D01*
X4970164Y1609564D01*
X5370360D01*
Y1605680D01*
X5415680Y1560360D01*
X5506320D01*
X5551640Y1605680D01*
Y1696320D01*
X5506320Y1741640D01*
X5415680D01*
X5370360Y1696320D01*
Y1692436D01*
X4953000D01*
X4937143Y1689282D01*
X4923700Y1680300D01*
X4477040Y1233640D01*
X4412960D01*
X3966300Y1680300D01*
X3952857Y1689282D01*
X3937000Y1692436D01*
X2107914D01*
X1438436Y2361914D01*
Y2576360D01*
X1442320D01*
X1487640Y2621680D01*
Y2712320D01*
X1442320Y2757640D01*
D02*
G37*
G36*
X2043933Y1533639D02*
X2020067D01*
X1997014Y1527462D01*
X1976346Y1515529D01*
X1959470Y1498654D01*
X1947537Y1477985D01*
X1941360Y1454932D01*
Y1431066D01*
X1947537Y1408014D01*
X1959470Y1387345D01*
X1976346Y1370469D01*
X1997014Y1358537D01*
X2020067Y1352359D01*
X2043933D01*
X2066986Y1358537D01*
X2087654Y1370469D01*
X2104530Y1387345D01*
X2116463Y1408014D01*
X2122640Y1431066D01*
Y1454932D01*
X2116463Y1477985D01*
X2104530Y1498654D01*
X2087654Y1515529D01*
X2066986Y1527462D01*
X2043933Y1533639D01*
D02*
G37*
G36*
X1789933D02*
X1766067D01*
X1743014Y1527462D01*
X1722346Y1515529D01*
X1705470Y1498654D01*
X1693537Y1477985D01*
X1687360Y1454932D01*
Y1431066D01*
X1693537Y1408014D01*
X1705470Y1387345D01*
X1722346Y1370469D01*
X1743014Y1358537D01*
X1766067Y1352359D01*
X1789933D01*
X1812986Y1358537D01*
X1833654Y1370469D01*
X1850530Y1387345D01*
X1862463Y1408014D01*
X1868640Y1431066D01*
Y1454932D01*
X1862463Y1477985D01*
X1850530Y1498654D01*
X1833654Y1515529D01*
X1812986Y1527462D01*
X1789933Y1533639D01*
D02*
G37*
G36*
X1535933D02*
X1512067D01*
X1489014Y1527462D01*
X1468346Y1515529D01*
X1451470Y1498654D01*
X1439537Y1477985D01*
X1433360Y1454932D01*
Y1431066D01*
X1439537Y1408014D01*
X1451470Y1387345D01*
X1468346Y1370469D01*
X1489014Y1358537D01*
X1512067Y1352359D01*
X1535933D01*
X1558986Y1358537D01*
X1579654Y1370469D01*
X1596530Y1387345D01*
X1608463Y1408014D01*
X1614640Y1431066D01*
Y1454932D01*
X1608463Y1477985D01*
X1596530Y1498654D01*
X1579654Y1515529D01*
X1558986Y1527462D01*
X1535933Y1533639D01*
D02*
G37*
G36*
X5472933Y1487640D02*
X5449067D01*
X5426014Y1481463D01*
X5405346Y1469530D01*
X5388470Y1452654D01*
X5376537Y1431986D01*
X5370360Y1408933D01*
Y1385067D01*
X5376537Y1362014D01*
X5388470Y1341346D01*
X5405346Y1324470D01*
X5426014Y1312537D01*
X5449067Y1306360D01*
X5472933D01*
X5495986Y1312537D01*
X5516654Y1324470D01*
X5533530Y1341346D01*
X5545463Y1362014D01*
X5551640Y1385067D01*
Y1408933D01*
X5545463Y1431986D01*
X5533530Y1452654D01*
X5516654Y1469530D01*
X5495986Y1481463D01*
X5472933Y1487640D01*
D02*
G37*
G36*
X6742933Y1233640D02*
X6719067D01*
X6696014Y1227463D01*
X6675346Y1215530D01*
X6658470Y1198654D01*
X6646537Y1177986D01*
X6640360Y1154933D01*
Y1131067D01*
X6646537Y1108014D01*
X6658470Y1087346D01*
X6675346Y1070470D01*
X6696014Y1058537D01*
X6719067Y1052360D01*
X6742933D01*
X6765986Y1058537D01*
X6786654Y1070470D01*
X6803530Y1087346D01*
X6815463Y1108014D01*
X6821640Y1131067D01*
Y1154933D01*
X6815463Y1177986D01*
X6803530Y1198654D01*
X6786654Y1215530D01*
X6765986Y1227463D01*
X6742933Y1233640D01*
D02*
G37*
G36*
X5980933D02*
X5957067D01*
X5934014Y1227463D01*
X5913346Y1215530D01*
X5896470Y1198654D01*
X5884537Y1177986D01*
X5878360Y1154933D01*
Y1131067D01*
X5884537Y1108014D01*
X5896470Y1087346D01*
X5913346Y1070470D01*
X5934014Y1058537D01*
X5957067Y1052360D01*
X5980933D01*
X6003986Y1058537D01*
X6024654Y1070470D01*
X6041530Y1087346D01*
X6053463Y1108014D01*
X6059640Y1131067D01*
Y1154933D01*
X6053463Y1177986D01*
X6041530Y1198654D01*
X6024654Y1215530D01*
X6003986Y1227463D01*
X5980933Y1233640D01*
D02*
G37*
G36*
X5726933D02*
X5703067D01*
X5680014Y1227463D01*
X5659346Y1215530D01*
X5642470Y1198654D01*
X5630537Y1177986D01*
X5624360Y1154933D01*
Y1131067D01*
X5630537Y1108014D01*
X5642470Y1087346D01*
X5659346Y1070470D01*
X5680014Y1058537D01*
X5703067Y1052360D01*
X5726933D01*
X5749986Y1058537D01*
X5770654Y1070470D01*
X5787530Y1087346D01*
X5799463Y1108014D01*
X5805640Y1131067D01*
Y1154933D01*
X5799463Y1177986D01*
X5787530Y1198654D01*
X5770654Y1215530D01*
X5749986Y1227463D01*
X5726933Y1233640D01*
D02*
G37*
G36*
X4202933D02*
X4179067D01*
X4156014Y1227463D01*
X4135346Y1215530D01*
X4118470Y1198654D01*
X4106537Y1177986D01*
X4100360Y1154933D01*
Y1131067D01*
X4106537Y1108014D01*
X4118470Y1087346D01*
X4135346Y1070470D01*
X4156014Y1058537D01*
X4179067Y1052360D01*
X4202933D01*
X4225986Y1058537D01*
X4246654Y1070470D01*
X4263530Y1087346D01*
X4275463Y1108014D01*
X4281640Y1131067D01*
Y1154933D01*
X4275463Y1177986D01*
X4263530Y1198654D01*
X4246654Y1215530D01*
X4225986Y1227463D01*
X4202933Y1233640D01*
D02*
G37*
G36*
X3948933D02*
X3925067D01*
X3902014Y1227463D01*
X3881346Y1215530D01*
X3864470Y1198654D01*
X3852537Y1177986D01*
X3846360Y1154933D01*
Y1131067D01*
X3852537Y1108014D01*
X3864470Y1087346D01*
X3881346Y1070470D01*
X3902014Y1058537D01*
X3925067Y1052360D01*
X3948933D01*
X3971986Y1058537D01*
X3992654Y1070470D01*
X4009530Y1087346D01*
X4021463Y1108014D01*
X4027640Y1131067D01*
Y1154933D01*
X4021463Y1177986D01*
X4009530Y1198654D01*
X3992654Y1215530D01*
X3971986Y1227463D01*
X3948933Y1233640D01*
D02*
G37*
G36*
X3694933D02*
X3671067D01*
X3648014Y1227463D01*
X3627346Y1215530D01*
X3610470Y1198654D01*
X3598537Y1177986D01*
X3592360Y1154933D01*
Y1131067D01*
X3598537Y1108014D01*
X3610470Y1087346D01*
X3627346Y1070470D01*
X3648014Y1058537D01*
X3671067Y1052360D01*
X3694933D01*
X3717986Y1058537D01*
X3738654Y1070470D01*
X3755530Y1087346D01*
X3767463Y1108014D01*
X3773640Y1131067D01*
Y1154933D01*
X3767463Y1177986D01*
X3755530Y1198654D01*
X3738654Y1215530D01*
X3717986Y1227463D01*
X3694933Y1233640D01*
D02*
G37*
G36*
X3440933D02*
X3417067D01*
X3394014Y1227463D01*
X3373346Y1215530D01*
X3356470Y1198654D01*
X3344537Y1177986D01*
X3338360Y1154933D01*
Y1131067D01*
X3344537Y1108014D01*
X3356470Y1087346D01*
X3373346Y1070470D01*
X3394014Y1058537D01*
X3417067Y1052360D01*
X3440933D01*
X3463986Y1058537D01*
X3484654Y1070470D01*
X3501530Y1087346D01*
X3513463Y1108014D01*
X3519640Y1131067D01*
Y1154933D01*
X3513463Y1177986D01*
X3501530Y1198654D01*
X3484654Y1215530D01*
X3463986Y1227463D01*
X3440933Y1233640D01*
D02*
G37*
G36*
X3186933D02*
X3163067D01*
X3140014Y1227463D01*
X3119346Y1215530D01*
X3102470Y1198654D01*
X3090537Y1177986D01*
X3084360Y1154933D01*
Y1131067D01*
X3090537Y1108014D01*
X3102470Y1087346D01*
X3119346Y1070470D01*
X3140014Y1058537D01*
X3163067Y1052360D01*
X3186933D01*
X3209986Y1058537D01*
X3230654Y1070470D01*
X3247530Y1087346D01*
X3259463Y1108014D01*
X3265640Y1131067D01*
Y1154933D01*
X3259463Y1177986D01*
X3247530Y1198654D01*
X3230654Y1215530D01*
X3209986Y1227463D01*
X3186933Y1233640D01*
D02*
G37*
G36*
X2932933D02*
X2909067D01*
X2886014Y1227463D01*
X2865346Y1215530D01*
X2848470Y1198654D01*
X2836537Y1177986D01*
X2830360Y1154933D01*
Y1131067D01*
X2836537Y1108014D01*
X2848470Y1087346D01*
X2865346Y1070470D01*
X2886014Y1058537D01*
X2909067Y1052360D01*
X2932933D01*
X2955986Y1058537D01*
X2976654Y1070470D01*
X2993530Y1087346D01*
X3005463Y1108014D01*
X3011640Y1131067D01*
Y1154933D01*
X3005463Y1177986D01*
X2993530Y1198654D01*
X2976654Y1215530D01*
X2955986Y1227463D01*
X2932933Y1233640D01*
D02*
G37*
G36*
X2678933D02*
X2655067D01*
X2632014Y1227463D01*
X2611346Y1215530D01*
X2594470Y1198654D01*
X2582537Y1177986D01*
X2576360Y1154933D01*
Y1131067D01*
X2582537Y1108014D01*
X2594470Y1087346D01*
X2611346Y1070470D01*
X2632014Y1058537D01*
X2655067Y1052360D01*
X2678933D01*
X2701986Y1058537D01*
X2722654Y1070470D01*
X2739530Y1087346D01*
X2751463Y1108014D01*
X2757640Y1131067D01*
Y1154933D01*
X2751463Y1177986D01*
X2739530Y1198654D01*
X2722654Y1215530D01*
X2701986Y1227463D01*
X2678933Y1233640D01*
D02*
G37*
G36*
X2424933D02*
X2401067D01*
X2378014Y1227463D01*
X2357346Y1215530D01*
X2340470Y1198654D01*
X2328537Y1177986D01*
X2322360Y1154933D01*
Y1131067D01*
X2328537Y1108014D01*
X2340470Y1087346D01*
X2357346Y1070470D01*
X2378014Y1058537D01*
X2401067Y1052360D01*
X2424933D01*
X2447986Y1058537D01*
X2468654Y1070470D01*
X2485530Y1087346D01*
X2497463Y1108014D01*
X2503640Y1131067D01*
Y1154933D01*
X2497463Y1177986D01*
X2485530Y1198654D01*
X2468654Y1215530D01*
X2447986Y1227463D01*
X2424933Y1233640D01*
D02*
G37*
G36*
X2170933D02*
X2147067D01*
X2124014Y1227463D01*
X2103346Y1215530D01*
X2086470Y1198654D01*
X2074537Y1177986D01*
X2068360Y1154933D01*
Y1131067D01*
X2074537Y1108014D01*
X2086470Y1087346D01*
X2103346Y1070470D01*
X2124014Y1058537D01*
X2147067Y1052360D01*
X2170933D01*
X2193986Y1058537D01*
X2214654Y1070470D01*
X2231530Y1087346D01*
X2243463Y1108014D01*
X2249640Y1131067D01*
Y1154933D01*
X2243463Y1177986D01*
X2231530Y1198654D01*
X2214654Y1215530D01*
X2193986Y1227463D01*
X2170933Y1233640D01*
D02*
G37*
G36*
X1916933D02*
X1893067D01*
X1870014Y1227463D01*
X1849346Y1215530D01*
X1832470Y1198654D01*
X1820537Y1177986D01*
X1814360Y1154933D01*
Y1131067D01*
X1820537Y1108014D01*
X1832470Y1087346D01*
X1849346Y1070470D01*
X1870014Y1058537D01*
X1893067Y1052360D01*
X1916933D01*
X1939986Y1058537D01*
X1960654Y1070470D01*
X1977530Y1087346D01*
X1989463Y1108014D01*
X1995640Y1131067D01*
Y1154933D01*
X1989463Y1177986D01*
X1977530Y1198654D01*
X1960654Y1215530D01*
X1939986Y1227463D01*
X1916933Y1233640D01*
D02*
G37*
G36*
X1662933D02*
X1639067D01*
X1616014Y1227463D01*
X1595346Y1215530D01*
X1578470Y1198654D01*
X1566537Y1177986D01*
X1560360Y1154933D01*
Y1131067D01*
X1566537Y1108014D01*
X1578470Y1087346D01*
X1595346Y1070470D01*
X1616014Y1058537D01*
X1639067Y1052360D01*
X1662933D01*
X1685986Y1058537D01*
X1706654Y1070470D01*
X1723530Y1087346D01*
X1735463Y1108014D01*
X1741640Y1131067D01*
Y1154933D01*
X1735463Y1177986D01*
X1723530Y1198654D01*
X1706654Y1215530D01*
X1685986Y1227463D01*
X1662933Y1233640D01*
D02*
G37*
G36*
X1408933D02*
X1385067D01*
X1362014Y1227463D01*
X1341346Y1215530D01*
X1324470Y1198654D01*
X1312537Y1177986D01*
X1306360Y1154933D01*
Y1131067D01*
X1312537Y1108014D01*
X1324470Y1087346D01*
X1341346Y1070470D01*
X1362014Y1058537D01*
X1385067Y1052360D01*
X1408933D01*
X1431986Y1058537D01*
X1452654Y1070470D01*
X1469530Y1087346D01*
X1481463Y1108014D01*
X1487640Y1131067D01*
Y1154933D01*
X1481463Y1177986D01*
X1469530Y1198654D01*
X1452654Y1215530D01*
X1431986Y1227463D01*
X1408933Y1233640D01*
D02*
G37*
G36*
X1154933D02*
X1131067D01*
X1108014Y1227463D01*
X1087346Y1215530D01*
X1070470Y1198654D01*
X1058537Y1177986D01*
X1052360Y1154933D01*
Y1131067D01*
X1058537Y1108014D01*
X1070470Y1087346D01*
X1087346Y1070470D01*
X1108014Y1058537D01*
X1131067Y1052360D01*
X1154933D01*
X1177986Y1058537D01*
X1198654Y1070470D01*
X1215530Y1087346D01*
X1227463Y1108014D01*
X1233640Y1131067D01*
Y1154933D01*
X1227463Y1177986D01*
X1215530Y1198654D01*
X1198654Y1215530D01*
X1177986Y1227463D01*
X1154933Y1233640D01*
D02*
G37*
G36*
X5472933D02*
X5449067D01*
X5426014Y1227463D01*
X5405346Y1215530D01*
X5388470Y1198654D01*
X5376537Y1177986D01*
X5370360Y1154933D01*
Y1131067D01*
X5376537Y1108014D01*
X5388470Y1087346D01*
X5405346Y1070470D01*
X5419564Y1062261D01*
Y837400D01*
X5422718Y821543D01*
X5431700Y808100D01*
X5501464Y738336D01*
X5499693Y734062D01*
X5496578Y710400D01*
Y559600D01*
X5499693Y535938D01*
X5508826Y513889D01*
X5523355Y494955D01*
X5542289Y480426D01*
X5564338Y471293D01*
X5588000Y468178D01*
X5611662Y471293D01*
X5633711Y480426D01*
X5652645Y494955D01*
X5667174Y513889D01*
X5676307Y535938D01*
X5679422Y559600D01*
Y710400D01*
X5676307Y734062D01*
X5667174Y756111D01*
X5652645Y775045D01*
X5633711Y789574D01*
X5611662Y798707D01*
X5588000Y801822D01*
X5564338Y798707D01*
X5560064Y796936D01*
X5502436Y854563D01*
Y1062261D01*
X5516654Y1070470D01*
X5533530Y1087346D01*
X5545463Y1108014D01*
X5551640Y1131067D01*
Y1154933D01*
X5545463Y1177986D01*
X5533530Y1198654D01*
X5516654Y1215530D01*
X5495986Y1227463D01*
X5472933Y1233640D01*
D02*
G37*
G36*
X5218933D02*
X5195067D01*
X5172014Y1227463D01*
X5151346Y1215530D01*
X5134470Y1198654D01*
X5122537Y1177986D01*
X5116360Y1154933D01*
Y1131067D01*
X5122537Y1108014D01*
X5134470Y1087346D01*
X5151346Y1070470D01*
X5165564Y1062261D01*
Y837400D01*
X5168718Y821543D01*
X5177700Y808100D01*
X5247464Y738336D01*
X5245693Y734062D01*
X5242578Y710400D01*
Y559600D01*
X5245693Y535938D01*
X5254826Y513889D01*
X5269355Y494955D01*
X5288289Y480426D01*
X5310338Y471293D01*
X5334000Y468178D01*
X5357662Y471293D01*
X5379711Y480426D01*
X5398645Y494955D01*
X5413174Y513889D01*
X5422307Y535938D01*
X5425422Y559600D01*
Y710400D01*
X5422307Y734062D01*
X5413174Y756111D01*
X5398645Y775045D01*
X5379711Y789574D01*
X5357662Y798707D01*
X5334000Y801822D01*
X5310338Y798707D01*
X5306064Y796936D01*
X5248436Y854563D01*
Y1062261D01*
X5262654Y1070470D01*
X5279530Y1087346D01*
X5291463Y1108014D01*
X5297640Y1131067D01*
Y1154933D01*
X5291463Y1177986D01*
X5279530Y1198654D01*
X5262654Y1215530D01*
X5241986Y1227463D01*
X5218933Y1233640D01*
D02*
G37*
G36*
X4964933D02*
X4941067D01*
X4918014Y1227463D01*
X4897346Y1215530D01*
X4880470Y1198654D01*
X4868537Y1177986D01*
X4862360Y1154933D01*
Y1131067D01*
X4868537Y1108014D01*
X4880470Y1087346D01*
X4897346Y1070470D01*
X4911564Y1062261D01*
Y791344D01*
X4907289Y789574D01*
X4888355Y775045D01*
X4873826Y756111D01*
X4864693Y734062D01*
X4861578Y710400D01*
Y559600D01*
X4864693Y535938D01*
X4873826Y513889D01*
X4888355Y494955D01*
X4907289Y480426D01*
X4929338Y471293D01*
X4953000Y468178D01*
X4976662Y471293D01*
X4998711Y480426D01*
X5017645Y494955D01*
X5032174Y513889D01*
X5041307Y535938D01*
X5044422Y559600D01*
Y710400D01*
X5041307Y734062D01*
X5032174Y756111D01*
X5017645Y775045D01*
X4998711Y789574D01*
X4994436Y791344D01*
Y1062261D01*
X5008654Y1070470D01*
X5025530Y1087346D01*
X5037463Y1108014D01*
X5043640Y1131067D01*
Y1154933D01*
X5037463Y1177986D01*
X5025530Y1198654D01*
X5008654Y1215530D01*
X4987986Y1227463D01*
X4964933Y1233640D01*
D02*
G37*
G36*
X1790038Y599440D02*
X1765962D01*
X1742705Y593208D01*
X1721855Y581170D01*
X1704830Y564145D01*
X1692792Y543295D01*
X1686560Y520038D01*
Y495962D01*
X1692792Y472705D01*
X1704830Y451855D01*
X1721855Y434830D01*
X1742705Y422792D01*
X1765962Y416560D01*
X1790038D01*
X1813295Y422792D01*
X1834145Y434830D01*
X1851170Y451855D01*
X1863208Y472705D01*
X1869440Y495962D01*
Y520038D01*
X1863208Y543295D01*
X1851170Y564145D01*
X1834145Y581170D01*
X1813295Y593208D01*
X1790038Y599440D01*
D02*
G37*
G36*
X6488933Y1233640D02*
X6465067D01*
X6442014Y1227463D01*
X6421346Y1215530D01*
X6404470Y1198654D01*
X6392537Y1177986D01*
X6386360Y1154933D01*
Y1131067D01*
X6392537Y1108014D01*
X6404470Y1087346D01*
X6421346Y1070470D01*
X6435564Y1062261D01*
Y652164D01*
X6078836Y295436D01*
X3649364D01*
X3621678Y323122D01*
X3622610Y330200D01*
Y431800D01*
X3620340Y449040D01*
X3613686Y465105D01*
X3603100Y478900D01*
X3589305Y489486D01*
X3573240Y496140D01*
X3556000Y498410D01*
X3538760Y496140D01*
X3522695Y489486D01*
X3508900Y478900D01*
X3499690Y466898D01*
X3492500Y465907D01*
X3485310Y466898D01*
X3476100Y478900D01*
X3474761Y479928D01*
X3474031Y494431D01*
X3573164Y593564D01*
X4424639D01*
X4666503Y351700D01*
X4679946Y342718D01*
X4695803Y339563D01*
X4695804Y339564D01*
X5969000D01*
X5984857Y342718D01*
X5998300Y351700D01*
X6252300Y605700D01*
X6261282Y619143D01*
X6264437Y635000D01*
X6264436Y635001D01*
Y1062261D01*
X6278654Y1070470D01*
X6295530Y1087346D01*
X6307463Y1108014D01*
X6313640Y1131067D01*
Y1154933D01*
X6307463Y1177986D01*
X6295530Y1198654D01*
X6278654Y1215530D01*
X6257986Y1227463D01*
X6234933Y1233640D01*
X6211067D01*
X6188014Y1227463D01*
X6167346Y1215530D01*
X6150470Y1198654D01*
X6138537Y1177986D01*
X6132360Y1154933D01*
Y1131067D01*
X6138537Y1108014D01*
X6150470Y1087346D01*
X6167346Y1070470D01*
X6181564Y1062261D01*
Y652164D01*
X5951836Y422436D01*
X4712966D01*
X4677159Y458244D01*
X4683090Y470273D01*
X4699000Y468178D01*
X4722662Y471293D01*
X4744711Y480426D01*
X4763645Y494955D01*
X4778174Y513889D01*
X4787307Y535938D01*
X4790422Y559600D01*
Y710400D01*
X4787307Y734062D01*
X4778174Y756111D01*
X4763645Y775045D01*
X4744711Y789574D01*
X4740436Y791344D01*
Y1062261D01*
X4754654Y1070470D01*
X4771530Y1087346D01*
X4783463Y1108014D01*
X4789640Y1131067D01*
Y1154933D01*
X4783463Y1177986D01*
X4771530Y1198654D01*
X4754654Y1215530D01*
X4733986Y1227463D01*
X4710933Y1233640D01*
X4687067D01*
X4664014Y1227463D01*
X4643346Y1215530D01*
X4626470Y1198654D01*
X4614537Y1177986D01*
X4608360Y1154933D01*
Y1131067D01*
X4614537Y1108014D01*
X4626470Y1087346D01*
X4643346Y1070470D01*
X4657564Y1062261D01*
Y791344D01*
X4653289Y789574D01*
X4634355Y775045D01*
X4619826Y756111D01*
X4610693Y734062D01*
X4607578Y710400D01*
Y559600D01*
X4609673Y543691D01*
X4597644Y537759D01*
X4471103Y664300D01*
X4457660Y673282D01*
X4441803Y676436D01*
X3556000D01*
X3540143Y673282D01*
X3526700Y664300D01*
X3399700Y537300D01*
X3390718Y523857D01*
X3387564Y508000D01*
Y483247D01*
X3381900Y478900D01*
X3371314Y465105D01*
X3364660Y449040D01*
X3362390Y431800D01*
Y330200D01*
X3364660Y312960D01*
X3371314Y296895D01*
X3381900Y283100D01*
X3395695Y272514D01*
X3411760Y265860D01*
X3429000Y263590D01*
X3446240Y265860D01*
X3462305Y272514D01*
X3476100Y283100D01*
X3485310Y295102D01*
X3492500Y296093D01*
X3499690Y295102D01*
X3508900Y283100D01*
X3522695Y272514D01*
X3538760Y265860D01*
X3556000Y263590D01*
X3563078Y264522D01*
X3602900Y224700D01*
X3616343Y215718D01*
X3632200Y212564D01*
X6096000D01*
X6111857Y215718D01*
X6125300Y224700D01*
X6506300Y605700D01*
X6515282Y619143D01*
X6518436Y635000D01*
Y1062261D01*
X6532654Y1070470D01*
X6549530Y1087346D01*
X6561463Y1108014D01*
X6567640Y1131067D01*
Y1154933D01*
X6561463Y1177986D01*
X6549530Y1198654D01*
X6532654Y1215530D01*
X6511986Y1227463D01*
X6488933Y1233640D01*
D02*
G37*
%LPD*%
D10*
X3175000Y381000D02*
D03*
X3302000D02*
D03*
X3429000D02*
D03*
X3556000D02*
D03*
D11*
X2386000Y2016989D02*
D03*
Y2216988D02*
D03*
Y2416988D02*
D03*
X2186000Y2016989D02*
D03*
Y2216988D02*
D03*
Y2416988D02*
D03*
D12*
X912012Y1805000D02*
D03*
Y2005000D02*
D03*
X4699000Y1143000D02*
D03*
X2540000Y1442999D02*
D03*
X2286000D02*
D03*
X2032000D02*
D03*
X1778000D02*
D03*
X1524000D02*
D03*
X6731000Y2667000D02*
D03*
X6477000D02*
D03*
X6223000D02*
D03*
X5969000D02*
D03*
X5715000D02*
D03*
X5461000D02*
D03*
X5207000D02*
D03*
X4953000D02*
D03*
X4699000D02*
D03*
X6731000Y1143000D02*
D03*
X6477000D02*
D03*
X6223000D02*
D03*
X5969000D02*
D03*
X5715000D02*
D03*
X5461000D02*
D03*
X5207000D02*
D03*
X4953000D02*
D03*
X1651000Y2667000D02*
D03*
X1905000D02*
D03*
X2159000D02*
D03*
X2413000D02*
D03*
X2667000D02*
D03*
X2921000D02*
D03*
X3175000D02*
D03*
X3429000D02*
D03*
X3683000D02*
D03*
X3937000D02*
D03*
X1143000Y2413000D02*
D03*
X3937000Y1143000D02*
D03*
X3683000D02*
D03*
X3429000D02*
D03*
X3175000D02*
D03*
X2921000D02*
D03*
X2667000D02*
D03*
X2413000D02*
D03*
X2159000D02*
D03*
X1905000D02*
D03*
X1651000D02*
D03*
X1397000D02*
D03*
X1143000D02*
D03*
X4191000D02*
D03*
Y2667000D02*
D03*
X5461000Y2413000D02*
D03*
Y2159000D02*
D03*
Y1397000D02*
D03*
D13*
X4445000Y2667000D02*
D03*
X5461000Y1905000D02*
D03*
X889000Y1143000D02*
D03*
D14*
X4445000D02*
D03*
X5461000Y1651000D02*
D03*
X1397000Y2667000D02*
D03*
D15*
X889000D02*
D03*
D16*
X1143000D02*
D03*
D17*
X5334000Y635000D02*
D03*
X5588000D02*
D03*
X4699000D02*
D03*
X4953000D02*
D03*
X1651000Y3302000D02*
D03*
X1397000D02*
D03*
X2286000D02*
D03*
X2032000D02*
D03*
X2921000D02*
D03*
X2667000D02*
D03*
X3556000D02*
D03*
X3302000D02*
D03*
X4191000D02*
D03*
X3937000D02*
D03*
D18*
X2032000Y508000D02*
D03*
X1778000D02*
D03*
X1524000D02*
D03*
D19*
X1397000Y2344750D02*
X2090750Y1651000D01*
X3937000D02*
X4445000Y1143000D01*
X2090750Y1651000D02*
X3937000D01*
X3429000Y381000D02*
Y508000D01*
X3556000Y635000D01*
X4441803D02*
X4695803Y381000D01*
X3556000Y635000D02*
X4441803D01*
X4953000Y1651000D02*
X5461000D01*
X4445000Y1143000D02*
X4953000Y1651000D01*
X5969000Y381000D02*
X6223000Y635000D01*
X4695803Y381000D02*
X5969000D01*
X3556000Y330200D02*
Y381000D01*
Y330200D02*
X3632200Y254000D01*
X6096000D01*
X6477000Y635000D01*
Y1143000D01*
X6223000Y635000D02*
Y1143000D01*
X4445000Y1016000D02*
Y1143000D01*
X4191000Y762000D02*
X4445000Y1016000D01*
X3175000Y635000D02*
X3302000Y762000D01*
X4191000D01*
X3175000Y381000D02*
Y635000D01*
X1143000Y508000D02*
X1524000D01*
X1397000Y2344750D02*
Y2667000D01*
X1651000Y2921000D02*
X1905000Y2667000D01*
X1651000Y2921000D02*
Y3302000D01*
X1397000Y2921000D02*
Y3302000D01*
Y2921000D02*
X1651000Y2667000D01*
X508000Y2286000D02*
X889000Y2667000D01*
X508000Y1143000D02*
Y2286000D01*
Y1143000D02*
X1143000Y508000D01*
X4699000Y635000D02*
Y1143000D01*
X4953000Y635000D02*
Y1143000D01*
X5461000Y837400D02*
X5588000Y710400D01*
X5461000Y837400D02*
Y1143000D01*
X5588000Y635000D02*
Y710400D01*
X5334000Y635000D02*
Y710400D01*
X5207000Y837400D02*
Y1143000D01*
Y837400D02*
X5334000Y710400D01*
X1348740Y2620120D02*
X1395620Y2667000D01*
X1397000D01*
X2032000Y2794000D02*
Y3302000D01*
Y2794000D02*
X2159000Y2667000D01*
X2286000Y2794000D02*
Y3302000D01*
Y2794000D02*
X2413000Y2667000D01*
X2667000D02*
Y3302000D01*
X2921000Y2667000D02*
Y3302000D01*
X3302000Y3226600D02*
Y3302000D01*
X3175000Y2667000D02*
Y3099600D01*
X3302000Y3226600D01*
X3429000Y3099600D02*
X3556000Y3226600D01*
X3429000Y2667000D02*
Y3099600D01*
X3556000Y3226600D02*
Y3302000D01*
X3683000Y2972600D02*
X3937000Y3226600D01*
Y3302000D01*
X3683000Y2667000D02*
Y2972600D01*
X4191000Y3226600D02*
Y3302000D01*
X3937000Y2667000D02*
Y2972600D01*
X4191000Y3226600D01*
%TF.MD5,cf0aa17d4a3988d988788e0858d59a10*%
M02*
