%TF.GenerationSoftware,Altium Limited,Altium Designer,25.1.2 (22)*%
G04 Layer_Color=0*
%FSLAX45Y45*%
%MOMM*%
%TF.SameCoordinates,048E6D36-8505-433D-A829-9FA65E1B61E1*%
%TF.FilePolarity,Positive*%
%TF.FileFunction,Plated,1,2,PTH,Drill*%
%TF.Part,Single*%
G01*
G75*
%TA.AperFunction,ComponentDrill*%
%ADD58C,0.75000*%
%ADD59C,0.70000*%
%ADD60C,0.90000*%
%ADD61C,0.75000*%
%ADD62C,0.75000*%
%ADD63C,0.90000*%
%TA.AperFunction,OtherDrill,Pad Free-4 (4.826mm,3.937mm)*%
%ADD64C,3.00000*%
%TA.AperFunction,OtherDrill,Pad Free-4 (58.674mm,3.937mm)*%
%ADD65C,3.00000*%
%TA.AperFunction,ComponentDrill*%
%ADD66C,0.70000*%
%ADD67C,1.20000*%
%ADD68C,0.85000*%
%ADD69C,0.85000*%
%TA.AperFunction,OtherDrill,Pad Free-4 (58.674mm,65.405mm)*%
%ADD70C,3.00000*%
%TA.AperFunction,OtherDrill,Pad Free-4 (4.826mm,65.405mm)*%
%ADD71C,3.00000*%
D58*
X338200Y6134100D02*
D03*
X1338200D02*
D03*
X4554601Y5930900D02*
D03*
X5554599D02*
D03*
D59*
X2552200Y5029200D02*
D03*
Y5283200D02*
D03*
Y5537200D02*
D03*
X2136700Y6743700D02*
D03*
X1936700D02*
D03*
X1736700D02*
D03*
X1536700D02*
D03*
X1336700D02*
D03*
X1136700D02*
D03*
X3441202Y5219700D02*
D03*
Y4965700D02*
D03*
Y4711700D02*
D03*
X5676900Y5219700D02*
D03*
Y4965700D02*
D03*
Y4711700D02*
D03*
X4999799Y6667500D02*
D03*
X4499800D02*
D03*
X4622800Y5219700D02*
D03*
Y4965700D02*
D03*
Y4711700D02*
D03*
X1058100Y622300D02*
D03*
X1558099D02*
D03*
D60*
X2133600Y1231900D02*
D03*
X2387600D02*
D03*
X2641600D02*
D03*
X2895600D02*
D03*
X3149600D02*
D03*
X3403600D02*
D03*
X2387600Y1993900D02*
D03*
X2641600D02*
D03*
X2895600D02*
D03*
X3149600D02*
D03*
X3403600D02*
D03*
X3657600D02*
D03*
Y1231900D02*
D03*
X2133600Y1993900D02*
D03*
X5143500Y3975100D02*
D03*
X4889500D02*
D03*
X4635500D02*
D03*
X4381500D02*
D03*
X5143500Y3213100D02*
D03*
X4889500D02*
D03*
X4635500D02*
D03*
X4381500D02*
D03*
D61*
X469900Y5643500D02*
D03*
Y4643500D02*
D03*
X1892300Y5656200D02*
D03*
Y4656200D02*
D03*
X3949700Y4843400D02*
D03*
Y3843400D02*
D03*
X482600Y3284600D02*
D03*
Y4284600D02*
D03*
X1930400Y2763900D02*
D03*
Y3763900D02*
D03*
X4102100Y6659500D02*
D03*
Y5659502D02*
D03*
D62*
X4493754Y2503946D02*
D03*
X3786646Y3211054D02*
D03*
D63*
X3276600Y2565400D02*
D03*
Y2819400D02*
D03*
Y3073400D02*
D03*
Y3327400D02*
D03*
Y3581400D02*
D03*
Y3835400D02*
D03*
Y4089400D02*
D03*
X2514600Y2565400D02*
D03*
Y2819400D02*
D03*
Y3073400D02*
D03*
Y3327400D02*
D03*
Y3581400D02*
D03*
Y3835400D02*
D03*
Y4089400D02*
D03*
X342900Y2616200D02*
D03*
Y2362200D02*
D03*
Y2108200D02*
D03*
Y1854200D02*
D03*
Y1600200D02*
D03*
Y1346200D02*
D03*
Y1092200D02*
D03*
X1104900Y2616200D02*
D03*
Y2362200D02*
D03*
Y2108200D02*
D03*
Y1854200D02*
D03*
Y1600200D02*
D03*
Y1346200D02*
D03*
Y1092200D02*
D03*
X787400Y4013200D02*
D03*
Y3759200D02*
D03*
Y3505200D02*
D03*
Y3251200D02*
D03*
X1549400Y4013200D02*
D03*
Y3759200D02*
D03*
Y3505200D02*
D03*
Y3251200D02*
D03*
X800100Y5524500D02*
D03*
Y5270500D02*
D03*
Y5016500D02*
D03*
Y4762500D02*
D03*
X1562100Y5524500D02*
D03*
Y5270500D02*
D03*
Y5016500D02*
D03*
Y4762500D02*
D03*
D64*
X482600Y393700D02*
D03*
D65*
X5867400D02*
D03*
D66*
X2946400Y6352002D02*
D03*
Y6601998D02*
D03*
X3416300Y296098D02*
D03*
Y796102D02*
D03*
D67*
X3644900Y5969000D02*
D03*
Y6223000D02*
D03*
Y6477000D02*
D03*
D68*
X4140200Y2088302D02*
D03*
Y1188298D02*
D03*
D69*
X2786802Y520700D02*
D03*
X1886798D02*
D03*
D70*
X5867400Y6540500D02*
D03*
D71*
X482600D02*
D03*
%TF.MD5,1593f30904b97700fdd6e35bff24b037*%
M02*
