%TF.GenerationSoftware,Altium Limited,Altium Designer,25.1.2 (22)*%
G04 Layer_Color=65535*
%FSLAX45Y45*%
%MOMM*%
%TF.SameCoordinates,4BC43169-6B9A-449D-A763-764CEB413953*%
%TF.FilePolarity,Positive*%
%TF.FileFunction,Legend,Top*%
%TF.Part,Single*%
G01*
G75*
%TA.AperFunction,NonConductor*%
%ADD36C,0.25000*%
%ADD37C,0.60000*%
%ADD38C,0.20000*%
%ADD39C,0.20320*%
%ADD40C,0.15240*%
%ADD41C,0.25400*%
G36*
X8243676Y9619333D02*
X8294299D01*
Y9617886D01*
X8314549D01*
Y9614993D01*
X8313102D01*
Y9609208D01*
X8311656D01*
Y9604869D01*
X8310210D01*
Y9601976D01*
X8308763D01*
Y9596191D01*
X8307317D01*
Y9593298D01*
X8305870D01*
Y9588958D01*
X8304424D01*
Y9583173D01*
X8302978D01*
Y9581727D01*
X8301531D01*
Y9575941D01*
X8300085D01*
Y9571602D01*
X8298638D01*
Y9568709D01*
X8297192D01*
Y9562923D01*
X8295746D01*
Y9561477D01*
X8294299D01*
Y9555692D01*
X8292853D01*
Y9551353D01*
X8291407D01*
Y9548460D01*
X8289960D01*
Y9542674D01*
X8288514D01*
Y9539781D01*
X8287068D01*
Y9536888D01*
X8285621D01*
Y9531103D01*
X8284175D01*
Y9528210D01*
X8282728D01*
Y9523871D01*
X8281282D01*
Y9518086D01*
X8279835D01*
Y9516639D01*
X8278389D01*
Y9510853D01*
X8276943D01*
Y9507961D01*
X8275496D01*
Y9503622D01*
X8274050D01*
Y9497836D01*
X8272603D01*
Y9496390D01*
X8271157D01*
Y9490604D01*
X8269711D01*
Y9486265D01*
X8268264D01*
Y9483372D01*
X8266818D01*
Y9479033D01*
X8265372D01*
Y9474694D01*
X8263925D01*
Y9471801D01*
X8262479D01*
Y9466016D01*
X8261033D01*
Y9463123D01*
X8259586D01*
Y9458783D01*
X8258140D01*
Y9452998D01*
X8256693D01*
Y9450105D01*
X8255247D01*
Y9444320D01*
X8253800D01*
Y9441427D01*
X8252354D01*
Y9437088D01*
X8250908D01*
Y9432748D01*
X8249461D01*
Y9429856D01*
X8248015D01*
Y9424070D01*
X8246568D01*
Y9419731D01*
X8245122D01*
Y9416838D01*
X8243676D01*
Y9406713D01*
X8301531D01*
Y9408160D01*
X8302978D01*
Y9409606D01*
X8304424D01*
Y9413946D01*
X8305870D01*
Y9418285D01*
X8307317D01*
Y9421178D01*
X8308763D01*
Y9425517D01*
X8310210D01*
Y9429856D01*
X8311656D01*
Y9432748D01*
X8313102D01*
Y9438534D01*
X8314549D01*
Y9439981D01*
X8315995D01*
Y9445766D01*
X8317442D01*
Y9450105D01*
X8318888D01*
Y9452998D01*
X8320334D01*
Y9457337D01*
X8321781D01*
Y9461676D01*
X8323227D01*
Y9464569D01*
X8324673D01*
Y9470355D01*
X8326120D01*
Y9471801D01*
X8327566D01*
Y9477587D01*
X8329013D01*
Y9481926D01*
X8330459D01*
Y9484818D01*
X8331905D01*
Y9489158D01*
X8333352D01*
Y9492051D01*
X8334798D01*
Y9496390D01*
X8336245D01*
Y9502175D01*
X8337691D01*
Y9503622D01*
X8339137D01*
Y9509407D01*
X8340584D01*
Y9513746D01*
X8342030D01*
Y9515193D01*
X8343477D01*
Y9520978D01*
X8344923D01*
Y9523871D01*
X8346369D01*
Y9528210D01*
X8347816D01*
Y9532549D01*
X8349262D01*
Y9535442D01*
X8350708D01*
Y9539781D01*
X8352155D01*
Y9545567D01*
X8353601D01*
Y9547013D01*
X8355048D01*
Y9552799D01*
X8356494D01*
Y9555692D01*
X8357940D01*
Y9560031D01*
X8359387D01*
Y9564370D01*
X8360833D01*
Y9567263D01*
X8362280D01*
Y9571602D01*
X8363726D01*
Y9575941D01*
X8365172D01*
Y9578834D01*
X8366619D01*
Y9584619D01*
X8368065D01*
Y9586066D01*
X8369512D01*
Y9590405D01*
X8370958D01*
Y9596191D01*
X8372404D01*
Y9597637D01*
X8373851D01*
Y9603423D01*
X8375297D01*
Y9607762D01*
X8376743D01*
Y9610654D01*
X8378190D01*
Y9616440D01*
X8379636D01*
Y9617886D01*
X8412903D01*
Y9619333D01*
X8551757D01*
Y9617886D01*
X8563328D01*
Y9614993D01*
X8561881D01*
Y9610654D01*
X8560435D01*
Y9607762D01*
X8558988D01*
Y9601976D01*
X8557542D01*
Y9599083D01*
X8556096D01*
Y9594744D01*
X8554649D01*
Y9590405D01*
X8553203D01*
Y9587512D01*
X8551757D01*
Y9583173D01*
X8550310D01*
Y9577388D01*
X8548864D01*
Y9575941D01*
X8547418D01*
Y9570156D01*
X8545971D01*
Y9567263D01*
X8544525D01*
Y9562923D01*
X8543078D01*
Y9557138D01*
X8541632D01*
Y9555692D01*
X8540185D01*
Y9549906D01*
X8538739D01*
Y9545567D01*
X8537293D01*
Y9542674D01*
X8535846D01*
Y9536888D01*
X8534400D01*
Y9535442D01*
X8532953D01*
Y9531103D01*
X8531507D01*
Y9525317D01*
X8530061D01*
Y9522425D01*
X8528614D01*
Y9518086D01*
X8527168D01*
Y9513746D01*
X8525722D01*
Y9510853D01*
X8524275D01*
Y9505068D01*
X8522829D01*
Y9503622D01*
X8521382D01*
Y9497836D01*
X8519936D01*
Y9493497D01*
X8518490D01*
Y9490604D01*
X8517043D01*
Y9486265D01*
X8515597D01*
Y9481926D01*
X8514150D01*
Y9479033D01*
X8512704D01*
Y9473247D01*
X8511258D01*
Y9471801D01*
X8509811D01*
Y9466016D01*
X8508365D01*
Y9463123D01*
Y9461676D01*
X8506918D01*
Y9460230D01*
X8505472D01*
Y9454444D01*
X8504026D01*
Y9450105D01*
X8502579D01*
Y9447213D01*
X8501133D01*
Y9441427D01*
X8499687D01*
Y9439981D01*
X8498240D01*
Y9434195D01*
X8496794D01*
Y9429856D01*
X8495347D01*
Y9426963D01*
X8493901D01*
Y9422624D01*
X8492455D01*
Y9418285D01*
X8491008D01*
Y9415392D01*
X8489562D01*
Y9409606D01*
X8488115D01*
Y9408160D01*
X8486669D01*
Y9402374D01*
X8485223D01*
Y9398035D01*
X8483776D01*
Y9396589D01*
X8482330D01*
Y9390803D01*
X8480883D01*
Y9386464D01*
X8479437D01*
Y9383571D01*
X8477991D01*
Y9379232D01*
X8476544D01*
Y9376339D01*
X8475098D01*
Y9372000D01*
X8473652D01*
Y9366215D01*
X8472205D01*
Y9364768D01*
X8470759D01*
Y9358983D01*
X8469312D01*
Y9356090D01*
X8467866D01*
Y9353197D01*
X8466420D01*
Y9347412D01*
X8464973D01*
Y9345965D01*
X8463527D01*
Y9341626D01*
X8462080D01*
Y9340180D01*
X8447617D01*
Y9338733D01*
X8389761D01*
Y9337287D01*
X8366619D01*
Y9338733D01*
X8123625D01*
Y9340180D01*
X8081680D01*
Y9341626D01*
X8080234D01*
Y9343072D01*
X8078787D01*
Y9344519D01*
X8075895D01*
Y9345965D01*
X8074448D01*
Y9347412D01*
X8071555D01*
Y9348858D01*
X8070109D01*
Y9350304D01*
X8068663D01*
Y9351751D01*
X8067216D01*
Y9354643D01*
X8065770D01*
Y9356090D01*
X8064323D01*
Y9357536D01*
X8062877D01*
Y9360429D01*
X8061431D01*
Y9361876D01*
X8059984D01*
Y9364768D01*
X8058538D01*
Y9369107D01*
X8057092D01*
Y9370554D01*
X8055645D01*
Y9376339D01*
X8054199D01*
Y9389357D01*
X8055645D01*
Y9396589D01*
X8057092D01*
Y9398035D01*
X8058538D01*
Y9405267D01*
X8059984D01*
Y9409606D01*
X8061431D01*
Y9412499D01*
X8062877D01*
Y9418285D01*
X8064323D01*
Y9421178D01*
X8065770D01*
Y9425517D01*
X8067216D01*
Y9431302D01*
X8068663D01*
Y9434195D01*
X8070109D01*
Y9439981D01*
X8071555D01*
Y9444320D01*
X8073002D01*
Y9447213D01*
X8074448D01*
Y9452998D01*
X8075895D01*
Y9454444D01*
X8077341D01*
Y9460230D01*
X8078787D01*
Y9464569D01*
X8080234D01*
Y9467462D01*
X8081680D01*
Y9473247D01*
X8083127D01*
Y9477587D01*
X8084573D01*
Y9479033D01*
X8086019D01*
Y9484818D01*
X8087466D01*
Y9487711D01*
X8088912D01*
Y9492051D01*
X8090358D01*
Y9497836D01*
X8091805D01*
Y9499282D01*
X8093251D01*
Y9505068D01*
X8094698D01*
Y9509407D01*
X8096144D01*
Y9512300D01*
X8097590D01*
Y9518086D01*
X8099037D01*
Y9519532D01*
X8100483D01*
Y9525317D01*
X8101930D01*
Y9529657D01*
X8103376D01*
Y9532549D01*
X8104823D01*
Y9536888D01*
X8106269D01*
Y9541228D01*
X8107715D01*
Y9544121D01*
X8109162D01*
Y9549906D01*
X8110608D01*
Y9552799D01*
X8112054D01*
Y9557138D01*
X8113501D01*
Y9562923D01*
X8114947D01*
Y9564370D01*
X8116393D01*
Y9570156D01*
X8117840D01*
Y9574495D01*
X8119286D01*
Y9577388D01*
X8120733D01*
Y9583173D01*
X8122179D01*
Y9586066D01*
X8123625D01*
Y9590405D01*
X8125072D01*
Y9596191D01*
X8126518D01*
Y9597637D01*
X8127965D01*
Y9603423D01*
X8129411D01*
Y9607762D01*
X8130858D01*
Y9610654D01*
X8132304D01*
Y9616440D01*
X8130858D01*
Y9614993D01*
X8127965D01*
Y9613547D01*
X8126518D01*
Y9612101D01*
X8125072D01*
Y9610654D01*
X8122179D01*
Y9609208D01*
X8119286D01*
Y9607762D01*
X8117840D01*
Y9606315D01*
X8116393D01*
Y9604869D01*
X8114947D01*
Y9603423D01*
X8112054D01*
Y9601976D01*
X8109162D01*
Y9599083D01*
X8106269D01*
Y9597637D01*
X8104823D01*
Y9596191D01*
X8101930D01*
Y9594744D01*
X8100483D01*
Y9593298D01*
X8099037D01*
Y9591851D01*
X8097590D01*
Y9590405D01*
X8094698D01*
Y9588958D01*
X8093251D01*
Y9587512D01*
X8090358D01*
Y9586066D01*
X8088912D01*
Y9584619D01*
X8087466D01*
Y9583173D01*
X8084573D01*
Y9581727D01*
X8083127D01*
Y9580280D01*
X8081680D01*
Y9578834D01*
X8078787D01*
Y9577388D01*
X8077341D01*
Y9575941D01*
X8075895D01*
Y9574495D01*
X8073002D01*
Y9573048D01*
X8071555D01*
Y9571602D01*
X8070109D01*
Y9570156D01*
X8068663D01*
Y9568709D01*
X8065770D01*
Y9567263D01*
X8062877D01*
Y9564370D01*
X8059984D01*
Y9562923D01*
X8058538D01*
Y9561477D01*
X8055645D01*
Y9560031D01*
X8054199D01*
Y9558584D01*
X8052752D01*
Y9557138D01*
X8051306D01*
Y9555692D01*
X8048413D01*
Y9554245D01*
X8046967D01*
Y9552799D01*
X8044074D01*
Y9551353D01*
X8042628D01*
Y9549906D01*
X8041181D01*
Y9548460D01*
X8038288D01*
Y9547013D01*
X8036842D01*
Y9545567D01*
X8035396D01*
Y9544121D01*
X8032503D01*
Y9541228D01*
X8029610D01*
Y9539781D01*
X8026717D01*
Y9538335D01*
X8025271D01*
Y9536888D01*
X8023825D01*
Y9535442D01*
X8022378D01*
Y9533996D01*
X8019485D01*
Y9532549D01*
X8018039D01*
Y9531103D01*
X8016593D01*
Y9529657D01*
X8013700D01*
Y9528210D01*
X8012253D01*
Y9526764D01*
X8010807D01*
Y9525317D01*
X8007914D01*
Y9523871D01*
X8006468D01*
Y9522425D01*
X8005022D01*
Y9520978D01*
X8003575D01*
Y9519532D01*
X8002129D01*
Y9518086D01*
X7999236D01*
Y9516639D01*
X7996343D01*
Y9515193D01*
X7994897D01*
Y9513746D01*
X7993450D01*
Y9512300D01*
X7992004D01*
Y9510853D01*
X7989111D01*
Y9509407D01*
X7987665D01*
Y9507961D01*
X7986218D01*
Y9506514D01*
X7983326D01*
Y9505068D01*
X7981879D01*
Y9503622D01*
X7980433D01*
Y9502175D01*
X7977540D01*
Y9500729D01*
X7976094D01*
Y9499282D01*
X7974648D01*
Y9497836D01*
X7973201D01*
Y9496390D01*
X7971755D01*
Y9494943D01*
X7968862D01*
Y9493497D01*
X7967415D01*
Y9492051D01*
X7965969D01*
Y9490604D01*
X7963076D01*
Y9489158D01*
X7961630D01*
Y9487711D01*
X7960183D01*
Y9486265D01*
X7957291D01*
Y9484818D01*
X7955844D01*
Y9483372D01*
X7954398D01*
Y9481926D01*
X7952952D01*
Y9480479D01*
X7951505D01*
Y9479033D01*
X7948613D01*
Y9477587D01*
X7947166D01*
Y9474694D01*
X7945720D01*
Y9473247D01*
X7944273D01*
Y9468908D01*
X7942827D01*
Y9464569D01*
X7941380D01*
Y9463123D01*
X7939934D01*
Y9457337D01*
X7938488D01*
Y9454444D01*
X7937041D01*
Y9451552D01*
X7935595D01*
Y9445766D01*
X7934148D01*
Y9444320D01*
X7932702D01*
Y9438534D01*
X7931256D01*
Y9434195D01*
X7929809D01*
Y9432748D01*
X7928363D01*
Y9426963D01*
X7926917D01*
Y9424070D01*
X7925470D01*
Y9419731D01*
X7924024D01*
Y9415392D01*
X7922577D01*
Y9412499D01*
X7921131D01*
Y9408160D01*
X7919685D01*
Y9402374D01*
X7918238D01*
Y9400928D01*
X7916792D01*
Y9395143D01*
X7915345D01*
Y9392250D01*
X7913899D01*
Y9387911D01*
X7912453D01*
Y9383571D01*
X7911006D01*
Y9380678D01*
X7909560D01*
Y9376339D01*
X7908113D01*
Y9370554D01*
X7906667D01*
Y9369107D01*
X7905221D01*
Y9363322D01*
X7903774D01*
Y9360429D01*
X7902328D01*
Y9356090D01*
X7900882D01*
Y9350304D01*
X7899435D01*
Y9348858D01*
X7897989D01*
Y9343072D01*
X7896542D01*
Y9340180D01*
X7895096D01*
Y9338733D01*
X7880632D01*
Y9337287D01*
X7751903D01*
Y9338733D01*
X7718637D01*
Y9340180D01*
X7711405D01*
Y9341626D01*
X7712851D01*
Y9347412D01*
X7714298D01*
Y9350304D01*
X7715744D01*
Y9354643D01*
X7717190D01*
Y9360429D01*
X7718637D01*
Y9361876D01*
X7720083D01*
Y9367661D01*
X7721529D01*
Y9372000D01*
X7722976D01*
Y9374893D01*
X7724422D01*
Y9379232D01*
X7725868D01*
Y9382125D01*
X7727315D01*
Y9386464D01*
X7728761D01*
Y9392250D01*
X7730208D01*
Y9393696D01*
X7731654D01*
Y9399482D01*
X7733100D01*
Y9403821D01*
X7734547D01*
Y9406713D01*
X7735993D01*
Y9411053D01*
X7737440D01*
Y9413946D01*
X7738886D01*
Y9418285D01*
X7740332D01*
Y9424070D01*
X7741779D01*
Y9425517D01*
X7743225D01*
Y9431302D01*
X7744672D01*
Y9435641D01*
X7746118D01*
Y9438534D01*
X7747564D01*
Y9444320D01*
X7749011D01*
Y9445766D01*
X7750457D01*
Y9451552D01*
X7751903D01*
Y9455891D01*
X7753350D01*
Y9458783D01*
X7754796D01*
Y9463123D01*
X7756243D01*
Y9468908D01*
X7757689D01*
Y9471801D01*
X7759135D01*
Y9479033D01*
X7760582D01*
Y9480479D01*
X7759135D01*
Y9486265D01*
X7757689D01*
Y9489158D01*
X7756243D01*
Y9492051D01*
X7754796D01*
Y9494943D01*
X7753350D01*
Y9496390D01*
X7751903D01*
Y9499282D01*
X7750457D01*
Y9502175D01*
X7749011D01*
Y9503622D01*
X7747564D01*
Y9506514D01*
X7746118D01*
Y9509407D01*
X7744672D01*
Y9510853D01*
X7743225D01*
Y9513746D01*
X7741779D01*
Y9516639D01*
X7740332D01*
Y9518086D01*
X7738886D01*
Y9522425D01*
X7737440D01*
Y9523871D01*
X7735993D01*
Y9526764D01*
X7734547D01*
Y9528210D01*
X7733100D01*
Y9531103D01*
X7731654D01*
Y9533996D01*
X7730208D01*
Y9535442D01*
X7728761D01*
Y9538335D01*
X7727315D01*
Y9541228D01*
X7725868D01*
Y9542674D01*
X7724422D01*
Y9545567D01*
X7722976D01*
Y9548460D01*
X7721529D01*
Y9551353D01*
X7720083D01*
Y9552799D01*
X7718637D01*
Y9555692D01*
X7717190D01*
Y9558584D01*
X7715744D01*
Y9561477D01*
X7714298D01*
Y9562923D01*
X7712851D01*
Y9565816D01*
X7711405D01*
Y9567263D01*
X7709958D01*
Y9570156D01*
X7708512D01*
Y9573048D01*
X7707065D01*
Y9574495D01*
X7705619D01*
Y9577388D01*
X7704173D01*
Y9580280D01*
X7702726D01*
Y9581727D01*
X7701280D01*
Y9584619D01*
X7699833D01*
Y9587512D01*
X7698387D01*
Y9590405D01*
X7696941D01*
Y9591851D01*
X7695494D01*
Y9594744D01*
X7694048D01*
Y9597637D01*
X7692602D01*
Y9600530D01*
X7691155D01*
Y9601976D01*
X7689709D01*
Y9604869D01*
X7688263D01*
Y9607762D01*
X7686816D01*
Y9609208D01*
X7685370D01*
Y9612101D01*
X7683923D01*
Y9614993D01*
X7682477D01*
Y9617886D01*
X7683923D01*
Y9619333D01*
X7832901D01*
Y9617886D01*
X7867615D01*
Y9614993D01*
X7869061D01*
Y9613547D01*
X7870507D01*
Y9610654D01*
X7871954D01*
Y9607762D01*
X7873400D01*
Y9606315D01*
X7874847D01*
Y9603423D01*
X7876293D01*
Y9601976D01*
X7877739D01*
Y9599083D01*
X7879186D01*
Y9596191D01*
X7880632D01*
Y9594744D01*
X7882078D01*
Y9591851D01*
X7883525D01*
Y9590405D01*
X7884971D01*
Y9587512D01*
X7886418D01*
Y9586066D01*
X7887864D01*
Y9584619D01*
X7889310D01*
Y9583173D01*
X7890757D01*
Y9584619D01*
X7892203D01*
Y9586066D01*
X7895096D01*
Y9587512D01*
X7897989D01*
Y9590405D01*
X7900882D01*
Y9591851D01*
X7902328D01*
Y9593298D01*
X7905221D01*
Y9594744D01*
X7906667D01*
Y9596191D01*
X7908113D01*
Y9597637D01*
X7911006D01*
Y9599083D01*
X7912453D01*
Y9600530D01*
X7913899D01*
Y9601976D01*
X7916792D01*
Y9603423D01*
X7918238D01*
Y9604869D01*
X7919685D01*
Y9606315D01*
X7922577D01*
Y9607762D01*
X7924024D01*
Y9609208D01*
X7925470D01*
Y9610654D01*
X7926917D01*
Y9612101D01*
X7928363D01*
Y9613547D01*
X7931256D01*
Y9614993D01*
X7932702D01*
Y9616440D01*
X7935595D01*
Y9617886D01*
X7937041D01*
Y9619333D01*
X7938488D01*
Y9620779D01*
X8243676D01*
Y9619333D01*
D02*
G37*
G36*
X7396092D02*
X7537838D01*
Y9617886D01*
X7620282D01*
Y9616440D01*
X7630407D01*
Y9614993D01*
X7633300D01*
Y9613547D01*
X7639085D01*
Y9612101D01*
X7641978D01*
Y9610654D01*
X7646317D01*
Y9609208D01*
X7649210D01*
Y9607762D01*
X7652103D01*
Y9606315D01*
X7654995D01*
Y9604869D01*
X7657888D01*
Y9603423D01*
X7659335D01*
Y9601976D01*
X7662228D01*
Y9600530D01*
X7663674D01*
Y9599083D01*
X7666567D01*
Y9597637D01*
X7668013D01*
Y9596191D01*
X7669459D01*
Y9594744D01*
X7670906D01*
Y9591851D01*
X7672352D01*
Y9590405D01*
X7673798D01*
Y9588958D01*
X7675245D01*
Y9586066D01*
X7676691D01*
Y9583173D01*
X7678138D01*
Y9577388D01*
X7679584D01*
Y9551353D01*
X7678138D01*
Y9538335D01*
X7676691D01*
Y9535442D01*
X7675245D01*
Y9531103D01*
X7673798D01*
Y9526764D01*
X7672352D01*
Y9525317D01*
X7670906D01*
Y9520978D01*
X7669459D01*
Y9518086D01*
X7668013D01*
Y9516639D01*
X7666567D01*
Y9513746D01*
X7665120D01*
Y9512300D01*
X7663674D01*
Y9509407D01*
X7662228D01*
Y9507961D01*
X7660781D01*
Y9506514D01*
X7659335D01*
Y9503622D01*
X7657888D01*
Y9502175D01*
X7656442D01*
Y9499282D01*
X7654995D01*
Y9497836D01*
X7653549D01*
Y9496390D01*
X7652103D01*
Y9494943D01*
X7650656D01*
Y9493497D01*
X7649210D01*
Y9492051D01*
X7647763D01*
Y9490604D01*
X7646317D01*
Y9487711D01*
X7644871D01*
Y9486265D01*
X7643424D01*
Y9484818D01*
X7641978D01*
Y9483372D01*
X7639085D01*
Y9481926D01*
X7637639D01*
Y9480479D01*
X7636192D01*
Y9479033D01*
X7634746D01*
Y9477587D01*
X7633300D01*
Y9476140D01*
X7630407D01*
Y9474694D01*
X7628960D01*
Y9473247D01*
X7627514D01*
Y9468908D01*
X7628960D01*
Y9466016D01*
X7630407D01*
Y9464569D01*
X7631853D01*
Y9460230D01*
X7633300D01*
Y9457337D01*
X7634746D01*
Y9454444D01*
X7636192D01*
Y9448659D01*
X7637639D01*
Y9445766D01*
X7639085D01*
Y9434195D01*
X7637639D01*
Y9429856D01*
X7636192D01*
Y9422624D01*
X7634746D01*
Y9419731D01*
X7633300D01*
Y9415392D01*
X7631853D01*
Y9412499D01*
X7630407D01*
Y9409606D01*
X7628960D01*
Y9406713D01*
X7627514D01*
Y9403821D01*
X7626068D01*
Y9402374D01*
X7624621D01*
Y9398035D01*
X7623175D01*
Y9396589D01*
X7621728D01*
Y9395143D01*
X7620282D01*
Y9392250D01*
X7618836D01*
Y9390803D01*
X7617389D01*
Y9387911D01*
X7615943D01*
Y9386464D01*
X7614497D01*
Y9385018D01*
X7613050D01*
Y9383571D01*
X7611604D01*
Y9382125D01*
X7610157D01*
Y9379232D01*
X7607265D01*
Y9377786D01*
X7605818D01*
Y9376339D01*
X7604372D01*
Y9374893D01*
X7602925D01*
Y9373447D01*
X7601479D01*
Y9372000D01*
X7600033D01*
Y9370554D01*
X7598586D01*
Y9369107D01*
X7597140D01*
Y9367661D01*
X7594247D01*
Y9366215D01*
X7592801D01*
Y9364768D01*
X7589908D01*
Y9363322D01*
X7588462D01*
Y9361876D01*
X7585569D01*
Y9360429D01*
X7582676D01*
Y9358983D01*
X7579783D01*
Y9357536D01*
X7578337D01*
Y9356090D01*
X7573998D01*
Y9354643D01*
X7572551D01*
Y9353197D01*
X7568212D01*
Y9351751D01*
X7563873D01*
Y9350304D01*
X7562427D01*
Y9348858D01*
X7556641D01*
Y9347412D01*
X7552302D01*
Y9345965D01*
X7547963D01*
Y9344519D01*
X7540731D01*
Y9343072D01*
X7536392D01*
Y9341626D01*
X7523374D01*
Y9340180D01*
X7490107D01*
Y9338733D01*
X7449608D01*
Y9337287D01*
X7189258D01*
Y9343072D01*
X7190705D01*
Y9348858D01*
X7192151D01*
Y9351751D01*
X7193597D01*
Y9356090D01*
X7195044D01*
Y9360429D01*
X7196490D01*
Y9363322D01*
X7197937D01*
Y9369107D01*
X7199383D01*
Y9372000D01*
X7200829D01*
Y9376339D01*
X7202276D01*
Y9380678D01*
X7203722D01*
Y9383571D01*
X7205168D01*
Y9389357D01*
X7206615D01*
Y9392250D01*
X7208061D01*
Y9396589D01*
X7209508D01*
Y9402374D01*
X7210954D01*
Y9403821D01*
X7212400D01*
Y9409606D01*
X7213847D01*
Y9413946D01*
X7215293D01*
Y9416838D01*
X7216740D01*
Y9421178D01*
X7218186D01*
Y9424070D01*
X7219633D01*
Y9428409D01*
X7221079D01*
Y9434195D01*
X7222525D01*
Y9435641D01*
X7223972D01*
Y9441427D01*
X7225418D01*
Y9445766D01*
X7226864D01*
Y9448659D01*
X7228311D01*
Y9452998D01*
X7229757D01*
Y9455891D01*
X7231203D01*
Y9460230D01*
X7232650D01*
Y9466016D01*
X7234096D01*
Y9467462D01*
X7235543D01*
Y9473247D01*
X7236989D01*
Y9477587D01*
X7238435D01*
Y9480479D01*
X7239882D01*
Y9484818D01*
X7241328D01*
Y9487711D01*
X7242775D01*
Y9492051D01*
X7244221D01*
Y9497836D01*
X7245668D01*
Y9499282D01*
X7247114D01*
Y9505068D01*
X7248560D01*
Y9507961D01*
X7250007D01*
Y9512300D01*
X7251453D01*
Y9516639D01*
X7252899D01*
Y9519532D01*
X7254346D01*
Y9523871D01*
X7255792D01*
Y9529657D01*
X7257238D01*
Y9531103D01*
X7258685D01*
Y9536888D01*
X7260131D01*
Y9541228D01*
X7261578D01*
Y9544121D01*
X7263024D01*
Y9548460D01*
X7264470D01*
Y9551353D01*
X7265917D01*
Y9555692D01*
X7267363D01*
Y9560031D01*
X7268810D01*
Y9562923D01*
X7270256D01*
Y9568709D01*
X7271703D01*
Y9571602D01*
X7273149D01*
Y9574495D01*
X7274595D01*
Y9580280D01*
X7276042D01*
Y9583173D01*
X7277488D01*
Y9587512D01*
X7278934D01*
Y9591851D01*
X7280381D01*
Y9594744D01*
X7281827D01*
Y9599083D01*
X7283273D01*
Y9603423D01*
X7284720D01*
Y9606315D01*
X7286166D01*
Y9612101D01*
X7287613D01*
Y9614993D01*
X7289059D01*
Y9619333D01*
X7290505D01*
Y9620779D01*
X7396092D01*
Y9619333D01*
D02*
G37*
G36*
X8041181Y9223022D02*
X8042628D01*
Y9220129D01*
X8045520D01*
Y9217237D01*
X8046967D01*
Y9214344D01*
X8045520D01*
Y9211451D01*
X8042628D01*
Y9208558D01*
X8039735D01*
Y9207112D01*
X8036842D01*
Y9204219D01*
X8031057D01*
Y9201326D01*
X8026717D01*
Y9199880D01*
X8018039D01*
Y9196987D01*
X8006468D01*
Y9198433D01*
X8005022D01*
Y9199880D01*
X8002129D01*
Y9201326D01*
X7999236D01*
Y9204219D01*
X7996343D01*
Y9207112D01*
X7997790D01*
Y9208558D01*
X8003575D01*
Y9211451D01*
X8012253D01*
Y9212897D01*
X8019485D01*
Y9215790D01*
X8025271D01*
Y9218683D01*
X8029610D01*
Y9220129D01*
X8031057D01*
Y9223022D01*
X8033949D01*
Y9224468D01*
X8041181D01*
Y9223022D01*
D02*
G37*
G36*
X7394645Y9230254D02*
X7403324D01*
Y9227361D01*
X7410556D01*
Y9224468D01*
X7407663D01*
Y9223022D01*
X7406217D01*
Y9220129D01*
X7401878D01*
Y9218683D01*
X7398985D01*
Y9215790D01*
X7396092D01*
Y9212897D01*
X7393199D01*
Y9211451D01*
X7390306D01*
Y9210005D01*
X7388860D01*
Y9208558D01*
X7387413D01*
Y9201326D01*
X7401878D01*
Y9202773D01*
X7403324D01*
Y9204219D01*
X7417788D01*
Y9207112D01*
X7430805D01*
Y9208558D01*
X7500232D01*
Y9207112D01*
X7511803D01*
Y9204219D01*
X7519035D01*
Y9202773D01*
X7520481D01*
Y9201326D01*
X7524820D01*
Y9199880D01*
X7529160D01*
Y9196987D01*
X7533499D01*
Y9195541D01*
X7534945D01*
Y9192648D01*
X7537838D01*
Y9191202D01*
X7539284D01*
Y9189755D01*
X7540731D01*
Y9188309D01*
X7542177D01*
Y9185416D01*
X7545070D01*
Y9178184D01*
X7546516D01*
Y9169506D01*
X7545070D01*
Y9162274D01*
X7542177D01*
Y9157935D01*
X7540731D01*
Y9153596D01*
X7537838D01*
Y9150703D01*
X7536392D01*
Y9149256D01*
X7534945D01*
Y9146363D01*
X7533499D01*
Y9143471D01*
X7530606D01*
Y9142024D01*
X7529160D01*
Y9137685D01*
X7526267D01*
Y9134793D01*
X7523374D01*
Y9131900D01*
X7521928D01*
Y9130453D01*
X7519035D01*
Y9127561D01*
X7517588D01*
Y9126114D01*
X7514696D01*
Y9123221D01*
X7511803D01*
Y9120328D01*
X7507464D01*
Y9118882D01*
X7506018D01*
Y9115989D01*
X7503125D01*
Y9114543D01*
X7501678D01*
Y9113097D01*
X7500232D01*
Y9111650D01*
X7495893D01*
Y9108758D01*
X7494446D01*
Y9107311D01*
X7488661D01*
Y9104418D01*
X7487214D01*
Y9102972D01*
X7482875D01*
Y9100079D01*
X7477090D01*
Y9097186D01*
X7472750D01*
Y9095740D01*
X7468411D01*
Y9092847D01*
X7462626D01*
Y9091401D01*
X7461179D01*
Y9089954D01*
X7456840D01*
Y9088508D01*
X7452501D01*
Y9085615D01*
X7445269D01*
Y9084169D01*
X7438037D01*
Y9081276D01*
X7430805D01*
Y9078383D01*
X7423573D01*
Y9076937D01*
X7416341D01*
Y9075491D01*
X7414895D01*
Y9074044D01*
X7407663D01*
Y9072598D01*
X7398985D01*
Y9069705D01*
X7387413D01*
Y9066812D01*
X7375843D01*
Y9065366D01*
X7362825D01*
Y9063919D01*
X7361378D01*
Y9062473D01*
X7348361D01*
Y9061027D01*
X7329558D01*
Y9058134D01*
X7313648D01*
Y9055241D01*
X7303523D01*
Y9049456D01*
X7307862D01*
Y9046563D01*
X7313648D01*
Y9045116D01*
X7315094D01*
Y9043670D01*
X7319433D01*
Y9042223D01*
X7326665D01*
Y9039331D01*
X7333897D01*
Y9037884D01*
X7342575D01*
Y9034992D01*
X7349808D01*
Y9033545D01*
X7351254D01*
Y9032099D01*
X7359932D01*
Y9030652D01*
X7368610D01*
Y9027760D01*
X7380182D01*
Y9026313D01*
X7433698D01*
Y9027760D01*
X7446715D01*
Y9030652D01*
X7456840D01*
Y9032099D01*
X7465518D01*
Y9034992D01*
X7472750D01*
Y9037884D01*
X7479982D01*
Y9039331D01*
X7487214D01*
Y9042223D01*
X7493000D01*
Y9043670D01*
X7497339D01*
Y9045116D01*
X7498785D01*
Y9046563D01*
X7504571D01*
Y9048009D01*
X7506018D01*
Y9049456D01*
X7510357D01*
Y9050902D01*
X7514696D01*
Y9052348D01*
X7516142D01*
Y9053795D01*
X7521928D01*
Y9055241D01*
X7524820D01*
Y9056687D01*
X7526267D01*
Y9058134D01*
X7530606D01*
Y9061027D01*
X7534945D01*
Y9062473D01*
X7537838D01*
Y9063919D01*
X7539284D01*
Y9065366D01*
X7542177D01*
Y9066812D01*
X7545070D01*
Y9068258D01*
X7546516D01*
Y9069705D01*
X7549409D01*
Y9072598D01*
X7553748D01*
Y9074044D01*
X7556641D01*
Y9076937D01*
X7558088D01*
Y9078383D01*
X7559534D01*
Y9079830D01*
X7562427D01*
Y9081276D01*
X7565319D01*
Y9084169D01*
X7568212D01*
Y9085615D01*
X7572551D01*
Y9088508D01*
X7575444D01*
Y9091401D01*
X7579783D01*
Y9092847D01*
X7584122D01*
Y9095740D01*
X7588462D01*
Y9097186D01*
X7591354D01*
Y9098633D01*
X7592801D01*
Y9100079D01*
X7597140D01*
Y9101526D01*
X7598586D01*
Y9102972D01*
X7602925D01*
Y9104418D01*
X7607265D01*
Y9107311D01*
X7614497D01*
Y9108758D01*
X7618836D01*
Y9111650D01*
X7626068D01*
Y9114543D01*
X7633300D01*
Y9115989D01*
X7639085D01*
Y9118882D01*
X7646317D01*
Y9120328D01*
X7653549D01*
Y9121775D01*
X7656442D01*
Y9123221D01*
X7662228D01*
Y9124668D01*
X7663674D01*
Y9126114D01*
X7672352D01*
Y9127561D01*
X7681030D01*
Y9130453D01*
X7702726D01*
Y9127561D01*
X7704173D01*
Y9121775D01*
X7702726D01*
Y9115989D01*
X7699833D01*
Y9111650D01*
X7698387D01*
Y9107311D01*
X7695494D01*
Y9102972D01*
X7694048D01*
Y9101526D01*
X7692602D01*
Y9097186D01*
X7691155D01*
Y9092847D01*
X7688263D01*
Y9085615D01*
X7686816D01*
Y9081276D01*
X7683923D01*
Y9074044D01*
X7681030D01*
Y9066812D01*
X7679584D01*
Y9058134D01*
X7676691D01*
Y9039331D01*
X7683923D01*
Y9042223D01*
X7686816D01*
Y9045116D01*
X7688263D01*
Y9046563D01*
X7689709D01*
Y9048009D01*
X7691155D01*
Y9050902D01*
X7692602D01*
Y9053795D01*
X7695494D01*
Y9055241D01*
X7696941D01*
Y9056687D01*
X7698387D01*
Y9058134D01*
X7699833D01*
Y9061027D01*
X7701280D01*
Y9062473D01*
X7702726D01*
Y9065366D01*
X7704173D01*
Y9066812D01*
X7705619D01*
Y9068258D01*
X7707065D01*
Y9069705D01*
X7708512D01*
Y9071151D01*
X7709958D01*
Y9074044D01*
X7711405D01*
Y9076937D01*
X7714298D01*
Y9079830D01*
X7715744D01*
Y9081276D01*
X7718637D01*
Y9084169D01*
X7721529D01*
Y9087062D01*
X7722976D01*
Y9091401D01*
X7725868D01*
Y9092847D01*
X7727315D01*
Y9095740D01*
X7730208D01*
Y9097186D01*
X7733100D01*
Y9100079D01*
X7734547D01*
Y9102972D01*
X7737440D01*
Y9104418D01*
X7738886D01*
Y9107311D01*
X7741779D01*
Y9108758D01*
X7744672D01*
Y9111650D01*
X7749011D01*
Y9114543D01*
X7750457D01*
Y9115989D01*
X7753350D01*
Y9118882D01*
X7757689D01*
Y9120328D01*
X7760582D01*
Y9121775D01*
X7762028D01*
Y9123221D01*
X7764921D01*
Y9126114D01*
X7769260D01*
Y9127561D01*
X7773599D01*
Y9130453D01*
X7779385D01*
Y9131900D01*
X7783724D01*
Y9134793D01*
X7788063D01*
Y9137685D01*
X7795295D01*
Y9139132D01*
X7799634D01*
Y9142024D01*
X7806866D01*
Y9143471D01*
X7812652D01*
Y9144917D01*
X7814098D01*
Y9146363D01*
X7819884D01*
Y9149256D01*
X7827116D01*
Y9150703D01*
X7834348D01*
Y9153596D01*
X7843026D01*
Y9155042D01*
X7861829D01*
Y9153596D01*
X7871954D01*
Y9150703D01*
X7879186D01*
Y9149256D01*
X7884971D01*
Y9147810D01*
X7886418D01*
Y9146363D01*
X7890757D01*
Y9143471D01*
X7892203D01*
Y9142024D01*
X7890757D01*
Y9139132D01*
X7880632D01*
Y9137685D01*
X7840133D01*
Y9136239D01*
X7838687D01*
Y9134793D01*
X7828562D01*
Y9133346D01*
X7827116D01*
Y9131900D01*
X7821330D01*
Y9130453D01*
X7815545D01*
Y9127561D01*
X7811205D01*
Y9126114D01*
X7806866D01*
Y9123221D01*
X7802527D01*
Y9120328D01*
X7799634D01*
Y9118882D01*
X7798188D01*
Y9115989D01*
X7793849D01*
Y9114543D01*
X7792403D01*
Y9113097D01*
X7790956D01*
Y9111650D01*
X7789510D01*
Y9110204D01*
X7788063D01*
Y9107311D01*
X7786617D01*
Y9105865D01*
X7785170D01*
Y9104418D01*
X7783724D01*
Y9101526D01*
X7780831D01*
Y9097186D01*
X7779385D01*
Y9095740D01*
X7776492D01*
Y9089954D01*
X7773599D01*
Y9085615D01*
X7772153D01*
Y9081276D01*
X7769260D01*
Y9074044D01*
X7767814D01*
Y9058134D01*
X7766367D01*
Y9056687D01*
X7764921D01*
Y9045116D01*
X7767814D01*
Y9032099D01*
X7769260D01*
Y9030652D01*
X7789510D01*
Y9032099D01*
X7793849D01*
Y9033545D01*
X7795295D01*
Y9034992D01*
X7799634D01*
Y9037884D01*
X7803973D01*
Y9039331D01*
X7808313D01*
Y9042223D01*
X7814098D01*
Y9043670D01*
X7816991D01*
Y9045116D01*
X7818438D01*
Y9046563D01*
X7822777D01*
Y9049456D01*
X7827116D01*
Y9050902D01*
X7830008D01*
Y9053795D01*
X7834348D01*
Y9055241D01*
X7837240D01*
Y9056687D01*
X7838687D01*
Y9058134D01*
X7841580D01*
Y9061027D01*
X7845919D01*
Y9062473D01*
X7848812D01*
Y9063919D01*
X7850258D01*
Y9065366D01*
X7853151D01*
Y9066812D01*
X7854597D01*
Y9068258D01*
X7857490D01*
Y9069705D01*
X7860383D01*
Y9072598D01*
X7863275D01*
Y9074044D01*
X7866168D01*
Y9075491D01*
X7867615D01*
Y9076937D01*
X7869061D01*
Y9078383D01*
X7870507D01*
Y9079830D01*
X7873400D01*
Y9081276D01*
X7876293D01*
Y9084169D01*
X7879186D01*
Y9085615D01*
X7883525D01*
Y9088508D01*
X7884971D01*
Y9091401D01*
X7887864D01*
Y9092847D01*
X7892203D01*
Y9095740D01*
X7895096D01*
Y9097186D01*
X7896542D01*
Y9100079D01*
X7900882D01*
Y9102972D01*
X7903774D01*
Y9104418D01*
X7906667D01*
Y9107311D01*
X7908113D01*
Y9108758D01*
X7911006D01*
Y9110204D01*
X7912453D01*
Y9111650D01*
X7915345D01*
Y9114543D01*
X7918238D01*
Y9115989D01*
X7919685D01*
Y9118882D01*
X7922577D01*
Y9120328D01*
X7925470D01*
Y9123221D01*
X7928363D01*
Y9126114D01*
X7931256D01*
Y9127561D01*
X7934148D01*
Y9130453D01*
X7937041D01*
Y9131900D01*
X7938488D01*
Y9134793D01*
X7942827D01*
Y9137685D01*
X7945720D01*
Y9139132D01*
X7950059D01*
Y9142024D01*
X7964523D01*
Y9139132D01*
X7971755D01*
Y9136239D01*
X7968862D01*
Y9131900D01*
X7967415D01*
Y9130453D01*
X7964523D01*
Y9127561D01*
X7961630D01*
Y9124668D01*
X7960183D01*
Y9121775D01*
X7958737D01*
Y9120328D01*
X7957291D01*
Y9118882D01*
X7955844D01*
Y9117436D01*
X7954398D01*
Y9115989D01*
X7952952D01*
Y9114543D01*
X7951505D01*
Y9113097D01*
X7950059D01*
Y9111650D01*
X7948613D01*
Y9108758D01*
X7945720D01*
Y9104418D01*
X7942827D01*
Y9102972D01*
X7941380D01*
Y9100079D01*
X7938488D01*
Y9097186D01*
X7937041D01*
Y9095740D01*
X7935595D01*
Y9094293D01*
X7934148D01*
Y9089954D01*
X7931256D01*
Y9088508D01*
X7929809D01*
Y9085615D01*
X7928363D01*
Y9084169D01*
X7926917D01*
Y9081276D01*
X7925470D01*
Y9076937D01*
X7922577D01*
Y9071151D01*
X7921131D01*
Y9069705D01*
X7919685D01*
Y9046563D01*
X7931256D01*
Y9049456D01*
X7937041D01*
Y9050902D01*
X7941380D01*
Y9053795D01*
X7942827D01*
Y9055241D01*
X7945720D01*
Y9056687D01*
X7948613D01*
Y9058134D01*
X7950059D01*
Y9061027D01*
X7954398D01*
Y9062473D01*
X7957291D01*
Y9065366D01*
X7960183D01*
Y9066812D01*
X7963076D01*
Y9068258D01*
X7964523D01*
Y9069705D01*
X7965969D01*
Y9072598D01*
X7971755D01*
Y9074044D01*
X7973201D01*
Y9076937D01*
X7976094D01*
Y9078383D01*
X7977540D01*
Y9079830D01*
X7980433D01*
Y9081276D01*
X7983326D01*
Y9084169D01*
X7987665D01*
Y9085615D01*
X7989111D01*
Y9087062D01*
X7990558D01*
Y9088508D01*
X7992004D01*
Y9091401D01*
X7996343D01*
Y9092847D01*
X7999236D01*
Y9095740D01*
X8002129D01*
Y9097186D01*
X8005022D01*
Y9098633D01*
X8006468D01*
Y9100079D01*
X8007914D01*
Y9102972D01*
X8010807D01*
Y9104418D01*
X8015146D01*
Y9107311D01*
X8018039D01*
Y9108758D01*
X8019485D01*
Y9111650D01*
X8023825D01*
Y9113097D01*
X8025271D01*
Y9114543D01*
X8026717D01*
Y9115989D01*
X8029610D01*
Y9118882D01*
X8033949D01*
Y9120328D01*
X8035396D01*
Y9121775D01*
X8036842D01*
Y9123221D01*
X8038288D01*
Y9126114D01*
X8042628D01*
Y9127561D01*
X8045520D01*
Y9130453D01*
X8048413D01*
Y9131900D01*
X8051306D01*
Y9133346D01*
X8052752D01*
Y9134793D01*
X8054199D01*
Y9137685D01*
X8058538D01*
Y9139132D01*
X8061431D01*
Y9142024D01*
X8064323D01*
Y9143471D01*
X8067216D01*
Y9144917D01*
X8068663D01*
Y9146363D01*
X8071555D01*
Y9149256D01*
X8073002D01*
Y9150703D01*
X8077341D01*
Y9153596D01*
X8080234D01*
Y9155042D01*
X8083127D01*
Y9156488D01*
X8084573D01*
Y9157935D01*
X8087466D01*
Y9160828D01*
X8088912D01*
Y9162274D01*
X8094698D01*
Y9165167D01*
X8096144D01*
Y9166613D01*
X8100483D01*
Y9169506D01*
X8106269D01*
Y9172398D01*
X8110608D01*
Y9173845D01*
X8122179D01*
Y9172398D01*
X8126518D01*
Y9169506D01*
X8129411D01*
Y9165167D01*
X8126518D01*
Y9160828D01*
X8125072D01*
Y9157935D01*
X8123625D01*
Y9155042D01*
X8122179D01*
Y9150703D01*
X8119286D01*
Y9147810D01*
X8117840D01*
Y9143471D01*
X8114947D01*
Y9139132D01*
X8112054D01*
Y9134793D01*
X8110608D01*
Y9131900D01*
X8109162D01*
Y9130453D01*
X8107715D01*
Y9127561D01*
X8106269D01*
Y9118882D01*
X8112054D01*
Y9120328D01*
X8116393D01*
Y9121775D01*
X8117840D01*
Y9123221D01*
X8119286D01*
Y9126114D01*
X8122179D01*
Y9127561D01*
X8126518D01*
Y9130453D01*
X8129411D01*
Y9131900D01*
X8132304D01*
Y9133346D01*
X8133750D01*
Y9134793D01*
X8135197D01*
Y9137685D01*
X8140982D01*
Y9139132D01*
X8145321D01*
Y9142024D01*
X8149660D01*
Y9143471D01*
X8154000D01*
Y9146363D01*
X8161232D01*
Y9149256D01*
X8169910D01*
Y9150703D01*
X8188713D01*
Y9149256D01*
X8194498D01*
Y9146363D01*
X8195945D01*
Y9142024D01*
X8194498D01*
Y9139132D01*
X8191606D01*
Y9137685D01*
X8190159D01*
Y9136239D01*
X8188713D01*
Y9134793D01*
X8187267D01*
Y9131900D01*
X8184374D01*
Y9127561D01*
X8182927D01*
Y9126114D01*
X8181481D01*
Y9124668D01*
X8180035D01*
Y9123221D01*
X8178588D01*
Y9120328D01*
X8177142D01*
Y9118882D01*
X8175695D01*
Y9115989D01*
X8174249D01*
Y9114543D01*
X8172803D01*
Y9111650D01*
X8171356D01*
Y9107311D01*
X8168463D01*
Y9102972D01*
X8167017D01*
Y9101526D01*
X8165571D01*
Y9091401D01*
X8172803D01*
Y9092847D01*
X8177142D01*
Y9095740D01*
X8180035D01*
Y9097186D01*
X8184374D01*
Y9100079D01*
X8187267D01*
Y9102972D01*
X8191606D01*
Y9104418D01*
X8194498D01*
Y9105865D01*
X8195945D01*
Y9107311D01*
X8198838D01*
Y9108758D01*
X8203177D01*
Y9111650D01*
X8206070D01*
Y9114543D01*
X8210409D01*
Y9115989D01*
X8213302D01*
Y9117436D01*
X8214748D01*
Y9118882D01*
X8217641D01*
Y9120328D01*
X8221980D01*
Y9123221D01*
X8226319D01*
Y9126114D01*
X8229212D01*
Y9127561D01*
X8233551D01*
Y9130453D01*
X8237890D01*
Y9131900D01*
X8240783D01*
Y9134793D01*
X8245122D01*
Y9137685D01*
X8249461D01*
Y9139132D01*
X8252354D01*
Y9140578D01*
X8253800D01*
Y9142024D01*
X8256693D01*
Y9143471D01*
X8261033D01*
Y9146363D01*
X8265372D01*
Y9149256D01*
X8269711D01*
Y9150703D01*
X8274050D01*
Y9152149D01*
X8275496D01*
Y9153596D01*
X8279835D01*
Y9155042D01*
X8284175D01*
Y9157935D01*
X8291407D01*
Y9160828D01*
X8297192D01*
Y9162274D01*
X8304424D01*
Y9165167D01*
X8311656D01*
Y9166613D01*
X8320334D01*
Y9168059D01*
X8321781D01*
Y9169506D01*
X8331905D01*
Y9170952D01*
X8333352D01*
Y9172398D01*
X8344923D01*
Y9173845D01*
X8359387D01*
Y9175291D01*
X8360833D01*
Y9176738D01*
X8411457D01*
Y9173845D01*
X8418689D01*
Y9172398D01*
X8425921D01*
Y9169506D01*
X8433153D01*
Y9166613D01*
X8437492D01*
Y9165167D01*
X8440385D01*
Y9163720D01*
X8441831D01*
Y9162274D01*
X8444724D01*
Y9160828D01*
X8446170D01*
Y9157935D01*
X8449063D01*
Y9156488D01*
X8450509D01*
Y9153596D01*
X8449063D01*
Y9150703D01*
X8444724D01*
Y9149256D01*
X8434599D01*
Y9150703D01*
X8427367D01*
Y9152149D01*
X8425921D01*
Y9153596D01*
X8418689D01*
Y9155042D01*
X8411457D01*
Y9157935D01*
X8399886D01*
Y9160828D01*
X8347816D01*
Y9159381D01*
X8346369D01*
Y9157935D01*
X8334798D01*
Y9155042D01*
X8329013D01*
Y9153596D01*
X8321781D01*
Y9150703D01*
X8314549D01*
Y9149256D01*
X8310210D01*
Y9146363D01*
X8302978D01*
Y9143471D01*
X8298638D01*
Y9142024D01*
X8294299D01*
Y9140578D01*
X8291407D01*
Y9139132D01*
X8287068D01*
Y9137685D01*
X8282728D01*
Y9134793D01*
X8276943D01*
Y9131900D01*
X8272603D01*
Y9130453D01*
X8268264D01*
Y9127561D01*
X8265372D01*
Y9126114D01*
X8261033D01*
Y9123221D01*
X8256693D01*
Y9120328D01*
X8253800D01*
Y9118882D01*
X8249461D01*
Y9115989D01*
X8246568D01*
Y9114543D01*
X8245122D01*
Y9111650D01*
X8240783D01*
Y9108758D01*
X8237890D01*
Y9107311D01*
X8236444D01*
Y9105865D01*
X8234998D01*
Y9104418D01*
X8233551D01*
Y9101526D01*
X8230658D01*
Y9100079D01*
X8229212D01*
Y9097186D01*
X8226319D01*
Y9095740D01*
X8224873D01*
Y9094293D01*
X8223426D01*
Y9092847D01*
X8221980D01*
Y9089954D01*
X8219087D01*
Y9085615D01*
X8217641D01*
Y9084169D01*
X8214748D01*
Y9081276D01*
X8211855D01*
Y9076937D01*
X8210409D01*
Y9074044D01*
X8207516D01*
Y9058134D01*
X8227765D01*
Y9061027D01*
X8234998D01*
Y9062473D01*
X8242229D01*
Y9065366D01*
X8249461D01*
Y9066812D01*
X8253800D01*
Y9068258D01*
X8256693D01*
Y9069705D01*
X8262479D01*
Y9072598D01*
X8268264D01*
Y9074044D01*
X8275496D01*
Y9076937D01*
X8281282D01*
Y9078383D01*
X8282728D01*
Y9079830D01*
X8287068D01*
Y9081276D01*
X8292853D01*
Y9084169D01*
X8298638D01*
Y9085615D01*
X8304424D01*
Y9088508D01*
X8311656D01*
Y9091401D01*
X8315995D01*
Y9092847D01*
X8321781D01*
Y9094293D01*
X8323227D01*
Y9095740D01*
X8327566D01*
Y9097186D01*
X8333352D01*
Y9100079D01*
X8339137D01*
Y9102972D01*
X8344923D01*
Y9104418D01*
X8349262D01*
Y9105865D01*
X8350708D01*
Y9107311D01*
X8356494D01*
Y9108758D01*
X8360833D01*
Y9111650D01*
X8365172D01*
Y9114543D01*
X8372404D01*
Y9115989D01*
X8376743D01*
Y9118882D01*
X8381083D01*
Y9120328D01*
X8385422D01*
Y9121775D01*
X8386868D01*
Y9123221D01*
X8391208D01*
Y9126114D01*
X8396993D01*
Y9127561D01*
X8402778D01*
Y9130453D01*
X8408564D01*
Y9131900D01*
X8425921D01*
Y9130453D01*
X8430260D01*
Y9127561D01*
X8428813D01*
Y9124668D01*
X8427367D01*
Y9123221D01*
X8425921D01*
Y9120328D01*
X8423028D01*
Y9118882D01*
X8421582D01*
Y9115989D01*
X8418689D01*
Y9113097D01*
X8417243D01*
Y9111650D01*
X8415796D01*
Y9108758D01*
X8414350D01*
Y9107311D01*
X8411457D01*
Y9104418D01*
X8410010D01*
Y9097186D01*
X8421582D01*
Y9098633D01*
X8423028D01*
Y9100079D01*
X8434599D01*
Y9102972D01*
X8444724D01*
Y9104418D01*
X8454848D01*
Y9105865D01*
X8456295D01*
Y9107311D01*
X8466420D01*
Y9108758D01*
X8476544D01*
Y9111650D01*
X8488115D01*
Y9114543D01*
X8499687D01*
Y9115989D01*
X8512704D01*
Y9117436D01*
X8514150D01*
Y9118882D01*
X8525722D01*
Y9120328D01*
X8538739D01*
Y9123221D01*
X8553203D01*
Y9126114D01*
X8569113D01*
Y9127561D01*
X8585023D01*
Y9130453D01*
X8603827D01*
Y9131900D01*
X8625522D01*
Y9133346D01*
X8626969D01*
Y9134793D01*
X8655897D01*
Y9123221D01*
X8637093D01*
Y9120328D01*
X8613951D01*
Y9118882D01*
X8595148D01*
Y9115989D01*
X8576345D01*
Y9114543D01*
X8561881D01*
Y9113097D01*
X8560435D01*
Y9111650D01*
X8545971D01*
Y9108758D01*
X8531507D01*
Y9107311D01*
X8518490D01*
Y9104418D01*
X8506918D01*
Y9102972D01*
X8498240D01*
Y9101526D01*
X8495347D01*
Y9100079D01*
X8483776D01*
Y9097186D01*
X8473652D01*
Y9095740D01*
X8463527D01*
Y9092847D01*
X8453402D01*
Y9091401D01*
X8449063D01*
Y9089954D01*
X8444724D01*
Y9088508D01*
X8434599D01*
Y9085615D01*
X8425921D01*
Y9084169D01*
X8417243D01*
Y9082722D01*
X8415796D01*
Y9081276D01*
X8407118D01*
Y9078383D01*
X8399886D01*
Y9076937D01*
X8392654D01*
Y9074044D01*
X8386868D01*
Y9072598D01*
X8382529D01*
Y9071151D01*
X8381083D01*
Y9069705D01*
X8376743D01*
Y9066812D01*
X8375297D01*
Y9065366D01*
X8372404D01*
Y9062473D01*
X8369512D01*
Y9061027D01*
X8368065D01*
Y9058134D01*
X8365172D01*
Y9055241D01*
X8363726D01*
Y9053795D01*
X8360833D01*
Y9050902D01*
X8357940D01*
Y9049456D01*
X8356494D01*
Y9046563D01*
X8353601D01*
Y9043670D01*
X8352155D01*
Y9042223D01*
X8349262D01*
Y9039331D01*
X8346369D01*
Y9037884D01*
X8344923D01*
Y9034992D01*
X8342030D01*
Y9032099D01*
X8340584D01*
Y9030652D01*
X8337691D01*
Y9027760D01*
X8334798D01*
Y9026313D01*
X8333352D01*
Y9023421D01*
X8330459D01*
Y9020528D01*
X8329013D01*
Y9019081D01*
X8326120D01*
Y9016188D01*
X8323227D01*
Y9014742D01*
X8321781D01*
Y9011849D01*
X8318888D01*
Y9008957D01*
X8317442D01*
Y9007510D01*
X8314549D01*
Y9004618D01*
X8311656D01*
Y9003171D01*
X8310210D01*
Y9000278D01*
X8307317D01*
Y8997386D01*
X8305870D01*
Y8995939D01*
X8301531D01*
Y8993046D01*
X8298638D01*
Y8991600D01*
X8297192D01*
Y8990153D01*
X8295746D01*
Y8988707D01*
X8294299D01*
Y8985814D01*
X8291407D01*
Y8984368D01*
X8288514D01*
Y8981475D01*
X8287068D01*
Y8980029D01*
X8284175D01*
Y8977136D01*
X8281282D01*
Y8974243D01*
X8279835D01*
Y8972797D01*
X8276943D01*
Y8969904D01*
X8272603D01*
Y8967011D01*
X8271157D01*
Y8965565D01*
X8268264D01*
Y8962672D01*
X8265372D01*
Y8961226D01*
X8263925D01*
Y8958333D01*
X8261033D01*
Y8956887D01*
X8259586D01*
Y8955440D01*
X8258140D01*
Y8953994D01*
X8256693D01*
Y8951101D01*
X8252354D01*
Y8949655D01*
X8249461D01*
Y8946762D01*
X8246568D01*
Y8945316D01*
X8245122D01*
Y8942423D01*
X8242229D01*
Y8939530D01*
X8240783D01*
Y8938083D01*
X8237890D01*
Y8936637D01*
X8236444D01*
Y8935191D01*
X8233551D01*
Y8932298D01*
X8230658D01*
Y8930852D01*
X8229212D01*
Y8927959D01*
X8226319D01*
Y8926512D01*
X8223426D01*
Y8925066D01*
X8221980D01*
Y8923620D01*
X8219087D01*
Y8920727D01*
X8217641D01*
Y8919281D01*
X8214748D01*
Y8916388D01*
X8211855D01*
Y8914941D01*
X8208962D01*
Y8913495D01*
X8207516D01*
Y8912048D01*
X8206070D01*
Y8909156D01*
X8203177D01*
Y8907709D01*
X8200284D01*
Y8904817D01*
X8195945D01*
Y8903370D01*
X8194498D01*
Y8900477D01*
X8191606D01*
Y8897585D01*
X8187267D01*
Y8896138D01*
X8184374D01*
Y8893246D01*
X8182927D01*
Y8891799D01*
X8178588D01*
Y8890353D01*
X8177142D01*
Y8888906D01*
X8175695D01*
Y8886013D01*
X8171356D01*
Y8884567D01*
X8168463D01*
Y8881674D01*
X8164124D01*
Y8880228D01*
X8161232D01*
Y8878782D01*
X8159785D01*
Y8877335D01*
X8156892D01*
Y8874443D01*
X8152553D01*
Y8872996D01*
X8148214D01*
Y8870103D01*
X8143875D01*
Y8868657D01*
X8140982D01*
Y8867211D01*
X8138089D01*
Y8865764D01*
X8133750D01*
Y8862871D01*
X8129411D01*
Y8861425D01*
X8125072D01*
Y8858532D01*
X8119286D01*
Y8857086D01*
X8113501D01*
Y8855639D01*
X8112054D01*
Y8854193D01*
X8106269D01*
Y8851300D01*
X8099037D01*
Y8849854D01*
X8088912D01*
Y8848408D01*
X8087466D01*
Y8846961D01*
X8059984D01*
Y8848408D01*
X8058538D01*
Y8849854D01*
X8052752D01*
Y8851300D01*
X8046967D01*
Y8854193D01*
X8042628D01*
Y8857086D01*
X8041181D01*
Y8858532D01*
X8038288D01*
Y8859978D01*
X8036842D01*
Y8862871D01*
X8033949D01*
Y8865764D01*
X8031057D01*
Y8874443D01*
X8029610D01*
Y8881674D01*
X8031057D01*
Y8891799D01*
X8033949D01*
Y8896138D01*
X8035396D01*
Y8897585D01*
X8036842D01*
Y8900477D01*
X8038288D01*
Y8903370D01*
X8039735D01*
Y8904817D01*
X8041181D01*
Y8907709D01*
X8042628D01*
Y8909156D01*
X8044074D01*
Y8910602D01*
X8045520D01*
Y8912048D01*
X8048413D01*
Y8914941D01*
X8049860D01*
Y8916388D01*
X8052752D01*
Y8919281D01*
X8054199D01*
Y8922173D01*
X8057092D01*
Y8923620D01*
X8059984D01*
Y8926512D01*
X8061431D01*
Y8927959D01*
X8065770D01*
Y8930852D01*
X8068663D01*
Y8933744D01*
X8071555D01*
Y8935191D01*
X8073002D01*
Y8938083D01*
X8077341D01*
Y8939530D01*
X8080234D01*
Y8942423D01*
X8083127D01*
Y8945316D01*
X8087466D01*
Y8946762D01*
X8088912D01*
Y8949655D01*
X8093251D01*
Y8951101D01*
X8096144D01*
Y8953994D01*
X8099037D01*
Y8956887D01*
X8103376D01*
Y8958333D01*
X8106269D01*
Y8961226D01*
X8110608D01*
Y8962672D01*
X8112054D01*
Y8964118D01*
X8114947D01*
Y8965565D01*
X8117840D01*
Y8968458D01*
X8122179D01*
Y8969904D01*
X8123625D01*
Y8972797D01*
X8129411D01*
Y8974243D01*
X8130858D01*
Y8975690D01*
X8132304D01*
Y8977136D01*
X8135197D01*
Y8980029D01*
X8140982D01*
Y8981475D01*
X8143875D01*
Y8982922D01*
X8145321D01*
Y8984368D01*
X8146768D01*
Y8985814D01*
X8151107D01*
Y8987261D01*
X8152553D01*
Y8988707D01*
X8156892D01*
Y8991600D01*
X8159785D01*
Y8993046D01*
X8164124D01*
Y8995939D01*
X8168463D01*
Y8997386D01*
X8172803D01*
Y9000278D01*
X8177142D01*
Y9003171D01*
X8181481D01*
Y9004618D01*
X8184374D01*
Y9007510D01*
X8188713D01*
Y9008957D01*
X8193052D01*
Y9010403D01*
X8194498D01*
Y9011849D01*
X8198838D01*
Y9014742D01*
X8203177D01*
Y9016188D01*
X8207516D01*
Y9019081D01*
X8211855D01*
Y9020528D01*
X8216194D01*
Y9021974D01*
X8217641D01*
Y9023421D01*
X8221980D01*
Y9026313D01*
X8226319D01*
Y9027760D01*
X8230658D01*
Y9030652D01*
X8237890D01*
Y9032099D01*
X8240783D01*
Y9033545D01*
X8242229D01*
Y9034992D01*
X8246568D01*
Y9037884D01*
X8252354D01*
Y9039331D01*
X8256693D01*
Y9042223D01*
X8262479D01*
Y9043670D01*
X8266818D01*
Y9045116D01*
X8268264D01*
Y9046563D01*
X8272603D01*
Y9049456D01*
X8279835D01*
Y9050902D01*
X8284175D01*
Y9053795D01*
X8289960D01*
Y9055241D01*
X8294299D01*
Y9056687D01*
X8295746D01*
Y9058134D01*
X8301531D01*
Y9059580D01*
X8302978D01*
Y9061027D01*
X8307317D01*
Y9062473D01*
X8314549D01*
Y9065366D01*
X8320334D01*
Y9066812D01*
X8324673D01*
Y9068258D01*
X8326120D01*
Y9069705D01*
X8333352D01*
Y9072598D01*
X8340584D01*
Y9074044D01*
X8346369D01*
Y9076937D01*
X8352155D01*
Y9078383D01*
X8353601D01*
Y9079830D01*
X8356494D01*
Y9081276D01*
X8360833D01*
Y9084169D01*
X8362280D01*
Y9085615D01*
X8365172D01*
Y9092847D01*
X8357940D01*
Y9091401D01*
X8355048D01*
Y9089954D01*
X8350708D01*
Y9088508D01*
X8344923D01*
Y9085615D01*
X8337691D01*
Y9084169D01*
X8331905D01*
Y9082722D01*
X8330459D01*
Y9081276D01*
X8326120D01*
Y9078383D01*
X8318888D01*
Y9076937D01*
X8313102D01*
Y9074044D01*
X8307317D01*
Y9072598D01*
X8301531D01*
Y9071151D01*
X8300085D01*
Y9069705D01*
X8295746D01*
Y9066812D01*
X8288514D01*
Y9065366D01*
X8284175D01*
Y9063919D01*
X8282728D01*
Y9062473D01*
X8276943D01*
Y9061027D01*
X8271157D01*
Y9058134D01*
X8263925D01*
Y9055241D01*
X8258140D01*
Y9053795D01*
X8252354D01*
Y9052348D01*
X8250908D01*
Y9050902D01*
X8242229D01*
Y9049456D01*
X8236444D01*
Y9048009D01*
X8234998D01*
Y9046563D01*
X8226319D01*
Y9043670D01*
X8195945D01*
Y9046563D01*
X8188713D01*
Y9049456D01*
X8184374D01*
Y9050902D01*
X8180035D01*
Y9053795D01*
X8177142D01*
Y9059580D01*
X8175695D01*
Y9065366D01*
X8164124D01*
Y9062473D01*
X8159785D01*
Y9061027D01*
X8156892D01*
Y9058134D01*
X8152553D01*
Y9055241D01*
X8149660D01*
Y9053795D01*
X8143875D01*
Y9052348D01*
X8142428D01*
Y9050902D01*
X8122179D01*
Y9065366D01*
X8123625D01*
Y9072598D01*
X8126518D01*
Y9079830D01*
X8129411D01*
Y9085615D01*
X8130858D01*
Y9092847D01*
X8132304D01*
Y9094293D01*
X8133750D01*
Y9101526D01*
X8129411D01*
Y9100079D01*
X8125072D01*
Y9097186D01*
X8122179D01*
Y9095740D01*
X8119286D01*
Y9092847D01*
X8117840D01*
Y9089954D01*
X8114947D01*
Y9088508D01*
X8113501D01*
Y9087062D01*
X8112054D01*
Y9085615D01*
X8110608D01*
Y9084169D01*
X8107715D01*
Y9081276D01*
X8106269D01*
Y9078383D01*
X8103376D01*
Y9076937D01*
X8099037D01*
Y9074044D01*
X8096144D01*
Y9072598D01*
X8094698D01*
Y9069705D01*
X8090358D01*
Y9066812D01*
X8087466D01*
Y9065366D01*
X8083127D01*
Y9062473D01*
X8080234D01*
Y9061027D01*
X8075895D01*
Y9058134D01*
X8071555D01*
Y9055241D01*
X8065770D01*
Y9053795D01*
X8041181D01*
Y9055241D01*
X8038288D01*
Y9058134D01*
X8041181D01*
Y9062473D01*
X8042628D01*
Y9066812D01*
X8044074D01*
Y9068258D01*
X8045520D01*
Y9072598D01*
X8048413D01*
Y9076937D01*
X8049860D01*
Y9079830D01*
X8052752D01*
Y9084169D01*
X8054199D01*
Y9088508D01*
X8057092D01*
Y9092847D01*
X8059984D01*
Y9097186D01*
X8061431D01*
Y9100079D01*
X8062877D01*
Y9101526D01*
X8064323D01*
Y9104418D01*
X8065770D01*
Y9110204D01*
X8068663D01*
Y9118882D01*
X8061431D01*
Y9115989D01*
X8057092D01*
Y9114543D01*
X8055645D01*
Y9113097D01*
X8054199D01*
Y9111650D01*
X8051306D01*
Y9110204D01*
X8049860D01*
Y9108758D01*
X8048413D01*
Y9107311D01*
X8045520D01*
Y9104418D01*
X8041181D01*
Y9102972D01*
X8039735D01*
Y9101526D01*
X8038288D01*
Y9100079D01*
X8036842D01*
Y9098633D01*
X8033949D01*
Y9097186D01*
X8031057D01*
Y9095740D01*
X8029610D01*
Y9092847D01*
X8026717D01*
Y9089954D01*
X8022378D01*
Y9088508D01*
X8019485D01*
Y9085615D01*
X8018039D01*
Y9084169D01*
X8013700D01*
Y9081276D01*
X8010807D01*
Y9078383D01*
X8006468D01*
Y9076937D01*
X8003575D01*
Y9074044D01*
X8002129D01*
Y9072598D01*
X7997790D01*
Y9071151D01*
X7996343D01*
Y9069705D01*
X7994897D01*
Y9066812D01*
X7992004D01*
Y9065366D01*
X7987665D01*
Y9062473D01*
X7984772D01*
Y9061027D01*
X7983326D01*
Y9059580D01*
X7980433D01*
Y9058134D01*
X7978987D01*
Y9055241D01*
X7976094D01*
Y9053795D01*
X7971755D01*
Y9050902D01*
X7968862D01*
Y9049456D01*
X7964523D01*
Y9046563D01*
X7961630D01*
Y9043670D01*
X7957291D01*
Y9042223D01*
X7955844D01*
Y9040777D01*
X7954398D01*
Y9039331D01*
X7950059D01*
Y9037884D01*
X7948613D01*
Y9036438D01*
X7947166D01*
Y9034992D01*
X7942827D01*
Y9032099D01*
X7937041D01*
Y9030652D01*
X7929809D01*
Y9027760D01*
X7903774D01*
Y9030652D01*
X7900882D01*
Y9032099D01*
X7896542D01*
Y9034992D01*
X7895096D01*
Y9039331D01*
X7892203D01*
Y9043670D01*
X7890757D01*
Y9052348D01*
X7889310D01*
Y9055241D01*
X7887864D01*
Y9062473D01*
X7879186D01*
Y9061027D01*
X7874847D01*
Y9059580D01*
X7873400D01*
Y9058134D01*
X7871954D01*
Y9055241D01*
X7867615D01*
Y9053795D01*
X7864722D01*
Y9052348D01*
X7863275D01*
Y9050902D01*
X7860383D01*
Y9049456D01*
X7856043D01*
Y9046563D01*
X7853151D01*
Y9043670D01*
X7848812D01*
Y9042223D01*
X7844473D01*
Y9039331D01*
X7838687D01*
Y9037884D01*
X7834348D01*
Y9034992D01*
X7830008D01*
Y9032099D01*
X7825669D01*
Y9030652D01*
X7821330D01*
Y9027760D01*
X7815545D01*
Y9026313D01*
X7811205D01*
Y9023421D01*
X7805420D01*
Y9020528D01*
X7799634D01*
Y9019081D01*
X7793849D01*
Y9017635D01*
X7792403D01*
Y9016188D01*
X7786617D01*
Y9014742D01*
X7762028D01*
Y9016188D01*
X7756243D01*
Y9019081D01*
X7753350D01*
Y9020528D01*
X7749011D01*
Y9023421D01*
X7746118D01*
Y9026313D01*
X7744672D01*
Y9027760D01*
X7743225D01*
Y9030652D01*
X7741779D01*
Y9032099D01*
X7738886D01*
Y9037884D01*
X7737440D01*
Y9048009D01*
X7735993D01*
Y9049456D01*
X7734547D01*
Y9061027D01*
X7728761D01*
Y9059580D01*
X7727315D01*
Y9058134D01*
X7725868D01*
Y9055241D01*
X7722976D01*
Y9053795D01*
X7721529D01*
Y9050902D01*
X7718637D01*
Y9046563D01*
X7715744D01*
Y9043670D01*
X7714298D01*
Y9042223D01*
X7711405D01*
Y9037884D01*
X7709958D01*
Y9034992D01*
X7707065D01*
Y9032099D01*
X7704173D01*
Y9030652D01*
X7702726D01*
Y9027760D01*
X7699833D01*
Y9026313D01*
X7698387D01*
Y9023421D01*
X7695494D01*
Y9020528D01*
X7691155D01*
Y9019081D01*
X7688263D01*
Y9017635D01*
X7686816D01*
Y9016188D01*
X7682477D01*
Y9014742D01*
X7676691D01*
Y9013296D01*
X7675245D01*
Y9011849D01*
X7654995D01*
Y9013296D01*
X7653549D01*
Y9014742D01*
X7650656D01*
Y9016188D01*
X7649210D01*
Y9019081D01*
X7646317D01*
Y9030652D01*
X7644871D01*
Y9043670D01*
X7634746D01*
Y9042223D01*
X7630407D01*
Y9039331D01*
X7628960D01*
Y9037884D01*
X7624621D01*
Y9036438D01*
X7623175D01*
Y9034992D01*
X7621728D01*
Y9032099D01*
X7617389D01*
Y9030652D01*
X7614497D01*
Y9027760D01*
X7610157D01*
Y9026313D01*
X7605818D01*
Y9023421D01*
X7600033D01*
Y9020528D01*
X7595693D01*
Y9019081D01*
X7591354D01*
Y9016188D01*
X7587015D01*
Y9014742D01*
X7582676D01*
Y9013296D01*
X7581230D01*
Y9011849D01*
X7573998D01*
Y9010403D01*
X7572551D01*
Y9008957D01*
X7540731D01*
Y9010403D01*
X7539284D01*
Y9011849D01*
X7534945D01*
Y9013296D01*
X7533499D01*
Y9014742D01*
X7530606D01*
Y9016188D01*
X7529160D01*
Y9020528D01*
X7526267D01*
Y9027760D01*
X7523374D01*
Y9037884D01*
X7514696D01*
Y9036438D01*
X7513249D01*
Y9034992D01*
X7507464D01*
Y9032099D01*
X7500232D01*
Y9030652D01*
X7494446D01*
Y9027760D01*
X7487214D01*
Y9026313D01*
X7479982D01*
Y9023421D01*
X7472750D01*
Y9020528D01*
X7464072D01*
Y9019081D01*
X7453947D01*
Y9016188D01*
X7442376D01*
Y9014742D01*
X7422127D01*
Y9013296D01*
X7419234D01*
Y9011849D01*
X7407663D01*
Y9004618D01*
X7412002D01*
Y9003171D01*
X7414895D01*
Y9000278D01*
X7419234D01*
Y8997386D01*
X7423573D01*
Y8995939D01*
X7426466D01*
Y8993046D01*
X7430805D01*
Y8991600D01*
X7435144D01*
Y8988707D01*
X7439483D01*
Y8987261D01*
X7440930D01*
Y8985814D01*
X7442376D01*
Y8984368D01*
X7446715D01*
Y8982922D01*
X7448162D01*
Y8981475D01*
X7452501D01*
Y8980029D01*
X7453947D01*
Y8977136D01*
X7459733D01*
Y8974243D01*
X7464072D01*
Y8972797D01*
X7465518D01*
Y8969904D01*
X7471304D01*
Y8968458D01*
X7472750D01*
Y8965565D01*
X7477090D01*
Y8962672D01*
X7482875D01*
Y8961226D01*
X7484322D01*
Y8958333D01*
X7488661D01*
Y8956887D01*
X7491553D01*
Y8953994D01*
X7495893D01*
Y8951101D01*
X7498785D01*
Y8949655D01*
X7503125D01*
Y8946762D01*
X7506018D01*
Y8945316D01*
X7510357D01*
Y8942423D01*
X7513249D01*
Y8940976D01*
X7514696D01*
Y8939530D01*
X7517588D01*
Y8938083D01*
X7519035D01*
Y8936637D01*
X7520481D01*
Y8935191D01*
X7523374D01*
Y8933744D01*
X7526267D01*
Y8930852D01*
X7530606D01*
Y8927959D01*
X7533499D01*
Y8926512D01*
X7537838D01*
Y8923620D01*
X7540731D01*
Y8922173D01*
X7545070D01*
Y8919281D01*
X7546516D01*
Y8917834D01*
X7547963D01*
Y8916388D01*
X7552302D01*
Y8914941D01*
X7553748D01*
Y8912048D01*
X7558088D01*
Y8910602D01*
X7559534D01*
Y8909156D01*
X7560980D01*
Y8907709D01*
X7563873D01*
Y8904817D01*
X7568212D01*
Y8903370D01*
X7569658D01*
Y8900477D01*
X7572551D01*
Y8899031D01*
X7575444D01*
Y8897585D01*
X7576890D01*
Y8896138D01*
X7579783D01*
Y8893246D01*
X7582676D01*
Y8891799D01*
X7584122D01*
Y8890353D01*
X7587015D01*
Y8888906D01*
X7588462D01*
Y8886013D01*
X7587015D01*
Y8881674D01*
X7584122D01*
Y8880228D01*
X7579783D01*
Y8877335D01*
X7575444D01*
Y8874443D01*
X7569658D01*
Y8872996D01*
X7556641D01*
Y8874443D01*
X7549409D01*
Y8877335D01*
X7545070D01*
Y8880228D01*
X7542177D01*
Y8881674D01*
X7537838D01*
Y8884567D01*
X7533499D01*
Y8886013D01*
X7530606D01*
Y8888906D01*
X7526267D01*
Y8891799D01*
X7523374D01*
Y8893246D01*
X7519035D01*
Y8896138D01*
X7517588D01*
Y8897585D01*
X7511803D01*
Y8900477D01*
X7510357D01*
Y8903370D01*
X7506018D01*
Y8904817D01*
X7503125D01*
Y8907709D01*
X7500232D01*
Y8909156D01*
X7495893D01*
Y8912048D01*
X7493000D01*
Y8913495D01*
X7491553D01*
Y8914941D01*
X7488661D01*
Y8916388D01*
X7487214D01*
Y8917834D01*
X7485768D01*
Y8919281D01*
X7481429D01*
Y8920727D01*
X7479982D01*
Y8922173D01*
X7478536D01*
Y8923620D01*
X7475643D01*
Y8926512D01*
X7471304D01*
Y8927959D01*
X7468411D01*
Y8930852D01*
X7464072D01*
Y8932298D01*
X7462626D01*
Y8933744D01*
X7461179D01*
Y8935191D01*
X7456840D01*
Y8938083D01*
X7453947D01*
Y8939530D01*
X7449608D01*
Y8942423D01*
X7446715D01*
Y8943869D01*
X7445269D01*
Y8945316D01*
X7442376D01*
Y8946762D01*
X7438037D01*
Y8949655D01*
X7435144D01*
Y8951101D01*
X7430805D01*
Y8953994D01*
X7429359D01*
Y8955440D01*
X7426466D01*
Y8956887D01*
X7423573D01*
Y8958333D01*
X7419234D01*
Y8961226D01*
X7417788D01*
Y8962672D01*
X7412002D01*
Y8965565D01*
X7407663D01*
Y8968458D01*
X7404770D01*
Y8969904D01*
X7400431D01*
Y8972797D01*
X7396092D01*
Y8974243D01*
X7391753D01*
Y8977136D01*
X7388860D01*
Y8978583D01*
X7387413D01*
Y8980029D01*
X7384521D01*
Y8981475D01*
X7380182D01*
Y8984368D01*
X7375843D01*
Y8985814D01*
X7371503D01*
Y8988707D01*
X7365718D01*
Y8991600D01*
X7361378D01*
Y8993046D01*
X7357039D01*
Y8995939D01*
X7352700D01*
Y8997386D01*
X7348361D01*
Y9000278D01*
X7342575D01*
Y9003171D01*
X7338236D01*
Y9004618D01*
X7333897D01*
Y9007510D01*
X7328112D01*
Y9008957D01*
X7322326D01*
Y9011849D01*
X7317987D01*
Y9013296D01*
X7315094D01*
Y9014742D01*
X7310755D01*
Y9016188D01*
X7303523D01*
Y9019081D01*
X7299184D01*
Y9020528D01*
X7291952D01*
Y9023421D01*
X7284720D01*
Y9026313D01*
X7277488D01*
Y9027760D01*
X7270256D01*
Y9030652D01*
X7261578D01*
Y9032099D01*
X7254346D01*
Y9034992D01*
X7245668D01*
Y9037884D01*
X7238435D01*
Y9039331D01*
X7228311D01*
Y9040777D01*
X7226864D01*
Y9042223D01*
X7216740D01*
Y9043670D01*
X7190705D01*
Y9042223D01*
X7187812D01*
Y9039331D01*
X7183473D01*
Y9037884D01*
X7180580D01*
Y9034992D01*
X7179133D01*
Y9032099D01*
X7176241D01*
Y9030652D01*
X7173348D01*
Y9027760D01*
X7171902D01*
Y9026313D01*
X7169009D01*
Y9024867D01*
X7167562D01*
Y9023421D01*
X7164670D01*
Y9020528D01*
X7161777D01*
Y9019081D01*
X7160330D01*
Y9016188D01*
X7157438D01*
Y9014742D01*
X7155991D01*
Y9011849D01*
X7153098D01*
Y9008957D01*
X7150206D01*
Y9007510D01*
X7148759D01*
Y9004618D01*
X7145867D01*
Y9003171D01*
X7144420D01*
Y9000278D01*
X7141527D01*
Y8997386D01*
X7137188D01*
Y8995939D01*
X7134295D01*
Y8993046D01*
X7132849D01*
Y8991600D01*
X7129956D01*
Y8988707D01*
X7124171D01*
Y8985814D01*
X7099582D01*
Y8987261D01*
X7098136D01*
Y8988707D01*
X7093797D01*
Y9003171D01*
X7095243D01*
Y9004618D01*
X7096689D01*
Y9007510D01*
X7099582D01*
Y9008957D01*
X7102475D01*
Y9011849D01*
X7103921D01*
Y9014742D01*
X7106814D01*
Y9016188D01*
X7108260D01*
Y9019081D01*
X7111153D01*
Y9020528D01*
X7114046D01*
Y9023421D01*
X7115493D01*
Y9026313D01*
X7118385D01*
Y9027760D01*
X7119832D01*
Y9029206D01*
X7122724D01*
Y9030652D01*
X7124171D01*
Y9032099D01*
X7125617D01*
Y9033545D01*
X7127063D01*
Y9034992D01*
X7129956D01*
Y9037884D01*
X7131403D01*
Y9039331D01*
X7134295D01*
Y9042223D01*
X7137188D01*
Y9043670D01*
X7138635D01*
Y9046563D01*
X7141527D01*
Y9049456D01*
X7142974D01*
Y9050902D01*
X7145867D01*
Y9053795D01*
X7148759D01*
Y9055241D01*
X7150206D01*
Y9056687D01*
X7151652D01*
Y9058134D01*
X7154545D01*
Y9061027D01*
X7157438D01*
Y9062473D01*
X7160330D01*
Y9065366D01*
X7161777D01*
Y9066812D01*
X7163223D01*
Y9068258D01*
X7164670D01*
Y9069705D01*
X7167562D01*
Y9072598D01*
X7169009D01*
Y9074044D01*
X7171902D01*
Y9076937D01*
X7176241D01*
Y9079830D01*
X7177687D01*
Y9081276D01*
X7180580D01*
Y9084169D01*
X7183473D01*
Y9085615D01*
X7184919D01*
Y9088508D01*
X7187812D01*
Y9091401D01*
X7190705D01*
Y9092847D01*
X7193597D01*
Y9094293D01*
X7195044D01*
Y9095740D01*
X7196490D01*
Y9097186D01*
X7199383D01*
Y9100079D01*
X7202276D01*
Y9102972D01*
X7203722D01*
Y9104418D01*
X7206615D01*
Y9107311D01*
X7210954D01*
Y9108758D01*
X7212400D01*
Y9110204D01*
X7213847D01*
Y9111650D01*
X7215293D01*
Y9114543D01*
X7218186D01*
Y9115989D01*
X7219633D01*
Y9118882D01*
X7222525D01*
Y9120328D01*
X7225418D01*
Y9121775D01*
X7226864D01*
Y9123221D01*
X7229757D01*
Y9126114D01*
X7231203D01*
Y9127561D01*
X7234096D01*
Y9130453D01*
X7236989D01*
Y9131900D01*
X7239882D01*
Y9133346D01*
X7241328D01*
Y9134793D01*
X7242775D01*
Y9137685D01*
X7245668D01*
Y9139132D01*
X7248560D01*
Y9142024D01*
X7251453D01*
Y9143471D01*
X7254346D01*
Y9146363D01*
X7257238D01*
Y9149256D01*
X7260131D01*
Y9150703D01*
X7263024D01*
Y9152149D01*
X7264470D01*
Y9153596D01*
X7265917D01*
Y9155042D01*
X7268810D01*
Y9157935D01*
X7271703D01*
Y9160828D01*
X7276042D01*
Y9162274D01*
X7277488D01*
Y9165167D01*
X7280381D01*
Y9166613D01*
X7283273D01*
Y9168059D01*
X7284720D01*
Y9169506D01*
X7287613D01*
Y9172398D01*
X7289059D01*
Y9173845D01*
X7291952D01*
Y9176738D01*
X7296291D01*
Y9178184D01*
X7299184D01*
Y9181077D01*
X7300630D01*
Y9183970D01*
X7304969D01*
Y9185416D01*
X7307862D01*
Y9188309D01*
X7310755D01*
Y9189755D01*
X7312201D01*
Y9191202D01*
X7315094D01*
Y9192648D01*
X7317987D01*
Y9195541D01*
X7319433D01*
Y9196987D01*
X7322326D01*
Y9199880D01*
X7326665D01*
Y9201326D01*
X7328112D01*
Y9202773D01*
X7329558D01*
Y9204219D01*
X7331004D01*
Y9207112D01*
X7335343D01*
Y9208558D01*
X7338236D01*
Y9211451D01*
X7341129D01*
Y9212897D01*
X7342575D01*
Y9214344D01*
X7345468D01*
Y9215790D01*
X7348361D01*
Y9218683D01*
X7349808D01*
Y9220129D01*
X7354147D01*
Y9223022D01*
X7357039D01*
Y9224468D01*
X7358486D01*
Y9225915D01*
X7361378D01*
Y9227361D01*
X7364271D01*
Y9230254D01*
X7371503D01*
Y9231701D01*
X7394645D01*
Y9230254D01*
D02*
G37*
G36*
X7873339Y8686940D02*
X7901103D01*
Y8685398D01*
X7902645D01*
Y8686940D01*
X7904187D01*
Y8685398D01*
X7924239D01*
Y8683855D01*
X7938121D01*
Y8682313D01*
X7948918D01*
Y8680770D01*
X7958173D01*
Y8679228D01*
X7970512D01*
Y8677685D01*
X7979766D01*
Y8676143D01*
X7989021D01*
Y8674601D01*
X7995191D01*
Y8673058D01*
X8001360D01*
Y8671516D01*
X8010615D01*
Y8669974D01*
X8016785D01*
Y8668431D01*
X8024497D01*
Y8666888D01*
X8029124D01*
Y8665346D01*
X8033752D01*
Y8663804D01*
X8041464D01*
Y8662261D01*
X8047633D01*
Y8660719D01*
X8052261D01*
Y8659176D01*
X8056888D01*
Y8657634D01*
X8063058D01*
Y8656092D01*
X8067685D01*
Y8654549D01*
X8072312D01*
Y8653007D01*
X8076939D01*
Y8651464D01*
X8080024D01*
Y8649922D01*
X8086194D01*
Y8648379D01*
X8090821D01*
Y8646837D01*
X8095449D01*
Y8645295D01*
X8098533D01*
Y8643752D01*
X8101618D01*
Y8642210D01*
X8106246D01*
Y8640667D01*
X8110873D01*
Y8639125D01*
X8115500D01*
Y8637582D01*
X8117043D01*
Y8636040D01*
X8121670D01*
Y8634498D01*
X8124755D01*
Y8632955D01*
X8129382D01*
Y8631413D01*
X8132467D01*
Y8629870D01*
X8135552D01*
Y8628328D01*
X8138637D01*
Y8626785D01*
X8143264D01*
Y8625243D01*
X8146349D01*
Y8623701D01*
X8147891D01*
Y8622158D01*
X8150976D01*
Y8620616D01*
X8155603D01*
Y8619073D01*
X8158688D01*
Y8617531D01*
X8161773D01*
Y8615988D01*
X8163315D01*
Y8614446D01*
X8166400D01*
Y8612904D01*
X8169485D01*
Y8611361D01*
X8172570D01*
Y8609819D01*
X8175655D01*
Y8608276D01*
X8177197D01*
Y8606734D01*
X8180282D01*
Y8605191D01*
X8183367D01*
Y8603649D01*
X8186452D01*
Y8602106D01*
X8187994D01*
Y8600564D01*
X8191079D01*
Y8599022D01*
X8192622D01*
Y8597479D01*
X8195706D01*
Y8595937D01*
X8198791D01*
Y8594394D01*
X8200334D01*
Y8592852D01*
X8201876D01*
Y8591309D01*
X8204961D01*
Y8589767D01*
X8206504D01*
Y8588225D01*
X8209588D01*
Y8586682D01*
X8211131D01*
Y8585140D01*
X8212673D01*
Y8583597D01*
X8215758D01*
Y8582055D01*
X8218843D01*
Y8580512D01*
X8220385D01*
Y8578970D01*
X8221928D01*
Y8577428D01*
X8223470D01*
Y8575885D01*
X8226555D01*
Y8574343D01*
X8228098D01*
Y8572800D01*
X8229640D01*
Y8571258D01*
X8231182D01*
Y8569715D01*
X8234267D01*
Y8568173D01*
X8235810D01*
Y8566631D01*
X8237352D01*
Y8565088D01*
X8238895D01*
Y8563546D01*
X8240437D01*
Y8562003D01*
X8243522D01*
Y8560461D01*
X8245064D01*
Y8558919D01*
X8246607D01*
Y8557376D01*
X8248149D01*
Y8555834D01*
X8249691D01*
Y8554291D01*
X8251234D01*
Y8552749D01*
X8252776D01*
Y8551206D01*
X8254319D01*
Y8549664D01*
X8255861D01*
Y8548122D01*
X8257404D01*
Y8546579D01*
X8258946D01*
Y8545037D01*
X8260488D01*
Y8543494D01*
X8262031D01*
Y8541952D01*
X8263573D01*
Y8540409D01*
X8265116D01*
Y8538867D01*
X8266658D01*
Y8537325D01*
X8268201D01*
Y8535782D01*
X8269743D01*
Y8534240D01*
X8271285D01*
Y8532697D01*
X8272828D01*
Y8531155D01*
X8274370D01*
Y8529612D01*
X8275913D01*
Y8528070D01*
X8277455D01*
Y8524985D01*
X8278998D01*
Y8523443D01*
X8280540D01*
Y8521900D01*
X8282082D01*
Y8520358D01*
X8283625D01*
Y8517273D01*
X8285167D01*
Y8515730D01*
X8286710D01*
Y8514188D01*
X8288252D01*
Y8511103D01*
X8289795D01*
Y8509561D01*
X8291337D01*
Y8508018D01*
X8292880D01*
Y8504933D01*
X8294422D01*
Y8503391D01*
X8295964D01*
Y8501849D01*
X8297507D01*
Y8498764D01*
X8299049D01*
Y8497221D01*
X8300592D01*
Y8494136D01*
X8302134D01*
Y8491052D01*
X8303677D01*
Y8487967D01*
X8305219D01*
Y8486424D01*
X8306761D01*
Y8483339D01*
X8308304D01*
Y8480255D01*
X8309846D01*
Y8477170D01*
X8311389D01*
Y8474085D01*
X8312931D01*
Y8471000D01*
X8314474D01*
Y8467915D01*
X8316016D01*
Y8463288D01*
X8317558D01*
Y8460203D01*
X8319101D01*
Y8457118D01*
X8320643D01*
Y8452491D01*
X8322186D01*
Y8447864D01*
X8323728D01*
Y8441694D01*
X8325271D01*
Y8437067D01*
X8326813D01*
Y8430897D01*
X8328355D01*
Y8424727D01*
X8329898D01*
Y8415473D01*
X8331440D01*
Y8400048D01*
X8332983D01*
Y8372284D01*
X8331440D01*
Y8356860D01*
X8329898D01*
Y8347606D01*
X8328355D01*
Y8339894D01*
X8326813D01*
Y8335266D01*
X8325271D01*
Y8330639D01*
X8323728D01*
Y8324469D01*
X8322186D01*
Y8319842D01*
X8320643D01*
Y8315215D01*
X8319101D01*
Y8312130D01*
X8317558D01*
Y8309045D01*
X8316016D01*
Y8304418D01*
X8314474D01*
Y8301333D01*
X8312931D01*
Y8298248D01*
X8311389D01*
Y8295163D01*
X8309846D01*
Y8292078D01*
X8308304D01*
Y8288993D01*
X8306761D01*
Y8285908D01*
X8305219D01*
Y8284366D01*
X8303677D01*
Y8281281D01*
X8302134D01*
Y8278197D01*
X8300592D01*
Y8276654D01*
X8299049D01*
Y8273569D01*
X8297507D01*
Y8270484D01*
X8295964D01*
Y8268942D01*
X8294422D01*
Y8267400D01*
X8292880D01*
Y8264315D01*
X8291337D01*
Y8262772D01*
X8289795D01*
Y8261230D01*
X8288252D01*
Y8258145D01*
X8286710D01*
Y8256602D01*
X8285167D01*
Y8255060D01*
X8283625D01*
Y8251975D01*
X8282082D01*
Y8250433D01*
X8280540D01*
Y8248890D01*
X8278998D01*
Y8247348D01*
X8277455D01*
Y8244263D01*
X8275913D01*
Y8242721D01*
X8274370D01*
Y8241178D01*
X8272828D01*
Y8239636D01*
X8271285D01*
Y8238093D01*
X8269743D01*
Y8236551D01*
X8268201D01*
Y8235008D01*
X8266658D01*
Y8233466D01*
X8265116D01*
Y8231924D01*
X8263573D01*
Y8230381D01*
X8262031D01*
Y8228839D01*
X8260488D01*
Y8227296D01*
X8258946D01*
Y8225754D01*
X8257404D01*
Y8224211D01*
X8255861D01*
Y8222669D01*
X8254319D01*
Y8221127D01*
X8252776D01*
Y8219584D01*
X8251234D01*
Y8218042D01*
X8249691D01*
Y8216499D01*
X8248149D01*
Y8214957D01*
X8246607D01*
Y8213414D01*
X8245064D01*
Y8211872D01*
X8241979D01*
Y8210330D01*
X8240437D01*
Y8208787D01*
X8238895D01*
Y8207245D01*
X8237352D01*
Y8205702D01*
X8235810D01*
Y8204160D01*
X8234267D01*
Y8202617D01*
X8231182D01*
Y8201075D01*
X8229640D01*
Y8199532D01*
X8228098D01*
Y8197990D01*
X8225013D01*
Y8196448D01*
X8223470D01*
Y8194905D01*
X8221928D01*
Y8193363D01*
X8220385D01*
Y8191820D01*
X8217301D01*
Y8190278D01*
X8215758D01*
Y8188735D01*
X8212673D01*
Y8187193D01*
X8211131D01*
Y8185651D01*
X8209588D01*
Y8184108D01*
X8206504D01*
Y8182566D01*
X8204961D01*
Y8181024D01*
X8201876D01*
Y8179481D01*
X8200334D01*
Y8177938D01*
X8197249D01*
Y8176396D01*
X8195706D01*
Y8174854D01*
X8192622D01*
Y8173311D01*
X8189537D01*
Y8171769D01*
X8187994D01*
Y8170226D01*
X8184909D01*
Y8168684D01*
X8181825D01*
Y8167142D01*
X8178740D01*
Y8165599D01*
X8177197D01*
Y8164057D01*
X8175655D01*
Y8162514D01*
X8172570D01*
Y8160972D01*
X8169485D01*
Y8159429D01*
X8166400D01*
Y8157887D01*
X8163315D01*
Y8156345D01*
X8160231D01*
Y8154802D01*
X8157146D01*
Y8153260D01*
X8154061D01*
Y8151717D01*
X8150976D01*
Y8150175D01*
X8147891D01*
Y8148632D01*
X8146349D01*
Y8147090D01*
X8141722D01*
Y8145548D01*
X8138637D01*
Y8144005D01*
X8135552D01*
Y8142463D01*
X8132467D01*
Y8140920D01*
X8129382D01*
Y8139378D01*
X8124755D01*
Y8137835D01*
X8120128D01*
Y8136293D01*
X8117043D01*
Y8134751D01*
X8113958D01*
Y8133208D01*
X8110873D01*
Y8131666D01*
X8106246D01*
Y8130123D01*
X8101618D01*
Y8128581D01*
X8098533D01*
Y8127038D01*
X8093906D01*
Y8125496D01*
X8090821D01*
Y8123954D01*
X8086194D01*
Y8122411D01*
X8080024D01*
Y8120869D01*
X8076939D01*
Y8119326D01*
X8072312D01*
Y8117784D01*
X8067685D01*
Y8116241D01*
X8061515D01*
Y8114699D01*
X8056888D01*
Y8113156D01*
X8052261D01*
Y8111614D01*
X8047633D01*
Y8110072D01*
X8041464D01*
Y8108529D01*
X8033752D01*
Y8106987D01*
X8029124D01*
Y8105444D01*
X8024497D01*
Y8103902D01*
X8016785D01*
Y8102359D01*
X8009073D01*
Y8100817D01*
X8001360D01*
Y8099275D01*
X7995191D01*
Y8097732D01*
X7987479D01*
Y8096190D01*
X7978224D01*
Y8094647D01*
X7967427D01*
Y8093105D01*
X7956630D01*
Y8091562D01*
X7948918D01*
Y8090020D01*
X7936578D01*
Y8088478D01*
X7922697D01*
Y8086935D01*
X7902645D01*
Y8085393D01*
X7873339D01*
Y8083850D01*
X7817811D01*
Y8085393D01*
X7816269D01*
Y8083850D01*
X7814727D01*
Y8085393D01*
X7788505D01*
Y8086935D01*
X7766911D01*
Y8088478D01*
X7753029D01*
Y8090020D01*
X7742232D01*
Y8091562D01*
X7732978D01*
Y8093105D01*
X7720638D01*
Y8094647D01*
X7711384D01*
Y8096190D01*
X7702129D01*
Y8097732D01*
X7694417D01*
Y8099275D01*
X7689790D01*
Y8100817D01*
X7680535D01*
Y8102359D01*
X7672823D01*
Y8103902D01*
X7666653D01*
Y8105444D01*
X7662026D01*
Y8106987D01*
X7655856D01*
Y8108529D01*
X7649687D01*
Y8110072D01*
X7643517D01*
Y8111614D01*
X7637347D01*
Y8113156D01*
X7632720D01*
Y8114699D01*
X7628093D01*
Y8116241D01*
X7621923D01*
Y8117784D01*
X7617296D01*
Y8119326D01*
X7612668D01*
Y8120869D01*
X7609583D01*
Y8122411D01*
X7604956D01*
Y8123954D01*
X7600329D01*
Y8125496D01*
X7595702D01*
Y8127038D01*
X7592617D01*
Y8128581D01*
X7587989D01*
Y8130123D01*
X7584905D01*
Y8131666D01*
X7580277D01*
Y8133208D01*
X7575650D01*
Y8134751D01*
X7572565D01*
Y8136293D01*
X7569480D01*
Y8137835D01*
X7566396D01*
Y8139378D01*
X7561768D01*
Y8140920D01*
X7558683D01*
Y8142463D01*
X7555599D01*
Y8144005D01*
X7552514D01*
Y8145548D01*
X7547886D01*
Y8147090D01*
X7544802D01*
Y8148632D01*
X7541717D01*
Y8150175D01*
X7538632D01*
Y8151717D01*
X7535547D01*
Y8153260D01*
X7532462D01*
Y8154802D01*
X7529377D01*
Y8156345D01*
X7527835D01*
Y8157887D01*
X7524750D01*
Y8159429D01*
X7521665D01*
Y8160972D01*
X7518580D01*
Y8162514D01*
X7515495D01*
Y8164057D01*
X7513953D01*
Y8165599D01*
X7510868D01*
Y8167142D01*
X7507783D01*
Y8168684D01*
X7504698D01*
Y8170226D01*
X7503156D01*
Y8171769D01*
X7500071D01*
Y8173311D01*
X7498529D01*
Y8174854D01*
X7495444D01*
Y8176396D01*
X7492359D01*
Y8177938D01*
X7490816D01*
Y8179481D01*
X7487732D01*
Y8181024D01*
X7486189D01*
Y8182566D01*
X7483104D01*
Y8184108D01*
X7481562D01*
Y8185651D01*
X7478477D01*
Y8187193D01*
X7476935D01*
Y8188735D01*
X7475392D01*
Y8190278D01*
X7472307D01*
Y8191820D01*
X7470765D01*
Y8193363D01*
X7469223D01*
Y8194905D01*
X7466137D01*
Y8196448D01*
X7464595D01*
Y8197990D01*
X7463053D01*
Y8199532D01*
X7459968D01*
Y8201075D01*
X7458426D01*
Y8202617D01*
X7456883D01*
Y8204160D01*
X7455341D01*
Y8205702D01*
X7452256D01*
Y8207245D01*
X7450713D01*
Y8208787D01*
X7449171D01*
Y8210330D01*
X7447628D01*
Y8211872D01*
X7446086D01*
Y8213414D01*
X7444544D01*
Y8214957D01*
X7443001D01*
Y8216499D01*
X7441459D01*
Y8218042D01*
X7438374D01*
Y8219584D01*
X7436831D01*
Y8221127D01*
X7435289D01*
Y8222669D01*
X7433747D01*
Y8225754D01*
X7430662D01*
Y8227296D01*
X7429119D01*
Y8228839D01*
X7427577D01*
Y8230381D01*
X7426034D01*
Y8231924D01*
X7424492D01*
Y8233466D01*
X7422950D01*
Y8235008D01*
X7421407D01*
Y8238093D01*
X7419865D01*
Y8239636D01*
X7418322D01*
Y8241178D01*
X7416780D01*
Y8242721D01*
X7415237D01*
Y8244263D01*
X7413695D01*
Y8245805D01*
X7412153D01*
Y8248890D01*
X7410610D01*
Y8250433D01*
X7409068D01*
Y8251975D01*
X7407525D01*
Y8253518D01*
X7405983D01*
Y8255060D01*
X7404440D01*
Y8258145D01*
X7402898D01*
Y8259687D01*
X7401356D01*
Y8261230D01*
X7399813D01*
Y8264315D01*
X7398271D01*
Y8265857D01*
X7396728D01*
Y8268942D01*
X7395186D01*
Y8270484D01*
X7393643D01*
Y8272027D01*
X7392101D01*
Y8275111D01*
X7390558D01*
Y8278197D01*
X7389016D01*
Y8279739D01*
X7387474D01*
Y8282824D01*
X7385931D01*
Y8284366D01*
X7384389D01*
Y8288993D01*
X7382846D01*
Y8292078D01*
X7381304D01*
Y8293621D01*
X7379761D01*
Y8296706D01*
X7378219D01*
Y8299790D01*
X7376677D01*
Y8304418D01*
X7375134D01*
Y8307503D01*
X7373592D01*
Y8310587D01*
X7372050D01*
Y8313672D01*
X7370507D01*
Y8318300D01*
X7368964D01*
Y8324469D01*
X7367422D01*
Y8327554D01*
X7365880D01*
Y8332181D01*
X7364337D01*
Y8338351D01*
X7362795D01*
Y8344521D01*
X7361252D01*
Y8352233D01*
X7359710D01*
Y8364573D01*
X7358168D01*
Y8407760D01*
X7359710D01*
Y8420100D01*
X7361252D01*
Y8427812D01*
X7362795D01*
Y8433982D01*
X7364337D01*
Y8440152D01*
X7365880D01*
Y8444779D01*
X7367422D01*
Y8449406D01*
X7368964D01*
Y8454033D01*
X7370507D01*
Y8458661D01*
X7372050D01*
Y8461746D01*
X7373592D01*
Y8464830D01*
X7375134D01*
Y8469458D01*
X7376677D01*
Y8472542D01*
X7378219D01*
Y8475627D01*
X7379761D01*
Y8478712D01*
X7381304D01*
Y8481797D01*
X7382846D01*
Y8484882D01*
X7384389D01*
Y8487967D01*
X7385931D01*
Y8489509D01*
X7387474D01*
Y8492594D01*
X7389016D01*
Y8495679D01*
X7390558D01*
Y8497221D01*
X7392101D01*
Y8500306D01*
X7393643D01*
Y8501849D01*
X7395186D01*
Y8503391D01*
X7396728D01*
Y8506476D01*
X7398271D01*
Y8509561D01*
X7399813D01*
Y8511103D01*
X7401356D01*
Y8512646D01*
X7402898D01*
Y8514188D01*
X7404440D01*
Y8517273D01*
X7405983D01*
Y8518815D01*
X7407525D01*
Y8521900D01*
X7409068D01*
Y8523443D01*
X7410610D01*
Y8524985D01*
X7412153D01*
Y8526528D01*
X7413695D01*
Y8528070D01*
X7415237D01*
Y8529612D01*
X7416780D01*
Y8531155D01*
X7418322D01*
Y8532697D01*
X7419865D01*
Y8535782D01*
X7421407D01*
Y8537325D01*
X7422950D01*
Y8538867D01*
X7424492D01*
Y8540409D01*
X7426034D01*
Y8541952D01*
X7427577D01*
Y8543494D01*
X7429119D01*
Y8545037D01*
X7430662D01*
Y8546579D01*
X7432204D01*
Y8548122D01*
X7433747D01*
Y8549664D01*
X7435289D01*
Y8551206D01*
X7436831D01*
Y8552749D01*
X7438374D01*
Y8554291D01*
X7441459D01*
Y8557376D01*
X7443001D01*
Y8558919D01*
X7444544D01*
Y8560461D01*
X7447628D01*
Y8562003D01*
X7449171D01*
Y8563546D01*
X7450713D01*
Y8565088D01*
X7452256D01*
Y8566631D01*
X7453798D01*
Y8568173D01*
X7456883D01*
Y8569715D01*
X7458426D01*
Y8571258D01*
X7459968D01*
Y8572800D01*
X7461510D01*
Y8574343D01*
X7464595D01*
Y8575885D01*
X7466137D01*
Y8577428D01*
X7467680D01*
Y8578970D01*
X7470765D01*
Y8580512D01*
X7472307D01*
Y8582055D01*
X7473850D01*
Y8583597D01*
X7476935D01*
Y8585140D01*
X7478477D01*
Y8586682D01*
X7480019D01*
Y8588225D01*
X7483104D01*
Y8589767D01*
X7486189D01*
Y8591309D01*
X7487732D01*
Y8592852D01*
X7490816D01*
Y8594394D01*
X7492359D01*
Y8595937D01*
X7493901D01*
Y8597479D01*
X7496986D01*
Y8599022D01*
X7500071D01*
Y8600564D01*
X7501613D01*
Y8602106D01*
X7504698D01*
Y8603649D01*
X7507783D01*
Y8605191D01*
X7510868D01*
Y8606734D01*
X7512410D01*
Y8608276D01*
X7515495D01*
Y8609819D01*
X7517038D01*
Y8611361D01*
X7520123D01*
Y8612904D01*
X7524750D01*
Y8614446D01*
X7526292D01*
Y8615988D01*
X7529377D01*
Y8617531D01*
X7532462D01*
Y8619073D01*
X7535547D01*
Y8620616D01*
X7538632D01*
Y8622158D01*
X7541717D01*
Y8623701D01*
X7544802D01*
Y8625243D01*
X7547886D01*
Y8626785D01*
X7550971D01*
Y8628328D01*
X7554056D01*
Y8629870D01*
X7557141D01*
Y8631413D01*
X7561768D01*
Y8632955D01*
X7564853D01*
Y8634498D01*
X7569480D01*
Y8636040D01*
X7572565D01*
Y8637582D01*
X7575650D01*
Y8639125D01*
X7580277D01*
Y8640667D01*
X7583362D01*
Y8642210D01*
X7587989D01*
Y8643752D01*
X7591074D01*
Y8645295D01*
X7595702D01*
Y8646837D01*
X7600329D01*
Y8648379D01*
X7604956D01*
Y8649922D01*
X7609583D01*
Y8651464D01*
X7612668D01*
Y8653007D01*
X7617296D01*
Y8654549D01*
X7623465D01*
Y8656092D01*
X7628093D01*
Y8657634D01*
X7632720D01*
Y8659176D01*
X7637347D01*
Y8660719D01*
X7643517D01*
Y8662261D01*
X7649687D01*
Y8663804D01*
X7655856D01*
Y8665346D01*
X7662026D01*
Y8666888D01*
X7666653D01*
Y8668431D01*
X7672823D01*
Y8669974D01*
X7680535D01*
Y8671516D01*
X7688247D01*
Y8673058D01*
X7694417D01*
Y8674601D01*
X7702129D01*
Y8676143D01*
X7709841D01*
Y8677685D01*
X7719096D01*
Y8679228D01*
X7731435D01*
Y8680770D01*
X7740690D01*
Y8682313D01*
X7751487D01*
Y8683855D01*
X7765369D01*
Y8685398D01*
X7782335D01*
Y8686940D01*
X7816269D01*
Y8688482D01*
X7873339D01*
Y8686940D01*
D02*
G37*
%LPC*%
G36*
X7508910Y9560031D02*
X7464072D01*
Y9558584D01*
X7462626D01*
Y9555692D01*
X7461179D01*
Y9552799D01*
X7459733D01*
Y9549906D01*
X7458287D01*
Y9545567D01*
X7456840D01*
Y9544121D01*
X7455394D01*
Y9539781D01*
X7453947D01*
Y9535442D01*
X7452501D01*
Y9532549D01*
X7451055D01*
Y9528210D01*
X7449608D01*
Y9526764D01*
X7448162D01*
Y9520978D01*
X7446715D01*
Y9516639D01*
X7445269D01*
Y9515193D01*
X7443823D01*
Y9509407D01*
X7488661D01*
Y9510853D01*
X7491553D01*
Y9512300D01*
X7493000D01*
Y9513746D01*
X7494446D01*
Y9515193D01*
X7495893D01*
Y9516639D01*
X7497339D01*
Y9520978D01*
X7498785D01*
Y9522425D01*
X7500232D01*
Y9526764D01*
X7501678D01*
Y9531103D01*
X7503125D01*
Y9532549D01*
X7504571D01*
Y9538335D01*
X7506018D01*
Y9545567D01*
X7507464D01*
Y9547013D01*
X7508910D01*
Y9560031D01*
D02*
G37*
G36*
X7468411Y9447213D02*
X7422127D01*
Y9445766D01*
X7420680D01*
Y9444320D01*
X7419234D01*
Y9441427D01*
X7417788D01*
Y9437088D01*
X7416341D01*
Y9432748D01*
X7414895D01*
Y9431302D01*
X7413448D01*
Y9426963D01*
X7412002D01*
Y9422624D01*
X7410556D01*
Y9419731D01*
X7409109D01*
Y9415392D01*
X7407663D01*
Y9412499D01*
X7406217D01*
Y9408160D01*
X7404770D01*
Y9402374D01*
X7453947D01*
Y9403821D01*
X7455394D01*
Y9408160D01*
X7456840D01*
Y9409606D01*
X7458287D01*
Y9413946D01*
X7459733D01*
Y9416838D01*
X7461179D01*
Y9418285D01*
X7462626D01*
Y9422624D01*
X7464072D01*
Y9426963D01*
X7465518D01*
Y9428409D01*
Y9429856D01*
X7466965D01*
Y9435641D01*
X7468411D01*
Y9438534D01*
X7469858D01*
Y9445766D01*
X7468411D01*
Y9447213D01*
D02*
G37*
G36*
X7488661Y9183970D02*
X7439483D01*
Y9182523D01*
X7438037D01*
Y9181077D01*
X7426466D01*
Y9178184D01*
X7417788D01*
Y9176738D01*
X7410556D01*
Y9173845D01*
X7401878D01*
Y9172398D01*
X7396092D01*
Y9169506D01*
X7388860D01*
Y9166613D01*
X7383074D01*
Y9165167D01*
X7377289D01*
Y9162274D01*
X7372950D01*
Y9160828D01*
X7368610D01*
Y9159381D01*
X7367164D01*
Y9157935D01*
X7361378D01*
Y9155042D01*
X7357039D01*
Y9153596D01*
X7352700D01*
Y9150703D01*
X7348361D01*
Y9149256D01*
X7344022D01*
Y9147810D01*
X7342575D01*
Y9146363D01*
X7338236D01*
Y9143471D01*
X7333897D01*
Y9142024D01*
X7329558D01*
Y9139132D01*
X7325219D01*
Y9137685D01*
X7320880D01*
Y9136239D01*
X7319433D01*
Y9134793D01*
X7316540D01*
Y9133346D01*
X7315094D01*
Y9131900D01*
X7313648D01*
Y9130453D01*
X7307862D01*
Y9127561D01*
X7303523D01*
Y9126114D01*
X7300630D01*
Y9124668D01*
X7299184D01*
Y9123221D01*
X7296291D01*
Y9121775D01*
X7294845D01*
Y9120328D01*
X7291952D01*
Y9118882D01*
X7287613D01*
Y9115989D01*
X7283273D01*
Y9114543D01*
X7280381D01*
Y9111650D01*
X7276042D01*
Y9108758D01*
X7271703D01*
Y9107311D01*
X7268810D01*
Y9104418D01*
X7264470D01*
Y9102972D01*
X7263024D01*
Y9101526D01*
X7260131D01*
Y9100079D01*
X7257238D01*
Y9097186D01*
X7252899D01*
Y9095740D01*
X7250007D01*
Y9094293D01*
X7248560D01*
Y9092847D01*
X7245668D01*
Y9089954D01*
X7241328D01*
Y9088508D01*
X7238435D01*
Y9087062D01*
X7236989D01*
Y9085615D01*
X7234096D01*
Y9076937D01*
X7258685D01*
Y9078383D01*
X7271703D01*
Y9079830D01*
X7280381D01*
Y9081276D01*
X7299184D01*
Y9084169D01*
X7317987D01*
Y9085615D01*
X7333897D01*
Y9088508D01*
X7349808D01*
Y9091401D01*
X7361378D01*
Y9092847D01*
X7374396D01*
Y9094293D01*
X7375843D01*
Y9095740D01*
X7384521D01*
Y9097186D01*
X7393199D01*
Y9098633D01*
X7394645D01*
Y9100079D01*
X7403324D01*
Y9102972D01*
X7410556D01*
Y9104418D01*
X7417788D01*
Y9107311D01*
X7423573D01*
Y9108758D01*
X7430805D01*
Y9111650D01*
X7435144D01*
Y9114543D01*
X7440930D01*
Y9115989D01*
X7445269D01*
Y9118882D01*
X7449608D01*
Y9120328D01*
X7452501D01*
Y9121775D01*
X7453947D01*
Y9123221D01*
X7456840D01*
Y9126114D01*
X7461179D01*
Y9127561D01*
X7464072D01*
Y9130453D01*
X7465518D01*
Y9131900D01*
X7468411D01*
Y9134793D01*
X7471304D01*
Y9136239D01*
X7472750D01*
Y9137685D01*
X7474197D01*
Y9139132D01*
X7475643D01*
Y9142024D01*
X7477090D01*
Y9143471D01*
X7479982D01*
Y9146363D01*
X7481429D01*
Y9149256D01*
X7482875D01*
Y9150703D01*
X7484322D01*
Y9153596D01*
X7487214D01*
Y9157935D01*
X7488661D01*
Y9162274D01*
X7491553D01*
Y9181077D01*
X7488661D01*
Y9183970D01*
D02*
G37*
G36*
X7657888Y9102972D02*
X7647763D01*
Y9101526D01*
X7646317D01*
Y9100079D01*
X7641978D01*
Y9097186D01*
X7636192D01*
Y9095740D01*
X7630407D01*
Y9092847D01*
X7626068D01*
Y9091401D01*
X7624621D01*
Y9089954D01*
X7621728D01*
Y9088508D01*
X7617389D01*
Y9087062D01*
X7615943D01*
Y9085615D01*
X7611604D01*
Y9084169D01*
X7607265D01*
Y9081276D01*
X7602925D01*
Y9078383D01*
X7598586D01*
Y9076937D01*
X7594247D01*
Y9075491D01*
X7592801D01*
Y9074044D01*
X7588462D01*
Y9072598D01*
X7585569D01*
Y9071151D01*
X7584122D01*
Y9069705D01*
X7581230D01*
Y9066812D01*
X7576890D01*
Y9065366D01*
X7572551D01*
Y9062473D01*
X7569658D01*
Y9061027D01*
X7568212D01*
Y9058134D01*
X7565319D01*
Y9055241D01*
X7563873D01*
Y9050902D01*
X7560980D01*
Y9046563D01*
X7558088D01*
Y9042223D01*
X7556641D01*
Y9020528D01*
X7566766D01*
Y9021974D01*
X7568212D01*
Y9023421D01*
X7572551D01*
Y9026313D01*
X7576890D01*
Y9027760D01*
X7581230D01*
Y9030652D01*
X7587015D01*
Y9032099D01*
X7588462D01*
Y9034992D01*
X7592801D01*
Y9037884D01*
X7595693D01*
Y9039331D01*
X7600033D01*
Y9042223D01*
X7602925D01*
Y9043670D01*
X7604372D01*
Y9046563D01*
X7610157D01*
Y9049456D01*
X7611604D01*
Y9050902D01*
X7614497D01*
Y9053795D01*
X7615943D01*
Y9055241D01*
X7618836D01*
Y9056687D01*
X7621728D01*
Y9058134D01*
X7623175D01*
Y9061027D01*
X7626068D01*
Y9062473D01*
X7627514D01*
Y9065366D01*
X7630407D01*
Y9066812D01*
X7631853D01*
Y9068258D01*
X7633300D01*
Y9069705D01*
X7634746D01*
Y9072598D01*
X7637639D01*
Y9074044D01*
X7639085D01*
Y9076937D01*
X7641978D01*
Y9079830D01*
X7644871D01*
Y9081276D01*
X7646317D01*
Y9084169D01*
X7649210D01*
Y9085615D01*
X7650656D01*
Y9088508D01*
X7653549D01*
Y9091401D01*
X7654995D01*
Y9092847D01*
X7656442D01*
Y9095740D01*
X7657888D01*
Y9102972D01*
D02*
G37*
G36*
X8318888Y9046563D02*
X8305870D01*
Y9043670D01*
X8298638D01*
Y9042223D01*
X8294299D01*
Y9039331D01*
X8288514D01*
Y9037884D01*
X8282728D01*
Y9034992D01*
X8276943D01*
Y9032099D01*
X8272603D01*
Y9030652D01*
X8266818D01*
Y9029206D01*
X8265372D01*
Y9027760D01*
X8261033D01*
Y9026313D01*
X8256693D01*
Y9023421D01*
X8252354D01*
Y9020528D01*
X8246568D01*
Y9019081D01*
X8242229D01*
Y9016188D01*
X8237890D01*
Y9014742D01*
X8233551D01*
Y9011849D01*
X8229212D01*
Y9008957D01*
X8223426D01*
Y9007510D01*
X8219087D01*
Y9004618D01*
X8214748D01*
Y9003171D01*
X8210409D01*
Y9000278D01*
X8206070D01*
Y8997386D01*
X8200284D01*
Y8995939D01*
X8197391D01*
Y8994493D01*
X8195945D01*
Y8993046D01*
X8194498D01*
Y8991600D01*
X8190159D01*
Y8990153D01*
X8188713D01*
Y8988707D01*
X8184374D01*
Y8985814D01*
X8180035D01*
Y8984368D01*
X8177142D01*
Y8981475D01*
X8172803D01*
Y8980029D01*
X8169910D01*
Y8978583D01*
X8168463D01*
Y8977136D01*
X8165571D01*
Y8974243D01*
X8161232D01*
Y8972797D01*
X8156892D01*
Y8969904D01*
X8154000D01*
Y8968458D01*
X8151107D01*
Y8967011D01*
X8149660D01*
Y8965565D01*
X8146768D01*
Y8964118D01*
X8145321D01*
Y8962672D01*
X8142428D01*
Y8961226D01*
X8138089D01*
Y8958333D01*
X8136643D01*
Y8956887D01*
X8133750D01*
Y8955440D01*
X8130858D01*
Y8953994D01*
X8129411D01*
Y8951101D01*
X8125072D01*
Y8949655D01*
X8122179D01*
Y8946762D01*
X8117840D01*
Y8945316D01*
X8116393D01*
Y8943869D01*
X8114947D01*
Y8942423D01*
X8110608D01*
Y8939530D01*
X8107715D01*
Y8938083D01*
X8106269D01*
Y8935191D01*
X8101930D01*
Y8933744D01*
X8100483D01*
Y8932298D01*
X8099037D01*
Y8930852D01*
X8096144D01*
Y8927959D01*
X8091805D01*
Y8926512D01*
X8090358D01*
Y8925066D01*
X8088912D01*
Y8923620D01*
X8087466D01*
Y8920727D01*
X8084573D01*
Y8919281D01*
X8083127D01*
Y8917834D01*
X8080234D01*
Y8916388D01*
X8078787D01*
Y8914941D01*
X8075895D01*
Y8912048D01*
X8073002D01*
Y8909156D01*
X8071555D01*
Y8906263D01*
X8068663D01*
Y8903370D01*
X8065770D01*
Y8900477D01*
X8064323D01*
Y8897585D01*
X8062877D01*
Y8896138D01*
X8061431D01*
Y8893246D01*
X8059984D01*
Y8884567D01*
X8057092D01*
Y8875889D01*
X8058538D01*
Y8874443D01*
X8059984D01*
Y8868657D01*
X8061431D01*
Y8864318D01*
X8062877D01*
Y8862871D01*
X8064323D01*
Y8861425D01*
X8073002D01*
Y8859978D01*
X8074448D01*
Y8858532D01*
X8075895D01*
Y8859978D01*
X8077341D01*
Y8861425D01*
X8091805D01*
Y8862871D01*
X8097590D01*
Y8864318D01*
X8099037D01*
Y8865764D01*
X8103376D01*
Y8868657D01*
X8107715D01*
Y8870103D01*
X8113501D01*
Y8871550D01*
X8114947D01*
Y8872996D01*
X8117840D01*
Y8874443D01*
X8122179D01*
Y8877335D01*
X8126518D01*
Y8880228D01*
X8130858D01*
Y8881674D01*
X8135197D01*
Y8884567D01*
X8139536D01*
Y8886013D01*
X8142428D01*
Y8888906D01*
X8146768D01*
Y8891799D01*
X8149660D01*
Y8893246D01*
X8154000D01*
Y8896138D01*
X8156892D01*
Y8897585D01*
X8158339D01*
Y8899031D01*
X8161232D01*
Y8900477D01*
X8164124D01*
Y8903370D01*
X8165571D01*
Y8904817D01*
X8169910D01*
Y8907709D01*
X8172803D01*
Y8909156D01*
X8174249D01*
Y8910602D01*
X8175695D01*
Y8912048D01*
X8178588D01*
Y8913495D01*
X8180035D01*
Y8914941D01*
X8182927D01*
Y8916388D01*
X8184374D01*
Y8919281D01*
X8187267D01*
Y8922173D01*
X8190159D01*
Y8923620D01*
X8193052D01*
Y8925066D01*
X8194498D01*
Y8926512D01*
X8195945D01*
Y8927959D01*
X8198838D01*
Y8930852D01*
X8200284D01*
Y8933744D01*
X8203177D01*
Y8935191D01*
X8207516D01*
Y8938083D01*
X8210409D01*
Y8939530D01*
X8211855D01*
Y8942423D01*
X8214748D01*
Y8945316D01*
X8217641D01*
Y8946762D01*
X8219087D01*
Y8949655D01*
X8221980D01*
Y8951101D01*
X8224873D01*
Y8952548D01*
X8226319D01*
Y8953994D01*
X8227765D01*
Y8955440D01*
X8229212D01*
Y8956887D01*
X8230658D01*
Y8958333D01*
X8233551D01*
Y8961226D01*
X8234998D01*
Y8962672D01*
X8237890D01*
Y8965565D01*
X8240783D01*
Y8968458D01*
X8242229D01*
Y8969904D01*
X8245122D01*
Y8972797D01*
X8249461D01*
Y8974243D01*
X8250908D01*
Y8975690D01*
X8252354D01*
Y8977136D01*
X8253800D01*
Y8980029D01*
X8256693D01*
Y8981475D01*
X8258140D01*
Y8984368D01*
X8261033D01*
Y8985814D01*
X8263925D01*
Y8988707D01*
X8265372D01*
Y8991600D01*
X8268264D01*
Y8993046D01*
X8269711D01*
Y8995939D01*
X8272603D01*
Y8997386D01*
X8275496D01*
Y8998832D01*
X8276943D01*
Y9000278D01*
X8279835D01*
Y9003171D01*
X8281282D01*
Y9004618D01*
X8284175D01*
Y9007510D01*
X8287068D01*
Y9008957D01*
X8288514D01*
Y9011849D01*
X8291407D01*
Y9014742D01*
X8292853D01*
Y9016188D01*
X8295746D01*
Y9019081D01*
X8298638D01*
Y9020528D01*
X8300085D01*
Y9023421D01*
X8302978D01*
Y9026313D01*
X8304424D01*
Y9027760D01*
X8307317D01*
Y9030652D01*
X8310210D01*
Y9032099D01*
X8311656D01*
Y9034992D01*
X8314549D01*
Y9039331D01*
X8315995D01*
Y9040777D01*
X8317442D01*
Y9042223D01*
X8318888D01*
Y9046563D01*
D02*
G37*
G36*
X7799302Y8625243D02*
X7786963D01*
Y8623701D01*
X7768454D01*
Y8622158D01*
X7759199D01*
Y8620616D01*
X7745317D01*
Y8619073D01*
X7737605D01*
Y8617531D01*
X7729893D01*
Y8615988D01*
X7720638D01*
Y8614446D01*
X7712926D01*
Y8612904D01*
X7703672D01*
Y8611361D01*
X7697502D01*
Y8609819D01*
X7691332D01*
Y8608276D01*
X7683620D01*
Y8606734D01*
X7678993D01*
Y8605191D01*
X7672823D01*
Y8603649D01*
X7668196D01*
Y8602106D01*
X7662026D01*
Y8600564D01*
X7657399D01*
Y8599022D01*
X7649687D01*
Y8597479D01*
X7646602D01*
Y8595937D01*
X7641975D01*
Y8594394D01*
X7637347D01*
Y8592852D01*
X7632720D01*
Y8591309D01*
X7628093D01*
Y8589767D01*
X7623465D01*
Y8588225D01*
X7620380D01*
Y8586682D01*
X7617296D01*
Y8585140D01*
X7612668D01*
Y8583597D01*
X7608041D01*
Y8582055D01*
X7604956D01*
Y8580512D01*
X7601871D01*
Y8578970D01*
X7597244D01*
Y8577428D01*
X7595702D01*
Y8575885D01*
X7591074D01*
Y8574343D01*
X7587989D01*
Y8572800D01*
X7584905D01*
Y8571258D01*
X7581820D01*
Y8569715D01*
X7577192D01*
Y8568173D01*
X7574108D01*
Y8566631D01*
X7572565D01*
Y8565088D01*
X7569480D01*
Y8563546D01*
X7566396D01*
Y8562003D01*
X7563311D01*
Y8560461D01*
X7561768D01*
Y8558919D01*
X7558683D01*
Y8557376D01*
X7557141D01*
Y8555834D01*
X7554056D01*
Y8554291D01*
X7550971D01*
Y8552749D01*
X7547886D01*
Y8551206D01*
X7546344D01*
Y8549664D01*
X7544802D01*
Y8548122D01*
X7541717D01*
Y8546579D01*
X7538632D01*
Y8545037D01*
X7537089D01*
Y8543494D01*
X7535547D01*
Y8541952D01*
X7534004D01*
Y8540409D01*
X7529377D01*
Y8538867D01*
X7527835D01*
Y8537325D01*
X7526292D01*
Y8535782D01*
X7524750D01*
Y8534240D01*
X7521665D01*
Y8532697D01*
X7520123D01*
Y8531155D01*
X7518580D01*
Y8529612D01*
X7517038D01*
Y8528070D01*
X7515495D01*
Y8524985D01*
X7517038D01*
Y8523443D01*
X7518580D01*
Y8521900D01*
X7520123D01*
Y8520358D01*
X7521665D01*
Y8517273D01*
X7523207D01*
Y8515730D01*
X7524750D01*
Y8514188D01*
X7526292D01*
Y8511103D01*
X7527835D01*
Y8509561D01*
X7529377D01*
Y8508018D01*
X7530920D01*
Y8506476D01*
X7532462D01*
Y8504933D01*
X7534004D01*
Y8503391D01*
X7535547D01*
Y8501849D01*
X7537089D01*
Y8498764D01*
X7538632D01*
Y8495679D01*
X7541717D01*
Y8492594D01*
X7543259D01*
Y8491052D01*
X7544802D01*
Y8487967D01*
X7546344D01*
Y8486424D01*
X7547886D01*
Y8484882D01*
X7549429D01*
Y8483339D01*
X7550971D01*
Y8481797D01*
X7552514D01*
Y8478712D01*
X7557141D01*
Y8480255D01*
X7558683D01*
Y8481797D01*
X7561768D01*
Y8483339D01*
X7563311D01*
Y8484882D01*
X7564853D01*
Y8486424D01*
X7567938D01*
Y8487967D01*
X7571023D01*
Y8489509D01*
X7572565D01*
Y8491052D01*
X7575650D01*
Y8492594D01*
X7577192D01*
Y8494136D01*
X7580277D01*
Y8495679D01*
X7581820D01*
Y8497221D01*
X7584905D01*
Y8498764D01*
X7587989D01*
Y8500306D01*
X7591074D01*
Y8501849D01*
X7592617D01*
Y8503391D01*
X7595702D01*
Y8504933D01*
X7600329D01*
Y8506476D01*
X7601871D01*
Y8508018D01*
X7606499D01*
Y8506476D01*
X7608041D01*
Y8504933D01*
X7609583D01*
Y8503391D01*
X7611126D01*
Y8501849D01*
X7612668D01*
Y8498764D01*
X7614211D01*
Y8497221D01*
X7615753D01*
Y8495679D01*
X7617296D01*
Y8492594D01*
X7618838D01*
Y8491052D01*
X7620380D01*
Y8489509D01*
X7621923D01*
Y8487967D01*
X7623465D01*
Y8486424D01*
X7625008D01*
Y8484882D01*
X7626550D01*
Y8481797D01*
X7628093D01*
Y8480255D01*
X7629635D01*
Y8478712D01*
X7631178D01*
Y8477170D01*
X7632720D01*
Y8475627D01*
X7634262D01*
Y8474085D01*
X7635805D01*
Y8472542D01*
X7637347D01*
Y8471000D01*
X7638890D01*
Y8467915D01*
X7640432D01*
Y8466373D01*
X7641975D01*
Y8464830D01*
X7643517D01*
Y8463288D01*
X7645059D01*
Y8460203D01*
X7646602D01*
Y8458661D01*
X7648144D01*
Y8457118D01*
X7649687D01*
Y8454033D01*
X7652772D01*
Y8452491D01*
X7654314D01*
Y8449406D01*
X7655856D01*
Y8447864D01*
X7657399D01*
Y8444779D01*
X7660484D01*
Y8443236D01*
X7662026D01*
Y8440152D01*
X7663568D01*
Y8438609D01*
X7665111D01*
Y8437067D01*
X7666653D01*
Y8435524D01*
X7668196D01*
Y8433982D01*
X7669738D01*
Y8430897D01*
X7671281D01*
Y8429354D01*
X7672823D01*
Y8427812D01*
X7674365D01*
Y8426270D01*
X7675908D01*
Y8424727D01*
X7677450D01*
Y8423185D01*
X7678993D01*
Y8421642D01*
X7680535D01*
Y8418557D01*
X7682078D01*
Y8417015D01*
X7683620D01*
Y8415473D01*
X7685162D01*
Y8412388D01*
X7686705D01*
Y8410845D01*
X7688247D01*
Y8409303D01*
X7689790D01*
Y8407760D01*
X7691332D01*
Y8406218D01*
X7692875D01*
Y8403133D01*
X7694417D01*
Y8401591D01*
X7695959D01*
Y8400048D01*
X7697502D01*
Y8398506D01*
X7699044D01*
Y8396963D01*
X7700587D01*
Y8395421D01*
X7702129D01*
Y8393879D01*
X7703672D01*
Y8392336D01*
X7705214D01*
Y8390794D01*
X7706756D01*
Y8387709D01*
X7708299D01*
Y8386166D01*
X7709841D01*
Y8384624D01*
X7711384D01*
Y8383082D01*
X7712926D01*
Y8381539D01*
X7714469D01*
Y8378454D01*
X7716011D01*
Y8376912D01*
X7717554D01*
Y8375369D01*
X7719096D01*
Y8373827D01*
X7720638D01*
Y8372284D01*
X7722181D01*
Y8369200D01*
X7723723D01*
Y8367657D01*
X7725266D01*
Y8366115D01*
X7726808D01*
Y8364573D01*
X7728351D01*
Y8363030D01*
X7729893D01*
Y8359945D01*
X7731435D01*
Y8358403D01*
X7732978D01*
Y8356860D01*
X7734520D01*
Y8355318D01*
X7736063D01*
Y8352233D01*
X7737605D01*
Y8350691D01*
X7739148D01*
Y8349148D01*
X7740690D01*
Y8347606D01*
X7742232D01*
Y8346063D01*
X7743775D01*
Y8344521D01*
X7745317D01*
Y8342978D01*
X7746860D01*
Y8339894D01*
X7748402D01*
Y8338351D01*
X7749945D01*
Y8336809D01*
X7751487D01*
Y8335266D01*
X7753029D01*
Y8333724D01*
X7754572D01*
Y8332181D01*
X7756114D01*
Y8330639D01*
X7757657D01*
Y8327554D01*
X7759199D01*
Y8326012D01*
X7760741D01*
Y8324469D01*
X7762284D01*
Y8322927D01*
X7763826D01*
Y8321384D01*
X7765369D01*
Y8318300D01*
X7766911D01*
Y8316757D01*
X7768454D01*
Y8315215D01*
X7769996D01*
Y8313672D01*
X7771538D01*
Y8312130D01*
X7773081D01*
Y8219584D01*
X7762284D01*
Y8221127D01*
X7746860D01*
Y8222669D01*
X7736063D01*
Y8224211D01*
X7720638D01*
Y8225754D01*
X7716011D01*
Y8222669D01*
X7714469D01*
Y8210330D01*
X7712926D01*
Y8204160D01*
X7711384D01*
Y8199532D01*
X7709841D01*
Y8193363D01*
X7708299D01*
Y8182566D01*
X7706756D01*
Y8173311D01*
X7705214D01*
Y8167142D01*
X7703672D01*
Y8162514D01*
X7706756D01*
Y8160972D01*
X7712926D01*
Y8159429D01*
X7720638D01*
Y8157887D01*
X7728351D01*
Y8156345D01*
X7737605D01*
Y8154802D01*
X7745317D01*
Y8153260D01*
X7751487D01*
Y8151717D01*
X7771538D01*
Y8150175D01*
X7782335D01*
Y8148632D01*
X7807014D01*
Y8147090D01*
X7884136D01*
Y8148632D01*
X7911900D01*
Y8150175D01*
X7925781D01*
Y8151717D01*
X7944291D01*
Y8153260D01*
X7952003D01*
Y8154802D01*
X7959715D01*
Y8156345D01*
X7970512D01*
Y8157887D01*
X7978224D01*
Y8159429D01*
X7990563D01*
Y8160972D01*
X7992106D01*
Y8170226D01*
X7990563D01*
Y8179481D01*
X7989021D01*
Y8187193D01*
X7987479D01*
Y8191820D01*
X7985936D01*
Y8197990D01*
X7984394D01*
Y8207245D01*
X7982851D01*
Y8214957D01*
X7981309D01*
Y8219584D01*
X7979766D01*
Y8225754D01*
X7964342D01*
Y8224211D01*
X7950460D01*
Y8222669D01*
X7941206D01*
Y8221127D01*
X7922697D01*
Y8219584D01*
X7916527D01*
Y8307503D01*
X7918069D01*
Y8310587D01*
X7919612D01*
Y8312130D01*
X7921154D01*
Y8313672D01*
X7922697D01*
Y8315215D01*
X7924239D01*
Y8316757D01*
X7925781D01*
Y8319842D01*
X7927324D01*
Y8321384D01*
X7928866D01*
Y8322927D01*
X7930409D01*
Y8324469D01*
X7931951D01*
Y8326012D01*
X7933494D01*
Y8327554D01*
X7935036D01*
Y8330639D01*
X7936578D01*
Y8332181D01*
X7938121D01*
Y8333724D01*
X7939663D01*
Y8335266D01*
X7941206D01*
Y8338351D01*
X7942748D01*
Y8339894D01*
X7944291D01*
Y8341436D01*
X7945833D01*
Y8342978D01*
X7947376D01*
Y8344521D01*
X7948918D01*
Y8346063D01*
X7950460D01*
Y8349148D01*
X7953545D01*
Y8352233D01*
X7955087D01*
Y8353776D01*
X7956630D01*
Y8355318D01*
X7958173D01*
Y8356860D01*
X7959715D01*
Y8358403D01*
X7961257D01*
Y8359945D01*
X7962800D01*
Y8363030D01*
X7964342D01*
Y8364573D01*
X7965884D01*
Y8366115D01*
X7967427D01*
Y8367657D01*
X7968969D01*
Y8369200D01*
X7970512D01*
Y8372284D01*
X7972054D01*
Y8373827D01*
X7973597D01*
Y8375369D01*
X7975139D01*
Y8376912D01*
X7976682D01*
Y8378454D01*
X7978224D01*
Y8381539D01*
X7979766D01*
Y8383082D01*
X7981309D01*
Y8384624D01*
X7982851D01*
Y8386166D01*
X7984394D01*
Y8387709D01*
X7985936D01*
Y8389251D01*
X7987479D01*
Y8392336D01*
X7989021D01*
Y8393879D01*
X7990563D01*
Y8395421D01*
X7992106D01*
Y8396963D01*
X7993648D01*
Y8398506D01*
X7995191D01*
Y8400048D01*
X7996733D01*
Y8401591D01*
X7998276D01*
Y8403133D01*
X7999818D01*
Y8406218D01*
X8001360D01*
Y8407760D01*
X8002903D01*
Y8409303D01*
X8004445D01*
Y8410845D01*
X8005988D01*
Y8412388D01*
X8007530D01*
Y8415473D01*
X8009073D01*
Y8417015D01*
X8010615D01*
Y8418557D01*
X8012157D01*
Y8420100D01*
X8013700D01*
Y8423185D01*
X8015242D01*
Y8424727D01*
X8016785D01*
Y8426270D01*
X8018327D01*
Y8427812D01*
X8019870D01*
Y8429354D01*
X8021412D01*
Y8430897D01*
X8022954D01*
Y8433982D01*
X8024497D01*
Y8435524D01*
X8026039D01*
Y8437067D01*
X8027582D01*
Y8438609D01*
X8029124D01*
Y8440152D01*
X8030667D01*
Y8441694D01*
X8032209D01*
Y8443236D01*
X8033752D01*
Y8444779D01*
X8035294D01*
Y8446321D01*
X8036836D01*
Y8449406D01*
X8038379D01*
Y8450949D01*
X8039921D01*
Y8452491D01*
X8041464D01*
Y8454033D01*
X8043006D01*
Y8457118D01*
X8044549D01*
Y8458661D01*
X8047633D01*
Y8461746D01*
X8049176D01*
Y8463288D01*
X8050718D01*
Y8466373D01*
X8053803D01*
Y8467915D01*
X8055346D01*
Y8471000D01*
X8056888D01*
Y8472542D01*
X8058430D01*
Y8474085D01*
X8059973D01*
Y8475627D01*
X8061515D01*
Y8478712D01*
X8063058D01*
Y8480255D01*
X8064600D01*
Y8481797D01*
X8066142D01*
Y8483339D01*
X8067685D01*
Y8484882D01*
X8069227D01*
Y8487967D01*
X8072312D01*
Y8489509D01*
X8073855D01*
Y8492594D01*
X8075397D01*
Y8494136D01*
X8076939D01*
Y8495679D01*
X8078482D01*
Y8497221D01*
X8080024D01*
Y8500306D01*
X8084652D01*
Y8498764D01*
X8086194D01*
Y8497221D01*
X8089279D01*
Y8495679D01*
X8090821D01*
Y8494136D01*
X8093906D01*
Y8492594D01*
X8095449D01*
Y8491052D01*
X8096991D01*
Y8489509D01*
X8100076D01*
Y8487967D01*
X8103161D01*
Y8486424D01*
X8104703D01*
Y8484882D01*
X8107788D01*
Y8483339D01*
X8109330D01*
Y8481797D01*
X8112415D01*
Y8480255D01*
X8113958D01*
Y8478712D01*
X8117043D01*
Y8475627D01*
X8120128D01*
Y8474085D01*
X8123212D01*
Y8472542D01*
X8124755D01*
Y8471000D01*
X8126297D01*
Y8469458D01*
X8127840D01*
Y8467915D01*
X8129382D01*
Y8466373D01*
X8134009D01*
Y8467915D01*
X8135552D01*
Y8469458D01*
X8137094D01*
Y8471000D01*
X8138637D01*
Y8474085D01*
X8140179D01*
Y8475627D01*
X8141722D01*
Y8477170D01*
X8143264D01*
Y8480255D01*
X8144806D01*
Y8481797D01*
X8146349D01*
Y8483339D01*
X8147891D01*
Y8486424D01*
X8149434D01*
Y8487967D01*
X8152518D01*
Y8491052D01*
X8154061D01*
Y8494136D01*
X8155603D01*
Y8495679D01*
X8157146D01*
Y8497221D01*
X8158688D01*
Y8498764D01*
X8160231D01*
Y8500306D01*
X8161773D01*
Y8501849D01*
X8163315D01*
Y8504933D01*
X8164858D01*
Y8506476D01*
X8166400D01*
Y8508018D01*
X8167943D01*
Y8509561D01*
X8169485D01*
Y8511103D01*
X8171028D01*
Y8512646D01*
X8172570D01*
Y8515730D01*
X8174112D01*
Y8518815D01*
X8172570D01*
Y8520358D01*
X8171028D01*
Y8521900D01*
X8169485D01*
Y8523443D01*
X8167943D01*
Y8524985D01*
X8164858D01*
Y8526528D01*
X8163315D01*
Y8528070D01*
X8161773D01*
Y8529612D01*
X8160231D01*
Y8531155D01*
X8158688D01*
Y8532697D01*
X8155603D01*
Y8534240D01*
X8154061D01*
Y8535782D01*
X8152518D01*
Y8537325D01*
X8150976D01*
Y8538867D01*
X8147891D01*
Y8540409D01*
X8146349D01*
Y8541952D01*
X8143264D01*
Y8543494D01*
X8141722D01*
Y8545037D01*
X8140179D01*
Y8546579D01*
X8135552D01*
Y8548122D01*
X8134009D01*
Y8549664D01*
X8132467D01*
Y8551206D01*
X8129382D01*
Y8552749D01*
X8127840D01*
Y8554291D01*
X8124755D01*
Y8555834D01*
X8123212D01*
Y8557376D01*
X8120128D01*
Y8558919D01*
X8117043D01*
Y8560461D01*
X8115500D01*
Y8562003D01*
X8112415D01*
Y8563546D01*
X8109330D01*
Y8565088D01*
X8106246D01*
Y8566631D01*
X8104703D01*
Y8568173D01*
X8101618D01*
Y8569715D01*
X8096991D01*
Y8571258D01*
X8093906D01*
Y8572800D01*
X8092364D01*
Y8574343D01*
X8089279D01*
Y8575885D01*
X8084652D01*
Y8577428D01*
X8081567D01*
Y8578970D01*
X8078482D01*
Y8580512D01*
X8075397D01*
Y8582055D01*
X8073855D01*
Y8583597D01*
X8067685D01*
Y8585140D01*
X8066142D01*
Y8586682D01*
X8059973D01*
Y8588225D01*
X8056888D01*
Y8589767D01*
X8055346D01*
Y8591309D01*
X8047633D01*
Y8592852D01*
X8043006D01*
Y8594394D01*
X8038379D01*
Y8595937D01*
X8035294D01*
Y8597479D01*
X8032209D01*
Y8599022D01*
X8024497D01*
Y8600564D01*
X8018327D01*
Y8602106D01*
X8012157D01*
Y8603649D01*
X8007530D01*
Y8605191D01*
X7998276D01*
Y8606734D01*
X7992106D01*
Y8608276D01*
X7981309D01*
Y8609819D01*
X7973597D01*
Y8611361D01*
X7961257D01*
Y8612904D01*
X7959715D01*
Y8611361D01*
X7958173D01*
Y8603649D01*
X7956630D01*
Y8586682D01*
X7955087D01*
Y8575885D01*
X7953545D01*
Y8569715D01*
X7952003D01*
Y8560461D01*
X7950460D01*
Y8554291D01*
X7948918D01*
Y8543494D01*
X7952003D01*
Y8541952D01*
X7956630D01*
Y8540409D01*
X7965884D01*
Y8538867D01*
X7972054D01*
Y8537325D01*
X7979766D01*
Y8535782D01*
X7985936D01*
Y8534240D01*
X7990563D01*
Y8532697D01*
X8001360D01*
Y8529612D01*
X7999818D01*
Y8526528D01*
X7998276D01*
Y8524985D01*
X7996733D01*
Y8523443D01*
X7995191D01*
Y8521900D01*
X7993648D01*
Y8520358D01*
X7992106D01*
Y8518815D01*
X7990563D01*
Y8517273D01*
X7989021D01*
Y8514188D01*
X7987479D01*
Y8512646D01*
X7985936D01*
Y8511103D01*
X7984394D01*
Y8508018D01*
X7982851D01*
Y8506476D01*
X7979766D01*
Y8503391D01*
X7978224D01*
Y8501849D01*
X7976682D01*
Y8500306D01*
X7975139D01*
Y8498764D01*
X7973597D01*
Y8497221D01*
X7972054D01*
Y8494136D01*
X7970512D01*
Y8492594D01*
X7968969D01*
Y8489509D01*
X7967427D01*
Y8487967D01*
X7964342D01*
Y8486424D01*
X7962800D01*
Y8483339D01*
X7961257D01*
Y8481797D01*
X7959715D01*
Y8480255D01*
X7958173D01*
Y8478712D01*
X7956630D01*
Y8477170D01*
X7955087D01*
Y8474085D01*
X7953545D01*
Y8472542D01*
X7952003D01*
Y8471000D01*
X7950460D01*
Y8469458D01*
X7948918D01*
Y8466373D01*
X7947376D01*
Y8464830D01*
X7945833D01*
Y8463288D01*
X7944291D01*
Y8461746D01*
X7942748D01*
Y8460203D01*
X7941206D01*
Y8457118D01*
X7939663D01*
Y8455576D01*
X7938121D01*
Y8454033D01*
X7936578D01*
Y8452491D01*
X7935036D01*
Y8450949D01*
X7933494D01*
Y8447864D01*
X7931951D01*
Y8446321D01*
X7930409D01*
Y8444779D01*
X7927324D01*
Y8441694D01*
X7925781D01*
Y8440152D01*
X7924239D01*
Y8437067D01*
X7922697D01*
Y8435524D01*
X7921154D01*
Y8433982D01*
X7919612D01*
Y8432439D01*
X7918069D01*
Y8430897D01*
X7916527D01*
Y8427812D01*
X7914984D01*
Y8426270D01*
X7913442D01*
Y8424727D01*
X7911900D01*
Y8423185D01*
X7910357D01*
Y8420100D01*
X7908815D01*
Y8418557D01*
X7907272D01*
Y8417015D01*
X7905730D01*
Y8415473D01*
X7904187D01*
Y8413930D01*
X7902645D01*
Y8410845D01*
X7899560D01*
Y8407760D01*
X7898018D01*
Y8406218D01*
X7896475D01*
Y8404676D01*
X7894933D01*
Y8401591D01*
X7893390D01*
Y8400048D01*
X7890306D01*
Y8396963D01*
X7888763D01*
Y8393879D01*
X7885678D01*
Y8392336D01*
X7884136D01*
Y8389251D01*
X7882593D01*
Y8387709D01*
X7879508D01*
Y8389251D01*
X7877966D01*
Y8390794D01*
X7876424D01*
Y8392336D01*
X7874881D01*
Y8393879D01*
X7873339D01*
Y8395421D01*
X7871796D01*
Y8396963D01*
X7870254D01*
Y8398506D01*
X7868711D01*
Y8400048D01*
X7867169D01*
Y8403133D01*
X7865627D01*
Y8404676D01*
X7864084D01*
Y8406218D01*
X7862542D01*
Y8407760D01*
X7861000D01*
Y8409303D01*
X7859457D01*
Y8412388D01*
X7857914D01*
Y8413930D01*
X7856372D01*
Y8415473D01*
X7854830D01*
Y8417015D01*
X7853287D01*
Y8420100D01*
X7851745D01*
Y8421642D01*
X7850202D01*
Y8423185D01*
X7847118D01*
Y8426270D01*
X7845575D01*
Y8429354D01*
X7842490D01*
Y8430897D01*
X7840948D01*
Y8432439D01*
X7839405D01*
Y8435524D01*
X7837863D01*
Y8437067D01*
X7836321D01*
Y8438609D01*
X7834778D01*
Y8440152D01*
X7833236D01*
Y8441694D01*
X7831693D01*
Y8443236D01*
X7830151D01*
Y8446321D01*
X7828608D01*
Y8447864D01*
X7827066D01*
Y8449406D01*
X7825524D01*
Y8450949D01*
X7823981D01*
Y8452491D01*
X7822439D01*
Y8454033D01*
X7820896D01*
Y8455576D01*
X7819354D01*
Y8457118D01*
X7817811D01*
Y8458661D01*
X7816269D01*
Y8461746D01*
X7814727D01*
Y8463288D01*
X7813184D01*
Y8464830D01*
X7811642D01*
Y8466373D01*
X7810099D01*
Y8467915D01*
X7808557D01*
Y8471000D01*
X7807014D01*
Y8472542D01*
X7805472D01*
Y8474085D01*
X7803930D01*
Y8475627D01*
X7802387D01*
Y8477170D01*
X7800845D01*
Y8480255D01*
X7799302D01*
Y8481797D01*
X7797760D01*
Y8483339D01*
X7796217D01*
Y8484882D01*
X7794675D01*
Y8486424D01*
X7793132D01*
Y8487967D01*
X7791590D01*
Y8489509D01*
X7790048D01*
Y8491052D01*
X7788505D01*
Y8492594D01*
X7786963D01*
Y8495679D01*
X7785420D01*
Y8497221D01*
X7783878D01*
Y8498764D01*
X7782335D01*
Y8500306D01*
X7780793D01*
Y8501849D01*
X7779251D01*
Y8504933D01*
X7777708D01*
Y8506476D01*
X7776166D01*
Y8508018D01*
X7774623D01*
Y8509561D01*
X7773081D01*
Y8511103D01*
X7771538D01*
Y8514188D01*
X7769996D01*
Y8515730D01*
X7768454D01*
Y8517273D01*
X7766911D01*
Y8518815D01*
X7765369D01*
Y8520358D01*
X7763826D01*
Y8523443D01*
X7762284D01*
Y8524985D01*
X7760741D01*
Y8526528D01*
X7759199D01*
Y8528070D01*
X7757657D01*
Y8529612D01*
X7756114D01*
Y8532697D01*
X7754572D01*
Y8534240D01*
X7753029D01*
Y8535782D01*
X7751487D01*
Y8537325D01*
X7749945D01*
Y8538867D01*
X7748402D01*
Y8540409D01*
X7746860D01*
Y8541952D01*
X7745317D01*
Y8543494D01*
X7743775D01*
Y8545037D01*
X7742232D01*
Y8549664D01*
X7748402D01*
Y8551206D01*
X7759199D01*
Y8552749D01*
X7771538D01*
Y8554291D01*
X7786963D01*
Y8555834D01*
X7799302D01*
Y8557376D01*
X7802387D01*
Y8563546D01*
X7800845D01*
Y8612904D01*
X7799302D01*
Y8625243D01*
D02*
G37*
%LPD*%
D36*
X5079300Y13303500D02*
G03*
X5079300Y13303500I-12500J0D01*
G01*
X6314700Y9474200D02*
G03*
X6314700Y9474200I-12500J0D01*
G01*
X5803700Y9915700D02*
G03*
X5803700Y9915700I-12500J0D01*
G01*
X3632000Y8442500D02*
G03*
X3632000Y8442500I-12500J0D01*
G01*
X3314500Y11623500D02*
G03*
X3314500Y11623500I-12500J0D01*
G01*
X6778600Y10693400D02*
G03*
X6778600Y10693400I-12500J0D01*
G01*
X3327200Y13134801D02*
G03*
X3327200Y13134801I-12500J0D01*
G01*
X3408800Y14224001D02*
G03*
X3408800Y14224001I-12500J0D01*
G01*
X5968300Y12986000D02*
G03*
X5968300Y12986000I-12500J0D01*
G01*
X8204000D02*
G03*
X8204000Y12986000I-12500J0D01*
G01*
X7149901D02*
G03*
X7149901Y12986000I-12500J0D01*
G01*
X6277000Y13248300D02*
G03*
X6277000Y13248300I-12500J0D01*
G01*
D37*
X6325200Y9258200D02*
G03*
X6325200Y9258200I-30000J0D01*
G01*
X5605200Y9922700D02*
G03*
X5605200Y9922700I-30000J0D01*
G01*
X3433500Y8449500D02*
G03*
X3433500Y8449500I-30000J0D01*
G01*
X3548000Y11522500D02*
G03*
X3548000Y11522500I-30000J0D01*
G01*
X6897100Y10909400D02*
G03*
X6897100Y10909400I-30000J0D01*
G01*
X3560700Y13033800D02*
G03*
X3560700Y13033800I-30000J0D01*
G01*
D38*
X6395200Y9156700D02*
G03*
X6395200Y9029700I0J-63500D01*
G01*
X5473700Y9822700D02*
G03*
X5346700Y9822700I-63500J0D01*
G01*
X3302000Y8349500D02*
G03*
X3175000Y8349500I-63500J0D01*
G01*
X3619500Y11622500D02*
G03*
X3746500Y11622500I63500J0D01*
G01*
X6767100Y11010900D02*
G03*
X6767100Y11137900I0J63500D01*
G01*
X3632200Y13133800D02*
G03*
X3759200Y13133800I63500J0D01*
G01*
X2955300Y13614400D02*
X3027800D01*
X3677800D02*
X3750300D01*
X3677800Y13489400D02*
Y13739400D01*
X3027800D02*
X3677800D01*
X3027800Y13489400D02*
Y13739400D01*
Y13489400D02*
X3677800D01*
X5315300Y12274500D02*
Y13252499D01*
X4819300D02*
X5315300D01*
X4819300Y12274500D02*
Y13252499D01*
Y12274500D02*
X5315300D01*
X4425198Y8828202D02*
Y9358198D01*
X6395202Y8828202D02*
Y9029700D01*
Y9156700D02*
Y9358198D01*
X4425198Y8828202D02*
X6395202D01*
X4425198Y9358198D02*
X6395202D01*
X2984500Y12948801D02*
Y13021300D01*
Y12226300D02*
Y12298800D01*
X2859500D02*
X3109500D01*
Y12948801D01*
X2859500D02*
X3109500D01*
X2859500Y12298800D02*
Y12948801D01*
X4406900Y12961501D02*
Y13034000D01*
Y12239000D02*
Y12311500D01*
X4281900D02*
X4531900D01*
Y12961501D01*
X4281900D02*
X4531900D01*
X4281900Y12311500D02*
Y12961501D01*
X6884610Y10107990D02*
X6935875Y10056725D01*
X6373725Y10618875D02*
X6424990Y10567610D01*
X6336602Y10479221D02*
X6513379Y10655998D01*
X6336602Y10479221D02*
X6796221Y10019602D01*
X6972998Y10196379D01*
X6513379Y10655998D02*
X6972998Y10196379D01*
X6464300Y12148700D02*
Y12221200D01*
Y11426200D02*
Y11498700D01*
X6339300D02*
X6589300D01*
Y12148700D01*
X6339300D02*
X6589300D01*
X6339300Y11498700D02*
Y12148700D01*
X2997200Y10867400D02*
Y10939900D01*
Y11589900D02*
Y11662400D01*
X2872200Y11589900D02*
X3122200D01*
X2872200Y10939900D02*
Y11589900D01*
Y10939900D02*
X3122200D01*
Y11589900D01*
X4445000Y10346700D02*
Y10419200D01*
Y11069200D02*
Y11141700D01*
X4320000Y11069200D02*
X4570000D01*
X4320000Y10419200D02*
Y11069200D01*
Y10419200D02*
X4570000D01*
Y11069200D01*
X5675198Y9822698D02*
Y11792702D01*
X5145202Y9822698D02*
Y11792702D01*
X5473700Y9822698D02*
X5675198D01*
X5145202D02*
X5346700D01*
X5145202Y11792702D02*
X5675198D01*
X2973502Y10319502D02*
X3503498D01*
X2973502Y8349498D02*
X3175000D01*
X3302000D02*
X3503498D01*
X2973502D02*
Y10319502D01*
X3503498Y8349498D02*
Y10319502D01*
X3418002Y10602498D02*
Y11622502D01*
X3947998Y10602498D02*
Y11622502D01*
X3418002D02*
X3619500D01*
X3746500D02*
X3947998D01*
X3418002Y10602498D02*
X3947998D01*
X7787102Y10809402D02*
Y11339398D01*
X6767098Y11137900D02*
Y11339398D01*
Y10809402D02*
Y11010900D01*
Y11339398D02*
X7787102D01*
X6767098Y10809402D02*
X7787102D01*
X3430702Y12113798D02*
Y13133801D01*
X3960698Y12113798D02*
Y13133801D01*
X3430702D02*
X3632200D01*
X3759200D02*
X3960698D01*
X3430702Y12113798D02*
X3960698D01*
X4846300Y13944000D02*
Y14394000D01*
X3456300D02*
X4846300D01*
X3456300Y13944000D02*
Y14394000D01*
Y13944000D02*
X4846300D01*
X5708299Y11956999D02*
X6204301D01*
X5708299D02*
Y12935001D01*
X6204301D01*
Y11956999D02*
Y12935001D01*
X7944002Y11956999D02*
X8439998D01*
X7944002D02*
Y12935001D01*
X8439998D01*
Y11956999D02*
Y12935001D01*
X5303500Y14207301D02*
X5618500D01*
X5303500Y13707298D02*
Y14207301D01*
Y13707298D02*
X5618500D01*
Y14207301D01*
X6989401Y14245300D02*
Y14305299D01*
Y13990300D02*
Y14050301D01*
Y13990300D02*
X7539398D01*
Y14245300D02*
Y14305299D01*
Y13990300D02*
Y14050301D01*
X6989401Y14305299D02*
X7539398D01*
X6889902Y11956999D02*
X7385898D01*
X6889902D02*
Y12935001D01*
X7385898D01*
Y11956999D02*
Y12935001D01*
X6616700Y13964799D02*
Y14037302D01*
Y13242300D02*
Y13314798D01*
X6491702D02*
X6741698D01*
Y13964799D01*
X6491702D02*
X6741698D01*
X6491702Y13314798D02*
Y13964799D01*
X7171700Y13411200D02*
X7244202D01*
X7894198D02*
X7966700D01*
X7894198Y13286201D02*
Y13536198D01*
X7244202D02*
X7894198D01*
X7244202Y13286201D02*
Y13536198D01*
Y13286201D02*
X7894198D01*
X5869498Y13183301D02*
Y14223299D01*
X6329502D01*
Y13183301D02*
Y14223299D01*
X5869498Y13183301D02*
X6329502D01*
X5919500D02*
Y14223299D01*
X6534800Y8803599D02*
X6774800D01*
X6534800D02*
Y9433601D01*
X6774800Y8803599D02*
Y9433601D01*
X6534800D02*
X6774800D01*
X6028400Y8301401D02*
X6088400D01*
X5773400D02*
X5833400D01*
X5773400Y7751399D02*
Y8301401D01*
X6028400Y7751399D02*
X6088400D01*
X5773400D02*
X5833400D01*
X6088400D02*
Y8301401D01*
X4536399Y7881000D02*
Y8121000D01*
X5166401D01*
X4536399Y7881000D02*
X5166401D01*
Y8121000D01*
X4097698Y7945100D02*
Y8005100D01*
Y8200100D02*
Y8260100D01*
X3547701D02*
X4097698D01*
X3547701Y7945100D02*
Y8005100D01*
Y8200100D02*
Y8260100D01*
Y7945100D02*
X4097698D01*
D39*
X4669708Y7640287D02*
X4703564D01*
X4686636D01*
Y7538720D01*
X4669708D01*
X4703564D01*
X4771275D02*
Y7623359D01*
Y7589503D01*
X4754347D01*
X4788203D01*
X4771275D01*
Y7623359D01*
X4788203Y7640287D01*
X4940554Y7538720D02*
X4974410D01*
X4957482D01*
Y7606431D01*
X4940554D01*
X5042121Y7623359D02*
Y7606431D01*
X5025193D01*
X5059049D01*
X5042121D01*
Y7555648D01*
X5059049Y7538720D01*
X5126761Y7657215D02*
Y7623359D01*
X5109833Y7606431D01*
X5177544Y7538720D02*
X5228328D01*
X5245255Y7555648D01*
X5228328Y7572576D01*
X5194472D01*
X5177544Y7589503D01*
X5194472Y7606431D01*
X5245255D01*
X5380679Y7640287D02*
Y7538720D01*
X5431462D01*
X5448390Y7555648D01*
Y7572576D01*
Y7589503D01*
X5431462Y7606431D01*
X5380679D01*
X5482246D02*
Y7538720D01*
Y7572576D01*
X5499174Y7589503D01*
X5516101Y7606431D01*
X5533029D01*
X5600741Y7538720D02*
X5634597D01*
X5651524Y7555648D01*
Y7589503D01*
X5634597Y7606431D01*
X5600741D01*
X5583813Y7589503D01*
Y7555648D01*
X5600741Y7538720D01*
X5685380D02*
Y7640287D01*
Y7572576D02*
X5736164Y7606431D01*
X5685380Y7572576D02*
X5736164Y7538720D01*
X5837731D02*
X5803875D01*
X5786948Y7555648D01*
Y7589503D01*
X5803875Y7606431D01*
X5837731D01*
X5854659Y7589503D01*
Y7572576D01*
X5786948D01*
X5888515Y7538720D02*
Y7555648D01*
X5905443D01*
Y7538720D01*
X5888515D01*
X5973154D02*
Y7555648D01*
X5990082D01*
Y7538720D01*
X5973154D01*
X6057794D02*
Y7555648D01*
X6074721D01*
Y7538720D01*
X6057794D01*
X6260928D02*
Y7623359D01*
Y7589503D01*
X6244000D01*
X6277856D01*
X6260928D01*
Y7623359D01*
X6277856Y7640287D01*
X6328640Y7538720D02*
X6362495D01*
X6345567D01*
Y7606431D01*
X6328640D01*
X6413279D02*
X6480990Y7538720D01*
X6447135Y7572576D01*
X6480990Y7606431D01*
X6413279Y7538720D01*
X6616413D02*
X6650269D01*
X6633341D01*
Y7606431D01*
X6616413D01*
X6717981Y7623359D02*
Y7606431D01*
X6701053D01*
X6734909D01*
X6717981D01*
Y7555648D01*
X6734909Y7538720D01*
X6785692Y7572576D02*
Y7657215D01*
Y7555648D02*
Y7538720D01*
X5317113Y14384856D02*
X5300185Y14401784D01*
X5266330D01*
X5249402Y14384856D01*
Y14317143D01*
X5266330Y14300217D01*
X5300185D01*
X5317113Y14317143D01*
X5350969Y14300217D02*
X5384825D01*
X5367897D01*
Y14401784D01*
X5350969Y14384856D01*
X5435608Y14401784D02*
Y14334071D01*
X5469464Y14300217D01*
X5503320Y14334071D01*
Y14401784D01*
X5537176Y14300217D02*
Y14401784D01*
X5587959D01*
X5604887Y14384856D01*
Y14350999D01*
X5587959Y14334071D01*
X5537176D01*
X5571031D02*
X5604887Y14300217D01*
X5638743D02*
X5672599D01*
X5655671D01*
Y14401784D01*
X5638743Y14384856D01*
X3115761Y13792216D02*
Y13893784D01*
X3166544D01*
X3183472Y13876855D01*
Y13842999D01*
X3166544Y13826073D01*
X3115761D01*
X3149617D02*
X3183472Y13792216D01*
X3217328Y13809145D02*
X3234256Y13792216D01*
X3268112D01*
X3285039Y13809145D01*
Y13876855D01*
X3268112Y13893784D01*
X3234256D01*
X3217328Y13876855D01*
Y13859927D01*
X3234256Y13842999D01*
X3285039D01*
X4745556Y12653461D02*
X4762483Y12670389D01*
Y12704244D01*
X4745556Y12721172D01*
X4677844D01*
X4660916Y12704244D01*
Y12670389D01*
X4677844Y12653461D01*
X4694772D01*
X4711700Y12670389D01*
Y12721172D01*
X4660916Y12755028D02*
X4728628D01*
X4762483Y12788884D01*
X4728628Y12822739D01*
X4660916D01*
X4516939Y10109183D02*
Y10007616D01*
X4466156D01*
X4449228Y10024544D01*
Y10058400D01*
X4466156Y10075328D01*
X4516939D01*
X4483083D02*
X4449228Y10109183D01*
X4415372Y10024544D02*
X4398444Y10007616D01*
X4364588D01*
X4347661Y10024544D01*
Y10041472D01*
X4364588Y10058400D01*
X4347661Y10075328D01*
Y10092256D01*
X4364588Y10109183D01*
X4398444D01*
X4415372Y10092256D01*
Y10075328D01*
X4398444Y10058400D01*
X4415372Y10041472D01*
Y10024544D01*
X4398444Y10058400D02*
X4364588D01*
X3056439Y10642583D02*
Y10541016D01*
X3005656D01*
X2988728Y10557944D01*
Y10591800D01*
X3005656Y10608728D01*
X3056439D01*
X3022583D02*
X2988728Y10642583D01*
X2954872Y10541016D02*
X2887161D01*
Y10557944D01*
X2954872Y10625656D01*
Y10642583D01*
X6286483Y11586661D02*
X6184916D01*
Y11637444D01*
X6201844Y11654372D01*
X6235700D01*
X6252628Y11637444D01*
Y11586661D01*
Y11620517D02*
X6286483Y11654372D01*
X6184916Y11755939D02*
X6201844Y11722084D01*
X6235700Y11688228D01*
X6269556D01*
X6286483Y11705156D01*
Y11739012D01*
X6269556Y11755939D01*
X6252628D01*
X6235700Y11739012D01*
Y11688228D01*
X6887195Y10363786D02*
X6959014Y10435605D01*
X6994924Y10399695D01*
Y10375756D01*
X6970984Y10351816D01*
X6947044D01*
X6911135Y10387725D01*
X6935075Y10363786D02*
Y10315907D01*
X7078712D02*
X7030833Y10363786D01*
X6994924Y10327876D01*
X7030833Y10315907D01*
X7042803Y10303937D01*
Y10279997D01*
X7018863Y10256058D01*
X6994924D01*
X6970984Y10279997D01*
Y10303937D01*
X4322261Y13258817D02*
Y13360384D01*
X4373044D01*
X4389972Y13343456D01*
Y13309599D01*
X4373044Y13292673D01*
X4322261D01*
X4356117D02*
X4389972Y13258817D01*
X4474612D02*
Y13360384D01*
X4423828Y13309599D01*
X4491539D01*
X2912561Y13271516D02*
Y13373083D01*
X2963344D01*
X2980272Y13356155D01*
Y13322301D01*
X2963344Y13305373D01*
X2912561D01*
X2946417D02*
X2980272Y13271516D01*
X3014128Y13356155D02*
X3031056Y13373083D01*
X3064912D01*
X3081839Y13356155D01*
Y13339227D01*
X3064912Y13322301D01*
X3047984D01*
X3064912D01*
X3081839Y13305373D01*
Y13288445D01*
X3064912Y13271516D01*
X3031056D01*
X3014128Y13288445D01*
X3334255Y14054758D02*
X3232688D01*
Y14105540D01*
X3249616Y14122469D01*
X3283472D01*
X3300400Y14105540D01*
Y14054758D01*
X3334255Y14156325D02*
Y14190181D01*
Y14173253D01*
X3232688D01*
Y14156325D01*
X3266544Y14240964D02*
X3317328D01*
X3334255Y14257892D01*
Y14308676D01*
X3266544D01*
X3368111Y14376387D02*
Y14393315D01*
X3351183Y14410243D01*
X3266544D01*
Y14359459D01*
X3283472Y14342532D01*
X3317328D01*
X3334255Y14359459D01*
Y14410243D01*
X7137449Y13927657D02*
X7120521Y13944585D01*
X7086666D01*
X7069738Y13927657D01*
Y13859944D01*
X7086666Y13843018D01*
X7120521D01*
X7137449Y13859944D01*
X7239016Y13843018D02*
X7171305D01*
X7239016Y13910728D01*
Y13927657D01*
X7222088Y13944585D01*
X7188233D01*
X7171305Y13927657D01*
X7272872Y13944585D02*
Y13876872D01*
X7306728Y13843018D01*
X7340583Y13876872D01*
Y13944585D01*
X7374439Y13843018D02*
Y13944585D01*
X7425223D01*
X7442151Y13927657D01*
Y13893800D01*
X7425223Y13876872D01*
X7374439D01*
X7408295D02*
X7442151Y13843018D01*
X7476007D02*
X7509862D01*
X7492934D01*
Y13944585D01*
X7476007Y13927657D01*
X5888638Y14406012D02*
X5854782Y14389084D01*
X5820926Y14355228D01*
Y14321371D01*
X5837854Y14304443D01*
X5871710D01*
X5888638Y14321371D01*
Y14338300D01*
X5871710Y14355228D01*
X5820926D01*
X5922494Y14406012D02*
Y14338300D01*
X5956349Y14304443D01*
X5990205Y14338300D01*
Y14406012D01*
X6125628Y14304443D02*
Y14406012D01*
X6176412D01*
X6193339Y14389084D01*
Y14355228D01*
X6176412Y14338300D01*
X6125628D01*
X6159484D02*
X6193339Y14304443D01*
X6277979D02*
X6244123D01*
X6227195Y14321371D01*
Y14355228D01*
X6244123Y14372156D01*
X6277979D01*
X6294907Y14355228D01*
Y14338300D01*
X6227195D01*
X6362618Y14270589D02*
X6379546D01*
X6396474Y14287517D01*
Y14372156D01*
X6345690D01*
X6328763Y14355228D01*
Y14321371D01*
X6345690Y14304443D01*
X6396474D01*
X7349138Y13131818D02*
Y13233385D01*
X7399921D01*
X7416849Y13216457D01*
Y13182600D01*
X7399921Y13165672D01*
X7349138D01*
X7382993D02*
X7416849Y13131818D01*
X7518416D02*
X7450705D01*
X7518416Y13199529D01*
Y13216457D01*
X7501488Y13233385D01*
X7467633D01*
X7450705Y13216457D01*
X7552272Y13233385D02*
Y13165672D01*
X7586128Y13131818D01*
X7619983Y13165672D01*
Y13233385D01*
X7653839Y13131818D02*
Y13233385D01*
X7704623D01*
X7721551Y13216457D01*
Y13182600D01*
X7704623Y13165672D01*
X7653839D01*
X7687695D02*
X7721551Y13131818D01*
X7755407D02*
X7789262D01*
X7772334D01*
Y13233385D01*
X7755407Y13216457D01*
X6544761Y8420117D02*
Y8521684D01*
X6595544D01*
X6612472Y8504756D01*
Y8470900D01*
X6595544Y8453972D01*
X6544761D01*
X6578617D02*
X6612472Y8420117D01*
X6714039D02*
X6646328D01*
X6714039Y8487828D01*
Y8504756D01*
X6697112Y8521684D01*
X6663256D01*
X6646328Y8504756D01*
X6896083Y13440903D02*
X6794516D01*
Y13491685D01*
X6811444Y13508614D01*
X6845300D01*
X6862228Y13491685D01*
Y13440903D01*
Y13474757D02*
X6896083Y13508614D01*
Y13542468D02*
Y13576324D01*
Y13559396D01*
X6794516D01*
X6811444Y13542468D01*
X6794516Y13627107D02*
X6862228D01*
X6896083Y13660963D01*
X6862228Y13694820D01*
X6794516D01*
X6896083Y13728676D02*
X6794516D01*
Y13779459D01*
X6811444Y13796387D01*
X6845300D01*
X6862228Y13779459D01*
Y13728676D01*
Y13762531D02*
X6896083Y13796387D01*
Y13830243D02*
Y13864099D01*
Y13847171D01*
X6794516D01*
X6811444Y13830243D01*
X4783689Y8178817D02*
Y8280384D01*
X4834472D01*
X4851400Y8263456D01*
Y8229600D01*
X4834472Y8212672D01*
X4783689D01*
X4817544D02*
X4851400Y8178817D01*
X4885256D02*
X4919112D01*
X4902184D01*
Y8280384D01*
X4885256Y8263456D01*
X5553646Y12149770D02*
X5536718Y12166698D01*
Y12200554D01*
X5553646Y12217482D01*
X5621358D01*
X5638286Y12200554D01*
Y12166698D01*
X5621358Y12149770D01*
X5553646D01*
X5638286Y12251338D02*
X5621358D01*
Y12268266D01*
X5638286D01*
Y12251338D01*
Y12335977D02*
Y12369833D01*
Y12352905D01*
X5536718D01*
X5553646Y12335977D01*
X5536718Y12420617D02*
X5604430D01*
X5638286Y12454472D01*
X5604430Y12488328D01*
X5536718D01*
X5638286Y12623751D02*
X5536718D01*
Y12674534D01*
X5553646Y12691462D01*
X5587502D01*
X5604430Y12674534D01*
Y12623751D01*
X5536718Y12793030D02*
X5553646Y12759174D01*
X5587502Y12725318D01*
X5621358D01*
X5638286Y12742246D01*
Y12776102D01*
X5621358Y12793030D01*
X5604430D01*
X5587502Y12776102D01*
Y12725318D01*
X7873983Y12259794D02*
X7772416D01*
X7823200Y12209010D01*
Y12276721D01*
X7772416Y12310577D02*
X7840128D01*
X7873983Y12344433D01*
X7840128Y12378289D01*
X7772416D01*
X7873983Y12513712D02*
X7772416D01*
Y12564495D01*
X7789344Y12581423D01*
X7823200D01*
X7840128Y12564495D01*
Y12513712D01*
X7873983Y12666063D02*
X7772416D01*
X7823200Y12615279D01*
Y12682990D01*
X6718316Y12170926D02*
Y12238638D01*
Y12204782D01*
X6819883D01*
X6718316Y12272494D02*
X6819883D01*
Y12323277D01*
X6802956Y12340205D01*
X6786028D01*
X6769100Y12323277D01*
Y12272494D01*
Y12323277D01*
X6752172Y12340205D01*
X6735244D01*
X6718316Y12323277D01*
Y12272494D01*
Y12374061D02*
X6819883D01*
Y12424844D01*
X6802956Y12441772D01*
X6735244D01*
X6718316Y12424844D01*
Y12374061D01*
X6819883Y12577195D02*
X6718316D01*
Y12627979D01*
X6735244Y12644907D01*
X6769100D01*
X6786028Y12627979D01*
Y12577195D01*
X6735244Y12678763D02*
X6718316Y12695690D01*
Y12729546D01*
X6735244Y12746474D01*
X6752172D01*
X6769100Y12729546D01*
Y12712618D01*
Y12729546D01*
X6786028Y12746474D01*
X6802956D01*
X6819883Y12729546D01*
Y12695690D01*
X6802956Y12678763D01*
X5376344Y11950684D02*
X5342489D01*
X5325561Y11933756D01*
Y11866044D01*
X5342489Y11849117D01*
X5376344D01*
X5393272Y11866044D01*
Y11933756D01*
X5376344Y11950684D01*
X5427128Y11849117D02*
Y11950684D01*
X5477912D01*
X5494839Y11933756D01*
Y11899900D01*
X5477912Y11882972D01*
X5427128D01*
X5460984D02*
X5494839Y11849117D01*
X4368783Y8957777D02*
X4267216D01*
X4368783Y9025488D01*
X4267216D01*
Y9110128D02*
Y9076272D01*
X4284144Y9059344D01*
X4351856D01*
X4368783Y9076272D01*
Y9110128D01*
X4351856Y9127056D01*
X4284144D01*
X4267216Y9110128D01*
X4368783Y9160912D02*
X4267216D01*
Y9211695D01*
X4284144Y9228623D01*
X4318000D01*
X4334928Y9211695D01*
Y9160912D01*
Y9194767D02*
X4368783Y9228623D01*
X3551821Y10511356D02*
X3534893Y10528284D01*
X3501038D01*
X3484110Y10511356D01*
Y10443644D01*
X3501038Y10426717D01*
X3534893D01*
X3551821Y10443644D01*
X3636461Y10528284D02*
X3602605D01*
X3585677Y10511356D01*
Y10443644D01*
X3602605Y10426717D01*
X3636461D01*
X3653388Y10443644D01*
Y10511356D01*
X3636461Y10528284D01*
X3687244Y10426717D02*
Y10528284D01*
X3721100Y10494428D01*
X3754956Y10528284D01*
Y10426717D01*
X3788812D02*
Y10528284D01*
X3839595D01*
X3856523Y10511356D01*
Y10477500D01*
X3839595Y10460572D01*
X3788812D01*
X3890379Y10511356D02*
X3907307Y10528284D01*
X3941162D01*
X3958090Y10511356D01*
Y10494428D01*
X3941162Y10477500D01*
X3924234D01*
X3941162D01*
X3958090Y10460572D01*
Y10443644D01*
X3941162Y10426717D01*
X3907307D01*
X3890379Y10443644D01*
X7878244Y10905121D02*
X7861316Y10888193D01*
Y10854338D01*
X7878244Y10837410D01*
X7945956D01*
X7962883Y10854338D01*
Y10888193D01*
X7945956Y10905121D01*
X7861316Y10989761D02*
Y10955905D01*
X7878244Y10938977D01*
X7945956D01*
X7962883Y10955905D01*
Y10989761D01*
X7945956Y11006688D01*
X7878244D01*
X7861316Y10989761D01*
X7962883Y11040544D02*
X7861316D01*
X7895172Y11074400D01*
X7861316Y11108256D01*
X7962883D01*
Y11142112D02*
X7861316D01*
Y11192895D01*
X7878244Y11209823D01*
X7912100D01*
X7929028Y11192895D01*
Y11142112D01*
X7962883Y11311390D02*
Y11243679D01*
X7895172Y11311390D01*
X7878244D01*
X7861316Y11294462D01*
Y11260607D01*
X7878244Y11243679D01*
X3530649Y12035356D02*
X3513721Y12052284D01*
X3479866D01*
X3462938Y12035356D01*
Y11967644D01*
X3479866Y11950717D01*
X3513721D01*
X3530649Y11967644D01*
X3615288Y12052284D02*
X3581433D01*
X3564505Y12035356D01*
Y11967644D01*
X3581433Y11950717D01*
X3615288D01*
X3632216Y11967644D01*
Y12035356D01*
X3615288Y12052284D01*
X3666072Y11950717D02*
Y12052284D01*
X3699928Y12018428D01*
X3733783Y12052284D01*
Y11950717D01*
X3767639D02*
Y12052284D01*
X3818423D01*
X3835351Y12035356D01*
Y12001500D01*
X3818423Y11984572D01*
X3767639D01*
X3869207Y11950717D02*
X3903062D01*
X3886134D01*
Y12052284D01*
X3869207Y12035356D01*
X6231456Y8043328D02*
X6248384Y8060256D01*
Y8094111D01*
X6231456Y8111039D01*
X6163744D01*
X6146817Y8094111D01*
Y8060256D01*
X6163744Y8043328D01*
X6146817Y7941761D02*
Y8009472D01*
X6214528Y7941761D01*
X6231456D01*
X6248384Y7958688D01*
Y7992544D01*
X6231456Y8009472D01*
X3386899Y8136456D02*
X3369971Y8153384D01*
X3336116D01*
X3319188Y8136456D01*
Y8068744D01*
X3336116Y8051817D01*
X3369971D01*
X3386899Y8068744D01*
X3420755Y8051817D02*
X3454611D01*
X3437683D01*
Y8153384D01*
X3420755Y8136456D01*
X3103077Y10375917D02*
Y10443628D01*
X3136933Y10477484D01*
X3170788Y10443628D01*
Y10375917D01*
Y10426700D01*
X3103077D01*
X3204644Y10375917D02*
Y10477484D01*
X3272356Y10375917D01*
Y10477484D01*
X3306212D02*
Y10375917D01*
X3356995D01*
X3373923Y10392844D01*
Y10460556D01*
X3356995Y10477484D01*
X3306212D01*
D40*
X3657580Y13870915D02*
X3642345Y13886151D01*
X3611875D01*
X3596640Y13870915D01*
Y13809975D01*
X3611875Y13794740D01*
X3642345D01*
X3657580Y13809975D01*
Y13840445D01*
X3627110D01*
X3822680Y13870915D02*
X3807445Y13886151D01*
X3776975D01*
X3761740Y13870915D01*
Y13809975D01*
X3776975Y13794740D01*
X3807445D01*
X3822680Y13809975D01*
X3914091Y13870915D02*
X3898856Y13886151D01*
X3868386D01*
X3853151Y13870915D01*
Y13855679D01*
X3868386Y13840445D01*
X3898856D01*
X3914091Y13825211D01*
Y13809975D01*
X3898856Y13794740D01*
X3868386D01*
X3853151Y13809975D01*
X4003040Y13794740D02*
Y13855679D01*
X4033510Y13886151D01*
X4063980Y13855679D01*
Y13794740D01*
Y13840445D01*
X4003040D01*
X4094451Y13886151D02*
Y13794740D01*
X4140156D01*
X4155391Y13809975D01*
Y13870915D01*
X4140156Y13886151D01*
X4094451D01*
X4625340D02*
Y13794740D01*
X4671045D01*
X4686280Y13809975D01*
Y13825211D01*
X4671045Y13840445D01*
X4625340D01*
X4671045D01*
X4686280Y13855679D01*
Y13870915D01*
X4671045Y13886151D01*
X4625340D01*
X4716751Y13794740D02*
Y13886151D01*
X4762456D01*
X4777691Y13870915D01*
Y13840445D01*
X4762456Y13825211D01*
X4716751D01*
X4869101Y13870915D02*
X4853866Y13886151D01*
X4823396D01*
X4808161Y13870915D01*
Y13855679D01*
X4823396Y13840445D01*
X4853866D01*
X4869101Y13825211D01*
Y13809975D01*
X4853866Y13794740D01*
X4823396D01*
X4808161Y13809975D01*
X4384040Y13794740D02*
X4414510D01*
X4399275D01*
Y13886151D01*
X4384040Y13870915D01*
X4521156Y13794740D02*
X4460215D01*
X4521156Y13855679D01*
Y13870915D01*
X4505921Y13886151D01*
X4475451D01*
X4460215Y13870915D01*
D41*
X3213100Y7683451D02*
Y7531100D01*
X3289275D01*
X3314667Y7556492D01*
Y7581883D01*
X3289275Y7607275D01*
X3213100D01*
X3289275D01*
X3314667Y7632667D01*
Y7658059D01*
X3289275Y7683451D01*
X3213100D01*
X3467018Y7658059D02*
X3441626Y7683451D01*
X3390843D01*
X3365451Y7658059D01*
Y7632667D01*
X3390843Y7607275D01*
X3441626D01*
X3467018Y7581883D01*
Y7556492D01*
X3441626Y7531100D01*
X3390843D01*
X3365451Y7556492D01*
X3517801Y7531100D02*
Y7683451D01*
X3593977D01*
X3619369Y7658059D01*
Y7607275D01*
X3593977Y7581883D01*
X3517801D01*
X3670152Y7683451D02*
Y7531100D01*
X3746328D01*
X3771719Y7556492D01*
Y7658059D01*
X3746328Y7683451D01*
X3670152D01*
X3822503Y7632667D02*
X3873286Y7531100D01*
X3924070Y7632667D01*
X3974854Y7658059D02*
X4000245Y7683451D01*
X4051029D01*
X4076421Y7658059D01*
Y7632667D01*
X4051029Y7607275D01*
X4025637D01*
X4051029D01*
X4076421Y7581883D01*
Y7556492D01*
X4051029Y7531100D01*
X4000245D01*
X3974854Y7556492D01*
%TF.MD5,b97d6f3bd50e4315dc48ba79ce146c7e*%
M02*
