%TF.GenerationSoftware,Altium Limited,Altium Designer,25.1.2 (22)*%
G04 Layer_Color=32896*
%FSLAX45Y45*%
%MOMM*%
%TF.SameCoordinates,4BC43169-6B9A-449D-A763-764CEB413953*%
%TF.FilePolarity,Positive*%
%TF.FileFunction,Legend,Bot*%
%TF.Part,Single*%
G01*
G75*
%TA.AperFunction,NonConductor*%
%ADD39C,0.20320*%
%ADD40C,0.15240*%
G36*
X8031956Y10203656D02*
X8072437D01*
Y10190162D01*
X8099425D01*
Y10176669D01*
X8112919D01*
Y10136187D01*
X8099425D01*
Y10122694D01*
X7937500D01*
Y10136187D01*
X7816056D01*
Y10149681D01*
X7775575D01*
Y10109200D01*
X7816056D01*
Y10095706D01*
X7883525D01*
Y10082212D01*
X7910513D01*
Y10068719D01*
X7950994D01*
Y10055225D01*
X7977981D01*
Y10041731D01*
X8004969D01*
Y10028238D01*
X8018462D01*
Y10014744D01*
X8045450D01*
Y10001250D01*
X8058944D01*
Y9974263D01*
X8072437D01*
Y9960769D01*
X8085931D01*
Y9947275D01*
X8099425D01*
Y9933781D01*
X8112919D01*
Y9920288D01*
X8126413D01*
Y9906794D01*
X8153400D01*
Y9893300D01*
X8166894D01*
Y9879806D01*
X8180388D01*
Y9866312D01*
X8193881D01*
Y9852819D01*
X8207375D01*
Y9839325D01*
X8220869D01*
Y9825831D01*
X8234363D01*
Y9798844D01*
X8247856D01*
Y9785350D01*
X8261350D01*
Y9771856D01*
X8274844D01*
Y9758362D01*
X8288338D01*
Y9744869D01*
Y9731375D01*
X8301831D01*
Y9704387D01*
X8315325D01*
Y9677400D01*
X8328819D01*
Y9650413D01*
X8342312D01*
Y9623425D01*
X8355806D01*
Y9582944D01*
X8369300D01*
Y9528969D01*
X8382794D01*
Y9448006D01*
X8396287D01*
Y8665369D01*
X8382794D01*
Y8611394D01*
X8355806D01*
Y8719344D01*
X8369300D01*
Y9434512D01*
X8355806D01*
Y9528969D01*
X8342312D01*
Y9569450D01*
X8328819D01*
Y9609931D01*
X8315325D01*
Y9636919D01*
X8301831D01*
Y9663906D01*
X8288338D01*
Y9690894D01*
X8274844D01*
Y9717881D01*
X8261350D01*
Y9731375D01*
X8247856D01*
Y9758362D01*
X8234363D01*
Y9771856D01*
X8220869D01*
Y9785350D01*
X8207375D01*
Y9798844D01*
X8193881D01*
Y9825831D01*
X8180388D01*
Y9839325D01*
X8166894D01*
Y9852819D01*
X8153400D01*
Y9866312D01*
X8139906D01*
Y9879806D01*
X8126413D01*
Y9893300D01*
X8099425D01*
Y9906794D01*
X8072437D01*
Y9920288D01*
X8058944D01*
Y9906794D01*
X8031956D01*
Y9920288D01*
X8004969D01*
Y9906794D01*
X7977981D01*
Y9920288D01*
X7964487D01*
Y9906794D01*
X7451725D01*
Y9920288D01*
X7397750D01*
Y9933781D01*
X7384256D01*
Y9947275D01*
X7330281D01*
Y9933781D01*
X7289800D01*
Y9920288D01*
X7249319D01*
Y9906794D01*
X7208837D01*
Y9893300D01*
X7181850D01*
Y9879806D01*
X7154863D01*
Y9866312D01*
X7141369D01*
Y9852819D01*
X7114381D01*
Y9839325D01*
X7087394D01*
Y9825831D01*
X7073900D01*
Y9812337D01*
X7060406D01*
Y9798844D01*
X7046913D01*
Y9785350D01*
X7033419D01*
Y9771856D01*
X7019925D01*
Y9758362D01*
X7006431D01*
Y9744869D01*
X6992937D01*
Y9731375D01*
X6979444D01*
Y9704387D01*
X6965950D01*
Y9690894D01*
X6952456D01*
Y9650413D01*
X6938962D01*
Y9636919D01*
X6925469D01*
Y9609931D01*
X6911975D01*
Y9582944D01*
X6898481D01*
Y9555956D01*
X6884987D01*
Y9528969D01*
X6871494D01*
Y9488487D01*
X6858000D01*
Y9448006D01*
X6844506D01*
Y9394031D01*
X6831012D01*
Y8975725D01*
X6844506D01*
Y8908256D01*
X6858000D01*
Y8867775D01*
X6871494D01*
Y8813800D01*
X6884987D01*
Y8759825D01*
X6898481D01*
Y8611394D01*
X6858000D01*
Y8759825D01*
X6844506D01*
Y8827294D01*
X6831012D01*
Y8881269D01*
X6817519D01*
Y8962231D01*
X6804025D01*
Y9407525D01*
X6817519D01*
Y9461500D01*
X6831012D01*
Y9501981D01*
X6844506D01*
Y9542463D01*
X6858000D01*
Y9569450D01*
X6871494D01*
Y9596438D01*
X6884987D01*
Y9609931D01*
X6898481D01*
Y9650413D01*
X6911975D01*
Y9663906D01*
X6925469D01*
Y9690894D01*
X6938962D01*
Y9717881D01*
X6952456D01*
Y9731375D01*
X6965950D01*
Y9758362D01*
X6979444D01*
Y9771856D01*
X6992937D01*
Y9785350D01*
X7006431D01*
Y9798844D01*
X7019925D01*
Y9812337D01*
X7033419D01*
Y9825831D01*
X7046913D01*
Y9839325D01*
X7060406D01*
Y9852819D01*
X7087394D01*
Y9866312D01*
X7100888D01*
Y9879806D01*
X7127875D01*
Y9893300D01*
X7141369D01*
Y9906794D01*
X7168356D01*
Y9920288D01*
X7195344D01*
Y9933781D01*
X7235825D01*
Y9947275D01*
X7262812D01*
Y9960769D01*
X7316787D01*
Y9974263D01*
X7384256D01*
Y9987756D01*
X7424738D01*
Y10001250D01*
X7438231D01*
Y10014744D01*
X7451725D01*
Y10028238D01*
X7478713D01*
Y10041731D01*
X7505700D01*
Y10055225D01*
X7519194D01*
Y10068719D01*
X7546181D01*
Y10082212D01*
X7573169D01*
Y10095706D01*
X7627144D01*
Y10109200D01*
X7721600D01*
Y10122694D01*
X7735094D01*
Y10136187D01*
X7748587D01*
Y10149681D01*
X7735094D01*
Y10163175D01*
X7708106D01*
Y10149681D01*
X7640637D01*
Y10136187D01*
X7586662D01*
Y10122694D01*
X7532688D01*
Y10109200D01*
X7478713D01*
Y10122694D01*
X7451725D01*
Y10136187D01*
X7438231D01*
Y10176669D01*
X7451725D01*
Y10190162D01*
X7478713D01*
Y10203656D01*
X7492206D01*
Y10190162D01*
X7505700D01*
Y10203656D01*
X7667625D01*
Y10190162D01*
X7748587D01*
Y10176669D01*
X7775575D01*
Y10190162D01*
X7816056D01*
Y10203656D01*
X7856538D01*
Y10217150D01*
X8031956D01*
Y10203656D01*
D02*
G37*
G36*
X8139906Y9798844D02*
X8193881D01*
Y9731375D01*
X8180388D01*
Y9677400D01*
X8166894D01*
Y9636919D01*
X8153400D01*
Y9609931D01*
X8139906D01*
Y9582944D01*
X8126413D01*
Y9569450D01*
X8099425D01*
Y9555956D01*
X8072437D01*
Y9542463D01*
X8045450D01*
Y9528969D01*
X7937500D01*
Y9542463D01*
X7897019D01*
Y9555956D01*
X7883525D01*
Y9569450D01*
X7856538D01*
Y9582944D01*
X7843044D01*
Y9636919D01*
X7856538D01*
Y9690894D01*
X7870031D01*
Y9731375D01*
X7883525D01*
Y9744869D01*
X7897019D01*
Y9758362D01*
X7910513D01*
Y9771856D01*
X7937500D01*
Y9785350D01*
X7950994D01*
Y9798844D01*
X7991475D01*
Y9812337D01*
X8139906D01*
Y9798844D01*
D02*
G37*
G36*
X7276306D02*
X7330281D01*
Y9785350D01*
X7357269D01*
Y9771856D01*
X7384256D01*
Y9758362D01*
X7397750D01*
Y9744869D01*
X7411244D01*
Y9731375D01*
X7424738D01*
Y9717881D01*
X7438231D01*
Y9690894D01*
X7451725D01*
Y9650413D01*
X7465219D01*
Y9542463D01*
X7451725D01*
Y9528969D01*
X7424738D01*
Y9515475D01*
X7384256D01*
Y9501981D01*
X7276306D01*
Y9515475D01*
X7235825D01*
Y9528969D01*
X7195344D01*
Y9542463D01*
X7181850D01*
Y9555956D01*
X7168356D01*
Y9569450D01*
X7154863D01*
Y9596438D01*
X7141369D01*
Y9623425D01*
X7127875D01*
Y9650413D01*
X7114381D01*
Y9690894D01*
X7100888D01*
Y9758362D01*
X7087394D01*
Y9785350D01*
X7100888D01*
Y9798844D01*
X7141369D01*
Y9812337D01*
X7276306D01*
Y9798844D01*
D02*
G37*
G36*
X8045450Y9299575D02*
X8085931D01*
Y9286081D01*
X8099425D01*
Y9272588D01*
X8112919D01*
Y9259094D01*
X8126413D01*
Y9245600D01*
X8139906D01*
Y9218613D01*
X8153400D01*
Y9070181D01*
X8139906D01*
Y9043194D01*
X8126413D01*
Y9016206D01*
X8112919D01*
Y8975725D01*
X8099425D01*
Y8962231D01*
X8085931D01*
Y8948738D01*
X8072437D01*
Y8935244D01*
X8045450D01*
Y8921750D01*
X7991475D01*
Y8908256D01*
X7977981D01*
Y8921750D01*
X7964487D01*
Y8908256D01*
X7910513D01*
Y8894763D01*
X7897019D01*
Y8881269D01*
X7883525D01*
Y8867775D01*
X7870031D01*
Y8854281D01*
X7856538D01*
Y8840788D01*
X7843044D01*
Y8827294D01*
X7816056D01*
Y8813800D01*
X7775575D01*
Y8800306D01*
X7573169D01*
Y8813800D01*
X7559675D01*
Y8827294D01*
X7532688D01*
Y8840788D01*
X7505700D01*
Y8854281D01*
X7478713D01*
Y8867775D01*
X7465219D01*
Y8881269D01*
X7438231D01*
Y8894763D01*
X7357269D01*
Y8908256D01*
X7303294D01*
Y8921750D01*
X7276306D01*
Y8935244D01*
X7249319D01*
Y8948738D01*
X7235825D01*
Y8962231D01*
X7222331D01*
Y8975725D01*
X7208837D01*
Y8989219D01*
X7195344D01*
Y9002712D01*
X7181850D01*
Y9016206D01*
X7168356D01*
Y9029700D01*
X7154863D01*
Y9178131D01*
X7168356D01*
Y9191625D01*
X7181850D01*
Y9218613D01*
X7195344D01*
Y9232106D01*
X7208837D01*
Y9245600D01*
X7235825D01*
Y9259094D01*
X7303294D01*
Y9245600D01*
X7276306D01*
Y9232106D01*
X7249319D01*
Y9218613D01*
X7222331D01*
Y9205119D01*
X7208837D01*
Y9191625D01*
X7195344D01*
Y9164638D01*
X7181850D01*
Y9043194D01*
X7195344D01*
Y9029700D01*
X7208837D01*
Y9016206D01*
X7222331D01*
Y9002712D01*
X7235825D01*
Y8989219D01*
X7249319D01*
Y8975725D01*
X7262812D01*
Y8962231D01*
X7289800D01*
Y8948738D01*
X7316787D01*
Y8935244D01*
X7357269D01*
Y8921750D01*
X7613650D01*
Y8935244D01*
X7654131D01*
Y8948738D01*
X7667625D01*
Y8962231D01*
X7681119D01*
Y9016206D01*
X7667625D01*
Y9043194D01*
X7654131D01*
Y9056687D01*
X7640637D01*
Y9097169D01*
X7627144D01*
Y9124156D01*
X7613650D01*
Y9137650D01*
X7586662D01*
Y9151144D01*
X7559675D01*
Y9164638D01*
X7546181D01*
Y9178131D01*
X7532688D01*
Y9245600D01*
X7654131D01*
Y9259094D01*
X7856538D01*
Y9245600D01*
X7870031D01*
Y9232106D01*
X7883525D01*
Y9178131D01*
X7870031D01*
Y9164638D01*
X7802563D01*
Y9151144D01*
X7789069D01*
Y9137650D01*
X7775575D01*
Y9083675D01*
X7762081D01*
Y9070181D01*
X7748587D01*
Y9043194D01*
X7735094D01*
Y9029700D01*
X7721600D01*
Y9016206D01*
X7708106D01*
Y8989219D01*
X7721600D01*
Y8975725D01*
X7735094D01*
Y8962231D01*
X7762081D01*
Y8948738D01*
X7843044D01*
Y8935244D01*
X7991475D01*
Y8948738D01*
X8031956D01*
Y8962231D01*
X8058944D01*
Y8975725D01*
X8072437D01*
Y8989219D01*
X8085931D01*
Y9016206D01*
X8099425D01*
Y9056687D01*
X8112919D01*
Y9083675D01*
X8126413D01*
Y9218613D01*
X8112919D01*
Y9232106D01*
X8099425D01*
Y9259094D01*
X8072437D01*
Y9272588D01*
X8045450D01*
Y9286081D01*
X8018462D01*
Y9313069D01*
X8045450D01*
Y9299575D01*
D02*
G37*
%LPC*%
G36*
X7883525Y10068719D02*
X7816056D01*
Y10055225D01*
X7829550D01*
Y10041731D01*
X7843044D01*
Y10028238D01*
X7856538D01*
Y10014744D01*
X7870031D01*
Y10001250D01*
X7883525D01*
Y9987756D01*
X7910513D01*
Y9974263D01*
X7924006D01*
Y9947275D01*
X7937500D01*
Y9933781D01*
X8058944D01*
Y9960769D01*
X8045450D01*
Y9974263D01*
X8031956D01*
Y9987756D01*
X8018462D01*
Y10001250D01*
X8004969D01*
Y10014744D01*
X7977981D01*
Y10028238D01*
X7950994D01*
Y10041731D01*
X7924006D01*
Y10055225D01*
X7883525D01*
Y10068719D01*
D02*
G37*
G36*
X7950994Y9690894D02*
X7937500D01*
Y9663906D01*
X7950994D01*
Y9677400D01*
Y9690894D01*
D02*
G37*
G36*
X8139906Y9785350D02*
X8045450D01*
Y9771856D01*
X8058944D01*
Y9758362D01*
X8072437D01*
Y9744869D01*
X8085931D01*
Y9623425D01*
X8072437D01*
Y9609931D01*
X8058944D01*
Y9596438D01*
X8045450D01*
Y9582944D01*
X7937500D01*
Y9596438D01*
X7924006D01*
Y9609931D01*
X7910513D01*
Y9623425D01*
X7897019D01*
Y9650413D01*
X7883525D01*
Y9623425D01*
X7870031D01*
Y9596438D01*
X7883525D01*
Y9582944D01*
X7910513D01*
Y9569450D01*
X7937500D01*
Y9555956D01*
X8031956D01*
Y9569450D01*
X8072437D01*
Y9582944D01*
X8085931D01*
Y9596438D01*
X8112919D01*
Y9623425D01*
X8126413D01*
Y9650413D01*
X8139906D01*
Y9677400D01*
X8153400D01*
Y9731375D01*
X8166894D01*
Y9771856D01*
X8139906D01*
Y9785350D01*
D02*
G37*
G36*
X7168356D02*
X7141369D01*
Y9771856D01*
X7127875D01*
Y9717881D01*
X7141369D01*
Y9758362D01*
X7154863D01*
Y9771856D01*
X7168356D01*
Y9785350D01*
D02*
G37*
G36*
X7195344Y9717881D02*
X7181850D01*
Y9690894D01*
X7195344D01*
Y9704387D01*
Y9717881D01*
D02*
G37*
G36*
X7249319Y9663906D02*
X7222331D01*
Y9650413D01*
X7249319D01*
Y9663906D01*
D02*
G37*
G36*
X7370762Y9744869D02*
X7343775D01*
Y9731375D01*
X7357269D01*
Y9609931D01*
X7343775D01*
Y9582944D01*
X7330281D01*
Y9569450D01*
X7316787D01*
Y9555956D01*
X7303294D01*
Y9542463D01*
X7289800D01*
Y9528969D01*
X7384256D01*
Y9542463D01*
X7424738D01*
Y9555956D01*
X7438231D01*
Y9650413D01*
X7424738D01*
Y9677400D01*
X7411244D01*
Y9704387D01*
X7397750D01*
Y9717881D01*
X7384256D01*
Y9731375D01*
X7370762D01*
Y9744869D01*
D02*
G37*
G36*
X7856538Y9232106D02*
X7667625D01*
Y9218613D01*
X7559675D01*
Y9191625D01*
X7573169D01*
Y9178131D01*
X7600156D01*
Y9164638D01*
X7627144D01*
Y9151144D01*
X7654131D01*
Y9097169D01*
X7667625D01*
Y9070181D01*
X7681119D01*
Y9043194D01*
X7708106D01*
Y9056687D01*
X7721600D01*
Y9083675D01*
X7735094D01*
Y9097169D01*
X7748587D01*
Y9151144D01*
X7762081D01*
Y9178131D01*
X7789069D01*
Y9191625D01*
X7856538D01*
Y9232106D01*
D02*
G37*
G36*
X7721600Y8948738D02*
X7694612D01*
Y8935244D01*
X7681119D01*
Y8921750D01*
X7667625D01*
Y8908256D01*
X7613650D01*
Y8894763D01*
X7505700D01*
Y8881269D01*
X7519194D01*
Y8867775D01*
X7546181D01*
Y8854281D01*
X7573169D01*
Y8840788D01*
X7600156D01*
Y8827294D01*
X7654131D01*
Y8813800D01*
X7667625D01*
Y8827294D01*
X7762081D01*
Y8840788D01*
X7802563D01*
Y8854281D01*
X7829550D01*
Y8867775D01*
X7843044D01*
Y8881269D01*
X7856538D01*
Y8894763D01*
X7870031D01*
Y8908256D01*
X7856538D01*
Y8921750D01*
X7762081D01*
Y8935244D01*
X7721600D01*
Y8948738D01*
D02*
G37*
%LPD*%
D39*
X8158480Y8330033D02*
X8124624D01*
X8141552D01*
Y8397744D01*
X8158480D01*
X8056913Y8330033D02*
Y8414672D01*
Y8380816D01*
X8073841D01*
X8039985D01*
X8056913D01*
Y8414672D01*
X8039985Y8431600D01*
X7870706Y8414672D02*
Y8397744D01*
X7887634D01*
X7853778D01*
X7870706D01*
Y8346961D01*
X7853778Y8330033D01*
X7802995Y8431600D02*
Y8330033D01*
Y8380816D01*
X7786067Y8397744D01*
X7752211D01*
X7735283Y8380816D01*
Y8330033D01*
X7701427D02*
X7667572D01*
X7684499D01*
Y8397744D01*
X7701427D01*
X7616788Y8330033D02*
X7566004D01*
X7549077Y8346961D01*
X7566004Y8363889D01*
X7599860D01*
X7616788Y8380816D01*
X7599860Y8397744D01*
X7549077D01*
X7396726Y8414672D02*
Y8397744D01*
X7413653D01*
X7379798D01*
X7396726D01*
Y8346961D01*
X7379798Y8330033D01*
X7329014Y8431600D02*
Y8330033D01*
Y8380816D01*
X7312086Y8397744D01*
X7278231D01*
X7261303Y8380816D01*
Y8330033D01*
X7227447D02*
X7193591D01*
X7210519D01*
Y8397744D01*
X7227447D01*
X7142807Y8330033D02*
Y8397744D01*
X7092024D01*
X7075096Y8380816D01*
Y8330033D01*
X7007385Y8296177D02*
X6990457D01*
X6973529Y8313105D01*
Y8397744D01*
X7024312D01*
X7041240Y8380816D01*
Y8346961D01*
X7024312Y8330033D01*
X6973529D01*
X8090769Y8210168D02*
Y8108601D01*
X8141552D01*
X8158480Y8125529D01*
Y8159384D01*
X8141552Y8176312D01*
X8090769D01*
X8039985Y8108601D02*
X8006129D01*
X7989201Y8125529D01*
Y8159384D01*
X8006129Y8176312D01*
X8039985D01*
X8056913Y8159384D01*
Y8125529D01*
X8039985Y8108601D01*
X7904562D02*
X7938418D01*
X7955346Y8125529D01*
Y8159384D01*
X7938418Y8176312D01*
X7904562D01*
X7887634Y8159384D01*
Y8142456D01*
X7955346D01*
X7853778Y8108601D02*
X7802995D01*
X7786067Y8125529D01*
X7802995Y8142456D01*
X7836850D01*
X7853778Y8159384D01*
X7836850Y8176312D01*
X7786067D01*
X7752211Y8108601D02*
Y8176312D01*
X7701428D01*
X7684500Y8159384D01*
Y8108601D01*
X7633716Y8227096D02*
Y8193240D01*
X7650644Y8176312D01*
X7566005Y8193240D02*
Y8176312D01*
X7582933D01*
X7549077D01*
X7566005D01*
Y8125529D01*
X7549077Y8108601D01*
X7396726Y8176312D02*
Y8125529D01*
X7379798Y8108601D01*
X7362870Y8125529D01*
X7345942Y8108601D01*
X7329015Y8125529D01*
Y8176312D01*
X7278231Y8108601D02*
X7244375D01*
X7227447Y8125529D01*
Y8159384D01*
X7244375Y8176312D01*
X7278231D01*
X7295159Y8159384D01*
Y8125529D01*
X7278231Y8108601D01*
X7193591Y8176312D02*
Y8108601D01*
Y8142456D01*
X7176664Y8159384D01*
X7159736Y8176312D01*
X7142808D01*
X7092024Y8108601D02*
Y8210168D01*
Y8142456D02*
X7041241Y8176312D01*
X7092024Y8142456D02*
X7041241Y8108601D01*
X8158480Y7921024D02*
X8124624D01*
X8141552D01*
Y7988736D01*
X8158480D01*
X8056913Y8039519D02*
Y8005664D01*
X8073841Y7988736D01*
X8006129Y7921024D02*
Y7988736D01*
X7989201D01*
X7972274Y7971808D01*
Y7921024D01*
Y7971808D01*
X7955346Y7988736D01*
X7938418Y7971808D01*
Y7921024D01*
X7769139Y7887169D02*
X7752211D01*
X7735283Y7904096D01*
Y7988736D01*
X7786067D01*
X7802995Y7971808D01*
Y7937952D01*
X7786067Y7921024D01*
X7735283D01*
X7684500D02*
X7650644D01*
X7633716Y7937952D01*
Y7971808D01*
X7650644Y7988736D01*
X7684500D01*
X7701428Y7971808D01*
Y7937952D01*
X7684500Y7921024D01*
X7599860D02*
X7566005D01*
X7582933D01*
Y7988736D01*
X7599860D01*
X7515221Y7921024D02*
Y8022592D01*
X7447510Y7921024D01*
Y8022592D01*
X7345942Y8005664D02*
X7362870Y8022592D01*
X7396726D01*
X7413654Y8005664D01*
Y7937952D01*
X7396726Y7921024D01*
X7362870D01*
X7345942Y7937952D01*
Y7971808D01*
X7379798D01*
X7210519Y8022592D02*
X7142808D01*
X7176664D01*
Y7921024D01*
X7058169Y8022592D02*
X7092024D01*
X7108952Y8005664D01*
Y7937952D01*
X7092024Y7921024D01*
X7058169D01*
X7041241Y7937952D01*
Y8005664D01*
X7058169Y8022592D01*
X8090769Y7818087D02*
X8158480D01*
Y7716520D01*
X8090769D01*
X8158480Y7767303D02*
X8124624D01*
X8056913Y7818087D02*
X7989201Y7716520D01*
Y7818087D02*
X8056913Y7716520D01*
X7955346D02*
Y7818087D01*
X7904562D01*
X7887634Y7801159D01*
Y7767303D01*
X7904562Y7750376D01*
X7955346D01*
X7853778Y7818087D02*
Y7716520D01*
X7786067D01*
X7701428Y7818087D02*
X7735283D01*
X7752211Y7801159D01*
Y7733448D01*
X7735283Y7716520D01*
X7701428D01*
X7684500Y7733448D01*
Y7801159D01*
X7701428Y7818087D01*
X7650644D02*
Y7716520D01*
X7599860D01*
X7582933Y7733448D01*
Y7801159D01*
X7599860Y7818087D01*
X7650644D01*
X7481365D02*
X7549077D01*
Y7716520D01*
X7481365D01*
X7549077Y7767303D02*
X7515221D01*
X5559241Y12628880D02*
X5542313Y12611952D01*
Y12578097D01*
X5559241Y12561169D01*
X5626952D01*
X5643880Y12578097D01*
Y12611952D01*
X5626952Y12628880D01*
X5559241D01*
X5643880Y12527313D02*
X5626952D01*
Y12510385D01*
X5643880D01*
Y12527313D01*
Y12442673D02*
Y12408818D01*
Y12425746D01*
X5542313D01*
X5559241Y12442673D01*
X5542313Y12358034D02*
X5610024D01*
X5643880Y12324178D01*
X5610024Y12290323D01*
X5542313D01*
X4737952Y12819380D02*
X4754880Y12802452D01*
Y12768597D01*
X4737952Y12751669D01*
X4670241D01*
X4653313Y12768597D01*
Y12802452D01*
X4670241Y12819380D01*
X4687169D01*
X4704097Y12802452D01*
Y12751669D01*
X4653313Y12717813D02*
X4721024D01*
X4754880Y12683957D01*
X4721024Y12650101D01*
X4653313D01*
X6710713Y12561169D02*
Y12628880D01*
X6761497D01*
X6744569Y12595024D01*
Y12578097D01*
X6761497Y12561169D01*
X6795352D01*
X6812280Y12578097D01*
Y12611952D01*
X6795352Y12628880D01*
X6812280Y12527313D02*
X6795352D01*
Y12510385D01*
X6812280D01*
Y12527313D01*
Y12442673D02*
Y12408818D01*
Y12425746D01*
X6710713D01*
X6727641Y12442673D01*
X6710713Y12358034D02*
X6778424D01*
X6812280Y12324178D01*
X6778424Y12290323D01*
X6710713D01*
X7879080Y12489197D02*
X7777513D01*
X7828297Y12539980D01*
Y12472269D01*
X7777513Y12438413D02*
X7845224D01*
X7879080Y12404557D01*
X7845224Y12370701D01*
X7777513D01*
D40*
X3594120Y13870915D02*
X3609355Y13886151D01*
X3639825D01*
X3655060Y13870915D01*
Y13809975D01*
X3639825Y13794740D01*
X3609355D01*
X3594120Y13809975D01*
Y13840445D01*
X3624590D01*
X3848120Y13870915D02*
X3863355Y13886151D01*
X3893825D01*
X3909060Y13870915D01*
Y13809975D01*
X3893825Y13794740D01*
X3863355D01*
X3848120Y13809975D01*
X3756709Y13870915D02*
X3771944Y13886151D01*
X3802414D01*
X3817649Y13870915D01*
Y13855679D01*
X3802414Y13840445D01*
X3771944D01*
X3756709Y13825211D01*
Y13809975D01*
X3771944Y13794740D01*
X3802414D01*
X3817649Y13809975D01*
X4163060Y13794740D02*
Y13855679D01*
X4132590Y13886151D01*
X4102120Y13855679D01*
Y13794740D01*
Y13840445D01*
X4163060D01*
X4071649Y13886151D02*
Y13794740D01*
X4025944D01*
X4010709Y13809975D01*
Y13870915D01*
X4025944Y13886151D01*
X4071649D01*
X4874260D02*
Y13794740D01*
X4828555D01*
X4813320Y13809975D01*
Y13825211D01*
X4828555Y13840445D01*
X4874260D01*
X4828555D01*
X4813320Y13855679D01*
Y13870915D01*
X4828555Y13886151D01*
X4874260D01*
X4782849Y13794740D02*
Y13886151D01*
X4737144D01*
X4721909Y13870915D01*
Y13840445D01*
X4737144Y13825211D01*
X4782849D01*
X4630499Y13870915D02*
X4645734Y13886151D01*
X4676204D01*
X4691439Y13870915D01*
Y13855679D01*
X4676204Y13840445D01*
X4645734D01*
X4630499Y13825211D01*
Y13809975D01*
X4645734Y13794740D01*
X4676204D01*
X4691439Y13809975D01*
X4518660Y13794740D02*
X4488190D01*
X4503425D01*
Y13886151D01*
X4518660Y13870915D01*
X4381544Y13794740D02*
X4442485D01*
X4381544Y13855679D01*
Y13870915D01*
X4396779Y13886151D01*
X4427249D01*
X4442485Y13870915D01*
%TF.MD5,d73a8eaf5c9328155c7a248c2a1688b2*%
M02*
