%TF.GenerationSoftware,Altium Limited,Altium Designer,25.1.2 (22)*%
G04 Layer_Color=0*
%FSLAX45Y45*%
%MOMM*%
%TF.SameCoordinates,865E584C-48B1-4366-BF19-9A83E66404FA*%
%TF.FilePolarity,Positive*%
%TF.FileFunction,Plated,1,6,PTH,Drill*%
%TF.Part,Single*%
G01*
G75*
%TA.AperFunction,ComponentDrill*%
%ADD69C,0.70000*%
%ADD70C,0.90000*%
%ADD71C,0.75000*%
%ADD72C,0.90000*%
%ADD73C,0.75000*%
%TA.AperFunction,OtherDrill,Pad Free-4 (29.972mm,78.74mm)*%
%ADD74C,3.00000*%
%TA.AperFunction,OtherDrill,Pad Free-4 (83.82mm,78.74mm)*%
%ADD75C,3.00000*%
%TA.AperFunction,ComponentDrill*%
%ADD76C,0.70000*%
%ADD77C,1.20000*%
%ADD78C,0.85000*%
%TA.AperFunction,OtherDrill,Pad Free-4 (83.82mm,140.208mm)*%
%ADD79C,3.00000*%
%TA.AperFunction,OtherDrill,Pad Free-4 (29.972mm,140.208mm)*%
%ADD80C,3.00000*%
%TA.AperFunction,ViaDrill,NotFilled*%
%ADD81C,0.71120*%
D69*
X7937500Y12192000D02*
D03*
Y11938000D02*
D03*
Y11684000D02*
D03*
X4914900Y12179300D02*
D03*
Y11925300D02*
D03*
Y11671300D02*
D03*
X4843400Y13847200D02*
D03*
X4643400D02*
D03*
X4443400D02*
D03*
X4243400D02*
D03*
X4043400D02*
D03*
X3843400D02*
D03*
X5689600Y11684000D02*
D03*
Y11938000D02*
D03*
Y12192000D02*
D03*
X7201400Y11684000D02*
D03*
Y11938000D02*
D03*
Y12192000D02*
D03*
X7747000Y13106400D02*
D03*
Y13360400D02*
D03*
Y13614400D02*
D03*
X6451600Y11684000D02*
D03*
Y11938000D02*
D03*
Y12192000D02*
D03*
X3433000Y7797800D02*
D03*
X3932999D02*
D03*
D70*
X3835400Y9969500D02*
D03*
Y9715500D02*
D03*
Y9461500D02*
D03*
Y9207500D02*
D03*
Y8953500D02*
D03*
Y8699500D02*
D03*
X4597400Y9715500D02*
D03*
Y9461500D02*
D03*
Y9207500D02*
D03*
Y8953500D02*
D03*
Y8699500D02*
D03*
Y8445500D02*
D03*
X3835400D02*
D03*
X4597400Y9969500D02*
D03*
X2705100D02*
D03*
Y9715500D02*
D03*
Y9461500D02*
D03*
Y9207500D02*
D03*
Y8953500D02*
D03*
Y8699500D02*
D03*
Y8445500D02*
D03*
X3467100Y9969500D02*
D03*
Y9715500D02*
D03*
Y9461500D02*
D03*
Y9207500D02*
D03*
Y8953500D02*
D03*
Y8699500D02*
D03*
Y8445500D02*
D03*
X5283200Y10833100D02*
D03*
Y10579100D02*
D03*
Y10325100D02*
D03*
Y10071100D02*
D03*
X6045200Y10833100D02*
D03*
Y10579100D02*
D03*
Y10325100D02*
D03*
Y10071100D02*
D03*
X7874000Y10058400D02*
D03*
Y10312400D02*
D03*
Y10566400D02*
D03*
Y10820400D02*
D03*
X7112000Y10058400D02*
D03*
Y10312400D02*
D03*
Y10566400D02*
D03*
Y10820400D02*
D03*
X3340100Y11468100D02*
D03*
Y11214100D02*
D03*
Y10960100D02*
D03*
Y10706100D02*
D03*
X4102100Y11468100D02*
D03*
Y11214100D02*
D03*
Y10960100D02*
D03*
Y10706100D02*
D03*
D71*
X3009900Y11587100D02*
D03*
Y10587100D02*
D03*
X4432300Y11599800D02*
D03*
Y10599800D02*
D03*
X6781800Y10952100D02*
D03*
Y9952100D02*
D03*
X8191500Y10952100D02*
D03*
Y9952100D02*
D03*
X4978400Y10939400D02*
D03*
Y9939400D02*
D03*
X6362700Y10952100D02*
D03*
Y9952100D02*
D03*
X4432299Y12365102D02*
D03*
Y13365100D02*
D03*
X6705600Y14139799D02*
D03*
Y13139803D02*
D03*
D72*
X5092700Y8674100D02*
D03*
X5346700D02*
D03*
X5600700D02*
D03*
X5854700D02*
D03*
X6108700D02*
D03*
X6362700D02*
D03*
X6616700D02*
D03*
X5092700Y9436100D02*
D03*
X5346700D02*
D03*
X5600700D02*
D03*
X5854700D02*
D03*
X6108700D02*
D03*
X6362700D02*
D03*
X6616700D02*
D03*
D73*
X3094101Y12115801D02*
D03*
X4094099D02*
D03*
X6710299Y12839700D02*
D03*
X5710301D02*
D03*
D74*
X2997200Y7874000D02*
D03*
D75*
X8382000D02*
D03*
D76*
X5461000Y13679903D02*
D03*
Y13929898D02*
D03*
X3390900Y12513503D02*
D03*
Y12763500D02*
D03*
X7137400Y13173901D02*
D03*
Y13673900D02*
D03*
X4953001Y13369102D02*
D03*
Y12869098D02*
D03*
X5473700Y8263702D02*
D03*
Y7763698D02*
D03*
D77*
X6248400Y13360400D02*
D03*
Y13614400D02*
D03*
Y13868401D02*
D03*
X4000499Y12661900D02*
D03*
Y12915900D02*
D03*
Y13169901D02*
D03*
D78*
X6761902Y7759700D02*
D03*
X5861898D02*
D03*
X5085502Y7797800D02*
D03*
X4185498D02*
D03*
D79*
X8382000Y14020799D02*
D03*
D80*
X2997200D02*
D03*
D81*
X8585200Y12230100D02*
D03*
Y12636500D02*
D03*
Y13512801D02*
D03*
Y13081000D02*
D03*
%TF.MD5,3a77d68e56b9abac2d2b118c952bd48b*%
M02*
