%TF.GenerationSoftware,Altium Limited,Altium Designer,25.1.2 (22)*%
G04 Layer_Physical_Order=1*
G04 Layer_Color=255*
%FSLAX45Y45*%
%MOMM*%
%TF.SameCoordinates,4BC43169-6B9A-449D-A763-764CEB413953*%
%TF.FilePolarity,Positive*%
%TF.FileFunction,Copper,L1,Top,Signal*%
%TF.Part,Single*%
G01*
G75*
%TA.AperFunction,Conductor*%
%ADD10C,0.25400*%
%TA.AperFunction,ComponentPad*%
%ADD11C,1.25000*%
%ADD12R,1.25000X1.25000*%
%ADD13C,1.20000*%
%ADD14R,1.20000X1.20000*%
%ADD15C,1.50000*%
%ADD16R,1.50000X1.50000*%
%ADD17R,1.25000X1.25000*%
%ADD18P,1.76777X4X360.0*%
%ADD19R,1.50000X1.50000*%
%TA.AperFunction,ViaPad*%
%ADD20C,1.52400*%
%TA.AperFunction,ComponentPad*%
%ADD21R,1.20000X1.20000*%
%ADD22R,1.80000X1.80000*%
%ADD23C,1.80000*%
%ADD24R,1.35000X1.35000*%
%ADD25C,1.35000*%
%ADD26R,1.35000X1.35000*%
G36*
X8686800Y7645400D02*
X2578100D01*
Y13449300D01*
Y14325600D01*
X8686800D01*
Y7645400D01*
D02*
G37*
%LPC*%
G36*
X4464000Y14309009D02*
Y14236700D01*
X4536309D01*
X4530880Y14256963D01*
X4519637Y14276437D01*
X4503737Y14292337D01*
X4484263Y14303580D01*
X4464000Y14309009D01*
D02*
G37*
G36*
X4438600Y14309010D02*
X4418337Y14303580D01*
X4398863Y14292337D01*
X4382963Y14276437D01*
X4371720Y14256963D01*
X4366290Y14236700D01*
X4438600D01*
Y14309010D01*
D02*
G37*
G36*
X4536309Y14211301D02*
X4464000D01*
Y14138991D01*
X4484263Y14144420D01*
X4503737Y14155663D01*
X4519637Y14171564D01*
X4530880Y14191037D01*
X4536309Y14211301D01*
D02*
G37*
G36*
X4438600D02*
X4366290D01*
X4371720Y14191037D01*
X4382963Y14171564D01*
X4398863Y14155663D01*
X4418337Y14144420D01*
X4438600Y14138989D01*
Y14211301D01*
D02*
G37*
G36*
X4262543Y14309399D02*
X4240057D01*
X4218337Y14303580D01*
X4198863Y14292337D01*
X4182963Y14276437D01*
X4171720Y14256963D01*
X4165900Y14235243D01*
Y14212756D01*
X4171720Y14191037D01*
X4182963Y14171564D01*
X4198863Y14155663D01*
X4218337Y14144420D01*
X4240057Y14138600D01*
X4262543D01*
X4284263Y14144420D01*
X4303737Y14155663D01*
X4319637Y14171564D01*
X4330880Y14191037D01*
X4336700Y14212756D01*
Y14235243D01*
X4330880Y14256963D01*
X4319637Y14276437D01*
X4303737Y14292337D01*
X4284263Y14303580D01*
X4262543Y14309399D01*
D02*
G37*
G36*
X3736700D02*
X3565900D01*
Y14138600D01*
X3736700D01*
Y14309399D01*
D02*
G37*
G36*
X5546400Y14167699D02*
X5473700D01*
Y14094998D01*
X5546400D01*
Y14167699D01*
D02*
G37*
G36*
X5448300D02*
X5375600D01*
Y14094998D01*
X5448300D01*
Y14167699D01*
D02*
G37*
G36*
X7525642Y14233200D02*
X7503156D01*
X7481436Y14227380D01*
X7461962Y14216138D01*
X7446062Y14200237D01*
X7434819Y14180763D01*
X7428999Y14159042D01*
Y14136557D01*
X7434819Y14114838D01*
X7446062Y14095363D01*
X7461962Y14079463D01*
X7481436Y14068221D01*
X7503156Y14062399D01*
X7525642D01*
X7547362Y14068221D01*
X7566836Y14079463D01*
X7582736Y14095363D01*
X7593979Y14114838D01*
X7599799Y14136557D01*
Y14159042D01*
X7593979Y14180763D01*
X7582736Y14200237D01*
X7566836Y14216138D01*
X7547362Y14227380D01*
X7525642Y14233200D01*
D02*
G37*
G36*
X7099800D02*
X6929000D01*
Y14062399D01*
X7099800D01*
Y14233200D01*
D02*
G37*
G36*
X6628272Y14227699D02*
X6605128D01*
X6582772Y14221710D01*
X6562728Y14210136D01*
X6546363Y14193771D01*
X6534790Y14173727D01*
X6528800Y14151372D01*
Y14128229D01*
X6534790Y14105872D01*
X6546363Y14085828D01*
X6562728Y14069463D01*
X6582772Y14057890D01*
X6605128Y14051900D01*
X6628272D01*
X6650628Y14057890D01*
X6670672Y14069463D01*
X6687037Y14085828D01*
X6698610Y14105872D01*
X6704600Y14128229D01*
Y14151372D01*
X6698610Y14173727D01*
X6687037Y14193771D01*
X6670672Y14210136D01*
X6650628Y14221710D01*
X6628272Y14227699D01*
D02*
G37*
G36*
X5546400Y14069598D02*
X5473700D01*
Y13996899D01*
X5546400D01*
Y14069598D01*
D02*
G37*
G36*
X5448300D02*
X5375600D01*
Y13996899D01*
X5448300D01*
Y14069598D01*
D02*
G37*
G36*
X6174693Y14072701D02*
X6172200D01*
Y13970000D01*
X6274900D01*
Y13972493D01*
X6267035Y14001843D01*
X6251843Y14028157D01*
X6230357Y14049643D01*
X6204043Y14064836D01*
X6174693Y14072701D01*
D02*
G37*
G36*
X6146800D02*
X6144307D01*
X6114957Y14064836D01*
X6088643Y14049643D01*
X6067157Y14028157D01*
X6051965Y14001843D01*
X6044100Y13972493D01*
Y13970000D01*
X6146800D01*
Y14072701D01*
D02*
G37*
G36*
X8399275Y14196201D02*
X8364725D01*
X8330838Y14189459D01*
X8298917Y14176237D01*
X8270189Y14157042D01*
X8245758Y14132611D01*
X8226563Y14103883D01*
X8213341Y14071962D01*
X8206600Y14038075D01*
Y14003525D01*
X8213341Y13969638D01*
X8226563Y13937717D01*
X8245758Y13908989D01*
X8270189Y13884558D01*
X8298917Y13865363D01*
X8330838Y13852141D01*
X8364725Y13845399D01*
X8399275D01*
X8433162Y13852141D01*
X8465083Y13865363D01*
X8493811Y13884558D01*
X8518242Y13908989D01*
X8537437Y13937717D01*
X8550659Y13969638D01*
X8557400Y14003525D01*
Y14038075D01*
X8550659Y14071962D01*
X8537437Y14103883D01*
X8518242Y14132611D01*
X8493811Y14157042D01*
X8465083Y14176237D01*
X8433162Y14189459D01*
X8399275Y14196201D01*
D02*
G37*
G36*
X3014475D02*
X2979925D01*
X2946038Y14189459D01*
X2914117Y14176237D01*
X2885389Y14157042D01*
X2860958Y14132611D01*
X2841763Y14103883D01*
X2828541Y14071962D01*
X2821800Y14038075D01*
Y14003525D01*
X2828541Y13969638D01*
X2841763Y13937717D01*
X2860958Y13908989D01*
X2885389Y13884558D01*
X2914117Y13865363D01*
X2946038Y13852141D01*
X2979925Y13845399D01*
X3014475D01*
X3048362Y13852141D01*
X3080283Y13865363D01*
X3109011Y13884558D01*
X3133442Y13908989D01*
X3152637Y13937717D01*
X3165859Y13969638D01*
X3172600Y14003525D01*
Y14038075D01*
X3165859Y14071962D01*
X3152637Y14103883D01*
X3133442Y14132611D01*
X3109011Y14157042D01*
X3080283Y14176237D01*
X3048362Y14189459D01*
X3014475Y14196201D01*
D02*
G37*
G36*
X6274900Y13944600D02*
X6172200D01*
Y13841901D01*
X6174693D01*
X6204043Y13849765D01*
X6230357Y13864958D01*
X6251843Y13886443D01*
X6267035Y13912758D01*
X6274900Y13942107D01*
Y13944600D01*
D02*
G37*
G36*
X6146800D02*
X6044100D01*
Y13942107D01*
X6051965Y13912758D01*
X6067157Y13886443D01*
X6088643Y13864958D01*
X6114957Y13849765D01*
X6144307Y13841901D01*
X6146800D01*
Y13944600D01*
D02*
G37*
G36*
X5472243Y13917702D02*
X5449757D01*
X5428037Y13911880D01*
X5408563Y13900638D01*
X5392663Y13884738D01*
X5381420Y13865265D01*
X5375600Y13843546D01*
Y13821059D01*
X5381420Y13799338D01*
X5392663Y13779865D01*
X5408563Y13763965D01*
X5428037Y13752722D01*
X5449757Y13746902D01*
X5472243D01*
X5493963Y13752722D01*
X5513437Y13763965D01*
X5529337Y13779865D01*
X5540580Y13799338D01*
X5546400Y13821059D01*
Y13843546D01*
X5540580Y13865265D01*
X5529337Y13884738D01*
X5513437Y13900638D01*
X5493963Y13911880D01*
X5472243Y13917702D01*
D02*
G37*
G36*
X6174693Y13818700D02*
X6144307D01*
X6114957Y13810835D01*
X6088643Y13795644D01*
X6067157Y13774158D01*
X6051965Y13747842D01*
X6044100Y13718494D01*
Y13688107D01*
X6051965Y13658759D01*
X6067157Y13632443D01*
X6088643Y13610957D01*
X6114957Y13595766D01*
X6144307Y13587900D01*
X6174693D01*
X6204043Y13595766D01*
X6230357Y13610957D01*
X6251843Y13632443D01*
X6267035Y13658759D01*
X6274900Y13688107D01*
Y13718494D01*
X6267035Y13747842D01*
X6251843Y13774158D01*
X6230357Y13795644D01*
X6204043Y13810835D01*
X6174693Y13818700D01*
D02*
G37*
G36*
X3862543Y14309399D02*
X3840057D01*
X3818337Y14303580D01*
X3798863Y14292337D01*
X3782963Y14276437D01*
X3771720Y14256963D01*
X3765900Y14235243D01*
Y14212756D01*
X3771720Y14191037D01*
X3782963Y14171564D01*
X3798863Y14155663D01*
X3812454Y14147816D01*
Y13702299D01*
X3764900D01*
Y13526500D01*
X3940700D01*
Y13702299D01*
X3890147D01*
Y14147816D01*
X3903737Y14155663D01*
X3919637Y14171564D01*
X3930880Y14191037D01*
X3936700Y14212756D01*
Y14235243D01*
X3930880Y14256963D01*
X3919637Y14276437D01*
X3903737Y14292337D01*
X3884263Y14303580D01*
X3862543Y14309399D01*
D02*
G37*
G36*
X2864372Y13702299D02*
X2841228D01*
X2818872Y13696310D01*
X2798828Y13684737D01*
X2782463Y13668372D01*
X2770890Y13648328D01*
X2764900Y13625972D01*
Y13602827D01*
X2770890Y13580472D01*
X2782463Y13560428D01*
X2798828Y13544063D01*
X2818872Y13532491D01*
X2841228Y13526500D01*
X2864372D01*
X2886728Y13532491D01*
X2906772Y13544063D01*
X2923137Y13560428D01*
X2934710Y13580472D01*
X2940700Y13602827D01*
Y13625972D01*
X2934710Y13648328D01*
X2923137Y13668372D01*
X2906772Y13684737D01*
X2886728Y13696310D01*
X2864372Y13702299D01*
D02*
G37*
G36*
X6274900Y13564700D02*
X6044100D01*
Y13333900D01*
X6274900D01*
Y13564700D01*
D02*
G37*
G36*
X8157099Y13499100D02*
X7981299D01*
Y13323300D01*
X8157099D01*
Y13499100D01*
D02*
G37*
G36*
X7080773D02*
X7057629D01*
X7035273Y13493111D01*
X7015229Y13481537D01*
X6998864Y13465172D01*
X6987291Y13445128D01*
X6981301Y13422772D01*
Y13399628D01*
X6987291Y13377272D01*
X6998864Y13357228D01*
X7015229Y13340863D01*
X7035273Y13329289D01*
X7057629Y13323300D01*
X7080773D01*
X7103129Y13329289D01*
X7123173Y13340863D01*
X7139538Y13357228D01*
X7151111Y13377272D01*
X7157101Y13399628D01*
Y13422772D01*
X7151111Y13445128D01*
X7139538Y13465172D01*
X7123173Y13481537D01*
X7103129Y13493111D01*
X7080773Y13499100D01*
D02*
G37*
G36*
X4419600Y13224098D02*
Y13149200D01*
X4494498D01*
X4488810Y13170428D01*
X4477237Y13190472D01*
X4460872Y13206837D01*
X4440828Y13218410D01*
X4419600Y13224098D01*
D02*
G37*
G36*
X4394200D02*
X4372972Y13218410D01*
X4352928Y13206837D01*
X4336563Y13190472D01*
X4324990Y13170428D01*
X4319302Y13149200D01*
X4394200D01*
Y13224098D01*
D02*
G37*
G36*
X6704600Y13227702D02*
X6528800D01*
Y13051901D01*
X6704600D01*
Y13227702D01*
D02*
G37*
G36*
X4494498Y13123801D02*
X4419600D01*
Y13048901D01*
X4440828Y13054590D01*
X4460872Y13066164D01*
X4477237Y13082529D01*
X4488810Y13102573D01*
X4494498Y13123801D01*
D02*
G37*
G36*
X4394200D02*
X4319302D01*
X4324990Y13102573D01*
X4336563Y13082529D01*
X4352928Y13066164D01*
X4372972Y13054590D01*
X4394200Y13048901D01*
Y13123801D01*
D02*
G37*
G36*
X3072098Y13111099D02*
X2997200D01*
Y13036201D01*
X3018428Y13041890D01*
X3038472Y13053464D01*
X3054837Y13069827D01*
X3066410Y13089873D01*
X3072098Y13111099D01*
D02*
G37*
G36*
X4062543Y14309399D02*
X4040057D01*
X4018337Y14303580D01*
X3998863Y14292337D01*
X3982963Y14276437D01*
X3971720Y14256963D01*
X3965900Y14235243D01*
Y14212756D01*
X3971720Y14191037D01*
X3982963Y14171564D01*
X3998863Y14155663D01*
X4012453Y14147816D01*
Y13579691D01*
X3832009Y13399248D01*
X3073400D01*
X3058534Y13396289D01*
X3045931Y13387869D01*
X2626831Y12968768D01*
X2618411Y12956166D01*
X2615453Y12941299D01*
Y10553700D01*
X2618411Y10538834D01*
X2626831Y10526231D01*
X3199653Y9953409D01*
Y9461500D01*
X3202611Y9446634D01*
X3211031Y9434031D01*
X3525914Y9119149D01*
X3519100Y9093718D01*
Y9067282D01*
X3525942Y9041747D01*
X3539160Y9018853D01*
X3557853Y9000160D01*
X3580747Y8986942D01*
X3606282Y8980100D01*
X3632718D01*
X3658253Y8986942D01*
X3681147Y9000160D01*
X3699840Y9018853D01*
X3713058Y9041747D01*
X3719900Y9067282D01*
Y9093718D01*
X3713058Y9119253D01*
X3699840Y9142147D01*
X3681147Y9160840D01*
X3658253Y9174058D01*
X3632718Y9180900D01*
X3606282D01*
X3580851Y9174086D01*
X3277347Y9477591D01*
Y9969500D01*
X3274389Y9984366D01*
X3265969Y9996969D01*
X2693147Y10569791D01*
Y12925209D01*
X2884978Y13117041D01*
X2889937Y13114989D01*
X2896922Y13111024D01*
X2902590Y13089873D01*
X2914163Y13069827D01*
X2930528Y13053464D01*
X2950572Y13041890D01*
X2971800Y13036201D01*
Y13123801D01*
X2984500D01*
Y13136501D01*
X3072098D01*
X3066410Y13157729D01*
X3054837Y13177773D01*
X3038472Y13194138D01*
X3018428Y13205710D01*
X2997275Y13211378D01*
X2993312Y13218362D01*
X2991259Y13223322D01*
X3089491Y13321553D01*
X3848100D01*
X3862966Y13324512D01*
X3875569Y13332932D01*
X4078769Y13536131D01*
X4087189Y13548734D01*
X4090147Y13563600D01*
Y14147816D01*
X4103737Y14155663D01*
X4119637Y14171564D01*
X4130880Y14191037D01*
X4136700Y14212756D01*
Y14235243D01*
X4130880Y14256963D01*
X4119637Y14276437D01*
X4103737Y14292337D01*
X4084263Y14303580D01*
X4062543Y14309399D01*
D02*
G37*
G36*
X5152200Y13102901D02*
X5079500D01*
Y13030200D01*
X5152200D01*
Y13102901D01*
D02*
G37*
G36*
X5054100D02*
X4981400D01*
Y13030200D01*
X5054100D01*
Y13102901D01*
D02*
G37*
G36*
X4089918Y13105200D02*
X4089400D01*
Y13017500D01*
X4177100D01*
Y13018018D01*
X4170258Y13043553D01*
X4157040Y13066447D01*
X4138347Y13085139D01*
X4115453Y13098358D01*
X4089918Y13105200D01*
D02*
G37*
G36*
X4064000D02*
X4063482D01*
X4037947Y13098358D01*
X4015053Y13085139D01*
X3996360Y13066447D01*
X3983142Y13043553D01*
X3976300Y13018018D01*
Y13017500D01*
X4064000D01*
Y13105200D01*
D02*
G37*
G36*
X5152200Y13004800D02*
X5079500D01*
Y12932100D01*
X5152200D01*
Y13004800D01*
D02*
G37*
G36*
X5054100D02*
X4981400D01*
Y12932100D01*
X5054100D01*
Y13004800D01*
D02*
G37*
G36*
X4177100Y12992101D02*
X4089400D01*
Y12904401D01*
X4089918D01*
X4115453Y12911243D01*
X4138347Y12924460D01*
X4157040Y12943153D01*
X4170258Y12966048D01*
X4177100Y12991582D01*
Y12992101D01*
D02*
G37*
G36*
X4064000D02*
X3976300D01*
Y12991582D01*
X3983142Y12966048D01*
X3996360Y12943153D01*
X4015053Y12924460D01*
X4037947Y12911243D01*
X4063482Y12904401D01*
X4064000D01*
Y12992101D01*
D02*
G37*
G36*
X4662543Y14309399D02*
X4640057D01*
X4618337Y14303580D01*
X4598863Y14292337D01*
X4582963Y14276437D01*
X4571720Y14256963D01*
X4565900Y14235243D01*
Y14212756D01*
X4571720Y14191037D01*
X4582963Y14171564D01*
X4598863Y14155663D01*
X4612454Y14147816D01*
Y13697092D01*
X4200309Y13284947D01*
X3352118D01*
X3337252Y13281989D01*
X3324650Y13273569D01*
X2791931Y12740850D01*
X2783511Y12728248D01*
X2780553Y12713382D01*
Y11468100D01*
X2783511Y11453234D01*
X2791931Y11440631D01*
X3208414Y11024149D01*
X3201600Y10998718D01*
Y10972282D01*
X3208442Y10946747D01*
X3221660Y10923853D01*
X3240353Y10905160D01*
X3263247Y10891942D01*
X3288782Y10885100D01*
X3315218D01*
X3340753Y10891942D01*
X3363647Y10905160D01*
X3382340Y10923853D01*
X3395504Y10946653D01*
X3970496D01*
X3983660Y10923853D01*
X4002353Y10905160D01*
X4025247Y10891942D01*
X4050782Y10885100D01*
X4077218D01*
X4102649Y10891914D01*
X4190253Y10804309D01*
Y9474200D01*
X4193211Y9459334D01*
X4201631Y9446731D01*
X4633431Y9014931D01*
X4646034Y9006511D01*
X4660900Y9003553D01*
X6362700D01*
X6377566Y9006511D01*
X6390169Y9014931D01*
X7863369Y10488131D01*
X7871789Y10500734D01*
X7874747Y10515600D01*
Y11277600D01*
X7871789Y11292466D01*
X7863369Y11305069D01*
X7751686Y11416751D01*
X7758500Y11442182D01*
Y11468618D01*
X7751658Y11494153D01*
X7738440Y11517047D01*
X7719747Y11535740D01*
X7696853Y11548958D01*
X7671318Y11555800D01*
X7644882D01*
X7619347Y11548958D01*
X7596453Y11535740D01*
X7577760Y11517047D01*
X7564542Y11494153D01*
X7557700Y11468618D01*
Y11442182D01*
X7564542Y11416647D01*
X7577760Y11393753D01*
X7596453Y11375060D01*
X7619347Y11361842D01*
X7644882Y11355000D01*
X7671318D01*
X7696749Y11361814D01*
X7797053Y11261509D01*
Y10531691D01*
X6759433Y9494070D01*
X6747700Y9498931D01*
Y9661502D01*
X6561900D01*
Y9475702D01*
X6724471D01*
X6729331Y9463968D01*
X6346609Y9081247D01*
X4676991D01*
X4267947Y9490291D01*
Y10820400D01*
X4264989Y10835266D01*
X4256569Y10847869D01*
X4157586Y10946851D01*
X4164400Y10972282D01*
Y10998718D01*
X4157558Y11024253D01*
X4144340Y11047147D01*
X4125647Y11065840D01*
X4102753Y11079058D01*
X4077218Y11085900D01*
X4050782D01*
X4025247Y11079058D01*
X4002353Y11065840D01*
X3983660Y11047147D01*
X3970496Y11024347D01*
X3395504D01*
X3382340Y11047147D01*
X3363647Y11065840D01*
X3340753Y11079058D01*
X3315218Y11085900D01*
X3288782D01*
X3263351Y11079086D01*
X2858247Y11484191D01*
Y12697291D01*
X3202567Y13041611D01*
X3214300Y13036751D01*
Y12904401D01*
X3415100D01*
Y13105200D01*
X3282749D01*
X3277889Y13116933D01*
X3368209Y13207253D01*
X4216400D01*
X4231266Y13210211D01*
X4243869Y13218631D01*
X4678769Y13653531D01*
X4687190Y13666135D01*
X4690147Y13681000D01*
Y14147816D01*
X4703737Y14155663D01*
X4719637Y14171564D01*
X4730880Y14191037D01*
X4736700Y14212756D01*
Y14235243D01*
X4730880Y14256963D01*
X4719637Y14276437D01*
X4703737Y14292337D01*
X4684263Y14303580D01*
X4662543Y14309399D01*
D02*
G37*
G36*
X5078043Y12848900D02*
X5055557D01*
X5033837Y12843080D01*
X5014363Y12831837D01*
X4998463Y12815936D01*
X4987220Y12796463D01*
X4981400Y12774743D01*
Y12752257D01*
X4987220Y12730537D01*
X4998463Y12711063D01*
X5014363Y12695163D01*
X5033837Y12683920D01*
X5055557Y12678100D01*
X5078043D01*
X5099763Y12683920D01*
X5119237Y12695163D01*
X5135137Y12711063D01*
X5146380Y12730537D01*
X5152200Y12752257D01*
Y12774743D01*
X5146380Y12796463D01*
X5135137Y12815936D01*
X5119237Y12831837D01*
X5099763Y12843080D01*
X5078043Y12848900D01*
D02*
G37*
G36*
X8276900Y12785400D02*
X8106100D01*
Y12614600D01*
X8276900D01*
Y12785400D01*
D02*
G37*
G36*
X7222800D02*
X7052000D01*
Y12614600D01*
X7222800D01*
Y12785400D01*
D02*
G37*
G36*
X6041202D02*
X5870402D01*
Y12614600D01*
X6041202D01*
Y12785400D01*
D02*
G37*
G36*
X5078043Y12594900D02*
X5055557D01*
X5033837Y12589080D01*
X5014363Y12577837D01*
X4998463Y12561937D01*
X4987220Y12542463D01*
X4981400Y12520743D01*
Y12498257D01*
X4987220Y12476537D01*
X4998463Y12457063D01*
X5014363Y12441163D01*
X5033837Y12429920D01*
X5055557Y12424100D01*
X5078043D01*
X5099763Y12429920D01*
X5119237Y12441163D01*
X5135137Y12457063D01*
X5146380Y12476537D01*
X5152200Y12498257D01*
Y12520743D01*
X5146380Y12542463D01*
X5135137Y12561937D01*
X5119237Y12577837D01*
X5099763Y12589080D01*
X5078043Y12594900D01*
D02*
G37*
G36*
X4089918Y12597200D02*
X4063482D01*
X4037947Y12590358D01*
X4015053Y12577140D01*
X3996360Y12558447D01*
X3983142Y12535553D01*
X3976300Y12510018D01*
Y12483582D01*
X3983142Y12458047D01*
X3996360Y12435153D01*
X4015053Y12416460D01*
X4037947Y12403242D01*
X4063482Y12396400D01*
X4089918D01*
X4115453Y12403242D01*
X4138347Y12416460D01*
X4157040Y12435153D01*
X4170258Y12458047D01*
X4177100Y12483582D01*
Y12510018D01*
X4170258Y12535553D01*
X4157040Y12558447D01*
X4138347Y12577140D01*
X4115453Y12590358D01*
X4089918Y12597200D01*
D02*
G37*
G36*
X3327918D02*
X3301482D01*
X3275947Y12590358D01*
X3253053Y12577140D01*
X3234360Y12558447D01*
X3221142Y12535553D01*
X3214300Y12510018D01*
Y12483582D01*
X3221142Y12458047D01*
X3234360Y12435153D01*
X3253053Y12416460D01*
X3275947Y12403242D01*
X3301482Y12396400D01*
X3327918D01*
X3353453Y12403242D01*
X3376347Y12416460D01*
X3395040Y12435153D01*
X3408258Y12458047D01*
X3415100Y12483582D01*
Y12510018D01*
X3408258Y12535553D01*
X3395040Y12558447D01*
X3376347Y12577140D01*
X3353453Y12590358D01*
X3327918Y12597200D01*
D02*
G37*
G36*
X8202743Y12531400D02*
X8180257D01*
X8158537Y12525580D01*
X8139063Y12514337D01*
X8123163Y12498437D01*
X8111920Y12478963D01*
X8106100Y12457243D01*
Y12434757D01*
X8111920Y12413037D01*
X8123163Y12393563D01*
X8139063Y12377663D01*
X8158537Y12366420D01*
X8180257Y12360600D01*
X8202743D01*
X8224463Y12366420D01*
X8243937Y12377663D01*
X8259837Y12393563D01*
X8271080Y12413037D01*
X8276900Y12434757D01*
Y12457243D01*
X8271080Y12478963D01*
X8259837Y12498437D01*
X8243937Y12514337D01*
X8224463Y12525580D01*
X8202743Y12531400D01*
D02*
G37*
G36*
X7148643D02*
X7126157D01*
X7104437Y12525580D01*
X7084963Y12514337D01*
X7069063Y12498437D01*
X7057820Y12478963D01*
X7052000Y12457243D01*
Y12434757D01*
X7057820Y12413037D01*
X7069063Y12393563D01*
X7084963Y12377663D01*
X7104437Y12366420D01*
X7126157Y12360600D01*
X7148643D01*
X7170363Y12366420D01*
X7189837Y12377663D01*
X7205737Y12393563D01*
X7216980Y12413037D01*
X7222800Y12434757D01*
Y12457243D01*
X7216980Y12478963D01*
X7205737Y12498437D01*
X7189837Y12514337D01*
X7170363Y12525580D01*
X7148643Y12531400D01*
D02*
G37*
G36*
X5967045D02*
X5944559D01*
X5922839Y12525580D01*
X5903365Y12514337D01*
X5887465Y12498437D01*
X5876222Y12478963D01*
X5870402Y12457243D01*
Y12434757D01*
X5876222Y12413037D01*
X5887465Y12393563D01*
X5903365Y12377663D01*
X5922839Y12366420D01*
X5944559Y12360600D01*
X5967045D01*
X5988765Y12366420D01*
X6008239Y12377663D01*
X6024139Y12393563D01*
X6035382Y12413037D01*
X6041202Y12434757D01*
Y12457243D01*
X6035382Y12478963D01*
X6024139Y12498437D01*
X6008239Y12514337D01*
X5988765Y12525580D01*
X5967045Y12531400D01*
D02*
G37*
G36*
X6477000Y12411298D02*
Y12336400D01*
X6551898D01*
X6546210Y12357628D01*
X6534637Y12377672D01*
X6518272Y12394037D01*
X6498228Y12405610D01*
X6477000Y12411298D01*
D02*
G37*
G36*
X6451600D02*
X6430372Y12405610D01*
X6410328Y12394037D01*
X6393963Y12377672D01*
X6382390Y12357628D01*
X6376702Y12336400D01*
X6451600D01*
Y12411298D01*
D02*
G37*
G36*
X6551898Y12311000D02*
X6477000D01*
Y12236102D01*
X6498228Y12241790D01*
X6518272Y12253363D01*
X6534637Y12269728D01*
X6546210Y12289772D01*
X6551898Y12311000D01*
D02*
G37*
G36*
X6451600D02*
X6376702D01*
X6382390Y12289772D01*
X6393963Y12269728D01*
X6410328Y12253363D01*
X6430372Y12241790D01*
X6451600Y12236102D01*
Y12311000D01*
D02*
G37*
G36*
X3327918Y12343200D02*
X3301482D01*
X3275947Y12336358D01*
X3253053Y12323140D01*
X3234360Y12304447D01*
X3221142Y12281553D01*
X3214300Y12256018D01*
Y12229582D01*
X3221142Y12204047D01*
X3234360Y12181153D01*
X3253053Y12162460D01*
X3275947Y12149242D01*
X3301482Y12142400D01*
X3327918D01*
X3353453Y12149242D01*
X3376347Y12162460D01*
X3395040Y12181153D01*
X3408258Y12204047D01*
X3415100Y12229582D01*
Y12256018D01*
X3408258Y12281553D01*
X3395040Y12304447D01*
X3376347Y12323140D01*
X3353453Y12336358D01*
X3327918Y12343200D01*
D02*
G37*
G36*
X8202743Y12277400D02*
X8180257D01*
X8158537Y12271580D01*
X8139063Y12260337D01*
X8123163Y12244437D01*
X8111920Y12224963D01*
X8106100Y12203243D01*
Y12180757D01*
X8111920Y12159037D01*
X8123163Y12139563D01*
X8139063Y12123663D01*
X8158537Y12112420D01*
X8180257Y12106600D01*
X8202743D01*
X8224463Y12112420D01*
X8243937Y12123663D01*
X8259837Y12139563D01*
X8271080Y12159037D01*
X8276900Y12180757D01*
Y12203243D01*
X8271080Y12224963D01*
X8259837Y12244437D01*
X8243937Y12260337D01*
X8224463Y12271580D01*
X8202743Y12277400D01*
D02*
G37*
G36*
X7148643D02*
X7126157D01*
X7104437Y12271580D01*
X7084963Y12260337D01*
X7069063Y12244437D01*
X7057820Y12224963D01*
X7052000Y12203243D01*
Y12180757D01*
X7057820Y12159037D01*
X7069063Y12139563D01*
X7084963Y12123663D01*
X7104437Y12112420D01*
X7126157Y12106600D01*
X7148643D01*
X7170363Y12112420D01*
X7189837Y12123663D01*
X7205737Y12139563D01*
X7216980Y12159037D01*
X7222800Y12180757D01*
Y12203243D01*
X7216980Y12224963D01*
X7205737Y12244437D01*
X7189837Y12260337D01*
X7170363Y12271580D01*
X7148643Y12277400D01*
D02*
G37*
G36*
X5967045D02*
X5944559D01*
X5922839Y12271580D01*
X5903365Y12260337D01*
X5887465Y12244437D01*
X5876222Y12224963D01*
X5870402Y12203243D01*
Y12180757D01*
X5876222Y12159037D01*
X5887465Y12139563D01*
X5903365Y12123663D01*
X5922839Y12112420D01*
X5944559Y12106600D01*
X5967045D01*
X5988765Y12112420D01*
X6008239Y12123663D01*
X6024139Y12139563D01*
X6035382Y12159037D01*
X6041202Y12180757D01*
Y12203243D01*
X6035382Y12224963D01*
X6024139Y12244437D01*
X6008239Y12260337D01*
X5988765Y12271580D01*
X5967045Y12277400D01*
D02*
G37*
G36*
X4089918Y12851199D02*
X4063482D01*
X4037947Y12844357D01*
X4015053Y12831140D01*
X3996360Y12812447D01*
X3983142Y12789553D01*
X3976300Y12764018D01*
Y12737582D01*
X3983142Y12712047D01*
X3996360Y12689153D01*
X4015053Y12670460D01*
X4037947Y12657242D01*
X4063482Y12650400D01*
X4089918D01*
X4115349Y12657214D01*
X4368053Y12404509D01*
Y12224400D01*
X4319000D01*
Y12072031D01*
X4307267Y12067170D01*
X4170286Y12204151D01*
X4177100Y12229582D01*
Y12256018D01*
X4170258Y12281553D01*
X4157040Y12304447D01*
X4138347Y12323140D01*
X4115453Y12336358D01*
X4089918Y12343200D01*
X4063482D01*
X4037947Y12336358D01*
X4015053Y12323140D01*
X3996360Y12304447D01*
X3983196Y12281647D01*
X3838791D01*
X3408286Y12712151D01*
X3415100Y12737582D01*
Y12764018D01*
X3408258Y12789553D01*
X3395040Y12812447D01*
X3376347Y12831140D01*
X3353453Y12844357D01*
X3327918Y12851199D01*
X3301482D01*
X3275947Y12844357D01*
X3253053Y12831140D01*
X3234360Y12812447D01*
X3221142Y12789553D01*
X3214300Y12764018D01*
Y12737582D01*
X3221142Y12712047D01*
X3234360Y12689153D01*
X3253053Y12670460D01*
X3275947Y12657242D01*
X3301482Y12650400D01*
X3327918D01*
X3353349Y12657214D01*
X3795231Y12215331D01*
X3807834Y12206911D01*
X3822700Y12203953D01*
X3983196D01*
X3996360Y12181153D01*
X4015053Y12162460D01*
X4037947Y12149242D01*
X4063482Y12142400D01*
X4089918D01*
X4115349Y12149214D01*
X4404831Y11859731D01*
X4417434Y11851311D01*
X4432300Y11848353D01*
X5617557D01*
X5784077Y11681833D01*
X5779217Y11670100D01*
X5777982D01*
X5752447Y11663258D01*
X5729553Y11650040D01*
X5710860Y11631347D01*
X5697642Y11608453D01*
X5690800Y11582918D01*
Y11556482D01*
X5697642Y11530947D01*
X5710860Y11508053D01*
X5729553Y11489360D01*
X5752447Y11476142D01*
X5777982Y11469300D01*
X5804418D01*
X5829953Y11476142D01*
X5852847Y11489360D01*
X5871540Y11508053D01*
X5884758Y11530947D01*
X5891600Y11556482D01*
Y11557717D01*
X5903333Y11562577D01*
X6270279Y11195631D01*
X6282882Y11187211D01*
X6297748Y11184253D01*
X6604309D01*
X6983030Y10805533D01*
X6978169Y10793800D01*
X6795700D01*
Y10593000D01*
X6996500D01*
Y10775469D01*
X7008233Y10780330D01*
X7056514Y10732049D01*
X7049700Y10706618D01*
Y10680182D01*
X7056542Y10654647D01*
X7069760Y10631753D01*
X7088453Y10613060D01*
X7111347Y10599842D01*
X7136882Y10593000D01*
X7163318D01*
X7188853Y10599842D01*
X7211747Y10613060D01*
X7230440Y10631753D01*
X7243658Y10654647D01*
X7250500Y10680182D01*
Y10706618D01*
X7243658Y10732153D01*
X7230440Y10755047D01*
X7211747Y10773740D01*
X7188853Y10786958D01*
X7163318Y10793800D01*
X7136882D01*
X7111451Y10786986D01*
X6647869Y11250569D01*
X6635266Y11258989D01*
X6620400Y11261946D01*
X6552200D01*
Y11411600D01*
X6376400D01*
Y11261946D01*
X6313838D01*
X5661116Y11914669D01*
X5648513Y11923089D01*
X5633648Y11926047D01*
X4448391D01*
X4337570Y12036867D01*
X4342431Y12048600D01*
X4494800D01*
Y12224400D01*
X4445747D01*
Y12420600D01*
X4442789Y12435466D01*
X4434369Y12448069D01*
X4170286Y12712151D01*
X4177100Y12737582D01*
Y12764018D01*
X4170258Y12789553D01*
X4157040Y12812447D01*
X4138347Y12831140D01*
X4115453Y12844357D01*
X4089918Y12851199D01*
D02*
G37*
G36*
X3072400Y12211700D02*
X2896600D01*
Y12035900D01*
X3072400D01*
Y12211700D01*
D02*
G37*
G36*
X4077218Y11593900D02*
X4076700D01*
Y11506200D01*
X4164400D01*
Y11506718D01*
X4157558Y11532253D01*
X4144340Y11555147D01*
X4125647Y11573840D01*
X4102753Y11587058D01*
X4077218Y11593900D01*
D02*
G37*
G36*
X4051300D02*
X4050782D01*
X4025247Y11587058D01*
X4002353Y11573840D01*
X3983660Y11555147D01*
X3970442Y11532253D01*
X3963600Y11506718D01*
Y11506200D01*
X4051300D01*
Y11593900D01*
D02*
G37*
G36*
X3085100Y11852800D02*
X2909300D01*
Y11677000D01*
X2958353D01*
Y11607800D01*
X2961311Y11592934D01*
X2969731Y11580331D01*
X3084031Y11466031D01*
X3096634Y11457611D01*
X3111500Y11454653D01*
X3201600D01*
Y11393100D01*
X3402400D01*
Y11593900D01*
X3201600D01*
Y11532347D01*
X3127591D01*
X3036047Y11623891D01*
Y11677000D01*
X3085100D01*
Y11726054D01*
X4817909D01*
X4935614Y11608349D01*
X4928800Y11582918D01*
Y11556482D01*
X4935642Y11530947D01*
X4948860Y11508053D01*
X4967553Y11489360D01*
X4990447Y11476142D01*
X5015982Y11469300D01*
X5042418D01*
X5067953Y11476142D01*
X5090847Y11489360D01*
X5109540Y11508053D01*
X5122758Y11530947D01*
X5129600Y11556482D01*
Y11582918D01*
X5122758Y11608453D01*
X5109540Y11631347D01*
X5090847Y11650040D01*
X5067953Y11663258D01*
X5042418Y11670100D01*
X5015982D01*
X4990551Y11663286D01*
X4861469Y11792369D01*
X4848866Y11800789D01*
X4834000Y11803747D01*
X3085100D01*
Y11852800D01*
D02*
G37*
G36*
X6909318Y11555800D02*
X6908800D01*
Y11468100D01*
X6996500D01*
Y11468618D01*
X6989658Y11494153D01*
X6976440Y11517047D01*
X6957747Y11535740D01*
X6934853Y11548958D01*
X6909318Y11555800D01*
D02*
G37*
G36*
X6883400D02*
X6882882D01*
X6857347Y11548958D01*
X6834453Y11535740D01*
X6815760Y11517047D01*
X6802542Y11494153D01*
X6795700Y11468618D01*
Y11468100D01*
X6883400D01*
Y11555800D01*
D02*
G37*
G36*
X4164400Y11480800D02*
X4076700D01*
Y11393100D01*
X4077218D01*
X4102753Y11399942D01*
X4125647Y11413160D01*
X4144340Y11431853D01*
X4157558Y11454747D01*
X4164400Y11480282D01*
Y11480800D01*
D02*
G37*
G36*
X4051300D02*
X3963600D01*
Y11480282D01*
X3970442Y11454747D01*
X3983660Y11431853D01*
X4002353Y11413160D01*
X4025247Y11399942D01*
X4050782Y11393100D01*
X4051300D01*
Y11480800D01*
D02*
G37*
G36*
X7417318Y11555800D02*
X7390882D01*
X7365347Y11548958D01*
X7342453Y11535740D01*
X7323760Y11517047D01*
X7310542Y11494153D01*
X7303700Y11468618D01*
Y11442182D01*
X7310542Y11416647D01*
X7323760Y11393753D01*
X7342453Y11375060D01*
X7365347Y11361842D01*
X7390882Y11355000D01*
X7417318D01*
X7442853Y11361842D01*
X7465747Y11375060D01*
X7484440Y11393753D01*
X7497658Y11416647D01*
X7504500Y11442182D01*
Y11468618D01*
X7497658Y11494153D01*
X7484440Y11517047D01*
X7465747Y11535740D01*
X7442853Y11548958D01*
X7417318Y11555800D01*
D02*
G37*
G36*
X7163318D02*
X7136882D01*
X7111347Y11548958D01*
X7088453Y11535740D01*
X7069760Y11517047D01*
X7056542Y11494153D01*
X7049700Y11468618D01*
Y11442182D01*
X7056542Y11416647D01*
X7069760Y11393753D01*
X7088453Y11375060D01*
X7111347Y11361842D01*
X7136882Y11355000D01*
X7163318D01*
X7188853Y11361842D01*
X7211747Y11375060D01*
X7230440Y11393753D01*
X7243658Y11416647D01*
X7250500Y11442182D01*
Y11468618D01*
X7243658Y11494153D01*
X7230440Y11517047D01*
X7211747Y11535740D01*
X7188853Y11548958D01*
X7163318Y11555800D01*
D02*
G37*
G36*
X6996500Y11442700D02*
X6908800D01*
Y11355000D01*
X6909318D01*
X6934853Y11361842D01*
X6957747Y11375060D01*
X6976440Y11393753D01*
X6989658Y11416647D01*
X6996500Y11442182D01*
Y11442700D01*
D02*
G37*
G36*
X6883400D02*
X6795700D01*
Y11442182D01*
X6802542Y11416647D01*
X6815760Y11393753D01*
X6834453Y11375060D01*
X6857347Y11361842D01*
X6882882Y11355000D01*
X6883400D01*
Y11442700D01*
D02*
G37*
G36*
X5804418Y11416100D02*
X5777982D01*
X5752447Y11409258D01*
X5729553Y11396040D01*
X5710860Y11377347D01*
X5697642Y11354453D01*
X5690800Y11328918D01*
Y11302482D01*
X5697642Y11276947D01*
X5710860Y11254053D01*
X5729553Y11235360D01*
X5752447Y11222142D01*
X5777982Y11215300D01*
X5804418D01*
X5829953Y11222142D01*
X5852847Y11235360D01*
X5871540Y11254053D01*
X5884758Y11276947D01*
X5891600Y11302482D01*
Y11328918D01*
X5884758Y11354453D01*
X5871540Y11377347D01*
X5852847Y11396040D01*
X5829953Y11409258D01*
X5804418Y11416100D01*
D02*
G37*
G36*
X5042418D02*
X5015982D01*
X4990447Y11409258D01*
X4967553Y11396040D01*
X4948860Y11377347D01*
X4935642Y11354453D01*
X4928800Y11328918D01*
Y11302482D01*
X4935642Y11276947D01*
X4948860Y11254053D01*
X4967553Y11235360D01*
X4990447Y11222142D01*
X5015982Y11215300D01*
X5042418D01*
X5067953Y11222142D01*
X5090847Y11235360D01*
X5109540Y11254053D01*
X5122758Y11276947D01*
X5129600Y11302482D01*
Y11328918D01*
X5122758Y11354453D01*
X5109540Y11377347D01*
X5090847Y11396040D01*
X5067953Y11409258D01*
X5042418Y11416100D01*
D02*
G37*
G36*
X4532900Y11332100D02*
X4357100D01*
Y11156300D01*
X4532900D01*
Y11332100D01*
D02*
G37*
G36*
X4077218Y11339900D02*
X4050782D01*
X4025247Y11333058D01*
X4002353Y11319840D01*
X3983660Y11301147D01*
X3970442Y11278253D01*
X3963600Y11252718D01*
Y11226282D01*
X3970442Y11200747D01*
X3983660Y11177853D01*
X4002353Y11159160D01*
X4025247Y11145942D01*
X4050782Y11139100D01*
X4077218D01*
X4102753Y11145942D01*
X4125647Y11159160D01*
X4144340Y11177853D01*
X4157558Y11200747D01*
X4164400Y11226282D01*
Y11252718D01*
X4157558Y11278253D01*
X4144340Y11301147D01*
X4125647Y11319840D01*
X4102753Y11333058D01*
X4077218Y11339900D01*
D02*
G37*
G36*
X3315218D02*
X3288782D01*
X3263247Y11333058D01*
X3240353Y11319840D01*
X3221660Y11301147D01*
X3208442Y11278253D01*
X3201600Y11252718D01*
Y11226282D01*
X3208442Y11200747D01*
X3221660Y11177853D01*
X3240353Y11159160D01*
X3263247Y11145942D01*
X3288782Y11139100D01*
X3315218D01*
X3340753Y11145942D01*
X3363647Y11159160D01*
X3382340Y11177853D01*
X3395558Y11200747D01*
X3402400Y11226282D01*
Y11252718D01*
X3395558Y11278253D01*
X3382340Y11301147D01*
X3363647Y11319840D01*
X3340753Y11333058D01*
X3315218Y11339900D01*
D02*
G37*
G36*
X5804418Y11162100D02*
X5777982D01*
X5752447Y11155258D01*
X5729553Y11142040D01*
X5710860Y11123347D01*
X5697642Y11100453D01*
X5690800Y11074918D01*
Y11048482D01*
X5697642Y11022947D01*
X5710860Y11000053D01*
X5729553Y10981360D01*
X5752447Y10968142D01*
X5777982Y10961300D01*
X5804418D01*
X5829953Y10968142D01*
X5852847Y10981360D01*
X5871540Y11000053D01*
X5884758Y11022947D01*
X5891600Y11048482D01*
Y11074918D01*
X5884758Y11100453D01*
X5871540Y11123347D01*
X5852847Y11142040D01*
X5829953Y11155258D01*
X5804418Y11162100D01*
D02*
G37*
G36*
X3009900Y10852498D02*
Y10777600D01*
X3084798D01*
X3079110Y10798828D01*
X3067537Y10818872D01*
X3051172Y10835237D01*
X3031128Y10846810D01*
X3009900Y10852498D01*
D02*
G37*
G36*
X2984500D02*
X2963272Y10846810D01*
X2943228Y10835237D01*
X2926863Y10818872D01*
X2915290Y10798828D01*
X2909602Y10777600D01*
X2984500D01*
Y10852498D01*
D02*
G37*
G36*
X5804418Y10908100D02*
X5777982D01*
X5752447Y10901258D01*
X5729553Y10888040D01*
X5710860Y10869347D01*
X5697642Y10846453D01*
X5690800Y10820918D01*
Y10794482D01*
X5697642Y10768947D01*
X5710860Y10746053D01*
X5729553Y10727360D01*
X5752447Y10714142D01*
X5777982Y10707300D01*
X5804418D01*
X5829953Y10714142D01*
X5852847Y10727360D01*
X5871540Y10746053D01*
X5884758Y10768947D01*
X5891600Y10794482D01*
Y10820918D01*
X5884758Y10846453D01*
X5871540Y10869347D01*
X5852847Y10888040D01*
X5829953Y10901258D01*
X5804418Y10908100D01*
D02*
G37*
G36*
X5042418D02*
X5015982D01*
X4990447Y10901258D01*
X4967553Y10888040D01*
X4948860Y10869347D01*
X4935642Y10846453D01*
X4928800Y10820918D01*
Y10794482D01*
X4935642Y10768947D01*
X4948860Y10746053D01*
X4967553Y10727360D01*
X4990447Y10714142D01*
X5015982Y10707300D01*
X5042418D01*
X5067953Y10714142D01*
X5090847Y10727360D01*
X5109540Y10746053D01*
X5122758Y10768947D01*
X5129600Y10794482D01*
Y10820918D01*
X5122758Y10846453D01*
X5109540Y10869347D01*
X5090847Y10888040D01*
X5067953Y10901258D01*
X5042418Y10908100D01*
D02*
G37*
G36*
X3084798Y10752200D02*
X3009900D01*
Y10677302D01*
X3031128Y10682990D01*
X3051172Y10694563D01*
X3067537Y10710928D01*
X3079110Y10730972D01*
X3084798Y10752200D01*
D02*
G37*
G36*
X2984500D02*
X2909602D01*
X2915290Y10730972D01*
X2926863Y10710928D01*
X2943228Y10694563D01*
X2963272Y10682990D01*
X2984500Y10677302D01*
Y10752200D01*
D02*
G37*
G36*
X4077218Y10831900D02*
X4050782D01*
X4025247Y10825058D01*
X4002353Y10811840D01*
X3983660Y10793147D01*
X3970442Y10770253D01*
X3963600Y10744718D01*
Y10718282D01*
X3970442Y10692747D01*
X3983660Y10669853D01*
X4002353Y10651160D01*
X4025247Y10637942D01*
X4050782Y10631100D01*
X4077218D01*
X4102753Y10637942D01*
X4125647Y10651160D01*
X4144340Y10669853D01*
X4157558Y10692747D01*
X4164400Y10718282D01*
Y10744718D01*
X4157558Y10770253D01*
X4144340Y10793147D01*
X4125647Y10811840D01*
X4102753Y10825058D01*
X4077218Y10831900D01*
D02*
G37*
G36*
X3315218D02*
X3288782D01*
X3263247Y10825058D01*
X3240353Y10811840D01*
X3221660Y10793147D01*
X3208442Y10770253D01*
X3201600Y10744718D01*
Y10718282D01*
X3208442Y10692747D01*
X3221660Y10669853D01*
X3240353Y10651160D01*
X3263247Y10637942D01*
X3288782Y10631100D01*
X3315218D01*
X3340753Y10637942D01*
X3363647Y10651160D01*
X3382340Y10669853D01*
X3395558Y10692747D01*
X3402400Y10718282D01*
Y10744718D01*
X3395558Y10770253D01*
X3382340Y10793147D01*
X3363647Y10811840D01*
X3340753Y10825058D01*
X3315218Y10831900D01*
D02*
G37*
G36*
X7671318Y10793800D02*
X7644882D01*
X7619347Y10786958D01*
X7596453Y10773740D01*
X7577760Y10755047D01*
X7564542Y10732153D01*
X7557700Y10706618D01*
Y10680182D01*
X7564542Y10654647D01*
X7577760Y10631753D01*
X7596453Y10613060D01*
X7619347Y10599842D01*
X7644882Y10593000D01*
X7671318D01*
X7696853Y10599842D01*
X7719747Y10613060D01*
X7738440Y10631753D01*
X7751658Y10654647D01*
X7758500Y10680182D01*
Y10706618D01*
X7751658Y10732153D01*
X7738440Y10755047D01*
X7719747Y10773740D01*
X7696853Y10786958D01*
X7671318Y10793800D01*
D02*
G37*
G36*
X7417318D02*
X7390882D01*
X7365347Y10786958D01*
X7342453Y10773740D01*
X7323760Y10755047D01*
X7310542Y10732153D01*
X7303700Y10706618D01*
Y10680182D01*
X7310542Y10654647D01*
X7323760Y10631753D01*
X7342453Y10613060D01*
X7365347Y10599842D01*
X7390882Y10593000D01*
X7417318D01*
X7442853Y10599842D01*
X7465747Y10613060D01*
X7484440Y10631753D01*
X7497658Y10654647D01*
X7504500Y10680182D01*
Y10706618D01*
X7497658Y10732153D01*
X7484440Y10755047D01*
X7465747Y10773740D01*
X7442853Y10786958D01*
X7417318Y10793800D01*
D02*
G37*
G36*
X6301246Y10815663D02*
X6176937Y10691354D01*
X6301246Y10567044D01*
X6425556Y10691354D01*
X6301246Y10815663D01*
D02*
G37*
G36*
X5804418Y10654100D02*
X5777982D01*
X5752447Y10647258D01*
X5729553Y10634040D01*
X5710860Y10615347D01*
X5697642Y10592453D01*
X5690800Y10566918D01*
Y10540482D01*
X5697642Y10514947D01*
X5710860Y10492053D01*
X5729553Y10473360D01*
X5752447Y10460142D01*
X5777982Y10453300D01*
X5804418D01*
X5829953Y10460142D01*
X5852847Y10473360D01*
X5871540Y10492053D01*
X5884758Y10514947D01*
X5891600Y10540482D01*
Y10566918D01*
X5884758Y10592453D01*
X5871540Y10615347D01*
X5852847Y10634040D01*
X5829953Y10647258D01*
X5804418Y10654100D01*
D02*
G37*
G36*
X5042418D02*
X5015982D01*
X4990447Y10647258D01*
X4967553Y10634040D01*
X4948860Y10615347D01*
X4935642Y10592453D01*
X4928800Y10566918D01*
Y10540482D01*
X4935642Y10514947D01*
X4948860Y10492053D01*
X4967553Y10473360D01*
X4990447Y10460142D01*
X5015982Y10453300D01*
X5042418D01*
X5067953Y10460142D01*
X5090847Y10473360D01*
X5109540Y10492053D01*
X5122758Y10514947D01*
X5129600Y10540482D01*
Y10566918D01*
X5122758Y10592453D01*
X5109540Y10615347D01*
X5090847Y10634040D01*
X5067953Y10647258D01*
X5042418Y10654100D01*
D02*
G37*
G36*
X4457700Y10331798D02*
Y10256900D01*
X4532598D01*
X4526910Y10278128D01*
X4515337Y10298172D01*
X4498972Y10314537D01*
X4478928Y10326110D01*
X4457700Y10331798D01*
D02*
G37*
G36*
X4432300D02*
X4411072Y10326110D01*
X4391028Y10314537D01*
X4374663Y10298172D01*
X4363090Y10278128D01*
X4357402Y10256900D01*
X4432300D01*
Y10331798D01*
D02*
G37*
G36*
X5804418Y10400100D02*
X5777982D01*
X5752447Y10393258D01*
X5729553Y10380040D01*
X5710860Y10361347D01*
X5697642Y10338453D01*
X5690800Y10312918D01*
Y10286482D01*
X5697642Y10260947D01*
X5710860Y10238053D01*
X5729553Y10219360D01*
X5752447Y10206142D01*
X5777982Y10199300D01*
X5804418D01*
X5829953Y10206142D01*
X5852847Y10219360D01*
X5871540Y10238053D01*
X5884758Y10260947D01*
X5891600Y10286482D01*
Y10312918D01*
X5884758Y10338453D01*
X5871540Y10361347D01*
X5852847Y10380040D01*
X5829953Y10393258D01*
X5804418Y10400100D01*
D02*
G37*
G36*
X5042418D02*
X5015982D01*
X4990447Y10393258D01*
X4967553Y10380040D01*
X4948860Y10361347D01*
X4935642Y10338453D01*
X4928800Y10312918D01*
Y10286482D01*
X4935642Y10260947D01*
X4948860Y10238053D01*
X4967553Y10219360D01*
X4990447Y10206142D01*
X5015982Y10199300D01*
X5042418D01*
X5067953Y10206142D01*
X5090847Y10219360D01*
X5109540Y10238053D01*
X5122758Y10260947D01*
X5129600Y10286482D01*
Y10312918D01*
X5122758Y10338453D01*
X5109540Y10361347D01*
X5090847Y10380040D01*
X5067953Y10393258D01*
X5042418Y10400100D01*
D02*
G37*
G36*
X4532598Y10231500D02*
X4457700D01*
Y10156602D01*
X4478928Y10162290D01*
X4498972Y10173863D01*
X4515337Y10190228D01*
X4526910Y10210272D01*
X4532598Y10231500D01*
D02*
G37*
G36*
X4432300D02*
X4357402D01*
X4363090Y10210272D01*
X4374663Y10190228D01*
X4391028Y10173863D01*
X4411072Y10162290D01*
X4432300Y10156602D01*
Y10231500D01*
D02*
G37*
G36*
X5042418Y10146100D02*
X5041900D01*
Y10058400D01*
X5129600D01*
Y10058918D01*
X5122758Y10084453D01*
X5109540Y10107347D01*
X5090847Y10126040D01*
X5067953Y10139258D01*
X5042418Y10146100D01*
D02*
G37*
G36*
X5016500D02*
X5015982D01*
X4990447Y10139258D01*
X4967553Y10126040D01*
X4948860Y10107347D01*
X4935642Y10084453D01*
X4928800Y10058918D01*
Y10058400D01*
X5016500D01*
Y10146100D01*
D02*
G37*
G36*
X7019926Y10072146D02*
X6996781D01*
X6974425Y10066156D01*
X6955393Y10055168D01*
X7008354Y10002207D01*
X7061314Y10055168D01*
X7042282Y10066156D01*
X7019926Y10072146D01*
D02*
G37*
G36*
X3632718Y10196900D02*
X3606282D01*
X3580747Y10190058D01*
X3557853Y10176840D01*
X3539160Y10158147D01*
X3525942Y10135253D01*
X3519100Y10109718D01*
Y10083282D01*
X3525942Y10057747D01*
X3539160Y10034853D01*
X3557853Y10016160D01*
X3580747Y10002942D01*
X3606282Y9996100D01*
X3632718D01*
X3658253Y10002942D01*
X3681147Y10016160D01*
X3699840Y10034853D01*
X3713058Y10057747D01*
X3719900Y10083282D01*
Y10109718D01*
X3713058Y10135253D01*
X3699840Y10158147D01*
X3681147Y10176840D01*
X3658253Y10190058D01*
X3632718Y10196900D01*
D02*
G37*
G36*
X2870718D02*
X2844282D01*
X2818747Y10190058D01*
X2795853Y10176840D01*
X2777160Y10158147D01*
X2763942Y10135253D01*
X2757100Y10109718D01*
Y10083282D01*
X2763942Y10057747D01*
X2777160Y10034853D01*
X2795853Y10016160D01*
X2818747Y10002942D01*
X2844282Y9996100D01*
X2870718D01*
X2896253Y10002942D01*
X2919147Y10016160D01*
X2937840Y10034853D01*
X2951058Y10057747D01*
X2957900Y10083282D01*
Y10109718D01*
X2951058Y10135253D01*
X2937840Y10158147D01*
X2919147Y10176840D01*
X2896253Y10190058D01*
X2870718Y10196900D01*
D02*
G37*
G36*
X5891600Y10146100D02*
X5690800D01*
Y9945300D01*
X5891600D01*
Y10146100D01*
D02*
G37*
G36*
X5129600Y10033000D02*
X5041900D01*
Y9945300D01*
X5042418D01*
X5067953Y9952142D01*
X5090847Y9965360D01*
X5109540Y9984053D01*
X5122758Y10006947D01*
X5129600Y10032482D01*
Y10033000D01*
D02*
G37*
G36*
X5016500D02*
X4928800D01*
Y10032482D01*
X4935642Y10006947D01*
X4948860Y9984053D01*
X4967553Y9965360D01*
X4990447Y9952142D01*
X5015982Y9945300D01*
X5016500D01*
Y10033000D01*
D02*
G37*
G36*
X7079275Y10037207D02*
X7026314Y9984246D01*
X7079275Y9931286D01*
X7090263Y9950318D01*
X7096254Y9972674D01*
Y9995819D01*
X7090263Y10018175D01*
X7079275Y10037207D01*
D02*
G37*
G36*
X6937432Y10037208D02*
X6926444Y10018175D01*
X6920454Y9995819D01*
Y9972674D01*
X6926444Y9950318D01*
X6937432Y9931286D01*
X6990393Y9984246D01*
X6937432Y10037208D01*
D02*
G37*
G36*
X7008354Y9966286D02*
X6955393Y9913325D01*
X6974425Y9902337D01*
X6996781Y9896346D01*
X7019926D01*
X7042282Y9902337D01*
X7061315Y9913325D01*
X7008354Y9966286D01*
D02*
G37*
G36*
X3632718Y9942900D02*
X3606282D01*
X3580747Y9936058D01*
X3557853Y9922840D01*
X3539160Y9904147D01*
X3525942Y9881253D01*
X3519100Y9855718D01*
Y9829282D01*
X3525942Y9803747D01*
X3539160Y9780853D01*
X3557853Y9762160D01*
X3580747Y9748942D01*
X3606282Y9742100D01*
X3632718D01*
X3658253Y9748942D01*
X3681147Y9762160D01*
X3699840Y9780853D01*
X3713058Y9803747D01*
X3719900Y9829282D01*
Y9855718D01*
X3713058Y9881253D01*
X3699840Y9904147D01*
X3681147Y9922840D01*
X3658253Y9936058D01*
X3632718Y9942900D01*
D02*
G37*
G36*
X2870718D02*
X2844282D01*
X2818747Y9936058D01*
X2795853Y9922840D01*
X2777160Y9904147D01*
X2763942Y9881253D01*
X2757100Y9855718D01*
Y9829282D01*
X2763942Y9803747D01*
X2777160Y9780853D01*
X2795853Y9762160D01*
X2818747Y9748942D01*
X2844282Y9742100D01*
X2870718D01*
X2896253Y9748942D01*
X2919147Y9762160D01*
X2937840Y9780853D01*
X2951058Y9803747D01*
X2957900Y9829282D01*
Y9855718D01*
X2951058Y9881253D01*
X2937840Y9904147D01*
X2919147Y9922840D01*
X2896253Y9936058D01*
X2870718Y9942900D01*
D02*
G37*
G36*
X3632718Y9688900D02*
X3606282D01*
X3580747Y9682058D01*
X3557853Y9668840D01*
X3539160Y9650147D01*
X3525942Y9627253D01*
X3519100Y9601718D01*
Y9575282D01*
X3525942Y9549747D01*
X3539160Y9526853D01*
X3557853Y9508160D01*
X3580747Y9494942D01*
X3606282Y9488100D01*
X3632718D01*
X3658253Y9494942D01*
X3681147Y9508160D01*
X3699840Y9526853D01*
X3713058Y9549747D01*
X3719900Y9575282D01*
Y9601718D01*
X3713058Y9627253D01*
X3699840Y9650147D01*
X3681147Y9668840D01*
X3658253Y9682058D01*
X3632718Y9688900D01*
D02*
G37*
G36*
X2870718D02*
X2844282D01*
X2818747Y9682058D01*
X2795853Y9668840D01*
X2777160Y9650147D01*
X2763942Y9627253D01*
X2757100Y9601718D01*
Y9575282D01*
X2763942Y9549747D01*
X2777160Y9526853D01*
X2795853Y9508160D01*
X2818747Y9494942D01*
X2844282Y9488100D01*
X2870718D01*
X2896253Y9494942D01*
X2919147Y9508160D01*
X2937840Y9526853D01*
X2951058Y9549747D01*
X2957900Y9575282D01*
Y9601718D01*
X2951058Y9627253D01*
X2937840Y9650147D01*
X2919147Y9668840D01*
X2896253Y9682058D01*
X2870718Y9688900D01*
D02*
G37*
G36*
X6272600Y9574600D02*
X6071800D01*
Y9373800D01*
X6272600D01*
Y9574600D01*
D02*
G37*
G36*
X5042418Y11162100D02*
X5015982D01*
X4990447Y11155258D01*
X4967553Y11142040D01*
X4948860Y11123347D01*
X4935642Y11100453D01*
X4928800Y11074918D01*
Y11048482D01*
X4935642Y11022947D01*
X4948860Y11000053D01*
X4967553Y10981360D01*
X4990447Y10968142D01*
X5015982Y10961300D01*
X5042418D01*
X5067849Y10968114D01*
X5434854Y10601109D01*
Y9918700D01*
X5437811Y9903834D01*
X5446232Y9891231D01*
X5824614Y9512849D01*
X5817800Y9487418D01*
Y9460982D01*
X5824642Y9435447D01*
X5837860Y9412553D01*
X5856553Y9393860D01*
X5879447Y9380642D01*
X5904982Y9373800D01*
X5931418D01*
X5956953Y9380642D01*
X5979847Y9393860D01*
X5998540Y9412553D01*
X6011758Y9435447D01*
X6018600Y9460982D01*
Y9487418D01*
X6011758Y9512953D01*
X5998540Y9535847D01*
X5979847Y9554540D01*
X5956953Y9567758D01*
X5931418Y9574600D01*
X5904982D01*
X5879551Y9567786D01*
X5512547Y9934790D01*
Y10617200D01*
X5509590Y10632066D01*
X5501169Y10644668D01*
X5122786Y11023051D01*
X5129600Y11048482D01*
Y11074918D01*
X5122758Y11100453D01*
X5109540Y11123347D01*
X5090847Y11142040D01*
X5067953Y11155258D01*
X5042418Y11162100D01*
D02*
G37*
G36*
X5677418Y9574600D02*
X5650982D01*
X5625447Y9567758D01*
X5602553Y9554540D01*
X5583860Y9535847D01*
X5570642Y9512953D01*
X5563800Y9487418D01*
Y9460982D01*
X5570642Y9435447D01*
X5583860Y9412553D01*
X5602553Y9393860D01*
X5625447Y9380642D01*
X5650982Y9373800D01*
X5677418D01*
X5702953Y9380642D01*
X5725847Y9393860D01*
X5744540Y9412553D01*
X5757758Y9435447D01*
X5764600Y9460982D01*
Y9487418D01*
X5757758Y9512953D01*
X5744540Y9535847D01*
X5725847Y9554540D01*
X5702953Y9567758D01*
X5677418Y9574600D01*
D02*
G37*
G36*
X5423418D02*
X5396982D01*
X5371447Y9567758D01*
X5348553Y9554540D01*
X5329860Y9535847D01*
X5316642Y9512953D01*
X5309800Y9487418D01*
Y9460982D01*
X5316642Y9435447D01*
X5329860Y9412553D01*
X5348553Y9393860D01*
X5371447Y9380642D01*
X5396982Y9373800D01*
X5423418D01*
X5448953Y9380642D01*
X5471847Y9393860D01*
X5490540Y9412553D01*
X5503758Y9435447D01*
X5510600Y9460982D01*
Y9487418D01*
X5503758Y9512953D01*
X5490540Y9535847D01*
X5471847Y9554540D01*
X5448953Y9567758D01*
X5423418Y9574600D01*
D02*
G37*
G36*
X5169418D02*
X5142982D01*
X5117447Y9567758D01*
X5094553Y9554540D01*
X5075860Y9535847D01*
X5062642Y9512953D01*
X5055800Y9487418D01*
Y9460982D01*
X5062642Y9435447D01*
X5075860Y9412553D01*
X5094553Y9393860D01*
X5117447Y9380642D01*
X5142982Y9373800D01*
X5169418D01*
X5194953Y9380642D01*
X5217847Y9393860D01*
X5236540Y9412553D01*
X5249758Y9435447D01*
X5256600Y9460982D01*
Y9487418D01*
X5249758Y9512953D01*
X5236540Y9535847D01*
X5217847Y9554540D01*
X5194953Y9567758D01*
X5169418Y9574600D01*
D02*
G37*
G36*
X4915418D02*
X4888982D01*
X4863447Y9567758D01*
X4840553Y9554540D01*
X4821860Y9535847D01*
X4808642Y9512953D01*
X4801800Y9487418D01*
Y9460982D01*
X4808642Y9435447D01*
X4821860Y9412553D01*
X4840553Y9393860D01*
X4863447Y9380642D01*
X4888982Y9373800D01*
X4915418D01*
X4940953Y9380642D01*
X4963847Y9393860D01*
X4982540Y9412553D01*
X4995758Y9435447D01*
X5002600Y9460982D01*
Y9487418D01*
X4995758Y9512953D01*
X4982540Y9535847D01*
X4963847Y9554540D01*
X4940953Y9567758D01*
X4915418Y9574600D01*
D02*
G37*
G36*
X4661418D02*
X4634982D01*
X4609447Y9567758D01*
X4586553Y9554540D01*
X4567860Y9535847D01*
X4554642Y9512953D01*
X4547800Y9487418D01*
Y9460982D01*
X4554642Y9435447D01*
X4567860Y9412553D01*
X4586553Y9393860D01*
X4609447Y9380642D01*
X4634982Y9373800D01*
X4661418D01*
X4686953Y9380642D01*
X4709847Y9393860D01*
X4728540Y9412553D01*
X4741758Y9435447D01*
X4748600Y9460982D01*
Y9487418D01*
X4741758Y9512953D01*
X4728540Y9535847D01*
X4709847Y9554540D01*
X4686953Y9567758D01*
X4661418Y9574600D01*
D02*
G37*
G36*
X3632718Y9434900D02*
X3606282D01*
X3580747Y9428058D01*
X3557853Y9414840D01*
X3539160Y9396147D01*
X3525942Y9373253D01*
X3519100Y9347718D01*
Y9321282D01*
X3525942Y9295747D01*
X3539160Y9272853D01*
X3557853Y9254160D01*
X3580747Y9240942D01*
X3606282Y9234100D01*
X3632718D01*
X3658253Y9240942D01*
X3681147Y9254160D01*
X3699840Y9272853D01*
X3713058Y9295747D01*
X3719900Y9321282D01*
Y9347718D01*
X3713058Y9373253D01*
X3699840Y9396147D01*
X3681147Y9414840D01*
X3658253Y9428058D01*
X3632718Y9434900D01*
D02*
G37*
G36*
X2870718D02*
X2844282D01*
X2818747Y9428058D01*
X2795853Y9414840D01*
X2777160Y9396147D01*
X2763942Y9373253D01*
X2757100Y9347718D01*
Y9321282D01*
X2763942Y9295747D01*
X2777160Y9272853D01*
X2795853Y9254160D01*
X2818747Y9240942D01*
X2844282Y9234100D01*
X2870718D01*
X2896253Y9240942D01*
X2919147Y9254160D01*
X2937840Y9272853D01*
X2951058Y9295747D01*
X2957900Y9321282D01*
Y9347718D01*
X2951058Y9373253D01*
X2937840Y9396147D01*
X2919147Y9414840D01*
X2896253Y9428058D01*
X2870718Y9434900D01*
D02*
G37*
G36*
Y9180900D02*
X2844282D01*
X2818747Y9174058D01*
X2795853Y9160840D01*
X2777160Y9142147D01*
X2763942Y9119253D01*
X2757100Y9093718D01*
Y9067282D01*
X2763942Y9041747D01*
X2777160Y9018853D01*
X2795853Y9000160D01*
X2818747Y8986942D01*
X2844282Y8980100D01*
X2870718D01*
X2896253Y8986942D01*
X2919147Y9000160D01*
X2937840Y9018853D01*
X2951058Y9041747D01*
X2957900Y9067282D01*
Y9093718D01*
X2951058Y9119253D01*
X2937840Y9142147D01*
X2919147Y9160840D01*
X2896253Y9174058D01*
X2870718Y9180900D01*
D02*
G37*
G36*
X3632718Y8926900D02*
X3606282D01*
X3580747Y8920058D01*
X3557853Y8906840D01*
X3539160Y8888147D01*
X3525942Y8865253D01*
X3519100Y8839718D01*
Y8813282D01*
X3525942Y8787747D01*
X3539160Y8764853D01*
X3557853Y8746160D01*
X3580747Y8732942D01*
X3606282Y8726100D01*
X3632718D01*
X3658253Y8732942D01*
X3681147Y8746160D01*
X3699840Y8764853D01*
X3713058Y8787747D01*
X3719900Y8813282D01*
Y8839718D01*
X3713058Y8865253D01*
X3699840Y8888147D01*
X3681147Y8906840D01*
X3658253Y8920058D01*
X3632718Y8926900D01*
D02*
G37*
G36*
X2870718D02*
X2844282D01*
X2818747Y8920058D01*
X2795853Y8906840D01*
X2777160Y8888147D01*
X2763942Y8865253D01*
X2757100Y8839718D01*
Y8813282D01*
X2763942Y8787747D01*
X2777160Y8764853D01*
X2795853Y8746160D01*
X2818747Y8732942D01*
X2844282Y8726100D01*
X2870718D01*
X2896253Y8732942D01*
X2919147Y8746160D01*
X2937840Y8764853D01*
X2951058Y8787747D01*
X2957900Y8813282D01*
Y8839718D01*
X2951058Y8865253D01*
X2937840Y8888147D01*
X2919147Y8906840D01*
X2896253Y8920058D01*
X2870718Y8926900D01*
D02*
G37*
G36*
X6185418Y8812600D02*
X6184900D01*
Y8724900D01*
X6272600D01*
Y8725418D01*
X6265758Y8750953D01*
X6252540Y8773847D01*
X6233847Y8792540D01*
X6210953Y8805758D01*
X6185418Y8812600D01*
D02*
G37*
G36*
X6159500D02*
X6158982D01*
X6133447Y8805758D01*
X6110553Y8792540D01*
X6091860Y8773847D01*
X6078642Y8750953D01*
X6071800Y8725418D01*
Y8724900D01*
X6159500D01*
Y8812600D01*
D02*
G37*
G36*
X6272600Y8699500D02*
X6184900D01*
Y8611800D01*
X6185418D01*
X6210953Y8618642D01*
X6233847Y8631860D01*
X6252540Y8650553D01*
X6265758Y8673447D01*
X6272600Y8698982D01*
Y8699500D01*
D02*
G37*
G36*
X6159500D02*
X6071800D01*
Y8698982D01*
X6078642Y8673447D01*
X6091860Y8650553D01*
X6110553Y8631860D01*
X6133447Y8618642D01*
X6158982Y8611800D01*
X6159500D01*
Y8699500D01*
D02*
G37*
G36*
X5931418Y8812600D02*
X5904982D01*
X5879447Y8805758D01*
X5856553Y8792540D01*
X5837860Y8773847D01*
X5824642Y8750953D01*
X5817800Y8725418D01*
Y8698982D01*
X5824642Y8673447D01*
X5837860Y8650553D01*
X5856553Y8631860D01*
X5879447Y8618642D01*
X5904982Y8611800D01*
X5931418D01*
X5956953Y8618642D01*
X5979847Y8631860D01*
X5998540Y8650553D01*
X6011758Y8673447D01*
X6018600Y8698982D01*
Y8725418D01*
X6011758Y8750953D01*
X5998540Y8773847D01*
X5979847Y8792540D01*
X5956953Y8805758D01*
X5931418Y8812600D01*
D02*
G37*
G36*
X5677418D02*
X5650982D01*
X5625447Y8805758D01*
X5602553Y8792540D01*
X5583860Y8773847D01*
X5570642Y8750953D01*
X5563800Y8725418D01*
Y8698982D01*
X5570642Y8673447D01*
X5583860Y8650553D01*
X5602553Y8631860D01*
X5625447Y8618642D01*
X5650982Y8611800D01*
X5677418D01*
X5702953Y8618642D01*
X5725847Y8631860D01*
X5744540Y8650553D01*
X5757758Y8673447D01*
X5764600Y8698982D01*
Y8725418D01*
X5757758Y8750953D01*
X5744540Y8773847D01*
X5725847Y8792540D01*
X5702953Y8805758D01*
X5677418Y8812600D01*
D02*
G37*
G36*
X5423418D02*
X5396982D01*
X5371447Y8805758D01*
X5348553Y8792540D01*
X5329860Y8773847D01*
X5316642Y8750953D01*
X5309800Y8725418D01*
Y8698982D01*
X5316642Y8673447D01*
X5329860Y8650553D01*
X5348553Y8631860D01*
X5371447Y8618642D01*
X5396982Y8611800D01*
X5423418D01*
X5448953Y8618642D01*
X5471847Y8631860D01*
X5490540Y8650553D01*
X5503758Y8673447D01*
X5510600Y8698982D01*
Y8725418D01*
X5503758Y8750953D01*
X5490540Y8773847D01*
X5471847Y8792540D01*
X5448953Y8805758D01*
X5423418Y8812600D01*
D02*
G37*
G36*
X5169418D02*
X5142982D01*
X5117447Y8805758D01*
X5094553Y8792540D01*
X5075860Y8773847D01*
X5062642Y8750953D01*
X5055800Y8725418D01*
Y8698982D01*
X5062642Y8673447D01*
X5075860Y8650553D01*
X5094553Y8631860D01*
X5117447Y8618642D01*
X5142982Y8611800D01*
X5169418D01*
X5194953Y8618642D01*
X5217847Y8631860D01*
X5236540Y8650553D01*
X5249758Y8673447D01*
X5256600Y8698982D01*
Y8725418D01*
X5249758Y8750953D01*
X5236540Y8773847D01*
X5217847Y8792540D01*
X5194953Y8805758D01*
X5169418Y8812600D01*
D02*
G37*
G36*
X4915418D02*
X4888982D01*
X4863447Y8805758D01*
X4840553Y8792540D01*
X4821860Y8773847D01*
X4808642Y8750953D01*
X4801800Y8725418D01*
Y8698982D01*
X4808642Y8673447D01*
X4821860Y8650553D01*
X4840553Y8631860D01*
X4863447Y8618642D01*
X4888982Y8611800D01*
X4915418D01*
X4940953Y8618642D01*
X4963847Y8631860D01*
X4982540Y8650553D01*
X4995758Y8673447D01*
X5002600Y8698982D01*
Y8725418D01*
X4995758Y8750953D01*
X4982540Y8773847D01*
X4963847Y8792540D01*
X4940953Y8805758D01*
X4915418Y8812600D01*
D02*
G37*
G36*
X4661418D02*
X4634982D01*
X4609447Y8805758D01*
X4586553Y8792540D01*
X4567860Y8773847D01*
X4554642Y8750953D01*
X4547800Y8725418D01*
Y8698982D01*
X4554642Y8673447D01*
X4567860Y8650553D01*
X4586553Y8631860D01*
X4609447Y8618642D01*
X4634982Y8611800D01*
X4661418D01*
X4686953Y8618642D01*
X4709847Y8631860D01*
X4728540Y8650553D01*
X4741758Y8673447D01*
X4748600Y8698982D01*
Y8725418D01*
X4741758Y8750953D01*
X4728540Y8773847D01*
X4709847Y8792540D01*
X4686953Y8805758D01*
X4661418Y8812600D01*
D02*
G37*
G36*
X2870718Y8672900D02*
X2870200D01*
Y8585200D01*
X2957900D01*
Y8585718D01*
X2951058Y8611253D01*
X2937840Y8634147D01*
X2919147Y8652840D01*
X2896253Y8666058D01*
X2870718Y8672900D01*
D02*
G37*
G36*
X2844800D02*
X2844282D01*
X2818747Y8666058D01*
X2795853Y8652840D01*
X2777160Y8634147D01*
X2763942Y8611253D01*
X2757100Y8585718D01*
Y8585200D01*
X2844800D01*
Y8672900D01*
D02*
G37*
G36*
X6667031Y8761498D02*
X6642569D01*
X6618942Y8755167D01*
X6597758Y8742937D01*
X6580462Y8725640D01*
X6568231Y8704456D01*
X6561900Y8680829D01*
Y8656368D01*
X6568231Y8632740D01*
X6580462Y8611556D01*
X6597758Y8594260D01*
X6618942Y8582029D01*
X6642569Y8575698D01*
X6667031D01*
X6690658Y8582029D01*
X6711842Y8594260D01*
X6729138Y8611556D01*
X6741369Y8632740D01*
X6747700Y8656368D01*
Y8680829D01*
X6741369Y8704456D01*
X6729138Y8725640D01*
X6711842Y8742937D01*
X6690658Y8755167D01*
X6667031Y8761498D01*
D02*
G37*
G36*
X3719900Y8672900D02*
X3519100D01*
Y8472100D01*
X3719900D01*
Y8672900D01*
D02*
G37*
G36*
X2957900Y8559800D02*
X2870200D01*
Y8472100D01*
X2870718D01*
X2896253Y8478942D01*
X2919147Y8492160D01*
X2937840Y8510853D01*
X2951058Y8533747D01*
X2957900Y8559282D01*
Y8559800D01*
D02*
G37*
G36*
X2844800D02*
X2757100D01*
Y8559282D01*
X2763942Y8533747D01*
X2777160Y8510853D01*
X2795853Y8492160D01*
X2818747Y8478942D01*
X2844282Y8472100D01*
X2844800D01*
Y8559800D01*
D02*
G37*
G36*
X6016300Y8361802D02*
X5845500D01*
Y8191002D01*
X6016300D01*
Y8361802D01*
D02*
G37*
G36*
X4158099Y8188000D02*
X3987299D01*
Y8017200D01*
X4158099D01*
Y8188000D01*
D02*
G37*
G36*
X3583943D02*
X3561457D01*
X3539737Y8182180D01*
X3520263Y8170937D01*
X3504363Y8155037D01*
X3493120Y8135563D01*
X3487300Y8113843D01*
Y8091357D01*
X3493120Y8069637D01*
X3504363Y8050163D01*
X3520263Y8034263D01*
X3539737Y8023020D01*
X3561457Y8017200D01*
X3583943D01*
X3605663Y8023020D01*
X3625137Y8034263D01*
X3641037Y8050163D01*
X3652280Y8069637D01*
X3658100Y8091357D01*
Y8113843D01*
X3652280Y8135563D01*
X3641037Y8155037D01*
X3625137Y8170937D01*
X3605663Y8182180D01*
X3583943Y8188000D01*
D02*
G37*
G36*
X5394302Y8093900D02*
X5208502D01*
Y7908100D01*
X5394302D01*
Y8093900D01*
D02*
G37*
G36*
X4413629D02*
X4389168D01*
X4365540Y8087569D01*
X4344356Y8075338D01*
X4327060Y8058042D01*
X4314829Y8036858D01*
X4308498Y8013231D01*
Y7988769D01*
X4314829Y7965142D01*
X4327060Y7943958D01*
X4344356Y7926662D01*
X4365540Y7914431D01*
X4389168Y7908100D01*
X4413629D01*
X4437256Y7914431D01*
X4458440Y7926662D01*
X4475737Y7943958D01*
X4487967Y7965142D01*
X4494298Y7988769D01*
Y8013231D01*
X4487967Y8036858D01*
X4475737Y8058042D01*
X4458440Y8075338D01*
X4437256Y8087569D01*
X4413629Y8093900D01*
D02*
G37*
G36*
X8399275Y8049400D02*
X8364725D01*
X8330838Y8042659D01*
X8298917Y8029437D01*
X8270189Y8010242D01*
X8245758Y7985811D01*
X8226563Y7957083D01*
X8213341Y7925162D01*
X8206600Y7891275D01*
Y7856725D01*
X8213341Y7822838D01*
X8226563Y7790917D01*
X8245758Y7762189D01*
X8270189Y7737758D01*
X8298917Y7718563D01*
X8330838Y7705341D01*
X8364725Y7698600D01*
X8399275D01*
X8433162Y7705341D01*
X8465083Y7718563D01*
X8493811Y7737758D01*
X8518242Y7762189D01*
X8537437Y7790917D01*
X8550659Y7822838D01*
X8557400Y7856725D01*
Y7891275D01*
X8550659Y7925162D01*
X8537437Y7957083D01*
X8518242Y7985811D01*
X8493811Y8010242D01*
X8465083Y8029437D01*
X8433162Y8042659D01*
X8399275Y8049400D01*
D02*
G37*
G36*
X3014475D02*
X2979925D01*
X2946038Y8042659D01*
X2914117Y8029437D01*
X2885389Y8010242D01*
X2860958Y7985811D01*
X2841763Y7957083D01*
X2828541Y7925162D01*
X2821800Y7891275D01*
Y7856725D01*
X2828541Y7822838D01*
X2841763Y7790917D01*
X2860958Y7762189D01*
X2885389Y7737758D01*
X2914117Y7718563D01*
X2946038Y7705341D01*
X2979925Y7698600D01*
X3014475D01*
X3048362Y7705341D01*
X3080283Y7718563D01*
X3109011Y7737758D01*
X3133442Y7762189D01*
X3152637Y7790917D01*
X3165859Y7822838D01*
X3172600Y7856725D01*
Y7891275D01*
X3165859Y7925162D01*
X3152637Y7957083D01*
X3133442Y7985811D01*
X3109011Y8010242D01*
X3080283Y8029437D01*
X3048362Y8042659D01*
X3014475Y8049400D01*
D02*
G37*
G36*
X5942143Y7861798D02*
X5919657D01*
X5897937Y7855978D01*
X5878463Y7844735D01*
X5862563Y7828835D01*
X5851320Y7809361D01*
X5845500Y7787641D01*
Y7765155D01*
X5851320Y7743435D01*
X5862563Y7723961D01*
X5878463Y7708061D01*
X5897937Y7696818D01*
X5919657Y7690998D01*
X5942143D01*
X5963863Y7696818D01*
X5983337Y7708061D01*
X5999237Y7723961D01*
X6010480Y7743435D01*
X6016300Y7765155D01*
Y7787641D01*
X6010480Y7809361D01*
X5999237Y7828835D01*
X5983337Y7844735D01*
X5963863Y7855978D01*
X5942143Y7861798D01*
D02*
G37*
%LPD*%
D10*
X5473700Y9918700D02*
X5918200Y9474200D01*
X5473700Y9918700D02*
Y10617200D01*
X5029200Y11061700D02*
X5473700Y10617200D01*
X2819400Y11468100D02*
X3302000Y10985500D01*
X2819400Y12713382D02*
X3352118Y13246100D01*
X2819400Y11468100D02*
Y12713382D01*
X2654300Y12941299D02*
X3073400Y13360400D01*
X2654300Y10553700D02*
X3238500Y9969500D01*
X2654300Y10553700D02*
Y12941299D01*
X3352118Y13246100D02*
X4216400D01*
X4651300Y13681000D01*
Y14224001D01*
X3073400Y13360400D02*
X3848100D01*
X4051300Y13563600D01*
Y14224001D01*
X4076700Y12242800D02*
X4432300Y11887200D01*
X5633648D01*
X6297748Y11223100D01*
X6620400D01*
X7150100Y10693400D01*
X4660900Y9042400D02*
X6362700D01*
X7835900Y10515600D02*
Y11277600D01*
X6362700Y9042400D02*
X7835900Y10515600D01*
X7658100Y11455400D02*
X7835900Y11277600D01*
X4229100Y9474200D02*
X4660900Y9042400D01*
X4229100Y9474200D02*
Y10820400D01*
X4064000Y10985500D02*
X4229100Y10820400D01*
X4834000Y11764900D02*
X5029200Y11569700D01*
X2997200Y11764900D02*
X4834000D01*
X2997200Y11607800D02*
Y11764900D01*
Y11607800D02*
X3111500Y11493500D01*
X3302000D01*
X3238500Y9461500D02*
Y9969500D01*
Y9461500D02*
X3619500Y9080500D01*
X3822700Y12242800D02*
X4076700D01*
X3314700Y12750800D02*
X3822700Y12242800D01*
X4406900Y12136500D02*
Y12420600D01*
X4076700Y12750800D02*
X4406900Y12420600D01*
X3851300Y13615900D02*
Y14224001D01*
X3302000Y10985500D02*
X4064000D01*
D11*
X2852800Y13614400D02*
D03*
X2984500Y13123801D02*
D03*
X4406900Y13136501D02*
D03*
X7008354Y9984246D02*
D03*
X6464300Y12323700D02*
D03*
X2997200Y10764900D02*
D03*
X4445000Y10244200D02*
D03*
X6616700Y14139799D02*
D03*
X7069201Y13411200D02*
D03*
D12*
X3852800Y13614400D02*
D03*
X8069199Y13411200D02*
D03*
D13*
X5066800Y12509500D02*
D03*
Y12763500D02*
D03*
X4651300Y14224001D02*
D03*
X4451300D02*
D03*
X4251300D02*
D03*
X4051300D02*
D03*
X3851300D02*
D03*
X5955802Y12446000D02*
D03*
Y12192000D02*
D03*
X8191500Y12446000D02*
D03*
Y12192000D02*
D03*
X5461000Y13832301D02*
D03*
X7514399Y14147800D02*
D03*
X7137400Y12446000D02*
D03*
Y12192000D02*
D03*
X5930900Y7776398D02*
D03*
X3572700Y8102600D02*
D03*
D14*
X5066800Y13017500D02*
D03*
X3651300Y14224001D02*
D03*
X5955802Y12700000D02*
D03*
X8191500D02*
D03*
X7014400Y14147800D02*
D03*
X7137400Y12700000D02*
D03*
X4072699Y8102600D02*
D03*
D15*
X4648200Y8712200D02*
D03*
X4902200D02*
D03*
X5156200D02*
D03*
X5410200D02*
D03*
X5664200D02*
D03*
X5918200D02*
D03*
X4902200Y9474200D02*
D03*
X5156200D02*
D03*
X5410200D02*
D03*
X5664200D02*
D03*
X5918200D02*
D03*
X6172200Y8712200D02*
D03*
X4648200Y9474200D02*
D03*
X5791200Y10299700D02*
D03*
Y10553700D02*
D03*
Y10807700D02*
D03*
Y11061700D02*
D03*
Y11315700D02*
D03*
Y11569700D02*
D03*
X5029200Y10045700D02*
D03*
Y10299700D02*
D03*
Y10553700D02*
D03*
Y10807700D02*
D03*
Y11061700D02*
D03*
Y11315700D02*
D03*
Y11569700D02*
D03*
X2857500Y10096500D02*
D03*
Y9842500D02*
D03*
Y9588500D02*
D03*
Y9334500D02*
D03*
Y9080500D02*
D03*
Y8826500D02*
D03*
Y8572500D02*
D03*
X3619500Y10096500D02*
D03*
Y9842500D02*
D03*
Y9588500D02*
D03*
Y9334500D02*
D03*
Y9080500D02*
D03*
Y8826500D02*
D03*
X3302000Y11239500D02*
D03*
Y10985500D02*
D03*
Y10731500D02*
D03*
X4064000Y11493500D02*
D03*
Y11239500D02*
D03*
Y10985500D02*
D03*
Y10731500D02*
D03*
X7658100Y11455400D02*
D03*
X7404100D02*
D03*
X7150100D02*
D03*
X6896100D02*
D03*
X7658100Y10693400D02*
D03*
X7404100D02*
D03*
X7150100D02*
D03*
X3314700Y12750800D02*
D03*
Y12496800D02*
D03*
Y12242800D02*
D03*
X4076700Y13004800D02*
D03*
Y12750800D02*
D03*
Y12496800D02*
D03*
Y12242800D02*
D03*
D16*
X6172200Y9474200D02*
D03*
X6896100Y10693400D02*
D03*
D17*
X2984500Y12123800D02*
D03*
X4406900Y12136500D02*
D03*
X6464300Y11323700D02*
D03*
X2997200Y11764900D02*
D03*
X4445000Y11244200D02*
D03*
X6616700Y13139803D02*
D03*
D18*
X6301246Y10691354D02*
D03*
D19*
X5791200Y10045700D02*
D03*
X3619500Y8572500D02*
D03*
X3302000Y11493500D02*
D03*
X3314700Y13004800D02*
D03*
D20*
X2997200Y7874000D02*
D03*
X8382000D02*
D03*
Y14020799D02*
D03*
X2997200D02*
D03*
D21*
X5461000Y14082298D02*
D03*
X5930900Y8276402D02*
D03*
D22*
X6159500Y13449300D02*
D03*
D23*
Y13703300D02*
D03*
Y13957300D02*
D03*
D24*
X6654800Y9568602D02*
D03*
D25*
Y8668598D02*
D03*
X4401398Y8001000D02*
D03*
D26*
X5301402D02*
D03*
%TF.MD5,74364246d5a642363311180f27f6e520*%
M02*
