%TF.GenerationSoftware,Altium Limited,Altium Designer,25.1.2 (22)*%
G04 Layer_Color=16711935*
%FSLAX45Y45*%
%MOMM*%
%TF.SameCoordinates,048E6D36-8505-433D-A829-9FA65E1B61E1*%
%TF.FilePolarity,Negative*%
%TF.FileFunction,Soldermask,Bot*%
%TF.Part,Single*%
G01*
G75*
%TA.AperFunction,ComponentPad*%
%ADD11C,1.25000*%
%ADD12R,1.25000X1.25000*%
%ADD27C,1.77800*%
%ADD28R,1.77800X1.77800*%
%ADD29R,1.77800X1.77800*%
%ADD30P,2.51447X4X360.0*%
%ADD32C,1.65100*%
%ADD33R,1.65100X1.65100*%
%ADD51C,1.98120*%
%ADD52R,1.98120X1.98120*%
%ADD53R,1.98120X1.98120*%
%TA.AperFunction,ViaPad*%
%ADD54C,1.98120*%
%TA.AperFunction,ComponentPad*%
%ADD55R,2.23520X2.23520*%
%ADD56C,2.23520*%
D11*
X338200Y6134100D02*
D03*
D12*
X1338200D02*
D03*
D27*
X2552200Y5029200D02*
D03*
Y5283200D02*
D03*
X469900Y5643500D02*
D03*
X1892300Y5656200D02*
D03*
X4493754Y2503946D02*
D03*
X3949700Y4843400D02*
D03*
X482600Y3284600D02*
D03*
X1930400Y2763900D02*
D03*
X3441202Y4965700D02*
D03*
Y4711700D02*
D03*
X5676900Y4965700D02*
D03*
Y4711700D02*
D03*
X2946400Y6352002D02*
D03*
X4999799Y6667500D02*
D03*
X4622800Y4965700D02*
D03*
Y4711700D02*
D03*
X4102100Y6659500D02*
D03*
X4554601Y5930900D02*
D03*
X3416300Y296098D02*
D03*
X1058100Y622300D02*
D03*
D28*
X2552200Y5537200D02*
D03*
X3441202Y5219700D02*
D03*
X5676900D02*
D03*
X4499800Y6667500D02*
D03*
X4622800Y5219700D02*
D03*
X5554599Y5930900D02*
D03*
X1558099Y622300D02*
D03*
D29*
X469900Y4643500D02*
D03*
X1892300Y4656200D02*
D03*
X3949700Y3843400D02*
D03*
X482600Y4284600D02*
D03*
X1930400Y3763900D02*
D03*
X2946400Y6601998D02*
D03*
X4102100Y5659502D02*
D03*
X3416300Y796102D02*
D03*
D30*
X3786646Y3211054D02*
D03*
D32*
X2136700Y6743700D02*
D03*
X1936700D02*
D03*
X1736700D02*
D03*
X1536700D02*
D03*
X1336700D02*
D03*
D33*
X1136700D02*
D03*
D51*
X2133600Y1231900D02*
D03*
X2387600D02*
D03*
X2641600D02*
D03*
X2895600D02*
D03*
X3149600D02*
D03*
X3403600D02*
D03*
X2387600Y1993900D02*
D03*
X2641600D02*
D03*
X2895600D02*
D03*
X3149600D02*
D03*
X3403600D02*
D03*
X3657600Y1231900D02*
D03*
X2133600Y1993900D02*
D03*
X3276600Y2819400D02*
D03*
Y3073400D02*
D03*
Y3327400D02*
D03*
Y3581400D02*
D03*
Y3835400D02*
D03*
Y4089400D02*
D03*
X2514600Y2565400D02*
D03*
Y2819400D02*
D03*
Y3073400D02*
D03*
Y3327400D02*
D03*
Y3581400D02*
D03*
Y3835400D02*
D03*
Y4089400D02*
D03*
X342900Y2616200D02*
D03*
Y2362200D02*
D03*
Y2108200D02*
D03*
Y1854200D02*
D03*
Y1600200D02*
D03*
Y1346200D02*
D03*
Y1092200D02*
D03*
X1104900Y2616200D02*
D03*
Y2362200D02*
D03*
Y2108200D02*
D03*
Y1854200D02*
D03*
Y1600200D02*
D03*
Y1346200D02*
D03*
X787400Y3759200D02*
D03*
Y3505200D02*
D03*
Y3251200D02*
D03*
X1549400Y4013200D02*
D03*
Y3759200D02*
D03*
Y3505200D02*
D03*
Y3251200D02*
D03*
X5143500Y3975100D02*
D03*
X4889500D02*
D03*
X4635500D02*
D03*
X4381500D02*
D03*
X5143500Y3213100D02*
D03*
X4889500D02*
D03*
X4635500D02*
D03*
X800100Y5270500D02*
D03*
Y5016500D02*
D03*
Y4762500D02*
D03*
X1562100Y5524500D02*
D03*
Y5270500D02*
D03*
Y5016500D02*
D03*
Y4762500D02*
D03*
X4140200Y1188298D02*
D03*
X1886798Y520700D02*
D03*
D52*
X3657600Y1993900D02*
D03*
X4381500Y3213100D02*
D03*
X4140200Y2088302D02*
D03*
D53*
X3276600Y2565400D02*
D03*
X1104900Y1092200D02*
D03*
X787400Y4013200D02*
D03*
X800100Y5524500D02*
D03*
X2786802Y520700D02*
D03*
D54*
X482600Y393700D02*
D03*
X5867400D02*
D03*
Y6540500D02*
D03*
X482600D02*
D03*
D55*
X3644900Y5969000D02*
D03*
D56*
Y6223000D02*
D03*
Y6477000D02*
D03*
%TF.MD5,73d112bc87ac030fbf8f49a12858e81e*%
M02*
