%TF.GenerationSoftware,Altium Limited,Altium Designer,25.1.2 (22)*%
G04 Layer_Physical_Order=2*
G04 Layer_Color=16711680*
%FSLAX45Y45*%
%MOMM*%
%TF.SameCoordinates,4BC43169-6B9A-449D-A763-764CEB413953*%
%TF.FilePolarity,Positive*%
%TF.FileFunction,Copper,L2,Bot,Signal*%
%TF.Part,Single*%
G01*
G75*
%TA.AperFunction,Conductor*%
%ADD10C,0.25400*%
%TA.AperFunction,ComponentPad*%
%ADD11C,1.25000*%
%ADD12R,1.25000X1.25000*%
%ADD27C,1.77800*%
%ADD28R,1.77800X1.77800*%
%ADD29R,1.77800X1.77800*%
%ADD30P,2.51447X4X360.0*%
%TA.AperFunction,ViaPad*%
%ADD31C,1.77800*%
%TA.AperFunction,ComponentPad*%
%ADD32C,1.65100*%
%ADD33R,1.65100X1.65100*%
%ADD34R,2.03200X2.03200*%
%ADD35C,2.03200*%
G36*
X8699500Y7620000D02*
X2590800D01*
Y13423900D01*
Y14300200D01*
X3543350D01*
Y14236700D01*
X3651300D01*
Y14224001D01*
X3664000D01*
Y14116051D01*
X3759250D01*
Y14145425D01*
X3771950Y14150687D01*
X3785017Y14137619D01*
X3809633Y14123407D01*
X3837088Y14116051D01*
X3865512D01*
X3892967Y14123407D01*
X3917583Y14137619D01*
X3937681Y14157716D01*
X3944950Y14170306D01*
X3957650D01*
X3964919Y14157716D01*
X3985017Y14137619D01*
X4009633Y14123407D01*
X4037088Y14116051D01*
X4065512D01*
X4092967Y14123407D01*
X4117583Y14137619D01*
X4137681Y14157716D01*
X4144950Y14170306D01*
X4157650D01*
X4164919Y14157716D01*
X4185017Y14137619D01*
X4209633Y14123407D01*
X4237088Y14116051D01*
X4265512D01*
X4292967Y14123407D01*
X4317583Y14137619D01*
X4337681Y14157716D01*
X4344950Y14170306D01*
X4357650D01*
X4364919Y14157716D01*
X4385017Y14137619D01*
X4409633Y14123407D01*
X4437088Y14116051D01*
X4465512D01*
X4492967Y14123407D01*
X4517583Y14137619D01*
X4537681Y14157716D01*
X4544950Y14170306D01*
X4557650D01*
X4564919Y14157716D01*
X4585017Y14137619D01*
X4609633Y14123407D01*
X4637088Y14116051D01*
X4665512D01*
X4692967Y14123407D01*
X4717583Y14137619D01*
X4737681Y14157716D01*
X4751893Y14182333D01*
X4759250Y14209789D01*
Y14238213D01*
X4751893Y14265668D01*
X4739288Y14287500D01*
X4744031Y14300200D01*
X8699500D01*
Y7620000D01*
D02*
G37*
%LPC*%
G36*
X7128700Y14262100D02*
X6900100D01*
Y14178647D01*
X6724623D01*
X6723211Y14183919D01*
X6708163Y14209982D01*
X6686882Y14231264D01*
X6660818Y14246310D01*
X6631748Y14254100D01*
X6601652D01*
X6572582Y14246310D01*
X6546518Y14231264D01*
X6525237Y14209982D01*
X6510189Y14183919D01*
X6502400Y14154848D01*
Y14124751D01*
X6510189Y14095682D01*
X6513778Y14089465D01*
X6232255Y13807942D01*
X6208520Y13821645D01*
X6199918Y13823950D01*
Y13836650D01*
X6208520Y13838956D01*
X6237480Y13855675D01*
X6261125Y13879320D01*
X6277845Y13908279D01*
X6286500Y13940581D01*
Y13974020D01*
X6277845Y14006320D01*
X6261125Y14035280D01*
X6237480Y14058925D01*
X6208520Y14075645D01*
X6176220Y14084300D01*
X6142780D01*
X6110480Y14075645D01*
X6081520Y14058925D01*
X6057875Y14035280D01*
X6041155Y14006320D01*
X6032500Y13974020D01*
Y13940581D01*
X6041155Y13908279D01*
X6057875Y13879320D01*
X6081520Y13855675D01*
X6110480Y13838956D01*
X6119082Y13836650D01*
Y13823950D01*
X6110480Y13821645D01*
X6081520Y13804926D01*
X6057875Y13781281D01*
X6041155Y13752319D01*
X6032500Y13720020D01*
Y13686580D01*
X6041155Y13654280D01*
X6045293Y13647112D01*
X5928831Y13530650D01*
X5920411Y13518048D01*
X5917453Y13503181D01*
Y12814301D01*
X5841502D01*
Y12585700D01*
X6070102D01*
Y12661153D01*
X7023100D01*
Y12585700D01*
X7251700D01*
Y12661153D01*
X8077200D01*
Y12585700D01*
X8305800D01*
Y12814301D01*
X8077200D01*
Y12738847D01*
X7251700D01*
Y12814301D01*
X7023100D01*
Y12738847D01*
X6070102D01*
Y12814301D01*
X5995147D01*
Y13487091D01*
X6020767Y13512711D01*
X6032500Y13507851D01*
Y13322301D01*
X6231563D01*
X6441530Y13112334D01*
X6454132Y13103912D01*
X6468998Y13100957D01*
X6502400D01*
Y13025502D01*
X6731000D01*
Y13100957D01*
X6797803D01*
X6812669Y13103912D01*
X6825272Y13112334D01*
X7020357Y13307417D01*
X7025083Y13304689D01*
X7054153Y13296899D01*
X7084249D01*
X7113319Y13304689D01*
X7139383Y13319737D01*
X7160664Y13341019D01*
X7175712Y13367082D01*
X7183501Y13396152D01*
Y13426248D01*
X7175712Y13455318D01*
X7160664Y13481383D01*
X7139383Y13502663D01*
X7113319Y13517711D01*
X7084249Y13525500D01*
X7054153D01*
X7025083Y13517711D01*
X6999019Y13502663D01*
X6977738Y13481383D01*
X6962690Y13455318D01*
X6954901Y13426248D01*
Y13396152D01*
X6962690Y13367082D01*
X6965419Y13362357D01*
X6781712Y13178648D01*
X6731000D01*
Y13254102D01*
X6502400D01*
Y13178648D01*
X6485089D01*
X6286500Y13377237D01*
Y13576300D01*
X6218929D01*
X6215526Y13589000D01*
X6237480Y13601675D01*
X6261125Y13625320D01*
X6277845Y13654280D01*
X6286500Y13686580D01*
Y13720020D01*
X6279676Y13745488D01*
X6569345Y14035158D01*
X6572582Y14033289D01*
X6601652Y14025500D01*
X6631748D01*
X6660818Y14033289D01*
X6686882Y14048337D01*
X6708163Y14069618D01*
X6723211Y14095682D01*
X6724623Y14100954D01*
X6900100D01*
Y14033501D01*
X7128700D01*
Y14262100D01*
D02*
G37*
G36*
X7529447D02*
X7527099D01*
Y14160500D01*
X7628699D01*
Y14162848D01*
X7620910Y14191917D01*
X7605862Y14217982D01*
X7584581Y14239262D01*
X7558517Y14254311D01*
X7529447Y14262100D01*
D02*
G37*
G36*
X7501699D02*
X7499351D01*
X7470281Y14254311D01*
X7444217Y14239262D01*
X7422936Y14217982D01*
X7407888Y14191917D01*
X7400099Y14162848D01*
Y14160500D01*
X7501699D01*
Y14262100D01*
D02*
G37*
G36*
X3638600Y14211301D02*
X3543350D01*
Y14116051D01*
X3638600D01*
Y14211301D01*
D02*
G37*
G36*
X7628699Y14135100D02*
X7527099D01*
Y14033501D01*
X7529447D01*
X7558517Y14041289D01*
X7584581Y14056337D01*
X7605862Y14077618D01*
X7620910Y14103682D01*
X7628699Y14132751D01*
Y14135100D01*
D02*
G37*
G36*
X7501699D02*
X7400099D01*
Y14132751D01*
X7407888Y14103682D01*
X7422936Y14077618D01*
X7444217Y14056337D01*
X7470281Y14041289D01*
X7499351Y14033501D01*
X7501699D01*
Y14135100D01*
D02*
G37*
G36*
X5575300Y14196597D02*
X5346700D01*
Y13967998D01*
X5575300D01*
Y14196597D01*
D02*
G37*
G36*
X8399275Y14196201D02*
X8364725D01*
X8330838Y14189459D01*
X8298917Y14176237D01*
X8270189Y14157042D01*
X8245758Y14132611D01*
X8226563Y14103883D01*
X8213341Y14071962D01*
X8206600Y14038075D01*
Y14003525D01*
X8213341Y13969638D01*
X8226563Y13937717D01*
X8245758Y13908989D01*
X8270189Y13884558D01*
X8298917Y13865363D01*
X8330838Y13852141D01*
X8364725Y13845399D01*
X8399275D01*
X8433162Y13852141D01*
X8465083Y13865363D01*
X8493811Y13884558D01*
X8518242Y13908989D01*
X8537437Y13937717D01*
X8550659Y13969638D01*
X8557400Y14003525D01*
Y14038075D01*
X8550659Y14071962D01*
X8537437Y14103883D01*
X8518242Y14132611D01*
X8493811Y14157042D01*
X8465083Y14176237D01*
X8433162Y14189459D01*
X8399275Y14196201D01*
D02*
G37*
G36*
X3014475D02*
X2979925D01*
X2946038Y14189459D01*
X2914117Y14176237D01*
X2885389Y14157042D01*
X2860958Y14132611D01*
X2841763Y14103883D01*
X2828541Y14071962D01*
X2821800Y14038075D01*
Y14003525D01*
X2828541Y13969638D01*
X2841763Y13937717D01*
X2860958Y13908989D01*
X2885389Y13884558D01*
X2914117Y13865363D01*
X2946038Y13852141D01*
X2979925Y13845399D01*
X3014475D01*
X3048362Y13852141D01*
X3080283Y13865363D01*
X3109011Y13884558D01*
X3133442Y13908989D01*
X3152637Y13937717D01*
X3165859Y13969638D01*
X3172600Y14003525D01*
Y14038075D01*
X3165859Y14071962D01*
X3152637Y14103883D01*
X3133442Y14132611D01*
X3109011Y14157042D01*
X3080283Y14176237D01*
X3048362Y14189459D01*
X3014475Y14196201D01*
D02*
G37*
G36*
X5476048Y13946602D02*
X5473700D01*
Y13845003D01*
X5575300D01*
Y13847350D01*
X5567511Y13876421D01*
X5552463Y13902483D01*
X5531182Y13923764D01*
X5505118Y13938812D01*
X5476048Y13946602D01*
D02*
G37*
G36*
X5448300D02*
X5445952D01*
X5416882Y13938812D01*
X5390818Y13923764D01*
X5369537Y13902483D01*
X5354489Y13876421D01*
X5346700Y13847350D01*
Y13845003D01*
X5448300D01*
Y13946602D01*
D02*
G37*
G36*
X5575300Y13819601D02*
X5473700D01*
Y13718002D01*
X5476048D01*
X5505118Y13725790D01*
X5531182Y13740839D01*
X5552463Y13762120D01*
X5567511Y13788184D01*
X5575300Y13817255D01*
Y13819601D01*
D02*
G37*
G36*
X5448300D02*
X5346700D01*
Y13817255D01*
X5354489Y13788184D01*
X5369537Y13762120D01*
X5390818Y13740839D01*
X5416882Y13725790D01*
X5445952Y13718002D01*
X5448300D01*
Y13819601D01*
D02*
G37*
G36*
X3940700Y13702299D02*
X3764900D01*
Y13526500D01*
X3940700D01*
Y13702299D01*
D02*
G37*
G36*
X8183499Y13525500D02*
X8081899D01*
Y13423900D01*
X8183499D01*
Y13525500D01*
D02*
G37*
G36*
X8056499D02*
X7954899D01*
Y13423900D01*
X8056499D01*
Y13525500D01*
D02*
G37*
G36*
X8183499Y13398500D02*
X8081899D01*
Y13296899D01*
X8183499D01*
Y13398500D01*
D02*
G37*
G36*
X8056499D02*
X7954899D01*
Y13296899D01*
X8056499D01*
Y13398500D01*
D02*
G37*
G36*
X4421948Y13250800D02*
X4391852D01*
X4362782Y13243011D01*
X4336718Y13227963D01*
X4315437Y13206682D01*
X4300389Y13180618D01*
X4292600Y13151547D01*
Y13121452D01*
X4300389Y13092381D01*
X4315437Y13066318D01*
X4336718Y13045036D01*
X4362782Y13029990D01*
X4391852Y13022200D01*
X4421948D01*
X4451018Y13029990D01*
X4477082Y13045036D01*
X4498363Y13066318D01*
X4513411Y13092381D01*
X4521200Y13121452D01*
Y13151547D01*
X4513411Y13180618D01*
X4498363Y13206682D01*
X4477082Y13227963D01*
X4451018Y13243011D01*
X4421948Y13250800D01*
D02*
G37*
G36*
X2999548Y13238100D02*
X2969452D01*
X2940382Y13230312D01*
X2914318Y13215263D01*
X2893037Y13193982D01*
X2877989Y13167918D01*
X2870200Y13138847D01*
Y13108752D01*
X2877989Y13079681D01*
X2893037Y13053618D01*
X2914318Y13032336D01*
X2940382Y13017290D01*
X2969452Y13009500D01*
X2999548D01*
X3028618Y13017290D01*
X3054682Y13032336D01*
X3075963Y13053618D01*
X3091011Y13079681D01*
X3098800Y13108752D01*
Y13138847D01*
X3091011Y13167918D01*
X3075963Y13193982D01*
X3054682Y13215263D01*
X3028618Y13230312D01*
X2999548Y13238100D01*
D02*
G37*
G36*
X2864372Y13702299D02*
X2841228D01*
X2818872Y13696310D01*
X2798828Y13684737D01*
X2782463Y13668372D01*
X2770890Y13648328D01*
X2764900Y13625972D01*
Y13602827D01*
X2770890Y13580472D01*
X2782463Y13560428D01*
X2798828Y13544063D01*
X2818872Y13532491D01*
X2841228Y13526500D01*
X2864372D01*
X2886728Y13532491D01*
X2906772Y13544063D01*
X2921644Y13558936D01*
X3239028D01*
X3453653Y13344308D01*
Y12944691D01*
X3440733Y12931770D01*
X3429000Y12936630D01*
Y13119099D01*
X3200400D01*
Y12945438D01*
X2957031Y12702069D01*
X2948611Y12689466D01*
X2945653Y12674600D01*
Y12238100D01*
X2870200D01*
Y12064437D01*
X2703031Y11897269D01*
X2694611Y11884666D01*
X2691653Y11869800D01*
Y10634818D01*
X2694611Y10619953D01*
X2703031Y10607350D01*
X3063550Y10246831D01*
X3076153Y10238411D01*
X3091018Y10235453D01*
X3840819D01*
X4375541Y9700731D01*
X4388144Y9692311D01*
X4403009Y9689353D01*
X5156200D01*
X5171066Y9692311D01*
X5183669Y9700731D01*
X5489791Y10006853D01*
X5676900D01*
Y9931400D01*
X5905500D01*
Y10160000D01*
X5676900D01*
Y10084547D01*
X5473700D01*
X5458834Y10081589D01*
X5446231Y10073169D01*
X5140109Y9767047D01*
X4419100D01*
X3884378Y10301769D01*
X3871775Y10310189D01*
X3856909Y10313147D01*
X3107109D01*
X2769347Y10650909D01*
Y11853709D01*
X2925137Y12009500D01*
X3098800D01*
Y12009500D01*
X3110753Y12007698D01*
Y11879200D01*
X2882900D01*
Y11650600D01*
X3110753D01*
Y11391900D01*
X3113711Y11377034D01*
X3122131Y11364431D01*
X3198218Y11288345D01*
X3195489Y11283618D01*
X3187700Y11254548D01*
Y11224452D01*
X3195489Y11195382D01*
X3210537Y11169318D01*
X3231818Y11148037D01*
X3257882Y11132989D01*
X3286952Y11125200D01*
X3317048D01*
X3346118Y11132989D01*
X3372182Y11148037D01*
X3393463Y11169318D01*
X3408511Y11195382D01*
X3416300Y11224452D01*
Y11254548D01*
X3408511Y11283618D01*
X3393463Y11309682D01*
X3372182Y11330963D01*
X3346118Y11346011D01*
X3317048Y11353800D01*
X3286952D01*
X3257882Y11346011D01*
X3253155Y11343282D01*
X3228970Y11367467D01*
X3233831Y11379200D01*
X3416300D01*
Y11607800D01*
X3188447D01*
Y12223294D01*
X3201147Y12224966D01*
X3208189Y12198682D01*
X3223237Y12172618D01*
X3244518Y12151337D01*
X3270582Y12136289D01*
X3299652Y12128500D01*
X3302000D01*
Y12242800D01*
X3327400D01*
Y12128500D01*
X3329748D01*
X3358818Y12136289D01*
X3384882Y12151337D01*
X3406163Y12172618D01*
X3421211Y12198682D01*
X3429000Y12227752D01*
Y12246102D01*
X3441700Y12251363D01*
X3650504Y12042559D01*
Y11106150D01*
X3653461Y11091284D01*
X3661882Y11078681D01*
X3960218Y10780345D01*
X3957489Y10775618D01*
X3949700Y10746548D01*
Y10716452D01*
X3957489Y10687382D01*
X3972537Y10661318D01*
X3993818Y10640037D01*
X4019882Y10624989D01*
X4048952Y10617200D01*
X4079048D01*
X4108118Y10624989D01*
X4134182Y10640037D01*
X4155463Y10661318D01*
X4170511Y10687382D01*
X4178300Y10716452D01*
Y10746548D01*
X4170511Y10775618D01*
X4155463Y10801682D01*
X4134182Y10822963D01*
X4108118Y10838011D01*
X4079048Y10845800D01*
X4048952D01*
X4019882Y10838011D01*
X4015155Y10835282D01*
X3728197Y11122240D01*
Y12058650D01*
X3725240Y12073516D01*
X3716819Y12086118D01*
X3391241Y12411696D01*
X3406163Y12426618D01*
X3416922Y12445253D01*
X3768510D01*
X3871432Y12342331D01*
X3884034Y12333911D01*
X3898900Y12330953D01*
X3986615D01*
X3991476Y12319220D01*
X3985237Y12312982D01*
X3970189Y12286918D01*
X3962400Y12257848D01*
Y12227752D01*
X3970189Y12198682D01*
X3985237Y12172618D01*
X4006518Y12151337D01*
X4032582Y12136289D01*
X4061652Y12128500D01*
X4091748D01*
X4120818Y12136289D01*
X4146882Y12151337D01*
X4168163Y12172618D01*
X4183211Y12198682D01*
X4191000Y12227752D01*
Y12257848D01*
X4183211Y12286918D01*
X4168163Y12312982D01*
X4161924Y12319220D01*
X4166785Y12330953D01*
X5873439D01*
X5888305Y12333911D01*
X5900908Y12342331D01*
X5903050Y12344474D01*
X5911684Y12339489D01*
X5940754Y12331700D01*
X5970850D01*
X5999920Y12339489D01*
X6025984Y12354537D01*
X6047265Y12375818D01*
X6062313Y12401882D01*
X6070102Y12430952D01*
Y12461048D01*
X6062313Y12490118D01*
X6047265Y12516182D01*
X6025984Y12537463D01*
X5999920Y12552511D01*
X5970850Y12560300D01*
X5940754D01*
X5911684Y12552511D01*
X5885620Y12537463D01*
X5864339Y12516182D01*
X5849292Y12490118D01*
X5841502Y12461048D01*
Y12430952D01*
X5844779Y12418722D01*
X5837048Y12408647D01*
X5144971D01*
X5140291Y12421347D01*
X5158263Y12439318D01*
X5173310Y12465382D01*
X5181100Y12494452D01*
Y12496800D01*
X5066800D01*
X4952500D01*
Y12494452D01*
X4960289Y12465382D01*
X4975337Y12439318D01*
X4993309Y12421347D01*
X4988629Y12408647D01*
X4166785D01*
X4161924Y12420380D01*
X4168163Y12426618D01*
X4183211Y12452682D01*
X4184623Y12457953D01*
X4800100D01*
X4814966Y12460911D01*
X4827568Y12469331D01*
X5017955Y12659718D01*
X5022682Y12656989D01*
X5051752Y12649200D01*
X5081848D01*
X5110918Y12656989D01*
X5136982Y12672037D01*
X5158263Y12693318D01*
X5173310Y12719382D01*
X5181100Y12748452D01*
Y12778548D01*
X5173310Y12807619D01*
X5158263Y12833682D01*
X5136982Y12854964D01*
X5110918Y12870010D01*
X5081848Y12877800D01*
X5051752D01*
X5022682Y12870010D01*
X4996618Y12854964D01*
X4975337Y12833682D01*
X4960289Y12807619D01*
X4952500Y12778548D01*
Y12748452D01*
X4960289Y12719382D01*
X4963018Y12714655D01*
X4784009Y12535647D01*
X4184623D01*
X4183211Y12540918D01*
X4168163Y12566982D01*
X4146882Y12588263D01*
X4120818Y12603311D01*
X4091748Y12611100D01*
X4061652D01*
X4032582Y12603311D01*
X4027855Y12600582D01*
X3977169Y12651269D01*
X3964566Y12659689D01*
X3949700Y12662647D01*
X3404785D01*
X3399924Y12674380D01*
X3406163Y12680618D01*
X3421211Y12706682D01*
X3429000Y12735752D01*
Y12765848D01*
X3421211Y12794918D01*
X3418482Y12799645D01*
X3519969Y12901131D01*
X3528389Y12913734D01*
X3531347Y12928600D01*
Y13360400D01*
X3528389Y13375266D01*
X3519969Y13387869D01*
X3282587Y13625250D01*
X3269984Y13633672D01*
X3255118Y13636629D01*
X2937845D01*
X2934710Y13648328D01*
X2923137Y13668372D01*
X2906772Y13684737D01*
X2886728Y13696310D01*
X2864372Y13702299D01*
D02*
G37*
G36*
X5181100Y13131799D02*
X4952500D01*
Y12903200D01*
X5181100D01*
Y13131799D01*
D02*
G37*
G36*
X4091748Y13119099D02*
X4061652D01*
X4032582Y13111311D01*
X4006518Y13096263D01*
X3985237Y13074982D01*
X3970189Y13048918D01*
X3962400Y13019849D01*
Y12989752D01*
X3970189Y12960683D01*
X3985237Y12934618D01*
X4006518Y12913338D01*
X4032582Y12898289D01*
X4061652Y12890500D01*
X4091748D01*
X4120818Y12898289D01*
X4146882Y12913338D01*
X4168163Y12934618D01*
X4183211Y12960683D01*
X4191000Y12989752D01*
Y13019849D01*
X4183211Y13048918D01*
X4168163Y13074982D01*
X4146882Y13096263D01*
X4120818Y13111311D01*
X4091748Y13119099D01*
D02*
G37*
G36*
Y12865100D02*
X4061652D01*
X4032582Y12857310D01*
X4006518Y12842262D01*
X3985237Y12820982D01*
X3970189Y12794918D01*
X3962400Y12765848D01*
Y12735752D01*
X3970189Y12706682D01*
X3985237Y12680618D01*
X4006518Y12659337D01*
X4032582Y12644289D01*
X4061652Y12636500D01*
X4091748D01*
X4120818Y12644289D01*
X4146882Y12659337D01*
X4168163Y12680618D01*
X4183211Y12706682D01*
X4191000Y12735752D01*
Y12765848D01*
X4183211Y12794918D01*
X4168163Y12820982D01*
X4146882Y12842262D01*
X4120818Y12857310D01*
X4091748Y12865100D01*
D02*
G37*
G36*
X5081848Y12623800D02*
X5079500D01*
Y12522200D01*
X5181100D01*
Y12524548D01*
X5173310Y12553618D01*
X5158263Y12579682D01*
X5136982Y12600963D01*
X5110918Y12616011D01*
X5081848Y12623800D01*
D02*
G37*
G36*
X5054100D02*
X5051752D01*
X5022682Y12616011D01*
X4996618Y12600963D01*
X4975337Y12579682D01*
X4960289Y12553618D01*
X4952500Y12524548D01*
Y12522200D01*
X5054100D01*
Y12623800D01*
D02*
G37*
G36*
X6479348Y12438000D02*
X6449252D01*
X6420182Y12430211D01*
X6394118Y12415163D01*
X6372837Y12393882D01*
X6357789Y12367818D01*
X6350000Y12338748D01*
Y12308652D01*
X6357789Y12279582D01*
X6372837Y12253518D01*
X6394118Y12232237D01*
X6420182Y12217189D01*
X6449252Y12209400D01*
X6479348D01*
X6508418Y12217189D01*
X6534482Y12232237D01*
X6555763Y12253518D01*
X6570811Y12279582D01*
X6578600Y12308652D01*
Y12338748D01*
X6570811Y12367818D01*
X6555763Y12393882D01*
X6534482Y12415163D01*
X6508418Y12430211D01*
X6479348Y12438000D01*
D02*
G37*
G36*
X8206548Y12306300D02*
X8204200D01*
Y12204700D01*
X8305800D01*
Y12207048D01*
X8298011Y12236118D01*
X8282963Y12262182D01*
X8261682Y12283463D01*
X8235618Y12298511D01*
X8206548Y12306300D01*
D02*
G37*
G36*
X5970850D02*
X5968502D01*
Y12204700D01*
X6070102D01*
Y12207048D01*
X6062313Y12236118D01*
X6047265Y12262182D01*
X6025984Y12283463D01*
X5999920Y12298511D01*
X5970850Y12306300D01*
D02*
G37*
G36*
X8178800D02*
X8176452D01*
X8147382Y12298511D01*
X8121318Y12283463D01*
X8100037Y12262182D01*
X8084989Y12236118D01*
X8077200Y12207048D01*
Y12204700D01*
X8178800D01*
Y12306300D01*
D02*
G37*
G36*
X7124700D02*
X7122352D01*
X7093282Y12298511D01*
X7067218Y12283463D01*
X7045937Y12262182D01*
X7030889Y12236118D01*
X7023100Y12207048D01*
Y12204700D01*
X7124700D01*
Y12306300D01*
D02*
G37*
G36*
X5943102D02*
X5940754D01*
X5911684Y12298511D01*
X5885620Y12283463D01*
X5864339Y12262182D01*
X5849292Y12236118D01*
X5841502Y12207048D01*
Y12204700D01*
X5943102D01*
Y12306300D01*
D02*
G37*
G36*
X8305800Y12179300D02*
X8204200D01*
Y12077700D01*
X8206548D01*
X8235618Y12085489D01*
X8261682Y12100537D01*
X8282963Y12121818D01*
X8298011Y12147882D01*
X8305800Y12176952D01*
Y12179300D01*
D02*
G37*
G36*
X8178800D02*
X8077200D01*
Y12176952D01*
X8084989Y12147882D01*
X8100037Y12121818D01*
X8121318Y12100537D01*
X8147382Y12085489D01*
X8176452Y12077700D01*
X8178800D01*
Y12179300D01*
D02*
G37*
G36*
X7124700D02*
X7023100D01*
Y12176952D01*
X7030889Y12147882D01*
X7045937Y12121818D01*
X7067218Y12100537D01*
X7093282Y12085489D01*
X7122352Y12077700D01*
X7124700D01*
Y12179300D01*
D02*
G37*
G36*
X6070102D02*
X5968502D01*
Y12077700D01*
X5970850D01*
X5999920Y12085489D01*
X6025984Y12100537D01*
X6047265Y12121818D01*
X6062313Y12147882D01*
X6070102Y12176952D01*
Y12179300D01*
D02*
G37*
G36*
X5943102D02*
X5841502D01*
Y12176952D01*
X5849292Y12147882D01*
X5864339Y12121818D01*
X5885620Y12100537D01*
X5911684Y12085489D01*
X5940754Y12077700D01*
X5943102D01*
Y12179300D01*
D02*
G37*
G36*
X5806248Y11684000D02*
X5803900D01*
Y11582400D01*
X5905500D01*
Y11584748D01*
X5897711Y11613818D01*
X5882663Y11639882D01*
X5861382Y11661163D01*
X5835318Y11676211D01*
X5806248Y11684000D01*
D02*
G37*
G36*
X5778500D02*
X5776152D01*
X5747082Y11676211D01*
X5721018Y11661163D01*
X5699737Y11639882D01*
X5684689Y11613818D01*
X5676900Y11584748D01*
Y11582400D01*
X5778500D01*
Y11684000D01*
D02*
G37*
G36*
X8206548Y12560300D02*
X8176452D01*
X8147382Y12552511D01*
X8121318Y12537463D01*
X8100037Y12516182D01*
X8084989Y12490118D01*
X8077200Y12461048D01*
Y12430952D01*
X8084989Y12401882D01*
X8087718Y12397155D01*
X7376631Y11686069D01*
X7368211Y11673466D01*
X7365253Y11658600D01*
Y11563323D01*
X7359982Y11561911D01*
X7333918Y11546863D01*
X7327680Y11540624D01*
X7315947Y11545485D01*
Y12306300D01*
X7312989Y12321166D01*
X7304569Y12333769D01*
X7241182Y12397156D01*
X7243911Y12401882D01*
X7251700Y12430952D01*
Y12461048D01*
X7243911Y12490118D01*
X7228863Y12516182D01*
X7207582Y12537463D01*
X7181518Y12552511D01*
X7152448Y12560300D01*
X7122352D01*
X7093282Y12552511D01*
X7067218Y12537463D01*
X7045937Y12516182D01*
X7030889Y12490118D01*
X7023100Y12461048D01*
Y12430952D01*
X7030889Y12401882D01*
X7045937Y12375818D01*
X7067218Y12354537D01*
X7093282Y12339489D01*
X7122352Y12331700D01*
X7152448D01*
X7181518Y12339489D01*
X7186244Y12342218D01*
X7238253Y12290209D01*
Y12270171D01*
X7225553Y12265491D01*
X7207582Y12283463D01*
X7181518Y12298511D01*
X7152448Y12306300D01*
X7150100D01*
Y12192000D01*
Y12077700D01*
X7152448D01*
X7181518Y12085489D01*
X7207582Y12100537D01*
X7225553Y12118509D01*
X7238253Y12113829D01*
Y11545485D01*
X7226520Y11540624D01*
X7220282Y11546863D01*
X7194218Y11561911D01*
X7165148Y11569700D01*
X7135052D01*
X7105982Y11561911D01*
X7079918Y11546863D01*
X7058637Y11525582D01*
X7043589Y11499518D01*
X7035800Y11470448D01*
Y11440352D01*
X7043589Y11411282D01*
X7046318Y11406555D01*
X7002309Y11362546D01*
X6982852D01*
X6977591Y11375246D01*
X6987563Y11385218D01*
X7002611Y11411282D01*
X7010400Y11440352D01*
Y11470448D01*
X7002611Y11499518D01*
X6987563Y11525582D01*
X6966282Y11546863D01*
X6940218Y11561911D01*
X6911148Y11569700D01*
X6881052D01*
X6851982Y11561911D01*
X6825918Y11546863D01*
X6804637Y11525582D01*
X6789589Y11499518D01*
X6781800Y11470448D01*
Y11440352D01*
X6789589Y11411282D01*
X6804637Y11385218D01*
X6814609Y11375246D01*
X6809348Y11362546D01*
X6578600D01*
Y11438000D01*
X6350000D01*
Y11354547D01*
X5899123D01*
X5897711Y11359818D01*
X5882663Y11385882D01*
X5861382Y11407163D01*
X5835318Y11422211D01*
X5806248Y11430000D01*
X5776152D01*
X5747082Y11422211D01*
X5721018Y11407163D01*
X5699737Y11385882D01*
X5684689Y11359818D01*
X5676900Y11330748D01*
Y11300652D01*
X5684689Y11271582D01*
X5699737Y11245518D01*
X5721018Y11224237D01*
X5747082Y11209189D01*
X5776152Y11201400D01*
X5806248D01*
X5835318Y11209189D01*
X5861382Y11224237D01*
X5882663Y11245518D01*
X5897711Y11271582D01*
X5899123Y11276853D01*
X6350000D01*
Y11209400D01*
X6578600D01*
Y11284853D01*
X7018400D01*
X7033266Y11287811D01*
X7045869Y11296231D01*
X7101255Y11351618D01*
X7105982Y11348889D01*
X7135052Y11341100D01*
X7165148D01*
X7194218Y11348889D01*
X7220282Y11363937D01*
X7226520Y11370176D01*
X7238253Y11365315D01*
Y10820400D01*
X7241211Y10805534D01*
X7249631Y10792931D01*
X7300318Y10742245D01*
X7297589Y10737518D01*
X7289800Y10708448D01*
Y10678352D01*
X7297589Y10649282D01*
X7312637Y10623218D01*
X7333918Y10601937D01*
X7359982Y10586889D01*
X7389052Y10579100D01*
X7419148D01*
X7448218Y10586889D01*
X7474282Y10601937D01*
X7495563Y10623218D01*
X7510611Y10649282D01*
X7518400Y10678352D01*
Y10708448D01*
X7510611Y10737518D01*
X7495563Y10763582D01*
X7474282Y10784863D01*
X7448218Y10799911D01*
X7419148Y10807700D01*
X7389052D01*
X7359982Y10799911D01*
X7355255Y10797182D01*
X7315947Y10836491D01*
Y11365315D01*
X7327680Y11370176D01*
X7333918Y11363937D01*
X7359982Y11348889D01*
X7389052Y11341100D01*
X7419148D01*
X7448218Y11348889D01*
X7474282Y11363937D01*
X7495563Y11385218D01*
X7510611Y11411282D01*
X7518400Y11440352D01*
Y11470448D01*
X7510611Y11499518D01*
X7495563Y11525582D01*
X7474282Y11546863D01*
X7448218Y11561911D01*
X7442947Y11563323D01*
Y11642509D01*
X8142655Y12342218D01*
X8147382Y12339489D01*
X8176452Y12331700D01*
X8206548D01*
X8235618Y12339489D01*
X8261682Y12354537D01*
X8282963Y12375818D01*
X8298011Y12401882D01*
X8305800Y12430952D01*
Y12461048D01*
X8298011Y12490118D01*
X8282963Y12516182D01*
X8261682Y12537463D01*
X8235618Y12552511D01*
X8206548Y12560300D01*
D02*
G37*
G36*
X5905500Y11557000D02*
X5803900D01*
Y11455400D01*
X5806248D01*
X5835318Y11463189D01*
X5861382Y11478237D01*
X5882663Y11499518D01*
X5897711Y11525582D01*
X5905500Y11554652D01*
Y11557000D01*
D02*
G37*
G36*
X5778500D02*
X5676900D01*
Y11554652D01*
X5684689Y11525582D01*
X5699737Y11499518D01*
X5721018Y11478237D01*
X5747082Y11463189D01*
X5776152Y11455400D01*
X5778500D01*
Y11557000D01*
D02*
G37*
G36*
X5044248Y11684000D02*
X5014152D01*
X4985082Y11676211D01*
X4959018Y11661163D01*
X4937737Y11639882D01*
X4922689Y11613818D01*
X4914900Y11584748D01*
Y11554652D01*
X4922689Y11525582D01*
X4937737Y11499518D01*
X4959018Y11478237D01*
X4985082Y11463189D01*
X5014152Y11455400D01*
X5044248D01*
X5073318Y11463189D01*
X5099382Y11478237D01*
X5120663Y11499518D01*
X5135711Y11525582D01*
X5143500Y11554652D01*
Y11584748D01*
X5135711Y11613818D01*
X5120663Y11639882D01*
X5099382Y11661163D01*
X5073318Y11676211D01*
X5044248Y11684000D01*
D02*
G37*
G36*
X4079048Y11607800D02*
X4048952D01*
X4019882Y11600011D01*
X3993818Y11584963D01*
X3972537Y11563682D01*
X3957489Y11537618D01*
X3949700Y11508548D01*
Y11478452D01*
X3957489Y11449382D01*
X3972537Y11423318D01*
X3993818Y11402037D01*
X4019882Y11386989D01*
X4048952Y11379200D01*
X4079048D01*
X4108118Y11386989D01*
X4134182Y11402037D01*
X4155463Y11423318D01*
X4170511Y11449382D01*
X4178300Y11478452D01*
Y11508548D01*
X4170511Y11537618D01*
X4155463Y11563682D01*
X4134182Y11584963D01*
X4108118Y11600011D01*
X4079048Y11607800D01*
D02*
G37*
G36*
X7673148Y11569700D02*
X7643052D01*
X7613982Y11561911D01*
X7587918Y11546863D01*
X7566637Y11525582D01*
X7551589Y11499518D01*
X7543800Y11470448D01*
Y11440352D01*
X7551589Y11411282D01*
X7566637Y11385218D01*
X7587918Y11363937D01*
X7613982Y11348889D01*
X7643052Y11341100D01*
X7673148D01*
X7702218Y11348889D01*
X7728282Y11363937D01*
X7749563Y11385218D01*
X7764611Y11411282D01*
X7772400Y11440352D01*
Y11470448D01*
X7764611Y11499518D01*
X7749563Y11525582D01*
X7728282Y11546863D01*
X7702218Y11561911D01*
X7673148Y11569700D01*
D02*
G37*
G36*
X5044248Y11430000D02*
X5014152D01*
X4985082Y11422211D01*
X4959018Y11407163D01*
X4937737Y11385882D01*
X4922689Y11359818D01*
X4914900Y11330748D01*
Y11300652D01*
X4916529Y11294572D01*
X4905004Y11283047D01*
X4559300D01*
Y11358500D01*
X4330700D01*
Y11278347D01*
X4171923D01*
X4170511Y11283618D01*
X4155463Y11309682D01*
X4134182Y11330963D01*
X4108118Y11346011D01*
X4079048Y11353800D01*
X4048952D01*
X4019882Y11346011D01*
X3993818Y11330963D01*
X3972537Y11309682D01*
X3957489Y11283618D01*
X3949700Y11254548D01*
Y11224452D01*
X3957489Y11195382D01*
X3972537Y11169318D01*
X3993818Y11148037D01*
X4019882Y11132989D01*
X4048952Y11125200D01*
X4079048D01*
X4108118Y11132989D01*
X4134182Y11148037D01*
X4155463Y11169318D01*
X4170511Y11195382D01*
X4171923Y11200653D01*
X4330700D01*
Y11129900D01*
X4559300D01*
Y11205354D01*
X4921095D01*
X4935961Y11208311D01*
X4948564Y11216731D01*
X4957544Y11225712D01*
X4959018Y11224237D01*
X4985082Y11209189D01*
X5014152Y11201400D01*
X5044248D01*
X5073318Y11209189D01*
X5099382Y11224237D01*
X5120663Y11245518D01*
X5135711Y11271582D01*
X5143500Y11300652D01*
Y11330748D01*
X5135711Y11359818D01*
X5120663Y11385882D01*
X5099382Y11407163D01*
X5073318Y11422211D01*
X5044248Y11430000D01*
D02*
G37*
G36*
Y11176000D02*
X5014152D01*
X4985082Y11168211D01*
X4959018Y11153163D01*
X4937737Y11131882D01*
X4922689Y11105818D01*
X4914900Y11076748D01*
Y11046652D01*
X4922689Y11017582D01*
X4937737Y10991518D01*
X4959018Y10970237D01*
X4985082Y10955189D01*
X5014152Y10947400D01*
X5044248D01*
X5073318Y10955189D01*
X5099382Y10970237D01*
X5120663Y10991518D01*
X5135711Y11017582D01*
X5143500Y11046652D01*
Y11076748D01*
X5135711Y11105818D01*
X5120663Y11131882D01*
X5099382Y11153163D01*
X5073318Y11168211D01*
X5044248Y11176000D01*
D02*
G37*
G36*
X4079048Y11099800D02*
X4048952D01*
X4019882Y11092011D01*
X3993818Y11076963D01*
X3972537Y11055682D01*
X3957489Y11029618D01*
X3949700Y11000548D01*
Y10970452D01*
X3957489Y10941382D01*
X3972537Y10915318D01*
X3993818Y10894037D01*
X4019882Y10878989D01*
X4048952Y10871200D01*
X4079048D01*
X4108118Y10878989D01*
X4134182Y10894037D01*
X4155463Y10915318D01*
X4170511Y10941382D01*
X4178300Y10970452D01*
Y11000548D01*
X4170511Y11029618D01*
X4155463Y11055682D01*
X4134182Y11076963D01*
X4108118Y11092011D01*
X4079048Y11099800D01*
D02*
G37*
G36*
X3317048D02*
X3286952D01*
X3257882Y11092011D01*
X3231818Y11076963D01*
X3210537Y11055682D01*
X3195489Y11029618D01*
X3187700Y11000548D01*
Y10970452D01*
X3195489Y10941382D01*
X3210537Y10915318D01*
X3231818Y10894037D01*
X3257882Y10878989D01*
X3286952Y10871200D01*
X3317048D01*
X3346118Y10878989D01*
X3372182Y10894037D01*
X3393463Y10915318D01*
X3408511Y10941382D01*
X3416300Y10970452D01*
Y11000548D01*
X3408511Y11029618D01*
X3393463Y11055682D01*
X3372182Y11076963D01*
X3346118Y11092011D01*
X3317048Y11099800D01*
D02*
G37*
G36*
Y10845800D02*
X3314700D01*
Y10744200D01*
X3416300D01*
Y10746548D01*
X3408511Y10775618D01*
X3393463Y10801682D01*
X3372182Y10822963D01*
X3346118Y10838011D01*
X3317048Y10845800D01*
D02*
G37*
G36*
X3289300D02*
X3286952D01*
X3257882Y10838011D01*
X3231818Y10822963D01*
X3210537Y10801682D01*
X3195489Y10775618D01*
X3187700Y10746548D01*
Y10744200D01*
X3289300D01*
Y10845800D01*
D02*
G37*
G36*
X7673148Y10807700D02*
X7670800D01*
Y10706100D01*
X7772400D01*
Y10708448D01*
X7764611Y10737518D01*
X7749563Y10763582D01*
X7728282Y10784863D01*
X7702218Y10799911D01*
X7673148Y10807700D01*
D02*
G37*
G36*
X7645400D02*
X7643052D01*
X7613982Y10799911D01*
X7587918Y10784863D01*
X7566637Y10763582D01*
X7551589Y10737518D01*
X7543800Y10708448D01*
Y10706100D01*
X7645400D01*
Y10807700D01*
D02*
G37*
G36*
X5044248Y10922000D02*
X5014152D01*
X4985082Y10914211D01*
X4959018Y10899163D01*
X4937737Y10877882D01*
X4922689Y10851818D01*
X4914900Y10822748D01*
Y10792652D01*
X4922689Y10763582D01*
X4937737Y10737518D01*
X4959018Y10716237D01*
X4985082Y10701189D01*
X5014152Y10693400D01*
X5044248D01*
X5073318Y10701189D01*
X5099382Y10716237D01*
X5120663Y10737518D01*
X5135711Y10763582D01*
X5143500Y10792652D01*
Y10822748D01*
X5135711Y10851818D01*
X5120663Y10877882D01*
X5099382Y10899163D01*
X5073318Y10914211D01*
X5044248Y10922000D01*
D02*
G37*
G36*
X3012248Y10879200D02*
X2982152D01*
X2953082Y10871411D01*
X2927018Y10856363D01*
X2905737Y10835082D01*
X2890689Y10809018D01*
X2882900Y10779948D01*
Y10749852D01*
X2890689Y10720782D01*
X2905737Y10694718D01*
X2927018Y10673437D01*
X2953082Y10658389D01*
X2982152Y10650600D01*
X3012248D01*
X3041318Y10658389D01*
X3067382Y10673437D01*
X3088663Y10694718D01*
X3103711Y10720782D01*
X3111500Y10749852D01*
Y10779948D01*
X3103711Y10809018D01*
X3088663Y10835082D01*
X3067382Y10856363D01*
X3041318Y10871411D01*
X3012248Y10879200D01*
D02*
G37*
G36*
X3416300Y10718800D02*
X3314700D01*
Y10617200D01*
X3317048D01*
X3346118Y10624989D01*
X3372182Y10640037D01*
X3393463Y10661318D01*
X3408511Y10687382D01*
X3416300Y10716452D01*
Y10718800D01*
D02*
G37*
G36*
X3289300D02*
X3187700D01*
Y10716452D01*
X3195489Y10687382D01*
X3210537Y10661318D01*
X3231818Y10640037D01*
X3257882Y10624989D01*
X3286952Y10617200D01*
X3289300D01*
Y10718800D01*
D02*
G37*
G36*
X7772400Y10680700D02*
X7670800D01*
Y10579100D01*
X7673148D01*
X7702218Y10586889D01*
X7728282Y10601937D01*
X7749563Y10623218D01*
X7764611Y10649282D01*
X7772400Y10678352D01*
Y10680700D01*
D02*
G37*
G36*
X7645400D02*
X7543800D01*
Y10678352D01*
X7551589Y10649282D01*
X7566637Y10623218D01*
X7587918Y10601937D01*
X7613982Y10586889D01*
X7643052Y10579100D01*
X7645400D01*
Y10680700D01*
D02*
G37*
G36*
X7165148Y10807700D02*
X7135052D01*
X7105982Y10799911D01*
X7079918Y10784863D01*
X7058637Y10763582D01*
X7043589Y10737518D01*
X7035800Y10708448D01*
Y10678352D01*
X7043589Y10649282D01*
X7058637Y10623218D01*
X7079918Y10601937D01*
X7105982Y10586889D01*
X7135052Y10579100D01*
X7165148D01*
X7194218Y10586889D01*
X7220282Y10601937D01*
X7241563Y10623218D01*
X7256611Y10649282D01*
X7264400Y10678352D01*
Y10708448D01*
X7256611Y10737518D01*
X7241563Y10763582D01*
X7220282Y10784863D01*
X7194218Y10799911D01*
X7165148Y10807700D01*
D02*
G37*
G36*
X5806248Y11176000D02*
X5776152D01*
X5747082Y11168211D01*
X5721018Y11153163D01*
X5699737Y11131882D01*
X5684689Y11105818D01*
X5676900Y11076748D01*
Y11046652D01*
X5684689Y11017582D01*
X5699737Y10991518D01*
X5721018Y10970237D01*
X5747082Y10955189D01*
X5776152Y10947400D01*
X5806248D01*
X5835318Y10955189D01*
X5861382Y10970237D01*
X5882663Y10991518D01*
X5897711Y11017582D01*
X5899123Y11022853D01*
X5914809D01*
X6192955Y10744707D01*
X6139602Y10691354D01*
X6301246Y10529709D01*
X6424045Y10652507D01*
X6781800D01*
Y10579100D01*
X7010400D01*
Y10807700D01*
X6781800D01*
Y10730200D01*
X6424045D01*
X6301246Y10852998D01*
X6247893Y10799644D01*
X5958368Y11089169D01*
X5945766Y11097589D01*
X5930900Y11100547D01*
X5899123D01*
X5897711Y11105818D01*
X5882663Y11131882D01*
X5861382Y11153163D01*
X5835318Y11168211D01*
X5806248Y11176000D01*
D02*
G37*
G36*
X5044248Y10668000D02*
X5041900D01*
Y10566400D01*
X5143500D01*
Y10568748D01*
X5135711Y10597818D01*
X5120663Y10623882D01*
X5099382Y10645163D01*
X5073318Y10660211D01*
X5044248Y10668000D01*
D02*
G37*
G36*
X5016500D02*
X5014152D01*
X4985082Y10660211D01*
X4959018Y10645163D01*
X4937737Y10623882D01*
X4922689Y10597818D01*
X4914900Y10568748D01*
Y10566400D01*
X5016500D01*
Y10668000D01*
D02*
G37*
G36*
X5143500Y10541000D02*
X5041900D01*
Y10439400D01*
X5044248D01*
X5073318Y10447189D01*
X5099382Y10462237D01*
X5120663Y10483518D01*
X5135711Y10509582D01*
X5143500Y10538652D01*
Y10541000D01*
D02*
G37*
G36*
X5016500D02*
X4914900D01*
Y10538652D01*
X4922689Y10509582D01*
X4937737Y10483518D01*
X4959018Y10462237D01*
X4985082Y10447189D01*
X5014152Y10439400D01*
X5016500D01*
Y10541000D01*
D02*
G37*
G36*
X5044248Y10414000D02*
X5041900D01*
Y10312400D01*
X5143500D01*
Y10314748D01*
X5135711Y10343818D01*
X5120663Y10369882D01*
X5099382Y10391163D01*
X5073318Y10406211D01*
X5044248Y10414000D01*
D02*
G37*
G36*
X5016500D02*
X5014152D01*
X4985082Y10406211D01*
X4959018Y10391163D01*
X4937737Y10369882D01*
X4922689Y10343818D01*
X4914900Y10314748D01*
Y10312400D01*
X5016500D01*
Y10414000D01*
D02*
G37*
G36*
X4521200Y12250800D02*
X4292600D01*
Y12022200D01*
X4521200D01*
Y12097653D01*
X5030509D01*
X5345953Y11782209D01*
Y10464800D01*
X5348911Y10449934D01*
X5357331Y10437331D01*
X5522431Y10272231D01*
X5535034Y10263811D01*
X5549900Y10260853D01*
X5683277D01*
X5684689Y10255582D01*
X5699737Y10229518D01*
X5721018Y10208237D01*
X5747082Y10193189D01*
X5776152Y10185400D01*
X5806248D01*
X5835318Y10193189D01*
X5861382Y10208237D01*
X5882663Y10229518D01*
X5897711Y10255582D01*
X5905500Y10284652D01*
Y10314748D01*
X5897711Y10343818D01*
X5882663Y10369882D01*
X5861382Y10391163D01*
X5835318Y10406211D01*
X5806248Y10414000D01*
X5776152D01*
X5747082Y10406211D01*
X5721018Y10391163D01*
X5699737Y10369882D01*
X5684689Y10343818D01*
X5683277Y10338547D01*
X5565991D01*
X5423647Y10480891D01*
Y11798300D01*
X5420689Y11813166D01*
X5412269Y11825769D01*
X5074069Y12163969D01*
X5061466Y12172389D01*
X5046600Y12175346D01*
X4521200D01*
Y12250800D01*
D02*
G37*
G36*
X5143500Y10287000D02*
X5041900D01*
Y10185400D01*
X5044248D01*
X5073318Y10193189D01*
X5099382Y10208237D01*
X5120663Y10229518D01*
X5135711Y10255582D01*
X5143500Y10284652D01*
Y10287000D01*
D02*
G37*
G36*
X5016500D02*
X4914900D01*
Y10284652D01*
X4922689Y10255582D01*
X4937737Y10229518D01*
X4959018Y10208237D01*
X4985082Y10193189D01*
X5014152Y10185400D01*
X5016500D01*
Y10287000D01*
D02*
G37*
G36*
X4460048Y10358500D02*
X4429952D01*
X4400882Y10350711D01*
X4374818Y10335663D01*
X4353537Y10314382D01*
X4338489Y10288318D01*
X4330700Y10259248D01*
Y10229152D01*
X4338489Y10200082D01*
X4353537Y10174018D01*
X4374818Y10152737D01*
X4400882Y10137689D01*
X4429952Y10129900D01*
X4460048D01*
X4489118Y10137689D01*
X4515182Y10152737D01*
X4536463Y10174018D01*
X4551511Y10200082D01*
X4559300Y10229152D01*
Y10259248D01*
X4551511Y10288318D01*
X4536463Y10314382D01*
X4515182Y10335663D01*
X4489118Y10350711D01*
X4460048Y10358500D01*
D02*
G37*
G36*
X3634548Y10210800D02*
X3632200D01*
Y10109200D01*
X3733800D01*
Y10111548D01*
X3726011Y10140618D01*
X3710963Y10166682D01*
X3689682Y10187963D01*
X3663618Y10203011D01*
X3634548Y10210800D01*
D02*
G37*
G36*
X2872548D02*
X2870200D01*
Y10109200D01*
X2971800D01*
Y10111548D01*
X2964011Y10140618D01*
X2948963Y10166682D01*
X2927682Y10187963D01*
X2901618Y10203011D01*
X2872548Y10210800D01*
D02*
G37*
G36*
X3606800D02*
X3604452D01*
X3575382Y10203011D01*
X3549318Y10187963D01*
X3528037Y10166682D01*
X3512989Y10140618D01*
X3505200Y10111548D01*
Y10109200D01*
X3606800D01*
Y10210800D01*
D02*
G37*
G36*
X2844800D02*
X2842452D01*
X2813382Y10203011D01*
X2787318Y10187963D01*
X2766037Y10166682D01*
X2750989Y10140618D01*
X2743200Y10111548D01*
Y10109200D01*
X2844800D01*
Y10210800D01*
D02*
G37*
G36*
X3733800Y10083800D02*
X3632200D01*
Y9982200D01*
X3634548D01*
X3663618Y9989989D01*
X3689682Y10005037D01*
X3710963Y10026318D01*
X3726011Y10052382D01*
X3733800Y10081452D01*
Y10083800D01*
D02*
G37*
G36*
X3606800D02*
X3505200D01*
Y10081452D01*
X3512989Y10052382D01*
X3528037Y10026318D01*
X3549318Y10005037D01*
X3575382Y9989989D01*
X3604452Y9982200D01*
X3606800D01*
Y10083800D01*
D02*
G37*
G36*
X2971800D02*
X2870200D01*
Y9982200D01*
X2872548D01*
X2901618Y9989989D01*
X2927682Y10005037D01*
X2948963Y10026318D01*
X2964011Y10052382D01*
X2971800Y10081452D01*
Y10083800D01*
D02*
G37*
G36*
X2844800D02*
X2743200D01*
Y10081452D01*
X2750989Y10052382D01*
X2766037Y10026318D01*
X2787318Y10005037D01*
X2813382Y9989989D01*
X2842452Y9982200D01*
X2844800D01*
Y10083800D01*
D02*
G37*
G36*
X5044248Y10160000D02*
X5014152D01*
X4985082Y10152211D01*
X4959018Y10137163D01*
X4937737Y10115882D01*
X4922689Y10089818D01*
X4914900Y10060748D01*
Y10030652D01*
X4922689Y10001582D01*
X4937737Y9975518D01*
X4959018Y9954237D01*
X4985082Y9939189D01*
X5014152Y9931400D01*
X5044248D01*
X5073318Y9939189D01*
X5099382Y9954237D01*
X5120663Y9975518D01*
X5135711Y10001582D01*
X5143500Y10030652D01*
Y10060748D01*
X5135711Y10089818D01*
X5120663Y10115882D01*
X5099382Y10137163D01*
X5073318Y10152211D01*
X5044248Y10160000D01*
D02*
G37*
G36*
X7023401Y10098546D02*
X6993306D01*
X6964235Y10090757D01*
X6938172Y10075709D01*
X6916891Y10054428D01*
X6901843Y10028364D01*
X6894054Y9999294D01*
Y9969199D01*
X6901843Y9940128D01*
X6916891Y9914065D01*
X6938172Y9892784D01*
X6964235Y9877736D01*
X6993306Y9869946D01*
X7023401D01*
X7052472Y9877736D01*
X7078535Y9892784D01*
X7099816Y9914065D01*
X7114864Y9940128D01*
X7122654Y9969199D01*
Y9999294D01*
X7114864Y10028364D01*
X7099816Y10054428D01*
X7078535Y10075709D01*
X7052472Y10090757D01*
X7023401Y10098546D01*
D02*
G37*
G36*
X3634548Y9956800D02*
X3632200D01*
Y9855200D01*
X3733800D01*
Y9857548D01*
X3726011Y9886618D01*
X3710963Y9912682D01*
X3689682Y9933963D01*
X3663618Y9949011D01*
X3634548Y9956800D01*
D02*
G37*
G36*
X2872548D02*
X2870200D01*
Y9855200D01*
X2971800D01*
Y9857548D01*
X2964011Y9886618D01*
X2948963Y9912682D01*
X2927682Y9933963D01*
X2901618Y9949011D01*
X2872548Y9956800D01*
D02*
G37*
G36*
X3606800D02*
X3604452D01*
X3575382Y9949011D01*
X3549318Y9933963D01*
X3528037Y9912682D01*
X3512989Y9886618D01*
X3505200Y9857548D01*
Y9855200D01*
X3606800D01*
Y9956800D01*
D02*
G37*
G36*
X2844800D02*
X2842452D01*
X2813382Y9949011D01*
X2787318Y9933963D01*
X2766037Y9912682D01*
X2750989Y9886618D01*
X2743200Y9857548D01*
Y9855200D01*
X2844800D01*
Y9956800D01*
D02*
G37*
G36*
X3733800Y9829800D02*
X3632200D01*
Y9728200D01*
X3634548D01*
X3663618Y9735989D01*
X3689682Y9751037D01*
X3710963Y9772318D01*
X3726011Y9798382D01*
X3733800Y9827452D01*
Y9829800D01*
D02*
G37*
G36*
X3606800D02*
X3505200D01*
Y9827452D01*
X3512989Y9798382D01*
X3528037Y9772318D01*
X3549318Y9751037D01*
X3575382Y9735989D01*
X3604452Y9728200D01*
X3606800D01*
Y9829800D01*
D02*
G37*
G36*
X2971800D02*
X2870200D01*
Y9728200D01*
X2872548D01*
X2901618Y9735989D01*
X2927682Y9751037D01*
X2948963Y9772318D01*
X2964011Y9798382D01*
X2971800Y9827452D01*
Y9829800D01*
D02*
G37*
G36*
X2844800D02*
X2743200D01*
Y9827452D01*
X2750989Y9798382D01*
X2766037Y9772318D01*
X2787318Y9751037D01*
X2813382Y9735989D01*
X2842452Y9728200D01*
X2844800D01*
Y9829800D01*
D02*
G37*
G36*
X3634548Y9702800D02*
X3632200D01*
Y9601200D01*
X3733800D01*
Y9603548D01*
X3726011Y9632618D01*
X3710963Y9658682D01*
X3689682Y9679963D01*
X3663618Y9695011D01*
X3634548Y9702800D01*
D02*
G37*
G36*
X3606800D02*
X3604452D01*
X3575382Y9695011D01*
X3549318Y9679963D01*
X3528037Y9658682D01*
X3512989Y9632618D01*
X3505200Y9603548D01*
Y9601200D01*
X3606800D01*
Y9702800D01*
D02*
G37*
G36*
X5171248Y9588500D02*
X5168900D01*
Y9486900D01*
X5270500D01*
Y9489248D01*
X5262711Y9518318D01*
X5247663Y9544382D01*
X5226382Y9565663D01*
X5200318Y9580711D01*
X5171248Y9588500D01*
D02*
G37*
G36*
X4917248D02*
X4914900D01*
Y9486900D01*
X5016500D01*
Y9489248D01*
X5008711Y9518318D01*
X4993663Y9544382D01*
X4972382Y9565663D01*
X4946318Y9580711D01*
X4917248Y9588500D01*
D02*
G37*
G36*
X4663248D02*
X4660900D01*
Y9486900D01*
X4762500D01*
Y9489248D01*
X4754711Y9518318D01*
X4739663Y9544382D01*
X4718382Y9565663D01*
X4692318Y9580711D01*
X4663248Y9588500D01*
D02*
G37*
G36*
X5143500D02*
X5141152D01*
X5112082Y9580711D01*
X5086018Y9565663D01*
X5064737Y9544382D01*
X5049689Y9518318D01*
X5041900Y9489248D01*
Y9486900D01*
X5143500D01*
Y9588500D01*
D02*
G37*
G36*
X4889500D02*
X4887152D01*
X4858082Y9580711D01*
X4832018Y9565663D01*
X4810737Y9544382D01*
X4795689Y9518318D01*
X4787900Y9489248D01*
Y9486900D01*
X4889500D01*
Y9588500D01*
D02*
G37*
G36*
X4635500D02*
X4633152D01*
X4604082Y9580711D01*
X4578018Y9565663D01*
X4556737Y9544382D01*
X4541689Y9518318D01*
X4533900Y9489248D01*
Y9486900D01*
X4635500D01*
Y9588500D01*
D02*
G37*
G36*
X3733800Y9575800D02*
X3632200D01*
Y9474200D01*
X3634548D01*
X3663618Y9481989D01*
X3689682Y9497037D01*
X3710963Y9518318D01*
X3726011Y9544382D01*
X3733800Y9573452D01*
Y9575800D01*
D02*
G37*
G36*
X3606800D02*
X3505200D01*
Y9573452D01*
X3512989Y9544382D01*
X3528037Y9518318D01*
X3549318Y9497037D01*
X3575382Y9481989D01*
X3604452Y9474200D01*
X3606800D01*
Y9575800D01*
D02*
G37*
G36*
X2872548Y9702800D02*
X2842452D01*
X2813382Y9695011D01*
X2787318Y9679963D01*
X2766037Y9658682D01*
X2750989Y9632618D01*
X2743200Y9603548D01*
Y9573452D01*
X2750989Y9544382D01*
X2766037Y9518318D01*
X2787318Y9497037D01*
X2813382Y9481989D01*
X2842452Y9474200D01*
X2872548D01*
X2901618Y9481989D01*
X2927682Y9497037D01*
X2948963Y9518318D01*
X2964011Y9544382D01*
X2971800Y9573452D01*
Y9603548D01*
X2964011Y9632618D01*
X2948963Y9658682D01*
X2927682Y9679963D01*
X2901618Y9695011D01*
X2872548Y9702800D01*
D02*
G37*
G36*
X5806248Y10922000D02*
X5776152D01*
X5747082Y10914211D01*
X5721018Y10899163D01*
X5699737Y10877882D01*
X5684689Y10851818D01*
X5676900Y10822748D01*
Y10792652D01*
X5684689Y10763582D01*
X5699737Y10737518D01*
X5721018Y10716237D01*
X5747082Y10701189D01*
X5776152Y10693400D01*
X5806248D01*
X5835318Y10701189D01*
X5840045Y10703918D01*
X6615953Y9928009D01*
Y9682902D01*
X6540500D01*
Y9454302D01*
X6769100D01*
Y9682902D01*
X6693647D01*
Y9944100D01*
X6690689Y9958966D01*
X6682269Y9971569D01*
X5894982Y10758855D01*
X5897711Y10763582D01*
X5905500Y10792652D01*
Y10822748D01*
X5897711Y10851818D01*
X5882663Y10877882D01*
X5861382Y10899163D01*
X5835318Y10914211D01*
X5806248Y10922000D01*
D02*
G37*
G36*
Y10668000D02*
X5776152D01*
X5747082Y10660211D01*
X5721018Y10645163D01*
X5699737Y10623882D01*
X5684689Y10597818D01*
X5676900Y10568748D01*
Y10538652D01*
X5684689Y10509582D01*
X5699737Y10483518D01*
X5721018Y10462237D01*
X5747082Y10447189D01*
X5776152Y10439400D01*
X5806248D01*
X5835318Y10447189D01*
X5840045Y10449918D01*
X6133353Y10156609D01*
Y9588500D01*
X6057900D01*
Y9359900D01*
X6286500D01*
Y9588500D01*
X6211047D01*
Y10172700D01*
X6208089Y10187566D01*
X6199669Y10200169D01*
X5894982Y10504855D01*
X5897711Y10509582D01*
X5905500Y10538652D01*
Y10568748D01*
X5897711Y10597818D01*
X5882663Y10623882D01*
X5861382Y10645163D01*
X5835318Y10660211D01*
X5806248Y10668000D01*
D02*
G37*
G36*
X5933248Y9588500D02*
X5903152D01*
X5874082Y9580711D01*
X5848018Y9565663D01*
X5826737Y9544382D01*
X5811689Y9518318D01*
X5803900Y9489248D01*
Y9459152D01*
X5811689Y9430082D01*
X5826737Y9404018D01*
X5848018Y9382737D01*
X5874082Y9367689D01*
X5903152Y9359900D01*
X5933248D01*
X5962318Y9367689D01*
X5988382Y9382737D01*
X6009663Y9404018D01*
X6024711Y9430082D01*
X6032500Y9459152D01*
Y9489248D01*
X6024711Y9518318D01*
X6009663Y9544382D01*
X5988382Y9565663D01*
X5962318Y9580711D01*
X5933248Y9588500D01*
D02*
G37*
G36*
X5679248D02*
X5649152D01*
X5620082Y9580711D01*
X5594018Y9565663D01*
X5572737Y9544382D01*
X5557689Y9518318D01*
X5549900Y9489248D01*
Y9459152D01*
X5557689Y9430082D01*
X5560418Y9425355D01*
X5509731Y9374669D01*
X5501311Y9362066D01*
X5498353Y9347200D01*
Y8802285D01*
X5486620Y8797424D01*
X5480382Y8803663D01*
X5454318Y8818711D01*
X5425248Y8826500D01*
X5395152D01*
X5366082Y8818711D01*
X5340018Y8803663D01*
X5318737Y8782382D01*
X5303689Y8756318D01*
X5295900Y8727248D01*
Y8697152D01*
X5303689Y8668082D01*
X5318737Y8642018D01*
X5340018Y8620737D01*
X5366082Y8605689D01*
X5395152Y8597900D01*
X5425248D01*
X5454318Y8605689D01*
X5480382Y8620737D01*
X5486620Y8626976D01*
X5498353Y8622115D01*
Y8252889D01*
X5360764Y8115300D01*
X5187102D01*
Y7886700D01*
X5415702D01*
Y8060363D01*
X5564669Y8209330D01*
X5573089Y8221933D01*
X5576047Y8236798D01*
Y8622115D01*
X5587780Y8626976D01*
X5594018Y8620737D01*
X5620082Y8605689D01*
X5649152Y8597900D01*
X5651500D01*
Y8712200D01*
Y8826500D01*
X5649152D01*
X5620082Y8818711D01*
X5594018Y8803663D01*
X5587780Y8797424D01*
X5576047Y8802285D01*
Y9331109D01*
X5615355Y9370418D01*
X5620082Y9367689D01*
X5649152Y9359900D01*
X5679248D01*
X5708318Y9367689D01*
X5734382Y9382737D01*
X5755663Y9404018D01*
X5770711Y9430082D01*
X5778500Y9459152D01*
Y9489248D01*
X5770711Y9518318D01*
X5755663Y9544382D01*
X5734382Y9565663D01*
X5708318Y9580711D01*
X5679248Y9588500D01*
D02*
G37*
G36*
X5425248D02*
X5395152D01*
X5366082Y9580711D01*
X5340018Y9565663D01*
X5318737Y9544382D01*
X5303689Y9518318D01*
X5295900Y9489248D01*
Y9459152D01*
X5303689Y9430082D01*
X5318737Y9404018D01*
X5340018Y9382737D01*
X5366082Y9367689D01*
X5395152Y9359900D01*
X5425248D01*
X5454318Y9367689D01*
X5480382Y9382737D01*
X5501663Y9404018D01*
X5516711Y9430082D01*
X5524500Y9459152D01*
Y9489248D01*
X5516711Y9518318D01*
X5501663Y9544382D01*
X5480382Y9565663D01*
X5454318Y9580711D01*
X5425248Y9588500D01*
D02*
G37*
G36*
X5270500Y9461500D02*
X5168900D01*
Y9359900D01*
X5171248D01*
X5200318Y9367689D01*
X5226382Y9382737D01*
X5247663Y9404018D01*
X5262711Y9430082D01*
X5270500Y9459152D01*
Y9461500D01*
D02*
G37*
G36*
X5143500D02*
X5041900D01*
Y9459152D01*
X5049689Y9430082D01*
X5064737Y9404018D01*
X5086018Y9382737D01*
X5112082Y9367689D01*
X5141152Y9359900D01*
X5143500D01*
Y9461500D01*
D02*
G37*
G36*
X5016500D02*
X4914900D01*
Y9359900D01*
X4917248D01*
X4946318Y9367689D01*
X4972382Y9382737D01*
X4993663Y9404018D01*
X5008711Y9430082D01*
X5016500Y9459152D01*
Y9461500D01*
D02*
G37*
G36*
X4889500D02*
X4787900D01*
Y9459152D01*
X4795689Y9430082D01*
X4810737Y9404018D01*
X4832018Y9382737D01*
X4858082Y9367689D01*
X4887152Y9359900D01*
X4889500D01*
Y9461500D01*
D02*
G37*
G36*
X4762500D02*
X4660900D01*
Y9359900D01*
X4663248D01*
X4692318Y9367689D01*
X4718382Y9382737D01*
X4739663Y9404018D01*
X4754711Y9430082D01*
X4762500Y9459152D01*
Y9461500D01*
D02*
G37*
G36*
X4635500D02*
X4533900D01*
Y9459152D01*
X4541689Y9430082D01*
X4556737Y9404018D01*
X4578018Y9382737D01*
X4604082Y9367689D01*
X4633152Y9359900D01*
X4635500D01*
Y9461500D01*
D02*
G37*
G36*
X3634548Y9448800D02*
X3604452D01*
X3575382Y9441011D01*
X3549318Y9425963D01*
X3528037Y9404682D01*
X3512989Y9378618D01*
X3505200Y9349548D01*
Y9319452D01*
X3512989Y9290382D01*
X3528037Y9264318D01*
X3549318Y9243037D01*
X3575382Y9227989D01*
X3604452Y9220200D01*
X3634548D01*
X3663618Y9227989D01*
X3689682Y9243037D01*
X3710963Y9264318D01*
X3726011Y9290382D01*
X3733800Y9319452D01*
Y9349548D01*
X3726011Y9378618D01*
X3710963Y9404682D01*
X3689682Y9425963D01*
X3663618Y9441011D01*
X3634548Y9448800D01*
D02*
G37*
G36*
X2872548D02*
X2842452D01*
X2813382Y9441011D01*
X2787318Y9425963D01*
X2766037Y9404682D01*
X2750989Y9378618D01*
X2743200Y9349548D01*
Y9319452D01*
X2750989Y9290382D01*
X2766037Y9264318D01*
X2787318Y9243037D01*
X2813382Y9227989D01*
X2842452Y9220200D01*
X2872548D01*
X2901618Y9227989D01*
X2927682Y9243037D01*
X2948963Y9264318D01*
X2964011Y9290382D01*
X2971800Y9319452D01*
Y9349548D01*
X2964011Y9378618D01*
X2948963Y9404682D01*
X2927682Y9425963D01*
X2901618Y9441011D01*
X2872548Y9448800D01*
D02*
G37*
G36*
Y9194800D02*
X2870200D01*
Y9093200D01*
X2971800D01*
Y9095548D01*
X2964011Y9124618D01*
X2948963Y9150682D01*
X2927682Y9171963D01*
X2901618Y9187011D01*
X2872548Y9194800D01*
D02*
G37*
G36*
X2844800D02*
X2842452D01*
X2813382Y9187011D01*
X2787318Y9171963D01*
X2766037Y9150682D01*
X2750989Y9124618D01*
X2743200Y9095548D01*
Y9093200D01*
X2844800D01*
Y9194800D01*
D02*
G37*
G36*
X3634548D02*
X3604452D01*
X3575382Y9187011D01*
X3549318Y9171963D01*
X3528037Y9150682D01*
X3512989Y9124618D01*
X3505200Y9095548D01*
Y9065452D01*
X3512989Y9036382D01*
X3528037Y9010318D01*
X3549318Y8989037D01*
X3575382Y8973989D01*
X3604452Y8966200D01*
X3634548D01*
X3663618Y8973989D01*
X3689682Y8989037D01*
X3710963Y9010318D01*
X3726011Y9036382D01*
X3733800Y9065452D01*
Y9095548D01*
X3726011Y9124618D01*
X3710963Y9150682D01*
X3689682Y9171963D01*
X3663618Y9187011D01*
X3634548Y9194800D01*
D02*
G37*
G36*
X2971800Y9067800D02*
X2870200D01*
Y8966200D01*
X2872548D01*
X2901618Y8973989D01*
X2927682Y8989037D01*
X2948963Y9010318D01*
X2964011Y9036382D01*
X2971800Y9065452D01*
Y9067800D01*
D02*
G37*
G36*
X2844800D02*
X2743200D01*
Y9065452D01*
X2750989Y9036382D01*
X2766037Y9010318D01*
X2787318Y8989037D01*
X2813382Y8973989D01*
X2842452Y8966200D01*
X2844800D01*
Y9067800D01*
D02*
G37*
G36*
X2872548Y8940800D02*
X2870200D01*
Y8839200D01*
X2971800D01*
Y8841548D01*
X2964011Y8870618D01*
X2948963Y8896682D01*
X2927682Y8917963D01*
X2901618Y8933011D01*
X2872548Y8940800D01*
D02*
G37*
G36*
X2844800D02*
X2842452D01*
X2813382Y8933011D01*
X2787318Y8917963D01*
X2766037Y8896682D01*
X2750989Y8870618D01*
X2743200Y8841548D01*
Y8839200D01*
X2844800D01*
Y8940800D01*
D02*
G37*
G36*
X5933248Y8826500D02*
X5930900D01*
Y8724900D01*
X6032500D01*
Y8727248D01*
X6024711Y8756318D01*
X6009663Y8782382D01*
X5988382Y8803663D01*
X5962318Y8818711D01*
X5933248Y8826500D01*
D02*
G37*
G36*
X5679248D02*
X5676900D01*
Y8724900D01*
X5778500D01*
Y8727248D01*
X5770711Y8756318D01*
X5755663Y8782382D01*
X5734382Y8803663D01*
X5708318Y8818711D01*
X5679248Y8826500D01*
D02*
G37*
G36*
X4917248D02*
X4914900D01*
Y8724900D01*
X5016500D01*
Y8727248D01*
X5008711Y8756318D01*
X4993663Y8782382D01*
X4972382Y8803663D01*
X4946318Y8818711D01*
X4917248Y8826500D01*
D02*
G37*
G36*
X4663248D02*
X4660900D01*
Y8724900D01*
X4762500D01*
Y8727248D01*
X4754711Y8756318D01*
X4739663Y8782382D01*
X4718382Y8803663D01*
X4692318Y8818711D01*
X4663248Y8826500D01*
D02*
G37*
G36*
X5905500D02*
X5903152D01*
X5874082Y8818711D01*
X5848018Y8803663D01*
X5826737Y8782382D01*
X5811689Y8756318D01*
X5803900Y8727248D01*
Y8724900D01*
X5905500D01*
Y8826500D01*
D02*
G37*
G36*
X4889500D02*
X4887152D01*
X4858082Y8818711D01*
X4832018Y8803663D01*
X4810737Y8782382D01*
X4795689Y8756318D01*
X4787900Y8727248D01*
Y8724900D01*
X4889500D01*
Y8826500D01*
D02*
G37*
G36*
X4635500D02*
X4633152D01*
X4604082Y8818711D01*
X4578018Y8803663D01*
X4556737Y8782382D01*
X4541689Y8756318D01*
X4533900Y8727248D01*
Y8724900D01*
X4635500D01*
Y8826500D01*
D02*
G37*
G36*
X2971800Y8813800D02*
X2870200D01*
Y8712200D01*
X2872548D01*
X2901618Y8719989D01*
X2927682Y8735037D01*
X2948963Y8756318D01*
X2964011Y8782382D01*
X2971800Y8811452D01*
Y8813800D01*
D02*
G37*
G36*
X2844800D02*
X2743200D01*
Y8811452D01*
X2750989Y8782382D01*
X2766037Y8756318D01*
X2787318Y8735037D01*
X2813382Y8719989D01*
X2842452Y8712200D01*
X2844800D01*
Y8813800D01*
D02*
G37*
G36*
X6032500Y8699500D02*
X5930900D01*
Y8597900D01*
X5933248D01*
X5962318Y8605689D01*
X5988382Y8620737D01*
X6009663Y8642018D01*
X6024711Y8668082D01*
X6032500Y8697152D01*
Y8699500D01*
D02*
G37*
G36*
X5905500D02*
X5803900D01*
Y8697152D01*
X5811689Y8668082D01*
X5826737Y8642018D01*
X5848018Y8620737D01*
X5874082Y8605689D01*
X5903152Y8597900D01*
X5905500D01*
Y8699500D01*
D02*
G37*
G36*
X5778500D02*
X5676900D01*
Y8597900D01*
X5679248D01*
X5708318Y8605689D01*
X5734382Y8620737D01*
X5755663Y8642018D01*
X5770711Y8668082D01*
X5778500Y8697152D01*
Y8699500D01*
D02*
G37*
G36*
X5171248Y8826500D02*
X5141152D01*
X5112082Y8818711D01*
X5086018Y8803663D01*
X5064737Y8782382D01*
X5049689Y8756318D01*
X5041900Y8727248D01*
Y8697152D01*
X5049689Y8668082D01*
X5064737Y8642018D01*
X5086018Y8620737D01*
X5112082Y8605689D01*
X5141152Y8597900D01*
X5171248D01*
X5200318Y8605689D01*
X5226382Y8620737D01*
X5247663Y8642018D01*
X5262711Y8668082D01*
X5270500Y8697152D01*
Y8727248D01*
X5262711Y8756318D01*
X5247663Y8782382D01*
X5226382Y8803663D01*
X5200318Y8818711D01*
X5171248Y8826500D01*
D02*
G37*
G36*
X5016500Y8699500D02*
X4914900D01*
Y8597900D01*
X4917248D01*
X4946318Y8605689D01*
X4972382Y8620737D01*
X4993663Y8642018D01*
X5008711Y8668082D01*
X5016500Y8697152D01*
Y8699500D01*
D02*
G37*
G36*
X4889500D02*
X4787900D01*
Y8697152D01*
X4795689Y8668082D01*
X4810737Y8642018D01*
X4832018Y8620737D01*
X4858082Y8605689D01*
X4887152Y8597900D01*
X4889500D01*
Y8699500D01*
D02*
G37*
G36*
X4762500D02*
X4660900D01*
Y8597900D01*
X4663248D01*
X4692318Y8605689D01*
X4718382Y8620737D01*
X4739663Y8642018D01*
X4754711Y8668082D01*
X4762500Y8697152D01*
Y8699500D01*
D02*
G37*
G36*
X4635500D02*
X4533900D01*
Y8697152D01*
X4541689Y8668082D01*
X4556737Y8642018D01*
X4578018Y8620737D01*
X4604082Y8605689D01*
X4633152Y8597900D01*
X4635500D01*
Y8699500D01*
D02*
G37*
G36*
X3634548Y8940800D02*
X3604452D01*
X3575382Y8933011D01*
X3549318Y8917963D01*
X3528037Y8896682D01*
X3512989Y8870618D01*
X3505200Y8841548D01*
Y8811452D01*
X3512989Y8782382D01*
X3528037Y8756318D01*
X3549318Y8735037D01*
X3575382Y8719989D01*
X3604452Y8712200D01*
X3634548D01*
X3663618Y8719989D01*
X3689682Y8735037D01*
X3710963Y8756318D01*
X3726011Y8782382D01*
X3727423Y8787653D01*
X3997109D01*
X5027131Y7757631D01*
X5039734Y7749211D01*
X5054600Y7746253D01*
X5439598D01*
X5454464Y7749211D01*
X5467067Y7757631D01*
X5871537Y8162102D01*
X6045200D01*
Y8335765D01*
X6339187Y8629752D01*
X6546877D01*
X6548289Y8624480D01*
X6563337Y8598417D01*
X6584618Y8577135D01*
X6610682Y8562088D01*
X6639752Y8554298D01*
X6669848D01*
X6698918Y8562088D01*
X6724982Y8577135D01*
X6746263Y8598417D01*
X6761311Y8624480D01*
X6769100Y8653550D01*
Y8683646D01*
X6761311Y8712717D01*
X6746263Y8738780D01*
X6724982Y8760061D01*
X6698918Y8775109D01*
X6669848Y8782898D01*
X6639752D01*
X6610682Y8775109D01*
X6584618Y8760061D01*
X6563337Y8738780D01*
X6548289Y8712717D01*
X6546877Y8707445D01*
X6323096D01*
X6308230Y8704488D01*
X6299200Y8698454D01*
X6288918Y8702560D01*
X6286500Y8704900D01*
Y8727248D01*
X6278711Y8756318D01*
X6263663Y8782382D01*
X6242382Y8803663D01*
X6216318Y8818711D01*
X6187248Y8826500D01*
X6157152D01*
X6128082Y8818711D01*
X6102018Y8803663D01*
X6080737Y8782382D01*
X6065689Y8756318D01*
X6057900Y8727248D01*
Y8697152D01*
X6065689Y8668082D01*
X6080737Y8642018D01*
X6102018Y8620737D01*
X6128082Y8605689D01*
X6157152Y8597900D01*
X6179500D01*
X6184761Y8585200D01*
X5990263Y8390702D01*
X5816600D01*
Y8217039D01*
X5423507Y7823947D01*
X5070691D01*
X4040669Y8853969D01*
X4028066Y8862389D01*
X4013200Y8865347D01*
X3727423D01*
X3726011Y8870618D01*
X3710963Y8896682D01*
X3689682Y8917963D01*
X3663618Y8933011D01*
X3634548Y8940800D01*
D02*
G37*
G36*
X2872548Y8686800D02*
X2842452D01*
X2813382Y8679011D01*
X2787318Y8663963D01*
X2766037Y8642682D01*
X2750989Y8616618D01*
X2743200Y8587548D01*
Y8557452D01*
X2750989Y8528382D01*
X2766037Y8502318D01*
X2787318Y8481037D01*
X2813382Y8465989D01*
X2842452Y8458200D01*
X2872548D01*
X2901618Y8465989D01*
X2927682Y8481037D01*
X2948963Y8502318D01*
X2964011Y8528382D01*
X2971800Y8557452D01*
Y8587548D01*
X2964011Y8616618D01*
X2948963Y8642682D01*
X2927682Y8663963D01*
X2901618Y8679011D01*
X2872548Y8686800D01*
D02*
G37*
G36*
X3587748Y8216900D02*
X3585400D01*
Y8115300D01*
X3687000D01*
Y8117648D01*
X3679211Y8146718D01*
X3664163Y8172782D01*
X3642882Y8194063D01*
X3616818Y8209111D01*
X3587748Y8216900D01*
D02*
G37*
G36*
X3560000D02*
X3557652D01*
X3528582Y8209111D01*
X3502518Y8194063D01*
X3481237Y8172782D01*
X3466189Y8146718D01*
X3458400Y8117648D01*
Y8115300D01*
X3560000D01*
Y8216900D01*
D02*
G37*
G36*
X3687000Y8089900D02*
X3585400D01*
Y7988300D01*
X3587748D01*
X3616818Y7996089D01*
X3642882Y8011137D01*
X3664163Y8032418D01*
X3679211Y8058482D01*
X3687000Y8087552D01*
Y8089900D01*
D02*
G37*
G36*
X3560000D02*
X3458400D01*
Y8087552D01*
X3466189Y8058482D01*
X3481237Y8032418D01*
X3502518Y8011137D01*
X3528582Y7996089D01*
X3557652Y7988300D01*
X3560000D01*
Y8089900D01*
D02*
G37*
G36*
X3733800Y8686800D02*
X3505200D01*
Y8458200D01*
X3580653D01*
Y8343900D01*
X3583611Y8329034D01*
X3592031Y8316431D01*
X3833331Y8075131D01*
X3845934Y8066711D01*
X3860800Y8063753D01*
X3958399D01*
Y7988300D01*
X4186999D01*
Y8063753D01*
X4283708D01*
X4297616Y8049845D01*
X4294888Y8045118D01*
X4287098Y8016048D01*
Y7985952D01*
X4294888Y7956882D01*
X4309935Y7930818D01*
X4331217Y7909537D01*
X4357280Y7894489D01*
X4386350Y7886700D01*
X4416446D01*
X4445517Y7894489D01*
X4471580Y7909537D01*
X4492861Y7930818D01*
X4507909Y7956882D01*
X4515698Y7985952D01*
Y8016048D01*
X4507909Y8045118D01*
X4492861Y8071182D01*
X4471580Y8092463D01*
X4445517Y8107511D01*
X4416446Y8115300D01*
X4386350D01*
X4357280Y8107511D01*
X4352554Y8104782D01*
X4327267Y8130069D01*
X4314664Y8138489D01*
X4299798Y8141447D01*
X4186999D01*
Y8216900D01*
X3958399D01*
Y8141447D01*
X3876891D01*
X3658347Y8359991D01*
Y8458200D01*
X3733800D01*
Y8686800D01*
D02*
G37*
G36*
X5945948Y7890698D02*
X5943600D01*
Y7789098D01*
X6045200D01*
Y7791446D01*
X6037411Y7820516D01*
X6022363Y7846580D01*
X6001082Y7867861D01*
X5975018Y7882909D01*
X5945948Y7890698D01*
D02*
G37*
G36*
X5918200D02*
X5915852D01*
X5886782Y7882909D01*
X5860718Y7867861D01*
X5839437Y7846580D01*
X5824389Y7820516D01*
X5816600Y7791446D01*
Y7789098D01*
X5918200D01*
Y7890698D01*
D02*
G37*
G36*
X8399275Y8049400D02*
X8364725D01*
X8330838Y8042659D01*
X8298917Y8029437D01*
X8270189Y8010242D01*
X8245758Y7985811D01*
X8226563Y7957083D01*
X8213341Y7925162D01*
X8206600Y7891275D01*
Y7856725D01*
X8213341Y7822838D01*
X8226563Y7790917D01*
X8245758Y7762189D01*
X8270189Y7737758D01*
X8298917Y7718563D01*
X8330838Y7705341D01*
X8364725Y7698600D01*
X8399275D01*
X8433162Y7705341D01*
X8465083Y7718563D01*
X8493811Y7737758D01*
X8518242Y7762189D01*
X8537437Y7790917D01*
X8550659Y7822838D01*
X8557400Y7856725D01*
Y7891275D01*
X8550659Y7925162D01*
X8537437Y7957083D01*
X8518242Y7985811D01*
X8493811Y8010242D01*
X8465083Y8029437D01*
X8433162Y8042659D01*
X8399275Y8049400D01*
D02*
G37*
G36*
X3014475D02*
X2979925D01*
X2946038Y8042659D01*
X2914117Y8029437D01*
X2885389Y8010242D01*
X2860958Y7985811D01*
X2841763Y7957083D01*
X2828541Y7925162D01*
X2821800Y7891275D01*
Y7856725D01*
X2828541Y7822838D01*
X2841763Y7790917D01*
X2860958Y7762189D01*
X2885389Y7737758D01*
X2914117Y7718563D01*
X2946038Y7705341D01*
X2979925Y7698600D01*
X3014475D01*
X3048362Y7705341D01*
X3080283Y7718563D01*
X3109011Y7737758D01*
X3133442Y7762189D01*
X3152637Y7790917D01*
X3165859Y7822838D01*
X3172600Y7856725D01*
Y7891275D01*
X3165859Y7925162D01*
X3152637Y7957083D01*
X3133442Y7985811D01*
X3109011Y8010242D01*
X3080283Y8029437D01*
X3048362Y8042659D01*
X3014475Y8049400D01*
D02*
G37*
G36*
X6045200Y7763698D02*
X5943600D01*
Y7662098D01*
X5945948D01*
X5975018Y7669887D01*
X6001082Y7684935D01*
X6022363Y7706216D01*
X6037411Y7732280D01*
X6045200Y7761350D01*
Y7763698D01*
D02*
G37*
G36*
X5918200D02*
X5816600D01*
Y7761350D01*
X5824389Y7732280D01*
X5839437Y7706216D01*
X5860718Y7684935D01*
X5886782Y7669887D01*
X5915852Y7662098D01*
X5918200D01*
Y7763698D01*
D02*
G37*
%LPD*%
G36*
X3387729Y12878767D02*
X3363545Y12854582D01*
X3358818Y12857310D01*
X3329748Y12865100D01*
X3299652D01*
X3270582Y12857310D01*
X3244518Y12842262D01*
X3223237Y12820982D01*
X3208189Y12794918D01*
X3200400Y12765848D01*
Y12735752D01*
X3208189Y12706682D01*
X3223237Y12680618D01*
X3236237Y12667619D01*
X3234626Y12651269D01*
X3122131Y12538773D01*
X3113711Y12526171D01*
X3110753Y12511305D01*
Y12239902D01*
X3098800Y12238100D01*
Y12238100D01*
X3023347D01*
Y12658509D01*
X3255337Y12890500D01*
X3382869D01*
X3387729Y12878767D01*
D02*
G37*
G36*
X3972918Y12545645D02*
X3970189Y12540918D01*
X3962400Y12511848D01*
Y12481752D01*
X3970189Y12452682D01*
X3985237Y12426618D01*
X3991476Y12420380D01*
X3986615Y12408647D01*
X3914991D01*
X3812069Y12511569D01*
X3799466Y12519989D01*
X3784600Y12522947D01*
X3426026D01*
X3421211Y12540918D01*
X3406163Y12566982D01*
X3399924Y12573220D01*
X3404785Y12584953D01*
X3933609D01*
X3972918Y12545645D01*
D02*
G37*
D10*
X4800100Y12496800D02*
X5066800Y12763500D01*
X4076700Y12496800D02*
X4800100D01*
X4299798Y8102600D02*
X4401398Y8001000D01*
X4072699Y8102600D02*
X4299798D01*
X3860800D02*
X4072699D01*
X3619500Y8343900D02*
X3860800Y8102600D01*
X3619500Y8343900D02*
Y8572500D01*
X5384800Y10464800D02*
X5549900Y10299700D01*
X5384800Y10464800D02*
Y11798300D01*
X5549900Y10299700D02*
X5791200D01*
X4406900Y12136500D02*
X5046600D01*
X5384800Y11798300D01*
X3314700Y12496800D02*
X3327400Y12484100D01*
X3784600D01*
X3327400D02*
X3343860Y12467640D01*
X3898900Y12369800D02*
X5873439D01*
X3784600Y12484100D02*
X3898900Y12369800D01*
X5873439D02*
X5949639Y12446000D01*
X5955802D01*
X2730500Y10634818D02*
X3091018Y10274300D01*
X2730500Y10634818D02*
Y11869800D01*
X2984500Y12123800D01*
X3343860Y12404140D02*
Y12467640D01*
Y12404140D02*
X3689350Y12058650D01*
Y11106150D02*
Y12058650D01*
Y11106150D02*
X4064000Y10731500D01*
X4992595Y11315700D02*
X5029200D01*
X4921095Y11244200D02*
X4992595Y11315700D01*
X4445000Y11244200D02*
X4921095D01*
X4440300Y11239500D02*
X4445000Y11244200D01*
X4064000Y11239500D02*
X4440300D01*
X5955802Y12700000D02*
X7137400D01*
X5955802D02*
X5956300Y12700498D01*
X3492500Y12928600D02*
Y13360400D01*
X3314700Y12750800D02*
X3492500Y12928600D01*
X3255118Y13597781D02*
X3492500Y13360400D01*
X2869418Y13597781D02*
X3255118D01*
X2852800Y13614400D02*
X2869418Y13597781D01*
X2984500Y12674600D02*
X3314700Y13004800D01*
X2984500Y12123800D02*
Y12674600D01*
X3856909Y10274300D02*
X4403009Y9728200D01*
X3091018Y10274300D02*
X3856909D01*
X5156200Y9728200D02*
X5473700Y10045700D01*
X5791200D01*
X4403009Y9728200D02*
X5156200D01*
X3949700Y12623800D02*
X4076700Y12496800D01*
X3262095Y12623800D02*
X3949700D01*
X3149600Y12511305D02*
X3262095Y12623800D01*
X3149600Y11391900D02*
Y12511305D01*
X7404100Y11658600D02*
X8191500Y12446000D01*
X7404100Y11455400D02*
Y11658600D01*
X7277100Y10820400D02*
X7404100Y10693400D01*
X7277100Y10820400D02*
Y12306300D01*
X7137400Y12446000D02*
X7277100Y12306300D01*
X7018400Y11323700D02*
X7150100Y11455400D01*
X6464300Y11323700D02*
X7018400D01*
X6456300Y11315700D02*
X6464300Y11323700D01*
X5791200Y11315700D02*
X6456300D01*
X6301246Y10691354D02*
X6301246D01*
X5930900Y11061700D02*
X6301246Y10691354D01*
X5791200Y11061700D02*
X5930900D01*
X6301246Y10691354D02*
X6894054D01*
X6896100Y10693400D01*
X6654800Y9568602D02*
Y9944100D01*
X5791200Y10807700D02*
X6654800Y9944100D01*
X6172200Y9474200D02*
Y10172700D01*
X5791200Y10553700D02*
X6172200Y10172700D01*
X5930900Y8276402D02*
X6323096Y8668598D01*
X6654800D01*
X5301402Y8001000D02*
X5537200Y8236798D01*
Y9347200D01*
X5664200Y9474200D01*
X5439598Y7785100D02*
X5930900Y8276402D01*
X5054600Y7785100D02*
X5439598D01*
X4013200Y8826500D02*
X5054600Y7785100D01*
X3619500Y8826500D02*
X4013200D01*
X3851300Y13615900D02*
X3852800Y13614400D01*
X5791200Y11061700D02*
X5793005D01*
X3149600Y11391900D02*
X3302000Y11239500D01*
X5956300Y12700498D02*
Y13503181D01*
X6156418Y13703300D01*
X6159500D01*
X7162800Y12700000D02*
X8191500D01*
X6797803Y13139803D02*
X7069201Y13411200D01*
X6616700Y13139803D02*
X6797803D01*
X6468998D02*
X6616700D01*
X6159500Y13449300D02*
X6468998Y13139803D01*
X7006400Y14139799D02*
X7014400Y14147800D01*
X6616700Y14139799D02*
X7006400D01*
X6616700D02*
X6629400D01*
X6182550Y13703300D02*
X6619050Y14139799D01*
X6159500Y13703300D02*
X6182550D01*
D11*
X2852800Y13614400D02*
D03*
D12*
X3852800D02*
D03*
D27*
X5066800Y12509500D02*
D03*
Y12763500D02*
D03*
X4648200Y8712200D02*
D03*
X4902200D02*
D03*
X5156200D02*
D03*
X5410200D02*
D03*
X5664200D02*
D03*
X5918200D02*
D03*
X4902200Y9474200D02*
D03*
X5156200D02*
D03*
X5410200D02*
D03*
X5664200D02*
D03*
X5918200D02*
D03*
X6172200Y8712200D02*
D03*
X4648200Y9474200D02*
D03*
X2984500Y13123801D02*
D03*
X4406900Y13136501D02*
D03*
X7008354Y9984246D02*
D03*
X6464300Y12323700D02*
D03*
X2997200Y10764900D02*
D03*
X4445000Y10244200D02*
D03*
X5791200Y10299700D02*
D03*
Y10553700D02*
D03*
Y10807700D02*
D03*
Y11061700D02*
D03*
Y11315700D02*
D03*
Y11569700D02*
D03*
X5029200Y10045700D02*
D03*
Y10299700D02*
D03*
Y10553700D02*
D03*
Y10807700D02*
D03*
Y11061700D02*
D03*
Y11315700D02*
D03*
Y11569700D02*
D03*
X2857500Y10096500D02*
D03*
Y9842500D02*
D03*
Y9588500D02*
D03*
Y9334500D02*
D03*
Y9080500D02*
D03*
Y8826500D02*
D03*
Y8572500D02*
D03*
X3619500Y10096500D02*
D03*
Y9842500D02*
D03*
Y9588500D02*
D03*
Y9334500D02*
D03*
Y9080500D02*
D03*
Y8826500D02*
D03*
X3302000Y11239500D02*
D03*
Y10985500D02*
D03*
Y10731500D02*
D03*
X4064000Y11493500D02*
D03*
Y11239500D02*
D03*
Y10985500D02*
D03*
Y10731500D02*
D03*
X7658100Y11455400D02*
D03*
X7404100D02*
D03*
X7150100D02*
D03*
X6896100D02*
D03*
X7658100Y10693400D02*
D03*
X7404100D02*
D03*
X7150100D02*
D03*
X3314700Y12750800D02*
D03*
Y12496800D02*
D03*
Y12242800D02*
D03*
X4076700Y13004800D02*
D03*
Y12750800D02*
D03*
Y12496800D02*
D03*
Y12242800D02*
D03*
X5955802Y12446000D02*
D03*
Y12192000D02*
D03*
X8191500Y12446000D02*
D03*
Y12192000D02*
D03*
X5461000Y13832301D02*
D03*
X7514399Y14147800D02*
D03*
X7137400Y12446000D02*
D03*
Y12192000D02*
D03*
X6616700Y14139799D02*
D03*
X7069201Y13411200D02*
D03*
X6654800Y8668598D02*
D03*
X5930900Y7776398D02*
D03*
X4401398Y8001000D02*
D03*
X3572700Y8102600D02*
D03*
D28*
X5066800Y13017500D02*
D03*
X5791200Y10045700D02*
D03*
X3619500Y8572500D02*
D03*
X3302000Y11493500D02*
D03*
X3314700Y13004800D02*
D03*
X5955802Y12700000D02*
D03*
X8191500D02*
D03*
X7014400Y14147800D02*
D03*
X7137400Y12700000D02*
D03*
X8069199Y13411200D02*
D03*
X5301402Y8001000D02*
D03*
X4072699Y8102600D02*
D03*
D29*
X6172200Y9474200D02*
D03*
X2984500Y12123800D02*
D03*
X4406900Y12136500D02*
D03*
X6464300Y11323700D02*
D03*
X2997200Y11764900D02*
D03*
X4445000Y11244200D02*
D03*
X6896100Y10693400D02*
D03*
X5461000Y14082298D02*
D03*
X6616700Y13139803D02*
D03*
X6654800Y9568602D02*
D03*
X5930900Y8276402D02*
D03*
D30*
X6301246Y10691354D02*
D03*
D31*
X2997200Y7874000D02*
D03*
X8382000D02*
D03*
Y14020799D02*
D03*
X2997200D02*
D03*
D32*
X4651300Y14224001D02*
D03*
X4451300D02*
D03*
X4251300D02*
D03*
X4051300D02*
D03*
X3851300D02*
D03*
D33*
X3651300D02*
D03*
D34*
X6159500Y13449300D02*
D03*
D35*
Y13703300D02*
D03*
Y13957300D02*
D03*
%TF.MD5,4d03b031733973c2924f229ecd3fd0f8*%
M02*
