%TF.GenerationSoftware,Altium Limited,Altium Designer,25.1.2 (22)*%
G04 Layer_Physical_Order=1*
G04 Layer_Color=255*
%FSLAX45Y45*%
%MOMM*%
%TF.SameCoordinates,865E584C-48B1-4366-BF19-9A83E66404FA*%
%TF.FilePolarity,Positive*%
%TF.FileFunction,Copper,L1,Top,Signal*%
%TF.Part,Single*%
G01*
G75*
%TA.AperFunction,ComponentPad*%
%ADD10C,1.20000*%
%ADD11R,1.20000X1.20000*%
%ADD12C,1.50000*%
%ADD13R,1.50000X1.50000*%
%ADD14C,1.25000*%
%ADD15R,1.25000X1.25000*%
%ADD16R,1.50000X1.50000*%
%ADD17R,1.25000X1.25000*%
%TA.AperFunction,ViaPad*%
%ADD18C,1.52400*%
%TA.AperFunction,ComponentPad*%
%ADD19R,1.20000X1.20000*%
%ADD20R,1.80000X1.80000*%
%ADD21C,1.80000*%
%ADD22R,1.35000X1.35000*%
%ADD23C,1.35000*%
%TA.AperFunction,ViaPad*%
%ADD24C,1.27000*%
D10*
X7937500Y12192000D02*
D03*
Y11938000D02*
D03*
X4914900Y12179300D02*
D03*
Y11925300D02*
D03*
X4843400Y13847200D02*
D03*
X4643400D02*
D03*
X4443400D02*
D03*
X4243400D02*
D03*
X4043400D02*
D03*
X5689600Y11938000D02*
D03*
Y12192000D02*
D03*
X7201400Y11938000D02*
D03*
Y12192000D02*
D03*
X5461000Y13679903D02*
D03*
X3390900Y12513503D02*
D03*
X7137400Y13173901D02*
D03*
X4953001Y13369102D02*
D03*
X7747000Y13360400D02*
D03*
Y13614400D02*
D03*
X6451600Y11938000D02*
D03*
Y12192000D02*
D03*
X5473700Y8263702D02*
D03*
X3433000Y7797800D02*
D03*
D11*
X7937500Y11684000D02*
D03*
X4914900Y11671300D02*
D03*
X3843400Y13847200D02*
D03*
X5689600Y11684000D02*
D03*
X7201400D02*
D03*
X7747000Y13106400D02*
D03*
X6451600Y11684000D02*
D03*
X3932999Y7797800D02*
D03*
D12*
X3835400Y9969500D02*
D03*
Y9715500D02*
D03*
Y9461500D02*
D03*
Y9207500D02*
D03*
Y8953500D02*
D03*
Y8699500D02*
D03*
X4597400Y9715500D02*
D03*
Y9461500D02*
D03*
Y9207500D02*
D03*
Y8953500D02*
D03*
Y8699500D02*
D03*
X3835400Y8445500D02*
D03*
X4597400Y9969500D02*
D03*
X5346700Y8674100D02*
D03*
X5600700D02*
D03*
X5854700D02*
D03*
X6108700D02*
D03*
X6362700D02*
D03*
X6616700D02*
D03*
X5092700Y9436100D02*
D03*
X5346700D02*
D03*
X5600700D02*
D03*
X5854700D02*
D03*
X6108700D02*
D03*
X6362700D02*
D03*
X6616700D02*
D03*
X2705100Y9969500D02*
D03*
Y9715500D02*
D03*
Y9461500D02*
D03*
Y9207500D02*
D03*
Y8953500D02*
D03*
Y8699500D02*
D03*
Y8445500D02*
D03*
X3467100Y9969500D02*
D03*
Y9715500D02*
D03*
Y9461500D02*
D03*
Y9207500D02*
D03*
Y8953500D02*
D03*
Y8699500D02*
D03*
X5283200Y10579100D02*
D03*
Y10325100D02*
D03*
Y10071100D02*
D03*
X6045200Y10833100D02*
D03*
Y10579100D02*
D03*
Y10325100D02*
D03*
Y10071100D02*
D03*
X7874000Y10058400D02*
D03*
Y10312400D02*
D03*
Y10566400D02*
D03*
Y10820400D02*
D03*
X7112000Y10058400D02*
D03*
Y10312400D02*
D03*
Y10566400D02*
D03*
X3340100Y11214100D02*
D03*
Y10960100D02*
D03*
Y10706100D02*
D03*
X4102100Y11468100D02*
D03*
Y11214100D02*
D03*
Y10960100D02*
D03*
Y10706100D02*
D03*
D13*
X4597400Y8445500D02*
D03*
X3467100D02*
D03*
X5283200Y10833100D02*
D03*
X7112000Y10820400D02*
D03*
X3340100Y11468100D02*
D03*
D14*
X3009900Y11587100D02*
D03*
X4432300Y11599800D02*
D03*
X6781800Y10952100D02*
D03*
X8191500D02*
D03*
X4978400Y10939400D02*
D03*
X6362700Y10952100D02*
D03*
X4432299Y13365100D02*
D03*
X4094099Y12115801D02*
D03*
X6705600Y14139799D02*
D03*
X6710299Y12839700D02*
D03*
D15*
X3009900Y10587100D02*
D03*
X4432300Y10599800D02*
D03*
X6781800Y9952100D02*
D03*
X8191500D02*
D03*
X4978400Y9939400D02*
D03*
X6362700Y9952100D02*
D03*
X4432299Y12365102D02*
D03*
X6705600Y13139803D02*
D03*
D16*
X5092700Y8674100D02*
D03*
D17*
X3094101Y12115801D02*
D03*
X5710301Y12839700D02*
D03*
D18*
X2997200Y7874000D02*
D03*
X8382000D02*
D03*
Y14020799D02*
D03*
X2997200D02*
D03*
D19*
X5461000Y13929898D02*
D03*
X3390900Y12763500D02*
D03*
X7137400Y13673900D02*
D03*
X4953001Y12869098D02*
D03*
X5473700Y7763698D02*
D03*
D20*
X6248400Y13360400D02*
D03*
X4000499Y12661900D02*
D03*
D21*
X6248400Y13614400D02*
D03*
Y13868401D02*
D03*
X4000499Y12915900D02*
D03*
Y13169901D02*
D03*
D22*
X6761902Y7759700D02*
D03*
X5085502Y7797800D02*
D03*
D23*
X5861898Y7759700D02*
D03*
X4185498Y7797800D02*
D03*
D24*
X8585200Y12230100D02*
D03*
Y12636500D02*
D03*
Y13512801D02*
D03*
Y13081000D02*
D03*
%TF.MD5,f0ebefdd394e1a5cd1ab58ee2ce192ec*%
M02*
