%TF.GenerationSoftware,Altium Limited,Altium Designer,25.1.2 (22)*%
G04 Layer_Color=8388736*
%FSLAX45Y45*%
%MOMM*%
%TF.SameCoordinates,4BC43169-6B9A-449D-A763-764CEB413953*%
%TF.FilePolarity,Negative*%
%TF.FileFunction,Soldermask,Top*%
%TF.Part,Single*%
G01*
G75*
%TA.AperFunction,ComponentPad*%
%ADD11C,1.25000*%
%ADD12R,1.25000X1.25000*%
%ADD13C,1.20000*%
%ADD14R,1.20000X1.20000*%
%ADD17R,1.25000X1.25000*%
%ADD18P,1.76777X4X360.0*%
%ADD21R,1.20000X1.20000*%
%ADD42C,1.70320*%
%ADD43R,1.70320X1.70320*%
%ADD44R,1.70320X1.70320*%
%TA.AperFunction,ViaPad*%
%ADD45C,1.72720*%
%TA.AperFunction,ComponentPad*%
%ADD46R,2.00320X2.00320*%
%ADD47C,2.00320*%
%ADD48R,1.55320X1.55320*%
%ADD49C,1.55320*%
%ADD50R,1.55320X1.55320*%
D11*
X2852800Y13614400D02*
D03*
X2984500Y13123801D02*
D03*
X4406900Y13136501D02*
D03*
X7008354Y9984246D02*
D03*
X6464300Y12323700D02*
D03*
X2997200Y10764900D02*
D03*
X4445000Y10244200D02*
D03*
X6616700Y14139799D02*
D03*
X7069201Y13411200D02*
D03*
D12*
X3852800Y13614400D02*
D03*
X8069199Y13411200D02*
D03*
D13*
X5066800Y12509500D02*
D03*
Y12763500D02*
D03*
X4651300Y14224001D02*
D03*
X4451300D02*
D03*
X4251300D02*
D03*
X4051300D02*
D03*
X3851300D02*
D03*
X5955802Y12446000D02*
D03*
Y12192000D02*
D03*
X8191500Y12446000D02*
D03*
Y12192000D02*
D03*
X5461000Y13832301D02*
D03*
X7514399Y14147800D02*
D03*
X7137400Y12446000D02*
D03*
Y12192000D02*
D03*
X5930900Y7776398D02*
D03*
X3572700Y8102600D02*
D03*
D14*
X5066800Y13017500D02*
D03*
X3651300Y14224001D02*
D03*
X5955802Y12700000D02*
D03*
X8191500D02*
D03*
X7014400Y14147800D02*
D03*
X7137400Y12700000D02*
D03*
X4072699Y8102600D02*
D03*
D17*
X2984500Y12123800D02*
D03*
X4406900Y12136500D02*
D03*
X6464300Y11323700D02*
D03*
X2997200Y11764900D02*
D03*
X4445000Y11244200D02*
D03*
X6616700Y13139803D02*
D03*
D18*
X6301246Y10691354D02*
D03*
D21*
X5461000Y14082298D02*
D03*
X5930900Y8276402D02*
D03*
D42*
X4648200Y8712200D02*
D03*
X4902200D02*
D03*
X5156200D02*
D03*
X5410200D02*
D03*
X5664200D02*
D03*
X5918200D02*
D03*
X4902200Y9474200D02*
D03*
X5156200D02*
D03*
X5410200D02*
D03*
X5664200D02*
D03*
X5918200D02*
D03*
X6172200Y8712200D02*
D03*
X4648200Y9474200D02*
D03*
X5791200Y10299700D02*
D03*
Y10553700D02*
D03*
Y10807700D02*
D03*
Y11061700D02*
D03*
Y11315700D02*
D03*
Y11569700D02*
D03*
X5029200Y10045700D02*
D03*
Y10299700D02*
D03*
Y10553700D02*
D03*
Y10807700D02*
D03*
Y11061700D02*
D03*
Y11315700D02*
D03*
Y11569700D02*
D03*
X2857500Y10096500D02*
D03*
Y9842500D02*
D03*
Y9588500D02*
D03*
Y9334500D02*
D03*
Y9080500D02*
D03*
Y8826500D02*
D03*
Y8572500D02*
D03*
X3619500Y10096500D02*
D03*
Y9842500D02*
D03*
Y9588500D02*
D03*
Y9334500D02*
D03*
Y9080500D02*
D03*
Y8826500D02*
D03*
X3302000Y11239500D02*
D03*
Y10985500D02*
D03*
Y10731500D02*
D03*
X4064000Y11493500D02*
D03*
Y11239500D02*
D03*
Y10985500D02*
D03*
Y10731500D02*
D03*
X7658100Y11455400D02*
D03*
X7404100D02*
D03*
X7150100D02*
D03*
X6896100D02*
D03*
X7658100Y10693400D02*
D03*
X7404100D02*
D03*
X7150100D02*
D03*
X3314700Y12750800D02*
D03*
Y12496800D02*
D03*
Y12242800D02*
D03*
X4076700Y13004800D02*
D03*
Y12750800D02*
D03*
Y12496800D02*
D03*
Y12242800D02*
D03*
D43*
X6172200Y9474200D02*
D03*
X6896100Y10693400D02*
D03*
D44*
X5791200Y10045700D02*
D03*
X3619500Y8572500D02*
D03*
X3302000Y11493500D02*
D03*
X3314700Y13004800D02*
D03*
D45*
X2997200Y7874000D02*
D03*
X8382000D02*
D03*
Y14020799D02*
D03*
X2997200D02*
D03*
D46*
X6159500Y13449300D02*
D03*
D47*
Y13703300D02*
D03*
Y13957300D02*
D03*
D48*
X6654800Y9568602D02*
D03*
D49*
Y8668598D02*
D03*
X4401398Y8001000D02*
D03*
D50*
X5301402D02*
D03*
%TF.MD5,a692961bbeaffb87c25c946d2277506b*%
M02*
