%TF.GenerationSoftware,Altium Limited,Altium Designer,25.2.1 (25)*%
G04 Layer_Color=32896*
%FSLAX45Y45*%
%MOMM*%
%TF.SameCoordinates,8691A9DC-F0AF-48AF-AEAD-F0BAF975D49B*%
%TF.FilePolarity,Positive*%
%TF.FileFunction,Legend,Bot*%
%TF.Part,Single*%
G01*
G75*
%TA.AperFunction,NonConductor*%
%ADD54C,0.25400*%
D54*
X7772400Y8158362D02*
Y8310712D01*
X7696225D01*
X7670833Y8285320D01*
Y8234537D01*
X7696225Y8209145D01*
X7772400D01*
X7620049Y8310712D02*
Y8158362D01*
X7518482D01*
X7366131Y8310712D02*
X7467699D01*
Y8158362D01*
X7366131D01*
X7467699Y8234537D02*
X7416915D01*
X7315348Y8158362D02*
Y8259929D01*
X7264564Y8310712D01*
X7213781Y8259929D01*
Y8158362D01*
Y8234537D01*
X7315348D01*
X7061430Y8285320D02*
X7086822Y8310712D01*
X7137605D01*
X7162997Y8285320D01*
Y8259929D01*
X7137605Y8234537D01*
X7086822D01*
X7061430Y8209145D01*
Y8183754D01*
X7086822Y8158362D01*
X7137605D01*
X7162997Y8183754D01*
X6909079Y8310712D02*
X7010646D01*
Y8158362D01*
X6909079D01*
X7010646Y8234537D02*
X6959863D01*
X6705945Y8310712D02*
Y8158362D01*
X6655161Y8209145D01*
X6604378Y8158362D01*
Y8310712D01*
X6477419D02*
X6528202D01*
X6553594Y8285320D01*
Y8183754D01*
X6528202Y8158362D01*
X6477419D01*
X6452027Y8183754D01*
Y8285320D01*
X6477419Y8310712D01*
X6401243Y8158362D02*
Y8310712D01*
X6325068D01*
X6299676Y8285320D01*
Y8234537D01*
X6325068Y8209145D01*
X6401243D01*
X6350460D02*
X6299676Y8158362D01*
X6248893Y8310712D02*
Y8158362D01*
Y8209145D01*
X6147326Y8310712D01*
X6223501Y8234537D01*
X6147326Y8158362D01*
X5944191D02*
Y8310712D01*
X5868016D01*
X5842624Y8285320D01*
Y8234537D01*
X5868016Y8209145D01*
X5944191D01*
X5791841Y8310712D02*
Y8158362D01*
X5690273D01*
X5537923Y8310712D02*
X5639490D01*
Y8158362D01*
X5537923D01*
X5639490Y8234537D02*
X5588706D01*
X5487139Y8158362D02*
Y8259929D01*
X5436356Y8310712D01*
X5385572Y8259929D01*
Y8158362D01*
Y8234537D01*
X5487139D01*
X5233221Y8285320D02*
X5258613Y8310712D01*
X5309397D01*
X5334788Y8285320D01*
Y8259929D01*
X5309397Y8234537D01*
X5258613D01*
X5233221Y8209145D01*
Y8183754D01*
X5258613Y8158362D01*
X5309397D01*
X5334788Y8183754D01*
X5080870Y8310712D02*
X5182438D01*
Y8158362D01*
X5080870D01*
X5182438Y8234537D02*
X5131654D01*
X7772400Y7914581D02*
Y8066932D01*
X7696225D01*
X7670833Y8041540D01*
Y7990756D01*
X7696225Y7965364D01*
X7772400D01*
X7620049Y8066932D02*
Y7914581D01*
X7518482D01*
X7366131Y8066932D02*
X7467699D01*
Y7914581D01*
X7366131D01*
X7467699Y7990756D02*
X7416915D01*
X7315348Y7914581D02*
Y8016148D01*
X7264564Y8066932D01*
X7213781Y8016148D01*
Y7914581D01*
Y7990756D01*
X7315348D01*
X7061430Y8041540D02*
X7086822Y8066932D01*
X7137605D01*
X7162997Y8041540D01*
Y8016148D01*
X7137605Y7990756D01*
X7086822D01*
X7061430Y7965364D01*
Y7939973D01*
X7086822Y7914581D01*
X7137605D01*
X7162997Y7939973D01*
X6909079Y8066932D02*
X7010646D01*
Y7914581D01*
X6909079D01*
X7010646Y7990756D02*
X6959863D01*
X6705945Y7914581D02*
Y8066932D01*
X6629770D01*
X6604378Y8041540D01*
Y7990756D01*
X6629770Y7965364D01*
X6705945D01*
X6553594Y8066932D02*
Y7914581D01*
X6452027D01*
X6299676Y8066932D02*
X6401243D01*
Y7914581D01*
X6299676D01*
X6401243Y7990756D02*
X6350460D01*
X6248893Y7914581D02*
Y8016148D01*
X6198109Y8066932D01*
X6147326Y8016148D01*
Y7914581D01*
Y7990756D01*
X6248893D01*
X5994975Y8041540D02*
X6020367Y8066932D01*
X6071150D01*
X6096542Y8041540D01*
Y8016148D01*
X6071150Y7990756D01*
X6020367D01*
X5994975Y7965364D01*
Y7939973D01*
X6020367Y7914581D01*
X6071150D01*
X6096542Y7939973D01*
X5842624Y8066932D02*
X5944191D01*
Y7914581D01*
X5842624D01*
X5944191Y7990756D02*
X5893408D01*
X5639490Y7914581D02*
Y8066932D01*
X5563315D01*
X5537923Y8041540D01*
Y7990756D01*
X5563315Y7965364D01*
X5639490D01*
X5487139Y8066932D02*
Y7914581D01*
X5385572D01*
X5233221Y8066932D02*
X5334788D01*
Y7914581D01*
X5233221D01*
X5334788Y7990756D02*
X5284005D01*
X5182438Y7914581D02*
Y8016148D01*
X5131654Y8066932D01*
X5080870Y8016148D01*
Y7914581D01*
Y7990756D01*
X5182438D01*
X4928520Y8041540D02*
X4953912Y8066932D01*
X5004695D01*
X5030087Y8041540D01*
Y8016148D01*
X5004695Y7990756D01*
X4953912D01*
X4928520Y7965364D01*
Y7939973D01*
X4953912Y7914581D01*
X5004695D01*
X5030087Y7939973D01*
X4776169Y8066932D02*
X4877736D01*
Y7914581D01*
X4776169D01*
X4877736Y7990756D02*
X4826953D01*
X7772400Y7670800D02*
Y7823151D01*
X7696225D01*
X7670833Y7797759D01*
Y7746975D01*
X7696225Y7721583D01*
X7772400D01*
X7620049Y7823151D02*
Y7670800D01*
X7518482D01*
X7366131Y7823151D02*
X7467699D01*
Y7670800D01*
X7366131D01*
X7467699Y7746975D02*
X7416915D01*
X7315348Y7670800D02*
Y7772367D01*
X7264564Y7823151D01*
X7213781Y7772367D01*
Y7670800D01*
Y7746975D01*
X7315348D01*
X7061430Y7797759D02*
X7086822Y7823151D01*
X7137605D01*
X7162997Y7797759D01*
Y7772367D01*
X7137605Y7746975D01*
X7086822D01*
X7061430Y7721583D01*
Y7696192D01*
X7086822Y7670800D01*
X7137605D01*
X7162997Y7696192D01*
X6909079Y7823151D02*
X7010646D01*
Y7670800D01*
X6909079D01*
X7010646Y7746975D02*
X6959863D01*
X6705945Y7670800D02*
Y7823151D01*
X6629770D01*
X6604378Y7797759D01*
Y7746975D01*
X6629770Y7721583D01*
X6705945D01*
X6553594Y7823151D02*
Y7670800D01*
X6452027D01*
X6299676Y7823151D02*
X6401243D01*
Y7670800D01*
X6299676D01*
X6401243Y7746975D02*
X6350460D01*
X6248893Y7670800D02*
Y7772367D01*
X6198109Y7823151D01*
X6147326Y7772367D01*
Y7670800D01*
Y7746975D01*
X6248893D01*
X5994975Y7797759D02*
X6020367Y7823151D01*
X6071150D01*
X6096542Y7797759D01*
Y7772367D01*
X6071150Y7746975D01*
X6020367D01*
X5994975Y7721583D01*
Y7696192D01*
X6020367Y7670800D01*
X6071150D01*
X6096542Y7696192D01*
X5842624Y7823151D02*
X5944191D01*
Y7670800D01*
X5842624D01*
X5944191Y7746975D02*
X5893408D01*
X5639490Y7670800D02*
Y7823151D01*
X5563315D01*
X5537923Y7797759D01*
Y7746975D01*
X5563315Y7721583D01*
X5639490D01*
X5487139Y7823151D02*
Y7670800D01*
X5385572D01*
X5233221Y7823151D02*
X5334788D01*
Y7670800D01*
X5233221D01*
X5334788Y7746975D02*
X5284005D01*
X5182438Y7670800D02*
Y7772367D01*
X5131654Y7823151D01*
X5080870Y7772367D01*
Y7670800D01*
Y7746975D01*
X5182438D01*
X4928520Y7797759D02*
X4953912Y7823151D01*
X5004695D01*
X5030087Y7797759D01*
Y7772367D01*
X5004695Y7746975D01*
X4953912D01*
X4928520Y7721583D01*
Y7696192D01*
X4953912Y7670800D01*
X5004695D01*
X5030087Y7696192D01*
X4776169Y7823151D02*
X4877736D01*
Y7670800D01*
X4776169D01*
X4877736Y7746975D02*
X4826953D01*
%TF.MD5,78e6edb2b4803d5a70379e42153ef22a*%
M02*
