%TF.GenerationSoftware,Altium Limited,Altium Designer,25.1.2 (22)*%
G04 Layer_Color=32896*
%FSLAX45Y45*%
%MOMM*%
%TF.SameCoordinates,048E6D36-8505-433D-A829-9FA65E1B61E1*%
%TF.FilePolarity,Positive*%
%TF.FileFunction,Legend,Bot*%
%TF.Part,Single*%
G01*
G75*
%TA.AperFunction,NonConductor*%
%ADD39C,0.20320*%
%ADD40C,0.15240*%
G36*
X5517356Y2723356D02*
X5557838D01*
Y2709862D01*
X5584825D01*
Y2696369D01*
X5598319D01*
Y2655888D01*
X5584825D01*
Y2642394D01*
X5422900D01*
Y2655888D01*
X5301456D01*
Y2669381D01*
X5260975D01*
Y2628900D01*
X5301456D01*
Y2615406D01*
X5368925D01*
Y2601912D01*
X5395913D01*
Y2588419D01*
X5436394D01*
Y2574925D01*
X5463381D01*
Y2561431D01*
X5490369D01*
Y2547938D01*
X5503863D01*
Y2534444D01*
X5530850D01*
Y2520950D01*
X5544344D01*
Y2493962D01*
X5557838D01*
Y2480469D01*
X5571331D01*
Y2466975D01*
X5584825D01*
Y2453481D01*
X5598319D01*
Y2439988D01*
X5611812D01*
Y2426494D01*
X5638800D01*
Y2413000D01*
X5652294D01*
Y2399506D01*
X5665787D01*
Y2386012D01*
X5679281D01*
Y2372519D01*
X5692775D01*
Y2359025D01*
X5706269D01*
Y2345531D01*
X5719763D01*
Y2318544D01*
X5733256D01*
Y2305050D01*
X5746750D01*
Y2291556D01*
X5760244D01*
Y2278063D01*
X5773738D01*
Y2264569D01*
Y2251075D01*
X5787231D01*
Y2224087D01*
X5800725D01*
Y2197100D01*
X5814219D01*
Y2170113D01*
X5827712D01*
Y2143125D01*
X5841206D01*
Y2102644D01*
X5854700D01*
Y2048669D01*
X5868194D01*
Y1967706D01*
X5881688D01*
Y1185069D01*
X5868194D01*
Y1131094D01*
X5841206D01*
Y1239044D01*
X5854700D01*
Y1954212D01*
X5841206D01*
Y2048669D01*
X5827712D01*
Y2089150D01*
X5814219D01*
Y2129631D01*
X5800725D01*
Y2156619D01*
X5787231D01*
Y2183606D01*
X5773738D01*
Y2210594D01*
X5760244D01*
Y2237581D01*
X5746750D01*
Y2251075D01*
X5733256D01*
Y2278063D01*
X5719763D01*
Y2291556D01*
X5706269D01*
Y2305050D01*
X5692775D01*
Y2318544D01*
X5679281D01*
Y2345531D01*
X5665787D01*
Y2359025D01*
X5652294D01*
Y2372519D01*
X5638800D01*
Y2386012D01*
X5625306D01*
Y2399506D01*
X5611812D01*
Y2413000D01*
X5584825D01*
Y2426494D01*
X5557838D01*
Y2439988D01*
X5544344D01*
Y2426494D01*
X5517356D01*
Y2439988D01*
X5490369D01*
Y2426494D01*
X5463381D01*
Y2439988D01*
X5449887D01*
Y2426494D01*
X4937125D01*
Y2439988D01*
X4883150D01*
Y2453481D01*
X4869656D01*
Y2466975D01*
X4815681D01*
Y2453481D01*
X4775200D01*
Y2439988D01*
X4734719D01*
Y2426494D01*
X4694237D01*
Y2413000D01*
X4667250D01*
Y2399506D01*
X4640263D01*
Y2386012D01*
X4626769D01*
Y2372519D01*
X4599781D01*
Y2359025D01*
X4572794D01*
Y2345531D01*
X4559300D01*
Y2332037D01*
X4545806D01*
Y2318544D01*
X4532312D01*
Y2305050D01*
X4518819D01*
Y2291556D01*
X4505325D01*
Y2278063D01*
X4491831D01*
Y2264569D01*
X4478337D01*
Y2251075D01*
X4464844D01*
Y2224087D01*
X4451350D01*
Y2210594D01*
X4437856D01*
Y2170113D01*
X4424363D01*
Y2156619D01*
X4410869D01*
Y2129631D01*
X4397375D01*
Y2102644D01*
X4383881D01*
Y2075656D01*
X4370387D01*
Y2048669D01*
X4356894D01*
Y2008188D01*
X4343400D01*
Y1967706D01*
X4329906D01*
Y1913731D01*
X4316412D01*
Y1495425D01*
X4329906D01*
Y1427956D01*
X4343400D01*
Y1387475D01*
X4356894D01*
Y1333500D01*
X4370387D01*
Y1279525D01*
X4383881D01*
Y1131094D01*
X4343400D01*
Y1279525D01*
X4329906D01*
Y1346994D01*
X4316412D01*
Y1400969D01*
X4302919D01*
Y1481931D01*
X4289425D01*
Y1927225D01*
X4302919D01*
Y1981200D01*
X4316412D01*
Y2021681D01*
X4329906D01*
Y2062163D01*
X4343400D01*
Y2089150D01*
X4356894D01*
Y2116137D01*
X4370387D01*
Y2129631D01*
X4383881D01*
Y2170113D01*
X4397375D01*
Y2183606D01*
X4410869D01*
Y2210594D01*
X4424363D01*
Y2237581D01*
X4437856D01*
Y2251075D01*
X4451350D01*
Y2278063D01*
X4464844D01*
Y2291556D01*
X4478337D01*
Y2305050D01*
X4491831D01*
Y2318544D01*
X4505325D01*
Y2332037D01*
X4518819D01*
Y2345531D01*
X4532312D01*
Y2359025D01*
X4545806D01*
Y2372519D01*
X4572794D01*
Y2386012D01*
X4586288D01*
Y2399506D01*
X4613275D01*
Y2413000D01*
X4626769D01*
Y2426494D01*
X4653756D01*
Y2439988D01*
X4680744D01*
Y2453481D01*
X4721225D01*
Y2466975D01*
X4748213D01*
Y2480469D01*
X4802188D01*
Y2493962D01*
X4869656D01*
Y2507456D01*
X4910137D01*
Y2520950D01*
X4923631D01*
Y2534444D01*
X4937125D01*
Y2547938D01*
X4964113D01*
Y2561431D01*
X4991100D01*
Y2574925D01*
X5004594D01*
Y2588419D01*
X5031581D01*
Y2601912D01*
X5058569D01*
Y2615406D01*
X5112544D01*
Y2628900D01*
X5207000D01*
Y2642394D01*
X5220494D01*
Y2655888D01*
X5233987D01*
Y2669381D01*
X5220494D01*
Y2682875D01*
X5193506D01*
Y2669381D01*
X5126038D01*
Y2655888D01*
X5072062D01*
Y2642394D01*
X5018088D01*
Y2628900D01*
X4964113D01*
Y2642394D01*
X4937125D01*
Y2655888D01*
X4923631D01*
Y2696369D01*
X4937125D01*
Y2709862D01*
X4964113D01*
Y2723356D01*
X4977606D01*
Y2709862D01*
X4991100D01*
Y2723356D01*
X5153025D01*
Y2709862D01*
X5233987D01*
Y2696369D01*
X5260975D01*
Y2709862D01*
X5301456D01*
Y2723356D01*
X5341938D01*
Y2736850D01*
X5517356D01*
Y2723356D01*
D02*
G37*
G36*
X5625306Y2318544D02*
X5679281D01*
Y2251075D01*
X5665787D01*
Y2197100D01*
X5652294D01*
Y2156619D01*
X5638800D01*
Y2129631D01*
X5625306D01*
Y2102644D01*
X5611812D01*
Y2089150D01*
X5584825D01*
Y2075656D01*
X5557838D01*
Y2062163D01*
X5530850D01*
Y2048669D01*
X5422900D01*
Y2062163D01*
X5382419D01*
Y2075656D01*
X5368925D01*
Y2089150D01*
X5341938D01*
Y2102644D01*
X5328444D01*
Y2156619D01*
X5341938D01*
Y2210594D01*
X5355431D01*
Y2251075D01*
X5368925D01*
Y2264569D01*
X5382419D01*
Y2278063D01*
X5395913D01*
Y2291556D01*
X5422900D01*
Y2305050D01*
X5436394D01*
Y2318544D01*
X5476875D01*
Y2332037D01*
X5625306D01*
Y2318544D01*
D02*
G37*
G36*
X4761706D02*
X4815681D01*
Y2305050D01*
X4842669D01*
Y2291556D01*
X4869656D01*
Y2278063D01*
X4883150D01*
Y2264569D01*
X4896644D01*
Y2251075D01*
X4910137D01*
Y2237581D01*
X4923631D01*
Y2210594D01*
X4937125D01*
Y2170113D01*
X4950619D01*
Y2062163D01*
X4937125D01*
Y2048669D01*
X4910137D01*
Y2035175D01*
X4869656D01*
Y2021681D01*
X4761706D01*
Y2035175D01*
X4721225D01*
Y2048669D01*
X4680744D01*
Y2062163D01*
X4667250D01*
Y2075656D01*
X4653756D01*
Y2089150D01*
X4640263D01*
Y2116137D01*
X4626769D01*
Y2143125D01*
X4613275D01*
Y2170113D01*
X4599781D01*
Y2210594D01*
X4586288D01*
Y2278063D01*
X4572794D01*
Y2305050D01*
X4586288D01*
Y2318544D01*
X4626769D01*
Y2332037D01*
X4761706D01*
Y2318544D01*
D02*
G37*
G36*
X5530850Y1819275D02*
X5571331D01*
Y1805781D01*
X5584825D01*
Y1792288D01*
X5598319D01*
Y1778794D01*
X5611812D01*
Y1765300D01*
X5625306D01*
Y1738312D01*
X5638800D01*
Y1589881D01*
X5625306D01*
Y1562894D01*
X5611812D01*
Y1535906D01*
X5598319D01*
Y1495425D01*
X5584825D01*
Y1481931D01*
X5571331D01*
Y1468437D01*
X5557838D01*
Y1454944D01*
X5530850D01*
Y1441450D01*
X5476875D01*
Y1427956D01*
X5463381D01*
Y1441450D01*
X5449887D01*
Y1427956D01*
X5395913D01*
Y1414462D01*
X5382419D01*
Y1400969D01*
X5368925D01*
Y1387475D01*
X5355431D01*
Y1373981D01*
X5341938D01*
Y1360487D01*
X5328444D01*
Y1346994D01*
X5301456D01*
Y1333500D01*
X5260975D01*
Y1320006D01*
X5058569D01*
Y1333500D01*
X5045075D01*
Y1346994D01*
X5018088D01*
Y1360487D01*
X4991100D01*
Y1373981D01*
X4964113D01*
Y1387475D01*
X4950619D01*
Y1400969D01*
X4923631D01*
Y1414462D01*
X4842669D01*
Y1427956D01*
X4788694D01*
Y1441450D01*
X4761706D01*
Y1454944D01*
X4734719D01*
Y1468437D01*
X4721225D01*
Y1481931D01*
X4707731D01*
Y1495425D01*
X4694237D01*
Y1508919D01*
X4680744D01*
Y1522413D01*
X4667250D01*
Y1535906D01*
X4653756D01*
Y1549400D01*
X4640263D01*
Y1697831D01*
X4653756D01*
Y1711325D01*
X4667250D01*
Y1738312D01*
X4680744D01*
Y1751806D01*
X4694237D01*
Y1765300D01*
X4721225D01*
Y1778794D01*
X4788694D01*
Y1765300D01*
X4761706D01*
Y1751806D01*
X4734719D01*
Y1738312D01*
X4707731D01*
Y1724819D01*
X4694237D01*
Y1711325D01*
X4680744D01*
Y1684338D01*
X4667250D01*
Y1562894D01*
X4680744D01*
Y1549400D01*
X4694237D01*
Y1535906D01*
X4707731D01*
Y1522413D01*
X4721225D01*
Y1508919D01*
X4734719D01*
Y1495425D01*
X4748213D01*
Y1481931D01*
X4775200D01*
Y1468437D01*
X4802188D01*
Y1454944D01*
X4842669D01*
Y1441450D01*
X5099050D01*
Y1454944D01*
X5139531D01*
Y1468437D01*
X5153025D01*
Y1481931D01*
X5166519D01*
Y1535906D01*
X5153025D01*
Y1562894D01*
X5139531D01*
Y1576388D01*
X5126038D01*
Y1616869D01*
X5112544D01*
Y1643856D01*
X5099050D01*
Y1657350D01*
X5072062D01*
Y1670844D01*
X5045075D01*
Y1684338D01*
X5031581D01*
Y1697831D01*
X5018088D01*
Y1765300D01*
X5139531D01*
Y1778794D01*
X5341938D01*
Y1765300D01*
X5355431D01*
Y1751806D01*
X5368925D01*
Y1697831D01*
X5355431D01*
Y1684338D01*
X5287962D01*
Y1670844D01*
X5274469D01*
Y1657350D01*
X5260975D01*
Y1603375D01*
X5247481D01*
Y1589881D01*
X5233987D01*
Y1562894D01*
X5220494D01*
Y1549400D01*
X5207000D01*
Y1535906D01*
X5193506D01*
Y1508919D01*
X5207000D01*
Y1495425D01*
X5220494D01*
Y1481931D01*
X5247481D01*
Y1468437D01*
X5328444D01*
Y1454944D01*
X5476875D01*
Y1468437D01*
X5517356D01*
Y1481931D01*
X5544344D01*
Y1495425D01*
X5557838D01*
Y1508919D01*
X5571331D01*
Y1535906D01*
X5584825D01*
Y1576388D01*
X5598319D01*
Y1603375D01*
X5611812D01*
Y1738312D01*
X5598319D01*
Y1751806D01*
X5584825D01*
Y1778794D01*
X5557838D01*
Y1792288D01*
X5530850D01*
Y1805781D01*
X5503863D01*
Y1832769D01*
X5530850D01*
Y1819275D01*
D02*
G37*
%LPC*%
G36*
X5368925Y2588419D02*
X5301456D01*
Y2574925D01*
X5314950D01*
Y2561431D01*
X5328444D01*
Y2547938D01*
X5341938D01*
Y2534444D01*
X5355431D01*
Y2520950D01*
X5368925D01*
Y2507456D01*
X5395913D01*
Y2493962D01*
X5409406D01*
Y2466975D01*
X5422900D01*
Y2453481D01*
X5544344D01*
Y2480469D01*
X5530850D01*
Y2493962D01*
X5517356D01*
Y2507456D01*
X5503863D01*
Y2520950D01*
X5490369D01*
Y2534444D01*
X5463381D01*
Y2547938D01*
X5436394D01*
Y2561431D01*
X5409406D01*
Y2574925D01*
X5368925D01*
Y2588419D01*
D02*
G37*
G36*
X5436394Y2210594D02*
X5422900D01*
Y2183606D01*
X5436394D01*
Y2197100D01*
Y2210594D01*
D02*
G37*
G36*
X5625306Y2305050D02*
X5530850D01*
Y2291556D01*
X5544344D01*
Y2278063D01*
X5557838D01*
Y2264569D01*
X5571331D01*
Y2143125D01*
X5557838D01*
Y2129631D01*
X5544344D01*
Y2116137D01*
X5530850D01*
Y2102644D01*
X5422900D01*
Y2116137D01*
X5409406D01*
Y2129631D01*
X5395913D01*
Y2143125D01*
X5382419D01*
Y2170113D01*
X5368925D01*
Y2143125D01*
X5355431D01*
Y2116137D01*
X5368925D01*
Y2102644D01*
X5395913D01*
Y2089150D01*
X5422900D01*
Y2075656D01*
X5517356D01*
Y2089150D01*
X5557838D01*
Y2102644D01*
X5571331D01*
Y2116137D01*
X5598319D01*
Y2143125D01*
X5611812D01*
Y2170113D01*
X5625306D01*
Y2197100D01*
X5638800D01*
Y2251075D01*
X5652294D01*
Y2291556D01*
X5625306D01*
Y2305050D01*
D02*
G37*
G36*
X4653756D02*
X4626769D01*
Y2291556D01*
X4613275D01*
Y2237581D01*
X4626769D01*
Y2278063D01*
X4640263D01*
Y2291556D01*
X4653756D01*
Y2305050D01*
D02*
G37*
G36*
X4680744Y2237581D02*
X4667250D01*
Y2210594D01*
X4680744D01*
Y2224087D01*
Y2237581D01*
D02*
G37*
G36*
X4734719Y2183606D02*
X4707731D01*
Y2170113D01*
X4734719D01*
Y2183606D01*
D02*
G37*
G36*
X4856162Y2264569D02*
X4829175D01*
Y2251075D01*
X4842669D01*
Y2129631D01*
X4829175D01*
Y2102644D01*
X4815681D01*
Y2089150D01*
X4802188D01*
Y2075656D01*
X4788694D01*
Y2062163D01*
X4775200D01*
Y2048669D01*
X4869656D01*
Y2062163D01*
X4910137D01*
Y2075656D01*
X4923631D01*
Y2170113D01*
X4910137D01*
Y2197100D01*
X4896644D01*
Y2224087D01*
X4883150D01*
Y2237581D01*
X4869656D01*
Y2251075D01*
X4856162D01*
Y2264569D01*
D02*
G37*
G36*
X5341938Y1751806D02*
X5153025D01*
Y1738312D01*
X5045075D01*
Y1711325D01*
X5058569D01*
Y1697831D01*
X5085556D01*
Y1684338D01*
X5112544D01*
Y1670844D01*
X5139531D01*
Y1616869D01*
X5153025D01*
Y1589881D01*
X5166519D01*
Y1562894D01*
X5193506D01*
Y1576388D01*
X5207000D01*
Y1603375D01*
X5220494D01*
Y1616869D01*
X5233987D01*
Y1670844D01*
X5247481D01*
Y1697831D01*
X5274469D01*
Y1711325D01*
X5341938D01*
Y1751806D01*
D02*
G37*
G36*
X5207000Y1468437D02*
X5180013D01*
Y1454944D01*
X5166519D01*
Y1441450D01*
X5153025D01*
Y1427956D01*
X5099050D01*
Y1414462D01*
X4991100D01*
Y1400969D01*
X5004594D01*
Y1387475D01*
X5031581D01*
Y1373981D01*
X5058569D01*
Y1360487D01*
X5085556D01*
Y1346994D01*
X5139531D01*
Y1333500D01*
X5153025D01*
Y1346994D01*
X5247481D01*
Y1360487D01*
X5287962D01*
Y1373981D01*
X5314950D01*
Y1387475D01*
X5328444D01*
Y1400969D01*
X5341938D01*
Y1414462D01*
X5355431D01*
Y1427956D01*
X5341938D01*
Y1441450D01*
X5247481D01*
Y1454944D01*
X5207000D01*
Y1468437D01*
D02*
G37*
%LPD*%
D39*
X5643880Y849733D02*
X5610024D01*
X5626952D01*
Y917444D01*
X5643880D01*
X5542313Y849733D02*
Y934372D01*
Y900516D01*
X5559241D01*
X5525385D01*
X5542313D01*
Y934372D01*
X5525385Y951300D01*
X5356106Y934372D02*
Y917444D01*
X5373034D01*
X5339178D01*
X5356106D01*
Y866661D01*
X5339178Y849733D01*
X5288395Y951300D02*
Y849733D01*
Y900516D01*
X5271467Y917444D01*
X5237611D01*
X5220683Y900516D01*
Y849733D01*
X5186827D02*
X5152972D01*
X5169899D01*
Y917444D01*
X5186827D01*
X5102188Y849733D02*
X5051404D01*
X5034477Y866661D01*
X5051404Y883589D01*
X5085260D01*
X5102188Y900516D01*
X5085260Y917444D01*
X5034477D01*
X4882126Y934372D02*
Y917444D01*
X4899053D01*
X4865198D01*
X4882126D01*
Y866661D01*
X4865198Y849733D01*
X4814414Y951300D02*
Y849733D01*
Y900516D01*
X4797486Y917444D01*
X4763631D01*
X4746703Y900516D01*
Y849733D01*
X4712847D02*
X4678991D01*
X4695919D01*
Y917444D01*
X4712847D01*
X4628207Y849733D02*
Y917444D01*
X4577424D01*
X4560496Y900516D01*
Y849733D01*
X4492785Y815877D02*
X4475857D01*
X4458929Y832805D01*
Y917444D01*
X4509712D01*
X4526640Y900516D01*
Y866661D01*
X4509712Y849733D01*
X4458929D01*
X5576169Y729868D02*
Y628301D01*
X5626952D01*
X5643880Y645229D01*
Y679084D01*
X5626952Y696012D01*
X5576169D01*
X5525385Y628301D02*
X5491529D01*
X5474601Y645229D01*
Y679084D01*
X5491529Y696012D01*
X5525385D01*
X5542313Y679084D01*
Y645229D01*
X5525385Y628301D01*
X5389962D02*
X5423818D01*
X5440746Y645229D01*
Y679084D01*
X5423818Y696012D01*
X5389962D01*
X5373034Y679084D01*
Y662156D01*
X5440746D01*
X5339178Y628301D02*
X5288395D01*
X5271467Y645229D01*
X5288395Y662156D01*
X5322250D01*
X5339178Y679084D01*
X5322250Y696012D01*
X5271467D01*
X5237611Y628301D02*
Y696012D01*
X5186828D01*
X5169900Y679084D01*
Y628301D01*
X5119116Y746796D02*
Y712940D01*
X5136044Y696012D01*
X5051405Y712940D02*
Y696012D01*
X5068333D01*
X5034477D01*
X5051405D01*
Y645229D01*
X5034477Y628301D01*
X4882126Y696012D02*
Y645229D01*
X4865198Y628301D01*
X4848270Y645229D01*
X4831342Y628301D01*
X4814415Y645229D01*
Y696012D01*
X4763631Y628301D02*
X4729775D01*
X4712847Y645229D01*
Y679084D01*
X4729775Y696012D01*
X4763631D01*
X4780559Y679084D01*
Y645229D01*
X4763631Y628301D01*
X4678991Y696012D02*
Y628301D01*
Y662156D01*
X4662064Y679084D01*
X4645136Y696012D01*
X4628208D01*
X4577424Y628301D02*
Y729868D01*
Y662156D02*
X4526641Y696012D01*
X4577424Y662156D02*
X4526641Y628301D01*
X5643880Y440724D02*
X5610024D01*
X5626952D01*
Y508436D01*
X5643880D01*
X5542313Y559219D02*
Y525364D01*
X5559241Y508436D01*
X5491529Y440724D02*
Y508436D01*
X5474601D01*
X5457674Y491508D01*
Y440724D01*
Y491508D01*
X5440746Y508436D01*
X5423818Y491508D01*
Y440724D01*
X5254539Y406869D02*
X5237611D01*
X5220683Y423796D01*
Y508436D01*
X5271467D01*
X5288395Y491508D01*
Y457652D01*
X5271467Y440724D01*
X5220683D01*
X5169900D02*
X5136044D01*
X5119116Y457652D01*
Y491508D01*
X5136044Y508436D01*
X5169900D01*
X5186828Y491508D01*
Y457652D01*
X5169900Y440724D01*
X5085260D02*
X5051405D01*
X5068333D01*
Y508436D01*
X5085260D01*
X5000621Y440724D02*
Y542292D01*
X4932910Y440724D01*
Y542292D01*
X4831342Y525364D02*
X4848270Y542292D01*
X4882126D01*
X4899054Y525364D01*
Y457652D01*
X4882126Y440724D01*
X4848270D01*
X4831342Y457652D01*
Y491508D01*
X4865198D01*
X4695919Y542292D02*
X4628208D01*
X4662064D01*
Y440724D01*
X4543569Y542292D02*
X4577424D01*
X4594352Y525364D01*
Y457652D01*
X4577424Y440724D01*
X4543569D01*
X4526641Y457652D01*
Y525364D01*
X4543569Y542292D01*
X5576169Y337787D02*
X5643880D01*
Y236220D01*
X5576169D01*
X5643880Y287003D02*
X5610024D01*
X5542313Y337787D02*
X5474601Y236220D01*
Y337787D02*
X5542313Y236220D01*
X5440746D02*
Y337787D01*
X5389962D01*
X5373034Y320859D01*
Y287003D01*
X5389962Y270076D01*
X5440746D01*
X5339178Y337787D02*
Y236220D01*
X5271467D01*
X5186828Y337787D02*
X5220683D01*
X5237611Y320859D01*
Y253148D01*
X5220683Y236220D01*
X5186828D01*
X5169900Y253148D01*
Y320859D01*
X5186828Y337787D01*
X5136044D02*
Y236220D01*
X5085260D01*
X5068333Y253148D01*
Y320859D01*
X5085260Y337787D01*
X5136044D01*
X4966765D02*
X5034477D01*
Y236220D01*
X4966765D01*
X5034477Y287003D02*
X5000621D01*
X3044641Y5148580D02*
X3027713Y5131652D01*
Y5097797D01*
X3044641Y5080869D01*
X3112352D01*
X3129280Y5097797D01*
Y5131652D01*
X3112352Y5148580D01*
X3044641D01*
X3129280Y5047013D02*
X3112352D01*
Y5030085D01*
X3129280D01*
Y5047013D01*
Y4962373D02*
Y4928518D01*
Y4945446D01*
X3027713D01*
X3044641Y4962373D01*
X3027713Y4877734D02*
X3095424D01*
X3129280Y4843878D01*
X3095424Y4810023D01*
X3027713D01*
X2223352Y5339080D02*
X2240280Y5322152D01*
Y5288297D01*
X2223352Y5271369D01*
X2155641D01*
X2138713Y5288297D01*
Y5322152D01*
X2155641Y5339080D01*
X2172569D01*
X2189497Y5322152D01*
Y5271369D01*
X2138713Y5237513D02*
X2206424D01*
X2240280Y5203657D01*
X2206424Y5169801D01*
X2138713D01*
X4196113Y5080869D02*
Y5148580D01*
X4246897D01*
X4229969Y5114724D01*
Y5097797D01*
X4246897Y5080869D01*
X4280752D01*
X4297680Y5097797D01*
Y5131652D01*
X4280752Y5148580D01*
X4297680Y5047013D02*
X4280752D01*
Y5030085D01*
X4297680D01*
Y5047013D01*
Y4962373D02*
Y4928518D01*
Y4945446D01*
X4196113D01*
X4213041Y4962373D01*
X4196113Y4877734D02*
X4263824D01*
X4297680Y4843878D01*
X4263824Y4810023D01*
X4196113D01*
X5364480Y5008897D02*
X5262913D01*
X5313697Y5059680D01*
Y4991969D01*
X5262913Y4958113D02*
X5330624D01*
X5364480Y4924257D01*
X5330624Y4890401D01*
X5262913D01*
D40*
X1079520Y6390615D02*
X1094755Y6405851D01*
X1125225D01*
X1140460Y6390615D01*
Y6329675D01*
X1125225Y6314440D01*
X1094755D01*
X1079520Y6329675D01*
Y6360145D01*
X1109990D01*
X1333520Y6390615D02*
X1348755Y6405851D01*
X1379225D01*
X1394460Y6390615D01*
Y6329675D01*
X1379225Y6314440D01*
X1348755D01*
X1333520Y6329675D01*
X1242109Y6390615D02*
X1257344Y6405851D01*
X1287814D01*
X1303049Y6390615D01*
Y6375380D01*
X1287814Y6360145D01*
X1257344D01*
X1242109Y6344910D01*
Y6329675D01*
X1257344Y6314440D01*
X1287814D01*
X1303049Y6329675D01*
X1648460Y6314440D02*
Y6375380D01*
X1617990Y6405851D01*
X1587520Y6375380D01*
Y6314440D01*
Y6360145D01*
X1648460D01*
X1557049Y6405851D02*
Y6314440D01*
X1511344D01*
X1496109Y6329675D01*
Y6390615D01*
X1511344Y6405851D01*
X1557049D01*
X2359660D02*
Y6314440D01*
X2313955D01*
X2298720Y6329675D01*
Y6344910D01*
X2313955Y6360145D01*
X2359660D01*
X2313955D01*
X2298720Y6375380D01*
Y6390615D01*
X2313955Y6405851D01*
X2359660D01*
X2268249Y6314440D02*
Y6405851D01*
X2222544D01*
X2207309Y6390615D01*
Y6360145D01*
X2222544Y6344910D01*
X2268249D01*
X2115899Y6390615D02*
X2131134Y6405851D01*
X2161604D01*
X2176839Y6390615D01*
Y6375380D01*
X2161604Y6360145D01*
X2131134D01*
X2115899Y6344910D01*
Y6329675D01*
X2131134Y6314440D01*
X2161604D01*
X2176839Y6329675D01*
X2004060Y6314440D02*
X1973590D01*
X1988825D01*
Y6405851D01*
X2004060Y6390615D01*
X1866944Y6314440D02*
X1927885D01*
X1866944Y6375380D01*
Y6390615D01*
X1882179Y6405851D01*
X1912649D01*
X1927885Y6390615D01*
%TF.MD5,4a684ee5a053a37cd31cd87bbc51e045*%
M02*
