%TF.GenerationSoftware,Altium Limited,Altium Designer,25.1.2 (22)*%
G04 Layer_Color=65535*
%FSLAX45Y45*%
%MOMM*%
%TF.SameCoordinates,865E584C-48B1-4366-BF19-9A83E66404FA*%
%TF.FilePolarity,Positive*%
%TF.FileFunction,Legend,Top*%
%TF.Part,Single*%
G01*
G75*
%TA.AperFunction,NonConductor*%
%ADD47C,0.25000*%
%ADD48C,0.60000*%
%ADD49C,0.20000*%
%ADD50C,0.20320*%
%ADD51C,0.38100*%
%ADD52C,0.25400*%
G36*
X8219546Y9582644D02*
X8270169D01*
Y9581198D01*
X8290419D01*
Y9578305D01*
X8288972D01*
Y9572519D01*
X8287526D01*
Y9568180D01*
X8286080D01*
Y9565287D01*
X8284633D01*
Y9559502D01*
X8283187D01*
Y9556609D01*
X8281740D01*
Y9552270D01*
X8280294D01*
Y9546484D01*
X8278848D01*
Y9545038D01*
X8277401D01*
Y9539252D01*
X8275955D01*
Y9534913D01*
X8274508D01*
Y9532020D01*
X8273062D01*
Y9526235D01*
X8271616D01*
Y9524788D01*
X8270169D01*
Y9519003D01*
X8268723D01*
Y9514664D01*
X8267277D01*
Y9511771D01*
X8265830D01*
Y9505985D01*
X8264384D01*
Y9503092D01*
X8262937D01*
Y9500200D01*
X8261491D01*
Y9494414D01*
X8260045D01*
Y9491522D01*
X8258598D01*
Y9487182D01*
X8257152D01*
Y9481397D01*
X8255705D01*
Y9479950D01*
X8254259D01*
Y9474165D01*
X8252813D01*
Y9471272D01*
X8251366D01*
Y9466933D01*
X8249920D01*
Y9461147D01*
X8248473D01*
Y9459701D01*
X8247027D01*
Y9453915D01*
X8245581D01*
Y9449576D01*
X8244134D01*
Y9446683D01*
X8242688D01*
Y9442344D01*
X8241242D01*
Y9438005D01*
X8239795D01*
Y9435112D01*
X8238349D01*
Y9429327D01*
X8236902D01*
Y9426434D01*
X8235456D01*
Y9422095D01*
X8234010D01*
Y9416309D01*
X8232563D01*
Y9413417D01*
X8231117D01*
Y9407631D01*
X8229670D01*
Y9404738D01*
X8228224D01*
Y9400399D01*
X8226778D01*
Y9396060D01*
X8225331D01*
Y9393167D01*
X8223885D01*
Y9387382D01*
X8222438D01*
Y9383042D01*
X8220992D01*
Y9380150D01*
X8219546D01*
Y9370025D01*
X8277401D01*
Y9371471D01*
X8278848D01*
Y9372917D01*
X8280294D01*
Y9377257D01*
X8281740D01*
Y9381596D01*
X8283187D01*
Y9384489D01*
X8284633D01*
Y9388828D01*
X8286080D01*
Y9393167D01*
X8287526D01*
Y9396060D01*
X8288972D01*
Y9401845D01*
X8290419D01*
Y9403292D01*
X8291865D01*
Y9409077D01*
X8293312D01*
Y9413417D01*
X8294758D01*
Y9416309D01*
X8296204D01*
Y9420648D01*
X8297651D01*
Y9424988D01*
X8299097D01*
Y9427880D01*
X8300543D01*
Y9433666D01*
X8301990D01*
Y9435112D01*
X8303436D01*
Y9440898D01*
X8304883D01*
Y9445237D01*
X8306329D01*
Y9448130D01*
X8307775D01*
Y9452469D01*
X8309222D01*
Y9455362D01*
X8310668D01*
Y9459701D01*
X8312115D01*
Y9465487D01*
X8313561D01*
Y9466933D01*
X8315008D01*
Y9472718D01*
X8316454D01*
Y9477057D01*
X8317900D01*
Y9478504D01*
X8319347D01*
Y9484290D01*
X8320793D01*
Y9487182D01*
X8322239D01*
Y9491522D01*
X8323686D01*
Y9495861D01*
X8325132D01*
Y9498753D01*
X8326578D01*
Y9503092D01*
X8328025D01*
Y9508878D01*
X8329471D01*
Y9510325D01*
X8330918D01*
Y9516110D01*
X8332364D01*
Y9519003D01*
X8333810D01*
Y9523342D01*
X8335257D01*
Y9527681D01*
X8336703D01*
Y9530574D01*
X8338150D01*
Y9534913D01*
X8339596D01*
Y9539252D01*
X8341043D01*
Y9542145D01*
X8342489D01*
Y9547931D01*
X8343935D01*
Y9549377D01*
X8345382D01*
Y9553716D01*
X8346828D01*
Y9559502D01*
X8348274D01*
Y9560948D01*
X8349721D01*
Y9566734D01*
X8351167D01*
Y9571073D01*
X8352613D01*
Y9573966D01*
X8354060D01*
Y9579751D01*
X8355506D01*
Y9581198D01*
X8388773D01*
Y9582644D01*
X8527627D01*
Y9581198D01*
X8539198D01*
Y9578305D01*
X8537751D01*
Y9573966D01*
X8536305D01*
Y9571073D01*
X8534858D01*
Y9565287D01*
X8533412D01*
Y9562395D01*
X8531966D01*
Y9558055D01*
X8530519D01*
Y9553716D01*
X8529073D01*
Y9550823D01*
X8527627D01*
Y9546484D01*
X8526180D01*
Y9540699D01*
X8524734D01*
Y9539252D01*
X8523288D01*
Y9533467D01*
X8521841D01*
Y9530574D01*
X8520395D01*
Y9526235D01*
X8518948D01*
Y9520449D01*
X8517502D01*
Y9519003D01*
X8516055D01*
Y9513217D01*
X8514609D01*
Y9508878D01*
X8513163D01*
Y9505985D01*
X8511716D01*
Y9500200D01*
X8510270D01*
Y9498753D01*
X8508823D01*
Y9494414D01*
X8507377D01*
Y9488629D01*
X8505931D01*
Y9485736D01*
X8504484D01*
Y9481397D01*
X8503038D01*
Y9477057D01*
X8501592D01*
Y9474165D01*
X8500145D01*
Y9468379D01*
X8498699D01*
Y9466933D01*
X8497253D01*
Y9461147D01*
X8495806D01*
Y9456808D01*
X8494360D01*
Y9453915D01*
X8492913D01*
Y9449576D01*
X8491467D01*
Y9445237D01*
X8490020D01*
Y9442344D01*
X8488574D01*
Y9436559D01*
X8487128D01*
Y9435112D01*
X8485681D01*
Y9429327D01*
X8484235D01*
Y9426434D01*
Y9424988D01*
X8482788D01*
Y9423541D01*
X8481342D01*
Y9417756D01*
X8479896D01*
Y9413417D01*
X8478449D01*
Y9410524D01*
X8477003D01*
Y9404738D01*
X8475557D01*
Y9403292D01*
X8474110D01*
Y9397506D01*
X8472664D01*
Y9393167D01*
X8471218D01*
Y9390274D01*
X8469771D01*
Y9385935D01*
X8468325D01*
Y9381596D01*
X8466878D01*
Y9378703D01*
X8465432D01*
Y9372917D01*
X8463985D01*
Y9371471D01*
X8462539D01*
Y9365686D01*
X8461093D01*
Y9361347D01*
X8459646D01*
Y9359900D01*
X8458200D01*
Y9354115D01*
X8456753D01*
Y9349775D01*
X8455307D01*
Y9346882D01*
X8453861D01*
Y9342543D01*
X8452414D01*
Y9339651D01*
X8450968D01*
Y9335312D01*
X8449522D01*
Y9329526D01*
X8448075D01*
Y9328080D01*
X8446629D01*
Y9322294D01*
X8445182D01*
Y9319401D01*
X8443736D01*
Y9316508D01*
X8442290D01*
Y9310723D01*
X8440843D01*
Y9309277D01*
X8439397D01*
Y9304937D01*
X8437950D01*
Y9303491D01*
X8423487D01*
Y9302045D01*
X8365631D01*
Y9300598D01*
X8342489D01*
Y9302045D01*
X8099495D01*
Y9303491D01*
X8057550D01*
Y9304937D01*
X8056104D01*
Y9306384D01*
X8054658D01*
Y9307830D01*
X8051765D01*
Y9309277D01*
X8050318D01*
Y9310723D01*
X8047425D01*
Y9312169D01*
X8045979D01*
Y9313616D01*
X8044533D01*
Y9315062D01*
X8043086D01*
Y9317955D01*
X8041640D01*
Y9319401D01*
X8040193D01*
Y9320848D01*
X8038747D01*
Y9323740D01*
X8037301D01*
Y9325187D01*
X8035854D01*
Y9328080D01*
X8034408D01*
Y9332419D01*
X8032962D01*
Y9333865D01*
X8031515D01*
Y9339651D01*
X8030069D01*
Y9352668D01*
X8031515D01*
Y9359900D01*
X8032962D01*
Y9361347D01*
X8034408D01*
Y9368578D01*
X8035854D01*
Y9372917D01*
X8037301D01*
Y9375810D01*
X8038747D01*
Y9381596D01*
X8040193D01*
Y9384489D01*
X8041640D01*
Y9388828D01*
X8043086D01*
Y9394613D01*
X8044533D01*
Y9397506D01*
X8045979D01*
Y9403292D01*
X8047425D01*
Y9407631D01*
X8048872D01*
Y9410524D01*
X8050318D01*
Y9416309D01*
X8051765D01*
Y9417756D01*
X8053211D01*
Y9423541D01*
X8054658D01*
Y9427880D01*
X8056104D01*
Y9430773D01*
X8057550D01*
Y9436559D01*
X8058997D01*
Y9440898D01*
X8060443D01*
Y9442344D01*
X8061889D01*
Y9448130D01*
X8063336D01*
Y9451023D01*
X8064782D01*
Y9455362D01*
X8066228D01*
Y9461147D01*
X8067675D01*
Y9462594D01*
X8069121D01*
Y9468379D01*
X8070568D01*
Y9472718D01*
X8072014D01*
Y9475611D01*
X8073460D01*
Y9481397D01*
X8074907D01*
Y9482843D01*
X8076353D01*
Y9488629D01*
X8077800D01*
Y9492968D01*
X8079246D01*
Y9495861D01*
X8080693D01*
Y9500200D01*
X8082139D01*
Y9504539D01*
X8083585D01*
Y9507432D01*
X8085032D01*
Y9513217D01*
X8086478D01*
Y9516110D01*
X8087924D01*
Y9520449D01*
X8089371D01*
Y9526235D01*
X8090817D01*
Y9527681D01*
X8092263D01*
Y9533467D01*
X8093710D01*
Y9537806D01*
X8095156D01*
Y9540699D01*
X8096603D01*
Y9546484D01*
X8098049D01*
Y9549377D01*
X8099495D01*
Y9553716D01*
X8100942D01*
Y9559502D01*
X8102388D01*
Y9560948D01*
X8103835D01*
Y9566734D01*
X8105281D01*
Y9571073D01*
X8106727D01*
Y9573966D01*
X8108174D01*
Y9579751D01*
X8106727D01*
Y9578305D01*
X8103835D01*
Y9576858D01*
X8102388D01*
Y9575412D01*
X8100942D01*
Y9573966D01*
X8098049D01*
Y9572519D01*
X8095156D01*
Y9571073D01*
X8093710D01*
Y9569627D01*
X8092263D01*
Y9568180D01*
X8090817D01*
Y9566734D01*
X8087924D01*
Y9565287D01*
X8085032D01*
Y9562395D01*
X8082139D01*
Y9560948D01*
X8080693D01*
Y9559502D01*
X8077800D01*
Y9558055D01*
X8076353D01*
Y9556609D01*
X8074907D01*
Y9555163D01*
X8073460D01*
Y9553716D01*
X8070568D01*
Y9552270D01*
X8069121D01*
Y9550823D01*
X8066228D01*
Y9549377D01*
X8064782D01*
Y9547931D01*
X8063336D01*
Y9546484D01*
X8060443D01*
Y9545038D01*
X8058997D01*
Y9543592D01*
X8057550D01*
Y9542145D01*
X8054658D01*
Y9540699D01*
X8053211D01*
Y9539252D01*
X8051765D01*
Y9537806D01*
X8048872D01*
Y9536360D01*
X8047425D01*
Y9534913D01*
X8045979D01*
Y9533467D01*
X8044533D01*
Y9532020D01*
X8041640D01*
Y9530574D01*
X8038747D01*
Y9527681D01*
X8035854D01*
Y9526235D01*
X8034408D01*
Y9524788D01*
X8031515D01*
Y9523342D01*
X8030069D01*
Y9521896D01*
X8028623D01*
Y9520449D01*
X8027176D01*
Y9519003D01*
X8024283D01*
Y9517557D01*
X8022837D01*
Y9516110D01*
X8019944D01*
Y9514664D01*
X8018498D01*
Y9513217D01*
X8017051D01*
Y9511771D01*
X8014158D01*
Y9510325D01*
X8012712D01*
Y9508878D01*
X8011266D01*
Y9507432D01*
X8008373D01*
Y9504539D01*
X8005480D01*
Y9503092D01*
X8002587D01*
Y9501646D01*
X8001141D01*
Y9500200D01*
X7999695D01*
Y9498753D01*
X7998248D01*
Y9497307D01*
X7995355D01*
Y9495861D01*
X7993909D01*
Y9494414D01*
X7992463D01*
Y9492968D01*
X7989570D01*
Y9491522D01*
X7988123D01*
Y9490075D01*
X7986677D01*
Y9488629D01*
X7983784D01*
Y9487182D01*
X7982338D01*
Y9485736D01*
X7980892D01*
Y9484290D01*
X7979445D01*
Y9482843D01*
X7977999D01*
Y9481397D01*
X7975106D01*
Y9479950D01*
X7972213D01*
Y9478504D01*
X7970767D01*
Y9477057D01*
X7969320D01*
Y9475611D01*
X7967874D01*
Y9474165D01*
X7964981D01*
Y9472718D01*
X7963535D01*
Y9471272D01*
X7962088D01*
Y9469826D01*
X7959196D01*
Y9468379D01*
X7957749D01*
Y9466933D01*
X7956303D01*
Y9465487D01*
X7953410D01*
Y9464040D01*
X7951964D01*
Y9462594D01*
X7950517D01*
Y9461147D01*
X7949071D01*
Y9459701D01*
X7947625D01*
Y9458255D01*
X7944732D01*
Y9456808D01*
X7943285D01*
Y9455362D01*
X7941839D01*
Y9453915D01*
X7938946D01*
Y9452469D01*
X7937500D01*
Y9451023D01*
X7936053D01*
Y9449576D01*
X7933161D01*
Y9448130D01*
X7931714D01*
Y9446683D01*
X7930268D01*
Y9445237D01*
X7928822D01*
Y9443791D01*
X7927375D01*
Y9442344D01*
X7924483D01*
Y9440898D01*
X7923036D01*
Y9438005D01*
X7921590D01*
Y9436559D01*
X7920143D01*
Y9432220D01*
X7918697D01*
Y9427880D01*
X7917250D01*
Y9426434D01*
X7915804D01*
Y9420648D01*
X7914358D01*
Y9417756D01*
X7912911D01*
Y9414863D01*
X7911465D01*
Y9409077D01*
X7910018D01*
Y9407631D01*
X7908572D01*
Y9401845D01*
X7907126D01*
Y9397506D01*
X7905679D01*
Y9396060D01*
X7904233D01*
Y9390274D01*
X7902787D01*
Y9387382D01*
X7901340D01*
Y9383042D01*
X7899894D01*
Y9378703D01*
X7898448D01*
Y9375810D01*
X7897001D01*
Y9371471D01*
X7895555D01*
Y9365686D01*
X7894108D01*
Y9364239D01*
X7892662D01*
Y9358454D01*
X7891215D01*
Y9355561D01*
X7889769D01*
Y9351222D01*
X7888323D01*
Y9346882D01*
X7886876D01*
Y9343990D01*
X7885430D01*
Y9339651D01*
X7883983D01*
Y9333865D01*
X7882537D01*
Y9332419D01*
X7881091D01*
Y9326633D01*
X7879644D01*
Y9323740D01*
X7878198D01*
Y9319401D01*
X7876752D01*
Y9313616D01*
X7875305D01*
Y9312169D01*
X7873859D01*
Y9306384D01*
X7872413D01*
Y9303491D01*
X7870966D01*
Y9302045D01*
X7856502D01*
Y9300598D01*
X7727773D01*
Y9302045D01*
X7694507D01*
Y9303491D01*
X7687275D01*
Y9304937D01*
X7688721D01*
Y9310723D01*
X7690167D01*
Y9313616D01*
X7691614D01*
Y9317955D01*
X7693060D01*
Y9323740D01*
X7694507D01*
Y9325187D01*
X7695953D01*
Y9330972D01*
X7697399D01*
Y9335312D01*
X7698846D01*
Y9338204D01*
X7700292D01*
Y9342543D01*
X7701738D01*
Y9345436D01*
X7703185D01*
Y9349775D01*
X7704631D01*
Y9355561D01*
X7706078D01*
Y9357007D01*
X7707524D01*
Y9362793D01*
X7708970D01*
Y9367132D01*
X7710417D01*
Y9370025D01*
X7711863D01*
Y9374364D01*
X7713310D01*
Y9377257D01*
X7714756D01*
Y9381596D01*
X7716202D01*
Y9387382D01*
X7717649D01*
Y9388828D01*
X7719095D01*
Y9394613D01*
X7720542D01*
Y9398953D01*
X7721988D01*
Y9401845D01*
X7723434D01*
Y9407631D01*
X7724881D01*
Y9409077D01*
X7726327D01*
Y9414863D01*
X7727773D01*
Y9419202D01*
X7729220D01*
Y9422095D01*
X7730666D01*
Y9426434D01*
X7732113D01*
Y9432220D01*
X7733559D01*
Y9435112D01*
X7735005D01*
Y9442344D01*
X7736452D01*
Y9443791D01*
X7735005D01*
Y9449576D01*
X7733559D01*
Y9452469D01*
X7732113D01*
Y9455362D01*
X7730666D01*
Y9458255D01*
X7729220D01*
Y9459701D01*
X7727773D01*
Y9462594D01*
X7726327D01*
Y9465487D01*
X7724881D01*
Y9466933D01*
X7723434D01*
Y9469826D01*
X7721988D01*
Y9472718D01*
X7720542D01*
Y9474165D01*
X7719095D01*
Y9477057D01*
X7717649D01*
Y9479950D01*
X7716202D01*
Y9481397D01*
X7714756D01*
Y9485736D01*
X7713310D01*
Y9487182D01*
X7711863D01*
Y9490075D01*
X7710417D01*
Y9491522D01*
X7708970D01*
Y9494414D01*
X7707524D01*
Y9497307D01*
X7706078D01*
Y9498753D01*
X7704631D01*
Y9501646D01*
X7703185D01*
Y9504539D01*
X7701738D01*
Y9505985D01*
X7700292D01*
Y9508878D01*
X7698846D01*
Y9511771D01*
X7697399D01*
Y9514664D01*
X7695953D01*
Y9516110D01*
X7694507D01*
Y9519003D01*
X7693060D01*
Y9521896D01*
X7691614D01*
Y9524788D01*
X7690167D01*
Y9526235D01*
X7688721D01*
Y9529127D01*
X7687275D01*
Y9530574D01*
X7685828D01*
Y9533467D01*
X7684382D01*
Y9536360D01*
X7682935D01*
Y9537806D01*
X7681489D01*
Y9540699D01*
X7680043D01*
Y9543592D01*
X7678596D01*
Y9545038D01*
X7677150D01*
Y9547931D01*
X7675703D01*
Y9550823D01*
X7674257D01*
Y9553716D01*
X7672811D01*
Y9555163D01*
X7671364D01*
Y9558055D01*
X7669918D01*
Y9560948D01*
X7668472D01*
Y9563841D01*
X7667025D01*
Y9565287D01*
X7665579D01*
Y9568180D01*
X7664132D01*
Y9571073D01*
X7662686D01*
Y9572519D01*
X7661240D01*
Y9575412D01*
X7659793D01*
Y9578305D01*
X7658347D01*
Y9581198D01*
X7659793D01*
Y9582644D01*
X7808771D01*
Y9581198D01*
X7843485D01*
Y9578305D01*
X7844931D01*
Y9576858D01*
X7846377D01*
Y9573966D01*
X7847824D01*
Y9571073D01*
X7849270D01*
Y9569627D01*
X7850717D01*
Y9566734D01*
X7852163D01*
Y9565287D01*
X7853609D01*
Y9562395D01*
X7855056D01*
Y9559502D01*
X7856502D01*
Y9558055D01*
X7857948D01*
Y9555163D01*
X7859395D01*
Y9553716D01*
X7860841D01*
Y9550823D01*
X7862288D01*
Y9549377D01*
X7863734D01*
Y9547931D01*
X7865180D01*
Y9546484D01*
X7866627D01*
Y9547931D01*
X7868073D01*
Y9549377D01*
X7870966D01*
Y9550823D01*
X7873859D01*
Y9553716D01*
X7876752D01*
Y9555163D01*
X7878198D01*
Y9556609D01*
X7881091D01*
Y9558055D01*
X7882537D01*
Y9559502D01*
X7883983D01*
Y9560948D01*
X7886876D01*
Y9562395D01*
X7888323D01*
Y9563841D01*
X7889769D01*
Y9565287D01*
X7892662D01*
Y9566734D01*
X7894108D01*
Y9568180D01*
X7895555D01*
Y9569627D01*
X7898448D01*
Y9571073D01*
X7899894D01*
Y9572519D01*
X7901340D01*
Y9573966D01*
X7902787D01*
Y9575412D01*
X7904233D01*
Y9576858D01*
X7907126D01*
Y9578305D01*
X7908572D01*
Y9579751D01*
X7911465D01*
Y9581198D01*
X7912911D01*
Y9582644D01*
X7914358D01*
Y9584090D01*
X8219546D01*
Y9582644D01*
D02*
G37*
G36*
X7371962D02*
X7513708D01*
Y9581198D01*
X7596152D01*
Y9579751D01*
X7606277D01*
Y9578305D01*
X7609170D01*
Y9576858D01*
X7614955D01*
Y9575412D01*
X7617848D01*
Y9573966D01*
X7622187D01*
Y9572519D01*
X7625080D01*
Y9571073D01*
X7627973D01*
Y9569627D01*
X7630865D01*
Y9568180D01*
X7633758D01*
Y9566734D01*
X7635205D01*
Y9565287D01*
X7638098D01*
Y9563841D01*
X7639544D01*
Y9562395D01*
X7642437D01*
Y9560948D01*
X7643883D01*
Y9559502D01*
X7645329D01*
Y9558055D01*
X7646776D01*
Y9555163D01*
X7648222D01*
Y9553716D01*
X7649668D01*
Y9552270D01*
X7651115D01*
Y9549377D01*
X7652561D01*
Y9546484D01*
X7654008D01*
Y9540699D01*
X7655454D01*
Y9514664D01*
X7654008D01*
Y9501646D01*
X7652561D01*
Y9498753D01*
X7651115D01*
Y9494414D01*
X7649668D01*
Y9490075D01*
X7648222D01*
Y9488629D01*
X7646776D01*
Y9484290D01*
X7645329D01*
Y9481397D01*
X7643883D01*
Y9479950D01*
X7642437D01*
Y9477057D01*
X7640990D01*
Y9475611D01*
X7639544D01*
Y9472718D01*
X7638098D01*
Y9471272D01*
X7636651D01*
Y9469826D01*
X7635205D01*
Y9466933D01*
X7633758D01*
Y9465487D01*
X7632312D01*
Y9462594D01*
X7630865D01*
Y9461147D01*
X7629419D01*
Y9459701D01*
X7627973D01*
Y9458255D01*
X7626526D01*
Y9456808D01*
X7625080D01*
Y9455362D01*
X7623633D01*
Y9453915D01*
X7622187D01*
Y9451023D01*
X7620741D01*
Y9449576D01*
X7619294D01*
Y9448130D01*
X7617848D01*
Y9446683D01*
X7614955D01*
Y9445237D01*
X7613509D01*
Y9443791D01*
X7612063D01*
Y9442344D01*
X7610616D01*
Y9440898D01*
X7609170D01*
Y9439452D01*
X7606277D01*
Y9438005D01*
X7604830D01*
Y9436559D01*
X7603384D01*
Y9432220D01*
X7604830D01*
Y9429327D01*
X7606277D01*
Y9427880D01*
X7607723D01*
Y9423541D01*
X7609170D01*
Y9420648D01*
X7610616D01*
Y9417756D01*
X7612063D01*
Y9411970D01*
X7613509D01*
Y9409077D01*
X7614955D01*
Y9397506D01*
X7613509D01*
Y9393167D01*
X7612063D01*
Y9385935D01*
X7610616D01*
Y9383042D01*
X7609170D01*
Y9378703D01*
X7607723D01*
Y9375810D01*
X7606277D01*
Y9372917D01*
X7604830D01*
Y9370025D01*
X7603384D01*
Y9367132D01*
X7601938D01*
Y9365686D01*
X7600491D01*
Y9361347D01*
X7599045D01*
Y9359900D01*
X7597598D01*
Y9358454D01*
X7596152D01*
Y9355561D01*
X7594706D01*
Y9354115D01*
X7593259D01*
Y9351222D01*
X7591813D01*
Y9349775D01*
X7590367D01*
Y9348329D01*
X7588920D01*
Y9346882D01*
X7587474D01*
Y9345436D01*
X7586028D01*
Y9342543D01*
X7583135D01*
Y9341097D01*
X7581688D01*
Y9339651D01*
X7580242D01*
Y9338204D01*
X7578795D01*
Y9336758D01*
X7577349D01*
Y9335312D01*
X7575903D01*
Y9333865D01*
X7574456D01*
Y9332419D01*
X7573010D01*
Y9330972D01*
X7570117D01*
Y9329526D01*
X7568671D01*
Y9328080D01*
X7565778D01*
Y9326633D01*
X7564332D01*
Y9325187D01*
X7561439D01*
Y9323740D01*
X7558546D01*
Y9322294D01*
X7555653D01*
Y9320848D01*
X7554207D01*
Y9319401D01*
X7549868D01*
Y9317955D01*
X7548421D01*
Y9316508D01*
X7544082D01*
Y9315062D01*
X7539743D01*
Y9313616D01*
X7538297D01*
Y9312169D01*
X7532511D01*
Y9310723D01*
X7528172D01*
Y9309277D01*
X7523833D01*
Y9307830D01*
X7516601D01*
Y9306384D01*
X7512262D01*
Y9304937D01*
X7499244D01*
Y9303491D01*
X7465977D01*
Y9302045D01*
X7425478D01*
Y9300598D01*
X7165128D01*
Y9306384D01*
X7166575D01*
Y9312169D01*
X7168021D01*
Y9315062D01*
X7169468D01*
Y9319401D01*
X7170914D01*
Y9323740D01*
X7172360D01*
Y9326633D01*
X7173807D01*
Y9332419D01*
X7175253D01*
Y9335312D01*
X7176699D01*
Y9339651D01*
X7178146D01*
Y9343990D01*
X7179592D01*
Y9346882D01*
X7181038D01*
Y9352668D01*
X7182485D01*
Y9355561D01*
X7183931D01*
Y9359900D01*
X7185378D01*
Y9365686D01*
X7186824D01*
Y9367132D01*
X7188270D01*
Y9372917D01*
X7189717D01*
Y9377257D01*
X7191163D01*
Y9380150D01*
X7192610D01*
Y9384489D01*
X7194056D01*
Y9387382D01*
X7195503D01*
Y9391721D01*
X7196949D01*
Y9397506D01*
X7198395D01*
Y9398953D01*
X7199842D01*
Y9404738D01*
X7201288D01*
Y9409077D01*
X7202734D01*
Y9411970D01*
X7204181D01*
Y9416309D01*
X7205627D01*
Y9419202D01*
X7207073D01*
Y9423541D01*
X7208520D01*
Y9429327D01*
X7209966D01*
Y9430773D01*
X7211413D01*
Y9436559D01*
X7212859D01*
Y9440898D01*
X7214305D01*
Y9443791D01*
X7215752D01*
Y9448130D01*
X7217198D01*
Y9451023D01*
X7218645D01*
Y9455362D01*
X7220091D01*
Y9461147D01*
X7221537D01*
Y9462594D01*
X7222984D01*
Y9468379D01*
X7224430D01*
Y9471272D01*
X7225877D01*
Y9475611D01*
X7227323D01*
Y9479950D01*
X7228769D01*
Y9482843D01*
X7230216D01*
Y9487182D01*
X7231662D01*
Y9492968D01*
X7233108D01*
Y9494414D01*
X7234555D01*
Y9500200D01*
X7236001D01*
Y9504539D01*
X7237448D01*
Y9507432D01*
X7238894D01*
Y9511771D01*
X7240340D01*
Y9514664D01*
X7241787D01*
Y9519003D01*
X7243233D01*
Y9523342D01*
X7244680D01*
Y9526235D01*
X7246126D01*
Y9532020D01*
X7247572D01*
Y9534913D01*
X7249019D01*
Y9537806D01*
X7250465D01*
Y9543592D01*
X7251912D01*
Y9546484D01*
X7253358D01*
Y9550823D01*
X7254804D01*
Y9555163D01*
X7256251D01*
Y9558055D01*
X7257697D01*
Y9562395D01*
X7259143D01*
Y9566734D01*
X7260590D01*
Y9569627D01*
X7262036D01*
Y9575412D01*
X7263483D01*
Y9578305D01*
X7264929D01*
Y9582644D01*
X7266375D01*
Y9584090D01*
X7371962D01*
Y9582644D01*
D02*
G37*
G36*
X8017051Y9186333D02*
X8018498D01*
Y9183441D01*
X8021390D01*
Y9180548D01*
X8022837D01*
Y9177655D01*
X8021390D01*
Y9174762D01*
X8018498D01*
Y9171870D01*
X8015605D01*
Y9170423D01*
X8012712D01*
Y9167530D01*
X8006927D01*
Y9164638D01*
X8002587D01*
Y9163191D01*
X7993909D01*
Y9160298D01*
X7982338D01*
Y9161745D01*
X7980892D01*
Y9163191D01*
X7977999D01*
Y9164638D01*
X7975106D01*
Y9167530D01*
X7972213D01*
Y9170423D01*
X7973660D01*
Y9171870D01*
X7979445D01*
Y9174762D01*
X7988123D01*
Y9176209D01*
X7995355D01*
Y9179102D01*
X8001141D01*
Y9181994D01*
X8005480D01*
Y9183441D01*
X8006927D01*
Y9186333D01*
X8009819D01*
Y9187780D01*
X8017051D01*
Y9186333D01*
D02*
G37*
G36*
X7370515Y9193565D02*
X7379194D01*
Y9190672D01*
X7386426D01*
Y9187780D01*
X7383533D01*
Y9186333D01*
X7382087D01*
Y9183441D01*
X7377747D01*
Y9181994D01*
X7374855D01*
Y9179102D01*
X7371962D01*
Y9176209D01*
X7369069D01*
Y9174762D01*
X7366176D01*
Y9173316D01*
X7364730D01*
Y9171870D01*
X7363283D01*
Y9164638D01*
X7377747D01*
Y9166084D01*
X7379194D01*
Y9167530D01*
X7393658D01*
Y9170423D01*
X7406675D01*
Y9171870D01*
X7476102D01*
Y9170423D01*
X7487673D01*
Y9167530D01*
X7494905D01*
Y9166084D01*
X7496351D01*
Y9164638D01*
X7500690D01*
Y9163191D01*
X7505030D01*
Y9160298D01*
X7509369D01*
Y9158852D01*
X7510815D01*
Y9155959D01*
X7513708D01*
Y9154513D01*
X7515154D01*
Y9153067D01*
X7516601D01*
Y9151620D01*
X7518047D01*
Y9148727D01*
X7520940D01*
Y9141495D01*
X7522386D01*
Y9132817D01*
X7520940D01*
Y9125585D01*
X7518047D01*
Y9121246D01*
X7516601D01*
Y9116907D01*
X7513708D01*
Y9114014D01*
X7512262D01*
Y9112568D01*
X7510815D01*
Y9109675D01*
X7509369D01*
Y9106782D01*
X7506476D01*
Y9105336D01*
X7505030D01*
Y9100997D01*
X7502137D01*
Y9098104D01*
X7499244D01*
Y9095211D01*
X7497798D01*
Y9093765D01*
X7494905D01*
Y9090872D01*
X7493458D01*
Y9089425D01*
X7490566D01*
Y9086532D01*
X7487673D01*
Y9083640D01*
X7483334D01*
Y9082193D01*
X7481888D01*
Y9079301D01*
X7478995D01*
Y9077854D01*
X7477548D01*
Y9076408D01*
X7476102D01*
Y9074962D01*
X7471763D01*
Y9072069D01*
X7470316D01*
Y9070622D01*
X7464531D01*
Y9067730D01*
X7463084D01*
Y9066283D01*
X7458745D01*
Y9063390D01*
X7452960D01*
Y9060497D01*
X7448620D01*
Y9059051D01*
X7444281D01*
Y9056158D01*
X7438496D01*
Y9054712D01*
X7437049D01*
Y9053266D01*
X7432710D01*
Y9051819D01*
X7428371D01*
Y9048927D01*
X7421139D01*
Y9047480D01*
X7413907D01*
Y9044587D01*
X7406675D01*
Y9041695D01*
X7399443D01*
Y9040248D01*
X7392211D01*
Y9038802D01*
X7390765D01*
Y9037355D01*
X7383533D01*
Y9035909D01*
X7374855D01*
Y9033016D01*
X7363283D01*
Y9030123D01*
X7351712D01*
Y9028677D01*
X7338695D01*
Y9027231D01*
X7337248D01*
Y9025784D01*
X7324231D01*
Y9024338D01*
X7305428D01*
Y9021445D01*
X7289518D01*
Y9018552D01*
X7279393D01*
Y9012767D01*
X7283732D01*
Y9009874D01*
X7289518D01*
Y9008428D01*
X7290964D01*
Y9006981D01*
X7295303D01*
Y9005535D01*
X7302535D01*
Y9002642D01*
X7309767D01*
Y9001196D01*
X7318445D01*
Y8998303D01*
X7325678D01*
Y8996857D01*
X7327124D01*
Y8995410D01*
X7335802D01*
Y8993964D01*
X7344480D01*
Y8991071D01*
X7356052D01*
Y8989625D01*
X7409568D01*
Y8991071D01*
X7422585D01*
Y8993964D01*
X7432710D01*
Y8995410D01*
X7441388D01*
Y8998303D01*
X7448620D01*
Y9001196D01*
X7455853D01*
Y9002642D01*
X7463084D01*
Y9005535D01*
X7468870D01*
Y9006981D01*
X7473209D01*
Y9008428D01*
X7474655D01*
Y9009874D01*
X7480441D01*
Y9011320D01*
X7481888D01*
Y9012767D01*
X7486227D01*
Y9014213D01*
X7490566D01*
Y9015660D01*
X7492012D01*
Y9017106D01*
X7497798D01*
Y9018552D01*
X7500690D01*
Y9019999D01*
X7502137D01*
Y9021445D01*
X7506476D01*
Y9024338D01*
X7510815D01*
Y9025784D01*
X7513708D01*
Y9027231D01*
X7515154D01*
Y9028677D01*
X7518047D01*
Y9030123D01*
X7520940D01*
Y9031570D01*
X7522386D01*
Y9033016D01*
X7525279D01*
Y9035909D01*
X7529618D01*
Y9037355D01*
X7532511D01*
Y9040248D01*
X7533957D01*
Y9041695D01*
X7535404D01*
Y9043141D01*
X7538297D01*
Y9044587D01*
X7541189D01*
Y9047480D01*
X7544082D01*
Y9048927D01*
X7548421D01*
Y9051819D01*
X7551314D01*
Y9054712D01*
X7555653D01*
Y9056158D01*
X7559992D01*
Y9059051D01*
X7564332D01*
Y9060497D01*
X7567224D01*
Y9061944D01*
X7568671D01*
Y9063390D01*
X7573010D01*
Y9064837D01*
X7574456D01*
Y9066283D01*
X7578795D01*
Y9067730D01*
X7583135D01*
Y9070622D01*
X7590367D01*
Y9072069D01*
X7594706D01*
Y9074962D01*
X7601938D01*
Y9077854D01*
X7609170D01*
Y9079301D01*
X7614955D01*
Y9082193D01*
X7622187D01*
Y9083640D01*
X7629419D01*
Y9085086D01*
X7632312D01*
Y9086532D01*
X7638098D01*
Y9087979D01*
X7639544D01*
Y9089425D01*
X7648222D01*
Y9090872D01*
X7656900D01*
Y9093765D01*
X7678596D01*
Y9090872D01*
X7680043D01*
Y9085086D01*
X7678596D01*
Y9079301D01*
X7675703D01*
Y9074962D01*
X7674257D01*
Y9070622D01*
X7671364D01*
Y9066283D01*
X7669918D01*
Y9064837D01*
X7668472D01*
Y9060497D01*
X7667025D01*
Y9056158D01*
X7664132D01*
Y9048927D01*
X7662686D01*
Y9044587D01*
X7659793D01*
Y9037355D01*
X7656900D01*
Y9030123D01*
X7655454D01*
Y9021445D01*
X7652561D01*
Y9002642D01*
X7659793D01*
Y9005535D01*
X7662686D01*
Y9008428D01*
X7664132D01*
Y9009874D01*
X7665579D01*
Y9011320D01*
X7667025D01*
Y9014213D01*
X7668472D01*
Y9017106D01*
X7671364D01*
Y9018552D01*
X7672811D01*
Y9019999D01*
X7674257D01*
Y9021445D01*
X7675703D01*
Y9024338D01*
X7677150D01*
Y9025784D01*
X7678596D01*
Y9028677D01*
X7680043D01*
Y9030123D01*
X7681489D01*
Y9031570D01*
X7682935D01*
Y9033016D01*
X7684382D01*
Y9034462D01*
X7685828D01*
Y9037355D01*
X7687275D01*
Y9040248D01*
X7690167D01*
Y9043141D01*
X7691614D01*
Y9044587D01*
X7694507D01*
Y9047480D01*
X7697399D01*
Y9050373D01*
X7698846D01*
Y9054712D01*
X7701738D01*
Y9056158D01*
X7703185D01*
Y9059051D01*
X7706078D01*
Y9060497D01*
X7708970D01*
Y9063390D01*
X7710417D01*
Y9066283D01*
X7713310D01*
Y9067730D01*
X7714756D01*
Y9070622D01*
X7717649D01*
Y9072069D01*
X7720542D01*
Y9074962D01*
X7724881D01*
Y9077854D01*
X7726327D01*
Y9079301D01*
X7729220D01*
Y9082193D01*
X7733559D01*
Y9083640D01*
X7736452D01*
Y9085086D01*
X7737898D01*
Y9086532D01*
X7740791D01*
Y9089425D01*
X7745130D01*
Y9090872D01*
X7749469D01*
Y9093765D01*
X7755255D01*
Y9095211D01*
X7759594D01*
Y9098104D01*
X7763933D01*
Y9100997D01*
X7771165D01*
Y9102443D01*
X7775504D01*
Y9105336D01*
X7782736D01*
Y9106782D01*
X7788522D01*
Y9108228D01*
X7789968D01*
Y9109675D01*
X7795754D01*
Y9112568D01*
X7802986D01*
Y9114014D01*
X7810218D01*
Y9116907D01*
X7818896D01*
Y9118353D01*
X7837699D01*
Y9116907D01*
X7847824D01*
Y9114014D01*
X7855056D01*
Y9112568D01*
X7860841D01*
Y9111121D01*
X7862288D01*
Y9109675D01*
X7866627D01*
Y9106782D01*
X7868073D01*
Y9105336D01*
X7866627D01*
Y9102443D01*
X7856502D01*
Y9100997D01*
X7816003D01*
Y9099550D01*
X7814557D01*
Y9098104D01*
X7804432D01*
Y9096657D01*
X7802986D01*
Y9095211D01*
X7797200D01*
Y9093765D01*
X7791415D01*
Y9090872D01*
X7787075D01*
Y9089425D01*
X7782736D01*
Y9086532D01*
X7778397D01*
Y9083640D01*
X7775504D01*
Y9082193D01*
X7774058D01*
Y9079301D01*
X7769719D01*
Y9077854D01*
X7768273D01*
Y9076408D01*
X7766826D01*
Y9074962D01*
X7765380D01*
Y9073515D01*
X7763933D01*
Y9070622D01*
X7762487D01*
Y9069176D01*
X7761040D01*
Y9067730D01*
X7759594D01*
Y9064837D01*
X7756701D01*
Y9060497D01*
X7755255D01*
Y9059051D01*
X7752362D01*
Y9053266D01*
X7749469D01*
Y9048927D01*
X7748023D01*
Y9044587D01*
X7745130D01*
Y9037355D01*
X7743684D01*
Y9021445D01*
X7742238D01*
Y9019999D01*
X7740791D01*
Y9008428D01*
X7743684D01*
Y8995410D01*
X7745130D01*
Y8993964D01*
X7765380D01*
Y8995410D01*
X7769719D01*
Y8996857D01*
X7771165D01*
Y8998303D01*
X7775504D01*
Y9001196D01*
X7779843D01*
Y9002642D01*
X7784183D01*
Y9005535D01*
X7789968D01*
Y9006981D01*
X7792861D01*
Y9008428D01*
X7794307D01*
Y9009874D01*
X7798647D01*
Y9012767D01*
X7802986D01*
Y9014213D01*
X7805878D01*
Y9017106D01*
X7810218D01*
Y9018552D01*
X7813110D01*
Y9019999D01*
X7814557D01*
Y9021445D01*
X7817450D01*
Y9024338D01*
X7821789D01*
Y9025784D01*
X7824682D01*
Y9027231D01*
X7826128D01*
Y9028677D01*
X7829021D01*
Y9030123D01*
X7830467D01*
Y9031570D01*
X7833360D01*
Y9033016D01*
X7836253D01*
Y9035909D01*
X7839145D01*
Y9037355D01*
X7842038D01*
Y9038802D01*
X7843485D01*
Y9040248D01*
X7844931D01*
Y9041695D01*
X7846377D01*
Y9043141D01*
X7849270D01*
Y9044587D01*
X7852163D01*
Y9047480D01*
X7855056D01*
Y9048927D01*
X7859395D01*
Y9051819D01*
X7860841D01*
Y9054712D01*
X7863734D01*
Y9056158D01*
X7868073D01*
Y9059051D01*
X7870966D01*
Y9060497D01*
X7872413D01*
Y9063390D01*
X7876752D01*
Y9066283D01*
X7879644D01*
Y9067730D01*
X7882537D01*
Y9070622D01*
X7883983D01*
Y9072069D01*
X7886876D01*
Y9073515D01*
X7888323D01*
Y9074962D01*
X7891215D01*
Y9077854D01*
X7894108D01*
Y9079301D01*
X7895555D01*
Y9082193D01*
X7898448D01*
Y9083640D01*
X7901340D01*
Y9086532D01*
X7904233D01*
Y9089425D01*
X7907126D01*
Y9090872D01*
X7910018D01*
Y9093765D01*
X7912911D01*
Y9095211D01*
X7914358D01*
Y9098104D01*
X7918697D01*
Y9100997D01*
X7921590D01*
Y9102443D01*
X7925929D01*
Y9105336D01*
X7940393D01*
Y9102443D01*
X7947625D01*
Y9099550D01*
X7944732D01*
Y9095211D01*
X7943285D01*
Y9093765D01*
X7940393D01*
Y9090872D01*
X7937500D01*
Y9087979D01*
X7936053D01*
Y9085086D01*
X7934607D01*
Y9083640D01*
X7933161D01*
Y9082193D01*
X7931714D01*
Y9080747D01*
X7930268D01*
Y9079301D01*
X7928822D01*
Y9077854D01*
X7927375D01*
Y9076408D01*
X7925929D01*
Y9074962D01*
X7924483D01*
Y9072069D01*
X7921590D01*
Y9067730D01*
X7918697D01*
Y9066283D01*
X7917250D01*
Y9063390D01*
X7914358D01*
Y9060497D01*
X7912911D01*
Y9059051D01*
X7911465D01*
Y9057605D01*
X7910018D01*
Y9053266D01*
X7907126D01*
Y9051819D01*
X7905679D01*
Y9048927D01*
X7904233D01*
Y9047480D01*
X7902787D01*
Y9044587D01*
X7901340D01*
Y9040248D01*
X7898448D01*
Y9034462D01*
X7897001D01*
Y9033016D01*
X7895555D01*
Y9009874D01*
X7907126D01*
Y9012767D01*
X7912911D01*
Y9014213D01*
X7917250D01*
Y9017106D01*
X7918697D01*
Y9018552D01*
X7921590D01*
Y9019999D01*
X7924483D01*
Y9021445D01*
X7925929D01*
Y9024338D01*
X7930268D01*
Y9025784D01*
X7933161D01*
Y9028677D01*
X7936053D01*
Y9030123D01*
X7938946D01*
Y9031570D01*
X7940393D01*
Y9033016D01*
X7941839D01*
Y9035909D01*
X7947625D01*
Y9037355D01*
X7949071D01*
Y9040248D01*
X7951964D01*
Y9041695D01*
X7953410D01*
Y9043141D01*
X7956303D01*
Y9044587D01*
X7959196D01*
Y9047480D01*
X7963535D01*
Y9048927D01*
X7964981D01*
Y9050373D01*
X7966428D01*
Y9051819D01*
X7967874D01*
Y9054712D01*
X7972213D01*
Y9056158D01*
X7975106D01*
Y9059051D01*
X7977999D01*
Y9060497D01*
X7980892D01*
Y9061944D01*
X7982338D01*
Y9063390D01*
X7983784D01*
Y9066283D01*
X7986677D01*
Y9067730D01*
X7991016D01*
Y9070622D01*
X7993909D01*
Y9072069D01*
X7995355D01*
Y9074962D01*
X7999695D01*
Y9076408D01*
X8001141D01*
Y9077854D01*
X8002587D01*
Y9079301D01*
X8005480D01*
Y9082193D01*
X8009819D01*
Y9083640D01*
X8011266D01*
Y9085086D01*
X8012712D01*
Y9086532D01*
X8014158D01*
Y9089425D01*
X8018498D01*
Y9090872D01*
X8021390D01*
Y9093765D01*
X8024283D01*
Y9095211D01*
X8027176D01*
Y9096657D01*
X8028623D01*
Y9098104D01*
X8030069D01*
Y9100997D01*
X8034408D01*
Y9102443D01*
X8037301D01*
Y9105336D01*
X8040193D01*
Y9106782D01*
X8043086D01*
Y9108228D01*
X8044533D01*
Y9109675D01*
X8047425D01*
Y9112568D01*
X8048872D01*
Y9114014D01*
X8053211D01*
Y9116907D01*
X8056104D01*
Y9118353D01*
X8058997D01*
Y9119800D01*
X8060443D01*
Y9121246D01*
X8063336D01*
Y9124139D01*
X8064782D01*
Y9125585D01*
X8070568D01*
Y9128478D01*
X8072014D01*
Y9129924D01*
X8076353D01*
Y9132817D01*
X8082139D01*
Y9135710D01*
X8086478D01*
Y9137156D01*
X8098049D01*
Y9135710D01*
X8102388D01*
Y9132817D01*
X8105281D01*
Y9128478D01*
X8102388D01*
Y9124139D01*
X8100942D01*
Y9121246D01*
X8099495D01*
Y9118353D01*
X8098049D01*
Y9114014D01*
X8095156D01*
Y9111121D01*
X8093710D01*
Y9106782D01*
X8090817D01*
Y9102443D01*
X8087924D01*
Y9098104D01*
X8086478D01*
Y9095211D01*
X8085032D01*
Y9093765D01*
X8083585D01*
Y9090872D01*
X8082139D01*
Y9082193D01*
X8087924D01*
Y9083640D01*
X8092263D01*
Y9085086D01*
X8093710D01*
Y9086532D01*
X8095156D01*
Y9089425D01*
X8098049D01*
Y9090872D01*
X8102388D01*
Y9093765D01*
X8105281D01*
Y9095211D01*
X8108174D01*
Y9096657D01*
X8109620D01*
Y9098104D01*
X8111067D01*
Y9100997D01*
X8116852D01*
Y9102443D01*
X8121191D01*
Y9105336D01*
X8125530D01*
Y9106782D01*
X8129870D01*
Y9109675D01*
X8137102D01*
Y9112568D01*
X8145780D01*
Y9114014D01*
X8164583D01*
Y9112568D01*
X8170368D01*
Y9109675D01*
X8171815D01*
Y9105336D01*
X8170368D01*
Y9102443D01*
X8167476D01*
Y9100997D01*
X8166029D01*
Y9099550D01*
X8164583D01*
Y9098104D01*
X8163137D01*
Y9095211D01*
X8160244D01*
Y9090872D01*
X8158798D01*
Y9089425D01*
X8157351D01*
Y9087979D01*
X8155905D01*
Y9086532D01*
X8154458D01*
Y9083640D01*
X8153012D01*
Y9082193D01*
X8151565D01*
Y9079301D01*
X8150119D01*
Y9077854D01*
X8148673D01*
Y9074962D01*
X8147226D01*
Y9070622D01*
X8144333D01*
Y9066283D01*
X8142887D01*
Y9064837D01*
X8141441D01*
Y9054712D01*
X8148673D01*
Y9056158D01*
X8153012D01*
Y9059051D01*
X8155905D01*
Y9060497D01*
X8160244D01*
Y9063390D01*
X8163137D01*
Y9066283D01*
X8167476D01*
Y9067730D01*
X8170368D01*
Y9069176D01*
X8171815D01*
Y9070622D01*
X8174708D01*
Y9072069D01*
X8179047D01*
Y9074962D01*
X8181940D01*
Y9077854D01*
X8186279D01*
Y9079301D01*
X8189172D01*
Y9080747D01*
X8190618D01*
Y9082193D01*
X8193511D01*
Y9083640D01*
X8197850D01*
Y9086532D01*
X8202189D01*
Y9089425D01*
X8205082D01*
Y9090872D01*
X8209421D01*
Y9093765D01*
X8213760D01*
Y9095211D01*
X8216653D01*
Y9098104D01*
X8220992D01*
Y9100997D01*
X8225331D01*
Y9102443D01*
X8228224D01*
Y9103889D01*
X8229670D01*
Y9105336D01*
X8232563D01*
Y9106782D01*
X8236902D01*
Y9109675D01*
X8241242D01*
Y9112568D01*
X8245581D01*
Y9114014D01*
X8249920D01*
Y9115460D01*
X8251366D01*
Y9116907D01*
X8255705D01*
Y9118353D01*
X8260045D01*
Y9121246D01*
X8267277D01*
Y9124139D01*
X8273062D01*
Y9125585D01*
X8280294D01*
Y9128478D01*
X8287526D01*
Y9129924D01*
X8296204D01*
Y9131371D01*
X8297651D01*
Y9132817D01*
X8307775D01*
Y9134263D01*
X8309222D01*
Y9135710D01*
X8320793D01*
Y9137156D01*
X8335257D01*
Y9138603D01*
X8336703D01*
Y9140049D01*
X8387327D01*
Y9137156D01*
X8394559D01*
Y9135710D01*
X8401791D01*
Y9132817D01*
X8409023D01*
Y9129924D01*
X8413362D01*
Y9128478D01*
X8416255D01*
Y9127032D01*
X8417701D01*
Y9125585D01*
X8420594D01*
Y9124139D01*
X8422040D01*
Y9121246D01*
X8424933D01*
Y9119800D01*
X8426379D01*
Y9116907D01*
X8424933D01*
Y9114014D01*
X8420594D01*
Y9112568D01*
X8410469D01*
Y9114014D01*
X8403237D01*
Y9115460D01*
X8401791D01*
Y9116907D01*
X8394559D01*
Y9118353D01*
X8387327D01*
Y9121246D01*
X8375756D01*
Y9124139D01*
X8323686D01*
Y9122692D01*
X8322239D01*
Y9121246D01*
X8310668D01*
Y9118353D01*
X8304883D01*
Y9116907D01*
X8297651D01*
Y9114014D01*
X8290419D01*
Y9112568D01*
X8286080D01*
Y9109675D01*
X8278848D01*
Y9106782D01*
X8274508D01*
Y9105336D01*
X8270169D01*
Y9103889D01*
X8267277D01*
Y9102443D01*
X8262937D01*
Y9100997D01*
X8258598D01*
Y9098104D01*
X8252813D01*
Y9095211D01*
X8248473D01*
Y9093765D01*
X8244134D01*
Y9090872D01*
X8241242D01*
Y9089425D01*
X8236902D01*
Y9086532D01*
X8232563D01*
Y9083640D01*
X8229670D01*
Y9082193D01*
X8225331D01*
Y9079301D01*
X8222438D01*
Y9077854D01*
X8220992D01*
Y9074962D01*
X8216653D01*
Y9072069D01*
X8213760D01*
Y9070622D01*
X8212314D01*
Y9069176D01*
X8210868D01*
Y9067730D01*
X8209421D01*
Y9064837D01*
X8206528D01*
Y9063390D01*
X8205082D01*
Y9060497D01*
X8202189D01*
Y9059051D01*
X8200743D01*
Y9057605D01*
X8199296D01*
Y9056158D01*
X8197850D01*
Y9053266D01*
X8194957D01*
Y9048927D01*
X8193511D01*
Y9047480D01*
X8190618D01*
Y9044587D01*
X8187725D01*
Y9040248D01*
X8186279D01*
Y9037355D01*
X8183386D01*
Y9021445D01*
X8203635D01*
Y9024338D01*
X8210868D01*
Y9025784D01*
X8218099D01*
Y9028677D01*
X8225331D01*
Y9030123D01*
X8229670D01*
Y9031570D01*
X8232563D01*
Y9033016D01*
X8238349D01*
Y9035909D01*
X8244134D01*
Y9037355D01*
X8251366D01*
Y9040248D01*
X8257152D01*
Y9041695D01*
X8258598D01*
Y9043141D01*
X8262937D01*
Y9044587D01*
X8268723D01*
Y9047480D01*
X8274508D01*
Y9048927D01*
X8280294D01*
Y9051819D01*
X8287526D01*
Y9054712D01*
X8291865D01*
Y9056158D01*
X8297651D01*
Y9057605D01*
X8299097D01*
Y9059051D01*
X8303436D01*
Y9060497D01*
X8309222D01*
Y9063390D01*
X8315008D01*
Y9066283D01*
X8320793D01*
Y9067730D01*
X8325132D01*
Y9069176D01*
X8326578D01*
Y9070622D01*
X8332364D01*
Y9072069D01*
X8336703D01*
Y9074962D01*
X8341043D01*
Y9077854D01*
X8348274D01*
Y9079301D01*
X8352613D01*
Y9082193D01*
X8356953D01*
Y9083640D01*
X8361292D01*
Y9085086D01*
X8362738D01*
Y9086532D01*
X8367078D01*
Y9089425D01*
X8372863D01*
Y9090872D01*
X8378648D01*
Y9093765D01*
X8384434D01*
Y9095211D01*
X8401791D01*
Y9093765D01*
X8406130D01*
Y9090872D01*
X8404683D01*
Y9087979D01*
X8403237D01*
Y9086532D01*
X8401791D01*
Y9083640D01*
X8398898D01*
Y9082193D01*
X8397452D01*
Y9079301D01*
X8394559D01*
Y9076408D01*
X8393112D01*
Y9074962D01*
X8391666D01*
Y9072069D01*
X8390220D01*
Y9070622D01*
X8387327D01*
Y9067730D01*
X8385880D01*
Y9060497D01*
X8397452D01*
Y9061944D01*
X8398898D01*
Y9063390D01*
X8410469D01*
Y9066283D01*
X8420594D01*
Y9067730D01*
X8430718D01*
Y9069176D01*
X8432165D01*
Y9070622D01*
X8442290D01*
Y9072069D01*
X8452414D01*
Y9074962D01*
X8463985D01*
Y9077854D01*
X8475557D01*
Y9079301D01*
X8488574D01*
Y9080747D01*
X8490020D01*
Y9082193D01*
X8501592D01*
Y9083640D01*
X8514609D01*
Y9086532D01*
X8529073D01*
Y9089425D01*
X8544983D01*
Y9090872D01*
X8560893D01*
Y9093765D01*
X8579697D01*
Y9095211D01*
X8601393D01*
Y9096657D01*
X8602839D01*
Y9098104D01*
X8631767D01*
Y9086532D01*
X8612963D01*
Y9083640D01*
X8589821D01*
Y9082193D01*
X8571018D01*
Y9079301D01*
X8552215D01*
Y9077854D01*
X8537751D01*
Y9076408D01*
X8536305D01*
Y9074962D01*
X8521841D01*
Y9072069D01*
X8507377D01*
Y9070622D01*
X8494360D01*
Y9067730D01*
X8482788D01*
Y9066283D01*
X8474110D01*
Y9064837D01*
X8471218D01*
Y9063390D01*
X8459646D01*
Y9060497D01*
X8449522D01*
Y9059051D01*
X8439397D01*
Y9056158D01*
X8429272D01*
Y9054712D01*
X8424933D01*
Y9053266D01*
X8420594D01*
Y9051819D01*
X8410469D01*
Y9048927D01*
X8401791D01*
Y9047480D01*
X8393112D01*
Y9046034D01*
X8391666D01*
Y9044587D01*
X8382988D01*
Y9041695D01*
X8375756D01*
Y9040248D01*
X8368524D01*
Y9037355D01*
X8362738D01*
Y9035909D01*
X8358399D01*
Y9034462D01*
X8356953D01*
Y9033016D01*
X8352613D01*
Y9030123D01*
X8351167D01*
Y9028677D01*
X8348274D01*
Y9025784D01*
X8345382D01*
Y9024338D01*
X8343935D01*
Y9021445D01*
X8341043D01*
Y9018552D01*
X8339596D01*
Y9017106D01*
X8336703D01*
Y9014213D01*
X8333810D01*
Y9012767D01*
X8332364D01*
Y9009874D01*
X8329471D01*
Y9006981D01*
X8328025D01*
Y9005535D01*
X8325132D01*
Y9002642D01*
X8322239D01*
Y9001196D01*
X8320793D01*
Y8998303D01*
X8317900D01*
Y8995410D01*
X8316454D01*
Y8993964D01*
X8313561D01*
Y8991071D01*
X8310668D01*
Y8989625D01*
X8309222D01*
Y8986732D01*
X8306329D01*
Y8983839D01*
X8304883D01*
Y8982393D01*
X8301990D01*
Y8979500D01*
X8299097D01*
Y8978053D01*
X8297651D01*
Y8975161D01*
X8294758D01*
Y8972268D01*
X8293312D01*
Y8970822D01*
X8290419D01*
Y8967929D01*
X8287526D01*
Y8966482D01*
X8286080D01*
Y8963590D01*
X8283187D01*
Y8960697D01*
X8281740D01*
Y8959250D01*
X8277401D01*
Y8956358D01*
X8274508D01*
Y8954911D01*
X8273062D01*
Y8953465D01*
X8271616D01*
Y8952018D01*
X8270169D01*
Y8949126D01*
X8267277D01*
Y8947679D01*
X8264384D01*
Y8944787D01*
X8262937D01*
Y8943340D01*
X8260045D01*
Y8940447D01*
X8257152D01*
Y8937555D01*
X8255705D01*
Y8936108D01*
X8252813D01*
Y8933215D01*
X8248473D01*
Y8930322D01*
X8247027D01*
Y8928876D01*
X8244134D01*
Y8925983D01*
X8241242D01*
Y8924537D01*
X8239795D01*
Y8921644D01*
X8236902D01*
Y8920198D01*
X8235456D01*
Y8918752D01*
X8234010D01*
Y8917305D01*
X8232563D01*
Y8914412D01*
X8228224D01*
Y8912966D01*
X8225331D01*
Y8910073D01*
X8222438D01*
Y8908627D01*
X8220992D01*
Y8905734D01*
X8218099D01*
Y8902841D01*
X8216653D01*
Y8901395D01*
X8213760D01*
Y8899948D01*
X8212314D01*
Y8898502D01*
X8209421D01*
Y8895609D01*
X8206528D01*
Y8894163D01*
X8205082D01*
Y8891270D01*
X8202189D01*
Y8889824D01*
X8199296D01*
Y8888377D01*
X8197850D01*
Y8886931D01*
X8194957D01*
Y8884038D01*
X8193511D01*
Y8882592D01*
X8190618D01*
Y8879699D01*
X8187725D01*
Y8878253D01*
X8184833D01*
Y8876806D01*
X8183386D01*
Y8875360D01*
X8181940D01*
Y8872467D01*
X8179047D01*
Y8871021D01*
X8176154D01*
Y8868128D01*
X8171815D01*
Y8866682D01*
X8170368D01*
Y8863789D01*
X8167476D01*
Y8860896D01*
X8163137D01*
Y8859450D01*
X8160244D01*
Y8856557D01*
X8158798D01*
Y8855110D01*
X8154458D01*
Y8853664D01*
X8153012D01*
Y8852218D01*
X8151565D01*
Y8849325D01*
X8147226D01*
Y8847878D01*
X8144333D01*
Y8844986D01*
X8139994D01*
Y8843539D01*
X8137102D01*
Y8842093D01*
X8135655D01*
Y8840647D01*
X8132762D01*
Y8837754D01*
X8128423D01*
Y8836307D01*
X8124084D01*
Y8833415D01*
X8119745D01*
Y8831968D01*
X8116852D01*
Y8830522D01*
X8113959D01*
Y8829075D01*
X8109620D01*
Y8826183D01*
X8105281D01*
Y8824736D01*
X8100942D01*
Y8821843D01*
X8095156D01*
Y8820397D01*
X8089371D01*
Y8818951D01*
X8087924D01*
Y8817504D01*
X8082139D01*
Y8814612D01*
X8074907D01*
Y8813165D01*
X8064782D01*
Y8811719D01*
X8063336D01*
Y8810272D01*
X8035854D01*
Y8811719D01*
X8034408D01*
Y8813165D01*
X8028623D01*
Y8814612D01*
X8022837D01*
Y8817504D01*
X8018498D01*
Y8820397D01*
X8017051D01*
Y8821843D01*
X8014158D01*
Y8823290D01*
X8012712D01*
Y8826183D01*
X8009819D01*
Y8829075D01*
X8006927D01*
Y8837754D01*
X8005480D01*
Y8844986D01*
X8006927D01*
Y8855110D01*
X8009819D01*
Y8859450D01*
X8011266D01*
Y8860896D01*
X8012712D01*
Y8863789D01*
X8014158D01*
Y8866682D01*
X8015605D01*
Y8868128D01*
X8017051D01*
Y8871021D01*
X8018498D01*
Y8872467D01*
X8019944D01*
Y8873913D01*
X8021390D01*
Y8875360D01*
X8024283D01*
Y8878253D01*
X8025730D01*
Y8879699D01*
X8028623D01*
Y8882592D01*
X8030069D01*
Y8885485D01*
X8032962D01*
Y8886931D01*
X8035854D01*
Y8889824D01*
X8037301D01*
Y8891270D01*
X8041640D01*
Y8894163D01*
X8044533D01*
Y8897056D01*
X8047425D01*
Y8898502D01*
X8048872D01*
Y8901395D01*
X8053211D01*
Y8902841D01*
X8056104D01*
Y8905734D01*
X8058997D01*
Y8908627D01*
X8063336D01*
Y8910073D01*
X8064782D01*
Y8912966D01*
X8069121D01*
Y8914412D01*
X8072014D01*
Y8917305D01*
X8074907D01*
Y8920198D01*
X8079246D01*
Y8921644D01*
X8082139D01*
Y8924537D01*
X8086478D01*
Y8925983D01*
X8087924D01*
Y8927430D01*
X8090817D01*
Y8928876D01*
X8093710D01*
Y8931769D01*
X8098049D01*
Y8933215D01*
X8099495D01*
Y8936108D01*
X8105281D01*
Y8937555D01*
X8106727D01*
Y8939001D01*
X8108174D01*
Y8940447D01*
X8111067D01*
Y8943340D01*
X8116852D01*
Y8944787D01*
X8119745D01*
Y8946233D01*
X8121191D01*
Y8947679D01*
X8122638D01*
Y8949126D01*
X8126977D01*
Y8950572D01*
X8128423D01*
Y8952018D01*
X8132762D01*
Y8954911D01*
X8135655D01*
Y8956358D01*
X8139994D01*
Y8959250D01*
X8144333D01*
Y8960697D01*
X8148673D01*
Y8963590D01*
X8153012D01*
Y8966482D01*
X8157351D01*
Y8967929D01*
X8160244D01*
Y8970822D01*
X8164583D01*
Y8972268D01*
X8168922D01*
Y8973714D01*
X8170368D01*
Y8975161D01*
X8174708D01*
Y8978053D01*
X8179047D01*
Y8979500D01*
X8183386D01*
Y8982393D01*
X8187725D01*
Y8983839D01*
X8192064D01*
Y8985285D01*
X8193511D01*
Y8986732D01*
X8197850D01*
Y8989625D01*
X8202189D01*
Y8991071D01*
X8206528D01*
Y8993964D01*
X8213760D01*
Y8995410D01*
X8216653D01*
Y8996857D01*
X8218099D01*
Y8998303D01*
X8222438D01*
Y9001196D01*
X8228224D01*
Y9002642D01*
X8232563D01*
Y9005535D01*
X8238349D01*
Y9006981D01*
X8242688D01*
Y9008428D01*
X8244134D01*
Y9009874D01*
X8248473D01*
Y9012767D01*
X8255705D01*
Y9014213D01*
X8260045D01*
Y9017106D01*
X8265830D01*
Y9018552D01*
X8270169D01*
Y9019999D01*
X8271616D01*
Y9021445D01*
X8277401D01*
Y9022892D01*
X8278848D01*
Y9024338D01*
X8283187D01*
Y9025784D01*
X8290419D01*
Y9028677D01*
X8296204D01*
Y9030123D01*
X8300543D01*
Y9031570D01*
X8301990D01*
Y9033016D01*
X8309222D01*
Y9035909D01*
X8316454D01*
Y9037355D01*
X8322239D01*
Y9040248D01*
X8328025D01*
Y9041695D01*
X8329471D01*
Y9043141D01*
X8332364D01*
Y9044587D01*
X8336703D01*
Y9047480D01*
X8338150D01*
Y9048927D01*
X8341043D01*
Y9056158D01*
X8333810D01*
Y9054712D01*
X8330918D01*
Y9053266D01*
X8326578D01*
Y9051819D01*
X8320793D01*
Y9048927D01*
X8313561D01*
Y9047480D01*
X8307775D01*
Y9046034D01*
X8306329D01*
Y9044587D01*
X8301990D01*
Y9041695D01*
X8294758D01*
Y9040248D01*
X8288972D01*
Y9037355D01*
X8283187D01*
Y9035909D01*
X8277401D01*
Y9034462D01*
X8275955D01*
Y9033016D01*
X8271616D01*
Y9030123D01*
X8264384D01*
Y9028677D01*
X8260045D01*
Y9027231D01*
X8258598D01*
Y9025784D01*
X8252813D01*
Y9024338D01*
X8247027D01*
Y9021445D01*
X8239795D01*
Y9018552D01*
X8234010D01*
Y9017106D01*
X8228224D01*
Y9015660D01*
X8226778D01*
Y9014213D01*
X8218099D01*
Y9012767D01*
X8212314D01*
Y9011320D01*
X8210868D01*
Y9009874D01*
X8202189D01*
Y9006981D01*
X8171815D01*
Y9009874D01*
X8164583D01*
Y9012767D01*
X8160244D01*
Y9014213D01*
X8155905D01*
Y9017106D01*
X8153012D01*
Y9022892D01*
X8151565D01*
Y9028677D01*
X8139994D01*
Y9025784D01*
X8135655D01*
Y9024338D01*
X8132762D01*
Y9021445D01*
X8128423D01*
Y9018552D01*
X8125530D01*
Y9017106D01*
X8119745D01*
Y9015660D01*
X8118298D01*
Y9014213D01*
X8098049D01*
Y9028677D01*
X8099495D01*
Y9035909D01*
X8102388D01*
Y9043141D01*
X8105281D01*
Y9048927D01*
X8106727D01*
Y9056158D01*
X8108174D01*
Y9057605D01*
X8109620D01*
Y9064837D01*
X8105281D01*
Y9063390D01*
X8100942D01*
Y9060497D01*
X8098049D01*
Y9059051D01*
X8095156D01*
Y9056158D01*
X8093710D01*
Y9053266D01*
X8090817D01*
Y9051819D01*
X8089371D01*
Y9050373D01*
X8087924D01*
Y9048927D01*
X8086478D01*
Y9047480D01*
X8083585D01*
Y9044587D01*
X8082139D01*
Y9041695D01*
X8079246D01*
Y9040248D01*
X8074907D01*
Y9037355D01*
X8072014D01*
Y9035909D01*
X8070568D01*
Y9033016D01*
X8066228D01*
Y9030123D01*
X8063336D01*
Y9028677D01*
X8058997D01*
Y9025784D01*
X8056104D01*
Y9024338D01*
X8051765D01*
Y9021445D01*
X8047425D01*
Y9018552D01*
X8041640D01*
Y9017106D01*
X8017051D01*
Y9018552D01*
X8014158D01*
Y9021445D01*
X8017051D01*
Y9025784D01*
X8018498D01*
Y9030123D01*
X8019944D01*
Y9031570D01*
X8021390D01*
Y9035909D01*
X8024283D01*
Y9040248D01*
X8025730D01*
Y9043141D01*
X8028623D01*
Y9047480D01*
X8030069D01*
Y9051819D01*
X8032962D01*
Y9056158D01*
X8035854D01*
Y9060497D01*
X8037301D01*
Y9063390D01*
X8038747D01*
Y9064837D01*
X8040193D01*
Y9067730D01*
X8041640D01*
Y9073515D01*
X8044533D01*
Y9082193D01*
X8037301D01*
Y9079301D01*
X8032962D01*
Y9077854D01*
X8031515D01*
Y9076408D01*
X8030069D01*
Y9074962D01*
X8027176D01*
Y9073515D01*
X8025730D01*
Y9072069D01*
X8024283D01*
Y9070622D01*
X8021390D01*
Y9067730D01*
X8017051D01*
Y9066283D01*
X8015605D01*
Y9064837D01*
X8014158D01*
Y9063390D01*
X8012712D01*
Y9061944D01*
X8009819D01*
Y9060497D01*
X8006927D01*
Y9059051D01*
X8005480D01*
Y9056158D01*
X8002587D01*
Y9053266D01*
X7998248D01*
Y9051819D01*
X7995355D01*
Y9048927D01*
X7993909D01*
Y9047480D01*
X7989570D01*
Y9044587D01*
X7986677D01*
Y9041695D01*
X7982338D01*
Y9040248D01*
X7979445D01*
Y9037355D01*
X7977999D01*
Y9035909D01*
X7973660D01*
Y9034462D01*
X7972213D01*
Y9033016D01*
X7970767D01*
Y9030123D01*
X7967874D01*
Y9028677D01*
X7963535D01*
Y9025784D01*
X7960642D01*
Y9024338D01*
X7959196D01*
Y9022892D01*
X7956303D01*
Y9021445D01*
X7954857D01*
Y9018552D01*
X7951964D01*
Y9017106D01*
X7947625D01*
Y9014213D01*
X7944732D01*
Y9012767D01*
X7940393D01*
Y9009874D01*
X7937500D01*
Y9006981D01*
X7933161D01*
Y9005535D01*
X7931714D01*
Y9004088D01*
X7930268D01*
Y9002642D01*
X7925929D01*
Y9001196D01*
X7924483D01*
Y8999749D01*
X7923036D01*
Y8998303D01*
X7918697D01*
Y8995410D01*
X7912911D01*
Y8993964D01*
X7905679D01*
Y8991071D01*
X7879644D01*
Y8993964D01*
X7876752D01*
Y8995410D01*
X7872413D01*
Y8998303D01*
X7870966D01*
Y9002642D01*
X7868073D01*
Y9006981D01*
X7866627D01*
Y9015660D01*
X7865180D01*
Y9018552D01*
X7863734D01*
Y9025784D01*
X7855056D01*
Y9024338D01*
X7850717D01*
Y9022892D01*
X7849270D01*
Y9021445D01*
X7847824D01*
Y9018552D01*
X7843485D01*
Y9017106D01*
X7840592D01*
Y9015660D01*
X7839145D01*
Y9014213D01*
X7836253D01*
Y9012767D01*
X7831913D01*
Y9009874D01*
X7829021D01*
Y9006981D01*
X7824682D01*
Y9005535D01*
X7820342D01*
Y9002642D01*
X7814557D01*
Y9001196D01*
X7810218D01*
Y8998303D01*
X7805878D01*
Y8995410D01*
X7801539D01*
Y8993964D01*
X7797200D01*
Y8991071D01*
X7791415D01*
Y8989625D01*
X7787075D01*
Y8986732D01*
X7781290D01*
Y8983839D01*
X7775504D01*
Y8982393D01*
X7769719D01*
Y8980946D01*
X7768273D01*
Y8979500D01*
X7762487D01*
Y8978053D01*
X7737898D01*
Y8979500D01*
X7732113D01*
Y8982393D01*
X7729220D01*
Y8983839D01*
X7724881D01*
Y8986732D01*
X7721988D01*
Y8989625D01*
X7720542D01*
Y8991071D01*
X7719095D01*
Y8993964D01*
X7717649D01*
Y8995410D01*
X7714756D01*
Y9001196D01*
X7713310D01*
Y9011320D01*
X7711863D01*
Y9012767D01*
X7710417D01*
Y9024338D01*
X7704631D01*
Y9022892D01*
X7703185D01*
Y9021445D01*
X7701738D01*
Y9018552D01*
X7698846D01*
Y9017106D01*
X7697399D01*
Y9014213D01*
X7694507D01*
Y9009874D01*
X7691614D01*
Y9006981D01*
X7690167D01*
Y9005535D01*
X7687275D01*
Y9001196D01*
X7685828D01*
Y8998303D01*
X7682935D01*
Y8995410D01*
X7680043D01*
Y8993964D01*
X7678596D01*
Y8991071D01*
X7675703D01*
Y8989625D01*
X7674257D01*
Y8986732D01*
X7671364D01*
Y8983839D01*
X7667025D01*
Y8982393D01*
X7664132D01*
Y8980946D01*
X7662686D01*
Y8979500D01*
X7658347D01*
Y8978053D01*
X7652561D01*
Y8976607D01*
X7651115D01*
Y8975161D01*
X7630865D01*
Y8976607D01*
X7629419D01*
Y8978053D01*
X7626526D01*
Y8979500D01*
X7625080D01*
Y8982393D01*
X7622187D01*
Y8993964D01*
X7620741D01*
Y9006981D01*
X7610616D01*
Y9005535D01*
X7606277D01*
Y9002642D01*
X7604830D01*
Y9001196D01*
X7600491D01*
Y8999749D01*
X7599045D01*
Y8998303D01*
X7597598D01*
Y8995410D01*
X7593259D01*
Y8993964D01*
X7590367D01*
Y8991071D01*
X7586028D01*
Y8989625D01*
X7581688D01*
Y8986732D01*
X7575903D01*
Y8983839D01*
X7571563D01*
Y8982393D01*
X7567224D01*
Y8979500D01*
X7562885D01*
Y8978053D01*
X7558546D01*
Y8976607D01*
X7557100D01*
Y8975161D01*
X7549868D01*
Y8973714D01*
X7548421D01*
Y8972268D01*
X7516601D01*
Y8973714D01*
X7515154D01*
Y8975161D01*
X7510815D01*
Y8976607D01*
X7509369D01*
Y8978053D01*
X7506476D01*
Y8979500D01*
X7505030D01*
Y8983839D01*
X7502137D01*
Y8991071D01*
X7499244D01*
Y9001196D01*
X7490566D01*
Y8999749D01*
X7489119D01*
Y8998303D01*
X7483334D01*
Y8995410D01*
X7476102D01*
Y8993964D01*
X7470316D01*
Y8991071D01*
X7463084D01*
Y8989625D01*
X7455853D01*
Y8986732D01*
X7448620D01*
Y8983839D01*
X7439942D01*
Y8982393D01*
X7429818D01*
Y8979500D01*
X7418246D01*
Y8978053D01*
X7397997D01*
Y8976607D01*
X7395104D01*
Y8975161D01*
X7383533D01*
Y8967929D01*
X7387872D01*
Y8966482D01*
X7390765D01*
Y8963590D01*
X7395104D01*
Y8960697D01*
X7399443D01*
Y8959250D01*
X7402336D01*
Y8956358D01*
X7406675D01*
Y8954911D01*
X7411014D01*
Y8952018D01*
X7415353D01*
Y8950572D01*
X7416800D01*
Y8949126D01*
X7418246D01*
Y8947679D01*
X7422585D01*
Y8946233D01*
X7424032D01*
Y8944787D01*
X7428371D01*
Y8943340D01*
X7429818D01*
Y8940447D01*
X7435603D01*
Y8937555D01*
X7439942D01*
Y8936108D01*
X7441388D01*
Y8933215D01*
X7447174D01*
Y8931769D01*
X7448620D01*
Y8928876D01*
X7452960D01*
Y8925983D01*
X7458745D01*
Y8924537D01*
X7460192D01*
Y8921644D01*
X7464531D01*
Y8920198D01*
X7467423D01*
Y8917305D01*
X7471763D01*
Y8914412D01*
X7474655D01*
Y8912966D01*
X7478995D01*
Y8910073D01*
X7481888D01*
Y8908627D01*
X7486227D01*
Y8905734D01*
X7489119D01*
Y8904287D01*
X7490566D01*
Y8902841D01*
X7493458D01*
Y8901395D01*
X7494905D01*
Y8899948D01*
X7496351D01*
Y8898502D01*
X7499244D01*
Y8897056D01*
X7502137D01*
Y8894163D01*
X7506476D01*
Y8891270D01*
X7509369D01*
Y8889824D01*
X7513708D01*
Y8886931D01*
X7516601D01*
Y8885485D01*
X7520940D01*
Y8882592D01*
X7522386D01*
Y8881145D01*
X7523833D01*
Y8879699D01*
X7528172D01*
Y8878253D01*
X7529618D01*
Y8875360D01*
X7533957D01*
Y8873913D01*
X7535404D01*
Y8872467D01*
X7536850D01*
Y8871021D01*
X7539743D01*
Y8868128D01*
X7544082D01*
Y8866682D01*
X7545528D01*
Y8863789D01*
X7548421D01*
Y8862342D01*
X7551314D01*
Y8860896D01*
X7552760D01*
Y8859450D01*
X7555653D01*
Y8856557D01*
X7558546D01*
Y8855110D01*
X7559992D01*
Y8853664D01*
X7562885D01*
Y8852218D01*
X7564332D01*
Y8849325D01*
X7562885D01*
Y8844986D01*
X7559992D01*
Y8843539D01*
X7555653D01*
Y8840647D01*
X7551314D01*
Y8837754D01*
X7545528D01*
Y8836307D01*
X7532511D01*
Y8837754D01*
X7525279D01*
Y8840647D01*
X7520940D01*
Y8843539D01*
X7518047D01*
Y8844986D01*
X7513708D01*
Y8847878D01*
X7509369D01*
Y8849325D01*
X7506476D01*
Y8852218D01*
X7502137D01*
Y8855110D01*
X7499244D01*
Y8856557D01*
X7494905D01*
Y8859450D01*
X7493458D01*
Y8860896D01*
X7487673D01*
Y8863789D01*
X7486227D01*
Y8866682D01*
X7481888D01*
Y8868128D01*
X7478995D01*
Y8871021D01*
X7476102D01*
Y8872467D01*
X7471763D01*
Y8875360D01*
X7468870D01*
Y8876806D01*
X7467423D01*
Y8878253D01*
X7464531D01*
Y8879699D01*
X7463084D01*
Y8881145D01*
X7461638D01*
Y8882592D01*
X7457299D01*
Y8884038D01*
X7455853D01*
Y8885485D01*
X7454406D01*
Y8886931D01*
X7451513D01*
Y8889824D01*
X7447174D01*
Y8891270D01*
X7444281D01*
Y8894163D01*
X7439942D01*
Y8895609D01*
X7438496D01*
Y8897056D01*
X7437049D01*
Y8898502D01*
X7432710D01*
Y8901395D01*
X7429818D01*
Y8902841D01*
X7425478D01*
Y8905734D01*
X7422585D01*
Y8907180D01*
X7421139D01*
Y8908627D01*
X7418246D01*
Y8910073D01*
X7413907D01*
Y8912966D01*
X7411014D01*
Y8914412D01*
X7406675D01*
Y8917305D01*
X7405229D01*
Y8918752D01*
X7402336D01*
Y8920198D01*
X7399443D01*
Y8921644D01*
X7395104D01*
Y8924537D01*
X7393658D01*
Y8925983D01*
X7387872D01*
Y8928876D01*
X7383533D01*
Y8931769D01*
X7380640D01*
Y8933215D01*
X7376301D01*
Y8936108D01*
X7371962D01*
Y8937555D01*
X7367623D01*
Y8940447D01*
X7364730D01*
Y8941894D01*
X7363283D01*
Y8943340D01*
X7360391D01*
Y8944787D01*
X7356052D01*
Y8947679D01*
X7351712D01*
Y8949126D01*
X7347373D01*
Y8952018D01*
X7341588D01*
Y8954911D01*
X7337248D01*
Y8956358D01*
X7332909D01*
Y8959250D01*
X7328570D01*
Y8960697D01*
X7324231D01*
Y8963590D01*
X7318445D01*
Y8966482D01*
X7314106D01*
Y8967929D01*
X7309767D01*
Y8970822D01*
X7303982D01*
Y8972268D01*
X7298196D01*
Y8975161D01*
X7293857D01*
Y8976607D01*
X7290964D01*
Y8978053D01*
X7286625D01*
Y8979500D01*
X7279393D01*
Y8982393D01*
X7275054D01*
Y8983839D01*
X7267822D01*
Y8986732D01*
X7260590D01*
Y8989625D01*
X7253358D01*
Y8991071D01*
X7246126D01*
Y8993964D01*
X7237448D01*
Y8995410D01*
X7230216D01*
Y8998303D01*
X7221537D01*
Y9001196D01*
X7214305D01*
Y9002642D01*
X7204181D01*
Y9004088D01*
X7202734D01*
Y9005535D01*
X7192610D01*
Y9006981D01*
X7166575D01*
Y9005535D01*
X7163682D01*
Y9002642D01*
X7159343D01*
Y9001196D01*
X7156450D01*
Y8998303D01*
X7155003D01*
Y8995410D01*
X7152111D01*
Y8993964D01*
X7149218D01*
Y8991071D01*
X7147772D01*
Y8989625D01*
X7144879D01*
Y8988178D01*
X7143433D01*
Y8986732D01*
X7140540D01*
Y8983839D01*
X7137647D01*
Y8982393D01*
X7136200D01*
Y8979500D01*
X7133308D01*
Y8978053D01*
X7131861D01*
Y8975161D01*
X7128968D01*
Y8972268D01*
X7126076D01*
Y8970822D01*
X7124629D01*
Y8967929D01*
X7121737D01*
Y8966482D01*
X7120290D01*
Y8963590D01*
X7117397D01*
Y8960697D01*
X7113058D01*
Y8959250D01*
X7110165D01*
Y8956358D01*
X7108719D01*
Y8954911D01*
X7105826D01*
Y8952018D01*
X7100041D01*
Y8949126D01*
X7075452D01*
Y8950572D01*
X7074006D01*
Y8952018D01*
X7069667D01*
Y8966482D01*
X7071113D01*
Y8967929D01*
X7072559D01*
Y8970822D01*
X7075452D01*
Y8972268D01*
X7078345D01*
Y8975161D01*
X7079791D01*
Y8978053D01*
X7082684D01*
Y8979500D01*
X7084130D01*
Y8982393D01*
X7087023D01*
Y8983839D01*
X7089916D01*
Y8986732D01*
X7091362D01*
Y8989625D01*
X7094255D01*
Y8991071D01*
X7095702D01*
Y8992517D01*
X7098594D01*
Y8993964D01*
X7100041D01*
Y8995410D01*
X7101487D01*
Y8996857D01*
X7102933D01*
Y8998303D01*
X7105826D01*
Y9001196D01*
X7107273D01*
Y9002642D01*
X7110165D01*
Y9005535D01*
X7113058D01*
Y9006981D01*
X7114505D01*
Y9009874D01*
X7117397D01*
Y9012767D01*
X7118844D01*
Y9014213D01*
X7121737D01*
Y9017106D01*
X7124629D01*
Y9018552D01*
X7126076D01*
Y9019999D01*
X7127522D01*
Y9021445D01*
X7130415D01*
Y9024338D01*
X7133308D01*
Y9025784D01*
X7136200D01*
Y9028677D01*
X7137647D01*
Y9030123D01*
X7139093D01*
Y9031570D01*
X7140540D01*
Y9033016D01*
X7143433D01*
Y9035909D01*
X7144879D01*
Y9037355D01*
X7147772D01*
Y9040248D01*
X7152111D01*
Y9043141D01*
X7153557D01*
Y9044587D01*
X7156450D01*
Y9047480D01*
X7159343D01*
Y9048927D01*
X7160789D01*
Y9051819D01*
X7163682D01*
Y9054712D01*
X7166575D01*
Y9056158D01*
X7169468D01*
Y9057605D01*
X7170914D01*
Y9059051D01*
X7172360D01*
Y9060497D01*
X7175253D01*
Y9063390D01*
X7178146D01*
Y9066283D01*
X7179592D01*
Y9067730D01*
X7182485D01*
Y9070622D01*
X7186824D01*
Y9072069D01*
X7188270D01*
Y9073515D01*
X7189717D01*
Y9074962D01*
X7191163D01*
Y9077854D01*
X7194056D01*
Y9079301D01*
X7195503D01*
Y9082193D01*
X7198395D01*
Y9083640D01*
X7201288D01*
Y9085086D01*
X7202734D01*
Y9086532D01*
X7205627D01*
Y9089425D01*
X7207073D01*
Y9090872D01*
X7209966D01*
Y9093765D01*
X7212859D01*
Y9095211D01*
X7215752D01*
Y9096657D01*
X7217198D01*
Y9098104D01*
X7218645D01*
Y9100997D01*
X7221537D01*
Y9102443D01*
X7224430D01*
Y9105336D01*
X7227323D01*
Y9106782D01*
X7230216D01*
Y9109675D01*
X7233108D01*
Y9112568D01*
X7236001D01*
Y9114014D01*
X7238894D01*
Y9115460D01*
X7240340D01*
Y9116907D01*
X7241787D01*
Y9118353D01*
X7244680D01*
Y9121246D01*
X7247572D01*
Y9124139D01*
X7251912D01*
Y9125585D01*
X7253358D01*
Y9128478D01*
X7256251D01*
Y9129924D01*
X7259143D01*
Y9131371D01*
X7260590D01*
Y9132817D01*
X7263483D01*
Y9135710D01*
X7264929D01*
Y9137156D01*
X7267822D01*
Y9140049D01*
X7272161D01*
Y9141495D01*
X7275054D01*
Y9144388D01*
X7276500D01*
Y9147281D01*
X7280839D01*
Y9148727D01*
X7283732D01*
Y9151620D01*
X7286625D01*
Y9153067D01*
X7288071D01*
Y9154513D01*
X7290964D01*
Y9155959D01*
X7293857D01*
Y9158852D01*
X7295303D01*
Y9160298D01*
X7298196D01*
Y9163191D01*
X7302535D01*
Y9164638D01*
X7303982D01*
Y9166084D01*
X7305428D01*
Y9167530D01*
X7306874D01*
Y9170423D01*
X7311213D01*
Y9171870D01*
X7314106D01*
Y9174762D01*
X7316999D01*
Y9176209D01*
X7318445D01*
Y9177655D01*
X7321338D01*
Y9179102D01*
X7324231D01*
Y9181994D01*
X7325678D01*
Y9183441D01*
X7330017D01*
Y9186333D01*
X7332909D01*
Y9187780D01*
X7334356D01*
Y9189226D01*
X7337248D01*
Y9190672D01*
X7340141D01*
Y9193565D01*
X7347373D01*
Y9195012D01*
X7370515D01*
Y9193565D01*
D02*
G37*
G36*
X7859257Y8716868D02*
X7887021D01*
Y8715325D01*
X7888563D01*
Y8716868D01*
X7890105D01*
Y8715325D01*
X7910157D01*
Y8713783D01*
X7924039D01*
Y8712240D01*
X7934836D01*
Y8710698D01*
X7944091D01*
Y8709155D01*
X7956430D01*
Y8707613D01*
X7965684D01*
Y8706070D01*
X7974939D01*
Y8704528D01*
X7981109D01*
Y8702986D01*
X7987278D01*
Y8701443D01*
X7996533D01*
Y8699901D01*
X8002703D01*
Y8698358D01*
X8010415D01*
Y8696816D01*
X8015042D01*
Y8695273D01*
X8019670D01*
Y8693731D01*
X8027382D01*
Y8692189D01*
X8033551D01*
Y8690646D01*
X8038178D01*
Y8689104D01*
X8042806D01*
Y8687561D01*
X8048976D01*
Y8686019D01*
X8053603D01*
Y8684476D01*
X8058230D01*
Y8682934D01*
X8062857D01*
Y8681392D01*
X8065942D01*
Y8679849D01*
X8072112D01*
Y8678307D01*
X8076739D01*
Y8676764D01*
X8081367D01*
Y8675222D01*
X8084451D01*
Y8673679D01*
X8087536D01*
Y8672137D01*
X8092164D01*
Y8670595D01*
X8096791D01*
Y8669052D01*
X8101418D01*
Y8667510D01*
X8102961D01*
Y8665967D01*
X8107588D01*
Y8664425D01*
X8110673D01*
Y8662882D01*
X8115300D01*
Y8661340D01*
X8118385D01*
Y8659798D01*
X8121470D01*
Y8658255D01*
X8124554D01*
Y8656713D01*
X8129182D01*
Y8655170D01*
X8132267D01*
Y8653628D01*
X8133809D01*
Y8652085D01*
X8136894D01*
Y8650543D01*
X8141521D01*
Y8649000D01*
X8144606D01*
Y8647458D01*
X8147691D01*
Y8645916D01*
X8149233D01*
Y8644373D01*
X8152318D01*
Y8642831D01*
X8155403D01*
Y8641288D01*
X8158488D01*
Y8639746D01*
X8161573D01*
Y8638203D01*
X8163115D01*
Y8636661D01*
X8166200D01*
Y8635119D01*
X8169285D01*
Y8633576D01*
X8172370D01*
Y8632034D01*
X8173912D01*
Y8630492D01*
X8176997D01*
Y8628949D01*
X8178540D01*
Y8627406D01*
X8181624D01*
Y8625864D01*
X8184709D01*
Y8624322D01*
X8186252D01*
Y8622779D01*
X8187794D01*
Y8621237D01*
X8190879D01*
Y8619694D01*
X8192422D01*
Y8618152D01*
X8195506D01*
Y8616610D01*
X8197049D01*
Y8615067D01*
X8198591D01*
Y8613525D01*
X8201676D01*
Y8611982D01*
X8204761D01*
Y8610440D01*
X8206303D01*
Y8608897D01*
X8207846D01*
Y8607355D01*
X8209388D01*
Y8605813D01*
X8212473D01*
Y8604270D01*
X8214016D01*
Y8602728D01*
X8215558D01*
Y8601185D01*
X8217100D01*
Y8599643D01*
X8220185D01*
Y8598100D01*
X8221728D01*
Y8596558D01*
X8223270D01*
Y8595016D01*
X8224813D01*
Y8593473D01*
X8226355D01*
Y8591931D01*
X8229440D01*
Y8590388D01*
X8230982D01*
Y8588846D01*
X8232525D01*
Y8587303D01*
X8234067D01*
Y8585761D01*
X8235609D01*
Y8584219D01*
X8237152D01*
Y8582676D01*
X8238694D01*
Y8581134D01*
X8240237D01*
Y8579591D01*
X8241779D01*
Y8578049D01*
X8243322D01*
Y8576506D01*
X8244864D01*
Y8574964D01*
X8246406D01*
Y8573422D01*
X8247949D01*
Y8571879D01*
X8249491D01*
Y8570337D01*
X8251034D01*
Y8568794D01*
X8252576D01*
Y8567252D01*
X8254119D01*
Y8565709D01*
X8255661D01*
Y8564167D01*
X8257203D01*
Y8562624D01*
X8258746D01*
Y8561082D01*
X8260288D01*
Y8559540D01*
X8261831D01*
Y8557997D01*
X8263373D01*
Y8554912D01*
X8264916D01*
Y8553370D01*
X8266458D01*
Y8551827D01*
X8268000D01*
Y8550285D01*
X8269543D01*
Y8547200D01*
X8271085D01*
Y8545658D01*
X8272628D01*
Y8544115D01*
X8274170D01*
Y8541030D01*
X8275713D01*
Y8539488D01*
X8277255D01*
Y8537946D01*
X8278798D01*
Y8534861D01*
X8280340D01*
Y8533318D01*
X8281882D01*
Y8531776D01*
X8283425D01*
Y8528691D01*
X8284967D01*
Y8527149D01*
X8286510D01*
Y8524064D01*
X8288052D01*
Y8520979D01*
X8289595D01*
Y8517894D01*
X8291137D01*
Y8516352D01*
X8292679D01*
Y8513267D01*
X8294222D01*
Y8510182D01*
X8295764D01*
Y8507097D01*
X8297307D01*
Y8504012D01*
X8298849D01*
Y8500927D01*
X8300392D01*
Y8497843D01*
X8301934D01*
Y8493215D01*
X8303476D01*
Y8490130D01*
X8305019D01*
Y8487046D01*
X8306561D01*
Y8482418D01*
X8308104D01*
Y8477791D01*
X8309646D01*
Y8471621D01*
X8311189D01*
Y8466994D01*
X8312731D01*
Y8460824D01*
X8314273D01*
Y8454654D01*
X8315816D01*
Y8445400D01*
X8317358D01*
Y8429976D01*
X8318901D01*
Y8402212D01*
X8317358D01*
Y8386788D01*
X8315816D01*
Y8377533D01*
X8314273D01*
Y8369821D01*
X8312731D01*
Y8365194D01*
X8311189D01*
Y8360566D01*
X8309646D01*
Y8354397D01*
X8308104D01*
Y8349769D01*
X8306561D01*
Y8345142D01*
X8305019D01*
Y8342057D01*
X8303476D01*
Y8338972D01*
X8301934D01*
Y8334345D01*
X8300392D01*
Y8331260D01*
X8298849D01*
Y8328175D01*
X8297307D01*
Y8325091D01*
X8295764D01*
Y8322006D01*
X8294222D01*
Y8318921D01*
X8292679D01*
Y8315836D01*
X8291137D01*
Y8314294D01*
X8289595D01*
Y8311209D01*
X8288052D01*
Y8308124D01*
X8286510D01*
Y8306581D01*
X8284967D01*
Y8303496D01*
X8283425D01*
Y8300412D01*
X8281882D01*
Y8298869D01*
X8280340D01*
Y8297327D01*
X8278798D01*
Y8294242D01*
X8277255D01*
Y8292699D01*
X8275713D01*
Y8291157D01*
X8274170D01*
Y8288072D01*
X8272628D01*
Y8286530D01*
X8271085D01*
Y8284987D01*
X8269543D01*
Y8281902D01*
X8268000D01*
Y8280360D01*
X8266458D01*
Y8278818D01*
X8264916D01*
Y8277275D01*
X8263373D01*
Y8274190D01*
X8261831D01*
Y8272648D01*
X8260288D01*
Y8271105D01*
X8258746D01*
Y8269563D01*
X8257203D01*
Y8268021D01*
X8255661D01*
Y8266478D01*
X8254119D01*
Y8264936D01*
X8252576D01*
Y8263393D01*
X8251034D01*
Y8261851D01*
X8249491D01*
Y8260308D01*
X8247949D01*
Y8258766D01*
X8246406D01*
Y8257224D01*
X8244864D01*
Y8255681D01*
X8243322D01*
Y8254139D01*
X8241779D01*
Y8252596D01*
X8240237D01*
Y8251054D01*
X8238694D01*
Y8249511D01*
X8237152D01*
Y8247969D01*
X8235609D01*
Y8246426D01*
X8234067D01*
Y8244884D01*
X8232525D01*
Y8243342D01*
X8230982D01*
Y8241799D01*
X8227897D01*
Y8240257D01*
X8226355D01*
Y8238715D01*
X8224813D01*
Y8237172D01*
X8223270D01*
Y8235629D01*
X8221728D01*
Y8234087D01*
X8220185D01*
Y8232545D01*
X8217100D01*
Y8231002D01*
X8215558D01*
Y8229460D01*
X8214016D01*
Y8227918D01*
X8210931D01*
Y8226375D01*
X8209388D01*
Y8224833D01*
X8207846D01*
Y8223290D01*
X8206303D01*
Y8221748D01*
X8203219D01*
Y8220205D01*
X8201676D01*
Y8218663D01*
X8198591D01*
Y8217120D01*
X8197049D01*
Y8215578D01*
X8195506D01*
Y8214036D01*
X8192422D01*
Y8212493D01*
X8190879D01*
Y8210951D01*
X8187794D01*
Y8209408D01*
X8186252D01*
Y8207866D01*
X8183167D01*
Y8206323D01*
X8181624D01*
Y8204781D01*
X8178540D01*
Y8203239D01*
X8175455D01*
Y8201696D01*
X8173912D01*
Y8200154D01*
X8170827D01*
Y8198611D01*
X8167743D01*
Y8197069D01*
X8164658D01*
Y8195526D01*
X8163115D01*
Y8193984D01*
X8161573D01*
Y8192442D01*
X8158488D01*
Y8190899D01*
X8155403D01*
Y8189357D01*
X8152318D01*
Y8187814D01*
X8149233D01*
Y8186272D01*
X8146149D01*
Y8184729D01*
X8143064D01*
Y8183187D01*
X8139979D01*
Y8181645D01*
X8136894D01*
Y8180102D01*
X8133809D01*
Y8178560D01*
X8132267D01*
Y8177017D01*
X8127640D01*
Y8175475D01*
X8124554D01*
Y8173932D01*
X8121470D01*
Y8172390D01*
X8118385D01*
Y8170848D01*
X8115300D01*
Y8169305D01*
X8110673D01*
Y8167763D01*
X8106046D01*
Y8166220D01*
X8102961D01*
Y8164678D01*
X8099876D01*
Y8163135D01*
X8096791D01*
Y8161593D01*
X8092164D01*
Y8160050D01*
X8087536D01*
Y8158508D01*
X8084451D01*
Y8156966D01*
X8079824D01*
Y8155423D01*
X8076739D01*
Y8153881D01*
X8072112D01*
Y8152338D01*
X8065942D01*
Y8150796D01*
X8062857D01*
Y8149253D01*
X8058230D01*
Y8147711D01*
X8053603D01*
Y8146169D01*
X8047433D01*
Y8144626D01*
X8042806D01*
Y8143084D01*
X8038178D01*
Y8141542D01*
X8033551D01*
Y8139999D01*
X8027382D01*
Y8138456D01*
X8019670D01*
Y8136914D01*
X8015042D01*
Y8135372D01*
X8010415D01*
Y8133829D01*
X8002703D01*
Y8132287D01*
X7994991D01*
Y8130744D01*
X7987278D01*
Y8129202D01*
X7981109D01*
Y8127660D01*
X7973397D01*
Y8126117D01*
X7964142D01*
Y8124575D01*
X7953345D01*
Y8123032D01*
X7942548D01*
Y8121490D01*
X7934836D01*
Y8119947D01*
X7922496D01*
Y8118405D01*
X7908615D01*
Y8116863D01*
X7888563D01*
Y8115320D01*
X7859257D01*
Y8113778D01*
X7803729D01*
Y8115320D01*
X7802187D01*
Y8113778D01*
X7800645D01*
Y8115320D01*
X7774423D01*
Y8116863D01*
X7752829D01*
Y8118405D01*
X7738947D01*
Y8119947D01*
X7728150D01*
Y8121490D01*
X7718896D01*
Y8123032D01*
X7706556D01*
Y8124575D01*
X7697302D01*
Y8126117D01*
X7688047D01*
Y8127660D01*
X7680335D01*
Y8129202D01*
X7675708D01*
Y8130744D01*
X7666453D01*
Y8132287D01*
X7658741D01*
Y8133829D01*
X7652571D01*
Y8135372D01*
X7647944D01*
Y8136914D01*
X7641774D01*
Y8138456D01*
X7635604D01*
Y8139999D01*
X7629435D01*
Y8141542D01*
X7623265D01*
Y8143084D01*
X7618638D01*
Y8144626D01*
X7614011D01*
Y8146169D01*
X7607841D01*
Y8147711D01*
X7603214D01*
Y8149253D01*
X7598586D01*
Y8150796D01*
X7595501D01*
Y8152338D01*
X7590874D01*
Y8153881D01*
X7586247D01*
Y8155423D01*
X7581620D01*
Y8156966D01*
X7578535D01*
Y8158508D01*
X7573907D01*
Y8160050D01*
X7570823D01*
Y8161593D01*
X7566195D01*
Y8163135D01*
X7561568D01*
Y8164678D01*
X7558483D01*
Y8166220D01*
X7555398D01*
Y8167763D01*
X7552314D01*
Y8169305D01*
X7547686D01*
Y8170848D01*
X7544601D01*
Y8172390D01*
X7541517D01*
Y8173932D01*
X7538432D01*
Y8175475D01*
X7533804D01*
Y8177017D01*
X7530720D01*
Y8178560D01*
X7527635D01*
Y8180102D01*
X7524550D01*
Y8181645D01*
X7521465D01*
Y8183187D01*
X7518380D01*
Y8184729D01*
X7515295D01*
Y8186272D01*
X7513753D01*
Y8187814D01*
X7510668D01*
Y8189357D01*
X7507583D01*
Y8190899D01*
X7504498D01*
Y8192442D01*
X7501413D01*
Y8193984D01*
X7499871D01*
Y8195526D01*
X7496786D01*
Y8197069D01*
X7493701D01*
Y8198611D01*
X7490616D01*
Y8200154D01*
X7489074D01*
Y8201696D01*
X7485989D01*
Y8203239D01*
X7484447D01*
Y8204781D01*
X7481362D01*
Y8206323D01*
X7478277D01*
Y8207866D01*
X7476734D01*
Y8209408D01*
X7473650D01*
Y8210951D01*
X7472107D01*
Y8212493D01*
X7469022D01*
Y8214036D01*
X7467480D01*
Y8215578D01*
X7464395D01*
Y8217120D01*
X7462852D01*
Y8218663D01*
X7461310D01*
Y8220205D01*
X7458225D01*
Y8221748D01*
X7456683D01*
Y8223290D01*
X7455141D01*
Y8224833D01*
X7452055D01*
Y8226375D01*
X7450513D01*
Y8227918D01*
X7448971D01*
Y8229460D01*
X7445886D01*
Y8231002D01*
X7444344D01*
Y8232545D01*
X7442801D01*
Y8234087D01*
X7441259D01*
Y8235629D01*
X7438174D01*
Y8237172D01*
X7436631D01*
Y8238715D01*
X7435089D01*
Y8240257D01*
X7433546D01*
Y8241799D01*
X7432004D01*
Y8243342D01*
X7430462D01*
Y8244884D01*
X7428919D01*
Y8246426D01*
X7427377D01*
Y8247969D01*
X7424292D01*
Y8249511D01*
X7422749D01*
Y8251054D01*
X7421207D01*
Y8252596D01*
X7419665D01*
Y8255681D01*
X7416580D01*
Y8257224D01*
X7415037D01*
Y8258766D01*
X7413495D01*
Y8260308D01*
X7411952D01*
Y8261851D01*
X7410410D01*
Y8263393D01*
X7408868D01*
Y8264936D01*
X7407325D01*
Y8268021D01*
X7405783D01*
Y8269563D01*
X7404240D01*
Y8271105D01*
X7402698D01*
Y8272648D01*
X7401155D01*
Y8274190D01*
X7399613D01*
Y8275733D01*
X7398071D01*
Y8278818D01*
X7396528D01*
Y8280360D01*
X7394986D01*
Y8281902D01*
X7393443D01*
Y8283445D01*
X7391901D01*
Y8284987D01*
X7390358D01*
Y8288072D01*
X7388816D01*
Y8289615D01*
X7387274D01*
Y8291157D01*
X7385731D01*
Y8294242D01*
X7384189D01*
Y8295784D01*
X7382646D01*
Y8298869D01*
X7381104D01*
Y8300412D01*
X7379561D01*
Y8301954D01*
X7378019D01*
Y8305039D01*
X7376476D01*
Y8308124D01*
X7374934D01*
Y8309666D01*
X7373392D01*
Y8312751D01*
X7371849D01*
Y8314294D01*
X7370307D01*
Y8318921D01*
X7368764D01*
Y8322006D01*
X7367222D01*
Y8323548D01*
X7365679D01*
Y8326633D01*
X7364137D01*
Y8329718D01*
X7362595D01*
Y8334345D01*
X7361052D01*
Y8337430D01*
X7359510D01*
Y8340515D01*
X7357968D01*
Y8343600D01*
X7356425D01*
Y8348227D01*
X7354882D01*
Y8354397D01*
X7353340D01*
Y8357481D01*
X7351798D01*
Y8362109D01*
X7350255D01*
Y8368278D01*
X7348713D01*
Y8374448D01*
X7347170D01*
Y8382160D01*
X7345628D01*
Y8394500D01*
X7344086D01*
Y8437688D01*
X7345628D01*
Y8450027D01*
X7347170D01*
Y8457739D01*
X7348713D01*
Y8463909D01*
X7350255D01*
Y8470079D01*
X7351798D01*
Y8474706D01*
X7353340D01*
Y8479333D01*
X7354882D01*
Y8483961D01*
X7356425D01*
Y8488588D01*
X7357968D01*
Y8491673D01*
X7359510D01*
Y8494758D01*
X7361052D01*
Y8499385D01*
X7362595D01*
Y8502470D01*
X7364137D01*
Y8505555D01*
X7365679D01*
Y8508640D01*
X7367222D01*
Y8511724D01*
X7368764D01*
Y8514809D01*
X7370307D01*
Y8517894D01*
X7371849D01*
Y8519437D01*
X7373392D01*
Y8522521D01*
X7374934D01*
Y8525606D01*
X7376476D01*
Y8527149D01*
X7378019D01*
Y8530233D01*
X7379561D01*
Y8531776D01*
X7381104D01*
Y8533318D01*
X7382646D01*
Y8536403D01*
X7384189D01*
Y8539488D01*
X7385731D01*
Y8541030D01*
X7387274D01*
Y8542573D01*
X7388816D01*
Y8544115D01*
X7390358D01*
Y8547200D01*
X7391901D01*
Y8548743D01*
X7393443D01*
Y8551827D01*
X7394986D01*
Y8553370D01*
X7396528D01*
Y8554912D01*
X7398071D01*
Y8556455D01*
X7399613D01*
Y8557997D01*
X7401155D01*
Y8559540D01*
X7402698D01*
Y8561082D01*
X7404240D01*
Y8562624D01*
X7405783D01*
Y8565709D01*
X7407325D01*
Y8567252D01*
X7408868D01*
Y8568794D01*
X7410410D01*
Y8570337D01*
X7411952D01*
Y8571879D01*
X7413495D01*
Y8573422D01*
X7415037D01*
Y8574964D01*
X7416580D01*
Y8576506D01*
X7418122D01*
Y8578049D01*
X7419665D01*
Y8579591D01*
X7421207D01*
Y8581134D01*
X7422749D01*
Y8582676D01*
X7424292D01*
Y8584219D01*
X7427377D01*
Y8587303D01*
X7428919D01*
Y8588846D01*
X7430462D01*
Y8590388D01*
X7433546D01*
Y8591931D01*
X7435089D01*
Y8593473D01*
X7436631D01*
Y8595016D01*
X7438174D01*
Y8596558D01*
X7439716D01*
Y8598100D01*
X7442801D01*
Y8599643D01*
X7444344D01*
Y8601185D01*
X7445886D01*
Y8602728D01*
X7447428D01*
Y8604270D01*
X7450513D01*
Y8605813D01*
X7452055D01*
Y8607355D01*
X7453598D01*
Y8608897D01*
X7456683D01*
Y8610440D01*
X7458225D01*
Y8611982D01*
X7459768D01*
Y8613525D01*
X7462852D01*
Y8615067D01*
X7464395D01*
Y8616610D01*
X7465937D01*
Y8618152D01*
X7469022D01*
Y8619694D01*
X7472107D01*
Y8621237D01*
X7473650D01*
Y8622779D01*
X7476734D01*
Y8624322D01*
X7478277D01*
Y8625864D01*
X7479819D01*
Y8627406D01*
X7482904D01*
Y8628949D01*
X7485989D01*
Y8630492D01*
X7487531D01*
Y8632034D01*
X7490616D01*
Y8633576D01*
X7493701D01*
Y8635119D01*
X7496786D01*
Y8636661D01*
X7498328D01*
Y8638203D01*
X7501413D01*
Y8639746D01*
X7502956D01*
Y8641288D01*
X7506041D01*
Y8642831D01*
X7510668D01*
Y8644373D01*
X7512210D01*
Y8645916D01*
X7515295D01*
Y8647458D01*
X7518380D01*
Y8649000D01*
X7521465D01*
Y8650543D01*
X7524550D01*
Y8652085D01*
X7527635D01*
Y8653628D01*
X7530720D01*
Y8655170D01*
X7533804D01*
Y8656713D01*
X7536889D01*
Y8658255D01*
X7539974D01*
Y8659798D01*
X7543059D01*
Y8661340D01*
X7547686D01*
Y8662882D01*
X7550771D01*
Y8664425D01*
X7555398D01*
Y8665967D01*
X7558483D01*
Y8667510D01*
X7561568D01*
Y8669052D01*
X7566195D01*
Y8670595D01*
X7569280D01*
Y8672137D01*
X7573907D01*
Y8673679D01*
X7576992D01*
Y8675222D01*
X7581620D01*
Y8676764D01*
X7586247D01*
Y8678307D01*
X7590874D01*
Y8679849D01*
X7595501D01*
Y8681392D01*
X7598586D01*
Y8682934D01*
X7603214D01*
Y8684476D01*
X7609383D01*
Y8686019D01*
X7614011D01*
Y8687561D01*
X7618638D01*
Y8689104D01*
X7623265D01*
Y8690646D01*
X7629435D01*
Y8692189D01*
X7635604D01*
Y8693731D01*
X7641774D01*
Y8695273D01*
X7647944D01*
Y8696816D01*
X7652571D01*
Y8698358D01*
X7658741D01*
Y8699901D01*
X7666453D01*
Y8701443D01*
X7674165D01*
Y8702986D01*
X7680335D01*
Y8704528D01*
X7688047D01*
Y8706070D01*
X7695759D01*
Y8707613D01*
X7705014D01*
Y8709155D01*
X7717353D01*
Y8710698D01*
X7726608D01*
Y8712240D01*
X7737405D01*
Y8713783D01*
X7751287D01*
Y8715325D01*
X7768253D01*
Y8716868D01*
X7802187D01*
Y8718410D01*
X7859257D01*
Y8716868D01*
D02*
G37*
%LPC*%
G36*
X7484780Y9523342D02*
X7439942D01*
Y9521896D01*
X7438496D01*
Y9519003D01*
X7437049D01*
Y9516110D01*
X7435603D01*
Y9513217D01*
X7434157D01*
Y9508878D01*
X7432710D01*
Y9507432D01*
X7431264D01*
Y9503092D01*
X7429818D01*
Y9498753D01*
X7428371D01*
Y9495861D01*
X7426925D01*
Y9491522D01*
X7425478D01*
Y9490075D01*
X7424032D01*
Y9484290D01*
X7422585D01*
Y9479950D01*
X7421139D01*
Y9478504D01*
X7419693D01*
Y9472718D01*
X7464531D01*
Y9474165D01*
X7467423D01*
Y9475611D01*
X7468870D01*
Y9477057D01*
X7470316D01*
Y9478504D01*
X7471763D01*
Y9479950D01*
X7473209D01*
Y9484290D01*
X7474655D01*
Y9485736D01*
X7476102D01*
Y9490075D01*
X7477548D01*
Y9494414D01*
X7478995D01*
Y9495861D01*
X7480441D01*
Y9501646D01*
X7481888D01*
Y9508878D01*
X7483334D01*
Y9510325D01*
X7484780D01*
Y9523342D01*
D02*
G37*
G36*
X7444281Y9410524D02*
X7397997D01*
Y9409077D01*
X7396550D01*
Y9407631D01*
X7395104D01*
Y9404738D01*
X7393658D01*
Y9400399D01*
X7392211D01*
Y9396060D01*
X7390765D01*
Y9394613D01*
X7389318D01*
Y9390274D01*
X7387872D01*
Y9385935D01*
X7386426D01*
Y9383042D01*
X7384979D01*
Y9378703D01*
X7383533D01*
Y9375810D01*
X7382087D01*
Y9371471D01*
X7380640D01*
Y9365686D01*
X7429818D01*
Y9367132D01*
X7431264D01*
Y9371471D01*
X7432710D01*
Y9372917D01*
X7434157D01*
Y9377257D01*
X7435603D01*
Y9380150D01*
X7437049D01*
Y9381596D01*
X7438496D01*
Y9385935D01*
X7439942D01*
Y9390274D01*
X7441388D01*
Y9391721D01*
Y9393167D01*
X7442835D01*
Y9398953D01*
X7444281D01*
Y9401845D01*
X7445728D01*
Y9409077D01*
X7444281D01*
Y9410524D01*
D02*
G37*
G36*
X7464531Y9147281D02*
X7415353D01*
Y9145835D01*
X7413907D01*
Y9144388D01*
X7402336D01*
Y9141495D01*
X7393658D01*
Y9140049D01*
X7386426D01*
Y9137156D01*
X7377747D01*
Y9135710D01*
X7371962D01*
Y9132817D01*
X7364730D01*
Y9129924D01*
X7358944D01*
Y9128478D01*
X7353159D01*
Y9125585D01*
X7348820D01*
Y9124139D01*
X7344480D01*
Y9122692D01*
X7343034D01*
Y9121246D01*
X7337248D01*
Y9118353D01*
X7332909D01*
Y9116907D01*
X7328570D01*
Y9114014D01*
X7324231D01*
Y9112568D01*
X7319892D01*
Y9111121D01*
X7318445D01*
Y9109675D01*
X7314106D01*
Y9106782D01*
X7309767D01*
Y9105336D01*
X7305428D01*
Y9102443D01*
X7301089D01*
Y9100997D01*
X7296750D01*
Y9099550D01*
X7295303D01*
Y9098104D01*
X7292410D01*
Y9096657D01*
X7290964D01*
Y9095211D01*
X7289518D01*
Y9093765D01*
X7283732D01*
Y9090872D01*
X7279393D01*
Y9089425D01*
X7276500D01*
Y9087979D01*
X7275054D01*
Y9086532D01*
X7272161D01*
Y9085086D01*
X7270715D01*
Y9083640D01*
X7267822D01*
Y9082193D01*
X7263483D01*
Y9079301D01*
X7259143D01*
Y9077854D01*
X7256251D01*
Y9074962D01*
X7251912D01*
Y9072069D01*
X7247572D01*
Y9070622D01*
X7244680D01*
Y9067730D01*
X7240340D01*
Y9066283D01*
X7238894D01*
Y9064837D01*
X7236001D01*
Y9063390D01*
X7233108D01*
Y9060497D01*
X7228769D01*
Y9059051D01*
X7225877D01*
Y9057605D01*
X7224430D01*
Y9056158D01*
X7221537D01*
Y9053266D01*
X7217198D01*
Y9051819D01*
X7214305D01*
Y9050373D01*
X7212859D01*
Y9048927D01*
X7209966D01*
Y9040248D01*
X7234555D01*
Y9041695D01*
X7247572D01*
Y9043141D01*
X7256251D01*
Y9044587D01*
X7275054D01*
Y9047480D01*
X7293857D01*
Y9048927D01*
X7309767D01*
Y9051819D01*
X7325678D01*
Y9054712D01*
X7337248D01*
Y9056158D01*
X7350266D01*
Y9057605D01*
X7351712D01*
Y9059051D01*
X7360391D01*
Y9060497D01*
X7369069D01*
Y9061944D01*
X7370515D01*
Y9063390D01*
X7379194D01*
Y9066283D01*
X7386426D01*
Y9067730D01*
X7393658D01*
Y9070622D01*
X7399443D01*
Y9072069D01*
X7406675D01*
Y9074962D01*
X7411014D01*
Y9077854D01*
X7416800D01*
Y9079301D01*
X7421139D01*
Y9082193D01*
X7425478D01*
Y9083640D01*
X7428371D01*
Y9085086D01*
X7429818D01*
Y9086532D01*
X7432710D01*
Y9089425D01*
X7437049D01*
Y9090872D01*
X7439942D01*
Y9093765D01*
X7441388D01*
Y9095211D01*
X7444281D01*
Y9098104D01*
X7447174D01*
Y9099550D01*
X7448620D01*
Y9100997D01*
X7450067D01*
Y9102443D01*
X7451513D01*
Y9105336D01*
X7452960D01*
Y9106782D01*
X7455853D01*
Y9109675D01*
X7457299D01*
Y9112568D01*
X7458745D01*
Y9114014D01*
X7460192D01*
Y9116907D01*
X7463084D01*
Y9121246D01*
X7464531D01*
Y9125585D01*
X7467423D01*
Y9144388D01*
X7464531D01*
Y9147281D01*
D02*
G37*
G36*
X7633758Y9066283D02*
X7623633D01*
Y9064837D01*
X7622187D01*
Y9063390D01*
X7617848D01*
Y9060497D01*
X7612063D01*
Y9059051D01*
X7606277D01*
Y9056158D01*
X7601938D01*
Y9054712D01*
X7600491D01*
Y9053266D01*
X7597598D01*
Y9051819D01*
X7593259D01*
Y9050373D01*
X7591813D01*
Y9048927D01*
X7587474D01*
Y9047480D01*
X7583135D01*
Y9044587D01*
X7578795D01*
Y9041695D01*
X7574456D01*
Y9040248D01*
X7570117D01*
Y9038802D01*
X7568671D01*
Y9037355D01*
X7564332D01*
Y9035909D01*
X7561439D01*
Y9034462D01*
X7559992D01*
Y9033016D01*
X7557100D01*
Y9030123D01*
X7552760D01*
Y9028677D01*
X7548421D01*
Y9025784D01*
X7545528D01*
Y9024338D01*
X7544082D01*
Y9021445D01*
X7541189D01*
Y9018552D01*
X7539743D01*
Y9014213D01*
X7536850D01*
Y9009874D01*
X7533957D01*
Y9005535D01*
X7532511D01*
Y8983839D01*
X7542636D01*
Y8985285D01*
X7544082D01*
Y8986732D01*
X7548421D01*
Y8989625D01*
X7552760D01*
Y8991071D01*
X7557100D01*
Y8993964D01*
X7562885D01*
Y8995410D01*
X7564332D01*
Y8998303D01*
X7568671D01*
Y9001196D01*
X7571563D01*
Y9002642D01*
X7575903D01*
Y9005535D01*
X7578795D01*
Y9006981D01*
X7580242D01*
Y9009874D01*
X7586028D01*
Y9012767D01*
X7587474D01*
Y9014213D01*
X7590367D01*
Y9017106D01*
X7591813D01*
Y9018552D01*
X7594706D01*
Y9019999D01*
X7597598D01*
Y9021445D01*
X7599045D01*
Y9024338D01*
X7601938D01*
Y9025784D01*
X7603384D01*
Y9028677D01*
X7606277D01*
Y9030123D01*
X7607723D01*
Y9031570D01*
X7609170D01*
Y9033016D01*
X7610616D01*
Y9035909D01*
X7613509D01*
Y9037355D01*
X7614955D01*
Y9040248D01*
X7617848D01*
Y9043141D01*
X7620741D01*
Y9044587D01*
X7622187D01*
Y9047480D01*
X7625080D01*
Y9048927D01*
X7626526D01*
Y9051819D01*
X7629419D01*
Y9054712D01*
X7630865D01*
Y9056158D01*
X7632312D01*
Y9059051D01*
X7633758D01*
Y9066283D01*
D02*
G37*
G36*
X8294758Y9009874D02*
X8281740D01*
Y9006981D01*
X8274508D01*
Y9005535D01*
X8270169D01*
Y9002642D01*
X8264384D01*
Y9001196D01*
X8258598D01*
Y8998303D01*
X8252813D01*
Y8995410D01*
X8248473D01*
Y8993964D01*
X8242688D01*
Y8992517D01*
X8241242D01*
Y8991071D01*
X8236902D01*
Y8989625D01*
X8232563D01*
Y8986732D01*
X8228224D01*
Y8983839D01*
X8222438D01*
Y8982393D01*
X8218099D01*
Y8979500D01*
X8213760D01*
Y8978053D01*
X8209421D01*
Y8975161D01*
X8205082D01*
Y8972268D01*
X8199296D01*
Y8970822D01*
X8194957D01*
Y8967929D01*
X8190618D01*
Y8966482D01*
X8186279D01*
Y8963590D01*
X8181940D01*
Y8960697D01*
X8176154D01*
Y8959250D01*
X8173261D01*
Y8957804D01*
X8171815D01*
Y8956358D01*
X8170368D01*
Y8954911D01*
X8166029D01*
Y8953465D01*
X8164583D01*
Y8952018D01*
X8160244D01*
Y8949126D01*
X8155905D01*
Y8947679D01*
X8153012D01*
Y8944787D01*
X8148673D01*
Y8943340D01*
X8145780D01*
Y8941894D01*
X8144333D01*
Y8940447D01*
X8141441D01*
Y8937555D01*
X8137102D01*
Y8936108D01*
X8132762D01*
Y8933215D01*
X8129870D01*
Y8931769D01*
X8126977D01*
Y8930322D01*
X8125530D01*
Y8928876D01*
X8122638D01*
Y8927430D01*
X8121191D01*
Y8925983D01*
X8118298D01*
Y8924537D01*
X8113959D01*
Y8921644D01*
X8112513D01*
Y8920198D01*
X8109620D01*
Y8918752D01*
X8106727D01*
Y8917305D01*
X8105281D01*
Y8914412D01*
X8100942D01*
Y8912966D01*
X8098049D01*
Y8910073D01*
X8093710D01*
Y8908627D01*
X8092263D01*
Y8907180D01*
X8090817D01*
Y8905734D01*
X8086478D01*
Y8902841D01*
X8083585D01*
Y8901395D01*
X8082139D01*
Y8898502D01*
X8077800D01*
Y8897056D01*
X8076353D01*
Y8895609D01*
X8074907D01*
Y8894163D01*
X8072014D01*
Y8891270D01*
X8067675D01*
Y8889824D01*
X8066228D01*
Y8888377D01*
X8064782D01*
Y8886931D01*
X8063336D01*
Y8884038D01*
X8060443D01*
Y8882592D01*
X8058997D01*
Y8881145D01*
X8056104D01*
Y8879699D01*
X8054658D01*
Y8878253D01*
X8051765D01*
Y8875360D01*
X8048872D01*
Y8872467D01*
X8047425D01*
Y8869574D01*
X8044533D01*
Y8866682D01*
X8041640D01*
Y8863789D01*
X8040193D01*
Y8860896D01*
X8038747D01*
Y8859450D01*
X8037301D01*
Y8856557D01*
X8035854D01*
Y8847878D01*
X8032962D01*
Y8839200D01*
X8034408D01*
Y8837754D01*
X8035854D01*
Y8831968D01*
X8037301D01*
Y8827629D01*
X8038747D01*
Y8826183D01*
X8040193D01*
Y8824736D01*
X8048872D01*
Y8823290D01*
X8050318D01*
Y8821843D01*
X8051765D01*
Y8823290D01*
X8053211D01*
Y8824736D01*
X8067675D01*
Y8826183D01*
X8073460D01*
Y8827629D01*
X8074907D01*
Y8829075D01*
X8079246D01*
Y8831968D01*
X8083585D01*
Y8833415D01*
X8089371D01*
Y8834861D01*
X8090817D01*
Y8836307D01*
X8093710D01*
Y8837754D01*
X8098049D01*
Y8840647D01*
X8102388D01*
Y8843539D01*
X8106727D01*
Y8844986D01*
X8111067D01*
Y8847878D01*
X8115406D01*
Y8849325D01*
X8118298D01*
Y8852218D01*
X8122638D01*
Y8855110D01*
X8125530D01*
Y8856557D01*
X8129870D01*
Y8859450D01*
X8132762D01*
Y8860896D01*
X8134209D01*
Y8862342D01*
X8137102D01*
Y8863789D01*
X8139994D01*
Y8866682D01*
X8141441D01*
Y8868128D01*
X8145780D01*
Y8871021D01*
X8148673D01*
Y8872467D01*
X8150119D01*
Y8873913D01*
X8151565D01*
Y8875360D01*
X8154458D01*
Y8876806D01*
X8155905D01*
Y8878253D01*
X8158798D01*
Y8879699D01*
X8160244D01*
Y8882592D01*
X8163137D01*
Y8885485D01*
X8166029D01*
Y8886931D01*
X8168922D01*
Y8888377D01*
X8170368D01*
Y8889824D01*
X8171815D01*
Y8891270D01*
X8174708D01*
Y8894163D01*
X8176154D01*
Y8897056D01*
X8179047D01*
Y8898502D01*
X8183386D01*
Y8901395D01*
X8186279D01*
Y8902841D01*
X8187725D01*
Y8905734D01*
X8190618D01*
Y8908627D01*
X8193511D01*
Y8910073D01*
X8194957D01*
Y8912966D01*
X8197850D01*
Y8914412D01*
X8200743D01*
Y8915859D01*
X8202189D01*
Y8917305D01*
X8203635D01*
Y8918752D01*
X8205082D01*
Y8920198D01*
X8206528D01*
Y8921644D01*
X8209421D01*
Y8924537D01*
X8210868D01*
Y8925983D01*
X8213760D01*
Y8928876D01*
X8216653D01*
Y8931769D01*
X8218099D01*
Y8933215D01*
X8220992D01*
Y8936108D01*
X8225331D01*
Y8937555D01*
X8226778D01*
Y8939001D01*
X8228224D01*
Y8940447D01*
X8229670D01*
Y8943340D01*
X8232563D01*
Y8944787D01*
X8234010D01*
Y8947679D01*
X8236902D01*
Y8949126D01*
X8239795D01*
Y8952018D01*
X8241242D01*
Y8954911D01*
X8244134D01*
Y8956358D01*
X8245581D01*
Y8959250D01*
X8248473D01*
Y8960697D01*
X8251366D01*
Y8962143D01*
X8252813D01*
Y8963590D01*
X8255705D01*
Y8966482D01*
X8257152D01*
Y8967929D01*
X8260045D01*
Y8970822D01*
X8262937D01*
Y8972268D01*
X8264384D01*
Y8975161D01*
X8267277D01*
Y8978053D01*
X8268723D01*
Y8979500D01*
X8271616D01*
Y8982393D01*
X8274508D01*
Y8983839D01*
X8275955D01*
Y8986732D01*
X8278848D01*
Y8989625D01*
X8280294D01*
Y8991071D01*
X8283187D01*
Y8993964D01*
X8286080D01*
Y8995410D01*
X8287526D01*
Y8998303D01*
X8290419D01*
Y9002642D01*
X8291865D01*
Y9004088D01*
X8293312D01*
Y9005535D01*
X8294758D01*
Y9009874D01*
D02*
G37*
G36*
X7785220Y8655170D02*
X7772881D01*
Y8653628D01*
X7754372D01*
Y8652085D01*
X7745117D01*
Y8650543D01*
X7731235D01*
Y8649000D01*
X7723523D01*
Y8647458D01*
X7715811D01*
Y8645916D01*
X7706556D01*
Y8644373D01*
X7698844D01*
Y8642831D01*
X7689590D01*
Y8641288D01*
X7683420D01*
Y8639746D01*
X7677250D01*
Y8638203D01*
X7669538D01*
Y8636661D01*
X7664911D01*
Y8635119D01*
X7658741D01*
Y8633576D01*
X7654114D01*
Y8632034D01*
X7647944D01*
Y8630492D01*
X7643317D01*
Y8628949D01*
X7635604D01*
Y8627406D01*
X7632520D01*
Y8625864D01*
X7627893D01*
Y8624322D01*
X7623265D01*
Y8622779D01*
X7618638D01*
Y8621237D01*
X7614011D01*
Y8619694D01*
X7609383D01*
Y8618152D01*
X7606298D01*
Y8616610D01*
X7603214D01*
Y8615067D01*
X7598586D01*
Y8613525D01*
X7593959D01*
Y8611982D01*
X7590874D01*
Y8610440D01*
X7587789D01*
Y8608897D01*
X7583162D01*
Y8607355D01*
X7581620D01*
Y8605813D01*
X7576992D01*
Y8604270D01*
X7573907D01*
Y8602728D01*
X7570823D01*
Y8601185D01*
X7567738D01*
Y8599643D01*
X7563110D01*
Y8598100D01*
X7560026D01*
Y8596558D01*
X7558483D01*
Y8595016D01*
X7555398D01*
Y8593473D01*
X7552314D01*
Y8591931D01*
X7549228D01*
Y8590388D01*
X7547686D01*
Y8588846D01*
X7544601D01*
Y8587303D01*
X7543059D01*
Y8585761D01*
X7539974D01*
Y8584219D01*
X7536889D01*
Y8582676D01*
X7533804D01*
Y8581134D01*
X7532262D01*
Y8579591D01*
X7530720D01*
Y8578049D01*
X7527635D01*
Y8576506D01*
X7524550D01*
Y8574964D01*
X7523007D01*
Y8573422D01*
X7521465D01*
Y8571879D01*
X7519922D01*
Y8570337D01*
X7515295D01*
Y8568794D01*
X7513753D01*
Y8567252D01*
X7512210D01*
Y8565709D01*
X7510668D01*
Y8564167D01*
X7507583D01*
Y8562624D01*
X7506041D01*
Y8561082D01*
X7504498D01*
Y8559540D01*
X7502956D01*
Y8557997D01*
X7501413D01*
Y8554912D01*
X7502956D01*
Y8553370D01*
X7504498D01*
Y8551827D01*
X7506041D01*
Y8550285D01*
X7507583D01*
Y8547200D01*
X7509125D01*
Y8545658D01*
X7510668D01*
Y8544115D01*
X7512210D01*
Y8541030D01*
X7513753D01*
Y8539488D01*
X7515295D01*
Y8537946D01*
X7516838D01*
Y8536403D01*
X7518380D01*
Y8534861D01*
X7519922D01*
Y8533318D01*
X7521465D01*
Y8531776D01*
X7523007D01*
Y8528691D01*
X7524550D01*
Y8525606D01*
X7527635D01*
Y8522521D01*
X7529177D01*
Y8520979D01*
X7530720D01*
Y8517894D01*
X7532262D01*
Y8516352D01*
X7533804D01*
Y8514809D01*
X7535347D01*
Y8513267D01*
X7536889D01*
Y8511724D01*
X7538432D01*
Y8508640D01*
X7543059D01*
Y8510182D01*
X7544601D01*
Y8511724D01*
X7547686D01*
Y8513267D01*
X7549228D01*
Y8514809D01*
X7550771D01*
Y8516352D01*
X7553856D01*
Y8517894D01*
X7556941D01*
Y8519437D01*
X7558483D01*
Y8520979D01*
X7561568D01*
Y8522521D01*
X7563110D01*
Y8524064D01*
X7566195D01*
Y8525606D01*
X7567738D01*
Y8527149D01*
X7570823D01*
Y8528691D01*
X7573907D01*
Y8530233D01*
X7576992D01*
Y8531776D01*
X7578535D01*
Y8533318D01*
X7581620D01*
Y8534861D01*
X7586247D01*
Y8536403D01*
X7587789D01*
Y8537946D01*
X7592417D01*
Y8536403D01*
X7593959D01*
Y8534861D01*
X7595501D01*
Y8533318D01*
X7597044D01*
Y8531776D01*
X7598586D01*
Y8528691D01*
X7600129D01*
Y8527149D01*
X7601671D01*
Y8525606D01*
X7603214D01*
Y8522521D01*
X7604756D01*
Y8520979D01*
X7606298D01*
Y8519437D01*
X7607841D01*
Y8517894D01*
X7609383D01*
Y8516352D01*
X7610926D01*
Y8514809D01*
X7612468D01*
Y8511724D01*
X7614011D01*
Y8510182D01*
X7615553D01*
Y8508640D01*
X7617096D01*
Y8507097D01*
X7618638D01*
Y8505555D01*
X7620180D01*
Y8504012D01*
X7621723D01*
Y8502470D01*
X7623265D01*
Y8500927D01*
X7624808D01*
Y8497843D01*
X7626350D01*
Y8496300D01*
X7627893D01*
Y8494758D01*
X7629435D01*
Y8493215D01*
X7630977D01*
Y8490130D01*
X7632520D01*
Y8488588D01*
X7634062D01*
Y8487046D01*
X7635604D01*
Y8483961D01*
X7638690D01*
Y8482418D01*
X7640232D01*
Y8479333D01*
X7641774D01*
Y8477791D01*
X7643317D01*
Y8474706D01*
X7646402D01*
Y8473164D01*
X7647944D01*
Y8470079D01*
X7649486D01*
Y8468536D01*
X7651029D01*
Y8466994D01*
X7652571D01*
Y8465451D01*
X7654114D01*
Y8463909D01*
X7655656D01*
Y8460824D01*
X7657199D01*
Y8459282D01*
X7658741D01*
Y8457739D01*
X7660283D01*
Y8456197D01*
X7661826D01*
Y8454654D01*
X7663368D01*
Y8453112D01*
X7664911D01*
Y8451570D01*
X7666453D01*
Y8448485D01*
X7667996D01*
Y8446942D01*
X7669538D01*
Y8445400D01*
X7671080D01*
Y8442315D01*
X7672623D01*
Y8440773D01*
X7674165D01*
Y8439230D01*
X7675708D01*
Y8437688D01*
X7677250D01*
Y8436145D01*
X7678793D01*
Y8433060D01*
X7680335D01*
Y8431518D01*
X7681877D01*
Y8429976D01*
X7683420D01*
Y8428433D01*
X7684962D01*
Y8426891D01*
X7686505D01*
Y8425348D01*
X7688047D01*
Y8423806D01*
X7689590D01*
Y8422264D01*
X7691132D01*
Y8420721D01*
X7692674D01*
Y8417636D01*
X7694217D01*
Y8416094D01*
X7695759D01*
Y8414551D01*
X7697302D01*
Y8413009D01*
X7698844D01*
Y8411467D01*
X7700387D01*
Y8408382D01*
X7701929D01*
Y8406839D01*
X7703472D01*
Y8405297D01*
X7705014D01*
Y8403754D01*
X7706556D01*
Y8402212D01*
X7708099D01*
Y8399127D01*
X7709641D01*
Y8397585D01*
X7711184D01*
Y8396042D01*
X7712726D01*
Y8394500D01*
X7714269D01*
Y8392957D01*
X7715811D01*
Y8389872D01*
X7717353D01*
Y8388330D01*
X7718896D01*
Y8386788D01*
X7720438D01*
Y8385245D01*
X7721981D01*
Y8382160D01*
X7723523D01*
Y8380618D01*
X7725066D01*
Y8379075D01*
X7726608D01*
Y8377533D01*
X7728150D01*
Y8375991D01*
X7729693D01*
Y8374448D01*
X7731235D01*
Y8372906D01*
X7732778D01*
Y8369821D01*
X7734320D01*
Y8368278D01*
X7735863D01*
Y8366736D01*
X7737405D01*
Y8365194D01*
X7738947D01*
Y8363651D01*
X7740490D01*
Y8362109D01*
X7742032D01*
Y8360566D01*
X7743575D01*
Y8357481D01*
X7745117D01*
Y8355939D01*
X7746659D01*
Y8354397D01*
X7748202D01*
Y8352854D01*
X7749744D01*
Y8351312D01*
X7751287D01*
Y8348227D01*
X7752829D01*
Y8346684D01*
X7754372D01*
Y8345142D01*
X7755914D01*
Y8343600D01*
X7757456D01*
Y8342057D01*
X7758999D01*
Y8249511D01*
X7748202D01*
Y8251054D01*
X7732778D01*
Y8252596D01*
X7721981D01*
Y8254139D01*
X7706556D01*
Y8255681D01*
X7701929D01*
Y8252596D01*
X7700387D01*
Y8240257D01*
X7698844D01*
Y8234087D01*
X7697302D01*
Y8229460D01*
X7695759D01*
Y8223290D01*
X7694217D01*
Y8212493D01*
X7692674D01*
Y8203239D01*
X7691132D01*
Y8197069D01*
X7689590D01*
Y8192442D01*
X7692674D01*
Y8190899D01*
X7698844D01*
Y8189357D01*
X7706556D01*
Y8187814D01*
X7714269D01*
Y8186272D01*
X7723523D01*
Y8184729D01*
X7731235D01*
Y8183187D01*
X7737405D01*
Y8181645D01*
X7757456D01*
Y8180102D01*
X7768253D01*
Y8178560D01*
X7792932D01*
Y8177017D01*
X7870054D01*
Y8178560D01*
X7897818D01*
Y8180102D01*
X7911699D01*
Y8181645D01*
X7930209D01*
Y8183187D01*
X7937921D01*
Y8184729D01*
X7945633D01*
Y8186272D01*
X7956430D01*
Y8187814D01*
X7964142D01*
Y8189357D01*
X7976481D01*
Y8190899D01*
X7978024D01*
Y8200154D01*
X7976481D01*
Y8209408D01*
X7974939D01*
Y8217120D01*
X7973397D01*
Y8221748D01*
X7971854D01*
Y8227918D01*
X7970312D01*
Y8237172D01*
X7968769D01*
Y8244884D01*
X7967227D01*
Y8249511D01*
X7965684D01*
Y8255681D01*
X7950260D01*
Y8254139D01*
X7936378D01*
Y8252596D01*
X7927124D01*
Y8251054D01*
X7908615D01*
Y8249511D01*
X7902445D01*
Y8337430D01*
X7903987D01*
Y8340515D01*
X7905530D01*
Y8342057D01*
X7907072D01*
Y8343600D01*
X7908615D01*
Y8345142D01*
X7910157D01*
Y8346684D01*
X7911699D01*
Y8349769D01*
X7913242D01*
Y8351312D01*
X7914784D01*
Y8352854D01*
X7916327D01*
Y8354397D01*
X7917869D01*
Y8355939D01*
X7919412D01*
Y8357481D01*
X7920954D01*
Y8360566D01*
X7922496D01*
Y8362109D01*
X7924039D01*
Y8363651D01*
X7925581D01*
Y8365194D01*
X7927124D01*
Y8368278D01*
X7928666D01*
Y8369821D01*
X7930209D01*
Y8371363D01*
X7931751D01*
Y8372906D01*
X7933294D01*
Y8374448D01*
X7934836D01*
Y8375991D01*
X7936378D01*
Y8379075D01*
X7939463D01*
Y8382160D01*
X7941005D01*
Y8383703D01*
X7942548D01*
Y8385245D01*
X7944091D01*
Y8386788D01*
X7945633D01*
Y8388330D01*
X7947175D01*
Y8389872D01*
X7948718D01*
Y8392957D01*
X7950260D01*
Y8394500D01*
X7951802D01*
Y8396042D01*
X7953345D01*
Y8397585D01*
X7954887D01*
Y8399127D01*
X7956430D01*
Y8402212D01*
X7957972D01*
Y8403754D01*
X7959515D01*
Y8405297D01*
X7961057D01*
Y8406839D01*
X7962600D01*
Y8408382D01*
X7964142D01*
Y8411467D01*
X7965684D01*
Y8413009D01*
X7967227D01*
Y8414551D01*
X7968769D01*
Y8416094D01*
X7970312D01*
Y8417636D01*
X7971854D01*
Y8419178D01*
X7973397D01*
Y8422264D01*
X7974939D01*
Y8423806D01*
X7976481D01*
Y8425348D01*
X7978024D01*
Y8426891D01*
X7979566D01*
Y8428433D01*
X7981109D01*
Y8429976D01*
X7982651D01*
Y8431518D01*
X7984194D01*
Y8433060D01*
X7985736D01*
Y8436145D01*
X7987278D01*
Y8437688D01*
X7988821D01*
Y8439230D01*
X7990363D01*
Y8440773D01*
X7991906D01*
Y8442315D01*
X7993448D01*
Y8445400D01*
X7994991D01*
Y8446942D01*
X7996533D01*
Y8448485D01*
X7998075D01*
Y8450027D01*
X7999618D01*
Y8453112D01*
X8001160D01*
Y8454654D01*
X8002703D01*
Y8456197D01*
X8004245D01*
Y8457739D01*
X8005788D01*
Y8459282D01*
X8007330D01*
Y8460824D01*
X8008872D01*
Y8463909D01*
X8010415D01*
Y8465451D01*
X8011957D01*
Y8466994D01*
X8013500D01*
Y8468536D01*
X8015042D01*
Y8470079D01*
X8016585D01*
Y8471621D01*
X8018127D01*
Y8473164D01*
X8019670D01*
Y8474706D01*
X8021212D01*
Y8476248D01*
X8022754D01*
Y8479333D01*
X8024297D01*
Y8480876D01*
X8025839D01*
Y8482418D01*
X8027382D01*
Y8483961D01*
X8028924D01*
Y8487046D01*
X8030467D01*
Y8488588D01*
X8033551D01*
Y8491673D01*
X8035094D01*
Y8493215D01*
X8036636D01*
Y8496300D01*
X8039721D01*
Y8497843D01*
X8041264D01*
Y8500927D01*
X8042806D01*
Y8502470D01*
X8044348D01*
Y8504012D01*
X8045891D01*
Y8505555D01*
X8047433D01*
Y8508640D01*
X8048976D01*
Y8510182D01*
X8050518D01*
Y8511724D01*
X8052060D01*
Y8513267D01*
X8053603D01*
Y8514809D01*
X8055145D01*
Y8517894D01*
X8058230D01*
Y8519437D01*
X8059773D01*
Y8522521D01*
X8061315D01*
Y8524064D01*
X8062857D01*
Y8525606D01*
X8064400D01*
Y8527149D01*
X8065942D01*
Y8530233D01*
X8070570D01*
Y8528691D01*
X8072112D01*
Y8527149D01*
X8075197D01*
Y8525606D01*
X8076739D01*
Y8524064D01*
X8079824D01*
Y8522521D01*
X8081367D01*
Y8520979D01*
X8082909D01*
Y8519437D01*
X8085994D01*
Y8517894D01*
X8089079D01*
Y8516352D01*
X8090621D01*
Y8514809D01*
X8093706D01*
Y8513267D01*
X8095248D01*
Y8511724D01*
X8098333D01*
Y8510182D01*
X8099876D01*
Y8508640D01*
X8102961D01*
Y8505555D01*
X8106046D01*
Y8504012D01*
X8109130D01*
Y8502470D01*
X8110673D01*
Y8500927D01*
X8112215D01*
Y8499385D01*
X8113758D01*
Y8497843D01*
X8115300D01*
Y8496300D01*
X8119927D01*
Y8497843D01*
X8121470D01*
Y8499385D01*
X8123012D01*
Y8500927D01*
X8124554D01*
Y8504012D01*
X8126097D01*
Y8505555D01*
X8127640D01*
Y8507097D01*
X8129182D01*
Y8510182D01*
X8130724D01*
Y8511724D01*
X8132267D01*
Y8513267D01*
X8133809D01*
Y8516352D01*
X8135352D01*
Y8517894D01*
X8138436D01*
Y8520979D01*
X8139979D01*
Y8524064D01*
X8141521D01*
Y8525606D01*
X8143064D01*
Y8527149D01*
X8144606D01*
Y8528691D01*
X8146149D01*
Y8530233D01*
X8147691D01*
Y8531776D01*
X8149233D01*
Y8534861D01*
X8150776D01*
Y8536403D01*
X8152318D01*
Y8537946D01*
X8153861D01*
Y8539488D01*
X8155403D01*
Y8541030D01*
X8156946D01*
Y8542573D01*
X8158488D01*
Y8545658D01*
X8160030D01*
Y8548743D01*
X8158488D01*
Y8550285D01*
X8156946D01*
Y8551827D01*
X8155403D01*
Y8553370D01*
X8153861D01*
Y8554912D01*
X8150776D01*
Y8556455D01*
X8149233D01*
Y8557997D01*
X8147691D01*
Y8559540D01*
X8146149D01*
Y8561082D01*
X8144606D01*
Y8562624D01*
X8141521D01*
Y8564167D01*
X8139979D01*
Y8565709D01*
X8138436D01*
Y8567252D01*
X8136894D01*
Y8568794D01*
X8133809D01*
Y8570337D01*
X8132267D01*
Y8571879D01*
X8129182D01*
Y8573422D01*
X8127640D01*
Y8574964D01*
X8126097D01*
Y8576506D01*
X8121470D01*
Y8578049D01*
X8119927D01*
Y8579591D01*
X8118385D01*
Y8581134D01*
X8115300D01*
Y8582676D01*
X8113758D01*
Y8584219D01*
X8110673D01*
Y8585761D01*
X8109130D01*
Y8587303D01*
X8106046D01*
Y8588846D01*
X8102961D01*
Y8590388D01*
X8101418D01*
Y8591931D01*
X8098333D01*
Y8593473D01*
X8095248D01*
Y8595016D01*
X8092164D01*
Y8596558D01*
X8090621D01*
Y8598100D01*
X8087536D01*
Y8599643D01*
X8082909D01*
Y8601185D01*
X8079824D01*
Y8602728D01*
X8078282D01*
Y8604270D01*
X8075197D01*
Y8605813D01*
X8070570D01*
Y8607355D01*
X8067485D01*
Y8608897D01*
X8064400D01*
Y8610440D01*
X8061315D01*
Y8611982D01*
X8059773D01*
Y8613525D01*
X8053603D01*
Y8615067D01*
X8052060D01*
Y8616610D01*
X8045891D01*
Y8618152D01*
X8042806D01*
Y8619694D01*
X8041264D01*
Y8621237D01*
X8033551D01*
Y8622779D01*
X8028924D01*
Y8624322D01*
X8024297D01*
Y8625864D01*
X8021212D01*
Y8627406D01*
X8018127D01*
Y8628949D01*
X8010415D01*
Y8630492D01*
X8004245D01*
Y8632034D01*
X7998075D01*
Y8633576D01*
X7993448D01*
Y8635119D01*
X7984194D01*
Y8636661D01*
X7978024D01*
Y8638203D01*
X7967227D01*
Y8639746D01*
X7959515D01*
Y8641288D01*
X7947175D01*
Y8642831D01*
X7945633D01*
Y8641288D01*
X7944091D01*
Y8633576D01*
X7942548D01*
Y8616610D01*
X7941005D01*
Y8605813D01*
X7939463D01*
Y8599643D01*
X7937921D01*
Y8590388D01*
X7936378D01*
Y8584219D01*
X7934836D01*
Y8573422D01*
X7937921D01*
Y8571879D01*
X7942548D01*
Y8570337D01*
X7951802D01*
Y8568794D01*
X7957972D01*
Y8567252D01*
X7965684D01*
Y8565709D01*
X7971854D01*
Y8564167D01*
X7976481D01*
Y8562624D01*
X7987278D01*
Y8559540D01*
X7985736D01*
Y8556455D01*
X7984194D01*
Y8554912D01*
X7982651D01*
Y8553370D01*
X7981109D01*
Y8551827D01*
X7979566D01*
Y8550285D01*
X7978024D01*
Y8548743D01*
X7976481D01*
Y8547200D01*
X7974939D01*
Y8544115D01*
X7973397D01*
Y8542573D01*
X7971854D01*
Y8541030D01*
X7970312D01*
Y8537946D01*
X7968769D01*
Y8536403D01*
X7965684D01*
Y8533318D01*
X7964142D01*
Y8531776D01*
X7962600D01*
Y8530233D01*
X7961057D01*
Y8528691D01*
X7959515D01*
Y8527149D01*
X7957972D01*
Y8524064D01*
X7956430D01*
Y8522521D01*
X7954887D01*
Y8519437D01*
X7953345D01*
Y8517894D01*
X7950260D01*
Y8516352D01*
X7948718D01*
Y8513267D01*
X7947175D01*
Y8511724D01*
X7945633D01*
Y8510182D01*
X7944091D01*
Y8508640D01*
X7942548D01*
Y8507097D01*
X7941005D01*
Y8504012D01*
X7939463D01*
Y8502470D01*
X7937921D01*
Y8500927D01*
X7936378D01*
Y8499385D01*
X7934836D01*
Y8496300D01*
X7933294D01*
Y8494758D01*
X7931751D01*
Y8493215D01*
X7930209D01*
Y8491673D01*
X7928666D01*
Y8490130D01*
X7927124D01*
Y8487046D01*
X7925581D01*
Y8485503D01*
X7924039D01*
Y8483961D01*
X7922496D01*
Y8482418D01*
X7920954D01*
Y8480876D01*
X7919412D01*
Y8477791D01*
X7917869D01*
Y8476248D01*
X7916327D01*
Y8474706D01*
X7913242D01*
Y8471621D01*
X7911699D01*
Y8470079D01*
X7910157D01*
Y8466994D01*
X7908615D01*
Y8465451D01*
X7907072D01*
Y8463909D01*
X7905530D01*
Y8462367D01*
X7903987D01*
Y8460824D01*
X7902445D01*
Y8457739D01*
X7900902D01*
Y8456197D01*
X7899360D01*
Y8454654D01*
X7897818D01*
Y8453112D01*
X7896275D01*
Y8450027D01*
X7894733D01*
Y8448485D01*
X7893190D01*
Y8446942D01*
X7891648D01*
Y8445400D01*
X7890105D01*
Y8443857D01*
X7888563D01*
Y8440773D01*
X7885478D01*
Y8437688D01*
X7883936D01*
Y8436145D01*
X7882393D01*
Y8434603D01*
X7880851D01*
Y8431518D01*
X7879308D01*
Y8429976D01*
X7876224D01*
Y8426891D01*
X7874681D01*
Y8423806D01*
X7871596D01*
Y8422264D01*
X7870054D01*
Y8419178D01*
X7868511D01*
Y8417636D01*
X7865426D01*
Y8419178D01*
X7863884D01*
Y8420721D01*
X7862342D01*
Y8422264D01*
X7860799D01*
Y8423806D01*
X7859257D01*
Y8425348D01*
X7857714D01*
Y8426891D01*
X7856172D01*
Y8428433D01*
X7854629D01*
Y8429976D01*
X7853087D01*
Y8433060D01*
X7851545D01*
Y8434603D01*
X7850002D01*
Y8436145D01*
X7848460D01*
Y8437688D01*
X7846918D01*
Y8439230D01*
X7845375D01*
Y8442315D01*
X7843832D01*
Y8443857D01*
X7842290D01*
Y8445400D01*
X7840748D01*
Y8446942D01*
X7839205D01*
Y8450027D01*
X7837663D01*
Y8451570D01*
X7836120D01*
Y8453112D01*
X7833036D01*
Y8456197D01*
X7831493D01*
Y8459282D01*
X7828408D01*
Y8460824D01*
X7826866D01*
Y8462367D01*
X7825323D01*
Y8465451D01*
X7823781D01*
Y8466994D01*
X7822239D01*
Y8468536D01*
X7820696D01*
Y8470079D01*
X7819154D01*
Y8471621D01*
X7817611D01*
Y8473164D01*
X7816069D01*
Y8476248D01*
X7814526D01*
Y8477791D01*
X7812984D01*
Y8479333D01*
X7811442D01*
Y8480876D01*
X7809899D01*
Y8482418D01*
X7808357D01*
Y8483961D01*
X7806814D01*
Y8485503D01*
X7805272D01*
Y8487046D01*
X7803729D01*
Y8488588D01*
X7802187D01*
Y8491673D01*
X7800645D01*
Y8493215D01*
X7799102D01*
Y8494758D01*
X7797560D01*
Y8496300D01*
X7796017D01*
Y8497843D01*
X7794475D01*
Y8500927D01*
X7792932D01*
Y8502470D01*
X7791390D01*
Y8504012D01*
X7789848D01*
Y8505555D01*
X7788305D01*
Y8507097D01*
X7786763D01*
Y8510182D01*
X7785220D01*
Y8511724D01*
X7783678D01*
Y8513267D01*
X7782135D01*
Y8514809D01*
X7780593D01*
Y8516352D01*
X7779050D01*
Y8517894D01*
X7777508D01*
Y8519437D01*
X7775966D01*
Y8520979D01*
X7774423D01*
Y8522521D01*
X7772881D01*
Y8525606D01*
X7771338D01*
Y8527149D01*
X7769796D01*
Y8528691D01*
X7768253D01*
Y8530233D01*
X7766711D01*
Y8531776D01*
X7765169D01*
Y8534861D01*
X7763626D01*
Y8536403D01*
X7762084D01*
Y8537946D01*
X7760541D01*
Y8539488D01*
X7758999D01*
Y8541030D01*
X7757456D01*
Y8544115D01*
X7755914D01*
Y8545658D01*
X7754372D01*
Y8547200D01*
X7752829D01*
Y8548743D01*
X7751287D01*
Y8550285D01*
X7749744D01*
Y8553370D01*
X7748202D01*
Y8554912D01*
X7746659D01*
Y8556455D01*
X7745117D01*
Y8557997D01*
X7743575D01*
Y8559540D01*
X7742032D01*
Y8562624D01*
X7740490D01*
Y8564167D01*
X7738947D01*
Y8565709D01*
X7737405D01*
Y8567252D01*
X7735863D01*
Y8568794D01*
X7734320D01*
Y8570337D01*
X7732778D01*
Y8571879D01*
X7731235D01*
Y8573422D01*
X7729693D01*
Y8574964D01*
X7728150D01*
Y8579591D01*
X7734320D01*
Y8581134D01*
X7745117D01*
Y8582676D01*
X7757456D01*
Y8584219D01*
X7772881D01*
Y8585761D01*
X7785220D01*
Y8587303D01*
X7788305D01*
Y8593473D01*
X7786763D01*
Y8642831D01*
X7785220D01*
Y8655170D01*
D02*
G37*
%LPD*%
D47*
X7950000Y11398000D02*
G03*
X7950000Y11398000I-12500J0D01*
G01*
X4609900Y8315500D02*
G03*
X4609900Y8315500I-12500J0D01*
G01*
X4975200Y8674100D02*
G03*
X4975200Y8674100I-12500J0D01*
G01*
X3479600Y8315500D02*
G03*
X3479600Y8315500I-12500J0D01*
G01*
X5295700Y10963100D02*
G03*
X5295700Y10963100I-12500J0D01*
G01*
X7124500Y10950400D02*
G03*
X7124500Y10950400I-12500J0D01*
G01*
X3352600Y11598100D02*
G03*
X3352600Y11598100I-12500J0D01*
G01*
X4927400Y11385300D02*
G03*
X4927400Y11385300I-12500J0D01*
G01*
X3600900Y13847200D02*
G03*
X3600900Y13847200I-12500J0D01*
G01*
X5702102Y11398000D02*
G03*
X5702102Y11398000I-12500J0D01*
G01*
X7213900D02*
G03*
X7213900Y11398000I-12500J0D01*
G01*
X7759500Y12820399D02*
G03*
X7759500Y12820399I-12500J0D01*
G01*
X6464100Y11398000D02*
G03*
X6464100Y11398000I-12500J0D01*
G01*
X6365900Y13159399D02*
G03*
X6365900Y13159399I-12500J0D01*
G01*
X4118000Y12460900D02*
G03*
X4118000Y12460900I-12500J0D01*
G01*
D48*
X4411400Y8322500D02*
G03*
X4411400Y8322500I-30000J0D01*
G01*
X4999700Y8890100D02*
G03*
X4999700Y8890100I-30000J0D01*
G01*
X3281100Y8322500D02*
G03*
X3281100Y8322500I-30000J0D01*
G01*
X5529200Y10862100D02*
G03*
X5529200Y10862100I-30000J0D01*
G01*
X7358000Y10849400D02*
G03*
X7358000Y10849400I-30000J0D01*
G01*
X3586100Y11497100D02*
G03*
X3586100Y11497100I-30000J0D01*
G01*
D49*
X4279900Y8222500D02*
G03*
X4152900Y8222500I-63500J0D01*
G01*
X4869700Y8991600D02*
G03*
X4869700Y9118600I0J63500D01*
G01*
X3149600Y8222500D02*
G03*
X3022600Y8222500I-63500J0D01*
G01*
X5600700Y10962100D02*
G03*
X5727700Y10962100I63500J0D01*
G01*
X7429500Y10949400D02*
G03*
X7556500Y10949400I63500J0D01*
G01*
X3657600Y11597100D02*
G03*
X3784600Y11597100I63500J0D01*
G01*
X7689000Y11449000D02*
Y12427000D01*
Y11449000D02*
X8185000D01*
Y12427000D01*
X7689000D02*
X8185000D01*
X3951402Y10192502D02*
X4481398D01*
X3951402Y8222498D02*
X4152900D01*
X4279900D02*
X4481398D01*
X3951402D02*
Y10192502D01*
X4481398Y8222498D02*
Y10192502D01*
X3009900Y11412100D02*
Y11484600D01*
Y10689600D02*
Y10762100D01*
X2884900D02*
X3134900D01*
Y11412100D01*
X2884900D02*
X3134900D01*
X2884900Y10762100D02*
Y11412100D01*
X4432300Y11424800D02*
Y11497300D01*
Y10702300D02*
Y10774800D01*
X4307300D02*
X4557300D01*
Y11424800D01*
X4307300D02*
X4557300D01*
X4307300Y10774800D02*
Y11424800D01*
X6781800Y10777100D02*
Y10849600D01*
Y10054600D02*
Y10127100D01*
X6656800D02*
X6906800D01*
Y10777100D01*
X6656800D02*
X6906800D01*
X6656800Y10127100D02*
Y10777100D01*
X8191500D02*
Y10849600D01*
Y10054600D02*
Y10127100D01*
X8066500D02*
X8316500D01*
Y10777100D01*
X8066500D02*
X8316500D01*
X8066500Y10127100D02*
Y10777100D01*
X4978400Y10764400D02*
Y10836900D01*
Y10041900D02*
Y10114400D01*
X4853400D02*
X5103400D01*
Y10764400D01*
X4853400D02*
X5103400D01*
X4853400Y10114400D02*
Y10764400D01*
X6362700Y10777100D02*
Y10849600D01*
Y10054600D02*
Y10127100D01*
X6237700D02*
X6487700D01*
Y10777100D01*
X6237700D02*
X6487700D01*
X6237700Y10127100D02*
Y10777100D01*
X4869698Y8790102D02*
X6839702D01*
X4869698Y9320098D02*
X6839702D01*
X4869698Y8790102D02*
Y8991600D01*
Y9118600D02*
Y9320098D01*
X6839702Y8790102D02*
Y9320098D01*
X2821102Y10192502D02*
X3351098D01*
X2821102Y8222498D02*
X3022600D01*
X3149600D02*
X3351098D01*
X2821102D02*
Y10192502D01*
X3351098Y8222498D02*
Y10192502D01*
X5399202Y9942098D02*
Y10962102D01*
X5929198Y9942098D02*
Y10962102D01*
X5399202D02*
X5600700D01*
X5727700D02*
X5929198D01*
X5399202Y9942098D02*
X5929198D01*
X7228002Y9929398D02*
X7757998D01*
X7556500Y10949402D02*
X7757998D01*
X7228002D02*
X7429500D01*
X7757998Y9929398D02*
Y10949402D01*
X7228002Y9929398D02*
Y10949402D01*
X3456102Y10577098D02*
Y11597102D01*
X3986098Y10577098D02*
Y11597102D01*
X3456102D02*
X3657600D01*
X3784600D02*
X3986098D01*
X3456102Y10577098D02*
X3986098D01*
X4307301Y12540098D02*
Y13190099D01*
X4557303D01*
Y12540098D02*
Y13190099D01*
X4307301Y12540098D02*
X4557303D01*
X4432299Y12467601D02*
Y12540098D01*
Y13190099D02*
Y13262601D01*
X3269102Y12240799D02*
X3919098D01*
Y11990797D02*
Y12240799D01*
X3269102Y11990797D02*
X3919098D01*
X3269102D02*
Y12240799D01*
X3196600Y12115801D02*
X3269102D01*
X3919098D02*
X3991600D01*
X4666402Y11436299D02*
Y12414301D01*
Y11436299D02*
X5162398D01*
Y12414301D01*
X4666402D02*
X5162398D01*
X5038400Y13567200D02*
Y14017200D01*
X3648400D02*
X5038400D01*
X3648400Y13567200D02*
Y14017200D01*
Y13567200D02*
X5038400D01*
X5441102Y12427001D02*
X5937103D01*
Y11448999D02*
Y12427001D01*
X5441102Y11448999D02*
X5937103D01*
X5441102D02*
Y12427001D01*
X6952902D02*
X7448898D01*
Y11448999D02*
Y12427001D01*
X6952902Y11448999D02*
X7448898D01*
X6952902D02*
Y12427001D01*
X5303500Y14054903D02*
X5618500D01*
X5303500Y13554898D02*
Y14054903D01*
Y13554898D02*
X5618500D01*
Y14054903D01*
X3233400Y12888504D02*
X3548400D01*
X3233400Y12388499D02*
Y12888504D01*
Y12388499D02*
X3548400D01*
Y12888504D01*
X7234900Y13698898D02*
X7294900D01*
X6979900D02*
X7039900D01*
X6979900Y13148901D02*
Y13698898D01*
X7234900Y13148901D02*
X7294900D01*
X6979900D02*
X7039900D01*
X7294900D02*
Y13698898D01*
X4795501Y12844099D02*
X4855501D01*
X5050501D02*
X5110501D01*
Y13394101D01*
X4795501D02*
X4855501D01*
X5050501D02*
X5110501D01*
X4795501Y12844099D02*
Y13394101D01*
X7498502Y13849400D02*
X7994498D01*
Y12871399D02*
Y13849400D01*
X7498502Y12871399D02*
X7994498D01*
X7498502D02*
Y13849400D01*
X6203102Y12427001D02*
X6699098D01*
Y11448999D02*
Y12427001D01*
X6203102Y11448999D02*
X6699098D01*
X6203102D02*
Y12427001D01*
X6705600Y13964799D02*
Y14037302D01*
Y13242300D02*
Y13314798D01*
X6580602D02*
X6830598D01*
Y13964799D01*
X6580602D02*
X6830598D01*
X6580602Y13314798D02*
Y13964799D01*
X6535298Y12839700D02*
X6607800D01*
X5812800D02*
X5885302D01*
Y12714702D02*
Y12964697D01*
Y12714702D02*
X6535298D01*
Y12964697D01*
X5885302D02*
X6535298D01*
X5958398Y13094402D02*
Y14134399D01*
X6418402D01*
Y13094402D02*
Y14134399D01*
X5958398Y13094402D02*
X6418402D01*
X6008400D02*
Y14134399D01*
X3710502Y12395901D02*
Y13435899D01*
X4170501D01*
Y12395901D02*
Y13435899D01*
X3710502Y12395901D02*
X4170501D01*
X3760499D02*
Y13435899D01*
X5996899Y7639700D02*
Y7879700D01*
X6626901D01*
X5996899Y7639700D02*
X6626901D01*
Y7879700D01*
X5316200Y7738699D02*
X5376200D01*
X5571200D02*
X5631200D01*
Y8288701D01*
X5316200D02*
X5376200D01*
X5571200D02*
X5631200D01*
X5316200Y7738699D02*
Y8288701D01*
X4320499Y7677800D02*
Y7917800D01*
X4950501D01*
X4320499Y7677800D02*
X4950501D01*
Y7917800D01*
X3957998Y7640300D02*
Y7700300D01*
Y7895300D02*
Y7955300D01*
X3408001D02*
X3957998D01*
X3408001Y7640300D02*
Y7700300D01*
Y7895300D02*
Y7955300D01*
Y7640300D02*
X3957998D01*
D50*
X5317113Y14232455D02*
X5300185Y14249384D01*
X5266330D01*
X5249402Y14232455D01*
Y14164745D01*
X5266330Y14147816D01*
X5300185D01*
X5317113Y14164745D01*
X5350969Y14147816D02*
X5384825D01*
X5367897D01*
Y14249384D01*
X5350969Y14232455D01*
X5435608Y14249384D02*
Y14181673D01*
X5469464Y14147816D01*
X5503320Y14181673D01*
Y14249384D01*
X5537176Y14147816D02*
Y14249384D01*
X5587959D01*
X5604887Y14232455D01*
Y14198599D01*
X5587959Y14181673D01*
X5537176D01*
X5571031D02*
X5604887Y14147816D01*
X5638743D02*
X5672599D01*
X5655671D01*
Y14249384D01*
X5638743Y14232455D01*
X8479405Y12377420D02*
X8513261D01*
X8496333D01*
Y12478987D01*
X8479405Y12462059D01*
X8564044Y12377420D02*
X8597900D01*
X8580972D01*
Y12478987D01*
X8564044Y12462059D01*
X8648684Y12478987D02*
Y12411276D01*
X8682539Y12377420D01*
X8716395Y12411276D01*
Y12478987D01*
X8496300Y12780428D02*
X8513228Y12763500D01*
X8547083D01*
X8564011Y12780428D01*
Y12848138D01*
X8547083Y12865067D01*
X8513228D01*
X8496300Y12848138D01*
Y12831210D01*
X8513228Y12814284D01*
X8564011D01*
X8597867Y12865067D02*
Y12797356D01*
X8631723Y12763500D01*
X8665579Y12797356D01*
Y12865067D01*
X8571631Y13329887D02*
X8503920D01*
Y13279103D01*
X8537776Y13296031D01*
X8554703D01*
X8571631Y13279103D01*
Y13245248D01*
X8554703Y13228320D01*
X8520848D01*
X8503920Y13245248D01*
X8605487Y13329887D02*
Y13262177D01*
X8639343Y13228320D01*
X8673199Y13262177D01*
Y13329887D01*
X4284980Y14079221D02*
X4217269D01*
X4183413Y14113075D01*
X4217269Y14146931D01*
X4284980D01*
X4234197D01*
Y14079221D01*
X4183413Y14180788D02*
X4284980D01*
Y14231570D01*
X4268052Y14248499D01*
X4200341D01*
X4183413Y14231570D01*
Y14180788D01*
X4793013Y14079221D02*
X4894580D01*
Y14130003D01*
X4877652Y14146931D01*
X4860724D01*
X4843797Y14130003D01*
Y14079221D01*
Y14130003D01*
X4826869Y14146931D01*
X4809941D01*
X4793013Y14130003D01*
Y14079221D01*
X4894580Y14180788D02*
X4793013D01*
Y14231570D01*
X4809941Y14248499D01*
X4843797D01*
X4860724Y14231570D01*
Y14180788D01*
X4809941Y14350066D02*
X4793013Y14333138D01*
Y14299281D01*
X4809941Y14282355D01*
X4826869D01*
X4843797Y14299281D01*
Y14333138D01*
X4860724Y14350066D01*
X4877652D01*
X4894580Y14333138D01*
Y14299281D01*
X4877652Y14282355D01*
X4009841Y14146931D02*
X3992913Y14130003D01*
Y14096149D01*
X4009841Y14079221D01*
X4077552D01*
X4094480Y14096149D01*
Y14130003D01*
X4077552Y14146931D01*
X4009841Y14248499D02*
X3992913Y14231570D01*
Y14197716D01*
X4009841Y14180788D01*
X4026769D01*
X4043697Y14197716D01*
Y14231570D01*
X4060624Y14248499D01*
X4077552D01*
X4094480Y14231570D01*
Y14197716D01*
X4077552Y14180788D01*
X4691380Y14091920D02*
Y14125777D01*
Y14108849D01*
X4589813D01*
X4606741Y14091920D01*
X4691380Y14244270D02*
Y14176559D01*
X4623669Y14244270D01*
X4606741D01*
X4589813Y14227344D01*
Y14193488D01*
X4606741Y14176559D01*
X4589813Y14278127D02*
X4657524D01*
X4691380Y14311983D01*
X4657524Y14345837D01*
X4589813D01*
X3806641Y14146931D02*
X3789713Y14130003D01*
Y14096149D01*
X3806641Y14079221D01*
X3874352D01*
X3891280Y14096149D01*
Y14130003D01*
X3874352Y14146931D01*
X3840497D01*
Y14113075D01*
X3891280Y14180788D02*
X3789713D01*
X3891280Y14248499D01*
X3789713D01*
Y14282355D02*
X3891280D01*
Y14333138D01*
X3874352Y14350066D01*
X3806641D01*
X3789713Y14333138D01*
Y14282355D01*
X8520831Y13744759D02*
X8503903Y13761687D01*
X8470048D01*
X8453120Y13744759D01*
Y13677048D01*
X8470048Y13660120D01*
X8503903D01*
X8520831Y13677048D01*
Y13710902D01*
X8486976D01*
X8554687Y13660120D02*
Y13761687D01*
X8622399Y13660120D01*
Y13761687D01*
X8656254D02*
Y13660120D01*
X8707038D01*
X8723966Y13677048D01*
Y13744759D01*
X8707038Y13761687D01*
X8656254D01*
X3526355Y13677959D02*
X3424788D01*
Y13728741D01*
X3441716Y13745670D01*
X3475572D01*
X3492500Y13728741D01*
Y13677959D01*
X3526355Y13779526D02*
Y13813380D01*
Y13796452D01*
X3424788D01*
Y13779526D01*
X3458644Y13864165D02*
X3509428D01*
X3526355Y13881091D01*
Y13931876D01*
X3458644D01*
X3560211Y13999586D02*
Y14016515D01*
X3543283Y14033443D01*
X3458644D01*
Y13982658D01*
X3475572Y13965732D01*
X3509428D01*
X3526355Y13982658D01*
Y14033443D01*
X6997749Y13914957D02*
X6980821Y13931883D01*
X6946966D01*
X6930038Y13914957D01*
Y13847244D01*
X6946966Y13830318D01*
X6980821D01*
X6997749Y13847244D01*
X7099316Y13830318D02*
X7031605D01*
X7099316Y13898029D01*
Y13914957D01*
X7082388Y13931883D01*
X7048533D01*
X7031605Y13914957D01*
X7133172Y13931883D02*
Y13864172D01*
X7167028Y13830318D01*
X7200883Y13864172D01*
Y13931883D01*
X7234739Y13830318D02*
Y13931883D01*
X7285523D01*
X7302451Y13914957D01*
Y13881100D01*
X7285523Y13864172D01*
X7234739D01*
X7268595D02*
X7302451Y13830318D01*
X7336307D02*
X7370162D01*
X7353234D01*
Y13931883D01*
X7336307Y13914957D01*
X3627956Y13013338D02*
Y12945625D01*
X3560244Y13013338D01*
X3543316D01*
X3526388Y12996410D01*
Y12962553D01*
X3543316Y12945625D01*
X3526388Y13047194D02*
X3594100D01*
X3627956Y13081049D01*
X3594100Y13114905D01*
X3526388D01*
X3627956Y13250328D02*
X3526388D01*
Y13301112D01*
X3543316Y13318039D01*
X3577172D01*
X3594100Y13301112D01*
Y13250328D01*
Y13284184D02*
X3627956Y13318039D01*
Y13402679D02*
Y13368823D01*
X3611028Y13351895D01*
X3577172D01*
X3560244Y13368823D01*
Y13402679D01*
X3577172Y13419608D01*
X3594100D01*
Y13351895D01*
X3661811Y13487318D02*
Y13504247D01*
X3644883Y13521175D01*
X3560244D01*
Y13470390D01*
X3577172Y13453464D01*
X3611028D01*
X3627956Y13470390D01*
Y13521175D01*
X5875970Y14215544D02*
X5909826D01*
X5892898D01*
Y14317113D01*
X5875970Y14300185D01*
X5960610Y14215544D02*
X5994466D01*
X5977538D01*
Y14317113D01*
X5960610Y14300185D01*
X6045249Y14317113D02*
Y14249400D01*
X6079105Y14215544D01*
X6112961Y14249400D01*
Y14317113D01*
X6248384Y14215544D02*
Y14317113D01*
X6299167D01*
X6316095Y14300185D01*
Y14266328D01*
X6299167Y14249400D01*
X6248384D01*
X6282239D02*
X6316095Y14215544D01*
X6400734D02*
X6366879D01*
X6349951Y14232472D01*
Y14266328D01*
X6366879Y14283257D01*
X6400734D01*
X6417662Y14266328D01*
Y14249400D01*
X6349951D01*
X6485374Y14181689D02*
X6502302D01*
X6519230Y14198618D01*
Y14283257D01*
X6468446D01*
X6451518Y14266328D01*
Y14232472D01*
X6468446Y14215544D01*
X6519230D01*
X6002938Y12547617D02*
Y12649184D01*
X6053721D01*
X6070649Y12632256D01*
Y12598400D01*
X6053721Y12581472D01*
X6002938D01*
X6036793D02*
X6070649Y12547617D01*
X6172216D02*
X6104505D01*
X6172216Y12615328D01*
Y12632256D01*
X6155288Y12649184D01*
X6121433D01*
X6104505Y12632256D01*
X6206072Y12649184D02*
Y12581472D01*
X6239928Y12547617D01*
X6273783Y12581472D01*
Y12649184D01*
X6307639Y12547617D02*
Y12649184D01*
X6358423D01*
X6375351Y12632256D01*
Y12598400D01*
X6358423Y12581472D01*
X6307639D01*
X6341495D02*
X6375351Y12547617D01*
X6409207D02*
X6443062D01*
X6426134D01*
Y12649184D01*
X6409207Y12632256D01*
X3407910Y11836417D02*
Y11937984D01*
X3458693D01*
X3475621Y11921056D01*
Y11887200D01*
X3458693Y11870272D01*
X3407910D01*
X3441766D02*
X3475621Y11836417D01*
X3577188D02*
X3509477D01*
X3577188Y11904128D01*
Y11921056D01*
X3560261Y11937984D01*
X3526405D01*
X3509477Y11921056D01*
X3611044Y11937984D02*
Y11870272D01*
X3644900Y11836417D01*
X3678756Y11870272D01*
Y11937984D01*
X3712612Y11836417D02*
Y11937984D01*
X3763395D01*
X3780323Y11921056D01*
Y11887200D01*
X3763395Y11870272D01*
X3712612D01*
X3746467D02*
X3780323Y11836417D01*
X3881890D02*
X3814179D01*
X3881890Y11904128D01*
Y11921056D01*
X3864962Y11937984D01*
X3831107D01*
X3814179Y11921056D01*
X6227261Y7937517D02*
Y8039084D01*
X6278044D01*
X6294972Y8022156D01*
Y7988300D01*
X6278044Y7971372D01*
X6227261D01*
X6261117D02*
X6294972Y7937517D01*
X6396539D02*
X6328828D01*
X6396539Y8005228D01*
Y8022156D01*
X6379612Y8039084D01*
X6345756D01*
X6328828Y8022156D01*
X4610117Y13119026D02*
X4711684D01*
Y13068243D01*
X4694756Y13051315D01*
X4660900D01*
X4643972Y13068243D01*
Y13119026D01*
Y13085170D02*
X4610117Y13051315D01*
Y13017459D02*
Y12983603D01*
Y13000531D01*
X4711684D01*
X4694756Y13017459D01*
X4711684Y12932819D02*
X4643972D01*
X4610117Y12898964D01*
X4643972Y12865108D01*
X4711684D01*
X4610117Y12831252D02*
X4711684D01*
Y12780469D01*
X4694756Y12763541D01*
X4660900D01*
X4643972Y12780469D01*
Y12831252D01*
Y12797397D02*
X4610117Y12763541D01*
Y12661974D02*
Y12729685D01*
X4677828Y12661974D01*
X4694756D01*
X4711684Y12678901D01*
Y12712757D01*
X4694756Y12729685D01*
X6900402Y14109717D02*
Y14211284D01*
X6951185D01*
X6968113Y14194356D01*
Y14160500D01*
X6951185Y14143571D01*
X6900402D01*
X6934257D02*
X6968113Y14109717D01*
X7001969D02*
X7035825D01*
X7018897D01*
Y14211284D01*
X7001969Y14194356D01*
X7086608Y14211284D02*
Y14143571D01*
X7120464Y14109717D01*
X7154320Y14143571D01*
Y14211284D01*
X7188176Y14109717D02*
Y14211284D01*
X7238959D01*
X7255887Y14194356D01*
Y14160500D01*
X7238959Y14143571D01*
X7188176D01*
X7222031D02*
X7255887Y14109717D01*
X7289743D02*
X7323599D01*
X7306671D01*
Y14211284D01*
X7289743Y14194356D01*
X4567789Y7975617D02*
Y8077184D01*
X4618572D01*
X4635500Y8060256D01*
Y8026400D01*
X4618572Y8009472D01*
X4567789D01*
X4601644D02*
X4635500Y7975617D01*
X4669356D02*
X4703212D01*
X4686284D01*
Y8077184D01*
X4669356Y8060256D01*
X6091756Y12234229D02*
X6108683Y12217301D01*
Y12183446D01*
X6091756Y12166518D01*
X6024044D01*
X6007116Y12183446D01*
Y12217301D01*
X6024044Y12234229D01*
X6091756D01*
X6007116Y12132662D02*
X6024044D01*
Y12115734D01*
X6007116D01*
Y12132662D01*
Y12048023D02*
Y12014167D01*
Y12031095D01*
X6108683D01*
X6091756Y12048023D01*
X6108683Y11963383D02*
X6040972D01*
X6007116Y11929528D01*
X6040972Y11895672D01*
X6108683D01*
X6007116Y11760249D02*
X6108683D01*
Y11709465D01*
X6091756Y11692537D01*
X6057900D01*
X6040972Y11709465D01*
Y11760249D01*
X6108683Y11590970D02*
X6091756Y11624826D01*
X6057900Y11658682D01*
X6024044D01*
X6007116Y11641754D01*
Y11607898D01*
X6024044Y11590970D01*
X6040972D01*
X6057900Y11607898D01*
Y11658682D01*
X7518917Y12124207D02*
X7620484D01*
X7569700Y12174990D01*
Y12107279D01*
X7620484Y12073423D02*
X7552772D01*
X7518917Y12039567D01*
X7552772Y12005712D01*
X7620484D01*
X7518917Y11870288D02*
X7620484D01*
Y11819505D01*
X7603556Y11802577D01*
X7569700D01*
X7552772Y11819505D01*
Y11870288D01*
X7518917Y11717938D02*
X7620484D01*
X7569700Y11768721D01*
Y11701010D01*
X6870684Y12179218D02*
Y12246930D01*
X6819900D01*
X6836828Y12213074D01*
Y12196146D01*
X6819900Y12179218D01*
X6786044D01*
X6769117Y12196146D01*
Y12230002D01*
X6786044Y12246930D01*
X6769117Y12145362D02*
X6786044D01*
Y12128434D01*
X6769117D01*
Y12145362D01*
Y12060723D02*
Y12026867D01*
Y12043795D01*
X6870684D01*
X6853756Y12060723D01*
X6870684Y11976083D02*
X6802972D01*
X6769117Y11942228D01*
X6802972Y11908372D01*
X6870684D01*
X6769117Y11772949D02*
X6870684D01*
Y11722166D01*
X6853756Y11705238D01*
X6819900D01*
X6802972Y11722166D01*
Y11772949D01*
X6853756Y11671382D02*
X6870684Y11654454D01*
Y11620598D01*
X6853756Y11603670D01*
X6836828D01*
X6819900Y11620598D01*
Y11637526D01*
Y11620598D01*
X6802972Y11603670D01*
X6786044D01*
X6769117Y11620598D01*
Y11654454D01*
X6786044Y11671382D01*
X8178784Y13732880D02*
Y13800591D01*
X8128000D01*
X8144928Y13766734D01*
Y13749808D01*
X8128000Y13732880D01*
X8094144D01*
X8077217Y13749808D01*
Y13783662D01*
X8094144Y13800591D01*
X8178784Y13699023D02*
X8111072D01*
X8077217Y13665167D01*
X8111072Y13631313D01*
X8178784D01*
X8077217Y13495888D02*
X8178784D01*
Y13445105D01*
X8161856Y13428177D01*
X8128000D01*
X8111072Y13445105D01*
Y13495888D01*
X8077217Y13326610D02*
Y13394321D01*
X8144928Y13326610D01*
X8161856D01*
X8178784Y13343538D01*
Y13377393D01*
X8161856Y13394321D01*
X5317056Y12280801D02*
X5333983Y12263874D01*
Y12230018D01*
X5317056Y12213090D01*
X5249344D01*
X5232416Y12230018D01*
Y12263874D01*
X5249344Y12280801D01*
X5317056D01*
X5232416Y12179234D02*
X5249344D01*
Y12162306D01*
X5232416D01*
Y12179234D01*
Y12094595D02*
Y12060739D01*
Y12077667D01*
X5333983D01*
X5317056Y12094595D01*
X5333983Y12009955D02*
X5266272D01*
X5232416Y11976100D01*
X5266272Y11942244D01*
X5333983D01*
X5232416Y11806821D02*
X5333983D01*
Y11756037D01*
X5317056Y11739110D01*
X5283200D01*
X5266272Y11756037D01*
Y11806821D01*
X5232416Y11705254D02*
Y11671398D01*
Y11688326D01*
X5333983D01*
X5317056Y11705254D01*
X6633644Y8508984D02*
X6599789D01*
X6582861Y8492056D01*
Y8424344D01*
X6599789Y8407417D01*
X6633644D01*
X6650572Y8424344D01*
Y8492056D01*
X6633644Y8508984D01*
X6684428Y8407417D02*
Y8508984D01*
X6735212D01*
X6752139Y8492056D01*
Y8458200D01*
X6735212Y8441272D01*
X6684428D01*
X6718284D02*
X6752139Y8407417D01*
X4080977Y10248917D02*
Y10350484D01*
X4148688Y10248917D01*
Y10350484D01*
X4233328D02*
X4199472D01*
X4182544Y10333556D01*
Y10265844D01*
X4199472Y10248917D01*
X4233328D01*
X4250256Y10265844D01*
Y10333556D01*
X4233328Y10350484D01*
X4284112Y10248917D02*
Y10350484D01*
X4334895D01*
X4351823Y10333556D01*
Y10299700D01*
X4334895Y10282772D01*
X4284112D01*
X4317967D02*
X4351823Y10248917D01*
X5533021Y9850956D02*
X5516093Y9867884D01*
X5482238D01*
X5465310Y9850956D01*
Y9783244D01*
X5482238Y9766317D01*
X5516093D01*
X5533021Y9783244D01*
X5617661Y9867884D02*
X5583805D01*
X5566877Y9850956D01*
Y9783244D01*
X5583805Y9766317D01*
X5617661D01*
X5634588Y9783244D01*
Y9850956D01*
X5617661Y9867884D01*
X5668444Y9766317D02*
Y9867884D01*
X5702300Y9834028D01*
X5736156Y9867884D01*
Y9766317D01*
X5770012D02*
Y9867884D01*
X5820795D01*
X5837723Y9850956D01*
Y9817100D01*
X5820795Y9800172D01*
X5770012D01*
X5871579Y9850956D02*
X5888507Y9867884D01*
X5922362D01*
X5939290Y9850956D01*
Y9834028D01*
X5922362Y9817100D01*
X5905434D01*
X5922362D01*
X5939290Y9800172D01*
Y9783244D01*
X5922362Y9766317D01*
X5888507D01*
X5871579Y9783244D01*
X7323721Y9838256D02*
X7306793Y9855184D01*
X7272938D01*
X7256010Y9838256D01*
Y9770544D01*
X7272938Y9753617D01*
X7306793D01*
X7323721Y9770544D01*
X7408361Y9855184D02*
X7374505D01*
X7357577Y9838256D01*
Y9770544D01*
X7374505Y9753617D01*
X7408361D01*
X7425288Y9770544D01*
Y9838256D01*
X7408361Y9855184D01*
X7459144Y9753617D02*
Y9855184D01*
X7493000Y9821328D01*
X7526856Y9855184D01*
Y9753617D01*
X7560712D02*
Y9855184D01*
X7611495D01*
X7628423Y9838256D01*
Y9804400D01*
X7611495Y9787472D01*
X7560712D01*
X7729990Y9753617D02*
X7662279D01*
X7729990Y9821328D01*
Y9838256D01*
X7713062Y9855184D01*
X7679207D01*
X7662279Y9838256D01*
X3556049Y10498656D02*
X3539121Y10515584D01*
X3505266D01*
X3488338Y10498656D01*
Y10430944D01*
X3505266Y10414017D01*
X3539121D01*
X3556049Y10430944D01*
X3640688Y10515584D02*
X3606833D01*
X3589905Y10498656D01*
Y10430944D01*
X3606833Y10414017D01*
X3640688D01*
X3657616Y10430944D01*
Y10498656D01*
X3640688Y10515584D01*
X3691472Y10414017D02*
Y10515584D01*
X3725328Y10481728D01*
X3759183Y10515584D01*
Y10414017D01*
X3793039D02*
Y10515584D01*
X3843823D01*
X3860751Y10498656D01*
Y10464800D01*
X3843823Y10447872D01*
X3793039D01*
X3894607Y10414017D02*
X3928462D01*
X3911534D01*
Y10515584D01*
X3894607Y10498656D01*
X4834521Y12708456D02*
X4817593Y12725384D01*
X4783738D01*
X4766810Y12708456D01*
Y12640744D01*
X4783738Y12623817D01*
X4817593D01*
X4834521Y12640744D01*
X4936088Y12623817D02*
X4868377D01*
X4936088Y12691528D01*
Y12708456D01*
X4919161Y12725384D01*
X4885305D01*
X4868377Y12708456D01*
X4969944Y12725384D02*
Y12657672D01*
X5003800Y12623817D01*
X5037656Y12657672D01*
Y12725384D01*
X5071512Y12623817D02*
Y12725384D01*
X5122295D01*
X5139223Y12708456D01*
Y12674600D01*
X5122295Y12657672D01*
X5071512D01*
X5105367D02*
X5139223Y12623817D01*
X5240790D02*
X5173079D01*
X5240790Y12691528D01*
Y12708456D01*
X5223862Y12725384D01*
X5190007D01*
X5173079Y12708456D01*
X5173144Y7996772D02*
X5156216Y7979844D01*
Y7945989D01*
X5173144Y7929061D01*
X5240856D01*
X5257783Y7945989D01*
Y7979844D01*
X5240856Y7996772D01*
X5257783Y8098339D02*
Y8030628D01*
X5190072Y8098339D01*
X5173144D01*
X5156216Y8081412D01*
Y8047556D01*
X5173144Y8030628D01*
X3064944Y12466988D02*
X3048017Y12450060D01*
Y12416205D01*
X3064944Y12399277D01*
X3132656Y12399277D01*
X3149584Y12416205D01*
Y12450060D01*
X3132656Y12466988D01*
X3149583Y12500844D02*
Y12534700D01*
Y12517772D01*
X3048016Y12517772D01*
X3064944Y12500844D01*
X3048016Y12585483D02*
X3115728Y12585484D01*
X3149583Y12619339D01*
X3115728Y12653195D01*
X3048016Y12653195D01*
X3149583Y12687051D02*
X3048016Y12687051D01*
Y12737834D01*
X3064944Y12754762D01*
X3098800Y12754762D01*
X3115728Y12737834D01*
Y12687051D01*
Y12720906D02*
X3149583Y12754762D01*
X3149583Y12856329D02*
X3149583Y12788618D01*
X3081872Y12856329D01*
X3064944Y12856329D01*
X3048016Y12839401D01*
X3048016Y12805547D01*
X3064944Y12788618D01*
X3657600Y8085656D02*
X3640672Y8102584D01*
X3606817D01*
X3589889Y8085656D01*
Y8017944D01*
X3606817Y8001017D01*
X3640672D01*
X3657600Y8017944D01*
X3691456Y8001017D02*
X3725312D01*
X3708384D01*
Y8102584D01*
X3691456Y8085656D01*
X2950677Y10248917D02*
Y10316628D01*
X2984533Y10350484D01*
X3018388Y10316628D01*
Y10248917D01*
Y10299700D01*
X2950677D01*
X3052244Y10248917D02*
Y10350484D01*
X3119956Y10248917D01*
Y10350484D01*
X3153812D02*
Y10248917D01*
X3204595D01*
X3221523Y10265844D01*
Y10333556D01*
X3204595Y10350484D01*
X3153812D01*
D51*
X6946900Y7873934D02*
Y7670800D01*
X7048467D01*
X7082323Y7704656D01*
Y7738511D01*
X7048467Y7772367D01*
X6946900D01*
X7048467D01*
X7082323Y7806223D01*
Y7840079D01*
X7048467Y7873934D01*
X6946900D01*
X7285457Y7840079D02*
X7251601Y7873934D01*
X7183890D01*
X7150034Y7840079D01*
Y7806223D01*
X7183890Y7772367D01*
X7251601D01*
X7285457Y7738511D01*
Y7704656D01*
X7251601Y7670800D01*
X7183890D01*
X7150034Y7704656D01*
X7353168Y7670800D02*
Y7873934D01*
X7454736D01*
X7488591Y7840079D01*
Y7772367D01*
X7454736Y7738511D01*
X7353168D01*
X7556303Y7873934D02*
Y7670800D01*
X7657870D01*
X7691726Y7704656D01*
Y7840079D01*
X7657870Y7873934D01*
X7556303D01*
X7759437Y7806223D02*
X7827148Y7670800D01*
X7894860Y7806223D01*
X8097994Y7670800D02*
X7962571D01*
X8097994Y7806223D01*
Y7840079D01*
X8064138Y7873934D01*
X7996427D01*
X7962571Y7840079D01*
D52*
X8293117Y12090359D02*
X8267725Y12064967D01*
Y12014183D01*
X8293117Y11988792D01*
X8394683D01*
X8420075Y12014183D01*
Y12064967D01*
X8394683Y12090359D01*
X8369292D01*
X8343900Y12064967D01*
Y11988792D01*
X8420075Y11938008D02*
X8318508D01*
X8267725Y11887225D01*
X8318508Y11836441D01*
X8420075D01*
X6242050Y11116310D02*
Y11268661D01*
X6318225D01*
X6343617Y11243269D01*
Y11192485D01*
X6318225Y11167093D01*
X6242050D01*
X6292833D02*
X6343617Y11116310D01*
X6394401Y11243269D02*
X6419793Y11268661D01*
X6470576D01*
X6495968Y11243269D01*
Y11217877D01*
X6470576Y11192485D01*
X6495968Y11167093D01*
Y11141702D01*
X6470576Y11116310D01*
X6419793D01*
X6394401Y11141702D01*
Y11167093D01*
X6419793Y11192485D01*
X6394401Y11217877D01*
Y11243269D01*
X6419793Y11192485D02*
X6470576D01*
X4857750Y11103610D02*
Y11255961D01*
X4933925D01*
X4959317Y11230569D01*
Y11179785D01*
X4933925Y11154393D01*
X4857750D01*
X4908533D02*
X4959317Y11103610D01*
X5010101Y11255961D02*
X5111668D01*
Y11230569D01*
X5010101Y11129002D01*
Y11103610D01*
X8070850Y11116310D02*
Y11268661D01*
X8147025D01*
X8172417Y11243269D01*
Y11192485D01*
X8147025Y11167093D01*
X8070850D01*
X8121633D02*
X8172417Y11116310D01*
X8324768Y11268661D02*
X8273984Y11243269D01*
X8223201Y11192485D01*
Y11141702D01*
X8248593Y11116310D01*
X8299376D01*
X8324768Y11141702D01*
Y11167093D01*
X8299376Y11192485D01*
X8223201D01*
X6661150Y11116310D02*
Y11268661D01*
X6737325D01*
X6762717Y11243269D01*
Y11192485D01*
X6737325Y11167093D01*
X6661150D01*
X6711933D02*
X6762717Y11116310D01*
X6915068Y11268661D02*
X6813501D01*
Y11192485D01*
X6864284Y11217877D01*
X6889676D01*
X6915068Y11192485D01*
Y11141702D01*
X6889676Y11116310D01*
X6838893D01*
X6813501Y11141702D01*
X4305341Y11722125D02*
Y11874475D01*
X4381517D01*
X4406908Y11849083D01*
Y11798300D01*
X4381517Y11772908D01*
X4305341D01*
X4356125D02*
X4406908Y11722125D01*
X4533867D02*
Y11874475D01*
X4457692Y11798300D01*
X4559259D01*
X2895641Y11709425D02*
Y11861775D01*
X2971817D01*
X2997208Y11836383D01*
Y11785600D01*
X2971817Y11760208D01*
X2895641D01*
X2946425D02*
X2997208Y11709425D01*
X3047992Y11836383D02*
X3073384Y11861775D01*
X3124167D01*
X3149559Y11836383D01*
Y11810992D01*
X3124167Y11785600D01*
X3098775D01*
X3124167D01*
X3149559Y11760208D01*
Y11734817D01*
X3124167Y11709425D01*
X3073384D01*
X3047992Y11734817D01*
%TF.MD5,050df3a80560a2da078d0d416d11cdb2*%
M02*
