%TF.GenerationSoftware,Altium Limited,Altium Designer,25.1.2 (22)*%
G04 Layer_Physical_Order=5*
G04 Layer_Color=128*
%FSLAX45Y45*%
%MOMM*%
%TF.SameCoordinates,865E584C-48B1-4366-BF19-9A83E66404FA*%
%TF.FilePolarity,Negative*%
%TF.FileFunction,Copper,L5,Inr,Plane*%
%TF.Part,Single*%
G01*
G75*
%TA.AperFunction,NonConductor*%
%ADD25C,1.01600*%
%TA.AperFunction,ComponentPad*%
%ADD26C,1.71600*%
%ADD27C,1.91600*%
G04:AMPARAMS|DCode=28|XSize=2.274mm|YSize=2.274mm|CornerRadius=0mm|HoleSize=0mm|Usage=FLASHONLY|Rotation=0.000|XOffset=0mm|YOffset=0mm|HoleType=Round|Shape=Relief|Width=0.254mm|Gap=0.254mm|Entries=4|*
%AMTHD28*
7,0,0,2.27400,1.76600,0.25400,45*
%
%ADD28THD28*%
%ADD29C,1.76600*%
G04:AMPARAMS|DCode=30|XSize=2.424mm|YSize=2.424mm|CornerRadius=0mm|HoleSize=0mm|Usage=FLASHONLY|Rotation=0.000|XOffset=0mm|YOffset=0mm|HoleType=Round|Shape=Relief|Width=0.254mm|Gap=0.254mm|Entries=4|*
%AMTHD30*
7,0,0,2.42400,1.91600,0.25400,45*
%
%ADD30THD30*%
%TA.AperFunction,ViaPad*%
%ADD31C,4.01600*%
%TA.AperFunction,ComponentPad*%
G04:AMPARAMS|DCode=32|XSize=2.224mm|YSize=2.224mm|CornerRadius=0mm|HoleSize=0mm|Usage=FLASHONLY|Rotation=0.000|XOffset=0mm|YOffset=0mm|HoleType=Round|Shape=Relief|Width=0.254mm|Gap=0.254mm|Entries=4|*
%AMTHD32*
7,0,0,2.22400,1.71600,0.25400,45*
%
%ADD32THD32*%
%ADD33C,2.21600*%
%ADD34C,1.86600*%
%TA.AperFunction,ViaPad*%
%ADD35C,1.72720*%
G04:AMPARAMS|DCode=36|XSize=2.2352mm|YSize=2.2352mm|CornerRadius=0mm|HoleSize=0mm|Usage=FLASHONLY|Rotation=0.000|XOffset=0mm|YOffset=0mm|HoleType=Round|Shape=Relief|Width=0.254mm|Gap=0.254mm|Entries=4|*
%AMTHD36*
7,0,0,2.23520,1.72720,0.25400,45*
%
%ADD36THD36*%
D25*
X8839200Y7480300D02*
Y14478000D01*
X2514600Y7480300D02*
X8839200D01*
X2514600D02*
Y14478000D01*
X8839200D01*
D26*
X7937500Y11938000D02*
D03*
Y11684000D02*
D03*
X4914900Y11925300D02*
D03*
Y11671300D02*
D03*
X4843400Y13847200D02*
D03*
X4643400D02*
D03*
X4443400D02*
D03*
X4243400D02*
D03*
X4043400D02*
D03*
X5689600Y11684000D02*
D03*
Y11938000D02*
D03*
X7201400Y11684000D02*
D03*
Y11938000D02*
D03*
X5461000Y13929898D02*
D03*
X3390900Y12763500D02*
D03*
X7137400Y13673900D02*
D03*
X4953001Y12869098D02*
D03*
X7747000Y13106400D02*
D03*
Y13360400D02*
D03*
X6451600Y11684000D02*
D03*
Y11938000D02*
D03*
X5473700Y7763698D02*
D03*
X3932999Y7797800D02*
D03*
D27*
X3835400Y9461500D02*
D03*
Y9207500D02*
D03*
X4597400D02*
D03*
Y8953500D02*
D03*
Y8699500D02*
D03*
Y8445500D02*
D03*
X3835400D02*
D03*
X5092700Y8674100D02*
D03*
X5346700D02*
D03*
X5600700D02*
D03*
X5854700D02*
D03*
X6108700D02*
D03*
X6362700D02*
D03*
X5092700Y9436100D02*
D03*
X5854700D02*
D03*
X6108700D02*
D03*
X6362700D02*
D03*
X6616700D02*
D03*
X2705100Y9461500D02*
D03*
Y9207500D02*
D03*
Y8445500D02*
D03*
X3467100Y9207500D02*
D03*
Y8953500D02*
D03*
Y8699500D02*
D03*
Y8445500D02*
D03*
X5283200Y10833100D02*
D03*
Y10579100D02*
D03*
Y10325100D02*
D03*
X6045200Y10833100D02*
D03*
Y10579100D02*
D03*
Y10325100D02*
D03*
Y10071100D02*
D03*
X7874000Y10058400D02*
D03*
Y10312400D02*
D03*
Y10566400D02*
D03*
Y10820400D02*
D03*
X7112000Y10312400D02*
D03*
Y10566400D02*
D03*
Y10820400D02*
D03*
X3340100Y11468100D02*
D03*
Y11214100D02*
D03*
Y10960100D02*
D03*
X4102100Y11468100D02*
D03*
Y11214100D02*
D03*
Y10960100D02*
D03*
Y10706100D02*
D03*
D28*
X3094101Y12115801D02*
D03*
X5710301Y12839700D02*
D03*
D29*
X3009900Y11587100D02*
D03*
Y10587100D02*
D03*
X4432300Y11599800D02*
D03*
Y10599800D02*
D03*
X6781800Y10952100D02*
D03*
Y9952100D02*
D03*
X8191500Y10952100D02*
D03*
Y9952100D02*
D03*
X4978400Y10939400D02*
D03*
Y9939400D02*
D03*
X6362700Y10952100D02*
D03*
Y9952100D02*
D03*
X4432299Y12365102D02*
D03*
Y13365100D02*
D03*
X4094099Y12115801D02*
D03*
X6705600Y14139799D02*
D03*
Y13139803D02*
D03*
X6710299Y12839700D02*
D03*
D30*
X3835400Y9969500D02*
D03*
Y9715500D02*
D03*
Y8953500D02*
D03*
Y8699500D02*
D03*
X4597400Y9715500D02*
D03*
Y9461500D02*
D03*
Y9969500D02*
D03*
X6616700Y8674100D02*
D03*
X5346700Y9436100D02*
D03*
X5600700D02*
D03*
X2705100Y9969500D02*
D03*
Y9715500D02*
D03*
Y8953500D02*
D03*
Y8699500D02*
D03*
X3467100Y9969500D02*
D03*
Y9715500D02*
D03*
Y9461500D02*
D03*
X5283200Y10071100D02*
D03*
X7112000Y10058400D02*
D03*
X3340100Y10706100D02*
D03*
D31*
X2997200Y7874000D02*
D03*
X8382000D02*
D03*
Y14020799D02*
D03*
X2997200D02*
D03*
D32*
X7937500Y12192000D02*
D03*
X4914900Y12179300D02*
D03*
X3843400Y13847200D02*
D03*
X5689600Y12192000D02*
D03*
X7201400D02*
D03*
X5461000Y13679903D02*
D03*
X3390900Y12513503D02*
D03*
X7137400Y13173901D02*
D03*
X4953001Y13369102D02*
D03*
X7747000Y13614400D02*
D03*
X6451600Y12192000D02*
D03*
X5473700Y8263702D02*
D03*
X3433000Y7797800D02*
D03*
D33*
X6248400Y13360400D02*
D03*
Y13614400D02*
D03*
Y13868401D02*
D03*
X4000499Y12661900D02*
D03*
Y12915900D02*
D03*
Y13169901D02*
D03*
D34*
X6761902Y7759700D02*
D03*
X5861898D02*
D03*
X5085502Y7797800D02*
D03*
X4185498D02*
D03*
D35*
X8585200Y12230100D02*
D03*
Y12636500D02*
D03*
Y13081000D02*
D03*
D36*
Y13512801D02*
D03*
%TF.MD5,4778968d5312095a55f2fbac97bae458*%
M02*
