%TF.GenerationSoftware,Altium Limited,Altium Designer,25.1.2 (22)*%
G04 Layer_Color=8388736*
%FSLAX45Y45*%
%MOMM*%
%TF.SameCoordinates,048E6D36-8505-433D-A829-9FA65E1B61E1*%
%TF.FilePolarity,Negative*%
%TF.FileFunction,Soldermask,Top*%
%TF.Part,Single*%
G01*
G75*
%TA.AperFunction,ComponentPad*%
%ADD11C,1.25000*%
%ADD12R,1.25000X1.25000*%
%ADD13C,1.20000*%
%ADD14R,1.20000X1.20000*%
%ADD17R,1.25000X1.25000*%
%ADD18P,1.76777X4X360.0*%
%ADD21R,1.20000X1.20000*%
%ADD42C,1.70320*%
%ADD43R,1.70320X1.70320*%
%ADD44R,1.70320X1.70320*%
%TA.AperFunction,ViaPad*%
%ADD45C,1.72720*%
%TA.AperFunction,ComponentPad*%
%ADD46R,2.00320X2.00320*%
%ADD47C,2.00320*%
%ADD48R,1.55320X1.55320*%
%ADD49C,1.55320*%
%ADD50R,1.55320X1.55320*%
D11*
X338200Y6134100D02*
D03*
X469900Y5643500D02*
D03*
X1892300Y5656200D02*
D03*
X4493754Y2503946D02*
D03*
X3949700Y4843400D02*
D03*
X482600Y3284600D02*
D03*
X1930400Y2763900D02*
D03*
X4102100Y6659500D02*
D03*
X4554601Y5930900D02*
D03*
D12*
X1338200Y6134100D02*
D03*
X5554599Y5930900D02*
D03*
D13*
X2552200Y5029200D02*
D03*
Y5283200D02*
D03*
X2136700Y6743700D02*
D03*
X1936700D02*
D03*
X1736700D02*
D03*
X1536700D02*
D03*
X1336700D02*
D03*
X3441202Y4965700D02*
D03*
Y4711700D02*
D03*
X5676900Y4965700D02*
D03*
Y4711700D02*
D03*
X2946400Y6352002D02*
D03*
X4999799Y6667500D02*
D03*
X4622800Y4965700D02*
D03*
Y4711700D02*
D03*
X3416300Y296098D02*
D03*
X1058100Y622300D02*
D03*
D14*
X2552200Y5537200D02*
D03*
X1136700Y6743700D02*
D03*
X3441202Y5219700D02*
D03*
X5676900D02*
D03*
X4499800Y6667500D02*
D03*
X4622800Y5219700D02*
D03*
X1558099Y622300D02*
D03*
D17*
X469900Y4643500D02*
D03*
X1892300Y4656200D02*
D03*
X3949700Y3843400D02*
D03*
X482600Y4284600D02*
D03*
X1930400Y3763900D02*
D03*
X4102100Y5659502D02*
D03*
D18*
X3786646Y3211054D02*
D03*
D21*
X2946400Y6601998D02*
D03*
X3416300Y796102D02*
D03*
D42*
X2133600Y1231900D02*
D03*
X2387600D02*
D03*
X2641600D02*
D03*
X2895600D02*
D03*
X3149600D02*
D03*
X3403600D02*
D03*
X2387600Y1993900D02*
D03*
X2641600D02*
D03*
X2895600D02*
D03*
X3149600D02*
D03*
X3403600D02*
D03*
X3657600Y1231900D02*
D03*
X2133600Y1993900D02*
D03*
X3276600Y2819400D02*
D03*
Y3073400D02*
D03*
Y3327400D02*
D03*
Y3581400D02*
D03*
Y3835400D02*
D03*
Y4089400D02*
D03*
X2514600Y2565400D02*
D03*
Y2819400D02*
D03*
Y3073400D02*
D03*
Y3327400D02*
D03*
Y3581400D02*
D03*
Y3835400D02*
D03*
Y4089400D02*
D03*
X342900Y2616200D02*
D03*
Y2362200D02*
D03*
Y2108200D02*
D03*
Y1854200D02*
D03*
Y1600200D02*
D03*
Y1346200D02*
D03*
Y1092200D02*
D03*
X1104900Y2616200D02*
D03*
Y2362200D02*
D03*
Y2108200D02*
D03*
Y1854200D02*
D03*
Y1600200D02*
D03*
Y1346200D02*
D03*
X787400Y3759200D02*
D03*
Y3505200D02*
D03*
Y3251200D02*
D03*
X1549400Y4013200D02*
D03*
Y3759200D02*
D03*
Y3505200D02*
D03*
Y3251200D02*
D03*
X5143500Y3975100D02*
D03*
X4889500D02*
D03*
X4635500D02*
D03*
X4381500D02*
D03*
X5143500Y3213100D02*
D03*
X4889500D02*
D03*
X4635500D02*
D03*
X800100Y5270500D02*
D03*
Y5016500D02*
D03*
Y4762500D02*
D03*
X1562100Y5524500D02*
D03*
Y5270500D02*
D03*
Y5016500D02*
D03*
Y4762500D02*
D03*
D43*
X3657600Y1993900D02*
D03*
X4381500Y3213100D02*
D03*
D44*
X3276600Y2565400D02*
D03*
X1104900Y1092200D02*
D03*
X787400Y4013200D02*
D03*
X800100Y5524500D02*
D03*
D45*
X482600Y393700D02*
D03*
X5867400D02*
D03*
Y6540500D02*
D03*
X482600D02*
D03*
D46*
X3644900Y5969000D02*
D03*
D47*
Y6223000D02*
D03*
Y6477000D02*
D03*
D48*
X4140200Y2088302D02*
D03*
D49*
Y1188298D02*
D03*
X1886798Y520700D02*
D03*
D50*
X2786802D02*
D03*
%TF.MD5,f483ac580cecab7bee559ebd80e746b9*%
M02*
