%TF.GenerationSoftware,Altium Limited,Altium Designer,25.1.2 (22)*%
G04 Layer_Physical_Order=4*
G04 Layer_Color=16711680*
%FSLAX45Y45*%
%MOMM*%
%TF.SameCoordinates,0B3AA91C-04DE-403C-A5D4-43E2D843388D*%
%TF.FilePolarity,Positive*%
%TF.FileFunction,Copper,L4,Bot,Signal*%
%TF.Part,Single*%
G01*
G75*
%TA.AperFunction,Conductor*%
%ADD11C,0.30480*%
%TA.AperFunction,ViaPad*%
%ADD12C,1.52400*%
%TA.AperFunction,ComponentPad*%
%ADD17C,2.99000*%
%ADD20O,1.53000X1.52999*%
%ADD22C,1.30800*%
%ADD23C,1.25800*%
%ADD24C,1.20800*%
%TA.AperFunction,ViaPad*%
%ADD26C,1.27000*%
%ADD29C,0.71120*%
%ADD30C,1.90500*%
%TA.AperFunction,ComponentPad*%
%ADD31R,1.90500X2.54000*%
%ADD32O,1.90500X2.54000*%
%ADD33R,1.90500X2.54000*%
%ADD34O,1.90500X2.54000*%
%ADD35C,3.30200*%
%ADD36R,3.30200X3.30200*%
%ADD37O,2.54000X1.52999*%
%ADD38O,2.54000X1.52400*%
%ADD39O,1.90500X5.08000*%
%ADD40R,2.54000X1.90500*%
%ADD41O,2.54000X1.90500*%
D11*
X7213600Y4330700D02*
X7594600Y3949700D01*
X7213600Y4330700D02*
Y6972300D01*
X7531100Y7289800D01*
Y8102600D01*
X4603000Y5740400D02*
X5384800D01*
X4381900Y5519300D02*
X4603000Y5740400D01*
X5025465Y5082865D02*
X5222565D01*
X5867400Y5727700D02*
X6070600D01*
X5222565Y5082865D02*
X5867400Y5727700D01*
X5194300Y5295900D02*
X5880100Y5981700D01*
X4603500Y5295900D02*
X5194300D01*
X5880100Y5981700D02*
X6070600D01*
X5016900Y5074300D02*
X5025465Y5082865D01*
X4655220Y6237620D02*
X5628020D01*
X5880100Y6489700D02*
X6070600D01*
X5628020Y6237620D02*
X5880100Y6489700D01*
Y6235700D02*
X6070600D01*
X5867400Y6223000D02*
X5880100Y6235700D01*
X5867400Y6222850D02*
Y6223000D01*
X5384875Y5740325D02*
X5867400Y6222850D01*
X5384800Y5740400D02*
X5384875Y5740325D01*
X3302000Y13582001D02*
X4381900Y14661900D01*
X5499100Y11118850D02*
Y12331281D01*
X5918200Y12750381D01*
X7454900D01*
X7797800Y12407481D01*
Y12014200D02*
Y12407481D01*
X5902325Y11268075D02*
X5905500Y11264900D01*
X6159500D01*
X5902325Y11268075D02*
X6489700Y11855450D01*
X6159500Y11264900D02*
X7461250D01*
X7073900Y9829800D02*
X7404100Y9499600D01*
X5803900Y9829800D02*
X7073900D01*
X5435600D02*
X5803900D01*
X6261100Y7340600D02*
Y8115300D01*
X6002775Y8110975D02*
X6007100Y8115300D01*
X6002775Y7522725D02*
Y8110975D01*
X5998449Y7518400D02*
X6002775Y7522725D01*
X5981700Y10401300D02*
Y10617200D01*
X5740400Y10160000D02*
X5981700Y10401300D01*
X6235700Y10134600D02*
Y10617200D01*
X3302000Y9982200D02*
Y13582001D01*
X3111500Y9702800D02*
Y13836501D01*
X4381900Y15106900D01*
X3111500Y9702800D02*
X6070600Y6743700D01*
X3302000Y9982200D02*
X4711700Y8572500D01*
X6654800Y2857500D02*
X10731500D01*
X10972800Y3098800D02*
Y8928100D01*
X10731500Y2857500D02*
X10972800Y3098800D01*
X6070600Y3441700D02*
X6654800Y2857500D01*
X10642600Y9258300D02*
X10972800Y8928100D01*
X6070600Y6235700D02*
X6096000D01*
X5829300Y4076700D02*
X6210300D01*
X5676750Y4229250D02*
Y4543774D01*
Y4229250D02*
X5829300Y4076700D01*
X6210300D02*
X7289800Y2997200D01*
X5676750Y4543774D02*
X5844676Y4711700D01*
X6070600D01*
X7289800Y2997200D02*
X7708900D01*
X5511800Y3632200D02*
X5829300Y3949700D01*
X7708900Y2997200D02*
X7962900Y3251200D01*
X5359400Y12847636D02*
X5999164Y13487399D01*
X6578600D01*
X7166800Y14075600D01*
Y14414500D01*
X4051300Y17894299D02*
Y18625101D01*
X7416800Y13093700D02*
X10642600Y9867900D01*
Y9258300D02*
Y9867900D01*
X7416800Y13093700D02*
Y14414500D01*
X11468100Y8026400D02*
Y8670200D01*
X11649800Y8851900D01*
X11480800Y4876800D02*
X11620500Y5016500D01*
X11480800Y4610100D02*
Y4876800D01*
X5829300Y3949700D02*
X6070600D01*
X7962900Y3251200D02*
Y6756400D01*
X8534400Y7327900D01*
Y8394700D01*
X8356600Y8572500D02*
X8534400Y8394700D01*
X4711700Y8572500D02*
X8356600D01*
X4096900Y10510400D02*
X4381900D01*
X3962400Y10375900D02*
X4096900Y10510400D01*
X3962400Y9918700D02*
Y10375900D01*
X4102100Y9956800D02*
X4381500Y9677400D01*
X4102100Y10185400D02*
X4203700Y10287000D01*
X4102100Y9956800D02*
Y10185400D01*
X4203700Y10287000D02*
X4597400D01*
X4686300Y10375900D01*
Y10651000D01*
X4381900Y10955400D02*
X4686300Y10651000D01*
X12217400Y11887200D02*
X13093700Y12763500D01*
Y13455499D01*
X4407400Y18435201D02*
X6469500D01*
X9207500Y15494000D02*
Y15697200D01*
X6469500Y18435201D02*
X9207500Y15697200D01*
X9131300Y14935201D02*
X9461500Y15265401D01*
X8902700Y14935201D02*
X9131300D01*
X9461500Y15265401D02*
Y15494000D01*
X7166800Y14778799D02*
Y14778801D01*
X7166800Y14414500D02*
Y14778799D01*
X4051300Y17894299D02*
X7166800Y14778801D01*
Y14778799D02*
X7166800Y14778799D01*
X4381900Y5074300D02*
X4603500Y5295900D01*
X12566000Y5016500D02*
X12788500Y5239000D01*
X11620500Y5016500D02*
X12566000D01*
X5715000Y10337800D02*
Y11080750D01*
X4681000Y9817100D02*
X5194300D01*
X5715000Y10337800D01*
X4381500Y9677400D02*
X5283200D01*
X3962400Y9918700D02*
X4724400Y9156700D01*
X4051300Y18625101D02*
X4407400Y18981200D01*
X12750400Y18091100D02*
X13119099Y17722400D01*
Y16903700D02*
Y17722400D01*
X9906000Y13690601D02*
X13119099Y16903700D01*
X5499100Y11118850D02*
X6235700Y11855450D01*
X11314300Y18981200D02*
X12750400Y17545100D01*
X4407400Y18981200D02*
X11314300D01*
X5359400Y10802100D02*
Y12847636D01*
X12775800Y13773399D02*
X13093700Y13455499D01*
X11649800Y8851900D02*
X12331700D01*
X12496800Y9017000D01*
Y9284200D01*
X12814301Y9601700D01*
X8750300Y13429601D02*
X8757300Y13436600D01*
X8750300Y12725400D02*
Y13429601D01*
X10401300Y8496300D02*
X10642600D01*
X7989570Y10266680D02*
X8630920D01*
X10401300Y8496300D01*
X7816850Y10185400D02*
X8432800D01*
X10375900Y8242300D01*
X10642600D01*
X5892800Y8877300D02*
X7569200D01*
X5613400Y9156700D02*
X5892800Y8877300D01*
X7569200D02*
X8039100Y9347200D01*
X4724400Y9156700D02*
X5613400D01*
X7543800Y10458450D02*
X7816850Y10185400D01*
X7797800Y10458450D02*
X7989570Y10266680D01*
X5613400Y9156700D02*
X6318250D01*
X6515100Y9353550D02*
Y9512300D01*
X6318250Y9156700D02*
X6515100Y9353550D01*
X5283200Y9677400D02*
X5435600Y9829800D01*
X5283200Y9677400D02*
X5930900D01*
X5715000Y11080750D02*
X5902325Y11268075D01*
X7461250Y11264900D02*
X8051800Y11855450D01*
X5067700Y10510400D02*
X5359400Y10802100D01*
X5499100Y10496800D02*
Y11118850D01*
X8757300Y13690601D02*
X9906000D01*
X4381900Y5964300D02*
X4655220Y6237620D01*
X5067700Y10065400D02*
X5499100Y10496800D01*
X4432700Y10065400D02*
X4681000Y9817100D01*
X5930900Y9677400D02*
X6096000Y9512300D01*
X6489700Y11855450D02*
Y12014200D01*
X7797800Y10458450D02*
Y10617200D01*
X7543800Y10458450D02*
Y10617200D01*
X8051800Y11855450D02*
Y12014200D01*
X7785100Y3886200D02*
Y8102600D01*
X7594600Y3695700D02*
X7785100Y3886200D01*
X7404100Y9499600D02*
X7785100D01*
X6096000Y9512300D02*
X6261100D01*
X8039100Y9347200D02*
Y9499600D01*
D12*
X3175000Y2667000D02*
D03*
X13906500D02*
D03*
Y21158200D02*
D03*
X3175000D02*
D03*
D17*
X13385800Y5016500D02*
D03*
X12242800Y4151500D02*
D03*
Y5881500D02*
D03*
X13385800Y9385300D02*
D03*
X12242800Y8520300D02*
D03*
Y10250300D02*
D03*
X13385800Y13550900D02*
D03*
X12242800Y12685900D02*
D03*
Y14415900D02*
D03*
X3771900Y10510400D02*
D03*
X4914900Y11597400D02*
D03*
Y9423400D02*
D03*
X3771900Y18694400D02*
D03*
X4571900Y19609900D02*
D03*
Y17778900D02*
D03*
X13385800Y17818100D02*
D03*
X12585800Y16902600D02*
D03*
Y18733600D02*
D03*
X3771900Y14884399D02*
D03*
X4914900Y15749400D02*
D03*
Y14019400D02*
D03*
Y4432300D02*
D03*
Y6606300D02*
D03*
X3771900Y5519300D02*
D03*
D20*
X7340600Y6743700D02*
D03*
X7086600D02*
D03*
X6832600D02*
D03*
X6578600D02*
D03*
X6324600D02*
D03*
D22*
X10134600Y4686300D02*
D03*
X10388600Y9004300D02*
D03*
Y4686300D02*
D03*
X9880600D02*
D03*
X9626600D02*
D03*
X9372600D02*
D03*
D23*
X9423600Y7607300D02*
D03*
Y7861300D02*
D03*
Y8115300D02*
D03*
Y8369300D02*
D03*
Y8623300D02*
D03*
D24*
X9997600Y7961300D02*
D03*
X10197600D02*
D03*
X9997600Y7761300D02*
D03*
X10197600D02*
D03*
X10397600Y7961300D02*
D03*
Y7761300D02*
D03*
D26*
X6261100Y7340600D02*
D03*
X5998449Y7518400D02*
D03*
X6235700Y10134600D02*
D03*
X5740400Y10160000D02*
D03*
X5511800Y3632200D02*
D03*
X11468100Y8026400D02*
D03*
X11480800Y4610100D02*
D03*
X12217400Y11887200D02*
D03*
X8750300Y12725400D02*
D03*
X8902700Y14935201D02*
D03*
D29*
X11506200Y9245600D02*
D03*
X11912600Y3429000D02*
D03*
X9372600Y9804400D02*
D03*
D30*
X5803900Y9829800D02*
D03*
X7404100Y9499600D02*
D03*
X7569200Y8877300D02*
D03*
X5892800D02*
D03*
X7461250Y11264900D02*
D03*
X6159500D02*
D03*
X7454900Y12750800D02*
D03*
X5918200D02*
D03*
D31*
X6916800Y14414500D02*
D03*
D32*
X7166800D02*
D03*
X7416800D02*
D03*
X7666800D02*
D03*
D33*
X9461500Y15494000D02*
D03*
D34*
X9207500D02*
D03*
X8953500D02*
D03*
D35*
X12775800Y4794000D02*
D03*
Y5239000D02*
D03*
X12140800D02*
D03*
X12775800Y9162800D02*
D03*
Y9607800D02*
D03*
X12140800D02*
D03*
X12775800Y13328400D02*
D03*
Y13773399D02*
D03*
X12140800D02*
D03*
X4381900Y10955400D02*
D03*
Y10065400D02*
D03*
X5016900Y10510400D02*
D03*
Y10065400D02*
D03*
X4381900Y10510400D02*
D03*
Y18421400D02*
D03*
X12775800Y18091100D02*
D03*
X4381900Y15106900D02*
D03*
Y14661900D02*
D03*
X5016900D02*
D03*
X4381900Y5519300D02*
D03*
X5016900Y5074300D02*
D03*
Y5519300D02*
D03*
X4381900Y5074300D02*
D03*
Y5964300D02*
D03*
D36*
X12140800Y4794000D02*
D03*
Y9162800D02*
D03*
Y13328400D02*
D03*
X5016900Y10955400D02*
D03*
X4381900Y18967400D02*
D03*
X12775800Y17545100D02*
D03*
X5016900Y15106900D02*
D03*
Y5964300D02*
D03*
D37*
X7594600Y6743700D02*
D03*
Y6489700D02*
D03*
Y6235700D02*
D03*
Y5981700D02*
D03*
Y5727700D02*
D03*
Y5473700D02*
D03*
Y5219700D02*
D03*
Y4965700D02*
D03*
Y4711700D02*
D03*
Y4457700D02*
D03*
Y4203700D02*
D03*
Y3949700D02*
D03*
Y3695700D02*
D03*
Y3441700D02*
D03*
X6070600Y6743700D02*
D03*
Y6489700D02*
D03*
Y6235700D02*
D03*
Y5981700D02*
D03*
Y5727700D02*
D03*
Y4711700D02*
D03*
Y3949700D02*
D03*
Y3695700D02*
D03*
Y3441700D02*
D03*
D38*
Y5473700D02*
D03*
Y5219700D02*
D03*
Y4965700D02*
D03*
Y4457700D02*
D03*
Y4203700D02*
D03*
X10642600Y5448300D02*
D03*
Y5194300D02*
D03*
Y4940300D02*
D03*
Y4686300D02*
D03*
Y4432300D02*
D03*
Y4178300D02*
D03*
Y3924300D02*
D03*
Y3670300D02*
D03*
Y3416300D02*
D03*
X9118600D02*
D03*
Y3670300D02*
D03*
Y3924300D02*
D03*
Y4178300D02*
D03*
Y4432300D02*
D03*
Y4686300D02*
D03*
Y4940300D02*
D03*
Y5194300D02*
D03*
Y5448300D02*
D03*
X10642600Y9258300D02*
D03*
Y9004300D02*
D03*
Y8750300D02*
D03*
Y8496300D02*
D03*
Y8242300D02*
D03*
Y7988300D02*
D03*
Y7734300D02*
D03*
Y7480300D02*
D03*
Y7226300D02*
D03*
Y6972300D02*
D03*
Y6718300D02*
D03*
Y6464300D02*
D03*
Y6210300D02*
D03*
Y5956300D02*
D03*
X9118600Y5702300D02*
D03*
Y5956300D02*
D03*
Y6210300D02*
D03*
Y6464300D02*
D03*
Y6718300D02*
D03*
Y6972300D02*
D03*
Y7226300D02*
D03*
Y7480300D02*
D03*
Y7734300D02*
D03*
Y7988300D02*
D03*
Y8242300D02*
D03*
Y8496300D02*
D03*
Y8750300D02*
D03*
X10642600Y5702300D02*
D03*
X9118600Y9004300D02*
D03*
Y9258300D02*
D03*
D39*
X8305800Y10617200D02*
D03*
X8051800D02*
D03*
X7797800D02*
D03*
X7543800D02*
D03*
X7797800Y12014200D02*
D03*
X8051800D02*
D03*
X6743700Y10617200D02*
D03*
X6489700D02*
D03*
X6235700D02*
D03*
X5981700D02*
D03*
X6235700Y12014200D02*
D03*
X6489700D02*
D03*
X6769100Y8115300D02*
D03*
X6515100D02*
D03*
X6261100D02*
D03*
X6007100D02*
D03*
X6261100Y9512300D02*
D03*
X6515100D02*
D03*
X8293100Y8102600D02*
D03*
X8039100D02*
D03*
X7785100D02*
D03*
X7531100D02*
D03*
X7785100Y9499600D02*
D03*
X8039100D02*
D03*
D40*
X8757300Y13436600D02*
D03*
D41*
Y13690601D02*
D03*
Y13944600D02*
D03*
%TF.MD5,2e37f6997c2499d1e5d218f18dcdfebb*%
M02*
