%TF.GenerationSoftware,Altium Limited,Altium Designer,25.2.1 (25)*%
G04 Layer_Color=32896*
%FSLAX45Y45*%
%MOMM*%
%TF.SameCoordinates,9B973337-7CBC-4795-9BC3-C09BD17617B4*%
%TF.FilePolarity,Positive*%
%TF.FileFunction,Legend,Bot*%
%TF.Part,Single*%
G01*
G75*
%TA.AperFunction,NonConductor*%
%ADD49C,0.25400*%
D49*
X12382500Y11480734D02*
Y11328383D01*
Y11404559D01*
X12357108Y11429951D01*
X12306325D01*
X12280933Y11404559D01*
Y11328383D01*
X12204757Y11455342D02*
Y11429951D01*
X12230149D01*
X12179366D01*
X12204757D01*
Y11353775D01*
X12179366Y11328383D01*
X12077799Y11455342D02*
Y11429951D01*
X12103190D01*
X12052407D01*
X12077799D01*
Y11353775D01*
X12052407Y11328383D01*
X11976232Y11277600D02*
Y11429951D01*
X11900056D01*
X11874664Y11404559D01*
Y11353775D01*
X11900056Y11328383D01*
X11976232D01*
X11823881D02*
X11747705D01*
X11722314Y11353775D01*
X11747705Y11379167D01*
X11798489D01*
X11823881Y11404559D01*
X11798489Y11429951D01*
X11722314D01*
X11671530D02*
X11646138D01*
Y11404559D01*
X11671530D01*
Y11429951D01*
Y11353775D02*
X11646138D01*
Y11328383D01*
X11671530D01*
Y11353775D01*
X11544571Y11328383D02*
X11443004Y11429951D01*
X11392221Y11328383D02*
X11290653Y11429951D01*
X11214478Y11455342D02*
Y11429951D01*
X11239870D01*
X11189086D01*
X11214478D01*
Y11353775D01*
X11189086Y11328383D01*
X11112911D02*
X11062127D01*
X11087519D01*
Y11429951D01*
X11112911D01*
X10985952Y11328383D02*
Y11429951D01*
X10909777D01*
X10884385Y11404559D01*
Y11328383D01*
X10833601Y11429951D02*
Y11353775D01*
X10808210Y11328383D01*
X10732034D01*
Y11302992D01*
X10757426Y11277600D01*
X10782818D01*
X10732034Y11328383D02*
Y11429951D01*
X10681251D02*
Y11353775D01*
X10655859Y11328383D01*
X10579683D01*
Y11429951D01*
X10528900D02*
Y11328383D01*
Y11379167D01*
X10503508Y11404559D01*
X10478116Y11429951D01*
X10452725D01*
X10376549Y11328383D02*
X10325766D01*
X10351157D01*
Y11480734D01*
X10376549D01*
X10249590Y11328383D02*
Y11353775D01*
X10224198D01*
Y11328383D01*
X10249590D01*
X10021064Y11429951D02*
X10097240D01*
X10122632Y11404559D01*
Y11353775D01*
X10097240Y11328383D01*
X10021064D01*
X9944889D02*
X9894105D01*
X9868714Y11353775D01*
Y11404559D01*
X9894105Y11429951D01*
X9944889D01*
X9970281Y11404559D01*
Y11353775D01*
X9944889Y11328383D01*
X9817930D02*
Y11429951D01*
X9792538D01*
X9767147Y11404559D01*
Y11328383D01*
Y11404559D01*
X9741755Y11429951D01*
X9716363Y11404559D01*
Y11328383D01*
X9665579D02*
X9564012Y11429951D01*
X9437053Y11328383D02*
Y11480734D01*
X9513229Y11404559D01*
X9411661D01*
X9360878Y11480734D02*
Y11328383D01*
X9284703D01*
X9259311Y11353775D01*
Y11379167D01*
Y11404559D01*
X9284703Y11429951D01*
X9360878D01*
X9208527Y11328383D02*
Y11429951D01*
X9183135D01*
X9157744Y11404559D01*
Y11328383D01*
Y11404559D01*
X9132352Y11429951D01*
X9106960Y11404559D01*
Y11328383D01*
X8954609Y11480734D02*
X9005393Y11455342D01*
X9056176Y11404559D01*
Y11353775D01*
X9030785Y11328383D01*
X8980001D01*
X8954609Y11353775D01*
Y11379167D01*
X8980001Y11404559D01*
X9056176D01*
X8802258Y11480734D02*
Y11328383D01*
X8878434D01*
X8903826Y11353775D01*
Y11404559D01*
X8878434Y11429951D01*
X8802258D01*
X8751475Y11328383D02*
Y11429951D01*
X8675300D01*
X8649908Y11404559D01*
Y11328383D01*
X8599124Y11429951D02*
Y11353775D01*
X8573732Y11328383D01*
X8548341Y11353775D01*
X8522949Y11328383D01*
X8497557Y11353775D01*
Y11429951D01*
X8446774D02*
Y11353775D01*
X8421382Y11328383D01*
X8345206D01*
Y11429951D01*
X4686300Y7844356D02*
X4635517D01*
X4618589Y7861283D01*
X4635517Y7878211D01*
X4669372D01*
X4686300Y7895139D01*
X4669372Y7912067D01*
X4618589D01*
X4517021Y7810500D02*
Y7912067D01*
X4567805D01*
X4584733Y7895139D01*
Y7861283D01*
X4567805Y7844356D01*
X4517021D01*
X4483166Y7912067D02*
Y7861283D01*
X4466238Y7844356D01*
X4415454D01*
Y7912067D01*
X4330815Y7844356D02*
X4364670D01*
X4381598Y7861283D01*
Y7895139D01*
X4364670Y7912067D01*
X4330815D01*
X4313887Y7895139D01*
Y7878211D01*
X4381598D01*
X4229248Y7844356D02*
X4263103D01*
X4280031Y7861283D01*
Y7895139D01*
X4263103Y7912067D01*
X4229248D01*
X4212320Y7895139D01*
Y7878211D01*
X4280031D01*
X4178464Y7945923D02*
Y7844356D01*
X4127680D01*
X4110753Y7861283D01*
Y7878211D01*
Y7895139D01*
X4127680Y7912067D01*
X4178464D01*
X11836400Y16700433D02*
Y16548083D01*
Y16624258D01*
X11811008Y16649651D01*
X11760225D01*
X11734833Y16624258D01*
Y16548083D01*
X11658657Y16675043D02*
Y16649651D01*
X11684049D01*
X11633266D01*
X11658657D01*
Y16573476D01*
X11633266Y16548083D01*
X11531699Y16675043D02*
Y16649651D01*
X11557090D01*
X11506307D01*
X11531699D01*
Y16573476D01*
X11506307Y16548083D01*
X11430132Y16497301D02*
Y16649651D01*
X11353956D01*
X11328564Y16624258D01*
Y16573476D01*
X11353956Y16548083D01*
X11430132D01*
X11277781D02*
X11201605D01*
X11176214Y16573476D01*
X11201605Y16598866D01*
X11252389D01*
X11277781Y16624258D01*
X11252389Y16649651D01*
X11176214D01*
X11125430D02*
X11100038D01*
Y16624258D01*
X11125430D01*
Y16649651D01*
Y16573476D02*
X11100038D01*
Y16548083D01*
X11125430D01*
Y16573476D01*
X10998471Y16548083D02*
X10896904Y16649651D01*
X10846121Y16548083D02*
X10744553Y16649651D01*
X10693770D02*
Y16573476D01*
X10668378Y16548083D01*
X10642986Y16573476D01*
X10617594Y16548083D01*
X10592203Y16573476D01*
Y16649651D01*
X10541419D02*
Y16573476D01*
X10516027Y16548083D01*
X10490636Y16573476D01*
X10465244Y16548083D01*
X10439852Y16573476D01*
Y16649651D01*
X10389068D02*
Y16573476D01*
X10363677Y16548083D01*
X10338285Y16573476D01*
X10312893Y16548083D01*
X10287501Y16573476D01*
Y16649651D01*
X10236718Y16548083D02*
Y16573476D01*
X10211326D01*
Y16548083D01*
X10236718D01*
X10109759Y16649651D02*
Y16573476D01*
X10084367Y16548083D01*
X10008192D01*
Y16522691D01*
X10033583Y16497301D01*
X10058975D01*
X10008192Y16548083D02*
Y16649651D01*
X9932016Y16548083D02*
X9881233D01*
X9855841Y16573476D01*
Y16624258D01*
X9881233Y16649651D01*
X9932016D01*
X9957408Y16624258D01*
Y16573476D01*
X9932016Y16548083D01*
X9805057Y16649651D02*
Y16573476D01*
X9779665Y16548083D01*
X9703490D01*
Y16649651D01*
X9627315Y16675043D02*
Y16649651D01*
X9652707D01*
X9601923D01*
X9627315D01*
Y16573476D01*
X9601923Y16548083D01*
X9525748Y16649651D02*
Y16573476D01*
X9500356Y16548083D01*
X9424181D01*
Y16649651D01*
X9373397Y16700433D02*
Y16548083D01*
X9297222D01*
X9271830Y16573476D01*
Y16598866D01*
Y16624258D01*
X9297222Y16649651D01*
X9373397D01*
X9144871Y16548083D02*
X9195654D01*
X9221046Y16573476D01*
Y16624258D01*
X9195654Y16649651D01*
X9144871D01*
X9119479Y16624258D01*
Y16598866D01*
X9221046D01*
X9068696Y16548083D02*
Y16573476D01*
X9043304D01*
Y16548083D01*
X9068696D01*
X8840170Y16649651D02*
X8916345D01*
X8941737Y16624258D01*
Y16573476D01*
X8916345Y16548083D01*
X8840170D01*
X8763994D02*
X8713211D01*
X8687819Y16573476D01*
Y16624258D01*
X8713211Y16649651D01*
X8763994D01*
X8789386Y16624258D01*
Y16573476D01*
X8763994Y16548083D01*
X8637035D02*
Y16649651D01*
X8611643D01*
X8586252Y16624258D01*
Y16548083D01*
Y16624258D01*
X8560860Y16649651D01*
X8535468Y16624258D01*
Y16548083D01*
X8484685D02*
X8383117Y16649651D01*
X8332334D02*
Y16573476D01*
X8306942Y16548083D01*
X8281550Y16573476D01*
X8256158Y16548083D01*
X8230767Y16573476D01*
Y16649651D01*
X8154591D02*
X8103808D01*
X8078416Y16624258D01*
Y16548083D01*
X8154591D01*
X8179983Y16573476D01*
X8154591Y16598866D01*
X8078416D01*
X8002241Y16675043D02*
Y16649651D01*
X8027632D01*
X7976849D01*
X8002241D01*
Y16573476D01*
X7976849Y16548083D01*
X7799106Y16649651D02*
X7875282D01*
X7900674Y16624258D01*
Y16573476D01*
X7875282Y16548083D01*
X7799106D01*
X7748323Y16700433D02*
Y16548083D01*
Y16624258D01*
X7722931Y16649651D01*
X7672147D01*
X7646756Y16624258D01*
Y16548083D01*
X7595972Y16675043D02*
X7570580Y16700433D01*
X7519797D01*
X7494405Y16675043D01*
Y16649651D01*
X7545189Y16598866D01*
Y16573476D02*
Y16548083D01*
X7443621Y16649651D02*
X7392838Y16548083D01*
X7342054Y16649651D01*
X7291271Y16598866D02*
X7189703D01*
X7291271Y16649651D02*
X7189703D01*
X7138920Y16548083D02*
Y16649651D01*
X7088136Y16700433D01*
X7037353Y16649651D01*
Y16548083D01*
Y16624258D01*
X7138920D01*
X6986569Y16700433D02*
Y16548083D01*
X6935786Y16598866D01*
X6885002Y16548083D01*
Y16700433D01*
X6834218Y16548083D02*
X6783435D01*
X6808827D01*
Y16700433D01*
X6834218D01*
X6707260Y16675043D02*
X6681868Y16700433D01*
X6631084D01*
X6605692Y16675043D01*
Y16649651D01*
X6631084Y16624258D01*
X6656476D01*
X6631084D01*
X6605692Y16598866D01*
Y16573476D01*
X6631084Y16548083D01*
X6681868D01*
X6707260Y16573476D01*
X6453342Y16700433D02*
X6554909D01*
Y16548083D01*
X6453342D01*
X6554909Y16624258D02*
X6504125D01*
X6377166Y16548083D02*
X6326383D01*
X6300991Y16573476D01*
Y16624258D01*
X6326383Y16649651D01*
X6377166D01*
X6402558Y16624258D01*
Y16573476D01*
X6377166Y16548083D01*
X6250207Y16649651D02*
X6199424Y16548083D01*
X6148640Y16649651D01*
X6072465Y16548083D02*
Y16675043D01*
Y16624258D01*
X6097857D01*
X6047073D01*
X6072465D01*
Y16675043D01*
X6047073Y16700433D01*
X5970898D02*
Y16548083D01*
Y16624258D01*
X5945506Y16649651D01*
X5894723D01*
X5869331Y16624258D01*
Y16548083D01*
X5818547D02*
Y16649651D01*
X5742372D01*
X5716980Y16624258D01*
Y16548083D01*
X5666196D02*
Y16700433D01*
X5615413Y16649651D01*
X5564629Y16700433D01*
Y16548083D01*
%TF.MD5,cdd5e8265b8015a1fcf76a153525d272*%
M02*
