%TF.GenerationSoftware,Altium Limited,Altium Designer,25.2.1 (25)*%
G04 Layer_Physical_Order=1*
G04 Layer_Color=255*
%FSLAX45Y45*%
%MOMM*%
%TF.SameCoordinates,9B973337-7CBC-4795-9BC3-C09BD17617B4*%
%TF.FilePolarity,Positive*%
%TF.FileFunction,Copper,L1,Top,Signal*%
%TF.Part,Single*%
G01*
G75*
%TA.AperFunction,Conductor*%
%ADD10C,0.30480*%
%TA.AperFunction,ComponentPad*%
%ADD11R,1.35000X1.35000*%
%ADD12C,1.35000*%
%TA.AperFunction,ViaPad*%
%ADD13C,1.52400*%
%TA.AperFunction,ComponentPad*%
%ADD14R,1.40000X1.40000*%
%ADD15C,1.40000*%
%ADD16R,1.85000X1.85000*%
%ADD17C,1.85000*%
%ADD18C,2.99000*%
%ADD19C,2.64000*%
%ADD20R,2.64000X2.64000*%
%ADD21O,1.53000X1.52999*%
%ADD22C,1.77800*%
%ADD23C,1.30800*%
%ADD24C,1.25800*%
%ADD25C,1.20800*%
%ADD26R,1.85000X1.85000*%
%TA.AperFunction,ViaPad*%
%ADD27C,1.27000*%
D10*
X9856280Y10443820D02*
Y11238420D01*
X8750300Y12344400D02*
Y12725400D01*
Y12344400D02*
X9856280Y11238420D01*
Y10443820D02*
X9860700Y10439400D01*
X9860200Y10438900D02*
X9860700Y10439400D01*
X9860200Y7500700D02*
Y10438900D01*
X8761901Y9856299D02*
Y10173800D01*
Y9856299D02*
X9575800Y9042400D01*
X11480800Y4610100D02*
X11484400Y4606500D01*
Y3115100D02*
Y4606500D01*
Y3115100D02*
X11488000Y3111500D01*
X11176000Y2799500D02*
X11488000Y3111500D01*
X11176000Y2794000D02*
Y2799500D01*
X11468100Y8026400D02*
X11633200D01*
X12197500Y7462100D01*
Y7175500D02*
Y7462100D01*
Y7028600D02*
Y7175500D01*
X11469200Y6300300D02*
X12197500Y7028600D01*
X11469200Y5474800D02*
Y6300300D01*
X11290300Y10960100D02*
X12217400Y11887200D01*
X11118000Y10960100D02*
X11290300D01*
X11111400Y10953500D02*
X11118000Y10960100D01*
X11111400Y9017000D02*
Y10953500D01*
X5998449Y7518400D02*
X8293100D01*
X6261100Y7340600D02*
X8369300Y7340600D01*
X8293100Y7518400D02*
X8648700Y7874000D01*
X8369300Y7340600D02*
X8813800Y7785100D01*
X8877300Y9004300D02*
X9118600D01*
X8648700Y8775700D02*
X8877300Y9004300D01*
X8648700Y7874000D02*
Y8775700D01*
X8813800Y7785100D02*
Y8674100D01*
X8890000Y8750300D01*
X9118600D01*
X6007100Y9639300D02*
Y9906000D01*
X6235700Y10134600D01*
X5435600Y9855200D02*
X5740400Y10160000D01*
X5435600Y4838700D02*
Y9855200D01*
X5664200Y4864100D02*
Y9296400D01*
X6007100Y9639300D01*
X5435600Y4838700D02*
X6070600Y4203700D01*
X5664200Y4864100D02*
X6070600Y4457700D01*
X11112500Y3251200D02*
Y9015900D01*
X7327900Y3124200D02*
X10985500D01*
X11112500Y3251200D01*
X11303000Y5308600D02*
X11469200Y5474800D01*
X11111400Y9017000D02*
X11112500Y9015900D01*
X6743700Y3708400D02*
X7327900Y3124200D01*
X6743700Y3708400D02*
Y4800600D01*
X6070600Y5473700D02*
X6743700Y4800600D01*
X7226300Y2946400D02*
X11074400D01*
X11303000Y3175000D02*
Y5308600D01*
X11074400Y2946400D02*
X11303000Y3175000D01*
X6553200Y3619500D02*
Y4732057D01*
Y3619500D02*
X7226300Y2946400D01*
X6070600Y5214657D02*
Y5219700D01*
Y5214657D02*
X6553200Y4732057D01*
X6070600Y4965700D02*
X6388100Y4648200D01*
Y3543300D02*
X7137400Y2794000D01*
X6388100Y3543300D02*
Y4648200D01*
X7137400Y2794000D02*
X11176000D01*
X8267700Y14300200D02*
X8902700Y14935201D01*
X8267700Y12344400D02*
X8572500Y12039600D01*
X8267700Y12344400D02*
Y14300200D01*
X8572500Y10363200D02*
Y12039600D01*
Y10363200D02*
X8761901Y10173800D01*
X9860200Y7500700D02*
X10642600Y6718300D01*
X9575800Y7531100D02*
X10642600Y6464300D01*
X9575800Y7531100D02*
Y9042400D01*
D11*
X10218000Y10960100D02*
D03*
X9467000Y10782300D02*
D03*
X11297500Y7175500D02*
D03*
X12388000Y3111500D02*
D03*
X8960700Y10439400D02*
D03*
D12*
X11118000Y10960100D02*
D03*
X8567000Y10782300D02*
D03*
X12197500Y7175500D02*
D03*
X11488000Y3111500D02*
D03*
X9860700Y10439400D02*
D03*
D13*
X3175000Y2667000D02*
D03*
X13906500D02*
D03*
Y21158200D02*
D03*
X3175000D02*
D03*
D14*
X6916800Y14414500D02*
D03*
D15*
X7166800D02*
D03*
X7416800D02*
D03*
X7666800D02*
D03*
D16*
X9461500Y15494000D02*
D03*
D17*
X9207500D02*
D03*
X8953500D02*
D03*
X8757300Y13690601D02*
D03*
Y13944600D02*
D03*
D18*
X13385800Y5016500D02*
D03*
X12242800Y4151500D02*
D03*
Y5881500D02*
D03*
X13385800Y9385300D02*
D03*
X12242800Y8520300D02*
D03*
Y10250300D02*
D03*
X13385800Y13550900D02*
D03*
X12242800Y12685900D02*
D03*
Y14415900D02*
D03*
X3771900Y10510400D02*
D03*
X4914900Y11597400D02*
D03*
Y9423400D02*
D03*
X3771900Y18694400D02*
D03*
X4571900Y19609900D02*
D03*
Y17778900D02*
D03*
X13385800Y17818100D02*
D03*
X12585800Y16902600D02*
D03*
Y18733600D02*
D03*
X3771900Y14884399D02*
D03*
X4914900Y15749400D02*
D03*
Y14019400D02*
D03*
Y4432300D02*
D03*
Y6606300D02*
D03*
X3771900Y5519300D02*
D03*
D19*
X12775800Y4794000D02*
D03*
Y5239000D02*
D03*
X12140800D02*
D03*
X12775800Y9162800D02*
D03*
Y9607800D02*
D03*
X12140800D02*
D03*
X12775800Y13328400D02*
D03*
Y13773399D02*
D03*
X12140800D02*
D03*
X4381900Y10955400D02*
D03*
Y10065400D02*
D03*
X5016900Y10510400D02*
D03*
Y10065400D02*
D03*
X4381900Y10510400D02*
D03*
Y18421400D02*
D03*
X12775800Y18091100D02*
D03*
X4381900Y15106900D02*
D03*
Y14661900D02*
D03*
X5016900D02*
D03*
X4381900Y5519300D02*
D03*
X5016900Y5074300D02*
D03*
Y5519300D02*
D03*
X4381900Y5074300D02*
D03*
Y5964300D02*
D03*
D20*
X12140800Y4794000D02*
D03*
Y9162800D02*
D03*
Y13328400D02*
D03*
X5016900Y10955400D02*
D03*
X4381900Y18967400D02*
D03*
X12775800Y17545100D02*
D03*
X5016900Y15106900D02*
D03*
Y5964300D02*
D03*
D21*
X7594600Y6743700D02*
D03*
Y6489700D02*
D03*
Y6235700D02*
D03*
Y5981700D02*
D03*
Y5727700D02*
D03*
Y5473700D02*
D03*
Y5219700D02*
D03*
Y4965700D02*
D03*
Y4711700D02*
D03*
Y4457700D02*
D03*
Y4203700D02*
D03*
Y3949700D02*
D03*
Y3695700D02*
D03*
Y3441700D02*
D03*
X6070600Y6743700D02*
D03*
Y6489700D02*
D03*
Y6235700D02*
D03*
Y5981700D02*
D03*
Y5727700D02*
D03*
Y4711700D02*
D03*
Y3949700D02*
D03*
Y3695700D02*
D03*
Y3441700D02*
D03*
X7340600Y6743700D02*
D03*
X7086600D02*
D03*
X6832600D02*
D03*
X6578600D02*
D03*
X6324600D02*
D03*
D22*
X6070600Y5473700D02*
D03*
Y5219700D02*
D03*
Y4965700D02*
D03*
Y4457700D02*
D03*
Y4203700D02*
D03*
X10642600Y6718300D02*
D03*
Y6464300D02*
D03*
X9118600Y8750300D02*
D03*
Y9004300D02*
D03*
D23*
X10642600Y5448300D02*
D03*
Y5194300D02*
D03*
Y4940300D02*
D03*
Y4686300D02*
D03*
Y4432300D02*
D03*
Y4178300D02*
D03*
Y3924300D02*
D03*
Y3670300D02*
D03*
Y3416300D02*
D03*
X9118600D02*
D03*
Y3670300D02*
D03*
Y3924300D02*
D03*
Y4178300D02*
D03*
Y4432300D02*
D03*
Y4686300D02*
D03*
Y4940300D02*
D03*
Y5194300D02*
D03*
Y5448300D02*
D03*
X10642600Y9258300D02*
D03*
Y9004300D02*
D03*
Y8750300D02*
D03*
Y8496300D02*
D03*
Y8242300D02*
D03*
Y7988300D02*
D03*
Y7734300D02*
D03*
Y7480300D02*
D03*
Y7226300D02*
D03*
Y6972300D02*
D03*
Y6210300D02*
D03*
Y5956300D02*
D03*
X9118600Y5702300D02*
D03*
Y5956300D02*
D03*
Y6210300D02*
D03*
Y6464300D02*
D03*
Y6718300D02*
D03*
Y6972300D02*
D03*
Y7226300D02*
D03*
Y7480300D02*
D03*
Y7734300D02*
D03*
Y7988300D02*
D03*
Y8242300D02*
D03*
Y8496300D02*
D03*
X10642600Y5702300D02*
D03*
X10134600Y4686300D02*
D03*
X10388600Y9004300D02*
D03*
Y4686300D02*
D03*
X9880600D02*
D03*
X9626600D02*
D03*
X9372600D02*
D03*
X9118600Y9258300D02*
D03*
D24*
X9423600Y7607300D02*
D03*
Y7861300D02*
D03*
Y8115300D02*
D03*
Y8369300D02*
D03*
Y8623300D02*
D03*
D25*
X9997600Y7961300D02*
D03*
X10197600D02*
D03*
X9997600Y7761300D02*
D03*
X10197600D02*
D03*
X10397600Y7961300D02*
D03*
Y7761300D02*
D03*
D26*
X8757300Y13436600D02*
D03*
D27*
X6261100Y7340600D02*
D03*
X5998449Y7518400D02*
D03*
X6235700Y10134600D02*
D03*
X5740400Y10160000D02*
D03*
X5511800Y3632200D02*
D03*
X11468100Y8026400D02*
D03*
X11480800Y4610100D02*
D03*
X12217400Y11887200D02*
D03*
X8750300Y12725400D02*
D03*
X8902700Y14935201D02*
D03*
%TF.MD5,36192e2af776df8f4aa634ad1c6d3468*%
M02*
