%TF.GenerationSoftware,Altium Limited,Altium Designer,25.1.2 (22)*%
G04 Layer_Color=32896*
%FSLAX45Y45*%
%MOMM*%
%TF.SameCoordinates,0B3AA91C-04DE-403C-A5D4-43E2D843388D*%
%TF.FilePolarity,Positive*%
%TF.FileFunction,Legend,Bot*%
%TF.Part,Single*%
G01*
G75*
%TA.AperFunction,NonConductor*%
%ADD47C,0.25400*%
D47*
X4686300Y7844356D02*
X4635517D01*
X4618589Y7861283D01*
X4635517Y7878211D01*
X4669372D01*
X4686300Y7895139D01*
X4669372Y7912067D01*
X4618589D01*
X4517021Y7810500D02*
Y7912067D01*
X4567805D01*
X4584733Y7895139D01*
Y7861283D01*
X4567805Y7844356D01*
X4517021D01*
X4483166Y7912067D02*
Y7861283D01*
X4466238Y7844356D01*
X4415454D01*
Y7912067D01*
X4330815Y7844356D02*
X4364670D01*
X4381598Y7861283D01*
Y7895139D01*
X4364670Y7912067D01*
X4330815D01*
X4313887Y7895139D01*
Y7878211D01*
X4381598D01*
X4229248Y7844356D02*
X4263103D01*
X4280031Y7861283D01*
Y7895139D01*
X4263103Y7912067D01*
X4229248D01*
X4212320Y7895139D01*
Y7878211D01*
X4280031D01*
X4178464Y7945923D02*
Y7844356D01*
X4127680D01*
X4110753Y7861283D01*
Y7878211D01*
Y7895139D01*
X4127680Y7912067D01*
X4178464D01*
X11569700Y21234334D02*
Y21081982D01*
Y21158159D01*
X11544308Y21183551D01*
X11493525D01*
X11468133Y21158159D01*
Y21081982D01*
X11391957Y21208942D02*
Y21183551D01*
X11417349D01*
X11366566D01*
X11391957D01*
Y21107375D01*
X11366566Y21081982D01*
X11264999Y21208942D02*
Y21183551D01*
X11290390D01*
X11239607D01*
X11264999D01*
Y21107375D01*
X11239607Y21081982D01*
X11163432Y21031200D02*
Y21183551D01*
X11087256D01*
X11061864Y21158159D01*
Y21107375D01*
X11087256Y21081982D01*
X11163432D01*
X11011081D02*
X10934905D01*
X10909514Y21107375D01*
X10934905Y21132767D01*
X10985689D01*
X11011081Y21158159D01*
X10985689Y21183551D01*
X10909514D01*
X10858730D02*
X10833338D01*
Y21158159D01*
X10858730D01*
Y21183551D01*
Y21107375D02*
X10833338D01*
Y21081982D01*
X10858730D01*
Y21107375D01*
X10731771Y21081982D02*
X10630204Y21183551D01*
X10579421Y21081982D02*
X10477853Y21183551D01*
X10427070D02*
Y21107375D01*
X10401678Y21081982D01*
X10376286Y21107375D01*
X10350894Y21081982D01*
X10325503Y21107375D01*
Y21183551D01*
X10274719D02*
Y21107375D01*
X10249327Y21081982D01*
X10223936Y21107375D01*
X10198544Y21081982D01*
X10173152Y21107375D01*
Y21183551D01*
X10122368D02*
Y21107375D01*
X10096977Y21081982D01*
X10071585Y21107375D01*
X10046193Y21081982D01*
X10020801Y21107375D01*
Y21183551D01*
X9970018Y21081982D02*
Y21107375D01*
X9944626D01*
Y21081982D01*
X9970018D01*
X9843059Y21183551D02*
Y21107375D01*
X9817667Y21081982D01*
X9741492D01*
Y21056592D01*
X9766883Y21031200D01*
X9792275D01*
X9741492Y21081982D02*
Y21183551D01*
X9665316Y21081982D02*
X9614533D01*
X9589141Y21107375D01*
Y21158159D01*
X9614533Y21183551D01*
X9665316D01*
X9690708Y21158159D01*
Y21107375D01*
X9665316Y21081982D01*
X9538357Y21183551D02*
Y21107375D01*
X9512965Y21081982D01*
X9436790D01*
Y21183551D01*
X9360615Y21208942D02*
Y21183551D01*
X9386007D01*
X9335223D01*
X9360615D01*
Y21107375D01*
X9335223Y21081982D01*
X9259048Y21183551D02*
Y21107375D01*
X9233656Y21081982D01*
X9157481D01*
Y21183551D01*
X9106697Y21234334D02*
Y21081982D01*
X9030522D01*
X9005130Y21107375D01*
Y21132767D01*
Y21158159D01*
X9030522Y21183551D01*
X9106697D01*
X8878171Y21081982D02*
X8928954D01*
X8954346Y21107375D01*
Y21158159D01*
X8928954Y21183551D01*
X8878171D01*
X8852779Y21158159D01*
Y21132767D01*
X8954346D01*
X8801996Y21081982D02*
Y21107375D01*
X8776604D01*
Y21081982D01*
X8801996D01*
X8573470Y21183551D02*
X8649645D01*
X8675037Y21158159D01*
Y21107375D01*
X8649645Y21081982D01*
X8573470D01*
X8497294D02*
X8446511D01*
X8421119Y21107375D01*
Y21158159D01*
X8446511Y21183551D01*
X8497294D01*
X8522686Y21158159D01*
Y21107375D01*
X8497294Y21081982D01*
X8370335D02*
Y21183551D01*
X8344943D01*
X8319552Y21158159D01*
Y21081982D01*
Y21158159D01*
X8294160Y21183551D01*
X8268768Y21158159D01*
Y21081982D01*
X8217985D02*
X8116417Y21183551D01*
X8065634D02*
Y21107375D01*
X8040242Y21081982D01*
X8014850Y21107375D01*
X7989458Y21081982D01*
X7964067Y21107375D01*
Y21183551D01*
X7887891D02*
X7837108D01*
X7811716Y21158159D01*
Y21081982D01*
X7887891D01*
X7913283Y21107375D01*
X7887891Y21132767D01*
X7811716D01*
X7735541Y21208942D02*
Y21183551D01*
X7760932D01*
X7710149D01*
X7735541D01*
Y21107375D01*
X7710149Y21081982D01*
X7532406Y21183551D02*
X7608582D01*
X7633974Y21158159D01*
Y21107375D01*
X7608582Y21081982D01*
X7532406D01*
X7481623Y21234334D02*
Y21081982D01*
Y21158159D01*
X7456231Y21183551D01*
X7405447D01*
X7380056Y21158159D01*
Y21081982D01*
X7329272Y21208942D02*
X7303880Y21234334D01*
X7253097D01*
X7227705Y21208942D01*
Y21183551D01*
X7278489Y21132767D01*
Y21107375D02*
Y21081982D01*
X7176921Y21183551D02*
X7126138Y21081982D01*
X7075354Y21183551D01*
X7024571Y21132767D02*
X6923003D01*
X7024571Y21183551D02*
X6923003D01*
X6872220Y21081982D02*
Y21183551D01*
X6821436Y21234334D01*
X6770653Y21183551D01*
Y21081982D01*
Y21158159D01*
X6872220D01*
X6719869Y21234334D02*
Y21081982D01*
X6669086Y21132767D01*
X6618302Y21081982D01*
Y21234334D01*
X6567518Y21081982D02*
X6516735D01*
X6542127D01*
Y21234334D01*
X6567518D01*
X6440560Y21208942D02*
X6415168Y21234334D01*
X6364384D01*
X6338992Y21208942D01*
Y21183551D01*
X6364384Y21158159D01*
X6389776D01*
X6364384D01*
X6338992Y21132767D01*
Y21107375D01*
X6364384Y21081982D01*
X6415168D01*
X6440560Y21107375D01*
X6186642Y21234334D02*
X6288209D01*
Y21081982D01*
X6186642D01*
X6288209Y21158159D02*
X6237425D01*
X6110466Y21081982D02*
X6059683D01*
X6034291Y21107375D01*
Y21158159D01*
X6059683Y21183551D01*
X6110466D01*
X6135858Y21158159D01*
Y21107375D01*
X6110466Y21081982D01*
X5983507Y21183551D02*
X5932724Y21081982D01*
X5881940Y21183551D01*
X5805765Y21081982D02*
Y21208942D01*
Y21158159D01*
X5831157D01*
X5780373D01*
X5805765D01*
Y21208942D01*
X5780373Y21234334D01*
X5704198D02*
Y21081982D01*
Y21158159D01*
X5678806Y21183551D01*
X5628023D01*
X5602631Y21158159D01*
Y21081982D01*
X5551847D02*
Y21183551D01*
X5475672D01*
X5450280Y21158159D01*
Y21081982D01*
X5399496D02*
Y21234334D01*
X5348713Y21183551D01*
X5297929Y21234334D01*
Y21081982D01*
%TF.MD5,a02d714ba5f3aa707d40c73809379383*%
M02*
