%TF.GenerationSoftware,Altium Limited,Altium Designer,25.1.2 (22)*%
G04 Layer_Color=0*
%FSLAX45Y45*%
%MOMM*%
%TF.SameCoordinates,0B3AA91C-04DE-403C-A5D4-43E2D843388D*%
%TF.FilePolarity,Positive*%
%TF.FileFunction,Plated,1,4,PTH,Drill*%
%TF.Part,Single*%
G01*
G75*
%TA.AperFunction,OtherDrill,Pad Free-10 (58.039mm,98.298mm)*%
%ADD75C,0.76200*%
%TA.AperFunction,OtherDrill,Pad Free-9 (74.041mm,94.996mm)*%
%ADD76C,0.76200*%
%TA.AperFunction,OtherDrill,Pad Free-8 (75.692mm,88.773mm)*%
%ADD77C,0.76200*%
%TA.AperFunction,OtherDrill,Pad Free-7 (58.928mm,88.773mm)*%
%ADD78C,0.76200*%
%TA.AperFunction,OtherDrill,Pad Free-6 (74.612mm,112.649mm)*%
%ADD79C,0.76200*%
%TA.AperFunction,OtherDrill,Pad Free-5 (61.595mm,112.649mm)*%
%ADD80C,0.76200*%
%TA.AperFunction,OtherDrill,Pad Free-4 (74.549mm,127.508mm)*%
%ADD81C,0.76200*%
%TA.AperFunction,OtherDrill,Pad Free-3 (59.182mm,127.508mm)*%
%ADD82C,0.76200*%
%TA.AperFunction,OtherDrill,Pad Free-2 (31.75mm,26.67mm)*%
%ADD83C,3.00000*%
%TA.AperFunction,OtherDrill,Pad Free-2 (139.065mm,26.67mm)*%
%ADD84C,3.00000*%
%TA.AperFunction,OtherDrill,Pad Free-2 (139.065mm,211.582mm)*%
%ADD85C,3.00000*%
%TA.AperFunction,OtherDrill,Pad Free-2 (31.75mm,211.582mm)*%
%ADD86C,3.00000*%
%TA.AperFunction,ComponentDrill*%
%ADD87C,0.90000*%
%ADD88C,1.20000*%
%ADD89C,1.76000*%
%ADD90C,1.02000*%
%ADD91C,0.80000*%
%ADD92C,0.75000*%
%ADD93C,0.70000*%
%ADD94C,0.76200*%
%ADD95C,1.20000*%
%TA.AperFunction,ViaDrill,NotFilled*%
%ADD96C,0.71120*%
D75*
X5803900Y9829800D02*
D03*
D76*
X7404100Y9499600D02*
D03*
D77*
X7569200Y8877300D02*
D03*
D78*
X5892800D02*
D03*
D79*
X7461250Y11264900D02*
D03*
D80*
X6159500D02*
D03*
D81*
X7454900Y12750800D02*
D03*
D82*
X5918200D02*
D03*
D83*
X3175000Y2667000D02*
D03*
D84*
X13906500D02*
D03*
D85*
Y21158200D02*
D03*
D86*
X3175000D02*
D03*
D87*
X6916800Y14414500D02*
D03*
X7166800D02*
D03*
X7416800D02*
D03*
X7666800D02*
D03*
D88*
X9461500Y15494000D02*
D03*
X9207500D02*
D03*
X8953500D02*
D03*
D89*
X12775800Y4794000D02*
D03*
Y5239000D02*
D03*
X12140800Y4794000D02*
D03*
Y5239000D02*
D03*
X12775800Y9162800D02*
D03*
Y9607800D02*
D03*
X12140800Y9162800D02*
D03*
Y9607800D02*
D03*
X12775800Y13328400D02*
D03*
Y13773399D02*
D03*
X12140800Y13328400D02*
D03*
Y13773399D02*
D03*
X4381900Y10955400D02*
D03*
Y10065400D02*
D03*
X5016900Y10955400D02*
D03*
Y10510400D02*
D03*
Y10065400D02*
D03*
X4381900Y10510400D02*
D03*
Y18967400D02*
D03*
Y18421400D02*
D03*
X12775800Y17545100D02*
D03*
Y18091100D02*
D03*
X4381900Y15106900D02*
D03*
Y14661900D02*
D03*
X5016900Y15106900D02*
D03*
Y14661900D02*
D03*
X4381900Y5519300D02*
D03*
X5016900Y5074300D02*
D03*
Y5519300D02*
D03*
Y5964300D02*
D03*
X4381900Y5074300D02*
D03*
Y5964300D02*
D03*
D90*
X7594600Y6743700D02*
D03*
Y6489700D02*
D03*
Y6235700D02*
D03*
Y5981700D02*
D03*
Y5727700D02*
D03*
Y5473700D02*
D03*
Y5219700D02*
D03*
Y4965700D02*
D03*
Y4711700D02*
D03*
Y4457700D02*
D03*
Y4203700D02*
D03*
Y3949700D02*
D03*
Y3695700D02*
D03*
Y3441700D02*
D03*
X6070600Y6743700D02*
D03*
Y6489700D02*
D03*
Y6235700D02*
D03*
Y5981700D02*
D03*
Y5727700D02*
D03*
Y5473700D02*
D03*
Y5219700D02*
D03*
Y4965700D02*
D03*
Y4711700D02*
D03*
Y4457700D02*
D03*
Y4203700D02*
D03*
Y3949700D02*
D03*
Y3695700D02*
D03*
Y3441700D02*
D03*
X7340600Y6743700D02*
D03*
X7086600D02*
D03*
X6832600D02*
D03*
X6578600D02*
D03*
X6324600D02*
D03*
D91*
X10642600Y5448300D02*
D03*
Y5194300D02*
D03*
Y4940300D02*
D03*
Y4686300D02*
D03*
Y4432300D02*
D03*
Y4178300D02*
D03*
Y3924300D02*
D03*
Y3670300D02*
D03*
Y3416300D02*
D03*
X9118600D02*
D03*
Y3670300D02*
D03*
Y3924300D02*
D03*
Y4178300D02*
D03*
Y4432300D02*
D03*
Y4686300D02*
D03*
Y4940300D02*
D03*
Y5194300D02*
D03*
Y5448300D02*
D03*
X10642600Y9258300D02*
D03*
Y9004300D02*
D03*
Y8750300D02*
D03*
Y8496300D02*
D03*
Y8242300D02*
D03*
Y7988300D02*
D03*
Y7734300D02*
D03*
Y7480300D02*
D03*
Y7226300D02*
D03*
Y6972300D02*
D03*
Y6718300D02*
D03*
Y6464300D02*
D03*
Y6210300D02*
D03*
Y5956300D02*
D03*
X9118600Y5702300D02*
D03*
Y5956300D02*
D03*
Y6210300D02*
D03*
Y6464300D02*
D03*
Y6718300D02*
D03*
Y6972300D02*
D03*
Y7226300D02*
D03*
Y7480300D02*
D03*
Y7734300D02*
D03*
Y7988300D02*
D03*
Y8242300D02*
D03*
Y8496300D02*
D03*
Y8750300D02*
D03*
X10642600Y5702300D02*
D03*
X10134600Y4686300D02*
D03*
X10388600Y9004300D02*
D03*
Y4686300D02*
D03*
X9880600D02*
D03*
X9626600D02*
D03*
X9372600D02*
D03*
X9118600Y9004300D02*
D03*
Y9258300D02*
D03*
D92*
X9423600Y7607300D02*
D03*
Y7861300D02*
D03*
Y8115300D02*
D03*
Y8369300D02*
D03*
Y8623300D02*
D03*
D93*
X9997600Y7961300D02*
D03*
X10197600D02*
D03*
X9997600Y7761300D02*
D03*
X10197600D02*
D03*
X10397600Y7961300D02*
D03*
Y7761300D02*
D03*
D94*
X8305800Y10617200D02*
D03*
X8051800D02*
D03*
X7797800D02*
D03*
X7543800D02*
D03*
X7797800Y12014200D02*
D03*
X8051800D02*
D03*
X6743700Y10617200D02*
D03*
X6489700D02*
D03*
X6235700D02*
D03*
X5981700D02*
D03*
X6235700Y12014200D02*
D03*
X6489700D02*
D03*
X6769100Y8115300D02*
D03*
X6515100D02*
D03*
X6261100D02*
D03*
X6007100D02*
D03*
X6261100Y9512300D02*
D03*
X6515100D02*
D03*
X8293100Y8102600D02*
D03*
X8039100D02*
D03*
X7785100D02*
D03*
X7531100D02*
D03*
X7785100Y9499600D02*
D03*
X8039100D02*
D03*
D95*
X8757300Y13436600D02*
D03*
Y13690601D02*
D03*
Y13944600D02*
D03*
D96*
X6261100Y7340600D02*
D03*
X5998449Y7518400D02*
D03*
X6235700Y10134600D02*
D03*
X5740400Y10160000D02*
D03*
X5511800Y3632200D02*
D03*
X11468100Y8026400D02*
D03*
X11506200Y9245600D02*
D03*
X11912600Y3429000D02*
D03*
X11480800Y4610100D02*
D03*
X12217400Y11887200D02*
D03*
X8750300Y12725400D02*
D03*
X8902700Y14935201D02*
D03*
X9372600Y9804400D02*
D03*
%TF.MD5,6ce53f0dad5e1f0b106e87978f3cea92*%
M02*
