%TF.GenerationSoftware,Altium Limited,Altium Designer,25.1.2 (22)*%
G04 Layer_Color=16711935*
%FSLAX45Y45*%
%MOMM*%
%TF.SameCoordinates,0B3AA91C-04DE-403C-A5D4-43E2D843388D*%
%TF.FilePolarity,Negative*%
%TF.FileFunction,Soldermask,Bot*%
%TF.Part,Single*%
G01*
G75*
%TA.AperFunction,ComponentPad*%
%ADD32O,1.90500X2.54000*%
%ADD33R,1.90500X2.54000*%
%ADD34O,1.90500X2.54000*%
%ADD40R,2.54000X1.90500*%
%ADD41O,2.54000X1.90500*%
%TA.AperFunction,ViaPad*%
%ADD50C,1.72720*%
%TA.AperFunction,ComponentPad*%
%ADD53C,3.19320*%
%ADD56O,1.73320X1.73319*%
%ADD58C,1.51120*%
%ADD59C,1.46120*%
%ADD60C,1.41120*%
%TA.AperFunction,ViaPad*%
%ADD62C,1.47320*%
%ADD63C,2.10820*%
%TA.AperFunction,ComponentPad*%
%ADD64R,2.10820X2.74320*%
%ADD65O,2.10820X2.74320*%
%ADD66C,3.50520*%
%ADD67R,3.50520X3.50520*%
%ADD68O,2.74320X1.73319*%
%ADD69O,2.74320X1.72720*%
%ADD70O,2.10820X5.28320*%
%ADD71O,2.74320X2.10820*%
%TA.AperFunction,ViaPad*%
%ADD72C,0.91440*%
D32*
X7166800Y14414500D02*
D03*
X7416800D02*
D03*
X7666800D02*
D03*
D33*
X9461500Y15494000D02*
D03*
D34*
X9207500D02*
D03*
D40*
X8757300Y13436600D02*
D03*
D41*
Y13690601D02*
D03*
D50*
X3175000Y2667000D02*
D03*
X13906500D02*
D03*
Y21158200D02*
D03*
X3175000D02*
D03*
D53*
X13385800Y5016500D02*
D03*
X12242800Y4151500D02*
D03*
Y5881500D02*
D03*
X13385800Y9385300D02*
D03*
X12242800Y8520300D02*
D03*
Y10250300D02*
D03*
X13385800Y13550900D02*
D03*
X12242800Y12685900D02*
D03*
Y14415900D02*
D03*
X3771900Y10510400D02*
D03*
X4914900Y11597400D02*
D03*
Y9423400D02*
D03*
X3771900Y18694400D02*
D03*
X4571900Y19609900D02*
D03*
Y17778900D02*
D03*
X13385800Y17818100D02*
D03*
X12585800Y16902600D02*
D03*
Y18733600D02*
D03*
X3771900Y14884399D02*
D03*
X4914900Y15749400D02*
D03*
Y14019400D02*
D03*
Y4432300D02*
D03*
Y6606300D02*
D03*
X3771900Y5519300D02*
D03*
D56*
X7340600Y6743700D02*
D03*
X7086600D02*
D03*
X6832600D02*
D03*
X6578600D02*
D03*
X6324600D02*
D03*
D58*
X10134600Y4686300D02*
D03*
X10388600Y9004300D02*
D03*
Y4686300D02*
D03*
X9880600D02*
D03*
X9626600D02*
D03*
X9372600D02*
D03*
D59*
X9423600Y7607300D02*
D03*
Y7861300D02*
D03*
Y8115300D02*
D03*
Y8369300D02*
D03*
Y8623300D02*
D03*
D60*
X9997600Y7961300D02*
D03*
X10197600D02*
D03*
X9997600Y7761300D02*
D03*
X10197600D02*
D03*
X10397600Y7961300D02*
D03*
Y7761300D02*
D03*
D62*
X6261100Y7340600D02*
D03*
X5998449Y7518400D02*
D03*
X6235700Y10134600D02*
D03*
X5740400Y10160000D02*
D03*
X5511800Y3632200D02*
D03*
X11468100Y8026400D02*
D03*
X11480800Y4610100D02*
D03*
X12217400Y11887200D02*
D03*
X8750300Y12725400D02*
D03*
X8902700Y14935201D02*
D03*
D63*
X5803900Y9829800D02*
D03*
X7404100Y9499600D02*
D03*
X7569200Y8877300D02*
D03*
X5892800D02*
D03*
X7461250Y11264900D02*
D03*
X6159500D02*
D03*
X7454900Y12750800D02*
D03*
X5918200D02*
D03*
D64*
X6916800Y14414500D02*
D03*
D65*
X8953500Y15494000D02*
D03*
D66*
X12775800Y4794000D02*
D03*
Y5239000D02*
D03*
X12140800D02*
D03*
X12775800Y9162800D02*
D03*
Y9607800D02*
D03*
X12140800D02*
D03*
X12775800Y13328400D02*
D03*
Y13773399D02*
D03*
X12140800D02*
D03*
X4381900Y10955400D02*
D03*
Y10065400D02*
D03*
X5016900Y10510400D02*
D03*
Y10065400D02*
D03*
X4381900Y10510400D02*
D03*
Y18421400D02*
D03*
X12775800Y18091100D02*
D03*
X4381900Y15106900D02*
D03*
Y14661900D02*
D03*
X5016900D02*
D03*
X4381900Y5519300D02*
D03*
X5016900Y5074300D02*
D03*
Y5519300D02*
D03*
X4381900Y5074300D02*
D03*
Y5964300D02*
D03*
D67*
X12140800Y4794000D02*
D03*
Y9162800D02*
D03*
Y13328400D02*
D03*
X5016900Y10955400D02*
D03*
X4381900Y18967400D02*
D03*
X12775800Y17545100D02*
D03*
X5016900Y15106900D02*
D03*
Y5964300D02*
D03*
D68*
X7594600Y6743700D02*
D03*
Y6489700D02*
D03*
Y6235700D02*
D03*
Y5981700D02*
D03*
Y5727700D02*
D03*
Y5473700D02*
D03*
Y5219700D02*
D03*
Y4965700D02*
D03*
Y4711700D02*
D03*
Y4457700D02*
D03*
Y4203700D02*
D03*
Y3949700D02*
D03*
Y3695700D02*
D03*
Y3441700D02*
D03*
X6070600Y6743700D02*
D03*
Y6489700D02*
D03*
Y6235700D02*
D03*
Y5981700D02*
D03*
Y5727700D02*
D03*
Y4711700D02*
D03*
Y3949700D02*
D03*
Y3695700D02*
D03*
Y3441700D02*
D03*
D69*
Y5473700D02*
D03*
Y5219700D02*
D03*
Y4965700D02*
D03*
Y4457700D02*
D03*
Y4203700D02*
D03*
X10642600Y5448300D02*
D03*
Y5194300D02*
D03*
Y4940300D02*
D03*
Y4686300D02*
D03*
Y4432300D02*
D03*
Y4178300D02*
D03*
Y3924300D02*
D03*
Y3670300D02*
D03*
Y3416300D02*
D03*
X9118600D02*
D03*
Y3670300D02*
D03*
Y3924300D02*
D03*
Y4178300D02*
D03*
Y4432300D02*
D03*
Y4686300D02*
D03*
Y4940300D02*
D03*
Y5194300D02*
D03*
Y5448300D02*
D03*
X10642600Y9258300D02*
D03*
Y9004300D02*
D03*
Y8750300D02*
D03*
Y8496300D02*
D03*
Y8242300D02*
D03*
Y7988300D02*
D03*
Y7734300D02*
D03*
Y7480300D02*
D03*
Y7226300D02*
D03*
Y6972300D02*
D03*
Y6718300D02*
D03*
Y6464300D02*
D03*
Y6210300D02*
D03*
Y5956300D02*
D03*
X9118600Y5702300D02*
D03*
Y5956300D02*
D03*
Y6210300D02*
D03*
Y6464300D02*
D03*
Y6718300D02*
D03*
Y6972300D02*
D03*
Y7226300D02*
D03*
Y7480300D02*
D03*
Y7734300D02*
D03*
Y7988300D02*
D03*
Y8242300D02*
D03*
Y8496300D02*
D03*
Y8750300D02*
D03*
X10642600Y5702300D02*
D03*
X9118600Y9004300D02*
D03*
Y9258300D02*
D03*
D70*
X8305800Y10617200D02*
D03*
X8051800D02*
D03*
X7797800D02*
D03*
X7543800D02*
D03*
X7797800Y12014200D02*
D03*
X8051800D02*
D03*
X6743700Y10617200D02*
D03*
X6489700D02*
D03*
X6235700D02*
D03*
X5981700D02*
D03*
X6235700Y12014200D02*
D03*
X6489700D02*
D03*
X6769100Y8115300D02*
D03*
X6515100D02*
D03*
X6261100D02*
D03*
X6007100D02*
D03*
X6261100Y9512300D02*
D03*
X6515100D02*
D03*
X8293100Y8102600D02*
D03*
X8039100D02*
D03*
X7785100D02*
D03*
X7531100D02*
D03*
X7785100Y9499600D02*
D03*
X8039100D02*
D03*
D71*
X8757300Y13944600D02*
D03*
D72*
X11506200Y9245600D02*
D03*
X11912600Y3429000D02*
D03*
X9372600Y9804400D02*
D03*
%TF.MD5,d960b7bedc76b265353e96bfe9228ac3*%
M02*
