G04*
G04 #@! TF.GenerationSoftware,Altium Limited,Altium Designer,24.10.1 (45)*
G04*
G04 Layer_Color=8388736*
%FSLAX44Y44*%
%MOMM*%
G71*
G04*
G04 #@! TF.SameCoordinates,B1CABA93-0C74-4B59-BD3F-C8C2F7FF4E79*
G04*
G04*
G04 #@! TF.FilePolarity,Negative*
G04*
G01*
G75*
%ADD12C,1.2032*%
%ADD13R,2.2032X5.2032*%
%ADD14R,2.8032X3.4032*%
%ADD15C,1.7532*%
%ADD16R,1.2500X1.2500*%
%ADD17C,1.2500*%
D12*
X829310Y486410D02*
D03*
X838503Y500710D02*
D03*
X823861Y502513D02*
D03*
X813323Y492190D02*
D03*
X814823Y477514D02*
D03*
X846222Y488139D02*
D03*
X827233Y469537D02*
D03*
X841206Y474266D02*
D03*
D13*
X482120Y645160D02*
D03*
X422120D02*
D03*
X1145850Y638810D02*
D03*
X1085850D02*
D03*
D14*
X497270Y207320D02*
D03*
X386270D02*
D03*
X1235140Y251770D02*
D03*
X1124140D02*
D03*
D15*
X417270Y277320D02*
D03*
X467270D02*
D03*
X417270Y132320D02*
D03*
X467270D02*
D03*
X442270D02*
D03*
X1155140Y321770D02*
D03*
X1205140D02*
D03*
X1155140Y176770D02*
D03*
X1205140D02*
D03*
X1180140D02*
D03*
D16*
X648970Y144310D02*
D03*
X887730Y137960D02*
D03*
D17*
X648970Y244310D02*
D03*
X887730Y237960D02*
D03*
M02*
