%TF.GenerationSoftware,Altium Limited,Altium Designer,24.10.1 (45)*%
G04 Layer_Color=65535*
%FSLAX45Y45*%
%MOMM*%
%TF.SameCoordinates,6FDAC12A-6018-4021-8F52-C8B52F5C83F9*%
%TF.FilePolarity,Positive*%
%TF.FileFunction,Legend,Top*%
%TF.Part,Single*%
G01*
G75*
%TA.AperFunction,NonConductor*%
%ADD19C,0.25000*%
%ADD20C,0.20000*%
%ADD21C,0.25400*%
G36*
X11172943Y2450159D02*
X11213159D01*
Y2445691D01*
X11231033D01*
Y2441222D01*
X11244439D01*
Y2436754D01*
X11253376D01*
Y2432285D01*
X11266781D01*
Y2427817D01*
X11275719D01*
Y2423348D01*
X11284656D01*
Y2418880D01*
X11289124D01*
Y2414411D01*
X11298061D01*
Y2409943D01*
X11302530D01*
Y2405474D01*
X11311467D01*
Y2401006D01*
X11315935D01*
Y2396537D01*
X11320404D01*
Y2392069D01*
X11324872D01*
Y2383131D01*
X11329341D01*
Y2378663D01*
X11333809D01*
Y2374194D01*
X11338278D01*
Y2369726D01*
X11333809D01*
Y2365257D01*
X11329341D01*
Y2360789D01*
X11324872D01*
Y2356320D01*
X11320404D01*
Y2351852D01*
X11315935D01*
Y2347383D01*
X11311467D01*
Y2342915D01*
X11306998D01*
Y2338446D01*
X11302530D01*
Y2333978D01*
X11298061D01*
Y2329509D01*
X11293593D01*
Y2325041D01*
X11284656D01*
Y2329509D01*
X11280187D01*
Y2333978D01*
X11271250D01*
Y2338446D01*
X11266781D01*
Y2342915D01*
X11262313D01*
Y2347383D01*
X11257844D01*
Y2351852D01*
X11248907D01*
Y2356320D01*
X11239970D01*
Y2360789D01*
X11235502D01*
Y2365257D01*
X11222096D01*
Y2369726D01*
X11213159D01*
Y2374194D01*
X11190817D01*
Y2378663D01*
X11137194D01*
Y2374194D01*
X11114852D01*
Y2369726D01*
X11105915D01*
Y2365257D01*
X11096978D01*
Y2360789D01*
X11088041D01*
Y2356320D01*
X11083572D01*
Y2351852D01*
X11079104D01*
Y2347383D01*
X11070167D01*
Y2342915D01*
X11065698D01*
Y2338446D01*
X11061230D01*
Y2333978D01*
X11056761D01*
Y2329509D01*
X11052293D01*
Y2320572D01*
X11047824D01*
Y2316104D01*
X11043356D01*
Y2307167D01*
X11038887D01*
Y2298230D01*
X11034419D01*
Y2284824D01*
X11029950D01*
Y2258013D01*
X11025481D01*
Y2231202D01*
X11029950D01*
Y2204391D01*
X11034419D01*
Y2190985D01*
X11038887D01*
Y2182048D01*
X11043356D01*
Y2173111D01*
X11047824D01*
Y2164174D01*
X11052293D01*
Y2159706D01*
X11056761D01*
Y2155237D01*
X11061230D01*
Y2150769D01*
X11065698D01*
Y2146300D01*
X11070167D01*
Y2141831D01*
X11074635D01*
Y2137363D01*
X11079104D01*
Y2132894D01*
X11088041D01*
Y2128426D01*
X11092509D01*
Y2123957D01*
X11101446D01*
Y2119489D01*
X11114852D01*
Y2115020D01*
X11128257D01*
Y2110552D01*
X11199754D01*
Y2115020D01*
X11217628D01*
Y2119489D01*
X11231033D01*
Y2123957D01*
X11235502D01*
Y2128426D01*
X11244439D01*
Y2132894D01*
X11253376D01*
Y2137363D01*
X11257844D01*
Y2141831D01*
X11262313D01*
Y2146300D01*
X11266781D01*
Y2150769D01*
X11275719D01*
Y2155237D01*
X11280187D01*
Y2159706D01*
X11284656D01*
Y2164174D01*
X11289124D01*
Y2159706D01*
X11293593D01*
Y2155237D01*
X11298061D01*
Y2150769D01*
X11302530D01*
Y2146300D01*
X11306998D01*
Y2141831D01*
X11311467D01*
Y2137363D01*
X11315935D01*
Y2132894D01*
X11320404D01*
Y2128426D01*
X11324872D01*
Y2123957D01*
X11329341D01*
Y2119489D01*
X11333809D01*
Y2106083D01*
X11329341D01*
Y2101615D01*
X11324872D01*
Y2097146D01*
X11320404D01*
Y2092678D01*
X11311467D01*
Y2088209D01*
X11306998D01*
Y2083741D01*
X11302530D01*
Y2079272D01*
X11298061D01*
Y2074804D01*
X11293593D01*
Y2070335D01*
X11284656D01*
Y2065867D01*
X11280187D01*
Y2061398D01*
X11266781D01*
Y2056930D01*
X11262313D01*
Y2052461D01*
X11248907D01*
Y2047993D01*
X11235502D01*
Y2043524D01*
X11217628D01*
Y2039056D01*
X11190817D01*
Y2034587D01*
X11137194D01*
Y2039056D01*
X11110383D01*
Y2043524D01*
X11092509D01*
Y2047993D01*
X11079104D01*
Y2052461D01*
X11070167D01*
Y2056930D01*
X11061230D01*
Y2061398D01*
X11052293D01*
Y2065867D01*
X11043356D01*
Y2070335D01*
X11034419D01*
Y2074804D01*
X11029950D01*
Y2079272D01*
X11025481D01*
Y2083741D01*
X11021013D01*
Y2088209D01*
X11016544D01*
Y2092678D01*
X11012076D01*
Y2097146D01*
X11007607D01*
Y2101615D01*
X11003139D01*
Y2106083D01*
X10998670D01*
Y2110552D01*
X10994202D01*
Y2115020D01*
X10989733D01*
Y2123957D01*
X10985265D01*
Y2128426D01*
X10980796D01*
Y2132894D01*
X10976328D01*
Y2141831D01*
X10971859D01*
Y2150769D01*
X10967391D01*
Y2164174D01*
X10962922D01*
Y2177580D01*
X10958454D01*
Y2195454D01*
X10953985D01*
Y2231202D01*
X10949517D01*
Y2258013D01*
X10953985D01*
Y2293761D01*
X10958454D01*
Y2307167D01*
X10962922D01*
Y2325041D01*
X10967391D01*
Y2333978D01*
X10971859D01*
Y2342915D01*
X10976328D01*
Y2351852D01*
X10980796D01*
Y2356320D01*
X10985265D01*
Y2365257D01*
X10989733D01*
Y2369726D01*
X10994202D01*
Y2374194D01*
X10998670D01*
Y2378663D01*
X11003139D01*
Y2383131D01*
X11007607D01*
Y2392069D01*
X11012076D01*
Y2396537D01*
X11016544D01*
Y2401006D01*
X11021013D01*
Y2405474D01*
X11029950D01*
Y2409943D01*
X11034419D01*
Y2414411D01*
X11038887D01*
Y2418880D01*
X11047824D01*
Y2423348D01*
X11056761D01*
Y2427817D01*
X11065698D01*
Y2432285D01*
X11074635D01*
Y2436754D01*
X11088041D01*
Y2441222D01*
X11101446D01*
Y2445691D01*
X11114852D01*
Y2450159D01*
X11159537D01*
Y2454628D01*
X11172943D01*
Y2450159D01*
D02*
G37*
G36*
X12307946Y2454628D02*
X12303478D01*
Y2436754D01*
X12299009D01*
Y2418880D01*
X12294541D01*
Y2401006D01*
X12290072D01*
Y2383131D01*
X12285604D01*
Y2365257D01*
X12281135D01*
Y2347383D01*
X12276667D01*
Y2329509D01*
X12272198D01*
Y2307167D01*
X12267730D01*
Y2293761D01*
X12263261D01*
Y2275887D01*
X12258793D01*
Y2258013D01*
X12254324D01*
Y2240139D01*
X12249856D01*
Y2217796D01*
X12245387D01*
Y2199922D01*
X12240919D01*
Y2186517D01*
X12236450D01*
Y2168643D01*
X12231981D01*
Y2155237D01*
X12227513D01*
Y2137363D01*
X12223044D01*
Y2119489D01*
X12218576D01*
Y2101615D01*
X12214107D01*
Y2083741D01*
X12209639D01*
Y2061398D01*
X12205170D01*
Y2043524D01*
X12200702D01*
Y2030119D01*
X12196233D01*
Y2025650D01*
X12075583D01*
Y2039056D01*
X12071115D01*
Y2056930D01*
X12066646D01*
Y2074804D01*
X12062178D01*
Y2092678D01*
X12057709D01*
Y2110552D01*
X12053241D01*
Y2128426D01*
X12048772D01*
Y2146300D01*
X12044304D01*
Y2164174D01*
X12039835D01*
Y2182048D01*
X12035367D01*
Y2199922D01*
X12030898D01*
Y2217796D01*
X12026430D01*
Y2231202D01*
X12021961D01*
Y2253544D01*
X12017493D01*
Y2271419D01*
X12013024D01*
Y2280356D01*
X12008556D01*
Y2289293D01*
X12004087D01*
Y2275887D01*
X11999619D01*
Y2258013D01*
X11995150D01*
Y2244607D01*
X11990681D01*
Y2222265D01*
X11986213D01*
Y2204391D01*
X11981744D01*
Y2186517D01*
X11977276D01*
Y2168643D01*
X11972807D01*
Y2150769D01*
X11968339D01*
Y2132894D01*
X11963870D01*
Y2115020D01*
X11959402D01*
Y2097146D01*
X11954933D01*
Y2079272D01*
X11950465D01*
Y2056930D01*
X11945996D01*
Y2039056D01*
X11941528D01*
Y2025650D01*
X11820878D01*
Y2030119D01*
X11816409D01*
Y2047993D01*
X11811941D01*
Y2061398D01*
X11807472D01*
Y2083741D01*
X11803004D01*
Y2101615D01*
X11798535D01*
Y2119489D01*
X11794067D01*
Y2132894D01*
X11789598D01*
Y2146300D01*
X11785130D01*
Y2164174D01*
X11780661D01*
Y2182048D01*
X11776193D01*
Y2199922D01*
X11771724D01*
Y2217796D01*
X11767256D01*
Y2235670D01*
X11762787D01*
Y2253544D01*
X11758319D01*
Y2262481D01*
Y2266950D01*
Y2271419D01*
X11753850D01*
Y2293761D01*
X11749381D01*
Y2307167D01*
X11744913D01*
Y2329509D01*
X11740444D01*
Y2347383D01*
X11735976D01*
Y2360789D01*
X11731507D01*
Y2383131D01*
X11727039D01*
Y2401006D01*
X11722570D01*
Y2418880D01*
X11718102D01*
Y2427817D01*
X11713633D01*
Y2445691D01*
X11709165D01*
Y2463565D01*
X11820878D01*
Y2459096D01*
X11825346D01*
Y2436754D01*
X11829815D01*
Y2414411D01*
X11834283D01*
Y2392069D01*
X11838752D01*
Y2369726D01*
X11843220D01*
Y2347383D01*
X11847689D01*
Y2325041D01*
X11852157D01*
Y2302698D01*
X11856626D01*
Y2280356D01*
X11861094D01*
Y2258013D01*
X11865563D01*
Y2244607D01*
X11870031D01*
Y2222265D01*
X11874500D01*
Y2199922D01*
X11878969D01*
Y2177580D01*
X11883437D01*
Y2182048D01*
X11887906D01*
Y2199922D01*
X11892374D01*
Y2217796D01*
X11896843D01*
Y2235670D01*
X11901311D01*
Y2253544D01*
X11905780D01*
Y2271419D01*
X11910248D01*
Y2289293D01*
X11914717D01*
Y2311635D01*
X11919185D01*
Y2329509D01*
X11923654D01*
Y2347383D01*
X11928122D01*
Y2365257D01*
X11932591D01*
Y2383131D01*
X11937059D01*
Y2396537D01*
X11941528D01*
Y2414411D01*
X11945996D01*
Y2427817D01*
X11950465D01*
Y2445691D01*
X11954933D01*
Y2463565D01*
X12062178D01*
Y2459096D01*
X12066646D01*
Y2441222D01*
X12071115D01*
Y2423348D01*
X12075583D01*
Y2405474D01*
X12080052D01*
Y2383131D01*
X12084520D01*
Y2369726D01*
X12088989D01*
Y2351852D01*
X12093457D01*
Y2333978D01*
X12097926D01*
Y2316104D01*
X12102394D01*
Y2293761D01*
X12106863D01*
Y2275887D01*
X12111331D01*
Y2258013D01*
X12115800D01*
Y2240139D01*
X12120269D01*
Y2217796D01*
X12124737D01*
Y2199922D01*
X12129206D01*
Y2182048D01*
X12133674D01*
Y2177580D01*
X12138143D01*
Y2199922D01*
X12142611D01*
Y2222265D01*
X12147080D01*
Y2240139D01*
X12151548D01*
Y2262481D01*
X12156017D01*
Y2284824D01*
X12160485D01*
Y2298230D01*
X12164954D01*
Y2320572D01*
X12169422D01*
Y2338446D01*
X12173891D01*
Y2360789D01*
X12178359D01*
Y2383131D01*
X12182828D01*
Y2405474D01*
X12187296D01*
Y2423348D01*
X12191765D01*
Y2445691D01*
X12196233D01*
Y2463565D01*
X12307946D01*
Y2454628D01*
D02*
G37*
G36*
X12933539Y2342915D02*
X12929070D01*
Y2329509D01*
X12924602D01*
Y2316104D01*
X12920132D01*
Y2302698D01*
X12915665D01*
Y2289293D01*
X12911195D01*
Y2280356D01*
X12906728D01*
Y2266950D01*
X12902258D01*
Y2253544D01*
X12897791D01*
Y2244607D01*
X12893323D01*
Y2231202D01*
X12888853D01*
Y2222265D01*
X12884386D01*
Y2208859D01*
X12879916D01*
Y2195454D01*
X12875449D01*
Y2182048D01*
X12870979D01*
Y2173111D01*
X12866512D01*
Y2159706D01*
X12862044D01*
Y2146300D01*
X12857574D01*
Y2132894D01*
X12853107D01*
Y2119489D01*
X12848637D01*
Y2110552D01*
X12844170D01*
Y2097146D01*
X12839700D01*
Y2083741D01*
X12835231D01*
Y2070335D01*
X12830763D01*
Y2061398D01*
X12826294D01*
Y2047993D01*
X12821826D01*
Y2039056D01*
X12817357D01*
Y2030119D01*
X12812889D01*
Y2016713D01*
X12808420D01*
Y2003307D01*
X12803952D01*
Y1989902D01*
X12799483D01*
Y1976496D01*
X12795015D01*
Y1967559D01*
X12790546D01*
Y1949685D01*
X12817357D01*
Y1945217D01*
X12853107D01*
Y1940748D01*
X12888853D01*
Y1936280D01*
X12929070D01*
Y1931811D01*
X12969287D01*
Y1927343D01*
X12964819D01*
Y1922874D01*
X12960350D01*
Y1918406D01*
X12942476D01*
Y1922874D01*
X12893323D01*
Y1927343D01*
X12857574D01*
Y1931811D01*
X12808420D01*
Y1936280D01*
X12803952D01*
Y1931811D01*
X12795015D01*
Y1936280D01*
X12781609D01*
Y1931811D01*
X12777141D01*
Y1913937D01*
X12772672D01*
Y1905000D01*
X12660959D01*
Y1913937D01*
X12665428D01*
Y1927343D01*
X12669896D01*
Y1936280D01*
X12674365D01*
Y1945217D01*
X12647554D01*
Y1949685D01*
X12589463D01*
Y1954154D01*
X12540309D01*
Y1958622D01*
X12482219D01*
Y1963091D01*
X12392848D01*
Y1967559D01*
X12254324D01*
Y1972028D01*
X12138143D01*
Y1967559D01*
X11977276D01*
Y1963091D01*
X11861094D01*
Y1958622D01*
X11794067D01*
Y1954154D01*
X11735976D01*
Y1949685D01*
X11664480D01*
Y1945217D01*
X11610857D01*
Y1940748D01*
X11566172D01*
Y1936280D01*
X11517019D01*
Y1931811D01*
X11463396D01*
Y1927343D01*
X11441054D01*
Y1922874D01*
X11405306D01*
Y1918406D01*
X11360620D01*
Y1913937D01*
X11320404D01*
Y1909469D01*
X11293593D01*
Y1905000D01*
X11253376D01*
Y1900531D01*
X11213159D01*
Y1896063D01*
X11186348D01*
Y1891594D01*
X11155069D01*
Y1887126D01*
X11119320D01*
Y1882657D01*
X11092509D01*
Y1878189D01*
X11065698D01*
Y1873720D01*
X11034419D01*
Y1869252D01*
X11003139D01*
Y1864783D01*
X10976328D01*
Y1860315D01*
X10949517D01*
Y1855846D01*
X10918237D01*
Y1851378D01*
X10891426D01*
Y1846909D01*
X10878020D01*
Y1842441D01*
X10846741D01*
Y1837972D01*
X10819930D01*
Y1833504D01*
X10797587D01*
Y1829035D01*
X10770776D01*
Y1824567D01*
X10743965D01*
Y1820098D01*
X10721622D01*
Y1815630D01*
X10703748D01*
Y1811161D01*
X10672469D01*
Y1806693D01*
X10650126D01*
Y1802224D01*
X10627783D01*
Y1797756D01*
X10596504D01*
Y1793287D01*
X10578630D01*
Y1788819D01*
X10560756D01*
Y1802224D01*
X10565224D01*
Y1824567D01*
X10569693D01*
Y1842441D01*
X10574161D01*
Y1846909D01*
X10583098D01*
Y1851378D01*
X10605441D01*
Y1855846D01*
X10627783D01*
Y1860315D01*
X10659063D01*
Y1864783D01*
X10681406D01*
Y1869252D01*
X10703748D01*
Y1873720D01*
X10735028D01*
Y1878189D01*
X10766307D01*
Y1882657D01*
X10788650D01*
Y1887126D01*
X10819930D01*
Y1891594D01*
X10851209D01*
Y1896063D01*
X10878020D01*
Y1900531D01*
X10904831D01*
Y1905000D01*
X10940580D01*
Y1909469D01*
X10971859D01*
Y1913937D01*
X11003139D01*
Y1918406D01*
X11034419D01*
Y1922874D01*
X11061230D01*
Y1927343D01*
X11092509D01*
Y1931811D01*
X11128257D01*
Y1936280D01*
X11172943D01*
Y1940748D01*
X11204222D01*
Y1945217D01*
X11208691D01*
Y1940748D01*
X11213159D01*
Y1945217D01*
X11244439D01*
Y1949685D01*
X11298061D01*
Y1954154D01*
X11342746D01*
Y1958622D01*
X11387431D01*
Y1963091D01*
X11432117D01*
Y1967559D01*
X11494676D01*
Y1972028D01*
X11552767D01*
Y1976496D01*
X11610857D01*
Y1980965D01*
X11695759D01*
Y1985433D01*
X11785130D01*
Y1989902D01*
X11919185D01*
Y1994370D01*
X12173891D01*
Y1989902D01*
X12290072D01*
Y1985433D01*
X12294541D01*
Y1989902D01*
X12303478D01*
Y1985433D01*
X12397317D01*
Y1980965D01*
X12477750D01*
Y1976496D01*
X12531372D01*
Y1972028D01*
X12580526D01*
Y1967559D01*
X12643085D01*
Y1963091D01*
X12683302D01*
Y1967559D01*
X12687770D01*
Y1980965D01*
X12692239D01*
Y1994370D01*
X12696707D01*
Y2003307D01*
X12701176D01*
Y2016713D01*
X12705644D01*
Y2025650D01*
X12710113D01*
Y2039056D01*
X12705644D01*
Y2052461D01*
X12701176D01*
Y2061398D01*
X12696707D01*
Y2074804D01*
X12692239D01*
Y2088209D01*
X12687770D01*
Y2101615D01*
X12683302D01*
Y2110552D01*
X12678833D01*
Y2123957D01*
X12674365D01*
Y2132894D01*
X12669896D01*
Y2146300D01*
X12665428D01*
Y2155237D01*
X12660959D01*
Y2168643D01*
X12656491D01*
Y2182048D01*
X12652022D01*
Y2195454D01*
X12647554D01*
Y2204391D01*
X12643085D01*
Y2217796D01*
X12638617D01*
Y2226733D01*
X12634148D01*
Y2240139D01*
X12629680D01*
Y2253544D01*
X12625211D01*
Y2266950D01*
X12620743D01*
Y2275887D01*
X12616274D01*
Y2289293D01*
X12611806D01*
Y2302698D01*
X12607337D01*
Y2316104D01*
X12602869D01*
Y2325041D01*
X12598400D01*
Y2333978D01*
X12593931D01*
Y2347383D01*
X12589463D01*
Y2356320D01*
X12696707D01*
Y2351852D01*
X12701176D01*
Y2338446D01*
X12705644D01*
Y2325041D01*
X12710113D01*
Y2307167D01*
X12714581D01*
Y2293761D01*
X12719050D01*
Y2280356D01*
X12723519D01*
Y2266950D01*
X12727987D01*
Y2253544D01*
X12732456D01*
Y2240139D01*
X12736924D01*
Y2226733D01*
X12741393D01*
Y2213328D01*
X12745861D01*
Y2199922D01*
X12750330D01*
Y2190985D01*
X12754798D01*
Y2177580D01*
X12759267D01*
Y2164174D01*
X12763735D01*
Y2155237D01*
X12768204D01*
Y2159706D01*
X12772672D01*
Y2177580D01*
X12777141D01*
Y2190985D01*
X12781609D01*
Y2204391D01*
X12786078D01*
Y2217796D01*
X12790546D01*
Y2231202D01*
X12795015D01*
Y2249076D01*
X12799483D01*
Y2262481D01*
X12803952D01*
Y2275887D01*
X12808420D01*
Y2289293D01*
X12812889D01*
Y2307167D01*
X12817357D01*
Y2320572D01*
X12821826D01*
Y2333978D01*
X12826294D01*
Y2342915D01*
X12830763D01*
Y2356320D01*
X12933539D01*
Y2342915D01*
D02*
G37*
G36*
X12468813Y2360789D02*
X12500093D01*
Y2356320D01*
X12517967D01*
Y2351852D01*
X12531372D01*
Y2347383D01*
X12540309D01*
Y2342915D01*
X12549246D01*
Y2338446D01*
X12553715D01*
Y2333978D01*
X12562652D01*
Y2329509D01*
X12567120D01*
Y2325041D01*
X12571589D01*
Y2320572D01*
X12576057D01*
Y2311635D01*
X12580526D01*
Y2302698D01*
X12584994D01*
Y2289293D01*
X12589463D01*
Y2266950D01*
X12593931D01*
Y2025650D01*
X12491156D01*
Y2034587D01*
Y2039056D01*
Y2056930D01*
X12486687D01*
Y2052461D01*
X12477750D01*
Y2047993D01*
X12473281D01*
Y2043524D01*
X12468813D01*
Y2039056D01*
X12459876D01*
Y2034587D01*
X12450939D01*
Y2030119D01*
X12442002D01*
Y2025650D01*
X12433065D01*
Y2021181D01*
X12415191D01*
Y2016713D01*
X12366037D01*
Y2021181D01*
X12348163D01*
Y2025650D01*
X12339226D01*
Y2030119D01*
X12330289D01*
Y2034587D01*
X12325820D01*
Y2039056D01*
X12321352D01*
Y2043524D01*
X12312415D01*
Y2047993D01*
X12307946D01*
Y2052461D01*
X12303478D01*
Y2061398D01*
X12299009D01*
Y2065867D01*
X12294541D01*
Y2074804D01*
X12290072D01*
Y2092678D01*
X12285604D01*
Y2150769D01*
X12290072D01*
Y2168643D01*
X12294541D01*
Y2177580D01*
X12299009D01*
Y2182048D01*
X12303478D01*
Y2190985D01*
X12312415D01*
Y2195454D01*
X12316883D01*
Y2199922D01*
X12321352D01*
Y2204391D01*
X12325820D01*
Y2208859D01*
X12334757D01*
Y2213328D01*
X12343694D01*
Y2217796D01*
X12352631D01*
Y2222265D01*
X12366037D01*
Y2226733D01*
X12383911D01*
Y2231202D01*
X12406254D01*
Y2235670D01*
X12433065D01*
Y2240139D01*
X12482219D01*
Y2244607D01*
X12491156D01*
Y2262481D01*
X12486687D01*
Y2271419D01*
X12482219D01*
Y2275887D01*
X12477750D01*
Y2280356D01*
X12473281D01*
Y2284824D01*
X12459876D01*
Y2289293D01*
X12428596D01*
Y2293761D01*
X12401785D01*
Y2289293D01*
X12374974D01*
Y2284824D01*
X12357100D01*
Y2280356D01*
X12343694D01*
Y2275887D01*
X12330289D01*
Y2271419D01*
X12321352D01*
Y2266950D01*
X12316883D01*
Y2271419D01*
X12312415D01*
Y2347383D01*
X12316883D01*
Y2351852D01*
X12334757D01*
Y2356320D01*
X12361569D01*
Y2360789D01*
X12397317D01*
Y2365257D01*
X12468813D01*
Y2360789D01*
D02*
G37*
G36*
X11534893Y2459096D02*
X11592983D01*
Y2454628D01*
X11610857D01*
Y2450159D01*
X11624263D01*
Y2445691D01*
X11633200D01*
Y2441222D01*
X11637669D01*
Y2436754D01*
X11646606D01*
Y2432285D01*
X11651074D01*
Y2427817D01*
X11655543D01*
Y2423348D01*
X11660011D01*
Y2418880D01*
X11664480D01*
Y2414411D01*
X11668948D01*
Y2405474D01*
X11673417D01*
Y2392069D01*
X11677885D01*
Y2369726D01*
X11682354D01*
Y2351852D01*
X11677885D01*
Y2329509D01*
X11673417D01*
Y2316104D01*
X11668948D01*
Y2307167D01*
X11664480D01*
Y2298230D01*
X11660011D01*
Y2293761D01*
X11655543D01*
Y2289293D01*
X11651074D01*
Y2284824D01*
X11646606D01*
Y2280356D01*
X11637669D01*
Y2275887D01*
X11633200D01*
Y2271419D01*
X11624263D01*
Y2262481D01*
X11637669D01*
Y2258013D01*
X11651074D01*
Y2253544D01*
X11660011D01*
Y2249076D01*
X11664480D01*
Y2244607D01*
X11673417D01*
Y2240139D01*
X11677885D01*
Y2235670D01*
X11682354D01*
Y2231202D01*
X11686822D01*
Y2222265D01*
X11691291D01*
Y2217796D01*
X11695759D01*
Y2204391D01*
X11700228D01*
Y2106083D01*
X11695759D01*
Y2097146D01*
X11691291D01*
Y2088209D01*
X11686822D01*
Y2083741D01*
X11682354D01*
Y2074804D01*
X11677885D01*
Y2070335D01*
X11673417D01*
Y2065867D01*
X11668948D01*
Y2061398D01*
X11664480D01*
Y2056930D01*
X11655543D01*
Y2052461D01*
X11651074D01*
Y2047993D01*
X11642137D01*
Y2043524D01*
X11633200D01*
Y2039056D01*
X11619794D01*
Y2034587D01*
X11606389D01*
Y2030119D01*
X11584046D01*
Y2025650D01*
X11360620D01*
Y2459096D01*
X11365089D01*
Y2463565D01*
X11534893D01*
Y2459096D01*
D02*
G37*
G36*
X10828867Y2450159D02*
X10851209D01*
Y2445691D01*
X10864615D01*
Y2441222D01*
X10873552D01*
Y2436754D01*
X10882489D01*
Y2432285D01*
X10886957D01*
Y2427817D01*
X10891426D01*
Y2423348D01*
X10895894D01*
Y2418880D01*
X10900363D01*
Y2414411D01*
X10904831D01*
Y2409943D01*
X10909300D01*
Y2405474D01*
X10913769D01*
Y2401006D01*
X10918237D01*
Y2392069D01*
X10922706D01*
Y2378663D01*
X10927174D01*
Y2365257D01*
X10931643D01*
Y2338446D01*
X10936111D01*
Y2307167D01*
X10931643D01*
Y2280356D01*
X10927174D01*
Y2266950D01*
X10922706D01*
Y2258013D01*
X10918237D01*
Y2249076D01*
X10913769D01*
Y2244607D01*
X10909300D01*
Y2235670D01*
X10904831D01*
Y2231202D01*
X10900363D01*
Y2226733D01*
X10895894D01*
Y2222265D01*
X10891426D01*
Y2217796D01*
X10882489D01*
Y2213328D01*
X10878020D01*
Y2208859D01*
X10869083D01*
Y2204391D01*
X10860146D01*
Y2199922D01*
X10851209D01*
Y2195454D01*
X10833335D01*
Y2190985D01*
X10775244D01*
Y2186517D01*
X10690343D01*
Y2025650D01*
X10605441D01*
Y2052461D01*
Y2056930D01*
Y2454628D01*
X10828867D01*
Y2450159D01*
D02*
G37*
G36*
X4840062Y2771284D02*
X4899916D01*
Y2767959D01*
X4903242D01*
Y2771284D01*
X4906567D01*
Y2767959D01*
X4949795D01*
Y2764634D01*
X4979722D01*
Y2761309D01*
X5002999D01*
Y2757983D01*
X5022950D01*
Y2754658D01*
X5049552D01*
Y2751333D01*
X5069503D01*
Y2748008D01*
X5089455D01*
Y2744682D01*
X5102756D01*
Y2741357D01*
X5116057D01*
Y2738032D01*
X5136008D01*
Y2734707D01*
X5149309D01*
Y2731381D01*
X5165935D01*
Y2728056D01*
X5175911D01*
Y2724731D01*
X5185887D01*
Y2721406D01*
X5202513D01*
Y2718080D01*
X5215814D01*
Y2714755D01*
X5225790D01*
Y2711430D01*
X5235765D01*
Y2708105D01*
X5249066D01*
Y2704780D01*
X5259042D01*
Y2701454D01*
X5269018D01*
Y2698129D01*
X5278993D01*
Y2694804D01*
X5285644D01*
Y2691479D01*
X5298945D01*
Y2688153D01*
X5308921D01*
Y2684828D01*
X5318896D01*
Y2681503D01*
X5325547D01*
Y2678178D01*
X5332197D01*
Y2674852D01*
X5342173D01*
Y2671527D01*
X5352149D01*
Y2668202D01*
X5362124D01*
Y2664877D01*
X5365450D01*
Y2661551D01*
X5375425D01*
Y2658226D01*
X5382076D01*
Y2654901D01*
X5392051D01*
Y2651576D01*
X5398702D01*
Y2648250D01*
X5405352D01*
Y2644925D01*
X5412003D01*
Y2641600D01*
X5421978D01*
Y2638275D01*
X5428629D01*
Y2634950D01*
X5431954D01*
Y2631624D01*
X5438605D01*
Y2628299D01*
X5448580D01*
Y2624974D01*
X5455231D01*
Y2621649D01*
X5461881D01*
Y2618323D01*
X5465206D01*
Y2614998D01*
X5471857D01*
Y2611673D01*
X5478507D01*
Y2608348D01*
X5485158D01*
Y2605022D01*
X5491808D01*
Y2601697D01*
X5495134D01*
Y2598372D01*
X5501784D01*
Y2595047D01*
X5508435D01*
Y2591722D01*
X5515085D01*
Y2588396D01*
X5518410D01*
Y2585071D01*
X5525061D01*
Y2581746D01*
X5528386D01*
Y2578421D01*
X5535037D01*
Y2575095D01*
X5541687D01*
Y2571770D01*
X5545012D01*
Y2568445D01*
X5548337D01*
Y2565120D01*
X5554988D01*
Y2561794D01*
X5558313D01*
Y2558469D01*
X5564964D01*
Y2555144D01*
X5568289D01*
Y2551819D01*
X5571614D01*
Y2548494D01*
X5578265D01*
Y2545168D01*
X5584915D01*
Y2541843D01*
X5588240D01*
Y2538518D01*
X5591566D01*
Y2535193D01*
X5594891D01*
Y2531867D01*
X5601541D01*
Y2528542D01*
X5604867D01*
Y2525217D01*
X5608192D01*
Y2521892D01*
X5611517D01*
Y2518566D01*
X5618168D01*
Y2515241D01*
X5621493D01*
Y2511916D01*
X5624818D01*
Y2508591D01*
X5628143D01*
Y2505265D01*
X5631469D01*
Y2501940D01*
X5638119D01*
Y2498615D01*
X5641444D01*
Y2495290D01*
X5644769D01*
Y2491965D01*
X5648095D01*
Y2488639D01*
X5651420D01*
Y2485314D01*
X5654745D01*
Y2481989D01*
X5658070D01*
Y2478664D01*
X5661396D01*
Y2475338D01*
X5664721D01*
Y2472013D01*
X5668046D01*
Y2468688D01*
X5671371D01*
Y2465363D01*
X5674697D01*
Y2462037D01*
X5678022D01*
Y2458712D01*
X5681347D01*
Y2455387D01*
X5684672D01*
Y2452062D01*
X5687998D01*
Y2448736D01*
X5691323D01*
Y2445411D01*
X5694648D01*
Y2442086D01*
X5697973D01*
Y2438761D01*
X5701298D01*
Y2435435D01*
X5704624D01*
Y2432110D01*
X5707949D01*
Y2428785D01*
X5711274D01*
Y2422135D01*
X5714599D01*
Y2418809D01*
X5717925D01*
Y2415484D01*
X5721250D01*
Y2412159D01*
X5724575D01*
Y2405508D01*
X5727900D01*
Y2402183D01*
X5731226D01*
Y2398858D01*
X5734551D01*
Y2392207D01*
X5737876D01*
Y2388882D01*
X5741201D01*
Y2385557D01*
X5744526D01*
Y2378906D01*
X5747852D01*
Y2375581D01*
X5751177D01*
Y2372256D01*
X5754502D01*
Y2365605D01*
X5757827D01*
Y2362280D01*
X5761153D01*
Y2355630D01*
X5764478D01*
Y2348979D01*
X5767803D01*
Y2342329D01*
X5771128D01*
Y2339003D01*
X5774454D01*
Y2332353D01*
X5777779D01*
Y2325703D01*
X5781104D01*
Y2319052D01*
X5784429D01*
Y2312402D01*
X5787754D01*
Y2305751D01*
X5791080D01*
Y2299101D01*
X5794405D01*
Y2289125D01*
X5797730D01*
Y2282474D01*
X5801055D01*
Y2275824D01*
X5804381D01*
Y2265848D01*
X5807706D01*
Y2255873D01*
X5811031D01*
Y2242572D01*
X5814356D01*
Y2232596D01*
X5817682D01*
Y2219295D01*
X5821007D01*
Y2205994D01*
X5824332D01*
Y2186043D01*
X5827657D01*
Y2152790D01*
X5830983D01*
Y2092936D01*
X5827657D01*
Y2059684D01*
X5824332D01*
Y2039732D01*
X5821007D01*
Y2023106D01*
X5817682D01*
Y2013130D01*
X5814356D01*
Y2003155D01*
X5811031D01*
Y1989854D01*
X5807706D01*
Y1979878D01*
X5804381D01*
Y1969902D01*
X5801055D01*
Y1963252D01*
X5797730D01*
Y1956601D01*
X5794405D01*
Y1946626D01*
X5791080D01*
Y1939975D01*
X5787754D01*
Y1933325D01*
X5784429D01*
Y1926674D01*
X5781104D01*
Y1920024D01*
X5777779D01*
Y1913373D01*
X5774454D01*
Y1906723D01*
X5771128D01*
Y1903398D01*
X5767803D01*
Y1896747D01*
X5764478D01*
Y1890097D01*
X5761153D01*
Y1886771D01*
X5757827D01*
Y1880121D01*
X5754502D01*
Y1873470D01*
X5751177D01*
Y1870145D01*
X5747852D01*
Y1866820D01*
X5744526D01*
Y1860170D01*
X5741201D01*
Y1856844D01*
X5737876D01*
Y1853519D01*
X5734551D01*
Y1846869D01*
X5731226D01*
Y1843543D01*
X5727900D01*
Y1840218D01*
X5724575D01*
Y1833568D01*
X5721250D01*
Y1830242D01*
X5717925D01*
Y1826917D01*
X5714599D01*
Y1823592D01*
X5711274D01*
Y1816942D01*
X5707949D01*
Y1813616D01*
X5704624D01*
Y1810291D01*
X5701298D01*
Y1806966D01*
X5697973D01*
Y1803641D01*
X5694648D01*
Y1800315D01*
X5691323D01*
Y1796990D01*
X5687998D01*
Y1793665D01*
X5684672D01*
Y1790340D01*
X5681347D01*
Y1787014D01*
X5678022D01*
Y1783689D01*
X5674697D01*
Y1780364D01*
X5671371D01*
Y1777039D01*
X5668046D01*
Y1773713D01*
X5664721D01*
Y1770388D01*
X5661396D01*
Y1767063D01*
X5658070D01*
Y1763738D01*
X5654745D01*
Y1760412D01*
X5651420D01*
Y1757087D01*
X5648095D01*
Y1753762D01*
X5644769D01*
Y1750437D01*
X5641444D01*
Y1747112D01*
X5634794D01*
Y1743786D01*
X5631469D01*
Y1740461D01*
X5628143D01*
Y1737136D01*
X5624818D01*
Y1733811D01*
X5621493D01*
Y1730485D01*
X5618168D01*
Y1727160D01*
X5611517D01*
Y1723835D01*
X5608192D01*
Y1720510D01*
X5604867D01*
Y1717184D01*
X5598216D01*
Y1713859D01*
X5594891D01*
Y1710534D01*
X5591566D01*
Y1707209D01*
X5588240D01*
Y1703883D01*
X5581590D01*
Y1700558D01*
X5578265D01*
Y1697233D01*
X5571614D01*
Y1693908D01*
X5568289D01*
Y1690582D01*
X5564964D01*
Y1687257D01*
X5558313D01*
Y1683932D01*
X5554988D01*
Y1680607D01*
X5548337D01*
Y1677281D01*
X5545012D01*
Y1673956D01*
X5538362D01*
Y1670631D01*
X5535037D01*
Y1667306D01*
X5528386D01*
Y1663980D01*
X5521736D01*
Y1660655D01*
X5518410D01*
Y1657330D01*
X5511760D01*
Y1654005D01*
X5505109D01*
Y1650680D01*
X5498459D01*
Y1647354D01*
X5495134D01*
Y1644029D01*
X5491808D01*
Y1640704D01*
X5485158D01*
Y1637379D01*
X5478507D01*
Y1634053D01*
X5471857D01*
Y1630728D01*
X5465206D01*
Y1627403D01*
X5458556D01*
Y1624078D01*
X5451906D01*
Y1620752D01*
X5445255D01*
Y1617427D01*
X5438605D01*
Y1614102D01*
X5431954D01*
Y1610777D01*
X5428629D01*
Y1607451D01*
X5418653D01*
Y1604126D01*
X5412003D01*
Y1600801D01*
X5405352D01*
Y1597476D01*
X5398702D01*
Y1594150D01*
X5392051D01*
Y1590825D01*
X5382076D01*
Y1587500D01*
X5372100D01*
Y1584175D01*
X5365450D01*
Y1580850D01*
X5358799D01*
Y1577524D01*
X5352149D01*
Y1574199D01*
X5342173D01*
Y1570874D01*
X5332197D01*
Y1567549D01*
X5325547D01*
Y1564223D01*
X5315571D01*
Y1560898D01*
X5308921D01*
Y1557573D01*
X5298945D01*
Y1554248D01*
X5285644D01*
Y1550922D01*
X5278993D01*
Y1547597D01*
X5269018D01*
Y1544272D01*
X5259042D01*
Y1540947D01*
X5245741D01*
Y1537622D01*
X5235765D01*
Y1534296D01*
X5225790D01*
Y1530971D01*
X5215814D01*
Y1527646D01*
X5202513D01*
Y1524321D01*
X5185887D01*
Y1520995D01*
X5175911D01*
Y1517670D01*
X5165935D01*
Y1514345D01*
X5149309D01*
Y1511020D01*
X5132683D01*
Y1507694D01*
X5116057D01*
Y1504369D01*
X5102756D01*
Y1501044D01*
X5086130D01*
Y1497719D01*
X5066178D01*
Y1494394D01*
X5042902D01*
Y1491068D01*
X5019625D01*
Y1487743D01*
X5002999D01*
Y1484418D01*
X4976397D01*
Y1481093D01*
X4946470D01*
Y1477767D01*
X4903242D01*
Y1474442D01*
X4840062D01*
Y1471117D01*
X4720354D01*
Y1474442D01*
X4717028D01*
Y1471117D01*
X4713703D01*
Y1474442D01*
X4657174D01*
Y1477767D01*
X4610621D01*
Y1481093D01*
X4580694D01*
Y1484418D01*
X4557417D01*
Y1487743D01*
X4537466D01*
Y1491068D01*
X4510864D01*
Y1494394D01*
X4490912D01*
Y1497719D01*
X4470961D01*
Y1501044D01*
X4454335D01*
Y1504369D01*
X4444359D01*
Y1507694D01*
X4424407D01*
Y1511020D01*
X4407781D01*
Y1514345D01*
X4394480D01*
Y1517670D01*
X4384505D01*
Y1520995D01*
X4371204D01*
Y1524321D01*
X4357903D01*
Y1527646D01*
X4344602D01*
Y1530971D01*
X4331301D01*
Y1534296D01*
X4321325D01*
Y1537622D01*
X4311350D01*
Y1540947D01*
X4298049D01*
Y1544272D01*
X4288073D01*
Y1547597D01*
X4278097D01*
Y1550922D01*
X4271447D01*
Y1554248D01*
X4261471D01*
Y1557573D01*
X4251495D01*
Y1560898D01*
X4241520D01*
Y1564223D01*
X4234869D01*
Y1567549D01*
X4224893D01*
Y1570874D01*
X4218243D01*
Y1574199D01*
X4208267D01*
Y1577524D01*
X4198292D01*
Y1580850D01*
X4191641D01*
Y1584175D01*
X4184991D01*
Y1587500D01*
X4178340D01*
Y1590825D01*
X4168364D01*
Y1594150D01*
X4161714D01*
Y1597476D01*
X4155063D01*
Y1600801D01*
X4148413D01*
Y1604126D01*
X4138437D01*
Y1607451D01*
X4131787D01*
Y1610777D01*
X4125136D01*
Y1614102D01*
X4118486D01*
Y1617427D01*
X4111835D01*
Y1620752D01*
X4105185D01*
Y1624078D01*
X4098534D01*
Y1627403D01*
X4095209D01*
Y1630728D01*
X4088559D01*
Y1634053D01*
X4081908D01*
Y1637379D01*
X4075258D01*
Y1640704D01*
X4068607D01*
Y1644029D01*
X4065282D01*
Y1647354D01*
X4058631D01*
Y1650680D01*
X4051981D01*
Y1654005D01*
X4045330D01*
Y1657330D01*
X4042005D01*
Y1660655D01*
X4035355D01*
Y1663980D01*
X4032030D01*
Y1667306D01*
X4025379D01*
Y1670631D01*
X4018729D01*
Y1673956D01*
X4015403D01*
Y1677281D01*
X4008753D01*
Y1680607D01*
X4005428D01*
Y1683932D01*
X3998777D01*
Y1687257D01*
X3995452D01*
Y1690582D01*
X3988802D01*
Y1693908D01*
X3985476D01*
Y1697233D01*
X3982151D01*
Y1700558D01*
X3975501D01*
Y1703883D01*
X3972175D01*
Y1707209D01*
X3968850D01*
Y1710534D01*
X3962200D01*
Y1713859D01*
X3958874D01*
Y1717184D01*
X3955549D01*
Y1720510D01*
X3948899D01*
Y1723835D01*
X3945574D01*
Y1727160D01*
X3942248D01*
Y1730485D01*
X3938923D01*
Y1733811D01*
X3932273D01*
Y1737136D01*
X3928947D01*
Y1740461D01*
X3925622D01*
Y1743786D01*
X3922297D01*
Y1747112D01*
X3918972D01*
Y1750437D01*
X3915646D01*
Y1753762D01*
X3912321D01*
Y1757087D01*
X3908996D01*
Y1760412D01*
X3902346D01*
Y1763738D01*
X3899020D01*
Y1767063D01*
X3895695D01*
Y1770388D01*
X3892370D01*
Y1777039D01*
X3885719D01*
Y1780364D01*
X3882394D01*
Y1783689D01*
X3879069D01*
Y1787014D01*
X3875744D01*
Y1790340D01*
X3872418D01*
Y1793665D01*
X3869093D01*
Y1796990D01*
X3865768D01*
Y1803641D01*
X3862443D01*
Y1806966D01*
X3859117D01*
Y1810291D01*
X3855792D01*
Y1813616D01*
X3852467D01*
Y1816942D01*
X3849142D01*
Y1820267D01*
X3845816D01*
Y1826917D01*
X3842491D01*
Y1830242D01*
X3839166D01*
Y1833568D01*
X3835841D01*
Y1836893D01*
X3832515D01*
Y1840218D01*
X3829190D01*
Y1846869D01*
X3825865D01*
Y1850194D01*
X3822540D01*
Y1853519D01*
X3819215D01*
Y1860170D01*
X3815889D01*
Y1863495D01*
X3812564D01*
Y1870145D01*
X3809239D01*
Y1873470D01*
X3805914D01*
Y1876796D01*
X3802588D01*
Y1883446D01*
X3799263D01*
Y1890097D01*
X3795938D01*
Y1893422D01*
X3792613D01*
Y1900072D01*
X3789287D01*
Y1903398D01*
X3785962D01*
Y1913373D01*
X3782637D01*
Y1920024D01*
X3779312D01*
Y1923349D01*
X3775986D01*
Y1929999D01*
X3772661D01*
Y1936650D01*
X3769336D01*
Y1946626D01*
X3766011D01*
Y1953276D01*
X3762685D01*
Y1959926D01*
X3759360D01*
Y1966577D01*
X3756035D01*
Y1976553D01*
X3752710D01*
Y1989854D01*
X3749384D01*
Y1996504D01*
X3746059D01*
Y2006480D01*
X3742734D01*
Y2019781D01*
X3739409D01*
Y2033082D01*
X3736083D01*
Y2049708D01*
X3732758D01*
Y2076310D01*
X3729433D01*
Y2169417D01*
X3732758D01*
Y2196018D01*
X3736083D01*
Y2212645D01*
X3739409D01*
Y2225946D01*
X3742734D01*
Y2239246D01*
X3746059D01*
Y2249222D01*
X3749384D01*
Y2259198D01*
X3752710D01*
Y2269174D01*
X3756035D01*
Y2279149D01*
X3759360D01*
Y2285800D01*
X3762685D01*
Y2292450D01*
X3766011D01*
Y2302426D01*
X3769336D01*
Y2309076D01*
X3772661D01*
Y2315727D01*
X3775986D01*
Y2322377D01*
X3779312D01*
Y2329028D01*
X3782637D01*
Y2335678D01*
X3785962D01*
Y2342329D01*
X3789287D01*
Y2345654D01*
X3792613D01*
Y2352304D01*
X3795938D01*
Y2358955D01*
X3799263D01*
Y2362280D01*
X3802588D01*
Y2368931D01*
X3805914D01*
Y2372256D01*
X3809239D01*
Y2375581D01*
X3812564D01*
Y2382232D01*
X3815889D01*
Y2388882D01*
X3819215D01*
Y2392207D01*
X3822540D01*
Y2395533D01*
X3825865D01*
Y2398858D01*
X3829190D01*
Y2405508D01*
X3832515D01*
Y2408834D01*
X3835841D01*
Y2415484D01*
X3839166D01*
Y2418809D01*
X3842491D01*
Y2422135D01*
X3845816D01*
Y2425460D01*
X3849142D01*
Y2428785D01*
X3852467D01*
Y2432110D01*
X3855792D01*
Y2435435D01*
X3859117D01*
Y2438761D01*
X3862443D01*
Y2445411D01*
X3865768D01*
Y2448736D01*
X3869093D01*
Y2452062D01*
X3872418D01*
Y2455387D01*
X3875744D01*
Y2458712D01*
X3879069D01*
Y2462037D01*
X3882394D01*
Y2465363D01*
X3885719D01*
Y2468688D01*
X3889045D01*
Y2472013D01*
X3892370D01*
Y2475338D01*
X3895695D01*
Y2478664D01*
X3899020D01*
Y2481989D01*
X3902346D01*
Y2485314D01*
X3908996D01*
Y2491965D01*
X3912321D01*
Y2495290D01*
X3915646D01*
Y2498615D01*
X3922297D01*
Y2501940D01*
X3925622D01*
Y2505265D01*
X3928947D01*
Y2508591D01*
X3932273D01*
Y2511916D01*
X3935598D01*
Y2515241D01*
X3942248D01*
Y2518566D01*
X3945574D01*
Y2521892D01*
X3948899D01*
Y2525217D01*
X3952224D01*
Y2528542D01*
X3958874D01*
Y2531867D01*
X3962200D01*
Y2535193D01*
X3965525D01*
Y2538518D01*
X3972175D01*
Y2541843D01*
X3975501D01*
Y2545168D01*
X3978826D01*
Y2548494D01*
X3985476D01*
Y2551819D01*
X3988802D01*
Y2555144D01*
X3992127D01*
Y2558469D01*
X3998777D01*
Y2561794D01*
X4005428D01*
Y2565120D01*
X4008753D01*
Y2568445D01*
X4015403D01*
Y2571770D01*
X4018729D01*
Y2575095D01*
X4022054D01*
Y2578421D01*
X4028704D01*
Y2581746D01*
X4035355D01*
Y2585071D01*
X4038680D01*
Y2588396D01*
X4045330D01*
Y2591722D01*
X4051981D01*
Y2595047D01*
X4058631D01*
Y2598372D01*
X4061957D01*
Y2601697D01*
X4068607D01*
Y2605022D01*
X4071932D01*
Y2608348D01*
X4078583D01*
Y2611673D01*
X4088559D01*
Y2614998D01*
X4091884D01*
Y2618323D01*
X4098534D01*
Y2621649D01*
X4105185D01*
Y2624974D01*
X4111835D01*
Y2628299D01*
X4118486D01*
Y2631624D01*
X4125136D01*
Y2634950D01*
X4131787D01*
Y2638275D01*
X4138437D01*
Y2641600D01*
X4145088D01*
Y2644925D01*
X4151738D01*
Y2648250D01*
X4158389D01*
Y2651576D01*
X4168364D01*
Y2654901D01*
X4175015D01*
Y2658226D01*
X4184991D01*
Y2661551D01*
X4191641D01*
Y2664877D01*
X4198292D01*
Y2668202D01*
X4208267D01*
Y2671527D01*
X4214918D01*
Y2674852D01*
X4224893D01*
Y2678178D01*
X4231544D01*
Y2681503D01*
X4241520D01*
Y2684828D01*
X4251495D01*
Y2688153D01*
X4261471D01*
Y2691479D01*
X4271447D01*
Y2694804D01*
X4278097D01*
Y2698129D01*
X4288073D01*
Y2701454D01*
X4301374D01*
Y2704780D01*
X4311350D01*
Y2708105D01*
X4321325D01*
Y2711430D01*
X4331301D01*
Y2714755D01*
X4344602D01*
Y2718080D01*
X4357903D01*
Y2721406D01*
X4371204D01*
Y2724731D01*
X4384505D01*
Y2728056D01*
X4394480D01*
Y2731381D01*
X4407781D01*
Y2734707D01*
X4424407D01*
Y2738032D01*
X4441034D01*
Y2741357D01*
X4454335D01*
Y2744682D01*
X4470961D01*
Y2748008D01*
X4487587D01*
Y2751333D01*
X4507538D01*
Y2754658D01*
X4534140D01*
Y2757983D01*
X4554092D01*
Y2761309D01*
X4577369D01*
Y2764634D01*
X4607296D01*
Y2767959D01*
X4643873D01*
Y2771284D01*
X4717028D01*
Y2774610D01*
X4840062D01*
Y2771284D01*
D02*
G37*
%LPC*%
G36*
X12491156Y2182048D02*
X12482219D01*
Y2177580D01*
X12442002D01*
Y2173111D01*
X12424128D01*
Y2168643D01*
X12410722D01*
Y2164174D01*
X12406254D01*
Y2159706D01*
X12401785D01*
Y2155237D01*
X12397317D01*
Y2150769D01*
X12392848D01*
Y2141831D01*
X12388380D01*
Y2115020D01*
X12392848D01*
Y2106083D01*
X12397317D01*
Y2097146D01*
X12406254D01*
Y2092678D01*
X12419659D01*
Y2088209D01*
X12450939D01*
Y2092678D01*
X12468813D01*
Y2097146D01*
X12473281D01*
Y2101615D01*
X12482219D01*
Y2106083D01*
X12486687D01*
Y2110552D01*
X12491156D01*
Y2182048D01*
D02*
G37*
G36*
X11525956Y2383131D02*
X11472333D01*
Y2378663D01*
X11467865D01*
Y2289293D01*
X11534893D01*
Y2293761D01*
X11548298D01*
Y2298230D01*
X11552767D01*
Y2302698D01*
X11557235D01*
Y2307167D01*
X11561704D01*
Y2316104D01*
X11566172D01*
Y2333978D01*
X11570641D01*
Y2342915D01*
X11566172D01*
Y2356320D01*
X11561704D01*
Y2365257D01*
X11557235D01*
Y2369726D01*
X11552767D01*
Y2374194D01*
X11543830D01*
Y2378663D01*
X11525956D01*
Y2383131D01*
D02*
G37*
G36*
X11557235Y2213328D02*
X11467865D01*
Y2106083D01*
X11552767D01*
Y2110552D01*
X11566172D01*
Y2115020D01*
X11575109D01*
Y2119489D01*
X11584046D01*
Y2123957D01*
X11588515D01*
Y2132894D01*
X11592983D01*
Y2146300D01*
X11597452D01*
Y2177580D01*
X11592983D01*
Y2190985D01*
X11588515D01*
Y2195454D01*
X11584046D01*
Y2199922D01*
X11579578D01*
Y2204391D01*
X11570641D01*
Y2208859D01*
X11557235D01*
Y2213328D01*
D02*
G37*
G36*
X10793119Y2383131D02*
X10690343D01*
Y2262481D01*
X10793119D01*
Y2266950D01*
X10810993D01*
Y2271419D01*
X10819930D01*
Y2275887D01*
X10824398D01*
Y2280356D01*
X10828867D01*
Y2284824D01*
X10833335D01*
Y2289293D01*
X10837804D01*
Y2298230D01*
X10842272D01*
Y2311635D01*
X10846741D01*
Y2316104D01*
Y2333978D01*
X10842272D01*
Y2347383D01*
X10837804D01*
Y2356320D01*
X10833335D01*
Y2360789D01*
X10828867D01*
Y2365257D01*
X10824398D01*
Y2369726D01*
X10815461D01*
Y2374194D01*
X10806524D01*
Y2378663D01*
X10793119D01*
Y2383131D01*
D02*
G37*
G36*
X4680451Y2638275D02*
X4653849D01*
Y2634950D01*
X4613946D01*
Y2631624D01*
X4593995D01*
Y2628299D01*
X4564068D01*
Y2624974D01*
X4547441D01*
Y2621649D01*
X4530815D01*
Y2618323D01*
X4510864D01*
Y2614998D01*
X4494237D01*
Y2611673D01*
X4474286D01*
Y2608348D01*
X4460985D01*
Y2605022D01*
X4447684D01*
Y2601697D01*
X4431058D01*
Y2598372D01*
X4421082D01*
Y2595047D01*
X4407781D01*
Y2591722D01*
X4397806D01*
Y2588396D01*
X4384505D01*
Y2585071D01*
X4374529D01*
Y2581746D01*
X4357903D01*
Y2578421D01*
X4351252D01*
Y2575095D01*
X4341277D01*
Y2571770D01*
X4331301D01*
Y2568445D01*
X4321325D01*
Y2565120D01*
X4311350D01*
Y2561794D01*
X4301374D01*
Y2558469D01*
X4294723D01*
Y2555144D01*
X4288073D01*
Y2551819D01*
X4278097D01*
Y2548494D01*
X4268122D01*
Y2545168D01*
X4261471D01*
Y2541843D01*
X4254821D01*
Y2538518D01*
X4244845D01*
Y2535193D01*
X4241520D01*
Y2531867D01*
X4231544D01*
Y2528542D01*
X4224893D01*
Y2525217D01*
X4218243D01*
Y2521892D01*
X4211592D01*
Y2518566D01*
X4201617D01*
Y2515241D01*
X4194966D01*
Y2511916D01*
X4191641D01*
Y2508591D01*
X4184991D01*
Y2505265D01*
X4178340D01*
Y2501940D01*
X4171690D01*
Y2498615D01*
X4168364D01*
Y2495290D01*
X4161714D01*
Y2491965D01*
X4158389D01*
Y2488639D01*
X4151738D01*
Y2485314D01*
X4145088D01*
Y2481989D01*
X4138437D01*
Y2478664D01*
X4135112D01*
Y2475338D01*
X4131787D01*
Y2472013D01*
X4125136D01*
Y2468688D01*
X4118486D01*
Y2465363D01*
X4115160D01*
Y2462037D01*
X4111835D01*
Y2458712D01*
X4108510D01*
Y2455387D01*
X4098534D01*
Y2452062D01*
X4095209D01*
Y2448736D01*
X4091884D01*
Y2445411D01*
X4088559D01*
Y2442086D01*
X4081908D01*
Y2438761D01*
X4078583D01*
Y2435435D01*
X4075258D01*
Y2432110D01*
X4071932D01*
Y2428785D01*
X4068607D01*
Y2422135D01*
X4071932D01*
Y2418809D01*
X4075258D01*
Y2415484D01*
X4078583D01*
Y2412159D01*
X4081908D01*
Y2405508D01*
X4085233D01*
Y2402183D01*
X4088559D01*
Y2398858D01*
X4091884D01*
Y2392207D01*
X4095209D01*
Y2388882D01*
X4098534D01*
Y2385557D01*
X4101860D01*
Y2382232D01*
X4105185D01*
Y2378906D01*
X4108510D01*
Y2375581D01*
X4111835D01*
Y2372256D01*
X4115160D01*
Y2365605D01*
X4118486D01*
Y2358955D01*
X4125136D01*
Y2352304D01*
X4128461D01*
Y2348979D01*
X4131787D01*
Y2342329D01*
X4135112D01*
Y2339003D01*
X4138437D01*
Y2335678D01*
X4141762D01*
Y2332353D01*
X4145088D01*
Y2329028D01*
X4148413D01*
Y2322377D01*
X4158389D01*
Y2325703D01*
X4161714D01*
Y2329028D01*
X4168364D01*
Y2332353D01*
X4171690D01*
Y2335678D01*
X4175015D01*
Y2339003D01*
X4181665D01*
Y2342329D01*
X4188316D01*
Y2345654D01*
X4191641D01*
Y2348979D01*
X4198292D01*
Y2352304D01*
X4201617D01*
Y2355630D01*
X4208267D01*
Y2358955D01*
X4211592D01*
Y2362280D01*
X4218243D01*
Y2365605D01*
X4224893D01*
Y2368931D01*
X4231544D01*
Y2372256D01*
X4234869D01*
Y2375581D01*
X4241520D01*
Y2378906D01*
X4251495D01*
Y2382232D01*
X4254821D01*
Y2385557D01*
X4264796D01*
Y2382232D01*
X4268122D01*
Y2378906D01*
X4271447D01*
Y2375581D01*
X4274772D01*
Y2372256D01*
X4278097D01*
Y2365605D01*
X4281422D01*
Y2362280D01*
X4284748D01*
Y2358955D01*
X4288073D01*
Y2352304D01*
X4291398D01*
Y2348979D01*
X4294723D01*
Y2345654D01*
X4298049D01*
Y2342329D01*
X4301374D01*
Y2339003D01*
X4304699D01*
Y2335678D01*
X4308024D01*
Y2329028D01*
X4311350D01*
Y2325703D01*
X4314675D01*
Y2322377D01*
X4318000D01*
Y2319052D01*
X4321325D01*
Y2315727D01*
X4324650D01*
Y2312402D01*
X4327976D01*
Y2309076D01*
X4331301D01*
Y2305751D01*
X4334626D01*
Y2299101D01*
X4337951D01*
Y2295775D01*
X4341277D01*
Y2292450D01*
X4344602D01*
Y2289125D01*
X4347927D01*
Y2282474D01*
X4351252D01*
Y2279149D01*
X4354578D01*
Y2275824D01*
X4357903D01*
Y2269174D01*
X4364553D01*
Y2265848D01*
X4367878D01*
Y2259198D01*
X4371204D01*
Y2255873D01*
X4374529D01*
Y2249222D01*
X4381179D01*
Y2245897D01*
X4384505D01*
Y2239246D01*
X4387830D01*
Y2235921D01*
X4391155D01*
Y2232596D01*
X4394480D01*
Y2229271D01*
X4397806D01*
Y2225946D01*
X4401131D01*
Y2219295D01*
X4404456D01*
Y2215970D01*
X4407781D01*
Y2212645D01*
X4411106D01*
Y2209319D01*
X4414432D01*
Y2205994D01*
X4417757D01*
Y2202669D01*
X4421082D01*
Y2199344D01*
X4424407D01*
Y2192693D01*
X4427733D01*
Y2189368D01*
X4431058D01*
Y2186043D01*
X4434383D01*
Y2179392D01*
X4437708D01*
Y2176067D01*
X4441034D01*
Y2172742D01*
X4444359D01*
Y2169417D01*
X4447684D01*
Y2166091D01*
X4451009D01*
Y2159441D01*
X4454335D01*
Y2156116D01*
X4457660D01*
Y2152790D01*
X4460985D01*
Y2149465D01*
X4464310D01*
Y2146140D01*
X4467636D01*
Y2142815D01*
X4470961D01*
Y2139489D01*
X4474286D01*
Y2136164D01*
X4477611D01*
Y2132839D01*
X4480937D01*
Y2126189D01*
X4484262D01*
Y2122863D01*
X4487587D01*
Y2119538D01*
X4490912D01*
Y2116213D01*
X4494237D01*
Y2112888D01*
X4497563D01*
Y2106237D01*
X4500888D01*
Y2102912D01*
X4504213D01*
Y2099587D01*
X4507538D01*
Y2096261D01*
X4510864D01*
Y2092936D01*
X4514189D01*
Y2086286D01*
X4517514D01*
Y2082960D01*
X4520839D01*
Y2079635D01*
X4524165D01*
Y2076310D01*
X4527490D01*
Y2072985D01*
X4530815D01*
Y2066334D01*
X4534140D01*
Y2063009D01*
X4537466D01*
Y2059684D01*
X4540791D01*
Y2056358D01*
X4544116D01*
Y2049708D01*
X4547441D01*
Y2046383D01*
X4550767D01*
Y2043057D01*
X4554092D01*
Y2039732D01*
X4557417D01*
Y2036407D01*
X4560742D01*
Y2033082D01*
X4564068D01*
Y2029757D01*
X4567393D01*
Y2023106D01*
X4570718D01*
Y2019781D01*
X4574043D01*
Y2016456D01*
X4577369D01*
Y2013130D01*
X4580694D01*
Y2009805D01*
X4584019D01*
Y2006480D01*
X4587344D01*
Y2003155D01*
X4590669D01*
Y1996504D01*
X4593995D01*
Y1993179D01*
X4597320D01*
Y1989854D01*
X4600645D01*
Y1986528D01*
X4603970D01*
Y1983203D01*
X4607296D01*
Y1976553D01*
X4610621D01*
Y1973227D01*
X4613946D01*
Y1969902D01*
X4617271D01*
Y1966577D01*
X4620597D01*
Y1963252D01*
X4623922D01*
Y1763738D01*
X4600645D01*
Y1767063D01*
X4567393D01*
Y1770388D01*
X4544116D01*
Y1773713D01*
X4510864D01*
Y1777039D01*
X4500888D01*
Y1770388D01*
X4497563D01*
Y1743786D01*
X4494237D01*
Y1730485D01*
X4490912D01*
Y1720510D01*
X4487587D01*
Y1707209D01*
X4484262D01*
Y1683932D01*
X4480937D01*
Y1663980D01*
X4477611D01*
Y1650680D01*
X4474286D01*
Y1640704D01*
X4480937D01*
Y1637379D01*
X4494237D01*
Y1634053D01*
X4510864D01*
Y1630728D01*
X4527490D01*
Y1627403D01*
X4547441D01*
Y1624078D01*
X4564068D01*
Y1620752D01*
X4577369D01*
Y1617427D01*
X4620597D01*
Y1614102D01*
X4643873D01*
Y1610777D01*
X4697077D01*
Y1607451D01*
X4863339D01*
Y1610777D01*
X4923193D01*
Y1614102D01*
X4953120D01*
Y1617427D01*
X4993023D01*
Y1620752D01*
X5009649D01*
Y1624078D01*
X5026275D01*
Y1627403D01*
X5049552D01*
Y1630728D01*
X5066178D01*
Y1634053D01*
X5092780D01*
Y1637379D01*
X5096105D01*
Y1657330D01*
X5092780D01*
Y1677281D01*
X5089455D01*
Y1693908D01*
X5086130D01*
Y1703883D01*
X5082804D01*
Y1717184D01*
X5079479D01*
Y1737136D01*
X5076154D01*
Y1753762D01*
X5072829D01*
Y1763738D01*
X5069503D01*
Y1777039D01*
X5036251D01*
Y1773713D01*
X5006324D01*
Y1770388D01*
X4986373D01*
Y1767063D01*
X4946470D01*
Y1763738D01*
X4933169D01*
Y1953276D01*
X4936494D01*
Y1959926D01*
X4939819D01*
Y1963252D01*
X4943145D01*
Y1966577D01*
X4946470D01*
Y1969902D01*
X4949795D01*
Y1973227D01*
X4953120D01*
Y1979878D01*
X4956446D01*
Y1983203D01*
X4959771D01*
Y1986528D01*
X4963096D01*
Y1989854D01*
X4966421D01*
Y1993179D01*
X4969746D01*
Y1996504D01*
X4973072D01*
Y2003155D01*
X4976397D01*
Y2006480D01*
X4979722D01*
Y2009805D01*
X4983047D01*
Y2013130D01*
X4986373D01*
Y2019781D01*
X4989698D01*
Y2023106D01*
X4993023D01*
Y2026431D01*
X4996348D01*
Y2029757D01*
X4999674D01*
Y2033082D01*
X5002999D01*
Y2036407D01*
X5006324D01*
Y2043057D01*
X5012974D01*
Y2049708D01*
X5016300D01*
Y2053033D01*
X5019625D01*
Y2056358D01*
X5022950D01*
Y2059684D01*
X5026275D01*
Y2063009D01*
X5029601D01*
Y2066334D01*
X5032926D01*
Y2072985D01*
X5036251D01*
Y2076310D01*
X5039576D01*
Y2079635D01*
X5042902D01*
Y2082960D01*
X5046227D01*
Y2086286D01*
X5049552D01*
Y2092936D01*
X5052877D01*
Y2096261D01*
X5056202D01*
Y2099587D01*
X5059528D01*
Y2102912D01*
X5062853D01*
Y2106237D01*
X5066178D01*
Y2112888D01*
X5069503D01*
Y2116213D01*
X5072829D01*
Y2119538D01*
X5076154D01*
Y2122863D01*
X5079479D01*
Y2126189D01*
X5082804D01*
Y2129514D01*
X5086130D01*
Y2136164D01*
X5089455D01*
Y2139489D01*
X5092780D01*
Y2142815D01*
X5096105D01*
Y2146140D01*
X5099430D01*
Y2149465D01*
X5102756D01*
Y2152790D01*
X5106081D01*
Y2156116D01*
X5109406D01*
Y2159441D01*
X5112731D01*
Y2166091D01*
X5116057D01*
Y2169417D01*
X5119382D01*
Y2172742D01*
X5122707D01*
Y2176067D01*
X5126032D01*
Y2179392D01*
X5129358D01*
Y2186043D01*
X5132683D01*
Y2189368D01*
X5136008D01*
Y2192693D01*
X5139333D01*
Y2196018D01*
X5142659D01*
Y2202669D01*
X5145984D01*
Y2205994D01*
X5149309D01*
Y2209319D01*
X5152634D01*
Y2212645D01*
X5155960D01*
Y2215970D01*
X5159285D01*
Y2219295D01*
X5162610D01*
Y2225946D01*
X5165935D01*
Y2229271D01*
X5169260D01*
Y2232596D01*
X5172586D01*
Y2235921D01*
X5175911D01*
Y2239246D01*
X5179236D01*
Y2242572D01*
X5182561D01*
Y2245897D01*
X5185887D01*
Y2249222D01*
X5189212D01*
Y2252547D01*
X5192537D01*
Y2259198D01*
X5195862D01*
Y2262523D01*
X5199188D01*
Y2265848D01*
X5202513D01*
Y2269174D01*
X5205838D01*
Y2275824D01*
X5209163D01*
Y2279149D01*
X5215814D01*
Y2285800D01*
X5219139D01*
Y2289125D01*
X5222464D01*
Y2295775D01*
X5229115D01*
Y2299101D01*
X5232440D01*
Y2305751D01*
X5235765D01*
Y2309076D01*
X5239091D01*
Y2312402D01*
X5242416D01*
Y2315727D01*
X5245741D01*
Y2322377D01*
X5249066D01*
Y2325703D01*
X5252392D01*
Y2329028D01*
X5255717D01*
Y2332353D01*
X5259042D01*
Y2335678D01*
X5262367D01*
Y2342329D01*
X5269018D01*
Y2345654D01*
X5272343D01*
Y2352304D01*
X5275668D01*
Y2355630D01*
X5278993D01*
Y2358955D01*
X5282319D01*
Y2362280D01*
X5285644D01*
Y2368931D01*
X5295620D01*
Y2365605D01*
X5298945D01*
Y2362280D01*
X5305595D01*
Y2358955D01*
X5308921D01*
Y2355630D01*
X5315571D01*
Y2352304D01*
X5318896D01*
Y2348979D01*
X5322222D01*
Y2345654D01*
X5328872D01*
Y2342329D01*
X5335522D01*
Y2339003D01*
X5338848D01*
Y2335678D01*
X5345498D01*
Y2332353D01*
X5348823D01*
Y2329028D01*
X5355474D01*
Y2325703D01*
X5358799D01*
Y2322377D01*
X5365450D01*
Y2315727D01*
X5372100D01*
Y2312402D01*
X5378750D01*
Y2309076D01*
X5382076D01*
Y2305751D01*
X5385401D01*
Y2302426D01*
X5388726D01*
Y2299101D01*
X5392051D01*
Y2295775D01*
X5402027D01*
Y2299101D01*
X5405352D01*
Y2302426D01*
X5408678D01*
Y2305751D01*
X5412003D01*
Y2312402D01*
X5415328D01*
Y2315727D01*
X5418653D01*
Y2319052D01*
X5421978D01*
Y2325703D01*
X5425304D01*
Y2329028D01*
X5428629D01*
Y2332353D01*
X5431954D01*
Y2339003D01*
X5435279D01*
Y2342329D01*
X5441930D01*
Y2348979D01*
X5445255D01*
Y2355630D01*
X5448580D01*
Y2358955D01*
X5451906D01*
Y2362280D01*
X5455231D01*
Y2365605D01*
X5458556D01*
Y2368931D01*
X5461881D01*
Y2372256D01*
X5465206D01*
Y2378906D01*
X5468532D01*
Y2382232D01*
X5471857D01*
Y2385557D01*
X5475182D01*
Y2388882D01*
X5478507D01*
Y2392207D01*
X5481833D01*
Y2395533D01*
X5485158D01*
Y2402183D01*
X5488483D01*
Y2408834D01*
X5485158D01*
Y2412159D01*
X5481833D01*
Y2415484D01*
X5478507D01*
Y2418809D01*
X5475182D01*
Y2422135D01*
X5468532D01*
Y2425460D01*
X5465206D01*
Y2428785D01*
X5461881D01*
Y2432110D01*
X5458556D01*
Y2435435D01*
X5455231D01*
Y2438761D01*
X5448580D01*
Y2442086D01*
X5445255D01*
Y2445411D01*
X5441930D01*
Y2448736D01*
X5438605D01*
Y2452062D01*
X5431954D01*
Y2455387D01*
X5428629D01*
Y2458712D01*
X5421978D01*
Y2462037D01*
X5418653D01*
Y2465363D01*
X5415328D01*
Y2468688D01*
X5405352D01*
Y2472013D01*
X5402027D01*
Y2475338D01*
X5398702D01*
Y2478664D01*
X5392051D01*
Y2481989D01*
X5388726D01*
Y2485314D01*
X5382076D01*
Y2488639D01*
X5378750D01*
Y2491965D01*
X5372100D01*
Y2495290D01*
X5365450D01*
Y2498615D01*
X5362124D01*
Y2501940D01*
X5355474D01*
Y2505265D01*
X5348823D01*
Y2508591D01*
X5342173D01*
Y2511916D01*
X5338848D01*
Y2515241D01*
X5332197D01*
Y2518566D01*
X5322222D01*
Y2521892D01*
X5315571D01*
Y2525217D01*
X5312246D01*
Y2528542D01*
X5305595D01*
Y2531867D01*
X5295620D01*
Y2535193D01*
X5288969D01*
Y2538518D01*
X5282319D01*
Y2541843D01*
X5275668D01*
Y2545168D01*
X5272343D01*
Y2548494D01*
X5259042D01*
Y2551819D01*
X5255717D01*
Y2555144D01*
X5242416D01*
Y2558469D01*
X5235765D01*
Y2561794D01*
X5232440D01*
Y2565120D01*
X5215814D01*
Y2568445D01*
X5205838D01*
Y2571770D01*
X5195862D01*
Y2575095D01*
X5189212D01*
Y2578421D01*
X5182561D01*
Y2581746D01*
X5165935D01*
Y2585071D01*
X5152634D01*
Y2588396D01*
X5139333D01*
Y2591722D01*
X5129358D01*
Y2595047D01*
X5109406D01*
Y2598372D01*
X5096105D01*
Y2601697D01*
X5072829D01*
Y2605022D01*
X5056202D01*
Y2608348D01*
X5029601D01*
Y2611673D01*
X5026275D01*
Y2608348D01*
X5022950D01*
Y2591722D01*
X5019625D01*
Y2555144D01*
X5016300D01*
Y2531867D01*
X5012974D01*
Y2518566D01*
X5009649D01*
Y2498615D01*
X5006324D01*
Y2485314D01*
X5002999D01*
Y2462037D01*
X5009649D01*
Y2458712D01*
X5019625D01*
Y2455387D01*
X5039576D01*
Y2452062D01*
X5052877D01*
Y2448736D01*
X5069503D01*
Y2445411D01*
X5082804D01*
Y2442086D01*
X5092780D01*
Y2438761D01*
X5116057D01*
Y2432110D01*
X5112731D01*
Y2425460D01*
X5109406D01*
Y2422135D01*
X5106081D01*
Y2418809D01*
X5102756D01*
Y2415484D01*
X5099430D01*
Y2412159D01*
X5096105D01*
Y2408834D01*
X5092780D01*
Y2405508D01*
X5089455D01*
Y2398858D01*
X5086130D01*
Y2395533D01*
X5082804D01*
Y2392207D01*
X5079479D01*
Y2385557D01*
X5076154D01*
Y2382232D01*
X5069503D01*
Y2375581D01*
X5066178D01*
Y2372256D01*
X5062853D01*
Y2368931D01*
X5059528D01*
Y2365605D01*
X5056202D01*
Y2362280D01*
X5052877D01*
Y2355630D01*
X5049552D01*
Y2352304D01*
X5046227D01*
Y2345654D01*
X5042902D01*
Y2342329D01*
X5036251D01*
Y2339003D01*
X5032926D01*
Y2332353D01*
X5029601D01*
Y2329028D01*
X5026275D01*
Y2325703D01*
X5022950D01*
Y2322377D01*
X5019625D01*
Y2319052D01*
X5016300D01*
Y2312402D01*
X5012974D01*
Y2309076D01*
X5009649D01*
Y2305751D01*
X5006324D01*
Y2302426D01*
X5002999D01*
Y2295775D01*
X4999674D01*
Y2292450D01*
X4996348D01*
Y2289125D01*
X4993023D01*
Y2285800D01*
X4989698D01*
Y2282474D01*
X4986373D01*
Y2275824D01*
X4983047D01*
Y2272499D01*
X4979722D01*
Y2269174D01*
X4976397D01*
Y2265848D01*
X4973072D01*
Y2262523D01*
X4969746D01*
Y2255873D01*
X4966421D01*
Y2252547D01*
X4963096D01*
Y2249222D01*
X4956446D01*
Y2242572D01*
X4953120D01*
Y2239246D01*
X4949795D01*
Y2232596D01*
X4946470D01*
Y2229271D01*
X4943145D01*
Y2225946D01*
X4939819D01*
Y2222620D01*
X4936494D01*
Y2219295D01*
X4933169D01*
Y2212645D01*
X4929844D01*
Y2209319D01*
X4926518D01*
Y2205994D01*
X4923193D01*
Y2202669D01*
X4919868D01*
Y2196018D01*
X4916543D01*
Y2192693D01*
X4913217D01*
Y2189368D01*
X4909892D01*
Y2186043D01*
X4906567D01*
Y2182718D01*
X4903242D01*
Y2176067D01*
X4896591D01*
Y2169417D01*
X4893266D01*
Y2166091D01*
X4889941D01*
Y2162766D01*
X4886615D01*
Y2156116D01*
X4883290D01*
Y2152790D01*
X4876640D01*
Y2146140D01*
X4873315D01*
Y2139489D01*
X4866664D01*
Y2136164D01*
X4863339D01*
Y2129514D01*
X4860014D01*
Y2126189D01*
X4853363D01*
Y2129514D01*
X4850038D01*
Y2132839D01*
X4846713D01*
Y2136164D01*
X4843387D01*
Y2139489D01*
X4840062D01*
Y2142815D01*
X4836737D01*
Y2146140D01*
X4833412D01*
Y2149465D01*
X4830086D01*
Y2152790D01*
X4826761D01*
Y2159441D01*
X4823436D01*
Y2162766D01*
X4820111D01*
Y2166091D01*
X4816785D01*
Y2169417D01*
X4813460D01*
Y2172742D01*
X4810135D01*
Y2179392D01*
X4806810D01*
Y2182718D01*
X4803484D01*
Y2186043D01*
X4800159D01*
Y2189368D01*
X4796834D01*
Y2196018D01*
X4793509D01*
Y2199344D01*
X4790183D01*
Y2202669D01*
X4783533D01*
Y2209319D01*
X4780208D01*
Y2215970D01*
X4773557D01*
Y2219295D01*
X4770232D01*
Y2222620D01*
X4766907D01*
Y2229271D01*
X4763582D01*
Y2232596D01*
X4760256D01*
Y2235921D01*
X4756931D01*
Y2239246D01*
X4753606D01*
Y2242572D01*
X4750281D01*
Y2245897D01*
X4746955D01*
Y2252547D01*
X4743630D01*
Y2255873D01*
X4740305D01*
Y2259198D01*
X4736980D01*
Y2262523D01*
X4733654D01*
Y2265848D01*
X4730329D01*
Y2269174D01*
X4727004D01*
Y2272499D01*
X4723679D01*
Y2275824D01*
X4720354D01*
Y2279149D01*
X4717028D01*
Y2285800D01*
X4713703D01*
Y2289125D01*
X4710378D01*
Y2292450D01*
X4707053D01*
Y2295775D01*
X4703727D01*
Y2299101D01*
X4700402D01*
Y2305751D01*
X4697077D01*
Y2309076D01*
X4693752D01*
Y2312402D01*
X4690426D01*
Y2315727D01*
X4687101D01*
Y2319052D01*
X4683776D01*
Y2325703D01*
X4680451D01*
Y2329028D01*
X4677126D01*
Y2332353D01*
X4673800D01*
Y2335678D01*
X4670475D01*
Y2339003D01*
X4667150D01*
Y2342329D01*
X4663825D01*
Y2345654D01*
X4660499D01*
Y2348979D01*
X4657174D01*
Y2352304D01*
X4653849D01*
Y2358955D01*
X4650524D01*
Y2362280D01*
X4647198D01*
Y2365605D01*
X4643873D01*
Y2368931D01*
X4640548D01*
Y2372256D01*
X4637223D01*
Y2378906D01*
X4633898D01*
Y2382232D01*
X4630572D01*
Y2385557D01*
X4627247D01*
Y2388882D01*
X4623922D01*
Y2392207D01*
X4620597D01*
Y2398858D01*
X4617271D01*
Y2402183D01*
X4613946D01*
Y2405508D01*
X4610621D01*
Y2408834D01*
X4607296D01*
Y2412159D01*
X4603970D01*
Y2418809D01*
X4600645D01*
Y2422135D01*
X4597320D01*
Y2425460D01*
X4593995D01*
Y2428785D01*
X4590669D01*
Y2432110D01*
X4587344D01*
Y2438761D01*
X4584019D01*
Y2442086D01*
X4580694D01*
Y2445411D01*
X4577369D01*
Y2448736D01*
X4574043D01*
Y2452062D01*
X4570718D01*
Y2455387D01*
X4567393D01*
Y2458712D01*
X4564068D01*
Y2462037D01*
X4560742D01*
Y2465363D01*
X4557417D01*
Y2475338D01*
X4570718D01*
Y2478664D01*
X4593995D01*
Y2481989D01*
X4620597D01*
Y2485314D01*
X4653849D01*
Y2488639D01*
X4680451D01*
Y2491965D01*
X4687101D01*
Y2505265D01*
X4683776D01*
Y2611673D01*
X4680451D01*
Y2638275D01*
D02*
G37*
%LPD*%
D19*
X7543600Y2832100D02*
G03*
X7543600Y2832100I-12500J0D01*
G01*
D20*
X10000000Y1626600D02*
Y1634100D01*
Y569100D02*
Y576600D01*
X9815000D02*
X10185000D01*
Y1626600D01*
X9815000D02*
X10185000D01*
X9815000Y576600D02*
Y1626600D01*
X6500000D02*
Y1634100D01*
Y569100D02*
Y576600D01*
X6315000D02*
X6685000D01*
Y1626600D01*
X6315000D02*
X6685000D01*
X6315000Y576600D02*
Y1626600D01*
X6500000Y3326600D02*
Y3334100D01*
Y2269100D02*
Y2276600D01*
X6315000D02*
X6685000D01*
Y3326600D01*
X6315000D02*
X6685000D01*
X6315000Y2276600D02*
Y3326600D01*
X10000000D02*
Y3334100D01*
Y2269100D02*
Y2276600D01*
X9815000D02*
X10185000D01*
Y3326600D01*
X9815000D02*
X10185000D01*
X9815000Y2276600D02*
Y3326600D01*
D21*
X13809541Y2173075D02*
Y2020725D01*
X13885716D01*
X13911108Y2046117D01*
Y2071508D01*
X13885716Y2096900D01*
X13809541D01*
X13885716D01*
X13911108Y2122292D01*
Y2147684D01*
X13885716Y2173075D01*
X13809541D01*
X14063458Y2020725D02*
X13961893D01*
X14063458Y2122292D01*
Y2147684D01*
X14038068Y2173075D01*
X13987283D01*
X13961893Y2147684D01*
X7950307Y3251225D02*
Y3352792D01*
X8001090Y3403575D01*
X8051874Y3352792D01*
Y3251225D01*
Y3327400D01*
X7950307D01*
X8204225Y3352792D02*
X8128050D01*
X8102658Y3327400D01*
Y3276617D01*
X8128050Y3251225D01*
X8204225D01*
X8356576Y3352792D02*
X8280400D01*
X8255008Y3327400D01*
Y3276617D01*
X8280400Y3251225D01*
X8356576D01*
X8483534D02*
X8432751D01*
X8407359Y3276617D01*
Y3327400D01*
X8432751Y3352792D01*
X8483534D01*
X8508926Y3327400D01*
Y3302008D01*
X8407359D01*
X8559710Y3251225D02*
X8610493D01*
X8585102D01*
Y3403575D01*
X8559710D01*
X9779000Y4495751D02*
Y4394183D01*
X9829783Y4343400D01*
X9880567Y4394183D01*
Y4495751D01*
X9956743Y4343400D02*
X10007526D01*
X10032918Y4368792D01*
Y4419575D01*
X10007526Y4444967D01*
X9956743D01*
X9931351Y4419575D01*
Y4368792D01*
X9956743Y4343400D01*
X10083701Y4444967D02*
Y4368792D01*
X10109093Y4343400D01*
X10185269D01*
Y4444967D01*
X10261444Y4470359D02*
Y4444967D01*
X10236052D01*
X10286836D01*
X10261444D01*
Y4368792D01*
X10286836Y4343400D01*
X10464578D02*
X10363011D01*
X10464578Y4444967D01*
Y4470359D01*
X10439186Y4495751D01*
X10388403D01*
X10363011Y4470359D01*
X9220200Y4038551D02*
Y3936983D01*
X9270983Y3886200D01*
X9321767Y3936983D01*
Y4038551D01*
X9397943Y3886200D02*
X9448726D01*
X9474118Y3911592D01*
Y3962375D01*
X9448726Y3987767D01*
X9397943D01*
X9372551Y3962375D01*
Y3911592D01*
X9397943Y3886200D01*
X9524901Y3987767D02*
Y3911592D01*
X9550293Y3886200D01*
X9626469D01*
Y3987767D01*
X9702644Y4013159D02*
Y3987767D01*
X9677252D01*
X9728036D01*
X9702644D01*
Y3911592D01*
X9728036Y3886200D01*
X9880386D02*
Y4038551D01*
X9804211Y3962375D01*
X9905778D01*
X8458167Y4470359D02*
X8432775Y4495751D01*
X8381992D01*
X8356600Y4470359D01*
Y4368792D01*
X8381992Y4343400D01*
X8432775D01*
X8458167Y4368792D01*
Y4419575D01*
X8407383D01*
X8508951Y4343400D02*
Y4495751D01*
X8610518Y4343400D01*
Y4495751D01*
X8661301D02*
Y4343400D01*
X8737477D01*
X8762869Y4368792D01*
Y4470359D01*
X8737477Y4495751D01*
X8661301D01*
X7848600Y4038551D02*
Y3936983D01*
X7899383Y3886200D01*
X7950167Y3936983D01*
Y4038551D01*
X8102518Y4013159D02*
X8077126Y4038551D01*
X8026343D01*
X8000951Y4013159D01*
Y3911592D01*
X8026343Y3886200D01*
X8077126D01*
X8102518Y3911592D01*
X8254869Y4013159D02*
X8229477Y4038551D01*
X8178693D01*
X8153301Y4013159D01*
Y3911592D01*
X8178693Y3886200D01*
X8229477D01*
X8254869Y3911592D01*
X7454867Y4470359D02*
X7429475Y4495751D01*
X7378692D01*
X7353300Y4470359D01*
Y4444967D01*
X7378692Y4419575D01*
X7429475D01*
X7454867Y4394183D01*
Y4368792D01*
X7429475Y4343400D01*
X7378692D01*
X7353300Y4368792D01*
X7505651Y4495751D02*
Y4343400D01*
X7581826D01*
X7607218Y4368792D01*
Y4470359D01*
X7581826Y4495751D01*
X7505651D01*
X7658001Y4343400D02*
Y4444967D01*
X7708785Y4495751D01*
X7759569Y4444967D01*
Y4343400D01*
Y4419575D01*
X7658001D01*
X6692900Y4063951D02*
Y3962383D01*
X6743683Y3911600D01*
X6794467Y3962383D01*
Y4063951D01*
X6870643Y3911600D02*
X6921426D01*
X6946818Y3936992D01*
Y3987775D01*
X6921426Y4013167D01*
X6870643D01*
X6845251Y3987775D01*
Y3936992D01*
X6870643Y3911600D01*
X6997601Y4013167D02*
Y3936992D01*
X7022993Y3911600D01*
X7099169D01*
Y4013167D01*
X7175344Y4038559D02*
Y4013167D01*
X7149952D01*
X7200736D01*
X7175344D01*
Y3936992D01*
X7200736Y3911600D01*
X7276911Y4038559D02*
X7302303Y4063951D01*
X7353086D01*
X7378478Y4038559D01*
Y4013167D01*
X7353086Y3987775D01*
X7327695D01*
X7353086D01*
X7378478Y3962383D01*
Y3936992D01*
X7353086Y3911600D01*
X7302303D01*
X7276911Y3936992D01*
X6172200Y4495751D02*
Y4394183D01*
X6222983Y4343400D01*
X6273767Y4394183D01*
Y4495751D01*
X6349943Y4343400D02*
X6400726D01*
X6426118Y4368792D01*
Y4419575D01*
X6400726Y4444967D01*
X6349943D01*
X6324551Y4419575D01*
Y4368792D01*
X6349943Y4343400D01*
X6476901Y4444967D02*
Y4368792D01*
X6502293Y4343400D01*
X6578469D01*
Y4444967D01*
X6654644Y4470359D02*
Y4444967D01*
X6629252D01*
X6680036D01*
X6654644D01*
Y4368792D01*
X6680036Y4343400D01*
X6756211D02*
X6806995D01*
X6781603D01*
Y4495751D01*
X6756211Y4470359D01*
X9885741Y3577825D02*
Y3730175D01*
X9961917D01*
X9987308Y3704784D01*
Y3654000D01*
X9961917Y3628608D01*
X9885741D01*
X9936525D02*
X9987308Y3577825D01*
X10114267D02*
Y3730175D01*
X10038092Y3654000D01*
X10139659D01*
X6360341Y3590525D02*
Y3742875D01*
X6436516D01*
X6461908Y3717484D01*
Y3666700D01*
X6436516Y3641308D01*
X6360341D01*
X6411125D02*
X6461908Y3590525D01*
X6512692Y3717484D02*
X6538084Y3742875D01*
X6588867D01*
X6614259Y3717484D01*
Y3692092D01*
X6588867Y3666700D01*
X6563475D01*
X6588867D01*
X6614259Y3641308D01*
Y3615917D01*
X6588867Y3590525D01*
X6538084D01*
X6512692Y3615917D01*
X9860341Y1877825D02*
Y2030176D01*
X9936517D01*
X9961908Y2004784D01*
Y1954000D01*
X9936517Y1928608D01*
X9860341D01*
X9911125D02*
X9961908Y1877825D01*
X10114259D02*
X10012692D01*
X10114259Y1979392D01*
Y2004784D01*
X10088867Y2030176D01*
X10038084D01*
X10012692Y2004784D01*
X6398433Y1890525D02*
Y2042876D01*
X6474608D01*
X6500000Y2017484D01*
Y1966700D01*
X6474608Y1941308D01*
X6398433D01*
X6449216D02*
X6500000Y1890525D01*
X6550784D02*
X6601567D01*
X6576176D01*
Y2042876D01*
X6550784Y2017484D01*
X2334933Y2109575D02*
Y1957225D01*
X2411108D01*
X2436500Y1982617D01*
Y2008008D01*
X2411108Y2033400D01*
X2334933D01*
X2411108D01*
X2436500Y2058792D01*
Y2084184D01*
X2411108Y2109575D01*
X2334933D01*
X2487284Y1957225D02*
X2538067D01*
X2512676D01*
Y2109575D01*
X2487284Y2084184D01*
X14220686Y4739825D02*
Y4892175D01*
X14296861D01*
X14322253Y4866784D01*
Y4816000D01*
X14296861Y4790608D01*
X14220686D01*
X14398428Y4739825D02*
X14449213D01*
X14474603Y4765217D01*
Y4816000D01*
X14449213Y4841392D01*
X14398428D01*
X14373038Y4816000D01*
Y4765217D01*
X14398428Y4739825D01*
X14550780Y4866784D02*
Y4841392D01*
X14525388D01*
X14576170D01*
X14550780D01*
Y4765217D01*
X14576170Y4739825D01*
X14753914D02*
X14652347D01*
X14753914Y4841392D01*
Y4866784D01*
X14728522Y4892175D01*
X14677737D01*
X14652347Y4866784D01*
X1720678Y4714425D02*
Y4866775D01*
X1796854D01*
X1822246Y4841384D01*
Y4790600D01*
X1796854Y4765208D01*
X1720678D01*
X1898421Y4714425D02*
X1949204D01*
X1974596Y4739817D01*
Y4790600D01*
X1949204Y4815992D01*
X1898421D01*
X1873029Y4790600D01*
Y4739817D01*
X1898421Y4714425D01*
X2050772Y4841384D02*
Y4815992D01*
X2025380D01*
X2076163D01*
X2050772D01*
Y4739817D01*
X2076163Y4714425D01*
X2152339D02*
X2203122D01*
X2177730D01*
Y4866775D01*
X2152339Y4841384D01*
%TF.MD5,68dfd31527e174360369cc0464a518ce*%
M02*
