%TF.GenerationSoftware,Altium Limited,Altium Designer,24.10.1 (45)*%
G04 Layer_Color=0*
%FSLAX45Y45*%
%MOMM*%
%TF.SameCoordinates,6FDAC12A-6018-4021-8F52-C8B52F5C83F9*%
%TF.FilePolarity,Positive*%
%TF.FileFunction,Plated,1,2,PTH,Drill*%
%TF.Part,Single*%
G01*
G75*
%TA.AperFunction,ComponentDrill*%
%ADD29O,0.60000X2.54000*%
%ADD30C,1.00000*%
%ADD31C,0.75000*%
%ADD32C,0.60000*%
%ADD33C,0.56000*%
%ADD34R,1.60000X2.40000*%
%TA.AperFunction,ViaDrill,NotFilled*%
%ADD35C,1.00000*%
D29*
X13700000Y1500000D02*
D03*
X14300000D02*
D03*
X2200000D02*
D03*
X2800000D02*
D03*
D30*
X7366000Y2832100D02*
D03*
Y2578100D02*
D03*
Y2324100D02*
D03*
Y2070100D02*
D03*
Y1816100D02*
D03*
Y1562100D02*
D03*
X9144000Y2832100D02*
D03*
Y2578100D02*
D03*
Y2324100D02*
D03*
Y2070100D02*
D03*
Y1816100D02*
D03*
Y1562100D02*
D03*
D31*
X10000000Y1736600D02*
D03*
Y466600D02*
D03*
X6500000Y1736600D02*
D03*
Y466600D02*
D03*
Y3436600D02*
D03*
Y2166600D02*
D03*
X10000000Y3436600D02*
D03*
Y2166600D02*
D03*
D32*
X1990400Y3053100D02*
D03*
X2240400D02*
D03*
X1740400D02*
D03*
X14490401D02*
D03*
X14740401D02*
D03*
X14240401D02*
D03*
D33*
X2240400Y4503100D02*
D03*
X1740400D02*
D03*
X14740401D02*
D03*
X14240401D02*
D03*
D34*
X1430400Y3803100D02*
D03*
X2540400D02*
D03*
X13930400D02*
D03*
X15040401D02*
D03*
D35*
X10083800Y4191000D02*
D03*
X9575800D02*
D03*
X9067800D02*
D03*
X8559800D02*
D03*
X8051800D02*
D03*
X7543800D02*
D03*
X7035800D02*
D03*
X6527800D02*
D03*
%TF.MD5,959048ee96922121a4b3b730b677ca15*%
M02*
