%TF.GenerationSoftware,Altium Limited,Altium Designer,24.10.1 (45)*%
G04 Layer_Physical_Order=1*
G04 Layer_Color=255*
%FSLAX45Y45*%
%MOMM*%
%TF.SameCoordinates,6FDAC12A-6018-4021-8F52-C8B52F5C83F9*%
%TF.FilePolarity,Positive*%
%TF.FileFunction,Copper,L1,Top,Signal*%
%TF.Part,Single*%
G01*
G75*
%TA.AperFunction,ComponentPad*%
%ADD10R,2.00000X5.00000*%
%ADD11R,1.77800X1.77800*%
%ADD12C,1.77800*%
%ADD13C,1.25000*%
%ADD14R,1.25000X1.25000*%
%ADD15C,1.55000*%
%ADD16R,2.60000X3.20000*%
%TA.AperFunction,ViaPad*%
%ADD17C,1.77800*%
G36*
X16522701Y12700D02*
X16510001Y0D01*
X17967Y-12686D01*
X0Y5267D01*
Y5232400D01*
X16522701D01*
Y12700D01*
D02*
G37*
%LPC*%
G36*
X14753947Y4606000D02*
X14726852D01*
X14700682Y4598987D01*
X14677219Y4585440D01*
X14658060Y4566282D01*
X14644511Y4542818D01*
X14637500Y4516647D01*
Y4489553D01*
X14644511Y4463382D01*
X14658060Y4439918D01*
X14677219Y4420760D01*
X14700682Y4407212D01*
X14726852Y4400200D01*
X14753947D01*
X14780118Y4407212D01*
X14803581Y4420760D01*
X14822740Y4439918D01*
X14836288Y4463382D01*
X14843300Y4489553D01*
Y4516647D01*
X14836288Y4542818D01*
X14822740Y4566282D01*
X14803581Y4585440D01*
X14780118Y4598987D01*
X14753947Y4606000D01*
D02*
G37*
G36*
X14253947D02*
X14226852D01*
X14200682Y4598987D01*
X14177219Y4585440D01*
X14158060Y4566282D01*
X14144511Y4542818D01*
X14137500Y4516647D01*
Y4489553D01*
X14144511Y4463382D01*
X14158060Y4439918D01*
X14177219Y4420760D01*
X14200682Y4407212D01*
X14226852Y4400200D01*
X14253947D01*
X14280118Y4407212D01*
X14303581Y4420760D01*
X14322740Y4439918D01*
X14336288Y4463382D01*
X14343300Y4489553D01*
Y4516647D01*
X14336288Y4542818D01*
X14322740Y4566282D01*
X14303581Y4585440D01*
X14280118Y4598987D01*
X14253947Y4606000D01*
D02*
G37*
G36*
X2253947D02*
X2226853D01*
X2200682Y4598987D01*
X2177218Y4585440D01*
X2158060Y4566282D01*
X2144513Y4542818D01*
X2137500Y4516647D01*
Y4489553D01*
X2144513Y4463382D01*
X2158060Y4439918D01*
X2177218Y4420760D01*
X2200682Y4407212D01*
X2226853Y4400200D01*
X2253947D01*
X2280118Y4407212D01*
X2303582Y4420760D01*
X2322741Y4439918D01*
X2336288Y4463382D01*
X2343300Y4489553D01*
Y4516647D01*
X2336288Y4542818D01*
X2322741Y4566282D01*
X2303582Y4585440D01*
X2280118Y4598987D01*
X2253947Y4606000D01*
D02*
G37*
G36*
X1753947D02*
X1726853D01*
X1700682Y4598987D01*
X1677218Y4585440D01*
X1658060Y4566282D01*
X1644513Y4542818D01*
X1637500Y4516647D01*
Y4489553D01*
X1644513Y4463382D01*
X1658060Y4439918D01*
X1677218Y4420760D01*
X1700682Y4407212D01*
X1726853Y4400200D01*
X1753947D01*
X1780118Y4407212D01*
X1803582Y4420760D01*
X1822741Y4439918D01*
X1836288Y4463382D01*
X1843300Y4489553D01*
Y4516647D01*
X1836288Y4542818D01*
X1822741Y4566282D01*
X1803582Y4585440D01*
X1780118Y4598987D01*
X1753947Y4606000D01*
D02*
G37*
G36*
X8574848Y4305300D02*
X8572500D01*
Y4203700D01*
X8674100D01*
Y4206048D01*
X8666311Y4235118D01*
X8651263Y4261182D01*
X8629982Y4282463D01*
X8603918Y4297511D01*
X8574848Y4305300D01*
D02*
G37*
G36*
X8547100D02*
X8544752D01*
X8515682Y4297511D01*
X8489618Y4282463D01*
X8468337Y4261182D01*
X8453289Y4235118D01*
X8445500Y4206048D01*
Y4203700D01*
X8547100D01*
Y4305300D01*
D02*
G37*
G36*
X10098848D02*
X10068752D01*
X10039682Y4297511D01*
X10013618Y4282463D01*
X9992337Y4261182D01*
X9977289Y4235118D01*
X9969500Y4206048D01*
Y4175952D01*
X9977289Y4146882D01*
X9992337Y4120818D01*
X10013618Y4099537D01*
X10039682Y4084489D01*
X10068752Y4076700D01*
X10098848D01*
X10127918Y4084489D01*
X10153982Y4099537D01*
X10175263Y4120818D01*
X10190311Y4146882D01*
X10198100Y4175952D01*
Y4206048D01*
X10190311Y4235118D01*
X10175263Y4261182D01*
X10153982Y4282463D01*
X10127918Y4297511D01*
X10098848Y4305300D01*
D02*
G37*
G36*
X9590848D02*
X9560752D01*
X9531682Y4297511D01*
X9505618Y4282463D01*
X9484337Y4261182D01*
X9469289Y4235118D01*
X9461500Y4206048D01*
Y4175952D01*
X9469289Y4146882D01*
X9484337Y4120818D01*
X9505618Y4099537D01*
X9531682Y4084489D01*
X9560752Y4076700D01*
X9590848D01*
X9619918Y4084489D01*
X9645982Y4099537D01*
X9667263Y4120818D01*
X9682311Y4146882D01*
X9690100Y4175952D01*
Y4206048D01*
X9682311Y4235118D01*
X9667263Y4261182D01*
X9645982Y4282463D01*
X9619918Y4297511D01*
X9590848Y4305300D01*
D02*
G37*
G36*
X9082848D02*
X9052752D01*
X9023682Y4297511D01*
X8997618Y4282463D01*
X8976337Y4261182D01*
X8961289Y4235118D01*
X8953500Y4206048D01*
Y4175952D01*
X8961289Y4146882D01*
X8976337Y4120818D01*
X8997618Y4099537D01*
X9023682Y4084489D01*
X9052752Y4076700D01*
X9082848D01*
X9111918Y4084489D01*
X9137982Y4099537D01*
X9159263Y4120818D01*
X9174311Y4146882D01*
X9182100Y4175952D01*
Y4206048D01*
X9174311Y4235118D01*
X9159263Y4261182D01*
X9137982Y4282463D01*
X9111918Y4297511D01*
X9082848Y4305300D01*
D02*
G37*
G36*
X8674100Y4178300D02*
X8572500D01*
Y4076700D01*
X8574848D01*
X8603918Y4084489D01*
X8629982Y4099537D01*
X8651263Y4120818D01*
X8666311Y4146882D01*
X8674100Y4175952D01*
Y4178300D01*
D02*
G37*
G36*
X8547100D02*
X8445500D01*
Y4175952D01*
X8453289Y4146882D01*
X8468337Y4120818D01*
X8489618Y4099537D01*
X8515682Y4084489D01*
X8544752Y4076700D01*
X8547100D01*
Y4178300D01*
D02*
G37*
G36*
X8066848Y4305300D02*
X8036752D01*
X8007682Y4297511D01*
X7981618Y4282463D01*
X7960337Y4261182D01*
X7945289Y4235118D01*
X7937500Y4206048D01*
Y4175952D01*
X7945289Y4146882D01*
X7960337Y4120818D01*
X7981618Y4099537D01*
X8007682Y4084489D01*
X8036752Y4076700D01*
X8066848D01*
X8095918Y4084489D01*
X8121982Y4099537D01*
X8143263Y4120818D01*
X8158311Y4146882D01*
X8166100Y4175952D01*
Y4206048D01*
X8158311Y4235118D01*
X8143263Y4261182D01*
X8121982Y4282463D01*
X8095918Y4297511D01*
X8066848Y4305300D01*
D02*
G37*
G36*
X7558848D02*
X7528752D01*
X7499682Y4297511D01*
X7473618Y4282463D01*
X7452337Y4261182D01*
X7437289Y4235118D01*
X7429500Y4206048D01*
Y4175952D01*
X7437289Y4146882D01*
X7452337Y4120818D01*
X7473618Y4099537D01*
X7499682Y4084489D01*
X7528752Y4076700D01*
X7558848D01*
X7587918Y4084489D01*
X7613982Y4099537D01*
X7635263Y4120818D01*
X7650311Y4146882D01*
X7658100Y4175952D01*
Y4206048D01*
X7650311Y4235118D01*
X7635263Y4261182D01*
X7613982Y4282463D01*
X7587918Y4297511D01*
X7558848Y4305300D01*
D02*
G37*
G36*
X7050848D02*
X7020752D01*
X6991682Y4297511D01*
X6965618Y4282463D01*
X6944337Y4261182D01*
X6929289Y4235118D01*
X6921500Y4206048D01*
Y4175952D01*
X6929289Y4146882D01*
X6944337Y4120818D01*
X6965618Y4099537D01*
X6991682Y4084489D01*
X7020752Y4076700D01*
X7050848D01*
X7079918Y4084489D01*
X7105982Y4099537D01*
X7127263Y4120818D01*
X7142311Y4146882D01*
X7150100Y4175952D01*
Y4206048D01*
X7142311Y4235118D01*
X7127263Y4261182D01*
X7105982Y4282463D01*
X7079918Y4297511D01*
X7050848Y4305300D01*
D02*
G37*
G36*
X6542848D02*
X6512752D01*
X6483682Y4297511D01*
X6457618Y4282463D01*
X6436337Y4261182D01*
X6421289Y4235118D01*
X6413500Y4206048D01*
Y4175952D01*
X6421289Y4146882D01*
X6436337Y4120818D01*
X6457618Y4099537D01*
X6483682Y4084489D01*
X6512752Y4076700D01*
X6542848D01*
X6571918Y4084489D01*
X6597982Y4099537D01*
X6619263Y4120818D01*
X6634311Y4146882D01*
X6642100Y4175952D01*
Y4206048D01*
X6634311Y4235118D01*
X6619263Y4261182D01*
X6597982Y4282463D01*
X6571918Y4297511D01*
X6542848Y4305300D01*
D02*
G37*
G36*
X15195799Y3988500D02*
X14885001D01*
Y3617700D01*
X15195799D01*
Y3988500D01*
D02*
G37*
G36*
X14085800D02*
X13775000D01*
Y3617700D01*
X14085800D01*
Y3988500D01*
D02*
G37*
G36*
X2695800D02*
X2385000D01*
Y3617700D01*
X2695800D01*
Y3988500D01*
D02*
G37*
G36*
X1585800D02*
X1275000D01*
Y3617700D01*
X1585800D01*
Y3988500D01*
D02*
G37*
G36*
X10012700Y3524198D02*
Y3449299D01*
X10087598D01*
X10081910Y3470528D01*
X10070337Y3490572D01*
X10053972Y3506937D01*
X10033928Y3518510D01*
X10012700Y3524198D01*
D02*
G37*
G36*
X6512700D02*
Y3449299D01*
X6587598D01*
X6581910Y3470528D01*
X6570337Y3490572D01*
X6553972Y3506937D01*
X6533928Y3518510D01*
X6512700Y3524198D01*
D02*
G37*
G36*
X6487300D02*
X6466072Y3518510D01*
X6446028Y3506937D01*
X6429663Y3490572D01*
X6418090Y3470528D01*
X6412402Y3449299D01*
X6487300D01*
Y3524198D01*
D02*
G37*
G36*
X9987300D02*
X9966072Y3518510D01*
X9946028Y3506937D01*
X9929663Y3490572D01*
X9918090Y3470528D01*
X9912402Y3449299D01*
X9987300D01*
Y3524198D01*
D02*
G37*
G36*
X10087598Y3423899D02*
X10012700D01*
Y3349002D01*
X10033928Y3354690D01*
X10053972Y3366263D01*
X10070337Y3382628D01*
X10081910Y3402672D01*
X10087598Y3423899D01*
D02*
G37*
G36*
X6587598D02*
X6512700D01*
Y3349002D01*
X6533928Y3354690D01*
X6553972Y3366263D01*
X6570337Y3382628D01*
X6581910Y3402672D01*
X6587598Y3423899D01*
D02*
G37*
G36*
X6487300D02*
X6412402D01*
X6418090Y3402672D01*
X6429663Y3382628D01*
X6446028Y3366263D01*
X6466072Y3354690D01*
X6487300Y3349002D01*
Y3423899D01*
D02*
G37*
G36*
X9987300D02*
X9912402D01*
X9918090Y3402672D01*
X9929663Y3382628D01*
X9946028Y3366263D01*
X9966072Y3354690D01*
X9987300Y3349002D01*
Y3423899D01*
D02*
G37*
G36*
X14753947Y3156000D02*
X14753101D01*
Y3065800D01*
X14843300D01*
Y3066647D01*
X14836288Y3092818D01*
X14822740Y3116282D01*
X14803581Y3135441D01*
X14780118Y3148988D01*
X14753947Y3156000D01*
D02*
G37*
G36*
X14727699D02*
X14726852D01*
X14700682Y3148988D01*
X14677219Y3135441D01*
X14658060Y3116282D01*
X14644511Y3092818D01*
X14637500Y3066647D01*
Y3065800D01*
X14727699D01*
Y3156000D01*
D02*
G37*
G36*
X2253947D02*
X2253100D01*
Y3065800D01*
X2343300D01*
Y3066647D01*
X2336288Y3092818D01*
X2322741Y3116282D01*
X2303582Y3135441D01*
X2280118Y3148988D01*
X2253947Y3156000D01*
D02*
G37*
G36*
X2227700D02*
X2226853D01*
X2200682Y3148988D01*
X2177218Y3135441D01*
X2158060Y3116282D01*
X2144513Y3092818D01*
X2137500Y3066647D01*
Y3065800D01*
X2227700D01*
Y3156000D01*
D02*
G37*
G36*
X14843300Y3040400D02*
X14753101D01*
Y2950200D01*
X14753947D01*
X14780118Y2957213D01*
X14803581Y2970760D01*
X14822740Y2989918D01*
X14836288Y3013382D01*
X14843300Y3039553D01*
Y3040400D01*
D02*
G37*
G36*
X14727699D02*
X14637500D01*
Y3039553D01*
X14644511Y3013382D01*
X14658060Y2989918D01*
X14677219Y2970760D01*
X14700682Y2957213D01*
X14726852Y2950200D01*
X14727699D01*
Y3040400D01*
D02*
G37*
G36*
X14503947Y3156000D02*
X14476852D01*
X14450682Y3148988D01*
X14427219Y3135441D01*
X14408060Y3116282D01*
X14394511Y3092818D01*
X14387500Y3066647D01*
Y3039553D01*
X14394511Y3013382D01*
X14408060Y2989918D01*
X14427219Y2970760D01*
X14450682Y2957213D01*
X14476852Y2950200D01*
X14503947D01*
X14530118Y2957213D01*
X14553581Y2970760D01*
X14572740Y2989918D01*
X14586288Y3013382D01*
X14593300Y3039553D01*
Y3066647D01*
X14586288Y3092818D01*
X14572740Y3116282D01*
X14553581Y3135441D01*
X14530118Y3148988D01*
X14503947Y3156000D01*
D02*
G37*
G36*
X14253947D02*
X14226852D01*
X14200682Y3148988D01*
X14177219Y3135441D01*
X14158060Y3116282D01*
X14144511Y3092818D01*
X14137500Y3066647D01*
Y3039553D01*
X14144511Y3013382D01*
X14158060Y2989918D01*
X14177219Y2970760D01*
X14200682Y2957213D01*
X14226852Y2950200D01*
X14253947D01*
X14280118Y2957213D01*
X14303581Y2970760D01*
X14322740Y2989918D01*
X14336288Y3013382D01*
X14343300Y3039553D01*
Y3066647D01*
X14336288Y3092818D01*
X14322740Y3116282D01*
X14303581Y3135441D01*
X14280118Y3148988D01*
X14253947Y3156000D01*
D02*
G37*
G36*
X2343300Y3040400D02*
X2253100D01*
Y2950200D01*
X2253947D01*
X2280118Y2957213D01*
X2303582Y2970760D01*
X2322741Y2989918D01*
X2336288Y3013382D01*
X2343300Y3039553D01*
Y3040400D01*
D02*
G37*
G36*
X2227700D02*
X2137500D01*
Y3039553D01*
X2144513Y3013382D01*
X2158060Y2989918D01*
X2177218Y2970760D01*
X2200682Y2957213D01*
X2226853Y2950200D01*
X2227700D01*
Y3040400D01*
D02*
G37*
G36*
X2003947Y3156000D02*
X1976853D01*
X1950682Y3148988D01*
X1927218Y3135441D01*
X1908060Y3116282D01*
X1894513Y3092818D01*
X1887500Y3066647D01*
Y3039553D01*
X1894513Y3013382D01*
X1908060Y2989918D01*
X1927218Y2970760D01*
X1950682Y2957213D01*
X1976853Y2950200D01*
X2003947D01*
X2030118Y2957213D01*
X2053582Y2970760D01*
X2072741Y2989918D01*
X2086288Y3013382D01*
X2093300Y3039553D01*
Y3066647D01*
X2086288Y3092818D01*
X2072741Y3116282D01*
X2053582Y3135441D01*
X2030118Y3148988D01*
X2003947Y3156000D01*
D02*
G37*
G36*
X1753947D02*
X1726853D01*
X1700682Y3148988D01*
X1677218Y3135441D01*
X1658060Y3116282D01*
X1644513Y3092818D01*
X1637500Y3066647D01*
Y3039553D01*
X1644513Y3013382D01*
X1658060Y2989918D01*
X1677218Y2970760D01*
X1700682Y2957213D01*
X1726853Y2950200D01*
X1753947D01*
X1780118Y2957213D01*
X1803582Y2970760D01*
X1822741Y2989918D01*
X1836288Y3013382D01*
X1843300Y3039553D01*
Y3066647D01*
X1836288Y3092818D01*
X1822741Y3116282D01*
X1803582Y3135441D01*
X1780118Y3148988D01*
X1753947Y3156000D01*
D02*
G37*
G36*
X9159048Y2946400D02*
X9128952D01*
X9099882Y2938611D01*
X9073818Y2923563D01*
X9052537Y2902282D01*
X9037489Y2876218D01*
X9029700Y2847148D01*
Y2817052D01*
X9037489Y2787982D01*
X9052537Y2761918D01*
X9073818Y2740637D01*
X9099882Y2725589D01*
X9128952Y2717800D01*
X9159048D01*
X9188118Y2725589D01*
X9214182Y2740637D01*
X9235463Y2761918D01*
X9250511Y2787982D01*
X9258300Y2817052D01*
Y2847148D01*
X9250511Y2876218D01*
X9235463Y2902282D01*
X9214182Y2923563D01*
X9188118Y2938611D01*
X9159048Y2946400D01*
D02*
G37*
G36*
X7480300D02*
X7251700D01*
Y2717800D01*
X7480300D01*
Y2946400D01*
D02*
G37*
G36*
X9159048Y2692400D02*
X9128952D01*
X9099882Y2684611D01*
X9073818Y2669563D01*
X9052537Y2648282D01*
X9037489Y2622218D01*
X9029700Y2593148D01*
Y2563052D01*
X9037489Y2533982D01*
X9052537Y2507918D01*
X9073818Y2486637D01*
X9099882Y2471589D01*
X9128952Y2463800D01*
X9159048D01*
X9188118Y2471589D01*
X9214182Y2486637D01*
X9235463Y2507918D01*
X9250511Y2533982D01*
X9258300Y2563052D01*
Y2593148D01*
X9250511Y2622218D01*
X9235463Y2648282D01*
X9214182Y2669563D01*
X9188118Y2684611D01*
X9159048Y2692400D01*
D02*
G37*
G36*
X7381048D02*
X7350952D01*
X7321882Y2684611D01*
X7295818Y2669563D01*
X7274537Y2648282D01*
X7259489Y2622218D01*
X7251700Y2593148D01*
Y2563052D01*
X7259489Y2533982D01*
X7274537Y2507918D01*
X7295818Y2486637D01*
X7321882Y2471589D01*
X7350952Y2463800D01*
X7381048D01*
X7410118Y2471589D01*
X7436182Y2486637D01*
X7457463Y2507918D01*
X7472511Y2533982D01*
X7480300Y2563052D01*
Y2593148D01*
X7472511Y2622218D01*
X7457463Y2648282D01*
X7436182Y2669563D01*
X7410118Y2684611D01*
X7381048Y2692400D01*
D02*
G37*
G36*
Y2438400D02*
X7378700D01*
Y2336800D01*
X7480300D01*
Y2339148D01*
X7472511Y2368218D01*
X7457463Y2394282D01*
X7436182Y2415563D01*
X7410118Y2430611D01*
X7381048Y2438400D01*
D02*
G37*
G36*
X7353300D02*
X7350952D01*
X7321882Y2430611D01*
X7295818Y2415563D01*
X7274537Y2394282D01*
X7259489Y2368218D01*
X7251700Y2339148D01*
Y2336800D01*
X7353300D01*
Y2438400D01*
D02*
G37*
G36*
X9159048D02*
X9128952D01*
X9099882Y2430611D01*
X9073818Y2415563D01*
X9052537Y2394282D01*
X9037489Y2368218D01*
X9029700Y2339148D01*
Y2309052D01*
X9037489Y2279982D01*
X9052537Y2253918D01*
X9073818Y2232637D01*
X9099882Y2217589D01*
X9128952Y2209800D01*
X9159048D01*
X9188118Y2217589D01*
X9214182Y2232637D01*
X9235463Y2253918D01*
X9250511Y2279982D01*
X9258300Y2309052D01*
Y2339148D01*
X9250511Y2368218D01*
X9235463Y2394282D01*
X9214182Y2415563D01*
X9188118Y2430611D01*
X9159048Y2438400D01*
D02*
G37*
G36*
X7480300Y2311400D02*
X7378700D01*
Y2209800D01*
X7381048D01*
X7410118Y2217589D01*
X7436182Y2232637D01*
X7457463Y2253918D01*
X7472511Y2279982D01*
X7480300Y2309052D01*
Y2311400D01*
D02*
G37*
G36*
X7353300D02*
X7251700D01*
Y2309052D01*
X7259489Y2279982D01*
X7274537Y2253918D01*
X7295818Y2232637D01*
X7321882Y2217589D01*
X7350952Y2209800D01*
X7353300D01*
Y2311400D01*
D02*
G37*
G36*
X10087900Y2254500D02*
X9912100D01*
Y2078700D01*
X10087900D01*
Y2254500D01*
D02*
G37*
G36*
X6587900D02*
X6412100D01*
Y2078700D01*
X6587900D01*
Y2254500D01*
D02*
G37*
G36*
X9159048Y2184400D02*
X9128952D01*
X9099882Y2176611D01*
X9073818Y2161563D01*
X9052537Y2140282D01*
X9037489Y2114218D01*
X9029700Y2085148D01*
Y2055052D01*
X9037489Y2025982D01*
X9052537Y1999918D01*
X9073818Y1978637D01*
X9099882Y1963589D01*
X9128952Y1955800D01*
X9159048D01*
X9188118Y1963589D01*
X9214182Y1978637D01*
X9235463Y1999918D01*
X9250511Y2025982D01*
X9258300Y2055052D01*
Y2085148D01*
X9250511Y2114218D01*
X9235463Y2140282D01*
X9214182Y2161563D01*
X9188118Y2176611D01*
X9159048Y2184400D01*
D02*
G37*
G36*
X7381048D02*
X7350952D01*
X7321882Y2176611D01*
X7295818Y2161563D01*
X7274537Y2140282D01*
X7259489Y2114218D01*
X7251700Y2085148D01*
Y2055052D01*
X7259489Y2025982D01*
X7274537Y1999918D01*
X7295818Y1978637D01*
X7321882Y1963589D01*
X7350952Y1955800D01*
X7381048D01*
X7410118Y1963589D01*
X7436182Y1978637D01*
X7457463Y1999918D01*
X7472511Y2025982D01*
X7480300Y2055052D01*
Y2085148D01*
X7472511Y2114218D01*
X7457463Y2140282D01*
X7436182Y2161563D01*
X7410118Y2176611D01*
X7381048Y2184400D01*
D02*
G37*
G36*
X10012700Y1824198D02*
Y1749300D01*
X10087598D01*
X10081910Y1770528D01*
X10070337Y1790572D01*
X10053972Y1806937D01*
X10033928Y1818510D01*
X10012700Y1824198D01*
D02*
G37*
G36*
X6512700D02*
Y1749300D01*
X6587598D01*
X6581910Y1770528D01*
X6570337Y1790572D01*
X6553972Y1806937D01*
X6533928Y1818510D01*
X6512700Y1824198D01*
D02*
G37*
G36*
X6487300Y1824198D02*
X6466072Y1818510D01*
X6446028Y1806937D01*
X6429663Y1790572D01*
X6418090Y1770528D01*
X6412402Y1749300D01*
X6487300D01*
Y1824198D01*
D02*
G37*
G36*
X9987300D02*
X9966072Y1818510D01*
X9946028Y1806937D01*
X9929663Y1790572D01*
X9918090Y1770528D01*
X9912402Y1749300D01*
X9987300D01*
Y1824198D01*
D02*
G37*
G36*
X9159048Y1930400D02*
X9128952D01*
X9099882Y1922611D01*
X9073818Y1907563D01*
X9052537Y1886282D01*
X9037489Y1860218D01*
X9029700Y1831148D01*
Y1801052D01*
X9037489Y1771982D01*
X9052537Y1745918D01*
X9073818Y1724637D01*
X9099882Y1709589D01*
X9128952Y1701800D01*
X9159048D01*
X9188118Y1709589D01*
X9214182Y1724637D01*
X9235463Y1745918D01*
X9250511Y1771982D01*
X9258300Y1801052D01*
Y1831148D01*
X9250511Y1860218D01*
X9235463Y1886282D01*
X9214182Y1907563D01*
X9188118Y1922611D01*
X9159048Y1930400D01*
D02*
G37*
G36*
X7381048D02*
X7350952D01*
X7321882Y1922611D01*
X7295818Y1907563D01*
X7274537Y1886282D01*
X7259489Y1860218D01*
X7251700Y1831148D01*
Y1801052D01*
X7259489Y1771982D01*
X7274537Y1745918D01*
X7295818Y1724637D01*
X7321882Y1709589D01*
X7350952Y1701800D01*
X7381048D01*
X7410118Y1709589D01*
X7436182Y1724637D01*
X7457463Y1745918D01*
X7472511Y1771982D01*
X7480300Y1801052D01*
Y1831148D01*
X7472511Y1860218D01*
X7457463Y1886282D01*
X7436182Y1907563D01*
X7410118Y1922611D01*
X7381048Y1930400D01*
D02*
G37*
G36*
X10087598Y1723900D02*
X10012700D01*
Y1649002D01*
X10033928Y1654690D01*
X10053972Y1666263D01*
X10070337Y1682628D01*
X10081910Y1702672D01*
X10087598Y1723900D01*
D02*
G37*
G36*
X6587598D02*
X6512700D01*
Y1649002D01*
X6533928Y1654690D01*
X6553972Y1666263D01*
X6570337Y1682628D01*
X6581910Y1702672D01*
X6587598Y1723900D01*
D02*
G37*
G36*
X6487300D02*
X6412402D01*
X6418090Y1702672D01*
X6429663Y1682628D01*
X6446028Y1666263D01*
X6466072Y1654690D01*
X6487300Y1649002D01*
Y1723900D01*
D02*
G37*
G36*
X9987300D02*
X9912402D01*
X9918090Y1702672D01*
X9929663Y1682628D01*
X9946028Y1666263D01*
X9966072Y1654690D01*
X9987300Y1649002D01*
Y1723900D01*
D02*
G37*
G36*
X9159048Y1676400D02*
X9128952D01*
X9099882Y1668611D01*
X9073818Y1653563D01*
X9052537Y1632282D01*
X9037489Y1606218D01*
X9029700Y1577148D01*
Y1547052D01*
X9037489Y1517982D01*
X9052537Y1491918D01*
X9073818Y1470637D01*
X9099882Y1455589D01*
X9128952Y1447800D01*
X9159048D01*
X9188118Y1455589D01*
X9214182Y1470637D01*
X9235463Y1491918D01*
X9250511Y1517982D01*
X9258300Y1547052D01*
Y1577148D01*
X9250511Y1606218D01*
X9235463Y1632282D01*
X9214182Y1653563D01*
X9188118Y1668611D01*
X9159048Y1676400D01*
D02*
G37*
G36*
X7381048D02*
X7350952D01*
X7321882Y1668611D01*
X7295818Y1653563D01*
X7274537Y1632282D01*
X7259489Y1606218D01*
X7251700Y1577148D01*
Y1547052D01*
X7259489Y1517982D01*
X7274537Y1491918D01*
X7295818Y1470637D01*
X7321882Y1455589D01*
X7350952Y1447800D01*
X7381048D01*
X7410118Y1455589D01*
X7436182Y1470637D01*
X7457463Y1491918D01*
X7472511Y1517982D01*
X7480300Y1547052D01*
Y1577148D01*
X7472511Y1606218D01*
X7457463Y1632282D01*
X7436182Y1653563D01*
X7410118Y1668611D01*
X7381048Y1676400D01*
D02*
G37*
G36*
X14425400Y1775400D02*
X14174600D01*
Y1224600D01*
X14425400D01*
Y1775400D01*
D02*
G37*
G36*
X13825400D02*
X13574600D01*
Y1224600D01*
X13825400D01*
Y1775400D01*
D02*
G37*
G36*
X2925400D02*
X2674600D01*
Y1224600D01*
X2925400D01*
Y1775400D01*
D02*
G37*
G36*
X2325400D02*
X2074600D01*
Y1224600D01*
X2325400D01*
Y1775400D01*
D02*
G37*
G36*
X10087900Y554500D02*
X9912100D01*
Y378700D01*
X10087900D01*
Y554500D01*
D02*
G37*
G36*
X6587900D02*
X6412100D01*
Y378700D01*
X6587900D01*
Y554500D01*
D02*
G37*
%LPD*%
D10*
X13700000Y1500000D02*
D03*
X14300000D02*
D03*
X2200000D02*
D03*
X2800000D02*
D03*
D11*
X7366000Y2832100D02*
D03*
D12*
Y2578100D02*
D03*
Y2324100D02*
D03*
Y2070100D02*
D03*
Y1816100D02*
D03*
Y1562100D02*
D03*
X9144000Y2832100D02*
D03*
Y2578100D02*
D03*
Y2324100D02*
D03*
Y2070100D02*
D03*
Y1816100D02*
D03*
Y1562100D02*
D03*
D13*
X10000000Y1736600D02*
D03*
X6500000D02*
D03*
Y3436600D02*
D03*
X10000000D02*
D03*
D14*
Y466600D02*
D03*
X6500000D02*
D03*
Y2166600D02*
D03*
X10000000D02*
D03*
D15*
X1990400Y3053100D02*
D03*
X2240400D02*
D03*
X1740400D02*
D03*
X2240400Y4503100D02*
D03*
X1740400D02*
D03*
X14490401Y3053100D02*
D03*
X14740401D02*
D03*
X14240401D02*
D03*
X14740401Y4503100D02*
D03*
X14240401D02*
D03*
D16*
X1430400Y3803100D02*
D03*
X2540400D02*
D03*
X13930400D02*
D03*
X15040401D02*
D03*
D17*
X10083800Y4191000D02*
D03*
X9575800D02*
D03*
X9067800D02*
D03*
X8559800D02*
D03*
X8051800D02*
D03*
X7543800D02*
D03*
X7035800D02*
D03*
X6527800D02*
D03*
%TF.MD5,acb6b085f05bbf34d851d1a50248d052*%
M02*
