%TF.GenerationSoftware,Altium Limited,Altium Designer,25.2.1 (25)*%
G04 Layer_Color=32896*
%FSLAX45Y45*%
%MOMM*%
%TF.SameCoordinates,7DD24991-B9EC-4422-9666-2EE5E17A6B38*%
%TF.FilePolarity,Positive*%
%TF.FileFunction,Legend,Bot*%
%TF.Part,Single*%
G01*
G75*
%TA.AperFunction,NonConductor*%
%ADD30C,0.20320*%
%ADD31C,0.25400*%
D30*
X5364480Y5794559D02*
X5347552Y5811487D01*
X5313697D01*
X5296769Y5794559D01*
Y5777631D01*
X5313697Y5760703D01*
X5330624D01*
X5313697D01*
X5296769Y5743776D01*
Y5726848D01*
X5313697Y5709920D01*
X5347552D01*
X5364480Y5726848D01*
X5262913Y5709920D02*
Y5726848D01*
X5245985D01*
Y5709920D01*
X5262913D01*
X5178273Y5794559D02*
X5161346Y5811487D01*
X5127490D01*
X5110562Y5794559D01*
Y5777631D01*
X5127490Y5760703D01*
X5144418D01*
X5127490D01*
X5110562Y5743776D01*
Y5726848D01*
X5127490Y5709920D01*
X5161346D01*
X5178273Y5726848D01*
X5076706Y5811487D02*
Y5743776D01*
X5042850Y5709920D01*
X5008995Y5743776D01*
Y5811487D01*
X4839569Y3216459D02*
X4856497Y3233387D01*
X4890352D01*
X4907280Y3216459D01*
Y3148748D01*
X4890352Y3131820D01*
X4856497D01*
X4839569Y3148748D01*
Y3182603D01*
X4873424D01*
X4805713Y3131820D02*
Y3233387D01*
X4738001Y3131820D01*
Y3233387D01*
X4704146D02*
Y3131820D01*
X4653362D01*
X4636434Y3148748D01*
Y3216459D01*
X4653362Y3233387D01*
X4704146D01*
X5309469Y6048559D02*
X5326397Y6065487D01*
X5360252D01*
X5377180Y6048559D01*
Y5980848D01*
X5360252Y5963920D01*
X5326397D01*
X5309469Y5980848D01*
Y6014703D01*
X5343324D01*
X5275613Y5963920D02*
Y6065487D01*
X5207901Y5963920D01*
Y6065487D01*
X5174046D02*
Y5963920D01*
X5123262D01*
X5106334Y5980848D01*
Y6048559D01*
X5123262Y6065487D01*
X5174046D01*
X3760069Y6340659D02*
X3776997Y6357587D01*
X3810852D01*
X3827780Y6340659D01*
Y6272948D01*
X3810852Y6256020D01*
X3776997D01*
X3760069Y6272948D01*
Y6306803D01*
X3793924D01*
X3726213Y6256020D02*
Y6357587D01*
X3658501Y6256020D01*
Y6357587D01*
X3624646D02*
Y6256020D01*
X3573862D01*
X3556934Y6272948D01*
Y6340659D01*
X3573862Y6357587D01*
X3624646D01*
D31*
X825500Y3962343D02*
Y3809992D01*
Y3886167D01*
X723933D01*
Y3962343D01*
Y3809992D01*
X673149Y3784600D02*
X571582D01*
X520799Y3809992D02*
Y3962343D01*
X470015Y3911559D01*
X419231Y3962343D01*
Y3809992D01*
X266881D02*
X368448D01*
X266881Y3911559D01*
Y3936951D01*
X292272Y3962343D01*
X343056D01*
X368448Y3936951D01*
X825500Y4254443D02*
Y4102092D01*
X723933D01*
X673149Y4076700D02*
X571582D01*
X520799Y4102092D02*
Y4254443D01*
X470015Y4203659D01*
X419231Y4254443D01*
Y4102092D01*
X266881D02*
X368448D01*
X266881Y4203659D01*
Y4229051D01*
X292272Y4254443D01*
X343056D01*
X368448Y4229051D01*
X812800Y5676843D02*
Y5524492D01*
Y5600667D01*
X711233D01*
Y5676843D01*
Y5524492D01*
X660449Y5499100D02*
X558882D01*
X508099Y5676843D02*
Y5524492D01*
X431923D01*
X406531Y5549884D01*
Y5651451D01*
X431923Y5676843D01*
X508099D01*
X254181Y5524492D02*
X355748D01*
X254181Y5626059D01*
Y5651451D01*
X279572Y5676843D01*
X330356D01*
X355748Y5651451D01*
X812800Y5956243D02*
Y5803892D01*
X711233D01*
X660449Y5778500D02*
X558882D01*
X508099Y5956243D02*
Y5803892D01*
X431923D01*
X406531Y5829284D01*
Y5930851D01*
X431923Y5956243D01*
X508099D01*
X254181Y5803892D02*
X355748D01*
X254181Y5905459D01*
Y5930851D01*
X279572Y5956243D01*
X330356D01*
X355748Y5930851D01*
X2247900Y2984459D02*
X2222508Y3009851D01*
X2171725D01*
X2146333Y2984459D01*
Y2959067D01*
X2171725Y2933675D01*
X2197117D01*
X2171725D01*
X2146333Y2908283D01*
Y2882892D01*
X2171725Y2857500D01*
X2222508D01*
X2247900Y2882892D01*
X2095549Y2857500D02*
Y2882892D01*
X2070157D01*
Y2857500D01*
X2095549D01*
X1968590Y2984459D02*
X1943199Y3009851D01*
X1892415D01*
X1867023Y2984459D01*
Y2959067D01*
X1892415Y2933675D01*
X1917807D01*
X1892415D01*
X1867023Y2908283D01*
Y2882892D01*
X1892415Y2857500D01*
X1943199D01*
X1968590Y2882892D01*
X1816240Y3009851D02*
Y2908283D01*
X1765456Y2857500D01*
X1714672Y2908283D01*
Y3009851D01*
%TF.MD5,6e4983c06d5c6210d69250cbecb8fad8*%
M02*
