%TF.GenerationSoftware,Altium Limited,Altium Designer,25.2.1 (25)*%
G04 Layer_Color=65535*
%FSLAX45Y45*%
%MOMM*%
%TF.SameCoordinates,7DD24991-B9EC-4422-9666-2EE5E17A6B38*%
%TF.FilePolarity,Positive*%
%TF.FileFunction,Legend,Top*%
%TF.Part,Single*%
G01*
G75*
%TA.AperFunction,NonConductor*%
%ADD25C,0.50000*%
%ADD26C,0.25000*%
%ADD27C,0.20000*%
%ADD28C,0.15240*%
%ADD29C,0.12700*%
%ADD30C,0.20320*%
%ADD31C,0.25400*%
G36*
X7910818Y12406830D02*
X7957326D01*
Y12405501D01*
X7975929D01*
Y12402843D01*
X7974601D01*
Y12397528D01*
X7973272D01*
Y12393542D01*
X7971943D01*
Y12390884D01*
X7970614D01*
Y12385569D01*
X7969285D01*
Y12382911D01*
X7967956D01*
Y12378925D01*
X7966628D01*
Y12373610D01*
X7965299D01*
Y12372281D01*
X7963970D01*
Y12366966D01*
X7962641D01*
Y12362980D01*
X7961312D01*
Y12360322D01*
X7959984D01*
Y12355007D01*
X7958655D01*
Y12353678D01*
X7957326D01*
Y12348363D01*
X7955997D01*
Y12344376D01*
X7954669D01*
Y12341719D01*
X7953340D01*
Y12336404D01*
X7952011D01*
Y12333746D01*
X7950682D01*
Y12331088D01*
X7949353D01*
Y12325773D01*
X7948024D01*
Y12323116D01*
X7946696D01*
Y12319129D01*
X7945367D01*
Y12313814D01*
X7944038D01*
Y12312485D01*
X7942709D01*
Y12307170D01*
X7941381D01*
Y12304513D01*
X7940052D01*
Y12300526D01*
X7938723D01*
Y12295211D01*
X7937394D01*
Y12293882D01*
X7936065D01*
Y12288567D01*
X7934736D01*
Y12284581D01*
X7933408D01*
Y12281923D01*
X7932079D01*
Y12277937D01*
X7930750D01*
Y12273950D01*
X7929422D01*
Y12271293D01*
X7928093D01*
Y12265977D01*
X7926764D01*
Y12263320D01*
X7925435D01*
Y12259333D01*
X7924106D01*
Y12254018D01*
X7922777D01*
Y12251361D01*
X7921449D01*
Y12246046D01*
X7920120D01*
Y12243388D01*
X7918791D01*
Y12239401D01*
X7917462D01*
Y12235415D01*
X7916134D01*
Y12232758D01*
X7914805D01*
Y12227442D01*
X7913476D01*
Y12223456D01*
X7912147D01*
Y12220799D01*
X7910818D01*
Y12211497D01*
X7963970D01*
Y12212826D01*
X7965299D01*
Y12214154D01*
X7966628D01*
Y12218141D01*
X7967956D01*
Y12222127D01*
X7969285D01*
Y12224785D01*
X7970614D01*
Y12228771D01*
X7971943D01*
Y12232758D01*
X7973272D01*
Y12235415D01*
X7974601D01*
Y12240730D01*
X7975929D01*
Y12242059D01*
X7977258D01*
Y12247374D01*
X7978587D01*
Y12251361D01*
X7979916D01*
Y12254018D01*
X7981244D01*
Y12258005D01*
X7982573D01*
Y12261991D01*
X7983902D01*
Y12264649D01*
X7985231D01*
Y12269964D01*
X7986560D01*
Y12271293D01*
X7987889D01*
Y12276608D01*
X7989217D01*
Y12280594D01*
X7990546D01*
Y12283252D01*
X7991875D01*
Y12287238D01*
X7993204D01*
Y12289896D01*
X7994532D01*
Y12293882D01*
X7995861D01*
Y12299197D01*
X7997190D01*
Y12300526D01*
X7998519D01*
Y12305841D01*
X7999848D01*
Y12309828D01*
X8001177D01*
Y12311156D01*
X8002505D01*
Y12316472D01*
X8003834D01*
Y12319129D01*
X8005163D01*
Y12323116D01*
X8006491D01*
Y12327102D01*
X8007820D01*
Y12329760D01*
X8009149D01*
Y12333746D01*
X8010478D01*
Y12339061D01*
X8011807D01*
Y12340390D01*
X8013136D01*
Y12345705D01*
X8014464D01*
Y12348363D01*
X8015793D01*
Y12352349D01*
X8017122D01*
Y12356336D01*
X8018451D01*
Y12358993D01*
X8019779D01*
Y12362980D01*
X8021108D01*
Y12366966D01*
X8022437D01*
Y12369623D01*
X8023766D01*
Y12374939D01*
X8025095D01*
Y12376268D01*
X8026424D01*
Y12380254D01*
X8027752D01*
Y12385569D01*
X8029081D01*
Y12386898D01*
X8030410D01*
Y12392213D01*
X8031739D01*
Y12396199D01*
X8033067D01*
Y12398857D01*
X8034396D01*
Y12404172D01*
X8035725D01*
Y12405501D01*
X8066287D01*
Y12406830D01*
X8193852D01*
Y12405501D01*
X8204482D01*
Y12402843D01*
X8203154D01*
Y12398857D01*
X8201825D01*
Y12396199D01*
X8200496D01*
Y12390884D01*
X8199167D01*
Y12388227D01*
X8197838D01*
Y12384240D01*
X8196509D01*
Y12380254D01*
X8195181D01*
Y12377596D01*
X8193852D01*
Y12373610D01*
X8192523D01*
Y12368295D01*
X8191194D01*
Y12366966D01*
X8189866D01*
Y12361651D01*
X8188537D01*
Y12358993D01*
X8187208D01*
Y12355007D01*
X8185879D01*
Y12349692D01*
X8184550D01*
Y12348363D01*
X8183221D01*
Y12343048D01*
X8181893D01*
Y12339061D01*
X8180564D01*
Y12336404D01*
X8179235D01*
Y12331088D01*
X8177906D01*
Y12329760D01*
X8176578D01*
Y12325773D01*
X8175249D01*
Y12320458D01*
X8173920D01*
Y12317801D01*
X8172591D01*
Y12313814D01*
X8171262D01*
Y12309828D01*
X8169934D01*
Y12307170D01*
X8168605D01*
Y12301855D01*
X8167276D01*
Y12300526D01*
X8165947D01*
Y12295211D01*
X8164618D01*
Y12291225D01*
X8163289D01*
Y12288567D01*
X8161961D01*
Y12284581D01*
X8160632D01*
Y12280594D01*
X8159303D01*
Y12277937D01*
X8157974D01*
Y12272621D01*
X8156646D01*
Y12271293D01*
X8155317D01*
Y12265977D01*
X8153988D01*
Y12263320D01*
Y12261991D01*
X8152659D01*
Y12260662D01*
X8151330D01*
Y12255347D01*
X8150001D01*
Y12251361D01*
X8148673D01*
Y12248703D01*
X8147344D01*
Y12243388D01*
X8146015D01*
Y12242059D01*
X8144687D01*
Y12236744D01*
X8143358D01*
Y12232758D01*
X8142029D01*
Y12230100D01*
X8140700D01*
Y12226113D01*
X8139371D01*
Y12222127D01*
X8138042D01*
Y12219470D01*
X8136714D01*
Y12214154D01*
X8135385D01*
Y12212826D01*
X8134056D01*
Y12207511D01*
X8132727D01*
Y12203524D01*
X8131399D01*
Y12202195D01*
X8130070D01*
Y12196880D01*
X8128741D01*
Y12192894D01*
X8127412D01*
Y12190236D01*
X8126083D01*
Y12186250D01*
X8124754D01*
Y12183592D01*
X8123426D01*
Y12179606D01*
X8122097D01*
Y12174291D01*
X8120768D01*
Y12172962D01*
X8119439D01*
Y12167646D01*
X8118111D01*
Y12164989D01*
X8116782D01*
Y12162331D01*
X8115453D01*
Y12157016D01*
X8114124D01*
Y12155687D01*
X8112795D01*
Y12151701D01*
X8111466D01*
Y12150372D01*
X8098179D01*
Y12149044D01*
X8045027D01*
Y12147715D01*
X8023766D01*
Y12149044D01*
X7800528D01*
Y12150372D01*
X7761993D01*
Y12151701D01*
X7760664D01*
Y12153030D01*
X7759336D01*
Y12154358D01*
X7756678D01*
Y12155687D01*
X7755349D01*
Y12157016D01*
X7752691D01*
Y12158345D01*
X7751363D01*
Y12159674D01*
X7750034D01*
Y12161003D01*
X7748705D01*
Y12163660D01*
X7747376D01*
Y12164989D01*
X7746048D01*
Y12166318D01*
X7744719D01*
Y12168975D01*
X7743390D01*
Y12170304D01*
X7742061D01*
Y12172962D01*
X7740732D01*
Y12176948D01*
X7739404D01*
Y12178277D01*
X7738075D01*
Y12183592D01*
X7736746D01*
Y12195551D01*
X7738075D01*
Y12202195D01*
X7739404D01*
Y12203524D01*
X7740732D01*
Y12210168D01*
X7742061D01*
Y12214154D01*
X7743390D01*
Y12216812D01*
X7744719D01*
Y12222127D01*
X7746048D01*
Y12224785D01*
X7747376D01*
Y12228771D01*
X7748705D01*
Y12234086D01*
X7750034D01*
Y12236744D01*
X7751363D01*
Y12242059D01*
X7752691D01*
Y12246046D01*
X7754020D01*
Y12248703D01*
X7755349D01*
Y12254018D01*
X7756678D01*
Y12255347D01*
X7758007D01*
Y12260662D01*
X7759336D01*
Y12264649D01*
X7760664D01*
Y12267306D01*
X7761993D01*
Y12272621D01*
X7763322D01*
Y12276608D01*
X7764651D01*
Y12277937D01*
X7765979D01*
Y12283252D01*
X7767308D01*
Y12285909D01*
X7768637D01*
Y12289896D01*
X7769966D01*
Y12295211D01*
X7771295D01*
Y12296540D01*
X7772624D01*
Y12301855D01*
X7773952D01*
Y12305841D01*
X7775281D01*
Y12308499D01*
X7776610D01*
Y12313814D01*
X7777939D01*
Y12315143D01*
X7779267D01*
Y12320458D01*
X7780596D01*
Y12324444D01*
X7781925D01*
Y12327102D01*
X7783254D01*
Y12331088D01*
X7784583D01*
Y12335075D01*
X7785912D01*
Y12337732D01*
X7787240D01*
Y12343048D01*
X7788569D01*
Y12345705D01*
X7789898D01*
Y12349692D01*
X7791226D01*
Y12355007D01*
X7792555D01*
Y12356336D01*
X7793884D01*
Y12361651D01*
X7795213D01*
Y12365637D01*
X7796542D01*
Y12368295D01*
X7797871D01*
Y12373610D01*
X7799199D01*
Y12376268D01*
X7800528D01*
Y12380254D01*
X7801857D01*
Y12385569D01*
X7803186D01*
Y12386898D01*
X7804514D01*
Y12392213D01*
X7805843D01*
Y12396199D01*
X7807172D01*
Y12398857D01*
X7808501D01*
Y12404172D01*
X7807172D01*
Y12402843D01*
X7804514D01*
Y12401515D01*
X7803186D01*
Y12400186D01*
X7801857D01*
Y12398857D01*
X7799199D01*
Y12397528D01*
X7796542D01*
Y12396199D01*
X7795213D01*
Y12394871D01*
X7793884D01*
Y12393542D01*
X7792555D01*
Y12392213D01*
X7789898D01*
Y12390884D01*
X7787240D01*
Y12388227D01*
X7784583D01*
Y12386898D01*
X7783254D01*
Y12385569D01*
X7780596D01*
Y12384240D01*
X7779267D01*
Y12382911D01*
X7777939D01*
Y12381583D01*
X7776610D01*
Y12380254D01*
X7773952D01*
Y12378925D01*
X7772624D01*
Y12377596D01*
X7769966D01*
Y12376268D01*
X7768637D01*
Y12374939D01*
X7767308D01*
Y12373610D01*
X7764651D01*
Y12372281D01*
X7763322D01*
Y12370952D01*
X7761993D01*
Y12369623D01*
X7759336D01*
Y12368295D01*
X7758007D01*
Y12366966D01*
X7756678D01*
Y12365637D01*
X7754020D01*
Y12364309D01*
X7752691D01*
Y12362980D01*
X7751363D01*
Y12361651D01*
X7750034D01*
Y12360322D01*
X7747376D01*
Y12358993D01*
X7744719D01*
Y12356336D01*
X7742061D01*
Y12355007D01*
X7740732D01*
Y12353678D01*
X7738075D01*
Y12352349D01*
X7736746D01*
Y12351021D01*
X7735417D01*
Y12349692D01*
X7734088D01*
Y12348363D01*
X7731431D01*
Y12347034D01*
X7730102D01*
Y12345705D01*
X7727444D01*
Y12344376D01*
X7726116D01*
Y12343048D01*
X7724787D01*
Y12341719D01*
X7722129D01*
Y12340390D01*
X7720800D01*
Y12339061D01*
X7719471D01*
Y12337732D01*
X7716814D01*
Y12335075D01*
X7714157D01*
Y12333746D01*
X7711499D01*
Y12332417D01*
X7710170D01*
Y12331088D01*
X7708841D01*
Y12329760D01*
X7707512D01*
Y12328431D01*
X7704855D01*
Y12327102D01*
X7703526D01*
Y12325773D01*
X7702197D01*
Y12324444D01*
X7699540D01*
Y12323116D01*
X7698211D01*
Y12321787D01*
X7696882D01*
Y12320458D01*
X7694224D01*
Y12319129D01*
X7692896D01*
Y12317801D01*
X7691567D01*
Y12316472D01*
X7690238D01*
Y12315143D01*
X7688909D01*
Y12313814D01*
X7686252D01*
Y12312485D01*
X7683594D01*
Y12311156D01*
X7682265D01*
Y12309828D01*
X7680936D01*
Y12308499D01*
X7679608D01*
Y12307170D01*
X7676950D01*
Y12305841D01*
X7675621D01*
Y12304513D01*
X7674292D01*
Y12303184D01*
X7671635D01*
Y12301855D01*
X7670306D01*
Y12300526D01*
X7668977D01*
Y12299197D01*
X7666320D01*
Y12297868D01*
X7664991D01*
Y12296540D01*
X7663662D01*
Y12295211D01*
X7662333D01*
Y12293882D01*
X7661004D01*
Y12292554D01*
X7658347D01*
Y12291225D01*
X7657018D01*
Y12289896D01*
X7655689D01*
Y12288567D01*
X7653032D01*
Y12287238D01*
X7651703D01*
Y12285909D01*
X7650374D01*
Y12284581D01*
X7647716D01*
Y12283252D01*
X7646388D01*
Y12281923D01*
X7645059D01*
Y12280594D01*
X7643730D01*
Y12279266D01*
X7642402D01*
Y12277937D01*
X7639744D01*
Y12276608D01*
X7638415D01*
Y12273950D01*
X7637086D01*
Y12272621D01*
X7635757D01*
Y12268635D01*
X7634429D01*
Y12264649D01*
X7633100D01*
Y12263320D01*
X7631771D01*
Y12258005D01*
X7630442D01*
Y12255347D01*
X7629114D01*
Y12252689D01*
X7627785D01*
Y12247374D01*
X7626456D01*
Y12246046D01*
X7625127D01*
Y12240730D01*
X7623798D01*
Y12236744D01*
X7622469D01*
Y12235415D01*
X7621141D01*
Y12230100D01*
X7619812D01*
Y12227442D01*
X7618483D01*
Y12223456D01*
X7617154D01*
Y12219470D01*
X7615826D01*
Y12216812D01*
X7614497D01*
Y12212826D01*
X7613168D01*
Y12207511D01*
X7611839D01*
Y12206182D01*
X7610510D01*
Y12200866D01*
X7609181D01*
Y12198209D01*
X7607853D01*
Y12194222D01*
X7606524D01*
Y12190236D01*
X7605195D01*
Y12187578D01*
X7603866D01*
Y12183592D01*
X7602537D01*
Y12178277D01*
X7601209D01*
Y12176948D01*
X7599880D01*
Y12171633D01*
X7598551D01*
Y12168975D01*
X7597222D01*
Y12164989D01*
X7595894D01*
Y12159674D01*
X7594565D01*
Y12158345D01*
X7593236D01*
Y12153030D01*
X7591907D01*
Y12150372D01*
X7590578D01*
Y12149044D01*
X7577290D01*
Y12147715D01*
X7459028D01*
Y12149044D01*
X7428465D01*
Y12150372D01*
X7421821D01*
Y12151701D01*
X7423150D01*
Y12157016D01*
X7424479D01*
Y12159674D01*
X7425808D01*
Y12163660D01*
X7427137D01*
Y12168975D01*
X7428465D01*
Y12170304D01*
X7429794D01*
Y12175619D01*
X7431123D01*
Y12179606D01*
X7432451D01*
Y12182263D01*
X7433780D01*
Y12186250D01*
X7435109D01*
Y12188907D01*
X7436438D01*
Y12192894D01*
X7437767D01*
Y12198209D01*
X7439096D01*
Y12199538D01*
X7440424D01*
Y12204853D01*
X7441753D01*
Y12208839D01*
X7443082D01*
Y12211497D01*
X7444411D01*
Y12215483D01*
X7445739D01*
Y12218141D01*
X7447068D01*
Y12222127D01*
X7448397D01*
Y12227442D01*
X7449726D01*
Y12228771D01*
X7451055D01*
Y12234086D01*
X7452384D01*
Y12238073D01*
X7453712D01*
Y12240730D01*
X7455041D01*
Y12246046D01*
X7456370D01*
Y12247374D01*
X7457699D01*
Y12252689D01*
X7459028D01*
Y12256676D01*
X7460356D01*
Y12259333D01*
X7461685D01*
Y12263320D01*
X7463014D01*
Y12268635D01*
X7464343D01*
Y12271293D01*
X7465671D01*
Y12277937D01*
X7467000D01*
Y12279266D01*
X7465671D01*
Y12284581D01*
X7464343D01*
Y12287238D01*
X7463014D01*
Y12289896D01*
X7461685D01*
Y12292554D01*
X7460356D01*
Y12293882D01*
X7459028D01*
Y12296540D01*
X7457699D01*
Y12299197D01*
X7456370D01*
Y12300526D01*
X7455041D01*
Y12303184D01*
X7453712D01*
Y12305841D01*
X7452384D01*
Y12307170D01*
X7451055D01*
Y12309828D01*
X7449726D01*
Y12312485D01*
X7448397D01*
Y12313814D01*
X7447068D01*
Y12317801D01*
X7445739D01*
Y12319129D01*
X7444411D01*
Y12321787D01*
X7443082D01*
Y12323116D01*
X7441753D01*
Y12325773D01*
X7440424D01*
Y12328431D01*
X7439096D01*
Y12329760D01*
X7437767D01*
Y12332417D01*
X7436438D01*
Y12335075D01*
X7435109D01*
Y12336404D01*
X7433780D01*
Y12339061D01*
X7432451D01*
Y12341719D01*
X7431123D01*
Y12344376D01*
X7429794D01*
Y12345705D01*
X7428465D01*
Y12348363D01*
X7427137D01*
Y12351021D01*
X7425808D01*
Y12353678D01*
X7424479D01*
Y12355007D01*
X7423150D01*
Y12357664D01*
X7421821D01*
Y12358993D01*
X7420492D01*
Y12361651D01*
X7419164D01*
Y12364309D01*
X7417835D01*
Y12365637D01*
X7416506D01*
Y12368295D01*
X7415177D01*
Y12370952D01*
X7413849D01*
Y12372281D01*
X7412520D01*
Y12374939D01*
X7411191D01*
Y12377596D01*
X7409862D01*
Y12380254D01*
X7408533D01*
Y12381583D01*
X7407204D01*
Y12384240D01*
X7405876D01*
Y12386898D01*
X7404547D01*
Y12389556D01*
X7403218D01*
Y12390884D01*
X7401889D01*
Y12393542D01*
X7400561D01*
Y12396199D01*
X7399232D01*
Y12397528D01*
X7397903D01*
Y12400186D01*
X7396574D01*
Y12402843D01*
X7395245D01*
Y12405501D01*
X7396574D01*
Y12406830D01*
X7533440D01*
Y12405501D01*
X7565331D01*
Y12402843D01*
X7566660D01*
Y12401515D01*
X7567989D01*
Y12398857D01*
X7569318D01*
Y12396199D01*
X7570647D01*
Y12394871D01*
X7571975D01*
Y12392213D01*
X7573304D01*
Y12390884D01*
X7574633D01*
Y12388227D01*
X7575961D01*
Y12385569D01*
X7577290D01*
Y12384240D01*
X7578619D01*
Y12381583D01*
X7579948D01*
Y12380254D01*
X7581277D01*
Y12377596D01*
X7582606D01*
Y12376268D01*
X7583934D01*
Y12374939D01*
X7585263D01*
Y12373610D01*
X7586592D01*
Y12374939D01*
X7587921D01*
Y12376268D01*
X7590578D01*
Y12377596D01*
X7593236D01*
Y12380254D01*
X7595894D01*
Y12381583D01*
X7597222D01*
Y12382911D01*
X7599880D01*
Y12384240D01*
X7601209D01*
Y12385569D01*
X7602537D01*
Y12386898D01*
X7605195D01*
Y12388227D01*
X7606524D01*
Y12389556D01*
X7607853D01*
Y12390884D01*
X7610510D01*
Y12392213D01*
X7611839D01*
Y12393542D01*
X7613168D01*
Y12394871D01*
X7615826D01*
Y12396199D01*
X7617154D01*
Y12397528D01*
X7618483D01*
Y12398857D01*
X7619812D01*
Y12400186D01*
X7621141D01*
Y12401515D01*
X7623798D01*
Y12402843D01*
X7625127D01*
Y12404172D01*
X7627785D01*
Y12405501D01*
X7629114D01*
Y12406830D01*
X7630442D01*
Y12408159D01*
X7910818D01*
Y12406830D01*
D02*
G37*
G36*
X7132144D02*
X7262366D01*
Y12405501D01*
X7338107D01*
Y12404172D01*
X7347409D01*
Y12402843D01*
X7350066D01*
Y12401515D01*
X7355382D01*
Y12400186D01*
X7358039D01*
Y12398857D01*
X7362025D01*
Y12397528D01*
X7364683D01*
Y12396199D01*
X7367341D01*
Y12394871D01*
X7369998D01*
Y12393542D01*
X7372656D01*
Y12392213D01*
X7373984D01*
Y12390884D01*
X7376642D01*
Y12389556D01*
X7377971D01*
Y12388227D01*
X7380629D01*
Y12386898D01*
X7381957D01*
Y12385569D01*
X7383286D01*
Y12384240D01*
X7384615D01*
Y12381583D01*
X7385944D01*
Y12380254D01*
X7387273D01*
Y12378925D01*
X7388601D01*
Y12376268D01*
X7389930D01*
Y12373610D01*
X7391259D01*
Y12368295D01*
X7392588D01*
Y12344376D01*
X7391259D01*
Y12332417D01*
X7389930D01*
Y12329760D01*
X7388601D01*
Y12325773D01*
X7387273D01*
Y12321787D01*
X7385944D01*
Y12320458D01*
X7384615D01*
Y12316472D01*
X7383286D01*
Y12313814D01*
X7381957D01*
Y12312485D01*
X7380629D01*
Y12309828D01*
X7379300D01*
Y12308499D01*
X7377971D01*
Y12305841D01*
X7376642D01*
Y12304513D01*
X7375313D01*
Y12303184D01*
X7373984D01*
Y12300526D01*
X7372656D01*
Y12299197D01*
X7371327D01*
Y12296540D01*
X7369998D01*
Y12295211D01*
X7368669D01*
Y12293882D01*
X7367341D01*
Y12292554D01*
X7366012D01*
Y12291225D01*
X7364683D01*
Y12289896D01*
X7363354D01*
Y12288567D01*
X7362025D01*
Y12285909D01*
X7360696D01*
Y12284581D01*
X7359368D01*
Y12283252D01*
X7358039D01*
Y12281923D01*
X7355382D01*
Y12280594D01*
X7354053D01*
Y12279266D01*
X7352724D01*
Y12277937D01*
X7351395D01*
Y12276608D01*
X7350066D01*
Y12275279D01*
X7347409D01*
Y12273950D01*
X7346080D01*
Y12272621D01*
X7344751D01*
Y12268635D01*
X7346080D01*
Y12265977D01*
X7347409D01*
Y12264649D01*
X7348737D01*
Y12260662D01*
X7350066D01*
Y12258005D01*
X7351395D01*
Y12255347D01*
X7352724D01*
Y12250032D01*
X7354053D01*
Y12247374D01*
X7355382D01*
Y12236744D01*
X7354053D01*
Y12232758D01*
X7352724D01*
Y12226113D01*
X7351395D01*
Y12223456D01*
X7350066D01*
Y12219470D01*
X7348737D01*
Y12216812D01*
X7347409D01*
Y12214154D01*
X7346080D01*
Y12211497D01*
X7344751D01*
Y12208839D01*
X7343422D01*
Y12207511D01*
X7342094D01*
Y12203524D01*
X7340765D01*
Y12202195D01*
X7339436D01*
Y12200866D01*
X7338107D01*
Y12198209D01*
X7336778D01*
Y12196880D01*
X7335449D01*
Y12194222D01*
X7334121D01*
Y12192894D01*
X7332792D01*
Y12191565D01*
X7331463D01*
Y12190236D01*
X7330134D01*
Y12188907D01*
X7328806D01*
Y12186250D01*
X7326148D01*
Y12184921D01*
X7324819D01*
Y12183592D01*
X7323490D01*
Y12182263D01*
X7322161D01*
Y12180934D01*
X7320833D01*
Y12179606D01*
X7319504D01*
Y12178277D01*
X7318175D01*
Y12176948D01*
X7316846D01*
Y12175619D01*
X7314189D01*
Y12174291D01*
X7312860D01*
Y12172962D01*
X7310202D01*
Y12171633D01*
X7308874D01*
Y12170304D01*
X7306216D01*
Y12168975D01*
X7303558D01*
Y12167646D01*
X7300901D01*
Y12166318D01*
X7299572D01*
Y12164989D01*
X7295586D01*
Y12163660D01*
X7294257D01*
Y12162331D01*
X7290270D01*
Y12161003D01*
X7286284D01*
Y12159674D01*
X7284955D01*
Y12158345D01*
X7279640D01*
Y12157016D01*
X7275654D01*
Y12155687D01*
X7271667D01*
Y12154358D01*
X7265023D01*
Y12153030D01*
X7261037D01*
Y12151701D01*
X7249078D01*
Y12150372D01*
X7218515D01*
Y12149044D01*
X7181309D01*
Y12147715D01*
X6942126D01*
Y12153030D01*
X6943454D01*
Y12158345D01*
X6944783D01*
Y12161003D01*
X6946112D01*
Y12164989D01*
X6947441D01*
Y12168975D01*
X6948770D01*
Y12171633D01*
X6950099D01*
Y12176948D01*
X6951427D01*
Y12179606D01*
X6952756D01*
Y12183592D01*
X6954085D01*
Y12187578D01*
X6955414D01*
Y12190236D01*
X6956743D01*
Y12195551D01*
X6958071D01*
Y12198209D01*
X6959400D01*
Y12202195D01*
X6960729D01*
Y12207511D01*
X6962058D01*
Y12208839D01*
X6963386D01*
Y12214154D01*
X6964715D01*
Y12218141D01*
X6966044D01*
Y12220799D01*
X6967373D01*
Y12224785D01*
X6968702D01*
Y12227442D01*
X6970031D01*
Y12231429D01*
X6971359D01*
Y12236744D01*
X6972688D01*
Y12238073D01*
X6974017D01*
Y12243388D01*
X6975346D01*
Y12247374D01*
X6976674D01*
Y12250032D01*
X6978003D01*
Y12254018D01*
X6979332D01*
Y12256676D01*
X6980661D01*
Y12260662D01*
X6981990D01*
Y12265977D01*
X6983319D01*
Y12267306D01*
X6984647D01*
Y12272621D01*
X6985976D01*
Y12276608D01*
X6987305D01*
Y12279266D01*
X6988634D01*
Y12283252D01*
X6989962D01*
Y12285909D01*
X6991291D01*
Y12289896D01*
X6992620D01*
Y12295211D01*
X6993949D01*
Y12296540D01*
X6995278D01*
Y12301855D01*
X6996607D01*
Y12304513D01*
X6997935D01*
Y12308499D01*
X6999264D01*
Y12312485D01*
X7000593D01*
Y12315143D01*
X7001921D01*
Y12319129D01*
X7003250D01*
Y12324444D01*
X7004579D01*
Y12325773D01*
X7005908D01*
Y12331088D01*
X7007237D01*
Y12335075D01*
X7008566D01*
Y12337732D01*
X7009894D01*
Y12341719D01*
X7011223D01*
Y12344376D01*
X7012552D01*
Y12348363D01*
X7013881D01*
Y12352349D01*
X7015209D01*
Y12355007D01*
X7016538D01*
Y12360322D01*
X7017867D01*
Y12362980D01*
X7019196D01*
Y12365637D01*
X7020525D01*
Y12370952D01*
X7021854D01*
Y12373610D01*
X7023182D01*
Y12377596D01*
X7024511D01*
Y12381583D01*
X7025840D01*
Y12384240D01*
X7027169D01*
Y12388227D01*
X7028498D01*
Y12392213D01*
X7029826D01*
Y12394871D01*
X7031155D01*
Y12400186D01*
X7032484D01*
Y12402843D01*
X7033813D01*
Y12406830D01*
X7035141D01*
Y12408159D01*
X7132144D01*
Y12406830D01*
D02*
G37*
G36*
X7724787Y12042740D02*
X7726116D01*
Y12040082D01*
X7728773D01*
Y12037424D01*
X7730102D01*
Y12034767D01*
X7728773D01*
Y12032109D01*
X7726116D01*
Y12029452D01*
X7723458D01*
Y12028123D01*
X7720800D01*
Y12025465D01*
X7715485D01*
Y12022808D01*
X7711499D01*
Y12021479D01*
X7703526D01*
Y12018821D01*
X7692896D01*
Y12020150D01*
X7691567D01*
Y12021479D01*
X7688909D01*
Y12022808D01*
X7686252D01*
Y12025465D01*
X7683594D01*
Y12028123D01*
X7684923D01*
Y12029452D01*
X7690238D01*
Y12032109D01*
X7698211D01*
Y12033438D01*
X7704855D01*
Y12036096D01*
X7710170D01*
Y12038753D01*
X7714157D01*
Y12040082D01*
X7715485D01*
Y12042740D01*
X7718143D01*
Y12044068D01*
X7724787D01*
Y12042740D01*
D02*
G37*
G36*
X7130815Y12049384D02*
X7138788D01*
Y12046726D01*
X7145431D01*
Y12044068D01*
X7142774D01*
Y12042740D01*
X7141445D01*
Y12040082D01*
X7137459D01*
Y12038753D01*
X7134801D01*
Y12036096D01*
X7132144D01*
Y12033438D01*
X7129486D01*
Y12032109D01*
X7126829D01*
Y12030781D01*
X7125500D01*
Y12029452D01*
X7124171D01*
Y12022808D01*
X7137459D01*
Y12024136D01*
X7138788D01*
Y12025465D01*
X7152076D01*
Y12028123D01*
X7164035D01*
Y12029452D01*
X7227817D01*
Y12028123D01*
X7238447D01*
Y12025465D01*
X7245091D01*
Y12024136D01*
X7246420D01*
Y12022808D01*
X7250406D01*
Y12021479D01*
X7254393D01*
Y12018821D01*
X7258379D01*
Y12017493D01*
X7259708D01*
Y12014835D01*
X7262366D01*
Y12013506D01*
X7263694D01*
Y12012177D01*
X7265023D01*
Y12010848D01*
X7266352D01*
Y12008191D01*
X7269010D01*
Y12001547D01*
X7270339D01*
Y11993574D01*
X7269010D01*
Y11986930D01*
X7266352D01*
Y11982944D01*
X7265023D01*
Y11978957D01*
X7262366D01*
Y11976300D01*
X7261037D01*
Y11974971D01*
X7259708D01*
Y11972313D01*
X7258379D01*
Y11969656D01*
X7255722D01*
Y11968327D01*
X7254393D01*
Y11964341D01*
X7251735D01*
Y11961683D01*
X7249078D01*
Y11959026D01*
X7247749D01*
Y11957697D01*
X7245091D01*
Y11955039D01*
X7243762D01*
Y11953710D01*
X7241105D01*
Y11951053D01*
X7238447D01*
Y11948395D01*
X7234461D01*
Y11947066D01*
X7233132D01*
Y11944409D01*
X7230474D01*
Y11943080D01*
X7229146D01*
Y11941751D01*
X7227817D01*
Y11940422D01*
X7223831D01*
Y11937765D01*
X7222502D01*
Y11936436D01*
X7217186D01*
Y11933779D01*
X7215858D01*
Y11932450D01*
X7211872D01*
Y11929792D01*
X7206556D01*
Y11927134D01*
X7202570D01*
Y11925806D01*
X7198584D01*
Y11923148D01*
X7193268D01*
Y11921819D01*
X7191939D01*
Y11920491D01*
X7187953D01*
Y11919162D01*
X7183967D01*
Y11916504D01*
X7177323D01*
Y11915175D01*
X7170679D01*
Y11912518D01*
X7164035D01*
Y11909860D01*
X7157391D01*
Y11908531D01*
X7150747D01*
Y11907202D01*
X7149418D01*
Y11905874D01*
X7142774D01*
Y11904545D01*
X7134801D01*
Y11901887D01*
X7124171D01*
Y11899230D01*
X7113541D01*
Y11897901D01*
X7101581D01*
Y11896572D01*
X7100253D01*
Y11895243D01*
X7088293D01*
Y11893914D01*
X7071019D01*
Y11891257D01*
X7056402D01*
Y11888599D01*
X7047101D01*
Y11883284D01*
X7051087D01*
Y11880626D01*
X7056402D01*
Y11879298D01*
X7057731D01*
Y11877969D01*
X7061717D01*
Y11876640D01*
X7068362D01*
Y11873983D01*
X7075005D01*
Y11872654D01*
X7082978D01*
Y11869996D01*
X7089622D01*
Y11868667D01*
X7090951D01*
Y11867338D01*
X7098924D01*
Y11866010D01*
X7106896D01*
Y11863352D01*
X7117527D01*
Y11862024D01*
X7166692D01*
Y11863352D01*
X7178651D01*
Y11866010D01*
X7187953D01*
Y11867338D01*
X7195926D01*
Y11869996D01*
X7202570D01*
Y11872654D01*
X7209214D01*
Y11873983D01*
X7215858D01*
Y11876640D01*
X7221173D01*
Y11877969D01*
X7225159D01*
Y11879298D01*
X7226488D01*
Y11880626D01*
X7231803D01*
Y11881955D01*
X7233132D01*
Y11883284D01*
X7237119D01*
Y11884613D01*
X7241105D01*
Y11885942D01*
X7242434D01*
Y11887271D01*
X7247749D01*
Y11888599D01*
X7250406D01*
Y11889928D01*
X7251735D01*
Y11891257D01*
X7255722D01*
Y11893914D01*
X7259708D01*
Y11895243D01*
X7262366D01*
Y11896572D01*
X7263694D01*
Y11897901D01*
X7266352D01*
Y11899230D01*
X7269010D01*
Y11900558D01*
X7270339D01*
Y11901887D01*
X7272996D01*
Y11904545D01*
X7276982D01*
Y11905874D01*
X7279640D01*
Y11908531D01*
X7280969D01*
Y11909860D01*
X7282298D01*
Y11911189D01*
X7284955D01*
Y11912518D01*
X7287613D01*
Y11915175D01*
X7290270D01*
Y11916504D01*
X7294257D01*
Y11919162D01*
X7296914D01*
Y11921819D01*
X7300901D01*
Y11923148D01*
X7304887D01*
Y11925806D01*
X7308874D01*
Y11927134D01*
X7311531D01*
Y11928463D01*
X7312860D01*
Y11929792D01*
X7316846D01*
Y11931121D01*
X7318175D01*
Y11932450D01*
X7322161D01*
Y11933779D01*
X7326148D01*
Y11936436D01*
X7332792D01*
Y11937765D01*
X7336778D01*
Y11940422D01*
X7343422D01*
Y11943080D01*
X7350066D01*
Y11944409D01*
X7355382D01*
Y11947066D01*
X7362025D01*
Y11948395D01*
X7368669D01*
Y11949724D01*
X7371327D01*
Y11951053D01*
X7376642D01*
Y11952381D01*
X7377971D01*
Y11953710D01*
X7385944D01*
Y11955039D01*
X7393916D01*
Y11957697D01*
X7413849D01*
Y11955039D01*
X7415177D01*
Y11949724D01*
X7413849D01*
Y11944409D01*
X7411191D01*
Y11940422D01*
X7409862D01*
Y11936436D01*
X7407204D01*
Y11932450D01*
X7405876D01*
Y11931121D01*
X7404547D01*
Y11927134D01*
X7403218D01*
Y11923148D01*
X7400561D01*
Y11916504D01*
X7399232D01*
Y11912518D01*
X7396574D01*
Y11905874D01*
X7393916D01*
Y11899230D01*
X7392588D01*
Y11891257D01*
X7389930D01*
Y11873983D01*
X7396574D01*
Y11876640D01*
X7399232D01*
Y11879298D01*
X7400561D01*
Y11880626D01*
X7401889D01*
Y11881955D01*
X7403218D01*
Y11884613D01*
X7404547D01*
Y11887271D01*
X7407204D01*
Y11888599D01*
X7408533D01*
Y11889928D01*
X7409862D01*
Y11891257D01*
X7411191D01*
Y11893914D01*
X7412520D01*
Y11895243D01*
X7413849D01*
Y11897901D01*
X7415177D01*
Y11899230D01*
X7416506D01*
Y11900558D01*
X7417835D01*
Y11901887D01*
X7419164D01*
Y11903216D01*
X7420492D01*
Y11905874D01*
X7421821D01*
Y11908531D01*
X7424479D01*
Y11911189D01*
X7425808D01*
Y11912518D01*
X7428465D01*
Y11915175D01*
X7431123D01*
Y11917833D01*
X7432451D01*
Y11921819D01*
X7435109D01*
Y11923148D01*
X7436438D01*
Y11925806D01*
X7439096D01*
Y11927134D01*
X7441753D01*
Y11929792D01*
X7443082D01*
Y11932450D01*
X7445739D01*
Y11933779D01*
X7447068D01*
Y11936436D01*
X7449726D01*
Y11937765D01*
X7452384D01*
Y11940422D01*
X7456370D01*
Y11943080D01*
X7457699D01*
Y11944409D01*
X7460356D01*
Y11947066D01*
X7464343D01*
Y11948395D01*
X7467000D01*
Y11949724D01*
X7468329D01*
Y11951053D01*
X7470987D01*
Y11953710D01*
X7474973D01*
Y11955039D01*
X7478959D01*
Y11957697D01*
X7484275D01*
Y11959026D01*
X7488261D01*
Y11961683D01*
X7492247D01*
Y11964341D01*
X7498892D01*
Y11965669D01*
X7502878D01*
Y11968327D01*
X7509522D01*
Y11969656D01*
X7514837D01*
Y11970985D01*
X7516166D01*
Y11972313D01*
X7521481D01*
Y11974971D01*
X7528125D01*
Y11976300D01*
X7534769D01*
Y11978957D01*
X7542742D01*
Y11980286D01*
X7560016D01*
Y11978957D01*
X7569318D01*
Y11976300D01*
X7575961D01*
Y11974971D01*
X7581277D01*
Y11973642D01*
X7582606D01*
Y11972313D01*
X7586592D01*
Y11969656D01*
X7587921D01*
Y11968327D01*
X7586592D01*
Y11965669D01*
X7577290D01*
Y11964341D01*
X7540084D01*
Y11963012D01*
X7538755D01*
Y11961683D01*
X7529454D01*
Y11960354D01*
X7528125D01*
Y11959026D01*
X7522810D01*
Y11957697D01*
X7517494D01*
Y11955039D01*
X7513508D01*
Y11953710D01*
X7509522D01*
Y11951053D01*
X7505535D01*
Y11948395D01*
X7502878D01*
Y11947066D01*
X7501549D01*
Y11944409D01*
X7497563D01*
Y11943080D01*
X7496234D01*
Y11941751D01*
X7494905D01*
Y11940422D01*
X7493576D01*
Y11939093D01*
X7492247D01*
Y11936436D01*
X7490919D01*
Y11935107D01*
X7489590D01*
Y11933779D01*
X7488261D01*
Y11931121D01*
X7485604D01*
Y11927134D01*
X7484275D01*
Y11925806D01*
X7481617D01*
Y11920491D01*
X7478959D01*
Y11916504D01*
X7477631D01*
Y11912518D01*
X7474973D01*
Y11905874D01*
X7473644D01*
Y11891257D01*
X7472316D01*
Y11889928D01*
X7470987D01*
Y11879298D01*
X7473644D01*
Y11867338D01*
X7474973D01*
Y11866010D01*
X7493576D01*
Y11867338D01*
X7497563D01*
Y11868667D01*
X7498892D01*
Y11869996D01*
X7502878D01*
Y11872654D01*
X7506864D01*
Y11873983D01*
X7510851D01*
Y11876640D01*
X7516166D01*
Y11877969D01*
X7518823D01*
Y11879298D01*
X7520152D01*
Y11880626D01*
X7524139D01*
Y11883284D01*
X7528125D01*
Y11884613D01*
X7530782D01*
Y11887271D01*
X7534769D01*
Y11888599D01*
X7537426D01*
Y11889928D01*
X7538755D01*
Y11891257D01*
X7541413D01*
Y11893914D01*
X7545399D01*
Y11895243D01*
X7548057D01*
Y11896572D01*
X7549386D01*
Y11897901D01*
X7552043D01*
Y11899230D01*
X7553372D01*
Y11900558D01*
X7556030D01*
Y11901887D01*
X7558687D01*
Y11904545D01*
X7561345D01*
Y11905874D01*
X7564002D01*
Y11907202D01*
X7565331D01*
Y11908531D01*
X7566660D01*
Y11909860D01*
X7567989D01*
Y11911189D01*
X7570647D01*
Y11912518D01*
X7573304D01*
Y11915175D01*
X7575961D01*
Y11916504D01*
X7579948D01*
Y11919162D01*
X7581277D01*
Y11921819D01*
X7583934D01*
Y11923148D01*
X7587921D01*
Y11925806D01*
X7590578D01*
Y11927134D01*
X7591907D01*
Y11929792D01*
X7595894D01*
Y11932450D01*
X7598551D01*
Y11933779D01*
X7601209D01*
Y11936436D01*
X7602537D01*
Y11937765D01*
X7605195D01*
Y11939093D01*
X7606524D01*
Y11940422D01*
X7609181D01*
Y11943080D01*
X7611839D01*
Y11944409D01*
X7613168D01*
Y11947066D01*
X7615826D01*
Y11948395D01*
X7618483D01*
Y11951053D01*
X7621141D01*
Y11953710D01*
X7623798D01*
Y11955039D01*
X7626456D01*
Y11957697D01*
X7629114D01*
Y11959026D01*
X7630442D01*
Y11961683D01*
X7634429D01*
Y11964341D01*
X7637086D01*
Y11965669D01*
X7641073D01*
Y11968327D01*
X7654361D01*
Y11965669D01*
X7661004D01*
Y11963012D01*
X7658347D01*
Y11959026D01*
X7657018D01*
Y11957697D01*
X7654361D01*
Y11955039D01*
X7651703D01*
Y11952381D01*
X7650374D01*
Y11949724D01*
X7649045D01*
Y11948395D01*
X7647716D01*
Y11947066D01*
X7646388D01*
Y11945738D01*
X7645059D01*
Y11944409D01*
X7643730D01*
Y11943080D01*
X7642402D01*
Y11941751D01*
X7641073D01*
Y11940422D01*
X7639744D01*
Y11937765D01*
X7637086D01*
Y11933779D01*
X7634429D01*
Y11932450D01*
X7633100D01*
Y11929792D01*
X7630442D01*
Y11927134D01*
X7629114D01*
Y11925806D01*
X7627785D01*
Y11924477D01*
X7626456D01*
Y11920491D01*
X7623798D01*
Y11919162D01*
X7622469D01*
Y11916504D01*
X7621141D01*
Y11915175D01*
X7619812D01*
Y11912518D01*
X7618483D01*
Y11908531D01*
X7615826D01*
Y11903216D01*
X7614497D01*
Y11901887D01*
X7613168D01*
Y11880626D01*
X7623798D01*
Y11883284D01*
X7629114D01*
Y11884613D01*
X7633100D01*
Y11887271D01*
X7634429D01*
Y11888599D01*
X7637086D01*
Y11889928D01*
X7639744D01*
Y11891257D01*
X7641073D01*
Y11893914D01*
X7645059D01*
Y11895243D01*
X7647716D01*
Y11897901D01*
X7650374D01*
Y11899230D01*
X7653032D01*
Y11900558D01*
X7654361D01*
Y11901887D01*
X7655689D01*
Y11904545D01*
X7661004D01*
Y11905874D01*
X7662333D01*
Y11908531D01*
X7664991D01*
Y11909860D01*
X7666320D01*
Y11911189D01*
X7668977D01*
Y11912518D01*
X7671635D01*
Y11915175D01*
X7675621D01*
Y11916504D01*
X7676950D01*
Y11917833D01*
X7678279D01*
Y11919162D01*
X7679608D01*
Y11921819D01*
X7683594D01*
Y11923148D01*
X7686252D01*
Y11925806D01*
X7688909D01*
Y11927134D01*
X7691567D01*
Y11928463D01*
X7692896D01*
Y11929792D01*
X7694224D01*
Y11932450D01*
X7696882D01*
Y11933779D01*
X7700869D01*
Y11936436D01*
X7703526D01*
Y11937765D01*
X7704855D01*
Y11940422D01*
X7708841D01*
Y11941751D01*
X7710170D01*
Y11943080D01*
X7711499D01*
Y11944409D01*
X7714157D01*
Y11947066D01*
X7718143D01*
Y11948395D01*
X7719471D01*
Y11949724D01*
X7720800D01*
Y11951053D01*
X7722129D01*
Y11953710D01*
X7726116D01*
Y11955039D01*
X7728773D01*
Y11957697D01*
X7731431D01*
Y11959026D01*
X7734088D01*
Y11960354D01*
X7735417D01*
Y11961683D01*
X7736746D01*
Y11964341D01*
X7740732D01*
Y11965669D01*
X7743390D01*
Y11968327D01*
X7746048D01*
Y11969656D01*
X7748705D01*
Y11970985D01*
X7750034D01*
Y11972313D01*
X7752691D01*
Y11974971D01*
X7754020D01*
Y11976300D01*
X7758007D01*
Y11978957D01*
X7760664D01*
Y11980286D01*
X7763322D01*
Y11981615D01*
X7764651D01*
Y11982944D01*
X7767308D01*
Y11985601D01*
X7768637D01*
Y11986930D01*
X7773952D01*
Y11989588D01*
X7775281D01*
Y11990917D01*
X7779267D01*
Y11993574D01*
X7784583D01*
Y11996232D01*
X7788569D01*
Y11997561D01*
X7799199D01*
Y11996232D01*
X7803186D01*
Y11993574D01*
X7805843D01*
Y11989588D01*
X7803186D01*
Y11985601D01*
X7801857D01*
Y11982944D01*
X7800528D01*
Y11980286D01*
X7799199D01*
Y11976300D01*
X7796542D01*
Y11973642D01*
X7795213D01*
Y11969656D01*
X7792555D01*
Y11965669D01*
X7789898D01*
Y11961683D01*
X7788569D01*
Y11959026D01*
X7787240D01*
Y11957697D01*
X7785912D01*
Y11955039D01*
X7784583D01*
Y11947066D01*
X7789898D01*
Y11948395D01*
X7793884D01*
Y11949724D01*
X7795213D01*
Y11951053D01*
X7796542D01*
Y11953710D01*
X7799199D01*
Y11955039D01*
X7803186D01*
Y11957697D01*
X7805843D01*
Y11959026D01*
X7808501D01*
Y11960354D01*
X7809830D01*
Y11961683D01*
X7811159D01*
Y11964341D01*
X7816474D01*
Y11965669D01*
X7820460D01*
Y11968327D01*
X7824446D01*
Y11969656D01*
X7828433D01*
Y11972313D01*
X7835077D01*
Y11974971D01*
X7843050D01*
Y11976300D01*
X7860324D01*
Y11974971D01*
X7865639D01*
Y11972313D01*
X7866968D01*
Y11968327D01*
X7865639D01*
Y11965669D01*
X7862981D01*
Y11964341D01*
X7861653D01*
Y11963012D01*
X7860324D01*
Y11961683D01*
X7858995D01*
Y11959026D01*
X7856338D01*
Y11955039D01*
X7855009D01*
Y11953710D01*
X7853680D01*
Y11952381D01*
X7852351D01*
Y11951053D01*
X7851022D01*
Y11948395D01*
X7849694D01*
Y11947066D01*
X7848365D01*
Y11944409D01*
X7847036D01*
Y11943080D01*
X7845707D01*
Y11940422D01*
X7844379D01*
Y11936436D01*
X7841721D01*
Y11932450D01*
X7840392D01*
Y11931121D01*
X7839063D01*
Y11921819D01*
X7845707D01*
Y11923148D01*
X7849694D01*
Y11925806D01*
X7852351D01*
Y11927134D01*
X7856338D01*
Y11929792D01*
X7858995D01*
Y11932450D01*
X7862981D01*
Y11933779D01*
X7865639D01*
Y11935107D01*
X7866968D01*
Y11936436D01*
X7869626D01*
Y11937765D01*
X7873612D01*
Y11940422D01*
X7876269D01*
Y11943080D01*
X7880256D01*
Y11944409D01*
X7882914D01*
Y11945738D01*
X7884242D01*
Y11947066D01*
X7886900D01*
Y11948395D01*
X7890886D01*
Y11951053D01*
X7894873D01*
Y11953710D01*
X7897530D01*
Y11955039D01*
X7901517D01*
Y11957697D01*
X7905503D01*
Y11959026D01*
X7908161D01*
Y11961683D01*
X7912147D01*
Y11964341D01*
X7916134D01*
Y11965669D01*
X7918791D01*
Y11966998D01*
X7920120D01*
Y11968327D01*
X7922777D01*
Y11969656D01*
X7926764D01*
Y11972313D01*
X7930750D01*
Y11974971D01*
X7934736D01*
Y11976300D01*
X7938723D01*
Y11977629D01*
X7940052D01*
Y11978957D01*
X7944038D01*
Y11980286D01*
X7948024D01*
Y11982944D01*
X7954669D01*
Y11985601D01*
X7959984D01*
Y11986930D01*
X7966628D01*
Y11989588D01*
X7973272D01*
Y11990917D01*
X7981244D01*
Y11992246D01*
X7982573D01*
Y11993574D01*
X7991875D01*
Y11994903D01*
X7993204D01*
Y11996232D01*
X8003834D01*
Y11997561D01*
X8017122D01*
Y11998889D01*
X8018451D01*
Y12000218D01*
X8064959D01*
Y11997561D01*
X8071603D01*
Y11996232D01*
X8078246D01*
Y11993574D01*
X8084891D01*
Y11990917D01*
X8088877D01*
Y11989588D01*
X8091534D01*
Y11988259D01*
X8092863D01*
Y11986930D01*
X8095521D01*
Y11985601D01*
X8096850D01*
Y11982944D01*
X8099507D01*
Y11981615D01*
X8100836D01*
Y11978957D01*
X8099507D01*
Y11976300D01*
X8095521D01*
Y11974971D01*
X8086219D01*
Y11976300D01*
X8079575D01*
Y11977629D01*
X8078246D01*
Y11978957D01*
X8071603D01*
Y11980286D01*
X8064959D01*
Y11982944D01*
X8054328D01*
Y11985601D01*
X8006491D01*
Y11984273D01*
X8005163D01*
Y11982944D01*
X7994532D01*
Y11980286D01*
X7989217D01*
Y11978957D01*
X7982573D01*
Y11976300D01*
X7975929D01*
Y11974971D01*
X7971943D01*
Y11972313D01*
X7965299D01*
Y11969656D01*
X7961312D01*
Y11968327D01*
X7957326D01*
Y11966998D01*
X7954669D01*
Y11965669D01*
X7950682D01*
Y11964341D01*
X7946696D01*
Y11961683D01*
X7941381D01*
Y11959026D01*
X7937394D01*
Y11957697D01*
X7933408D01*
Y11955039D01*
X7930750D01*
Y11953710D01*
X7926764D01*
Y11951053D01*
X7922777D01*
Y11948395D01*
X7920120D01*
Y11947066D01*
X7916134D01*
Y11944409D01*
X7913476D01*
Y11943080D01*
X7912147D01*
Y11940422D01*
X7908161D01*
Y11937765D01*
X7905503D01*
Y11936436D01*
X7904174D01*
Y11935107D01*
X7902846D01*
Y11933779D01*
X7901517D01*
Y11931121D01*
X7898859D01*
Y11929792D01*
X7897530D01*
Y11927134D01*
X7894873D01*
Y11925806D01*
X7893544D01*
Y11924477D01*
X7892215D01*
Y11923148D01*
X7890886D01*
Y11920491D01*
X7888229D01*
Y11916504D01*
X7886900D01*
Y11915175D01*
X7884242D01*
Y11912518D01*
X7881585D01*
Y11908531D01*
X7880256D01*
Y11905874D01*
X7877598D01*
Y11891257D01*
X7896201D01*
Y11893914D01*
X7902846D01*
Y11895243D01*
X7909489D01*
Y11897901D01*
X7916134D01*
Y11899230D01*
X7920120D01*
Y11900558D01*
X7922777D01*
Y11901887D01*
X7928093D01*
Y11904545D01*
X7933408D01*
Y11905874D01*
X7940052D01*
Y11908531D01*
X7945367D01*
Y11909860D01*
X7946696D01*
Y11911189D01*
X7950682D01*
Y11912518D01*
X7955997D01*
Y11915175D01*
X7961312D01*
Y11916504D01*
X7966628D01*
Y11919162D01*
X7973272D01*
Y11921819D01*
X7977258D01*
Y11923148D01*
X7982573D01*
Y11924477D01*
X7983902D01*
Y11925806D01*
X7987889D01*
Y11927134D01*
X7993204D01*
Y11929792D01*
X7998519D01*
Y11932450D01*
X8003834D01*
Y11933779D01*
X8007820D01*
Y11935107D01*
X8009149D01*
Y11936436D01*
X8014464D01*
Y11937765D01*
X8018451D01*
Y11940422D01*
X8022437D01*
Y11943080D01*
X8029081D01*
Y11944409D01*
X8033067D01*
Y11947066D01*
X8037054D01*
Y11948395D01*
X8041040D01*
Y11949724D01*
X8042369D01*
Y11951053D01*
X8046356D01*
Y11953710D01*
X8051671D01*
Y11955039D01*
X8056986D01*
Y11957697D01*
X8062301D01*
Y11959026D01*
X8078246D01*
Y11957697D01*
X8082233D01*
Y11955039D01*
X8080904D01*
Y11952381D01*
X8079575D01*
Y11951053D01*
X8078246D01*
Y11948395D01*
X8075589D01*
Y11947066D01*
X8074260D01*
Y11944409D01*
X8071603D01*
Y11941751D01*
X8070274D01*
Y11940422D01*
X8068945D01*
Y11937765D01*
X8067616D01*
Y11936436D01*
X8064959D01*
Y11933779D01*
X8063630D01*
Y11927134D01*
X8074260D01*
Y11928463D01*
X8075589D01*
Y11929792D01*
X8086219D01*
Y11932450D01*
X8095521D01*
Y11933779D01*
X8104823D01*
Y11935107D01*
X8106151D01*
Y11936436D01*
X8115453D01*
Y11937765D01*
X8124754D01*
Y11940422D01*
X8135385D01*
Y11943080D01*
X8146015D01*
Y11944409D01*
X8157974D01*
Y11945738D01*
X8159303D01*
Y11947066D01*
X8169934D01*
Y11948395D01*
X8181893D01*
Y11951053D01*
X8195181D01*
Y11953710D01*
X8209797D01*
Y11955039D01*
X8224414D01*
Y11957697D01*
X8241689D01*
Y11959026D01*
X8261621D01*
Y11960354D01*
X8262949D01*
Y11961683D01*
X8289525D01*
Y11951053D01*
X8272251D01*
Y11948395D01*
X8250990D01*
Y11947066D01*
X8233716D01*
Y11944409D01*
X8216442D01*
Y11943080D01*
X8203154D01*
Y11941751D01*
X8201825D01*
Y11940422D01*
X8188537D01*
Y11937765D01*
X8175249D01*
Y11936436D01*
X8163289D01*
Y11933779D01*
X8152659D01*
Y11932450D01*
X8144687D01*
Y11931121D01*
X8142029D01*
Y11929792D01*
X8131399D01*
Y11927134D01*
X8122097D01*
Y11925806D01*
X8112795D01*
Y11923148D01*
X8103494D01*
Y11921819D01*
X8099507D01*
Y11920491D01*
X8095521D01*
Y11919162D01*
X8086219D01*
Y11916504D01*
X8078246D01*
Y11915175D01*
X8070274D01*
Y11913846D01*
X8068945D01*
Y11912518D01*
X8060972D01*
Y11909860D01*
X8054328D01*
Y11908531D01*
X8047684D01*
Y11905874D01*
X8042369D01*
Y11904545D01*
X8038383D01*
Y11903216D01*
X8037054D01*
Y11901887D01*
X8033067D01*
Y11899230D01*
X8031739D01*
Y11897901D01*
X8029081D01*
Y11895243D01*
X8026424D01*
Y11893914D01*
X8025095D01*
Y11891257D01*
X8022437D01*
Y11888599D01*
X8021108D01*
Y11887271D01*
X8018451D01*
Y11884613D01*
X8015793D01*
Y11883284D01*
X8014464D01*
Y11880626D01*
X8011807D01*
Y11877969D01*
X8010478D01*
Y11876640D01*
X8007820D01*
Y11873983D01*
X8005163D01*
Y11872654D01*
X8003834D01*
Y11869996D01*
X8001177D01*
Y11867338D01*
X7999848D01*
Y11866010D01*
X7997190D01*
Y11863352D01*
X7994532D01*
Y11862024D01*
X7993204D01*
Y11859366D01*
X7990546D01*
Y11856708D01*
X7989217D01*
Y11855379D01*
X7986560D01*
Y11852722D01*
X7983902D01*
Y11851393D01*
X7982573D01*
Y11848736D01*
X7979916D01*
Y11846078D01*
X7978587D01*
Y11844749D01*
X7975929D01*
Y11842091D01*
X7973272D01*
Y11840763D01*
X7971943D01*
Y11838105D01*
X7969285D01*
Y11835447D01*
X7967956D01*
Y11834119D01*
X7963970D01*
Y11831461D01*
X7961312D01*
Y11830132D01*
X7959984D01*
Y11828803D01*
X7958655D01*
Y11827475D01*
X7957326D01*
Y11824817D01*
X7954669D01*
Y11823488D01*
X7952011D01*
Y11820831D01*
X7950682D01*
Y11819502D01*
X7948024D01*
Y11816844D01*
X7945367D01*
Y11814187D01*
X7944038D01*
Y11812858D01*
X7941381D01*
Y11810200D01*
X7937394D01*
Y11807543D01*
X7936065D01*
Y11806214D01*
X7933408D01*
Y11803556D01*
X7930750D01*
Y11802228D01*
X7929422D01*
Y11799570D01*
X7926764D01*
Y11798241D01*
X7925435D01*
Y11796912D01*
X7924106D01*
Y11795583D01*
X7922777D01*
Y11792926D01*
X7918791D01*
Y11791597D01*
X7916134D01*
Y11788940D01*
X7913476D01*
Y11787611D01*
X7912147D01*
Y11784953D01*
X7909489D01*
Y11782296D01*
X7908161D01*
Y11780967D01*
X7905503D01*
Y11779638D01*
X7904174D01*
Y11778309D01*
X7901517D01*
Y11775652D01*
X7898859D01*
Y11774323D01*
X7897530D01*
Y11771665D01*
X7894873D01*
Y11770336D01*
X7892215D01*
Y11769008D01*
X7890886D01*
Y11767679D01*
X7888229D01*
Y11765021D01*
X7886900D01*
Y11763693D01*
X7884242D01*
Y11761035D01*
X7881585D01*
Y11759706D01*
X7878927D01*
Y11758377D01*
X7877598D01*
Y11757048D01*
X7876269D01*
Y11754391D01*
X7873612D01*
Y11753062D01*
X7870954D01*
Y11750404D01*
X7866968D01*
Y11749076D01*
X7865639D01*
Y11746418D01*
X7862981D01*
Y11743761D01*
X7858995D01*
Y11742432D01*
X7856338D01*
Y11739774D01*
X7855009D01*
Y11738445D01*
X7851022D01*
Y11737116D01*
X7849694D01*
Y11735788D01*
X7848365D01*
Y11733130D01*
X7844379D01*
Y11731801D01*
X7841721D01*
Y11729144D01*
X7837734D01*
Y11727815D01*
X7835077D01*
Y11726486D01*
X7833748D01*
Y11725157D01*
X7831091D01*
Y11722500D01*
X7827104D01*
Y11721171D01*
X7823118D01*
Y11718514D01*
X7819131D01*
Y11717185D01*
X7816474D01*
Y11715856D01*
X7813816D01*
Y11714527D01*
X7809830D01*
Y11711869D01*
X7805843D01*
Y11710541D01*
X7801857D01*
Y11707883D01*
X7796542D01*
Y11706554D01*
X7791226D01*
Y11705226D01*
X7789898D01*
Y11703897D01*
X7784583D01*
Y11701239D01*
X7777939D01*
Y11699910D01*
X7768637D01*
Y11698581D01*
X7767308D01*
Y11697253D01*
X7742061D01*
Y11698581D01*
X7740732D01*
Y11699910D01*
X7735417D01*
Y11701239D01*
X7730102D01*
Y11703897D01*
X7726116D01*
Y11706554D01*
X7724787D01*
Y11707883D01*
X7722129D01*
Y11709212D01*
X7720800D01*
Y11711869D01*
X7718143D01*
Y11714527D01*
X7715485D01*
Y11722500D01*
X7714157D01*
Y11729144D01*
X7715485D01*
Y11738445D01*
X7718143D01*
Y11742432D01*
X7719471D01*
Y11743761D01*
X7720800D01*
Y11746418D01*
X7722129D01*
Y11749076D01*
X7723458D01*
Y11750404D01*
X7724787D01*
Y11753062D01*
X7726116D01*
Y11754391D01*
X7727444D01*
Y11755720D01*
X7728773D01*
Y11757048D01*
X7731431D01*
Y11759706D01*
X7732759D01*
Y11761035D01*
X7735417D01*
Y11763693D01*
X7736746D01*
Y11766350D01*
X7739404D01*
Y11767679D01*
X7742061D01*
Y11770336D01*
X7743390D01*
Y11771665D01*
X7747376D01*
Y11774323D01*
X7750034D01*
Y11776981D01*
X7752691D01*
Y11778309D01*
X7754020D01*
Y11780967D01*
X7758007D01*
Y11782296D01*
X7760664D01*
Y11784953D01*
X7763322D01*
Y11787611D01*
X7767308D01*
Y11788940D01*
X7768637D01*
Y11791597D01*
X7772624D01*
Y11792926D01*
X7775281D01*
Y11795583D01*
X7777939D01*
Y11798241D01*
X7781925D01*
Y11799570D01*
X7784583D01*
Y11802228D01*
X7788569D01*
Y11803556D01*
X7789898D01*
Y11804885D01*
X7792555D01*
Y11806214D01*
X7795213D01*
Y11808871D01*
X7799199D01*
Y11810200D01*
X7800528D01*
Y11812858D01*
X7805843D01*
Y11814187D01*
X7807172D01*
Y11815516D01*
X7808501D01*
Y11816844D01*
X7811159D01*
Y11819502D01*
X7816474D01*
Y11820831D01*
X7819131D01*
Y11822159D01*
X7820460D01*
Y11823488D01*
X7821789D01*
Y11824817D01*
X7825775D01*
Y11826146D01*
X7827104D01*
Y11827475D01*
X7831091D01*
Y11830132D01*
X7833748D01*
Y11831461D01*
X7837734D01*
Y11834119D01*
X7841721D01*
Y11835447D01*
X7845707D01*
Y11838105D01*
X7849694D01*
Y11840763D01*
X7853680D01*
Y11842091D01*
X7856338D01*
Y11844749D01*
X7860324D01*
Y11846078D01*
X7864310D01*
Y11847407D01*
X7865639D01*
Y11848736D01*
X7869626D01*
Y11851393D01*
X7873612D01*
Y11852722D01*
X7877598D01*
Y11855379D01*
X7881585D01*
Y11856708D01*
X7885571D01*
Y11858037D01*
X7886900D01*
Y11859366D01*
X7890886D01*
Y11862024D01*
X7894873D01*
Y11863352D01*
X7898859D01*
Y11866010D01*
X7905503D01*
Y11867338D01*
X7908161D01*
Y11868667D01*
X7909489D01*
Y11869996D01*
X7913476D01*
Y11872654D01*
X7918791D01*
Y11873983D01*
X7922777D01*
Y11876640D01*
X7928093D01*
Y11877969D01*
X7932079D01*
Y11879298D01*
X7933408D01*
Y11880626D01*
X7937394D01*
Y11883284D01*
X7944038D01*
Y11884613D01*
X7948024D01*
Y11887271D01*
X7953340D01*
Y11888599D01*
X7957326D01*
Y11889928D01*
X7958655D01*
Y11891257D01*
X7963970D01*
Y11892586D01*
X7965299D01*
Y11893914D01*
X7969285D01*
Y11895243D01*
X7975929D01*
Y11897901D01*
X7981244D01*
Y11899230D01*
X7985231D01*
Y11900558D01*
X7986560D01*
Y11901887D01*
X7993204D01*
Y11904545D01*
X7999848D01*
Y11905874D01*
X8005163D01*
Y11908531D01*
X8010478D01*
Y11909860D01*
X8011807D01*
Y11911189D01*
X8014464D01*
Y11912518D01*
X8018451D01*
Y11915175D01*
X8019779D01*
Y11916504D01*
X8022437D01*
Y11923148D01*
X8015793D01*
Y11921819D01*
X8013136D01*
Y11920491D01*
X8009149D01*
Y11919162D01*
X8003834D01*
Y11916504D01*
X7997190D01*
Y11915175D01*
X7991875D01*
Y11913846D01*
X7990546D01*
Y11912518D01*
X7986560D01*
Y11909860D01*
X7979916D01*
Y11908531D01*
X7974601D01*
Y11905874D01*
X7969285D01*
Y11904545D01*
X7963970D01*
Y11903216D01*
X7962641D01*
Y11901887D01*
X7958655D01*
Y11899230D01*
X7952011D01*
Y11897901D01*
X7948024D01*
Y11896572D01*
X7946696D01*
Y11895243D01*
X7941381D01*
Y11893914D01*
X7936065D01*
Y11891257D01*
X7929422D01*
Y11888599D01*
X7924106D01*
Y11887271D01*
X7918791D01*
Y11885942D01*
X7917462D01*
Y11884613D01*
X7909489D01*
Y11883284D01*
X7904174D01*
Y11881955D01*
X7902846D01*
Y11880626D01*
X7894873D01*
Y11877969D01*
X7866968D01*
Y11880626D01*
X7860324D01*
Y11883284D01*
X7856338D01*
Y11884613D01*
X7852351D01*
Y11887271D01*
X7849694D01*
Y11892586D01*
X7848365D01*
Y11897901D01*
X7837734D01*
Y11895243D01*
X7833748D01*
Y11893914D01*
X7831091D01*
Y11891257D01*
X7827104D01*
Y11888599D01*
X7824446D01*
Y11887271D01*
X7819131D01*
Y11885942D01*
X7817803D01*
Y11884613D01*
X7799199D01*
Y11897901D01*
X7800528D01*
Y11904545D01*
X7803186D01*
Y11911189D01*
X7805843D01*
Y11916504D01*
X7807172D01*
Y11923148D01*
X7808501D01*
Y11924477D01*
X7809830D01*
Y11931121D01*
X7805843D01*
Y11929792D01*
X7801857D01*
Y11927134D01*
X7799199D01*
Y11925806D01*
X7796542D01*
Y11923148D01*
X7795213D01*
Y11920491D01*
X7792555D01*
Y11919162D01*
X7791226D01*
Y11917833D01*
X7789898D01*
Y11916504D01*
X7788569D01*
Y11915175D01*
X7785912D01*
Y11912518D01*
X7784583D01*
Y11909860D01*
X7781925D01*
Y11908531D01*
X7777939D01*
Y11905874D01*
X7775281D01*
Y11904545D01*
X7773952D01*
Y11901887D01*
X7769966D01*
Y11899230D01*
X7767308D01*
Y11897901D01*
X7763322D01*
Y11895243D01*
X7760664D01*
Y11893914D01*
X7756678D01*
Y11891257D01*
X7752691D01*
Y11888599D01*
X7747376D01*
Y11887271D01*
X7724787D01*
Y11888599D01*
X7722129D01*
Y11891257D01*
X7724787D01*
Y11895243D01*
X7726116D01*
Y11899230D01*
X7727444D01*
Y11900558D01*
X7728773D01*
Y11904545D01*
X7731431D01*
Y11908531D01*
X7732759D01*
Y11911189D01*
X7735417D01*
Y11915175D01*
X7736746D01*
Y11919162D01*
X7739404D01*
Y11923148D01*
X7742061D01*
Y11927134D01*
X7743390D01*
Y11929792D01*
X7744719D01*
Y11931121D01*
X7746048D01*
Y11933779D01*
X7747376D01*
Y11939093D01*
X7750034D01*
Y11947066D01*
X7743390D01*
Y11944409D01*
X7739404D01*
Y11943080D01*
X7738075D01*
Y11941751D01*
X7736746D01*
Y11940422D01*
X7734088D01*
Y11939093D01*
X7732759D01*
Y11937765D01*
X7731431D01*
Y11936436D01*
X7728773D01*
Y11933779D01*
X7724787D01*
Y11932450D01*
X7723458D01*
Y11931121D01*
X7722129D01*
Y11929792D01*
X7720800D01*
Y11928463D01*
X7718143D01*
Y11927134D01*
X7715485D01*
Y11925806D01*
X7714157D01*
Y11923148D01*
X7711499D01*
Y11920491D01*
X7707512D01*
Y11919162D01*
X7704855D01*
Y11916504D01*
X7703526D01*
Y11915175D01*
X7699540D01*
Y11912518D01*
X7696882D01*
Y11909860D01*
X7692896D01*
Y11908531D01*
X7690238D01*
Y11905874D01*
X7688909D01*
Y11904545D01*
X7684923D01*
Y11903216D01*
X7683594D01*
Y11901887D01*
X7682265D01*
Y11899230D01*
X7679608D01*
Y11897901D01*
X7675621D01*
Y11895243D01*
X7672964D01*
Y11893914D01*
X7671635D01*
Y11892586D01*
X7668977D01*
Y11891257D01*
X7667649D01*
Y11888599D01*
X7664991D01*
Y11887271D01*
X7661004D01*
Y11884613D01*
X7658347D01*
Y11883284D01*
X7654361D01*
Y11880626D01*
X7651703D01*
Y11877969D01*
X7647716D01*
Y11876640D01*
X7646388D01*
Y11875311D01*
X7645059D01*
Y11873983D01*
X7641073D01*
Y11872654D01*
X7639744D01*
Y11871325D01*
X7638415D01*
Y11869996D01*
X7634429D01*
Y11867338D01*
X7629114D01*
Y11866010D01*
X7622469D01*
Y11863352D01*
X7598551D01*
Y11866010D01*
X7595894D01*
Y11867338D01*
X7591907D01*
Y11869996D01*
X7590578D01*
Y11873983D01*
X7587921D01*
Y11877969D01*
X7586592D01*
Y11885942D01*
X7585263D01*
Y11888599D01*
X7583934D01*
Y11895243D01*
X7575961D01*
Y11893914D01*
X7571975D01*
Y11892586D01*
X7570647D01*
Y11891257D01*
X7569318D01*
Y11888599D01*
X7565331D01*
Y11887271D01*
X7562674D01*
Y11885942D01*
X7561345D01*
Y11884613D01*
X7558687D01*
Y11883284D01*
X7554701D01*
Y11880626D01*
X7552043D01*
Y11877969D01*
X7548057D01*
Y11876640D01*
X7544071D01*
Y11873983D01*
X7538755D01*
Y11872654D01*
X7534769D01*
Y11869996D01*
X7530782D01*
Y11867338D01*
X7526796D01*
Y11866010D01*
X7522810D01*
Y11863352D01*
X7517494D01*
Y11862024D01*
X7513508D01*
Y11859366D01*
X7508193D01*
Y11856708D01*
X7502878D01*
Y11855379D01*
X7497563D01*
Y11854051D01*
X7496234D01*
Y11852722D01*
X7490919D01*
Y11851393D01*
X7468329D01*
Y11852722D01*
X7463014D01*
Y11855379D01*
X7460356D01*
Y11856708D01*
X7456370D01*
Y11859366D01*
X7453712D01*
Y11862024D01*
X7452384D01*
Y11863352D01*
X7451055D01*
Y11866010D01*
X7449726D01*
Y11867338D01*
X7447068D01*
Y11872654D01*
X7445739D01*
Y11881955D01*
X7444411D01*
Y11883284D01*
X7443082D01*
Y11893914D01*
X7437767D01*
Y11892586D01*
X7436438D01*
Y11891257D01*
X7435109D01*
Y11888599D01*
X7432451D01*
Y11887271D01*
X7431123D01*
Y11884613D01*
X7428465D01*
Y11880626D01*
X7425808D01*
Y11877969D01*
X7424479D01*
Y11876640D01*
X7421821D01*
Y11872654D01*
X7420492D01*
Y11869996D01*
X7417835D01*
Y11867338D01*
X7415177D01*
Y11866010D01*
X7413849D01*
Y11863352D01*
X7411191D01*
Y11862024D01*
X7409862D01*
Y11859366D01*
X7407204D01*
Y11856708D01*
X7403218D01*
Y11855379D01*
X7400561D01*
Y11854051D01*
X7399232D01*
Y11852722D01*
X7395245D01*
Y11851393D01*
X7389930D01*
Y11850064D01*
X7388601D01*
Y11848736D01*
X7369998D01*
Y11850064D01*
X7368669D01*
Y11851393D01*
X7366012D01*
Y11852722D01*
X7364683D01*
Y11855379D01*
X7362025D01*
Y11866010D01*
X7360696D01*
Y11877969D01*
X7351395D01*
Y11876640D01*
X7347409D01*
Y11873983D01*
X7346080D01*
Y11872654D01*
X7342094D01*
Y11871325D01*
X7340765D01*
Y11869996D01*
X7339436D01*
Y11867338D01*
X7335449D01*
Y11866010D01*
X7332792D01*
Y11863352D01*
X7328806D01*
Y11862024D01*
X7324819D01*
Y11859366D01*
X7319504D01*
Y11856708D01*
X7315517D01*
Y11855379D01*
X7311531D01*
Y11852722D01*
X7307545D01*
Y11851393D01*
X7303558D01*
Y11850064D01*
X7302229D01*
Y11848736D01*
X7295586D01*
Y11847407D01*
X7294257D01*
Y11846078D01*
X7265023D01*
Y11847407D01*
X7263694D01*
Y11848736D01*
X7259708D01*
Y11850064D01*
X7258379D01*
Y11851393D01*
X7255722D01*
Y11852722D01*
X7254393D01*
Y11856708D01*
X7251735D01*
Y11863352D01*
X7249078D01*
Y11872654D01*
X7241105D01*
Y11871325D01*
X7239776D01*
Y11869996D01*
X7234461D01*
Y11867338D01*
X7227817D01*
Y11866010D01*
X7222502D01*
Y11863352D01*
X7215858D01*
Y11862024D01*
X7209214D01*
Y11859366D01*
X7202570D01*
Y11856708D01*
X7194597D01*
Y11855379D01*
X7185296D01*
Y11852722D01*
X7174665D01*
Y11851393D01*
X7156062D01*
Y11850064D01*
X7153404D01*
Y11848736D01*
X7142774D01*
Y11842091D01*
X7146760D01*
Y11840763D01*
X7149418D01*
Y11838105D01*
X7153404D01*
Y11835447D01*
X7157391D01*
Y11834119D01*
X7160048D01*
Y11831461D01*
X7164035D01*
Y11830132D01*
X7168021D01*
Y11827475D01*
X7172007D01*
Y11826146D01*
X7173336D01*
Y11824817D01*
X7174665D01*
Y11823488D01*
X7178651D01*
Y11822159D01*
X7179980D01*
Y11820831D01*
X7183967D01*
Y11819502D01*
X7185296D01*
Y11816844D01*
X7190611D01*
Y11814187D01*
X7194597D01*
Y11812858D01*
X7195926D01*
Y11810200D01*
X7201241D01*
Y11808871D01*
X7202570D01*
Y11806214D01*
X7206556D01*
Y11803556D01*
X7211872D01*
Y11802228D01*
X7213200D01*
Y11799570D01*
X7217186D01*
Y11798241D01*
X7219844D01*
Y11795583D01*
X7223831D01*
Y11792926D01*
X7226488D01*
Y11791597D01*
X7230474D01*
Y11788940D01*
X7233132D01*
Y11787611D01*
X7237119D01*
Y11784953D01*
X7239776D01*
Y11783624D01*
X7241105D01*
Y11782296D01*
X7243762D01*
Y11780967D01*
X7245091D01*
Y11779638D01*
X7246420D01*
Y11778309D01*
X7249078D01*
Y11776981D01*
X7251735D01*
Y11774323D01*
X7255722D01*
Y11771665D01*
X7258379D01*
Y11770336D01*
X7262366D01*
Y11767679D01*
X7265023D01*
Y11766350D01*
X7269010D01*
Y11763693D01*
X7270339D01*
Y11762364D01*
X7271667D01*
Y11761035D01*
X7275654D01*
Y11759706D01*
X7276982D01*
Y11757048D01*
X7280969D01*
Y11755720D01*
X7282298D01*
Y11754391D01*
X7283627D01*
Y11753062D01*
X7286284D01*
Y11750404D01*
X7290270D01*
Y11749076D01*
X7291599D01*
Y11746418D01*
X7294257D01*
Y11745089D01*
X7296914D01*
Y11743761D01*
X7298243D01*
Y11742432D01*
X7300901D01*
Y11739774D01*
X7303558D01*
Y11738445D01*
X7304887D01*
Y11737116D01*
X7307545D01*
Y11735788D01*
X7308874D01*
Y11733130D01*
X7307545D01*
Y11729144D01*
X7304887D01*
Y11727815D01*
X7300901D01*
Y11725157D01*
X7296914D01*
Y11722500D01*
X7291599D01*
Y11721171D01*
X7279640D01*
Y11722500D01*
X7272996D01*
Y11725157D01*
X7269010D01*
Y11727815D01*
X7266352D01*
Y11729144D01*
X7262366D01*
Y11731801D01*
X7258379D01*
Y11733130D01*
X7255722D01*
Y11735788D01*
X7251735D01*
Y11738445D01*
X7249078D01*
Y11739774D01*
X7245091D01*
Y11742432D01*
X7243762D01*
Y11743761D01*
X7238447D01*
Y11746418D01*
X7237119D01*
Y11749076D01*
X7233132D01*
Y11750404D01*
X7230474D01*
Y11753062D01*
X7227817D01*
Y11754391D01*
X7223831D01*
Y11757048D01*
X7221173D01*
Y11758377D01*
X7219844D01*
Y11759706D01*
X7217186D01*
Y11761035D01*
X7215858D01*
Y11762364D01*
X7214529D01*
Y11763693D01*
X7210543D01*
Y11765021D01*
X7209214D01*
Y11766350D01*
X7207885D01*
Y11767679D01*
X7205227D01*
Y11770336D01*
X7201241D01*
Y11771665D01*
X7198584D01*
Y11774323D01*
X7194597D01*
Y11775652D01*
X7193268D01*
Y11776981D01*
X7191939D01*
Y11778309D01*
X7187953D01*
Y11780967D01*
X7185296D01*
Y11782296D01*
X7181309D01*
Y11784953D01*
X7178651D01*
Y11786282D01*
X7177323D01*
Y11787611D01*
X7174665D01*
Y11788940D01*
X7170679D01*
Y11791597D01*
X7168021D01*
Y11792926D01*
X7164035D01*
Y11795583D01*
X7162706D01*
Y11796912D01*
X7160048D01*
Y11798241D01*
X7157391D01*
Y11799570D01*
X7153404D01*
Y11802228D01*
X7152076D01*
Y11803556D01*
X7146760D01*
Y11806214D01*
X7142774D01*
Y11808871D01*
X7140117D01*
Y11810200D01*
X7136130D01*
Y11812858D01*
X7132144D01*
Y11814187D01*
X7128157D01*
Y11816844D01*
X7125500D01*
Y11818173D01*
X7124171D01*
Y11819502D01*
X7121513D01*
Y11820831D01*
X7117527D01*
Y11823488D01*
X7113541D01*
Y11824817D01*
X7109554D01*
Y11827475D01*
X7104239D01*
Y11830132D01*
X7100253D01*
Y11831461D01*
X7096266D01*
Y11834119D01*
X7092280D01*
Y11835447D01*
X7088293D01*
Y11838105D01*
X7082978D01*
Y11840763D01*
X7078992D01*
Y11842091D01*
X7075005D01*
Y11844749D01*
X7069690D01*
Y11846078D01*
X7064375D01*
Y11848736D01*
X7060389D01*
Y11850064D01*
X7057731D01*
Y11851393D01*
X7053745D01*
Y11852722D01*
X7047101D01*
Y11855379D01*
X7043114D01*
Y11856708D01*
X7036470D01*
Y11859366D01*
X7029826D01*
Y11862024D01*
X7023182D01*
Y11863352D01*
X7016538D01*
Y11866010D01*
X7008566D01*
Y11867338D01*
X7001921D01*
Y11869996D01*
X6993949D01*
Y11872654D01*
X6987305D01*
Y11873983D01*
X6978003D01*
Y11875311D01*
X6976674D01*
Y11876640D01*
X6967373D01*
Y11877969D01*
X6943454D01*
Y11876640D01*
X6940797D01*
Y11873983D01*
X6936811D01*
Y11872654D01*
X6934153D01*
Y11869996D01*
X6932824D01*
Y11867338D01*
X6930166D01*
Y11866010D01*
X6927509D01*
Y11863352D01*
X6926180D01*
Y11862024D01*
X6923523D01*
Y11860695D01*
X6922194D01*
Y11859366D01*
X6919536D01*
Y11856708D01*
X6916879D01*
Y11855379D01*
X6915550D01*
Y11852722D01*
X6912892D01*
Y11851393D01*
X6911564D01*
Y11848736D01*
X6908906D01*
Y11846078D01*
X6906248D01*
Y11844749D01*
X6904919D01*
Y11842091D01*
X6902262D01*
Y11840763D01*
X6900933D01*
Y11838105D01*
X6898276D01*
Y11835447D01*
X6894289D01*
Y11834119D01*
X6891631D01*
Y11831461D01*
X6890303D01*
Y11830132D01*
X6887645D01*
Y11827475D01*
X6882330D01*
Y11824817D01*
X6859740D01*
Y11826146D01*
X6858411D01*
Y11827475D01*
X6854425D01*
Y11840763D01*
X6855754D01*
Y11842091D01*
X6857083D01*
Y11844749D01*
X6859740D01*
Y11846078D01*
X6862398D01*
Y11848736D01*
X6863727D01*
Y11851393D01*
X6866384D01*
Y11852722D01*
X6867713D01*
Y11855379D01*
X6870371D01*
Y11856708D01*
X6873028D01*
Y11859366D01*
X6874357D01*
Y11862024D01*
X6877015D01*
Y11863352D01*
X6878344D01*
Y11864681D01*
X6881001D01*
Y11866010D01*
X6882330D01*
Y11867338D01*
X6883659D01*
Y11868667D01*
X6884987D01*
Y11869996D01*
X6887645D01*
Y11872654D01*
X6888974D01*
Y11873983D01*
X6891631D01*
Y11876640D01*
X6894289D01*
Y11877969D01*
X6895618D01*
Y11880626D01*
X6898276D01*
Y11883284D01*
X6899604D01*
Y11884613D01*
X6902262D01*
Y11887271D01*
X6904919D01*
Y11888599D01*
X6906248D01*
Y11889928D01*
X6907577D01*
Y11891257D01*
X6910235D01*
Y11893914D01*
X6912892D01*
Y11895243D01*
X6915550D01*
Y11897901D01*
X6916879D01*
Y11899230D01*
X6918207D01*
Y11900558D01*
X6919536D01*
Y11901887D01*
X6922194D01*
Y11904545D01*
X6923523D01*
Y11905874D01*
X6926180D01*
Y11908531D01*
X6930166D01*
Y11911189D01*
X6931495D01*
Y11912518D01*
X6934153D01*
Y11915175D01*
X6936811D01*
Y11916504D01*
X6938139D01*
Y11919162D01*
X6940797D01*
Y11921819D01*
X6943454D01*
Y11923148D01*
X6946112D01*
Y11924477D01*
X6947441D01*
Y11925806D01*
X6948770D01*
Y11927134D01*
X6951427D01*
Y11929792D01*
X6954085D01*
Y11932450D01*
X6955414D01*
Y11933779D01*
X6958071D01*
Y11936436D01*
X6962058D01*
Y11937765D01*
X6963386D01*
Y11939093D01*
X6964715D01*
Y11940422D01*
X6966044D01*
Y11943080D01*
X6968702D01*
Y11944409D01*
X6970031D01*
Y11947066D01*
X6972688D01*
Y11948395D01*
X6975346D01*
Y11949724D01*
X6976674D01*
Y11951053D01*
X6979332D01*
Y11953710D01*
X6980661D01*
Y11955039D01*
X6983319D01*
Y11957697D01*
X6985976D01*
Y11959026D01*
X6988634D01*
Y11960354D01*
X6989962D01*
Y11961683D01*
X6991291D01*
Y11964341D01*
X6993949D01*
Y11965669D01*
X6996607D01*
Y11968327D01*
X6999264D01*
Y11969656D01*
X7001921D01*
Y11972313D01*
X7004579D01*
Y11974971D01*
X7007237D01*
Y11976300D01*
X7009894D01*
Y11977629D01*
X7011223D01*
Y11978957D01*
X7012552D01*
Y11980286D01*
X7015209D01*
Y11982944D01*
X7017867D01*
Y11985601D01*
X7021854D01*
Y11986930D01*
X7023182D01*
Y11989588D01*
X7025840D01*
Y11990917D01*
X7028498D01*
Y11992246D01*
X7029826D01*
Y11993574D01*
X7032484D01*
Y11996232D01*
X7033813D01*
Y11997561D01*
X7036470D01*
Y12000218D01*
X7040457D01*
Y12001547D01*
X7043114D01*
Y12004205D01*
X7044443D01*
Y12006862D01*
X7048429D01*
Y12008191D01*
X7051087D01*
Y12010848D01*
X7053745D01*
Y12012177D01*
X7055074D01*
Y12013506D01*
X7057731D01*
Y12014835D01*
X7060389D01*
Y12017493D01*
X7061717D01*
Y12018821D01*
X7064375D01*
Y12021479D01*
X7068362D01*
Y12022808D01*
X7069690D01*
Y12024136D01*
X7071019D01*
Y12025465D01*
X7072348D01*
Y12028123D01*
X7076334D01*
Y12029452D01*
X7078992D01*
Y12032109D01*
X7081649D01*
Y12033438D01*
X7082978D01*
Y12034767D01*
X7085636D01*
Y12036096D01*
X7088293D01*
Y12038753D01*
X7089622D01*
Y12040082D01*
X7093609D01*
Y12042740D01*
X7096266D01*
Y12044068D01*
X7097595D01*
Y12045397D01*
X7100253D01*
Y12046726D01*
X7102910D01*
Y12049384D01*
X7109554D01*
Y12050713D01*
X7130815D01*
Y12049384D01*
D02*
G37*
G36*
X4529726Y9541030D02*
X4535143D01*
Y9524778D01*
X4518891D01*
Y9535613D01*
X4508056D01*
Y9541030D01*
X4497221D01*
Y9535613D01*
X4486386D01*
Y9524778D01*
X4491804D01*
Y9519360D01*
X4502638D01*
Y9513943D01*
X4524308D01*
Y9508526D01*
X4535143D01*
Y9497691D01*
X4540561D01*
Y9476021D01*
X4535143D01*
Y9465186D01*
X4529726D01*
Y9459768D01*
X4524308D01*
Y9454351D01*
X4518891D01*
Y9448933D01*
X4508056D01*
Y9443516D01*
X4470134D01*
Y9438098D01*
X4459299D01*
Y9454351D01*
X4453881D01*
Y9476021D01*
X4470134D01*
Y9470603D01*
X4475551D01*
Y9465186D01*
X4480969D01*
Y9459768D01*
X4502638D01*
Y9465186D01*
X4508056D01*
Y9476021D01*
X4502638D01*
Y9481438D01*
X4486386D01*
Y9486856D01*
X4470134D01*
Y9492273D01*
X4459299D01*
Y9503108D01*
X4453881D01*
Y9519360D01*
X4459299D01*
Y9530196D01*
X4464716D01*
Y9541030D01*
X4475551D01*
Y9546448D01*
X4480969D01*
Y9551865D01*
X4518891D01*
Y9557283D01*
X4529726D01*
Y9541030D01*
D02*
G37*
G36*
X4443046Y9535613D02*
X4448464D01*
Y9513943D01*
X4443046D01*
Y9503108D01*
X4437629D01*
Y9497691D01*
X4432211D01*
Y9492273D01*
X4421376D01*
Y9503108D01*
X4426794D01*
Y9513943D01*
X4421376D01*
Y9519360D01*
X4415959D01*
Y9530196D01*
X4421376D01*
Y9541030D01*
X4443046D01*
Y9535613D01*
D02*
G37*
G36*
X4296774Y9497691D02*
X4291357D01*
Y9492273D01*
X4285939D01*
Y9481438D01*
Y9476021D01*
Y9421846D01*
X4296774D01*
Y9405593D01*
X4280522D01*
Y9400176D01*
X4248017D01*
Y9394758D01*
X4242599D01*
Y9411011D01*
X4253434D01*
Y9459768D01*
X4248017D01*
Y9448933D01*
X4242599D01*
Y9432681D01*
X4237182D01*
Y9421846D01*
X4231764D01*
Y9405593D01*
X4204677D01*
Y9416428D01*
X4199260D01*
Y9421846D01*
X4193842D01*
Y9432681D01*
X4188424D01*
Y9443516D01*
X4183007D01*
Y9400176D01*
X4193842D01*
Y9383924D01*
X4172172D01*
Y9378506D01*
X4155920D01*
Y9389341D01*
X4161337D01*
Y9394758D01*
X4166755D01*
Y9465186D01*
X4161337D01*
Y9470603D01*
X4155920D01*
Y9481438D01*
X4166755D01*
Y9486856D01*
X4193842D01*
Y9492273D01*
X4199260D01*
Y9486856D01*
X4204677D01*
Y9481438D01*
X4210094D01*
Y9470603D01*
X4215512D01*
Y9459768D01*
X4220929D01*
Y9448933D01*
X4231764D01*
Y9459768D01*
X4237182D01*
Y9470603D01*
X4242599D01*
Y9486856D01*
X4248017D01*
Y9497691D01*
X4253434D01*
Y9503108D01*
X4269687D01*
Y9508526D01*
X4296774D01*
Y9497691D01*
D02*
G37*
G36*
X4139667Y9465186D02*
X4145085D01*
Y9448933D01*
X4139667D01*
Y9443516D01*
X4128832D01*
Y9454351D01*
X4123415D01*
Y9459768D01*
X4101745D01*
Y9454351D01*
X4096327D01*
Y9443516D01*
X4101745D01*
Y9438098D01*
X4123415D01*
Y9432681D01*
X4139667D01*
Y9427263D01*
X4145085D01*
Y9421846D01*
X4150502D01*
Y9400176D01*
X4145085D01*
Y9383924D01*
X4139667D01*
Y9378506D01*
X4134250D01*
Y9373088D01*
X4123415D01*
Y9367671D01*
X4085492D01*
Y9362254D01*
X4074657D01*
Y9356836D01*
X4069240D01*
Y9389341D01*
X4063822D01*
Y9394758D01*
X4069240D01*
Y9400176D01*
X4080075D01*
Y9389341D01*
X4085492D01*
Y9383924D01*
X4117997D01*
Y9400176D01*
X4101745D01*
Y9405593D01*
X4080075D01*
Y9411011D01*
X4074657D01*
Y9416428D01*
X4069240D01*
Y9427263D01*
X4063822D01*
Y9438098D01*
X4069240D01*
Y9454351D01*
X4074657D01*
Y9459768D01*
X4080075D01*
Y9465186D01*
X4085492D01*
Y9470603D01*
X4101745D01*
Y9476021D01*
X4134250D01*
Y9481438D01*
X4139667D01*
Y9465186D01*
D02*
G37*
G36*
X4394289Y9519360D02*
X4399706D01*
Y9513943D01*
X4405124D01*
Y9503108D01*
X4410541D01*
Y9454351D01*
X4405124D01*
Y9443516D01*
X4399706D01*
Y9438098D01*
X4394289D01*
Y9432681D01*
X4388871D01*
Y9427263D01*
X4383454D01*
Y9421846D01*
X4367201D01*
Y9416428D01*
X4323862D01*
Y9421846D01*
X4318444D01*
Y9427263D01*
X4313027D01*
Y9432681D01*
X4307609D01*
Y9443516D01*
Y9448933D01*
Y9454351D01*
X4302192D01*
Y9465186D01*
X4307609D01*
Y9492273D01*
X4313027D01*
Y9497691D01*
X4318444D01*
Y9508526D01*
X4323862D01*
Y9513943D01*
X4334696D01*
Y9519360D01*
X4345532D01*
Y9524778D01*
X4394289D01*
Y9519360D01*
D02*
G37*
G36*
X3933803Y9432681D02*
X3939220D01*
Y9400176D01*
X3922968D01*
Y9405593D01*
X3917550D01*
Y9411011D01*
X3912133D01*
Y9416428D01*
X3890463D01*
Y9411011D01*
X3885046D01*
Y9405593D01*
X3879628D01*
Y9383924D01*
X3874210D01*
Y9373088D01*
X3879628D01*
Y9356836D01*
X3885046D01*
Y9351419D01*
X3890463D01*
Y9346001D01*
X3912133D01*
Y9351419D01*
X3922968D01*
Y9356836D01*
X3928385D01*
Y9367671D01*
X3944638D01*
Y9356836D01*
X3939220D01*
Y9346001D01*
X3933803D01*
Y9340584D01*
X3928385D01*
Y9335166D01*
X3917550D01*
Y9329749D01*
X3906715D01*
Y9324331D01*
X3863376D01*
Y9329749D01*
X3852541D01*
Y9335166D01*
X3847123D01*
Y9351419D01*
X3841706D01*
Y9378506D01*
X3847123D01*
Y9400176D01*
X3852541D01*
Y9405593D01*
X3857958D01*
Y9411011D01*
X3863376D01*
Y9416428D01*
X3868793D01*
Y9421846D01*
X3874210D01*
Y9427263D01*
X3885046D01*
Y9432681D01*
X3922968D01*
Y9438098D01*
X3933803D01*
Y9432681D01*
D02*
G37*
G36*
X3809201Y9400176D02*
X3803783D01*
Y9389341D01*
X3798366D01*
Y9335166D01*
X3803783D01*
Y9308079D01*
X3798366D01*
Y9302661D01*
X3771278D01*
Y9313496D01*
X3765861D01*
Y9318914D01*
X3760443D01*
Y9324331D01*
X3755026D01*
Y9329749D01*
X3749608D01*
Y9335166D01*
X3744191D01*
Y9340584D01*
X3738774D01*
Y9346001D01*
X3733356D01*
Y9351419D01*
X3727938D01*
Y9308079D01*
X3738774D01*
Y9291826D01*
X3722521D01*
Y9286409D01*
X3700851D01*
Y9297244D01*
X3706269D01*
Y9302661D01*
X3711686D01*
Y9373088D01*
X3706269D01*
Y9378506D01*
X3695434D01*
Y9389341D01*
X3711686D01*
Y9394758D01*
X3727938D01*
Y9400176D01*
X3738774D01*
Y9394758D01*
X3744191D01*
Y9389341D01*
X3749608D01*
Y9383924D01*
X3755026D01*
Y9378506D01*
X3760443D01*
Y9373088D01*
X3765861D01*
Y9362254D01*
X3771278D01*
Y9356836D01*
X3776696D01*
Y9351419D01*
X3782113D01*
Y9356836D01*
X3787531D01*
Y9362254D01*
X3782113D01*
Y9389341D01*
X3776696D01*
Y9394758D01*
X3771278D01*
Y9405593D01*
X3792948D01*
Y9411011D01*
X3809201D01*
Y9400176D01*
D02*
G37*
G36*
X4031318Y9448933D02*
X4042152D01*
Y9443516D01*
X4047570D01*
Y9438098D01*
X4052987D01*
Y9427263D01*
X4058405D01*
Y9389341D01*
X4052987D01*
Y9378506D01*
X4047570D01*
Y9367671D01*
X4042152D01*
Y9362254D01*
X4036735D01*
Y9356836D01*
X4025900D01*
Y9351419D01*
X4020482D01*
Y9346001D01*
X3971725D01*
Y9351419D01*
X3960890D01*
Y9356836D01*
X3955473D01*
Y9373088D01*
X3950055D01*
Y9405593D01*
X3955473D01*
Y9421846D01*
X3960890D01*
Y9432681D01*
X3966308D01*
Y9438098D01*
X3971725D01*
Y9443516D01*
X3982560D01*
Y9448933D01*
X3998813D01*
Y9454351D01*
X4031318D01*
Y9448933D01*
D02*
G37*
G36*
X3690016Y9378506D02*
X3695434D01*
Y9367671D01*
X3690016D01*
Y9356836D01*
X3684599D01*
Y9351419D01*
Y9346001D01*
X3679181D01*
Y9340584D01*
X3668346D01*
Y9351419D01*
X3673764D01*
Y9356836D01*
X3668346D01*
Y9362254D01*
X3662929D01*
Y9383924D01*
X3668346D01*
Y9389341D01*
X3690016D01*
Y9378506D01*
D02*
G37*
G36*
X3429977Y9318914D02*
X3435394D01*
Y9297244D01*
X3419142D01*
Y9308079D01*
X3413724D01*
Y9313496D01*
X3402890D01*
Y9318914D01*
X3397472D01*
Y9313496D01*
X3381220D01*
Y9308079D01*
X3375802D01*
Y9291826D01*
X3370385D01*
Y9264739D01*
X3375802D01*
Y9253904D01*
X3381220D01*
Y9248486D01*
X3386637D01*
Y9243069D01*
X3408307D01*
Y9248486D01*
X3413724D01*
Y9253904D01*
X3419142D01*
Y9259321D01*
X3424560D01*
Y9264739D01*
X3440812D01*
Y9259321D01*
X3435394D01*
Y9248486D01*
X3429977D01*
Y9237651D01*
X3424560D01*
Y9232234D01*
X3413724D01*
Y9226816D01*
X3402890D01*
Y9221399D01*
X3359550D01*
Y9226816D01*
X3348715D01*
Y9232234D01*
X3343297D01*
Y9243069D01*
X3337880D01*
Y9286409D01*
X3343297D01*
Y9297244D01*
Y9302661D01*
X3348715D01*
Y9308079D01*
X3354132D01*
Y9313496D01*
X3359550D01*
Y9318914D01*
X3370385D01*
Y9324331D01*
X3381220D01*
Y9329749D01*
X3419142D01*
Y9335166D01*
X3429977D01*
Y9318914D01*
D02*
G37*
G36*
X3646676Y9367671D02*
X3652094D01*
Y9362254D01*
X3657511D01*
Y9329749D01*
X3652094D01*
Y9324331D01*
X3646676D01*
Y9318914D01*
X3641259D01*
Y9313496D01*
X3635841D01*
Y9308079D01*
X3625006D01*
Y9302661D01*
X3603336D01*
Y9297244D01*
X3597919D01*
Y9291826D01*
X3603336D01*
Y9280991D01*
X3614171D01*
Y9270156D01*
X3608754D01*
Y9264739D01*
X3581666D01*
Y9259321D01*
X3559996D01*
Y9270156D01*
X3565414D01*
Y9280991D01*
X3570832D01*
Y9318914D01*
X3565414D01*
Y9346001D01*
X3559996D01*
Y9351419D01*
X3554579D01*
Y9356836D01*
X3559996D01*
Y9362254D01*
X3576249D01*
Y9367671D01*
X3603336D01*
Y9373088D01*
X3646676D01*
Y9367671D01*
D02*
G37*
G36*
X3511239Y9346001D02*
X3516657D01*
Y9335166D01*
X3522074D01*
Y9324331D01*
X3527492D01*
Y9313496D01*
X3532909D01*
Y9297244D01*
X3538327D01*
Y9280991D01*
X3543744D01*
Y9270156D01*
X3554579D01*
Y9259321D01*
X3549162D01*
Y9253904D01*
X3527492D01*
Y9248486D01*
X3500404D01*
Y9259321D01*
X3505822D01*
Y9264739D01*
X3511239D01*
Y9270156D01*
X3505822D01*
Y9275574D01*
X3500404D01*
Y9270156D01*
X3478734D01*
Y9264739D01*
X3467899D01*
Y9253904D01*
X3478734D01*
Y9248486D01*
Y9243069D01*
X3473317D01*
Y9237651D01*
X3451647D01*
Y9232234D01*
X3440812D01*
Y9248486D01*
X3451647D01*
Y9264739D01*
X3457064D01*
Y9275574D01*
X3462482D01*
Y9291826D01*
X3467899D01*
Y9313496D01*
X3473317D01*
Y9329749D01*
X3478734D01*
Y9340584D01*
X3484152D01*
Y9346001D01*
X3500404D01*
Y9351419D01*
X3511239D01*
Y9346001D01*
D02*
G37*
G36*
X4871027Y9622293D02*
X4881862D01*
Y9616875D01*
X4887280D01*
Y9611458D01*
X4892697D01*
Y9606040D01*
X4898115D01*
Y9600623D01*
X4903532D01*
Y9595205D01*
X4908950D01*
Y9578953D01*
X4914367D01*
Y9562700D01*
X4919785D01*
Y9524778D01*
X4925202D01*
Y9503108D01*
X4930620D01*
Y9481438D01*
X4936037D01*
Y9459768D01*
X4941455D01*
Y9438098D01*
X4946872D01*
Y9411011D01*
X4952290D01*
Y9394758D01*
X4957707D01*
Y9373088D01*
X4963124D01*
Y9367671D01*
Y9362254D01*
Y9346001D01*
X4968542D01*
Y9324331D01*
X4973960D01*
Y9308079D01*
X4979377D01*
Y9297244D01*
X4990212D01*
Y9302661D01*
X5001047D01*
Y9308079D01*
X5011882D01*
Y9313496D01*
X5017299D01*
Y9318914D01*
X5038969D01*
Y9324331D01*
X5076892D01*
Y9318914D01*
X5087727D01*
Y9313496D01*
X5093144D01*
Y9308079D01*
X5098562D01*
Y9302661D01*
X5103979D01*
Y9297244D01*
X5109396D01*
Y9280991D01*
X5114814D01*
Y9264739D01*
X5120232D01*
Y9237651D01*
X5114814D01*
Y9221399D01*
X5109396D01*
Y9210564D01*
X5103979D01*
Y9205146D01*
X5098562D01*
Y9199729D01*
X5093144D01*
Y9194312D01*
X5087727D01*
Y9188894D01*
X5082309D01*
Y9183477D01*
X5071474D01*
Y9178059D01*
X5049804D01*
Y9172642D01*
X5033552D01*
Y9178059D01*
X5028134D01*
Y9172642D01*
X5017299D01*
Y9167224D01*
X5011882D01*
Y9150972D01*
X5017299D01*
Y9129302D01*
X5022717D01*
Y9113049D01*
X5028134D01*
Y9096797D01*
X5033552D01*
Y9075127D01*
X5038969D01*
Y9064292D01*
X5044387D01*
Y9042622D01*
X5049804D01*
Y9020952D01*
X5055222D01*
Y9010117D01*
X5060639D01*
Y8988447D01*
X5066057D01*
Y8972195D01*
X5071474D01*
Y8955942D01*
X5076892D01*
Y8939690D01*
X5082309D01*
Y8934272D01*
X5087727D01*
Y8928855D01*
X5093144D01*
Y8923438D01*
X5098562D01*
Y8912602D01*
X5103979D01*
Y8896350D01*
X5109396D01*
Y8858428D01*
X5103979D01*
Y8847593D01*
X5098562D01*
Y8842175D01*
X5093144D01*
Y8831340D01*
X5087727D01*
Y8825923D01*
X5082309D01*
Y8820505D01*
X5076892D01*
Y8815088D01*
X5066057D01*
Y8809670D01*
X5049804D01*
Y8804253D01*
X5028134D01*
Y8798835D01*
X5006464D01*
Y8804253D01*
X4990212D01*
Y8809670D01*
X4979377D01*
Y8815088D01*
X4973960D01*
Y8820505D01*
X4968542D01*
Y8825923D01*
X4963124D01*
Y8831340D01*
X4957707D01*
Y8842175D01*
X4952290D01*
Y8880098D01*
X4946872D01*
Y8896350D01*
X4941455D01*
Y8918020D01*
X4936037D01*
Y8934272D01*
X4930620D01*
Y8945107D01*
X4925202D01*
Y8966777D01*
X4919785D01*
Y8983030D01*
X4914367D01*
Y8999282D01*
X4908950D01*
Y9015535D01*
X4903532D01*
Y9026370D01*
X4898115D01*
Y9048040D01*
X4892697D01*
Y9064292D01*
X4887280D01*
Y9075127D01*
X4881862D01*
Y9096797D01*
X4876445D01*
Y9102214D01*
X4860192D01*
Y9096797D01*
X4849357D01*
Y9091379D01*
X4838522D01*
Y9085962D01*
X4827687D01*
Y9080544D01*
X4816852D01*
Y9075127D01*
X4800600D01*
Y9069710D01*
X4795182D01*
Y9064292D01*
X4778930D01*
Y9058874D01*
X4768095D01*
Y9053457D01*
X4751843D01*
Y9048040D01*
X4741008D01*
Y9042622D01*
X4730173D01*
Y9037205D01*
X4719338D01*
Y9031787D01*
X4708503D01*
Y9026370D01*
X4697668D01*
Y9020952D01*
X4692250D01*
Y9010117D01*
X4686833D01*
Y8999282D01*
X4681415D01*
Y8988447D01*
X4675998D01*
Y8977612D01*
X4670580D01*
Y8966777D01*
X4665163D01*
Y8955942D01*
X4659746D01*
Y8939690D01*
X4654328D01*
Y8923438D01*
X4648910D01*
Y8907185D01*
X4643493D01*
Y8890932D01*
X4638076D01*
Y8858428D01*
X4632658D01*
Y8842175D01*
X4627241D01*
Y8836758D01*
X4621823D01*
Y8831340D01*
X4616406D01*
Y8820505D01*
X4605571D01*
Y8815088D01*
X4600153D01*
Y8809670D01*
X4589318D01*
Y8804253D01*
X4578483D01*
Y8798835D01*
X4535143D01*
Y8804253D01*
X4524308D01*
Y8809670D01*
X4513474D01*
Y8815088D01*
X4508056D01*
Y8820505D01*
X4502638D01*
Y8836758D01*
X4497221D01*
Y8880098D01*
X4502638D01*
Y8901768D01*
X4508056D01*
Y8918020D01*
X4513474D01*
Y8934272D01*
X4518891D01*
Y8950525D01*
X4524308D01*
Y8966777D01*
X4529726D01*
Y8983030D01*
X4535143D01*
Y8999282D01*
X4540561D01*
Y9020952D01*
X4535143D01*
Y9031787D01*
X4529726D01*
Y9048040D01*
X4524308D01*
Y9075127D01*
X4529726D01*
Y9091379D01*
X4535143D01*
Y9102214D01*
X4540561D01*
Y9107632D01*
X4545978D01*
Y9113049D01*
X4551396D01*
Y9118467D01*
X4556813D01*
Y9123884D01*
X4562231D01*
Y9129302D01*
X4567648D01*
Y9134719D01*
X4578483D01*
Y9140137D01*
X4583901D01*
Y9145554D01*
X4594736D01*
Y9156389D01*
X4600153D01*
Y9167224D01*
X4605571D01*
Y9183477D01*
X4610988D01*
Y9194312D01*
X4616406D01*
Y9205146D01*
X4621823D01*
Y9221399D01*
X4627241D01*
Y9232234D01*
X4632658D01*
Y9248486D01*
X4638076D01*
Y9259321D01*
X4643493D01*
Y9270156D01*
X4648910D01*
Y9280991D01*
X4654328D01*
Y9297244D01*
X4659746D01*
Y9313496D01*
X4665163D01*
Y9324331D01*
X4670580D01*
Y9335166D01*
X4675998D01*
Y9351419D01*
X4681415D01*
Y9356836D01*
X4686833D01*
Y9373088D01*
X4692250D01*
Y9389341D01*
X4697668D01*
Y9400176D01*
X4703085D01*
Y9411011D01*
X4708503D01*
Y9421846D01*
X4713920D01*
Y9438098D01*
X4719338D01*
Y9448933D01*
X4724755D01*
Y9459768D01*
X4730173D01*
Y9476021D01*
X4735590D01*
Y9486856D01*
X4741008D01*
Y9497691D01*
X4746425D01*
Y9513943D01*
X4751843D01*
Y9530196D01*
X4757260D01*
Y9541030D01*
X4762678D01*
Y9551865D01*
X4768095D01*
Y9562700D01*
X4773513D01*
Y9573535D01*
X4778930D01*
Y9578953D01*
X4784348D01*
Y9589788D01*
X4789765D01*
Y9595205D01*
X4795182D01*
Y9600623D01*
X4800600D01*
Y9606040D01*
X4806018D01*
Y9611458D01*
X4811435D01*
Y9616875D01*
X4822270D01*
Y9622293D01*
X4838522D01*
Y9627710D01*
X4871027D01*
Y9622293D01*
D02*
G37*
G36*
X4280522Y9226816D02*
X4291357D01*
Y9221399D01*
X4302192D01*
Y9210564D01*
X4307609D01*
Y9194312D01*
X4313027D01*
Y9178059D01*
X4307609D01*
Y9167224D01*
X4302192D01*
Y9161807D01*
X4291357D01*
Y9156389D01*
X4264269D01*
Y9161807D01*
X4248017D01*
Y9156389D01*
X4242599D01*
Y9150972D01*
X4237182D01*
Y9145554D01*
X4231764D01*
Y9134719D01*
X4226347D01*
Y9129302D01*
X4220929D01*
Y9123884D01*
X4215512D01*
Y9113049D01*
X4210094D01*
Y9107632D01*
X4204677D01*
Y9096797D01*
X4199260D01*
Y9091379D01*
X4193842D01*
Y9080544D01*
X4188424D01*
Y9075127D01*
X4183007D01*
Y9064292D01*
X4177590D01*
Y9053457D01*
X4172172D01*
Y9042622D01*
X4166755D01*
Y9010117D01*
X4172172D01*
Y9004700D01*
X4177590D01*
Y8999282D01*
X4188424D01*
Y8993865D01*
X4204677D01*
Y8988447D01*
X4226347D01*
Y8983030D01*
X4248017D01*
Y8977612D01*
X4264269D01*
Y8972195D01*
X4275104D01*
Y8966777D01*
X4285939D01*
Y8961360D01*
X4291357D01*
Y8955942D01*
X4296774D01*
Y8950525D01*
X4302192D01*
Y8939690D01*
X4307609D01*
Y8901768D01*
X4302192D01*
Y8890932D01*
X4296774D01*
Y8885515D01*
X4291357D01*
Y8874680D01*
X4285939D01*
Y8869263D01*
X4280522D01*
Y8863845D01*
X4275104D01*
Y8858428D01*
X4269687D01*
Y8853010D01*
X4258852D01*
Y8847593D01*
X4253434D01*
Y8842175D01*
X4248017D01*
Y8836758D01*
X4242599D01*
Y8825923D01*
X4231764D01*
Y8820505D01*
X4226347D01*
Y8815088D01*
X4220929D01*
Y8809670D01*
X4215512D01*
Y8804253D01*
X4204677D01*
Y8798835D01*
X4193842D01*
Y8793418D01*
X4172172D01*
Y8788000D01*
X4166755D01*
Y8793418D01*
X4150502D01*
Y8798835D01*
X4145085D01*
Y8804253D01*
X4139667D01*
Y8815088D01*
Y8820505D01*
X4134250D01*
Y8825923D01*
X4139667D01*
Y8842175D01*
X4145085D01*
Y8853010D01*
X4150502D01*
Y8858428D01*
X4161337D01*
Y8863845D01*
X4166755D01*
Y8869263D01*
X4177590D01*
Y8874680D01*
X4183007D01*
Y8880098D01*
X4193842D01*
Y8885515D01*
X4204677D01*
Y8890932D01*
X4215512D01*
Y8896350D01*
X4226347D01*
Y8901768D01*
X4231764D01*
Y8912602D01*
X4199260D01*
Y8918020D01*
X4172172D01*
Y8923438D01*
X4155920D01*
Y8928855D01*
X4139667D01*
Y8934272D01*
X4128832D01*
Y8939690D01*
X4123415D01*
Y8945107D01*
X4117997D01*
Y8950525D01*
X4112580D01*
Y8955942D01*
X4107162D01*
Y8961360D01*
X4101745D01*
Y8972195D01*
X4096327D01*
Y8993865D01*
X4090910D01*
Y9026370D01*
X4096327D01*
Y9053457D01*
X4101745D01*
Y9069710D01*
X4107162D01*
Y9085962D01*
X4112580D01*
Y9096797D01*
X4117997D01*
Y9107632D01*
X4123415D01*
Y9113049D01*
X4128832D01*
Y9123884D01*
X4134250D01*
Y9129302D01*
X4139667D01*
Y9134719D01*
X4145085D01*
Y9145554D01*
X4150502D01*
Y9150972D01*
X4155920D01*
Y9156389D01*
X4161337D01*
Y9161807D01*
X4166755D01*
Y9172642D01*
X4172172D01*
Y9178059D01*
X4177590D01*
Y9183477D01*
X4183007D01*
Y9188894D01*
X4188424D01*
Y9194312D01*
X4193842D01*
Y9199729D01*
X4199260D01*
Y9205146D01*
X4204677D01*
Y9210564D01*
X4215512D01*
Y9215982D01*
X4220929D01*
Y9221399D01*
X4226347D01*
Y9226816D01*
X4237182D01*
Y9232234D01*
X4280522D01*
Y9226816D01*
D02*
G37*
G36*
X4448464Y9335166D02*
X4453881D01*
Y9324331D01*
X4459299D01*
Y9308079D01*
X4464716D01*
Y9221399D01*
X4459299D01*
Y9188894D01*
X4453881D01*
Y9156389D01*
X4448464D01*
Y9134719D01*
X4443046D01*
Y9107632D01*
X4437629D01*
Y9085962D01*
X4432211D01*
Y8993865D01*
X4426794D01*
Y8977612D01*
X4421376D01*
Y8972195D01*
X4415959D01*
Y8961360D01*
X4405124D01*
Y8955942D01*
X4399706D01*
Y8950525D01*
X4372619D01*
Y8955942D01*
X4367201D01*
Y8961360D01*
X4361784D01*
Y8972195D01*
X4356366D01*
Y9069710D01*
X4361784D01*
Y9123884D01*
X4367201D01*
Y9156389D01*
Y9161807D01*
X4372619D01*
Y9210564D01*
X4378036D01*
Y9259321D01*
X4383454D01*
Y9297244D01*
X4388871D01*
Y9313496D01*
X4394289D01*
Y9324331D01*
X4399706D01*
Y9329749D01*
X4405124D01*
Y9335166D01*
X4410541D01*
Y9340584D01*
X4448464D01*
Y9335166D01*
D02*
G37*
G36*
X5304426Y9687302D02*
X5315261D01*
Y9681885D01*
X5326096D01*
Y9676468D01*
X5331513D01*
Y9671050D01*
X5336931D01*
Y9660215D01*
X5342348D01*
Y9649380D01*
X5347766D01*
Y9578953D01*
X5342348D01*
Y9546448D01*
X5336931D01*
Y9524778D01*
X5331513D01*
Y9503108D01*
X5326096D01*
Y9476021D01*
X5320678D01*
Y9454351D01*
X5315261D01*
Y9427263D01*
X5309843D01*
Y9400176D01*
X5304426D01*
Y9373088D01*
X5299008D01*
Y9335166D01*
X5293591D01*
Y9302661D01*
X5288174D01*
Y9264739D01*
X5282756D01*
Y9259321D01*
Y9253904D01*
Y9221399D01*
X5277338D01*
Y9183477D01*
X5271921D01*
Y9123884D01*
X5266504D01*
Y9020952D01*
X5261086D01*
Y8955942D01*
X5255669D01*
Y8934272D01*
X5250251D01*
Y8923438D01*
X5244834D01*
Y8912602D01*
X5239416D01*
Y8907185D01*
X5233999D01*
Y8901768D01*
X5228581D01*
Y8896350D01*
X5223164D01*
Y8890932D01*
X5217746D01*
Y8885515D01*
X5158154D01*
Y8890932D01*
X5147319D01*
Y8896350D01*
X5141901D01*
Y8901768D01*
X5131066D01*
Y8912602D01*
X5125649D01*
Y8934272D01*
X5120232D01*
Y8983030D01*
X5125649D01*
Y9058874D01*
X5131066D01*
Y9118467D01*
X5136484D01*
Y9178059D01*
X5141901D01*
Y9232234D01*
X5147319D01*
Y9275574D01*
X5152736D01*
Y9324331D01*
X5158154D01*
Y9373088D01*
X5163571D01*
Y9421846D01*
X5168989D01*
Y9448933D01*
X5174406D01*
Y9497691D01*
X5179824D01*
Y9530196D01*
X5185241D01*
Y9562700D01*
X5190659D01*
Y9589788D01*
X5196076D01*
Y9616875D01*
X5201494D01*
Y9633128D01*
X5206911D01*
Y9649380D01*
X5212329D01*
Y9660215D01*
X5217746D01*
Y9671050D01*
X5223164D01*
Y9676468D01*
X5228581D01*
Y9681885D01*
X5239416D01*
Y9687302D01*
X5250251D01*
Y9692720D01*
X5304426D01*
Y9687302D01*
D02*
G37*
G36*
X4405124Y8912602D02*
X4410541D01*
Y8907185D01*
X4415959D01*
Y8890932D01*
X4421376D01*
Y8885515D01*
Y8880098D01*
Y8863845D01*
X4415959D01*
Y8842175D01*
X4410541D01*
Y8836758D01*
X4405124D01*
Y8825923D01*
X4399706D01*
Y8820505D01*
X4388871D01*
Y8815088D01*
X4367201D01*
Y8820505D01*
X4356366D01*
Y8825923D01*
X4350949D01*
Y8831340D01*
X4345532D01*
Y8847593D01*
X4340114D01*
Y8885515D01*
X4345532D01*
Y8901768D01*
X4350949D01*
Y8907185D01*
X4356366D01*
Y8912602D01*
X4361784D01*
Y8918020D01*
X4405124D01*
Y8912602D01*
D02*
G37*
G36*
X5531960Y9573535D02*
X5542795D01*
Y9568118D01*
X5548213D01*
Y9562700D01*
X5553630D01*
Y9557283D01*
X5559048D01*
Y9551865D01*
X5564465D01*
Y9541030D01*
X5569882D01*
Y9508526D01*
X5575300D01*
Y9503108D01*
X5569882D01*
Y9465186D01*
X5564465D01*
Y9438098D01*
X5559048D01*
Y9421846D01*
X5553630D01*
Y9405593D01*
X5548213D01*
Y9389341D01*
X5542795D01*
Y9373088D01*
X5537378D01*
Y9356836D01*
X5531960D01*
Y9340584D01*
X5526543D01*
Y9329749D01*
X5521125D01*
Y9313496D01*
X5515708D01*
Y9297244D01*
X5510290D01*
Y9275574D01*
X5504873D01*
Y9259321D01*
X5499455D01*
Y9243069D01*
X5494038D01*
Y9226816D01*
X5488620D01*
Y9205146D01*
X5483203D01*
Y9188894D01*
X5477785D01*
Y9167224D01*
X5472368D01*
Y9145554D01*
X5466950D01*
Y9123884D01*
X5461533D01*
Y9102214D01*
X5456115D01*
Y9080544D01*
X5450698D01*
Y9058874D01*
X5445280D01*
Y9031787D01*
X5439863D01*
Y9004700D01*
X5434446D01*
Y8966777D01*
X5429028D01*
Y8961360D01*
Y8934272D01*
X5423610D01*
Y8890932D01*
X5418193D01*
Y8863845D01*
X5412776D01*
Y8842175D01*
X5407358D01*
Y8825923D01*
X5401941D01*
Y8815088D01*
X5396523D01*
Y8809670D01*
X5391106D01*
Y8798835D01*
X5385688D01*
Y8793418D01*
X5374853D01*
Y8788000D01*
X5364018D01*
Y8782583D01*
X5342348D01*
Y8777165D01*
X5336931D01*
Y8782583D01*
X5309843D01*
Y8788000D01*
X5299008D01*
Y8793418D01*
X5293591D01*
Y8798835D01*
X5288174D01*
Y8804253D01*
X5282756D01*
Y8815088D01*
X5277338D01*
Y8896350D01*
X5282756D01*
Y8928855D01*
X5288174D01*
Y8955942D01*
X5293591D01*
Y8983030D01*
X5299008D01*
Y9015535D01*
X5304426D01*
Y9037205D01*
X5309843D01*
Y9064292D01*
X5315261D01*
Y9091379D01*
X5320678D01*
Y9113049D01*
X5326096D01*
Y9134719D01*
X5331513D01*
Y9156389D01*
X5336931D01*
Y9183477D01*
X5342348D01*
Y9205146D01*
X5347766D01*
Y9226816D01*
X5353183D01*
Y9253904D01*
X5358601D01*
Y9270156D01*
X5364018D01*
Y9297244D01*
X5369436D01*
Y9324331D01*
X5374853D01*
Y9335166D01*
X5380271D01*
Y9362254D01*
X5385688D01*
Y9383924D01*
X5391106D01*
Y9400176D01*
X5396523D01*
Y9421846D01*
X5401941D01*
Y9443516D01*
X5407358D01*
Y9465186D01*
X5412776D01*
Y9481438D01*
X5418193D01*
Y9497691D01*
X5423610D01*
Y9513943D01*
X5429028D01*
Y9524778D01*
X5434446D01*
Y9541030D01*
X5439863D01*
Y9546448D01*
X5445280D01*
Y9557283D01*
X5450698D01*
Y9562700D01*
X5461533D01*
Y9568118D01*
X5466950D01*
Y9573535D01*
X5477785D01*
Y9578953D01*
X5531960D01*
Y9573535D01*
D02*
G37*
G36*
X3700851Y9075127D02*
X3711686D01*
Y9069710D01*
X3771278D01*
Y9064292D01*
X3792948D01*
Y9058874D01*
X3803783D01*
Y9053457D01*
X3809201D01*
Y9048040D01*
X3814618D01*
Y9042622D01*
X3820036D01*
Y9037205D01*
X3825453D01*
Y9026370D01*
X3830871D01*
Y9020952D01*
X3836288D01*
Y9004700D01*
X3841706D01*
Y8999282D01*
Y8993865D01*
Y8934272D01*
X3836288D01*
Y8918020D01*
X3830871D01*
Y8901768D01*
X3825453D01*
Y8890932D01*
X3820036D01*
Y8880098D01*
X3814618D01*
Y8869263D01*
X3809201D01*
Y8858428D01*
X3803783D01*
Y8847593D01*
X3798366D01*
Y8842175D01*
X3792948D01*
Y8836758D01*
X3787531D01*
Y8825923D01*
X3782113D01*
Y8820505D01*
X3776696D01*
Y8815088D01*
X3771278D01*
Y8809670D01*
X3765861D01*
Y8798835D01*
X3760443D01*
Y8793418D01*
X3755026D01*
Y8788000D01*
X3749608D01*
Y8782583D01*
X3744191D01*
Y8777165D01*
X3738774D01*
Y8771748D01*
X3733356D01*
Y8766330D01*
X3727938D01*
Y8760913D01*
X3722521D01*
Y8755496D01*
X3717104D01*
Y8750078D01*
X3711686D01*
Y8744660D01*
X3706269D01*
Y8739243D01*
X3700851D01*
Y8733826D01*
X3690016D01*
Y8728408D01*
X3684599D01*
Y8722991D01*
X3673764D01*
Y8717573D01*
X3668346D01*
Y8712156D01*
X3662929D01*
Y8706738D01*
X3652094D01*
Y8701321D01*
X3641259D01*
Y8695903D01*
X3635841D01*
Y8690486D01*
X3625006D01*
Y8685068D01*
X3608754D01*
Y8679651D01*
X3592501D01*
Y8674233D01*
X3576249D01*
Y8668816D01*
X3543744D01*
Y8674233D01*
X3532909D01*
Y8679651D01*
X3516657D01*
Y8685068D01*
X3511239D01*
Y8690486D01*
X3505822D01*
Y8695903D01*
X3500404D01*
Y8701321D01*
X3494987D01*
Y8706738D01*
X3489569D01*
Y8717573D01*
X3484152D01*
Y8733826D01*
X3478734D01*
Y8750078D01*
X3473317D01*
Y8798835D01*
X3478734D01*
Y8820505D01*
X3484152D01*
Y8842175D01*
X3489569D01*
Y8858428D01*
X3494987D01*
Y8869263D01*
X3500404D01*
Y8885515D01*
X3505822D01*
Y8896350D01*
X3511239D01*
Y8907185D01*
X3516657D01*
Y8923438D01*
X3522074D01*
Y8928855D01*
X3527492D01*
Y8939690D01*
X3532909D01*
Y8950525D01*
X3538327D01*
Y8961360D01*
X3543744D01*
Y8972195D01*
X3549162D01*
Y8983030D01*
X3554579D01*
Y8988447D01*
X3559996D01*
Y8999282D01*
X3565414D01*
Y9004700D01*
X3570832D01*
Y9010117D01*
X3576249D01*
Y9020952D01*
X3581666D01*
Y9026370D01*
X3587084D01*
Y9031787D01*
X3592501D01*
Y9037205D01*
X3597919D01*
Y9042622D01*
X3603336D01*
Y9048040D01*
X3608754D01*
Y9053457D01*
X3614171D01*
Y9058874D01*
X3619589D01*
Y9064292D01*
X3630424D01*
Y9069710D01*
X3641259D01*
Y9075127D01*
X3652094D01*
Y9080544D01*
X3700851D01*
Y9075127D01*
D02*
G37*
G36*
X3998813Y9226816D02*
X4015065D01*
Y9221399D01*
X4025900D01*
Y9215982D01*
X4036735D01*
Y9210564D01*
X4047570D01*
Y9205146D01*
X4058405D01*
Y9199729D01*
X4063822D01*
Y9194312D01*
X4074657D01*
Y9188894D01*
X4080075D01*
Y9183477D01*
X4085492D01*
Y9172642D01*
X4090910D01*
Y9167224D01*
X4096327D01*
Y9156389D01*
X4101745D01*
Y9134719D01*
X4107162D01*
Y9107632D01*
X4101745D01*
Y9080544D01*
X4096327D01*
Y9069710D01*
X4090910D01*
Y9058874D01*
X4085492D01*
Y9048040D01*
X4080075D01*
Y9042622D01*
X4074657D01*
Y9037205D01*
X4069240D01*
Y9026370D01*
X4063822D01*
Y9020952D01*
X4058405D01*
Y9010117D01*
X4052987D01*
Y9004700D01*
X4047570D01*
Y8999282D01*
X4042152D01*
Y8993865D01*
X4036735D01*
Y8988447D01*
X4031318D01*
Y8983030D01*
X4025900D01*
Y8977612D01*
X4020482D01*
Y8972195D01*
X4015065D01*
Y8966777D01*
X4009648D01*
Y8961360D01*
X4004230D01*
Y8955942D01*
X3998813D01*
Y8950525D01*
X3993395D01*
Y8945107D01*
X3987978D01*
Y8939690D01*
X3982560D01*
Y8934272D01*
X3977143D01*
Y8928855D01*
X3971725D01*
Y8923438D01*
X3966308D01*
Y8918020D01*
X3960890D01*
Y8912602D01*
X3955473D01*
Y8907185D01*
X3944638D01*
Y8901768D01*
X3939220D01*
Y8896350D01*
X3928385D01*
Y8847593D01*
X3922968D01*
Y8842175D01*
Y8685068D01*
X3928385D01*
Y8668816D01*
X3922968D01*
Y8641728D01*
X3917550D01*
Y8636311D01*
X3912133D01*
Y8630893D01*
X3906715D01*
Y8625476D01*
X3874210D01*
Y8630893D01*
X3868793D01*
Y8636311D01*
X3863376D01*
Y8647146D01*
X3857958D01*
Y8874680D01*
X3863376D01*
Y8955942D01*
X3868793D01*
Y9015535D01*
X3874210D01*
Y9058874D01*
X3879628D01*
Y9102214D01*
X3885046D01*
Y9145554D01*
X3879628D01*
Y9150972D01*
X3874210D01*
Y9188894D01*
X3879628D01*
Y9199729D01*
X3885046D01*
Y9205146D01*
X3890463D01*
Y9210564D01*
X3895880D01*
Y9215982D01*
X3906715D01*
Y9221399D01*
X3917550D01*
Y9226816D01*
X3933803D01*
Y9232234D01*
X3998813D01*
Y9226816D01*
D02*
G37*
G36*
X4730173Y8722991D02*
X4751843D01*
Y8717573D01*
X4762678D01*
Y8712156D01*
X4784348D01*
Y8722991D01*
X4816852D01*
Y8674233D01*
X4822270D01*
Y8630893D01*
Y8625476D01*
X4827687D01*
Y8598388D01*
X4811435D01*
Y8592971D01*
X4795182D01*
Y8609224D01*
X4789765D01*
Y8625476D01*
X4784348D01*
Y8636311D01*
X4778930D01*
Y8647146D01*
X4773513D01*
Y8652563D01*
X4768095D01*
Y8657981D01*
X4762678D01*
Y8663398D01*
X4757260D01*
Y8668816D01*
X4746425D01*
Y8674233D01*
X4724755D01*
Y8668816D01*
X4713920D01*
Y8663398D01*
X4703085D01*
Y8652563D01*
X4697668D01*
Y8641728D01*
X4692250D01*
Y8630893D01*
X4686833D01*
Y8598388D01*
X4681415D01*
Y8544214D01*
X4686833D01*
Y8511709D01*
X4692250D01*
Y8490039D01*
X4697668D01*
Y8473786D01*
X4703085D01*
Y8462951D01*
X4708503D01*
Y8457534D01*
X4713920D01*
Y8452116D01*
X4719338D01*
Y8446699D01*
X4724755D01*
Y8441282D01*
X4735590D01*
Y8435864D01*
X4768095D01*
Y8441282D01*
X4778930D01*
Y8446699D01*
X4784348D01*
Y8452116D01*
X4789765D01*
Y8462951D01*
X4795182D01*
Y8468369D01*
X4800600D01*
Y8490039D01*
X4806018D01*
Y8500874D01*
X4816852D01*
Y8495456D01*
X4827687D01*
Y8490039D01*
X4838522D01*
Y8468369D01*
X4833105D01*
Y8452116D01*
X4827687D01*
Y8435864D01*
X4822270D01*
Y8425029D01*
X4816852D01*
Y8414194D01*
X4811435D01*
Y8403359D01*
X4806018D01*
Y8397942D01*
X4800600D01*
Y8392524D01*
X4795182D01*
Y8387107D01*
X4789765D01*
Y8381689D01*
X4778930D01*
Y8376272D01*
X4773513D01*
Y8370854D01*
X4757260D01*
Y8365437D01*
X4735590D01*
Y8360019D01*
X4703085D01*
Y8365437D01*
X4686833D01*
Y8370854D01*
X4670580D01*
Y8376272D01*
X4665163D01*
Y8381689D01*
X4659746D01*
Y8387107D01*
X4654328D01*
Y8392524D01*
X4648910D01*
Y8397942D01*
X4643493D01*
Y8403359D01*
X4638076D01*
Y8408777D01*
X4632658D01*
Y8419612D01*
X4627241D01*
Y8430446D01*
X4621823D01*
Y8446699D01*
X4616406D01*
Y8457534D01*
X4610988D01*
Y8479204D01*
X4605571D01*
Y8533379D01*
X4600153D01*
Y8565884D01*
X4605571D01*
Y8614641D01*
X4610988D01*
Y8636311D01*
X4616406D01*
Y8647146D01*
X4621823D01*
Y8663398D01*
X4627241D01*
Y8668816D01*
X4632658D01*
Y8679651D01*
X4638076D01*
Y8685068D01*
X4643493D01*
Y8690486D01*
X4648910D01*
Y8695903D01*
X4654328D01*
Y8701321D01*
X4659746D01*
Y8706738D01*
X4665163D01*
Y8712156D01*
X4675998D01*
Y8717573D01*
X4686833D01*
Y8722991D01*
X4708503D01*
Y8728408D01*
X4730173D01*
Y8722991D01*
D02*
G37*
G36*
X4567648Y8695903D02*
X4573066D01*
Y8647146D01*
X4578483D01*
Y8592971D01*
X4567648D01*
Y8587554D01*
X4551396D01*
Y8598388D01*
X4545978D01*
Y8609224D01*
X4540561D01*
Y8620058D01*
X4535143D01*
Y8630893D01*
X4529726D01*
Y8636311D01*
X4524308D01*
Y8641728D01*
X4513474D01*
Y8647146D01*
X4480969D01*
Y8641728D01*
X4470134D01*
Y8630893D01*
X4464716D01*
Y8603806D01*
X4470134D01*
Y8549631D01*
X4475551D01*
Y8538796D01*
X4491804D01*
Y8544214D01*
X4497221D01*
Y8549631D01*
X4502638D01*
Y8560466D01*
X4508056D01*
Y8587554D01*
X4524308D01*
Y8592971D01*
X4535143D01*
Y8555049D01*
X4540561D01*
Y8495456D01*
X4545978D01*
Y8452116D01*
X4535143D01*
Y8446699D01*
X4518891D01*
Y8462951D01*
X4513474D01*
Y8479204D01*
X4508056D01*
Y8484621D01*
X4480969D01*
Y8435864D01*
X4486386D01*
Y8392524D01*
X4491804D01*
Y8387107D01*
X4497221D01*
Y8381689D01*
X4518891D01*
Y8387107D01*
X4529726D01*
Y8392524D01*
X4540561D01*
Y8397942D01*
X4545978D01*
Y8408777D01*
X4551396D01*
Y8419612D01*
X4556813D01*
Y8430446D01*
X4562231D01*
Y8446699D01*
X4567648D01*
Y8473786D01*
X4600153D01*
Y8414194D01*
X4594736D01*
Y8349184D01*
X4583901D01*
Y8343767D01*
X4562231D01*
Y8338349D01*
X4535143D01*
Y8332932D01*
X4502638D01*
Y8327514D01*
X4486386D01*
Y8322097D01*
X4453881D01*
Y8316679D01*
X4432211D01*
Y8311262D01*
X4410541D01*
Y8305844D01*
X4388871D01*
Y8322097D01*
X4383454D01*
Y8349184D01*
X4388871D01*
Y8354602D01*
X4394289D01*
Y8360019D01*
X4399706D01*
Y8370854D01*
X4405124D01*
Y8414194D01*
X4399706D01*
Y8479204D01*
X4394289D01*
Y8511709D01*
X4388871D01*
Y8565884D01*
X4383454D01*
Y8609224D01*
X4378036D01*
Y8620058D01*
X4372619D01*
Y8625476D01*
X4367201D01*
Y8630893D01*
X4340114D01*
Y8625476D01*
X4334696D01*
Y8620058D01*
X4329279D01*
Y8603806D01*
X4323862D01*
Y8582136D01*
X4329279D01*
Y8538796D01*
X4334696D01*
Y8490039D01*
X4340114D01*
Y8452116D01*
X4345532D01*
Y8403359D01*
X4350949D01*
Y8365437D01*
X4356366D01*
Y8322097D01*
X4361784D01*
Y8295010D01*
X4345532D01*
Y8289592D01*
X4323862D01*
Y8284174D01*
X4307609D01*
Y8278757D01*
X4302192D01*
Y8284174D01*
X4296774D01*
Y8289592D01*
X4291357D01*
Y8295010D01*
X4285939D01*
Y8305844D01*
X4280522D01*
Y8311262D01*
X4275104D01*
Y8316679D01*
X4269687D01*
Y8322097D01*
X4264269D01*
Y8332932D01*
X4258852D01*
Y8338349D01*
X4253434D01*
Y8343767D01*
X4248017D01*
Y8349184D01*
X4242599D01*
Y8360019D01*
X4237182D01*
Y8365437D01*
X4231764D01*
Y8376272D01*
X4226347D01*
Y8381689D01*
X4220929D01*
Y8387107D01*
X4215512D01*
Y8392524D01*
X4210094D01*
Y8397942D01*
X4204677D01*
Y8408777D01*
X4199260D01*
Y8414194D01*
X4193842D01*
Y8419612D01*
X4188424D01*
Y8430446D01*
X4183007D01*
Y8435864D01*
X4177590D01*
Y8441282D01*
X4172172D01*
Y8446699D01*
X4166755D01*
Y8457534D01*
X4161337D01*
Y8462951D01*
X4155920D01*
Y8468369D01*
X4150502D01*
Y8473786D01*
X4145085D01*
Y8484621D01*
X4139667D01*
Y8490039D01*
X4134250D01*
Y8473786D01*
X4139667D01*
Y8435864D01*
X4145085D01*
Y8397942D01*
X4150502D01*
Y8360019D01*
X4155920D01*
Y8338349D01*
X4161337D01*
Y8316679D01*
X4166755D01*
Y8305844D01*
X4177590D01*
Y8300427D01*
X4193842D01*
Y8273340D01*
X4199260D01*
Y8251670D01*
X4188424D01*
Y8246252D01*
X4166755D01*
Y8240835D01*
X4150502D01*
Y8235417D01*
X4134250D01*
Y8230000D01*
X4117997D01*
Y8224582D01*
X4101745D01*
Y8246252D01*
X4096327D01*
Y8273340D01*
X4101745D01*
Y8278757D01*
X4107162D01*
Y8284174D01*
X4112580D01*
Y8300427D01*
X4117997D01*
Y8327514D01*
X4112580D01*
Y8349184D01*
X4107162D01*
Y8392524D01*
X4101745D01*
Y8430446D01*
X4096327D01*
Y8462951D01*
X4090910D01*
Y8495456D01*
X4085492D01*
Y8527961D01*
X4080075D01*
Y8549631D01*
X4074657D01*
Y8555049D01*
X4069240D01*
Y8565884D01*
X4058405D01*
Y8571301D01*
X4036735D01*
Y8565884D01*
X4031318D01*
Y8560466D01*
X4025900D01*
Y8555049D01*
X4020482D01*
Y8500874D01*
X4025900D01*
Y8462951D01*
X4031318D01*
Y8435864D01*
X4036735D01*
Y8403359D01*
X4042152D01*
Y8376272D01*
X4047570D01*
Y8343767D01*
X4052987D01*
Y8316679D01*
X4058405D01*
Y8284174D01*
X4063822D01*
Y8251670D01*
X4069240D01*
Y8219165D01*
X4074657D01*
Y8213747D01*
X4069240D01*
Y8208330D01*
X4047570D01*
Y8202912D01*
X4036735D01*
Y8197495D01*
X4020482D01*
Y8192077D01*
X4004230D01*
Y8197495D01*
X3998813D01*
Y8202912D01*
X3993395D01*
Y8208330D01*
X3987978D01*
Y8213747D01*
X3982560D01*
Y8224582D01*
X3971725D01*
Y8235417D01*
X3966308D01*
Y8240835D01*
X3960890D01*
Y8246252D01*
X3955473D01*
Y8251670D01*
X3950055D01*
Y8257087D01*
X3944638D01*
Y8262505D01*
X3939220D01*
Y8267922D01*
X3933803D01*
Y8273340D01*
X3928385D01*
Y8284174D01*
X3922968D01*
Y8289592D01*
X3917550D01*
Y8295010D01*
X3912133D01*
Y8300427D01*
X3906715D01*
Y8305844D01*
X3901298D01*
Y8311262D01*
X3895880D01*
Y8316679D01*
X3890463D01*
Y8322097D01*
X3885046D01*
Y8327514D01*
X3879628D01*
Y8332932D01*
X3874210D01*
Y8338349D01*
X3868793D01*
Y8343767D01*
X3863376D01*
Y8349184D01*
X3857958D01*
Y8360019D01*
X3852541D01*
Y8365437D01*
X3847123D01*
Y8370854D01*
X3841706D01*
Y8376272D01*
X3836288D01*
Y8381689D01*
X3830871D01*
Y8387107D01*
X3825453D01*
Y8392524D01*
X3820036D01*
Y8397942D01*
X3814618D01*
Y8387107D01*
X3820036D01*
Y8354602D01*
X3825453D01*
Y8327514D01*
X3830871D01*
Y8305844D01*
X3836288D01*
Y8284174D01*
X3841706D01*
Y8257087D01*
X3847123D01*
Y8230000D01*
X3852541D01*
Y8219165D01*
X3857958D01*
Y8213747D01*
X3863376D01*
Y8208330D01*
X3868793D01*
Y8202912D01*
X3890463D01*
Y8181242D01*
X3895880D01*
Y8148738D01*
X3885046D01*
Y8143320D01*
X3874210D01*
Y8137902D01*
X3857958D01*
Y8132485D01*
X3841706D01*
Y8127068D01*
X3825453D01*
Y8121650D01*
X3814618D01*
Y8116232D01*
X3798366D01*
Y8110815D01*
X3792948D01*
Y8132485D01*
X3787531D01*
Y8154155D01*
X3782113D01*
Y8164990D01*
X3787531D01*
Y8170407D01*
X3792948D01*
Y8175825D01*
X3798366D01*
Y8181242D01*
X3803783D01*
Y8235417D01*
X3798366D01*
Y8257087D01*
X3792948D01*
Y8278757D01*
X3787531D01*
Y8305844D01*
X3782113D01*
Y8322097D01*
X3776696D01*
Y8349184D01*
X3771278D01*
Y8376272D01*
X3765861D01*
Y8392524D01*
X3760443D01*
Y8425029D01*
X3755026D01*
Y8446699D01*
X3749608D01*
Y8457534D01*
X3744191D01*
Y8468369D01*
X3738774D01*
Y8473786D01*
X3727938D01*
Y8479204D01*
X3711686D01*
Y8484621D01*
X3706269D01*
Y8511709D01*
X3700851D01*
Y8533379D01*
X3711686D01*
Y8538796D01*
X3727938D01*
Y8544214D01*
X3744191D01*
Y8549631D01*
X3765861D01*
Y8555049D01*
X3782113D01*
Y8560466D01*
X3803783D01*
Y8565884D01*
X3830871D01*
Y8555049D01*
X3836288D01*
Y8549631D01*
X3841706D01*
Y8544214D01*
X3847123D01*
Y8538796D01*
X3852541D01*
Y8533379D01*
X3857958D01*
Y8527961D01*
X3863376D01*
Y8522544D01*
X3868793D01*
Y8517126D01*
X3874210D01*
Y8511709D01*
X3879628D01*
Y8500874D01*
X3885046D01*
Y8495456D01*
X3890463D01*
Y8490039D01*
X3895880D01*
Y8484621D01*
X3901298D01*
Y8479204D01*
X3906715D01*
Y8468369D01*
X3912133D01*
Y8462951D01*
X3917550D01*
Y8457534D01*
X3922968D01*
Y8452116D01*
X3928385D01*
Y8446699D01*
X3933803D01*
Y8441282D01*
X3939220D01*
Y8435864D01*
X3944638D01*
Y8430446D01*
X3950055D01*
Y8425029D01*
X3955473D01*
Y8414194D01*
X3960890D01*
Y8408777D01*
X3966308D01*
Y8403359D01*
X3971725D01*
Y8397942D01*
X3977143D01*
Y8392524D01*
X3982560D01*
Y8387107D01*
X3987978D01*
Y8381689D01*
X3993395D01*
Y8376272D01*
X3998813D01*
Y8387107D01*
X3993395D01*
Y8414194D01*
X3987978D01*
Y8446699D01*
X3982560D01*
Y8473786D01*
X3977143D01*
Y8506291D01*
X3971725D01*
Y8522544D01*
X3966308D01*
Y8533379D01*
X3960890D01*
Y8538796D01*
X3950055D01*
Y8544214D01*
X3933803D01*
Y8565884D01*
X3928385D01*
Y8598388D01*
X3950055D01*
Y8603806D01*
X3966308D01*
Y8609224D01*
X3987978D01*
Y8614641D01*
X4015065D01*
Y8620058D01*
X4031318D01*
Y8625476D01*
X4058405D01*
Y8630893D01*
X4080075D01*
Y8636311D01*
X4101745D01*
Y8641728D01*
X4134250D01*
Y8647146D01*
X4150502D01*
Y8641728D01*
X4155920D01*
Y8636311D01*
X4161337D01*
Y8630893D01*
X4166755D01*
Y8620058D01*
X4172172D01*
Y8614641D01*
X4177590D01*
Y8609224D01*
X4183007D01*
Y8598388D01*
X4188424D01*
Y8592971D01*
X4193842D01*
Y8587554D01*
X4199260D01*
Y8582136D01*
X4204677D01*
Y8571301D01*
X4210094D01*
Y8565884D01*
X4215512D01*
Y8560466D01*
X4220929D01*
Y8549631D01*
X4226347D01*
Y8544214D01*
X4231764D01*
Y8538796D01*
X4237182D01*
Y8527961D01*
X4242599D01*
Y8522544D01*
X4248017D01*
Y8517126D01*
X4253434D01*
Y8506291D01*
X4258852D01*
Y8500874D01*
X4264269D01*
Y8495456D01*
X4269687D01*
Y8484621D01*
X4275104D01*
Y8479204D01*
X4280522D01*
Y8473786D01*
X4285939D01*
Y8462951D01*
X4291357D01*
Y8457534D01*
X4296774D01*
Y8452116D01*
X4302192D01*
Y8462951D01*
X4296774D01*
Y8506291D01*
X4291357D01*
Y8549631D01*
X4285939D01*
Y8587554D01*
X4280522D01*
Y8598388D01*
X4275104D01*
Y8609224D01*
X4264269D01*
Y8614641D01*
X4253434D01*
Y8620058D01*
X4248017D01*
Y8652563D01*
X4242599D01*
Y8663398D01*
X4253434D01*
Y8668816D01*
X4285939D01*
Y8674233D01*
X4313027D01*
Y8679651D01*
X4350949D01*
Y8685068D01*
X4383454D01*
Y8690486D01*
X4432211D01*
Y8695903D01*
X4475551D01*
Y8701321D01*
X4513474D01*
Y8706738D01*
X4567648D01*
Y8695903D01*
D02*
G37*
G36*
X5542795Y8636311D02*
X5553630D01*
Y8630893D01*
X5564465D01*
Y8625476D01*
X5569882D01*
Y8620058D01*
X5575300D01*
Y8614641D01*
X5580718D01*
Y8620058D01*
X5602387D01*
Y8555049D01*
X5596970D01*
Y8527961D01*
X5580718D01*
Y8533379D01*
X5575300D01*
Y8560466D01*
X5569882D01*
Y8576719D01*
X5564465D01*
Y8587554D01*
X5559048D01*
Y8592971D01*
X5553630D01*
Y8598388D01*
X5531960D01*
Y8592971D01*
X5526543D01*
Y8582136D01*
X5521125D01*
Y8571301D01*
X5526543D01*
Y8555049D01*
X5531960D01*
Y8549631D01*
X5537378D01*
Y8544214D01*
X5542795D01*
Y8538796D01*
X5548213D01*
Y8533379D01*
X5553630D01*
Y8527961D01*
X5559048D01*
Y8522544D01*
X5564465D01*
Y8517126D01*
X5569882D01*
Y8511709D01*
X5575300D01*
Y8506291D01*
X5580718D01*
Y8495456D01*
X5586135D01*
Y8484621D01*
X5591552D01*
Y8462951D01*
X5596970D01*
Y8430446D01*
X5591552D01*
Y8403359D01*
X5586135D01*
Y8392524D01*
X5580718D01*
Y8381689D01*
X5575300D01*
Y8376272D01*
X5569882D01*
Y8365437D01*
X5559048D01*
Y8360019D01*
X5548213D01*
Y8354602D01*
X5521125D01*
Y8360019D01*
X5504873D01*
Y8365437D01*
X5499455D01*
Y8370854D01*
X5488620D01*
Y8376272D01*
X5477785D01*
Y8370854D01*
X5456115D01*
Y8435864D01*
X5461533D01*
Y8468369D01*
X5477785D01*
Y8457534D01*
X5483203D01*
Y8441282D01*
X5488620D01*
Y8425029D01*
X5494038D01*
Y8414194D01*
X5499455D01*
Y8408777D01*
X5504873D01*
Y8403359D01*
X5510290D01*
Y8397942D01*
X5521125D01*
Y8392524D01*
X5531960D01*
Y8397942D01*
X5537378D01*
Y8403359D01*
X5542795D01*
Y8435864D01*
X5537378D01*
Y8441282D01*
X5531960D01*
Y8446699D01*
X5526543D01*
Y8452116D01*
X5521125D01*
Y8457534D01*
X5515708D01*
Y8462951D01*
X5510290D01*
Y8468369D01*
X5504873D01*
Y8473786D01*
X5499455D01*
Y8479204D01*
X5494038D01*
Y8484621D01*
X5488620D01*
Y8495456D01*
X5483203D01*
Y8500874D01*
X5477785D01*
Y8517126D01*
X5472368D01*
Y8522544D01*
Y8538796D01*
X5466950D01*
Y8565884D01*
X5472368D01*
Y8587554D01*
X5477785D01*
Y8609224D01*
X5483203D01*
Y8614641D01*
X5488620D01*
Y8625476D01*
X5494038D01*
Y8630893D01*
X5499455D01*
Y8636311D01*
X5510290D01*
Y8641728D01*
X5542795D01*
Y8636311D01*
D02*
G37*
G36*
X3256618Y9085962D02*
X3272870D01*
Y9080544D01*
X3283705D01*
Y9075127D01*
X3354132D01*
Y9069710D01*
X3375802D01*
Y9064292D01*
X3397472D01*
Y9058874D01*
X3408307D01*
Y9053457D01*
X3413724D01*
Y9048040D01*
X3419142D01*
Y9042622D01*
X3429977D01*
Y9037205D01*
X3435394D01*
Y9031787D01*
X3440812D01*
Y9026370D01*
X3446229D01*
Y9015535D01*
X3451647D01*
Y9010117D01*
X3457064D01*
Y8993865D01*
X3462482D01*
Y8983030D01*
X3467899D01*
Y8945107D01*
Y8939690D01*
Y8880098D01*
X3462482D01*
Y8863845D01*
X3457064D01*
Y8847593D01*
X3451647D01*
Y8831340D01*
X3446229D01*
Y8820505D01*
X3440812D01*
Y8809670D01*
X3435394D01*
Y8798835D01*
X3429977D01*
Y8793418D01*
X3424560D01*
Y8782583D01*
X3419142D01*
Y8771748D01*
X3413724D01*
Y8766330D01*
X3408307D01*
Y8755496D01*
X3402890D01*
Y8750078D01*
X3397472D01*
Y8739243D01*
X3392055D01*
Y8733826D01*
X3386637D01*
Y8728408D01*
X3381220D01*
Y8717573D01*
X3375802D01*
Y8712156D01*
X3370385D01*
Y8706738D01*
X3364967D01*
Y8701321D01*
X3359550D01*
Y8690486D01*
X3354132D01*
Y8685068D01*
X3348715D01*
Y8679651D01*
X3343297D01*
Y8674233D01*
X3337880D01*
Y8668816D01*
X3332462D01*
Y8663398D01*
X3327045D01*
Y8657981D01*
X3321627D01*
Y8652563D01*
X3316210D01*
Y8647146D01*
X3310792D01*
Y8641728D01*
X3305375D01*
Y8636311D01*
X3299957D01*
Y8630893D01*
X3294540D01*
Y8625476D01*
X3289122D01*
Y8620058D01*
X3283705D01*
Y8614641D01*
X3278287D01*
Y8609224D01*
X3267452D01*
Y8603806D01*
X3262035D01*
Y8598388D01*
X3256618D01*
Y8592971D01*
X3245782D01*
Y8587554D01*
X3240365D01*
Y8582136D01*
X3234948D01*
Y8576719D01*
X3224113D01*
Y8571301D01*
X3218695D01*
Y8565884D01*
X3207860D01*
Y8560466D01*
X3202443D01*
Y8555049D01*
X3191608D01*
Y8549631D01*
X3186190D01*
Y8544214D01*
X3175355D01*
Y8538796D01*
X3159103D01*
Y8533379D01*
X3153685D01*
Y8527961D01*
X3137433D01*
Y8522544D01*
X3121180D01*
Y8517126D01*
X3099510D01*
Y8511709D01*
X3056171D01*
Y8517126D01*
X3034501D01*
Y8522544D01*
X3023666D01*
Y8527961D01*
X3012831D01*
Y8533379D01*
X3007413D01*
Y8538796D01*
X2996578D01*
Y8544214D01*
X2991161D01*
Y8549631D01*
X2985743D01*
Y8560466D01*
X2980326D01*
Y8565884D01*
X2974908D01*
Y8576719D01*
X2969491D01*
Y8592971D01*
X2964074D01*
Y8603806D01*
X2958656D01*
Y8647146D01*
X2953238D01*
Y8663398D01*
X2958656D01*
Y8706738D01*
X2964074D01*
Y8728408D01*
X2969491D01*
Y8750078D01*
X2974908D01*
Y8771748D01*
X2980326D01*
Y8788000D01*
X2985743D01*
Y8798835D01*
X2991161D01*
Y8815088D01*
X2996578D01*
Y8825923D01*
X3001996D01*
Y8836758D01*
X3007413D01*
Y8847593D01*
X3012831D01*
Y8858428D01*
X3018248D01*
Y8869263D01*
X3023666D01*
Y8880098D01*
X3029083D01*
Y8890932D01*
X3034501D01*
Y8901768D01*
X3039918D01*
Y8912602D01*
X3045336D01*
Y8923438D01*
X3050753D01*
Y8934272D01*
X3056171D01*
Y8939690D01*
X3061588D01*
Y8950525D01*
X3067006D01*
Y8955942D01*
X3072423D01*
Y8966777D01*
X3077841D01*
Y8977612D01*
X3083258D01*
Y8983030D01*
X3088676D01*
Y8993865D01*
X3094093D01*
Y8999282D01*
X3099510D01*
Y9004700D01*
X3104928D01*
Y9010117D01*
X3110346D01*
Y9015535D01*
X3115763D01*
Y9026370D01*
X3121180D01*
Y9031787D01*
X3126598D01*
Y9037205D01*
X3132015D01*
Y9042622D01*
X3137433D01*
Y9048040D01*
X3142850D01*
Y9053457D01*
X3153685D01*
Y9058874D01*
X3159103D01*
Y9064292D01*
X3169938D01*
Y9069710D01*
X3175355D01*
Y9075127D01*
X3186190D01*
Y9080544D01*
X3197025D01*
Y9085962D01*
X3213278D01*
Y9091379D01*
X3256618D01*
Y9085962D01*
D02*
G37*
G36*
X4979377Y8717573D02*
X5038969D01*
Y8712156D01*
X5044387D01*
Y8625476D01*
X5049804D01*
Y8592971D01*
X5055222D01*
Y8620058D01*
X5060639D01*
Y8636311D01*
X5066057D01*
Y8652563D01*
X5071474D01*
Y8663398D01*
X5076892D01*
Y8668816D01*
X5082309D01*
Y8679651D01*
X5087727D01*
Y8685068D01*
X5093144D01*
Y8690486D01*
X5098562D01*
Y8695903D01*
X5103979D01*
Y8701321D01*
X5114814D01*
Y8706738D01*
X5131066D01*
Y8712156D01*
X5174406D01*
Y8706738D01*
X5190659D01*
Y8701321D01*
X5201494D01*
Y8695903D01*
X5206911D01*
Y8690486D01*
X5217746D01*
Y8685068D01*
X5223164D01*
Y8679651D01*
X5228581D01*
Y8668816D01*
X5233999D01*
Y8663398D01*
X5239416D01*
Y8652563D01*
X5244834D01*
Y8641728D01*
X5250251D01*
Y8625476D01*
X5255669D01*
Y8598388D01*
X5261086D01*
Y8506291D01*
X5255669D01*
Y8479204D01*
X5250251D01*
Y8462951D01*
X5244834D01*
Y8452116D01*
X5239416D01*
Y8441282D01*
X5233999D01*
Y8430446D01*
X5228581D01*
Y8425029D01*
X5223164D01*
Y8419612D01*
X5217746D01*
Y8414194D01*
X5212329D01*
Y8408777D01*
X5206911D01*
Y8403359D01*
X5201494D01*
Y8397942D01*
X5185241D01*
Y8392524D01*
X5125649D01*
Y8397942D01*
X5109396D01*
Y8403359D01*
X5103979D01*
Y8408777D01*
X5098562D01*
Y8414194D01*
X5093144D01*
Y8419612D01*
X5087727D01*
Y8425029D01*
X5082309D01*
Y8430446D01*
X5076892D01*
Y8441282D01*
X5071474D01*
Y8452116D01*
X5066057D01*
Y8462951D01*
X5060639D01*
Y8484621D01*
X5055222D01*
Y8511709D01*
X5049804D01*
Y8592971D01*
X5033552D01*
Y8587554D01*
X5017299D01*
Y8620058D01*
X5011882D01*
Y8636311D01*
X5006464D01*
Y8652563D01*
X5001047D01*
Y8657981D01*
X4995629D01*
Y8663398D01*
X4990212D01*
Y8668816D01*
X4979377D01*
Y8452116D01*
X4984794D01*
Y8441282D01*
X4990212D01*
Y8435864D01*
X5001047D01*
Y8392524D01*
X4919785D01*
Y8387107D01*
X4887280D01*
Y8430446D01*
X4898115D01*
Y8435864D01*
X4903532D01*
Y8441282D01*
X4908950D01*
Y8538796D01*
Y8544214D01*
Y8668816D01*
X4903532D01*
Y8674233D01*
X4898115D01*
Y8668816D01*
X4892697D01*
Y8663398D01*
X4887280D01*
Y8657981D01*
X4881862D01*
Y8647146D01*
X4876445D01*
Y8630893D01*
X4871027D01*
Y8603806D01*
X4865610D01*
Y8587554D01*
X4838522D01*
Y8592971D01*
X4833105D01*
Y8641728D01*
X4838522D01*
Y8722991D01*
X4979377D01*
Y8717573D01*
D02*
G37*
G36*
X5293591Y8685068D02*
X5320678D01*
Y8679651D01*
X5353183D01*
Y8674233D01*
X5374853D01*
Y8668816D01*
X5396523D01*
Y8663398D01*
X5412776D01*
Y8657981D01*
X5423610D01*
Y8652563D01*
X5429028D01*
Y8647146D01*
X5434446D01*
Y8641728D01*
X5439863D01*
Y8630893D01*
X5445280D01*
Y8614641D01*
X5450698D01*
Y8560466D01*
X5445280D01*
Y8544214D01*
X5439863D01*
Y8533379D01*
X5434446D01*
Y8527961D01*
X5429028D01*
Y8522544D01*
X5423610D01*
Y8517126D01*
X5407358D01*
Y8511709D01*
X5396523D01*
Y8506291D01*
X5407358D01*
Y8495456D01*
X5412776D01*
Y8484621D01*
X5418193D01*
Y8473786D01*
X5423610D01*
Y8452116D01*
X5429028D01*
Y8435864D01*
X5434446D01*
Y8430446D01*
X5439863D01*
Y8425029D01*
X5450698D01*
Y8392524D01*
X5445280D01*
Y8387107D01*
X5439863D01*
Y8381689D01*
X5434446D01*
Y8376272D01*
X5396523D01*
Y8381689D01*
X5385688D01*
Y8392524D01*
X5380271D01*
Y8408777D01*
X5374853D01*
Y8430446D01*
X5369436D01*
Y8468369D01*
Y8473786D01*
Y8479204D01*
X5364018D01*
Y8495456D01*
X5358601D01*
Y8500874D01*
X5342348D01*
Y8430446D01*
X5347766D01*
Y8425029D01*
X5353183D01*
Y8387107D01*
X5315261D01*
Y8392524D01*
X5261086D01*
Y8430446D01*
X5271921D01*
Y8435864D01*
X5277338D01*
Y8446699D01*
X5282756D01*
Y8511709D01*
X5288174D01*
Y8641728D01*
X5282756D01*
Y8647146D01*
X5277338D01*
Y8652563D01*
X5271921D01*
Y8690486D01*
X5293591D01*
Y8685068D01*
D02*
G37*
G36*
X3283705Y8441282D02*
X3289122D01*
Y8425029D01*
X3294540D01*
Y8408777D01*
X3299957D01*
Y8397942D01*
X3305375D01*
Y8387107D01*
X3310792D01*
Y8370854D01*
X3316210D01*
Y8360019D01*
X3321627D01*
Y8343767D01*
X3327045D01*
Y8327514D01*
X3332462D01*
Y8316679D01*
X3337880D01*
Y8300427D01*
X3343297D01*
Y8289592D01*
X3348715D01*
Y8273340D01*
X3354132D01*
Y8262505D01*
X3359550D01*
Y8246252D01*
X3354132D01*
Y8240835D01*
X3348715D01*
Y8235417D01*
X3337880D01*
Y8230000D01*
X3332462D01*
Y8224582D01*
X3327045D01*
Y8219165D01*
X3321627D01*
Y8213747D01*
X3310792D01*
Y8208330D01*
X3305375D01*
Y8219165D01*
X3299957D01*
Y8224582D01*
X3294540D01*
Y8235417D01*
X3289122D01*
Y8240835D01*
X3283705D01*
Y8251670D01*
X3278287D01*
Y8257087D01*
X3272870D01*
Y8262505D01*
X3267452D01*
Y8267922D01*
X3262035D01*
Y8273340D01*
X3256618D01*
Y8278757D01*
X3251200D01*
Y8284174D01*
X3245782D01*
Y8289592D01*
X3234948D01*
Y8295010D01*
X3229530D01*
Y8300427D01*
X3218695D01*
Y8305844D01*
X3202443D01*
Y8311262D01*
X3153685D01*
Y8305844D01*
X3137433D01*
Y8300427D01*
X3126598D01*
Y8295010D01*
X3121180D01*
Y8289592D01*
X3115763D01*
Y8284174D01*
X3110346D01*
Y8278757D01*
X3104928D01*
Y8267922D01*
X3099510D01*
Y8262505D01*
X3094093D01*
Y8251670D01*
X3088676D01*
Y8235417D01*
X3083258D01*
Y8202912D01*
X3077841D01*
Y8164990D01*
X3083258D01*
Y8121650D01*
X3088676D01*
Y8099980D01*
X3094093D01*
Y8083728D01*
X3099510D01*
Y8067475D01*
X3104928D01*
Y8051223D01*
X3110346D01*
Y8034970D01*
X3115763D01*
Y8024135D01*
X3121180D01*
Y8013300D01*
X3126598D01*
Y8002465D01*
X3132015D01*
Y7991630D01*
X3137433D01*
Y7980796D01*
X3142850D01*
Y7975378D01*
X3148268D01*
Y7969960D01*
X3153685D01*
Y7959126D01*
X3159103D01*
Y7953708D01*
X3164520D01*
Y7948291D01*
X3169938D01*
Y7942873D01*
X3175355D01*
Y7937456D01*
X3180773D01*
Y7932038D01*
X3186190D01*
Y7926621D01*
X3191608D01*
Y7921203D01*
X3202443D01*
Y7915786D01*
X3213278D01*
Y7910368D01*
X3234948D01*
Y7904951D01*
X3267452D01*
Y7910368D01*
X3289122D01*
Y7915786D01*
X3299957D01*
Y7921203D01*
X3310792D01*
Y7926621D01*
X3316210D01*
Y7932038D01*
X3321627D01*
Y7937456D01*
X3327045D01*
Y7942873D01*
X3332462D01*
Y7948291D01*
X3337880D01*
Y7959126D01*
X3343297D01*
Y7964543D01*
X3348715D01*
Y7975378D01*
X3354132D01*
Y7991630D01*
X3359550D01*
Y8013300D01*
X3364967D01*
Y8067475D01*
X3435394D01*
Y7975378D01*
X3429977D01*
Y7942873D01*
X3424560D01*
Y7926621D01*
X3419142D01*
Y7915786D01*
X3413724D01*
Y7899533D01*
X3408307D01*
Y7888698D01*
X3402890D01*
Y7877863D01*
X3397472D01*
Y7872446D01*
X3392055D01*
Y7861611D01*
X3386637D01*
Y7856193D01*
X3381220D01*
Y7845358D01*
X3375802D01*
Y7839941D01*
X3370385D01*
Y7834524D01*
X3364967D01*
Y7829106D01*
X3359550D01*
Y7823688D01*
X3354132D01*
Y7818271D01*
X3348715D01*
Y7812854D01*
X3337880D01*
Y7807436D01*
X3332462D01*
Y7802019D01*
X3327045D01*
Y7796601D01*
X3316210D01*
Y7791184D01*
X3310792D01*
Y7785766D01*
X3299957D01*
Y7780349D01*
X3283705D01*
Y7774931D01*
X3272870D01*
Y7769514D01*
X3262035D01*
Y7764096D01*
X3245782D01*
Y7758679D01*
X3224113D01*
Y7753261D01*
X3142850D01*
Y7758679D01*
X3121180D01*
Y7764096D01*
X3110346D01*
Y7769514D01*
X3094093D01*
Y7774931D01*
X3088676D01*
Y7780349D01*
X3077841D01*
Y7785766D01*
X3067006D01*
Y7791184D01*
X3061588D01*
Y7796601D01*
X3056171D01*
Y7802019D01*
X3045336D01*
Y7807436D01*
X3039918D01*
Y7818271D01*
X3034501D01*
Y7823688D01*
X3029083D01*
Y7829106D01*
X3023666D01*
Y7834524D01*
X3018248D01*
Y7839941D01*
X3012831D01*
Y7850776D01*
X3007413D01*
Y7856193D01*
X3001996D01*
Y7867028D01*
X2996578D01*
Y7872446D01*
X2991161D01*
Y7883281D01*
X2985743D01*
Y7894116D01*
X2980326D01*
Y7904951D01*
X2974908D01*
Y7921203D01*
X2969491D01*
Y7926621D01*
X2964074D01*
Y7942873D01*
X2958656D01*
Y7953708D01*
X2953238D01*
Y7969960D01*
X2947821D01*
Y7986213D01*
X2942404D01*
Y8007883D01*
X2936986D01*
Y8034970D01*
X2931569D01*
Y8078310D01*
X2926151D01*
Y8148738D01*
X2931569D01*
Y8192077D01*
X2936986D01*
Y8213747D01*
X2942404D01*
Y8230000D01*
X2947821D01*
Y8246252D01*
X2953238D01*
Y8257087D01*
X2958656D01*
Y8267922D01*
X2964074D01*
Y8278757D01*
X2969491D01*
Y8284174D01*
X2974908D01*
Y8295010D01*
X2980326D01*
Y8300427D01*
X2985743D01*
Y8311262D01*
X2991161D01*
Y8316679D01*
X2996578D01*
Y8322097D01*
X3001996D01*
Y8327514D01*
X3007413D01*
Y8332932D01*
X3012831D01*
Y8338349D01*
X3018248D01*
Y8343767D01*
X3023666D01*
Y8349184D01*
X3034501D01*
Y8354602D01*
X3039918D01*
Y8360019D01*
X3045336D01*
Y8365437D01*
X3056171D01*
Y8370854D01*
X3061588D01*
Y8376272D01*
X3072423D01*
Y8381689D01*
X3088676D01*
Y8387107D01*
X3104928D01*
Y8392524D01*
X3126598D01*
Y8397942D01*
X3213278D01*
Y8403359D01*
X3218695D01*
Y8408777D01*
X3224113D01*
Y8425029D01*
X3218695D01*
Y8430446D01*
X3234948D01*
Y8435864D01*
X3245782D01*
Y8441282D01*
X3256618D01*
Y8446699D01*
X3272870D01*
Y8452116D01*
X3283705D01*
Y8441282D01*
D02*
G37*
G36*
X3603336Y8484621D02*
X3619589D01*
Y8479204D01*
X3630424D01*
Y8473786D01*
X3641259D01*
Y8468369D01*
X3652094D01*
Y8462951D01*
X3657511D01*
Y8457534D01*
X3668346D01*
Y8446699D01*
X3673764D01*
Y8441282D01*
X3679181D01*
Y8435864D01*
X3684599D01*
Y8430446D01*
X3690016D01*
Y8425029D01*
X3695434D01*
Y8414194D01*
X3700851D01*
Y8403359D01*
X3706269D01*
Y8397942D01*
X3711686D01*
Y8387107D01*
X3717104D01*
Y8370854D01*
X3722521D01*
Y8354602D01*
X3727938D01*
Y8343767D01*
X3733356D01*
Y8327514D01*
X3738774D01*
Y8300427D01*
X3744191D01*
Y8267922D01*
X3749608D01*
Y8192077D01*
X3744191D01*
Y8170407D01*
X3738774D01*
Y8148738D01*
X3733356D01*
Y8132485D01*
X3727938D01*
Y8121650D01*
X3722521D01*
Y8110815D01*
X3717104D01*
Y8099980D01*
X3711686D01*
Y8094563D01*
X3706269D01*
Y8089145D01*
X3700851D01*
Y8083728D01*
X3695434D01*
Y8078310D01*
X3690016D01*
Y8072893D01*
X3684599D01*
Y8067475D01*
X3679181D01*
Y8062058D01*
X3673764D01*
Y8056640D01*
X3668346D01*
Y8051223D01*
X3657511D01*
Y8045805D01*
X3652094D01*
Y8040388D01*
X3641259D01*
Y8034970D01*
X3630424D01*
Y8029553D01*
X3614171D01*
Y8024135D01*
X3597919D01*
Y8018718D01*
X3527492D01*
Y8024135D01*
X3511239D01*
Y8029553D01*
X3500404D01*
Y8034970D01*
X3489569D01*
Y8040388D01*
X3484152D01*
Y8045805D01*
X3478734D01*
Y8051223D01*
X3467899D01*
Y8056640D01*
X3462482D01*
Y8062058D01*
X3457064D01*
Y8072893D01*
X3451647D01*
Y8078310D01*
X3446229D01*
Y8083728D01*
X3440812D01*
Y8094563D01*
X3435394D01*
Y8099980D01*
X3429977D01*
Y8110815D01*
X3424560D01*
Y8121650D01*
X3419142D01*
Y8132485D01*
X3413724D01*
Y8137902D01*
Y8143320D01*
X3408307D01*
Y8159572D01*
X3402890D01*
Y8175825D01*
X3397472D01*
Y8192077D01*
X3392055D01*
Y8224582D01*
X3386637D01*
Y8257087D01*
X3381220D01*
Y8311262D01*
X3386637D01*
Y8343767D01*
X3392055D01*
Y8365437D01*
X3397472D01*
Y8376272D01*
X3402890D01*
Y8392524D01*
X3408307D01*
Y8397942D01*
X3413724D01*
Y8408777D01*
X3419142D01*
Y8419612D01*
X3424560D01*
Y8425029D01*
X3429977D01*
Y8430446D01*
X3435394D01*
Y8435864D01*
X3440812D01*
Y8441282D01*
X3446229D01*
Y8446699D01*
X3451647D01*
Y8452116D01*
X3457064D01*
Y8457534D01*
X3467899D01*
Y8462951D01*
X3478734D01*
Y8468369D01*
X3484152D01*
Y8473786D01*
X3500404D01*
Y8479204D01*
X3511239D01*
Y8484621D01*
X3532909D01*
Y8490039D01*
X3603336D01*
Y8484621D01*
D02*
G37*
%LPC*%
G36*
X7235790Y12352349D02*
X7194597D01*
Y12351021D01*
X7193268D01*
Y12348363D01*
X7191939D01*
Y12345705D01*
X7190611D01*
Y12343048D01*
X7189282D01*
Y12339061D01*
X7187953D01*
Y12337732D01*
X7186624D01*
Y12333746D01*
X7185296D01*
Y12329760D01*
X7183967D01*
Y12327102D01*
X7182638D01*
Y12323116D01*
X7181309D01*
Y12321787D01*
X7179980D01*
Y12316472D01*
X7178651D01*
Y12312485D01*
X7177323D01*
Y12311156D01*
X7175994D01*
Y12305841D01*
X7217186D01*
Y12307170D01*
X7219844D01*
Y12308499D01*
X7221173D01*
Y12309828D01*
X7222502D01*
Y12311156D01*
X7223831D01*
Y12312485D01*
X7225159D01*
Y12316472D01*
X7226488D01*
Y12317801D01*
X7227817D01*
Y12321787D01*
X7229146D01*
Y12325773D01*
X7230474D01*
Y12327102D01*
X7231803D01*
Y12332417D01*
X7233132D01*
Y12339061D01*
X7234461D01*
Y12340390D01*
X7235790D01*
Y12352349D01*
D02*
G37*
G36*
X7198584Y12248703D02*
X7156062D01*
Y12247374D01*
X7154733D01*
Y12246046D01*
X7153404D01*
Y12243388D01*
X7152076D01*
Y12239401D01*
X7150747D01*
Y12235415D01*
X7149418D01*
Y12234086D01*
X7148089D01*
Y12230100D01*
X7146760D01*
Y12226113D01*
X7145431D01*
Y12223456D01*
X7144103D01*
Y12219470D01*
X7142774D01*
Y12216812D01*
X7141445D01*
Y12212826D01*
X7140117D01*
Y12207511D01*
X7185296D01*
Y12208839D01*
X7186624D01*
Y12212826D01*
X7187953D01*
Y12214154D01*
X7189282D01*
Y12218141D01*
X7190611D01*
Y12220799D01*
X7191939D01*
Y12222127D01*
X7193268D01*
Y12226113D01*
X7194597D01*
Y12230100D01*
X7195926D01*
Y12231429D01*
Y12232758D01*
X7197255D01*
Y12238073D01*
X7198584D01*
Y12240730D01*
X7199912D01*
Y12247374D01*
X7198584D01*
Y12248703D01*
D02*
G37*
G36*
X7217186Y12006862D02*
X7172007D01*
Y12005534D01*
X7170679D01*
Y12004205D01*
X7160048D01*
Y12001547D01*
X7152076D01*
Y12000218D01*
X7145431D01*
Y11997561D01*
X7137459D01*
Y11996232D01*
X7132144D01*
Y11993574D01*
X7125500D01*
Y11990917D01*
X7120184D01*
Y11989588D01*
X7114869D01*
Y11986930D01*
X7110883D01*
Y11985601D01*
X7106896D01*
Y11984273D01*
X7105568D01*
Y11982944D01*
X7100253D01*
Y11980286D01*
X7096266D01*
Y11978957D01*
X7092280D01*
Y11976300D01*
X7088293D01*
Y11974971D01*
X7084307D01*
Y11973642D01*
X7082978D01*
Y11972313D01*
X7078992D01*
Y11969656D01*
X7075005D01*
Y11968327D01*
X7071019D01*
Y11965669D01*
X7067033D01*
Y11964341D01*
X7063046D01*
Y11963012D01*
X7061717D01*
Y11961683D01*
X7059060D01*
Y11960354D01*
X7057731D01*
Y11959026D01*
X7056402D01*
Y11957697D01*
X7051087D01*
Y11955039D01*
X7047101D01*
Y11953710D01*
X7044443D01*
Y11952381D01*
X7043114D01*
Y11951053D01*
X7040457D01*
Y11949724D01*
X7039128D01*
Y11948395D01*
X7036470D01*
Y11947066D01*
X7032484D01*
Y11944409D01*
X7028498D01*
Y11943080D01*
X7025840D01*
Y11940422D01*
X7021854D01*
Y11937765D01*
X7017867D01*
Y11936436D01*
X7015209D01*
Y11933779D01*
X7011223D01*
Y11932450D01*
X7009894D01*
Y11931121D01*
X7007237D01*
Y11929792D01*
X7004579D01*
Y11927134D01*
X7000593D01*
Y11925806D01*
X6997935D01*
Y11924477D01*
X6996607D01*
Y11923148D01*
X6993949D01*
Y11920491D01*
X6989962D01*
Y11919162D01*
X6987305D01*
Y11917833D01*
X6985976D01*
Y11916504D01*
X6983319D01*
Y11908531D01*
X7005908D01*
Y11909860D01*
X7017867D01*
Y11911189D01*
X7025840D01*
Y11912518D01*
X7043114D01*
Y11915175D01*
X7060389D01*
Y11916504D01*
X7075005D01*
Y11919162D01*
X7089622D01*
Y11921819D01*
X7100253D01*
Y11923148D01*
X7112212D01*
Y11924477D01*
X7113541D01*
Y11925806D01*
X7121513D01*
Y11927134D01*
X7129486D01*
Y11928463D01*
X7130815D01*
Y11929792D01*
X7138788D01*
Y11932450D01*
X7145431D01*
Y11933779D01*
X7152076D01*
Y11936436D01*
X7157391D01*
Y11937765D01*
X7164035D01*
Y11940422D01*
X7168021D01*
Y11943080D01*
X7173336D01*
Y11944409D01*
X7177323D01*
Y11947066D01*
X7181309D01*
Y11948395D01*
X7183967D01*
Y11949724D01*
X7185296D01*
Y11951053D01*
X7187953D01*
Y11953710D01*
X7191939D01*
Y11955039D01*
X7194597D01*
Y11957697D01*
X7195926D01*
Y11959026D01*
X7198584D01*
Y11961683D01*
X7201241D01*
Y11963012D01*
X7202570D01*
Y11964341D01*
X7203899D01*
Y11965669D01*
X7205227D01*
Y11968327D01*
X7206556D01*
Y11969656D01*
X7209214D01*
Y11972313D01*
X7210543D01*
Y11974971D01*
X7211872D01*
Y11976300D01*
X7213200D01*
Y11978957D01*
X7215858D01*
Y11982944D01*
X7217186D01*
Y11986930D01*
X7219844D01*
Y12004205D01*
X7217186D01*
Y12006862D01*
D02*
G37*
G36*
X7372656Y11932450D02*
X7363354D01*
Y11931121D01*
X7362025D01*
Y11929792D01*
X7358039D01*
Y11927134D01*
X7352724D01*
Y11925806D01*
X7347409D01*
Y11923148D01*
X7343422D01*
Y11921819D01*
X7342094D01*
Y11920491D01*
X7339436D01*
Y11919162D01*
X7335449D01*
Y11917833D01*
X7334121D01*
Y11916504D01*
X7330134D01*
Y11915175D01*
X7326148D01*
Y11912518D01*
X7322161D01*
Y11909860D01*
X7318175D01*
Y11908531D01*
X7314189D01*
Y11907202D01*
X7312860D01*
Y11905874D01*
X7308874D01*
Y11904545D01*
X7306216D01*
Y11903216D01*
X7304887D01*
Y11901887D01*
X7302229D01*
Y11899230D01*
X7298243D01*
Y11897901D01*
X7294257D01*
Y11895243D01*
X7291599D01*
Y11893914D01*
X7290270D01*
Y11891257D01*
X7287613D01*
Y11888599D01*
X7286284D01*
Y11884613D01*
X7283627D01*
Y11880626D01*
X7280969D01*
Y11876640D01*
X7279640D01*
Y11856708D01*
X7288941D01*
Y11858037D01*
X7290270D01*
Y11859366D01*
X7294257D01*
Y11862024D01*
X7298243D01*
Y11863352D01*
X7302229D01*
Y11866010D01*
X7307545D01*
Y11867338D01*
X7308874D01*
Y11869996D01*
X7312860D01*
Y11872654D01*
X7315517D01*
Y11873983D01*
X7319504D01*
Y11876640D01*
X7322161D01*
Y11877969D01*
X7323490D01*
Y11880626D01*
X7328806D01*
Y11883284D01*
X7330134D01*
Y11884613D01*
X7332792D01*
Y11887271D01*
X7334121D01*
Y11888599D01*
X7336778D01*
Y11889928D01*
X7339436D01*
Y11891257D01*
X7340765D01*
Y11893914D01*
X7343422D01*
Y11895243D01*
X7344751D01*
Y11897901D01*
X7347409D01*
Y11899230D01*
X7348737D01*
Y11900558D01*
X7350066D01*
Y11901887D01*
X7351395D01*
Y11904545D01*
X7354053D01*
Y11905874D01*
X7355382D01*
Y11908531D01*
X7358039D01*
Y11911189D01*
X7360696D01*
Y11912518D01*
X7362025D01*
Y11915175D01*
X7364683D01*
Y11916504D01*
X7366012D01*
Y11919162D01*
X7368669D01*
Y11921819D01*
X7369998D01*
Y11923148D01*
X7371327D01*
Y11925806D01*
X7372656D01*
Y11932450D01*
D02*
G37*
G36*
X7979916Y11880626D02*
X7967956D01*
Y11877969D01*
X7961312D01*
Y11876640D01*
X7957326D01*
Y11873983D01*
X7952011D01*
Y11872654D01*
X7946696D01*
Y11869996D01*
X7941381D01*
Y11867338D01*
X7937394D01*
Y11866010D01*
X7932079D01*
Y11864681D01*
X7930750D01*
Y11863352D01*
X7926764D01*
Y11862024D01*
X7922777D01*
Y11859366D01*
X7918791D01*
Y11856708D01*
X7913476D01*
Y11855379D01*
X7909489D01*
Y11852722D01*
X7905503D01*
Y11851393D01*
X7901517D01*
Y11848736D01*
X7897530D01*
Y11846078D01*
X7892215D01*
Y11844749D01*
X7888229D01*
Y11842091D01*
X7884242D01*
Y11840763D01*
X7880256D01*
Y11838105D01*
X7876269D01*
Y11835447D01*
X7870954D01*
Y11834119D01*
X7868297D01*
Y11832790D01*
X7866968D01*
Y11831461D01*
X7865639D01*
Y11830132D01*
X7861653D01*
Y11828803D01*
X7860324D01*
Y11827475D01*
X7856338D01*
Y11824817D01*
X7852351D01*
Y11823488D01*
X7849694D01*
Y11820831D01*
X7845707D01*
Y11819502D01*
X7843050D01*
Y11818173D01*
X7841721D01*
Y11816844D01*
X7839063D01*
Y11814187D01*
X7835077D01*
Y11812858D01*
X7831091D01*
Y11810200D01*
X7828433D01*
Y11808871D01*
X7825775D01*
Y11807543D01*
X7824446D01*
Y11806214D01*
X7821789D01*
Y11804885D01*
X7820460D01*
Y11803556D01*
X7817803D01*
Y11802228D01*
X7813816D01*
Y11799570D01*
X7812487D01*
Y11798241D01*
X7809830D01*
Y11796912D01*
X7807172D01*
Y11795583D01*
X7805843D01*
Y11792926D01*
X7801857D01*
Y11791597D01*
X7799199D01*
Y11788940D01*
X7795213D01*
Y11787611D01*
X7793884D01*
Y11786282D01*
X7792555D01*
Y11784953D01*
X7788569D01*
Y11782296D01*
X7785912D01*
Y11780967D01*
X7784583D01*
Y11778309D01*
X7780596D01*
Y11776981D01*
X7779267D01*
Y11775652D01*
X7777939D01*
Y11774323D01*
X7775281D01*
Y11771665D01*
X7771295D01*
Y11770336D01*
X7769966D01*
Y11769008D01*
X7768637D01*
Y11767679D01*
X7767308D01*
Y11765021D01*
X7764651D01*
Y11763693D01*
X7763322D01*
Y11762364D01*
X7760664D01*
Y11761035D01*
X7759336D01*
Y11759706D01*
X7756678D01*
Y11757048D01*
X7754020D01*
Y11754391D01*
X7752691D01*
Y11751733D01*
X7750034D01*
Y11749076D01*
X7747376D01*
Y11746418D01*
X7746048D01*
Y11743761D01*
X7744719D01*
Y11742432D01*
X7743390D01*
Y11739774D01*
X7742061D01*
Y11731801D01*
X7739404D01*
Y11723828D01*
X7740732D01*
Y11722500D01*
X7742061D01*
Y11717185D01*
X7743390D01*
Y11713198D01*
X7744719D01*
Y11711869D01*
X7746048D01*
Y11710541D01*
X7754020D01*
Y11709212D01*
X7755349D01*
Y11707883D01*
X7756678D01*
Y11709212D01*
X7758007D01*
Y11710541D01*
X7771295D01*
Y11711869D01*
X7776610D01*
Y11713198D01*
X7777939D01*
Y11714527D01*
X7781925D01*
Y11717185D01*
X7785912D01*
Y11718514D01*
X7791226D01*
Y11719842D01*
X7792555D01*
Y11721171D01*
X7795213D01*
Y11722500D01*
X7799199D01*
Y11725157D01*
X7803186D01*
Y11727815D01*
X7807172D01*
Y11729144D01*
X7811159D01*
Y11731801D01*
X7815145D01*
Y11733130D01*
X7817803D01*
Y11735788D01*
X7821789D01*
Y11738445D01*
X7824446D01*
Y11739774D01*
X7828433D01*
Y11742432D01*
X7831091D01*
Y11743761D01*
X7832419D01*
Y11745089D01*
X7835077D01*
Y11746418D01*
X7837734D01*
Y11749076D01*
X7839063D01*
Y11750404D01*
X7843050D01*
Y11753062D01*
X7845707D01*
Y11754391D01*
X7847036D01*
Y11755720D01*
X7848365D01*
Y11757048D01*
X7851022D01*
Y11758377D01*
X7852351D01*
Y11759706D01*
X7855009D01*
Y11761035D01*
X7856338D01*
Y11763693D01*
X7858995D01*
Y11766350D01*
X7861653D01*
Y11767679D01*
X7864310D01*
Y11769008D01*
X7865639D01*
Y11770336D01*
X7866968D01*
Y11771665D01*
X7869626D01*
Y11774323D01*
X7870954D01*
Y11776981D01*
X7873612D01*
Y11778309D01*
X7877598D01*
Y11780967D01*
X7880256D01*
Y11782296D01*
X7881585D01*
Y11784953D01*
X7884242D01*
Y11787611D01*
X7886900D01*
Y11788940D01*
X7888229D01*
Y11791597D01*
X7890886D01*
Y11792926D01*
X7893544D01*
Y11794255D01*
X7894873D01*
Y11795583D01*
X7896201D01*
Y11796912D01*
X7897530D01*
Y11798241D01*
X7898859D01*
Y11799570D01*
X7901517D01*
Y11802228D01*
X7902846D01*
Y11803556D01*
X7905503D01*
Y11806214D01*
X7908161D01*
Y11808871D01*
X7909489D01*
Y11810200D01*
X7912147D01*
Y11812858D01*
X7916134D01*
Y11814187D01*
X7917462D01*
Y11815516D01*
X7918791D01*
Y11816844D01*
X7920120D01*
Y11819502D01*
X7922777D01*
Y11820831D01*
X7924106D01*
Y11823488D01*
X7926764D01*
Y11824817D01*
X7929422D01*
Y11827475D01*
X7930750D01*
Y11830132D01*
X7933408D01*
Y11831461D01*
X7934736D01*
Y11834119D01*
X7937394D01*
Y11835447D01*
X7940052D01*
Y11836776D01*
X7941381D01*
Y11838105D01*
X7944038D01*
Y11840763D01*
X7945367D01*
Y11842091D01*
X7948024D01*
Y11844749D01*
X7950682D01*
Y11846078D01*
X7952011D01*
Y11848736D01*
X7954669D01*
Y11851393D01*
X7955997D01*
Y11852722D01*
X7958655D01*
Y11855379D01*
X7961312D01*
Y11856708D01*
X7962641D01*
Y11859366D01*
X7965299D01*
Y11862024D01*
X7966628D01*
Y11863352D01*
X7969285D01*
Y11866010D01*
X7971943D01*
Y11867338D01*
X7973272D01*
Y11869996D01*
X7975929D01*
Y11873983D01*
X7977258D01*
Y11875311D01*
X7978587D01*
Y11876640D01*
X7979916D01*
Y11880626D01*
D02*
G37*
G36*
X4367201Y9508526D02*
X4350949D01*
Y9503108D01*
X4345532D01*
Y9497691D01*
X4340114D01*
Y9448933D01*
X4345532D01*
Y9438098D01*
X4350949D01*
Y9432681D01*
X4367201D01*
Y9438098D01*
X4372619D01*
Y9448933D01*
X4378036D01*
Y9492273D01*
X4372619D01*
Y9503108D01*
X4367201D01*
Y9508526D01*
D02*
G37*
G36*
X4009648Y9438098D02*
X3993395D01*
Y9432681D01*
X3987978D01*
Y9416428D01*
X3982560D01*
Y9383924D01*
X3987978D01*
Y9367671D01*
X3993395D01*
Y9362254D01*
X4015065D01*
Y9367671D01*
X4020482D01*
Y9389341D01*
X4025900D01*
Y9405593D01*
X4020482D01*
Y9421846D01*
Y9427263D01*
X4015065D01*
Y9432681D01*
X4009648D01*
Y9438098D01*
D02*
G37*
G36*
X3619589Y9356836D02*
X3603336D01*
Y9351419D01*
X3597919D01*
Y9318914D01*
X3619589D01*
Y9324331D01*
X3625006D01*
Y9335166D01*
Y9340584D01*
Y9351419D01*
X3619589D01*
Y9356836D01*
D02*
G37*
G36*
X3489569Y9318914D02*
X3484152D01*
Y9302661D01*
X3478734D01*
Y9286409D01*
Y9280991D01*
X3489569D01*
Y9286409D01*
X3500404D01*
Y9302661D01*
X3494987D01*
Y9313496D01*
X3489569D01*
Y9318914D01*
D02*
G37*
G36*
X4822270Y9324331D02*
X4816852D01*
Y9313496D01*
X4811435D01*
Y9302661D01*
X4806018D01*
Y9291826D01*
X4800600D01*
Y9275574D01*
X4795182D01*
Y9264739D01*
X4789765D01*
Y9253904D01*
X4784348D01*
Y9243069D01*
X4778930D01*
Y9232234D01*
X4773513D01*
Y9215982D01*
X4768095D01*
Y9205146D01*
X4773513D01*
Y9210564D01*
X4784348D01*
Y9215982D01*
X4800600D01*
Y9221399D01*
X4811435D01*
Y9226816D01*
X4827687D01*
Y9232234D01*
X4843940D01*
Y9253904D01*
X4838522D01*
Y9275574D01*
X4833105D01*
Y9291826D01*
X4827687D01*
Y9313496D01*
X4822270D01*
Y9324331D01*
D02*
G37*
G36*
X3722521Y8999282D02*
X3679181D01*
Y8993865D01*
X3668346D01*
Y8988447D01*
X3662929D01*
Y8983030D01*
X3657511D01*
Y8977612D01*
X3652094D01*
Y8972195D01*
X3614171D01*
Y8966777D01*
X3608754D01*
Y8955942D01*
X3603336D01*
Y8950525D01*
X3597919D01*
Y8939690D01*
X3592501D01*
Y8934272D01*
X3587084D01*
Y8923438D01*
X3581666D01*
Y8912602D01*
X3576249D01*
Y8901768D01*
X3570832D01*
Y8890932D01*
X3565414D01*
Y8874680D01*
X3559996D01*
Y8858428D01*
X3554579D01*
Y8842175D01*
X3549162D01*
Y8804253D01*
X3543744D01*
Y8793418D01*
X3549162D01*
Y8766330D01*
X3554579D01*
Y8760913D01*
X3559996D01*
Y8755496D01*
X3565414D01*
Y8750078D01*
X3603336D01*
Y8755496D01*
X3614171D01*
Y8760913D01*
X3625006D01*
Y8766330D01*
X3635841D01*
Y8771748D01*
X3646676D01*
Y8777165D01*
X3657511D01*
Y8782583D01*
X3662929D01*
Y8788000D01*
X3668346D01*
Y8793418D01*
X3673764D01*
Y8798835D01*
X3679181D01*
Y8804253D01*
X3684599D01*
Y8809670D01*
X3690016D01*
Y8815088D01*
X3695434D01*
Y8820505D01*
X3700851D01*
Y8825923D01*
X3706269D01*
Y8831340D01*
X3711686D01*
Y8836758D01*
X3717104D01*
Y8842175D01*
X3722521D01*
Y8853010D01*
X3727938D01*
Y8858428D01*
X3733356D01*
Y8863845D01*
X3738774D01*
Y8869263D01*
X3744191D01*
Y8880098D01*
X3749608D01*
Y8890932D01*
X3755026D01*
Y8901768D01*
X3760443D01*
Y8912602D01*
X3765861D01*
Y8923438D01*
X3771278D01*
Y8939690D01*
X3776696D01*
Y8955942D01*
X3771278D01*
Y8972195D01*
X3765861D01*
Y8977612D01*
X3760443D01*
Y8983030D01*
X3755026D01*
Y8988447D01*
X3744191D01*
Y8993865D01*
X3722521D01*
Y8999282D01*
D02*
G37*
G36*
X3998813Y9156389D02*
X3960890D01*
Y9145554D01*
X3955473D01*
Y9102214D01*
X3950055D01*
Y9075127D01*
X3944638D01*
Y9026370D01*
X3939220D01*
Y8993865D01*
X3944638D01*
Y8999282D01*
X3950055D01*
Y9004700D01*
X3955473D01*
Y9010117D01*
X3960890D01*
Y9015535D01*
X3966308D01*
Y9020952D01*
X3971725D01*
Y9026370D01*
X3977143D01*
Y9031787D01*
X3982560D01*
Y9037205D01*
X3987978D01*
Y9042622D01*
X3993395D01*
Y9048040D01*
X3998813D01*
Y9053457D01*
X4004230D01*
Y9058874D01*
X4009648D01*
Y9064292D01*
X4015065D01*
Y9069710D01*
X4020482D01*
Y9075127D01*
X4025900D01*
Y9085962D01*
X4031318D01*
Y9096797D01*
X4036735D01*
Y9129302D01*
X4031318D01*
Y9134719D01*
X4025900D01*
Y9140137D01*
X4020482D01*
Y9145554D01*
X4015065D01*
Y9150972D01*
X3998813D01*
Y9156389D01*
D02*
G37*
G36*
X3321627Y8999282D02*
X3272870D01*
Y8993865D01*
X3234948D01*
Y8988447D01*
X3224113D01*
Y8983030D01*
X3218695D01*
Y8977612D01*
X3213278D01*
Y8966777D01*
X3202443D01*
Y8961360D01*
X3197025D01*
Y8955942D01*
X3191608D01*
Y8950525D01*
X3175355D01*
Y8945107D01*
X3159103D01*
Y8950525D01*
X3142850D01*
Y8945107D01*
X3137433D01*
Y8939690D01*
X3132015D01*
Y8934272D01*
X3126598D01*
Y8923438D01*
X3121180D01*
Y8918020D01*
X3115763D01*
Y8907185D01*
X3110346D01*
Y8896350D01*
X3104928D01*
Y8890932D01*
X3099510D01*
Y8880098D01*
X3094093D01*
Y8869263D01*
X3088676D01*
Y8858428D01*
X3083258D01*
Y8847593D01*
X3077841D01*
Y8842175D01*
X3072423D01*
Y8825923D01*
X3067006D01*
Y8809670D01*
X3061588D01*
Y8793418D01*
X3056171D01*
Y8777165D01*
X3050753D01*
Y8755496D01*
X3045336D01*
Y8722991D01*
X3039918D01*
Y8636311D01*
X3045336D01*
Y8620058D01*
X3050753D01*
Y8609224D01*
X3056171D01*
Y8603806D01*
X3061588D01*
Y8598388D01*
X3121180D01*
Y8603806D01*
X3137433D01*
Y8609224D01*
X3153685D01*
Y8614641D01*
X3164520D01*
Y8620058D01*
X3175355D01*
Y8625476D01*
X3180773D01*
Y8630893D01*
X3191608D01*
Y8636311D01*
X3197025D01*
Y8641728D01*
X3207860D01*
Y8647146D01*
X3213278D01*
Y8652563D01*
X3224113D01*
Y8657981D01*
X3229530D01*
Y8663398D01*
X3234948D01*
Y8668816D01*
X3240365D01*
Y8674233D01*
X3245782D01*
Y8679651D01*
X3251200D01*
Y8685068D01*
X3256618D01*
Y8690486D01*
X3262035D01*
Y8695903D01*
X3267452D01*
Y8701321D01*
X3272870D01*
Y8706738D01*
X3278287D01*
Y8712156D01*
X3283705D01*
Y8717573D01*
X3289122D01*
Y8722991D01*
X3294540D01*
Y8728408D01*
X3299957D01*
Y8733826D01*
X3305375D01*
Y8739243D01*
X3310792D01*
Y8750078D01*
X3316210D01*
Y8755496D01*
X3321627D01*
Y8766330D01*
X3327045D01*
Y8771748D01*
X3332462D01*
Y8782583D01*
X3337880D01*
Y8788000D01*
X3343297D01*
Y8793418D01*
X3348715D01*
Y8804253D01*
X3354132D01*
Y8815088D01*
X3359550D01*
Y8820505D01*
X3364967D01*
Y8831340D01*
X3370385D01*
Y8842175D01*
X3375802D01*
Y8853010D01*
X3381220D01*
Y8863845D01*
X3386637D01*
Y8874680D01*
X3392055D01*
Y8901768D01*
X3397472D01*
Y8928855D01*
X3392055D01*
Y8950525D01*
X3386637D01*
Y8961360D01*
X3381220D01*
Y8966777D01*
X3375802D01*
Y8972195D01*
X3370385D01*
Y8977612D01*
X3364967D01*
Y8983030D01*
X3354132D01*
Y8988447D01*
X3343297D01*
Y8993865D01*
X3321627D01*
Y8999282D01*
D02*
G37*
G36*
X5168989Y8663398D02*
X5147319D01*
Y8657981D01*
X5141901D01*
Y8652563D01*
X5136484D01*
Y8641728D01*
X5131066D01*
Y8625476D01*
X5125649D01*
Y8587554D01*
X5120232D01*
Y8517126D01*
X5125649D01*
Y8479204D01*
X5131066D01*
Y8462951D01*
X5136484D01*
Y8452116D01*
X5141901D01*
Y8441282D01*
X5152736D01*
Y8435864D01*
X5168989D01*
Y8441282D01*
X5174406D01*
Y8446699D01*
X5179824D01*
Y8457534D01*
X5185241D01*
Y8479204D01*
X5190659D01*
Y8522544D01*
X5196076D01*
Y8587554D01*
X5190659D01*
Y8620058D01*
X5185241D01*
Y8636311D01*
X5179824D01*
Y8647146D01*
X5174406D01*
Y8657981D01*
X5168989D01*
Y8663398D01*
D02*
G37*
G36*
X5380271Y8630893D02*
X5353183D01*
Y8603806D01*
X5347766D01*
Y8555049D01*
Y8549631D01*
Y8538796D01*
X5374853D01*
Y8544214D01*
X5385688D01*
Y8560466D01*
X5391106D01*
Y8576719D01*
X5396523D01*
Y8603806D01*
X5391106D01*
Y8620058D01*
X5385688D01*
Y8625476D01*
X5380271D01*
Y8630893D01*
D02*
G37*
G36*
X3549162Y8414194D02*
X3527492D01*
Y8408777D01*
X3516657D01*
Y8403359D01*
X3511239D01*
Y8397942D01*
X3505822D01*
Y8392524D01*
X3500404D01*
Y8381689D01*
X3494987D01*
Y8349184D01*
X3489569D01*
Y8338349D01*
X3494987D01*
Y8289592D01*
X3500404D01*
Y8262505D01*
X3505822D01*
Y8246252D01*
X3511239D01*
Y8224582D01*
X3516657D01*
Y8208330D01*
X3522074D01*
Y8197495D01*
X3527492D01*
Y8181242D01*
X3532909D01*
Y8164990D01*
X3538327D01*
Y8154155D01*
X3543744D01*
Y8143320D01*
X3549162D01*
Y8137902D01*
X3554579D01*
Y8127068D01*
X3559996D01*
Y8121650D01*
X3565414D01*
Y8116232D01*
X3570832D01*
Y8110815D01*
X3576249D01*
Y8105398D01*
X3581666D01*
Y8099980D01*
X3603336D01*
Y8094563D01*
X3608754D01*
Y8099980D01*
X3625006D01*
Y8105398D01*
X3630424D01*
Y8110815D01*
X3635841D01*
Y8116232D01*
X3641259D01*
Y8121650D01*
Y8132485D01*
X3646676D01*
Y8208330D01*
X3641259D01*
Y8240835D01*
X3635841D01*
Y8262505D01*
X3630424D01*
Y8278757D01*
X3625006D01*
Y8300427D01*
X3619589D01*
Y8316679D01*
X3614171D01*
Y8327514D01*
X3608754D01*
Y8343767D01*
X3603336D01*
Y8354602D01*
X3597919D01*
Y8365437D01*
X3592501D01*
Y8376272D01*
X3587084D01*
Y8381689D01*
X3581666D01*
Y8387107D01*
X3576249D01*
Y8392524D01*
X3570832D01*
Y8397942D01*
X3565414D01*
Y8403359D01*
X3554579D01*
Y8408777D01*
X3549162D01*
Y8414194D01*
D02*
G37*
%LPD*%
D25*
X5244700Y10248500D02*
G03*
X5244700Y10248500I-25000J0D01*
G01*
X1549500Y2636200D02*
G03*
X1549500Y2636200I-25000J0D01*
G01*
X2648900Y11329300D02*
G03*
X2648900Y11329300I-25000J0D01*
G01*
X7054200Y2603500D02*
G03*
X7054200Y2603500I-25000J0D01*
G01*
X6882600Y4533900D02*
G03*
X6882600Y4533900I-25000J0D01*
G01*
Y8839200D02*
G03*
X6882600Y8839200I-25000J0D01*
G01*
D26*
X1622900Y6540500D02*
G03*
X1622900Y6540500I-12500J0D01*
G01*
D27*
X6169409Y6250214D02*
X6339114Y6080509D01*
X6169409Y6250214D02*
X6614886Y6695691D01*
X6339114Y6080509D02*
X6784591Y6525986D01*
X6614886Y6695691D02*
X6784591Y6525986D01*
X1292900Y7868000D02*
X1932900D01*
X1292900Y6618000D02*
Y7868000D01*
Y6618000D02*
X1932900D01*
Y7868000D01*
X6306200Y3050500D02*
X6546200D01*
X6306200D02*
Y3680500D01*
X6546200Y3050500D02*
Y3680500D01*
X6306200D02*
X6546200D01*
X6382400Y9941600D02*
X6622400D01*
Y9311600D02*
Y9941600D01*
X6382400Y9311600D02*
Y9941600D01*
Y9311600D02*
X6622400D01*
X6039500Y4963200D02*
X6279500D01*
Y4333200D02*
Y4963200D01*
X6039500Y4333200D02*
Y4963200D01*
Y4333200D02*
X6279500D01*
D28*
X6237200Y10325500D02*
Y11344500D01*
X3694200Y10325500D02*
X6237200D01*
X3694200D02*
Y11344500D01*
X6237200D02*
X6729700D01*
Y12814500D01*
X2894700D02*
X6729700D01*
X2894700Y11344500D02*
Y12814500D01*
Y11344500D02*
X3694200D01*
X539000Y1520200D02*
Y2539200D01*
X3526000D01*
Y1520200D02*
Y2539200D01*
X45500Y1520200D02*
X539000D01*
X45500Y50200D02*
Y1520200D01*
Y50200D02*
X4325500D01*
Y1520200D01*
X3526000D02*
X4325500D01*
X1507900Y12314800D02*
X2526900D01*
Y9327800D02*
Y12314800D01*
X1507900Y9327800D02*
X2526900D01*
X1507900Y12314800D02*
Y12808299D01*
X37900D02*
X1507900D01*
X37900Y8528300D02*
Y12808299D01*
Y8528300D02*
X1507900D01*
Y9327800D01*
X6011700Y1507500D02*
Y2526500D01*
X8554700D01*
Y1507500D02*
Y2526500D01*
X5519200Y1507500D02*
X6011700D01*
X5519200Y37500D02*
Y1507500D01*
Y37500D02*
X9354200D01*
Y1507500D01*
X8554700D02*
X9354200D01*
X6934600Y3516400D02*
X7953600D01*
X6934600D02*
Y6059400D01*
X7953600D01*
Y3023900D02*
Y3516400D01*
Y3023900D02*
X9423600D01*
Y6858900D01*
X7953600D02*
X9423600D01*
X7953600Y6059400D02*
Y6858900D01*
X6934600Y7821700D02*
X7953600D01*
X6934600D02*
Y10364700D01*
X7953600D01*
Y7329200D02*
Y7821700D01*
Y7329200D02*
X9423600D01*
Y11164200D01*
X7953600D02*
X9423600D01*
X7953600Y10364700D02*
Y11164200D01*
D29*
X3886200Y6470800D02*
X5664200D01*
X3886200Y2844800D02*
Y6470800D01*
X5664200Y2844800D02*
Y6470800D01*
X3886200Y2844800D02*
X5664200D01*
D30*
X3623711Y6333039D02*
X3606783Y6349967D01*
X3572928D01*
X3556000Y6333039D01*
Y6265328D01*
X3572928Y6248400D01*
X3606783D01*
X3623711Y6265328D01*
Y6299183D01*
X3589856D01*
X3657567Y6248400D02*
Y6349967D01*
X3725279Y6248400D01*
Y6349967D01*
X3759134D02*
Y6248400D01*
X3809918D01*
X3826846Y6265328D01*
Y6333039D01*
X3809918Y6349967D01*
X3759134D01*
D31*
X7696200Y12763451D02*
Y12611100D01*
X7772375D01*
X7797767Y12636492D01*
Y12738059D01*
X7772375Y12763451D01*
X7696200D01*
X7950118Y12738059D02*
X7924726Y12763451D01*
X7873943D01*
X7848551Y12738059D01*
Y12636492D01*
X7873943Y12611100D01*
X7924726D01*
X7950118Y12636492D01*
X8102469Y12763451D02*
X8000901D01*
Y12687275D01*
X8051685D01*
X8000901D01*
Y12611100D01*
X8153252Y12712667D02*
X8204036Y12611100D01*
X8254819Y12712667D01*
X8407170Y12611100D02*
X8305603D01*
X8407170Y12712667D01*
Y12738059D01*
X8381778Y12763451D01*
X8330995D01*
X8305603Y12738059D01*
X1714500Y2984459D02*
X1739892Y3009851D01*
X1790675D01*
X1816067Y2984459D01*
Y2959067D01*
X1790675Y2933675D01*
X1765283D01*
X1790675D01*
X1816067Y2908283D01*
Y2882892D01*
X1790675Y2857500D01*
X1739892D01*
X1714500Y2882892D01*
X1866851Y2857500D02*
Y2882892D01*
X1892243D01*
Y2857500D01*
X1866851D01*
X1993810Y2984459D02*
X2019201Y3009851D01*
X2069985D01*
X2095377Y2984459D01*
Y2959067D01*
X2069985Y2933675D01*
X2044593D01*
X2069985D01*
X2095377Y2908283D01*
Y2882892D01*
X2069985Y2857500D01*
X2019201D01*
X1993810Y2882892D01*
X2146160Y3009851D02*
Y2908283D01*
X2196944Y2857500D01*
X2247728Y2908283D01*
Y3009851D01*
X6096041Y6502425D02*
Y6654775D01*
X6172217D01*
X6197608Y6629383D01*
Y6578600D01*
X6172217Y6553208D01*
X6096041D01*
X6146825D02*
X6197608Y6502425D01*
X6324567D02*
Y6654775D01*
X6248392Y6578600D01*
X6349959D01*
X1333590Y8129967D02*
Y8028400D01*
X1384374Y7977617D01*
X1435158Y8028400D01*
Y8129967D01*
X1485941Y7977617D02*
Y8129967D01*
X1562117D01*
X1587508Y8104575D01*
Y8053792D01*
X1562117Y8028400D01*
X1485941D01*
X1536725D02*
X1587508Y7977617D01*
X1714467D02*
X1663684D01*
X1638292Y8003008D01*
Y8053792D01*
X1663684Y8079184D01*
X1714467D01*
X1739859Y8053792D01*
Y8028400D01*
X1638292D01*
X1841426Y7926833D02*
X1866818D01*
X1892210Y7952225D01*
Y8079184D01*
X1816034D01*
X1790643Y8053792D01*
Y8003008D01*
X1816034Y7977617D01*
X1892210D01*
X3567430Y6777941D02*
X3668997D01*
X3618213D01*
Y6625590D01*
X3795956D02*
X3745173D01*
X3719781Y6650982D01*
Y6701765D01*
X3745173Y6727157D01*
X3795956D01*
X3821348Y6701765D01*
Y6676373D01*
X3719781D01*
X3948307Y6625590D02*
X3897523D01*
X3872131Y6650982D01*
Y6701765D01*
X3897523Y6727157D01*
X3948307D01*
X3973699Y6701765D01*
Y6676373D01*
X3872131D01*
X4024482Y6625590D02*
Y6727157D01*
X4100658D01*
X4126049Y6701765D01*
Y6625590D01*
X4176833D02*
X4253008D01*
X4278400Y6650982D01*
X4253008Y6676373D01*
X4202225D01*
X4176833Y6701765D01*
X4202225Y6727157D01*
X4278400D01*
X4329184D02*
Y6650982D01*
X4354575Y6625590D01*
X4430751D01*
Y6600198D01*
X4405359Y6574807D01*
X4379967D01*
X4430751Y6625590D02*
Y6727157D01*
X6375441Y10198125D02*
Y10350475D01*
X6451617D01*
X6477008Y10325083D01*
Y10274300D01*
X6451617Y10248908D01*
X6375441D01*
X6426225D02*
X6477008Y10198125D01*
X6527792Y10325083D02*
X6553184Y10350475D01*
X6603967D01*
X6629359Y10325083D01*
Y10299692D01*
X6603967Y10274300D01*
X6578575D01*
X6603967D01*
X6629359Y10248908D01*
Y10223517D01*
X6603967Y10198125D01*
X6553184D01*
X6527792Y10223517D01*
X6350041Y4597425D02*
Y4749775D01*
X6426217D01*
X6451608Y4724383D01*
Y4673600D01*
X6426217Y4648208D01*
X6350041D01*
X6400825D02*
X6451608Y4597425D01*
X6603959D02*
X6502392D01*
X6603959Y4698992D01*
Y4724383D01*
X6578567Y4749775D01*
X6527784D01*
X6502392Y4724383D01*
X6616733Y3289325D02*
Y3441675D01*
X6692908D01*
X6718300Y3416283D01*
Y3365500D01*
X6692908Y3340108D01*
X6616733D01*
X6667517D02*
X6718300Y3289325D01*
X6769084D02*
X6819867D01*
X6794476D01*
Y3441675D01*
X6769084Y3416283D01*
X1105126Y3441683D02*
X1079734Y3467075D01*
X1028951D01*
X1003559Y3441683D01*
Y3340117D01*
X1028951Y3314725D01*
X1079734D01*
X1105126Y3340117D01*
X1155910Y3314725D02*
Y3416292D01*
X1206693Y3467075D01*
X1257477Y3416292D01*
Y3314725D01*
Y3390900D01*
X1155910D01*
X1308260Y3314725D02*
Y3467075D01*
X1409828Y3314725D01*
Y3467075D01*
X1612962Y3314725D02*
Y3467075D01*
X1663745Y3416292D01*
X1714529Y3467075D01*
Y3314725D01*
X1790704D02*
X1841488D01*
X1866880Y3340117D01*
Y3390900D01*
X1841488Y3416292D01*
X1790704D01*
X1765312Y3390900D01*
Y3340117D01*
X1790704Y3314725D01*
X1943055Y3441683D02*
Y3416292D01*
X1917663D01*
X1968447D01*
X1943055D01*
Y3340117D01*
X1968447Y3314725D01*
X2070014D02*
X2120797D01*
X2146189Y3340117D01*
Y3390900D01*
X2120797Y3416292D01*
X2070014D01*
X2044622Y3390900D01*
Y3340117D01*
X2070014Y3314725D01*
X2196973Y3416292D02*
Y3314725D01*
Y3365508D01*
X2222365Y3390900D01*
X2247756Y3416292D01*
X2273148D01*
X2603241Y3314725D02*
X2501674D01*
X2603241Y3416292D01*
Y3441683D01*
X2577850Y3467075D01*
X2527066D01*
X2501674Y3441683D01*
X1257501Y5079983D02*
X1232110Y5105375D01*
X1181326D01*
X1155934Y5079983D01*
Y4978417D01*
X1181326Y4953025D01*
X1232110D01*
X1257501Y4978417D01*
X1308285Y4953025D02*
Y5054592D01*
X1359068Y5105375D01*
X1409852Y5054592D01*
Y4953025D01*
Y5029200D01*
X1308285D01*
X1460636Y4953025D02*
Y5105375D01*
X1562203Y4953025D01*
Y5105375D01*
X1765337D02*
Y4953025D01*
X1841512D01*
X1866904Y4978417D01*
Y5079983D01*
X1841512Y5105375D01*
X1765337D01*
X1943080Y5054592D02*
X1993863D01*
X2019255Y5029200D01*
Y4953025D01*
X1943080D01*
X1917688Y4978417D01*
X1943080Y5003808D01*
X2019255D01*
X2095430Y5079983D02*
Y5054592D01*
X2070039D01*
X2120822D01*
X2095430D01*
Y4978417D01*
X2120822Y4953025D01*
X2222389Y5054592D02*
X2273173D01*
X2298565Y5029200D01*
Y4953025D01*
X2222389D01*
X2196997Y4978417D01*
X2222389Y5003808D01*
X2298565D01*
X2603266Y4953025D02*
X2501699D01*
X2603266Y5054592D01*
Y5079983D01*
X2577874Y5105375D01*
X2527091D01*
X2501699Y5079983D01*
X3798383Y1803375D02*
X3747599Y1777983D01*
X3696815Y1727200D01*
Y1676417D01*
X3722207Y1651025D01*
X3772991D01*
X3798383Y1676417D01*
Y1701808D01*
X3772991Y1727200D01*
X3696815D01*
X3849166Y1651025D02*
Y1803375D01*
X3925341D01*
X3950733Y1777983D01*
Y1727200D01*
X3925341Y1701808D01*
X3849166D01*
X4103084Y1777983D02*
X4077692Y1803375D01*
X4026909D01*
X4001517Y1777983D01*
Y1752592D01*
X4026909Y1727200D01*
X4077692D01*
X4103084Y1701808D01*
Y1676417D01*
X4077692Y1651025D01*
X4026909D01*
X4001517Y1676417D01*
X4153867Y1803375D02*
Y1651025D01*
X4204651Y1701808D01*
X4255435Y1651025D01*
Y1803375D01*
X4306218D02*
Y1651025D01*
Y1727200D01*
X4331610Y1752592D01*
X4382394D01*
X4407785Y1727200D01*
Y1651025D01*
X1803507Y12573871D02*
X1752723Y12548480D01*
X1701940Y12497696D01*
Y12446913D01*
X1727332Y12421521D01*
X1778115D01*
X1803507Y12446913D01*
Y12472304D01*
X1778115Y12497696D01*
X1701940D01*
X1854290Y12421521D02*
Y12573871D01*
X1930466D01*
X1955858Y12548480D01*
Y12497696D01*
X1930466Y12472304D01*
X1854290D01*
X2006641Y12396129D02*
X2108208D01*
X2158992Y12573871D02*
Y12421521D01*
X2235167D01*
X2260559Y12446913D01*
Y12548480D01*
X2235167Y12573871D01*
X2158992D01*
X2412910Y12548480D02*
X2387518Y12573871D01*
X2336734D01*
X2311343Y12548480D01*
Y12446913D01*
X2336734Y12421521D01*
X2387518D01*
X2412910Y12446913D01*
X2565261Y12573871D02*
X2463693D01*
Y12497696D01*
X2514477D01*
X2463693D01*
Y12421521D01*
X7391466Y10439425D02*
Y10591775D01*
X7315290Y10515600D01*
X7416858D01*
X7467641Y10439425D02*
Y10591775D01*
X7543817D01*
X7569208Y10566383D01*
Y10515600D01*
X7543817Y10490208D01*
X7467641D01*
X7619992Y10591775D02*
X7721559D01*
X7670775D01*
Y10439425D01*
X7873910D02*
X7772343D01*
X7873910Y10540992D01*
Y10566383D01*
X7848518Y10591775D01*
X7797734D01*
X7772343Y10566383D01*
X8793158Y1625225D02*
Y1777575D01*
X8716982Y1701400D01*
X8818550D01*
X8869333Y1625225D02*
Y1777575D01*
X8945508D01*
X8970900Y1752183D01*
Y1701400D01*
X8945508Y1676008D01*
X8869333D01*
X9021684Y1777575D02*
X9123251D01*
X9072467D01*
Y1625225D01*
X9174034D02*
X9224818D01*
X9199426D01*
Y1777575D01*
X9174034Y1752183D01*
X7366066Y6134125D02*
Y6286475D01*
X7289890Y6210300D01*
X7391458D01*
X7442241Y6134125D02*
Y6286475D01*
X7518417D01*
X7543808Y6261083D01*
Y6210300D01*
X7518417Y6184908D01*
X7442241D01*
X7696159Y6261083D02*
X7670767Y6286475D01*
X7619984D01*
X7594592Y6261083D01*
Y6235692D01*
X7619984Y6210300D01*
X7670767D01*
X7696159Y6184908D01*
Y6159517D01*
X7670767Y6134125D01*
X7619984D01*
X7594592Y6159517D01*
X7746943Y6286475D02*
Y6134125D01*
X7797726Y6184908D01*
X7848510Y6134125D01*
Y6286475D01*
X3067366Y11061325D02*
Y11213675D01*
X2991190Y11137500D01*
X3092758D01*
X3143541Y11061325D02*
Y11213675D01*
X3219716D01*
X3245108Y11188283D01*
Y11137500D01*
X3219716Y11112108D01*
X3143541D01*
X3295892Y11213675D02*
Y11061325D01*
X3372067D01*
X3397459Y11086716D01*
Y11112108D01*
X3372067Y11137500D01*
X3295892D01*
X3372067D01*
X3397459Y11162892D01*
Y11188283D01*
X3372067Y11213675D01*
X3295892D01*
X3448243Y11061325D02*
Y11213675D01*
X3524418D01*
X3549810Y11188283D01*
Y11137500D01*
X3524418Y11112108D01*
X3448243D01*
X3499026D02*
X3549810Y11061325D01*
%TF.MD5,3bd778e19c5ab83a18d081338063dfb4*%
M02*
