%TF.GenerationSoftware,Altium Limited,Altium Designer,23.10.1 (27)*%
G04 Layer_Physical_Order=2*
G04 Layer_Color=16711680*
%FSLAX45Y45*%
%MOMM*%
%TF.SameCoordinates,33E037F1-C985-4D2D-AE5F-07A7C6CBA4F8*%
%TF.FilePolarity,Positive*%
%TF.FileFunction,Copper,L2,Bot,Signal*%
%TF.Part,Single*%
G01*
G75*
%TA.AperFunction,ComponentPad*%
G04:AMPARAMS|DCode=10|XSize=1.6764mm|YSize=1.6764mm|CornerRadius=0mm|HoleSize=0mm|Usage=FLASHONLY|Rotation=270.000|XOffset=0mm|YOffset=0mm|HoleType=Round|Shape=Octagon|*
%AMOCTAGOND10*
4,1,8,-0.41910,-0.83820,0.41910,-0.83820,0.83820,-0.41910,0.83820,0.41910,0.41910,0.83820,-0.41910,0.83820,-0.83820,0.41910,-0.83820,-0.41910,-0.41910,-0.83820,0.0*
%
%ADD10OCTAGOND10*%

%ADD11O,1.10795X2.21590*%
G04:AMPARAMS|DCode=12|XSize=1.3208mm|YSize=1.3208mm|CornerRadius=0mm|HoleSize=0mm|Usage=FLASHONLY|Rotation=90.000|XOffset=0mm|YOffset=0mm|HoleType=Round|Shape=Octagon|*
%AMOCTAGOND12*
4,1,8,0.33020,0.66040,-0.33020,0.66040,-0.66040,0.33020,-0.66040,-0.33020,-0.33020,-0.66040,0.33020,-0.66040,0.66040,-0.33020,0.66040,0.33020,0.33020,0.66040,0.0*
%
%ADD12OCTAGOND12*%

%ADD13O,1.52400X3.04800*%
%ADD14O,1.01600X2.03200*%
%ADD15O,2.21590X1.10795*%
%ADD16C,1.10795*%
%ADD17C,1.50800*%
%ADD18R,1.50800X1.50800*%
G04:AMPARAMS|DCode=19|XSize=1.508mm|YSize=1.508mm|CornerRadius=0mm|HoleSize=0mm|Usage=FLASHONLY|Rotation=90.000|XOffset=0mm|YOffset=0mm|HoleType=Round|Shape=Octagon|*
%AMOCTAGOND19*
4,1,8,0.37700,0.75400,-0.37700,0.75400,-0.75400,0.37700,-0.75400,-0.37700,-0.37700,-0.75400,0.37700,-0.75400,0.75400,-0.37700,0.75400,0.37700,0.37700,0.75400,0.0*
%
%ADD19OCTAGOND19*%

%ADD20C,1.67640*%
%ADD21R,1.50800X1.50800*%
G04:AMPARAMS|DCode=22|XSize=1.3208mm|YSize=1.3208mm|CornerRadius=0mm|HoleSize=0mm|Usage=FLASHONLY|Rotation=0.000|XOffset=0mm|YOffset=0mm|HoleType=Round|Shape=Octagon|*
%AMOCTAGOND22*
4,1,8,0.66040,-0.33020,0.66040,0.33020,0.33020,0.66040,-0.33020,0.66040,-0.66040,0.33020,-0.66040,-0.33020,-0.33020,-0.66040,0.33020,-0.66040,0.66040,-0.33020,0.0*
%
%ADD22OCTAGOND22*%

%TA.AperFunction,Conductor*%
%ADD23C,0.50800*%
G36*
X8382000Y127000D02*
X127000D01*
Y7738529D01*
X8382000D01*
Y127000D01*
D02*
G37*
%LPC*%
G36*
X4572000Y7544677D02*
X4545477Y7541185D01*
X4520762Y7530948D01*
X4499538Y7514662D01*
X4483252Y7493438D01*
X4473015Y7468723D01*
X4469523Y7442200D01*
Y7289800D01*
X4473015Y7263277D01*
X4483252Y7238562D01*
X4499538Y7217338D01*
X4520762Y7201052D01*
X4545477Y7190815D01*
X4572000Y7187323D01*
X4598523Y7190815D01*
X4623238Y7201052D01*
X4644462Y7217338D01*
X4660748Y7238562D01*
X4670985Y7263277D01*
X4674477Y7289800D01*
Y7442200D01*
X4670985Y7468723D01*
X4660748Y7493438D01*
X4644462Y7514662D01*
X4623238Y7530948D01*
X4598523Y7541185D01*
X4572000Y7544677D01*
D02*
G37*
G36*
X6151397Y7320495D02*
X6040603D01*
X6019510Y7317718D01*
X5999855Y7309576D01*
X5982977Y7296625D01*
X5978503Y7290795D01*
X5588000D01*
X5568179Y7286853D01*
X5551375Y7275625D01*
X5185546Y6909795D01*
X4572000D01*
X4552179Y6905853D01*
X4535375Y6894625D01*
X4408375Y6767625D01*
X4397147Y6750821D01*
X4393205Y6731000D01*
Y6594497D01*
X4387375Y6590023D01*
X4374424Y6573145D01*
X4366282Y6553490D01*
X4363505Y6532397D01*
Y6421603D01*
X4364465Y6414317D01*
X4224943Y6274795D01*
X3958454D01*
X3861795Y6371454D01*
Y6604000D01*
X3857853Y6623821D01*
X3846625Y6640625D01*
X3465625Y7021625D01*
X3448821Y7032853D01*
X3429000Y7036795D01*
X2667001D01*
X2667000Y7036795D01*
X2647179Y7032853D01*
X2630375Y7021625D01*
X2630375Y7021624D01*
X2376375Y6767625D01*
X2365147Y6750821D01*
X2361205Y6731000D01*
Y6584104D01*
X2358653Y6582147D01*
X2346439Y6566229D01*
X2338761Y6547692D01*
X2336142Y6527800D01*
Y6426200D01*
X2338761Y6406308D01*
X2346439Y6387771D01*
X2358653Y6371853D01*
X2374571Y6359639D01*
X2393108Y6351961D01*
X2413000Y6349342D01*
X2432892Y6351961D01*
X2451429Y6359639D01*
X2467347Y6371853D01*
X2479561Y6387771D01*
X2487239Y6406308D01*
X2489858Y6426200D01*
Y6527800D01*
X2487239Y6547692D01*
X2479561Y6566229D01*
X2467347Y6582147D01*
X2464795Y6584104D01*
Y6709546D01*
X2688454Y6933205D01*
X3407546D01*
X3724230Y6616520D01*
X3717036Y6605754D01*
X3704092Y6611115D01*
X3683000Y6613892D01*
X3661908Y6611115D01*
X3642253Y6602974D01*
X3625375Y6590023D01*
X3612424Y6573145D01*
X3604282Y6553490D01*
X3601505Y6532397D01*
Y6421603D01*
X3604282Y6400510D01*
X3612424Y6380855D01*
X3625375Y6363977D01*
X3631205Y6359503D01*
Y5969000D01*
X3635147Y5949179D01*
X3646375Y5932375D01*
X3758205Y5820546D01*
Y5547490D01*
X3748108Y5541660D01*
X3729340Y5522892D01*
X3716070Y5499907D01*
X3709200Y5474270D01*
Y5447730D01*
X3716070Y5422093D01*
X3729340Y5399108D01*
X3748108Y5380340D01*
X3771093Y5367070D01*
X3796730Y5360200D01*
X3823270D01*
X3848907Y5367070D01*
X3871892Y5380340D01*
X3890660Y5399108D01*
X3903930Y5422093D01*
X3910800Y5447730D01*
Y5474270D01*
X3903930Y5499907D01*
X3890660Y5522892D01*
X3871892Y5541660D01*
X3861795Y5547490D01*
Y5842000D01*
X3857853Y5861821D01*
X3846625Y5878625D01*
X3734795Y5990454D01*
Y6359503D01*
X3740625Y6363977D01*
X3745505Y6370336D01*
X3758205Y6366025D01*
Y6350000D01*
X3762147Y6330179D01*
X3773375Y6313375D01*
X3900375Y6186375D01*
X3917179Y6175147D01*
X3937000Y6171205D01*
X4246397D01*
X4266219Y6175147D01*
X4283022Y6186375D01*
X4437714Y6341067D01*
X4445000Y6340108D01*
X4466092Y6342885D01*
X4485747Y6351026D01*
X4502625Y6363977D01*
X4515576Y6380855D01*
X4523718Y6400510D01*
X4526495Y6421603D01*
Y6532397D01*
X4523718Y6553490D01*
X4515576Y6573145D01*
X4502625Y6590023D01*
X4496795Y6594497D01*
Y6709546D01*
X4593454Y6806205D01*
X5207000D01*
X5226821Y6810147D01*
X5243625Y6821375D01*
X5609454Y7187205D01*
X5978503D01*
X5982977Y7181375D01*
X5999855Y7168424D01*
X6019510Y7160282D01*
X6040603Y7157505D01*
X6151397D01*
X6172490Y7160282D01*
X6192145Y7168424D01*
X6209023Y7181375D01*
X6221974Y7198253D01*
X6230115Y7217908D01*
X6232892Y7239000D01*
X6230115Y7260092D01*
X6221974Y7279747D01*
X6209023Y7296625D01*
X6192145Y7309576D01*
X6172490Y7317718D01*
X6151397Y7320495D01*
D02*
G37*
G36*
X6349999Y7671795D02*
X4396400D01*
X4376578Y7667853D01*
X4359775Y7656625D01*
X4281375Y7578225D01*
X4270147Y7561422D01*
X4266205Y7541600D01*
Y7530520D01*
X4245538Y7514662D01*
X4229252Y7493438D01*
X4219015Y7468723D01*
X4215523Y7442200D01*
Y7289800D01*
X4219015Y7263277D01*
X4229252Y7238562D01*
X4245538Y7217338D01*
X4266205Y7201480D01*
Y7133454D01*
X4154375Y7021625D01*
X4143147Y7004821D01*
X4139205Y6985000D01*
Y6594497D01*
X4133375Y6590023D01*
X4120424Y6573145D01*
X4112282Y6553490D01*
X4109505Y6532397D01*
Y6421603D01*
X4112282Y6400510D01*
X4120424Y6380855D01*
X4133375Y6363977D01*
X4150253Y6351026D01*
X4169908Y6342885D01*
X4191000Y6340108D01*
X4212092Y6342885D01*
X4231747Y6351026D01*
X4248625Y6363977D01*
X4261576Y6380855D01*
X4269718Y6400510D01*
X4272495Y6421603D01*
Y6532397D01*
X4269718Y6553490D01*
X4261576Y6573145D01*
X4248625Y6590023D01*
X4242795Y6594497D01*
Y6963546D01*
X4354625Y7075375D01*
X4365853Y7092179D01*
X4369795Y7112000D01*
Y7201480D01*
X4390462Y7217338D01*
X4406748Y7238562D01*
X4416985Y7263277D01*
X4420477Y7289800D01*
Y7442200D01*
X4416985Y7468723D01*
X4406748Y7493438D01*
X4390462Y7514662D01*
X4383306Y7520153D01*
X4382475Y7532826D01*
X4417854Y7568205D01*
X6328545D01*
X6552205Y7344546D01*
Y7133454D01*
X6455546Y7036795D01*
X6213497D01*
X6209023Y7042625D01*
X6192145Y7055576D01*
X6172490Y7063718D01*
X6151397Y7066495D01*
X6040603D01*
X6019510Y7063718D01*
X5999855Y7055576D01*
X5982977Y7042625D01*
X5970026Y7025747D01*
X5961885Y7006092D01*
X5959108Y6985000D01*
X5961885Y6963908D01*
X5970026Y6944253D01*
X5982977Y6927375D01*
X5999855Y6914424D01*
X6019510Y6906282D01*
X6040603Y6903505D01*
X6151397D01*
X6172490Y6906282D01*
X6192145Y6914424D01*
X6209023Y6927375D01*
X6213497Y6933205D01*
X6477000D01*
X6496821Y6937147D01*
X6513625Y6948375D01*
X6640625Y7075375D01*
X6651853Y7092179D01*
X6655795Y7112000D01*
Y7365999D01*
X6655795Y7366000D01*
X6651853Y7385821D01*
X6640625Y7402625D01*
X6392576Y7650673D01*
X6392575Y7650674D01*
X6386624Y7656625D01*
X6369821Y7667853D01*
X6349999Y7671795D01*
D02*
G37*
G36*
X2794000Y6604658D02*
X2774108Y6602039D01*
X2755571Y6594361D01*
X2739653Y6582147D01*
X2736850Y6578493D01*
X2724150D01*
X2721347Y6582147D01*
X2705429Y6594361D01*
X2686892Y6602039D01*
X2667000Y6604658D01*
X2647108Y6602039D01*
X2628571Y6594361D01*
X2612653Y6582147D01*
X2600439Y6566229D01*
X2592761Y6547692D01*
X2590142Y6527800D01*
Y6426200D01*
X2592761Y6406308D01*
X2600439Y6387771D01*
X2612653Y6371853D01*
X2615205Y6369896D01*
Y5863454D01*
X2503375Y5751625D01*
X2492147Y5734821D01*
X2488205Y5715000D01*
Y5547490D01*
X2478108Y5541660D01*
X2459340Y5522892D01*
X2446070Y5499907D01*
X2439200Y5474270D01*
Y5447730D01*
X2446070Y5422093D01*
X2459340Y5399108D01*
X2478108Y5380340D01*
X2501093Y5367070D01*
X2526730Y5360200D01*
X2553270D01*
X2578907Y5367070D01*
X2601892Y5380340D01*
X2620660Y5399108D01*
X2633930Y5422093D01*
X2640800Y5447730D01*
Y5474270D01*
X2633930Y5499907D01*
X2620660Y5522892D01*
X2601892Y5541660D01*
X2591795Y5547490D01*
Y5693546D01*
X2703625Y5805375D01*
X2714853Y5822179D01*
X2718795Y5842000D01*
Y6369896D01*
X2721346Y6371853D01*
X2735345Y6371954D01*
X2742205Y6365025D01*
Y5547490D01*
X2732108Y5541660D01*
X2713340Y5522892D01*
X2700070Y5499907D01*
X2693200Y5474270D01*
Y5447730D01*
X2700070Y5422093D01*
X2713340Y5399108D01*
X2732108Y5380340D01*
X2755093Y5367070D01*
X2780730Y5360200D01*
X2807270D01*
X2832907Y5367070D01*
X2855892Y5380340D01*
X2874660Y5399108D01*
X2887930Y5422093D01*
X2894800Y5447730D01*
Y5474270D01*
X2887930Y5499907D01*
X2874660Y5522892D01*
X2855892Y5541660D01*
X2845795Y5547490D01*
Y6369896D01*
X2848347Y6371853D01*
X2860561Y6387771D01*
X2868239Y6406308D01*
X2870858Y6426200D01*
Y6527800D01*
X2868239Y6547692D01*
X2860561Y6566229D01*
X2848347Y6582147D01*
X2832429Y6594361D01*
X2813892Y6602039D01*
X2794000Y6604658D01*
D02*
G37*
G36*
X6151397Y6558495D02*
X6040603D01*
X6019510Y6555718D01*
X5999855Y6547576D01*
X5982977Y6534625D01*
X5978503Y6528795D01*
X5461000D01*
X5441179Y6524853D01*
X5424375Y6513625D01*
X5058546Y6147795D01*
X4318001D01*
X4318000Y6147795D01*
X4298179Y6143853D01*
X4281375Y6132625D01*
X4281375Y6132624D01*
X4027375Y5878625D01*
X4016147Y5861821D01*
X4012205Y5842000D01*
Y5547490D01*
X4002108Y5541660D01*
X3983340Y5522892D01*
X3970070Y5499907D01*
X3963200Y5474270D01*
Y5447730D01*
X3970070Y5422093D01*
X3983340Y5399108D01*
X4002108Y5380340D01*
X4025093Y5367070D01*
X4050730Y5360200D01*
X4077270D01*
X4102907Y5367070D01*
X4125892Y5380340D01*
X4144660Y5399108D01*
X4157930Y5422093D01*
X4164800Y5447730D01*
Y5474270D01*
X4157930Y5499907D01*
X4144660Y5522892D01*
X4125892Y5541660D01*
X4115795Y5547490D01*
Y5820546D01*
X4339454Y6044205D01*
X5080000D01*
X5099821Y6048147D01*
X5116625Y6059375D01*
X5482454Y6425205D01*
X5978503D01*
X5982977Y6419375D01*
X5999855Y6406424D01*
X6019510Y6398282D01*
X6040603Y6395505D01*
X6151397D01*
X6172490Y6398282D01*
X6192145Y6406424D01*
X6209023Y6419375D01*
X6221974Y6436253D01*
X6230115Y6455908D01*
X6232892Y6477000D01*
X6230115Y6498092D01*
X6221974Y6517747D01*
X6209023Y6534625D01*
X6192145Y6547576D01*
X6172490Y6555718D01*
X6151397Y6558495D01*
D02*
G37*
G36*
Y6304495D02*
X6040603D01*
X6019510Y6301718D01*
X5999855Y6293576D01*
X5982977Y6280625D01*
X5978503Y6274795D01*
X5588000D01*
X5568179Y6270853D01*
X5551375Y6259625D01*
X5185546Y5893795D01*
X4572001D01*
X4572000Y5893795D01*
X4552179Y5889853D01*
X4535375Y5878625D01*
X4535375Y5878624D01*
X4281375Y5624625D01*
X4270147Y5607821D01*
X4266205Y5588000D01*
Y5547490D01*
X4256108Y5541660D01*
X4237340Y5522892D01*
X4224070Y5499907D01*
X4217200Y5474270D01*
Y5447730D01*
X4224070Y5422093D01*
X4237340Y5399108D01*
X4256108Y5380340D01*
X4279093Y5367070D01*
X4304730Y5360200D01*
X4331270D01*
X4356907Y5367070D01*
X4379892Y5380340D01*
X4398660Y5399108D01*
X4411930Y5422093D01*
X4418800Y5447730D01*
Y5474270D01*
X4411930Y5499907D01*
X4398660Y5522892D01*
X4379892Y5541660D01*
X4369795Y5547490D01*
Y5566546D01*
X4593454Y5790205D01*
X5207000D01*
X5226821Y5794147D01*
X5243625Y5805375D01*
X5609454Y6171205D01*
X5978503D01*
X5982977Y6165375D01*
X5999855Y6152424D01*
X6019510Y6144282D01*
X6040603Y6141505D01*
X6151397D01*
X6172490Y6144282D01*
X6192145Y6152424D01*
X6209023Y6165375D01*
X6221974Y6182253D01*
X6230115Y6201908D01*
X6232892Y6223000D01*
X6230115Y6244092D01*
X6221974Y6263747D01*
X6209023Y6280625D01*
X6192145Y6293576D01*
X6172490Y6301718D01*
X6151397Y6304495D01*
D02*
G37*
G36*
X1016000Y5851892D02*
X994908Y5849115D01*
X975253Y5840974D01*
X961055Y5830080D01*
X952500Y5828860D01*
X943945Y5830080D01*
X929747Y5840974D01*
X910092Y5849115D01*
X889000Y5851892D01*
X867908Y5849115D01*
X848253Y5840974D01*
X831375Y5828023D01*
X818424Y5811145D01*
X810282Y5791490D01*
X807505Y5770397D01*
Y5659603D01*
X810282Y5638510D01*
X818424Y5618855D01*
X831375Y5601977D01*
X848253Y5589026D01*
X867908Y5580885D01*
X889000Y5578108D01*
X910092Y5580885D01*
X929747Y5589026D01*
X943945Y5599920D01*
X952500Y5601140D01*
X961055Y5599920D01*
X975253Y5589026D01*
X994908Y5580885D01*
X1016000Y5578108D01*
X1037092Y5580885D01*
X1056747Y5589026D01*
X1073625Y5601977D01*
X1086576Y5618855D01*
X1094718Y5638510D01*
X1097495Y5659603D01*
Y5770397D01*
X1094718Y5791490D01*
X1086576Y5811145D01*
X1073625Y5828023D01*
X1056747Y5840974D01*
X1037092Y5849115D01*
X1016000Y5851892D01*
D02*
G37*
G36*
X7633270Y5561800D02*
X7606730D01*
X7581093Y5554930D01*
X7558108Y5541660D01*
X7539340Y5522892D01*
X7526070Y5499907D01*
X7519200Y5474270D01*
Y5447730D01*
X7526070Y5422093D01*
X7539340Y5399108D01*
X7558108Y5380340D01*
X7581093Y5367070D01*
X7606730Y5360200D01*
X7633270D01*
X7658907Y5367070D01*
X7681892Y5380340D01*
X7700660Y5399108D01*
X7713930Y5422093D01*
X7720800Y5447730D01*
Y5474270D01*
X7713930Y5499907D01*
X7700660Y5522892D01*
X7681892Y5541660D01*
X7658907Y5554930D01*
X7633270Y5561800D01*
D02*
G37*
G36*
X7379270D02*
X7352730D01*
X7327093Y5554930D01*
X7304108Y5541660D01*
X7285340Y5522892D01*
X7272070Y5499907D01*
X7265200Y5474270D01*
Y5447730D01*
X7272070Y5422093D01*
X7285340Y5399108D01*
X7304108Y5380340D01*
X7327093Y5367070D01*
X7352730Y5360200D01*
X7379270D01*
X7404907Y5367070D01*
X7427892Y5380340D01*
X7446660Y5399108D01*
X7459930Y5422093D01*
X7466800Y5447730D01*
Y5474270D01*
X7459930Y5499907D01*
X7446660Y5522892D01*
X7427892Y5541660D01*
X7404907Y5554930D01*
X7379270Y5561800D01*
D02*
G37*
G36*
X7125270D02*
X7098730D01*
X7073093Y5554930D01*
X7050108Y5541660D01*
X7031340Y5522892D01*
X7018070Y5499907D01*
X7011200Y5474270D01*
Y5447730D01*
X7018070Y5422093D01*
X7031340Y5399108D01*
X7050108Y5380340D01*
X7073093Y5367070D01*
X7098730Y5360200D01*
X7125270D01*
X7150907Y5367070D01*
X7173892Y5380340D01*
X7192660Y5399108D01*
X7205930Y5422093D01*
X7212800Y5447730D01*
Y5474270D01*
X7205930Y5499907D01*
X7192660Y5522892D01*
X7173892Y5541660D01*
X7150907Y5554930D01*
X7125270Y5561800D01*
D02*
G37*
G36*
X6871270D02*
X6844730D01*
X6819093Y5554930D01*
X6796108Y5541660D01*
X6777340Y5522892D01*
X6764070Y5499907D01*
X6757200Y5474270D01*
Y5447730D01*
X6764070Y5422093D01*
X6777340Y5399108D01*
X6796108Y5380340D01*
X6819093Y5367070D01*
X6844730Y5360200D01*
X6871270D01*
X6896907Y5367070D01*
X6919892Y5380340D01*
X6938660Y5399108D01*
X6951930Y5422093D01*
X6958800Y5447730D01*
Y5474270D01*
X6951930Y5499907D01*
X6938660Y5522892D01*
X6919892Y5541660D01*
X6896907Y5554930D01*
X6871270Y5561800D01*
D02*
G37*
G36*
X6617270D02*
X6590730D01*
X6565093Y5554930D01*
X6542108Y5541660D01*
X6523340Y5522892D01*
X6510070Y5499907D01*
X6503200Y5474270D01*
Y5447730D01*
X6510070Y5422093D01*
X6523340Y5399108D01*
X6542108Y5380340D01*
X6565093Y5367070D01*
X6590730Y5360200D01*
X6617270D01*
X6642907Y5367070D01*
X6665892Y5380340D01*
X6684660Y5399108D01*
X6697930Y5422093D01*
X6704800Y5447730D01*
Y5474270D01*
X6697930Y5499907D01*
X6684660Y5522892D01*
X6665892Y5541660D01*
X6642907Y5554930D01*
X6617270Y5561800D01*
D02*
G37*
G36*
X6363270D02*
X6336730D01*
X6311093Y5554930D01*
X6288108Y5541660D01*
X6269340Y5522892D01*
X6256070Y5499907D01*
X6249200Y5474270D01*
Y5447730D01*
X6256070Y5422093D01*
X6269340Y5399108D01*
X6288108Y5380340D01*
X6311093Y5367070D01*
X6336730Y5360200D01*
X6363270D01*
X6388907Y5367070D01*
X6411892Y5380340D01*
X6430660Y5399108D01*
X6443930Y5422093D01*
X6450800Y5447730D01*
Y5474270D01*
X6443930Y5499907D01*
X6430660Y5522892D01*
X6411892Y5541660D01*
X6388907Y5554930D01*
X6363270Y5561800D01*
D02*
G37*
G36*
X6109270D02*
X6082730D01*
X6057093Y5554930D01*
X6034108Y5541660D01*
X6015340Y5522892D01*
X6002070Y5499907D01*
X5995200Y5474270D01*
Y5447730D01*
X6002070Y5422093D01*
X6015340Y5399108D01*
X6034108Y5380340D01*
X6057093Y5367070D01*
X6082730Y5360200D01*
X6109270D01*
X6134907Y5367070D01*
X6157892Y5380340D01*
X6176660Y5399108D01*
X6189930Y5422093D01*
X6196800Y5447730D01*
Y5474270D01*
X6189930Y5499907D01*
X6176660Y5522892D01*
X6157892Y5541660D01*
X6134907Y5554930D01*
X6109270Y5561800D01*
D02*
G37*
G36*
X5855270D02*
X5828730D01*
X5803093Y5554930D01*
X5780108Y5541660D01*
X5761340Y5522892D01*
X5748070Y5499907D01*
X5741200Y5474270D01*
Y5447730D01*
X5748070Y5422093D01*
X5761340Y5399108D01*
X5780108Y5380340D01*
X5803093Y5367070D01*
X5828730Y5360200D01*
X5855270D01*
X5880907Y5367070D01*
X5903892Y5380340D01*
X5922660Y5399108D01*
X5935930Y5422093D01*
X5942800Y5447730D01*
Y5474270D01*
X5935930Y5499907D01*
X5922660Y5522892D01*
X5903892Y5541660D01*
X5880907Y5554930D01*
X5855270Y5561800D01*
D02*
G37*
G36*
X5601270D02*
X5574730D01*
X5549093Y5554930D01*
X5526108Y5541660D01*
X5507340Y5522892D01*
X5494070Y5499907D01*
X5487200Y5474270D01*
Y5447730D01*
X5494070Y5422093D01*
X5507340Y5399108D01*
X5526108Y5380340D01*
X5549093Y5367070D01*
X5574730Y5360200D01*
X5601270D01*
X5626907Y5367070D01*
X5649892Y5380340D01*
X5668660Y5399108D01*
X5681930Y5422093D01*
X5688800Y5447730D01*
Y5474270D01*
X5681930Y5499907D01*
X5668660Y5522892D01*
X5649892Y5541660D01*
X5626907Y5554930D01*
X5601270Y5561800D01*
D02*
G37*
G36*
X5093270D02*
X5066730D01*
X5041093Y5554930D01*
X5018108Y5541660D01*
X4999340Y5522892D01*
X4986070Y5499907D01*
X4979200Y5474270D01*
Y5447730D01*
X4986070Y5422093D01*
X4999340Y5399108D01*
X5018108Y5380340D01*
X5041093Y5367070D01*
X5066730Y5360200D01*
X5093270D01*
X5118907Y5367070D01*
X5141892Y5380340D01*
X5160660Y5399108D01*
X5173930Y5422093D01*
X5180800Y5447730D01*
Y5474270D01*
X5173930Y5499907D01*
X5160660Y5522892D01*
X5141892Y5541660D01*
X5118907Y5554930D01*
X5093270Y5561800D01*
D02*
G37*
G36*
X4839270D02*
X4812730D01*
X4787093Y5554930D01*
X4764108Y5541660D01*
X4745340Y5522892D01*
X4732070Y5499907D01*
X4725200Y5474270D01*
Y5447730D01*
X4732070Y5422093D01*
X4745340Y5399108D01*
X4764108Y5380340D01*
X4787093Y5367070D01*
X4812730Y5360200D01*
X4839270D01*
X4864907Y5367070D01*
X4887892Y5380340D01*
X4906660Y5399108D01*
X4919930Y5422093D01*
X4926800Y5447730D01*
Y5474270D01*
X4919930Y5499907D01*
X4906660Y5522892D01*
X4887892Y5541660D01*
X4864907Y5554930D01*
X4839270Y5561800D01*
D02*
G37*
G36*
X4585270D02*
X4558730D01*
X4533093Y5554930D01*
X4510108Y5541660D01*
X4491340Y5522892D01*
X4478070Y5499907D01*
X4471200Y5474270D01*
Y5447730D01*
X4478070Y5422093D01*
X4491340Y5399108D01*
X4510108Y5380340D01*
X4533093Y5367070D01*
X4558730Y5360200D01*
X4585270D01*
X4610907Y5367070D01*
X4633892Y5380340D01*
X4652660Y5399108D01*
X4665930Y5422093D01*
X4672800Y5447730D01*
Y5474270D01*
X4665930Y5499907D01*
X4652660Y5522892D01*
X4633892Y5541660D01*
X4610907Y5554930D01*
X4585270Y5561800D01*
D02*
G37*
G36*
X3429000Y6613892D02*
X3407908Y6611115D01*
X3388253Y6602974D01*
X3371375Y6590023D01*
X3358424Y6573145D01*
X3350282Y6553490D01*
X3347505Y6532397D01*
Y6421603D01*
X3350282Y6400510D01*
X3358424Y6380855D01*
X3371375Y6363977D01*
X3377205Y6359503D01*
Y5969000D01*
X3381147Y5949179D01*
X3392375Y5932375D01*
X3504205Y5820546D01*
Y5547490D01*
X3494108Y5541660D01*
X3475340Y5522892D01*
X3462070Y5499907D01*
X3455200Y5474270D01*
Y5447730D01*
X3462070Y5422093D01*
X3475340Y5399108D01*
X3494108Y5380340D01*
X3517093Y5367070D01*
X3542730Y5360200D01*
X3569270D01*
X3594907Y5367070D01*
X3617892Y5380340D01*
X3636660Y5399108D01*
X3649930Y5422093D01*
X3656800Y5447730D01*
Y5474270D01*
X3649930Y5499907D01*
X3636660Y5522892D01*
X3617892Y5541660D01*
X3607795Y5547490D01*
Y5842000D01*
X3603853Y5861821D01*
X3592625Y5878625D01*
X3480795Y5990454D01*
Y6359503D01*
X3486625Y6363977D01*
X3499576Y6380855D01*
X3507718Y6400510D01*
X3510495Y6421603D01*
Y6532397D01*
X3507718Y6553490D01*
X3499576Y6573145D01*
X3486625Y6590023D01*
X3469747Y6602974D01*
X3450092Y6611115D01*
X3429000Y6613892D01*
D02*
G37*
G36*
X3315270Y5561800D02*
X3288730D01*
X3263093Y5554930D01*
X3240108Y5541660D01*
X3221340Y5522892D01*
X3208070Y5499907D01*
X3201200Y5474270D01*
Y5447730D01*
X3208070Y5422093D01*
X3221340Y5399108D01*
X3240108Y5380340D01*
X3263093Y5367070D01*
X3288730Y5360200D01*
X3315270D01*
X3340907Y5367070D01*
X3363892Y5380340D01*
X3382660Y5399108D01*
X3395930Y5422093D01*
X3402800Y5447730D01*
Y5474270D01*
X3395930Y5499907D01*
X3382660Y5522892D01*
X3363892Y5541660D01*
X3340907Y5554930D01*
X3315270Y5561800D01*
D02*
G37*
G36*
X3061270D02*
X3034730D01*
X3009093Y5554930D01*
X2986108Y5541660D01*
X2967340Y5522892D01*
X2954070Y5499907D01*
X2947200Y5474270D01*
Y5447730D01*
X2954070Y5422093D01*
X2967340Y5399108D01*
X2986108Y5380340D01*
X3009093Y5367070D01*
X3034730Y5360200D01*
X3061270D01*
X3086907Y5367070D01*
X3109892Y5380340D01*
X3128660Y5399108D01*
X3141930Y5422093D01*
X3148800Y5447730D01*
Y5474270D01*
X3141930Y5499907D01*
X3128660Y5522892D01*
X3109892Y5541660D01*
X3086907Y5554930D01*
X3061270Y5561800D01*
D02*
G37*
G36*
X2336400D02*
X2235600D01*
X2185200Y5511400D01*
Y5410600D01*
X2235600Y5360200D01*
X2336400D01*
X2386800Y5410600D01*
Y5511400D01*
X2336400Y5561800D01*
D02*
G37*
G36*
X1792379Y5570220D02*
X1763621D01*
X1735843Y5562777D01*
X1710937Y5548398D01*
X1690602Y5528063D01*
X1676223Y5503157D01*
X1668780Y5475379D01*
Y5446621D01*
X1676223Y5418843D01*
X1690602Y5393937D01*
X1710937Y5373602D01*
X1735843Y5359223D01*
X1763621Y5351780D01*
X1792379D01*
X1820157Y5359223D01*
X1845063Y5373602D01*
X1865398Y5393937D01*
X1879777Y5418843D01*
X1887220Y5446621D01*
Y5475379D01*
X1879777Y5503157D01*
X1865398Y5528063D01*
X1845063Y5548398D01*
X1820157Y5562777D01*
X1792379Y5570220D01*
D02*
G37*
G36*
X3285637Y5291785D02*
X3264363D01*
X3243813Y5286279D01*
X3225389Y5275642D01*
X3210346Y5260599D01*
X3199709Y5242174D01*
X3194202Y5221625D01*
Y5200351D01*
X3199709Y5179801D01*
X3210346Y5161377D01*
X3225389Y5146334D01*
X3243813Y5135697D01*
X3264363Y5130190D01*
X3285637D01*
X3306186Y5135697D01*
X3324611Y5146334D01*
X3339654Y5161377D01*
X3350291Y5179801D01*
X3355797Y5200351D01*
Y5221625D01*
X3350291Y5242174D01*
X3339654Y5260599D01*
X3324611Y5275642D01*
X3306186Y5286279D01*
X3285637Y5291785D01*
D02*
G37*
G36*
X3085637D02*
X3064363D01*
X3043814Y5286279D01*
X3025389Y5275642D01*
X3010346Y5260599D01*
X2999709Y5242174D01*
X2994203Y5221625D01*
Y5200351D01*
X2999709Y5179801D01*
X3010346Y5161377D01*
X3025389Y5146334D01*
X3043814Y5135697D01*
X3064363Y5130190D01*
X3085637D01*
X3106187Y5135697D01*
X3124611Y5146334D01*
X3139654Y5161377D01*
X3150291Y5179801D01*
X3155798Y5200351D01*
Y5221625D01*
X3150291Y5242174D01*
X3139654Y5260599D01*
X3124611Y5275642D01*
X3106187Y5286279D01*
X3085637Y5291785D01*
D02*
G37*
G36*
X6363270Y5307800D02*
X6336730D01*
X6311093Y5300930D01*
X6288108Y5287660D01*
X6269340Y5268892D01*
X6256070Y5245907D01*
X6249200Y5220270D01*
Y5193730D01*
X6256070Y5168093D01*
X6269340Y5145108D01*
X6288108Y5126340D01*
X6311093Y5113070D01*
X6336730Y5106200D01*
X6363270D01*
X6388907Y5113070D01*
X6411892Y5126340D01*
X6430660Y5145108D01*
X6443930Y5168093D01*
X6450800Y5193730D01*
Y5220270D01*
X6443930Y5245907D01*
X6430660Y5268892D01*
X6411892Y5287660D01*
X6388907Y5300930D01*
X6363270Y5307800D01*
D02*
G37*
G36*
X2045270D02*
X2018730D01*
X1993093Y5300930D01*
X1970108Y5287660D01*
X1951340Y5268892D01*
X1938070Y5245907D01*
X1931200Y5220270D01*
Y5193730D01*
X1938070Y5168093D01*
X1951340Y5145108D01*
X1970108Y5126340D01*
X1993093Y5113070D01*
X2018730Y5106200D01*
X2045270D01*
X2070907Y5113070D01*
X2093892Y5126340D01*
X2112660Y5145108D01*
X2125930Y5168093D01*
X2132800Y5193730D01*
Y5220270D01*
X2125930Y5245907D01*
X2112660Y5268892D01*
X2093892Y5287660D01*
X2070907Y5300930D01*
X2045270Y5307800D01*
D02*
G37*
G36*
X3285637Y5091786D02*
X3264363D01*
X3243813Y5086279D01*
X3225389Y5075642D01*
X3210346Y5060599D01*
X3199709Y5042175D01*
X3194202Y5021625D01*
Y5000351D01*
X3199709Y4979802D01*
X3210346Y4961377D01*
X3225389Y4946334D01*
X3243813Y4935697D01*
X3264363Y4930191D01*
X3285637D01*
X3306186Y4935697D01*
X3324611Y4946334D01*
X3339654Y4961377D01*
X3350291Y4979802D01*
X3355797Y5000351D01*
Y5021625D01*
X3350291Y5042175D01*
X3339654Y5060599D01*
X3324611Y5075642D01*
X3306186Y5086279D01*
X3285637Y5091786D01*
D02*
G37*
G36*
X3085637D02*
X3064363D01*
X3043814Y5086279D01*
X3025389Y5075642D01*
X3010346Y5060599D01*
X2999709Y5042175D01*
X2994203Y5021625D01*
Y5000351D01*
X2999709Y4979802D01*
X3010346Y4961377D01*
X3025389Y4946334D01*
X3043814Y4935697D01*
X3064363Y4930191D01*
X3085637D01*
X3106187Y4935697D01*
X3124611Y4946334D01*
X3139654Y4961377D01*
X3150291Y4979802D01*
X3155798Y5000351D01*
Y5021625D01*
X3150291Y5042175D01*
X3139654Y5060599D01*
X3124611Y5075642D01*
X3106187Y5086279D01*
X3085637Y5091786D01*
D02*
G37*
G36*
X6363270Y5053800D02*
X6336730D01*
X6311093Y5046930D01*
X6288108Y5033660D01*
X6269340Y5014892D01*
X6256070Y4991907D01*
X6249200Y4966270D01*
Y4939730D01*
X6256070Y4914093D01*
X6269340Y4891108D01*
X6288108Y4872340D01*
X6311093Y4859070D01*
X6336730Y4852200D01*
X6363270D01*
X6388907Y4859070D01*
X6411892Y4872340D01*
X6430660Y4891108D01*
X6443930Y4914093D01*
X6450800Y4939730D01*
Y4966270D01*
X6443930Y4991907D01*
X6430660Y5014892D01*
X6411892Y5033660D01*
X6388907Y5046930D01*
X6363270Y5053800D01*
D02*
G37*
G36*
X3285637Y4891786D02*
X3264363D01*
X3243813Y4886280D01*
X3225389Y4875643D01*
X3210346Y4860599D01*
X3199709Y4842175D01*
X3194202Y4821626D01*
Y4800351D01*
X3199709Y4779802D01*
X3210346Y4761378D01*
X3225389Y4746335D01*
X3243813Y4735697D01*
X3264363Y4730191D01*
X3285637D01*
X3306186Y4735697D01*
X3324611Y4746335D01*
X3339654Y4761378D01*
X3350291Y4779802D01*
X3355797Y4800351D01*
Y4821626D01*
X3350291Y4842175D01*
X3339654Y4860599D01*
X3324611Y4875643D01*
X3306186Y4886280D01*
X3285637Y4891786D01*
D02*
G37*
G36*
X3085637D02*
X3064363D01*
X3043814Y4886280D01*
X3025389Y4875643D01*
X3010346Y4860599D01*
X2999709Y4842175D01*
X2994203Y4821626D01*
Y4800351D01*
X2999709Y4779802D01*
X3010346Y4761378D01*
X3025389Y4746335D01*
X3043814Y4735697D01*
X3064363Y4730191D01*
X3085637D01*
X3106187Y4735697D01*
X3124611Y4746335D01*
X3139654Y4761378D01*
X3150291Y4779802D01*
X3155798Y4800351D01*
Y4821626D01*
X3150291Y4842175D01*
X3139654Y4860599D01*
X3124611Y4875643D01*
X3106187Y4886280D01*
X3085637Y4891786D01*
D02*
G37*
G36*
X1814283Y4899800D02*
X1787742D01*
X1762105Y4892930D01*
X1739120Y4879660D01*
X1720352Y4860892D01*
X1707082Y4837907D01*
X1700212Y4812270D01*
Y4785729D01*
X1707082Y4760093D01*
X1720352Y4737107D01*
X1739120Y4718340D01*
X1760911Y4705759D01*
X1761958Y4699000D01*
X1760911Y4692241D01*
X1739120Y4679660D01*
X1720352Y4660893D01*
X1707082Y4637907D01*
X1700212Y4612271D01*
Y4585730D01*
X1707082Y4560093D01*
X1720352Y4537108D01*
X1739120Y4518340D01*
X1762105Y4505070D01*
X1787742Y4498200D01*
X1814283D01*
X1839920Y4505070D01*
X1862905Y4518340D01*
X1881672Y4537108D01*
X1894943Y4560093D01*
X1901812Y4585730D01*
Y4612271D01*
X1894943Y4637907D01*
X1881672Y4660893D01*
X1862905Y4679660D01*
X1841114Y4692241D01*
X1840067Y4699000D01*
X1841114Y4705759D01*
X1862905Y4718340D01*
X1881672Y4737107D01*
X1894943Y4760093D01*
X1901812Y4785729D01*
Y4812270D01*
X1894943Y4837907D01*
X1881672Y4860892D01*
X1862905Y4879660D01*
X1839920Y4892930D01*
X1814283Y4899800D01*
D02*
G37*
G36*
X6400400Y4545800D02*
X6299600D01*
X6249200Y4495400D01*
Y4394600D01*
X6299600Y4344200D01*
X6400400D01*
X6450800Y4394600D01*
Y4495400D01*
X6400400Y4545800D01*
D02*
G37*
G36*
X2934270Y4337799D02*
X2907730D01*
X2882093Y4330930D01*
X2859108Y4317659D01*
X2840340Y4298892D01*
X2827070Y4275907D01*
X2820200Y4250270D01*
Y4223729D01*
X2827070Y4198092D01*
X2840340Y4175107D01*
X2859108Y4156339D01*
X2882093Y4143069D01*
X2907730Y4136200D01*
X2934270D01*
X2959907Y4143069D01*
X2982892Y4156339D01*
X3001660Y4175107D01*
X3014930Y4198092D01*
X3021800Y4223729D01*
Y4250270D01*
X3014930Y4275907D01*
X3001660Y4298892D01*
X2982892Y4317659D01*
X2959907Y4330930D01*
X2934270Y4337799D01*
D02*
G37*
G36*
X2680270D02*
X2653730D01*
X2628093Y4330930D01*
X2605108Y4317659D01*
X2586340Y4298892D01*
X2573070Y4275907D01*
X2566200Y4250270D01*
Y4223729D01*
X2573070Y4198092D01*
X2586340Y4175107D01*
X2605108Y4156339D01*
X2628093Y4143069D01*
X2653730Y4136200D01*
X2680270D01*
X2705907Y4143069D01*
X2728892Y4156339D01*
X2747660Y4175107D01*
X2760930Y4198092D01*
X2767800Y4223729D01*
Y4250270D01*
X2760930Y4275907D01*
X2747660Y4298892D01*
X2728892Y4317659D01*
X2705907Y4330930D01*
X2680270Y4337799D01*
D02*
G37*
G36*
X2426270D02*
X2399730D01*
X2374093Y4330930D01*
X2351108Y4317659D01*
X2332340Y4298892D01*
X2319070Y4275907D01*
X2312200Y4250270D01*
Y4223729D01*
X2319070Y4198092D01*
X2332340Y4175107D01*
X2351108Y4156339D01*
X2374093Y4143069D01*
X2399730Y4136200D01*
X2426270D01*
X2451907Y4143069D01*
X2474892Y4156339D01*
X2493660Y4175107D01*
X2506930Y4198092D01*
X2513800Y4223729D01*
Y4250270D01*
X2506930Y4275907D01*
X2493660Y4298892D01*
X2474892Y4317659D01*
X2451907Y4330930D01*
X2426270Y4337799D01*
D02*
G37*
G36*
X6363270Y4291800D02*
X6336730D01*
X6311093Y4284930D01*
X6288108Y4271660D01*
X6269340Y4252892D01*
X6256070Y4229907D01*
X6249200Y4204270D01*
Y4177730D01*
X6256070Y4152093D01*
X6269340Y4129108D01*
X6288108Y4110340D01*
X6311093Y4097070D01*
X6336730Y4090200D01*
X6363270D01*
X6388907Y4097070D01*
X6411892Y4110340D01*
X6430660Y4129108D01*
X6443930Y4152093D01*
X6450800Y4177730D01*
Y4204270D01*
X6443930Y4229907D01*
X6430660Y4252892D01*
X6411892Y4271660D01*
X6388907Y4284930D01*
X6363270Y4291800D01*
D02*
G37*
G36*
X7633270Y4037800D02*
X7606730D01*
X7581093Y4030930D01*
X7558108Y4017660D01*
X7539340Y3998892D01*
X7526070Y3975907D01*
X7519200Y3950270D01*
Y3923730D01*
X7526070Y3898093D01*
X7539340Y3875108D01*
X7558108Y3856340D01*
X7581093Y3843070D01*
X7606730Y3836200D01*
X7633270D01*
X7658907Y3843070D01*
X7681892Y3856340D01*
X7700660Y3875108D01*
X7713930Y3898093D01*
X7720800Y3923730D01*
Y3950270D01*
X7713930Y3975907D01*
X7700660Y3998892D01*
X7681892Y4017660D01*
X7658907Y4030930D01*
X7633270Y4037800D01*
D02*
G37*
G36*
X7379270D02*
X7352730D01*
X7327093Y4030930D01*
X7304108Y4017660D01*
X7285340Y3998892D01*
X7272070Y3975907D01*
X7265200Y3950270D01*
Y3923730D01*
X7272070Y3898093D01*
X7285340Y3875108D01*
X7304108Y3856340D01*
X7327093Y3843070D01*
X7352730Y3836200D01*
X7379270D01*
X7404907Y3843070D01*
X7427892Y3856340D01*
X7446660Y3875108D01*
X7459930Y3898093D01*
X7466800Y3923730D01*
Y3950270D01*
X7459930Y3975907D01*
X7446660Y3998892D01*
X7427892Y4017660D01*
X7404907Y4030930D01*
X7379270Y4037800D01*
D02*
G37*
G36*
X7125270D02*
X7098730D01*
X7073093Y4030930D01*
X7050108Y4017660D01*
X7031340Y3998892D01*
X7018070Y3975907D01*
X7011200Y3950270D01*
Y3923730D01*
X7018070Y3898093D01*
X7031340Y3875108D01*
X7050108Y3856340D01*
X7073093Y3843070D01*
X7098730Y3836200D01*
X7125270D01*
X7150907Y3843070D01*
X7173892Y3856340D01*
X7192660Y3875108D01*
X7205930Y3898093D01*
X7212800Y3923730D01*
Y3950270D01*
X7205930Y3975907D01*
X7192660Y3998892D01*
X7173892Y4017660D01*
X7150907Y4030930D01*
X7125270Y4037800D01*
D02*
G37*
G36*
X6871270D02*
X6844730D01*
X6819093Y4030930D01*
X6796108Y4017660D01*
X6777340Y3998892D01*
X6764070Y3975907D01*
X6757200Y3950270D01*
Y3923730D01*
X6764070Y3898093D01*
X6777340Y3875108D01*
X6796108Y3856340D01*
X6819093Y3843070D01*
X6844730Y3836200D01*
X6871270D01*
X6896907Y3843070D01*
X6919892Y3856340D01*
X6938660Y3875108D01*
X6951930Y3898093D01*
X6958800Y3923730D01*
Y3950270D01*
X6951930Y3975907D01*
X6938660Y3998892D01*
X6919892Y4017660D01*
X6896907Y4030930D01*
X6871270Y4037800D01*
D02*
G37*
G36*
X6617270D02*
X6590730D01*
X6565093Y4030930D01*
X6542108Y4017660D01*
X6523340Y3998892D01*
X6510070Y3975907D01*
X6503200Y3950270D01*
Y3923730D01*
X6510070Y3898093D01*
X6523340Y3875108D01*
X6542108Y3856340D01*
X6565093Y3843070D01*
X6590730Y3836200D01*
X6617270D01*
X6642907Y3843070D01*
X6665892Y3856340D01*
X6684660Y3875108D01*
X6697930Y3898093D01*
X6704800Y3923730D01*
Y3950270D01*
X6697930Y3975907D01*
X6684660Y3998892D01*
X6665892Y4017660D01*
X6642907Y4030930D01*
X6617270Y4037800D01*
D02*
G37*
G36*
X6363270D02*
X6336730D01*
X6311093Y4030930D01*
X6288108Y4017660D01*
X6269340Y3998892D01*
X6256070Y3975907D01*
X6249200Y3950270D01*
Y3923730D01*
X6256070Y3898093D01*
X6269340Y3875108D01*
X6288108Y3856340D01*
X6311093Y3843070D01*
X6336730Y3836200D01*
X6363270D01*
X6388907Y3843070D01*
X6411892Y3856340D01*
X6430660Y3875108D01*
X6443930Y3898093D01*
X6450800Y3923730D01*
Y3950270D01*
X6443930Y3975907D01*
X6430660Y3998892D01*
X6411892Y4017660D01*
X6388907Y4030930D01*
X6363270Y4037800D01*
D02*
G37*
G36*
X6109270D02*
X6082730D01*
X6057093Y4030930D01*
X6034108Y4017660D01*
X6015340Y3998892D01*
X6002070Y3975907D01*
X5995200Y3950270D01*
Y3923730D01*
X6002070Y3898093D01*
X6015340Y3875108D01*
X6034108Y3856340D01*
X6057093Y3843070D01*
X6082730Y3836200D01*
X6109270D01*
X6134907Y3843070D01*
X6157892Y3856340D01*
X6176660Y3875108D01*
X6189930Y3898093D01*
X6196800Y3923730D01*
Y3950270D01*
X6189930Y3975907D01*
X6176660Y3998892D01*
X6157892Y4017660D01*
X6134907Y4030930D01*
X6109270Y4037800D01*
D02*
G37*
G36*
X5384400D02*
X5283600D01*
X5233200Y3987400D01*
Y3886600D01*
X5283600Y3836200D01*
X5384400D01*
X5434800Y3886600D01*
Y3987400D01*
X5384400Y4037800D01*
D02*
G37*
G36*
X2553270D02*
X2526730D01*
X2501093Y4030930D01*
X2478108Y4017660D01*
X2459340Y3998892D01*
X2446070Y3975907D01*
X2439200Y3950270D01*
Y3923730D01*
X2442218Y3912467D01*
X1614375Y3084625D01*
X1603147Y3067821D01*
X1599205Y3048000D01*
Y2776220D01*
X1596390D01*
X1541780Y2721610D01*
Y2612390D01*
X1596390Y2557780D01*
X1705610D01*
X1760220Y2612390D01*
Y2721610D01*
X1705610Y2776220D01*
X1702795D01*
Y3026546D01*
X2515467Y3839218D01*
X2526730Y3836200D01*
X2553270D01*
X2578907Y3843070D01*
X2601892Y3856340D01*
X2620660Y3875108D01*
X2633930Y3898093D01*
X2640800Y3923730D01*
Y3950270D01*
X2633930Y3975907D01*
X2620660Y3998892D01*
X2601892Y4017660D01*
X2578907Y4030930D01*
X2553270Y4037800D01*
D02*
G37*
G36*
X2299270D02*
X2272730D01*
X2247093Y4030930D01*
X2224108Y4017660D01*
X2205340Y3998892D01*
X2192070Y3975907D01*
X2185200Y3950270D01*
Y3923730D01*
X2188218Y3912467D01*
X1629546Y3353795D01*
X1524000D01*
X1504179Y3349853D01*
X1487375Y3338625D01*
X1178970Y3030220D01*
X1088390D01*
X1033780Y2975610D01*
Y2866390D01*
X1088390Y2811780D01*
X1197610D01*
X1252220Y2866390D01*
Y2956970D01*
X1545454Y3250205D01*
X1651000D01*
X1670821Y3254147D01*
X1687625Y3265375D01*
X2261467Y3839218D01*
X2272730Y3836200D01*
X2299270D01*
X2324907Y3843070D01*
X2347892Y3856340D01*
X2366660Y3875108D01*
X2379930Y3898093D01*
X2386800Y3923730D01*
Y3950270D01*
X2379930Y3975907D01*
X2366660Y3998892D01*
X2347892Y4017660D01*
X2324907Y4030930D01*
X2299270Y4037800D01*
D02*
G37*
G36*
X2045270D02*
X2018730D01*
X1993093Y4030930D01*
X1970108Y4017660D01*
X1951340Y3998892D01*
X1938070Y3975907D01*
X1931200Y3950270D01*
Y3923730D01*
X1934218Y3912467D01*
X1629546Y3607795D01*
X1016000D01*
X996179Y3603853D01*
X979375Y3592625D01*
X670970Y3284220D01*
X580390D01*
X525780Y3229610D01*
Y3120390D01*
X580390Y3065780D01*
X689610D01*
X744220Y3120390D01*
Y3210970D01*
X1037454Y3504205D01*
X1651000D01*
X1670821Y3508147D01*
X1687625Y3519375D01*
X2007467Y3839218D01*
X2018730Y3836200D01*
X2045270D01*
X2070907Y3843070D01*
X2093892Y3856340D01*
X2112660Y3875108D01*
X2125930Y3898093D01*
X2132800Y3923730D01*
Y3950270D01*
X2125930Y3975907D01*
X2112660Y3998892D01*
X2093892Y4017660D01*
X2070907Y4030930D01*
X2045270Y4037800D01*
D02*
G37*
G36*
X5855270D02*
X5828730D01*
X5803093Y4030930D01*
X5780108Y4017660D01*
X5761340Y3998892D01*
X5748070Y3975907D01*
X5741200Y3950270D01*
Y3923730D01*
X5748070Y3898093D01*
X5761340Y3875108D01*
X5780108Y3856340D01*
X5803093Y3843070D01*
X5828730Y3836200D01*
X5855270D01*
X5866533Y3839218D01*
X6059375Y3646376D01*
X6059375Y3646375D01*
X6076179Y3635147D01*
X6096000Y3631205D01*
X6096001Y3631205D01*
X7344546D01*
X7583375Y3392376D01*
X7583375Y3392375D01*
X7600179Y3381147D01*
X7620000Y3377205D01*
X7620001Y3377205D01*
X7637780D01*
Y3374390D01*
X7692390Y3319780D01*
X7801610D01*
X7856220Y3374390D01*
Y3483610D01*
X7801610Y3538220D01*
X7692390D01*
X7638210Y3484040D01*
X7402625Y3719625D01*
X7385821Y3730853D01*
X7366000Y3734795D01*
X6117454D01*
X5939782Y3912467D01*
X5942800Y3923730D01*
Y3950270D01*
X5935930Y3975907D01*
X5922660Y3998892D01*
X5903892Y4017660D01*
X5880907Y4030930D01*
X5855270Y4037800D01*
D02*
G37*
G36*
X5601270D02*
X5574730D01*
X5549093Y4030930D01*
X5526108Y4017660D01*
X5507340Y3998892D01*
X5494070Y3975907D01*
X5487200Y3950270D01*
Y3923730D01*
X5494070Y3898093D01*
X5507340Y3875108D01*
X5526108Y3856340D01*
X5549093Y3843070D01*
X5574730Y3836200D01*
X5601270D01*
X5612533Y3839218D01*
X6059375Y3392375D01*
X6076179Y3381147D01*
X6096000Y3377205D01*
X6963546D01*
X7129780Y3210971D01*
Y3120390D01*
X7184390Y3065780D01*
X7293610D01*
X7348220Y3120390D01*
Y3229610D01*
X7293610Y3284220D01*
X7203029D01*
X7021625Y3465625D01*
X7004821Y3476853D01*
X6985000Y3480795D01*
X6117454D01*
X5685782Y3912467D01*
X5688800Y3923730D01*
Y3950270D01*
X5681930Y3975907D01*
X5668660Y3998892D01*
X5649892Y4017660D01*
X5626907Y4030930D01*
X5601270Y4037800D01*
D02*
G37*
G36*
X7801610Y3284220D02*
X7692390D01*
X7637780Y3229610D01*
Y3120390D01*
X7692390Y3065780D01*
X7782970D01*
X8036560Y2812190D01*
Y2748280D01*
X8082280Y2702560D01*
X8173720D01*
X8219440Y2748280D01*
Y2839720D01*
X8173720Y2885440D01*
X8109810D01*
X7856220Y3139030D01*
Y3229610D01*
X7801610Y3284220D01*
D02*
G37*
G36*
X689610Y3030220D02*
X580390D01*
X525780Y2975610D01*
Y2885029D01*
X399190Y2758440D01*
X335280D01*
X289560Y2712720D01*
Y2621280D01*
X335280Y2575560D01*
X426720D01*
X472440Y2621280D01*
Y2685190D01*
X599029Y2811780D01*
X689610D01*
X744220Y2866390D01*
Y2975610D01*
X689610Y3030220D01*
D02*
G37*
G36*
X5093270Y4037800D02*
X5066730D01*
X5041093Y4030930D01*
X5018108Y4017660D01*
X4999340Y3998892D01*
X4986070Y3975907D01*
X4979200Y3950270D01*
Y3923730D01*
X4986070Y3898093D01*
X4999340Y3875108D01*
X5018108Y3856340D01*
X5028205Y3850510D01*
Y3556000D01*
X5032147Y3536179D01*
X5043375Y3519375D01*
X5932375Y2630376D01*
X5932375Y2630375D01*
X5949179Y2619147D01*
X5969000Y2615205D01*
X6621780D01*
Y2612390D01*
X6676390Y2557780D01*
X6785610D01*
X6840220Y2612390D01*
Y2721610D01*
X6785610Y2776220D01*
X6676390D01*
X6621780Y2721610D01*
Y2718795D01*
X5990454D01*
X5131795Y3577454D01*
Y3850510D01*
X5141892Y3856340D01*
X5160660Y3875108D01*
X5173930Y3898093D01*
X5180800Y3923730D01*
Y3950270D01*
X5173930Y3975907D01*
X5160660Y3998892D01*
X5141892Y4017660D01*
X5118907Y4030930D01*
X5093270Y4037800D01*
D02*
G37*
G36*
X7293610Y3030220D02*
X7184390D01*
X7129780Y2975610D01*
Y2866390D01*
X7184390Y2811780D01*
X7274970D01*
X7528560Y2558190D01*
Y2494280D01*
X7574280Y2448560D01*
X7665720D01*
X7711440Y2494280D01*
Y2585720D01*
X7665720Y2631440D01*
X7601810D01*
X7348220Y2885030D01*
Y2975610D01*
X7293610Y3030220D01*
D02*
G37*
G36*
X3569270Y4037800D02*
X3542730D01*
X3517093Y4030930D01*
X3494108Y4017660D01*
X3475340Y3998892D01*
X3462070Y3975907D01*
X3455200Y3950270D01*
Y3923730D01*
X3462070Y3898093D01*
X3475340Y3875108D01*
X3494108Y3856340D01*
X3504205Y3850510D01*
Y3302000D01*
X3508147Y3282179D01*
X3519375Y3265375D01*
X4208780Y2575970D01*
Y2485390D01*
X4263390Y2430780D01*
X4372610D01*
X4427220Y2485390D01*
Y2594610D01*
X4372610Y2649220D01*
X4282030D01*
X3607795Y3323454D01*
Y3850510D01*
X3617892Y3856340D01*
X3636660Y3875108D01*
X3649930Y3898093D01*
X3656800Y3923730D01*
Y3950270D01*
X3649930Y3975907D01*
X3636660Y3998892D01*
X3617892Y4017660D01*
X3594907Y4030930D01*
X3569270Y4037800D01*
D02*
G37*
G36*
X1197610Y2776220D02*
X1088390D01*
X1033780Y2721610D01*
Y2631030D01*
X780190Y2377440D01*
X716280D01*
X670560Y2331720D01*
Y2240280D01*
X716280Y2194560D01*
X807720D01*
X853440Y2240280D01*
Y2304190D01*
X1107030Y2557780D01*
X1197610D01*
X1252220Y2612390D01*
Y2721610D01*
X1197610Y2776220D01*
D02*
G37*
G36*
X6785610Y2522220D02*
X6676390D01*
X6621780Y2467610D01*
Y2358390D01*
X6676390Y2303780D01*
X6766970D01*
X7020560Y2050190D01*
Y1986280D01*
X7066280Y1940560D01*
X7157720D01*
X7203440Y1986280D01*
Y2077720D01*
X7157720Y2123440D01*
X7093810D01*
X6840220Y2377030D01*
Y2467610D01*
X6785610Y2522220D01*
D02*
G37*
G36*
X4372610Y2395220D02*
X4263390D01*
X4208780Y2340610D01*
Y2250029D01*
X4082190Y2123440D01*
X4018280D01*
X3972560Y2077720D01*
Y1986280D01*
X4018280Y1940560D01*
X4109720D01*
X4155440Y1986280D01*
Y2050190D01*
X4282029Y2176780D01*
X4372610D01*
X4427220Y2231390D01*
Y2340610D01*
X4372610Y2395220D01*
D02*
G37*
G36*
X3823270Y4037800D02*
X3796730D01*
X3771093Y4030930D01*
X3748108Y4017660D01*
X3729340Y3998892D01*
X3716070Y3975907D01*
X3709200Y3950270D01*
Y3923730D01*
X3716070Y3898093D01*
X3729340Y3875108D01*
X3748108Y3856340D01*
X3758205Y3850510D01*
Y3429000D01*
X3762147Y3409179D01*
X3773375Y3392375D01*
X4520205Y2645546D01*
Y2141220D01*
X4517390D01*
X4462780Y2086610D01*
Y1977390D01*
X4517390Y1922780D01*
X4626610D01*
X4681220Y1977390D01*
Y2086610D01*
X4626610Y2141220D01*
X4623795D01*
Y2666999D01*
X4623795Y2667000D01*
X4619853Y2686821D01*
X4608625Y2703625D01*
X3861795Y3450454D01*
Y3850510D01*
X3871892Y3856340D01*
X3890660Y3875108D01*
X3903930Y3898093D01*
X3910800Y3923730D01*
Y3950270D01*
X3903930Y3975907D01*
X3890660Y3998892D01*
X3871892Y4017660D01*
X3848907Y4030930D01*
X3823270Y4037800D01*
D02*
G37*
G36*
X2807270D02*
X2780730D01*
X2755093Y4030930D01*
X2732108Y4017660D01*
X2713340Y3998892D01*
X2700070Y3975907D01*
X2693200Y3950270D01*
Y3923730D01*
X2700070Y3898093D01*
X2713340Y3875108D01*
X2732108Y3856340D01*
X2742205Y3850510D01*
Y3323454D01*
X2503375Y3084625D01*
X2492147Y3067821D01*
X2488205Y3048000D01*
Y2141220D01*
X2485390D01*
X2430780Y2086610D01*
Y1977390D01*
X2485390Y1922780D01*
X2594610D01*
X2649220Y1977390D01*
Y2086610D01*
X2594610Y2141220D01*
X2591795D01*
Y3026546D01*
X2830624Y3265375D01*
X2830625Y3265375D01*
X2841853Y3282179D01*
X2845795Y3302000D01*
X2845795Y3302001D01*
Y3850510D01*
X2855892Y3856340D01*
X2874660Y3875108D01*
X2887930Y3898093D01*
X2894800Y3923730D01*
Y3950270D01*
X2887930Y3975907D01*
X2874660Y3998892D01*
X2855892Y4017660D01*
X2832907Y4030930D01*
X2807270Y4037800D01*
D02*
G37*
G36*
X1705610Y2522220D02*
X1596390D01*
X1541780Y2467610D01*
Y2377030D01*
X1161190Y1996440D01*
X1097280D01*
X1051560Y1950720D01*
Y1859280D01*
X1097280Y1813560D01*
X1188720D01*
X1234440Y1859280D01*
Y1923190D01*
X1615030Y2303780D01*
X1705610D01*
X1760220Y2358390D01*
Y2467610D01*
X1705610Y2522220D01*
D02*
G37*
G36*
X4585270Y4037800D02*
X4558730D01*
X4533093Y4030930D01*
X4510108Y4017660D01*
X4491340Y3998892D01*
X4478070Y3975907D01*
X4471200Y3950270D01*
Y3923730D01*
X4478070Y3898093D01*
X4491340Y3875108D01*
X4510108Y3856340D01*
X4520205Y3850510D01*
Y3556000D01*
X4524147Y3536179D01*
X4535375Y3519375D01*
X6044205Y2010546D01*
Y1887220D01*
X6041390D01*
X5986780Y1832610D01*
Y1723390D01*
X6041390Y1668780D01*
X6150610D01*
X6205220Y1723390D01*
Y1832610D01*
X6150610Y1887220D01*
X6147795D01*
Y2032000D01*
X6143853Y2051821D01*
X6132625Y2068625D01*
X4623795Y3577454D01*
Y3850510D01*
X4633892Y3856340D01*
X4652660Y3875108D01*
X4665930Y3898093D01*
X4672800Y3923730D01*
Y3950270D01*
X4665930Y3975907D01*
X4652660Y3998892D01*
X4633892Y4017660D01*
X4610907Y4030930D01*
X4585270Y4037800D01*
D02*
G37*
G36*
X4839270D02*
X4812730D01*
X4787093Y4030930D01*
X4764108Y4017660D01*
X4745340Y3998892D01*
X4732070Y3975907D01*
X4725200Y3950270D01*
Y3923730D01*
X4732070Y3898093D01*
X4745340Y3875108D01*
X4764108Y3856340D01*
X4774205Y3850510D01*
Y3556000D01*
X4778147Y3536179D01*
X4789375Y3519375D01*
X6548960Y1759790D01*
X6494780Y1705610D01*
Y1596390D01*
X6549390Y1541780D01*
X6658610D01*
X6713220Y1596390D01*
Y1705610D01*
X6658610Y1760220D01*
X6655795D01*
Y1778000D01*
X6651853Y1797821D01*
X6640625Y1814625D01*
X4877795Y3577454D01*
Y3850510D01*
X4887892Y3856340D01*
X4906660Y3875108D01*
X4919930Y3898093D01*
X4926800Y3923730D01*
Y3950270D01*
X4919930Y3975907D01*
X4906660Y3998892D01*
X4887892Y4017660D01*
X4864907Y4030930D01*
X4839270Y4037800D01*
D02*
G37*
G36*
X4331270D02*
X4304730D01*
X4279093Y4030930D01*
X4256108Y4017660D01*
X4237340Y3998892D01*
X4224070Y3975907D01*
X4217200Y3950270D01*
Y3923730D01*
X4224070Y3898093D01*
X4237340Y3875108D01*
X4256108Y3856340D01*
X4266205Y3850510D01*
Y3556000D01*
X4270147Y3536179D01*
X4281375Y3519375D01*
X5409205Y2391546D01*
Y1760220D01*
X5406390D01*
X5351780Y1705610D01*
Y1596390D01*
X5406390Y1541780D01*
X5515610D01*
X5570220Y1596390D01*
Y1705610D01*
X5515610Y1760220D01*
X5512795D01*
Y2413000D01*
X5508853Y2432821D01*
X5497625Y2449625D01*
X4369795Y3577454D01*
Y3850510D01*
X4379892Y3856340D01*
X4398660Y3875108D01*
X4411930Y3898093D01*
X4418800Y3923730D01*
Y3950270D01*
X4411930Y3975907D01*
X4398660Y3998892D01*
X4379892Y4017660D01*
X4356907Y4030930D01*
X4331270Y4037800D01*
D02*
G37*
G36*
X4626610Y1887220D02*
X4517390D01*
X4462780Y1832610D01*
Y1742029D01*
X4336190Y1615440D01*
X4272280D01*
X4226560Y1569720D01*
Y1478280D01*
X4272280Y1432560D01*
X4363720D01*
X4409440Y1478280D01*
Y1542190D01*
X4536029Y1668780D01*
X4626610D01*
X4681220Y1723390D01*
Y1832610D01*
X4626610Y1887220D01*
D02*
G37*
G36*
X2594610D02*
X2485390D01*
X2430780Y1832610D01*
Y1742029D01*
X2304190Y1615440D01*
X2240280D01*
X2194560Y1569720D01*
Y1478280D01*
X2240280Y1432560D01*
X2331720D01*
X2377440Y1478280D01*
Y1542190D01*
X2504029Y1668780D01*
X2594610D01*
X2649220Y1723390D01*
Y1832610D01*
X2594610Y1887220D01*
D02*
G37*
G36*
X4077270Y4037800D02*
X4050730D01*
X4025093Y4030930D01*
X4002108Y4017660D01*
X3983340Y3998892D01*
X3970070Y3975907D01*
X3963200Y3950270D01*
Y3923730D01*
X3970070Y3898093D01*
X3983340Y3875108D01*
X4002108Y3856340D01*
X4012205Y3850510D01*
Y3556000D01*
X4016147Y3536179D01*
X4027375Y3519375D01*
X4774205Y2772546D01*
Y1633220D01*
X4771390D01*
X4716780Y1578610D01*
Y1469390D01*
X4771390Y1414780D01*
X4880610D01*
X4935220Y1469390D01*
Y1578610D01*
X4880610Y1633220D01*
X4877795D01*
Y2793999D01*
X4877795Y2794000D01*
X4873853Y2813821D01*
X4862625Y2830625D01*
X4115795Y3577454D01*
Y3850510D01*
X4125892Y3856340D01*
X4144660Y3875108D01*
X4157930Y3898093D01*
X4164800Y3923730D01*
Y3950270D01*
X4157930Y3975907D01*
X4144660Y3998892D01*
X4125892Y4017660D01*
X4102907Y4030930D01*
X4077270Y4037800D01*
D02*
G37*
G36*
X3061270D02*
X3034730D01*
X3009093Y4030930D01*
X2986108Y4017660D01*
X2967340Y3998892D01*
X2954070Y3975907D01*
X2947200Y3950270D01*
Y3923730D01*
X2954070Y3898093D01*
X2967340Y3875108D01*
X2986108Y3856340D01*
X2996205Y3850510D01*
Y2434454D01*
X2884375Y2322625D01*
X2873147Y2305821D01*
X2869205Y2286000D01*
Y1633220D01*
X2866390D01*
X2811780Y1578610D01*
Y1469390D01*
X2866390Y1414780D01*
X2975610D01*
X3030220Y1469390D01*
Y1578610D01*
X2975610Y1633220D01*
X2972795D01*
Y2264546D01*
X3084625Y2376375D01*
X3095853Y2393179D01*
X3099795Y2413000D01*
Y3850510D01*
X3109892Y3856340D01*
X3128660Y3875108D01*
X3141930Y3898093D01*
X3148800Y3923730D01*
Y3950270D01*
X3141930Y3975907D01*
X3128660Y3998892D01*
X3109892Y4017660D01*
X3086907Y4030930D01*
X3061270Y4037800D01*
D02*
G37*
G36*
X6150610Y1633220D02*
X6041390D01*
X5986780Y1578610D01*
Y1488029D01*
X5860190Y1361440D01*
X5796280D01*
X5750560Y1315720D01*
Y1224280D01*
X5796280Y1178560D01*
X5887720D01*
X5933440Y1224280D01*
Y1288190D01*
X6060029Y1414780D01*
X6150610D01*
X6205220Y1469390D01*
Y1578610D01*
X6150610Y1633220D01*
D02*
G37*
G36*
X6658610Y1506220D02*
X6549390D01*
X6494780Y1451610D01*
Y1361029D01*
X6368190Y1234440D01*
X6304280D01*
X6258560Y1188720D01*
Y1097280D01*
X6304280Y1051560D01*
X6395720D01*
X6441440Y1097280D01*
Y1161190D01*
X6568029Y1287780D01*
X6658610D01*
X6713220Y1342390D01*
Y1451610D01*
X6658610Y1506220D01*
D02*
G37*
G36*
X5515610D02*
X5406390D01*
X5351780Y1451610D01*
Y1361029D01*
X5225190Y1234440D01*
X5161280D01*
X5115560Y1188720D01*
Y1097280D01*
X5161280Y1051560D01*
X5252720D01*
X5298440Y1097280D01*
Y1161190D01*
X5425029Y1287780D01*
X5515610D01*
X5570220Y1342390D01*
Y1451610D01*
X5515610Y1506220D01*
D02*
G37*
G36*
X4880610Y1379220D02*
X4771390D01*
X4716780Y1324610D01*
Y1234029D01*
X4590190Y1107440D01*
X4526280D01*
X4480560Y1061720D01*
Y970280D01*
X4526280Y924560D01*
X4617720D01*
X4663440Y970280D01*
Y1034190D01*
X4790029Y1160780D01*
X4880610D01*
X4935220Y1215390D01*
Y1324610D01*
X4880610Y1379220D01*
D02*
G37*
G36*
X2975610D02*
X2866390D01*
X2811780Y1324610D01*
Y1234029D01*
X2685190Y1107440D01*
X2621280D01*
X2575560Y1061720D01*
Y970280D01*
X2621280Y924560D01*
X2712720D01*
X2758440Y970280D01*
Y1034190D01*
X2885029Y1160780D01*
X2975610D01*
X3030220Y1215390D01*
Y1324610D01*
X2975610Y1379220D01*
D02*
G37*
G36*
X3315270Y4037800D02*
X3288730D01*
X3263093Y4030930D01*
X3240108Y4017660D01*
X3221340Y3998892D01*
X3208070Y3975907D01*
X3201200Y3950270D01*
Y3923730D01*
X3208070Y3898093D01*
X3221340Y3875108D01*
X3240108Y3856340D01*
X3250205Y3850510D01*
Y1125220D01*
X3247390D01*
X3192780Y1070610D01*
Y961390D01*
X3247390Y906780D01*
X3356610D01*
X3411220Y961390D01*
Y1070610D01*
X3356610Y1125220D01*
X3353795D01*
Y3850510D01*
X3363892Y3856340D01*
X3382660Y3875108D01*
X3395930Y3898093D01*
X3402800Y3923730D01*
Y3950270D01*
X3395930Y3975907D01*
X3382660Y3998892D01*
X3363892Y4017660D01*
X3340907Y4030930D01*
X3315270Y4037800D01*
D02*
G37*
G36*
X3356610Y871220D02*
X3247390D01*
X3192780Y816610D01*
Y726029D01*
X3066190Y599440D01*
X3002280D01*
X2956560Y553720D01*
Y462280D01*
X3002280Y416560D01*
X3093720D01*
X3139440Y462280D01*
Y526190D01*
X3266029Y652780D01*
X3356610D01*
X3411220Y707390D01*
Y816610D01*
X3356610Y871220D01*
D02*
G37*
%LPD*%
D10*
X1143000Y2667000D02*
D03*
Y2921000D02*
D03*
X2921000Y1524000D02*
D03*
Y1270000D02*
D03*
X6731000Y2413000D02*
D03*
Y2667000D02*
D03*
X4572000Y1778000D02*
D03*
Y2032000D02*
D03*
X1651000Y2413000D02*
D03*
Y2667000D02*
D03*
X6604000Y1397000D02*
D03*
Y1651000D02*
D03*
X4318000Y2286000D02*
D03*
Y2540000D02*
D03*
X6096000Y1524000D02*
D03*
Y1778000D02*
D03*
X3302000Y762000D02*
D03*
Y1016000D02*
D03*
X7747000Y3175000D02*
D03*
Y3429000D02*
D03*
X5461000Y1397000D02*
D03*
Y1651000D02*
D03*
X7239000Y2921000D02*
D03*
Y3175000D02*
D03*
X4826000Y1270000D02*
D03*
Y1524000D02*
D03*
X2540000Y1778000D02*
D03*
Y2032000D02*
D03*
X635000Y2921000D02*
D03*
Y3175000D02*
D03*
D11*
X3429000Y6477000D02*
D03*
X3683000D02*
D03*
X3937000D02*
D03*
X4191000D02*
D03*
X4445000D02*
D03*
X1016000Y5715000D02*
D03*
X889000D02*
D03*
D12*
X5207000Y381000D02*
D03*
Y1143000D02*
D03*
X1143000Y1905000D02*
D03*
Y1143000D02*
D03*
X6350000D02*
D03*
Y381000D02*
D03*
X4064000Y2032000D02*
D03*
Y1270000D02*
D03*
X762000Y2286000D02*
D03*
Y1524000D02*
D03*
X5842000Y1270000D02*
D03*
Y508000D02*
D03*
X381000Y2667000D02*
D03*
Y1905000D02*
D03*
X8128000Y2794000D02*
D03*
Y2032000D02*
D03*
X7620000Y2540000D02*
D03*
Y1778000D02*
D03*
X4572000Y1016000D02*
D03*
Y254000D02*
D03*
X7112000Y2032000D02*
D03*
Y1270000D02*
D03*
X4318000Y1524000D02*
D03*
Y762000D02*
D03*
D13*
X4572000Y7366000D02*
D03*
X4318000D02*
D03*
X4064000D02*
D03*
D14*
X2794000Y6477000D02*
D03*
X2667000D02*
D03*
X2540000D02*
D03*
X2413000D02*
D03*
D15*
X6096000Y6223000D02*
D03*
Y6477000D02*
D03*
Y6731000D02*
D03*
Y6985000D02*
D03*
Y7239000D02*
D03*
D16*
X3275000Y4810989D02*
D03*
Y5010988D02*
D03*
Y5210988D02*
D03*
X3075000Y4810989D02*
D03*
Y5010988D02*
D03*
Y5210988D02*
D03*
D17*
X1801012Y4599000D02*
D03*
Y4799000D02*
D03*
X5588000Y3937000D02*
D03*
X3429000Y4236999D02*
D03*
X3175000D02*
D03*
X2921000D02*
D03*
X2667000D02*
D03*
X2413000D02*
D03*
X7620000Y5461000D02*
D03*
X7366000D02*
D03*
X7112000D02*
D03*
X6858000D02*
D03*
X6604000D02*
D03*
X6350000D02*
D03*
X6096000D02*
D03*
X5842000D02*
D03*
X5588000D02*
D03*
X7620000Y3937000D02*
D03*
X7366000D02*
D03*
X7112000D02*
D03*
X6858000D02*
D03*
X6604000D02*
D03*
X6350000D02*
D03*
X6096000D02*
D03*
X5842000D02*
D03*
X2540000Y5461000D02*
D03*
X2794000D02*
D03*
X3048000D02*
D03*
X3302000D02*
D03*
X3556000D02*
D03*
X3810000D02*
D03*
X4064000D02*
D03*
X4318000D02*
D03*
X4572000D02*
D03*
X4826000D02*
D03*
X2032000Y5207000D02*
D03*
X4826000Y3937000D02*
D03*
X4572000D02*
D03*
X4318000D02*
D03*
X4064000D02*
D03*
X3810000D02*
D03*
X3556000D02*
D03*
X3302000D02*
D03*
X3048000D02*
D03*
X2794000D02*
D03*
X2540000D02*
D03*
X2286000D02*
D03*
X2032000D02*
D03*
X5080000D02*
D03*
Y5461000D02*
D03*
X6350000Y5207000D02*
D03*
Y4953000D02*
D03*
Y4191000D02*
D03*
D18*
X5334000Y5461000D02*
D03*
X6350000Y4699000D02*
D03*
X1778000Y3937000D02*
D03*
D19*
X5334000D02*
D03*
X6350000Y4445000D02*
D03*
X2286000Y5461000D02*
D03*
D20*
X1778000D02*
D03*
D21*
X2032000D02*
D03*
D22*
X3048000Y508000D02*
D03*
X2286000D02*
D03*
X2667000Y1016000D02*
D03*
X1905000D02*
D03*
X2286000Y1524000D02*
D03*
X1524000D02*
D03*
D23*
X1651000Y3556000D02*
X2032000Y3937000D01*
X1016000Y3556000D02*
X1651000D01*
X635000Y3175000D02*
X1016000Y3556000D01*
X1143000Y2921000D02*
X1524000Y3302000D01*
X1651000D02*
X2286000Y3937000D01*
X1524000Y3302000D02*
X1651000D01*
Y3048000D02*
X2540000Y3937000D01*
X1651000Y2667000D02*
Y3048000D01*
X2540000D02*
X2794000Y3302000D01*
X2540000Y2032000D02*
Y3048000D01*
X2794000Y3302000D02*
Y3937000D01*
X2921000Y2286000D02*
X3048000Y2413000D01*
Y3937000D01*
X2921000Y1524000D02*
Y2286000D01*
X3302000Y1016000D02*
Y3937000D01*
X3556000Y3302000D02*
Y3937000D01*
Y3302000D02*
X4318000Y2540000D01*
X3810000Y3429000D02*
Y3937000D01*
X4064000Y3556000D02*
Y3937000D01*
X4572000Y2032000D02*
Y2667000D01*
X3810000Y3429000D02*
X4572000Y2667000D01*
X4064000Y3556000D02*
X4826000Y2794000D01*
Y1524000D02*
Y2794000D01*
X5461000Y1651000D02*
Y2413000D01*
X4318000Y3556000D02*
X5461000Y2413000D01*
X4318000Y3556000D02*
Y3937000D01*
X4572000Y3556000D02*
Y3937000D01*
X5588000D02*
X6096000Y3429000D01*
X6985000D01*
X7239000Y3175000D01*
X7366000Y3683000D02*
X7620000Y3429000D01*
X7747000D01*
X6096000Y3683000D02*
X7366000D01*
X5842000Y3937000D02*
X6096000Y3683000D01*
X7747000Y3175000D02*
X8128000Y2794000D01*
X7239000Y2921000D02*
X7620000Y2540000D01*
X6731000Y2413000D02*
X7112000Y2032000D01*
X6350000Y1143000D02*
X6604000Y1397000D01*
X5842000Y1270000D02*
X6096000Y1524000D01*
X5207000Y1143000D02*
X5461000Y1397000D01*
X4572000Y1016000D02*
X4826000Y1270000D01*
X4318000Y1524000D02*
X4572000Y1778000D01*
X4064000Y2032000D02*
X4318000Y2286000D01*
X3048000Y508000D02*
X3302000Y762000D01*
X2667000Y1016000D02*
X2921000Y1270000D01*
X2286000Y1524000D02*
X2540000Y1778000D01*
X1143000Y1905000D02*
X1651000Y2413000D01*
X762000Y2286000D02*
X1143000Y2667000D01*
X381000D02*
X635000Y2921000D01*
X2794000Y5461000D02*
Y6477000D01*
X2540000Y5461000D02*
Y5715000D01*
X2667000Y5842000D01*
Y6477000D01*
X3429000Y5969000D02*
Y6477000D01*
Y5969000D02*
X3556000Y5842000D01*
Y5461000D02*
Y5842000D01*
X3810000Y5461000D02*
Y5842000D01*
X3683000Y5969000D02*
X3810000Y5842000D01*
X3683000Y5969000D02*
Y6477000D01*
X4572000Y6858000D02*
X5207000D01*
X4445000Y6731000D02*
X4572000Y6858000D01*
X5207000D02*
X5588000Y7239000D01*
X6096000D01*
X4445000Y6477000D02*
Y6731000D01*
X6604000Y7112000D02*
Y7366000D01*
X6477000Y6985000D02*
X6604000Y7112000D01*
X6096000Y6985000D02*
X6477000D01*
X5080000Y6096000D02*
X5461000Y6477000D01*
X6096000D01*
X5588000Y6223000D02*
X6096000D01*
X4572000Y5842000D02*
X5207000D01*
X5588000Y6223000D01*
X4318000Y5588000D02*
X4572000Y5842000D01*
X4318000Y5461000D02*
Y5588000D01*
X4572000Y3556000D02*
X6096000Y2032000D01*
Y1778000D02*
Y2032000D01*
X6604000Y1651000D02*
Y1778000D01*
X4826000Y3556000D02*
Y3937000D01*
Y3556000D02*
X6604000Y1778000D01*
X5080000Y3556000D02*
Y3937000D01*
Y3556000D02*
X5969000Y2667000D01*
X6731000D01*
X6349999Y7620000D02*
X6355951Y7614049D01*
X6604000Y7366000D01*
X4191000Y6985000D02*
X4318000Y7112000D01*
X4191000Y6477000D02*
Y6985000D01*
X4064000Y5842000D02*
X4318000Y6096000D01*
X4064000Y5461000D02*
Y5842000D01*
X4318000Y6096000D02*
X5080000D01*
X3937000Y6223000D02*
X4246397D01*
X4445000Y6421603D01*
Y6477000D01*
X3810000Y6350000D02*
X3937000Y6223000D01*
X3810000Y6350000D02*
Y6604000D01*
X3429000Y6985000D02*
X3810000Y6604000D01*
X2667000Y6985000D02*
X3429000D01*
X2413000Y6731000D02*
X2667000Y6985000D01*
X2413000Y6477000D02*
Y6731000D01*
X4318000Y7112000D02*
Y7366000D01*
Y7541600D01*
X4396400Y7620000D01*
X6349999D01*
%TF.MD5,2926623013e31f946faa5580e09e7d72*%
M02*
