%TF.GenerationSoftware,Altium Limited,Altium Designer,24.3.1 (35)*%
G04 Layer_Color=65535*
%FSLAX45Y45*%
%MOMM*%
%TF.SameCoordinates,1C176170-2899-406E-8B2E-9C71E4A34281*%
%TF.FilePolarity,Positive*%
%TF.FileFunction,Legend,Top*%
%TF.Part,Single*%
G01*
G75*
%TA.AperFunction,NonConductor*%
%ADD13C,0.25400*%
D13*
X3342607Y4137660D02*
X3241040D01*
X3342607Y4239227D01*
Y4264619D01*
X3317215Y4290011D01*
X3266432D01*
X3241040Y4264619D01*
X3469566Y4137660D02*
Y4290011D01*
X3393391Y4213835D01*
X3494958D01*
X3545741D02*
X3647309D01*
X3698092Y4086877D02*
Y4239227D01*
X3774268D01*
X3799659Y4213835D01*
Y4163052D01*
X3774268Y4137660D01*
X3698092D01*
X3850443D02*
X3901226D01*
X3875835D01*
Y4239227D01*
X3850443D01*
X3977402Y4137660D02*
Y4239227D01*
X4053577D01*
X4078969Y4213835D01*
Y4137660D01*
X3769360Y8493760D02*
Y8595327D01*
X3820143Y8646111D01*
X3870927Y8595327D01*
Y8493760D01*
Y8569935D01*
X3769360D01*
X4023278Y8595327D02*
X3947103D01*
X3921711Y8569935D01*
Y8519152D01*
X3947103Y8493760D01*
X4023278D01*
X4175629Y8595327D02*
X4099453D01*
X4074061Y8569935D01*
Y8519152D01*
X4099453Y8493760D01*
X4175629D01*
X4302588D02*
X4251804D01*
X4226412Y8519152D01*
Y8569935D01*
X4251804Y8595327D01*
X4302588D01*
X4327979Y8569935D01*
Y8544543D01*
X4226412D01*
X4378763Y8493760D02*
X4429546D01*
X4404155D01*
Y8646111D01*
X4378763D01*
X4295107Y12095439D02*
X4269715Y12120831D01*
X4218932D01*
X4193540Y12095439D01*
Y11993872D01*
X4218932Y11968480D01*
X4269715D01*
X4295107Y11993872D01*
Y12044655D01*
X4244323D01*
X4345891Y11968480D02*
Y12120831D01*
X4422066D01*
X4447458Y12095439D01*
Y12044655D01*
X4422066Y12019263D01*
X4345891D01*
X4599809Y12095439D02*
X4574417Y12120831D01*
X4523633D01*
X4498241Y12095439D01*
Y12070047D01*
X4523633Y12044655D01*
X4574417D01*
X4599809Y12019263D01*
Y11993872D01*
X4574417Y11968480D01*
X4523633D01*
X4498241Y11993872D01*
%TF.MD5,6e32abf0ee67f7748db74e01bb21b754*%
M02*
